%FSLAX45Y45*%
G04 Gerber Fmt 4.5, Leading zero omitted, Abs format (unit mm)*
G04 Created by KiCad (PCBNEW (5.1.9)-1) date 2021-06-12 20:28:36*
%MOMM*%
%LPD*%
G01*
G04 APERTURE LIST*
%TA.AperFunction,Profile*%
%ADD10C,0.050000*%
%TD*%
%ADD11C,0.200000*%
%ADD12C,0.300000*%
G04 APERTURE END LIST*
D10*
X2100000Y-7950000D02*
G75*
G02*
X2000000Y-7850000I0J100000D01*
G01*
X5000000Y-7850000D02*
G75*
G02*
X4900000Y-7950000I-100000J0D01*
G01*
X4900000Y-2050000D02*
G75*
G02*
X5000000Y-2150000I0J-100000D01*
G01*
X2000000Y-2150000D02*
G75*
G02*
X2100000Y-2050000I100000J0D01*
G01*
X2000000Y-7850000D02*
X2000000Y-2150000D01*
X4900000Y-7950000D02*
X2100000Y-7950000D01*
X5000000Y-2150000D02*
X5000000Y-7850000D01*
X2100000Y-2050000D02*
X4900000Y-2050000D01*
D11*
X2226000Y-5672400D02*
X2266000Y-5712400D01*
X2266000Y-5672400D02*
X2226000Y-5712400D01*
X2226000Y-6072400D02*
X2266000Y-6112400D01*
X2266000Y-6072400D02*
X2226000Y-6112400D01*
X2254900Y-2812900D02*
X2294900Y-2852900D01*
X2294900Y-2812900D02*
X2254900Y-2852900D01*
X2356500Y-6534000D02*
X2396500Y-6574000D01*
X2396500Y-6534000D02*
X2356500Y-6574000D01*
X2356500Y-7232500D02*
X2396500Y-7272500D01*
X2396500Y-7232500D02*
X2356500Y-7272500D01*
X2380000Y-3740000D02*
X2420000Y-3780000D01*
X2420000Y-3740000D02*
X2380000Y-3780000D01*
X2380000Y-4690000D02*
X2420000Y-4730000D01*
X2420000Y-4690000D02*
X2380000Y-4730000D01*
X2425600Y-5672400D02*
X2465600Y-5712400D01*
X2465600Y-5672400D02*
X2425600Y-5712400D01*
X2425600Y-6072400D02*
X2465600Y-6112400D01*
X2465600Y-6072400D02*
X2425600Y-6112400D01*
X2470000Y-2900000D02*
X2510000Y-2940000D01*
X2510000Y-2900000D02*
X2470000Y-2940000D01*
X2470000Y-3840000D02*
X2510000Y-3880000D01*
X2510000Y-3840000D02*
X2470000Y-3880000D01*
X2470000Y-4790000D02*
X2510000Y-4830000D01*
X2510000Y-4790000D02*
X2470000Y-4830000D01*
X2645600Y-6072400D02*
X2685600Y-6112400D01*
X2685600Y-6072400D02*
X2645600Y-6112400D01*
X2845450Y-3797150D02*
X2885450Y-3837150D01*
X2885450Y-3797150D02*
X2845450Y-3837150D01*
X2845450Y-4743300D02*
X2885450Y-4783300D01*
X2885450Y-4743300D02*
X2845450Y-4783300D01*
X2865600Y-5672400D02*
X2905600Y-5712400D01*
X2905600Y-5672400D02*
X2865600Y-5712400D01*
X2865600Y-6072400D02*
X2905600Y-6112400D01*
X2905600Y-6072400D02*
X2865600Y-6112400D01*
X3061350Y-3238350D02*
X3101350Y-3278350D01*
X3101350Y-3238350D02*
X3061350Y-3278350D01*
X3085600Y-5672400D02*
X3125600Y-5712400D01*
X3125600Y-5672400D02*
X3085600Y-5712400D01*
X3085600Y-6072400D02*
X3125600Y-6112400D01*
X3125600Y-6072400D02*
X3085600Y-6112400D01*
X3300000Y-3740000D02*
X3340000Y-3780000D01*
X3340000Y-3740000D02*
X3300000Y-3780000D01*
X3300000Y-4690000D02*
X3340000Y-4730000D01*
X3340000Y-4690000D02*
X3300000Y-4730000D01*
X3305600Y-6072400D02*
X3345600Y-6112400D01*
X3345600Y-6072400D02*
X3305600Y-6112400D01*
X3380000Y-2900000D02*
X3420000Y-2940000D01*
X3420000Y-2900000D02*
X3380000Y-2940000D01*
X3390000Y-3840000D02*
X3430000Y-3880000D01*
X3430000Y-3840000D02*
X3390000Y-3880000D01*
X3390000Y-4790000D02*
X3430000Y-4830000D01*
X3430000Y-4790000D02*
X3390000Y-4830000D01*
X3525600Y-5672400D02*
X3565600Y-5712400D01*
X3565600Y-5672400D02*
X3525600Y-5712400D01*
X3525600Y-6072400D02*
X3565600Y-6112400D01*
X3565600Y-6072400D02*
X3525600Y-6112400D01*
X3745600Y-5672400D02*
X3785600Y-5712400D01*
X3785600Y-5672400D02*
X3745600Y-5712400D01*
X3745600Y-6072400D02*
X3785600Y-6112400D01*
X3785600Y-6072400D02*
X3745600Y-6112400D01*
X3766200Y-3797150D02*
X3806200Y-3837150D01*
X3806200Y-3797150D02*
X3766200Y-3837150D01*
X3766200Y-4743300D02*
X3806200Y-4783300D01*
X3806200Y-4743300D02*
X3766200Y-4783300D01*
X3982100Y-3244700D02*
X4022100Y-3284700D01*
X4022100Y-3244700D02*
X3982100Y-3284700D01*
X4220000Y-3740000D02*
X4260000Y-3780000D01*
X4260000Y-3740000D02*
X4220000Y-3780000D01*
X4220000Y-4690000D02*
X4260000Y-4730000D01*
X4260000Y-4690000D02*
X4220000Y-4730000D01*
X4310000Y-2900000D02*
X4350000Y-2940000D01*
X4350000Y-2900000D02*
X4310000Y-2940000D01*
X4310000Y-3840000D02*
X4350000Y-3880000D01*
X4350000Y-3840000D02*
X4310000Y-3880000D01*
X4315600Y-6122400D02*
X4355600Y-6162400D01*
X4355600Y-6122400D02*
X4315600Y-6162400D01*
X4579000Y-7232500D02*
X4619000Y-7272500D01*
X4619000Y-7232500D02*
X4579000Y-7272500D01*
X4686950Y-3797150D02*
X4726950Y-3837150D01*
X4726950Y-3797150D02*
X4686950Y-3837150D01*
X2661000Y-2423000D02*
G75*
G03*
X2661000Y-2423000I-50000J0D01*
G01*
X2661000Y-2677000D02*
G75*
G03*
X2661000Y-2677000I-50000J0D01*
G01*
X2661000Y-6523000D02*
G75*
G03*
X2661000Y-6523000I-50000J0D01*
G01*
X2661000Y-6777000D02*
G75*
G03*
X2661000Y-6777000I-50000J0D01*
G01*
X2915000Y-2423000D02*
G75*
G03*
X2915000Y-2423000I-50000J0D01*
G01*
X2915000Y-2677000D02*
G75*
G03*
X2915000Y-2677000I-50000J0D01*
G01*
X2915000Y-6523000D02*
G75*
G03*
X2915000Y-6523000I-50000J0D01*
G01*
X2915000Y-6777000D02*
G75*
G03*
X2915000Y-6777000I-50000J0D01*
G01*
X3169000Y-2423000D02*
G75*
G03*
X3169000Y-2423000I-50000J0D01*
G01*
X3169000Y-2677000D02*
G75*
G03*
X3169000Y-2677000I-50000J0D01*
G01*
X3169000Y-6523000D02*
G75*
G03*
X3169000Y-6523000I-50000J0D01*
G01*
X3169000Y-6777000D02*
G75*
G03*
X3169000Y-6777000I-50000J0D01*
G01*
X3423000Y-2423000D02*
G75*
G03*
X3423000Y-2423000I-50000J0D01*
G01*
X3423000Y-2677000D02*
G75*
G03*
X3423000Y-2677000I-50000J0D01*
G01*
X3423000Y-6523000D02*
G75*
G03*
X3423000Y-6523000I-50000J0D01*
G01*
X3423000Y-6777000D02*
G75*
G03*
X3423000Y-6777000I-50000J0D01*
G01*
X3677000Y-2423000D02*
G75*
G03*
X3677000Y-2423000I-50000J0D01*
G01*
X3677000Y-2677000D02*
G75*
G03*
X3677000Y-2677000I-50000J0D01*
G01*
X3677000Y-6523000D02*
G75*
G03*
X3677000Y-6523000I-50000J0D01*
G01*
X3677000Y-6777000D02*
G75*
G03*
X3677000Y-6777000I-50000J0D01*
G01*
X3931000Y-2423000D02*
G75*
G03*
X3931000Y-2423000I-50000J0D01*
G01*
X3931000Y-2677000D02*
G75*
G03*
X3931000Y-2677000I-50000J0D01*
G01*
X3931000Y-6523000D02*
G75*
G03*
X3931000Y-6523000I-50000J0D01*
G01*
X3931000Y-6777000D02*
G75*
G03*
X3931000Y-6777000I-50000J0D01*
G01*
X4185000Y-2423000D02*
G75*
G03*
X4185000Y-2423000I-50000J0D01*
G01*
X4185000Y-2677000D02*
G75*
G03*
X4185000Y-2677000I-50000J0D01*
G01*
X4185000Y-6523000D02*
G75*
G03*
X4185000Y-6523000I-50000J0D01*
G01*
X4185000Y-6777000D02*
G75*
G03*
X4185000Y-6777000I-50000J0D01*
G01*
X4439000Y-2423000D02*
G75*
G03*
X4439000Y-2423000I-50000J0D01*
G01*
X4439000Y-2677000D02*
G75*
G03*
X4439000Y-2677000I-50000J0D01*
G01*
X4439000Y-6523000D02*
G75*
G03*
X4439000Y-6523000I-50000J0D01*
G01*
X4439000Y-6777000D02*
G75*
G03*
X4439000Y-6777000I-50000J0D01*
G01*
D12*
X2283928Y-8418214D02*
X2283928Y-8118214D01*
X2355357Y-8118214D01*
X2398214Y-8132500D01*
X2426786Y-8161071D01*
X2441071Y-8189643D01*
X2455357Y-8246786D01*
X2455357Y-8289643D01*
X2441071Y-8346786D01*
X2426786Y-8375357D01*
X2398214Y-8403929D01*
X2355357Y-8418214D01*
X2283928Y-8418214D01*
X2583928Y-8418214D02*
X2583928Y-8218214D01*
X2583928Y-8275357D02*
X2598214Y-8246786D01*
X2612500Y-8232500D01*
X2641071Y-8218214D01*
X2669643Y-8218214D01*
X2769643Y-8418214D02*
X2769643Y-8218214D01*
X2769643Y-8118214D02*
X2755357Y-8132500D01*
X2769643Y-8146786D01*
X2783928Y-8132500D01*
X2769643Y-8118214D01*
X2769643Y-8146786D01*
X2955357Y-8418214D02*
X2926786Y-8403929D01*
X2912500Y-8375357D01*
X2912500Y-8118214D01*
X3112500Y-8418214D02*
X3083928Y-8403929D01*
X3069643Y-8375357D01*
X3069643Y-8118214D01*
X3455357Y-8418214D02*
X3455357Y-8118214D01*
X3555357Y-8332500D01*
X3655357Y-8118214D01*
X3655357Y-8418214D01*
X3926786Y-8418214D02*
X3926786Y-8261071D01*
X3912500Y-8232500D01*
X3883928Y-8218214D01*
X3826786Y-8218214D01*
X3798214Y-8232500D01*
X3926786Y-8403929D02*
X3898214Y-8418214D01*
X3826786Y-8418214D01*
X3798214Y-8403929D01*
X3783928Y-8375357D01*
X3783928Y-8346786D01*
X3798214Y-8318214D01*
X3826786Y-8303929D01*
X3898214Y-8303929D01*
X3926786Y-8289643D01*
X4069643Y-8218214D02*
X4069643Y-8518214D01*
X4069643Y-8232500D02*
X4098214Y-8218214D01*
X4155357Y-8218214D01*
X4183928Y-8232500D01*
X4198214Y-8246786D01*
X4212500Y-8275357D01*
X4212500Y-8361071D01*
X4198214Y-8389643D01*
X4183928Y-8403929D01*
X4155357Y-8418214D01*
X4098214Y-8418214D01*
X4069643Y-8403929D01*
X4341071Y-8389643D02*
X4355357Y-8403929D01*
X4341071Y-8418214D01*
X4326786Y-8403929D01*
X4341071Y-8389643D01*
X4341071Y-8418214D01*
X4341071Y-8232500D02*
X4355357Y-8246786D01*
X4341071Y-8261071D01*
X4326786Y-8246786D01*
X4341071Y-8232500D01*
X4341071Y-8261071D01*
X1957500Y-8892500D02*
X1997500Y-8932500D01*
X1997500Y-8892500D02*
X1957500Y-8932500D01*
X2341071Y-8748214D02*
X2369643Y-8748214D01*
X2398214Y-8762500D01*
X2412500Y-8776786D01*
X2426786Y-8805357D01*
X2441071Y-8862500D01*
X2441071Y-8933929D01*
X2426786Y-8991072D01*
X2412500Y-9019643D01*
X2398214Y-9033929D01*
X2369643Y-9048214D01*
X2341071Y-9048214D01*
X2312500Y-9033929D01*
X2298214Y-9019643D01*
X2283928Y-8991072D01*
X2269643Y-8933929D01*
X2269643Y-8862500D01*
X2283928Y-8805357D01*
X2298214Y-8776786D01*
X2312500Y-8762500D01*
X2341071Y-8748214D01*
X2569643Y-9019643D02*
X2583928Y-9033929D01*
X2569643Y-9048214D01*
X2555357Y-9033929D01*
X2569643Y-9019643D01*
X2569643Y-9048214D01*
X2841071Y-8848214D02*
X2841071Y-9048214D01*
X2769643Y-8733929D02*
X2698214Y-8948214D01*
X2883928Y-8948214D01*
X3055357Y-8748214D02*
X3083928Y-8748214D01*
X3112500Y-8762500D01*
X3126786Y-8776786D01*
X3141071Y-8805357D01*
X3155357Y-8862500D01*
X3155357Y-8933929D01*
X3141071Y-8991072D01*
X3126786Y-9019643D01*
X3112500Y-9033929D01*
X3083928Y-9048214D01*
X3055357Y-9048214D01*
X3026786Y-9033929D01*
X3012500Y-9019643D01*
X2998214Y-8991072D01*
X2983928Y-8933929D01*
X2983928Y-8862500D01*
X2998214Y-8805357D01*
X3012500Y-8776786D01*
X3026786Y-8762500D01*
X3055357Y-8748214D01*
X3283928Y-9048214D02*
X3283928Y-8848214D01*
X3283928Y-8876786D02*
X3298214Y-8862500D01*
X3326786Y-8848214D01*
X3369643Y-8848214D01*
X3398214Y-8862500D01*
X3412500Y-8891072D01*
X3412500Y-9048214D01*
X3412500Y-8891072D02*
X3426786Y-8862500D01*
X3455357Y-8848214D01*
X3498214Y-8848214D01*
X3526786Y-8862500D01*
X3541071Y-8891072D01*
X3541071Y-9048214D01*
X3683928Y-9048214D02*
X3683928Y-8848214D01*
X3683928Y-8876786D02*
X3698214Y-8862500D01*
X3726786Y-8848214D01*
X3769643Y-8848214D01*
X3798214Y-8862500D01*
X3812500Y-8891072D01*
X3812500Y-9048214D01*
X3812500Y-8891072D02*
X3826786Y-8862500D01*
X3855357Y-8848214D01*
X3898214Y-8848214D01*
X3926786Y-8862500D01*
X3941071Y-8891072D01*
X3941071Y-9048214D01*
X4526786Y-8733929D02*
X4269643Y-9119643D01*
X4912500Y-8748214D02*
X4941071Y-8748214D01*
X4969643Y-8762500D01*
X4983928Y-8776786D01*
X4998214Y-8805357D01*
X5012500Y-8862500D01*
X5012500Y-8933929D01*
X4998214Y-8991072D01*
X4983928Y-9019643D01*
X4969643Y-9033929D01*
X4941071Y-9048214D01*
X4912500Y-9048214D01*
X4883928Y-9033929D01*
X4869643Y-9019643D01*
X4855357Y-8991072D01*
X4841071Y-8933929D01*
X4841071Y-8862500D01*
X4855357Y-8805357D01*
X4869643Y-8776786D01*
X4883928Y-8762500D01*
X4912500Y-8748214D01*
X5141071Y-9019643D02*
X5155357Y-9033929D01*
X5141071Y-9048214D01*
X5126786Y-9033929D01*
X5141071Y-9019643D01*
X5141071Y-9048214D01*
X5341071Y-8748214D02*
X5369643Y-8748214D01*
X5398214Y-8762500D01*
X5412500Y-8776786D01*
X5426786Y-8805357D01*
X5441071Y-8862500D01*
X5441071Y-8933929D01*
X5426786Y-8991072D01*
X5412500Y-9019643D01*
X5398214Y-9033929D01*
X5369643Y-9048214D01*
X5341071Y-9048214D01*
X5312500Y-9033929D01*
X5298214Y-9019643D01*
X5283928Y-8991072D01*
X5269643Y-8933929D01*
X5269643Y-8862500D01*
X5283928Y-8805357D01*
X5298214Y-8776786D01*
X5312500Y-8762500D01*
X5341071Y-8748214D01*
X5726786Y-9048214D02*
X5555357Y-9048214D01*
X5641071Y-9048214D02*
X5641071Y-8748214D01*
X5612500Y-8791072D01*
X5583928Y-8819643D01*
X5555357Y-8833929D01*
X5983928Y-8748214D02*
X5926786Y-8748214D01*
X5898214Y-8762500D01*
X5883928Y-8776786D01*
X5855357Y-8819643D01*
X5841071Y-8876786D01*
X5841071Y-8991072D01*
X5855357Y-9019643D01*
X5869643Y-9033929D01*
X5898214Y-9048214D01*
X5955357Y-9048214D01*
X5983928Y-9033929D01*
X5998214Y-9019643D01*
X6012500Y-8991072D01*
X6012500Y-8919643D01*
X5998214Y-8891072D01*
X5983928Y-8876786D01*
X5955357Y-8862500D01*
X5898214Y-8862500D01*
X5869643Y-8876786D01*
X5855357Y-8891072D01*
X5841071Y-8919643D01*
X6126786Y-8748214D02*
X6126786Y-8805357D01*
X6241071Y-8748214D02*
X6241071Y-8805357D01*
X6683928Y-9162500D02*
X6669643Y-9148214D01*
X6641071Y-9105357D01*
X6626786Y-9076786D01*
X6612500Y-9033929D01*
X6598214Y-8962500D01*
X6598214Y-8905357D01*
X6612500Y-8833929D01*
X6626786Y-8791072D01*
X6641071Y-8762500D01*
X6669643Y-8719643D01*
X6683928Y-8705357D01*
X6926786Y-8848214D02*
X6926786Y-9048214D01*
X6855357Y-8733929D02*
X6783928Y-8948214D01*
X6969643Y-8948214D01*
X7141071Y-8748214D02*
X7169643Y-8748214D01*
X7198214Y-8762500D01*
X7212500Y-8776786D01*
X7226786Y-8805357D01*
X7241071Y-8862500D01*
X7241071Y-8933929D01*
X7226786Y-8991072D01*
X7212500Y-9019643D01*
X7198214Y-9033929D01*
X7169643Y-9048214D01*
X7141071Y-9048214D01*
X7112500Y-9033929D01*
X7098214Y-9019643D01*
X7083928Y-8991072D01*
X7069643Y-8933929D01*
X7069643Y-8862500D01*
X7083928Y-8805357D01*
X7098214Y-8776786D01*
X7112500Y-8762500D01*
X7141071Y-8748214D01*
X7598214Y-9048214D02*
X7598214Y-8748214D01*
X7726786Y-9048214D02*
X7726786Y-8891072D01*
X7712500Y-8862500D01*
X7683928Y-8848214D01*
X7641071Y-8848214D01*
X7612500Y-8862500D01*
X7598214Y-8876786D01*
X7912500Y-9048214D02*
X7883928Y-9033929D01*
X7869643Y-9019643D01*
X7855357Y-8991072D01*
X7855357Y-8905357D01*
X7869643Y-8876786D01*
X7883928Y-8862500D01*
X7912500Y-8848214D01*
X7955357Y-8848214D01*
X7983928Y-8862500D01*
X7998214Y-8876786D01*
X8012500Y-8905357D01*
X8012500Y-8991072D01*
X7998214Y-9019643D01*
X7983928Y-9033929D01*
X7955357Y-9048214D01*
X7912500Y-9048214D01*
X8183928Y-9048214D02*
X8155357Y-9033929D01*
X8141071Y-9005357D01*
X8141071Y-8748214D01*
X8412500Y-9033929D02*
X8383928Y-9048214D01*
X8326786Y-9048214D01*
X8298214Y-9033929D01*
X8283928Y-9005357D01*
X8283928Y-8891072D01*
X8298214Y-8862500D01*
X8326786Y-8848214D01*
X8383928Y-8848214D01*
X8412500Y-8862500D01*
X8426786Y-8891072D01*
X8426786Y-8919643D01*
X8283928Y-8948214D01*
X8541071Y-9033929D02*
X8569643Y-9048214D01*
X8626786Y-9048214D01*
X8655357Y-9033929D01*
X8669643Y-9005357D01*
X8669643Y-8991072D01*
X8655357Y-8962500D01*
X8626786Y-8948214D01*
X8583928Y-8948214D01*
X8555357Y-8933929D01*
X8541071Y-8905357D01*
X8541071Y-8891072D01*
X8555357Y-8862500D01*
X8583928Y-8848214D01*
X8626786Y-8848214D01*
X8655357Y-8862500D01*
X8769643Y-9162500D02*
X8783928Y-9148214D01*
X8812500Y-9105357D01*
X8826786Y-9076786D01*
X8841071Y-9033929D01*
X8855357Y-8962500D01*
X8855357Y-8905357D01*
X8841071Y-8833929D01*
X8826786Y-8791072D01*
X8812500Y-8762500D01*
X8783928Y-8719643D01*
X8769643Y-8705357D01*
X1997500Y-9308500D02*
G75*
G03*
X1997500Y-9308500I-50000J0D01*
G01*
X2441071Y-9444214D02*
X2269643Y-9444214D01*
X2355357Y-9444214D02*
X2355357Y-9144214D01*
X2326786Y-9187072D01*
X2298214Y-9215643D01*
X2269643Y-9229929D01*
X2569643Y-9415643D02*
X2583928Y-9429929D01*
X2569643Y-9444214D01*
X2555357Y-9429929D01*
X2569643Y-9415643D01*
X2569643Y-9444214D01*
X2769643Y-9144214D02*
X2798214Y-9144214D01*
X2826786Y-9158500D01*
X2841071Y-9172786D01*
X2855357Y-9201357D01*
X2869643Y-9258500D01*
X2869643Y-9329929D01*
X2855357Y-9387072D01*
X2841071Y-9415643D01*
X2826786Y-9429929D01*
X2798214Y-9444214D01*
X2769643Y-9444214D01*
X2741071Y-9429929D01*
X2726786Y-9415643D01*
X2712500Y-9387072D01*
X2698214Y-9329929D01*
X2698214Y-9258500D01*
X2712500Y-9201357D01*
X2726786Y-9172786D01*
X2741071Y-9158500D01*
X2769643Y-9144214D01*
X3055357Y-9144214D02*
X3083928Y-9144214D01*
X3112500Y-9158500D01*
X3126786Y-9172786D01*
X3141071Y-9201357D01*
X3155357Y-9258500D01*
X3155357Y-9329929D01*
X3141071Y-9387072D01*
X3126786Y-9415643D01*
X3112500Y-9429929D01*
X3083928Y-9444214D01*
X3055357Y-9444214D01*
X3026786Y-9429929D01*
X3012500Y-9415643D01*
X2998214Y-9387072D01*
X2983928Y-9329929D01*
X2983928Y-9258500D01*
X2998214Y-9201357D01*
X3012500Y-9172786D01*
X3026786Y-9158500D01*
X3055357Y-9144214D01*
X3283928Y-9444214D02*
X3283928Y-9244214D01*
X3283928Y-9272786D02*
X3298214Y-9258500D01*
X3326786Y-9244214D01*
X3369643Y-9244214D01*
X3398214Y-9258500D01*
X3412500Y-9287072D01*
X3412500Y-9444214D01*
X3412500Y-9287072D02*
X3426786Y-9258500D01*
X3455357Y-9244214D01*
X3498214Y-9244214D01*
X3526786Y-9258500D01*
X3541071Y-9287072D01*
X3541071Y-9444214D01*
X3683928Y-9444214D02*
X3683928Y-9244214D01*
X3683928Y-9272786D02*
X3698214Y-9258500D01*
X3726786Y-9244214D01*
X3769643Y-9244214D01*
X3798214Y-9258500D01*
X3812500Y-9287072D01*
X3812500Y-9444214D01*
X3812500Y-9287072D02*
X3826786Y-9258500D01*
X3855357Y-9244214D01*
X3898214Y-9244214D01*
X3926786Y-9258500D01*
X3941071Y-9287072D01*
X3941071Y-9444214D01*
X4526786Y-9129929D02*
X4269643Y-9515643D01*
X4912500Y-9144214D02*
X4941071Y-9144214D01*
X4969643Y-9158500D01*
X4983928Y-9172786D01*
X4998214Y-9201357D01*
X5012500Y-9258500D01*
X5012500Y-9329929D01*
X4998214Y-9387072D01*
X4983928Y-9415643D01*
X4969643Y-9429929D01*
X4941071Y-9444214D01*
X4912500Y-9444214D01*
X4883928Y-9429929D01*
X4869643Y-9415643D01*
X4855357Y-9387072D01*
X4841071Y-9329929D01*
X4841071Y-9258500D01*
X4855357Y-9201357D01*
X4869643Y-9172786D01*
X4883928Y-9158500D01*
X4912500Y-9144214D01*
X5141071Y-9415643D02*
X5155357Y-9429929D01*
X5141071Y-9444214D01*
X5126786Y-9429929D01*
X5141071Y-9415643D01*
X5141071Y-9444214D01*
X5341071Y-9144214D02*
X5369643Y-9144214D01*
X5398214Y-9158500D01*
X5412500Y-9172786D01*
X5426786Y-9201357D01*
X5441071Y-9258500D01*
X5441071Y-9329929D01*
X5426786Y-9387072D01*
X5412500Y-9415643D01*
X5398214Y-9429929D01*
X5369643Y-9444214D01*
X5341071Y-9444214D01*
X5312500Y-9429929D01*
X5298214Y-9415643D01*
X5283928Y-9387072D01*
X5269643Y-9329929D01*
X5269643Y-9258500D01*
X5283928Y-9201357D01*
X5298214Y-9172786D01*
X5312500Y-9158500D01*
X5341071Y-9144214D01*
X5541071Y-9144214D02*
X5726786Y-9144214D01*
X5626786Y-9258500D01*
X5669643Y-9258500D01*
X5698214Y-9272786D01*
X5712500Y-9287072D01*
X5726786Y-9315643D01*
X5726786Y-9387072D01*
X5712500Y-9415643D01*
X5698214Y-9429929D01*
X5669643Y-9444214D01*
X5583928Y-9444214D01*
X5555357Y-9429929D01*
X5541071Y-9415643D01*
X5869643Y-9444214D02*
X5926786Y-9444214D01*
X5955357Y-9429929D01*
X5969643Y-9415643D01*
X5998214Y-9372786D01*
X6012500Y-9315643D01*
X6012500Y-9201357D01*
X5998214Y-9172786D01*
X5983928Y-9158500D01*
X5955357Y-9144214D01*
X5898214Y-9144214D01*
X5869643Y-9158500D01*
X5855357Y-9172786D01*
X5841071Y-9201357D01*
X5841071Y-9272786D01*
X5855357Y-9301357D01*
X5869643Y-9315643D01*
X5898214Y-9329929D01*
X5955357Y-9329929D01*
X5983928Y-9315643D01*
X5998214Y-9301357D01*
X6012500Y-9272786D01*
X6126786Y-9144214D02*
X6126786Y-9201357D01*
X6241071Y-9144214D02*
X6241071Y-9201357D01*
X6683928Y-9558500D02*
X6669643Y-9544214D01*
X6641071Y-9501357D01*
X6626786Y-9472786D01*
X6612500Y-9429929D01*
X6598214Y-9358500D01*
X6598214Y-9301357D01*
X6612500Y-9229929D01*
X6626786Y-9187072D01*
X6641071Y-9158500D01*
X6669643Y-9115643D01*
X6683928Y-9101357D01*
X6769643Y-9144214D02*
X6955357Y-9144214D01*
X6855357Y-9258500D01*
X6898214Y-9258500D01*
X6926786Y-9272786D01*
X6941071Y-9287072D01*
X6955357Y-9315643D01*
X6955357Y-9387072D01*
X6941071Y-9415643D01*
X6926786Y-9429929D01*
X6898214Y-9444214D01*
X6812500Y-9444214D01*
X6783928Y-9429929D01*
X6769643Y-9415643D01*
X7069643Y-9172786D02*
X7083928Y-9158500D01*
X7112500Y-9144214D01*
X7183928Y-9144214D01*
X7212500Y-9158500D01*
X7226786Y-9172786D01*
X7241071Y-9201357D01*
X7241071Y-9229929D01*
X7226786Y-9272786D01*
X7055357Y-9444214D01*
X7241071Y-9444214D01*
X7598214Y-9444214D02*
X7598214Y-9144214D01*
X7726786Y-9444214D02*
X7726786Y-9287072D01*
X7712500Y-9258500D01*
X7683928Y-9244214D01*
X7641071Y-9244214D01*
X7612500Y-9258500D01*
X7598214Y-9272786D01*
X7912500Y-9444214D02*
X7883928Y-9429929D01*
X7869643Y-9415643D01*
X7855357Y-9387072D01*
X7855357Y-9301357D01*
X7869643Y-9272786D01*
X7883928Y-9258500D01*
X7912500Y-9244214D01*
X7955357Y-9244214D01*
X7983928Y-9258500D01*
X7998214Y-9272786D01*
X8012500Y-9301357D01*
X8012500Y-9387072D01*
X7998214Y-9415643D01*
X7983928Y-9429929D01*
X7955357Y-9444214D01*
X7912500Y-9444214D01*
X8183928Y-9444214D02*
X8155357Y-9429929D01*
X8141071Y-9401357D01*
X8141071Y-9144214D01*
X8412500Y-9429929D02*
X8383928Y-9444214D01*
X8326786Y-9444214D01*
X8298214Y-9429929D01*
X8283928Y-9401357D01*
X8283928Y-9287072D01*
X8298214Y-9258500D01*
X8326786Y-9244214D01*
X8383928Y-9244214D01*
X8412500Y-9258500D01*
X8426786Y-9287072D01*
X8426786Y-9315643D01*
X8283928Y-9344214D01*
X8541071Y-9429929D02*
X8569643Y-9444214D01*
X8626786Y-9444214D01*
X8655357Y-9429929D01*
X8669643Y-9401357D01*
X8669643Y-9387072D01*
X8655357Y-9358500D01*
X8626786Y-9344214D01*
X8583928Y-9344214D01*
X8555357Y-9329929D01*
X8541071Y-9301357D01*
X8541071Y-9287072D01*
X8555357Y-9258500D01*
X8583928Y-9244214D01*
X8626786Y-9244214D01*
X8655357Y-9258500D01*
X8769643Y-9558500D02*
X8783928Y-9544214D01*
X8812500Y-9501357D01*
X8826786Y-9472786D01*
X8841071Y-9429929D01*
X8855357Y-9358500D01*
X8855357Y-9301357D01*
X8841071Y-9229929D01*
X8826786Y-9187072D01*
X8812500Y-9158500D01*
X8783928Y-9115643D01*
X8769643Y-9101357D01*
M02*
