%FSLAX45Y45*%
G04 Gerber Fmt 4.5, Leading zero omitted, Abs format (unit mm)*
G04 Created by KiCad (PCBNEW (5.1.9)-1) date 2021-06-12 20:28:36*
%MOMM*%
%LPD*%
G01*
G04 APERTURE LIST*
%TA.AperFunction,Profile*%
%ADD10C,0.050000*%
%TD*%
%ADD11C,0.200000*%
%ADD12C,0.300000*%
G04 APERTURE END LIST*
D10*
X2100000Y-7950000D02*
G75*
G02*
X2000000Y-7850000I0J100000D01*
G01*
X5000000Y-7850000D02*
G75*
G02*
X4900000Y-7950000I-100000J0D01*
G01*
X4900000Y-2050000D02*
G75*
G02*
X5000000Y-2150000I0J-100000D01*
G01*
X2000000Y-2150000D02*
G75*
G02*
X2100000Y-2050000I100000J0D01*
G01*
X2000000Y-7850000D02*
X2000000Y-2150000D01*
X4900000Y-7950000D02*
X2100000Y-7950000D01*
X5000000Y-2150000D02*
X5000000Y-7850000D01*
X2100000Y-2050000D02*
X4900000Y-2050000D01*
D11*
D12*
X2283928Y-8418214D02*
X2283928Y-8118214D01*
X2355357Y-8118214D01*
X2398214Y-8132500D01*
X2426786Y-8161071D01*
X2441071Y-8189643D01*
X2455357Y-8246786D01*
X2455357Y-8289643D01*
X2441071Y-8346786D01*
X2426786Y-8375357D01*
X2398214Y-8403929D01*
X2355357Y-8418214D01*
X2283928Y-8418214D01*
X2583928Y-8418214D02*
X2583928Y-8218214D01*
X2583928Y-8275357D02*
X2598214Y-8246786D01*
X2612500Y-8232500D01*
X2641071Y-8218214D01*
X2669643Y-8218214D01*
X2769643Y-8418214D02*
X2769643Y-8218214D01*
X2769643Y-8118214D02*
X2755357Y-8132500D01*
X2769643Y-8146786D01*
X2783928Y-8132500D01*
X2769643Y-8118214D01*
X2769643Y-8146786D01*
X2955357Y-8418214D02*
X2926786Y-8403929D01*
X2912500Y-8375357D01*
X2912500Y-8118214D01*
X3112500Y-8418214D02*
X3083928Y-8403929D01*
X3069643Y-8375357D01*
X3069643Y-8118214D01*
X3455357Y-8418214D02*
X3455357Y-8118214D01*
X3555357Y-8332500D01*
X3655357Y-8118214D01*
X3655357Y-8418214D01*
X3926786Y-8418214D02*
X3926786Y-8261071D01*
X3912500Y-8232500D01*
X3883928Y-8218214D01*
X3826786Y-8218214D01*
X3798214Y-8232500D01*
X3926786Y-8403929D02*
X3898214Y-8418214D01*
X3826786Y-8418214D01*
X3798214Y-8403929D01*
X3783928Y-8375357D01*
X3783928Y-8346786D01*
X3798214Y-8318214D01*
X3826786Y-8303929D01*
X3898214Y-8303929D01*
X3926786Y-8289643D01*
X4069643Y-8218214D02*
X4069643Y-8518214D01*
X4069643Y-8232500D02*
X4098214Y-8218214D01*
X4155357Y-8218214D01*
X4183928Y-8232500D01*
X4198214Y-8246786D01*
X4212500Y-8275357D01*
X4212500Y-8361071D01*
X4198214Y-8389643D01*
X4183928Y-8403929D01*
X4155357Y-8418214D01*
X4098214Y-8418214D01*
X4069643Y-8403929D01*
X4341071Y-8389643D02*
X4355357Y-8403929D01*
X4341071Y-8418214D01*
X4326786Y-8403929D01*
X4341071Y-8389643D01*
X4341071Y-8418214D01*
X4341071Y-8232500D02*
X4355357Y-8246786D01*
X4341071Y-8261071D01*
X4326786Y-8246786D01*
X4341071Y-8232500D01*
X4341071Y-8261071D01*
M02*
