%TF.GenerationSoftware,KiCad,Pcbnew,10.0.3*%
%TF.CreationDate,2026-06-27T21:23:16+01:00*%
%TF.ProjectId,Comms,436f6d6d-732e-46b6-9963-61645f706362,rev?*%
%TF.SameCoordinates,Original*%
%TF.FileFunction,Copper,L1,Top*%
%TF.FilePolarity,Positive*%
%FSLAX46Y46*%
G04 Gerber Fmt 4.6, Leading zero omitted, Abs format (unit mm)*
G04 Created by KiCad (PCBNEW 10.0.3) date 2026-06-27 21:23:16*
%MOMM*%
%LPD*%
G01*
G04 APERTURE LIST*
G04 Aperture macros list*
%AMRoundRect*
0 Rectangle with rounded corners*
0 $1 Rounding radius*
0 $2 $3 $4 $5 $6 $7 $8 $9 X,Y pos of 4 corners*
0 Add a 4 corners polygon primitive as box body*
4,1,4,$2,$3,$4,$5,$6,$7,$8,$9,$2,$3,0*
0 Add four circle primitives for the rounded corners*
1,1,$1+$1,$2,$3*
1,1,$1+$1,$4,$5*
1,1,$1+$1,$6,$7*
1,1,$1+$1,$8,$9*
0 Add four rect primitives between the rounded corners*
20,1,$1+$1,$2,$3,$4,$5,0*
20,1,$1+$1,$4,$5,$6,$7,0*
20,1,$1+$1,$6,$7,$8,$9,0*
20,1,$1+$1,$8,$9,$2,$3,0*%
G04 Aperture macros list end*
%TA.AperFunction,SMDPad,CuDef*%
%ADD10R,0.900000X1.000000*%
%TD*%
%TA.AperFunction,SMDPad,CuDef*%
%ADD11R,2.100000X1.000000*%
%TD*%
%TA.AperFunction,SMDPad,CuDef*%
%ADD12R,1.000000X0.900000*%
%TD*%
%TA.AperFunction,SMDPad,CuDef*%
%ADD13R,1.000000X1.100000*%
%TD*%
%TA.AperFunction,SMDPad,CuDef*%
%ADD14R,0.600000X0.900000*%
%TD*%
%TA.AperFunction,SMDPad,CuDef*%
%ADD15R,1.500000X0.900000*%
%TD*%
%TA.AperFunction,SMDPad,CuDef*%
%ADD16R,1.200000X0.900000*%
%TD*%
%TA.AperFunction,ComponentPad*%
%ADD17R,1.700000X1.700000*%
%TD*%
%TA.AperFunction,ComponentPad*%
%ADD18O,1.700000X1.700000*%
%TD*%
%TA.AperFunction,SMDPad,CuDef*%
%ADD19RoundRect,0.150000X0.150000X-0.587500X0.150000X0.587500X-0.150000X0.587500X-0.150000X-0.587500X0*%
%TD*%
%TA.AperFunction,SMDPad,CuDef*%
%ADD20RoundRect,0.250000X-0.250000X0.275000X-0.250000X-0.275000X0.250000X-0.275000X0.250000X0.275000X0*%
%TD*%
%TA.AperFunction,SMDPad,CuDef*%
%ADD21RoundRect,0.250000X-0.275000X0.850000X-0.275000X-0.850000X0.275000X-0.850000X0.275000X0.850000X0*%
%TD*%
%TA.AperFunction,SMDPad,CuDef*%
%ADD22RoundRect,0.250000X0.650000X-0.350000X0.650000X0.350000X-0.650000X0.350000X-0.650000X-0.350000X0*%
%TD*%
%TA.AperFunction,SMDPad,CuDef*%
%ADD23RoundRect,0.135000X0.135000X0.185000X-0.135000X0.185000X-0.135000X-0.185000X0.135000X-0.185000X0*%
%TD*%
%TA.AperFunction,SMDPad,CuDef*%
%ADD24RoundRect,0.225000X0.250000X-0.225000X0.250000X0.225000X-0.250000X0.225000X-0.250000X-0.225000X0*%
%TD*%
%TA.AperFunction,SMDPad,CuDef*%
%ADD25R,1.000000X2.100000*%
%TD*%
%TA.AperFunction,SMDPad,CuDef*%
%ADD26R,1.100000X1.000000*%
%TD*%
%TA.AperFunction,SMDPad,CuDef*%
%ADD27RoundRect,0.062500X0.062500X-0.337500X0.062500X0.337500X-0.062500X0.337500X-0.062500X-0.337500X0*%
%TD*%
%TA.AperFunction,SMDPad,CuDef*%
%ADD28RoundRect,0.062500X0.337500X-0.062500X0.337500X0.062500X-0.337500X0.062500X-0.337500X-0.062500X0*%
%TD*%
%TA.AperFunction,HeatsinkPad*%
%ADD29R,3.700000X3.700000*%
%TD*%
%TA.AperFunction,SMDPad,CuDef*%
%ADD30RoundRect,0.225000X0.225000X0.250000X-0.225000X0.250000X-0.225000X-0.250000X0.225000X-0.250000X0*%
%TD*%
%TA.AperFunction,SMDPad,CuDef*%
%ADD31RoundRect,0.225000X-0.250000X0.225000X-0.250000X-0.225000X0.250000X-0.225000X0.250000X0.225000X0*%
%TD*%
%TA.AperFunction,SMDPad,CuDef*%
%ADD32RoundRect,0.150000X0.587500X0.150000X-0.587500X0.150000X-0.587500X-0.150000X0.587500X-0.150000X0*%
%TD*%
%TA.AperFunction,SMDPad,CuDef*%
%ADD33RoundRect,0.200000X0.275000X-0.200000X0.275000X0.200000X-0.275000X0.200000X-0.275000X-0.200000X0*%
%TD*%
%TA.AperFunction,SMDPad,CuDef*%
%ADD34RoundRect,0.200000X-0.275000X0.200000X-0.275000X-0.200000X0.275000X-0.200000X0.275000X0.200000X0*%
%TD*%
%TA.AperFunction,SMDPad,CuDef*%
%ADD35RoundRect,0.135000X-0.135000X-0.185000X0.135000X-0.185000X0.135000X0.185000X-0.135000X0.185000X0*%
%TD*%
%TA.AperFunction,SMDPad,CuDef*%
%ADD36RoundRect,0.135000X0.185000X-0.135000X0.185000X0.135000X-0.185000X0.135000X-0.185000X-0.135000X0*%
%TD*%
%TA.AperFunction,SMDPad,CuDef*%
%ADD37RoundRect,0.150000X0.150000X0.400000X-0.150000X0.400000X-0.150000X-0.400000X0.150000X-0.400000X0*%
%TD*%
%TA.AperFunction,SMDPad,CuDef*%
%ADD38RoundRect,0.135000X-0.185000X0.135000X-0.185000X-0.135000X0.185000X-0.135000X0.185000X0.135000X0*%
%TD*%
%TA.AperFunction,SMDPad,CuDef*%
%ADD39RoundRect,0.250000X0.250000X-0.275000X0.250000X0.275000X-0.250000X0.275000X-0.250000X-0.275000X0*%
%TD*%
%TA.AperFunction,SMDPad,CuDef*%
%ADD40RoundRect,0.250000X0.275000X-0.850000X0.275000X0.850000X-0.275000X0.850000X-0.275000X-0.850000X0*%
%TD*%
%TA.AperFunction,SMDPad,CuDef*%
%ADD41RoundRect,0.050000X-0.285000X-0.100000X0.285000X-0.100000X0.285000X0.100000X-0.285000X0.100000X0*%
%TD*%
%TA.AperFunction,SMDPad,CuDef*%
%ADD42RoundRect,0.150000X-0.150000X0.587500X-0.150000X-0.587500X0.150000X-0.587500X0.150000X0.587500X0*%
%TD*%
%TA.AperFunction,SMDPad,CuDef*%
%ADD43RoundRect,0.200000X0.200000X-0.250000X0.200000X0.250000X-0.200000X0.250000X-0.200000X-0.250000X0*%
%TD*%
%TA.AperFunction,SMDPad,CuDef*%
%ADD44C,0.320000*%
%TD*%
%TA.AperFunction,ConnectorPad*%
%ADD45C,0.787400*%
%TD*%
%TA.AperFunction,ViaPad*%
%ADD46C,0.600000*%
%TD*%
%TA.AperFunction,ViaPad*%
%ADD47C,0.800000*%
%TD*%
%TA.AperFunction,Conductor*%
%ADD48C,0.250000*%
%TD*%
%TA.AperFunction,Conductor*%
%ADD49C,0.500000*%
%TD*%
%TA.AperFunction,Conductor*%
%ADD50C,0.294100*%
%TD*%
%TA.AperFunction,Conductor*%
%ADD51C,0.217200*%
%TD*%
%TA.AperFunction,Conductor*%
%ADD52C,0.300000*%
%TD*%
G04 APERTURE END LIST*
D10*
%TO.P,J9,1,Pin_1_1*%
%TO.N,GND*%
X58100000Y-63400000D03*
D11*
X61600000Y-63400000D03*
D12*
X62150000Y-59350000D03*
D13*
X62150000Y-62350000D03*
%TD*%
D14*
%TO.P,J13,1,Pin_1_1*%
%TO.N,GND*%
X52700000Y-43400000D03*
D15*
X51300000Y-43400000D03*
D16*
X49650000Y-43400000D03*
D15*
X48000000Y-43400000D03*
D14*
X46600000Y-43400000D03*
%TD*%
D17*
%TO.P,J1,1,SPI-CIPO_1*%
%TO.N,SPI-CIPO*%
X26270000Y-53890000D03*
D18*
%TO.P,J1,2,I0_2*%
%TO.N,~{SPI-CS}*%
X23730000Y-53890000D03*
%TO.P,J1,3,SPI-CLK_3*%
%TO.N,SPI-CLK*%
X26270000Y-51350000D03*
%TO.P,J1,4,UART_DE_4*%
%TO.N,BUS-DE*%
X23730000Y-51350000D03*
%TO.P,J1,5,SPI-COPI_5*%
%TO.N,SPI-COPI*%
X26270000Y-48810000D03*
%TO.P,J1,6,UART_TX_6*%
%TO.N,BUS-TX*%
X23730000Y-48810000D03*
%TO.P,J1,7,SDA_7*%
%TO.N,SDA*%
X26270000Y-46270000D03*
%TO.P,J1,8,UART_RX_8*%
%TO.N,BUS-RX*%
X23730000Y-46270000D03*
%TO.P,J1,9,SCL_9*%
%TO.N,SCL*%
X26270000Y-43730000D03*
%TO.P,J1,10,I4_10*%
%TO.N,~{BLE_INT}*%
X23730000Y-43730000D03*
%TO.P,J1,11,GND_11*%
%TO.N,GND*%
X26270000Y-41190000D03*
%TO.P,J1,12,I5_12*%
%TO.N,BLE-UART-TX*%
X23730000Y-41190000D03*
%TO.P,J1,13,5V_13*%
%TO.N,+5V*%
X26270000Y-38650000D03*
%TO.P,J1,14,I6_14*%
%TO.N,BLE-UART-RX*%
X23730000Y-38650000D03*
%TO.P,J1,15,3V3_15*%
%TO.N,+3.3V*%
X26270000Y-36110000D03*
%TO.P,J1,16,I7_16*%
%TO.N,unconnected-(J1-I7-Pad16)*%
X23730000Y-36110000D03*
%TD*%
D19*
%TO.P,D1,1,A_1*%
%TO.N,Net-(D1-A)*%
X36550000Y-40937500D03*
%TO.P,D1,2,K_2*%
%TO.N,+3.3VP*%
X38450000Y-40937500D03*
%TO.P,D1,3,COM_3*%
%TO.N,Net-(BT1-+)*%
X37500000Y-39062500D03*
%TD*%
D20*
%TO.P,J2,1,Pin_1_1*%
%TO.N,Net-(J2-Pin_1)*%
X59500000Y-65275000D03*
D21*
%TO.P,J2,2,Shield_2*%
%TO.N,GND*%
X60975000Y-66800000D03*
X58025000Y-66800000D03*
%TD*%
D22*
%TO.P,AE1,1,FEED_1*%
%TO.N,Net-(AE1-FEED)*%
X68500000Y-52750000D03*
%TO.P,AE1,2,PCB_Trace_2*%
%TO.N,unconnected-(AE1-PCB_Trace-Pad2)*%
X68500000Y-49850000D03*
%TD*%
D23*
%TO.P,C6,1*%
%TO.N,Net-(U3-IN)*%
X52210000Y-52750000D03*
%TO.P,C6,2*%
%TO.N,Net-(U1-RF1)*%
X51190000Y-52750000D03*
%TD*%
D24*
%TO.P,C26,1*%
%TO.N,+3.3VP*%
X53000000Y-48775000D03*
%TO.P,C26,2*%
%TO.N,GND*%
X53000000Y-47225000D03*
%TD*%
D12*
%TO.P,J6,1,Pin_1_1*%
%TO.N,GND*%
X62150000Y-47450000D03*
D25*
X62150000Y-43950000D03*
D10*
X58100000Y-43400000D03*
D26*
X61100000Y-43400000D03*
%TD*%
D14*
%TO.P,J12,1,Pin_1_1*%
%TO.N,GND*%
X52700000Y-63400000D03*
D15*
X51300000Y-63400000D03*
D16*
X49650000Y-63400000D03*
D15*
X48000000Y-63400000D03*
D14*
X46600000Y-63400000D03*
%TD*%
D27*
%TO.P,U1,1,SPI3_SCK_1*%
%TO.N,SPI-CLK*%
X45250000Y-55950000D03*
%TO.P,U1,2,PB2_2*%
%TO.N,~{BLE_INT}*%
X45750000Y-55950000D03*
%TO.P,U1,3,PB1_3*%
%TO.N,unconnected-(U1-PB1-Pad3)*%
X46250000Y-55950000D03*
%TO.P,U1,4,PWR_WKUP0_4*%
%TO.N,+3.3V*%
X46750000Y-55950000D03*
%TO.P,U1,5,DEBUG_SWCLK_5*%
%TO.N,SWCLK*%
X47250000Y-55950000D03*
%TO.P,U1,6,DEBUG_SWDIO_6*%
%TO.N,SWDIO*%
X47750000Y-55950000D03*
%TO.P,U1,7,I2C1_SDA_7*%
%TO.N,SDA*%
X48250000Y-55950000D03*
%TO.P,U1,8,I2C1_SCL_8*%
%TO.N,SCL*%
X48750000Y-55950000D03*
D28*
%TO.P,U1,9,SPI3_MISO_9*%
%TO.N,SPI-CIPO*%
X49450000Y-55250000D03*
%TO.P,U1,10,SPI3_NSS_10*%
%TO.N,~{SPI-CS}*%
X49450000Y-54750000D03*
%TO.P,U1,11,PA10_11*%
%TO.N,unconnected-(U1-PA10-Pad11)*%
X49450000Y-54250000D03*
%TO.P,U1,12,SPI3_MOSI_12*%
%TO.N,SPI-COPI*%
X49450000Y-53750000D03*
%TO.P,U1,13,VDD_13*%
%TO.N,+3.3VP*%
X49450000Y-53250000D03*
%TO.P,U1,14,RF1_14*%
%TO.N,Net-(U1-RF1)*%
X49450000Y-52750000D03*
%TO.P,U1,15,VDDRF_15*%
%TO.N,+3.3VP*%
X49450000Y-52250000D03*
%TO.P,U1,16,OSCOUT_16*%
%TO.N,Net-(U1-OSCOUT)*%
X49450000Y-51750000D03*
D27*
%TO.P,U1,17,OSCIN_17*%
%TO.N,Net-(U1-OSCIN)*%
X48750000Y-51050000D03*
%TO.P,U1,18,PB15_18*%
%TO.N,unconnected-(U1-PB15-Pad18)*%
X48250000Y-51050000D03*
%TO.P,U1,19,RCC_MCO_19*%
%TO.N,CAL_OUT*%
X47750000Y-51050000D03*
%TO.P,U1,20,RCC_OSC32_IN_20*%
%TO.N,Net-(U1-PB13)*%
X47250000Y-51050000D03*
%TO.P,U1,21,RCC_OSC32_OUT_21*%
%TO.N,Net-(U1-PB12)*%
X46750000Y-51050000D03*
%TO.P,U1,22,LPUART1_RX_22*%
%TO.N,BLE-UART-RX*%
X46250000Y-51050000D03*
%TO.P,U1,23,LPUART1_TX_23*%
%TO.N,BLE-UART-TX*%
X45750000Y-51050000D03*
%TO.P,U1,24,VDDSD_24*%
%TO.N,+3.3VP*%
X45250000Y-51050000D03*
D28*
%TO.P,U1,25,VLXSD_25*%
%TO.N,unconnected-(U1-VLXSD-Pad25)*%
X44550000Y-51750000D03*
%TO.P,U1,26,VSSSD_26*%
%TO.N,GND*%
X44550000Y-52250000D03*
%TO.P,U1,27,VFBSD_27*%
%TO.N,+3.3VP*%
X44550000Y-52750000D03*
%TO.P,U1,28,VDDA_VCAP_28*%
%TO.N,Net-(U1-VDDA_VCAP)*%
X44550000Y-53250000D03*
%TO.P,U1,29,RSTN_29*%
%TO.N,~{RESET}*%
X44550000Y-53750000D03*
%TO.P,U1,30,PB5_30*%
%TO.N,~{RUN}*%
X44550000Y-54250000D03*
%TO.P,U1,31,TIM2_CH1_31*%
%TO.N,CAL_IN*%
X44550000Y-54750000D03*
%TO.P,U1,32,VDD_32*%
%TO.N,+3.3VP*%
X44550000Y-55250000D03*
D29*
%TO.P,U1,33*%
%TO.N,N/C*%
X47000000Y-53500000D03*
%TD*%
D30*
%TO.P,C24,1*%
%TO.N,+3.3VP*%
X43025000Y-57250000D03*
%TO.P,C24,2*%
%TO.N,GND*%
X41475000Y-57250000D03*
%TD*%
D31*
%TO.P,C23,1*%
%TO.N,+3.3VP*%
X52000000Y-57225000D03*
%TO.P,C23,2*%
%TO.N,GND*%
X52000000Y-58775000D03*
%TD*%
D32*
%TO.P,D6,1,K_1*%
%TO.N,A*%
X38937500Y-28450000D03*
%TO.P,D6,2,K_2*%
%TO.N,B*%
X38937500Y-26550000D03*
%TO.P,D6,3,A_3*%
%TO.N,GND*%
X37062500Y-27500000D03*
%TD*%
D24*
%TO.P,C27,1*%
%TO.N,+3.3VP*%
X54500000Y-48775000D03*
%TO.P,C27,2*%
%TO.N,GND*%
X54500000Y-47225000D03*
%TD*%
D33*
%TO.P,R3,1*%
%TO.N,B*%
X41000000Y-25075000D03*
%TO.P,R3,2*%
%TO.N,GND*%
X41000000Y-23425000D03*
%TD*%
D17*
%TO.P,J3,1,Pin_1_1*%
%TO.N,+5V*%
X47770000Y-31040000D03*
D18*
%TO.P,J3,2,Pin_2_2*%
%TO.N,+3.3V*%
X45230000Y-31040000D03*
%TO.P,J3,3,Pin_3_3*%
%TO.N,GND*%
X47770000Y-28500000D03*
%TO.P,J3,4,Pin_4_4*%
X45230000Y-28500000D03*
%TO.P,J3,5,Pin_5_5*%
%TO.N,A*%
X47770000Y-25960000D03*
%TO.P,J3,6,Pin_6_6*%
%TO.N,B*%
X45230000Y-25960000D03*
%TD*%
D30*
%TO.P,C25,1*%
%TO.N,+3.3VP*%
X43025000Y-55750000D03*
%TO.P,C25,2*%
%TO.N,GND*%
X41475000Y-55750000D03*
%TD*%
D34*
%TO.P,R8,1*%
%TO.N,Net-(Q1-G)*%
X43500000Y-39425000D03*
%TO.P,R8,2*%
%TO.N,~{RUN}*%
X43500000Y-41075000D03*
%TD*%
D17*
%TO.P,J4,1,Pin_1_1*%
%TO.N,+5V*%
X57930000Y-31040000D03*
D18*
%TO.P,J4,2,Pin_2_2*%
%TO.N,+3.3V*%
X55390000Y-31040000D03*
%TO.P,J4,3,Pin_3_3*%
%TO.N,GND*%
X57930000Y-28500000D03*
%TO.P,J4,4,Pin_4_4*%
X55390000Y-28500000D03*
%TO.P,J4,5,Pin_5_5*%
%TO.N,A*%
X57930000Y-25960000D03*
%TO.P,J4,6,Pin_6_6*%
%TO.N,B*%
X55390000Y-25960000D03*
%TD*%
D35*
%TO.P,R5,1*%
%TO.N,Net-(U3-OUT)*%
X56240000Y-52750000D03*
%TO.P,R5,2*%
%TO.N,Net-(C7-Pad1)*%
X57260000Y-52750000D03*
%TD*%
%TO.P,R6,1*%
%TO.N,Net-(C7-Pad1)*%
X59240000Y-52750000D03*
%TO.P,R6,2*%
%TO.N,Net-(AE1-FEED)*%
X60260000Y-52750000D03*
%TD*%
D36*
%TO.P,R4,1*%
%TO.N,Net-(J2-Pin_1)*%
X55250000Y-53770000D03*
%TO.P,R4,2*%
%TO.N,Net-(U3-OUT)*%
X55250000Y-52750000D03*
%TD*%
D30*
%TO.P,C2,1*%
%TO.N,+3.3V*%
X35275000Y-25250000D03*
%TO.P,C2,2*%
%TO.N,GND*%
X33725000Y-25250000D03*
%TD*%
D37*
%TO.P,Y2,1,1_1*%
%TO.N,Net-(U1-PB13)*%
X47700000Y-48250000D03*
%TO.P,Y2,2,2_2*%
%TO.N,Net-(U1-PB12)*%
X46300000Y-48250000D03*
%TD*%
D33*
%TO.P,R2,1*%
%TO.N,A*%
X41000000Y-28325000D03*
%TO.P,R2,2*%
%TO.N,B*%
X41000000Y-26675000D03*
%TD*%
D30*
%TO.P,C30,1*%
%TO.N,Net-(U1-VDDA_VCAP)*%
X42025000Y-52250000D03*
%TO.P,C30,2*%
%TO.N,GND*%
X40475000Y-52250000D03*
%TD*%
D38*
%TO.P,C8,1*%
%TO.N,Net-(AE1-FEED)*%
X61250000Y-52750000D03*
%TO.P,C8,2*%
%TO.N,GND*%
X61250000Y-53770000D03*
%TD*%
D24*
%TO.P,C41,1*%
%TO.N,Net-(U1-PB13)*%
X47750000Y-46425000D03*
%TO.P,C41,2*%
%TO.N,GND*%
X47750000Y-44875000D03*
%TD*%
D30*
%TO.P,C29,1*%
%TO.N,+3.3VP*%
X43525000Y-49000000D03*
%TO.P,C29,2*%
%TO.N,GND*%
X41975000Y-49000000D03*
%TD*%
D24*
%TO.P,C36,1*%
%TO.N,Net-(U1-PB12)*%
X46250000Y-46425000D03*
%TO.P,C36,2*%
%TO.N,GND*%
X46250000Y-44875000D03*
%TD*%
D20*
%TO.P,J10,1,Pin_1_1*%
%TO.N,CAL_IN*%
X39800000Y-65275000D03*
D21*
%TO.P,J10,2,Shield_2*%
%TO.N,GND*%
X41275000Y-66800000D03*
X38325000Y-66800000D03*
%TD*%
D12*
%TO.P,J8,1,Pin_1_1*%
%TO.N,GND*%
X37250000Y-59350000D03*
D25*
X37250000Y-62850000D03*
D10*
X41300000Y-63400000D03*
D26*
X38300000Y-63400000D03*
%TD*%
D39*
%TO.P,J11,1,Pin_1_1*%
%TO.N,CAL_OUT*%
X48200000Y-41225000D03*
D40*
%TO.P,J11,2,Shield_2*%
%TO.N,GND*%
X46725000Y-39700000D03*
X49675000Y-39700000D03*
%TD*%
D33*
%TO.P,R1,1*%
%TO.N,+3.3V*%
X41000000Y-31575000D03*
%TO.P,R1,2*%
%TO.N,A*%
X41000000Y-29925000D03*
%TD*%
D41*
%TO.P,U2,1,RO_1*%
%TO.N,BUS-RX*%
X33760000Y-26750000D03*
%TO.P,U2,2,~{RE}_2*%
%TO.N,GND*%
X33760000Y-27250000D03*
%TO.P,U2,3,DE_3*%
%TO.N,BUS-DE*%
X33760000Y-27750000D03*
%TO.P,U2,4,DI_4*%
%TO.N,BUS-TX*%
X33760000Y-28250000D03*
%TO.P,U2,5,GND_5*%
%TO.N,GND*%
X35240000Y-28250000D03*
%TO.P,U2,6,A_6*%
%TO.N,A*%
X35240000Y-27750000D03*
%TO.P,U2,7,B_7*%
%TO.N,B*%
X35240000Y-27250000D03*
%TO.P,U2,8,VCC_8*%
%TO.N,+3.3V*%
X35240000Y-26750000D03*
%TD*%
D42*
%TO.P,Q1,1,G_1*%
%TO.N,Net-(Q1-G)*%
X41950000Y-39062500D03*
%TO.P,Q1,2,S_2*%
%TO.N,+3.3VP*%
X40050000Y-39062500D03*
%TO.P,Q1,3,D_3*%
%TO.N,+3.3V*%
X41000000Y-40937500D03*
%TD*%
D43*
%TO.P,Y1,1,1_1*%
%TO.N,Net-(U1-OSCOUT)*%
X51050000Y-49450000D03*
%TO.P,Y1,2,G_2*%
%TO.N,GND*%
X51050000Y-48050000D03*
%TO.P,Y1,3,3_3*%
%TO.N,Net-(U1-OSCIN)*%
X49950000Y-48050000D03*
%TO.P,Y1,4,G_4*%
%TO.N,GND*%
X49950000Y-49450000D03*
%TD*%
D34*
%TO.P,R7,1*%
%TO.N,+3.3V*%
X35000000Y-39425000D03*
%TO.P,R7,2*%
%TO.N,Net-(D1-A)*%
X35000000Y-41075000D03*
%TD*%
D10*
%TO.P,J7,1,Pin_1_1*%
%TO.N,GND*%
X41300000Y-43400000D03*
D11*
X37800000Y-43400000D03*
D12*
X37250000Y-47450000D03*
D13*
X37250000Y-44450000D03*
%TD*%
D44*
%TO.P,U3,A1,OUT_A1*%
%TO.N,Net-(U3-OUT)*%
X54277000Y-52750000D03*
%TO.P,U3,A2,GND_A2*%
%TO.N,GND*%
X53700000Y-52750000D03*
%TO.P,U3,A3,IN_A3*%
%TO.N,Net-(U3-IN)*%
X53123000Y-52750000D03*
%TO.P,U3,B1,GND_B1*%
%TO.N,GND*%
X54277000Y-53250000D03*
%TO.P,U3,B2,GND_B2*%
X53700000Y-53250000D03*
%TO.P,U3,B3,GND_B3*%
X53123000Y-53250000D03*
%TD*%
D30*
%TO.P,C28,1*%
%TO.N,+3.3VP*%
X43525000Y-50500000D03*
%TO.P,C28,2*%
%TO.N,GND*%
X41975000Y-50500000D03*
%TD*%
D38*
%TO.P,C7,1*%
%TO.N,Net-(C7-Pad1)*%
X58250000Y-52750000D03*
%TO.P,C7,2*%
%TO.N,GND*%
X58250000Y-53770000D03*
%TD*%
D45*
%TO.P,J5,1,Pin_1_1*%
%TO.N,+3.3VP*%
X48520000Y-65865000D03*
%TO.P,J5,2,Pin_2_2*%
%TO.N,SWDIO*%
X48520000Y-67135000D03*
%TO.P,J5,3,Pin_3_3*%
%TO.N,~{RESET}*%
X47250000Y-65865000D03*
%TO.P,J5,4,Pin_4_4*%
%TO.N,SWCLK*%
X47250000Y-67135000D03*
%TO.P,J5,5,Pin_5_5*%
%TO.N,GND*%
X45980000Y-65865000D03*
%TO.P,J5,6,Pin_6_6*%
%TO.N,unconnected-(J5-Pin_6-Pad6)*%
X45980000Y-67135000D03*
%TD*%
D46*
%TO.N,GND*%
X59872564Y-61445678D03*
X23431190Y-55490000D03*
X60499697Y-64575458D03*
X59398071Y-60486742D03*
X51371190Y-25010000D03*
X43751190Y-63110000D03*
X56368145Y-55555726D03*
X33591190Y-52950000D03*
X43751190Y-42790000D03*
X60215117Y-62459265D03*
X55404166Y-51750000D03*
X61531190Y-58030000D03*
X53362500Y-51750000D03*
X45980000Y-65000000D03*
X57445833Y-54750000D03*
X48831190Y-45330000D03*
X36131190Y-68190000D03*
X61531190Y-37710000D03*
X44050000Y-56400000D03*
X28000000Y-55000000D03*
X60508333Y-54750000D03*
X38671190Y-55490000D03*
X53362500Y-54750000D03*
X54534879Y-56490733D03*
X51371190Y-68190000D03*
X61531190Y-30090000D03*
X25971190Y-32630000D03*
X36131190Y-42790000D03*
X56425000Y-51750000D03*
X38250000Y-27500000D03*
X51371190Y-40250000D03*
X55351925Y-58463258D03*
X58381851Y-63394272D03*
X60425588Y-63508117D03*
X52341666Y-54000000D03*
X28511190Y-65650000D03*
X62550000Y-51750000D03*
X25971190Y-60570000D03*
X35750000Y-59500000D03*
X51371190Y-32630000D03*
X51371190Y-60570000D03*
X59487500Y-51750000D03*
X60050000Y-60000000D03*
X55944752Y-59353733D03*
X56725470Y-56738839D03*
X23431190Y-27550000D03*
X38671190Y-25010000D03*
X58991190Y-47870000D03*
X61531190Y-22470000D03*
X31051190Y-40250000D03*
X58466666Y-51750000D03*
X49750000Y-50500000D03*
X53911190Y-50410000D03*
X56451190Y-35170000D03*
X57445833Y-51750000D03*
X56647073Y-60160860D03*
X31051190Y-47870000D03*
X57440605Y-61121905D03*
X43250000Y-51700000D03*
X43751190Y-30090000D03*
X46291190Y-35170000D03*
X62550000Y-54750000D03*
X52341666Y-51750000D03*
X56451190Y-63110000D03*
X54877432Y-57504321D03*
X56451190Y-42790000D03*
X60508333Y-51750000D03*
X58805246Y-59596265D03*
X58095567Y-58781780D03*
X57309392Y-57828092D03*
X33591190Y-30090000D03*
X58024526Y-62211159D03*
X54324408Y-55441881D03*
X31051190Y-25010000D03*
X54383333Y-51750000D03*
X61529166Y-51750000D03*
X58466666Y-54750000D03*
X59487500Y-54750000D03*
X33591190Y-63110000D03*
X58500299Y-64624540D03*
X61529166Y-54750000D03*
X38671190Y-47870000D03*
%TO.N,SPI-CIPO*%
X49500000Y-58000000D03*
X49500000Y-60500000D03*
%TO.N,~{SPI-CS}*%
X50250000Y-60000000D03*
X50250000Y-58500000D03*
%TO.N,SPI-CLK*%
X46250000Y-60000000D03*
X45000000Y-57000000D03*
%TO.N,BUS-DE*%
X32250000Y-27500000D03*
%TO.N,BUS-TX*%
X31250000Y-28500000D03*
%TO.N,SDA*%
X48500000Y-59500000D03*
X48500000Y-57000000D03*
%TO.N,BUS-RX*%
X31250000Y-27500000D03*
%TO.N,~{BLE_INT}*%
X40250000Y-57500000D03*
X35250000Y-56750000D03*
%TO.N,+3.3V*%
X36250000Y-56750000D03*
X41000000Y-32500000D03*
X36250000Y-25250000D03*
X41000000Y-39750000D03*
X35000000Y-38500000D03*
D47*
X32000000Y-40500000D03*
D46*
%TO.N,+3.3VP*%
X55500000Y-48775000D03*
X44500000Y-50250000D03*
X39900000Y-43250000D03*
X44000000Y-57250000D03*
X53000000Y-57250000D03*
X43000000Y-52500000D03*
X49300000Y-65200000D03*
%TO.N,SWCLK*%
X47250000Y-68000000D03*
X46750000Y-58000000D03*
%TO.N,SWDIO*%
X47750000Y-58000000D03*
X48500000Y-68000000D03*
%TO.N,CAL_OUT*%
X48000000Y-42250000D03*
X48000000Y-50000000D03*
%TO.N,~{RESET}*%
X41750000Y-53250000D03*
X47250000Y-65000000D03*
%TO.N,~{RUN}*%
X43500000Y-42000000D03*
X40500000Y-53250000D03*
%TO.N,CAL_IN*%
X39800000Y-64200000D03*
X42200000Y-55000000D03*
D47*
%TO.N,Net-(BT1-+)*%
X37500000Y-37750000D03*
%TD*%
%TO.N,GND*%
D48*
X34750000Y-28250000D02*
X34500000Y-28000000D01*
X43800000Y-52250000D02*
X43250000Y-51700000D01*
X34500000Y-28000000D02*
X34500000Y-27500000D01*
X34250000Y-27250000D02*
X34500000Y-27500000D01*
X45980000Y-65865000D02*
X45980000Y-65000000D01*
X49950000Y-50300000D02*
X49750000Y-50500000D01*
X49750000Y-49450000D02*
X50850000Y-48350000D01*
X33760000Y-27250000D02*
X34250000Y-27250000D01*
X37062500Y-27500000D02*
X38250000Y-27500000D01*
X49950000Y-49450000D02*
X49950000Y-50300000D01*
X35240000Y-28250000D02*
X34750000Y-28250000D01*
X44550000Y-52250000D02*
X43800000Y-52250000D01*
%TO.N,SPI-CIPO*%
X28140000Y-53890000D02*
X35000000Y-60750000D01*
X50000000Y-57500000D02*
X49500000Y-58000000D01*
X47250000Y-60750000D02*
X49250000Y-60750000D01*
X49750000Y-55250000D02*
X50000000Y-55500000D01*
X46750000Y-61250000D02*
X47250000Y-60750000D01*
X35000000Y-60750000D02*
X38500000Y-60750000D01*
X26270000Y-53890000D02*
X28140000Y-53890000D01*
X49450000Y-55250000D02*
X49750000Y-55250000D01*
X38500000Y-60750000D02*
X39000000Y-61250000D01*
X50000000Y-56250000D02*
X50000000Y-57500000D01*
X39000000Y-61250000D02*
X46750000Y-61250000D01*
X50000000Y-55500000D02*
X50000000Y-56250000D01*
X49250000Y-60750000D02*
X49500000Y-60500000D01*
%TO.N,~{SPI-CS}*%
X50000000Y-54750000D02*
X50500000Y-55250000D01*
X50500000Y-58250000D02*
X50250000Y-58500000D01*
X47000000Y-61750000D02*
X47500000Y-61250000D01*
X50500000Y-55250000D02*
X50500000Y-57000000D01*
X34750000Y-61250000D02*
X38250000Y-61250000D01*
X50500000Y-57000000D02*
X50500000Y-58250000D01*
X49450000Y-54750000D02*
X50000000Y-54750000D01*
X38750000Y-61750000D02*
X47000000Y-61750000D01*
X25635000Y-55795000D02*
X29295000Y-55795000D01*
X50250000Y-60750000D02*
X50250000Y-60000000D01*
X49750000Y-61250000D02*
X50250000Y-60750000D01*
X38250000Y-61250000D02*
X38750000Y-61750000D01*
X23730000Y-53890000D02*
X25635000Y-55795000D01*
X47500000Y-61250000D02*
X49750000Y-61250000D01*
X29295000Y-55795000D02*
X34750000Y-61250000D01*
%TO.N,SPI-CLK*%
X25000000Y-50080000D02*
X25000000Y-48175000D01*
X46250000Y-60000000D02*
X45250000Y-60000000D01*
X25000000Y-48175000D02*
X25635000Y-47540000D01*
X28750000Y-49000000D02*
X28750000Y-53000000D01*
X28750000Y-53000000D02*
X34250000Y-58500000D01*
X25635000Y-47540000D02*
X27290000Y-47540000D01*
X26270000Y-51350000D02*
X25000000Y-50080000D01*
X38000000Y-58500000D02*
X39750000Y-60250000D01*
X45250000Y-56750000D02*
X45000000Y-57000000D01*
X45000000Y-60250000D02*
X45250000Y-60000000D01*
X27290000Y-47540000D02*
X28750000Y-49000000D01*
X39750000Y-60250000D02*
X45000000Y-60250000D01*
X45250000Y-55950000D02*
X45250000Y-56750000D01*
X34250000Y-58500000D02*
X38000000Y-58500000D01*
%TO.N,BUS-DE*%
X33760000Y-27750000D02*
X33000000Y-27750000D01*
X33000000Y-27750000D02*
X32250000Y-27750000D01*
%TO.N,SPI-COPI*%
X48750000Y-60250000D02*
X49750000Y-59250000D01*
X50750000Y-59250000D02*
X51000000Y-59000000D01*
X26270000Y-48810000D02*
X27750000Y-48810000D01*
X38750000Y-60250000D02*
X39250000Y-60750000D01*
X27750000Y-48810000D02*
X28250000Y-49310000D01*
X47000000Y-60250000D02*
X48750000Y-60250000D01*
X49966842Y-53750000D02*
X49450000Y-53750000D01*
X39250000Y-60750000D02*
X46500000Y-60750000D01*
X28250000Y-53250000D02*
X35250000Y-60250000D01*
X35250000Y-60250000D02*
X38750000Y-60250000D01*
X49750000Y-59250000D02*
X50750000Y-59250000D01*
X46500000Y-60750000D02*
X47000000Y-60250000D01*
X51000000Y-59000000D02*
X51000000Y-54783158D01*
X51000000Y-54783158D02*
X49966842Y-53750000D01*
X28250000Y-49310000D02*
X28250000Y-53250000D01*
%TO.N,BUS-TX*%
X33760000Y-28250000D02*
X31500000Y-28250000D01*
X31500000Y-28250000D02*
X31250000Y-28500000D01*
%TO.N,SDA*%
X34500000Y-58000000D02*
X38250000Y-58000000D01*
X48250000Y-59250000D02*
X48500000Y-59500000D01*
X45250000Y-59250000D02*
X48250000Y-59250000D01*
X29250000Y-52750000D02*
X34500000Y-58000000D01*
X28250000Y-47750000D02*
X29250000Y-48750000D01*
X28250000Y-46770000D02*
X28250000Y-47750000D01*
X26270000Y-46270000D02*
X27750000Y-46270000D01*
X48250000Y-55950000D02*
X48250000Y-56750000D01*
X38250000Y-58000000D02*
X40000000Y-59750000D01*
X27750000Y-46270000D02*
X28250000Y-46770000D01*
X44750000Y-59750000D02*
X45250000Y-59250000D01*
X40000000Y-59750000D02*
X44750000Y-59750000D01*
X48250000Y-56750000D02*
X48500000Y-57000000D01*
X29250000Y-48750000D02*
X29250000Y-52750000D01*
X26270000Y-46260000D02*
X26560000Y-46260000D01*
%TO.N,BUS-RX*%
X33760000Y-26750000D02*
X32000000Y-26750000D01*
X31250000Y-27500000D02*
X32000000Y-26750000D01*
%TO.N,SCL*%
X38500000Y-57500000D02*
X40250000Y-59250000D01*
X44500000Y-59250000D02*
X45000000Y-58750000D01*
X34750000Y-57500000D02*
X38500000Y-57500000D01*
X40250000Y-59250000D02*
X44500000Y-59250000D01*
X48750000Y-56250000D02*
X48750000Y-55950000D01*
X28750000Y-47500000D02*
X29750000Y-48500000D01*
X29750000Y-48500000D02*
X29750000Y-52500000D01*
X27750000Y-43730000D02*
X28250000Y-44230000D01*
X48750000Y-57750000D02*
X49250000Y-57250000D01*
X26270000Y-43720000D02*
X26320000Y-43720000D01*
X26270000Y-43730000D02*
X27750000Y-43730000D01*
X48750000Y-58750000D02*
X48750000Y-57750000D01*
X28250000Y-46000000D02*
X28750000Y-46500000D01*
X45000000Y-58750000D02*
X48750000Y-58750000D01*
X29750000Y-52500000D02*
X34750000Y-57500000D01*
X28250000Y-44230000D02*
X28250000Y-46000000D01*
X28750000Y-46500000D02*
X28750000Y-47500000D01*
X49250000Y-57250000D02*
X49250000Y-56750000D01*
X49250000Y-56750000D02*
X48750000Y-56250000D01*
%TO.N,~{BLE_INT}*%
X29250000Y-46250000D02*
X28750000Y-45750000D01*
X34250000Y-56250000D02*
X34750000Y-56750000D01*
X44500000Y-57750000D02*
X45250000Y-57750000D01*
X45750000Y-57250000D02*
X45750000Y-55950000D01*
X28750000Y-45750000D02*
X28750000Y-44000000D01*
X40750000Y-58250000D02*
X44000000Y-58250000D01*
X27750000Y-42460000D02*
X25000000Y-42460000D01*
X30250000Y-52250000D02*
X30250000Y-48250000D01*
X34750000Y-56750000D02*
X35250000Y-56750000D01*
X28250000Y-43500000D02*
X28250000Y-42960000D01*
X28750000Y-44000000D02*
X28250000Y-43500000D01*
X40250000Y-57750000D02*
X40750000Y-58250000D01*
X28250000Y-42960000D02*
X27750000Y-42460000D01*
X44000000Y-58250000D02*
X44500000Y-57750000D01*
X25000000Y-42460000D02*
X23730000Y-43730000D01*
X30250000Y-48250000D02*
X29250000Y-47250000D01*
X45250000Y-57750000D02*
X45750000Y-57250000D01*
X34250000Y-56250000D02*
X30250000Y-52250000D01*
X40250000Y-57500000D02*
X40250000Y-57750000D01*
X29250000Y-47250000D02*
X29250000Y-46250000D01*
%TO.N,BLE-UART-TX*%
X28250000Y-42250000D02*
X28750000Y-42750000D01*
X28250000Y-40420000D02*
X28250000Y-42250000D01*
X28750000Y-43250000D02*
X29250000Y-43750000D01*
X29250000Y-45500000D02*
X30000000Y-46250000D01*
X27750000Y-39920000D02*
X28250000Y-40420000D01*
X45750000Y-50250000D02*
X44500000Y-49000000D01*
X42750000Y-46250000D02*
X30000000Y-46250000D01*
X29250000Y-43750000D02*
X29250000Y-45500000D01*
X44500000Y-48000000D02*
X42750000Y-46250000D01*
X25000000Y-39920000D02*
X27750000Y-39920000D01*
X23730000Y-41190000D02*
X25000000Y-39920000D01*
X44500000Y-49000000D02*
X44500000Y-48000000D01*
X45750000Y-51050000D02*
X45750000Y-50250000D01*
X28750000Y-42750000D02*
X28750000Y-43250000D01*
%TO.N,BLE-UART-RX*%
X29750000Y-43500000D02*
X29250000Y-43000000D01*
X28750000Y-42000000D02*
X28750000Y-40250000D01*
X45000000Y-47750000D02*
X43000000Y-45750000D01*
X25000000Y-37380000D02*
X23730000Y-38650000D01*
X45000000Y-48750000D02*
X45000000Y-47750000D01*
X46250000Y-51050000D02*
X46250000Y-50000000D01*
X43000000Y-45750000D02*
X30250000Y-45750000D01*
X28750000Y-40250000D02*
X28250000Y-39750000D01*
X29750000Y-45250000D02*
X29750000Y-43500000D01*
X30250000Y-45750000D02*
X29750000Y-45250000D01*
X27750000Y-37380000D02*
X25000000Y-37380000D01*
X28250000Y-39750000D02*
X28250000Y-37880000D01*
X29250000Y-43000000D02*
X29250000Y-42500000D01*
X28250000Y-37880000D02*
X27750000Y-37380000D01*
X29250000Y-42500000D02*
X28750000Y-42000000D01*
X46250000Y-50000000D02*
X45000000Y-48750000D01*
%TO.N,+3.3V*%
X45500000Y-58250000D02*
X46750000Y-57000000D01*
X44250000Y-58750000D02*
X44750000Y-58250000D01*
X44750000Y-58250000D02*
X45500000Y-58250000D01*
X36500000Y-57000000D02*
X38750000Y-57000000D01*
X40500000Y-58750000D02*
X44250000Y-58750000D01*
D49*
X41000000Y-40937500D02*
X41000000Y-39750000D01*
D48*
X38750000Y-57000000D02*
X40500000Y-58750000D01*
X35240000Y-25285000D02*
X35275000Y-25250000D01*
X35240000Y-26750000D02*
X35240000Y-25285000D01*
X36500000Y-57000000D02*
X36250000Y-56750000D01*
X46750000Y-57000000D02*
X46750000Y-55950000D01*
X35275000Y-25250000D02*
X36250000Y-25250000D01*
D49*
X35000000Y-39425000D02*
X35000000Y-38500000D01*
D48*
X41000000Y-31575000D02*
X41000000Y-32500000D01*
%TO.N,Net-(D1-A)*%
D49*
X35000000Y-41075000D02*
X36412500Y-41075000D01*
X36412500Y-41075000D02*
X36550000Y-40937500D01*
%TO.N,+3.3VP*%
X38450000Y-41950000D02*
X38450000Y-40937500D01*
X39900000Y-42650000D02*
X39500000Y-42250000D01*
X39900000Y-43250000D02*
X39900000Y-42650000D01*
X40050000Y-39700000D02*
X39750000Y-40000000D01*
D48*
X48635000Y-65865000D02*
X49300000Y-65200000D01*
X43250000Y-52750000D02*
X43000000Y-52500000D01*
X48520000Y-65865000D02*
X48635000Y-65865000D01*
X43525000Y-50500000D02*
X44250000Y-50500000D01*
X49450000Y-52250000D02*
X50250000Y-52250000D01*
X44500000Y-50250000D02*
X45000000Y-50250000D01*
X50250000Y-52250000D02*
X52250000Y-50250000D01*
X54500000Y-48775000D02*
X55500000Y-48775000D01*
X43025000Y-55750000D02*
X43025000Y-57250000D01*
X51500000Y-56000000D02*
X51500000Y-54500000D01*
D49*
X38750000Y-40000000D02*
X39750000Y-40000000D01*
D48*
X50250000Y-53250000D02*
X49450000Y-53250000D01*
X43525000Y-55250000D02*
X43025000Y-55750000D01*
X44250000Y-50500000D02*
X44500000Y-50250000D01*
X51500000Y-54500000D02*
X50250000Y-53250000D01*
D49*
X38450000Y-40300000D02*
X38750000Y-40000000D01*
D48*
X45250000Y-51050000D02*
X45250000Y-50500000D01*
D49*
X39500000Y-42250000D02*
X38750000Y-42250000D01*
D48*
X44550000Y-55250000D02*
X43525000Y-55250000D01*
X52000000Y-57225000D02*
X52975000Y-57225000D01*
D49*
X38750000Y-42250000D02*
X38450000Y-41950000D01*
D48*
X52000000Y-56500000D02*
X51500000Y-56000000D01*
X43025000Y-57250000D02*
X44000000Y-57250000D01*
X53000000Y-49500000D02*
X53000000Y-48775000D01*
D49*
X40050000Y-39062500D02*
X40050000Y-39700000D01*
D48*
X52975000Y-57225000D02*
X53000000Y-57250000D01*
X53000000Y-48775000D02*
X54500000Y-48775000D01*
X44550000Y-52750000D02*
X43250000Y-52750000D01*
X52250000Y-50250000D02*
X53000000Y-49500000D01*
D49*
X38450000Y-40937500D02*
X38450000Y-40300000D01*
D48*
X45250000Y-50500000D02*
X45000000Y-50250000D01*
X43525000Y-50500000D02*
X43525000Y-49000000D01*
X52000000Y-57225000D02*
X52000000Y-56500000D01*
%TO.N,Net-(J2-Pin_1)*%
X55250000Y-54350000D02*
X55250000Y-53770000D01*
X57378679Y-59478679D02*
X57371320Y-59471320D01*
X59500000Y-64600000D02*
X59500000Y-65225000D01*
X57378679Y-59478679D02*
G75*
G02*
X59500012Y-64600000I-5121279J-5121321D01*
G01*
X57371320Y-59471320D02*
G75*
G02*
X55249988Y-54350000I5121280J5121320D01*
G01*
%TO.N,Net-(AE1-FEED)*%
D50*
X60260000Y-52750000D02*
X61250000Y-52750000D01*
X61250000Y-52750000D02*
X68900000Y-52750000D01*
%TO.N,Net-(U3-IN)*%
D51*
X53123000Y-52750000D02*
X52210000Y-52750000D01*
%TO.N,Net-(U1-RF1)*%
X49450000Y-52750000D02*
X51190000Y-52750000D01*
%TO.N,SWCLK*%
D48*
X47250000Y-67135000D02*
X47250000Y-68000000D01*
X47250000Y-57500000D02*
X47250000Y-55950000D01*
X46750000Y-58000000D02*
X47250000Y-57500000D01*
%TO.N,SWDIO*%
X47750000Y-58000000D02*
X47750000Y-55950000D01*
X48520000Y-67980000D02*
X48500000Y-68000000D01*
X48520000Y-67135000D02*
X48520000Y-67980000D01*
%TO.N,Net-(U1-OSCOUT)*%
X49750000Y-51750000D02*
X51050000Y-50450000D01*
X49450000Y-51750000D02*
X49750000Y-51750000D01*
X51050000Y-50450000D02*
X51050000Y-49450000D01*
%TO.N,Net-(U1-OSCIN)*%
X48750000Y-51050000D02*
X48750000Y-49250000D01*
X49950000Y-48050000D02*
X48750000Y-49250000D01*
%TO.N,CAL_OUT*%
X47750000Y-50250000D02*
X48000000Y-50000000D01*
X48200000Y-41225000D02*
X48200000Y-42050000D01*
X47750000Y-51050000D02*
X47750000Y-50250000D01*
X48200000Y-42050000D02*
X48000000Y-42250000D01*
%TO.N,Net-(U1-PB13)*%
X47250000Y-49700000D02*
X47700000Y-49250000D01*
X47250000Y-51050000D02*
X47250000Y-49700000D01*
X47700000Y-48250000D02*
X47700000Y-46475000D01*
X47700000Y-49250000D02*
X47700000Y-48600000D01*
X47700000Y-46825000D02*
X47750000Y-46775000D01*
%TO.N,Net-(U1-PB12)*%
X46300000Y-48250000D02*
X46300000Y-46475000D01*
X46750000Y-51050000D02*
X46750000Y-49700000D01*
X46750000Y-49700000D02*
X46300000Y-49250000D01*
X46300000Y-46825000D02*
X46250000Y-46775000D01*
X46300000Y-49250000D02*
X46300000Y-48600000D01*
%TO.N,Net-(U1-VDDA_VCAP)*%
X42025000Y-52525000D02*
X42750000Y-53250000D01*
X42025000Y-52250000D02*
X42025000Y-52525000D01*
X44550000Y-53250000D02*
X42750000Y-53250000D01*
%TO.N,~{RESET}*%
X44550000Y-53750000D02*
X42250000Y-53750000D01*
X42250000Y-53750000D02*
X41750000Y-53250000D01*
X47250000Y-65865000D02*
X47250000Y-65000000D01*
%TO.N,~{RUN}*%
X43500000Y-42000000D02*
X43500000Y-41075000D01*
X41500000Y-54250000D02*
X40500000Y-53250000D01*
X44550000Y-54250000D02*
X41500000Y-54250000D01*
%TO.N,CAL_IN*%
X44550000Y-54750000D02*
X42450000Y-54750000D01*
X39800000Y-65275000D02*
X39800000Y-64200000D01*
X42450000Y-54750000D02*
X42200000Y-55000000D01*
%TO.N,A*%
D52*
X47770000Y-25960000D02*
X49040000Y-27230000D01*
X41000000Y-28325000D02*
X41000000Y-29925000D01*
X43960000Y-27230000D02*
X46500000Y-27230000D01*
X42865000Y-28325000D02*
X43960000Y-27230000D01*
X46500000Y-27230000D02*
X47770000Y-25960000D01*
X35750000Y-27750000D02*
X36450000Y-28450000D01*
X40050000Y-28450000D02*
X40175000Y-28325000D01*
X41000000Y-28325000D02*
X42865000Y-28325000D01*
X41000000Y-28325000D02*
X40175000Y-28325000D01*
X49040000Y-27230000D02*
X56660000Y-27230000D01*
X56660000Y-27230000D02*
X57930000Y-25960000D01*
X38937500Y-28450000D02*
X40050000Y-28450000D01*
X35240000Y-27750000D02*
X35750000Y-27750000D01*
X36450000Y-28450000D02*
X38937500Y-28450000D01*
%TO.N,B*%
X41000000Y-26675000D02*
X41000000Y-25075000D01*
X41000000Y-26675000D02*
X40175000Y-26675000D01*
X38937500Y-26550000D02*
X40050000Y-26550000D01*
X46500000Y-24690000D02*
X45230000Y-25960000D01*
X40175000Y-26675000D02*
X40050000Y-26550000D01*
X43960000Y-25960000D02*
X45230000Y-25960000D01*
X36450000Y-26550000D02*
X35750000Y-27250000D01*
X50310000Y-25960000D02*
X49040000Y-24690000D01*
X49040000Y-24690000D02*
X46500000Y-24690000D01*
X43245000Y-26675000D02*
X43960000Y-25960000D01*
X35750000Y-27250000D02*
X35240000Y-27250000D01*
X41000000Y-26675000D02*
X43245000Y-26675000D01*
X38937500Y-26550000D02*
X36450000Y-26550000D01*
X55390000Y-25960000D02*
X50310000Y-25960000D01*
%TO.N,Net-(Q1-G)*%
D49*
X42075000Y-39425000D02*
X42000000Y-39500000D01*
X43500000Y-39425000D02*
X42075000Y-39425000D01*
%TO.N,Net-(U3-OUT)*%
D50*
X55250000Y-52750000D02*
X56240000Y-52750000D01*
X54277000Y-52750000D02*
X55250000Y-52750000D01*
%TO.N,Net-(C7-Pad1)*%
X57260000Y-52750000D02*
X58250000Y-52750000D01*
X58250000Y-52750000D02*
X59240000Y-52750000D01*
%TO.N,Net-(BT1-+)*%
D49*
X37500000Y-39062500D02*
X37500000Y-37750000D01*
%TD*%
%TA.AperFunction,Conductor*%
%TO.N,GND*%
G36*
X39867331Y-26914607D02*
G01*
X39898590Y-26914912D01*
X39903452Y-26917190D01*
X39905830Y-26917360D01*
X39911248Y-26920842D01*
X39930551Y-26929885D01*
X39941182Y-26936864D01*
X39959788Y-26955470D01*
X40037443Y-27000304D01*
X40039712Y-27001614D01*
X40128856Y-27025500D01*
X40128857Y-27025500D01*
X40221144Y-27025500D01*
X40276205Y-27025500D01*
X40343244Y-27045185D01*
X40386689Y-27093204D01*
X40396949Y-27113340D01*
X40396954Y-27113347D01*
X40486652Y-27203045D01*
X40486654Y-27203046D01*
X40486658Y-27203050D01*
X40599694Y-27260645D01*
X40599698Y-27260647D01*
X40693475Y-27275499D01*
X40693481Y-27275500D01*
X41306518Y-27275499D01*
X41400304Y-27260646D01*
X41513342Y-27203050D01*
X41603050Y-27113342D01*
X41613311Y-27093204D01*
X41661286Y-27042409D01*
X41723795Y-27025500D01*
X43291140Y-27025500D01*
X43291144Y-27025500D01*
X43360055Y-27007035D01*
X43429900Y-27008698D01*
X43487763Y-27047860D01*
X43515268Y-27112088D01*
X43503682Y-27180990D01*
X43479826Y-27214491D01*
X42756137Y-27938181D01*
X42694814Y-27971666D01*
X42668456Y-27974500D01*
X41723795Y-27974500D01*
X41656756Y-27954815D01*
X41613311Y-27906796D01*
X41610103Y-27900500D01*
X41603050Y-27886658D01*
X41603047Y-27886655D01*
X41603045Y-27886652D01*
X41513347Y-27796954D01*
X41513344Y-27796952D01*
X41513342Y-27796950D01*
X41421198Y-27750000D01*
X41400301Y-27739352D01*
X41306524Y-27724500D01*
X40693482Y-27724500D01*
X40612519Y-27737323D01*
X40599696Y-27739354D01*
X40486658Y-27796950D01*
X40486657Y-27796951D01*
X40486652Y-27796954D01*
X40396954Y-27886652D01*
X40396949Y-27886659D01*
X40386689Y-27906796D01*
X40338714Y-27957591D01*
X40276205Y-27974500D01*
X40128856Y-27974500D01*
X40039712Y-27998386D01*
X40039709Y-27998387D01*
X39959791Y-28044527D01*
X39959785Y-28044532D01*
X39950177Y-28054140D01*
X39888853Y-28087623D01*
X39819162Y-28082636D01*
X39774817Y-28054136D01*
X39731485Y-28010803D01*
X39626391Y-27959426D01*
X39558261Y-27949500D01*
X39558260Y-27949500D01*
X38316740Y-27949500D01*
X38316739Y-27949500D01*
X38248607Y-27959426D01*
X38248606Y-27959426D01*
X38172768Y-27996501D01*
X38103895Y-28008259D01*
X38039598Y-27980915D01*
X38000291Y-27923151D01*
X37998455Y-27853305D01*
X38007825Y-27828804D01*
X38035166Y-27775144D01*
X38039149Y-27750000D01*
X37186500Y-27750000D01*
X37119461Y-27730315D01*
X37073706Y-27677511D01*
X37062500Y-27626000D01*
X37062500Y-27374000D01*
X37082185Y-27306961D01*
X37134989Y-27261206D01*
X37186500Y-27250000D01*
X38039148Y-27250000D01*
X38035166Y-27224856D01*
X38007824Y-27171194D01*
X37994928Y-27102525D01*
X38021204Y-27037784D01*
X38078311Y-26997527D01*
X38148116Y-26994535D01*
X38172766Y-27003497D01*
X38248607Y-27040573D01*
X38280261Y-27045185D01*
X38316739Y-27050500D01*
X38316740Y-27050500D01*
X39558261Y-27050500D01*
X39580971Y-27047191D01*
X39626393Y-27040573D01*
X39731483Y-26989198D01*
X39774820Y-26945860D01*
X39802259Y-26930877D01*
X39828724Y-26914231D01*
X39832673Y-26914269D01*
X39836139Y-26912377D01*
X39867331Y-26914607D01*
G37*
%TD.AperFunction*%
%TA.AperFunction,Conductor*%
G36*
X62943039Y-20510185D02*
G01*
X62988794Y-20562989D01*
X63000000Y-20614500D01*
X63000000Y-52278450D01*
X62980315Y-52345489D01*
X62927511Y-52391244D01*
X62876000Y-52402450D01*
X61748281Y-52402450D01*
X61681242Y-52382765D01*
X61660600Y-52366131D01*
X61630404Y-52335935D01*
X61567954Y-52306814D01*
X61523173Y-52285932D01*
X61523171Y-52285931D01*
X61523172Y-52285931D01*
X61474317Y-52279500D01*
X61474316Y-52279500D01*
X61025684Y-52279500D01*
X61025683Y-52279500D01*
X60976828Y-52285931D01*
X60869595Y-52335935D01*
X60842681Y-52362850D01*
X60781358Y-52396335D01*
X60711666Y-52391351D01*
X60667319Y-52362850D01*
X60590404Y-52285935D01*
X60515486Y-52251000D01*
X60483173Y-52235932D01*
X60483171Y-52235931D01*
X60483172Y-52235931D01*
X60434317Y-52229500D01*
X60434316Y-52229500D01*
X60085684Y-52229500D01*
X60085683Y-52229500D01*
X60036828Y-52235931D01*
X59929595Y-52285935D01*
X59838264Y-52377267D01*
X59835440Y-52374443D01*
X59796958Y-52405183D01*
X59727458Y-52412352D01*
X59665114Y-52380808D01*
X59661901Y-52377101D01*
X59661736Y-52377267D01*
X59570404Y-52285935D01*
X59495486Y-52251000D01*
X59463173Y-52235932D01*
X59463171Y-52235931D01*
X59463172Y-52235931D01*
X59414317Y-52229500D01*
X59414316Y-52229500D01*
X59065684Y-52229500D01*
X59065683Y-52229500D01*
X59016828Y-52235931D01*
X58909595Y-52285935D01*
X58832681Y-52362850D01*
X58771358Y-52396335D01*
X58701666Y-52391351D01*
X58657319Y-52362850D01*
X58630404Y-52335935D01*
X58567954Y-52306814D01*
X58523173Y-52285932D01*
X58523171Y-52285931D01*
X58523172Y-52285931D01*
X58474317Y-52279500D01*
X58474316Y-52279500D01*
X58025684Y-52279500D01*
X58025683Y-52279500D01*
X57976828Y-52285931D01*
X57869595Y-52335935D01*
X57842681Y-52362850D01*
X57781358Y-52396335D01*
X57711666Y-52391351D01*
X57667319Y-52362850D01*
X57590404Y-52285935D01*
X57515486Y-52251000D01*
X57483173Y-52235932D01*
X57483171Y-52235931D01*
X57483172Y-52235931D01*
X57434317Y-52229500D01*
X57434316Y-52229500D01*
X57085684Y-52229500D01*
X57085683Y-52229500D01*
X57036828Y-52235931D01*
X56929595Y-52285935D01*
X56838264Y-52377267D01*
X56835440Y-52374443D01*
X56796958Y-52405183D01*
X56727458Y-52412352D01*
X56665114Y-52380808D01*
X56661901Y-52377101D01*
X56661736Y-52377267D01*
X56570404Y-52285935D01*
X56495486Y-52251000D01*
X56463173Y-52235932D01*
X56463171Y-52235931D01*
X56463172Y-52235931D01*
X56414317Y-52229500D01*
X56414316Y-52229500D01*
X56065684Y-52229500D01*
X56065683Y-52229500D01*
X56016828Y-52235931D01*
X55909595Y-52285935D01*
X55832681Y-52362850D01*
X55771358Y-52396335D01*
X55701666Y-52391351D01*
X55657319Y-52362850D01*
X55630404Y-52335935D01*
X55567954Y-52306814D01*
X55523173Y-52285932D01*
X55523171Y-52285931D01*
X55523172Y-52285931D01*
X55474317Y-52279500D01*
X55474316Y-52279500D01*
X55025684Y-52279500D01*
X55025683Y-52279500D01*
X54976828Y-52285931D01*
X54869595Y-52335935D01*
X54839400Y-52366131D01*
X54778077Y-52399616D01*
X54751719Y-52402450D01*
X54389116Y-52402450D01*
X54357024Y-52398225D01*
X54324461Y-52389500D01*
X54229539Y-52389500D01*
X54137850Y-52414067D01*
X54077968Y-52448641D01*
X54055648Y-52461528D01*
X54055646Y-52461529D01*
X54048610Y-52465592D01*
X54047475Y-52463626D01*
X53993252Y-52484575D01*
X53924811Y-52470523D01*
X53874831Y-52421698D01*
X53863186Y-52393096D01*
X53856306Y-52367419D01*
X53753975Y-52340000D01*
X53646022Y-52340000D01*
X53543692Y-52367418D01*
X53536812Y-52393097D01*
X53500447Y-52452757D01*
X53437599Y-52483286D01*
X53368224Y-52474991D01*
X53351586Y-52465252D01*
X53351390Y-52465592D01*
X53344353Y-52461529D01*
X53344352Y-52461528D01*
X53299924Y-52435877D01*
X53262149Y-52414067D01*
X53211514Y-52400500D01*
X53170461Y-52389500D01*
X53075539Y-52389500D01*
X52983852Y-52414067D01*
X52983851Y-52414067D01*
X52966149Y-52424288D01*
X52950660Y-52428438D01*
X52939085Y-52435877D01*
X52904150Y-52440900D01*
X52736311Y-52440900D01*
X52669272Y-52421215D01*
X52631317Y-52377762D01*
X52630288Y-52378483D01*
X52624065Y-52369596D01*
X52540404Y-52285935D01*
X52465486Y-52251000D01*
X52433173Y-52235932D01*
X52433171Y-52235931D01*
X52433172Y-52235931D01*
X52384317Y-52229500D01*
X52384316Y-52229500D01*
X52035684Y-52229500D01*
X52035683Y-52229500D01*
X51986828Y-52235931D01*
X51879595Y-52285935D01*
X51788264Y-52377267D01*
X51785440Y-52374443D01*
X51746958Y-52405183D01*
X51677458Y-52412352D01*
X51615114Y-52380808D01*
X51611901Y-52377101D01*
X51611736Y-52377267D01*
X51520404Y-52285935D01*
X51445486Y-52251000D01*
X51413173Y-52235932D01*
X51413171Y-52235931D01*
X51413172Y-52235931D01*
X51364317Y-52229500D01*
X51364316Y-52229500D01*
X51030189Y-52229500D01*
X50963150Y-52209815D01*
X50917395Y-52157011D01*
X50907451Y-52087853D01*
X50936476Y-52024297D01*
X50942508Y-52017819D01*
X52093992Y-50866335D01*
X52510465Y-50449862D01*
X53260465Y-49699862D01*
X53303318Y-49625639D01*
X53325500Y-49542853D01*
X53325500Y-49515068D01*
X53345185Y-49448029D01*
X53393203Y-49404584D01*
X53503220Y-49348528D01*
X53598528Y-49253220D01*
X53639516Y-49172775D01*
X53687489Y-49121981D01*
X53755310Y-49105186D01*
X53821445Y-49127723D01*
X53860483Y-49172774D01*
X53901472Y-49253220D01*
X53901473Y-49253221D01*
X53901476Y-49253225D01*
X53996774Y-49348523D01*
X53996778Y-49348526D01*
X53996780Y-49348528D01*
X54116874Y-49409719D01*
X54116876Y-49409719D01*
X54116878Y-49409720D01*
X54216507Y-49425500D01*
X54216512Y-49425500D01*
X54783493Y-49425500D01*
X54883121Y-49409720D01*
X54883121Y-49409719D01*
X54883126Y-49409719D01*
X55003220Y-49348528D01*
X55098528Y-49253220D01*
X55098532Y-49253212D01*
X55100504Y-49250499D01*
X55103755Y-49247991D01*
X55105428Y-49246319D01*
X55105644Y-49246535D01*
X55155833Y-49207832D01*
X55225446Y-49201851D01*
X55262824Y-49215995D01*
X55306810Y-49241390D01*
X55306811Y-49241390D01*
X55306814Y-49241392D01*
X55434108Y-49275500D01*
X55434110Y-49275500D01*
X55565890Y-49275500D01*
X55565892Y-49275500D01*
X55693186Y-49241392D01*
X55807314Y-49175500D01*
X55900500Y-49082314D01*
X55966392Y-48968186D01*
X56000500Y-48840892D01*
X56000500Y-48709108D01*
X55966392Y-48581814D01*
X55900500Y-48467686D01*
X55807314Y-48374500D01*
X55732869Y-48331519D01*
X55693187Y-48308608D01*
X55590460Y-48281083D01*
X55565892Y-48274500D01*
X55434108Y-48274500D01*
X55306814Y-48308608D01*
X55306813Y-48308608D01*
X55306811Y-48308609D01*
X55306808Y-48308610D01*
X55262822Y-48334005D01*
X55194922Y-48350476D01*
X55128895Y-48327623D01*
X55100507Y-48299504D01*
X55098529Y-48296782D01*
X55098528Y-48296780D01*
X55003220Y-48201472D01*
X54883126Y-48140281D01*
X54883123Y-48140280D01*
X54874430Y-48135851D01*
X54875587Y-48133578D01*
X54829762Y-48102239D01*
X54802569Y-48037878D01*
X54814489Y-47969033D01*
X54861737Y-47917561D01*
X54882429Y-47907571D01*
X54979981Y-47871186D01*
X54979984Y-47871184D01*
X55089329Y-47789329D01*
X55171184Y-47679984D01*
X55171185Y-47679983D01*
X55218916Y-47552010D01*
X55224999Y-47495428D01*
X55225000Y-47495427D01*
X55225000Y-47475000D01*
X52275001Y-47475000D01*
X52275001Y-47495439D01*
X52281081Y-47552007D01*
X52328813Y-47679981D01*
X52328815Y-47679984D01*
X52410670Y-47789329D01*
X52520015Y-47871184D01*
X52520018Y-47871186D01*
X52617570Y-47907571D01*
X52673504Y-47949442D01*
X52697921Y-48014907D01*
X52683069Y-48083180D01*
X52633664Y-48132585D01*
X52622717Y-48137304D01*
X52616874Y-48140280D01*
X52616874Y-48140281D01*
X52510203Y-48194632D01*
X52496778Y-48201473D01*
X52496774Y-48201476D01*
X52401476Y-48296774D01*
X52401473Y-48296778D01*
X52401472Y-48296780D01*
X52344827Y-48407953D01*
X52340279Y-48416878D01*
X52324500Y-48516506D01*
X52324500Y-49033493D01*
X52340279Y-49133121D01*
X52340280Y-49133124D01*
X52340281Y-49133126D01*
X52401472Y-49253220D01*
X52401473Y-49253221D01*
X52401476Y-49253225D01*
X52503680Y-49355429D01*
X52501575Y-49357533D01*
X52534559Y-49400301D01*
X52540543Y-49469914D01*
X52507942Y-49531712D01*
X52506692Y-49532979D01*
X52050138Y-49989535D01*
X51587181Y-50452492D01*
X51525858Y-50485977D01*
X51456166Y-50480993D01*
X51400233Y-50439121D01*
X51375816Y-50373657D01*
X51375500Y-50364811D01*
X51375500Y-50161533D01*
X51395185Y-50094494D01*
X51443203Y-50051049D01*
X51488342Y-50028050D01*
X51578050Y-49938342D01*
X51635646Y-49825304D01*
X51635646Y-49825302D01*
X51635647Y-49825301D01*
X51649008Y-49740941D01*
X51650500Y-49731519D01*
X51650499Y-49168482D01*
X51635646Y-49074696D01*
X51578050Y-48961658D01*
X51578046Y-48961654D01*
X51578045Y-48961652D01*
X51481734Y-48865341D01*
X51448249Y-48804018D01*
X51453233Y-48734326D01*
X51495105Y-48678393D01*
X51495782Y-48677889D01*
X51571792Y-48621791D01*
X51652346Y-48512645D01*
X51697149Y-48384604D01*
X51697149Y-48384600D01*
X51700000Y-48354206D01*
X51700000Y-48300000D01*
X51174000Y-48300000D01*
X51106961Y-48280315D01*
X51061206Y-48227511D01*
X51050000Y-48176000D01*
X51050000Y-48050000D01*
X50924000Y-48050000D01*
X50856961Y-48030315D01*
X50811206Y-47977511D01*
X50800000Y-47926000D01*
X50800000Y-47800000D01*
X51300000Y-47800000D01*
X51699999Y-47800000D01*
X51699999Y-47745803D01*
X51697148Y-47715393D01*
X51652346Y-47587354D01*
X51571792Y-47478207D01*
X51462645Y-47397653D01*
X51334602Y-47352850D01*
X51304207Y-47350000D01*
X51300000Y-47350000D01*
X51300000Y-47800000D01*
X50800000Y-47800000D01*
X50800000Y-47350000D01*
X50795796Y-47350001D01*
X50795774Y-47350002D01*
X50765399Y-47352850D01*
X50765394Y-47352851D01*
X50637354Y-47397653D01*
X50536156Y-47472342D01*
X50470527Y-47496313D01*
X50402357Y-47480998D01*
X50389643Y-47472895D01*
X50388345Y-47471952D01*
X50388342Y-47471950D01*
X50331823Y-47443152D01*
X50275301Y-47414352D01*
X50181524Y-47399500D01*
X49718482Y-47399500D01*
X49637519Y-47412323D01*
X49624696Y-47414354D01*
X49511658Y-47471950D01*
X49511657Y-47471951D01*
X49511652Y-47471954D01*
X49421954Y-47561652D01*
X49421951Y-47561657D01*
X49364352Y-47674698D01*
X49349500Y-47768475D01*
X49349500Y-48138810D01*
X49329815Y-48205849D01*
X49313181Y-48226491D01*
X48489537Y-49050135D01*
X48489535Y-49050138D01*
X48446682Y-49124359D01*
X48434860Y-49168482D01*
X48424500Y-49207144D01*
X48424500Y-49452382D01*
X48404815Y-49519421D01*
X48352011Y-49565176D01*
X48282853Y-49575120D01*
X48256978Y-49568493D01*
X48247371Y-49564892D01*
X48193186Y-49533608D01*
X48090517Y-49506098D01*
X48084890Y-49503989D01*
X48061567Y-49486470D01*
X48036658Y-49471288D01*
X48033960Y-49465734D01*
X48029024Y-49462027D01*
X48018874Y-49434678D01*
X48006129Y-49408441D01*
X48006471Y-49401257D01*
X48004714Y-49396523D01*
X48007246Y-49384968D01*
X48008636Y-49355788D01*
X48025500Y-49292853D01*
X48025500Y-49207147D01*
X48025500Y-49021543D01*
X48045185Y-48954504D01*
X48061814Y-48933866D01*
X48139198Y-48856483D01*
X48190573Y-48751393D01*
X48200500Y-48683260D01*
X48200500Y-47816740D01*
X48190573Y-47748607D01*
X48139198Y-47643517D01*
X48139196Y-47643515D01*
X48139196Y-47643514D01*
X48061819Y-47566137D01*
X48028334Y-47504814D01*
X48025500Y-47478456D01*
X48025500Y-47182671D01*
X48045185Y-47115632D01*
X48097989Y-47069877D01*
X48130108Y-47060197D01*
X48130102Y-47060197D01*
X48133126Y-47059719D01*
X48253220Y-46998528D01*
X48297177Y-46954571D01*
X52275000Y-46954571D01*
X52275000Y-46975000D01*
X52750000Y-46975000D01*
X53250000Y-46975000D01*
X54250000Y-46975000D01*
X54750000Y-46975000D01*
X55224999Y-46975000D01*
X55224999Y-46954566D01*
X55224998Y-46954560D01*
X55218918Y-46897992D01*
X55171186Y-46770018D01*
X55171184Y-46770015D01*
X55089329Y-46660670D01*
X54979984Y-46578815D01*
X54979983Y-46578814D01*
X54852010Y-46531083D01*
X54795428Y-46525000D01*
X54750000Y-46525000D01*
X54750000Y-46975000D01*
X54250000Y-46975000D01*
X54250000Y-46525000D01*
X54204567Y-46525000D01*
X54204558Y-46525001D01*
X54147992Y-46531081D01*
X54020018Y-46578813D01*
X54020015Y-46578815D01*
X53910670Y-46660670D01*
X53849267Y-46742695D01*
X53793333Y-46784566D01*
X53723641Y-46789550D01*
X53662318Y-46756065D01*
X53650733Y-46742695D01*
X53589329Y-46660670D01*
X53479984Y-46578815D01*
X53479983Y-46578814D01*
X53352010Y-46531083D01*
X53295428Y-46525000D01*
X53250000Y-46525000D01*
X53250000Y-46975000D01*
X52750000Y-46975000D01*
X52750000Y-46525000D01*
X52704567Y-46525000D01*
X52704558Y-46525001D01*
X52647992Y-46531081D01*
X52520018Y-46578813D01*
X52520015Y-46578815D01*
X52410670Y-46660670D01*
X52328815Y-46770015D01*
X52328814Y-46770016D01*
X52281083Y-46897989D01*
X52275000Y-46954571D01*
X48297177Y-46954571D01*
X48348528Y-46903220D01*
X48409719Y-46783126D01*
X48409719Y-46783124D01*
X48409720Y-46783123D01*
X48425500Y-46683493D01*
X48425500Y-46166506D01*
X48409720Y-46066878D01*
X48409719Y-46066876D01*
X48409719Y-46066874D01*
X48348528Y-45946780D01*
X48348526Y-45946778D01*
X48348523Y-45946774D01*
X48253225Y-45851476D01*
X48253221Y-45851473D01*
X48253220Y-45851472D01*
X48133126Y-45790281D01*
X48133123Y-45790280D01*
X48124430Y-45785851D01*
X48125587Y-45783578D01*
X48079762Y-45752239D01*
X48052569Y-45687878D01*
X48064489Y-45619033D01*
X48111737Y-45567561D01*
X48132429Y-45557571D01*
X48229981Y-45521186D01*
X48229984Y-45521184D01*
X48339329Y-45439329D01*
X48421184Y-45329984D01*
X48421185Y-45329983D01*
X48468916Y-45202010D01*
X48474999Y-45145428D01*
X48475000Y-45145427D01*
X48475000Y-45125000D01*
X45525001Y-45125000D01*
X45525001Y-45145439D01*
X45531081Y-45202007D01*
X45578813Y-45329981D01*
X45578815Y-45329984D01*
X45660670Y-45439329D01*
X45770015Y-45521184D01*
X45770018Y-45521186D01*
X45867570Y-45557571D01*
X45923504Y-45599442D01*
X45947921Y-45664907D01*
X45933069Y-45733180D01*
X45883664Y-45782585D01*
X45872717Y-45787304D01*
X45746778Y-45851473D01*
X45746774Y-45851476D01*
X45651476Y-45946774D01*
X45651473Y-45946778D01*
X45590279Y-46066878D01*
X45574500Y-46166506D01*
X45574500Y-46683493D01*
X45590279Y-46783121D01*
X45590280Y-46783124D01*
X45590281Y-46783126D01*
X45651472Y-46903220D01*
X45651473Y-46903221D01*
X45651476Y-46903225D01*
X45746774Y-46998523D01*
X45746778Y-46998526D01*
X45746780Y-46998528D01*
X45866874Y-47059719D01*
X45869892Y-47060197D01*
X45873268Y-47061797D01*
X45876160Y-47062737D01*
X45876038Y-47063110D01*
X45933028Y-47090123D01*
X45969962Y-47149433D01*
X45974500Y-47182671D01*
X45974500Y-47478456D01*
X45954815Y-47545495D01*
X45938181Y-47566137D01*
X45860803Y-47643514D01*
X45809426Y-47748608D01*
X45799500Y-47816739D01*
X45799500Y-48683260D01*
X45809426Y-48751391D01*
X45815629Y-48764080D01*
X45827386Y-48832953D01*
X45800042Y-48897250D01*
X45742277Y-48936556D01*
X45672431Y-48938392D01*
X45616546Y-48906219D01*
X45361819Y-48651492D01*
X45328334Y-48590169D01*
X45325500Y-48563811D01*
X45325500Y-47707149D01*
X45325500Y-47707147D01*
X45303318Y-47624362D01*
X45303318Y-47624361D01*
X45260465Y-47550138D01*
X43199862Y-45489535D01*
X43138356Y-45454024D01*
X43125640Y-45446682D01*
X43084246Y-45435591D01*
X43042853Y-45424500D01*
X43042852Y-45424500D01*
X30436188Y-45424500D01*
X30369149Y-45404815D01*
X30348507Y-45388181D01*
X30111819Y-45151492D01*
X30078334Y-45090169D01*
X30075500Y-45063811D01*
X30075500Y-44604571D01*
X45525000Y-44604571D01*
X45525000Y-44625000D01*
X46000000Y-44625000D01*
X46500000Y-44625000D01*
X47500000Y-44625000D01*
X48000000Y-44625000D01*
X48474999Y-44625000D01*
X48474999Y-44604566D01*
X48474998Y-44604560D01*
X48468918Y-44547992D01*
X48421186Y-44420018D01*
X48421184Y-44420015D01*
X48339329Y-44310670D01*
X48229984Y-44228815D01*
X48229983Y-44228814D01*
X48102010Y-44181083D01*
X48045428Y-44175000D01*
X48000000Y-44175000D01*
X48000000Y-44625000D01*
X47500000Y-44625000D01*
X47500000Y-44175000D01*
X47454567Y-44175000D01*
X47454558Y-44175001D01*
X47397992Y-44181081D01*
X47270018Y-44228813D01*
X47270015Y-44228815D01*
X47160670Y-44310670D01*
X47099267Y-44392695D01*
X47043333Y-44434566D01*
X46973641Y-44439550D01*
X46912318Y-44406065D01*
X46900733Y-44392695D01*
X46839329Y-44310670D01*
X46729984Y-44228815D01*
X46729983Y-44228814D01*
X46602010Y-44181083D01*
X46545428Y-44175000D01*
X46500000Y-44175000D01*
X46500000Y-44625000D01*
X46000000Y-44625000D01*
X46000000Y-44175000D01*
X45954567Y-44175000D01*
X45954558Y-44175001D01*
X45897992Y-44181081D01*
X45770018Y-44228813D01*
X45770015Y-44228815D01*
X45660670Y-44310670D01*
X45578815Y-44420015D01*
X45578814Y-44420016D01*
X45531083Y-44547989D01*
X45525000Y-44604571D01*
X30075500Y-44604571D01*
X30075500Y-43457150D01*
X30075500Y-43457147D01*
X30061417Y-43404587D01*
X30053318Y-43374361D01*
X30031891Y-43337250D01*
X30010465Y-43300138D01*
X29949862Y-43239535D01*
X29949859Y-43239533D01*
X29795760Y-43085434D01*
X29611819Y-42901492D01*
X29578334Y-42840169D01*
X29575500Y-42813811D01*
X29575500Y-42457149D01*
X29575500Y-42457147D01*
X29553318Y-42374362D01*
X29553318Y-42374361D01*
X29530224Y-42334362D01*
X29510465Y-42300138D01*
X29449862Y-42239535D01*
X29449859Y-42239533D01*
X29287865Y-42077539D01*
X29111819Y-41901492D01*
X29078334Y-41840169D01*
X29075500Y-41813811D01*
X29075500Y-40420943D01*
X31399500Y-40420943D01*
X31399500Y-40579057D01*
X31438358Y-40724075D01*
X31440423Y-40731783D01*
X31440426Y-40731790D01*
X31519475Y-40868709D01*
X31519479Y-40868714D01*
X31519480Y-40868716D01*
X31631284Y-40980520D01*
X31631286Y-40980521D01*
X31631290Y-40980524D01*
X31740536Y-41043596D01*
X31768216Y-41059577D01*
X31920943Y-41100500D01*
X31920945Y-41100500D01*
X32079055Y-41100500D01*
X32079057Y-41100500D01*
X32231784Y-41059577D01*
X32368716Y-40980520D01*
X32480520Y-40868716D01*
X32495093Y-40843475D01*
X34324500Y-40843475D01*
X34324500Y-41306517D01*
X34335292Y-41374657D01*
X34339354Y-41400304D01*
X34396950Y-41513342D01*
X34396952Y-41513344D01*
X34396954Y-41513347D01*
X34486652Y-41603045D01*
X34486654Y-41603046D01*
X34486658Y-41603050D01*
X34599694Y-41660645D01*
X34599698Y-41660647D01*
X34693475Y-41675499D01*
X34693481Y-41675500D01*
X35306518Y-41675499D01*
X35400304Y-41660646D01*
X35513342Y-41603050D01*
X35554572Y-41561820D01*
X35615895Y-41528334D01*
X35642254Y-41525500D01*
X35937485Y-41525500D01*
X36004524Y-41545185D01*
X36050279Y-41597989D01*
X36055990Y-41617376D01*
X36056584Y-41617193D01*
X36059425Y-41626390D01*
X36110803Y-41731485D01*
X36193514Y-41814196D01*
X36193515Y-41814196D01*
X36193517Y-41814198D01*
X36298607Y-41865573D01*
X36332673Y-41870536D01*
X36366739Y-41875500D01*
X36366740Y-41875500D01*
X36733261Y-41875500D01*
X36755971Y-41872191D01*
X36801393Y-41865573D01*
X36906483Y-41814198D01*
X36989198Y-41731483D01*
X37040573Y-41626393D01*
X37050500Y-41558260D01*
X37050500Y-40316740D01*
X37050500Y-40316739D01*
X37949500Y-40316739D01*
X37949500Y-41558260D01*
X37959426Y-41626391D01*
X37986901Y-41682592D01*
X37999500Y-41737052D01*
X37999500Y-42009309D01*
X38007912Y-42040703D01*
X38021876Y-42092819D01*
X38021883Y-42092842D01*
X38021886Y-42092853D01*
X38030201Y-42123887D01*
X38089511Y-42226614D01*
X38473386Y-42610489D01*
X38576113Y-42669799D01*
X38593653Y-42674498D01*
X38593656Y-42674500D01*
X38593657Y-42674500D01*
X38612318Y-42679500D01*
X38690691Y-42700500D01*
X39262035Y-42700500D01*
X39291475Y-42709144D01*
X39321462Y-42715668D01*
X39326477Y-42719422D01*
X39329074Y-42720185D01*
X39349716Y-42736819D01*
X39413181Y-42800284D01*
X39446666Y-42861607D01*
X39449500Y-42887965D01*
X39449500Y-42996062D01*
X39435383Y-43048751D01*
X39436719Y-43049304D01*
X39433608Y-43056814D01*
X39399500Y-43184108D01*
X39399500Y-43315891D01*
X39433608Y-43443187D01*
X39440366Y-43454892D01*
X39499500Y-43557314D01*
X39592686Y-43650500D01*
X39706814Y-43716392D01*
X39834108Y-43750500D01*
X39834110Y-43750500D01*
X39965890Y-43750500D01*
X39965892Y-43750500D01*
X40093186Y-43716392D01*
X40207314Y-43650500D01*
X40300500Y-43557314D01*
X40366392Y-43443186D01*
X40400500Y-43315892D01*
X40400500Y-43184108D01*
X40366392Y-43056814D01*
X40366388Y-43056807D01*
X40363281Y-43049304D01*
X40364616Y-43048751D01*
X40350500Y-42996062D01*
X40350500Y-42590693D01*
X40350500Y-42590691D01*
X40319799Y-42476114D01*
X40300788Y-42443186D01*
X40289999Y-42424499D01*
X40289998Y-42424498D01*
X40261052Y-42374362D01*
X40260489Y-42373386D01*
X39776614Y-41889511D01*
X39673887Y-41830201D01*
X39673884Y-41830199D01*
X39643841Y-41822150D01*
X39643840Y-41822149D01*
X39643840Y-41822150D01*
X39586601Y-41806813D01*
X39559309Y-41799500D01*
X39559308Y-41799500D01*
X39054591Y-41799500D01*
X38987552Y-41779815D01*
X38941797Y-41727011D01*
X38931853Y-41657853D01*
X38938622Y-41635870D01*
X38937730Y-41635595D01*
X38940573Y-41626392D01*
X38943975Y-41603047D01*
X38950500Y-41558260D01*
X38950500Y-40574500D01*
X38970185Y-40507461D01*
X39022989Y-40461706D01*
X39074500Y-40450500D01*
X39809307Y-40450500D01*
X39809309Y-40450500D01*
X39900373Y-40426099D01*
X39919618Y-40420943D01*
X39919620Y-40420942D01*
X39923887Y-40419799D01*
X40026614Y-40360489D01*
X40337819Y-40049284D01*
X40357255Y-40038671D01*
X40373989Y-40024171D01*
X40387320Y-40022254D01*
X40399142Y-40015799D01*
X40421228Y-40017378D01*
X40443147Y-40014227D01*
X40455398Y-40019822D01*
X40468834Y-40020783D01*
X40486560Y-40034053D01*
X40506703Y-40043252D01*
X40513985Y-40054583D01*
X40524767Y-40062655D01*
X40532504Y-40083400D01*
X40544477Y-40102030D01*
X40547628Y-40123948D01*
X40549184Y-40128119D01*
X40549500Y-40136965D01*
X40549500Y-40137947D01*
X40536901Y-40192406D01*
X40509428Y-40248604D01*
X40509425Y-40248611D01*
X40499500Y-40316739D01*
X40499500Y-41558260D01*
X40509426Y-41626391D01*
X40560803Y-41731485D01*
X40643514Y-41814196D01*
X40643515Y-41814196D01*
X40643517Y-41814198D01*
X40748607Y-41865573D01*
X40782673Y-41870536D01*
X40816739Y-41875500D01*
X40816740Y-41875500D01*
X41183261Y-41875500D01*
X41205971Y-41872191D01*
X41251393Y-41865573D01*
X41356483Y-41814198D01*
X41439198Y-41731483D01*
X41490573Y-41626393D01*
X41500500Y-41558260D01*
X41500500Y-40843475D01*
X42824500Y-40843475D01*
X42824500Y-41306517D01*
X42835292Y-41374657D01*
X42839354Y-41400304D01*
X42896950Y-41513342D01*
X42896952Y-41513344D01*
X42896954Y-41513347D01*
X42986652Y-41603045D01*
X42986656Y-41603048D01*
X42986658Y-41603050D01*
X42997411Y-41608528D01*
X43048206Y-41656501D01*
X43065002Y-41724322D01*
X43048504Y-41781012D01*
X43033608Y-41806811D01*
X42999500Y-41934108D01*
X42999500Y-42065891D01*
X43033608Y-42193187D01*
X43060368Y-42239535D01*
X43099500Y-42307314D01*
X43192686Y-42400500D01*
X43306814Y-42466392D01*
X43434108Y-42500500D01*
X43434110Y-42500500D01*
X43565890Y-42500500D01*
X43565892Y-42500500D01*
X43693186Y-42466392D01*
X43807314Y-42400500D01*
X43900500Y-42307314D01*
X43966392Y-42193186D01*
X44000500Y-42065892D01*
X44000500Y-41934108D01*
X43966392Y-41806814D01*
X43951495Y-41781013D01*
X43935023Y-41713114D01*
X43957875Y-41647087D01*
X44002587Y-41608529D01*
X44013342Y-41603050D01*
X44103050Y-41513342D01*
X44160646Y-41400304D01*
X44160646Y-41400302D01*
X44160647Y-41400301D01*
X44175499Y-41306524D01*
X44175500Y-41306519D01*
X44175499Y-40843482D01*
X44160646Y-40749696D01*
X44103050Y-40636658D01*
X44103046Y-40636654D01*
X44103045Y-40636652D01*
X44064237Y-40597844D01*
X45950000Y-40597844D01*
X45956401Y-40657372D01*
X45956403Y-40657379D01*
X46006645Y-40792086D01*
X46006649Y-40792093D01*
X46092809Y-40907187D01*
X46092812Y-40907190D01*
X46207906Y-40993350D01*
X46207913Y-40993354D01*
X46342620Y-41043596D01*
X46342627Y-41043598D01*
X46402155Y-41049999D01*
X46402172Y-41050000D01*
X46475000Y-41050000D01*
X46975000Y-41050000D01*
X47047828Y-41050000D01*
X47047844Y-41049999D01*
X47107372Y-41043598D01*
X47107379Y-41043596D01*
X47242086Y-40993354D01*
X47242089Y-40993352D01*
X47301188Y-40949111D01*
X47366652Y-40924693D01*
X47434926Y-40939544D01*
X47484331Y-40988949D01*
X47499500Y-41048377D01*
X47499500Y-41554269D01*
X47502353Y-41584699D01*
X47502353Y-41584701D01*
X47539200Y-41690000D01*
X47547207Y-41712882D01*
X47603881Y-41789673D01*
X47627852Y-41855301D01*
X47612537Y-41923471D01*
X47602495Y-41938782D01*
X47599504Y-41942680D01*
X47599501Y-41942684D01*
X47599500Y-41942686D01*
X47586317Y-41965520D01*
X47533608Y-42056813D01*
X47499500Y-42184108D01*
X47499500Y-42315891D01*
X47533608Y-42443187D01*
X47547005Y-42466391D01*
X47599500Y-42557314D01*
X47692686Y-42650500D01*
X47806814Y-42716392D01*
X47934108Y-42750500D01*
X47934110Y-42750500D01*
X48065890Y-42750500D01*
X48065892Y-42750500D01*
X48193186Y-42716392D01*
X48307314Y-42650500D01*
X48400500Y-42557314D01*
X48466392Y-42443186D01*
X48500500Y-42315892D01*
X48500500Y-42202481D01*
X48501922Y-42183753D01*
X48503105Y-42176007D01*
X48503318Y-42175639D01*
X48525501Y-42092853D01*
X48525501Y-42029425D01*
X48526923Y-42020118D01*
X48537890Y-41996651D01*
X48545186Y-41971807D01*
X48552440Y-41965520D01*
X48556507Y-41956821D01*
X48578419Y-41943010D01*
X48597990Y-41926052D01*
X48608524Y-41921813D01*
X48662882Y-41902793D01*
X48772150Y-41822150D01*
X48852793Y-41712882D01*
X48883057Y-41626392D01*
X48897646Y-41584701D01*
X48897646Y-41584699D01*
X48900500Y-41554269D01*
X48900500Y-41048377D01*
X48920185Y-40981338D01*
X48972989Y-40935583D01*
X49042147Y-40925639D01*
X49098812Y-40949111D01*
X49157910Y-40993352D01*
X49157913Y-40993354D01*
X49292620Y-41043596D01*
X49292627Y-41043598D01*
X49352155Y-41049999D01*
X49352172Y-41050000D01*
X49425000Y-41050000D01*
X49925000Y-41050000D01*
X49997828Y-41050000D01*
X49997844Y-41049999D01*
X50057372Y-41043598D01*
X50057379Y-41043596D01*
X50192086Y-40993354D01*
X50192093Y-40993350D01*
X50307187Y-40907190D01*
X50307190Y-40907187D01*
X50393350Y-40792093D01*
X50393354Y-40792086D01*
X50443596Y-40657379D01*
X50443598Y-40657372D01*
X50449999Y-40597844D01*
X50450000Y-40597827D01*
X50450000Y-39950000D01*
X49925000Y-39950000D01*
X49925000Y-41050000D01*
X49425000Y-41050000D01*
X49425000Y-39450000D01*
X49925000Y-39450000D01*
X50450000Y-39450000D01*
X50450000Y-38802172D01*
X50449999Y-38802155D01*
X50443598Y-38742627D01*
X50443596Y-38742620D01*
X50393354Y-38607913D01*
X50393350Y-38607906D01*
X50307190Y-38492812D01*
X50307187Y-38492809D01*
X50192093Y-38406649D01*
X50192086Y-38406645D01*
X50057379Y-38356403D01*
X50057372Y-38356401D01*
X49997844Y-38350000D01*
X49925000Y-38350000D01*
X49925000Y-39450000D01*
X49425000Y-39450000D01*
X49425000Y-38350000D01*
X49352155Y-38350000D01*
X49292627Y-38356401D01*
X49292620Y-38356403D01*
X49157913Y-38406645D01*
X49157906Y-38406649D01*
X49042814Y-38492808D01*
X49042805Y-38492817D01*
X48999765Y-38550311D01*
X48943831Y-38592182D01*
X48900499Y-38600000D01*
X47499501Y-38600000D01*
X47432462Y-38580315D01*
X47400235Y-38550311D01*
X47357194Y-38492817D01*
X47357185Y-38492808D01*
X47242093Y-38406649D01*
X47242086Y-38406645D01*
X47107379Y-38356403D01*
X47107372Y-38356401D01*
X47047844Y-38350000D01*
X46975000Y-38350000D01*
X46975000Y-41050000D01*
X46475000Y-41050000D01*
X46475000Y-39950000D01*
X45950000Y-39950000D01*
X45950000Y-40597844D01*
X44064237Y-40597844D01*
X44013347Y-40546954D01*
X44013344Y-40546952D01*
X44013342Y-40546950D01*
X43935841Y-40507461D01*
X43900301Y-40489352D01*
X43806524Y-40474500D01*
X43193482Y-40474500D01*
X43112519Y-40487323D01*
X43099696Y-40489354D01*
X42986658Y-40546950D01*
X42986657Y-40546951D01*
X42986652Y-40546954D01*
X42896954Y-40636652D01*
X42896951Y-40636657D01*
X42839352Y-40749698D01*
X42824500Y-40843475D01*
X41500500Y-40843475D01*
X41500500Y-40316740D01*
X41493270Y-40267115D01*
X41490574Y-40248611D01*
X41490573Y-40248608D01*
X41490573Y-40248607D01*
X41463178Y-40192568D01*
X41463099Y-40192406D01*
X41460302Y-40180319D01*
X41455523Y-40172882D01*
X41450500Y-40137947D01*
X41450500Y-40067925D01*
X41470185Y-40000886D01*
X41522989Y-39955131D01*
X41592147Y-39945187D01*
X41628958Y-39956524D01*
X41689214Y-39985981D01*
X41698607Y-39990573D01*
X41766739Y-40000500D01*
X41766740Y-40000500D01*
X42133261Y-40000500D01*
X42155971Y-39997191D01*
X42201393Y-39990573D01*
X42306483Y-39939198D01*
X42316060Y-39929621D01*
X42333863Y-39911819D01*
X42395186Y-39878334D01*
X42421544Y-39875500D01*
X42857746Y-39875500D01*
X42924785Y-39895185D01*
X42945428Y-39911820D01*
X42986653Y-39953046D01*
X42986655Y-39953047D01*
X42986658Y-39953050D01*
X43083393Y-40002339D01*
X43099698Y-40010647D01*
X43193475Y-40025499D01*
X43193481Y-40025500D01*
X43806518Y-40025499D01*
X43900304Y-40010646D01*
X44013342Y-39953050D01*
X44103050Y-39863342D01*
X44160646Y-39750304D01*
X44160646Y-39750302D01*
X44160647Y-39750301D01*
X44175499Y-39656524D01*
X44175500Y-39656519D01*
X44175499Y-39193482D01*
X44160646Y-39099696D01*
X44103050Y-38986658D01*
X44103046Y-38986654D01*
X44103045Y-38986652D01*
X44013347Y-38896954D01*
X44013343Y-38896951D01*
X44013342Y-38896950D01*
X43951548Y-38865464D01*
X43900301Y-38839352D01*
X43806524Y-38824500D01*
X43193482Y-38824500D01*
X43122408Y-38835757D01*
X43099696Y-38839354D01*
X42986658Y-38896950D01*
X42986657Y-38896951D01*
X42986653Y-38896953D01*
X42945428Y-38938180D01*
X42884105Y-38971666D01*
X42857746Y-38974500D01*
X42574500Y-38974500D01*
X42507461Y-38954815D01*
X42461706Y-38902011D01*
X42450500Y-38850500D01*
X42450500Y-38802155D01*
X45950000Y-38802155D01*
X45950000Y-39450000D01*
X46475000Y-39450000D01*
X46475000Y-38350000D01*
X46402155Y-38350000D01*
X46342627Y-38356401D01*
X46342620Y-38356403D01*
X46207913Y-38406645D01*
X46207906Y-38406649D01*
X46092812Y-38492809D01*
X46092809Y-38492812D01*
X46006649Y-38607906D01*
X46006645Y-38607913D01*
X45956403Y-38742620D01*
X45956401Y-38742627D01*
X45950000Y-38802155D01*
X42450500Y-38802155D01*
X42450500Y-38441739D01*
X42445387Y-38406645D01*
X42440573Y-38373607D01*
X42389198Y-38268517D01*
X42389196Y-38268515D01*
X42389196Y-38268514D01*
X42306485Y-38185803D01*
X42201391Y-38134426D01*
X42133261Y-38124500D01*
X42133260Y-38124500D01*
X41766740Y-38124500D01*
X41766739Y-38124500D01*
X41698608Y-38134426D01*
X41593514Y-38185803D01*
X41510803Y-38268514D01*
X41459426Y-38373608D01*
X41449500Y-38441739D01*
X41449500Y-39216816D01*
X41429815Y-39283855D01*
X41377011Y-39329610D01*
X41307853Y-39339554D01*
X41263500Y-39324203D01*
X41193189Y-39283609D01*
X41193186Y-39283608D01*
X41065892Y-39249500D01*
X40934108Y-39249500D01*
X40806814Y-39283608D01*
X40806813Y-39283608D01*
X40806811Y-39283609D01*
X40806810Y-39283609D01*
X40736500Y-39324203D01*
X40668600Y-39340676D01*
X40602573Y-39317823D01*
X40559382Y-39262902D01*
X40550500Y-39216816D01*
X40550500Y-38441739D01*
X40545387Y-38406645D01*
X40540573Y-38373607D01*
X40489198Y-38268517D01*
X40489196Y-38268515D01*
X40489196Y-38268514D01*
X40406485Y-38185803D01*
X40301391Y-38134426D01*
X40233261Y-38124500D01*
X40233260Y-38124500D01*
X39866740Y-38124500D01*
X39866739Y-38124500D01*
X39798608Y-38134426D01*
X39693514Y-38185803D01*
X39610803Y-38268514D01*
X39559426Y-38373608D01*
X39549500Y-38441739D01*
X39549500Y-39425500D01*
X39529815Y-39492539D01*
X39477011Y-39538294D01*
X39425500Y-39549500D01*
X38690691Y-39549500D01*
X38600325Y-39573713D01*
X38600324Y-39573712D01*
X38576116Y-39580199D01*
X38576113Y-39580200D01*
X38473387Y-39639510D01*
X38161241Y-39951655D01*
X38099918Y-39985139D01*
X38059006Y-39982213D01*
X38061689Y-39985981D01*
X38062467Y-40002339D01*
X38068191Y-40017681D01*
X38064095Y-40036515D01*
X38065012Y-40055771D01*
X38053838Y-40083678D01*
X38053344Y-40085955D01*
X38051894Y-40088537D01*
X38041085Y-40107258D01*
X38021385Y-40132932D01*
X38010805Y-40143513D01*
X38010800Y-40143519D01*
X37959427Y-40248604D01*
X37959426Y-40248607D01*
X37949500Y-40316739D01*
X37050500Y-40316739D01*
X37040573Y-40248607D01*
X36989198Y-40143517D01*
X36989196Y-40143515D01*
X36989196Y-40143514D01*
X36906485Y-40060803D01*
X36801391Y-40009426D01*
X36733261Y-39999500D01*
X36733260Y-39999500D01*
X36366740Y-39999500D01*
X36366739Y-39999500D01*
X36298608Y-40009426D01*
X36193514Y-40060803D01*
X36110803Y-40143514D01*
X36059426Y-40248608D01*
X36049500Y-40316739D01*
X36049500Y-40500500D01*
X36029815Y-40567539D01*
X35977011Y-40613294D01*
X35925500Y-40624500D01*
X35642254Y-40624500D01*
X35575215Y-40604815D01*
X35554572Y-40588180D01*
X35513346Y-40546953D01*
X35513344Y-40546952D01*
X35513342Y-40546950D01*
X35435841Y-40507461D01*
X35400301Y-40489352D01*
X35306524Y-40474500D01*
X34693482Y-40474500D01*
X34612519Y-40487323D01*
X34599696Y-40489354D01*
X34486658Y-40546950D01*
X34486657Y-40546951D01*
X34486652Y-40546954D01*
X34396954Y-40636652D01*
X34396951Y-40636657D01*
X34339352Y-40749698D01*
X34324500Y-40843475D01*
X32495093Y-40843475D01*
X32524762Y-40792086D01*
X32533698Y-40776609D01*
X32549235Y-40749697D01*
X32559577Y-40731784D01*
X32600500Y-40579057D01*
X32600500Y-40420943D01*
X32559577Y-40268216D01*
X32548258Y-40248611D01*
X32480524Y-40131290D01*
X32480518Y-40131282D01*
X32368717Y-40019481D01*
X32368709Y-40019475D01*
X32231790Y-39940426D01*
X32231786Y-39940424D01*
X32231784Y-39940423D01*
X32079057Y-39899500D01*
X31920943Y-39899500D01*
X31768216Y-39940423D01*
X31768209Y-39940426D01*
X31631290Y-40019475D01*
X31631282Y-40019481D01*
X31519481Y-40131282D01*
X31519475Y-40131290D01*
X31440426Y-40268209D01*
X31440423Y-40268216D01*
X31399500Y-40420943D01*
X29075500Y-40420943D01*
X29075500Y-40207149D01*
X29075499Y-40207145D01*
X29071593Y-40192568D01*
X29058450Y-40143513D01*
X29055174Y-40131287D01*
X29054325Y-40128119D01*
X29053318Y-40124361D01*
X29043443Y-40107258D01*
X29033358Y-40089789D01*
X29033356Y-40089787D01*
X29027822Y-40080201D01*
X29010465Y-40050138D01*
X28949862Y-39989535D01*
X28949859Y-39989533D01*
X28788825Y-39828499D01*
X28611819Y-39651492D01*
X28578334Y-39590169D01*
X28575500Y-39563811D01*
X28575500Y-39193475D01*
X34324500Y-39193475D01*
X34324500Y-39656517D01*
X34328736Y-39683260D01*
X34339354Y-39750304D01*
X34396950Y-39863342D01*
X34396952Y-39863344D01*
X34396954Y-39863347D01*
X34486652Y-39953045D01*
X34486654Y-39953046D01*
X34486658Y-39953050D01*
X34583393Y-40002339D01*
X34599698Y-40010647D01*
X34693475Y-40025499D01*
X34693481Y-40025500D01*
X35306518Y-40025499D01*
X35400304Y-40010646D01*
X35513342Y-39953050D01*
X35603050Y-39863342D01*
X35660646Y-39750304D01*
X35660646Y-39750302D01*
X35660647Y-39750301D01*
X35675499Y-39656524D01*
X35675500Y-39656519D01*
X35675499Y-39193482D01*
X35660646Y-39099696D01*
X35603050Y-38986658D01*
X35603046Y-38986654D01*
X35603045Y-38986652D01*
X35513343Y-38896950D01*
X35505448Y-38891214D01*
X35507089Y-38888954D01*
X35493297Y-38882655D01*
X35482249Y-38865464D01*
X35467396Y-38851431D01*
X35463158Y-38835757D01*
X35455523Y-38823877D01*
X35450500Y-38788942D01*
X35450500Y-38753936D01*
X35464618Y-38701246D01*
X35463282Y-38700693D01*
X35466388Y-38693192D01*
X35466392Y-38693186D01*
X35500500Y-38565892D01*
X35500500Y-38434108D01*
X35466392Y-38306814D01*
X35400500Y-38192686D01*
X35307314Y-38099500D01*
X35249616Y-38066188D01*
X35193187Y-38033608D01*
X35123090Y-38014826D01*
X35065892Y-37999500D01*
X34934108Y-37999500D01*
X34806812Y-38033608D01*
X34692686Y-38099500D01*
X34692683Y-38099502D01*
X34599502Y-38192683D01*
X34599500Y-38192686D01*
X34533608Y-38306812D01*
X34499500Y-38434108D01*
X34499500Y-38565892D01*
X34533608Y-38693186D01*
X34536718Y-38700693D01*
X34535381Y-38701246D01*
X34537035Y-38707422D01*
X34544477Y-38719001D01*
X34549500Y-38753936D01*
X34549500Y-38788942D01*
X34529815Y-38855981D01*
X34493095Y-38889209D01*
X34494552Y-38891214D01*
X34486657Y-38896950D01*
X34396954Y-38986652D01*
X34396951Y-38986657D01*
X34339352Y-39099698D01*
X34324500Y-39193475D01*
X28575500Y-39193475D01*
X28575500Y-37837149D01*
X28575500Y-37837147D01*
X28553318Y-37754362D01*
X28553318Y-37754361D01*
X28531891Y-37717250D01*
X28528007Y-37710523D01*
X28510467Y-37680141D01*
X28510466Y-37680140D01*
X28510465Y-37680138D01*
X28501270Y-37670943D01*
X36899500Y-37670943D01*
X36899500Y-37829057D01*
X36940038Y-37980345D01*
X36940423Y-37981783D01*
X36940426Y-37981790D01*
X37019473Y-38118706D01*
X37019477Y-38118712D01*
X37019480Y-38118716D01*
X37019482Y-38118718D01*
X37023872Y-38124438D01*
X37032116Y-38145762D01*
X37044477Y-38164995D01*
X37047391Y-38185268D01*
X37049069Y-38189606D01*
X37049500Y-38199930D01*
X37049500Y-38262947D01*
X37036901Y-38317406D01*
X37009428Y-38373604D01*
X37009425Y-38373611D01*
X36999500Y-38441739D01*
X36999500Y-39683260D01*
X37009426Y-39751391D01*
X37060803Y-39856485D01*
X37143514Y-39939196D01*
X37143515Y-39939196D01*
X37143517Y-39939198D01*
X37248607Y-39990573D01*
X37282673Y-39995536D01*
X37316739Y-40000500D01*
X37316740Y-40000500D01*
X37683261Y-40000500D01*
X37705971Y-39997191D01*
X37751393Y-39990573D01*
X37856483Y-39939198D01*
X37856821Y-39938860D01*
X37857400Y-39938543D01*
X37864847Y-39933227D01*
X37865488Y-39934126D01*
X37873737Y-39929621D01*
X37887690Y-39916318D01*
X37903771Y-39913218D01*
X37918142Y-39905371D01*
X37937368Y-39906744D01*
X37956297Y-39903097D01*
X37962024Y-39905390D01*
X37949876Y-39872819D01*
X37962159Y-39809513D01*
X37990573Y-39751393D01*
X38000500Y-39683260D01*
X38000500Y-38441740D01*
X37999388Y-38434108D01*
X37990574Y-38373611D01*
X37990573Y-38373608D01*
X37990573Y-38373607D01*
X37975893Y-38343579D01*
X37963099Y-38317406D01*
X37960302Y-38305319D01*
X37955523Y-38297882D01*
X37950500Y-38262947D01*
X37950500Y-38199930D01*
X37970185Y-38132891D01*
X37976128Y-38124438D01*
X37980512Y-38118723D01*
X37980520Y-38118716D01*
X38059577Y-37981784D01*
X38100500Y-37829057D01*
X38100500Y-37670943D01*
X38059577Y-37518216D01*
X38059573Y-37518209D01*
X37980524Y-37381290D01*
X37980518Y-37381282D01*
X37868717Y-37269481D01*
X37868709Y-37269475D01*
X37731790Y-37190426D01*
X37731786Y-37190424D01*
X37731784Y-37190423D01*
X37579057Y-37149500D01*
X37420943Y-37149500D01*
X37268216Y-37190423D01*
X37268209Y-37190426D01*
X37131290Y-37269475D01*
X37131282Y-37269481D01*
X37019481Y-37381282D01*
X37019475Y-37381290D01*
X36940426Y-37518209D01*
X36940423Y-37518216D01*
X36899500Y-37670943D01*
X28501270Y-37670943D01*
X28449862Y-37619535D01*
X28449861Y-37619534D01*
X28445531Y-37615204D01*
X28445520Y-37615194D01*
X27949864Y-37119537D01*
X27949863Y-37119536D01*
X27949862Y-37119535D01*
X27912750Y-37098108D01*
X27875640Y-37076682D01*
X27834246Y-37065591D01*
X27792853Y-37054500D01*
X27792852Y-37054500D01*
X27110495Y-37054500D01*
X27043456Y-37034815D01*
X26997701Y-36982011D01*
X26987757Y-36912853D01*
X27016782Y-36849297D01*
X27022814Y-36842819D01*
X27085974Y-36779658D01*
X27085975Y-36779657D01*
X27085977Y-36779655D01*
X27200941Y-36607598D01*
X27280130Y-36416420D01*
X27320500Y-36213465D01*
X27320500Y-36006535D01*
X27280130Y-35803580D01*
X27200941Y-35612402D01*
X27085977Y-35440345D01*
X27085975Y-35440342D01*
X26939657Y-35294024D01*
X26853626Y-35236541D01*
X26767598Y-35179059D01*
X26576420Y-35099870D01*
X26576412Y-35099868D01*
X26373469Y-35059500D01*
X26373465Y-35059500D01*
X26166535Y-35059500D01*
X26166530Y-35059500D01*
X25963587Y-35099868D01*
X25963579Y-35099870D01*
X25772403Y-35179058D01*
X25600342Y-35294024D01*
X25454024Y-35440342D01*
X25339058Y-35612403D01*
X25259870Y-35803579D01*
X25259868Y-35803587D01*
X25219500Y-36006530D01*
X25219500Y-36213469D01*
X25259868Y-36416412D01*
X25259870Y-36416420D01*
X25339058Y-36607596D01*
X25454024Y-36779657D01*
X25517186Y-36842819D01*
X25550671Y-36904142D01*
X25545687Y-36973834D01*
X25503815Y-37029767D01*
X25438351Y-37054184D01*
X25429505Y-37054500D01*
X24957147Y-37054500D01*
X24874359Y-37076682D01*
X24800138Y-37119535D01*
X24800135Y-37119537D01*
X24267103Y-37652568D01*
X24205780Y-37686053D01*
X24136088Y-37681069D01*
X24131981Y-37679452D01*
X24036420Y-37639870D01*
X24036412Y-37639868D01*
X23833469Y-37599500D01*
X23833465Y-37599500D01*
X23626535Y-37599500D01*
X23626530Y-37599500D01*
X23423587Y-37639868D01*
X23423579Y-37639870D01*
X23232403Y-37719058D01*
X23060342Y-37834024D01*
X22914024Y-37980342D01*
X22799058Y-38152403D01*
X22719870Y-38343579D01*
X22719868Y-38343587D01*
X22679500Y-38546530D01*
X22679500Y-38753469D01*
X22719868Y-38956412D01*
X22719870Y-38956420D01*
X22799059Y-39147598D01*
X22845309Y-39216816D01*
X22914024Y-39319657D01*
X23060342Y-39465975D01*
X23060345Y-39465977D01*
X23232402Y-39580941D01*
X23423580Y-39660130D01*
X23626530Y-39700499D01*
X23626534Y-39700500D01*
X23626535Y-39700500D01*
X23833466Y-39700500D01*
X23833467Y-39700499D01*
X24036420Y-39660130D01*
X24227598Y-39580941D01*
X24399655Y-39465977D01*
X24545977Y-39319655D01*
X24660941Y-39147598D01*
X24740130Y-38956420D01*
X24780500Y-38753465D01*
X24780500Y-38546535D01*
X24740130Y-38343580D01*
X24700550Y-38248028D01*
X24693082Y-38178560D01*
X24724357Y-38116080D01*
X24727431Y-38112895D01*
X25098508Y-37741819D01*
X25125435Y-37727115D01*
X25151254Y-37710523D01*
X25157454Y-37709631D01*
X25159831Y-37708334D01*
X25186189Y-37705500D01*
X25429505Y-37705500D01*
X25496544Y-37725185D01*
X25542299Y-37777989D01*
X25552243Y-37847147D01*
X25523218Y-37910703D01*
X25517186Y-37917181D01*
X25454025Y-37980341D01*
X25454024Y-37980342D01*
X25339058Y-38152403D01*
X25259870Y-38343579D01*
X25259868Y-38343587D01*
X25219500Y-38546530D01*
X25219500Y-38753469D01*
X25259868Y-38956412D01*
X25259870Y-38956420D01*
X25339059Y-39147598D01*
X25385309Y-39216816D01*
X25454024Y-39319657D01*
X25517186Y-39382819D01*
X25550671Y-39444142D01*
X25545687Y-39513834D01*
X25503815Y-39569767D01*
X25438351Y-39594184D01*
X25429505Y-39594500D01*
X24957147Y-39594500D01*
X24874359Y-39616682D01*
X24800138Y-39659535D01*
X24800135Y-39659537D01*
X24267103Y-40192568D01*
X24205780Y-40226053D01*
X24136088Y-40221069D01*
X24131981Y-40219452D01*
X24036420Y-40179870D01*
X24036412Y-40179868D01*
X23833469Y-40139500D01*
X23833465Y-40139500D01*
X23626535Y-40139500D01*
X23626530Y-40139500D01*
X23423587Y-40179868D01*
X23423579Y-40179870D01*
X23232403Y-40259058D01*
X23060342Y-40374024D01*
X22914024Y-40520342D01*
X22799058Y-40692403D01*
X22719870Y-40883579D01*
X22719868Y-40883587D01*
X22679500Y-41086530D01*
X22679500Y-41293469D01*
X22719868Y-41496412D01*
X22719870Y-41496420D01*
X22787894Y-41660645D01*
X22799059Y-41687598D01*
X22815952Y-41712880D01*
X22914024Y-41859657D01*
X23060342Y-42005975D01*
X23060345Y-42005977D01*
X23232402Y-42120941D01*
X23423580Y-42200130D01*
X23580223Y-42231288D01*
X23626530Y-42240499D01*
X23626534Y-42240500D01*
X23626535Y-42240500D01*
X23833466Y-42240500D01*
X23833467Y-42240499D01*
X24036420Y-42200130D01*
X24227598Y-42120941D01*
X24399655Y-42005977D01*
X24545977Y-41859655D01*
X24660941Y-41687598D01*
X24740130Y-41496420D01*
X24780500Y-41293465D01*
X24780500Y-41086535D01*
X24740130Y-40883580D01*
X24700550Y-40788028D01*
X24693082Y-40718560D01*
X24724357Y-40656080D01*
X24727431Y-40652895D01*
X24905826Y-40474501D01*
X25098508Y-40281819D01*
X25125435Y-40267115D01*
X25151254Y-40250523D01*
X25157454Y-40249631D01*
X25159831Y-40248334D01*
X25186189Y-40245500D01*
X25359503Y-40245500D01*
X25426542Y-40265185D01*
X25472297Y-40317989D01*
X25482241Y-40387147D01*
X25453216Y-40450703D01*
X25447184Y-40457181D01*
X25430967Y-40473397D01*
X25329195Y-40613475D01*
X25250591Y-40767744D01*
X25197085Y-40932415D01*
X25195884Y-40939999D01*
X25195885Y-40940000D01*
X25836988Y-40940000D01*
X25804075Y-40997007D01*
X25770000Y-41124174D01*
X25770000Y-41255826D01*
X25804075Y-41382993D01*
X25836988Y-41440000D01*
X25195885Y-41440000D01*
X25197085Y-41447584D01*
X25250591Y-41612255D01*
X25329195Y-41766524D01*
X25430967Y-41906602D01*
X25447184Y-41922819D01*
X25480669Y-41984142D01*
X25475685Y-42053834D01*
X25433813Y-42109767D01*
X25368349Y-42134184D01*
X25359503Y-42134500D01*
X24957147Y-42134500D01*
X24874359Y-42156682D01*
X24800138Y-42199535D01*
X24800135Y-42199537D01*
X24267103Y-42732568D01*
X24205780Y-42766053D01*
X24136088Y-42761069D01*
X24131981Y-42759452D01*
X24036420Y-42719870D01*
X24036412Y-42719868D01*
X23833469Y-42679500D01*
X23833465Y-42679500D01*
X23626535Y-42679500D01*
X23626530Y-42679500D01*
X23423587Y-42719868D01*
X23423579Y-42719870D01*
X23232403Y-42799058D01*
X23060342Y-42914024D01*
X22914024Y-43060342D01*
X22799058Y-43232403D01*
X22719870Y-43423579D01*
X22719868Y-43423587D01*
X22679500Y-43626530D01*
X22679500Y-43833469D01*
X22719868Y-44036412D01*
X22719870Y-44036420D01*
X22753032Y-44116481D01*
X22799059Y-44227598D01*
X22799872Y-44228815D01*
X22914024Y-44399657D01*
X23060342Y-44545975D01*
X23060345Y-44545977D01*
X23232402Y-44660941D01*
X23423580Y-44740130D01*
X23626530Y-44780499D01*
X23626534Y-44780500D01*
X23626535Y-44780500D01*
X23833466Y-44780500D01*
X23833467Y-44780499D01*
X24036420Y-44740130D01*
X24227598Y-44660941D01*
X24399655Y-44545977D01*
X24545977Y-44399655D01*
X24660941Y-44227598D01*
X24740130Y-44036420D01*
X24780500Y-43833465D01*
X24780500Y-43626535D01*
X24740130Y-43423580D01*
X24700550Y-43328028D01*
X24693082Y-43258560D01*
X24724357Y-43196080D01*
X24727431Y-43192895D01*
X25098508Y-42821819D01*
X25125435Y-42807115D01*
X25151254Y-42790523D01*
X25157454Y-42789631D01*
X25159831Y-42788334D01*
X25186189Y-42785500D01*
X25429505Y-42785500D01*
X25496544Y-42805185D01*
X25542299Y-42857989D01*
X25552243Y-42927147D01*
X25523218Y-42990703D01*
X25517186Y-42997181D01*
X25454025Y-43060341D01*
X25454024Y-43060342D01*
X25339058Y-43232403D01*
X25259870Y-43423579D01*
X25259868Y-43423587D01*
X25219500Y-43626530D01*
X25219500Y-43833469D01*
X25259868Y-44036412D01*
X25259870Y-44036420D01*
X25293032Y-44116481D01*
X25339059Y-44227598D01*
X25339872Y-44228815D01*
X25454024Y-44399657D01*
X25600342Y-44545975D01*
X25600345Y-44545977D01*
X25772402Y-44660941D01*
X25963580Y-44740130D01*
X26166530Y-44780499D01*
X26166534Y-44780500D01*
X26166535Y-44780500D01*
X26373466Y-44780500D01*
X26373467Y-44780499D01*
X26576420Y-44740130D01*
X26767598Y-44660941D01*
X26939655Y-44545977D01*
X27085977Y-44399655D01*
X27200941Y-44227598D01*
X27240520Y-44132047D01*
X27253063Y-44116481D01*
X27261368Y-44098297D01*
X27274538Y-44089832D01*
X27284361Y-44077644D01*
X27303328Y-44071331D01*
X27320146Y-44060523D01*
X27347706Y-44056560D01*
X27350655Y-44055579D01*
X27355081Y-44055500D01*
X27563811Y-44055500D01*
X27630850Y-44075185D01*
X27651492Y-44091819D01*
X27888181Y-44328507D01*
X27921666Y-44389830D01*
X27924500Y-44416188D01*
X27924500Y-45820500D01*
X27904815Y-45887539D01*
X27852011Y-45933294D01*
X27800500Y-45944500D01*
X27355081Y-45944500D01*
X27288042Y-45924815D01*
X27242287Y-45872011D01*
X27240520Y-45867953D01*
X27200942Y-45772403D01*
X27085975Y-45600342D01*
X26939657Y-45454024D01*
X26774894Y-45343934D01*
X26767598Y-45339059D01*
X26745689Y-45329984D01*
X26576420Y-45259870D01*
X26576412Y-45259868D01*
X26373469Y-45219500D01*
X26373465Y-45219500D01*
X26166535Y-45219500D01*
X26166530Y-45219500D01*
X25963587Y-45259868D01*
X25963579Y-45259870D01*
X25772403Y-45339058D01*
X25600342Y-45454024D01*
X25454024Y-45600342D01*
X25339058Y-45772403D01*
X25259870Y-45963579D01*
X25259868Y-45963587D01*
X25219500Y-46166530D01*
X25219500Y-46373469D01*
X25259868Y-46576412D01*
X25259870Y-46576420D01*
X25336207Y-46760714D01*
X25339059Y-46767598D01*
X25362017Y-46801957D01*
X25454024Y-46939657D01*
X25549036Y-47034669D01*
X25582521Y-47095992D01*
X25577537Y-47165684D01*
X25535665Y-47221617D01*
X25516386Y-47232595D01*
X25516400Y-47232618D01*
X25435141Y-47279532D01*
X25435136Y-47279536D01*
X24739537Y-47975135D01*
X24739535Y-47975138D01*
X24692618Y-48056400D01*
X24691371Y-48055680D01*
X24653073Y-48103209D01*
X24586780Y-48125276D01*
X24519080Y-48107999D01*
X24494669Y-48089036D01*
X24399657Y-47994024D01*
X24285221Y-47917561D01*
X24227598Y-47879059D01*
X24208586Y-47871184D01*
X24036420Y-47799870D01*
X24036412Y-47799868D01*
X23833469Y-47759500D01*
X23833465Y-47759500D01*
X23626535Y-47759500D01*
X23626530Y-47759500D01*
X23423587Y-47799868D01*
X23423579Y-47799870D01*
X23232403Y-47879058D01*
X23060342Y-47994024D01*
X22914024Y-48140342D01*
X22799058Y-48312403D01*
X22719870Y-48503579D01*
X22719868Y-48503587D01*
X22679500Y-48706530D01*
X22679500Y-48913469D01*
X22719868Y-49116412D01*
X22719870Y-49116420D01*
X22796772Y-49302078D01*
X22799059Y-49307598D01*
X22831256Y-49355784D01*
X22914024Y-49479657D01*
X23060342Y-49625975D01*
X23060345Y-49625977D01*
X23232402Y-49740941D01*
X23423580Y-49820130D01*
X23625459Y-49860286D01*
X23626530Y-49860499D01*
X23626534Y-49860500D01*
X23626535Y-49860500D01*
X23833466Y-49860500D01*
X23833467Y-49860499D01*
X24036420Y-49820130D01*
X24227598Y-49740941D01*
X24399655Y-49625977D01*
X24427109Y-49598523D01*
X24462819Y-49562814D01*
X24524142Y-49529329D01*
X24593834Y-49534313D01*
X24649767Y-49576185D01*
X24674184Y-49641649D01*
X24674500Y-49650495D01*
X24674500Y-50122852D01*
X24696682Y-50205640D01*
X24718108Y-50242750D01*
X24739535Y-50279862D01*
X24739537Y-50279864D01*
X25272568Y-50812895D01*
X25306053Y-50874218D01*
X25301069Y-50943910D01*
X25299448Y-50948028D01*
X25259871Y-51043575D01*
X25259868Y-51043587D01*
X25219500Y-51246530D01*
X25219500Y-51453469D01*
X25259868Y-51656412D01*
X25259870Y-51656420D01*
X25297298Y-51746780D01*
X25339059Y-51847598D01*
X25387597Y-51920241D01*
X25454024Y-52019657D01*
X25600342Y-52165975D01*
X25600345Y-52165977D01*
X25772402Y-52280941D01*
X25963580Y-52360130D01*
X26145596Y-52396335D01*
X26166530Y-52400499D01*
X26166534Y-52400500D01*
X26166535Y-52400500D01*
X26373466Y-52400500D01*
X26373467Y-52400499D01*
X26576420Y-52360130D01*
X26767598Y-52280941D01*
X26939655Y-52165977D01*
X27085977Y-52019655D01*
X27200941Y-51847598D01*
X27280130Y-51656420D01*
X27320500Y-51453465D01*
X27320500Y-51246535D01*
X27280130Y-51043580D01*
X27200941Y-50852402D01*
X27085977Y-50680345D01*
X27085975Y-50680342D01*
X26939657Y-50534024D01*
X26797623Y-50439121D01*
X26767598Y-50419059D01*
X26748516Y-50411155D01*
X26576420Y-50339870D01*
X26576412Y-50339868D01*
X26373469Y-50299500D01*
X26373465Y-50299500D01*
X26166535Y-50299500D01*
X26166530Y-50299500D01*
X25963587Y-50339868D01*
X25963575Y-50339871D01*
X25868028Y-50379448D01*
X25798559Y-50386917D01*
X25736080Y-50355641D01*
X25732895Y-50352568D01*
X25361819Y-49981492D01*
X25347115Y-49954564D01*
X25330523Y-49928746D01*
X25329631Y-49922545D01*
X25328334Y-49920169D01*
X25325500Y-49893811D01*
X25325500Y-49650495D01*
X25345185Y-49583456D01*
X25397989Y-49537701D01*
X25467147Y-49527757D01*
X25530703Y-49556782D01*
X25537181Y-49562814D01*
X25600342Y-49625975D01*
X25600345Y-49625977D01*
X25772402Y-49740941D01*
X25963580Y-49820130D01*
X26165459Y-49860286D01*
X26166530Y-49860499D01*
X26166534Y-49860500D01*
X26166535Y-49860500D01*
X26373466Y-49860500D01*
X26373467Y-49860499D01*
X26576420Y-49820130D01*
X26767598Y-49740941D01*
X26939655Y-49625977D01*
X27085977Y-49479655D01*
X27200941Y-49307598D01*
X27203228Y-49302078D01*
X27240520Y-49212047D01*
X27253063Y-49196481D01*
X27261368Y-49178297D01*
X27274538Y-49169832D01*
X27284361Y-49157644D01*
X27303328Y-49151331D01*
X27320146Y-49140523D01*
X27347706Y-49136560D01*
X27350655Y-49135579D01*
X27355081Y-49135500D01*
X27563811Y-49135500D01*
X27630850Y-49155185D01*
X27651492Y-49171819D01*
X27888181Y-49408507D01*
X27921666Y-49469830D01*
X27924500Y-49496188D01*
X27924500Y-53207147D01*
X27924500Y-53292853D01*
X27942661Y-53360632D01*
X27946683Y-53375642D01*
X27946684Y-53375644D01*
X27948334Y-53378502D01*
X27948993Y-53381219D01*
X27949794Y-53383153D01*
X27949492Y-53383277D01*
X27964805Y-53446402D01*
X27941952Y-53512429D01*
X27887030Y-53555618D01*
X27840946Y-53564500D01*
X27444500Y-53564500D01*
X27377461Y-53544815D01*
X27331706Y-53492011D01*
X27320500Y-53440500D01*
X27320500Y-53020249D01*
X27320499Y-53020247D01*
X27308868Y-52961770D01*
X27308867Y-52961769D01*
X27264552Y-52895447D01*
X27198230Y-52851132D01*
X27198229Y-52851131D01*
X27139752Y-52839500D01*
X27139748Y-52839500D01*
X25400252Y-52839500D01*
X25400247Y-52839500D01*
X25341770Y-52851131D01*
X25341769Y-52851132D01*
X25275447Y-52895447D01*
X25231132Y-52961769D01*
X25231131Y-52961770D01*
X25219500Y-53020247D01*
X25219500Y-54619811D01*
X25199815Y-54686850D01*
X25147011Y-54732605D01*
X25077853Y-54742549D01*
X25014297Y-54713524D01*
X25007819Y-54707492D01*
X24727431Y-54427104D01*
X24693946Y-54365781D01*
X24698930Y-54296089D01*
X24700551Y-54291970D01*
X24701022Y-54290833D01*
X24740130Y-54196420D01*
X24780500Y-53993465D01*
X24780500Y-53786535D01*
X24740130Y-53583580D01*
X24660941Y-53392402D01*
X24545977Y-53220345D01*
X24545975Y-53220342D01*
X24399657Y-53074024D01*
X24304689Y-53010569D01*
X24227598Y-52959059D01*
X24188070Y-52942686D01*
X24036420Y-52879870D01*
X24036412Y-52879868D01*
X23833469Y-52839500D01*
X23833465Y-52839500D01*
X23626535Y-52839500D01*
X23626530Y-52839500D01*
X23423587Y-52879868D01*
X23423579Y-52879870D01*
X23232403Y-52959058D01*
X23060342Y-53074024D01*
X22914024Y-53220342D01*
X22799058Y-53392403D01*
X22719870Y-53583579D01*
X22719868Y-53583587D01*
X22679500Y-53786530D01*
X22679500Y-53993469D01*
X22719868Y-54196412D01*
X22719870Y-54196420D01*
X22793575Y-54374360D01*
X22799059Y-54387598D01*
X22823716Y-54424500D01*
X22914024Y-54559657D01*
X23060342Y-54705975D01*
X23060345Y-54705977D01*
X23232402Y-54820941D01*
X23423580Y-54900130D01*
X23568052Y-54928867D01*
X23626530Y-54940499D01*
X23626534Y-54940500D01*
X23626535Y-54940500D01*
X23833466Y-54940500D01*
X23833467Y-54940499D01*
X24036420Y-54900130D01*
X24131970Y-54860550D01*
X24201439Y-54853082D01*
X24263918Y-54884357D01*
X24267104Y-54887431D01*
X24824441Y-55444767D01*
X25374533Y-55994859D01*
X25374535Y-55994862D01*
X25435138Y-56055465D01*
X25459389Y-56069466D01*
X25509361Y-56098318D01*
X25592147Y-56120500D01*
X25677853Y-56120500D01*
X29108811Y-56120500D01*
X29175850Y-56140185D01*
X29196492Y-56156819D01*
X34550138Y-61510465D01*
X34624361Y-61553318D01*
X34707147Y-61575500D01*
X34792853Y-61575500D01*
X38063811Y-61575500D01*
X38130850Y-61595185D01*
X38151492Y-61611819D01*
X38489533Y-61949859D01*
X38489535Y-61949862D01*
X38550138Y-62010465D01*
X38587250Y-62031891D01*
X38596370Y-62037157D01*
X38596373Y-62037159D01*
X38615709Y-62048322D01*
X38624361Y-62053318D01*
X38707147Y-62075500D01*
X38707149Y-62075500D01*
X47042851Y-62075500D01*
X47042853Y-62075500D01*
X47125639Y-62053318D01*
X47199862Y-62010465D01*
X47598507Y-61611818D01*
X47659830Y-61578334D01*
X47686188Y-61575500D01*
X49792851Y-61575500D01*
X49792853Y-61575500D01*
X49875639Y-61553318D01*
X49949862Y-61510465D01*
X50449859Y-61010466D01*
X50449862Y-61010465D01*
X50510465Y-60949862D01*
X50538964Y-60900500D01*
X50553318Y-60875639D01*
X50575500Y-60792853D01*
X50575500Y-60707147D01*
X50575500Y-60433676D01*
X50595185Y-60366637D01*
X50611819Y-60345995D01*
X50650500Y-60307314D01*
X50716392Y-60193186D01*
X50750500Y-60065892D01*
X50750500Y-59934108D01*
X50716392Y-59806814D01*
X50690229Y-59761499D01*
X50673757Y-59693601D01*
X50696609Y-59627574D01*
X50751530Y-59584383D01*
X50784974Y-59577936D01*
X50784793Y-59576561D01*
X50792844Y-59575500D01*
X50792853Y-59575500D01*
X50875639Y-59553318D01*
X50949862Y-59510465D01*
X51185470Y-59274856D01*
X51246791Y-59241373D01*
X51316482Y-59246357D01*
X51372416Y-59288228D01*
X51410670Y-59339329D01*
X51520015Y-59421184D01*
X51520016Y-59421185D01*
X51647991Y-59468917D01*
X51647994Y-59468918D01*
X51704555Y-59474999D01*
X51749999Y-59474999D01*
X52250000Y-59474999D01*
X52295433Y-59474999D01*
X52295439Y-59474998D01*
X52352007Y-59468918D01*
X52479981Y-59421186D01*
X52479984Y-59421184D01*
X52589329Y-59339329D01*
X52671184Y-59229984D01*
X52671185Y-59229983D01*
X52718916Y-59102010D01*
X52724999Y-59045428D01*
X52725000Y-59045427D01*
X52725000Y-59025000D01*
X52250000Y-59025000D01*
X52250000Y-59474999D01*
X51749999Y-59474999D01*
X51750000Y-59474998D01*
X51750000Y-58899000D01*
X51769685Y-58831961D01*
X51822489Y-58786206D01*
X51874000Y-58775000D01*
X52000000Y-58775000D01*
X52000000Y-58649000D01*
X52019685Y-58581961D01*
X52072489Y-58536206D01*
X52124000Y-58525000D01*
X52724999Y-58525000D01*
X52724999Y-58504566D01*
X52724998Y-58504560D01*
X52718918Y-58447992D01*
X52671186Y-58320018D01*
X52671184Y-58320015D01*
X52589329Y-58210670D01*
X52479984Y-58128815D01*
X52479982Y-58128814D01*
X52382428Y-58092428D01*
X52326495Y-58050556D01*
X52302078Y-57985092D01*
X52316930Y-57916819D01*
X52366335Y-57867414D01*
X52377280Y-57862696D01*
X52383121Y-57859719D01*
X52383126Y-57859719D01*
X52503220Y-57798528D01*
X52598528Y-57703220D01*
X52598529Y-57703217D01*
X52599134Y-57702613D01*
X52660457Y-57669128D01*
X52730149Y-57674112D01*
X52748813Y-57682905D01*
X52806814Y-57716392D01*
X52934108Y-57750500D01*
X52934110Y-57750500D01*
X53065890Y-57750500D01*
X53065892Y-57750500D01*
X53193186Y-57716392D01*
X53307314Y-57650500D01*
X53400500Y-57557314D01*
X53466392Y-57443186D01*
X53500500Y-57315892D01*
X53500500Y-57184108D01*
X53466392Y-57056814D01*
X53400500Y-56942686D01*
X53307314Y-56849500D01*
X53226466Y-56802822D01*
X53193187Y-56783608D01*
X53129539Y-56766554D01*
X53065892Y-56749500D01*
X52934108Y-56749500D01*
X52806811Y-56783608D01*
X52773533Y-56802822D01*
X52705632Y-56819293D01*
X52639606Y-56796441D01*
X52601050Y-56751730D01*
X52598528Y-56746780D01*
X52598524Y-56746776D01*
X52598523Y-56746774D01*
X52503225Y-56651476D01*
X52503222Y-56651474D01*
X52503220Y-56651472D01*
X52393203Y-56595415D01*
X52387012Y-56589567D01*
X52378927Y-56586890D01*
X52361994Y-56565939D01*
X52342409Y-56547442D01*
X52339216Y-56537756D01*
X52335008Y-56532550D01*
X52331180Y-56513382D01*
X52326230Y-56498365D01*
X52325500Y-56491666D01*
X52325500Y-56457147D01*
X52321625Y-56442686D01*
X52303318Y-56374361D01*
X52281891Y-56337250D01*
X52278195Y-56330849D01*
X52260467Y-56300141D01*
X52260466Y-56300140D01*
X52260465Y-56300138D01*
X52199862Y-56239535D01*
X52199861Y-56239534D01*
X52195531Y-56235204D01*
X52195520Y-56235194D01*
X51861819Y-55901492D01*
X51828334Y-55840169D01*
X51825500Y-55813811D01*
X51825500Y-54457149D01*
X51825500Y-54457147D01*
X51803318Y-54374362D01*
X51803318Y-54374361D01*
X51760465Y-54300138D01*
X51092906Y-53632579D01*
X52966693Y-53632579D01*
X53069024Y-53660000D01*
X53176975Y-53660000D01*
X53279305Y-53632579D01*
X53279306Y-53632579D01*
X53543692Y-53632579D01*
X53646024Y-53660000D01*
X53753975Y-53660000D01*
X53856305Y-53632579D01*
X53856306Y-53632579D01*
X54120692Y-53632579D01*
X54223024Y-53660000D01*
X54330975Y-53660000D01*
X54433306Y-53632579D01*
X54277001Y-53476274D01*
X54120692Y-53632579D01*
X53856306Y-53632579D01*
X53700001Y-53476274D01*
X53543692Y-53632579D01*
X53279306Y-53632579D01*
X53123001Y-53476274D01*
X52966693Y-53632579D01*
X51092906Y-53632579D01*
X50942508Y-53482181D01*
X50909023Y-53420858D01*
X50914007Y-53351166D01*
X50955879Y-53295233D01*
X51021343Y-53270816D01*
X51030189Y-53270500D01*
X51364317Y-53270500D01*
X51380792Y-53268331D01*
X51413173Y-53264068D01*
X51520404Y-53214065D01*
X51604065Y-53130404D01*
X51604065Y-53130403D01*
X51611736Y-53122733D01*
X51614564Y-53125561D01*
X51652977Y-53094843D01*
X51722474Y-53087635D01*
X51784835Y-53119143D01*
X51788093Y-53122903D01*
X51788264Y-53122733D01*
X51795935Y-53130404D01*
X51879596Y-53214065D01*
X51986827Y-53264068D01*
X52035683Y-53270500D01*
X52035684Y-53270500D01*
X52384317Y-53270500D01*
X52394087Y-53269213D01*
X52433173Y-53264068D01*
X52538597Y-53214907D01*
X52607671Y-53204416D01*
X52671455Y-53232935D01*
X52709695Y-53291411D01*
X52710722Y-53296173D01*
X52710897Y-53296127D01*
X52740419Y-53406304D01*
X52999908Y-53146818D01*
X53022926Y-53134249D01*
X53043864Y-53118465D01*
X53055824Y-53116286D01*
X53061231Y-53113334D01*
X53078326Y-53110846D01*
X53082945Y-53110500D01*
X53170461Y-53110500D01*
X53204423Y-53101400D01*
X53216011Y-53100532D01*
X53239261Y-53105507D01*
X53263027Y-53106073D01*
X53272796Y-53112684D01*
X53284334Y-53115154D01*
X53301201Y-53131908D01*
X53320891Y-53145234D01*
X53325535Y-53156079D01*
X53333905Y-53164393D01*
X53339036Y-53187604D01*
X53348397Y-53209462D01*
X53349274Y-53224186D01*
X53349274Y-53250000D01*
X53411500Y-53312226D01*
X53473726Y-53250000D01*
X53444196Y-53220470D01*
X53434519Y-53217629D01*
X53404533Y-53211106D01*
X53399517Y-53207351D01*
X53396921Y-53206589D01*
X53376279Y-53189955D01*
X53372255Y-53185931D01*
X53338770Y-53124608D01*
X53343754Y-53054916D01*
X53372255Y-53010569D01*
X53381381Y-53001443D01*
X53677717Y-53001443D01*
X53700000Y-53023726D01*
X53722282Y-53001443D01*
X53719475Y-52995749D01*
X53700000Y-52976274D01*
X53680523Y-52995751D01*
X53677717Y-53001443D01*
X53381381Y-53001443D01*
X53387075Y-52995749D01*
X53411472Y-52971352D01*
X53458933Y-52889148D01*
X53483500Y-52797461D01*
X53483500Y-52702539D01*
X53458933Y-52610852D01*
X53458932Y-52610850D01*
X53458580Y-52609536D01*
X53460243Y-52539686D01*
X53499406Y-52481824D01*
X53563634Y-52454320D01*
X53578355Y-52453443D01*
X53821644Y-52453443D01*
X53842889Y-52459681D01*
X53864976Y-52461261D01*
X53875759Y-52469333D01*
X53888683Y-52473128D01*
X53903181Y-52489860D01*
X53920910Y-52503131D01*
X53925618Y-52515753D01*
X53934438Y-52525932D01*
X53937589Y-52547847D01*
X53945328Y-52568595D01*
X53943430Y-52588470D01*
X53944382Y-52595090D01*
X53942379Y-52599474D01*
X53941419Y-52609535D01*
X53916500Y-52702537D01*
X53916500Y-52797462D01*
X53938261Y-52878679D01*
X53938262Y-52878682D01*
X53941067Y-52889148D01*
X53988528Y-52971352D01*
X53988530Y-52971354D01*
X54027745Y-53010569D01*
X54032083Y-53018514D01*
X54039331Y-53023940D01*
X54048565Y-53048699D01*
X54061230Y-53071892D01*
X54060584Y-53080921D01*
X54063748Y-53089404D01*
X54058131Y-53115224D01*
X54056246Y-53141584D01*
X54050427Y-53150637D01*
X54048896Y-53157677D01*
X54027745Y-53185931D01*
X54023721Y-53189955D01*
X53962398Y-53223440D01*
X53951681Y-53224592D01*
X53926274Y-53250000D01*
X53988500Y-53312226D01*
X54050726Y-53250000D01*
X54050726Y-53224186D01*
X54070411Y-53157147D01*
X54123215Y-53111392D01*
X54183989Y-53100532D01*
X54195576Y-53101400D01*
X54229539Y-53110500D01*
X54317056Y-53110500D01*
X54321675Y-53110846D01*
X54350209Y-53121598D01*
X54379451Y-53130185D01*
X54385121Y-53134754D01*
X54387057Y-53135484D01*
X54388595Y-53137554D01*
X54400093Y-53146819D01*
X54700157Y-53446884D01*
X54733642Y-53508207D01*
X54735415Y-53550749D01*
X54729500Y-53595681D01*
X54729500Y-53944316D01*
X54735931Y-53993171D01*
X54735932Y-53993173D01*
X54785935Y-54100404D01*
X54869596Y-54184065D01*
X54869598Y-54184066D01*
X54871623Y-54185484D01*
X54874044Y-54188513D01*
X54876501Y-54190970D01*
X54881703Y-54193346D01*
X54897272Y-54217572D01*
X54915248Y-54240061D01*
X54916803Y-54247964D01*
X54919477Y-54252124D01*
X54924500Y-54287059D01*
X54924500Y-54290833D01*
X54924499Y-54290851D01*
X54924499Y-54298446D01*
X54924499Y-54350000D01*
X54924499Y-54597755D01*
X54944318Y-54900129D01*
X54956907Y-55092210D01*
X55021583Y-55583474D01*
X55021585Y-55583485D01*
X55118250Y-56069449D01*
X55118260Y-56069489D01*
X55246502Y-56548097D01*
X55405777Y-57017303D01*
X55405781Y-57017314D01*
X55595403Y-57475101D01*
X55814559Y-57919508D01*
X56038460Y-58307314D01*
X56062316Y-58348633D01*
X56141000Y-58466391D01*
X56337607Y-58760635D01*
X56639249Y-59153742D01*
X56639254Y-59153747D01*
X56639255Y-59153749D01*
X56965968Y-59526294D01*
X57110853Y-59671179D01*
X57110855Y-59671182D01*
X57132359Y-59692686D01*
X57133274Y-59693601D01*
X57146952Y-59707279D01*
X57150027Y-59710465D01*
X57481972Y-60067001D01*
X57487768Y-60073691D01*
X57792032Y-60451259D01*
X57797337Y-60458345D01*
X58029589Y-60792852D01*
X58073900Y-60856671D01*
X58078683Y-60864113D01*
X58165518Y-61010466D01*
X58326128Y-61281160D01*
X58330370Y-61288929D01*
X58547426Y-61722553D01*
X58551103Y-61730604D01*
X58736678Y-62178621D01*
X58739771Y-62186915D01*
X58892905Y-62647011D01*
X58895399Y-62655504D01*
X59015323Y-63125358D01*
X59017205Y-63134007D01*
X59103305Y-63611226D01*
X59104565Y-63619988D01*
X59156401Y-64102140D01*
X59157032Y-64110969D01*
X59169442Y-64458468D01*
X59152163Y-64526168D01*
X59101025Y-64573778D01*
X59086478Y-64579935D01*
X59063801Y-64587870D01*
X59037118Y-64597207D01*
X59037117Y-64597207D01*
X59037116Y-64597208D01*
X58927850Y-64677850D01*
X58847207Y-64787117D01*
X58847206Y-64787119D01*
X58802353Y-64915298D01*
X58802353Y-64915300D01*
X58799500Y-64945730D01*
X58799500Y-65451622D01*
X58779815Y-65518661D01*
X58727011Y-65564416D01*
X58657853Y-65574360D01*
X58601189Y-65550889D01*
X58542089Y-65506647D01*
X58542086Y-65506645D01*
X58407379Y-65456403D01*
X58407372Y-65456401D01*
X58347844Y-65450000D01*
X58275000Y-65450000D01*
X58275000Y-68150000D01*
X58347828Y-68150000D01*
X58347844Y-68149999D01*
X58407372Y-68143598D01*
X58407379Y-68143596D01*
X58542086Y-68093354D01*
X58542093Y-68093350D01*
X58657185Y-68007191D01*
X58657194Y-68007182D01*
X58700235Y-67949689D01*
X58756169Y-67907818D01*
X58799501Y-67900000D01*
X60200499Y-67900000D01*
X60267538Y-67919685D01*
X60299765Y-67949689D01*
X60342805Y-68007182D01*
X60342814Y-68007191D01*
X60457906Y-68093350D01*
X60457913Y-68093354D01*
X60592620Y-68143596D01*
X60592627Y-68143598D01*
X60652155Y-68149999D01*
X60652172Y-68150000D01*
X60725000Y-68150000D01*
X61225000Y-68150000D01*
X61297828Y-68150000D01*
X61297844Y-68149999D01*
X61357372Y-68143598D01*
X61357379Y-68143596D01*
X61492086Y-68093354D01*
X61492093Y-68093350D01*
X61607187Y-68007190D01*
X61607190Y-68007187D01*
X61693350Y-67892093D01*
X61693354Y-67892086D01*
X61743596Y-67757379D01*
X61743598Y-67757372D01*
X61749999Y-67697844D01*
X61750000Y-67697827D01*
X61750000Y-67050000D01*
X61225000Y-67050000D01*
X61225000Y-68150000D01*
X60725000Y-68150000D01*
X60725000Y-66550000D01*
X61225000Y-66550000D01*
X61750000Y-66550000D01*
X61750000Y-65902172D01*
X61749999Y-65902155D01*
X61743598Y-65842627D01*
X61743596Y-65842620D01*
X61693354Y-65707913D01*
X61693350Y-65707906D01*
X61607190Y-65592812D01*
X61607187Y-65592809D01*
X61492093Y-65506649D01*
X61492086Y-65506645D01*
X61357379Y-65456403D01*
X61357372Y-65456401D01*
X61297844Y-65450000D01*
X61225000Y-65450000D01*
X61225000Y-66550000D01*
X60725000Y-66550000D01*
X60725000Y-65450000D01*
X60652155Y-65450000D01*
X60592627Y-65456401D01*
X60592620Y-65456403D01*
X60457913Y-65506645D01*
X60457910Y-65506647D01*
X60398811Y-65550889D01*
X60333346Y-65575306D01*
X60265073Y-65560454D01*
X60215668Y-65511049D01*
X60200500Y-65451622D01*
X60200500Y-64945730D01*
X60197646Y-64915300D01*
X60197646Y-64915298D01*
X60157126Y-64799502D01*
X60152793Y-64787118D01*
X60072150Y-64677850D01*
X59962882Y-64597207D01*
X59962880Y-64597206D01*
X59908543Y-64578193D01*
X59851767Y-64537472D01*
X59826020Y-64472519D01*
X59825498Y-64461152D01*
X59825498Y-64352256D01*
X59825498Y-64352245D01*
X59793090Y-63857795D01*
X59728413Y-63366524D01*
X59712107Y-63284548D01*
X59631749Y-62880557D01*
X59631745Y-62880539D01*
X59503495Y-62401906D01*
X59503490Y-62401889D01*
X59344224Y-61932705D01*
X59344216Y-61932685D01*
X59258818Y-61726516D01*
X59154596Y-61474902D01*
X58935437Y-61030492D01*
X58935437Y-61030491D01*
X58687684Y-60601370D01*
X58412391Y-60189363D01*
X58110749Y-59796256D01*
X58037577Y-59712819D01*
X57784032Y-59423706D01*
X57639145Y-59278819D01*
X57639144Y-59278817D01*
X57603042Y-59242715D01*
X57599970Y-59239532D01*
X57268026Y-58882999D01*
X57262235Y-58876316D01*
X57261693Y-58875644D01*
X57079053Y-58649000D01*
X56957959Y-58498731D01*
X56952655Y-58491645D01*
X56676101Y-58093332D01*
X56671315Y-58085886D01*
X56426998Y-57674112D01*
X56423866Y-57668834D01*
X56419627Y-57661069D01*
X56202568Y-57227440D01*
X56198891Y-57219389D01*
X56013319Y-56771378D01*
X56010226Y-56763084D01*
X56005705Y-56749500D01*
X55857089Y-56302982D01*
X55854597Y-56294495D01*
X55734668Y-55824621D01*
X55732795Y-55816013D01*
X55646687Y-55338750D01*
X55645434Y-55330034D01*
X55593593Y-54847841D01*
X55592965Y-54839048D01*
X55575579Y-54352238D01*
X55575500Y-54347812D01*
X55575500Y-54287059D01*
X55595185Y-54220020D01*
X55628377Y-54185484D01*
X55630398Y-54184067D01*
X55630404Y-54184065D01*
X55714065Y-54100404D01*
X55751558Y-54020000D01*
X57692676Y-54020000D01*
X57747336Y-54131810D01*
X57838189Y-54222663D01*
X57953625Y-54279096D01*
X58000000Y-54285852D01*
X58500000Y-54285852D01*
X58546370Y-54279097D01*
X58546372Y-54279096D01*
X58661810Y-54222663D01*
X58752663Y-54131810D01*
X58807324Y-54020000D01*
X60692676Y-54020000D01*
X60747336Y-54131810D01*
X60838189Y-54222663D01*
X60953625Y-54279096D01*
X61000000Y-54285852D01*
X61500000Y-54285852D01*
X61546370Y-54279097D01*
X61546372Y-54279096D01*
X61661810Y-54222663D01*
X61752663Y-54131810D01*
X61807324Y-54020000D01*
X61500000Y-54020000D01*
X61500000Y-54285852D01*
X61000000Y-54285852D01*
X61000000Y-54020000D01*
X60692676Y-54020000D01*
X58807324Y-54020000D01*
X58500000Y-54020000D01*
X58500000Y-54285852D01*
X58000000Y-54285852D01*
X58000000Y-54020000D01*
X57692676Y-54020000D01*
X55751558Y-54020000D01*
X55764068Y-53993173D01*
X55770500Y-53944316D01*
X55770500Y-53595684D01*
X55768907Y-53583587D01*
X55764068Y-53546828D01*
X55764068Y-53546827D01*
X55714065Y-53439596D01*
X55630404Y-53355935D01*
X55622733Y-53348264D01*
X55625561Y-53345435D01*
X55594843Y-53307023D01*
X55587635Y-53237526D01*
X55619143Y-53175165D01*
X55622211Y-53172009D01*
X55630040Y-53164234D01*
X55630404Y-53164065D01*
X55657488Y-53136980D01*
X55657630Y-53136840D01*
X55688233Y-53120269D01*
X55718642Y-53103665D01*
X55718869Y-53103681D01*
X55719071Y-53103572D01*
X55753777Y-53106177D01*
X55788334Y-53108649D01*
X55788550Y-53108788D01*
X55788745Y-53108803D01*
X55789733Y-53109548D01*
X55832681Y-53137150D01*
X55909596Y-53214065D01*
X56016827Y-53264068D01*
X56065683Y-53270500D01*
X56065684Y-53270500D01*
X56414317Y-53270500D01*
X56430792Y-53268331D01*
X56463173Y-53264068D01*
X56570404Y-53214065D01*
X56654065Y-53130404D01*
X56654065Y-53130403D01*
X56661736Y-53122733D01*
X56664564Y-53125561D01*
X56702977Y-53094843D01*
X56772474Y-53087635D01*
X56834835Y-53119143D01*
X56838093Y-53122903D01*
X56838264Y-53122733D01*
X56845935Y-53130404D01*
X56929596Y-53214065D01*
X57036827Y-53264068D01*
X57085683Y-53270500D01*
X57085684Y-53270500D01*
X57434317Y-53270500D01*
X57450792Y-53268331D01*
X57483173Y-53264068D01*
X57590404Y-53214065D01*
X57667319Y-53137150D01*
X57675264Y-53132811D01*
X57680690Y-53125564D01*
X57705449Y-53116329D01*
X57728642Y-53103665D01*
X57737671Y-53104310D01*
X57746154Y-53101147D01*
X57771974Y-53106763D01*
X57798334Y-53108649D01*
X57807387Y-53114467D01*
X57814427Y-53115999D01*
X57842681Y-53137150D01*
X57842847Y-53137316D01*
X57876332Y-53198639D01*
X57871348Y-53268331D01*
X57842848Y-53312678D01*
X57747335Y-53408191D01*
X57692676Y-53520000D01*
X58807323Y-53520000D01*
X58752663Y-53408189D01*
X58657152Y-53312678D01*
X58652724Y-53304569D01*
X58645343Y-53299009D01*
X58636244Y-53274387D01*
X58623667Y-53251355D01*
X58624326Y-53242139D01*
X58621123Y-53233472D01*
X58626779Y-53207843D01*
X58628651Y-53181663D01*
X58634588Y-53172454D01*
X58636180Y-53165244D01*
X58657411Y-53137057D01*
X58657582Y-53136887D01*
X58719006Y-53103586D01*
X58788682Y-53108780D01*
X58832681Y-53137150D01*
X58909596Y-53214065D01*
X59016827Y-53264068D01*
X59065683Y-53270500D01*
X59065684Y-53270500D01*
X59414317Y-53270500D01*
X59430792Y-53268331D01*
X59463173Y-53264068D01*
X59570404Y-53214065D01*
X59654065Y-53130404D01*
X59654065Y-53130403D01*
X59661736Y-53122733D01*
X59664564Y-53125561D01*
X59702977Y-53094843D01*
X59772474Y-53087635D01*
X59834835Y-53119143D01*
X59838093Y-53122903D01*
X59838264Y-53122733D01*
X59845935Y-53130404D01*
X59929596Y-53214065D01*
X60036827Y-53264068D01*
X60085683Y-53270500D01*
X60085684Y-53270500D01*
X60434317Y-53270500D01*
X60450792Y-53268331D01*
X60483173Y-53264068D01*
X60590404Y-53214065D01*
X60667319Y-53137150D01*
X60675264Y-53132811D01*
X60680690Y-53125564D01*
X60705449Y-53116329D01*
X60728642Y-53103665D01*
X60737671Y-53104310D01*
X60746154Y-53101147D01*
X60771974Y-53106763D01*
X60798334Y-53108649D01*
X60807387Y-53114467D01*
X60814427Y-53115999D01*
X60842681Y-53137150D01*
X60842847Y-53137316D01*
X60876332Y-53198639D01*
X60871348Y-53268331D01*
X60842848Y-53312678D01*
X60747335Y-53408191D01*
X60692676Y-53520000D01*
X61807323Y-53520000D01*
X61752663Y-53408189D01*
X61657152Y-53312678D01*
X61652809Y-53304725D01*
X61645555Y-53299293D01*
X61636326Y-53274539D01*
X61623667Y-53251355D01*
X61624313Y-53242315D01*
X61621148Y-53233825D01*
X61626766Y-53208013D01*
X61628651Y-53181663D01*
X61634474Y-53172602D01*
X61636009Y-53165554D01*
X61657158Y-53137310D01*
X61660614Y-53133854D01*
X61721940Y-53100380D01*
X61748281Y-53097550D01*
X62876000Y-53097550D01*
X62943039Y-53117235D01*
X62988794Y-53170039D01*
X63000000Y-53221550D01*
X63000000Y-69365500D01*
X62980315Y-69432539D01*
X62927511Y-69478294D01*
X62876000Y-69489500D01*
X25360446Y-69489500D01*
X25293407Y-69469815D01*
X25247652Y-69417011D01*
X25237708Y-69347853D01*
X25266733Y-69284297D01*
X25291555Y-69262398D01*
X25468476Y-69144183D01*
X25719153Y-68938458D01*
X25948458Y-68709153D01*
X26154183Y-68458476D01*
X26334347Y-68188842D01*
X26487215Y-67902847D01*
X26572130Y-67697844D01*
X37550000Y-67697844D01*
X37556401Y-67757372D01*
X37556403Y-67757379D01*
X37606645Y-67892086D01*
X37606649Y-67892093D01*
X37692809Y-68007187D01*
X37692812Y-68007190D01*
X37807906Y-68093350D01*
X37807913Y-68093354D01*
X37942620Y-68143596D01*
X37942627Y-68143598D01*
X38002155Y-68149999D01*
X38002172Y-68150000D01*
X38075000Y-68150000D01*
X38075000Y-67050000D01*
X37550000Y-67050000D01*
X37550000Y-67697844D01*
X26572130Y-67697844D01*
X26611314Y-67603246D01*
X26705449Y-67292923D01*
X26705451Y-67292913D01*
X26705454Y-67292902D01*
X26737399Y-67132295D01*
X26768714Y-66974868D01*
X26800500Y-66652143D01*
X26800500Y-66327857D01*
X26768714Y-66005132D01*
X26751920Y-65920701D01*
X26748231Y-65902155D01*
X37550000Y-65902155D01*
X37550000Y-66550000D01*
X38075000Y-66550000D01*
X38075000Y-65450000D01*
X38575000Y-65450000D01*
X38575000Y-68150000D01*
X38647828Y-68150000D01*
X38647844Y-68149999D01*
X38707372Y-68143598D01*
X38707379Y-68143596D01*
X38842086Y-68093354D01*
X38842093Y-68093350D01*
X38957185Y-68007191D01*
X38957194Y-68007182D01*
X39000235Y-67949689D01*
X39056169Y-67907818D01*
X39099501Y-67900000D01*
X40500499Y-67900000D01*
X40567538Y-67919685D01*
X40599765Y-67949689D01*
X40642805Y-68007182D01*
X40642814Y-68007191D01*
X40757906Y-68093350D01*
X40757913Y-68093354D01*
X40892620Y-68143596D01*
X40892627Y-68143598D01*
X40952155Y-68149999D01*
X40952172Y-68150000D01*
X41025000Y-68150000D01*
X41525000Y-68150000D01*
X41597828Y-68150000D01*
X41597844Y-68149999D01*
X41657372Y-68143598D01*
X41657379Y-68143596D01*
X41792086Y-68093354D01*
X41792093Y-68093350D01*
X41907187Y-68007190D01*
X41907190Y-68007187D01*
X41993350Y-67892093D01*
X41993354Y-67892086D01*
X42043596Y-67757379D01*
X42043598Y-67757372D01*
X42049999Y-67697844D01*
X42050000Y-67697827D01*
X42050000Y-67442540D01*
X43964200Y-67442540D01*
X43964200Y-67589459D01*
X43992858Y-67733534D01*
X43992861Y-67733544D01*
X44049078Y-67869266D01*
X44049083Y-67869275D01*
X44130698Y-67991419D01*
X44130701Y-67991423D01*
X44234576Y-68095298D01*
X44234580Y-68095301D01*
X44356724Y-68176916D01*
X44356730Y-68176919D01*
X44356731Y-68176920D01*
X44492458Y-68233140D01*
X44636540Y-68261799D01*
X44636544Y-68261800D01*
X44636545Y-68261800D01*
X44783456Y-68261800D01*
X44783457Y-68261799D01*
X44927542Y-68233140D01*
X45063269Y-68176920D01*
X45185420Y-68095301D01*
X45289301Y-67991420D01*
X45370920Y-67869269D01*
X45427140Y-67733542D01*
X45434706Y-67695502D01*
X45467090Y-67633594D01*
X45527805Y-67599019D01*
X45597575Y-67602758D01*
X45618317Y-67612304D01*
X45750647Y-67688706D01*
X45901772Y-67729200D01*
X45901775Y-67729200D01*
X46058225Y-67729200D01*
X46058228Y-67729200D01*
X46209353Y-67688706D01*
X46344847Y-67610478D01*
X46455478Y-67499847D01*
X46507613Y-67409546D01*
X46532223Y-67386080D01*
X46556501Y-67362213D01*
X46557466Y-67362011D01*
X46558180Y-67361331D01*
X46591590Y-67354892D01*
X46624898Y-67347943D01*
X46625819Y-67348295D01*
X46626787Y-67348109D01*
X46658368Y-67360752D01*
X46690152Y-67372916D01*
X46690913Y-67373781D01*
X46691652Y-67374077D01*
X46714896Y-67398084D01*
X46718956Y-67403605D01*
X46774522Y-67499847D01*
X46832007Y-67557332D01*
X46837574Y-67564902D01*
X46846425Y-67589263D01*
X46858844Y-67612007D01*
X46858160Y-67621563D01*
X46861433Y-67630571D01*
X46855708Y-67655848D01*
X46853860Y-67681699D01*
X46846148Y-67698064D01*
X46846001Y-67698716D01*
X46845703Y-67699008D01*
X46845065Y-67700364D01*
X46783610Y-67806806D01*
X46783609Y-67806811D01*
X46783609Y-67806812D01*
X46783608Y-67806814D01*
X46749500Y-67934108D01*
X46749500Y-68065892D01*
X46757379Y-68095298D01*
X46783608Y-68193187D01*
X46806676Y-68233141D01*
X46849500Y-68307314D01*
X46942686Y-68400500D01*
X47056814Y-68466392D01*
X47184108Y-68500500D01*
X47184110Y-68500500D01*
X47315890Y-68500500D01*
X47315892Y-68500500D01*
X47443186Y-68466392D01*
X47557314Y-68400500D01*
X47650500Y-68307314D01*
X47716392Y-68193186D01*
X47750500Y-68065892D01*
X47750500Y-67934108D01*
X47716392Y-67806814D01*
X47716390Y-67806810D01*
X47654934Y-67700365D01*
X47638461Y-67632465D01*
X47661313Y-67566438D01*
X47662426Y-67564901D01*
X47667990Y-67557334D01*
X47725478Y-67499847D01*
X47781042Y-67403607D01*
X47785105Y-67398083D01*
X47807657Y-67380898D01*
X47828180Y-67361331D01*
X47835086Y-67359999D01*
X47840680Y-67355738D01*
X47868945Y-67353474D01*
X47896787Y-67348109D01*
X47903315Y-67350722D01*
X47910327Y-67350161D01*
X47935333Y-67363540D01*
X47961652Y-67374077D01*
X47967379Y-67380686D01*
X47971933Y-67383123D01*
X47976331Y-67391017D01*
X47992386Y-67409546D01*
X48044522Y-67499847D01*
X48044524Y-67499849D01*
X48082680Y-67538005D01*
X48116165Y-67599328D01*
X48111181Y-67669020D01*
X48102386Y-67687686D01*
X48033609Y-67806810D01*
X48033609Y-67806811D01*
X48033609Y-67806812D01*
X48033608Y-67806814D01*
X47999500Y-67934108D01*
X47999500Y-68065892D01*
X48007379Y-68095298D01*
X48033608Y-68193187D01*
X48056676Y-68233141D01*
X48099500Y-68307314D01*
X48192686Y-68400500D01*
X48306814Y-68466392D01*
X48434108Y-68500500D01*
X48434110Y-68500500D01*
X48565890Y-68500500D01*
X48565892Y-68500500D01*
X48693186Y-68466392D01*
X48807314Y-68400500D01*
X48900500Y-68307314D01*
X48966392Y-68193186D01*
X49000500Y-68065892D01*
X49000500Y-67934108D01*
X48966392Y-67806814D01*
X48966387Y-67806806D01*
X48958308Y-67792813D01*
X48912253Y-67713043D01*
X48908566Y-67697844D01*
X57250000Y-67697844D01*
X57256401Y-67757372D01*
X57256403Y-67757379D01*
X57306645Y-67892086D01*
X57306649Y-67892093D01*
X57392809Y-68007187D01*
X57392812Y-68007190D01*
X57507906Y-68093350D01*
X57507913Y-68093354D01*
X57642620Y-68143596D01*
X57642627Y-68143598D01*
X57702155Y-68149999D01*
X57702172Y-68150000D01*
X57775000Y-68150000D01*
X57775000Y-67050000D01*
X57250000Y-67050000D01*
X57250000Y-67697844D01*
X48908566Y-67697844D01*
X48895781Y-67645146D01*
X48918633Y-67579119D01*
X48931949Y-67563375D01*
X48995478Y-67499847D01*
X49073706Y-67364353D01*
X49114200Y-67213228D01*
X49114200Y-67177029D01*
X49133885Y-67109990D01*
X49186689Y-67064235D01*
X49255847Y-67054291D01*
X49308469Y-67077481D01*
X49309515Y-67075917D01*
X49436724Y-67160916D01*
X49436733Y-67160921D01*
X49441086Y-67162724D01*
X49572458Y-67217140D01*
X49716540Y-67245799D01*
X49716544Y-67245800D01*
X49716545Y-67245800D01*
X49863456Y-67245800D01*
X49863457Y-67245799D01*
X50007542Y-67217140D01*
X50143269Y-67160920D01*
X50265420Y-67079301D01*
X50369301Y-66975420D01*
X50450920Y-66853269D01*
X50507140Y-66717542D01*
X50535800Y-66573455D01*
X50535800Y-66426545D01*
X50507140Y-66282458D01*
X50450920Y-66146731D01*
X50450919Y-66146730D01*
X50450916Y-66146724D01*
X50369301Y-66024580D01*
X50369298Y-66024576D01*
X50265423Y-65920701D01*
X50265419Y-65920698D01*
X50237668Y-65902155D01*
X57250000Y-65902155D01*
X57250000Y-66550000D01*
X57775000Y-66550000D01*
X57775000Y-65450000D01*
X57702155Y-65450000D01*
X57642627Y-65456401D01*
X57642620Y-65456403D01*
X57507913Y-65506645D01*
X57507906Y-65506649D01*
X57392812Y-65592809D01*
X57392809Y-65592812D01*
X57306649Y-65707906D01*
X57306645Y-65707913D01*
X57256403Y-65842620D01*
X57256401Y-65842627D01*
X57250000Y-65902155D01*
X50237668Y-65902155D01*
X50143275Y-65839083D01*
X50143266Y-65839078D01*
X50007544Y-65782861D01*
X50007545Y-65782861D01*
X50007542Y-65782860D01*
X50007538Y-65782859D01*
X50007534Y-65782858D01*
X49863459Y-65754200D01*
X49863455Y-65754200D01*
X49752976Y-65754200D01*
X49685937Y-65734515D01*
X49640182Y-65681711D01*
X49630238Y-65612553D01*
X49659263Y-65548997D01*
X49665295Y-65542519D01*
X49700500Y-65507314D01*
X49766392Y-65393186D01*
X49800500Y-65265892D01*
X49800500Y-65134108D01*
X49766392Y-65006814D01*
X49700500Y-64892686D01*
X49607314Y-64799500D01*
X49550250Y-64766554D01*
X49493187Y-64733608D01*
X49429539Y-64716554D01*
X49365892Y-64699500D01*
X49234108Y-64699500D01*
X49106812Y-64733608D01*
X48992686Y-64799500D01*
X48992683Y-64799502D01*
X48899502Y-64892683D01*
X48899500Y-64892686D01*
X48833608Y-65006812D01*
X48799500Y-65134108D01*
X48799500Y-65163130D01*
X48779815Y-65230169D01*
X48727011Y-65275924D01*
X48657853Y-65285868D01*
X48643409Y-65282905D01*
X48598232Y-65270800D01*
X48598228Y-65270800D01*
X48441772Y-65270800D01*
X48290647Y-65311294D01*
X48290645Y-65311294D01*
X48290645Y-65311295D01*
X48155153Y-65389522D01*
X48155150Y-65389524D01*
X48044524Y-65500150D01*
X48044522Y-65500153D01*
X48011439Y-65557455D01*
X47992387Y-65590453D01*
X47967758Y-65613935D01*
X47943499Y-65637786D01*
X47942532Y-65637987D01*
X47941819Y-65638668D01*
X47908421Y-65645104D01*
X47875102Y-65652056D01*
X47874180Y-65651703D01*
X47873212Y-65651890D01*
X47841619Y-65639242D01*
X47809848Y-65627083D01*
X47809086Y-65626217D01*
X47808348Y-65625922D01*
X47785104Y-65601915D01*
X47781040Y-65596389D01*
X47725478Y-65500153D01*
X47667994Y-65442669D01*
X47662425Y-65435096D01*
X47653573Y-65410733D01*
X47641155Y-65387990D01*
X47641838Y-65378434D01*
X47638566Y-65369427D01*
X47644291Y-65344146D01*
X47646140Y-65318298D01*
X47653851Y-65301929D01*
X47653998Y-65301283D01*
X47654292Y-65300993D01*
X47654928Y-65299643D01*
X47716392Y-65193186D01*
X47750500Y-65065892D01*
X47750500Y-64934108D01*
X47716392Y-64806814D01*
X47650500Y-64692686D01*
X47557314Y-64599500D01*
X47474441Y-64551653D01*
X47443187Y-64533608D01*
X47379539Y-64516554D01*
X47315892Y-64499500D01*
X47184108Y-64499500D01*
X47056812Y-64533608D01*
X46942686Y-64599500D01*
X46942683Y-64599502D01*
X46849502Y-64692683D01*
X46849500Y-64692686D01*
X46783608Y-64806812D01*
X46754539Y-64915301D01*
X46749500Y-64934108D01*
X46749500Y-65065892D01*
X46767778Y-65134108D01*
X46783609Y-65193188D01*
X46783609Y-65193189D01*
X46845065Y-65299633D01*
X46849709Y-65318778D01*
X46859029Y-65336138D01*
X46857778Y-65352035D01*
X46861538Y-65367533D01*
X46855093Y-65386153D01*
X46853548Y-65405793D01*
X46842269Y-65423207D01*
X46838686Y-65433560D01*
X46836414Y-65436648D01*
X46831312Y-65443362D01*
X46774522Y-65500153D01*
X46731336Y-65574951D01*
X46726597Y-65581190D01*
X46704525Y-65597468D01*
X46684679Y-65616391D01*
X46676813Y-65617906D01*
X46670366Y-65622662D01*
X46642996Y-65624424D01*
X46616072Y-65629613D01*
X46603671Y-65627793D01*
X46576220Y-65622332D01*
X46369874Y-65828681D01*
X46308551Y-65862166D01*
X46282192Y-65865000D01*
X45980000Y-65865000D01*
X45980000Y-66167190D01*
X45960315Y-66234229D01*
X45943681Y-66254871D01*
X45737332Y-66461219D01*
X45742793Y-66488671D01*
X45736564Y-66558262D01*
X45693701Y-66613439D01*
X45683177Y-66620247D01*
X45615156Y-66659520D01*
X45615150Y-66659524D01*
X45504524Y-66770150D01*
X45504522Y-66770153D01*
X45426294Y-66905645D01*
X45424416Y-66912656D01*
X45388048Y-66972315D01*
X45325200Y-67002842D01*
X45255825Y-66994544D01*
X45216961Y-66968239D01*
X45185423Y-66936701D01*
X45185419Y-66936698D01*
X45063275Y-66855083D01*
X45063266Y-66855078D01*
X44927544Y-66798861D01*
X44927545Y-66798861D01*
X44927542Y-66798860D01*
X44927538Y-66798859D01*
X44927534Y-66798858D01*
X44783459Y-66770200D01*
X44783455Y-66770200D01*
X44636545Y-66770200D01*
X44636540Y-66770200D01*
X44492465Y-66798858D01*
X44492455Y-66798861D01*
X44356733Y-66855078D01*
X44356724Y-66855083D01*
X44234580Y-66936698D01*
X44234576Y-66936701D01*
X44130701Y-67040576D01*
X44130698Y-67040580D01*
X44049083Y-67162724D01*
X44049078Y-67162733D01*
X43992861Y-67298455D01*
X43992858Y-67298465D01*
X43964200Y-67442540D01*
X42050000Y-67442540D01*
X42050000Y-67050000D01*
X41525000Y-67050000D01*
X41525000Y-68150000D01*
X41025000Y-68150000D01*
X41025000Y-66550000D01*
X41525000Y-66550000D01*
X42050000Y-66550000D01*
X42050000Y-65902172D01*
X42049999Y-65902155D01*
X42043598Y-65842627D01*
X42043596Y-65842620D01*
X41993354Y-65707913D01*
X41993350Y-65707906D01*
X41907190Y-65592812D01*
X41907187Y-65592809D01*
X41792093Y-65506649D01*
X41792086Y-65506645D01*
X41657379Y-65456403D01*
X41657372Y-65456401D01*
X41597844Y-65450000D01*
X41525000Y-65450000D01*
X41525000Y-66550000D01*
X41025000Y-66550000D01*
X41025000Y-65450000D01*
X40952155Y-65450000D01*
X40892627Y-65456401D01*
X40892620Y-65456403D01*
X40757913Y-65506645D01*
X40757910Y-65506647D01*
X40698811Y-65550889D01*
X40633346Y-65575306D01*
X40565073Y-65560454D01*
X40515668Y-65511049D01*
X40500500Y-65451622D01*
X40500500Y-65410540D01*
X43964200Y-65410540D01*
X43964200Y-65557459D01*
X43992858Y-65701534D01*
X43992861Y-65701544D01*
X44049078Y-65837266D01*
X44049083Y-65837275D01*
X44130698Y-65959419D01*
X44130701Y-65959423D01*
X44234576Y-66063298D01*
X44234580Y-66063301D01*
X44356724Y-66144916D01*
X44356730Y-66144919D01*
X44356731Y-66144920D01*
X44492458Y-66201140D01*
X44636540Y-66229799D01*
X44636544Y-66229800D01*
X44636545Y-66229800D01*
X44783456Y-66229800D01*
X44783457Y-66229799D01*
X44927542Y-66201140D01*
X45063269Y-66144920D01*
X45185420Y-66063301D01*
X45185424Y-66063296D01*
X45190130Y-66059436D01*
X45191901Y-66061595D01*
X45242612Y-66033812D01*
X45312310Y-66038696D01*
X45368304Y-66080488D01*
X45383704Y-66107487D01*
X45383778Y-66107665D01*
X45383779Y-66107666D01*
X45803223Y-65688223D01*
X46222666Y-65268779D01*
X46222665Y-65268778D01*
X46167765Y-65246038D01*
X46167757Y-65246035D01*
X46043402Y-65221300D01*
X45916598Y-65221300D01*
X45792247Y-65246034D01*
X45792238Y-65246037D01*
X45675101Y-65294556D01*
X45675090Y-65294562D01*
X45615032Y-65334692D01*
X45548355Y-65355569D01*
X45480975Y-65337084D01*
X45434285Y-65285105D01*
X45427481Y-65267583D01*
X45427141Y-65266464D01*
X45427140Y-65266458D01*
X45370920Y-65130731D01*
X45370919Y-65130730D01*
X45370916Y-65130724D01*
X45289301Y-65008580D01*
X45289298Y-65008576D01*
X45185423Y-64904701D01*
X45185419Y-64904698D01*
X45063275Y-64823083D01*
X45063266Y-64823078D01*
X44927544Y-64766861D01*
X44927545Y-64766861D01*
X44927542Y-64766860D01*
X44927538Y-64766859D01*
X44927534Y-64766858D01*
X44783459Y-64738200D01*
X44783455Y-64738200D01*
X44636545Y-64738200D01*
X44636540Y-64738200D01*
X44492465Y-64766858D01*
X44492455Y-64766861D01*
X44356733Y-64823078D01*
X44356724Y-64823083D01*
X44234580Y-64904698D01*
X44234576Y-64904701D01*
X44130701Y-65008576D01*
X44130698Y-65008580D01*
X44049083Y-65130724D01*
X44049078Y-65130733D01*
X43992861Y-65266455D01*
X43992858Y-65266465D01*
X43964200Y-65410540D01*
X40500500Y-65410540D01*
X40500500Y-64945730D01*
X40497646Y-64915300D01*
X40497646Y-64915298D01*
X40457126Y-64799502D01*
X40452793Y-64787118D01*
X40372150Y-64677850D01*
X40271905Y-64603866D01*
X40229656Y-64548220D01*
X40224197Y-64478563D01*
X40238154Y-64442096D01*
X40266389Y-64393191D01*
X40266390Y-64393189D01*
X40266392Y-64393186D01*
X40300500Y-64265892D01*
X40300500Y-64134108D01*
X40266392Y-64006814D01*
X40200500Y-63892686D01*
X40107314Y-63799500D01*
X40050250Y-63766554D01*
X39993187Y-63733608D01*
X39929539Y-63716554D01*
X39865892Y-63699500D01*
X39734108Y-63699500D01*
X39606812Y-63733608D01*
X39492686Y-63799500D01*
X39492683Y-63799502D01*
X39399502Y-63892683D01*
X39399500Y-63892686D01*
X39333608Y-64006812D01*
X39299500Y-64134108D01*
X39299500Y-64265891D01*
X39333609Y-64393188D01*
X39333609Y-64393189D01*
X39361846Y-64442097D01*
X39378319Y-64509997D01*
X39355466Y-64576024D01*
X39328093Y-64603867D01*
X39227850Y-64677850D01*
X39147207Y-64787117D01*
X39147206Y-64787119D01*
X39102353Y-64915298D01*
X39102353Y-64915300D01*
X39099500Y-64945730D01*
X39099500Y-65451622D01*
X39079815Y-65518661D01*
X39027011Y-65564416D01*
X38957853Y-65574360D01*
X38901189Y-65550889D01*
X38842089Y-65506647D01*
X38842086Y-65506645D01*
X38707379Y-65456403D01*
X38707372Y-65456401D01*
X38647844Y-65450000D01*
X38575000Y-65450000D01*
X38075000Y-65450000D01*
X38002155Y-65450000D01*
X37942627Y-65456401D01*
X37942620Y-65456403D01*
X37807913Y-65506645D01*
X37807906Y-65506649D01*
X37692812Y-65592809D01*
X37692809Y-65592812D01*
X37606649Y-65707906D01*
X37606645Y-65707913D01*
X37556403Y-65842620D01*
X37556401Y-65842627D01*
X37550000Y-65902155D01*
X26748231Y-65902155D01*
X26705454Y-65687097D01*
X26705451Y-65687086D01*
X26705450Y-65687083D01*
X26705449Y-65687077D01*
X26611314Y-65376754D01*
X26487215Y-65077153D01*
X26481195Y-65065891D01*
X26334353Y-64791169D01*
X26334352Y-64791167D01*
X26334347Y-64791158D01*
X26154183Y-64521524D01*
X25948458Y-64270847D01*
X25948457Y-64270846D01*
X25948453Y-64270841D01*
X25719158Y-64041546D01*
X25468481Y-63835821D01*
X25468480Y-63835820D01*
X25468476Y-63835817D01*
X25198842Y-63655653D01*
X25198837Y-63655650D01*
X25198830Y-63655646D01*
X24912854Y-63502788D01*
X24912849Y-63502786D01*
X24613247Y-63378686D01*
X24302913Y-63284548D01*
X24302902Y-63284545D01*
X23984874Y-63221287D01*
X23984857Y-63221284D01*
X23740812Y-63197248D01*
X23662143Y-63189500D01*
X23337857Y-63189500D01*
X23265099Y-63196666D01*
X23015142Y-63221284D01*
X23015125Y-63221287D01*
X22697097Y-63284545D01*
X22697086Y-63284548D01*
X22386752Y-63378686D01*
X22087150Y-63502786D01*
X22087145Y-63502788D01*
X21801169Y-63655646D01*
X21801151Y-63655657D01*
X21531532Y-63835811D01*
X21531518Y-63835821D01*
X21280841Y-64041546D01*
X21051546Y-64270841D01*
X20845821Y-64521518D01*
X20845811Y-64521532D01*
X20727602Y-64698445D01*
X20673990Y-64743250D01*
X20604665Y-64751957D01*
X20541638Y-64721803D01*
X20504918Y-64662360D01*
X20500500Y-64629554D01*
X20500500Y-51246530D01*
X22679500Y-51246530D01*
X22679500Y-51453469D01*
X22719868Y-51656412D01*
X22719870Y-51656420D01*
X22757298Y-51746780D01*
X22799059Y-51847598D01*
X22847597Y-51920241D01*
X22914024Y-52019657D01*
X23060342Y-52165975D01*
X23060345Y-52165977D01*
X23232402Y-52280941D01*
X23423580Y-52360130D01*
X23605596Y-52396335D01*
X23626530Y-52400499D01*
X23626534Y-52400500D01*
X23626535Y-52400500D01*
X23833466Y-52400500D01*
X23833467Y-52400499D01*
X24036420Y-52360130D01*
X24227598Y-52280941D01*
X24399655Y-52165977D01*
X24545977Y-52019655D01*
X24660941Y-51847598D01*
X24740130Y-51656420D01*
X24780500Y-51453465D01*
X24780500Y-51246535D01*
X24740130Y-51043580D01*
X24660941Y-50852402D01*
X24545977Y-50680345D01*
X24545975Y-50680342D01*
X24399657Y-50534024D01*
X24257623Y-50439121D01*
X24227598Y-50419059D01*
X24208516Y-50411155D01*
X24036420Y-50339870D01*
X24036412Y-50339868D01*
X23833469Y-50299500D01*
X23833465Y-50299500D01*
X23626535Y-50299500D01*
X23626530Y-50299500D01*
X23423587Y-50339868D01*
X23423579Y-50339870D01*
X23232403Y-50419058D01*
X23060342Y-50534024D01*
X22914024Y-50680342D01*
X22799058Y-50852403D01*
X22719870Y-51043579D01*
X22719868Y-51043587D01*
X22679500Y-51246530D01*
X20500500Y-51246530D01*
X20500500Y-46166530D01*
X22679500Y-46166530D01*
X22679500Y-46373469D01*
X22719868Y-46576412D01*
X22719870Y-46576420D01*
X22796207Y-46760714D01*
X22799059Y-46767598D01*
X22822017Y-46801957D01*
X22914024Y-46939657D01*
X23060342Y-47085975D01*
X23060345Y-47085977D01*
X23232402Y-47200941D01*
X23423580Y-47280130D01*
X23626530Y-47320499D01*
X23626534Y-47320500D01*
X23626535Y-47320500D01*
X23833466Y-47320500D01*
X23833467Y-47320499D01*
X24036420Y-47280130D01*
X24227598Y-47200941D01*
X24399655Y-47085977D01*
X24545977Y-46939655D01*
X24660941Y-46767598D01*
X24740130Y-46576420D01*
X24780500Y-46373465D01*
X24780500Y-46166535D01*
X24740130Y-45963580D01*
X24660941Y-45772402D01*
X24545977Y-45600345D01*
X24545975Y-45600342D01*
X24399657Y-45454024D01*
X24234894Y-45343934D01*
X24227598Y-45339059D01*
X24205689Y-45329984D01*
X24036420Y-45259870D01*
X24036412Y-45259868D01*
X23833469Y-45219500D01*
X23833465Y-45219500D01*
X23626535Y-45219500D01*
X23626530Y-45219500D01*
X23423587Y-45259868D01*
X23423579Y-45259870D01*
X23232403Y-45339058D01*
X23060342Y-45454024D01*
X22914024Y-45600342D01*
X22799058Y-45772403D01*
X22719870Y-45963579D01*
X22719868Y-45963587D01*
X22679500Y-46166530D01*
X20500500Y-46166530D01*
X20500500Y-36006530D01*
X22679500Y-36006530D01*
X22679500Y-36213469D01*
X22719868Y-36416412D01*
X22719870Y-36416420D01*
X22799058Y-36607596D01*
X22914024Y-36779657D01*
X23060342Y-36925975D01*
X23060345Y-36925977D01*
X23232402Y-37040941D01*
X23423580Y-37120130D01*
X23571234Y-37149500D01*
X23626530Y-37160499D01*
X23626534Y-37160500D01*
X23626535Y-37160500D01*
X23833466Y-37160500D01*
X23833467Y-37160499D01*
X24036420Y-37120130D01*
X24227598Y-37040941D01*
X24399655Y-36925977D01*
X24545977Y-36779655D01*
X24660941Y-36607598D01*
X24740130Y-36416420D01*
X24780500Y-36213465D01*
X24780500Y-36006535D01*
X24740130Y-35803580D01*
X24660941Y-35612402D01*
X24545977Y-35440345D01*
X24545975Y-35440342D01*
X24399657Y-35294024D01*
X24313626Y-35236541D01*
X24227598Y-35179059D01*
X24036420Y-35099870D01*
X24036412Y-35099868D01*
X23833469Y-35059500D01*
X23833465Y-35059500D01*
X23626535Y-35059500D01*
X23626530Y-35059500D01*
X23423587Y-35099868D01*
X23423579Y-35099870D01*
X23232403Y-35179058D01*
X23060342Y-35294024D01*
X22914024Y-35440342D01*
X22799058Y-35612403D01*
X22719870Y-35803579D01*
X22719868Y-35803587D01*
X22679500Y-36006530D01*
X20500500Y-36006530D01*
X20500500Y-31343475D01*
X40324500Y-31343475D01*
X40324500Y-31806517D01*
X40332334Y-31855977D01*
X40339354Y-31900304D01*
X40396950Y-32013342D01*
X40396952Y-32013344D01*
X40396954Y-32013347D01*
X40486652Y-32103045D01*
X40486658Y-32103050D01*
X40497411Y-32108528D01*
X40548206Y-32156501D01*
X40565002Y-32224322D01*
X40548504Y-32281012D01*
X40533608Y-32306811D01*
X40499500Y-32434108D01*
X40499500Y-32565891D01*
X40533608Y-32693187D01*
X40566554Y-32750250D01*
X40599500Y-32807314D01*
X40692686Y-32900500D01*
X40806814Y-32966392D01*
X40934108Y-33000500D01*
X40934110Y-33000500D01*
X41065890Y-33000500D01*
X41065892Y-33000500D01*
X41193186Y-32966392D01*
X41307314Y-32900500D01*
X41400500Y-32807314D01*
X41466392Y-32693186D01*
X41500500Y-32565892D01*
X41500500Y-32434108D01*
X41466392Y-32306814D01*
X41451495Y-32281013D01*
X41435023Y-32213114D01*
X41457875Y-32147087D01*
X41502587Y-32108529D01*
X41513342Y-32103050D01*
X41603050Y-32013342D01*
X41660646Y-31900304D01*
X41660646Y-31900302D01*
X41660647Y-31900301D01*
X41675499Y-31806524D01*
X41675500Y-31806519D01*
X41675499Y-31343482D01*
X41660646Y-31249696D01*
X41603050Y-31136658D01*
X41603046Y-31136654D01*
X41603045Y-31136652D01*
X41513347Y-31046954D01*
X41513344Y-31046952D01*
X41513342Y-31046950D01*
X41444092Y-31011665D01*
X41400301Y-30989352D01*
X41306524Y-30974500D01*
X40693482Y-30974500D01*
X40612519Y-30987323D01*
X40599696Y-30989354D01*
X40486658Y-31046950D01*
X40486657Y-31046951D01*
X40486652Y-31046954D01*
X40396954Y-31136652D01*
X40396951Y-31136657D01*
X40396950Y-31136658D01*
X40393480Y-31143469D01*
X40339352Y-31249698D01*
X40324500Y-31343475D01*
X20500500Y-31343475D01*
X20500500Y-30936530D01*
X44179500Y-30936530D01*
X44179500Y-31143469D01*
X44219868Y-31346412D01*
X44219870Y-31346420D01*
X44299058Y-31537596D01*
X44414024Y-31709657D01*
X44560342Y-31855975D01*
X44560345Y-31855977D01*
X44732402Y-31970941D01*
X44923580Y-32050130D01*
X45068052Y-32078867D01*
X45126530Y-32090499D01*
X45126534Y-32090500D01*
X45126535Y-32090500D01*
X45333466Y-32090500D01*
X45333467Y-32090499D01*
X45536420Y-32050130D01*
X45727598Y-31970941D01*
X45899655Y-31855977D01*
X46045977Y-31709655D01*
X46160941Y-31537598D01*
X46240130Y-31346420D01*
X46280500Y-31143465D01*
X46280500Y-30936535D01*
X46240130Y-30733580D01*
X46160941Y-30542402D01*
X46045977Y-30370345D01*
X46045975Y-30370342D01*
X45899657Y-30224024D01*
X45819173Y-30170247D01*
X46719500Y-30170247D01*
X46719500Y-31909752D01*
X46731131Y-31968229D01*
X46731132Y-31968230D01*
X46775447Y-32034552D01*
X46841769Y-32078867D01*
X46841770Y-32078868D01*
X46900247Y-32090499D01*
X46900250Y-32090500D01*
X46900252Y-32090500D01*
X48639750Y-32090500D01*
X48639751Y-32090499D01*
X48654568Y-32087552D01*
X48698229Y-32078868D01*
X48698229Y-32078867D01*
X48698231Y-32078867D01*
X48764552Y-32034552D01*
X48808867Y-31968231D01*
X48808867Y-31968229D01*
X48808868Y-31968229D01*
X48820499Y-31909752D01*
X48820500Y-31909750D01*
X48820500Y-30936530D01*
X54339500Y-30936530D01*
X54339500Y-31143469D01*
X54379868Y-31346412D01*
X54379870Y-31346420D01*
X54459058Y-31537596D01*
X54574024Y-31709657D01*
X54720342Y-31855975D01*
X54720345Y-31855977D01*
X54892402Y-31970941D01*
X55083580Y-32050130D01*
X55228052Y-32078867D01*
X55286530Y-32090499D01*
X55286534Y-32090500D01*
X55286535Y-32090500D01*
X55493466Y-32090500D01*
X55493467Y-32090499D01*
X55696420Y-32050130D01*
X55887598Y-31970941D01*
X56059655Y-31855977D01*
X56205977Y-31709655D01*
X56320941Y-31537598D01*
X56400130Y-31346420D01*
X56440500Y-31143465D01*
X56440500Y-30936535D01*
X56400130Y-30733580D01*
X56320941Y-30542402D01*
X56205977Y-30370345D01*
X56205975Y-30370342D01*
X56059657Y-30224024D01*
X55979173Y-30170247D01*
X56879500Y-30170247D01*
X56879500Y-31909752D01*
X56891131Y-31968229D01*
X56891132Y-31968230D01*
X56935447Y-32034552D01*
X57001769Y-32078867D01*
X57001770Y-32078868D01*
X57060247Y-32090499D01*
X57060250Y-32090500D01*
X57060252Y-32090500D01*
X58799750Y-32090500D01*
X58799751Y-32090499D01*
X58814568Y-32087552D01*
X58858229Y-32078868D01*
X58858229Y-32078867D01*
X58858231Y-32078867D01*
X58924552Y-32034552D01*
X58968867Y-31968231D01*
X58968867Y-31968229D01*
X58968868Y-31968229D01*
X58980499Y-31909752D01*
X58980500Y-31909750D01*
X58980500Y-30170249D01*
X58980499Y-30170247D01*
X58968868Y-30111770D01*
X58968867Y-30111769D01*
X58924552Y-30045447D01*
X58858230Y-30001132D01*
X58858229Y-30001131D01*
X58799752Y-29989500D01*
X58799748Y-29989500D01*
X57060252Y-29989500D01*
X57060247Y-29989500D01*
X57001770Y-30001131D01*
X57001769Y-30001132D01*
X56935447Y-30045447D01*
X56891132Y-30111769D01*
X56891131Y-30111770D01*
X56879500Y-30170247D01*
X55979173Y-30170247D01*
X55891655Y-30111770D01*
X55887598Y-30109059D01*
X55696420Y-30029870D01*
X55696412Y-30029868D01*
X55493469Y-29989500D01*
X55493465Y-29989500D01*
X55286535Y-29989500D01*
X55286530Y-29989500D01*
X55083587Y-30029868D01*
X55083579Y-30029870D01*
X54892403Y-30109058D01*
X54720342Y-30224024D01*
X54574024Y-30370342D01*
X54459058Y-30542403D01*
X54379870Y-30733579D01*
X54379868Y-30733587D01*
X54339500Y-30936530D01*
X48820500Y-30936530D01*
X48820500Y-30170249D01*
X48820499Y-30170247D01*
X48808868Y-30111770D01*
X48808867Y-30111769D01*
X48764552Y-30045447D01*
X48698230Y-30001132D01*
X48698229Y-30001131D01*
X48639752Y-29989500D01*
X48639748Y-29989500D01*
X46900252Y-29989500D01*
X46900247Y-29989500D01*
X46841770Y-30001131D01*
X46841769Y-30001132D01*
X46775447Y-30045447D01*
X46731132Y-30111769D01*
X46731131Y-30111770D01*
X46719500Y-30170247D01*
X45819173Y-30170247D01*
X45731655Y-30111770D01*
X45727598Y-30109059D01*
X45536420Y-30029870D01*
X45536412Y-30029868D01*
X45333469Y-29989500D01*
X45333465Y-29989500D01*
X45126535Y-29989500D01*
X45126530Y-29989500D01*
X44923587Y-30029868D01*
X44923579Y-30029870D01*
X44732403Y-30109058D01*
X44560342Y-30224024D01*
X44414024Y-30370342D01*
X44299058Y-30542403D01*
X44219870Y-30733579D01*
X44219868Y-30733587D01*
X44179500Y-30936530D01*
X20500500Y-30936530D01*
X20500500Y-27434108D01*
X30749500Y-27434108D01*
X30749500Y-27565891D01*
X30783608Y-27693187D01*
X30801687Y-27724500D01*
X30849500Y-27807314D01*
X30849502Y-27807316D01*
X30942687Y-27900501D01*
X30944158Y-27901630D01*
X30945083Y-27902897D01*
X30948433Y-27906247D01*
X30947910Y-27906769D01*
X30985356Y-27958060D01*
X30989506Y-28027807D01*
X30955289Y-28088725D01*
X30944158Y-28098370D01*
X30942687Y-28099498D01*
X30849502Y-28192683D01*
X30849500Y-28192686D01*
X30783608Y-28306812D01*
X30765424Y-28374678D01*
X30749500Y-28434108D01*
X30749500Y-28565892D01*
X30754603Y-28584938D01*
X30783608Y-28693187D01*
X30805133Y-28730468D01*
X30849500Y-28807314D01*
X30942686Y-28900500D01*
X31056814Y-28966392D01*
X31184108Y-29000500D01*
X31184110Y-29000500D01*
X31315890Y-29000500D01*
X31315892Y-29000500D01*
X31443186Y-28966392D01*
X31557314Y-28900500D01*
X31650500Y-28807314D01*
X31716392Y-28693186D01*
X31723299Y-28667405D01*
X31733909Y-28649999D01*
X35052132Y-28649999D01*
X35427867Y-28649999D01*
X35427867Y-28649998D01*
X35240000Y-28462131D01*
X35052132Y-28649999D01*
X31733909Y-28649999D01*
X31759664Y-28607746D01*
X31822511Y-28577217D01*
X31843074Y-28575500D01*
X33327327Y-28575500D01*
X33374778Y-28584938D01*
X33377258Y-28585964D01*
X33377260Y-28585966D01*
X33395526Y-28589599D01*
X33450323Y-28600500D01*
X33450326Y-28600500D01*
X34069676Y-28600500D01*
X34069677Y-28600499D01*
X34142740Y-28585966D01*
X34225601Y-28530601D01*
X34280966Y-28447740D01*
X34295500Y-28374674D01*
X34295500Y-28125326D01*
X34295500Y-28125323D01*
X34295499Y-28125321D01*
X34280968Y-28052267D01*
X34280966Y-28052264D01*
X34280966Y-28052260D01*
X34280963Y-28052256D01*
X34278977Y-28047461D01*
X34277705Y-28035638D01*
X34272112Y-28025148D01*
X34274037Y-28001540D01*
X34271504Y-27977992D01*
X34276824Y-27967360D01*
X34277791Y-27955510D01*
X34278977Y-27952539D01*
X34280962Y-27947745D01*
X34280966Y-27947740D01*
X34282868Y-27938181D01*
X34295499Y-27874678D01*
X34295500Y-27874676D01*
X34295500Y-27625326D01*
X34293808Y-27616819D01*
X34289440Y-27594861D01*
X34292512Y-27560525D01*
X34295313Y-27526179D01*
X34295660Y-27525338D01*
X34295666Y-27525272D01*
X34295711Y-27525213D01*
X34297623Y-27520583D01*
X34342089Y-27419877D01*
X34342089Y-27419875D01*
X34344999Y-27394794D01*
X34344999Y-27105214D01*
X34344997Y-27105191D01*
X34342091Y-27080130D01*
X34342090Y-27080127D01*
X34297622Y-26979414D01*
X34294923Y-26958807D01*
X34287467Y-26939408D01*
X34288968Y-26913324D01*
X34288551Y-26910136D01*
X34289235Y-26908685D01*
X34289439Y-26905141D01*
X34295500Y-26874674D01*
X34295500Y-26625326D01*
X34295500Y-26625323D01*
X34295499Y-26625321D01*
X34280967Y-26552264D01*
X34280966Y-26552260D01*
X34225601Y-26469399D01*
X34142740Y-26414034D01*
X34142739Y-26414033D01*
X34142735Y-26414032D01*
X34069677Y-26399500D01*
X34069674Y-26399500D01*
X33450326Y-26399500D01*
X33450324Y-26399500D01*
X33377261Y-26414033D01*
X33374778Y-26415062D01*
X33327327Y-26424500D01*
X31957147Y-26424500D01*
X31874359Y-26446682D01*
X31800138Y-26489535D01*
X31800135Y-26489537D01*
X31326492Y-26963181D01*
X31265169Y-26996666D01*
X31238811Y-26999500D01*
X31184108Y-26999500D01*
X31056812Y-27033608D01*
X30942686Y-27099500D01*
X30942683Y-27099502D01*
X30849502Y-27192683D01*
X30849500Y-27192686D01*
X30783608Y-27306812D01*
X30749500Y-27434108D01*
X20500500Y-27434108D01*
X20500500Y-25350445D01*
X20520185Y-25283406D01*
X20572989Y-25237651D01*
X20642147Y-25227707D01*
X20705703Y-25256732D01*
X20727602Y-25281555D01*
X20845804Y-25458458D01*
X20845821Y-25458481D01*
X21051546Y-25709158D01*
X21280841Y-25938453D01*
X21280846Y-25938457D01*
X21280847Y-25938458D01*
X21531524Y-26144183D01*
X21801158Y-26324347D01*
X21801167Y-26324352D01*
X21801169Y-26324353D01*
X22087145Y-26477211D01*
X22087147Y-26477211D01*
X22087153Y-26477215D01*
X22386754Y-26601314D01*
X22697077Y-26695449D01*
X22697083Y-26695450D01*
X22697086Y-26695451D01*
X22697097Y-26695454D01*
X22864834Y-26728818D01*
X23015132Y-26758714D01*
X23337857Y-26790500D01*
X23337860Y-26790500D01*
X23662140Y-26790500D01*
X23662143Y-26790500D01*
X23984868Y-26758714D01*
X24142295Y-26727399D01*
X24302902Y-26695454D01*
X24302913Y-26695451D01*
X24302913Y-26695450D01*
X24302923Y-26695449D01*
X24613246Y-26601314D01*
X24912847Y-26477215D01*
X25198842Y-26324347D01*
X25468476Y-26144183D01*
X25719153Y-25938458D01*
X25948458Y-25709153D01*
X26082814Y-25545439D01*
X33025001Y-25545439D01*
X33031081Y-25602007D01*
X33078813Y-25729981D01*
X33078815Y-25729984D01*
X33160670Y-25839329D01*
X33270015Y-25921184D01*
X33270016Y-25921185D01*
X33397991Y-25968917D01*
X33397995Y-25968918D01*
X33454554Y-25974999D01*
X33475000Y-25974998D01*
X33475000Y-25500000D01*
X33025001Y-25500000D01*
X33025001Y-25545439D01*
X26082814Y-25545439D01*
X26154183Y-25458476D01*
X26334347Y-25188842D01*
X26459568Y-24954571D01*
X33025000Y-24954571D01*
X33025000Y-25000000D01*
X33475000Y-25000000D01*
X33475000Y-24525000D01*
X33975000Y-24525000D01*
X33975000Y-25974999D01*
X33995433Y-25974999D01*
X33995439Y-25974998D01*
X34052007Y-25968918D01*
X34179981Y-25921186D01*
X34179984Y-25921184D01*
X34289329Y-25839329D01*
X34371184Y-25729984D01*
X34371186Y-25729981D01*
X34407571Y-25632429D01*
X34449442Y-25576495D01*
X34514906Y-25552078D01*
X34583179Y-25566930D01*
X34632585Y-25616335D01*
X34637304Y-25627281D01*
X34640280Y-25633122D01*
X34640281Y-25633126D01*
X34701472Y-25753220D01*
X34701473Y-25753221D01*
X34701476Y-25753225D01*
X34796774Y-25848523D01*
X34796777Y-25848525D01*
X34796780Y-25848528D01*
X34846794Y-25874011D01*
X34897591Y-25921985D01*
X34914500Y-25984496D01*
X34914500Y-26309508D01*
X34894815Y-26376547D01*
X34859390Y-26412610D01*
X34774400Y-26469397D01*
X34719033Y-26552260D01*
X34719032Y-26552264D01*
X34704500Y-26625321D01*
X34704500Y-26625326D01*
X34704500Y-26874674D01*
X34704500Y-26874676D01*
X34704499Y-26874676D01*
X34719033Y-26947740D01*
X34721025Y-26952548D01*
X34723097Y-26971823D01*
X34730054Y-26989921D01*
X34726755Y-27005847D01*
X34728494Y-27022017D01*
X34721025Y-27047452D01*
X34719033Y-27052259D01*
X34704500Y-27125323D01*
X34704500Y-27125326D01*
X34704500Y-27374674D01*
X34704500Y-27374676D01*
X34704499Y-27374676D01*
X34719033Y-27447740D01*
X34721025Y-27452548D01*
X34722295Y-27464364D01*
X34727887Y-27474852D01*
X34725961Y-27498462D01*
X34728494Y-27522017D01*
X34722328Y-27543012D01*
X34722208Y-27544491D01*
X34721698Y-27545157D01*
X34721025Y-27547452D01*
X34719033Y-27552259D01*
X34704500Y-27625323D01*
X34704500Y-27874678D01*
X34710559Y-27905138D01*
X34707489Y-27939445D01*
X34704686Y-27973819D01*
X34704377Y-27974222D01*
X34704332Y-27974729D01*
X34702377Y-27979414D01*
X34657910Y-28080122D01*
X34657910Y-28080124D01*
X34655000Y-28105205D01*
X34655000Y-28394785D01*
X34655002Y-28394808D01*
X34657908Y-28419869D01*
X34657909Y-28419873D01*
X34703211Y-28522474D01*
X34703212Y-28522476D01*
X34729301Y-28548565D01*
X34991549Y-28286319D01*
X35018476Y-28271615D01*
X35044295Y-28255023D01*
X35050495Y-28254131D01*
X35052872Y-28252834D01*
X35079230Y-28250000D01*
X35152770Y-28250000D01*
X35219809Y-28269685D01*
X35237575Y-28290189D01*
X35244849Y-28285514D01*
X35252921Y-28274733D01*
X35273666Y-28266995D01*
X35292296Y-28255023D01*
X35314214Y-28251871D01*
X35318385Y-28250316D01*
X35327231Y-28250000D01*
X35400770Y-28250000D01*
X35467809Y-28269685D01*
X35488451Y-28286319D01*
X35750697Y-28548566D01*
X35750699Y-28548566D01*
X35776786Y-28522479D01*
X35780247Y-28514641D01*
X35825332Y-28461265D01*
X35892118Y-28440736D01*
X35959400Y-28459573D01*
X35981363Y-28477045D01*
X36234787Y-28730469D01*
X36314712Y-28776614D01*
X36403856Y-28800500D01*
X38003457Y-28800500D01*
X38070496Y-28820185D01*
X38091133Y-28836814D01*
X38143517Y-28889198D01*
X38248607Y-28940573D01*
X38278785Y-28944970D01*
X38316739Y-28950500D01*
X38316740Y-28950500D01*
X39558261Y-28950500D01*
X39580971Y-28947191D01*
X39626393Y-28940573D01*
X39731483Y-28889198D01*
X39783863Y-28836817D01*
X39845184Y-28803334D01*
X39871543Y-28800500D01*
X40096142Y-28800500D01*
X40096144Y-28800500D01*
X40185288Y-28776614D01*
X40245489Y-28741856D01*
X40313389Y-28725384D01*
X40379416Y-28748237D01*
X40395170Y-28761563D01*
X40486652Y-28853045D01*
X40486656Y-28853048D01*
X40486658Y-28853050D01*
X40581797Y-28901526D01*
X40592859Y-28911973D01*
X40606703Y-28918296D01*
X40617744Y-28935476D01*
X40632591Y-28949499D01*
X40636832Y-28965178D01*
X40644477Y-28977074D01*
X40649500Y-29012009D01*
X40649500Y-29237990D01*
X40629815Y-29305029D01*
X40581796Y-29348474D01*
X40486659Y-29396949D01*
X40486652Y-29396954D01*
X40396954Y-29486652D01*
X40396951Y-29486657D01*
X40339352Y-29599698D01*
X40324500Y-29693475D01*
X40324500Y-30156517D01*
X40335192Y-30224023D01*
X40339354Y-30250304D01*
X40396950Y-30363342D01*
X40396952Y-30363344D01*
X40396954Y-30363347D01*
X40486652Y-30453045D01*
X40486654Y-30453046D01*
X40486658Y-30453050D01*
X40599694Y-30510645D01*
X40599698Y-30510647D01*
X40693475Y-30525499D01*
X40693481Y-30525500D01*
X41306518Y-30525499D01*
X41400304Y-30510646D01*
X41513342Y-30453050D01*
X41603050Y-30363342D01*
X41660646Y-30250304D01*
X41660646Y-30250302D01*
X41660647Y-30250301D01*
X41675499Y-30156524D01*
X41675500Y-30156519D01*
X41675499Y-29693482D01*
X41660646Y-29599696D01*
X41603050Y-29486658D01*
X41603046Y-29486654D01*
X41603045Y-29486652D01*
X41513347Y-29396954D01*
X41513343Y-29396951D01*
X41513342Y-29396950D01*
X41510137Y-29395317D01*
X41418204Y-29348474D01*
X41407140Y-29338025D01*
X41393297Y-29331703D01*
X41382255Y-29314522D01*
X41367409Y-29300500D01*
X41363167Y-29284820D01*
X41355523Y-29272925D01*
X41350500Y-29237990D01*
X41350500Y-29012009D01*
X41370185Y-28944970D01*
X41418202Y-28901526D01*
X41513342Y-28853050D01*
X41603050Y-28763342D01*
X41613311Y-28743204D01*
X41661286Y-28692409D01*
X41723795Y-28675500D01*
X42911142Y-28675500D01*
X42911144Y-28675500D01*
X43000288Y-28651614D01*
X43002557Y-28650304D01*
X43080212Y-28605470D01*
X44068863Y-27616819D01*
X44095790Y-27602115D01*
X44121609Y-27585523D01*
X44127809Y-27584631D01*
X44130186Y-27583334D01*
X44156544Y-27580500D01*
X44295281Y-27580500D01*
X44362320Y-27600185D01*
X44408075Y-27652989D01*
X44418019Y-27722147D01*
X44392522Y-27778505D01*
X44393831Y-27779456D01*
X44289195Y-27923475D01*
X44210591Y-28077744D01*
X44157085Y-28242415D01*
X44155884Y-28249999D01*
X44155885Y-28250000D01*
X44796988Y-28250000D01*
X44764075Y-28307007D01*
X44730000Y-28434174D01*
X44730000Y-28565826D01*
X44764075Y-28692993D01*
X44796988Y-28750000D01*
X44155885Y-28750000D01*
X44157085Y-28757584D01*
X44210591Y-28922255D01*
X44289195Y-29076524D01*
X44390967Y-29216602D01*
X44513397Y-29339032D01*
X44653475Y-29440804D01*
X44807744Y-29519408D01*
X44972415Y-29572914D01*
X44972414Y-29572914D01*
X44979999Y-29574115D01*
X44980000Y-29574114D01*
X44980000Y-28933012D01*
X45037007Y-28965925D01*
X45164174Y-29000000D01*
X45295826Y-29000000D01*
X45422993Y-28965925D01*
X45480000Y-28933012D01*
X45480000Y-29574115D01*
X45487584Y-29572914D01*
X45652255Y-29519408D01*
X45806524Y-29440804D01*
X45946602Y-29339032D01*
X46069032Y-29216602D01*
X46170804Y-29076524D01*
X46249408Y-28922255D01*
X46302914Y-28757584D01*
X46304115Y-28750000D01*
X45663012Y-28750000D01*
X45695925Y-28692993D01*
X45730000Y-28565826D01*
X45730000Y-28434174D01*
X45695925Y-28307007D01*
X45663012Y-28250000D01*
X46304115Y-28250000D01*
X46304115Y-28249999D01*
X46695884Y-28249999D01*
X46695885Y-28250000D01*
X47336988Y-28250000D01*
X47304075Y-28307007D01*
X47270000Y-28434174D01*
X47270000Y-28565826D01*
X47304075Y-28692993D01*
X47336988Y-28750000D01*
X46695885Y-28750000D01*
X46697085Y-28757584D01*
X46750591Y-28922255D01*
X46829195Y-29076524D01*
X46930967Y-29216602D01*
X47053397Y-29339032D01*
X47193475Y-29440804D01*
X47347744Y-29519408D01*
X47512415Y-29572914D01*
X47512414Y-29572914D01*
X47519999Y-29574115D01*
X47520000Y-29574114D01*
X47520000Y-28933012D01*
X47577007Y-28965925D01*
X47704174Y-29000000D01*
X47835826Y-29000000D01*
X47962993Y-28965925D01*
X48020000Y-28933012D01*
X48020000Y-29574115D01*
X48027584Y-29572914D01*
X48192255Y-29519408D01*
X48346524Y-29440804D01*
X48486602Y-29339032D01*
X48609032Y-29216602D01*
X48710804Y-29076524D01*
X48789408Y-28922255D01*
X48842914Y-28757584D01*
X48844115Y-28750000D01*
X48203012Y-28750000D01*
X48235925Y-28692993D01*
X48270000Y-28565826D01*
X48270000Y-28434174D01*
X48235925Y-28307007D01*
X48203012Y-28250000D01*
X48844115Y-28250000D01*
X48844115Y-28249999D01*
X48842914Y-28242415D01*
X48789408Y-28077744D01*
X48710804Y-27923475D01*
X48609032Y-27783397D01*
X48486602Y-27660967D01*
X48346524Y-27559195D01*
X48192257Y-27480591D01*
X48027589Y-27427087D01*
X48027581Y-27427085D01*
X48020000Y-27425884D01*
X48020000Y-28066988D01*
X47962993Y-28034075D01*
X47835826Y-28000000D01*
X47704174Y-28000000D01*
X47577007Y-28034075D01*
X47520000Y-28066988D01*
X47520000Y-27425884D01*
X47519999Y-27425884D01*
X47512418Y-27427085D01*
X47512410Y-27427087D01*
X47347742Y-27480591D01*
X47193475Y-27559195D01*
X47053397Y-27660967D01*
X46930967Y-27783397D01*
X46829195Y-27923475D01*
X46750591Y-28077744D01*
X46697085Y-28242415D01*
X46695884Y-28249999D01*
X46304115Y-28249999D01*
X46302914Y-28242415D01*
X46249408Y-28077744D01*
X46170804Y-27923475D01*
X46066169Y-27779456D01*
X46067498Y-27778489D01*
X46041859Y-27721277D01*
X46052292Y-27652191D01*
X46098420Y-27599712D01*
X46164719Y-27580500D01*
X46546142Y-27580500D01*
X46546144Y-27580500D01*
X46635288Y-27556614D01*
X46715212Y-27510470D01*
X47257896Y-26967784D01*
X47319217Y-26934301D01*
X47388908Y-26939285D01*
X47393028Y-26940906D01*
X47463580Y-26970130D01*
X47643143Y-27005847D01*
X47666530Y-27010499D01*
X47666534Y-27010500D01*
X47666535Y-27010500D01*
X47873466Y-27010500D01*
X47873467Y-27010499D01*
X48076420Y-26970130D01*
X48146972Y-26940905D01*
X48216438Y-26933437D01*
X48278918Y-26964711D01*
X48282104Y-26967786D01*
X48824788Y-27510470D01*
X48904712Y-27556614D01*
X48993856Y-27580500D01*
X48993858Y-27580500D01*
X54455281Y-27580500D01*
X54522320Y-27600185D01*
X54568075Y-27652989D01*
X54578019Y-27722147D01*
X54552522Y-27778505D01*
X54553831Y-27779456D01*
X54449195Y-27923475D01*
X54370591Y-28077744D01*
X54317085Y-28242415D01*
X54315884Y-28249999D01*
X54315885Y-28250000D01*
X54956988Y-28250000D01*
X54924075Y-28307007D01*
X54890000Y-28434174D01*
X54890000Y-28565826D01*
X54924075Y-28692993D01*
X54956988Y-28750000D01*
X54315885Y-28750000D01*
X54317085Y-28757584D01*
X54370591Y-28922255D01*
X54449195Y-29076524D01*
X54550967Y-29216602D01*
X54673397Y-29339032D01*
X54813475Y-29440804D01*
X54967744Y-29519408D01*
X55132415Y-29572914D01*
X55132414Y-29572914D01*
X55139999Y-29574115D01*
X55140000Y-29574114D01*
X55140000Y-28933012D01*
X55197007Y-28965925D01*
X55324174Y-29000000D01*
X55455826Y-29000000D01*
X55582993Y-28965925D01*
X55640000Y-28933012D01*
X55640000Y-29574115D01*
X55647584Y-29572914D01*
X55812255Y-29519408D01*
X55966524Y-29440804D01*
X56106602Y-29339032D01*
X56229032Y-29216602D01*
X56330804Y-29076524D01*
X56409408Y-28922255D01*
X56462914Y-28757584D01*
X56464115Y-28750000D01*
X55823012Y-28750000D01*
X55855925Y-28692993D01*
X55890000Y-28565826D01*
X55890000Y-28434174D01*
X55855925Y-28307007D01*
X55823012Y-28250000D01*
X56464115Y-28250000D01*
X56464115Y-28249999D01*
X56855884Y-28249999D01*
X56855885Y-28250000D01*
X57496988Y-28250000D01*
X57464075Y-28307007D01*
X57430000Y-28434174D01*
X57430000Y-28565826D01*
X57464075Y-28692993D01*
X57496988Y-28750000D01*
X56855885Y-28750000D01*
X56857085Y-28757584D01*
X56910591Y-28922255D01*
X56989195Y-29076524D01*
X57090967Y-29216602D01*
X57213397Y-29339032D01*
X57353475Y-29440804D01*
X57507744Y-29519408D01*
X57672415Y-29572914D01*
X57672414Y-29572914D01*
X57679999Y-29574115D01*
X57680000Y-29574114D01*
X57680000Y-28933012D01*
X57737007Y-28965925D01*
X57864174Y-29000000D01*
X57995826Y-29000000D01*
X58122993Y-28965925D01*
X58180000Y-28933012D01*
X58180000Y-29574115D01*
X58187584Y-29572914D01*
X58352255Y-29519408D01*
X58506524Y-29440804D01*
X58646602Y-29339032D01*
X58769032Y-29216602D01*
X58870804Y-29076524D01*
X58949408Y-28922255D01*
X59002914Y-28757584D01*
X59004115Y-28750000D01*
X58363012Y-28750000D01*
X58395925Y-28692993D01*
X58430000Y-28565826D01*
X58430000Y-28434174D01*
X58395925Y-28307007D01*
X58363012Y-28250000D01*
X59004115Y-28250000D01*
X59004115Y-28249999D01*
X59002914Y-28242415D01*
X58949408Y-28077744D01*
X58870804Y-27923475D01*
X58769032Y-27783397D01*
X58646602Y-27660967D01*
X58506524Y-27559195D01*
X58352257Y-27480591D01*
X58187589Y-27427087D01*
X58187581Y-27427085D01*
X58180000Y-27425884D01*
X58180000Y-28066988D01*
X58122993Y-28034075D01*
X57995826Y-28000000D01*
X57864174Y-28000000D01*
X57737007Y-28034075D01*
X57680000Y-28066988D01*
X57680000Y-27425884D01*
X57679999Y-27425884D01*
X57672418Y-27427085D01*
X57672410Y-27427087D01*
X57507742Y-27480591D01*
X57353475Y-27559195D01*
X57213397Y-27660967D01*
X57090967Y-27783397D01*
X56989195Y-27923475D01*
X56910591Y-28077744D01*
X56857085Y-28242415D01*
X56855884Y-28249999D01*
X56464115Y-28249999D01*
X56462914Y-28242415D01*
X56409408Y-28077744D01*
X56330804Y-27923475D01*
X56226169Y-27779456D01*
X56227498Y-27778489D01*
X56201859Y-27721277D01*
X56212292Y-27652191D01*
X56258420Y-27599712D01*
X56324719Y-27580500D01*
X56706142Y-27580500D01*
X56706144Y-27580500D01*
X56795288Y-27556614D01*
X56875212Y-27510470D01*
X57417896Y-26967784D01*
X57479217Y-26934301D01*
X57548908Y-26939285D01*
X57553028Y-26940906D01*
X57623580Y-26970130D01*
X57803143Y-27005847D01*
X57826530Y-27010499D01*
X57826534Y-27010500D01*
X57826535Y-27010500D01*
X58033466Y-27010500D01*
X58033467Y-27010499D01*
X58236420Y-26970130D01*
X58427598Y-26890941D01*
X58599655Y-26775977D01*
X58745977Y-26629655D01*
X58860941Y-26457598D01*
X58940130Y-26266420D01*
X58980500Y-26063465D01*
X58980500Y-25856535D01*
X58940130Y-25653580D01*
X58860941Y-25462402D01*
X58745977Y-25290345D01*
X58745975Y-25290342D01*
X58599657Y-25144024D01*
X58508771Y-25083297D01*
X58427598Y-25029059D01*
X58236420Y-24949870D01*
X58236412Y-24949868D01*
X58033469Y-24909500D01*
X58033465Y-24909500D01*
X57826535Y-24909500D01*
X57826530Y-24909500D01*
X57623587Y-24949868D01*
X57623579Y-24949870D01*
X57432403Y-25029058D01*
X57260342Y-25144024D01*
X57114024Y-25290342D01*
X56999058Y-25462403D01*
X56919870Y-25653579D01*
X56919868Y-25653587D01*
X56879500Y-25856530D01*
X56879500Y-26063469D01*
X56919868Y-26266412D01*
X56919870Y-26266420D01*
X56945215Y-26327609D01*
X56949093Y-26336970D01*
X56956562Y-26406440D01*
X56925287Y-26468919D01*
X56922213Y-26472104D01*
X56551137Y-26843181D01*
X56524209Y-26857884D01*
X56498391Y-26874477D01*
X56492190Y-26875368D01*
X56489814Y-26876666D01*
X56463456Y-26879500D01*
X56255495Y-26879500D01*
X56188456Y-26859815D01*
X56142701Y-26807011D01*
X56132757Y-26737853D01*
X56161782Y-26674297D01*
X56167814Y-26667819D01*
X56205974Y-26629658D01*
X56205975Y-26629657D01*
X56205977Y-26629655D01*
X56320941Y-26457598D01*
X56400130Y-26266420D01*
X56440500Y-26063465D01*
X56440500Y-25856535D01*
X56400130Y-25653580D01*
X56320941Y-25462402D01*
X56205977Y-25290345D01*
X56205975Y-25290342D01*
X56059657Y-25144024D01*
X55968771Y-25083297D01*
X55887598Y-25029059D01*
X55696420Y-24949870D01*
X55696412Y-24949868D01*
X55493469Y-24909500D01*
X55493465Y-24909500D01*
X55286535Y-24909500D01*
X55286530Y-24909500D01*
X55083587Y-24949868D01*
X55083579Y-24949870D01*
X54892403Y-25029058D01*
X54720342Y-25144024D01*
X54574024Y-25290342D01*
X54459056Y-25462405D01*
X54429836Y-25532952D01*
X54385995Y-25587356D01*
X54319701Y-25609421D01*
X54315275Y-25609500D01*
X50506544Y-25609500D01*
X50439505Y-25589815D01*
X50418863Y-25573181D01*
X49255213Y-24409531D01*
X49255208Y-24409527D01*
X49175290Y-24363387D01*
X49175289Y-24363386D01*
X49175288Y-24363386D01*
X49086144Y-24339500D01*
X46453856Y-24339500D01*
X46364712Y-24363386D01*
X46364709Y-24363387D01*
X46284791Y-24409527D01*
X46284786Y-24409531D01*
X45742104Y-24952213D01*
X45680781Y-24985698D01*
X45611089Y-24980714D01*
X45606970Y-24979093D01*
X45536420Y-24949870D01*
X45536412Y-24949868D01*
X45333469Y-24909500D01*
X45333465Y-24909500D01*
X45126535Y-24909500D01*
X45126530Y-24909500D01*
X44923587Y-24949868D01*
X44923579Y-24949870D01*
X44732403Y-25029058D01*
X44560342Y-25144024D01*
X44414024Y-25290342D01*
X44299056Y-25462405D01*
X44269836Y-25532952D01*
X44225995Y-25587356D01*
X44159701Y-25609421D01*
X44155275Y-25609500D01*
X43913854Y-25609500D01*
X43862699Y-25623207D01*
X43862698Y-25623206D01*
X43824716Y-25633384D01*
X43824709Y-25633387D01*
X43744791Y-25679527D01*
X43744786Y-25679531D01*
X43136137Y-26288181D01*
X43074814Y-26321666D01*
X43048456Y-26324500D01*
X41723795Y-26324500D01*
X41656756Y-26304815D01*
X41613311Y-26256796D01*
X41603956Y-26238437D01*
X41603050Y-26236658D01*
X41603047Y-26236655D01*
X41603045Y-26236652D01*
X41513347Y-26146954D01*
X41513343Y-26146951D01*
X41513342Y-26146950D01*
X41507921Y-26144188D01*
X41418204Y-26098474D01*
X41407140Y-26088025D01*
X41393297Y-26081703D01*
X41382255Y-26064522D01*
X41367409Y-26050500D01*
X41363167Y-26034820D01*
X41355523Y-26022925D01*
X41350500Y-25987990D01*
X41350500Y-25762009D01*
X41370185Y-25694970D01*
X41418202Y-25651526D01*
X41513342Y-25603050D01*
X41603050Y-25513342D01*
X41660646Y-25400304D01*
X41660646Y-25400302D01*
X41660647Y-25400301D01*
X41674015Y-25315892D01*
X41675500Y-25306519D01*
X41675499Y-24843482D01*
X41660646Y-24749696D01*
X41603050Y-24636658D01*
X41603046Y-24636654D01*
X41603045Y-24636652D01*
X41513347Y-24546954D01*
X41513344Y-24546952D01*
X41513342Y-24546950D01*
X41436517Y-24507805D01*
X41400301Y-24489352D01*
X41306524Y-24474500D01*
X40693482Y-24474500D01*
X40612519Y-24487323D01*
X40599696Y-24489354D01*
X40486658Y-24546950D01*
X40486657Y-24546951D01*
X40486652Y-24546954D01*
X40396954Y-24636652D01*
X40396951Y-24636657D01*
X40396950Y-24636658D01*
X40389400Y-24651476D01*
X40339352Y-24749698D01*
X40324500Y-24843475D01*
X40324500Y-25306517D01*
X40335292Y-25374657D01*
X40339354Y-25400304D01*
X40396950Y-25513342D01*
X40396952Y-25513344D01*
X40396954Y-25513347D01*
X40486652Y-25603045D01*
X40486656Y-25603048D01*
X40486658Y-25603050D01*
X40581797Y-25651526D01*
X40592859Y-25661973D01*
X40606703Y-25668296D01*
X40617744Y-25685476D01*
X40632591Y-25699499D01*
X40636832Y-25715178D01*
X40644477Y-25727074D01*
X40649500Y-25762009D01*
X40649500Y-25987990D01*
X40629815Y-26055029D01*
X40581796Y-26098474D01*
X40486659Y-26146949D01*
X40486656Y-26146951D01*
X40395170Y-26238437D01*
X40333846Y-26271921D01*
X40264155Y-26266937D01*
X40245490Y-26258143D01*
X40185288Y-26223386D01*
X40096144Y-26199500D01*
X40096143Y-26199500D01*
X39871543Y-26199500D01*
X39804504Y-26179815D01*
X39783866Y-26163185D01*
X39731483Y-26110802D01*
X39626391Y-26059426D01*
X39558261Y-26049500D01*
X39558260Y-26049500D01*
X38316740Y-26049500D01*
X38316739Y-26049500D01*
X38248608Y-26059426D01*
X38143516Y-26110802D01*
X38117327Y-26136991D01*
X38091136Y-26163182D01*
X38029816Y-26196666D01*
X38003457Y-26199500D01*
X36403856Y-26199500D01*
X36314711Y-26223386D01*
X36234787Y-26269531D01*
X36234784Y-26269533D01*
X35944346Y-26559971D01*
X35883023Y-26593456D01*
X35813331Y-26588472D01*
X35770156Y-26561128D01*
X35760811Y-26552028D01*
X35705601Y-26469399D01*
X35622740Y-26414034D01*
X35618167Y-26413124D01*
X35602991Y-26398346D01*
X35591203Y-26377424D01*
X35575804Y-26358998D01*
X35572862Y-26344870D01*
X35568695Y-26337473D01*
X35569268Y-26327609D01*
X35565500Y-26309508D01*
X35565500Y-26020162D01*
X35585185Y-25953123D01*
X35633202Y-25909679D01*
X35753220Y-25848528D01*
X35848528Y-25753220D01*
X35851049Y-25748271D01*
X35899021Y-25697476D01*
X35966841Y-25680679D01*
X36023533Y-25697177D01*
X36056814Y-25716392D01*
X36184108Y-25750500D01*
X36184110Y-25750500D01*
X36315890Y-25750500D01*
X36315892Y-25750500D01*
X36443186Y-25716392D01*
X36557314Y-25650500D01*
X36650500Y-25557314D01*
X36716392Y-25443186D01*
X36750500Y-25315892D01*
X36750500Y-25184108D01*
X36716392Y-25056814D01*
X36650500Y-24942686D01*
X36557314Y-24849500D01*
X36476466Y-24802822D01*
X36443187Y-24783608D01*
X36379539Y-24766554D01*
X36315892Y-24749500D01*
X36184108Y-24749500D01*
X36056811Y-24783608D01*
X36023533Y-24802822D01*
X35955632Y-24819293D01*
X35889606Y-24796441D01*
X35851050Y-24751730D01*
X35848528Y-24746780D01*
X35848524Y-24746776D01*
X35848523Y-24746774D01*
X35753225Y-24651476D01*
X35753221Y-24651473D01*
X35753220Y-24651472D01*
X35633126Y-24590281D01*
X35633124Y-24590280D01*
X35633121Y-24590279D01*
X35533493Y-24574500D01*
X35533488Y-24574500D01*
X35016512Y-24574500D01*
X35016507Y-24574500D01*
X34916878Y-24590279D01*
X34796778Y-24651473D01*
X34796774Y-24651476D01*
X34701476Y-24746774D01*
X34701473Y-24746778D01*
X34701472Y-24746780D01*
X34640281Y-24866874D01*
X34640280Y-24866876D01*
X34635851Y-24875570D01*
X34633579Y-24874412D01*
X34602233Y-24920241D01*
X34537871Y-24947431D01*
X34469026Y-24935507D01*
X34417557Y-24888256D01*
X34407571Y-24867570D01*
X34371186Y-24770018D01*
X34371184Y-24770015D01*
X34289329Y-24660670D01*
X34179984Y-24578815D01*
X34179983Y-24578814D01*
X34052010Y-24531083D01*
X33995428Y-24525000D01*
X33975000Y-24525000D01*
X33475000Y-24525000D01*
X33475000Y-24524999D01*
X33454579Y-24525000D01*
X33454560Y-24525001D01*
X33397993Y-24531081D01*
X33270018Y-24578813D01*
X33270015Y-24578815D01*
X33160670Y-24660670D01*
X33078815Y-24770015D01*
X33078814Y-24770016D01*
X33031083Y-24897989D01*
X33025000Y-24954571D01*
X26459568Y-24954571D01*
X26487215Y-24902847D01*
X26611314Y-24603246D01*
X26705449Y-24292923D01*
X26705451Y-24292913D01*
X26705454Y-24292902D01*
X26737399Y-24132295D01*
X26768714Y-23974868D01*
X26797835Y-23679196D01*
X40275001Y-23679196D01*
X40277851Y-23709606D01*
X40322653Y-23837645D01*
X40403207Y-23946792D01*
X40512354Y-24027346D01*
X40640397Y-24072149D01*
X40670778Y-24074998D01*
X40670806Y-24074999D01*
X41250000Y-24074999D01*
X41329196Y-24074999D01*
X41359606Y-24072148D01*
X41487645Y-24027346D01*
X41596792Y-23946792D01*
X41677346Y-23837645D01*
X41722149Y-23709604D01*
X41722149Y-23709600D01*
X41725000Y-23679206D01*
X41725000Y-23675000D01*
X41250000Y-23675000D01*
X41250000Y-24074999D01*
X40670806Y-24074999D01*
X40749999Y-24074998D01*
X40750000Y-24074998D01*
X40750000Y-23675000D01*
X40275001Y-23675000D01*
X40275001Y-23679196D01*
X26797835Y-23679196D01*
X26800500Y-23652143D01*
X26800500Y-23327857D01*
X26785030Y-23170793D01*
X40275000Y-23170793D01*
X40275000Y-23175000D01*
X40750000Y-23175000D01*
X41250000Y-23175000D01*
X41724999Y-23175000D01*
X41724999Y-23170803D01*
X41722148Y-23140393D01*
X41677346Y-23012354D01*
X41596792Y-22903207D01*
X41487645Y-22822653D01*
X41359602Y-22777850D01*
X41329207Y-22775000D01*
X41250000Y-22775000D01*
X41250000Y-23175000D01*
X40750000Y-23175000D01*
X40750000Y-22775000D01*
X40749999Y-22774999D01*
X40670804Y-22775000D01*
X40640393Y-22777851D01*
X40512354Y-22822653D01*
X40403207Y-22903207D01*
X40322653Y-23012354D01*
X40277850Y-23140395D01*
X40277850Y-23140399D01*
X40275000Y-23170793D01*
X26785030Y-23170793D01*
X26768714Y-23005132D01*
X26732417Y-22822653D01*
X26705454Y-22687097D01*
X26705451Y-22687086D01*
X26705450Y-22687083D01*
X26705449Y-22687077D01*
X26611314Y-22376754D01*
X26487215Y-22077153D01*
X26344041Y-21809295D01*
X26334353Y-21791169D01*
X26334352Y-21791167D01*
X26334347Y-21791158D01*
X26154183Y-21521524D01*
X25948458Y-21270847D01*
X25948457Y-21270846D01*
X25948453Y-21270841D01*
X25719158Y-21041546D01*
X25468481Y-20835821D01*
X25468480Y-20835820D01*
X25468476Y-20835817D01*
X25291554Y-20717601D01*
X25246750Y-20663990D01*
X25238043Y-20594665D01*
X25268197Y-20531638D01*
X25327640Y-20494918D01*
X25360446Y-20490500D01*
X62876000Y-20490500D01*
X62943039Y-20510185D01*
G37*
%TD.AperFunction*%
%TA.AperFunction,Conductor*%
G36*
X37880850Y-58845185D02*
G01*
X37901492Y-58861819D01*
X38658486Y-59618813D01*
X38752493Y-59712819D01*
X38785978Y-59774142D01*
X38780994Y-59843833D01*
X38739122Y-59899767D01*
X38673658Y-59924184D01*
X38664812Y-59924500D01*
X35436189Y-59924500D01*
X35369150Y-59904815D01*
X35348508Y-59888181D01*
X34497508Y-59037181D01*
X34464023Y-58975858D01*
X34469007Y-58906166D01*
X34510879Y-58850233D01*
X34576343Y-58825816D01*
X34585189Y-58825500D01*
X37813811Y-58825500D01*
X37880850Y-58845185D01*
G37*
%TD.AperFunction*%
%TA.AperFunction,Conductor*%
G36*
X29780703Y-46491476D02*
G01*
X29787181Y-46497508D01*
X29800138Y-46510465D01*
X29874361Y-46553318D01*
X29957147Y-46575500D01*
X42563811Y-46575500D01*
X42630850Y-46595185D01*
X42651492Y-46611819D01*
X44138181Y-48098507D01*
X44152884Y-48125434D01*
X44169477Y-48151253D01*
X44170368Y-48157453D01*
X44171666Y-48159830D01*
X44174500Y-48186188D01*
X44174500Y-48286394D01*
X44154815Y-48353433D01*
X44102011Y-48399188D01*
X44032853Y-48409132D01*
X43994206Y-48396879D01*
X43883126Y-48340281D01*
X43883124Y-48340280D01*
X43883121Y-48340279D01*
X43783493Y-48324500D01*
X43783488Y-48324500D01*
X43266512Y-48324500D01*
X43266507Y-48324500D01*
X43166878Y-48340279D01*
X43046778Y-48401473D01*
X43046774Y-48401476D01*
X42951476Y-48496774D01*
X42951473Y-48496778D01*
X42951472Y-48496780D01*
X42890281Y-48616874D01*
X42890280Y-48616876D01*
X42885851Y-48625570D01*
X42883579Y-48624412D01*
X42852233Y-48670241D01*
X42787871Y-48697431D01*
X42719026Y-48685507D01*
X42667557Y-48638256D01*
X42657571Y-48617570D01*
X42621186Y-48520018D01*
X42621184Y-48520015D01*
X42539329Y-48410670D01*
X42429984Y-48328815D01*
X42429983Y-48328814D01*
X42302010Y-48281083D01*
X42245428Y-48275000D01*
X42225000Y-48275000D01*
X42225000Y-51224999D01*
X42245433Y-51224999D01*
X42245439Y-51224998D01*
X42302007Y-51218918D01*
X42429981Y-51171186D01*
X42429984Y-51171184D01*
X42539329Y-51089329D01*
X42621184Y-50979984D01*
X42621186Y-50979981D01*
X42657571Y-50882429D01*
X42699442Y-50826495D01*
X42764906Y-50802078D01*
X42833179Y-50816930D01*
X42882585Y-50866335D01*
X42887304Y-50877281D01*
X42890280Y-50883122D01*
X42890281Y-50883126D01*
X42939633Y-50979984D01*
X42951473Y-51003221D01*
X42951476Y-51003225D01*
X43046774Y-51098523D01*
X43046778Y-51098526D01*
X43046780Y-51098528D01*
X43166874Y-51159719D01*
X43166876Y-51159719D01*
X43166878Y-51159720D01*
X43266507Y-51175500D01*
X43266512Y-51175500D01*
X43783493Y-51175500D01*
X43883121Y-51159720D01*
X43883121Y-51159719D01*
X43883126Y-51159719D01*
X44003220Y-51098528D01*
X44098528Y-51003220D01*
X44154584Y-50893203D01*
X44202558Y-50842409D01*
X44227408Y-50831357D01*
X44245782Y-50825500D01*
X44292853Y-50825500D01*
X44375639Y-50803318D01*
X44449862Y-50760465D01*
X44449890Y-50760436D01*
X44462688Y-50756357D01*
X44479972Y-50755959D01*
X44500348Y-50750500D01*
X44565890Y-50750500D01*
X44565892Y-50750500D01*
X44693186Y-50716392D01*
X44738500Y-50690229D01*
X44806399Y-50673757D01*
X44872426Y-50696609D01*
X44915617Y-50751530D01*
X44924500Y-50797617D01*
X44924500Y-51300500D01*
X44904815Y-51367539D01*
X44852011Y-51413294D01*
X44800500Y-51424500D01*
X44186602Y-51424500D01*
X44109881Y-51439760D01*
X44109879Y-51439761D01*
X44022888Y-51497888D01*
X43964760Y-51584883D01*
X43964758Y-51584887D01*
X43949500Y-51661595D01*
X43949500Y-51838398D01*
X43965797Y-51920329D01*
X43959568Y-51989921D01*
X43956561Y-51996924D01*
X43905991Y-52105370D01*
X43905990Y-52105375D01*
X43903406Y-52124998D01*
X43903408Y-52125000D01*
X44426000Y-52125000D01*
X44434685Y-52127550D01*
X44443647Y-52126262D01*
X44467687Y-52137240D01*
X44493039Y-52144685D01*
X44498966Y-52151525D01*
X44507203Y-52155287D01*
X44521492Y-52177521D01*
X44538794Y-52197489D01*
X44541081Y-52208003D01*
X44544977Y-52214065D01*
X44550000Y-52249000D01*
X44550000Y-52251000D01*
X44530315Y-52318039D01*
X44477511Y-52363794D01*
X44426000Y-52375000D01*
X43903408Y-52375000D01*
X43897041Y-52382260D01*
X43838038Y-52419683D01*
X43803813Y-52424500D01*
X43593074Y-52424500D01*
X43526035Y-52404815D01*
X43480280Y-52352011D01*
X43473299Y-52332593D01*
X43469399Y-52318039D01*
X43466392Y-52306814D01*
X43400500Y-52192686D01*
X43307314Y-52099500D01*
X43239314Y-52060240D01*
X43193187Y-52033608D01*
X43129539Y-52016554D01*
X43065892Y-51999500D01*
X42934108Y-51999500D01*
X42824063Y-52028986D01*
X42754213Y-52027323D01*
X42696351Y-51988160D01*
X42669497Y-51928608D01*
X42659720Y-51866878D01*
X42659719Y-51866876D01*
X42659719Y-51866874D01*
X42598528Y-51746780D01*
X42598526Y-51746778D01*
X42598523Y-51746774D01*
X42503225Y-51651476D01*
X42503221Y-51651473D01*
X42503220Y-51651472D01*
X42383126Y-51590281D01*
X42383124Y-51590280D01*
X42383121Y-51590279D01*
X42283493Y-51574500D01*
X42283488Y-51574500D01*
X41766512Y-51574500D01*
X41766507Y-51574500D01*
X41666878Y-51590279D01*
X41546778Y-51651473D01*
X41546774Y-51651476D01*
X41451476Y-51746774D01*
X41451473Y-51746778D01*
X41451472Y-51746780D01*
X41390281Y-51866874D01*
X41390280Y-51866876D01*
X41385851Y-51875570D01*
X41383579Y-51874412D01*
X41352233Y-51920241D01*
X41287871Y-51947431D01*
X41219026Y-51935507D01*
X41167557Y-51888256D01*
X41157571Y-51867570D01*
X41121186Y-51770018D01*
X41121184Y-51770015D01*
X41039329Y-51660670D01*
X40929984Y-51578815D01*
X40929983Y-51578814D01*
X40802010Y-51531083D01*
X40745428Y-51525000D01*
X40725000Y-51525000D01*
X40725000Y-52126000D01*
X40705315Y-52193039D01*
X40652511Y-52238794D01*
X40601000Y-52250000D01*
X40475000Y-52250000D01*
X40475000Y-52376000D01*
X40455315Y-52443039D01*
X40402511Y-52488794D01*
X40351000Y-52500000D01*
X39775001Y-52500000D01*
X39775001Y-52545439D01*
X39781081Y-52602007D01*
X39828813Y-52729981D01*
X39828815Y-52729984D01*
X39910669Y-52839328D01*
X39996160Y-52903325D01*
X40038031Y-52959259D01*
X40043016Y-53028950D01*
X40036413Y-53050041D01*
X40033609Y-53056810D01*
X40033608Y-53056814D01*
X39999500Y-53184108D01*
X39999500Y-53315892D01*
X40010229Y-53355935D01*
X40033608Y-53443187D01*
X40035743Y-53446884D01*
X40099500Y-53557314D01*
X40192686Y-53650500D01*
X40306814Y-53716392D01*
X40434108Y-53750500D01*
X40488811Y-53750500D01*
X40555850Y-53770185D01*
X40576492Y-53786819D01*
X40921484Y-54131810D01*
X41239533Y-54449859D01*
X41239535Y-54449862D01*
X41300138Y-54510465D01*
X41356236Y-54542853D01*
X41374362Y-54553318D01*
X41457148Y-54575501D01*
X41457150Y-54575501D01*
X41550449Y-54575501D01*
X41550465Y-54575500D01*
X41652383Y-54575500D01*
X41719422Y-54595185D01*
X41765177Y-54647989D01*
X41775121Y-54717147D01*
X41759770Y-54761501D01*
X41733608Y-54806813D01*
X41708604Y-54900130D01*
X41699500Y-54934108D01*
X41699500Y-55065892D01*
X41706550Y-55092205D01*
X41720775Y-55145291D01*
X41725000Y-55177384D01*
X41725000Y-57126000D01*
X41705315Y-57193039D01*
X41652511Y-57238794D01*
X41601000Y-57250000D01*
X41349000Y-57250000D01*
X41281961Y-57230315D01*
X41236206Y-57177511D01*
X41225000Y-57126000D01*
X41225000Y-56000000D01*
X40775001Y-56000000D01*
X40775001Y-56045439D01*
X40781081Y-56102007D01*
X40828813Y-56229981D01*
X40828815Y-56229984D01*
X40910670Y-56339329D01*
X40992695Y-56400733D01*
X41034566Y-56456667D01*
X41039550Y-56526359D01*
X41006065Y-56587682D01*
X40992695Y-56599267D01*
X40910670Y-56660670D01*
X40828815Y-56770015D01*
X40828814Y-56770016D01*
X40781083Y-56897989D01*
X40775000Y-56954571D01*
X40775000Y-57017824D01*
X40755315Y-57084863D01*
X40702511Y-57130618D01*
X40633353Y-57140562D01*
X40569797Y-57111537D01*
X40563319Y-57105505D01*
X40557316Y-57099502D01*
X40557314Y-57099500D01*
X40483380Y-57056814D01*
X40443187Y-57033608D01*
X40379539Y-57016554D01*
X40315892Y-56999500D01*
X40184108Y-56999500D01*
X40056812Y-57033608D01*
X39942686Y-57099500D01*
X39942683Y-57099502D01*
X39849502Y-57192683D01*
X39849500Y-57192686D01*
X39783607Y-57306814D01*
X39782881Y-57309526D01*
X39781645Y-57311553D01*
X39780500Y-57314318D01*
X39780068Y-57314139D01*
X39746510Y-57369182D01*
X39683660Y-57399705D01*
X39614285Y-57391403D01*
X39575428Y-57365101D01*
X38949864Y-56739537D01*
X38949862Y-56739535D01*
X38893765Y-56707147D01*
X38875640Y-56696682D01*
X38821743Y-56682241D01*
X38792853Y-56674500D01*
X38792852Y-56674500D01*
X36843074Y-56674500D01*
X36776035Y-56654815D01*
X36730280Y-56602011D01*
X36723299Y-56582593D01*
X36722913Y-56581154D01*
X36716392Y-56556814D01*
X36650500Y-56442686D01*
X36557314Y-56349500D01*
X36471822Y-56300141D01*
X36443187Y-56283608D01*
X36379539Y-56266554D01*
X36315892Y-56249500D01*
X36184108Y-56249500D01*
X36056812Y-56283608D01*
X35942686Y-56349500D01*
X35942683Y-56349502D01*
X35849498Y-56442687D01*
X35848370Y-56444158D01*
X35847102Y-56445083D01*
X35843753Y-56448433D01*
X35843230Y-56447910D01*
X35791940Y-56485356D01*
X35722193Y-56489506D01*
X35661275Y-56455289D01*
X35651630Y-56444158D01*
X35650501Y-56442687D01*
X35557316Y-56349502D01*
X35557314Y-56349500D01*
X35471822Y-56300141D01*
X35443187Y-56283608D01*
X35379539Y-56266554D01*
X35315892Y-56249500D01*
X35184108Y-56249500D01*
X35056814Y-56283608D01*
X35056813Y-56283608D01*
X35056811Y-56283609D01*
X35056810Y-56283609D01*
X34940857Y-56350555D01*
X34872957Y-56367028D01*
X34806930Y-56344175D01*
X34791176Y-56330849D01*
X33914898Y-55454571D01*
X40775000Y-55454571D01*
X40775000Y-55500000D01*
X41225000Y-55500000D01*
X41225000Y-55024999D01*
X41204579Y-55025000D01*
X41204560Y-55025001D01*
X41147993Y-55031081D01*
X41020018Y-55078813D01*
X41020015Y-55078815D01*
X40910670Y-55160670D01*
X40828815Y-55270015D01*
X40828814Y-55270016D01*
X40781083Y-55397989D01*
X40775000Y-55454571D01*
X33914898Y-55454571D01*
X30611819Y-52151492D01*
X30597115Y-52124564D01*
X30580523Y-52098746D01*
X30579631Y-52092545D01*
X30578334Y-52090169D01*
X30575500Y-52063811D01*
X30575500Y-51954571D01*
X39775000Y-51954571D01*
X39775000Y-52000000D01*
X40225000Y-52000000D01*
X40225000Y-51524999D01*
X40204579Y-51525000D01*
X40204560Y-51525001D01*
X40147993Y-51531081D01*
X40020018Y-51578813D01*
X40020015Y-51578815D01*
X39910670Y-51660670D01*
X39828815Y-51770015D01*
X39828814Y-51770016D01*
X39781083Y-51897989D01*
X39775000Y-51954571D01*
X30575500Y-51954571D01*
X30575500Y-50795439D01*
X41275001Y-50795439D01*
X41281081Y-50852007D01*
X41328813Y-50979981D01*
X41328815Y-50979984D01*
X41410670Y-51089329D01*
X41520015Y-51171184D01*
X41520016Y-51171185D01*
X41647991Y-51218917D01*
X41647995Y-51218918D01*
X41704554Y-51224999D01*
X41725000Y-51224998D01*
X41725000Y-50750000D01*
X41275001Y-50750000D01*
X41275001Y-50795439D01*
X30575500Y-50795439D01*
X30575500Y-50204571D01*
X41275000Y-50204571D01*
X41275000Y-50250000D01*
X41725000Y-50250000D01*
X41725000Y-49250000D01*
X41275001Y-49250000D01*
X41275001Y-49295439D01*
X41281081Y-49352007D01*
X41328813Y-49479981D01*
X41328815Y-49479984D01*
X41410670Y-49589329D01*
X41492695Y-49650733D01*
X41534566Y-49706667D01*
X41539550Y-49776359D01*
X41506065Y-49837682D01*
X41492695Y-49849267D01*
X41410670Y-49910670D01*
X41328815Y-50020015D01*
X41328814Y-50020016D01*
X41281083Y-50147989D01*
X41275000Y-50204571D01*
X30575500Y-50204571D01*
X30575500Y-48704571D01*
X41275000Y-48704571D01*
X41275000Y-48750000D01*
X41725000Y-48750000D01*
X41725000Y-48274999D01*
X41704579Y-48275000D01*
X41704560Y-48275001D01*
X41647993Y-48281081D01*
X41520018Y-48328813D01*
X41520015Y-48328815D01*
X41410670Y-48410670D01*
X41328815Y-48520015D01*
X41328814Y-48520016D01*
X41281083Y-48647989D01*
X41275000Y-48704571D01*
X30575500Y-48704571D01*
X30575500Y-48302855D01*
X30575501Y-48302842D01*
X30575501Y-48207149D01*
X30570952Y-48190172D01*
X30553318Y-48124362D01*
X30532522Y-48088342D01*
X30510465Y-48050138D01*
X30449862Y-47989535D01*
X30449859Y-47989533D01*
X30047680Y-47587354D01*
X29611819Y-47151492D01*
X29578334Y-47090169D01*
X29575500Y-47063811D01*
X29575500Y-46585189D01*
X29595185Y-46518150D01*
X29647989Y-46472395D01*
X29717147Y-46462451D01*
X29780703Y-46491476D01*
G37*
%TD.AperFunction*%
%TA.AperFunction,Conductor*%
G36*
X44867539Y-55595184D02*
G01*
X44913294Y-55647988D01*
X44924500Y-55699499D01*
X44924500Y-56406925D01*
X44904815Y-56473964D01*
X44852011Y-56519719D01*
X44832596Y-56526699D01*
X44806814Y-56533607D01*
X44692686Y-56599500D01*
X44692683Y-56599502D01*
X44599502Y-56692683D01*
X44599500Y-56692686D01*
X44533607Y-56806814D01*
X44533606Y-56806817D01*
X44532350Y-56811505D01*
X44495981Y-56871163D01*
X44433131Y-56901687D01*
X44363756Y-56893386D01*
X44324897Y-56867083D01*
X44307316Y-56849502D01*
X44307314Y-56849500D01*
X44226466Y-56802822D01*
X44193187Y-56783608D01*
X44129539Y-56766554D01*
X44065892Y-56749500D01*
X43934108Y-56749500D01*
X43806811Y-56783608D01*
X43773533Y-56802822D01*
X43705632Y-56819293D01*
X43639606Y-56796441D01*
X43601050Y-56751730D01*
X43598528Y-56746780D01*
X43598524Y-56746776D01*
X43598523Y-56746774D01*
X43503225Y-56651476D01*
X43503221Y-56651473D01*
X43503220Y-56651472D01*
X43501089Y-56650386D01*
X43422776Y-56610483D01*
X43371981Y-56562509D01*
X43355186Y-56494687D01*
X43377724Y-56428553D01*
X43422774Y-56389517D01*
X43503220Y-56348528D01*
X43598528Y-56253220D01*
X43659719Y-56133126D01*
X43659720Y-56133121D01*
X43675500Y-56033493D01*
X43675500Y-55699500D01*
X43695185Y-55632461D01*
X43747989Y-55586706D01*
X43799500Y-55575500D01*
X44607287Y-55575500D01*
X44607295Y-55575499D01*
X44800500Y-55575499D01*
X44867539Y-55595184D01*
G37*
%TD.AperFunction*%
%TA.AperFunction,Conductor*%
G36*
X28020850Y-54235185D02*
G01*
X28041492Y-54251819D01*
X29047492Y-55257819D01*
X29080977Y-55319142D01*
X29075993Y-55388834D01*
X29034121Y-55444767D01*
X28968657Y-55469184D01*
X28959811Y-55469500D01*
X25821188Y-55469500D01*
X25754149Y-55449815D01*
X25733507Y-55433181D01*
X25452507Y-55152181D01*
X25419022Y-55090858D01*
X25424006Y-55021166D01*
X25465878Y-54965233D01*
X25531342Y-54940816D01*
X25540188Y-54940500D01*
X27139750Y-54940500D01*
X27139751Y-54940499D01*
X27154568Y-54937552D01*
X27198229Y-54928868D01*
X27198229Y-54928867D01*
X27198231Y-54928867D01*
X27264552Y-54884552D01*
X27308867Y-54818231D01*
X27308867Y-54818229D01*
X27308868Y-54818229D01*
X27320499Y-54759752D01*
X27320500Y-54759750D01*
X27320500Y-54339500D01*
X27340185Y-54272461D01*
X27392989Y-54226706D01*
X27444500Y-54215500D01*
X27953811Y-54215500D01*
X28020850Y-54235185D01*
G37*
%TD.AperFunction*%
%TA.AperFunction,Conductor*%
G36*
X50143039Y-49469685D02*
G01*
X50188794Y-49522489D01*
X50200000Y-49574000D01*
X50200000Y-50149999D01*
X50204196Y-50149999D01*
X50234606Y-50147148D01*
X50362644Y-50102346D01*
X50463844Y-50027657D01*
X50479988Y-50021760D01*
X50493708Y-50011409D01*
X50512124Y-50010022D01*
X50529472Y-50003686D01*
X50546557Y-50007429D01*
X50563381Y-50006163D01*
X50585228Y-50015903D01*
X50596496Y-50018372D01*
X50608448Y-50024840D01*
X50611658Y-50028050D01*
X50658189Y-50051758D01*
X50659518Y-50052478D01*
X50683268Y-50076050D01*
X50707591Y-50099023D01*
X50708023Y-50100621D01*
X50709108Y-50101698D01*
X50712691Y-50117879D01*
X50724500Y-50161533D01*
X50724500Y-50263811D01*
X50704815Y-50330850D01*
X50688181Y-50351492D01*
X49651492Y-51388181D01*
X49590169Y-51421666D01*
X49563811Y-51424500D01*
X49199500Y-51424500D01*
X49132461Y-51404815D01*
X49086706Y-51352011D01*
X49075500Y-51300500D01*
X49075500Y-49864685D01*
X49095185Y-49797646D01*
X49147989Y-49751891D01*
X49217147Y-49741947D01*
X49280703Y-49770972D01*
X49316542Y-49823731D01*
X49347653Y-49912645D01*
X49428207Y-50021792D01*
X49537354Y-50102346D01*
X49665397Y-50147149D01*
X49695793Y-50149999D01*
X49699999Y-50149999D01*
X49700000Y-50149998D01*
X49700000Y-49574000D01*
X49719685Y-49506961D01*
X49772489Y-49461206D01*
X49824000Y-49450000D01*
X50076000Y-49450000D01*
X50143039Y-49469685D01*
G37*
%TD.AperFunction*%
%TA.AperFunction,Conductor*%
G36*
X27630850Y-40265185D02*
G01*
X27651492Y-40281819D01*
X27888181Y-40518507D01*
X27921666Y-40579830D01*
X27924500Y-40606188D01*
X27924500Y-42010500D01*
X27904815Y-42077539D01*
X27852011Y-42123294D01*
X27800500Y-42134500D01*
X27180497Y-42134500D01*
X27113458Y-42114815D01*
X27067703Y-42062011D01*
X27057759Y-41992853D01*
X27086784Y-41929297D01*
X27092816Y-41922819D01*
X27109032Y-41906602D01*
X27210804Y-41766524D01*
X27289408Y-41612255D01*
X27342914Y-41447584D01*
X27344115Y-41440000D01*
X26703012Y-41440000D01*
X26735925Y-41382993D01*
X26770000Y-41255826D01*
X26770000Y-41124174D01*
X26735925Y-40997007D01*
X26703012Y-40940000D01*
X27344115Y-40940000D01*
X27344115Y-40939999D01*
X27342914Y-40932415D01*
X27289408Y-40767744D01*
X27210804Y-40613475D01*
X27109032Y-40473397D01*
X27092816Y-40457181D01*
X27059331Y-40395858D01*
X27064315Y-40326166D01*
X27106187Y-40270233D01*
X27171651Y-40245816D01*
X27180497Y-40245500D01*
X27563811Y-40245500D01*
X27630850Y-40265185D01*
G37*
%TD.AperFunction*%
%TD*%
M02*
