%TF.GenerationSoftware,KiCad,Pcbnew,10.0.3*%
%TF.CreationDate,2026-06-27T21:23:17+01:00*%
%TF.ProjectId,Comms,436f6d6d-732e-46b6-9963-61645f706362,rev?*%
%TF.SameCoordinates,Original*%
%TF.FileFunction,Legend,Top*%
%TF.FilePolarity,Positive*%
%FSLAX46Y46*%
G04 Gerber Fmt 4.6, Leading zero omitted, Abs format (unit mm)*
G04 Created by KiCad (PCBNEW 10.0.3) date 2026-06-27 21:23:17*
%MOMM*%
%LPD*%
G01*
G04 APERTURE LIST*
%ADD10C,0.120000*%
%ADD11C,0.150000*%
%ADD12C,0.100000*%
%ADD13C,0.000000*%
%ADD14C,0.075000*%
G04 APERTURE END LIST*
D10*
X37150000Y-45300000D02*
X37150000Y-46700000D01*
X37150000Y-58600000D02*
X37150000Y-48200000D01*
X37150000Y-60100000D02*
X37150000Y-61500000D01*
X39150000Y-43400000D02*
X40550000Y-43400000D01*
X39150000Y-63400000D02*
X40550000Y-63400000D01*
X39730000Y-25720000D02*
X40080000Y-26070000D01*
X40355000Y-29020000D02*
X40155000Y-29220000D01*
X42050000Y-43400000D02*
X46050000Y-43400000D01*
X46050000Y-63400000D02*
X42050000Y-63400000D01*
X53250000Y-43400000D02*
X57400000Y-43400000D01*
X57350000Y-63400000D02*
X53250000Y-63400000D01*
X58800000Y-43400000D02*
X60300000Y-43400000D01*
X60250000Y-63400000D02*
X58850000Y-63400000D01*
X62150000Y-45300000D02*
X62150000Y-46700000D01*
X62150000Y-48200000D02*
X62150000Y-58600000D01*
X62150000Y-60100000D02*
X62150000Y-61500000D01*
D11*
X65744875Y-37063220D02*
X64744875Y-37063220D01*
X65744875Y-36491792D02*
X65173446Y-36920363D01*
X64744875Y-36491792D02*
X65316303Y-37063220D01*
X64744875Y-36206077D02*
X64744875Y-35634649D01*
X65744875Y-35920363D02*
X64744875Y-35920363D01*
X65459160Y-35348934D02*
X65459160Y-34872744D01*
X65744875Y-35444172D02*
X64744875Y-35110839D01*
X64744875Y-35110839D02*
X65744875Y-34777506D01*
X65744875Y-34444172D02*
X64744875Y-34444172D01*
X64744875Y-34444172D02*
X65744875Y-33872744D01*
X65744875Y-33872744D02*
X64744875Y-33872744D01*
X65221065Y-33396553D02*
X65221065Y-33063220D01*
X65744875Y-32920363D02*
X65744875Y-33396553D01*
X65744875Y-33396553D02*
X64744875Y-33396553D01*
X64744875Y-33396553D02*
X64744875Y-32920363D01*
X65744875Y-31729886D02*
X64744875Y-31729886D01*
X65744875Y-30682268D02*
X65268684Y-31015601D01*
X65744875Y-31253696D02*
X64744875Y-31253696D01*
X64744875Y-31253696D02*
X64744875Y-30872744D01*
X64744875Y-30872744D02*
X64792494Y-30777506D01*
X64792494Y-30777506D02*
X64840113Y-30729887D01*
X64840113Y-30729887D02*
X64935351Y-30682268D01*
X64935351Y-30682268D02*
X65078208Y-30682268D01*
X65078208Y-30682268D02*
X65173446Y-30729887D01*
X65173446Y-30729887D02*
X65221065Y-30777506D01*
X65221065Y-30777506D02*
X65268684Y-30872744D01*
X65268684Y-30872744D02*
X65268684Y-31253696D01*
X65744875Y-29777506D02*
X65744875Y-30253696D01*
X65744875Y-30253696D02*
X64744875Y-30253696D01*
X67354819Y-37063220D02*
X66354819Y-37063220D01*
X66735771Y-37063220D02*
X66688152Y-36967982D01*
X66688152Y-36967982D02*
X66688152Y-36777506D01*
X66688152Y-36777506D02*
X66735771Y-36682268D01*
X66735771Y-36682268D02*
X66783390Y-36634649D01*
X66783390Y-36634649D02*
X66878628Y-36587030D01*
X66878628Y-36587030D02*
X67164342Y-36587030D01*
X67164342Y-36587030D02*
X67259580Y-36634649D01*
X67259580Y-36634649D02*
X67307200Y-36682268D01*
X67307200Y-36682268D02*
X67354819Y-36777506D01*
X67354819Y-36777506D02*
X67354819Y-36967982D01*
X67354819Y-36967982D02*
X67307200Y-37063220D01*
X66688152Y-36253696D02*
X67354819Y-36015601D01*
X66688152Y-35777506D02*
X67354819Y-36015601D01*
X67354819Y-36015601D02*
X67592914Y-36110839D01*
X67592914Y-36110839D02*
X67640533Y-36158458D01*
X67640533Y-36158458D02*
X67688152Y-36253696D01*
X67354819Y-34634648D02*
X66354819Y-34634648D01*
X66354819Y-34634648D02*
X67069104Y-34301315D01*
X67069104Y-34301315D02*
X66354819Y-33967982D01*
X66354819Y-33967982D02*
X67354819Y-33967982D01*
X67307200Y-33110839D02*
X67354819Y-33206077D01*
X67354819Y-33206077D02*
X67354819Y-33396553D01*
X67354819Y-33396553D02*
X67307200Y-33491791D01*
X67307200Y-33491791D02*
X67211961Y-33539410D01*
X67211961Y-33539410D02*
X66831009Y-33539410D01*
X66831009Y-33539410D02*
X66735771Y-33491791D01*
X66735771Y-33491791D02*
X66688152Y-33396553D01*
X66688152Y-33396553D02*
X66688152Y-33206077D01*
X66688152Y-33206077D02*
X66735771Y-33110839D01*
X66735771Y-33110839D02*
X66831009Y-33063220D01*
X66831009Y-33063220D02*
X66926247Y-33063220D01*
X66926247Y-33063220D02*
X67021485Y-33539410D01*
X67354819Y-32491791D02*
X67307200Y-32587029D01*
X67307200Y-32587029D02*
X67211961Y-32634648D01*
X67211961Y-32634648D02*
X66354819Y-32634648D01*
X67354819Y-31682267D02*
X66831009Y-31682267D01*
X66831009Y-31682267D02*
X66735771Y-31729886D01*
X66735771Y-31729886D02*
X66688152Y-31825124D01*
X66688152Y-31825124D02*
X66688152Y-32015600D01*
X66688152Y-32015600D02*
X66735771Y-32110838D01*
X67307200Y-31682267D02*
X67354819Y-31777505D01*
X67354819Y-31777505D02*
X67354819Y-32015600D01*
X67354819Y-32015600D02*
X67307200Y-32110838D01*
X67307200Y-32110838D02*
X67211961Y-32158457D01*
X67211961Y-32158457D02*
X67116723Y-32158457D01*
X67116723Y-32158457D02*
X67021485Y-32110838D01*
X67021485Y-32110838D02*
X66973866Y-32015600D01*
X66973866Y-32015600D02*
X66973866Y-31777505D01*
X66973866Y-31777505D02*
X66926247Y-31682267D01*
X67354819Y-31206076D02*
X66688152Y-31206076D01*
X66354819Y-31206076D02*
X66402438Y-31253695D01*
X66402438Y-31253695D02*
X66450057Y-31206076D01*
X66450057Y-31206076D02*
X66402438Y-31158457D01*
X66402438Y-31158457D02*
X66354819Y-31206076D01*
X66354819Y-31206076D02*
X66450057Y-31206076D01*
X67354819Y-30729886D02*
X66688152Y-30729886D01*
X66878628Y-30729886D02*
X66783390Y-30682267D01*
X66783390Y-30682267D02*
X66735771Y-30634648D01*
X66735771Y-30634648D02*
X66688152Y-30539410D01*
X66688152Y-30539410D02*
X66688152Y-30444172D01*
X68869524Y-36491792D02*
X68917144Y-36539411D01*
X68917144Y-36539411D02*
X68964763Y-36682268D01*
X68964763Y-36682268D02*
X68964763Y-36777506D01*
X68964763Y-36777506D02*
X68917144Y-36920363D01*
X68917144Y-36920363D02*
X68821905Y-37015601D01*
X68821905Y-37015601D02*
X68726667Y-37063220D01*
X68726667Y-37063220D02*
X68536191Y-37110839D01*
X68536191Y-37110839D02*
X68393334Y-37110839D01*
X68393334Y-37110839D02*
X68202858Y-37063220D01*
X68202858Y-37063220D02*
X68107620Y-37015601D01*
X68107620Y-37015601D02*
X68012382Y-36920363D01*
X68012382Y-36920363D02*
X67964763Y-36777506D01*
X67964763Y-36777506D02*
X67964763Y-36682268D01*
X67964763Y-36682268D02*
X68012382Y-36539411D01*
X68012382Y-36539411D02*
X68060001Y-36491792D01*
X68964763Y-35920363D02*
X68917144Y-36015601D01*
X68917144Y-36015601D02*
X68869524Y-36063220D01*
X68869524Y-36063220D02*
X68774286Y-36110839D01*
X68774286Y-36110839D02*
X68488572Y-36110839D01*
X68488572Y-36110839D02*
X68393334Y-36063220D01*
X68393334Y-36063220D02*
X68345715Y-36015601D01*
X68345715Y-36015601D02*
X68298096Y-35920363D01*
X68298096Y-35920363D02*
X68298096Y-35777506D01*
X68298096Y-35777506D02*
X68345715Y-35682268D01*
X68345715Y-35682268D02*
X68393334Y-35634649D01*
X68393334Y-35634649D02*
X68488572Y-35587030D01*
X68488572Y-35587030D02*
X68774286Y-35587030D01*
X68774286Y-35587030D02*
X68869524Y-35634649D01*
X68869524Y-35634649D02*
X68917144Y-35682268D01*
X68917144Y-35682268D02*
X68964763Y-35777506D01*
X68964763Y-35777506D02*
X68964763Y-35920363D01*
X68964763Y-35158458D02*
X68298096Y-35158458D01*
X68393334Y-35158458D02*
X68345715Y-35110839D01*
X68345715Y-35110839D02*
X68298096Y-35015601D01*
X68298096Y-35015601D02*
X68298096Y-34872744D01*
X68298096Y-34872744D02*
X68345715Y-34777506D01*
X68345715Y-34777506D02*
X68440953Y-34729887D01*
X68440953Y-34729887D02*
X68964763Y-34729887D01*
X68440953Y-34729887D02*
X68345715Y-34682268D01*
X68345715Y-34682268D02*
X68298096Y-34587030D01*
X68298096Y-34587030D02*
X68298096Y-34444173D01*
X68298096Y-34444173D02*
X68345715Y-34348934D01*
X68345715Y-34348934D02*
X68440953Y-34301315D01*
X68440953Y-34301315D02*
X68964763Y-34301315D01*
X68964763Y-33825125D02*
X68298096Y-33825125D01*
X68393334Y-33825125D02*
X68345715Y-33777506D01*
X68345715Y-33777506D02*
X68298096Y-33682268D01*
X68298096Y-33682268D02*
X68298096Y-33539411D01*
X68298096Y-33539411D02*
X68345715Y-33444173D01*
X68345715Y-33444173D02*
X68440953Y-33396554D01*
X68440953Y-33396554D02*
X68964763Y-33396554D01*
X68440953Y-33396554D02*
X68345715Y-33348935D01*
X68345715Y-33348935D02*
X68298096Y-33253697D01*
X68298096Y-33253697D02*
X68298096Y-33110840D01*
X68298096Y-33110840D02*
X68345715Y-33015601D01*
X68345715Y-33015601D02*
X68440953Y-32967982D01*
X68440953Y-32967982D02*
X68964763Y-32967982D01*
X68917144Y-32539411D02*
X68964763Y-32444173D01*
X68964763Y-32444173D02*
X68964763Y-32253697D01*
X68964763Y-32253697D02*
X68917144Y-32158459D01*
X68917144Y-32158459D02*
X68821905Y-32110840D01*
X68821905Y-32110840D02*
X68774286Y-32110840D01*
X68774286Y-32110840D02*
X68679048Y-32158459D01*
X68679048Y-32158459D02*
X68631429Y-32253697D01*
X68631429Y-32253697D02*
X68631429Y-32396554D01*
X68631429Y-32396554D02*
X68583810Y-32491792D01*
X68583810Y-32491792D02*
X68488572Y-32539411D01*
X68488572Y-32539411D02*
X68440953Y-32539411D01*
X68440953Y-32539411D02*
X68345715Y-32491792D01*
X68345715Y-32491792D02*
X68298096Y-32396554D01*
X68298096Y-32396554D02*
X68298096Y-32253697D01*
X68298096Y-32253697D02*
X68345715Y-32158459D01*
X69345715Y-30634649D02*
X69298096Y-30682268D01*
X69298096Y-30682268D02*
X69155239Y-30777506D01*
X69155239Y-30777506D02*
X69060001Y-30825125D01*
X69060001Y-30825125D02*
X68917144Y-30872744D01*
X68917144Y-30872744D02*
X68679048Y-30920363D01*
X68679048Y-30920363D02*
X68488572Y-30920363D01*
X68488572Y-30920363D02*
X68250477Y-30872744D01*
X68250477Y-30872744D02*
X68107620Y-30825125D01*
X68107620Y-30825125D02*
X68012382Y-30777506D01*
X68012382Y-30777506D02*
X67869524Y-30682268D01*
X67869524Y-30682268D02*
X67821905Y-30634649D01*
X68869524Y-29682268D02*
X68917144Y-29729887D01*
X68917144Y-29729887D02*
X68964763Y-29872744D01*
X68964763Y-29872744D02*
X68964763Y-29967982D01*
X68964763Y-29967982D02*
X68917144Y-30110839D01*
X68917144Y-30110839D02*
X68821905Y-30206077D01*
X68821905Y-30206077D02*
X68726667Y-30253696D01*
X68726667Y-30253696D02*
X68536191Y-30301315D01*
X68536191Y-30301315D02*
X68393334Y-30301315D01*
X68393334Y-30301315D02*
X68202858Y-30253696D01*
X68202858Y-30253696D02*
X68107620Y-30206077D01*
X68107620Y-30206077D02*
X68012382Y-30110839D01*
X68012382Y-30110839D02*
X67964763Y-29967982D01*
X67964763Y-29967982D02*
X67964763Y-29872744D01*
X67964763Y-29872744D02*
X68012382Y-29729887D01*
X68012382Y-29729887D02*
X68060001Y-29682268D01*
X67964763Y-29063220D02*
X67964763Y-28967982D01*
X67964763Y-28967982D02*
X68012382Y-28872744D01*
X68012382Y-28872744D02*
X68060001Y-28825125D01*
X68060001Y-28825125D02*
X68155239Y-28777506D01*
X68155239Y-28777506D02*
X68345715Y-28729887D01*
X68345715Y-28729887D02*
X68583810Y-28729887D01*
X68583810Y-28729887D02*
X68774286Y-28777506D01*
X68774286Y-28777506D02*
X68869524Y-28825125D01*
X68869524Y-28825125D02*
X68917144Y-28872744D01*
X68917144Y-28872744D02*
X68964763Y-28967982D01*
X68964763Y-28967982D02*
X68964763Y-29063220D01*
X68964763Y-29063220D02*
X68917144Y-29158458D01*
X68917144Y-29158458D02*
X68869524Y-29206077D01*
X68869524Y-29206077D02*
X68774286Y-29253696D01*
X68774286Y-29253696D02*
X68583810Y-29301315D01*
X68583810Y-29301315D02*
X68345715Y-29301315D01*
X68345715Y-29301315D02*
X68155239Y-29253696D01*
X68155239Y-29253696D02*
X68060001Y-29206077D01*
X68060001Y-29206077D02*
X68012382Y-29158458D01*
X68012382Y-29158458D02*
X67964763Y-29063220D01*
X68964763Y-27777506D02*
X68964763Y-28348934D01*
X68964763Y-28063220D02*
X67964763Y-28063220D01*
X67964763Y-28063220D02*
X68107620Y-28158458D01*
X68107620Y-28158458D02*
X68202858Y-28253696D01*
X68202858Y-28253696D02*
X68250477Y-28348934D01*
X69345715Y-27444172D02*
X69298096Y-27396553D01*
X69298096Y-27396553D02*
X69155239Y-27301315D01*
X69155239Y-27301315D02*
X69060001Y-27253696D01*
X69060001Y-27253696D02*
X68917144Y-27206077D01*
X68917144Y-27206077D02*
X68679048Y-27158458D01*
X68679048Y-27158458D02*
X68488572Y-27158458D01*
X68488572Y-27158458D02*
X68250477Y-27206077D01*
X68250477Y-27206077D02*
X68107620Y-27253696D01*
X68107620Y-27253696D02*
X68012382Y-27301315D01*
X68012382Y-27301315D02*
X67869524Y-27396553D01*
X67869524Y-27396553D02*
X67821905Y-27444172D01*
X36761905Y-37704819D02*
X36761905Y-36704819D01*
X36761905Y-36704819D02*
X37000000Y-36704819D01*
X37000000Y-36704819D02*
X37142857Y-36752438D01*
X37142857Y-36752438D02*
X37238095Y-36847676D01*
X37238095Y-36847676D02*
X37285714Y-36942914D01*
X37285714Y-36942914D02*
X37333333Y-37133390D01*
X37333333Y-37133390D02*
X37333333Y-37276247D01*
X37333333Y-37276247D02*
X37285714Y-37466723D01*
X37285714Y-37466723D02*
X37238095Y-37561961D01*
X37238095Y-37561961D02*
X37142857Y-37657200D01*
X37142857Y-37657200D02*
X37000000Y-37704819D01*
X37000000Y-37704819D02*
X36761905Y-37704819D01*
X38285714Y-37704819D02*
X37714286Y-37704819D01*
X38000000Y-37704819D02*
X38000000Y-36704819D01*
X38000000Y-36704819D02*
X37904762Y-36847676D01*
X37904762Y-36847676D02*
X37809524Y-36942914D01*
X37809524Y-36942914D02*
X37714286Y-36990533D01*
X55704819Y-67133333D02*
X56419104Y-67133333D01*
X56419104Y-67133333D02*
X56561961Y-67180952D01*
X56561961Y-67180952D02*
X56657200Y-67276190D01*
X56657200Y-67276190D02*
X56704819Y-67419047D01*
X56704819Y-67419047D02*
X56704819Y-67514285D01*
X55800057Y-66704761D02*
X55752438Y-66657142D01*
X55752438Y-66657142D02*
X55704819Y-66561904D01*
X55704819Y-66561904D02*
X55704819Y-66323809D01*
X55704819Y-66323809D02*
X55752438Y-66228571D01*
X55752438Y-66228571D02*
X55800057Y-66180952D01*
X55800057Y-66180952D02*
X55895295Y-66133333D01*
X55895295Y-66133333D02*
X55990533Y-66133333D01*
X55990533Y-66133333D02*
X56133390Y-66180952D01*
X56133390Y-66180952D02*
X56704819Y-66752380D01*
X56704819Y-66752380D02*
X56704819Y-66133333D01*
X66819104Y-52466666D02*
X66819104Y-51990476D01*
X67104819Y-52561904D02*
X66104819Y-52228571D01*
X66104819Y-52228571D02*
X67104819Y-51895238D01*
X66581009Y-51561904D02*
X66581009Y-51228571D01*
X67104819Y-51085714D02*
X67104819Y-51561904D01*
X67104819Y-51561904D02*
X66104819Y-51561904D01*
X66104819Y-51561904D02*
X66104819Y-51085714D01*
X67104819Y-50133333D02*
X67104819Y-50704761D01*
X67104819Y-50419047D02*
X66104819Y-50419047D01*
X66104819Y-50419047D02*
X66247676Y-50514285D01*
X66247676Y-50514285D02*
X66342914Y-50609523D01*
X66342914Y-50609523D02*
X66390533Y-50704761D01*
X51533333Y-52074580D02*
X51485714Y-52122200D01*
X51485714Y-52122200D02*
X51342857Y-52169819D01*
X51342857Y-52169819D02*
X51247619Y-52169819D01*
X51247619Y-52169819D02*
X51104762Y-52122200D01*
X51104762Y-52122200D02*
X51009524Y-52026961D01*
X51009524Y-52026961D02*
X50961905Y-51931723D01*
X50961905Y-51931723D02*
X50914286Y-51741247D01*
X50914286Y-51741247D02*
X50914286Y-51598390D01*
X50914286Y-51598390D02*
X50961905Y-51407914D01*
X50961905Y-51407914D02*
X51009524Y-51312676D01*
X51009524Y-51312676D02*
X51104762Y-51217438D01*
X51104762Y-51217438D02*
X51247619Y-51169819D01*
X51247619Y-51169819D02*
X51342857Y-51169819D01*
X51342857Y-51169819D02*
X51485714Y-51217438D01*
X51485714Y-51217438D02*
X51533333Y-51265057D01*
X52390476Y-51169819D02*
X52200000Y-51169819D01*
X52200000Y-51169819D02*
X52104762Y-51217438D01*
X52104762Y-51217438D02*
X52057143Y-51265057D01*
X52057143Y-51265057D02*
X51961905Y-51407914D01*
X51961905Y-51407914D02*
X51914286Y-51598390D01*
X51914286Y-51598390D02*
X51914286Y-51979342D01*
X51914286Y-51979342D02*
X51961905Y-52074580D01*
X51961905Y-52074580D02*
X52009524Y-52122200D01*
X52009524Y-52122200D02*
X52104762Y-52169819D01*
X52104762Y-52169819D02*
X52295238Y-52169819D01*
X52295238Y-52169819D02*
X52390476Y-52122200D01*
X52390476Y-52122200D02*
X52438095Y-52074580D01*
X52438095Y-52074580D02*
X52485714Y-51979342D01*
X52485714Y-51979342D02*
X52485714Y-51741247D01*
X52485714Y-51741247D02*
X52438095Y-51646009D01*
X52438095Y-51646009D02*
X52390476Y-51598390D01*
X52390476Y-51598390D02*
X52295238Y-51550771D01*
X52295238Y-51550771D02*
X52104762Y-51550771D01*
X52104762Y-51550771D02*
X52009524Y-51598390D01*
X52009524Y-51598390D02*
X51961905Y-51646009D01*
X51961905Y-51646009D02*
X51914286Y-51741247D01*
X56444580Y-48642857D02*
X56492200Y-48690476D01*
X56492200Y-48690476D02*
X56539819Y-48833333D01*
X56539819Y-48833333D02*
X56539819Y-48928571D01*
X56539819Y-48928571D02*
X56492200Y-49071428D01*
X56492200Y-49071428D02*
X56396961Y-49166666D01*
X56396961Y-49166666D02*
X56301723Y-49214285D01*
X56301723Y-49214285D02*
X56111247Y-49261904D01*
X56111247Y-49261904D02*
X55968390Y-49261904D01*
X55968390Y-49261904D02*
X55777914Y-49214285D01*
X55777914Y-49214285D02*
X55682676Y-49166666D01*
X55682676Y-49166666D02*
X55587438Y-49071428D01*
X55587438Y-49071428D02*
X55539819Y-48928571D01*
X55539819Y-48928571D02*
X55539819Y-48833333D01*
X55539819Y-48833333D02*
X55587438Y-48690476D01*
X55587438Y-48690476D02*
X55635057Y-48642857D01*
X55635057Y-48261904D02*
X55587438Y-48214285D01*
X55587438Y-48214285D02*
X55539819Y-48119047D01*
X55539819Y-48119047D02*
X55539819Y-47880952D01*
X55539819Y-47880952D02*
X55587438Y-47785714D01*
X55587438Y-47785714D02*
X55635057Y-47738095D01*
X55635057Y-47738095D02*
X55730295Y-47690476D01*
X55730295Y-47690476D02*
X55825533Y-47690476D01*
X55825533Y-47690476D02*
X55968390Y-47738095D01*
X55968390Y-47738095D02*
X56539819Y-48309523D01*
X56539819Y-48309523D02*
X56539819Y-47690476D01*
X55539819Y-46833333D02*
X55539819Y-47023809D01*
X55539819Y-47023809D02*
X55587438Y-47119047D01*
X55587438Y-47119047D02*
X55635057Y-47166666D01*
X55635057Y-47166666D02*
X55777914Y-47261904D01*
X55777914Y-47261904D02*
X55968390Y-47309523D01*
X55968390Y-47309523D02*
X56349342Y-47309523D01*
X56349342Y-47309523D02*
X56444580Y-47261904D01*
X56444580Y-47261904D02*
X56492200Y-47214285D01*
X56492200Y-47214285D02*
X56539819Y-47119047D01*
X56539819Y-47119047D02*
X56539819Y-46928571D01*
X56539819Y-46928571D02*
X56492200Y-46833333D01*
X56492200Y-46833333D02*
X56444580Y-46785714D01*
X56444580Y-46785714D02*
X56349342Y-46738095D01*
X56349342Y-46738095D02*
X56111247Y-46738095D01*
X56111247Y-46738095D02*
X56016009Y-46785714D01*
X56016009Y-46785714D02*
X55968390Y-46833333D01*
X55968390Y-46833333D02*
X55920771Y-46928571D01*
X55920771Y-46928571D02*
X55920771Y-47119047D01*
X55920771Y-47119047D02*
X55968390Y-47214285D01*
X55968390Y-47214285D02*
X56016009Y-47261904D01*
X56016009Y-47261904D02*
X56111247Y-47309523D01*
X49488095Y-56539819D02*
X49488095Y-57349342D01*
X49488095Y-57349342D02*
X49535714Y-57444580D01*
X49535714Y-57444580D02*
X49583333Y-57492200D01*
X49583333Y-57492200D02*
X49678571Y-57539819D01*
X49678571Y-57539819D02*
X49869047Y-57539819D01*
X49869047Y-57539819D02*
X49964285Y-57492200D01*
X49964285Y-57492200D02*
X50011904Y-57444580D01*
X50011904Y-57444580D02*
X50059523Y-57349342D01*
X50059523Y-57349342D02*
X50059523Y-56539819D01*
X51059523Y-57539819D02*
X50488095Y-57539819D01*
X50773809Y-57539819D02*
X50773809Y-56539819D01*
X50773809Y-56539819D02*
X50678571Y-56682676D01*
X50678571Y-56682676D02*
X50583333Y-56777914D01*
X50583333Y-56777914D02*
X50488095Y-56825533D01*
X38556077Y-57609580D02*
X38508458Y-57657200D01*
X38508458Y-57657200D02*
X38365601Y-57704819D01*
X38365601Y-57704819D02*
X38270363Y-57704819D01*
X38270363Y-57704819D02*
X38127506Y-57657200D01*
X38127506Y-57657200D02*
X38032268Y-57561961D01*
X38032268Y-57561961D02*
X37984649Y-57466723D01*
X37984649Y-57466723D02*
X37937030Y-57276247D01*
X37937030Y-57276247D02*
X37937030Y-57133390D01*
X37937030Y-57133390D02*
X37984649Y-56942914D01*
X37984649Y-56942914D02*
X38032268Y-56847676D01*
X38032268Y-56847676D02*
X38127506Y-56752438D01*
X38127506Y-56752438D02*
X38270363Y-56704819D01*
X38270363Y-56704819D02*
X38365601Y-56704819D01*
X38365601Y-56704819D02*
X38508458Y-56752438D01*
X38508458Y-56752438D02*
X38556077Y-56800057D01*
X38937030Y-56800057D02*
X38984649Y-56752438D01*
X38984649Y-56752438D02*
X39079887Y-56704819D01*
X39079887Y-56704819D02*
X39317982Y-56704819D01*
X39317982Y-56704819D02*
X39413220Y-56752438D01*
X39413220Y-56752438D02*
X39460839Y-56800057D01*
X39460839Y-56800057D02*
X39508458Y-56895295D01*
X39508458Y-56895295D02*
X39508458Y-56990533D01*
X39508458Y-56990533D02*
X39460839Y-57133390D01*
X39460839Y-57133390D02*
X38889411Y-57704819D01*
X38889411Y-57704819D02*
X39508458Y-57704819D01*
X40365601Y-57038152D02*
X40365601Y-57704819D01*
X40127506Y-56657200D02*
X39889411Y-57371485D01*
X39889411Y-57371485D02*
X40508458Y-57371485D01*
X53789580Y-58642857D02*
X53837200Y-58690476D01*
X53837200Y-58690476D02*
X53884819Y-58833333D01*
X53884819Y-58833333D02*
X53884819Y-58928571D01*
X53884819Y-58928571D02*
X53837200Y-59071428D01*
X53837200Y-59071428D02*
X53741961Y-59166666D01*
X53741961Y-59166666D02*
X53646723Y-59214285D01*
X53646723Y-59214285D02*
X53456247Y-59261904D01*
X53456247Y-59261904D02*
X53313390Y-59261904D01*
X53313390Y-59261904D02*
X53122914Y-59214285D01*
X53122914Y-59214285D02*
X53027676Y-59166666D01*
X53027676Y-59166666D02*
X52932438Y-59071428D01*
X52932438Y-59071428D02*
X52884819Y-58928571D01*
X52884819Y-58928571D02*
X52884819Y-58833333D01*
X52884819Y-58833333D02*
X52932438Y-58690476D01*
X52932438Y-58690476D02*
X52980057Y-58642857D01*
X52980057Y-58261904D02*
X52932438Y-58214285D01*
X52932438Y-58214285D02*
X52884819Y-58119047D01*
X52884819Y-58119047D02*
X52884819Y-57880952D01*
X52884819Y-57880952D02*
X52932438Y-57785714D01*
X52932438Y-57785714D02*
X52980057Y-57738095D01*
X52980057Y-57738095D02*
X53075295Y-57690476D01*
X53075295Y-57690476D02*
X53170533Y-57690476D01*
X53170533Y-57690476D02*
X53313390Y-57738095D01*
X53313390Y-57738095D02*
X53884819Y-58309523D01*
X53884819Y-58309523D02*
X53884819Y-57690476D01*
X52884819Y-57357142D02*
X52884819Y-56738095D01*
X52884819Y-56738095D02*
X53265771Y-57071428D01*
X53265771Y-57071428D02*
X53265771Y-56928571D01*
X53265771Y-56928571D02*
X53313390Y-56833333D01*
X53313390Y-56833333D02*
X53361009Y-56785714D01*
X53361009Y-56785714D02*
X53456247Y-56738095D01*
X53456247Y-56738095D02*
X53694342Y-56738095D01*
X53694342Y-56738095D02*
X53789580Y-56785714D01*
X53789580Y-56785714D02*
X53837200Y-56833333D01*
X53837200Y-56833333D02*
X53884819Y-56928571D01*
X53884819Y-56928571D02*
X53884819Y-57214285D01*
X53884819Y-57214285D02*
X53837200Y-57309523D01*
X53837200Y-57309523D02*
X53789580Y-57357142D01*
X37249405Y-30439819D02*
X37249405Y-29439819D01*
X37249405Y-29439819D02*
X37487500Y-29439819D01*
X37487500Y-29439819D02*
X37630357Y-29487438D01*
X37630357Y-29487438D02*
X37725595Y-29582676D01*
X37725595Y-29582676D02*
X37773214Y-29677914D01*
X37773214Y-29677914D02*
X37820833Y-29868390D01*
X37820833Y-29868390D02*
X37820833Y-30011247D01*
X37820833Y-30011247D02*
X37773214Y-30201723D01*
X37773214Y-30201723D02*
X37725595Y-30296961D01*
X37725595Y-30296961D02*
X37630357Y-30392200D01*
X37630357Y-30392200D02*
X37487500Y-30439819D01*
X37487500Y-30439819D02*
X37249405Y-30439819D01*
X38677976Y-29439819D02*
X38487500Y-29439819D01*
X38487500Y-29439819D02*
X38392262Y-29487438D01*
X38392262Y-29487438D02*
X38344643Y-29535057D01*
X38344643Y-29535057D02*
X38249405Y-29677914D01*
X38249405Y-29677914D02*
X38201786Y-29868390D01*
X38201786Y-29868390D02*
X38201786Y-30249342D01*
X38201786Y-30249342D02*
X38249405Y-30344580D01*
X38249405Y-30344580D02*
X38297024Y-30392200D01*
X38297024Y-30392200D02*
X38392262Y-30439819D01*
X38392262Y-30439819D02*
X38582738Y-30439819D01*
X38582738Y-30439819D02*
X38677976Y-30392200D01*
X38677976Y-30392200D02*
X38725595Y-30344580D01*
X38725595Y-30344580D02*
X38773214Y-30249342D01*
X38773214Y-30249342D02*
X38773214Y-30011247D01*
X38773214Y-30011247D02*
X38725595Y-29916009D01*
X38725595Y-29916009D02*
X38677976Y-29868390D01*
X38677976Y-29868390D02*
X38582738Y-29820771D01*
X38582738Y-29820771D02*
X38392262Y-29820771D01*
X38392262Y-29820771D02*
X38297024Y-29868390D01*
X38297024Y-29868390D02*
X38249405Y-29916009D01*
X38249405Y-29916009D02*
X38201786Y-30011247D01*
X57944580Y-48642857D02*
X57992200Y-48690476D01*
X57992200Y-48690476D02*
X58039819Y-48833333D01*
X58039819Y-48833333D02*
X58039819Y-48928571D01*
X58039819Y-48928571D02*
X57992200Y-49071428D01*
X57992200Y-49071428D02*
X57896961Y-49166666D01*
X57896961Y-49166666D02*
X57801723Y-49214285D01*
X57801723Y-49214285D02*
X57611247Y-49261904D01*
X57611247Y-49261904D02*
X57468390Y-49261904D01*
X57468390Y-49261904D02*
X57277914Y-49214285D01*
X57277914Y-49214285D02*
X57182676Y-49166666D01*
X57182676Y-49166666D02*
X57087438Y-49071428D01*
X57087438Y-49071428D02*
X57039819Y-48928571D01*
X57039819Y-48928571D02*
X57039819Y-48833333D01*
X57039819Y-48833333D02*
X57087438Y-48690476D01*
X57087438Y-48690476D02*
X57135057Y-48642857D01*
X57135057Y-48261904D02*
X57087438Y-48214285D01*
X57087438Y-48214285D02*
X57039819Y-48119047D01*
X57039819Y-48119047D02*
X57039819Y-47880952D01*
X57039819Y-47880952D02*
X57087438Y-47785714D01*
X57087438Y-47785714D02*
X57135057Y-47738095D01*
X57135057Y-47738095D02*
X57230295Y-47690476D01*
X57230295Y-47690476D02*
X57325533Y-47690476D01*
X57325533Y-47690476D02*
X57468390Y-47738095D01*
X57468390Y-47738095D02*
X58039819Y-48309523D01*
X58039819Y-48309523D02*
X58039819Y-47690476D01*
X57039819Y-47357142D02*
X57039819Y-46690476D01*
X57039819Y-46690476D02*
X58039819Y-47119047D01*
X41469819Y-21541792D02*
X40993628Y-21875125D01*
X41469819Y-22113220D02*
X40469819Y-22113220D01*
X40469819Y-22113220D02*
X40469819Y-21732268D01*
X40469819Y-21732268D02*
X40517438Y-21637030D01*
X40517438Y-21637030D02*
X40565057Y-21589411D01*
X40565057Y-21589411D02*
X40660295Y-21541792D01*
X40660295Y-21541792D02*
X40803152Y-21541792D01*
X40803152Y-21541792D02*
X40898390Y-21589411D01*
X40898390Y-21589411D02*
X40946009Y-21637030D01*
X40946009Y-21637030D02*
X40993628Y-21732268D01*
X40993628Y-21732268D02*
X40993628Y-22113220D01*
X40469819Y-21208458D02*
X40469819Y-20589411D01*
X40469819Y-20589411D02*
X40850771Y-20922744D01*
X40850771Y-20922744D02*
X40850771Y-20779887D01*
X40850771Y-20779887D02*
X40898390Y-20684649D01*
X40898390Y-20684649D02*
X40946009Y-20637030D01*
X40946009Y-20637030D02*
X41041247Y-20589411D01*
X41041247Y-20589411D02*
X41279342Y-20589411D01*
X41279342Y-20589411D02*
X41374580Y-20637030D01*
X41374580Y-20637030D02*
X41422200Y-20684649D01*
X41422200Y-20684649D02*
X41469819Y-20779887D01*
X41469819Y-20779887D02*
X41469819Y-21065601D01*
X41469819Y-21065601D02*
X41422200Y-21160839D01*
X41422200Y-21160839D02*
X41374580Y-21208458D01*
X38556077Y-56109580D02*
X38508458Y-56157200D01*
X38508458Y-56157200D02*
X38365601Y-56204819D01*
X38365601Y-56204819D02*
X38270363Y-56204819D01*
X38270363Y-56204819D02*
X38127506Y-56157200D01*
X38127506Y-56157200D02*
X38032268Y-56061961D01*
X38032268Y-56061961D02*
X37984649Y-55966723D01*
X37984649Y-55966723D02*
X37937030Y-55776247D01*
X37937030Y-55776247D02*
X37937030Y-55633390D01*
X37937030Y-55633390D02*
X37984649Y-55442914D01*
X37984649Y-55442914D02*
X38032268Y-55347676D01*
X38032268Y-55347676D02*
X38127506Y-55252438D01*
X38127506Y-55252438D02*
X38270363Y-55204819D01*
X38270363Y-55204819D02*
X38365601Y-55204819D01*
X38365601Y-55204819D02*
X38508458Y-55252438D01*
X38508458Y-55252438D02*
X38556077Y-55300057D01*
X38937030Y-55300057D02*
X38984649Y-55252438D01*
X38984649Y-55252438D02*
X39079887Y-55204819D01*
X39079887Y-55204819D02*
X39317982Y-55204819D01*
X39317982Y-55204819D02*
X39413220Y-55252438D01*
X39413220Y-55252438D02*
X39460839Y-55300057D01*
X39460839Y-55300057D02*
X39508458Y-55395295D01*
X39508458Y-55395295D02*
X39508458Y-55490533D01*
X39508458Y-55490533D02*
X39460839Y-55633390D01*
X39460839Y-55633390D02*
X38889411Y-56204819D01*
X38889411Y-56204819D02*
X39508458Y-56204819D01*
X40413220Y-55204819D02*
X39937030Y-55204819D01*
X39937030Y-55204819D02*
X39889411Y-55681009D01*
X39889411Y-55681009D02*
X39937030Y-55633390D01*
X39937030Y-55633390D02*
X40032268Y-55585771D01*
X40032268Y-55585771D02*
X40270363Y-55585771D01*
X40270363Y-55585771D02*
X40365601Y-55633390D01*
X40365601Y-55633390D02*
X40413220Y-55681009D01*
X40413220Y-55681009D02*
X40460839Y-55776247D01*
X40460839Y-55776247D02*
X40460839Y-56014342D01*
X40460839Y-56014342D02*
X40413220Y-56109580D01*
X40413220Y-56109580D02*
X40365601Y-56157200D01*
X40365601Y-56157200D02*
X40270363Y-56204819D01*
X40270363Y-56204819D02*
X40032268Y-56204819D01*
X40032268Y-56204819D02*
X39937030Y-56157200D01*
X39937030Y-56157200D02*
X39889411Y-56109580D01*
X43333333Y-38454819D02*
X43000000Y-37978628D01*
X42761905Y-38454819D02*
X42761905Y-37454819D01*
X42761905Y-37454819D02*
X43142857Y-37454819D01*
X43142857Y-37454819D02*
X43238095Y-37502438D01*
X43238095Y-37502438D02*
X43285714Y-37550057D01*
X43285714Y-37550057D02*
X43333333Y-37645295D01*
X43333333Y-37645295D02*
X43333333Y-37788152D01*
X43333333Y-37788152D02*
X43285714Y-37883390D01*
X43285714Y-37883390D02*
X43238095Y-37931009D01*
X43238095Y-37931009D02*
X43142857Y-37978628D01*
X43142857Y-37978628D02*
X42761905Y-37978628D01*
X43904762Y-37883390D02*
X43809524Y-37835771D01*
X43809524Y-37835771D02*
X43761905Y-37788152D01*
X43761905Y-37788152D02*
X43714286Y-37692914D01*
X43714286Y-37692914D02*
X43714286Y-37645295D01*
X43714286Y-37645295D02*
X43761905Y-37550057D01*
X43761905Y-37550057D02*
X43809524Y-37502438D01*
X43809524Y-37502438D02*
X43904762Y-37454819D01*
X43904762Y-37454819D02*
X44095238Y-37454819D01*
X44095238Y-37454819D02*
X44190476Y-37502438D01*
X44190476Y-37502438D02*
X44238095Y-37550057D01*
X44238095Y-37550057D02*
X44285714Y-37645295D01*
X44285714Y-37645295D02*
X44285714Y-37692914D01*
X44285714Y-37692914D02*
X44238095Y-37788152D01*
X44238095Y-37788152D02*
X44190476Y-37835771D01*
X44190476Y-37835771D02*
X44095238Y-37883390D01*
X44095238Y-37883390D02*
X43904762Y-37883390D01*
X43904762Y-37883390D02*
X43809524Y-37931009D01*
X43809524Y-37931009D02*
X43761905Y-37978628D01*
X43761905Y-37978628D02*
X43714286Y-38073866D01*
X43714286Y-38073866D02*
X43714286Y-38264342D01*
X43714286Y-38264342D02*
X43761905Y-38359580D01*
X43761905Y-38359580D02*
X43809524Y-38407200D01*
X43809524Y-38407200D02*
X43904762Y-38454819D01*
X43904762Y-38454819D02*
X44095238Y-38454819D01*
X44095238Y-38454819D02*
X44190476Y-38407200D01*
X44190476Y-38407200D02*
X44238095Y-38359580D01*
X44238095Y-38359580D02*
X44285714Y-38264342D01*
X44285714Y-38264342D02*
X44285714Y-38073866D01*
X44285714Y-38073866D02*
X44238095Y-37978628D01*
X44238095Y-37978628D02*
X44190476Y-37931009D01*
X44190476Y-37931009D02*
X44095238Y-37883390D01*
X56583333Y-52034819D02*
X56250000Y-51558628D01*
X56011905Y-52034819D02*
X56011905Y-51034819D01*
X56011905Y-51034819D02*
X56392857Y-51034819D01*
X56392857Y-51034819D02*
X56488095Y-51082438D01*
X56488095Y-51082438D02*
X56535714Y-51130057D01*
X56535714Y-51130057D02*
X56583333Y-51225295D01*
X56583333Y-51225295D02*
X56583333Y-51368152D01*
X56583333Y-51368152D02*
X56535714Y-51463390D01*
X56535714Y-51463390D02*
X56488095Y-51511009D01*
X56488095Y-51511009D02*
X56392857Y-51558628D01*
X56392857Y-51558628D02*
X56011905Y-51558628D01*
X57488095Y-51034819D02*
X57011905Y-51034819D01*
X57011905Y-51034819D02*
X56964286Y-51511009D01*
X56964286Y-51511009D02*
X57011905Y-51463390D01*
X57011905Y-51463390D02*
X57107143Y-51415771D01*
X57107143Y-51415771D02*
X57345238Y-51415771D01*
X57345238Y-51415771D02*
X57440476Y-51463390D01*
X57440476Y-51463390D02*
X57488095Y-51511009D01*
X57488095Y-51511009D02*
X57535714Y-51606247D01*
X57535714Y-51606247D02*
X57535714Y-51844342D01*
X57535714Y-51844342D02*
X57488095Y-51939580D01*
X57488095Y-51939580D02*
X57440476Y-51987200D01*
X57440476Y-51987200D02*
X57345238Y-52034819D01*
X57345238Y-52034819D02*
X57107143Y-52034819D01*
X57107143Y-52034819D02*
X57011905Y-51987200D01*
X57011905Y-51987200D02*
X56964286Y-51939580D01*
X59583333Y-52034819D02*
X59250000Y-51558628D01*
X59011905Y-52034819D02*
X59011905Y-51034819D01*
X59011905Y-51034819D02*
X59392857Y-51034819D01*
X59392857Y-51034819D02*
X59488095Y-51082438D01*
X59488095Y-51082438D02*
X59535714Y-51130057D01*
X59535714Y-51130057D02*
X59583333Y-51225295D01*
X59583333Y-51225295D02*
X59583333Y-51368152D01*
X59583333Y-51368152D02*
X59535714Y-51463390D01*
X59535714Y-51463390D02*
X59488095Y-51511009D01*
X59488095Y-51511009D02*
X59392857Y-51558628D01*
X59392857Y-51558628D02*
X59011905Y-51558628D01*
X60440476Y-51034819D02*
X60250000Y-51034819D01*
X60250000Y-51034819D02*
X60154762Y-51082438D01*
X60154762Y-51082438D02*
X60107143Y-51130057D01*
X60107143Y-51130057D02*
X60011905Y-51272914D01*
X60011905Y-51272914D02*
X59964286Y-51463390D01*
X59964286Y-51463390D02*
X59964286Y-51844342D01*
X59964286Y-51844342D02*
X60011905Y-51939580D01*
X60011905Y-51939580D02*
X60059524Y-51987200D01*
X60059524Y-51987200D02*
X60154762Y-52034819D01*
X60154762Y-52034819D02*
X60345238Y-52034819D01*
X60345238Y-52034819D02*
X60440476Y-51987200D01*
X60440476Y-51987200D02*
X60488095Y-51939580D01*
X60488095Y-51939580D02*
X60535714Y-51844342D01*
X60535714Y-51844342D02*
X60535714Y-51606247D01*
X60535714Y-51606247D02*
X60488095Y-51511009D01*
X60488095Y-51511009D02*
X60440476Y-51463390D01*
X60440476Y-51463390D02*
X60345238Y-51415771D01*
X60345238Y-51415771D02*
X60154762Y-51415771D01*
X60154762Y-51415771D02*
X60059524Y-51463390D01*
X60059524Y-51463390D02*
X60011905Y-51511009D01*
X60011905Y-51511009D02*
X59964286Y-51606247D01*
X55704819Y-55441541D02*
X55228628Y-55774874D01*
X55704819Y-56012969D02*
X54704819Y-56012969D01*
X54704819Y-56012969D02*
X54704819Y-55632017D01*
X54704819Y-55632017D02*
X54752438Y-55536779D01*
X54752438Y-55536779D02*
X54800057Y-55489160D01*
X54800057Y-55489160D02*
X54895295Y-55441541D01*
X54895295Y-55441541D02*
X55038152Y-55441541D01*
X55038152Y-55441541D02*
X55133390Y-55489160D01*
X55133390Y-55489160D02*
X55181009Y-55536779D01*
X55181009Y-55536779D02*
X55228628Y-55632017D01*
X55228628Y-55632017D02*
X55228628Y-56012969D01*
X55038152Y-54584398D02*
X55704819Y-54584398D01*
X54657200Y-54822493D02*
X55371485Y-55060588D01*
X55371485Y-55060588D02*
X55371485Y-54441541D01*
X34308333Y-24334580D02*
X34260714Y-24382200D01*
X34260714Y-24382200D02*
X34117857Y-24429819D01*
X34117857Y-24429819D02*
X34022619Y-24429819D01*
X34022619Y-24429819D02*
X33879762Y-24382200D01*
X33879762Y-24382200D02*
X33784524Y-24286961D01*
X33784524Y-24286961D02*
X33736905Y-24191723D01*
X33736905Y-24191723D02*
X33689286Y-24001247D01*
X33689286Y-24001247D02*
X33689286Y-23858390D01*
X33689286Y-23858390D02*
X33736905Y-23667914D01*
X33736905Y-23667914D02*
X33784524Y-23572676D01*
X33784524Y-23572676D02*
X33879762Y-23477438D01*
X33879762Y-23477438D02*
X34022619Y-23429819D01*
X34022619Y-23429819D02*
X34117857Y-23429819D01*
X34117857Y-23429819D02*
X34260714Y-23477438D01*
X34260714Y-23477438D02*
X34308333Y-23525057D01*
X34689286Y-23525057D02*
X34736905Y-23477438D01*
X34736905Y-23477438D02*
X34832143Y-23429819D01*
X34832143Y-23429819D02*
X35070238Y-23429819D01*
X35070238Y-23429819D02*
X35165476Y-23477438D01*
X35165476Y-23477438D02*
X35213095Y-23525057D01*
X35213095Y-23525057D02*
X35260714Y-23620295D01*
X35260714Y-23620295D02*
X35260714Y-23715533D01*
X35260714Y-23715533D02*
X35213095Y-23858390D01*
X35213095Y-23858390D02*
X34641667Y-24429819D01*
X34641667Y-24429819D02*
X35260714Y-24429819D01*
X44928628Y-48726190D02*
X45404819Y-48726190D01*
X44404819Y-49059523D02*
X44928628Y-48726190D01*
X44928628Y-48726190D02*
X44404819Y-48392857D01*
X44500057Y-48107142D02*
X44452438Y-48059523D01*
X44452438Y-48059523D02*
X44404819Y-47964285D01*
X44404819Y-47964285D02*
X44404819Y-47726190D01*
X44404819Y-47726190D02*
X44452438Y-47630952D01*
X44452438Y-47630952D02*
X44500057Y-47583333D01*
X44500057Y-47583333D02*
X44595295Y-47535714D01*
X44595295Y-47535714D02*
X44690533Y-47535714D01*
X44690533Y-47535714D02*
X44833390Y-47583333D01*
X44833390Y-47583333D02*
X45404819Y-48154761D01*
X45404819Y-48154761D02*
X45404819Y-47535714D01*
X39869819Y-24791541D02*
X39393628Y-25124874D01*
X39869819Y-25362969D02*
X38869819Y-25362969D01*
X38869819Y-25362969D02*
X38869819Y-24982017D01*
X38869819Y-24982017D02*
X38917438Y-24886779D01*
X38917438Y-24886779D02*
X38965057Y-24839160D01*
X38965057Y-24839160D02*
X39060295Y-24791541D01*
X39060295Y-24791541D02*
X39203152Y-24791541D01*
X39203152Y-24791541D02*
X39298390Y-24839160D01*
X39298390Y-24839160D02*
X39346009Y-24886779D01*
X39346009Y-24886779D02*
X39393628Y-24982017D01*
X39393628Y-24982017D02*
X39393628Y-25362969D01*
X38965057Y-24410588D02*
X38917438Y-24362969D01*
X38917438Y-24362969D02*
X38869819Y-24267731D01*
X38869819Y-24267731D02*
X38869819Y-24029636D01*
X38869819Y-24029636D02*
X38917438Y-23934398D01*
X38917438Y-23934398D02*
X38965057Y-23886779D01*
X38965057Y-23886779D02*
X39060295Y-23839160D01*
X39060295Y-23839160D02*
X39155533Y-23839160D01*
X39155533Y-23839160D02*
X39298390Y-23886779D01*
X39298390Y-23886779D02*
X39869819Y-24458207D01*
X39869819Y-24458207D02*
X39869819Y-23839160D01*
X37856077Y-52609580D02*
X37808458Y-52657200D01*
X37808458Y-52657200D02*
X37665601Y-52704819D01*
X37665601Y-52704819D02*
X37570363Y-52704819D01*
X37570363Y-52704819D02*
X37427506Y-52657200D01*
X37427506Y-52657200D02*
X37332268Y-52561961D01*
X37332268Y-52561961D02*
X37284649Y-52466723D01*
X37284649Y-52466723D02*
X37237030Y-52276247D01*
X37237030Y-52276247D02*
X37237030Y-52133390D01*
X37237030Y-52133390D02*
X37284649Y-51942914D01*
X37284649Y-51942914D02*
X37332268Y-51847676D01*
X37332268Y-51847676D02*
X37427506Y-51752438D01*
X37427506Y-51752438D02*
X37570363Y-51704819D01*
X37570363Y-51704819D02*
X37665601Y-51704819D01*
X37665601Y-51704819D02*
X37808458Y-51752438D01*
X37808458Y-51752438D02*
X37856077Y-51800057D01*
X38189411Y-51704819D02*
X38808458Y-51704819D01*
X38808458Y-51704819D02*
X38475125Y-52085771D01*
X38475125Y-52085771D02*
X38617982Y-52085771D01*
X38617982Y-52085771D02*
X38713220Y-52133390D01*
X38713220Y-52133390D02*
X38760839Y-52181009D01*
X38760839Y-52181009D02*
X38808458Y-52276247D01*
X38808458Y-52276247D02*
X38808458Y-52514342D01*
X38808458Y-52514342D02*
X38760839Y-52609580D01*
X38760839Y-52609580D02*
X38713220Y-52657200D01*
X38713220Y-52657200D02*
X38617982Y-52704819D01*
X38617982Y-52704819D02*
X38332268Y-52704819D01*
X38332268Y-52704819D02*
X38237030Y-52657200D01*
X38237030Y-52657200D02*
X38189411Y-52609580D01*
X39427506Y-51704819D02*
X39522744Y-51704819D01*
X39522744Y-51704819D02*
X39617982Y-51752438D01*
X39617982Y-51752438D02*
X39665601Y-51800057D01*
X39665601Y-51800057D02*
X39713220Y-51895295D01*
X39713220Y-51895295D02*
X39760839Y-52085771D01*
X39760839Y-52085771D02*
X39760839Y-52323866D01*
X39760839Y-52323866D02*
X39713220Y-52514342D01*
X39713220Y-52514342D02*
X39665601Y-52609580D01*
X39665601Y-52609580D02*
X39617982Y-52657200D01*
X39617982Y-52657200D02*
X39522744Y-52704819D01*
X39522744Y-52704819D02*
X39427506Y-52704819D01*
X39427506Y-52704819D02*
X39332268Y-52657200D01*
X39332268Y-52657200D02*
X39284649Y-52609580D01*
X39284649Y-52609580D02*
X39237030Y-52514342D01*
X39237030Y-52514342D02*
X39189411Y-52323866D01*
X39189411Y-52323866D02*
X39189411Y-52085771D01*
X39189411Y-52085771D02*
X39237030Y-51895295D01*
X39237030Y-51895295D02*
X39284649Y-51800057D01*
X39284649Y-51800057D02*
X39332268Y-51752438D01*
X39332268Y-51752438D02*
X39427506Y-51704819D01*
X61609580Y-55441541D02*
X61657200Y-55489160D01*
X61657200Y-55489160D02*
X61704819Y-55632017D01*
X61704819Y-55632017D02*
X61704819Y-55727255D01*
X61704819Y-55727255D02*
X61657200Y-55870112D01*
X61657200Y-55870112D02*
X61561961Y-55965350D01*
X61561961Y-55965350D02*
X61466723Y-56012969D01*
X61466723Y-56012969D02*
X61276247Y-56060588D01*
X61276247Y-56060588D02*
X61133390Y-56060588D01*
X61133390Y-56060588D02*
X60942914Y-56012969D01*
X60942914Y-56012969D02*
X60847676Y-55965350D01*
X60847676Y-55965350D02*
X60752438Y-55870112D01*
X60752438Y-55870112D02*
X60704819Y-55727255D01*
X60704819Y-55727255D02*
X60704819Y-55632017D01*
X60704819Y-55632017D02*
X60752438Y-55489160D01*
X60752438Y-55489160D02*
X60800057Y-55441541D01*
X61133390Y-54870112D02*
X61085771Y-54965350D01*
X61085771Y-54965350D02*
X61038152Y-55012969D01*
X61038152Y-55012969D02*
X60942914Y-55060588D01*
X60942914Y-55060588D02*
X60895295Y-55060588D01*
X60895295Y-55060588D02*
X60800057Y-55012969D01*
X60800057Y-55012969D02*
X60752438Y-54965350D01*
X60752438Y-54965350D02*
X60704819Y-54870112D01*
X60704819Y-54870112D02*
X60704819Y-54679636D01*
X60704819Y-54679636D02*
X60752438Y-54584398D01*
X60752438Y-54584398D02*
X60800057Y-54536779D01*
X60800057Y-54536779D02*
X60895295Y-54489160D01*
X60895295Y-54489160D02*
X60942914Y-54489160D01*
X60942914Y-54489160D02*
X61038152Y-54536779D01*
X61038152Y-54536779D02*
X61085771Y-54584398D01*
X61085771Y-54584398D02*
X61133390Y-54679636D01*
X61133390Y-54679636D02*
X61133390Y-54870112D01*
X61133390Y-54870112D02*
X61181009Y-54965350D01*
X61181009Y-54965350D02*
X61228628Y-55012969D01*
X61228628Y-55012969D02*
X61323866Y-55060588D01*
X61323866Y-55060588D02*
X61514342Y-55060588D01*
X61514342Y-55060588D02*
X61609580Y-55012969D01*
X61609580Y-55012969D02*
X61657200Y-54965350D01*
X61657200Y-54965350D02*
X61704819Y-54870112D01*
X61704819Y-54870112D02*
X61704819Y-54679636D01*
X61704819Y-54679636D02*
X61657200Y-54584398D01*
X61657200Y-54584398D02*
X61609580Y-54536779D01*
X61609580Y-54536779D02*
X61514342Y-54489160D01*
X61514342Y-54489160D02*
X61323866Y-54489160D01*
X61323866Y-54489160D02*
X61228628Y-54536779D01*
X61228628Y-54536779D02*
X61181009Y-54584398D01*
X61181009Y-54584398D02*
X61133390Y-54679636D01*
X49694580Y-46292857D02*
X49742200Y-46340476D01*
X49742200Y-46340476D02*
X49789819Y-46483333D01*
X49789819Y-46483333D02*
X49789819Y-46578571D01*
X49789819Y-46578571D02*
X49742200Y-46721428D01*
X49742200Y-46721428D02*
X49646961Y-46816666D01*
X49646961Y-46816666D02*
X49551723Y-46864285D01*
X49551723Y-46864285D02*
X49361247Y-46911904D01*
X49361247Y-46911904D02*
X49218390Y-46911904D01*
X49218390Y-46911904D02*
X49027914Y-46864285D01*
X49027914Y-46864285D02*
X48932676Y-46816666D01*
X48932676Y-46816666D02*
X48837438Y-46721428D01*
X48837438Y-46721428D02*
X48789819Y-46578571D01*
X48789819Y-46578571D02*
X48789819Y-46483333D01*
X48789819Y-46483333D02*
X48837438Y-46340476D01*
X48837438Y-46340476D02*
X48885057Y-46292857D01*
X49123152Y-45435714D02*
X49789819Y-45435714D01*
X48742200Y-45673809D02*
X49456485Y-45911904D01*
X49456485Y-45911904D02*
X49456485Y-45292857D01*
X49789819Y-44388095D02*
X49789819Y-44959523D01*
X49789819Y-44673809D02*
X48789819Y-44673809D01*
X48789819Y-44673809D02*
X48932676Y-44769047D01*
X48932676Y-44769047D02*
X49027914Y-44864285D01*
X49027914Y-44864285D02*
X49075533Y-44959523D01*
X39056077Y-49359580D02*
X39008458Y-49407200D01*
X39008458Y-49407200D02*
X38865601Y-49454819D01*
X38865601Y-49454819D02*
X38770363Y-49454819D01*
X38770363Y-49454819D02*
X38627506Y-49407200D01*
X38627506Y-49407200D02*
X38532268Y-49311961D01*
X38532268Y-49311961D02*
X38484649Y-49216723D01*
X38484649Y-49216723D02*
X38437030Y-49026247D01*
X38437030Y-49026247D02*
X38437030Y-48883390D01*
X38437030Y-48883390D02*
X38484649Y-48692914D01*
X38484649Y-48692914D02*
X38532268Y-48597676D01*
X38532268Y-48597676D02*
X38627506Y-48502438D01*
X38627506Y-48502438D02*
X38770363Y-48454819D01*
X38770363Y-48454819D02*
X38865601Y-48454819D01*
X38865601Y-48454819D02*
X39008458Y-48502438D01*
X39008458Y-48502438D02*
X39056077Y-48550057D01*
X39437030Y-48550057D02*
X39484649Y-48502438D01*
X39484649Y-48502438D02*
X39579887Y-48454819D01*
X39579887Y-48454819D02*
X39817982Y-48454819D01*
X39817982Y-48454819D02*
X39913220Y-48502438D01*
X39913220Y-48502438D02*
X39960839Y-48550057D01*
X39960839Y-48550057D02*
X40008458Y-48645295D01*
X40008458Y-48645295D02*
X40008458Y-48740533D01*
X40008458Y-48740533D02*
X39960839Y-48883390D01*
X39960839Y-48883390D02*
X39389411Y-49454819D01*
X39389411Y-49454819D02*
X40008458Y-49454819D01*
X40484649Y-49454819D02*
X40675125Y-49454819D01*
X40675125Y-49454819D02*
X40770363Y-49407200D01*
X40770363Y-49407200D02*
X40817982Y-49359580D01*
X40817982Y-49359580D02*
X40913220Y-49216723D01*
X40913220Y-49216723D02*
X40960839Y-49026247D01*
X40960839Y-49026247D02*
X40960839Y-48645295D01*
X40960839Y-48645295D02*
X40913220Y-48550057D01*
X40913220Y-48550057D02*
X40865601Y-48502438D01*
X40865601Y-48502438D02*
X40770363Y-48454819D01*
X40770363Y-48454819D02*
X40579887Y-48454819D01*
X40579887Y-48454819D02*
X40484649Y-48502438D01*
X40484649Y-48502438D02*
X40437030Y-48550057D01*
X40437030Y-48550057D02*
X40389411Y-48645295D01*
X40389411Y-48645295D02*
X40389411Y-48883390D01*
X40389411Y-48883390D02*
X40437030Y-48978628D01*
X40437030Y-48978628D02*
X40484649Y-49026247D01*
X40484649Y-49026247D02*
X40579887Y-49073866D01*
X40579887Y-49073866D02*
X40770363Y-49073866D01*
X40770363Y-49073866D02*
X40865601Y-49026247D01*
X40865601Y-49026247D02*
X40913220Y-48978628D01*
X40913220Y-48978628D02*
X40960839Y-48883390D01*
X45274580Y-46292857D02*
X45322200Y-46340476D01*
X45322200Y-46340476D02*
X45369819Y-46483333D01*
X45369819Y-46483333D02*
X45369819Y-46578571D01*
X45369819Y-46578571D02*
X45322200Y-46721428D01*
X45322200Y-46721428D02*
X45226961Y-46816666D01*
X45226961Y-46816666D02*
X45131723Y-46864285D01*
X45131723Y-46864285D02*
X44941247Y-46911904D01*
X44941247Y-46911904D02*
X44798390Y-46911904D01*
X44798390Y-46911904D02*
X44607914Y-46864285D01*
X44607914Y-46864285D02*
X44512676Y-46816666D01*
X44512676Y-46816666D02*
X44417438Y-46721428D01*
X44417438Y-46721428D02*
X44369819Y-46578571D01*
X44369819Y-46578571D02*
X44369819Y-46483333D01*
X44369819Y-46483333D02*
X44417438Y-46340476D01*
X44417438Y-46340476D02*
X44465057Y-46292857D01*
X44369819Y-45959523D02*
X44369819Y-45340476D01*
X44369819Y-45340476D02*
X44750771Y-45673809D01*
X44750771Y-45673809D02*
X44750771Y-45530952D01*
X44750771Y-45530952D02*
X44798390Y-45435714D01*
X44798390Y-45435714D02*
X44846009Y-45388095D01*
X44846009Y-45388095D02*
X44941247Y-45340476D01*
X44941247Y-45340476D02*
X45179342Y-45340476D01*
X45179342Y-45340476D02*
X45274580Y-45388095D01*
X45274580Y-45388095D02*
X45322200Y-45435714D01*
X45322200Y-45435714D02*
X45369819Y-45530952D01*
X45369819Y-45530952D02*
X45369819Y-45816666D01*
X45369819Y-45816666D02*
X45322200Y-45911904D01*
X45322200Y-45911904D02*
X45274580Y-45959523D01*
X44369819Y-44483333D02*
X44369819Y-44673809D01*
X44369819Y-44673809D02*
X44417438Y-44769047D01*
X44417438Y-44769047D02*
X44465057Y-44816666D01*
X44465057Y-44816666D02*
X44607914Y-44911904D01*
X44607914Y-44911904D02*
X44798390Y-44959523D01*
X44798390Y-44959523D02*
X45179342Y-44959523D01*
X45179342Y-44959523D02*
X45274580Y-44911904D01*
X45274580Y-44911904D02*
X45322200Y-44864285D01*
X45322200Y-44864285D02*
X45369819Y-44769047D01*
X45369819Y-44769047D02*
X45369819Y-44578571D01*
X45369819Y-44578571D02*
X45322200Y-44483333D01*
X45322200Y-44483333D02*
X45274580Y-44435714D01*
X45274580Y-44435714D02*
X45179342Y-44388095D01*
X45179342Y-44388095D02*
X44941247Y-44388095D01*
X44941247Y-44388095D02*
X44846009Y-44435714D01*
X44846009Y-44435714D02*
X44798390Y-44483333D01*
X44798390Y-44483333D02*
X44750771Y-44578571D01*
X44750771Y-44578571D02*
X44750771Y-44769047D01*
X44750771Y-44769047D02*
X44798390Y-44864285D01*
X44798390Y-44864285D02*
X44846009Y-44911904D01*
X44846009Y-44911904D02*
X44941247Y-44959523D01*
X42454819Y-67609523D02*
X43169104Y-67609523D01*
X43169104Y-67609523D02*
X43311961Y-67657142D01*
X43311961Y-67657142D02*
X43407200Y-67752380D01*
X43407200Y-67752380D02*
X43454819Y-67895237D01*
X43454819Y-67895237D02*
X43454819Y-67990475D01*
X43454819Y-66609523D02*
X43454819Y-67180951D01*
X43454819Y-66895237D02*
X42454819Y-66895237D01*
X42454819Y-66895237D02*
X42597676Y-66990475D01*
X42597676Y-66990475D02*
X42692914Y-67085713D01*
X42692914Y-67085713D02*
X42740533Y-67180951D01*
X42454819Y-65990475D02*
X42454819Y-65895237D01*
X42454819Y-65895237D02*
X42502438Y-65799999D01*
X42502438Y-65799999D02*
X42550057Y-65752380D01*
X42550057Y-65752380D02*
X42645295Y-65704761D01*
X42645295Y-65704761D02*
X42835771Y-65657142D01*
X42835771Y-65657142D02*
X43073866Y-65657142D01*
X43073866Y-65657142D02*
X43264342Y-65704761D01*
X43264342Y-65704761D02*
X43359580Y-65752380D01*
X43359580Y-65752380D02*
X43407200Y-65799999D01*
X43407200Y-65799999D02*
X43454819Y-65895237D01*
X43454819Y-65895237D02*
X43454819Y-65990475D01*
X43454819Y-65990475D02*
X43407200Y-66085713D01*
X43407200Y-66085713D02*
X43359580Y-66133332D01*
X43359580Y-66133332D02*
X43264342Y-66180951D01*
X43264342Y-66180951D02*
X43073866Y-66228570D01*
X43073866Y-66228570D02*
X42835771Y-66228570D01*
X42835771Y-66228570D02*
X42645295Y-66180951D01*
X42645295Y-66180951D02*
X42550057Y-66133332D01*
X42550057Y-66133332D02*
X42502438Y-66085713D01*
X42502438Y-66085713D02*
X42454819Y-65990475D01*
X50954819Y-40509523D02*
X51669104Y-40509523D01*
X51669104Y-40509523D02*
X51811961Y-40557142D01*
X51811961Y-40557142D02*
X51907200Y-40652380D01*
X51907200Y-40652380D02*
X51954819Y-40795237D01*
X51954819Y-40795237D02*
X51954819Y-40890475D01*
X51954819Y-39509523D02*
X51954819Y-40080951D01*
X51954819Y-39795237D02*
X50954819Y-39795237D01*
X50954819Y-39795237D02*
X51097676Y-39890475D01*
X51097676Y-39890475D02*
X51192914Y-39985713D01*
X51192914Y-39985713D02*
X51240533Y-40080951D01*
X51954819Y-38557142D02*
X51954819Y-39128570D01*
X51954819Y-38842856D02*
X50954819Y-38842856D01*
X50954819Y-38842856D02*
X51097676Y-38938094D01*
X51097676Y-38938094D02*
X51192914Y-39033332D01*
X51192914Y-39033332D02*
X51240533Y-39128570D01*
X41419819Y-33491541D02*
X40943628Y-33824874D01*
X41419819Y-34062969D02*
X40419819Y-34062969D01*
X40419819Y-34062969D02*
X40419819Y-33682017D01*
X40419819Y-33682017D02*
X40467438Y-33586779D01*
X40467438Y-33586779D02*
X40515057Y-33539160D01*
X40515057Y-33539160D02*
X40610295Y-33491541D01*
X40610295Y-33491541D02*
X40753152Y-33491541D01*
X40753152Y-33491541D02*
X40848390Y-33539160D01*
X40848390Y-33539160D02*
X40896009Y-33586779D01*
X40896009Y-33586779D02*
X40943628Y-33682017D01*
X40943628Y-33682017D02*
X40943628Y-34062969D01*
X41419819Y-32539160D02*
X41419819Y-33110588D01*
X41419819Y-32824874D02*
X40419819Y-32824874D01*
X40419819Y-32824874D02*
X40562676Y-32920112D01*
X40562676Y-32920112D02*
X40657914Y-33015350D01*
X40657914Y-33015350D02*
X40705533Y-33110588D01*
X33713095Y-29029819D02*
X33713095Y-29839342D01*
X33713095Y-29839342D02*
X33760714Y-29934580D01*
X33760714Y-29934580D02*
X33808333Y-29982200D01*
X33808333Y-29982200D02*
X33903571Y-30029819D01*
X33903571Y-30029819D02*
X34094047Y-30029819D01*
X34094047Y-30029819D02*
X34189285Y-29982200D01*
X34189285Y-29982200D02*
X34236904Y-29934580D01*
X34236904Y-29934580D02*
X34284523Y-29839342D01*
X34284523Y-29839342D02*
X34284523Y-29029819D01*
X34713095Y-29125057D02*
X34760714Y-29077438D01*
X34760714Y-29077438D02*
X34855952Y-29029819D01*
X34855952Y-29029819D02*
X35094047Y-29029819D01*
X35094047Y-29029819D02*
X35189285Y-29077438D01*
X35189285Y-29077438D02*
X35236904Y-29125057D01*
X35236904Y-29125057D02*
X35284523Y-29220295D01*
X35284523Y-29220295D02*
X35284523Y-29315533D01*
X35284523Y-29315533D02*
X35236904Y-29458390D01*
X35236904Y-29458390D02*
X34665476Y-30029819D01*
X34665476Y-30029819D02*
X35284523Y-30029819D01*
X40904761Y-37800057D02*
X40809523Y-37752438D01*
X40809523Y-37752438D02*
X40714285Y-37657200D01*
X40714285Y-37657200D02*
X40571428Y-37514342D01*
X40571428Y-37514342D02*
X40476190Y-37466723D01*
X40476190Y-37466723D02*
X40380952Y-37466723D01*
X40428571Y-37704819D02*
X40333333Y-37657200D01*
X40333333Y-37657200D02*
X40238095Y-37561961D01*
X40238095Y-37561961D02*
X40190476Y-37371485D01*
X40190476Y-37371485D02*
X40190476Y-37038152D01*
X40190476Y-37038152D02*
X40238095Y-36847676D01*
X40238095Y-36847676D02*
X40333333Y-36752438D01*
X40333333Y-36752438D02*
X40428571Y-36704819D01*
X40428571Y-36704819D02*
X40619047Y-36704819D01*
X40619047Y-36704819D02*
X40714285Y-36752438D01*
X40714285Y-36752438D02*
X40809523Y-36847676D01*
X40809523Y-36847676D02*
X40857142Y-37038152D01*
X40857142Y-37038152D02*
X40857142Y-37371485D01*
X40857142Y-37371485D02*
X40809523Y-37561961D01*
X40809523Y-37561961D02*
X40714285Y-37657200D01*
X40714285Y-37657200D02*
X40619047Y-37704819D01*
X40619047Y-37704819D02*
X40428571Y-37704819D01*
X41809523Y-37704819D02*
X41238095Y-37704819D01*
X41523809Y-37704819D02*
X41523809Y-36704819D01*
X41523809Y-36704819D02*
X41428571Y-36847676D01*
X41428571Y-36847676D02*
X41333333Y-36942914D01*
X41333333Y-36942914D02*
X41238095Y-36990533D01*
X50523809Y-46643628D02*
X50523809Y-47119819D01*
X50190476Y-46119819D02*
X50523809Y-46643628D01*
X50523809Y-46643628D02*
X50857142Y-46119819D01*
X51714285Y-47119819D02*
X51142857Y-47119819D01*
X51428571Y-47119819D02*
X51428571Y-46119819D01*
X51428571Y-46119819D02*
X51333333Y-46262676D01*
X51333333Y-46262676D02*
X51238095Y-46357914D01*
X51238095Y-46357914D02*
X51142857Y-46405533D01*
X34833333Y-38454819D02*
X34500000Y-37978628D01*
X34261905Y-38454819D02*
X34261905Y-37454819D01*
X34261905Y-37454819D02*
X34642857Y-37454819D01*
X34642857Y-37454819D02*
X34738095Y-37502438D01*
X34738095Y-37502438D02*
X34785714Y-37550057D01*
X34785714Y-37550057D02*
X34833333Y-37645295D01*
X34833333Y-37645295D02*
X34833333Y-37788152D01*
X34833333Y-37788152D02*
X34785714Y-37883390D01*
X34785714Y-37883390D02*
X34738095Y-37931009D01*
X34738095Y-37931009D02*
X34642857Y-37978628D01*
X34642857Y-37978628D02*
X34261905Y-37978628D01*
X35166667Y-37454819D02*
X35833333Y-37454819D01*
X35833333Y-37454819D02*
X35404762Y-38454819D01*
X52938095Y-51119819D02*
X52938095Y-51929342D01*
X52938095Y-51929342D02*
X52985714Y-52024580D01*
X52985714Y-52024580D02*
X53033333Y-52072200D01*
X53033333Y-52072200D02*
X53128571Y-52119819D01*
X53128571Y-52119819D02*
X53319047Y-52119819D01*
X53319047Y-52119819D02*
X53414285Y-52072200D01*
X53414285Y-52072200D02*
X53461904Y-52024580D01*
X53461904Y-52024580D02*
X53509523Y-51929342D01*
X53509523Y-51929342D02*
X53509523Y-51119819D01*
X53890476Y-51119819D02*
X54509523Y-51119819D01*
X54509523Y-51119819D02*
X54176190Y-51500771D01*
X54176190Y-51500771D02*
X54319047Y-51500771D01*
X54319047Y-51500771D02*
X54414285Y-51548390D01*
X54414285Y-51548390D02*
X54461904Y-51596009D01*
X54461904Y-51596009D02*
X54509523Y-51691247D01*
X54509523Y-51691247D02*
X54509523Y-51929342D01*
X54509523Y-51929342D02*
X54461904Y-52024580D01*
X54461904Y-52024580D02*
X54414285Y-52072200D01*
X54414285Y-52072200D02*
X54319047Y-52119819D01*
X54319047Y-52119819D02*
X54033333Y-52119819D01*
X54033333Y-52119819D02*
X53938095Y-52072200D01*
X53938095Y-52072200D02*
X53890476Y-52024580D01*
X39056077Y-50859580D02*
X39008458Y-50907200D01*
X39008458Y-50907200D02*
X38865601Y-50954819D01*
X38865601Y-50954819D02*
X38770363Y-50954819D01*
X38770363Y-50954819D02*
X38627506Y-50907200D01*
X38627506Y-50907200D02*
X38532268Y-50811961D01*
X38532268Y-50811961D02*
X38484649Y-50716723D01*
X38484649Y-50716723D02*
X38437030Y-50526247D01*
X38437030Y-50526247D02*
X38437030Y-50383390D01*
X38437030Y-50383390D02*
X38484649Y-50192914D01*
X38484649Y-50192914D02*
X38532268Y-50097676D01*
X38532268Y-50097676D02*
X38627506Y-50002438D01*
X38627506Y-50002438D02*
X38770363Y-49954819D01*
X38770363Y-49954819D02*
X38865601Y-49954819D01*
X38865601Y-49954819D02*
X39008458Y-50002438D01*
X39008458Y-50002438D02*
X39056077Y-50050057D01*
X39437030Y-50050057D02*
X39484649Y-50002438D01*
X39484649Y-50002438D02*
X39579887Y-49954819D01*
X39579887Y-49954819D02*
X39817982Y-49954819D01*
X39817982Y-49954819D02*
X39913220Y-50002438D01*
X39913220Y-50002438D02*
X39960839Y-50050057D01*
X39960839Y-50050057D02*
X40008458Y-50145295D01*
X40008458Y-50145295D02*
X40008458Y-50240533D01*
X40008458Y-50240533D02*
X39960839Y-50383390D01*
X39960839Y-50383390D02*
X39389411Y-50954819D01*
X39389411Y-50954819D02*
X40008458Y-50954819D01*
X40579887Y-50383390D02*
X40484649Y-50335771D01*
X40484649Y-50335771D02*
X40437030Y-50288152D01*
X40437030Y-50288152D02*
X40389411Y-50192914D01*
X40389411Y-50192914D02*
X40389411Y-50145295D01*
X40389411Y-50145295D02*
X40437030Y-50050057D01*
X40437030Y-50050057D02*
X40484649Y-50002438D01*
X40484649Y-50002438D02*
X40579887Y-49954819D01*
X40579887Y-49954819D02*
X40770363Y-49954819D01*
X40770363Y-49954819D02*
X40865601Y-50002438D01*
X40865601Y-50002438D02*
X40913220Y-50050057D01*
X40913220Y-50050057D02*
X40960839Y-50145295D01*
X40960839Y-50145295D02*
X40960839Y-50192914D01*
X40960839Y-50192914D02*
X40913220Y-50288152D01*
X40913220Y-50288152D02*
X40865601Y-50335771D01*
X40865601Y-50335771D02*
X40770363Y-50383390D01*
X40770363Y-50383390D02*
X40579887Y-50383390D01*
X40579887Y-50383390D02*
X40484649Y-50431009D01*
X40484649Y-50431009D02*
X40437030Y-50478628D01*
X40437030Y-50478628D02*
X40389411Y-50573866D01*
X40389411Y-50573866D02*
X40389411Y-50764342D01*
X40389411Y-50764342D02*
X40437030Y-50859580D01*
X40437030Y-50859580D02*
X40484649Y-50907200D01*
X40484649Y-50907200D02*
X40579887Y-50954819D01*
X40579887Y-50954819D02*
X40770363Y-50954819D01*
X40770363Y-50954819D02*
X40865601Y-50907200D01*
X40865601Y-50907200D02*
X40913220Y-50859580D01*
X40913220Y-50859580D02*
X40960839Y-50764342D01*
X40960839Y-50764342D02*
X40960839Y-50573866D01*
X40960839Y-50573866D02*
X40913220Y-50478628D01*
X40913220Y-50478628D02*
X40865601Y-50431009D01*
X40865601Y-50431009D02*
X40770363Y-50383390D01*
X58609580Y-55441541D02*
X58657200Y-55489160D01*
X58657200Y-55489160D02*
X58704819Y-55632017D01*
X58704819Y-55632017D02*
X58704819Y-55727255D01*
X58704819Y-55727255D02*
X58657200Y-55870112D01*
X58657200Y-55870112D02*
X58561961Y-55965350D01*
X58561961Y-55965350D02*
X58466723Y-56012969D01*
X58466723Y-56012969D02*
X58276247Y-56060588D01*
X58276247Y-56060588D02*
X58133390Y-56060588D01*
X58133390Y-56060588D02*
X57942914Y-56012969D01*
X57942914Y-56012969D02*
X57847676Y-55965350D01*
X57847676Y-55965350D02*
X57752438Y-55870112D01*
X57752438Y-55870112D02*
X57704819Y-55727255D01*
X57704819Y-55727255D02*
X57704819Y-55632017D01*
X57704819Y-55632017D02*
X57752438Y-55489160D01*
X57752438Y-55489160D02*
X57800057Y-55441541D01*
X57704819Y-55108207D02*
X57704819Y-54441541D01*
X57704819Y-54441541D02*
X58704819Y-54870112D01*
X45892857Y-69207200D02*
X46035714Y-69254819D01*
X46035714Y-69254819D02*
X46273809Y-69254819D01*
X46273809Y-69254819D02*
X46369047Y-69207200D01*
X46369047Y-69207200D02*
X46416666Y-69159580D01*
X46416666Y-69159580D02*
X46464285Y-69064342D01*
X46464285Y-69064342D02*
X46464285Y-68969104D01*
X46464285Y-68969104D02*
X46416666Y-68873866D01*
X46416666Y-68873866D02*
X46369047Y-68826247D01*
X46369047Y-68826247D02*
X46273809Y-68778628D01*
X46273809Y-68778628D02*
X46083333Y-68731009D01*
X46083333Y-68731009D02*
X45988095Y-68683390D01*
X45988095Y-68683390D02*
X45940476Y-68635771D01*
X45940476Y-68635771D02*
X45892857Y-68540533D01*
X45892857Y-68540533D02*
X45892857Y-68445295D01*
X45892857Y-68445295D02*
X45940476Y-68350057D01*
X45940476Y-68350057D02*
X45988095Y-68302438D01*
X45988095Y-68302438D02*
X46083333Y-68254819D01*
X46083333Y-68254819D02*
X46321428Y-68254819D01*
X46321428Y-68254819D02*
X46464285Y-68302438D01*
X46797619Y-68254819D02*
X47035714Y-69254819D01*
X47035714Y-69254819D02*
X47226190Y-68540533D01*
X47226190Y-68540533D02*
X47416666Y-69254819D01*
X47416666Y-69254819D02*
X47654762Y-68254819D01*
X48035714Y-69254819D02*
X48035714Y-68254819D01*
X48035714Y-68254819D02*
X48273809Y-68254819D01*
X48273809Y-68254819D02*
X48416666Y-68302438D01*
X48416666Y-68302438D02*
X48511904Y-68397676D01*
X48511904Y-68397676D02*
X48559523Y-68492914D01*
X48559523Y-68492914D02*
X48607142Y-68683390D01*
X48607142Y-68683390D02*
X48607142Y-68826247D01*
X48607142Y-68826247D02*
X48559523Y-69016723D01*
X48559523Y-69016723D02*
X48511904Y-69111961D01*
X48511904Y-69111961D02*
X48416666Y-69207200D01*
X48416666Y-69207200D02*
X48273809Y-69254819D01*
X48273809Y-69254819D02*
X48035714Y-69254819D01*
%TO.C,J1*%
D10*
X20500000Y-30750000D02*
X29500000Y-30750000D01*
X20500000Y-59250000D02*
X20500000Y-30750000D01*
X22400000Y-55220000D02*
X22400000Y-34780000D01*
X25000000Y-52620000D02*
X25000000Y-55220000D01*
X25000000Y-55220000D02*
X22400000Y-55220000D01*
X27600000Y-34780000D02*
X22400000Y-34780000D01*
X27600000Y-52620000D02*
X25000000Y-52620000D01*
X27600000Y-52620000D02*
X27600000Y-34780000D01*
X27600000Y-53890000D02*
X27600000Y-55220000D01*
X27600000Y-55220000D02*
X26270000Y-55220000D01*
X29000000Y-42500000D02*
X29500000Y-42500000D01*
X29000000Y-47500000D02*
X29000000Y-42500000D01*
X29500000Y-30750000D02*
X29500000Y-45000000D01*
X29500000Y-45000000D02*
X29500000Y-59250000D01*
X29500000Y-47500000D02*
X29000000Y-47500000D01*
X29500000Y-59250000D02*
X20500000Y-59250000D01*
%TO.C,D1*%
X35940000Y-39240000D02*
X36940000Y-39240000D01*
X35940000Y-40760000D02*
X35940000Y-39240000D01*
X35990000Y-40760000D02*
X35940000Y-40760000D01*
X37890000Y-40760000D02*
X37110000Y-40760000D01*
X38060000Y-39240000D02*
X39060000Y-39240000D01*
X39060000Y-39240000D02*
X39060000Y-40760000D01*
X39060000Y-40760000D02*
X39010000Y-40760000D01*
X37120000Y-41300000D02*
X37450000Y-41060000D01*
X37450000Y-41540000D01*
X37120000Y-41300000D01*
G36*
X37450000Y-41540000D02*
G01*
X37120000Y-41300000D01*
X37450000Y-41060000D01*
X37450000Y-41540000D01*
G37*
%TO.C,J2*%
X58100000Y-65440000D02*
X58740000Y-65440000D01*
X60260000Y-65440000D02*
X60260000Y-64810000D01*
X60850000Y-68160000D02*
X58150000Y-68160000D01*
X60900000Y-65440000D02*
X60260000Y-65440000D01*
%TO.C,AE1*%
X67340000Y-49700000D02*
X67340000Y-53610000D01*
X67340000Y-53610000D02*
X69660000Y-53610000D01*
X69660000Y-53610000D02*
X69660000Y-49700000D01*
%TO.C,C6*%
D12*
X51800000Y-52370000D02*
X51600000Y-52370000D01*
X51800000Y-53130000D02*
X51600000Y-53130000D01*
%TO.C,C26*%
D10*
X52490000Y-48140580D02*
X52490000Y-47859420D01*
X53510000Y-48140580D02*
X53510000Y-47859420D01*
%TO.C,U1*%
X44390000Y-50890000D02*
X44865000Y-50890000D01*
X44390000Y-51365000D02*
X44390000Y-50890000D01*
X44390000Y-56110000D02*
X44390000Y-55635000D01*
X44865000Y-56110000D02*
X44390000Y-56110000D01*
X49135000Y-50890000D02*
X49610000Y-50890000D01*
X49610000Y-50890000D02*
X49610000Y-51365000D01*
X49610000Y-55635000D02*
X49610000Y-56110000D01*
X49610000Y-56110000D02*
X49135000Y-56110000D01*
X45250000Y-56610000D02*
X45490000Y-56940000D01*
X45010000Y-56940000D01*
X45250000Y-56610000D01*
G36*
X45490000Y-56940000D02*
G01*
X45010000Y-56940000D01*
X45250000Y-56610000D01*
X45490000Y-56940000D01*
G37*
%TO.C,C24*%
X42390580Y-56740000D02*
X42109420Y-56740000D01*
X42390580Y-57760000D02*
X42109420Y-57760000D01*
%TO.C,C23*%
X51490000Y-57859420D02*
X51490000Y-58140580D01*
X52510000Y-57859420D02*
X52510000Y-58140580D01*
%TO.C,D6*%
X37240000Y-25940000D02*
X38760000Y-25940000D01*
X37240000Y-26940000D02*
X37240000Y-25940000D01*
X37240000Y-29060000D02*
X37240000Y-28060000D01*
X38760000Y-25940000D02*
X38760000Y-25990000D01*
X38760000Y-27110000D02*
X38760000Y-27890000D01*
X38760000Y-29010000D02*
X38760000Y-29060000D01*
X38760000Y-29060000D02*
X37240000Y-29060000D01*
X39300000Y-27880000D02*
X39060000Y-27550000D01*
X39540000Y-27550000D01*
X39300000Y-27880000D01*
G36*
X39300000Y-27880000D02*
G01*
X39060000Y-27550000D01*
X39540000Y-27550000D01*
X39300000Y-27880000D01*
G37*
%TO.C,C27*%
X53990000Y-48140580D02*
X53990000Y-47859420D01*
X55010000Y-48140580D02*
X55010000Y-47859420D01*
%TO.C,R3*%
X40477500Y-24487258D02*
X40477500Y-24012742D01*
X41522500Y-24487258D02*
X41522500Y-24012742D01*
%TO.C,J3*%
X42000000Y-20600000D02*
X51000000Y-20600000D01*
X42000000Y-36400000D02*
X42000000Y-20600000D01*
X43900000Y-32370000D02*
X43900000Y-24630000D01*
X46500000Y-29770000D02*
X46500000Y-32370000D01*
X46500000Y-32370000D02*
X43900000Y-32370000D01*
X49100000Y-24630000D02*
X43900000Y-24630000D01*
X49100000Y-29770000D02*
X46500000Y-29770000D01*
X49100000Y-29770000D02*
X49100000Y-24630000D01*
X49100000Y-31040000D02*
X49100000Y-32370000D01*
X49100000Y-32370000D02*
X47770000Y-32370000D01*
X50500000Y-26000000D02*
X51000000Y-26000000D01*
X50500000Y-31000000D02*
X50500000Y-26000000D01*
X51000000Y-20600000D02*
X51000000Y-22150000D01*
X51000000Y-22150000D02*
X51000000Y-36400000D01*
X51000000Y-31000000D02*
X50500000Y-31000000D01*
X51000000Y-36400000D02*
X42000000Y-36400000D01*
%TO.C,C25*%
X42390580Y-55240000D02*
X42109420Y-55240000D01*
X42390580Y-56260000D02*
X42109420Y-56260000D01*
%TO.C,R8*%
X42977500Y-40012742D02*
X42977500Y-40487258D01*
X44022500Y-40012742D02*
X44022500Y-40487258D01*
%TO.C,J4*%
X52160000Y-20600000D02*
X61160000Y-20600000D01*
X52160000Y-36400000D02*
X52160000Y-20600000D01*
X54060000Y-32370000D02*
X54060000Y-24630000D01*
X56660000Y-29770000D02*
X56660000Y-32370000D01*
X56660000Y-32370000D02*
X54060000Y-32370000D01*
X59260000Y-24630000D02*
X54060000Y-24630000D01*
X59260000Y-29770000D02*
X56660000Y-29770000D01*
X59260000Y-29770000D02*
X59260000Y-24630000D01*
X59260000Y-31040000D02*
X59260000Y-32370000D01*
X59260000Y-32370000D02*
X57930000Y-32370000D01*
X60660000Y-26000000D02*
X61160000Y-26000000D01*
X60660000Y-31000000D02*
X60660000Y-26000000D01*
X61160000Y-20600000D02*
X61160000Y-22150000D01*
X61160000Y-22150000D02*
X61160000Y-36400000D01*
X61160000Y-31000000D02*
X60660000Y-31000000D01*
X61160000Y-36400000D02*
X52160000Y-36400000D01*
%TO.C,R5*%
D12*
X56650000Y-52370000D02*
X56850000Y-52370000D01*
X56650000Y-53130000D02*
X56850000Y-53130000D01*
D13*
%TO.C,G\u002A\u002A\u002A*%
G36*
X66114720Y-40725555D02*
G01*
X66114720Y-40792680D01*
X65983827Y-40792680D01*
X65852933Y-40792680D01*
X65852933Y-40725555D01*
X65852933Y-40658430D01*
X65983827Y-40658430D01*
X66114720Y-40658430D01*
X66114720Y-40725555D01*
G37*
G36*
X66114720Y-41014191D02*
G01*
X66114720Y-41081316D01*
X65983827Y-41081316D01*
X65852933Y-41081316D01*
X65852933Y-41014191D01*
X65852933Y-40947067D01*
X65983827Y-40947067D01*
X66114720Y-40947067D01*
X66114720Y-41014191D01*
G37*
G36*
X66490618Y-40007320D02*
G01*
X66490618Y-40134857D01*
X66423057Y-40134857D01*
X66355495Y-40134857D01*
X66356962Y-40007320D01*
X66358428Y-39879783D01*
X66424523Y-39879783D01*
X66490618Y-39879783D01*
X66490618Y-40007320D01*
G37*
G36*
X66490618Y-41739139D02*
G01*
X66490618Y-41866676D01*
X66423494Y-41866676D01*
X66356369Y-41866676D01*
X66356369Y-41739139D01*
X66356369Y-41611602D01*
X66423494Y-41611602D01*
X66490618Y-41611602D01*
X66490618Y-41739139D01*
G37*
G36*
X66772542Y-40007320D02*
G01*
X66772542Y-40134857D01*
X66708774Y-40134857D01*
X66645005Y-40134857D01*
X66645005Y-40007320D01*
X66645005Y-39879783D01*
X66708774Y-39879783D01*
X66772542Y-39879783D01*
X66772542Y-40007320D01*
G37*
G36*
X66772542Y-41739139D02*
G01*
X66772542Y-41866676D01*
X66708774Y-41866676D01*
X66645005Y-41866676D01*
X66645005Y-41739139D01*
X66645005Y-41611602D01*
X66708774Y-41611602D01*
X66772542Y-41611602D01*
X66772542Y-41739139D01*
G37*
G36*
X67054466Y-40007320D02*
G01*
X67054466Y-40134857D01*
X66990698Y-40134857D01*
X66926929Y-40134857D01*
X66926929Y-40007320D01*
X66926929Y-39879783D01*
X66990698Y-39879783D01*
X67054466Y-39879783D01*
X67054466Y-40007320D01*
G37*
G36*
X67054466Y-41739139D02*
G01*
X67054466Y-41866676D01*
X66990698Y-41866676D01*
X66926929Y-41866676D01*
X66926929Y-41739139D01*
X66926929Y-41611602D01*
X66990698Y-41611602D01*
X67054466Y-41611602D01*
X67054466Y-41739139D01*
G37*
G36*
X67342166Y-40007320D02*
G01*
X67342166Y-40134857D01*
X67275509Y-40134857D01*
X67208853Y-40134857D01*
X67208853Y-40007320D01*
X67208853Y-39879783D01*
X67275509Y-39879783D01*
X67342166Y-39879783D01*
X67342166Y-40007320D01*
G37*
G36*
X67846538Y-40725410D02*
G01*
X67846538Y-40792680D01*
X67715402Y-40792680D01*
X67584265Y-40792680D01*
X67586187Y-40727233D01*
X67588108Y-40661787D01*
X67717323Y-40659964D01*
X67846538Y-40658140D01*
X67846538Y-40725410D01*
G37*
G36*
X67846538Y-41014191D02*
G01*
X67846538Y-41081316D01*
X67715645Y-41081316D01*
X67584751Y-41081316D01*
X67584751Y-41014191D01*
X67584751Y-40947067D01*
X67715645Y-40947067D01*
X67846538Y-40947067D01*
X67846538Y-41014191D01*
G37*
G36*
X67769135Y-41230019D02*
G01*
X67798309Y-41230599D01*
X67818528Y-41231623D01*
X67824722Y-41232348D01*
X67846538Y-41236311D01*
X67846538Y-41303277D01*
X67846538Y-41370242D01*
X67717323Y-41368419D01*
X67588108Y-41366596D01*
X67588108Y-41299472D01*
X67588108Y-41232347D01*
X67695507Y-41230365D01*
X67733903Y-41229926D01*
X67769135Y-41230019D01*
G37*
G36*
X67338907Y-41632578D02*
G01*
X67340419Y-41647621D01*
X67341407Y-41672768D01*
X67341882Y-41704708D01*
X67341855Y-41740130D01*
X67341337Y-41775724D01*
X67340339Y-41808179D01*
X67338872Y-41834185D01*
X67338213Y-41841504D01*
X67335580Y-41866676D01*
X67272216Y-41866676D01*
X67208853Y-41866676D01*
X67208853Y-41739139D01*
X67208853Y-41611602D01*
X67271782Y-41611602D01*
X67334712Y-41611602D01*
X67338907Y-41632578D01*
G37*
G36*
X67757026Y-40370574D02*
G01*
X67788659Y-40371812D01*
X67812481Y-40373693D01*
X67815395Y-40374063D01*
X67846538Y-40378331D01*
X67846538Y-40444688D01*
X67846538Y-40511046D01*
X67717323Y-40509223D01*
X67588108Y-40507400D01*
X67586197Y-40442839D01*
X67584287Y-40378278D01*
X67605496Y-40374036D01*
X67623129Y-40372055D01*
X67650635Y-40370718D01*
X67684478Y-40370026D01*
X67721121Y-40369978D01*
X67757026Y-40370574D01*
G37*
G36*
X66014122Y-41230418D02*
G01*
X66047330Y-41231426D01*
X66069411Y-41232825D01*
X66114720Y-41237066D01*
X66114720Y-41299034D01*
X66114264Y-41326666D01*
X66113041Y-41349002D01*
X66111271Y-41362796D01*
X66110245Y-41365478D01*
X66102424Y-41366882D01*
X66083348Y-41368106D01*
X66055187Y-41369075D01*
X66020110Y-41369715D01*
X65980287Y-41369952D01*
X65979352Y-41369953D01*
X65852933Y-41369953D01*
X65852938Y-41301150D01*
X65852943Y-41232347D01*
X65938522Y-41230466D01*
X65976306Y-41230070D01*
X66014122Y-41230418D01*
G37*
G36*
X65973329Y-40372810D02*
G01*
X66011282Y-40373945D01*
X66019067Y-40374277D01*
X66114720Y-40378591D01*
X66114720Y-40440199D01*
X66114261Y-40467747D01*
X66113032Y-40489995D01*
X66111254Y-40503683D01*
X66110245Y-40506281D01*
X66102424Y-40507685D01*
X66083348Y-40508909D01*
X66055187Y-40509879D01*
X66020110Y-40510519D01*
X65980287Y-40510756D01*
X65979352Y-40510756D01*
X65852933Y-40510756D01*
X65852933Y-40444566D01*
X65852933Y-40378376D01*
X65888174Y-40374170D01*
X65908082Y-40372920D01*
X65937698Y-40372468D01*
X65973329Y-40372810D01*
G37*
G36*
X66951041Y-40242313D02*
G01*
X67039790Y-40242345D01*
X67116850Y-40242421D01*
X67183091Y-40242562D01*
X67239381Y-40242787D01*
X67286589Y-40243116D01*
X67325582Y-40243569D01*
X67357229Y-40244164D01*
X67382399Y-40244923D01*
X67401960Y-40245863D01*
X67416781Y-40247006D01*
X67427730Y-40248370D01*
X67435675Y-40249975D01*
X67441486Y-40251841D01*
X67446030Y-40253988D01*
X67449228Y-40255854D01*
X67456468Y-40260172D01*
X67462816Y-40264306D01*
X67468329Y-40269117D01*
X67473064Y-40275466D01*
X67477079Y-40284214D01*
X67480432Y-40296223D01*
X67483179Y-40312353D01*
X67485377Y-40333467D01*
X67487085Y-40360425D01*
X67488360Y-40394090D01*
X67489259Y-40435321D01*
X67489839Y-40484980D01*
X67490158Y-40543930D01*
X67490273Y-40613030D01*
X67490241Y-40693142D01*
X67490121Y-40785128D01*
X67489998Y-40867980D01*
X67489838Y-40953175D01*
X67489608Y-41034676D01*
X67489315Y-41111460D01*
X67488966Y-41182503D01*
X67488569Y-41246782D01*
X67488132Y-41303274D01*
X67487662Y-41350957D01*
X67487166Y-41388806D01*
X67486652Y-41415800D01*
X67486128Y-41430914D01*
X67485858Y-41433721D01*
X67472700Y-41461046D01*
X67450386Y-41481867D01*
X67430441Y-41490757D01*
X67418129Y-41492203D01*
X67392717Y-41493432D01*
X67354165Y-41494445D01*
X67302433Y-41495241D01*
X67237480Y-41495821D01*
X67159267Y-41496186D01*
X67067754Y-41496335D01*
X66962901Y-41496269D01*
X66844667Y-41495989D01*
X66835046Y-41495959D01*
X66734273Y-41495624D01*
X66646058Y-41495294D01*
X66569535Y-41494949D01*
X66503837Y-41494567D01*
X66448099Y-41494127D01*
X66401454Y-41493609D01*
X66363035Y-41492992D01*
X66331976Y-41492255D01*
X66307410Y-41491378D01*
X66288471Y-41490339D01*
X66274294Y-41489117D01*
X66264010Y-41487693D01*
X66256754Y-41486044D01*
X66251659Y-41484150D01*
X66247860Y-41481991D01*
X66247638Y-41481842D01*
X66240798Y-41477204D01*
X66234794Y-41472594D01*
X66229576Y-41467157D01*
X66225092Y-41460037D01*
X66221290Y-41450377D01*
X66218119Y-41437321D01*
X66215528Y-41420014D01*
X66213465Y-41397600D01*
X66211879Y-41369222D01*
X66210718Y-41334025D01*
X66209932Y-41291153D01*
X66209468Y-41239749D01*
X66209276Y-41178959D01*
X66209303Y-41107925D01*
X66209499Y-41025792D01*
X66209812Y-40931704D01*
X66210080Y-40856392D01*
X66210427Y-40755119D01*
X66210744Y-40666406D01*
X66211091Y-40589387D01*
X66211526Y-40523199D01*
X66212108Y-40466975D01*
X66212897Y-40419852D01*
X66213950Y-40380964D01*
X66215328Y-40349446D01*
X66217090Y-40324434D01*
X66219293Y-40305062D01*
X66221998Y-40290466D01*
X66225263Y-40279780D01*
X66229148Y-40272141D01*
X66233710Y-40266682D01*
X66239010Y-40262540D01*
X66245106Y-40258849D01*
X66251076Y-40255348D01*
X66255187Y-40253058D01*
X66260100Y-40251053D01*
X66266683Y-40249314D01*
X66275802Y-40247822D01*
X66288325Y-40246558D01*
X66305118Y-40245504D01*
X66327048Y-40244639D01*
X66354982Y-40243946D01*
X66389788Y-40243406D01*
X66432333Y-40242999D01*
X66483482Y-40242707D01*
X66544104Y-40242511D01*
X66615065Y-40242392D01*
X66697233Y-40242331D01*
X66791474Y-40242309D01*
X66849736Y-40242307D01*
X66951041Y-40242313D01*
G37*
G36*
X64536944Y-38201897D02*
G01*
X64546284Y-38216952D01*
X64560370Y-38240335D01*
X64578215Y-38270401D01*
X64598829Y-38305502D01*
X64607870Y-38320997D01*
X64632517Y-38363285D01*
X64657735Y-38406494D01*
X64681730Y-38447553D01*
X64702708Y-38483395D01*
X64718877Y-38510951D01*
X64719930Y-38512741D01*
X64735391Y-38539528D01*
X64747937Y-38562225D01*
X64756188Y-38578271D01*
X64758800Y-38584900D01*
X64761842Y-38591896D01*
X64770741Y-38587330D01*
X64785159Y-38571547D01*
X64804760Y-38544897D01*
X64820103Y-38521934D01*
X64838599Y-38493796D01*
X64860898Y-38460413D01*
X64885780Y-38423557D01*
X64912026Y-38384996D01*
X64938417Y-38346503D01*
X64963733Y-38309846D01*
X64986756Y-38276797D01*
X65006265Y-38249126D01*
X65021042Y-38228603D01*
X65029868Y-38216999D01*
X65031028Y-38215671D01*
X65037588Y-38210133D01*
X65037710Y-38216095D01*
X65037063Y-38219028D01*
X65033858Y-38233945D01*
X65028760Y-38258999D01*
X65022138Y-38292265D01*
X65014363Y-38331821D01*
X65005805Y-38375743D01*
X64996832Y-38422108D01*
X64987814Y-38468994D01*
X64979122Y-38514477D01*
X64971125Y-38556635D01*
X64964193Y-38593544D01*
X64958695Y-38623281D01*
X64955001Y-38643923D01*
X64953481Y-38653548D01*
X64953462Y-38653873D01*
X64956508Y-38657264D01*
X64966707Y-38655867D01*
X64985649Y-38649242D01*
X65014923Y-38636949D01*
X65015552Y-38636675D01*
X65044289Y-38624279D01*
X65081417Y-38608512D01*
X65122897Y-38591074D01*
X65164690Y-38573669D01*
X65181238Y-38566831D01*
X65284833Y-38524134D01*
X65261662Y-38549171D01*
X65247431Y-38564480D01*
X65227012Y-38586360D01*
X65203410Y-38611594D01*
X65184917Y-38631329D01*
X65131641Y-38688574D01*
X65084791Y-38739823D01*
X65044832Y-38784531D01*
X65012231Y-38822155D01*
X64987454Y-38852152D01*
X64970967Y-38873979D01*
X64963236Y-38887091D01*
X64962802Y-38890215D01*
X64972670Y-38900872D01*
X64991716Y-38911432D01*
X65015786Y-38920227D01*
X65040724Y-38925587D01*
X65053004Y-38926465D01*
X65074761Y-38923928D01*
X65102319Y-38917157D01*
X65126241Y-38908939D01*
X65198684Y-38885140D01*
X65266444Y-38873527D01*
X65329243Y-38874126D01*
X65376116Y-38883534D01*
X65416442Y-38902267D01*
X65452755Y-38932424D01*
X65483860Y-38972305D01*
X65508563Y-39020208D01*
X65525671Y-39074433D01*
X65531149Y-39104419D01*
X65535470Y-39163186D01*
X65531330Y-39221251D01*
X65518284Y-39282504D01*
X65506253Y-39321642D01*
X65497005Y-39349918D01*
X65489940Y-39373110D01*
X65485841Y-39388535D01*
X65485254Y-39393517D01*
X65490914Y-39390237D01*
X65505032Y-39379630D01*
X65525854Y-39363082D01*
X65551626Y-39341980D01*
X65571285Y-39325565D01*
X65622679Y-39282691D01*
X65672075Y-39242173D01*
X65718379Y-39204857D01*
X65760498Y-39171592D01*
X65797338Y-39143225D01*
X65827807Y-39120604D01*
X65850810Y-39104576D01*
X65865255Y-39095991D01*
X65868965Y-39094751D01*
X65876261Y-39098306D01*
X65892453Y-39108323D01*
X65915501Y-39123477D01*
X65943367Y-39142440D01*
X65959583Y-39153716D01*
X65989418Y-39174553D01*
X66015664Y-39192774D01*
X66036218Y-39206927D01*
X66048977Y-39215561D01*
X66051822Y-39217382D01*
X66061731Y-39217031D01*
X66078470Y-39211244D01*
X66088741Y-39206328D01*
X66168973Y-39167826D01*
X66259351Y-39131034D01*
X66356607Y-39097157D01*
X66457470Y-39067402D01*
X66483906Y-39060484D01*
X66595140Y-39037384D01*
X66714825Y-39022219D01*
X66840537Y-39015050D01*
X66969852Y-39015940D01*
X67100348Y-39024952D01*
X67225634Y-39041489D01*
X67376134Y-39072731D01*
X67520479Y-39115893D01*
X67658595Y-39170925D01*
X67790406Y-39237778D01*
X67915839Y-39316403D01*
X68034818Y-39406749D01*
X68147269Y-39508767D01*
X68253117Y-39622408D01*
X68352287Y-39747622D01*
X68404843Y-39822727D01*
X68487049Y-39957149D01*
X68557273Y-40097082D01*
X68615657Y-40242897D01*
X68662340Y-40394962D01*
X68697462Y-40553648D01*
X68709605Y-40627812D01*
X68712800Y-40656452D01*
X68715746Y-40695540D01*
X68718350Y-40742099D01*
X68720515Y-40793153D01*
X68722147Y-40845726D01*
X68723151Y-40896842D01*
X68723430Y-40943523D01*
X68722889Y-40982795D01*
X68721761Y-41007479D01*
X68707245Y-41136177D01*
X68682103Y-41268598D01*
X68647252Y-41401807D01*
X68603605Y-41532868D01*
X68552079Y-41658843D01*
X68493590Y-41776798D01*
X68467639Y-41822446D01*
X68400119Y-41928911D01*
X68328483Y-42026382D01*
X68249452Y-42119071D01*
X68182461Y-42188874D01*
X68098312Y-42269008D01*
X68015588Y-42339824D01*
X67931428Y-42403313D01*
X67842972Y-42461467D01*
X67747359Y-42516279D01*
X67641727Y-42569738D01*
X67621670Y-42579257D01*
X67516353Y-42623508D01*
X67401298Y-42662074D01*
X67279284Y-42694118D01*
X67164063Y-42716986D01*
X67128953Y-42721394D01*
X67082908Y-42724909D01*
X67028388Y-42727529D01*
X66967853Y-42729253D01*
X66944923Y-42729549D01*
X66903763Y-42730080D01*
X66838578Y-42730011D01*
X66774759Y-42729043D01*
X66714765Y-42727175D01*
X66661056Y-42724408D01*
X66616093Y-42720740D01*
X66588312Y-42717194D01*
X66465368Y-42694261D01*
X66351909Y-42666114D01*
X66244668Y-42631739D01*
X66140380Y-42590125D01*
X66064717Y-42554831D01*
X65931495Y-42482722D01*
X65808594Y-42402836D01*
X65694838Y-42314320D01*
X65589049Y-42216323D01*
X65571009Y-42197868D01*
X65479106Y-42096691D01*
X65398214Y-41994810D01*
X65326149Y-41889052D01*
X65260727Y-41776240D01*
X65206938Y-41668658D01*
X65146788Y-41524670D01*
X65099489Y-41377012D01*
X65064965Y-41225390D01*
X65043139Y-41069509D01*
X65039429Y-41026872D01*
X65035378Y-40918263D01*
X65037649Y-40842069D01*
X65343920Y-40842069D01*
X65344948Y-40906792D01*
X65353202Y-41037595D01*
X65370264Y-41160369D01*
X65396770Y-41277734D01*
X65433353Y-41392311D01*
X65480647Y-41506719D01*
X65500155Y-41547833D01*
X65565566Y-41669209D01*
X65638664Y-41781147D01*
X65721348Y-41886322D01*
X65804450Y-41976319D01*
X65899934Y-42064211D01*
X66004106Y-42144252D01*
X66115182Y-42215461D01*
X66231375Y-42276857D01*
X66350901Y-42327460D01*
X66471976Y-42366291D01*
X66546680Y-42383951D01*
X66678519Y-42405136D01*
X66812091Y-42415756D01*
X66944923Y-42415816D01*
X67074540Y-42405321D01*
X67198468Y-42384276D01*
X67205497Y-42382716D01*
X67292013Y-42359586D01*
X67383662Y-42328469D01*
X67476283Y-42291067D01*
X67565720Y-42249085D01*
X67647814Y-42204227D01*
X67661945Y-42195700D01*
X67742376Y-42141703D01*
X67824276Y-42078008D01*
X67904244Y-42007429D01*
X67974764Y-41937157D01*
X68057907Y-41839811D01*
X68133749Y-41732566D01*
X68201396Y-41617319D01*
X68259953Y-41495970D01*
X68308526Y-41370416D01*
X68346221Y-41242555D01*
X68372143Y-41114286D01*
X68376380Y-41084672D01*
X68380124Y-41056341D01*
X68383540Y-41030707D01*
X68385971Y-41012683D01*
X68386225Y-41010835D01*
X68386954Y-40998378D01*
X68387444Y-40974744D01*
X68387684Y-40942178D01*
X68387662Y-40902927D01*
X68387365Y-40859236D01*
X68387150Y-40839667D01*
X68386303Y-40786391D01*
X68385061Y-40743539D01*
X68383184Y-40708112D01*
X68380432Y-40677110D01*
X68376566Y-40647534D01*
X68371346Y-40616385D01*
X68367807Y-40597470D01*
X68333877Y-40450989D01*
X68289820Y-40313080D01*
X68235344Y-40183180D01*
X68170158Y-40060724D01*
X68093968Y-39945146D01*
X68006483Y-39835881D01*
X67934040Y-39758497D01*
X67830669Y-39663620D01*
X67720209Y-39579420D01*
X67601401Y-39505011D01*
X67495626Y-39450090D01*
X67435211Y-39423654D01*
X67370200Y-39399913D01*
X67298586Y-39378282D01*
X67218361Y-39358177D01*
X67127518Y-39339014D01*
X67088028Y-39331531D01*
X67048786Y-39326177D01*
X66999254Y-39322301D01*
X66942486Y-39319901D01*
X66881536Y-39318976D01*
X66819458Y-39319525D01*
X66759306Y-39321546D01*
X66704132Y-39325038D01*
X66656992Y-39329998D01*
X66645005Y-39331752D01*
X66504685Y-39360707D01*
X66368531Y-39402281D01*
X66237261Y-39456119D01*
X66111597Y-39521863D01*
X65992260Y-39599158D01*
X65879969Y-39687647D01*
X65825818Y-39736809D01*
X65732976Y-39833915D01*
X65647918Y-39940588D01*
X65571626Y-40055094D01*
X65505078Y-40175701D01*
X65449257Y-40300674D01*
X65405142Y-40428281D01*
X65380436Y-40524181D01*
X65363743Y-40608243D01*
X65352415Y-40685771D01*
X65345968Y-40761977D01*
X65343920Y-40842069D01*
X65037649Y-40842069D01*
X65038800Y-40803443D01*
X65049249Y-40685766D01*
X65066279Y-40568590D01*
X65089444Y-40455270D01*
X65118298Y-40349161D01*
X65136945Y-40293668D01*
X65153264Y-40248709D01*
X65133516Y-40200180D01*
X65123972Y-40176835D01*
X65110722Y-40144574D01*
X65095203Y-40106884D01*
X65078849Y-40067251D01*
X65070533Y-40047134D01*
X65056220Y-40012225D01*
X65043907Y-39981611D01*
X65034445Y-39957451D01*
X65028682Y-39941906D01*
X65027299Y-39937206D01*
X65031412Y-39930267D01*
X65042981Y-39914464D01*
X65060850Y-39891230D01*
X65083862Y-39862000D01*
X65110861Y-39828208D01*
X65140691Y-39791288D01*
X65172195Y-39752674D01*
X65204219Y-39713801D01*
X65235605Y-39676103D01*
X65265197Y-39641013D01*
X65280776Y-39622780D01*
X65307767Y-39591247D01*
X65327300Y-39567744D01*
X65340684Y-39550134D01*
X65349231Y-39536283D01*
X65354250Y-39524053D01*
X65357053Y-39511309D01*
X65358949Y-39495915D01*
X65359021Y-39495243D01*
X65361519Y-39474475D01*
X65365561Y-39443669D01*
X65370706Y-39406062D01*
X65376514Y-39364893D01*
X65380682Y-39336073D01*
X65388885Y-39274121D01*
X65393549Y-39223228D01*
X65394628Y-39181490D01*
X65392075Y-39147005D01*
X65385846Y-39117868D01*
X65375895Y-39092177D01*
X65374765Y-39089869D01*
X65354265Y-39058789D01*
X65328414Y-39038122D01*
X65296414Y-39027732D01*
X65257464Y-39027478D01*
X65210763Y-39037224D01*
X65163935Y-39053441D01*
X65097737Y-39074869D01*
X65036026Y-39084523D01*
X64976800Y-39082381D01*
X64918060Y-39068423D01*
X64873607Y-39050417D01*
X64850621Y-39039858D01*
X64832956Y-39032255D01*
X64823531Y-39028845D01*
X64822732Y-39028841D01*
X64819217Y-39035152D01*
X64810830Y-39050538D01*
X64799064Y-39072254D01*
X64792528Y-39084355D01*
X64776061Y-39114549D01*
X64755736Y-39151296D01*
X64732283Y-39193321D01*
X64706429Y-39239349D01*
X64678905Y-39288107D01*
X64650438Y-39338318D01*
X64621757Y-39388708D01*
X64593593Y-39438001D01*
X64566673Y-39484924D01*
X64541726Y-39528201D01*
X64519482Y-39566556D01*
X64500668Y-39598717D01*
X64486015Y-39623406D01*
X64476251Y-39639350D01*
X64472104Y-39645273D01*
X64472082Y-39644847D01*
X64474390Y-39635661D01*
X64479205Y-39615348D01*
X64486072Y-39585870D01*
X64494533Y-39549195D01*
X64504132Y-39507287D01*
X64510262Y-39480391D01*
X64521951Y-39429050D01*
X64534272Y-39375030D01*
X64546371Y-39322064D01*
X64557396Y-39273885D01*
X64566492Y-39234226D01*
X64568183Y-39226870D01*
X64576131Y-39191932D01*
X64582873Y-39161551D01*
X64587881Y-39138164D01*
X64590628Y-39124211D01*
X64590988Y-39121549D01*
X64584995Y-39120313D01*
X64567535Y-39124322D01*
X64539386Y-39133318D01*
X64501326Y-39147043D01*
X64454135Y-39165239D01*
X64429889Y-39174913D01*
X64400664Y-39186668D01*
X64375431Y-39196792D01*
X64357161Y-39204095D01*
X64349339Y-39207190D01*
X64347747Y-39205361D01*
X64354444Y-39196488D01*
X64362764Y-39187738D01*
X64375610Y-39174819D01*
X64395565Y-39154564D01*
X64420381Y-39129266D01*
X64447808Y-39101214D01*
X64462865Y-39085776D01*
X64491223Y-39056408D01*
X64510942Y-39035198D01*
X64522973Y-39020907D01*
X64528266Y-39012298D01*
X64527774Y-39008133D01*
X64523268Y-39007162D01*
X64512704Y-39008076D01*
X64491209Y-39010605D01*
X64461134Y-39014424D01*
X64424833Y-39019211D01*
X64384659Y-39024645D01*
X64342964Y-39030401D01*
X64302100Y-39036157D01*
X64264421Y-39041590D01*
X64232280Y-39046379D01*
X64208028Y-39050199D01*
X64201709Y-39051270D01*
X64196873Y-39050959D01*
X64198504Y-39046881D01*
X64207377Y-39038421D01*
X64224267Y-39024962D01*
X64249949Y-39005888D01*
X64285198Y-38980583D01*
X64330789Y-38948429D01*
X64332602Y-38947158D01*
X64372611Y-38918841D01*
X64408764Y-38892741D01*
X64439663Y-38869911D01*
X64463907Y-38851401D01*
X64480098Y-38838264D01*
X64486836Y-38831550D01*
X64486945Y-38831181D01*
X64481759Y-38824320D01*
X64467758Y-38811934D01*
X64447274Y-38795973D01*
X64429889Y-38783414D01*
X64407638Y-38767762D01*
X64376890Y-38746060D01*
X64340091Y-38720038D01*
X64299686Y-38691425D01*
X64258118Y-38661951D01*
X64238583Y-38648085D01*
X64197856Y-38619174D01*
X64157621Y-38590629D01*
X64120198Y-38564092D01*
X64087902Y-38541207D01*
X64063051Y-38523616D01*
X64053990Y-38517213D01*
X64033357Y-38502280D01*
X64019026Y-38491184D01*
X64012833Y-38485390D01*
X64013716Y-38485044D01*
X64023612Y-38487997D01*
X64046261Y-38494500D01*
X64081485Y-38504502D01*
X64129103Y-38517954D01*
X64188935Y-38534803D01*
X64260802Y-38555001D01*
X64344525Y-38578495D01*
X64439923Y-38605236D01*
X64470129Y-38613698D01*
X64509775Y-38624713D01*
X64544741Y-38634256D01*
X64573078Y-38641808D01*
X64592834Y-38646852D01*
X64602060Y-38648870D01*
X64602485Y-38648854D01*
X64601891Y-38642092D01*
X64599322Y-38624245D01*
X64595112Y-38597453D01*
X64589596Y-38563854D01*
X64583906Y-38530232D01*
X64576792Y-38487991D01*
X64569373Y-38442649D01*
X64561939Y-38396121D01*
X64554781Y-38350318D01*
X64548190Y-38307154D01*
X64542454Y-38268542D01*
X64537865Y-38236394D01*
X64534711Y-38212625D01*
X64533285Y-38199146D01*
X64533338Y-38196816D01*
X64536944Y-38201897D01*
G37*
%TO.C,R6*%
D12*
X59650000Y-52370000D02*
X59850000Y-52370000D01*
X59650000Y-53130000D02*
X59850000Y-53130000D01*
%TO.C,R4*%
X54870000Y-53360000D02*
X54870000Y-53160000D01*
X55630000Y-53360000D02*
X55630000Y-53160000D01*
%TO.C,C2*%
D10*
X34640580Y-24740000D02*
X34359420Y-24740000D01*
X34640580Y-25760000D02*
X34359420Y-25760000D01*
%TO.C,Y2*%
X45740000Y-49110000D02*
X48260000Y-49110000D01*
X48260000Y-47390000D02*
X45740000Y-47390000D01*
X48260000Y-49110000D02*
X48260000Y-47390000D01*
%TO.C,R2*%
X40477500Y-27737258D02*
X40477500Y-27262742D01*
X41522500Y-27737258D02*
X41522500Y-27262742D01*
%TO.C,C30*%
X41390580Y-51740000D02*
X41109420Y-51740000D01*
X41390580Y-52760000D02*
X41109420Y-52760000D01*
%TO.C,C8*%
D12*
X60870000Y-53160000D02*
X60870000Y-53360000D01*
X61630000Y-53160000D02*
X61630000Y-53360000D01*
%TO.C,C41*%
D10*
X47240000Y-45790580D02*
X47240000Y-45509420D01*
X48260000Y-45790580D02*
X48260000Y-45509420D01*
%TO.C,C29*%
X42890580Y-48490000D02*
X42609420Y-48490000D01*
X42890580Y-49510000D02*
X42609420Y-49510000D01*
%TO.C,C36*%
X45740000Y-45790580D02*
X45740000Y-45509420D01*
X46760000Y-45790580D02*
X46760000Y-45509420D01*
%TO.C,J10*%
X38400000Y-65440000D02*
X39040000Y-65440000D01*
X40560000Y-65440000D02*
X40560000Y-64810000D01*
X41150000Y-68160000D02*
X38450000Y-68160000D01*
X41200000Y-65440000D02*
X40560000Y-65440000D01*
%TO.C,J11*%
X46800000Y-41060000D02*
X47440000Y-41060000D01*
X46850000Y-38340000D02*
X49550000Y-38340000D01*
X47440000Y-41060000D02*
X47440000Y-41690000D01*
X49600000Y-41060000D02*
X48960000Y-41060000D01*
%TO.C,R1*%
X40477500Y-30987258D02*
X40477500Y-30512742D01*
X41522500Y-30987258D02*
X41522500Y-30512742D01*
%TO.C,U2*%
X35150000Y-26340000D02*
X34100000Y-26340000D01*
X35150000Y-28660000D02*
X33850000Y-28660000D01*
X33740000Y-26340000D02*
X33460000Y-26340000D01*
X33740000Y-26060000D01*
X33740000Y-26340000D01*
G36*
X33740000Y-26340000D02*
G01*
X33460000Y-26340000D01*
X33740000Y-26060000D01*
X33740000Y-26340000D01*
G37*
%TO.C,Q1*%
X39440000Y-39240000D02*
X39490000Y-39240000D01*
X39440000Y-40760000D02*
X39440000Y-39240000D01*
X40440000Y-40760000D02*
X39440000Y-40760000D01*
X40610000Y-39240000D02*
X41390000Y-39240000D01*
X42510000Y-39240000D02*
X42560000Y-39240000D01*
X42560000Y-39240000D02*
X42560000Y-40760000D01*
X42560000Y-40760000D02*
X41560000Y-40760000D01*
X41380000Y-38700000D02*
X41050000Y-38940000D01*
X41050000Y-38460000D01*
X41380000Y-38700000D01*
G36*
X41380000Y-38700000D02*
G01*
X41050000Y-38940000D01*
X41050000Y-38460000D01*
X41380000Y-38700000D01*
G37*
%TO.C,Y1*%
X49290000Y-50160000D02*
X51710000Y-50160000D01*
X51710000Y-50160000D02*
X51710000Y-47340000D01*
%TO.C,R7*%
X34477500Y-40012742D02*
X34477500Y-40487258D01*
X35522500Y-40012742D02*
X35522500Y-40487258D01*
%TO.C,U3*%
D14*
X54450000Y-52300000D02*
X54700000Y-52550000D01*
X52700000Y-52300000D02*
X54700000Y-52300000D01*
X54700000Y-53700000D01*
X52700000Y-53700000D01*
X52700000Y-52300000D01*
%TO.C,C28*%
D10*
X42890580Y-49990000D02*
X42609420Y-49990000D01*
X42890580Y-51010000D02*
X42609420Y-51010000D01*
%TO.C,C7*%
D12*
X57870000Y-53160000D02*
X57870000Y-53360000D01*
X58630000Y-53160000D02*
X58630000Y-53360000D01*
%TO.C,J5*%
D10*
X48520000Y-65230000D02*
X49155000Y-65230000D01*
X49155000Y-65230000D02*
X49155000Y-65865000D01*
%TD*%
M02*
