%TF.GenerationSoftware,KiCad,Pcbnew,10.0.3*%
%TF.CreationDate,2026-06-27T21:23:17+01:00*%
%TF.ProjectId,Comms,436f6d6d-732e-46b6-9963-61645f706362,rev?*%
%TF.SameCoordinates,Original*%
%TF.FileFunction,Soldermask,Bot*%
%TF.FilePolarity,Negative*%
%FSLAX46Y46*%
G04 Gerber Fmt 4.6, Leading zero omitted, Abs format (unit mm)*
G04 Created by KiCad (PCBNEW 10.0.3) date 2026-06-27 21:23:17*
%MOMM*%
%LPD*%
G01*
G04 APERTURE LIST*
%ADD10R,1.700000X1.700000*%
%ADD11O,1.700000X1.700000*%
%ADD12C,3.200000*%
%ADD13C,0.990600*%
%ADD14R,1.000000X1.500000*%
%ADD15R,3.050000X3.400000*%
%ADD16R,4.500000X2.400000*%
G04 APERTURE END LIST*
%TO.C,JP1*%
G36*
X33600000Y-39750000D02*
G01*
X33900000Y-39750000D01*
X33900000Y-41250000D01*
X33600000Y-41250000D01*
X33600000Y-39750000D01*
G37*
%TD*%
D10*
%TO.C,J1*%
X26270000Y-53890000D03*
D11*
X23730000Y-53890000D03*
X26270000Y-51350000D03*
X23730000Y-51350000D03*
X26270000Y-48810000D03*
X23730000Y-48810000D03*
X26270000Y-46270000D03*
X23730000Y-46270000D03*
X26270000Y-43730000D03*
X23730000Y-43730000D03*
X26270000Y-41190000D03*
X23730000Y-41190000D03*
X26270000Y-38650000D03*
X23730000Y-38650000D03*
X26270000Y-36110000D03*
X23730000Y-36110000D03*
%TD*%
D12*
%TO.C,H3*%
X23500000Y-66490000D03*
%TD*%
%TO.C,H1*%
X23500000Y-23490000D03*
%TD*%
D10*
%TO.C,J3*%
X47770000Y-31040000D03*
D11*
X45230000Y-31040000D03*
X47770000Y-28500000D03*
X45230000Y-28500000D03*
X47770000Y-25960000D03*
X45230000Y-25960000D03*
%TD*%
D10*
%TO.C,J4*%
X57930000Y-31040000D03*
D11*
X55390000Y-31040000D03*
X57930000Y-28500000D03*
X55390000Y-28500000D03*
X57930000Y-25960000D03*
X55390000Y-25960000D03*
%TD*%
D12*
%TO.C,H2*%
X66500000Y-23490000D03*
%TD*%
%TO.C,H4*%
X66500000Y-66490000D03*
%TD*%
D13*
%TO.C,J5*%
X49790000Y-66500000D03*
X44710000Y-67516000D03*
X44710000Y-65484000D03*
%TD*%
D14*
%TO.C,JP1*%
X33100000Y-40500000D03*
X34400000Y-40500000D03*
%TD*%
D15*
%TO.C,BT1*%
X37250000Y-40500000D03*
D16*
X58350000Y-40500000D03*
%TD*%
M02*
