M48
; DRILL file KiCad 10.0.0 date 2026-03-29T14:17:18
; FORMAT={-:-/ absolute / metric / decimal}
; #@! TF.CreationDate,2026-03-29T14:17:18+01:00
; #@! TF.GenerationSoftware,Kicad,Pcbnew,10.0.0
; #@! TF.FileFunction,Plated,1,4,PTH
FMAT,2
METRIC
; #@! TA.AperFunction,Plated,PTH,ViaDrill
T1C0.300
; #@! TA.AperFunction,Plated,PTH,ViaDrill
T2C0.400
; #@! TA.AperFunction,Plated,PTH,ComponentDrill
T3C1.000
; #@! TA.AperFunction,Plated,PTH,ComponentDrill
T4C1.900
%
G90
G05
T1
X22.5Y-40.0
X22.5Y-45.0
X22.5Y-50.0
X22.5Y-55.0
X22.5Y-65.0
X23.0Y-56.5
X23.0Y-58.5
X24.0Y-56.5
X24.0Y-58.5
X25.0Y-56.5
X25.0Y-58.5
X25.8Y-63.9
X28.6Y-58.0
X28.6Y-60.4
X28.6Y-65.8
X30.2Y-63.9
X31.0Y-49.0
X32.6Y-53.4
X35.0Y-49.8
X35.0Y-51.7
X35.8Y-33.0
X36.2Y-60.8
X36.2Y-62.5
X37.7Y-68.737
X37.7Y-75.3
X38.0Y-49.8
X38.0Y-51.7
X38.29Y-32.2
X39.0Y-60.8
X39.0Y-62.5
X40.8Y-31.4
X41.1Y-49.8
X41.1Y-51.7
X41.8Y-60.8
X41.8Y-62.5
X43.4Y-30.6
X43.547Y-58.05
X43.773Y-60.325
X44.0Y-43.0
X44.0Y-45.0
X44.0Y-47.0
X44.0Y-49.8
X44.0Y-51.7
X44.097Y-58.7
X45.142Y-62.6
X45.7Y-63.7
X45.95Y-62.6
X46.0Y-29.8
X47.95Y-57.35
X48.6Y-63.7
X49.0Y-29.0
X49.0Y-34.0
X49.5Y-43.0
X49.5Y-45.0
X49.5Y-47.0
X50.8Y-60.45
X51.1Y-63.7
X52.0Y-29.0
X52.0Y-34.0
X52.0Y-48.2
X52.4Y-61.35
X53.7Y-63.7
X54.2Y-58.8
X54.5Y-50.75
X54.7Y-63.7
X55.0Y-29.0
X55.0Y-34.0
X56.0Y-52.2
X56.2Y-62.3
X56.5Y-52.85
X56.8Y-49.0
X57.2Y-51.6
X57.45Y-49.75
X58.0Y-29.0
X58.0Y-34.0
X58.008Y-59.817
X58.4Y-63.7
X58.6Y-51.3
X58.676Y-61.595
X58.7Y-50.4
X59.0Y-45.2
X59.055Y-62.518
X60.7Y-58.3
X61.0Y-29.0
X62.5Y-42.5
X62.5Y-45.5
X62.5Y-48.5
X63.362Y-60.082
X64.0Y-29.0
X64.0Y-61.0
X65.5Y-42.5
X65.5Y-45.5
X65.75Y-56.0
X66.0Y-48.2
X66.0Y-60.5
X66.0Y-62.0
X66.25Y-56.5
X66.5Y-42.5
X66.5Y-45.5
X66.75Y-60.0
X67.0Y-29.0
X67.2Y-51.0
X67.2Y-51.8
X67.3Y-49.8
X67.5Y-45.5
X67.6Y-52.9
X67.6Y-53.8
X67.75Y-55.0
X67.85Y-42.8
X68.0Y-59.25
X68.0Y-61.0
X68.3Y-49.8
X68.5Y-57.75
X68.75Y-55.0
X68.8Y-33.0
X69.15Y-42.8
X69.2Y-52.9
X69.2Y-53.8
X69.7Y-55.0
X69.75Y-46.5
X69.75Y-61.75
X70.0Y-29.0
X70.1Y-42.5
X70.112Y-44.512
X70.5Y-50.3
X70.5Y-57.75
X70.75Y-46.5
X70.968Y-58.572
X71.0Y-53.4
X71.1Y-42.5
X71.4Y-32.2
X71.5Y-54.2
X72.0Y-55.0
X72.25Y-59.75
X72.5Y-75.9
X72.54Y-33.65
X72.54Y-44.89
X72.9Y-57.7
X73.5Y-45.0
X73.8Y-31.4
X74.0Y-48.3
X74.0Y-56.3
X74.1Y-60.0
X74.2Y-44.6
X74.9Y-44.2
X75.5Y-58.6
X75.5Y-75.9
X75.6Y-43.8
X76.073Y-25.8
X76.073Y-27.7
X76.4Y-30.6
X76.5Y-24.25
X76.5Y-42.5
X76.5Y-44.9
X76.5Y-47.5
X76.8Y-57.3
X78.1Y-55.7
X78.5Y-47.5
X79.0Y-29.8
X80.1Y-55.7
X80.2Y-63.8
X80.5Y-47.5
X81.9Y-41.0
X81.9Y-44.0
X82.0Y-34.0
X82.0Y-37.0
X82.1Y-31.4
X82.1Y-55.7
X82.3Y-50.7
X82.6Y-30.6
X82.7Y-46.4
X82.9Y-65.7
X83.0Y-57.9
X83.0Y-60.3
X83.1Y-51.3
X83.2Y-29.8
X83.5Y-46.1
X84.0Y-52.35
X84.3Y-46.4
X84.6Y-63.8
X84.9Y-53.2
X85.0Y-34.0
X85.0Y-37.0
X85.0Y-41.0
X85.0Y-44.0
X85.5Y-53.8
X86.1Y-54.4
X86.8Y-55.0
X87.89Y-46.8
X88.0Y-34.0
X88.0Y-52.4
X88.0Y-53.5
X89.0Y-52.4
X89.0Y-53.5
X89.1Y-57.95
X89.25Y-23.25
X89.6Y-45.1
X90.0Y-59.8
X91.0Y-34.0
X91.2Y-47.8
X91.3Y-43.4
X91.6Y-55.35
X91.95Y-56.45
X92.0Y-59.8
X92.461Y-48.35
X92.71Y-55.88
X92.71Y-57.15
X92.85Y-52.4
X93.2Y-59.65
X93.3Y-45.7
X93.4Y-53.2
X93.65Y-54.8
X93.98Y-56.515
X93.98Y-57.785
X94.0Y-59.8
X96.2Y-50.75
X96.2Y-59.6
X96.4Y-43.3
X96.4Y-45.1
X96.4Y-46.9
X96.8Y-51.6
X96.8Y-52.8
X97.3Y-54.799
X97.3Y-56.65
X97.5Y-26.0
X97.5Y-28.75
X98.0Y-51.6
X98.0Y-52.8
X98.0Y-58.8
X98.3Y-56.7
X98.5Y-54.2
X101.8Y-33.0
X102.2Y-65.0
X102.2Y-66.6
X102.2Y-68.1
X104.2Y-32.2
X106.25Y-23.25
X106.8Y-31.4
X107.6Y-50.1
X107.6Y-61.9
X109.4Y-30.6
X111.8Y-29.8
T2
X25.57Y-40.0
X32.8Y-59.9
X58.59Y-40.0
X87.2Y-59.8
X91.61Y-40.0
T3
X28.11Y-34.73
X28.11Y-37.27
X30.65Y-34.73
X30.65Y-37.27
X33.19Y-34.73
X33.19Y-37.27
X35.73Y-34.73
X35.73Y-37.27
X38.27Y-34.73
X38.27Y-37.27
X40.81Y-34.73
X40.81Y-37.27
X43.35Y-34.73
X43.35Y-37.27
X44.61Y-66.275
X44.61Y-68.815
X45.89Y-34.73
X45.89Y-37.27
X47.15Y-66.275
X47.15Y-68.815
X49.69Y-66.275
X49.69Y-68.815
X52.23Y-66.275
X52.23Y-68.815
X54.77Y-66.275
X54.77Y-68.815
X57.31Y-66.275
X57.31Y-68.815
X59.85Y-66.275
X59.85Y-68.815
X61.11Y-34.73
X61.11Y-37.27
X62.39Y-66.275
X62.39Y-68.815
X63.65Y-34.73
X63.65Y-37.27
X66.19Y-34.73
X66.19Y-37.27
X68.73Y-34.73
X68.73Y-37.27
X71.27Y-34.73
X71.27Y-37.27
X73.81Y-34.73
X73.81Y-37.27
X76.35Y-34.73
X76.35Y-37.27
X78.89Y-34.73
X78.89Y-37.27
X81.5Y-75.75
X92.5Y-75.75
X94.11Y-34.73
X94.11Y-37.27
X96.65Y-34.73
X96.65Y-37.27
X99.19Y-34.73
X99.19Y-37.27
X101.73Y-34.73
X101.73Y-37.27
X104.27Y-34.73
X104.27Y-37.27
X106.81Y-34.73
X106.81Y-37.27
X109.35Y-34.73
X109.35Y-37.27
X111.89Y-34.73
X111.89Y-37.27
T4
X84.5Y-70.75
X89.5Y-70.75
M30
