%TF.GenerationSoftware,KiCad,Pcbnew,(5.1.9)-1*%
%TF.CreationDate,2021-05-23T18:49:26+01:00*%
%TF.ProjectId,ClockStrikeRotary,436c6f63-6b53-4747-9269-6b65526f7461,rev?*%
%TF.SameCoordinates,Original*%
%TF.FileFunction,Legend,Top*%
%TF.FilePolarity,Positive*%
%FSLAX46Y46*%
G04 Gerber Fmt 4.6, Leading zero omitted, Abs format (unit mm)*
G04 Created by KiCad (PCBNEW (5.1.9)-1) date 2021-05-23 18:49:26*
%MOMM*%
%LPD*%
G01*
G04 APERTURE LIST*
%ADD10C,0.300000*%
%ADD11C,0.120000*%
%ADD12C,0.150000*%
G04 APERTURE END LIST*
D10*
X35238095Y-36630952D02*
X36904761Y-36630952D01*
X35833333Y-39130952D01*
X37857142Y-38178571D02*
X39761904Y-38178571D01*
X40833333Y-39011904D02*
X41190476Y-39130952D01*
X41785714Y-39130952D01*
X42023809Y-39011904D01*
X42142857Y-38892857D01*
X42261904Y-38654761D01*
X42261904Y-38416666D01*
X42142857Y-38178571D01*
X42023809Y-38059523D01*
X41785714Y-37940476D01*
X41309523Y-37821428D01*
X41071428Y-37702380D01*
X40952380Y-37583333D01*
X40833333Y-37345238D01*
X40833333Y-37107142D01*
X40952380Y-36869047D01*
X41071428Y-36750000D01*
X41309523Y-36630952D01*
X41904761Y-36630952D01*
X42261904Y-36750000D01*
X44285714Y-39011904D02*
X44047619Y-39130952D01*
X43571428Y-39130952D01*
X43333333Y-39011904D01*
X43214285Y-38773809D01*
X43214285Y-37821428D01*
X43333333Y-37583333D01*
X43571428Y-37464285D01*
X44047619Y-37464285D01*
X44285714Y-37583333D01*
X44404761Y-37821428D01*
X44404761Y-38059523D01*
X43214285Y-38297619D01*
X46547619Y-37464285D02*
X46547619Y-39488095D01*
X46428571Y-39726190D01*
X46309523Y-39845238D01*
X46071428Y-39964285D01*
X45714285Y-39964285D01*
X45476190Y-39845238D01*
X46547619Y-39011904D02*
X46309523Y-39130952D01*
X45833333Y-39130952D01*
X45595238Y-39011904D01*
X45476190Y-38892857D01*
X45357142Y-38654761D01*
X45357142Y-37940476D01*
X45476190Y-37702380D01*
X45595238Y-37583333D01*
X45833333Y-37464285D01*
X46309523Y-37464285D01*
X46547619Y-37583333D01*
X47738095Y-39130952D02*
X47738095Y-37464285D01*
X47738095Y-37702380D02*
X47857142Y-37583333D01*
X48095238Y-37464285D01*
X48452380Y-37464285D01*
X48690476Y-37583333D01*
X48809523Y-37821428D01*
X48809523Y-39130952D01*
X48809523Y-37821428D02*
X48928571Y-37583333D01*
X49166666Y-37464285D01*
X49523809Y-37464285D01*
X49761904Y-37583333D01*
X49880952Y-37821428D01*
X49880952Y-39130952D01*
X52023809Y-39011904D02*
X51785714Y-39130952D01*
X51309523Y-39130952D01*
X51071428Y-39011904D01*
X50952380Y-38773809D01*
X50952380Y-37821428D01*
X51071428Y-37583333D01*
X51309523Y-37464285D01*
X51785714Y-37464285D01*
X52023809Y-37583333D01*
X52142857Y-37821428D01*
X52142857Y-38059523D01*
X50952380Y-38297619D01*
X53214285Y-37464285D02*
X53214285Y-39130952D01*
X53214285Y-37702380D02*
X53333333Y-37583333D01*
X53571428Y-37464285D01*
X53928571Y-37464285D01*
X54166666Y-37583333D01*
X54285714Y-37821428D01*
X54285714Y-39130952D01*
X55119047Y-37464285D02*
X56071428Y-37464285D01*
X55476190Y-36630952D02*
X55476190Y-38773809D01*
X55595238Y-39011904D01*
X55833333Y-39130952D01*
X56071428Y-39130952D01*
X59880952Y-37464285D02*
X59880952Y-39130952D01*
X59285714Y-36511904D02*
X58690476Y-38297619D01*
X60238095Y-38297619D01*
X63095238Y-39130952D02*
X63095238Y-36630952D01*
X63690476Y-36630952D01*
X64047619Y-36750000D01*
X64285714Y-36988095D01*
X64404761Y-37226190D01*
X64523809Y-37702380D01*
X64523809Y-38059523D01*
X64404761Y-38535714D01*
X64285714Y-38773809D01*
X64047619Y-39011904D01*
X63690476Y-39130952D01*
X63095238Y-39130952D01*
X65595238Y-39130952D02*
X65595238Y-37464285D01*
X65595238Y-36630952D02*
X65476190Y-36750000D01*
X65595238Y-36869047D01*
X65714285Y-36750000D01*
X65595238Y-36630952D01*
X65595238Y-36869047D01*
X67857142Y-37464285D02*
X67857142Y-39488095D01*
X67738095Y-39726190D01*
X67619047Y-39845238D01*
X67380952Y-39964285D01*
X67023809Y-39964285D01*
X66785714Y-39845238D01*
X67857142Y-39011904D02*
X67619047Y-39130952D01*
X67142857Y-39130952D01*
X66904761Y-39011904D01*
X66785714Y-38892857D01*
X66666666Y-38654761D01*
X66666666Y-37940476D01*
X66785714Y-37702380D01*
X66904761Y-37583333D01*
X67142857Y-37464285D01*
X67619047Y-37464285D01*
X67857142Y-37583333D01*
X69047619Y-39130952D02*
X69047619Y-37464285D01*
X69047619Y-36630952D02*
X68928571Y-36750000D01*
X69047619Y-36869047D01*
X69166666Y-36750000D01*
X69047619Y-36630952D01*
X69047619Y-36869047D01*
X69880952Y-37464285D02*
X70833333Y-37464285D01*
X70238095Y-36630952D02*
X70238095Y-38773809D01*
X70357142Y-39011904D01*
X70595238Y-39130952D01*
X70833333Y-39130952D01*
X74761904Y-39130952D02*
X73571428Y-39130952D01*
X73571428Y-36630952D01*
X75595238Y-37821428D02*
X76428571Y-37821428D01*
X76785714Y-39130952D02*
X75595238Y-39130952D01*
X75595238Y-36630952D01*
X76785714Y-36630952D01*
X77857142Y-39130952D02*
X77857142Y-36630952D01*
X78452380Y-36630952D01*
X78809523Y-36750000D01*
X79047619Y-36988095D01*
X79166666Y-37226190D01*
X79285714Y-37702380D01*
X79285714Y-38059523D01*
X79166666Y-38535714D01*
X79047619Y-38773809D01*
X78809523Y-39011904D01*
X78452380Y-39130952D01*
X77857142Y-39130952D01*
X82261904Y-39130952D02*
X82261904Y-36630952D01*
X82857142Y-36630952D01*
X83214285Y-36750000D01*
X83452380Y-36988095D01*
X83571428Y-37226190D01*
X83690476Y-37702380D01*
X83690476Y-38059523D01*
X83571428Y-38535714D01*
X83452380Y-38773809D01*
X83214285Y-39011904D01*
X82857142Y-39130952D01*
X82261904Y-39130952D01*
X84761904Y-39130952D02*
X84761904Y-37464285D01*
X84761904Y-36630952D02*
X84642857Y-36750000D01*
X84761904Y-36869047D01*
X84880952Y-36750000D01*
X84761904Y-36630952D01*
X84761904Y-36869047D01*
X85833333Y-39011904D02*
X86071428Y-39130952D01*
X86547619Y-39130952D01*
X86785714Y-39011904D01*
X86904761Y-38773809D01*
X86904761Y-38654761D01*
X86785714Y-38416666D01*
X86547619Y-38297619D01*
X86190476Y-38297619D01*
X85952380Y-38178571D01*
X85833333Y-37940476D01*
X85833333Y-37821428D01*
X85952380Y-37583333D01*
X86190476Y-37464285D01*
X86547619Y-37464285D01*
X86785714Y-37583333D01*
X87976190Y-37464285D02*
X87976190Y-39964285D01*
X87976190Y-37583333D02*
X88214285Y-37464285D01*
X88690476Y-37464285D01*
X88928571Y-37583333D01*
X89047619Y-37702380D01*
X89166666Y-37940476D01*
X89166666Y-38654761D01*
X89047619Y-38892857D01*
X88928571Y-39011904D01*
X88690476Y-39130952D01*
X88214285Y-39130952D01*
X87976190Y-39011904D01*
X90595238Y-39130952D02*
X90357142Y-39011904D01*
X90238095Y-38773809D01*
X90238095Y-36630952D01*
X92619047Y-39130952D02*
X92619047Y-37821428D01*
X92499999Y-37583333D01*
X92261904Y-37464285D01*
X91785714Y-37464285D01*
X91547619Y-37583333D01*
X92619047Y-39011904D02*
X92380952Y-39130952D01*
X91785714Y-39130952D01*
X91547619Y-39011904D01*
X91428571Y-38773809D01*
X91428571Y-38535714D01*
X91547619Y-38297619D01*
X91785714Y-38178571D01*
X92380952Y-38178571D01*
X92619047Y-38059523D01*
X93571428Y-37464285D02*
X94166666Y-39130952D01*
X94761904Y-37464285D02*
X94166666Y-39130952D01*
X93928571Y-39726190D01*
X93809523Y-39845238D01*
X93571428Y-39964285D01*
D11*
%TO.C,D7*%
X91400000Y-54300000D02*
X97500000Y-54300000D01*
X91400000Y-55400000D02*
X91400000Y-54300000D01*
X97500000Y-59700000D02*
X92500000Y-59700000D01*
%TO.C,D6*%
X81400000Y-54300000D02*
X87500000Y-54300000D01*
X81400000Y-55400000D02*
X81400000Y-54300000D01*
X87500000Y-59700000D02*
X82500000Y-59700000D01*
%TO.C,C7*%
X99265000Y-59761252D02*
X99265000Y-59238748D01*
X100735000Y-59761252D02*
X100735000Y-59238748D01*
%TO.C,C6*%
X89265000Y-59761252D02*
X89265000Y-59238748D01*
X90735000Y-59761252D02*
X90735000Y-59238748D01*
%TO.C,D5*%
X77500000Y-59700000D02*
X72500000Y-59700000D01*
X71400000Y-55400000D02*
X71400000Y-54300000D01*
X71400000Y-54300000D02*
X77500000Y-54300000D01*
%TO.C,D4*%
X67500000Y-59700000D02*
X62500000Y-59700000D01*
X61400000Y-55400000D02*
X61400000Y-54300000D01*
X61400000Y-54300000D02*
X67500000Y-54300000D01*
%TO.C,D3*%
X57500000Y-59700000D02*
X52500000Y-59700000D01*
X51400000Y-55400000D02*
X51400000Y-54300000D01*
X51400000Y-54300000D02*
X57500000Y-54300000D01*
%TO.C,D2*%
X47500000Y-59700000D02*
X42500000Y-59700000D01*
X41400000Y-55400000D02*
X41400000Y-54300000D01*
X41400000Y-54300000D02*
X47500000Y-54300000D01*
%TO.C,D1*%
X37500000Y-59700000D02*
X32500000Y-59700000D01*
X31400000Y-55400000D02*
X31400000Y-54300000D01*
X31400000Y-54300000D02*
X37500000Y-54300000D01*
%TO.C,C5*%
X80735000Y-59711252D02*
X80735000Y-59188748D01*
X79265000Y-59711252D02*
X79265000Y-59188748D01*
%TO.C,C4*%
X70735000Y-59761252D02*
X70735000Y-59238748D01*
X69265000Y-59761252D02*
X69265000Y-59238748D01*
%TO.C,C3*%
X60735000Y-59761252D02*
X60735000Y-59238748D01*
X59265000Y-59761252D02*
X59265000Y-59238748D01*
%TO.C,C2*%
X50735000Y-59711252D02*
X50735000Y-59188748D01*
X49265000Y-59711252D02*
X49265000Y-59188748D01*
%TO.C,C1*%
X40735000Y-59711252D02*
X40735000Y-59188748D01*
X39265000Y-59711252D02*
X39265000Y-59188748D01*
%TO.C,SW1*%
X68000000Y-68500000D02*
G75*
G03*
X68000000Y-68500000I-3000000J0D01*
G01*
X63000000Y-74400000D02*
X58900000Y-74400000D01*
X58900000Y-62600000D02*
X63000000Y-62600000D01*
X67000000Y-62600000D02*
X71100000Y-62600000D01*
X67000000Y-74400000D02*
X71100000Y-74400000D01*
X71100000Y-74400000D02*
X71100000Y-62600000D01*
X72500000Y-72300000D02*
X72800000Y-72600000D01*
X72800000Y-72600000D02*
X72200000Y-72600000D01*
X72200000Y-72600000D02*
X72500000Y-72300000D01*
X58900000Y-74400000D02*
X58900000Y-72000000D01*
X58900000Y-69800000D02*
X58900000Y-67200000D01*
X58900000Y-65000000D02*
X58900000Y-62600000D01*
X65000000Y-69000000D02*
X65000000Y-68000000D01*
X65500000Y-68500000D02*
X64500000Y-68500000D01*
%TO.C,R1*%
X90274564Y-61505000D02*
X89820436Y-61505000D01*
X90274564Y-62975000D02*
X89820436Y-62975000D01*
%TO.C,D8*%
X29000000Y-25000000D02*
X65000000Y-25000000D01*
X29000000Y-51000000D02*
X29000000Y-25000000D01*
X101000000Y-51000000D02*
X29000000Y-51000000D01*
X101000000Y-25000000D02*
X101000000Y-51000000D01*
X65000000Y-25000000D02*
X101000000Y-25000000D01*
%TO.C,D7*%
D12*
X94261904Y-53952380D02*
X94261904Y-52952380D01*
X94500000Y-52952380D01*
X94642857Y-53000000D01*
X94738095Y-53095238D01*
X94785714Y-53190476D01*
X94833333Y-53380952D01*
X94833333Y-53523809D01*
X94785714Y-53714285D01*
X94738095Y-53809523D01*
X94642857Y-53904761D01*
X94500000Y-53952380D01*
X94261904Y-53952380D01*
X95166666Y-52952380D02*
X95833333Y-52952380D01*
X95404761Y-53952380D01*
%TO.C,D6*%
X84261904Y-53952380D02*
X84261904Y-52952380D01*
X84500000Y-52952380D01*
X84642857Y-53000000D01*
X84738095Y-53095238D01*
X84785714Y-53190476D01*
X84833333Y-53380952D01*
X84833333Y-53523809D01*
X84785714Y-53714285D01*
X84738095Y-53809523D01*
X84642857Y-53904761D01*
X84500000Y-53952380D01*
X84261904Y-53952380D01*
X85690476Y-52952380D02*
X85500000Y-52952380D01*
X85404761Y-53000000D01*
X85357142Y-53047619D01*
X85261904Y-53190476D01*
X85214285Y-53380952D01*
X85214285Y-53761904D01*
X85261904Y-53857142D01*
X85309523Y-53904761D01*
X85404761Y-53952380D01*
X85595238Y-53952380D01*
X85690476Y-53904761D01*
X85738095Y-53857142D01*
X85785714Y-53761904D01*
X85785714Y-53523809D01*
X85738095Y-53428571D01*
X85690476Y-53380952D01*
X85595238Y-53333333D01*
X85404761Y-53333333D01*
X85309523Y-53380952D01*
X85261904Y-53428571D01*
X85214285Y-53523809D01*
%TO.C,C7*%
X100357142Y-56666666D02*
X100404761Y-56714285D01*
X100452380Y-56857142D01*
X100452380Y-56952380D01*
X100404761Y-57095238D01*
X100309523Y-57190476D01*
X100214285Y-57238095D01*
X100023809Y-57285714D01*
X99880952Y-57285714D01*
X99690476Y-57238095D01*
X99595238Y-57190476D01*
X99500000Y-57095238D01*
X99452380Y-56952380D01*
X99452380Y-56857142D01*
X99500000Y-56714285D01*
X99547619Y-56666666D01*
X99452380Y-56333333D02*
X99452380Y-55666666D01*
X100452380Y-56095238D01*
%TO.C,C6*%
X90357142Y-56666666D02*
X90404761Y-56714285D01*
X90452380Y-56857142D01*
X90452380Y-56952380D01*
X90404761Y-57095238D01*
X90309523Y-57190476D01*
X90214285Y-57238095D01*
X90023809Y-57285714D01*
X89880952Y-57285714D01*
X89690476Y-57238095D01*
X89595238Y-57190476D01*
X89500000Y-57095238D01*
X89452380Y-56952380D01*
X89452380Y-56857142D01*
X89500000Y-56714285D01*
X89547619Y-56666666D01*
X89452380Y-55809523D02*
X89452380Y-56000000D01*
X89500000Y-56095238D01*
X89547619Y-56142857D01*
X89690476Y-56238095D01*
X89880952Y-56285714D01*
X90261904Y-56285714D01*
X90357142Y-56238095D01*
X90404761Y-56190476D01*
X90452380Y-56095238D01*
X90452380Y-55904761D01*
X90404761Y-55809523D01*
X90357142Y-55761904D01*
X90261904Y-55714285D01*
X90023809Y-55714285D01*
X89928571Y-55761904D01*
X89880952Y-55809523D01*
X89833333Y-55904761D01*
X89833333Y-56095238D01*
X89880952Y-56190476D01*
X89928571Y-56238095D01*
X90023809Y-56285714D01*
%TO.C,D5*%
X74261904Y-53952380D02*
X74261904Y-52952380D01*
X74500000Y-52952380D01*
X74642857Y-53000000D01*
X74738095Y-53095238D01*
X74785714Y-53190476D01*
X74833333Y-53380952D01*
X74833333Y-53523809D01*
X74785714Y-53714285D01*
X74738095Y-53809523D01*
X74642857Y-53904761D01*
X74500000Y-53952380D01*
X74261904Y-53952380D01*
X75738095Y-52952380D02*
X75261904Y-52952380D01*
X75214285Y-53428571D01*
X75261904Y-53380952D01*
X75357142Y-53333333D01*
X75595238Y-53333333D01*
X75690476Y-53380952D01*
X75738095Y-53428571D01*
X75785714Y-53523809D01*
X75785714Y-53761904D01*
X75738095Y-53857142D01*
X75690476Y-53904761D01*
X75595238Y-53952380D01*
X75357142Y-53952380D01*
X75261904Y-53904761D01*
X75214285Y-53857142D01*
%TO.C,D4*%
X64261904Y-53952380D02*
X64261904Y-52952380D01*
X64500000Y-52952380D01*
X64642857Y-53000000D01*
X64738095Y-53095238D01*
X64785714Y-53190476D01*
X64833333Y-53380952D01*
X64833333Y-53523809D01*
X64785714Y-53714285D01*
X64738095Y-53809523D01*
X64642857Y-53904761D01*
X64500000Y-53952380D01*
X64261904Y-53952380D01*
X65690476Y-53285714D02*
X65690476Y-53952380D01*
X65452380Y-52904761D02*
X65214285Y-53619047D01*
X65833333Y-53619047D01*
%TO.C,D3*%
X54261904Y-53952380D02*
X54261904Y-52952380D01*
X54500000Y-52952380D01*
X54642857Y-53000000D01*
X54738095Y-53095238D01*
X54785714Y-53190476D01*
X54833333Y-53380952D01*
X54833333Y-53523809D01*
X54785714Y-53714285D01*
X54738095Y-53809523D01*
X54642857Y-53904761D01*
X54500000Y-53952380D01*
X54261904Y-53952380D01*
X55166666Y-52952380D02*
X55785714Y-52952380D01*
X55452380Y-53333333D01*
X55595238Y-53333333D01*
X55690476Y-53380952D01*
X55738095Y-53428571D01*
X55785714Y-53523809D01*
X55785714Y-53761904D01*
X55738095Y-53857142D01*
X55690476Y-53904761D01*
X55595238Y-53952380D01*
X55309523Y-53952380D01*
X55214285Y-53904761D01*
X55166666Y-53857142D01*
%TO.C,D2*%
X44261904Y-53952380D02*
X44261904Y-52952380D01*
X44500000Y-52952380D01*
X44642857Y-53000000D01*
X44738095Y-53095238D01*
X44785714Y-53190476D01*
X44833333Y-53380952D01*
X44833333Y-53523809D01*
X44785714Y-53714285D01*
X44738095Y-53809523D01*
X44642857Y-53904761D01*
X44500000Y-53952380D01*
X44261904Y-53952380D01*
X45214285Y-53047619D02*
X45261904Y-53000000D01*
X45357142Y-52952380D01*
X45595238Y-52952380D01*
X45690476Y-53000000D01*
X45738095Y-53047619D01*
X45785714Y-53142857D01*
X45785714Y-53238095D01*
X45738095Y-53380952D01*
X45166666Y-53952380D01*
X45785714Y-53952380D01*
%TO.C,D1*%
X34261904Y-53952380D02*
X34261904Y-52952380D01*
X34500000Y-52952380D01*
X34642857Y-53000000D01*
X34738095Y-53095238D01*
X34785714Y-53190476D01*
X34833333Y-53380952D01*
X34833333Y-53523809D01*
X34785714Y-53714285D01*
X34738095Y-53809523D01*
X34642857Y-53904761D01*
X34500000Y-53952380D01*
X34261904Y-53952380D01*
X35785714Y-53952380D02*
X35214285Y-53952380D01*
X35500000Y-53952380D02*
X35500000Y-52952380D01*
X35404761Y-53095238D01*
X35309523Y-53190476D01*
X35214285Y-53238095D01*
%TO.C,C5*%
X80357142Y-56666666D02*
X80404761Y-56714285D01*
X80452380Y-56857142D01*
X80452380Y-56952380D01*
X80404761Y-57095238D01*
X80309523Y-57190476D01*
X80214285Y-57238095D01*
X80023809Y-57285714D01*
X79880952Y-57285714D01*
X79690476Y-57238095D01*
X79595238Y-57190476D01*
X79500000Y-57095238D01*
X79452380Y-56952380D01*
X79452380Y-56857142D01*
X79500000Y-56714285D01*
X79547619Y-56666666D01*
X79452380Y-55761904D02*
X79452380Y-56238095D01*
X79928571Y-56285714D01*
X79880952Y-56238095D01*
X79833333Y-56142857D01*
X79833333Y-55904761D01*
X79880952Y-55809523D01*
X79928571Y-55761904D01*
X80023809Y-55714285D01*
X80261904Y-55714285D01*
X80357142Y-55761904D01*
X80404761Y-55809523D01*
X80452380Y-55904761D01*
X80452380Y-56142857D01*
X80404761Y-56238095D01*
X80357142Y-56285714D01*
%TO.C,C4*%
X70357142Y-56666666D02*
X70404761Y-56714285D01*
X70452380Y-56857142D01*
X70452380Y-56952380D01*
X70404761Y-57095238D01*
X70309523Y-57190476D01*
X70214285Y-57238095D01*
X70023809Y-57285714D01*
X69880952Y-57285714D01*
X69690476Y-57238095D01*
X69595238Y-57190476D01*
X69500000Y-57095238D01*
X69452380Y-56952380D01*
X69452380Y-56857142D01*
X69500000Y-56714285D01*
X69547619Y-56666666D01*
X69785714Y-55809523D02*
X70452380Y-55809523D01*
X69404761Y-56047619D02*
X70119047Y-56285714D01*
X70119047Y-55666666D01*
%TO.C,C3*%
X60357142Y-56666666D02*
X60404761Y-56714285D01*
X60452380Y-56857142D01*
X60452380Y-56952380D01*
X60404761Y-57095238D01*
X60309523Y-57190476D01*
X60214285Y-57238095D01*
X60023809Y-57285714D01*
X59880952Y-57285714D01*
X59690476Y-57238095D01*
X59595238Y-57190476D01*
X59500000Y-57095238D01*
X59452380Y-56952380D01*
X59452380Y-56857142D01*
X59500000Y-56714285D01*
X59547619Y-56666666D01*
X59452380Y-56333333D02*
X59452380Y-55714285D01*
X59833333Y-56047619D01*
X59833333Y-55904761D01*
X59880952Y-55809523D01*
X59928571Y-55761904D01*
X60023809Y-55714285D01*
X60261904Y-55714285D01*
X60357142Y-55761904D01*
X60404761Y-55809523D01*
X60452380Y-55904761D01*
X60452380Y-56190476D01*
X60404761Y-56285714D01*
X60357142Y-56333333D01*
%TO.C,C2*%
X50357142Y-56666666D02*
X50404761Y-56714285D01*
X50452380Y-56857142D01*
X50452380Y-56952380D01*
X50404761Y-57095238D01*
X50309523Y-57190476D01*
X50214285Y-57238095D01*
X50023809Y-57285714D01*
X49880952Y-57285714D01*
X49690476Y-57238095D01*
X49595238Y-57190476D01*
X49500000Y-57095238D01*
X49452380Y-56952380D01*
X49452380Y-56857142D01*
X49500000Y-56714285D01*
X49547619Y-56666666D01*
X49547619Y-56285714D02*
X49500000Y-56238095D01*
X49452380Y-56142857D01*
X49452380Y-55904761D01*
X49500000Y-55809523D01*
X49547619Y-55761904D01*
X49642857Y-55714285D01*
X49738095Y-55714285D01*
X49880952Y-55761904D01*
X50452380Y-56333333D01*
X50452380Y-55714285D01*
%TO.C,C1*%
X40357142Y-56666666D02*
X40404761Y-56714285D01*
X40452380Y-56857142D01*
X40452380Y-56952380D01*
X40404761Y-57095238D01*
X40309523Y-57190476D01*
X40214285Y-57238095D01*
X40023809Y-57285714D01*
X39880952Y-57285714D01*
X39690476Y-57238095D01*
X39595238Y-57190476D01*
X39500000Y-57095238D01*
X39452380Y-56952380D01*
X39452380Y-56857142D01*
X39500000Y-56714285D01*
X39547619Y-56666666D01*
X40452380Y-55714285D02*
X40452380Y-56285714D01*
X40452380Y-56000000D02*
X39452380Y-56000000D01*
X39595238Y-56095238D01*
X39690476Y-56190476D01*
X39738095Y-56285714D01*
%TO.C,SW1*%
X55291666Y-63784761D02*
X55434523Y-63832380D01*
X55672619Y-63832380D01*
X55767857Y-63784761D01*
X55815476Y-63737142D01*
X55863095Y-63641904D01*
X55863095Y-63546666D01*
X55815476Y-63451428D01*
X55767857Y-63403809D01*
X55672619Y-63356190D01*
X55482142Y-63308571D01*
X55386904Y-63260952D01*
X55339285Y-63213333D01*
X55291666Y-63118095D01*
X55291666Y-63022857D01*
X55339285Y-62927619D01*
X55386904Y-62880000D01*
X55482142Y-62832380D01*
X55720238Y-62832380D01*
X55863095Y-62880000D01*
X56196428Y-62832380D02*
X56434523Y-63832380D01*
X56625000Y-63118095D01*
X56815476Y-63832380D01*
X57053571Y-62832380D01*
X57958333Y-63832380D02*
X57386904Y-63832380D01*
X57672619Y-63832380D02*
X57672619Y-62832380D01*
X57577380Y-62975238D01*
X57482142Y-63070476D01*
X57386904Y-63118095D01*
%TO.C,R1*%
X89880833Y-64342380D02*
X89547500Y-63866190D01*
X89309404Y-64342380D02*
X89309404Y-63342380D01*
X89690357Y-63342380D01*
X89785595Y-63390000D01*
X89833214Y-63437619D01*
X89880833Y-63532857D01*
X89880833Y-63675714D01*
X89833214Y-63770952D01*
X89785595Y-63818571D01*
X89690357Y-63866190D01*
X89309404Y-63866190D01*
X90833214Y-64342380D02*
X90261785Y-64342380D01*
X90547500Y-64342380D02*
X90547500Y-63342380D01*
X90452261Y-63485238D01*
X90357023Y-63580476D01*
X90261785Y-63628095D01*
%TO.C,D8*%
X28761904Y-52452380D02*
X28761904Y-51452380D01*
X29000000Y-51452380D01*
X29142857Y-51500000D01*
X29238095Y-51595238D01*
X29285714Y-51690476D01*
X29333333Y-51880952D01*
X29333333Y-52023809D01*
X29285714Y-52214285D01*
X29238095Y-52309523D01*
X29142857Y-52404761D01*
X29000000Y-52452380D01*
X28761904Y-52452380D01*
X29904761Y-51880952D02*
X29809523Y-51833333D01*
X29761904Y-51785714D01*
X29714285Y-51690476D01*
X29714285Y-51642857D01*
X29761904Y-51547619D01*
X29809523Y-51500000D01*
X29904761Y-51452380D01*
X30095238Y-51452380D01*
X30190476Y-51500000D01*
X30238095Y-51547619D01*
X30285714Y-51642857D01*
X30285714Y-51690476D01*
X30238095Y-51785714D01*
X30190476Y-51833333D01*
X30095238Y-51880952D01*
X29904761Y-51880952D01*
X29809523Y-51928571D01*
X29761904Y-51976190D01*
X29714285Y-52071428D01*
X29714285Y-52261904D01*
X29761904Y-52357142D01*
X29809523Y-52404761D01*
X29904761Y-52452380D01*
X30095238Y-52452380D01*
X30190476Y-52404761D01*
X30238095Y-52357142D01*
X30285714Y-52261904D01*
X30285714Y-52071428D01*
X30238095Y-51976190D01*
X30190476Y-51928571D01*
X30095238Y-51880952D01*
%TD*%
M02*
