%TF.GenerationSoftware,KiCad,Pcbnew,(5.1.9)-1*%
%TF.CreationDate,2021-05-23T18:49:26+01:00*%
%TF.ProjectId,ClockStrikeRotary,436c6f63-6b53-4747-9269-6b65526f7461,rev?*%
%TF.SameCoordinates,Original*%
%TF.FileFunction,Paste,Top*%
%TF.FilePolarity,Positive*%
%FSLAX46Y46*%
G04 Gerber Fmt 4.6, Leading zero omitted, Abs format (unit mm)*
G04 Created by KiCad (PCBNEW (5.1.9)-1) date 2021-05-23 18:49:26*
%MOMM*%
%LPD*%
G01*
G04 APERTURE LIST*
%ADD10R,2.000000X1.100000*%
G04 APERTURE END LIST*
D10*
%TO.C,D7*%
X97400000Y-55300000D03*
X97400000Y-57000000D03*
X97400000Y-58700000D03*
X92600000Y-58700000D03*
X92600000Y-57000000D03*
X92600000Y-55300000D03*
%TD*%
%TO.C,D6*%
X87400000Y-55300000D03*
X87400000Y-57000000D03*
X87400000Y-58700000D03*
X82600000Y-58700000D03*
X82600000Y-57000000D03*
X82600000Y-55300000D03*
%TD*%
%TO.C,C7*%
G36*
G01*
X100475000Y-59050000D02*
X99525000Y-59050000D01*
G75*
G02*
X99275000Y-58800000I0J250000D01*
G01*
X99275000Y-58300000D01*
G75*
G02*
X99525000Y-58050000I250000J0D01*
G01*
X100475000Y-58050000D01*
G75*
G02*
X100725000Y-58300000I0J-250000D01*
G01*
X100725000Y-58800000D01*
G75*
G02*
X100475000Y-59050000I-250000J0D01*
G01*
G37*
G36*
G01*
X100475000Y-60950000D02*
X99525000Y-60950000D01*
G75*
G02*
X99275000Y-60700000I0J250000D01*
G01*
X99275000Y-60200000D01*
G75*
G02*
X99525000Y-59950000I250000J0D01*
G01*
X100475000Y-59950000D01*
G75*
G02*
X100725000Y-60200000I0J-250000D01*
G01*
X100725000Y-60700000D01*
G75*
G02*
X100475000Y-60950000I-250000J0D01*
G01*
G37*
%TD*%
%TO.C,C6*%
G36*
G01*
X90475000Y-59050000D02*
X89525000Y-59050000D01*
G75*
G02*
X89275000Y-58800000I0J250000D01*
G01*
X89275000Y-58300000D01*
G75*
G02*
X89525000Y-58050000I250000J0D01*
G01*
X90475000Y-58050000D01*
G75*
G02*
X90725000Y-58300000I0J-250000D01*
G01*
X90725000Y-58800000D01*
G75*
G02*
X90475000Y-59050000I-250000J0D01*
G01*
G37*
G36*
G01*
X90475000Y-60950000D02*
X89525000Y-60950000D01*
G75*
G02*
X89275000Y-60700000I0J250000D01*
G01*
X89275000Y-60200000D01*
G75*
G02*
X89525000Y-59950000I250000J0D01*
G01*
X90475000Y-59950000D01*
G75*
G02*
X90725000Y-60200000I0J-250000D01*
G01*
X90725000Y-60700000D01*
G75*
G02*
X90475000Y-60950000I-250000J0D01*
G01*
G37*
%TD*%
%TO.C,D5*%
X77400000Y-55300000D03*
X77400000Y-57000000D03*
X77400000Y-58700000D03*
X72600000Y-58700000D03*
X72600000Y-57000000D03*
X72600000Y-55300000D03*
%TD*%
%TO.C,D4*%
X67400000Y-55300000D03*
X67400000Y-57000000D03*
X67400000Y-58700000D03*
X62600000Y-58700000D03*
X62600000Y-57000000D03*
X62600000Y-55300000D03*
%TD*%
%TO.C,D3*%
X57400000Y-55300000D03*
X57400000Y-57000000D03*
X57400000Y-58700000D03*
X52600000Y-58700000D03*
X52600000Y-57000000D03*
X52600000Y-55300000D03*
%TD*%
%TO.C,D2*%
X47400000Y-55300000D03*
X47400000Y-57000000D03*
X47400000Y-58700000D03*
X42600000Y-58700000D03*
X42600000Y-57000000D03*
X42600000Y-55300000D03*
%TD*%
%TO.C,D1*%
X37400000Y-55300000D03*
X37400000Y-57000000D03*
X37400000Y-58700000D03*
X32600000Y-58700000D03*
X32600000Y-57000000D03*
X32600000Y-55300000D03*
%TD*%
%TO.C,C5*%
G36*
G01*
X80475000Y-59000000D02*
X79525000Y-59000000D01*
G75*
G02*
X79275000Y-58750000I0J250000D01*
G01*
X79275000Y-58250000D01*
G75*
G02*
X79525000Y-58000000I250000J0D01*
G01*
X80475000Y-58000000D01*
G75*
G02*
X80725000Y-58250000I0J-250000D01*
G01*
X80725000Y-58750000D01*
G75*
G02*
X80475000Y-59000000I-250000J0D01*
G01*
G37*
G36*
G01*
X80475000Y-60900000D02*
X79525000Y-60900000D01*
G75*
G02*
X79275000Y-60650000I0J250000D01*
G01*
X79275000Y-60150000D01*
G75*
G02*
X79525000Y-59900000I250000J0D01*
G01*
X80475000Y-59900000D01*
G75*
G02*
X80725000Y-60150000I0J-250000D01*
G01*
X80725000Y-60650000D01*
G75*
G02*
X80475000Y-60900000I-250000J0D01*
G01*
G37*
%TD*%
%TO.C,C4*%
G36*
G01*
X70475000Y-59050000D02*
X69525000Y-59050000D01*
G75*
G02*
X69275000Y-58800000I0J250000D01*
G01*
X69275000Y-58300000D01*
G75*
G02*
X69525000Y-58050000I250000J0D01*
G01*
X70475000Y-58050000D01*
G75*
G02*
X70725000Y-58300000I0J-250000D01*
G01*
X70725000Y-58800000D01*
G75*
G02*
X70475000Y-59050000I-250000J0D01*
G01*
G37*
G36*
G01*
X70475000Y-60950000D02*
X69525000Y-60950000D01*
G75*
G02*
X69275000Y-60700000I0J250000D01*
G01*
X69275000Y-60200000D01*
G75*
G02*
X69525000Y-59950000I250000J0D01*
G01*
X70475000Y-59950000D01*
G75*
G02*
X70725000Y-60200000I0J-250000D01*
G01*
X70725000Y-60700000D01*
G75*
G02*
X70475000Y-60950000I-250000J0D01*
G01*
G37*
%TD*%
%TO.C,C3*%
G36*
G01*
X60475000Y-59050000D02*
X59525000Y-59050000D01*
G75*
G02*
X59275000Y-58800000I0J250000D01*
G01*
X59275000Y-58300000D01*
G75*
G02*
X59525000Y-58050000I250000J0D01*
G01*
X60475000Y-58050000D01*
G75*
G02*
X60725000Y-58300000I0J-250000D01*
G01*
X60725000Y-58800000D01*
G75*
G02*
X60475000Y-59050000I-250000J0D01*
G01*
G37*
G36*
G01*
X60475000Y-60950000D02*
X59525000Y-60950000D01*
G75*
G02*
X59275000Y-60700000I0J250000D01*
G01*
X59275000Y-60200000D01*
G75*
G02*
X59525000Y-59950000I250000J0D01*
G01*
X60475000Y-59950000D01*
G75*
G02*
X60725000Y-60200000I0J-250000D01*
G01*
X60725000Y-60700000D01*
G75*
G02*
X60475000Y-60950000I-250000J0D01*
G01*
G37*
%TD*%
%TO.C,C2*%
G36*
G01*
X50475000Y-59000000D02*
X49525000Y-59000000D01*
G75*
G02*
X49275000Y-58750000I0J250000D01*
G01*
X49275000Y-58250000D01*
G75*
G02*
X49525000Y-58000000I250000J0D01*
G01*
X50475000Y-58000000D01*
G75*
G02*
X50725000Y-58250000I0J-250000D01*
G01*
X50725000Y-58750000D01*
G75*
G02*
X50475000Y-59000000I-250000J0D01*
G01*
G37*
G36*
G01*
X50475000Y-60900000D02*
X49525000Y-60900000D01*
G75*
G02*
X49275000Y-60650000I0J250000D01*
G01*
X49275000Y-60150000D01*
G75*
G02*
X49525000Y-59900000I250000J0D01*
G01*
X50475000Y-59900000D01*
G75*
G02*
X50725000Y-60150000I0J-250000D01*
G01*
X50725000Y-60650000D01*
G75*
G02*
X50475000Y-60900000I-250000J0D01*
G01*
G37*
%TD*%
%TO.C,C1*%
G36*
G01*
X40475000Y-59000000D02*
X39525000Y-59000000D01*
G75*
G02*
X39275000Y-58750000I0J250000D01*
G01*
X39275000Y-58250000D01*
G75*
G02*
X39525000Y-58000000I250000J0D01*
G01*
X40475000Y-58000000D01*
G75*
G02*
X40725000Y-58250000I0J-250000D01*
G01*
X40725000Y-58750000D01*
G75*
G02*
X40475000Y-59000000I-250000J0D01*
G01*
G37*
G36*
G01*
X40475000Y-60900000D02*
X39525000Y-60900000D01*
G75*
G02*
X39275000Y-60650000I0J250000D01*
G01*
X39275000Y-60150000D01*
G75*
G02*
X39525000Y-59900000I250000J0D01*
G01*
X40475000Y-59900000D01*
G75*
G02*
X40725000Y-60150000I0J-250000D01*
G01*
X40725000Y-60650000D01*
G75*
G02*
X40475000Y-60900000I-250000J0D01*
G01*
G37*
%TD*%
%TO.C,R1*%
G36*
G01*
X89647500Y-61789999D02*
X89647500Y-62690001D01*
G75*
G02*
X89397501Y-62940000I-249999J0D01*
G01*
X88872499Y-62940000D01*
G75*
G02*
X88622500Y-62690001I0J249999D01*
G01*
X88622500Y-61789999D01*
G75*
G02*
X88872499Y-61540000I249999J0D01*
G01*
X89397501Y-61540000D01*
G75*
G02*
X89647500Y-61789999I0J-249999D01*
G01*
G37*
G36*
G01*
X91472500Y-61789999D02*
X91472500Y-62690001D01*
G75*
G02*
X91222501Y-62940000I-249999J0D01*
G01*
X90697499Y-62940000D01*
G75*
G02*
X90447500Y-62690001I0J249999D01*
G01*
X90447500Y-61789999D01*
G75*
G02*
X90697499Y-61540000I249999J0D01*
G01*
X91222501Y-61540000D01*
G75*
G02*
X91472500Y-61789999I0J-249999D01*
G01*
G37*
%TD*%
M02*
