M48
; DRILL file KiCad 10.0.3 date 2026-06-27T21:19:05
; FORMAT={-:-/ absolute / metric / decimal}
; #@! TF.CreationDate,2026-06-27T21:19:05+01:00
; #@! TF.GenerationSoftware,Kicad,Pcbnew,10.0.3
; #@! TF.FileFunction,Plated,1,4,PTH
FMAT,2
METRIC
; #@! TA.AperFunction,Plated,PTH,ViaDrill
T1C0.300
; #@! TA.AperFunction,Plated,PTH,ComponentDrill
T2C1.000
; #@! TA.AperFunction,Plated,PTH,ComponentDrill
T3C1.200
%
G90
G05
T1
X22.65Y-37.75
X23.65Y-45.05
X27.15Y-37.75
X27.5Y-43.6
X29.15Y-38.85
X32.65Y-37.75
X33.65Y-45.05
X37.15Y-37.75
X37.5Y-43.6
X39.15Y-38.85
X41.5Y-29.75
X41.5Y-31.25
X42.0Y-36.6
X42.0Y-38.2
X42.1Y-39.8
X42.1Y-41.4
X42.1Y-43.0
X46.9Y-45.2
X47.6Y-41.4
X47.6Y-43.8
X47.7Y-35.7
X47.7Y-38.2
X47.9Y-32.6
X47.9Y-33.5
X47.9Y-34.4
X48.5Y-35.7
X49.3Y-38.0
X51.7Y-38.0
X53.1Y-33.5
X53.2Y-41.0
X53.2Y-43.8
X54.1Y-45.2
X54.5Y-33.5
X55.5Y-34.7
X56.0Y-43.8
X56.8Y-41.0
X57.5Y-35.4
X58.1Y-32.1
X58.4Y-35.8
X58.9Y-32.1
X59.3Y-36.2
X59.6Y-39.7
X59.6Y-41.0
X59.9Y-32.1
X61.75Y-37.75
X62.75Y-45.05
X66.25Y-37.75
X66.6Y-43.6
X68.25Y-38.85
X71.75Y-37.75
X72.75Y-45.05
X76.25Y-37.75
X76.6Y-43.6
X78.25Y-38.85
T2
X46.69Y-27.235
X46.69Y-29.775
X49.23Y-27.235
X49.23Y-29.775
X51.77Y-27.235
X51.77Y-29.775
X54.31Y-27.235
X54.31Y-29.775
T3
X30.0Y-49.5
X30.0Y-52.75
X33.75Y-49.5
X33.75Y-52.75
X37.5Y-49.5
X37.5Y-52.75
X41.25Y-49.5
X41.25Y-52.75
X45.0Y-49.5
X45.0Y-52.75
X48.75Y-49.5
X48.75Y-52.75
X52.5Y-49.5
X52.5Y-52.75
X56.25Y-49.5
X56.25Y-52.75
X60.0Y-49.5
X60.0Y-52.75
X63.75Y-49.5
X63.75Y-52.75
X67.5Y-49.5
X67.5Y-52.75
X71.25Y-49.5
X71.25Y-52.75
M30
