%TF.GenerationSoftware,KiCad,Pcbnew,(5.1.9)-1*%
%TF.CreationDate,2021-05-23T18:55:04+01:00*%
%TF.ProjectId,ControlBoard,436f6e74-726f-46c4-926f-6172642e6b69,rev?*%
%TF.SameCoordinates,Original*%
%TF.FileFunction,Legend,Top*%
%TF.FilePolarity,Positive*%
%FSLAX46Y46*%
G04 Gerber Fmt 4.6, Leading zero omitted, Abs format (unit mm)*
G04 Created by KiCad (PCBNEW (5.1.9)-1) date 2021-05-23 18:55:04*
%MOMM*%
%LPD*%
G01*
G04 APERTURE LIST*
%ADD10C,0.120000*%
%ADD11C,0.150000*%
G04 APERTURE END LIST*
D10*
X86360000Y-63881000D02*
X85344000Y-63881000D01*
X85344000Y-63881000D02*
X85344000Y-62865000D01*
X56388000Y-63881000D02*
X55372000Y-63881000D01*
X55372000Y-63881000D02*
X55372000Y-62865000D01*
X25400000Y-63881000D02*
X25400000Y-62865000D01*
X26416000Y-63881000D02*
X25400000Y-63881000D01*
D11*
X25942857Y-52652380D02*
X26133333Y-52652380D01*
X26228571Y-52700000D01*
X26323809Y-52795238D01*
X26371428Y-52985714D01*
X26371428Y-53319047D01*
X26323809Y-53509523D01*
X26228571Y-53604761D01*
X26133333Y-53652380D01*
X25942857Y-53652380D01*
X25847619Y-53604761D01*
X25752380Y-53509523D01*
X25704761Y-53319047D01*
X25704761Y-52985714D01*
X25752380Y-52795238D01*
X25847619Y-52700000D01*
X25942857Y-52652380D01*
X26800000Y-52985714D02*
X26800000Y-53652380D01*
X26800000Y-53080952D02*
X26847619Y-53033333D01*
X26942857Y-52985714D01*
X27085714Y-52985714D01*
X27180952Y-53033333D01*
X27228571Y-53128571D01*
X27228571Y-53652380D01*
X28323809Y-52652380D02*
X28895238Y-52652380D01*
X28609523Y-53652380D02*
X28609523Y-52652380D01*
X29228571Y-53652380D02*
X29228571Y-52652380D01*
X29657142Y-53652380D02*
X29657142Y-53128571D01*
X29609523Y-53033333D01*
X29514285Y-52985714D01*
X29371428Y-52985714D01*
X29276190Y-53033333D01*
X29228571Y-53080952D01*
X30514285Y-53604761D02*
X30419047Y-53652380D01*
X30228571Y-53652380D01*
X30133333Y-53604761D01*
X30085714Y-53509523D01*
X30085714Y-53128571D01*
X30133333Y-53033333D01*
X30228571Y-52985714D01*
X30419047Y-52985714D01*
X30514285Y-53033333D01*
X30561904Y-53128571D01*
X30561904Y-53223809D01*
X30085714Y-53319047D01*
X31704761Y-53604761D02*
X31847619Y-53652380D01*
X32085714Y-53652380D01*
X32180952Y-53604761D01*
X32228571Y-53557142D01*
X32276190Y-53461904D01*
X32276190Y-53366666D01*
X32228571Y-53271428D01*
X32180952Y-53223809D01*
X32085714Y-53176190D01*
X31895238Y-53128571D01*
X31800000Y-53080952D01*
X31752380Y-53033333D01*
X31704761Y-52938095D01*
X31704761Y-52842857D01*
X31752380Y-52747619D01*
X31800000Y-52700000D01*
X31895238Y-52652380D01*
X32133333Y-52652380D01*
X32276190Y-52700000D01*
X33133333Y-52985714D02*
X33133333Y-53652380D01*
X32704761Y-52985714D02*
X32704761Y-53509523D01*
X32752380Y-53604761D01*
X32847619Y-53652380D01*
X32990476Y-53652380D01*
X33085714Y-53604761D01*
X33133333Y-53557142D01*
X33609523Y-53652380D02*
X33609523Y-52652380D01*
X33609523Y-53033333D02*
X33704761Y-52985714D01*
X33895238Y-52985714D01*
X33990476Y-53033333D01*
X34038095Y-53080952D01*
X34085714Y-53176190D01*
X34085714Y-53461904D01*
X34038095Y-53557142D01*
X33990476Y-53604761D01*
X33895238Y-53652380D01*
X33704761Y-53652380D01*
X33609523Y-53604761D01*
X34514285Y-52985714D02*
X34514285Y-53842857D01*
X34466666Y-53938095D01*
X34371428Y-53985714D01*
X34323809Y-53985714D01*
X34514285Y-52652380D02*
X34466666Y-52700000D01*
X34514285Y-52747619D01*
X34561904Y-52700000D01*
X34514285Y-52652380D01*
X34514285Y-52747619D01*
X35371428Y-53604761D02*
X35276190Y-53652380D01*
X35085714Y-53652380D01*
X34990476Y-53604761D01*
X34942857Y-53509523D01*
X34942857Y-53128571D01*
X34990476Y-53033333D01*
X35085714Y-52985714D01*
X35276190Y-52985714D01*
X35371428Y-53033333D01*
X35419047Y-53128571D01*
X35419047Y-53223809D01*
X34942857Y-53319047D01*
X36276190Y-53604761D02*
X36180952Y-53652380D01*
X35990476Y-53652380D01*
X35895238Y-53604761D01*
X35847619Y-53557142D01*
X35800000Y-53461904D01*
X35800000Y-53176190D01*
X35847619Y-53080952D01*
X35895238Y-53033333D01*
X35990476Y-52985714D01*
X36180952Y-52985714D01*
X36276190Y-53033333D01*
X36561904Y-52985714D02*
X36942857Y-52985714D01*
X36704761Y-52652380D02*
X36704761Y-53509523D01*
X36752380Y-53604761D01*
X36847619Y-53652380D01*
X36942857Y-53652380D01*
X38228571Y-52652380D02*
X38419047Y-52652380D01*
X38514285Y-52700000D01*
X38609523Y-52795238D01*
X38657142Y-52985714D01*
X38657142Y-53319047D01*
X38609523Y-53509523D01*
X38514285Y-53604761D01*
X38419047Y-53652380D01*
X38228571Y-53652380D01*
X38133333Y-53604761D01*
X38038095Y-53509523D01*
X37990476Y-53319047D01*
X37990476Y-52985714D01*
X38038095Y-52795238D01*
X38133333Y-52700000D01*
X38228571Y-52652380D01*
X38942857Y-52985714D02*
X39323809Y-52985714D01*
X39085714Y-53652380D02*
X39085714Y-52795238D01*
X39133333Y-52700000D01*
X39228571Y-52652380D01*
X39323809Y-52652380D01*
X40419047Y-53652380D02*
X40419047Y-52652380D01*
X40799999Y-52652380D01*
X40895238Y-52700000D01*
X40942857Y-52747619D01*
X40990476Y-52842857D01*
X40990476Y-52985714D01*
X40942857Y-53080952D01*
X40895238Y-53128571D01*
X40799999Y-53176190D01*
X40419047Y-53176190D01*
X41561904Y-53652380D02*
X41466666Y-53604761D01*
X41419047Y-53557142D01*
X41371428Y-53461904D01*
X41371428Y-53176190D01*
X41419047Y-53080952D01*
X41466666Y-53033333D01*
X41561904Y-52985714D01*
X41704761Y-52985714D01*
X41799999Y-53033333D01*
X41847619Y-53080952D01*
X41895238Y-53176190D01*
X41895238Y-53461904D01*
X41847619Y-53557142D01*
X41799999Y-53604761D01*
X41704761Y-53652380D01*
X41561904Y-53652380D01*
X42323809Y-53652380D02*
X42323809Y-52985714D01*
X42323809Y-53176190D02*
X42371428Y-53080952D01*
X42419047Y-53033333D01*
X42514285Y-52985714D01*
X42609523Y-52985714D01*
X42799999Y-52985714D02*
X43180952Y-52985714D01*
X42942857Y-52652380D02*
X42942857Y-53509523D01*
X42990476Y-53604761D01*
X43085714Y-53652380D01*
X43180952Y-53652380D01*
X43466666Y-53604761D02*
X43561904Y-53652380D01*
X43752380Y-53652380D01*
X43847619Y-53604761D01*
X43895238Y-53509523D01*
X43895238Y-53461904D01*
X43847619Y-53366666D01*
X43752380Y-53319047D01*
X43609523Y-53319047D01*
X43514285Y-53271428D01*
X43466666Y-53176190D01*
X43466666Y-53128571D01*
X43514285Y-53033333D01*
X43609523Y-52985714D01*
X43752380Y-52985714D01*
X43847619Y-53033333D01*
X22178571Y-109452380D02*
X21702380Y-109452380D01*
X21702380Y-108452380D01*
X22511904Y-109452380D02*
X22511904Y-108452380D01*
X22988095Y-109452380D02*
X22988095Y-108452380D01*
X23559523Y-109452380D01*
X23559523Y-108452380D01*
X24035714Y-109452380D02*
X24035714Y-108452380D01*
X24607142Y-109452380D02*
X24178571Y-108880952D01*
X24607142Y-108452380D02*
X24035714Y-109023809D01*
X25035714Y-109071428D02*
X25797619Y-109071428D01*
X26607142Y-108928571D02*
X26750000Y-108976190D01*
X26797619Y-109023809D01*
X26845238Y-109119047D01*
X26845238Y-109261904D01*
X26797619Y-109357142D01*
X26750000Y-109404761D01*
X26654761Y-109452380D01*
X26273809Y-109452380D01*
X26273809Y-108452380D01*
X26607142Y-108452380D01*
X26702380Y-108500000D01*
X26750000Y-108547619D01*
X26797619Y-108642857D01*
X26797619Y-108738095D01*
X26750000Y-108833333D01*
X26702380Y-108880952D01*
X26607142Y-108928571D01*
X26273809Y-108928571D01*
X22250000Y-42952380D02*
X21773809Y-42952380D01*
X21773809Y-41952380D01*
X22583333Y-42952380D02*
X22583333Y-41952380D01*
X23059523Y-42952380D02*
X23059523Y-41952380D01*
X23630952Y-42952380D01*
X23630952Y-41952380D01*
X24107142Y-42952380D02*
X24107142Y-41952380D01*
X24678571Y-42952380D02*
X24250000Y-42380952D01*
X24678571Y-41952380D02*
X24107142Y-42523809D01*
X25107142Y-42571428D02*
X25869047Y-42571428D01*
X26297619Y-42666666D02*
X26773809Y-42666666D01*
X26202380Y-42952380D02*
X26535714Y-41952380D01*
X26869047Y-42952380D01*
X109569523Y-53852380D02*
X109569523Y-52852380D01*
X109950476Y-52852380D01*
X110045714Y-52900000D01*
X110093333Y-52947619D01*
X110140952Y-53042857D01*
X110140952Y-53185714D01*
X110093333Y-53280952D01*
X110045714Y-53328571D01*
X109950476Y-53376190D01*
X109569523Y-53376190D01*
X110712380Y-53852380D02*
X110617142Y-53804761D01*
X110569523Y-53757142D01*
X110521904Y-53661904D01*
X110521904Y-53376190D01*
X110569523Y-53280952D01*
X110617142Y-53233333D01*
X110712380Y-53185714D01*
X110855238Y-53185714D01*
X110950476Y-53233333D01*
X110998095Y-53280952D01*
X111045714Y-53376190D01*
X111045714Y-53661904D01*
X110998095Y-53757142D01*
X110950476Y-53804761D01*
X110855238Y-53852380D01*
X110712380Y-53852380D01*
X111474285Y-53852380D02*
X111474285Y-53185714D01*
X111474285Y-53376190D02*
X111521904Y-53280952D01*
X111569523Y-53233333D01*
X111664761Y-53185714D01*
X111760000Y-53185714D01*
X111950476Y-53185714D02*
X112331428Y-53185714D01*
X112093333Y-52852380D02*
X112093333Y-53709523D01*
X112140952Y-53804761D01*
X112236190Y-53852380D01*
X112331428Y-53852380D01*
X113998095Y-53757142D02*
X113950476Y-53804761D01*
X113807619Y-53852380D01*
X113712380Y-53852380D01*
X113569523Y-53804761D01*
X113474285Y-53709523D01*
X113426666Y-53614285D01*
X113379047Y-53423809D01*
X113379047Y-53280952D01*
X113426666Y-53090476D01*
X113474285Y-52995238D01*
X113569523Y-52900000D01*
X113712380Y-52852380D01*
X113807619Y-52852380D01*
X113950476Y-52900000D01*
X113998095Y-52947619D01*
X79597523Y-53852380D02*
X79597523Y-52852380D01*
X79978476Y-52852380D01*
X80073714Y-52900000D01*
X80121333Y-52947619D01*
X80168952Y-53042857D01*
X80168952Y-53185714D01*
X80121333Y-53280952D01*
X80073714Y-53328571D01*
X79978476Y-53376190D01*
X79597523Y-53376190D01*
X80740380Y-53852380D02*
X80645142Y-53804761D01*
X80597523Y-53757142D01*
X80549904Y-53661904D01*
X80549904Y-53376190D01*
X80597523Y-53280952D01*
X80645142Y-53233333D01*
X80740380Y-53185714D01*
X80883238Y-53185714D01*
X80978476Y-53233333D01*
X81026095Y-53280952D01*
X81073714Y-53376190D01*
X81073714Y-53661904D01*
X81026095Y-53757142D01*
X80978476Y-53804761D01*
X80883238Y-53852380D01*
X80740380Y-53852380D01*
X81502285Y-53852380D02*
X81502285Y-53185714D01*
X81502285Y-53376190D02*
X81549904Y-53280952D01*
X81597523Y-53233333D01*
X81692761Y-53185714D01*
X81788000Y-53185714D01*
X81978476Y-53185714D02*
X82359428Y-53185714D01*
X82121333Y-52852380D02*
X82121333Y-53709523D01*
X82168952Y-53804761D01*
X82264190Y-53852380D01*
X82359428Y-53852380D01*
X83788000Y-53328571D02*
X83930857Y-53376190D01*
X83978476Y-53423809D01*
X84026095Y-53519047D01*
X84026095Y-53661904D01*
X83978476Y-53757142D01*
X83930857Y-53804761D01*
X83835619Y-53852380D01*
X83454666Y-53852380D01*
X83454666Y-52852380D01*
X83788000Y-52852380D01*
X83883238Y-52900000D01*
X83930857Y-52947619D01*
X83978476Y-53042857D01*
X83978476Y-53138095D01*
X83930857Y-53233333D01*
X83883238Y-53280952D01*
X83788000Y-53328571D01*
X83454666Y-53328571D01*
X49696952Y-53852380D02*
X49696952Y-52852380D01*
X50077904Y-52852380D01*
X50173142Y-52900000D01*
X50220761Y-52947619D01*
X50268380Y-53042857D01*
X50268380Y-53185714D01*
X50220761Y-53280952D01*
X50173142Y-53328571D01*
X50077904Y-53376190D01*
X49696952Y-53376190D01*
X50839809Y-53852380D02*
X50744571Y-53804761D01*
X50696952Y-53757142D01*
X50649333Y-53661904D01*
X50649333Y-53376190D01*
X50696952Y-53280952D01*
X50744571Y-53233333D01*
X50839809Y-53185714D01*
X50982666Y-53185714D01*
X51077904Y-53233333D01*
X51125523Y-53280952D01*
X51173142Y-53376190D01*
X51173142Y-53661904D01*
X51125523Y-53757142D01*
X51077904Y-53804761D01*
X50982666Y-53852380D01*
X50839809Y-53852380D01*
X51601714Y-53852380D02*
X51601714Y-53185714D01*
X51601714Y-53376190D02*
X51649333Y-53280952D01*
X51696952Y-53233333D01*
X51792190Y-53185714D01*
X51887428Y-53185714D01*
X52077904Y-53185714D02*
X52458857Y-53185714D01*
X52220761Y-52852380D02*
X52220761Y-53709523D01*
X52268380Y-53804761D01*
X52363619Y-53852380D01*
X52458857Y-53852380D01*
X53506476Y-53566666D02*
X53982666Y-53566666D01*
X53411238Y-53852380D02*
X53744571Y-52852380D01*
X54077904Y-53852380D01*
X92059523Y-36452380D02*
X91583333Y-36452380D01*
X91583333Y-35452380D01*
X92964285Y-36357142D02*
X92916666Y-36404761D01*
X92773809Y-36452380D01*
X92678571Y-36452380D01*
X92535714Y-36404761D01*
X92440476Y-36309523D01*
X92392857Y-36214285D01*
X92345238Y-36023809D01*
X92345238Y-35880952D01*
X92392857Y-35690476D01*
X92440476Y-35595238D01*
X92535714Y-35500000D01*
X92678571Y-35452380D01*
X92773809Y-35452380D01*
X92916666Y-35500000D01*
X92964285Y-35547619D01*
X93392857Y-36452380D02*
X93392857Y-35452380D01*
X93630952Y-35452380D01*
X93773809Y-35500000D01*
X93869047Y-35595238D01*
X93916666Y-35690476D01*
X93964285Y-35880952D01*
X93964285Y-36023809D01*
X93916666Y-36214285D01*
X93869047Y-36309523D01*
X93773809Y-36404761D01*
X93630952Y-36452380D01*
X93392857Y-36452380D01*
X111011904Y-38166666D02*
X111488095Y-38166666D01*
X110916666Y-38452380D02*
X111250000Y-37452380D01*
X111583333Y-38452380D01*
X112488095Y-38452380D02*
X112154761Y-37976190D01*
X111916666Y-38452380D02*
X111916666Y-37452380D01*
X112297619Y-37452380D01*
X112392857Y-37500000D01*
X112440476Y-37547619D01*
X112488095Y-37642857D01*
X112488095Y-37785714D01*
X112440476Y-37880952D01*
X112392857Y-37928571D01*
X112297619Y-37976190D01*
X111916666Y-37976190D01*
X113440476Y-37500000D02*
X113345238Y-37452380D01*
X113202380Y-37452380D01*
X113059523Y-37500000D01*
X112964285Y-37595238D01*
X112916666Y-37690476D01*
X112869047Y-37880952D01*
X112869047Y-38023809D01*
X112916666Y-38214285D01*
X112964285Y-38309523D01*
X113059523Y-38404761D01*
X113202380Y-38452380D01*
X113297619Y-38452380D01*
X113440476Y-38404761D01*
X113488095Y-38357142D01*
X113488095Y-38023809D01*
X113297619Y-38023809D01*
X114250000Y-37928571D02*
X114392857Y-37976190D01*
X114440476Y-38023809D01*
X114488095Y-38119047D01*
X114488095Y-38261904D01*
X114440476Y-38357142D01*
X114392857Y-38404761D01*
X114297619Y-38452380D01*
X113916666Y-38452380D01*
X113916666Y-37452380D01*
X114250000Y-37452380D01*
X114345238Y-37500000D01*
X114392857Y-37547619D01*
X114440476Y-37642857D01*
X114440476Y-37738095D01*
X114392857Y-37833333D01*
X114345238Y-37880952D01*
X114250000Y-37928571D01*
X113916666Y-37928571D01*
X70273809Y-22452380D02*
X70273809Y-21452380D01*
X70702380Y-22404761D02*
X70845238Y-22452380D01*
X71083333Y-22452380D01*
X71178571Y-22404761D01*
X71226190Y-22357142D01*
X71273809Y-22261904D01*
X71273809Y-22166666D01*
X71226190Y-22071428D01*
X71178571Y-22023809D01*
X71083333Y-21976190D01*
X70892857Y-21928571D01*
X70797619Y-21880952D01*
X70750000Y-21833333D01*
X70702380Y-21738095D01*
X70702380Y-21642857D01*
X70750000Y-21547619D01*
X70797619Y-21500000D01*
X70892857Y-21452380D01*
X71130952Y-21452380D01*
X71273809Y-21500000D01*
X72273809Y-22357142D02*
X72226190Y-22404761D01*
X72083333Y-22452380D01*
X71988095Y-22452380D01*
X71845238Y-22404761D01*
X71750000Y-22309523D01*
X71702380Y-22214285D01*
X71654761Y-22023809D01*
X71654761Y-21880952D01*
X71702380Y-21690476D01*
X71750000Y-21595238D01*
X71845238Y-21500000D01*
X71988095Y-21452380D01*
X72083333Y-21452380D01*
X72226190Y-21500000D01*
X72273809Y-21547619D01*
X72702380Y-22452380D02*
X72702380Y-21452380D01*
X73083333Y-21452380D01*
X73178571Y-21500000D01*
X73226190Y-21547619D01*
X73273809Y-21642857D01*
X73273809Y-21785714D01*
X73226190Y-21880952D01*
X73178571Y-21928571D01*
X73083333Y-21976190D01*
X72702380Y-21976190D01*
X80723809Y-27861904D02*
X80457142Y-27480952D01*
X80266666Y-27861904D02*
X80266666Y-27061904D01*
X80571428Y-27061904D01*
X80647619Y-27100000D01*
X80685714Y-27138095D01*
X80723809Y-27214285D01*
X80723809Y-27328571D01*
X80685714Y-27404761D01*
X80647619Y-27442857D01*
X80571428Y-27480952D01*
X80266666Y-27480952D01*
X81409523Y-27328571D02*
X81409523Y-27861904D01*
X81066666Y-27328571D02*
X81066666Y-27747619D01*
X81104761Y-27823809D01*
X81180952Y-27861904D01*
X81295238Y-27861904D01*
X81371428Y-27823809D01*
X81409523Y-27785714D01*
X81790476Y-27328571D02*
X81790476Y-27861904D01*
X81790476Y-27404761D02*
X81828571Y-27366666D01*
X81904761Y-27328571D01*
X82019047Y-27328571D01*
X82095238Y-27366666D01*
X82133333Y-27442857D01*
X82133333Y-27861904D01*
X74569047Y-27611904D02*
X74569047Y-26811904D01*
X74911904Y-27573809D02*
X75026190Y-27611904D01*
X75216666Y-27611904D01*
X75292857Y-27573809D01*
X75330952Y-27535714D01*
X75369047Y-27459523D01*
X75369047Y-27383333D01*
X75330952Y-27307142D01*
X75292857Y-27269047D01*
X75216666Y-27230952D01*
X75064285Y-27192857D01*
X74988095Y-27154761D01*
X74950000Y-27116666D01*
X74911904Y-27040476D01*
X74911904Y-26964285D01*
X74950000Y-26888095D01*
X74988095Y-26850000D01*
X75064285Y-26811904D01*
X75254761Y-26811904D01*
X75369047Y-26850000D01*
X76169047Y-27535714D02*
X76130952Y-27573809D01*
X76016666Y-27611904D01*
X75940476Y-27611904D01*
X75826190Y-27573809D01*
X75750000Y-27497619D01*
X75711904Y-27421428D01*
X75673809Y-27269047D01*
X75673809Y-27154761D01*
X75711904Y-27002380D01*
X75750000Y-26926190D01*
X75826190Y-26850000D01*
X75940476Y-26811904D01*
X76016666Y-26811904D01*
X76130952Y-26850000D01*
X76169047Y-26888095D01*
X76511904Y-27611904D02*
X76511904Y-26811904D01*
X76816666Y-26811904D01*
X76892857Y-26850000D01*
X76930952Y-26888095D01*
X76969047Y-26964285D01*
X76969047Y-27078571D01*
X76930952Y-27154761D01*
X76892857Y-27192857D01*
X76816666Y-27230952D01*
X76511904Y-27230952D01*
D10*
X77500000Y-26750000D02*
X82200000Y-26750000D01*
X74500000Y-26500000D02*
X79250000Y-26500000D01*
D11*
X43880952Y-115627380D02*
X43880952Y-114627380D01*
X44452380Y-115627380D02*
X44023809Y-115055952D01*
X44452380Y-114627380D02*
X43880952Y-115198809D01*
X45261904Y-115579761D02*
X45166666Y-115627380D01*
X44976190Y-115627380D01*
X44880952Y-115579761D01*
X44833333Y-115484523D01*
X44833333Y-115103571D01*
X44880952Y-115008333D01*
X44976190Y-114960714D01*
X45166666Y-114960714D01*
X45261904Y-115008333D01*
X45309523Y-115103571D01*
X45309523Y-115198809D01*
X44833333Y-115294047D01*
X46119047Y-115579761D02*
X46023809Y-115627380D01*
X45833333Y-115627380D01*
X45738095Y-115579761D01*
X45690476Y-115484523D01*
X45690476Y-115103571D01*
X45738095Y-115008333D01*
X45833333Y-114960714D01*
X46023809Y-114960714D01*
X46119047Y-115008333D01*
X46166666Y-115103571D01*
X46166666Y-115198809D01*
X45690476Y-115294047D01*
X46595238Y-114960714D02*
X46595238Y-115960714D01*
X46595238Y-115008333D02*
X46690476Y-114960714D01*
X46880952Y-114960714D01*
X46976190Y-115008333D01*
X47023809Y-115055952D01*
X47071428Y-115151190D01*
X47071428Y-115436904D01*
X47023809Y-115532142D01*
X46976190Y-115579761D01*
X46880952Y-115627380D01*
X46690476Y-115627380D01*
X46595238Y-115579761D01*
X48119047Y-114627380D02*
X48690476Y-114627380D01*
X48404761Y-115627380D02*
X48404761Y-114627380D01*
X49452380Y-115627380D02*
X49452380Y-115103571D01*
X49404761Y-115008333D01*
X49309523Y-114960714D01*
X49119047Y-114960714D01*
X49023809Y-115008333D01*
X49452380Y-115579761D02*
X49357142Y-115627380D01*
X49119047Y-115627380D01*
X49023809Y-115579761D01*
X48976190Y-115484523D01*
X48976190Y-115389285D01*
X49023809Y-115294047D01*
X49119047Y-115246428D01*
X49357142Y-115246428D01*
X49452380Y-115198809D01*
X50071428Y-115627380D02*
X49976190Y-115579761D01*
X49928571Y-115484523D01*
X49928571Y-114627380D01*
X50452380Y-115627380D02*
X50452380Y-114627380D01*
X50547619Y-115246428D02*
X50833333Y-115627380D01*
X50833333Y-114960714D02*
X50452380Y-115341666D01*
X51261904Y-115627380D02*
X51261904Y-114960714D01*
X51261904Y-114627380D02*
X51214285Y-114675000D01*
X51261904Y-114722619D01*
X51309523Y-114675000D01*
X51261904Y-114627380D01*
X51261904Y-114722619D01*
X51738095Y-114960714D02*
X51738095Y-115627380D01*
X51738095Y-115055952D02*
X51785714Y-115008333D01*
X51880952Y-114960714D01*
X52023809Y-114960714D01*
X52119047Y-115008333D01*
X52166666Y-115103571D01*
X52166666Y-115627380D01*
X53071428Y-114960714D02*
X53071428Y-115770238D01*
X53023809Y-115865476D01*
X52976190Y-115913095D01*
X52880952Y-115960714D01*
X52738095Y-115960714D01*
X52642857Y-115913095D01*
X53071428Y-115579761D02*
X52976190Y-115627380D01*
X52785714Y-115627380D01*
X52690476Y-115579761D01*
X52642857Y-115532142D01*
X52595238Y-115436904D01*
X52595238Y-115151190D01*
X52642857Y-115055952D01*
X52690476Y-115008333D01*
X52785714Y-114960714D01*
X52976190Y-114960714D01*
X53071428Y-115008333D01*
X54738095Y-115627380D02*
X54738095Y-115103571D01*
X54690476Y-115008333D01*
X54595238Y-114960714D01*
X54404761Y-114960714D01*
X54309523Y-115008333D01*
X54738095Y-115579761D02*
X54642857Y-115627380D01*
X54404761Y-115627380D01*
X54309523Y-115579761D01*
X54261904Y-115484523D01*
X54261904Y-115389285D01*
X54309523Y-115294047D01*
X54404761Y-115246428D01*
X54642857Y-115246428D01*
X54738095Y-115198809D01*
X55214285Y-114960714D02*
X55214285Y-115627380D01*
X55214285Y-115055952D02*
X55261904Y-115008333D01*
X55357142Y-114960714D01*
X55500000Y-114960714D01*
X55595238Y-115008333D01*
X55642857Y-115103571D01*
X55642857Y-115627380D01*
X56547619Y-115627380D02*
X56547619Y-114627380D01*
X56547619Y-115579761D02*
X56452380Y-115627380D01*
X56261904Y-115627380D01*
X56166666Y-115579761D01*
X56119047Y-115532142D01*
X56071428Y-115436904D01*
X56071428Y-115151190D01*
X56119047Y-115055952D01*
X56166666Y-115008333D01*
X56261904Y-114960714D01*
X56452380Y-114960714D01*
X56547619Y-115008333D01*
X57785714Y-115627380D02*
X57785714Y-114627380D01*
X58357142Y-115627380D01*
X58357142Y-114627380D01*
X58976190Y-115627380D02*
X58880952Y-115579761D01*
X58833333Y-115532142D01*
X58785714Y-115436904D01*
X58785714Y-115151190D01*
X58833333Y-115055952D01*
X58880952Y-115008333D01*
X58976190Y-114960714D01*
X59119047Y-114960714D01*
X59214285Y-115008333D01*
X59261904Y-115055952D01*
X59309523Y-115151190D01*
X59309523Y-115436904D01*
X59261904Y-115532142D01*
X59214285Y-115579761D01*
X59119047Y-115627380D01*
X58976190Y-115627380D01*
X59738095Y-115627380D02*
X59738095Y-114627380D01*
X59738095Y-115008333D02*
X59833333Y-114960714D01*
X60023809Y-114960714D01*
X60119047Y-115008333D01*
X60166666Y-115055952D01*
X60214285Y-115151190D01*
X60214285Y-115436904D01*
X60166666Y-115532142D01*
X60119047Y-115579761D01*
X60023809Y-115627380D01*
X59833333Y-115627380D01*
X59738095Y-115579761D01*
X60785714Y-115627380D02*
X60690476Y-115579761D01*
X60642857Y-115532142D01*
X60595238Y-115436904D01*
X60595238Y-115151190D01*
X60642857Y-115055952D01*
X60690476Y-115008333D01*
X60785714Y-114960714D01*
X60928571Y-114960714D01*
X61023809Y-115008333D01*
X61071428Y-115055952D01*
X61119047Y-115151190D01*
X61119047Y-115436904D01*
X61071428Y-115532142D01*
X61023809Y-115579761D01*
X60928571Y-115627380D01*
X60785714Y-115627380D01*
X61976190Y-115627380D02*
X61976190Y-114627380D01*
X61976190Y-115579761D02*
X61880952Y-115627380D01*
X61690476Y-115627380D01*
X61595238Y-115579761D01*
X61547619Y-115532142D01*
X61500000Y-115436904D01*
X61500000Y-115151190D01*
X61547619Y-115055952D01*
X61595238Y-115008333D01*
X61690476Y-114960714D01*
X61880952Y-114960714D01*
X61976190Y-115008333D01*
X62357142Y-114960714D02*
X62595238Y-115627380D01*
X62833333Y-114960714D02*
X62595238Y-115627380D01*
X62500000Y-115865476D01*
X62452380Y-115913095D01*
X62357142Y-115960714D01*
X63976190Y-115103571D02*
X64309523Y-115103571D01*
X64452380Y-115627380D02*
X63976190Y-115627380D01*
X63976190Y-114627380D01*
X64452380Y-114627380D01*
X64785714Y-115627380D02*
X65309523Y-114960714D01*
X64785714Y-114960714D02*
X65309523Y-115627380D01*
X65690476Y-114960714D02*
X65690476Y-115960714D01*
X65690476Y-115008333D02*
X65785714Y-114960714D01*
X65976190Y-114960714D01*
X66071428Y-115008333D01*
X66119047Y-115055952D01*
X66166666Y-115151190D01*
X66166666Y-115436904D01*
X66119047Y-115532142D01*
X66071428Y-115579761D01*
X65976190Y-115627380D01*
X65785714Y-115627380D01*
X65690476Y-115579761D01*
X66738095Y-115627380D02*
X66642857Y-115579761D01*
X66595238Y-115484523D01*
X66595238Y-114627380D01*
X67261904Y-115627380D02*
X67166666Y-115579761D01*
X67119047Y-115532142D01*
X67071428Y-115436904D01*
X67071428Y-115151190D01*
X67119047Y-115055952D01*
X67166666Y-115008333D01*
X67261904Y-114960714D01*
X67404761Y-114960714D01*
X67500000Y-115008333D01*
X67547619Y-115055952D01*
X67595238Y-115151190D01*
X67595238Y-115436904D01*
X67547619Y-115532142D01*
X67500000Y-115579761D01*
X67404761Y-115627380D01*
X67261904Y-115627380D01*
X68452380Y-115627380D02*
X68452380Y-114627380D01*
X68452380Y-115579761D02*
X68357142Y-115627380D01*
X68166666Y-115627380D01*
X68071428Y-115579761D01*
X68023809Y-115532142D01*
X67976190Y-115436904D01*
X67976190Y-115151190D01*
X68023809Y-115055952D01*
X68071428Y-115008333D01*
X68166666Y-114960714D01*
X68357142Y-114960714D01*
X68452380Y-115008333D01*
X69309523Y-115579761D02*
X69214285Y-115627380D01*
X69023809Y-115627380D01*
X68928571Y-115579761D01*
X68880952Y-115484523D01*
X68880952Y-115103571D01*
X68928571Y-115008333D01*
X69023809Y-114960714D01*
X69214285Y-114960714D01*
X69309523Y-115008333D01*
X69357142Y-115103571D01*
X69357142Y-115198809D01*
X68880952Y-115294047D01*
X69738095Y-115579761D02*
X69833333Y-115627380D01*
X70023809Y-115627380D01*
X70119047Y-115579761D01*
X70166666Y-115484523D01*
X70166666Y-115436904D01*
X70119047Y-115341666D01*
X70023809Y-115294047D01*
X69880952Y-115294047D01*
X69785714Y-115246428D01*
X69738095Y-115151190D01*
X69738095Y-115103571D01*
X69785714Y-115008333D01*
X69880952Y-114960714D01*
X70023809Y-114960714D01*
X70119047Y-115008333D01*
X71357142Y-115246428D02*
X72119047Y-115246428D01*
X73928571Y-115532142D02*
X73880952Y-115579761D01*
X73738095Y-115627380D01*
X73642857Y-115627380D01*
X73500000Y-115579761D01*
X73404761Y-115484523D01*
X73357142Y-115389285D01*
X73309523Y-115198809D01*
X73309523Y-115055952D01*
X73357142Y-114865476D01*
X73404761Y-114770238D01*
X73500000Y-114675000D01*
X73642857Y-114627380D01*
X73738095Y-114627380D01*
X73880952Y-114675000D01*
X73928571Y-114722619D01*
X74500000Y-115627380D02*
X74404761Y-115579761D01*
X74357142Y-115532142D01*
X74309523Y-115436904D01*
X74309523Y-115151190D01*
X74357142Y-115055952D01*
X74404761Y-115008333D01*
X74500000Y-114960714D01*
X74642857Y-114960714D01*
X74738095Y-115008333D01*
X74785714Y-115055952D01*
X74833333Y-115151190D01*
X74833333Y-115436904D01*
X74785714Y-115532142D01*
X74738095Y-115579761D01*
X74642857Y-115627380D01*
X74500000Y-115627380D01*
X75261904Y-114960714D02*
X75261904Y-115627380D01*
X75261904Y-115055952D02*
X75309523Y-115008333D01*
X75404761Y-114960714D01*
X75547619Y-114960714D01*
X75642857Y-115008333D01*
X75690476Y-115103571D01*
X75690476Y-115627380D01*
X76023809Y-114960714D02*
X76404761Y-114960714D01*
X76166666Y-114627380D02*
X76166666Y-115484523D01*
X76214285Y-115579761D01*
X76309523Y-115627380D01*
X76404761Y-115627380D01*
X76738095Y-115627380D02*
X76738095Y-114960714D01*
X76738095Y-115151190D02*
X76785714Y-115055952D01*
X76833333Y-115008333D01*
X76928571Y-114960714D01*
X77023809Y-114960714D01*
X77500000Y-115627380D02*
X77404761Y-115579761D01*
X77357142Y-115532142D01*
X77309523Y-115436904D01*
X77309523Y-115151190D01*
X77357142Y-115055952D01*
X77404761Y-115008333D01*
X77500000Y-114960714D01*
X77642857Y-114960714D01*
X77738095Y-115008333D01*
X77785714Y-115055952D01*
X77833333Y-115151190D01*
X77833333Y-115436904D01*
X77785714Y-115532142D01*
X77738095Y-115579761D01*
X77642857Y-115627380D01*
X77500000Y-115627380D01*
X78404761Y-115627380D02*
X78309523Y-115579761D01*
X78261904Y-115484523D01*
X78261904Y-114627380D01*
X79547619Y-115627380D02*
X79547619Y-114627380D01*
X79880952Y-115341666D01*
X80214285Y-114627380D01*
X80214285Y-115627380D01*
X80833333Y-115627380D02*
X80738095Y-115579761D01*
X80690476Y-115532142D01*
X80642857Y-115436904D01*
X80642857Y-115151190D01*
X80690476Y-115055952D01*
X80738095Y-115008333D01*
X80833333Y-114960714D01*
X80976190Y-114960714D01*
X81071428Y-115008333D01*
X81119047Y-115055952D01*
X81166666Y-115151190D01*
X81166666Y-115436904D01*
X81119047Y-115532142D01*
X81071428Y-115579761D01*
X80976190Y-115627380D01*
X80833333Y-115627380D01*
X82023809Y-115627380D02*
X82023809Y-114627380D01*
X82023809Y-115579761D02*
X81928571Y-115627380D01*
X81738095Y-115627380D01*
X81642857Y-115579761D01*
X81595238Y-115532142D01*
X81547619Y-115436904D01*
X81547619Y-115151190D01*
X81595238Y-115055952D01*
X81642857Y-115008333D01*
X81738095Y-114960714D01*
X81928571Y-114960714D01*
X82023809Y-115008333D01*
X82928571Y-114960714D02*
X82928571Y-115627380D01*
X82499999Y-114960714D02*
X82499999Y-115484523D01*
X82547619Y-115579761D01*
X82642857Y-115627380D01*
X82785714Y-115627380D01*
X82880952Y-115579761D01*
X82928571Y-115532142D01*
X83547619Y-115627380D02*
X83452380Y-115579761D01*
X83404761Y-115484523D01*
X83404761Y-114627380D01*
X84309523Y-115579761D02*
X84214285Y-115627380D01*
X84023809Y-115627380D01*
X83928571Y-115579761D01*
X83880952Y-115484523D01*
X83880952Y-115103571D01*
X83928571Y-115008333D01*
X84023809Y-114960714D01*
X84214285Y-114960714D01*
X84309523Y-115008333D01*
X84357142Y-115103571D01*
X84357142Y-115198809D01*
X83880952Y-115294047D01*
X85833333Y-116008333D02*
X85785714Y-115960714D01*
X85690476Y-115817857D01*
X85642857Y-115722619D01*
X85595238Y-115579761D01*
X85547619Y-115341666D01*
X85547619Y-115151190D01*
X85595238Y-114913095D01*
X85642857Y-114770238D01*
X85690476Y-114675000D01*
X85785714Y-114532142D01*
X85833333Y-114484523D01*
X86785714Y-115627380D02*
X86452380Y-115151190D01*
X86214285Y-115627380D02*
X86214285Y-114627380D01*
X86595238Y-114627380D01*
X86690476Y-114675000D01*
X86738095Y-114722619D01*
X86785714Y-114817857D01*
X86785714Y-114960714D01*
X86738095Y-115055952D01*
X86690476Y-115103571D01*
X86595238Y-115151190D01*
X86214285Y-115151190D01*
X87595238Y-115579761D02*
X87499999Y-115627380D01*
X87309523Y-115627380D01*
X87214285Y-115579761D01*
X87166666Y-115484523D01*
X87166666Y-115103571D01*
X87214285Y-115008333D01*
X87309523Y-114960714D01*
X87499999Y-114960714D01*
X87595238Y-115008333D01*
X87642857Y-115103571D01*
X87642857Y-115198809D01*
X87166666Y-115294047D01*
X87976190Y-114960714D02*
X88214285Y-115627380D01*
X88452380Y-114960714D01*
X88833333Y-115627380D02*
X88833333Y-114960714D01*
X88833333Y-114627380D02*
X88785714Y-114675000D01*
X88833333Y-114722619D01*
X88880952Y-114675000D01*
X88833333Y-114627380D01*
X88833333Y-114722619D01*
X89261904Y-115579761D02*
X89357142Y-115627380D01*
X89547619Y-115627380D01*
X89642857Y-115579761D01*
X89690476Y-115484523D01*
X89690476Y-115436904D01*
X89642857Y-115341666D01*
X89547619Y-115294047D01*
X89404761Y-115294047D01*
X89309523Y-115246428D01*
X89261904Y-115151190D01*
X89261904Y-115103571D01*
X89309523Y-115008333D01*
X89404761Y-114960714D01*
X89547619Y-114960714D01*
X89642857Y-115008333D01*
X90119047Y-115627380D02*
X90119047Y-114960714D01*
X90119047Y-114627380D02*
X90071428Y-114675000D01*
X90119047Y-114722619D01*
X90166666Y-114675000D01*
X90119047Y-114627380D01*
X90119047Y-114722619D01*
X90738095Y-115627380D02*
X90642857Y-115579761D01*
X90595238Y-115532142D01*
X90547619Y-115436904D01*
X90547619Y-115151190D01*
X90595238Y-115055952D01*
X90642857Y-115008333D01*
X90738095Y-114960714D01*
X90880952Y-114960714D01*
X90976190Y-115008333D01*
X91023809Y-115055952D01*
X91071428Y-115151190D01*
X91071428Y-115436904D01*
X91023809Y-115532142D01*
X90976190Y-115579761D01*
X90880952Y-115627380D01*
X90738095Y-115627380D01*
X91499999Y-114960714D02*
X91499999Y-115627380D01*
X91499999Y-115055952D02*
X91547619Y-115008333D01*
X91642857Y-114960714D01*
X91785714Y-114960714D01*
X91880952Y-115008333D01*
X91928571Y-115103571D01*
X91928571Y-115627380D01*
X93119047Y-115341666D02*
X93595238Y-115341666D01*
X93023809Y-115627380D02*
X93357142Y-114627380D01*
X93690476Y-115627380D01*
X94214285Y-114627380D02*
X94309523Y-114627380D01*
X94404761Y-114675000D01*
X94452380Y-114722619D01*
X94499999Y-114817857D01*
X94547619Y-115008333D01*
X94547619Y-115246428D01*
X94499999Y-115436904D01*
X94452380Y-115532142D01*
X94404761Y-115579761D01*
X94309523Y-115627380D01*
X94214285Y-115627380D01*
X94119047Y-115579761D01*
X94071428Y-115532142D01*
X94023809Y-115436904D01*
X93976190Y-115246428D01*
X93976190Y-115008333D01*
X94023809Y-114817857D01*
X94071428Y-114722619D01*
X94119047Y-114675000D01*
X94214285Y-114627380D01*
X95499999Y-115627380D02*
X94928571Y-115627380D01*
X95214285Y-115627380D02*
X95214285Y-114627380D01*
X95119047Y-114770238D01*
X95023809Y-114865476D01*
X94928571Y-114913095D01*
X95833333Y-116008333D02*
X95880952Y-115960714D01*
X95976190Y-115817857D01*
X96023809Y-115722619D01*
X96071428Y-115579761D01*
X96119047Y-115341666D01*
X96119047Y-115151190D01*
X96071428Y-114913095D01*
X96023809Y-114770238D01*
X95976190Y-114675000D01*
X95880952Y-114532142D01*
X95833333Y-114484523D01*
X50476190Y-116277380D02*
X50666666Y-116277380D01*
X50761904Y-116325000D01*
X50857142Y-116420238D01*
X50904761Y-116610714D01*
X50904761Y-116944047D01*
X50857142Y-117134523D01*
X50761904Y-117229761D01*
X50666666Y-117277380D01*
X50476190Y-117277380D01*
X50380952Y-117229761D01*
X50285714Y-117134523D01*
X50238095Y-116944047D01*
X50238095Y-116610714D01*
X50285714Y-116420238D01*
X50380952Y-116325000D01*
X50476190Y-116277380D01*
X51333333Y-117277380D02*
X51333333Y-116610714D01*
X51333333Y-116801190D02*
X51380952Y-116705952D01*
X51428571Y-116658333D01*
X51523809Y-116610714D01*
X51619047Y-116610714D01*
X51952380Y-117277380D02*
X51952380Y-116610714D01*
X51952380Y-116277380D02*
X51904761Y-116325000D01*
X51952380Y-116372619D01*
X52000000Y-116325000D01*
X51952380Y-116277380D01*
X51952380Y-116372619D01*
X52857142Y-116610714D02*
X52857142Y-117420238D01*
X52809523Y-117515476D01*
X52761904Y-117563095D01*
X52666666Y-117610714D01*
X52523809Y-117610714D01*
X52428571Y-117563095D01*
X52857142Y-117229761D02*
X52761904Y-117277380D01*
X52571428Y-117277380D01*
X52476190Y-117229761D01*
X52428571Y-117182142D01*
X52380952Y-117086904D01*
X52380952Y-116801190D01*
X52428571Y-116705952D01*
X52476190Y-116658333D01*
X52571428Y-116610714D01*
X52761904Y-116610714D01*
X52857142Y-116658333D01*
X53333333Y-117277380D02*
X53333333Y-116610714D01*
X53333333Y-116277380D02*
X53285714Y-116325000D01*
X53333333Y-116372619D01*
X53380952Y-116325000D01*
X53333333Y-116277380D01*
X53333333Y-116372619D01*
X53809523Y-116610714D02*
X53809523Y-117277380D01*
X53809523Y-116705952D02*
X53857142Y-116658333D01*
X53952380Y-116610714D01*
X54095238Y-116610714D01*
X54190476Y-116658333D01*
X54238095Y-116753571D01*
X54238095Y-117277380D01*
X55142857Y-117277380D02*
X55142857Y-116753571D01*
X55095238Y-116658333D01*
X55000000Y-116610714D01*
X54809523Y-116610714D01*
X54714285Y-116658333D01*
X55142857Y-117229761D02*
X55047619Y-117277380D01*
X54809523Y-117277380D01*
X54714285Y-117229761D01*
X54666666Y-117134523D01*
X54666666Y-117039285D01*
X54714285Y-116944047D01*
X54809523Y-116896428D01*
X55047619Y-116896428D01*
X55142857Y-116848809D01*
X55761904Y-117277380D02*
X55666666Y-117229761D01*
X55619047Y-117134523D01*
X55619047Y-116277380D01*
X56904761Y-117277380D02*
X56904761Y-116277380D01*
X56904761Y-116658333D02*
X57000000Y-116610714D01*
X57190476Y-116610714D01*
X57285714Y-116658333D01*
X57333333Y-116705952D01*
X57380952Y-116801190D01*
X57380952Y-117086904D01*
X57333333Y-117182142D01*
X57285714Y-117229761D01*
X57190476Y-117277380D01*
X57000000Y-117277380D01*
X56904761Y-117229761D01*
X57714285Y-116610714D02*
X57952380Y-117277380D01*
X58190476Y-116610714D02*
X57952380Y-117277380D01*
X57857142Y-117515476D01*
X57809523Y-117563095D01*
X57714285Y-117610714D01*
X59285714Y-117229761D02*
X59428571Y-117277380D01*
X59666666Y-117277380D01*
X59761904Y-117229761D01*
X59809523Y-117182142D01*
X59857142Y-117086904D01*
X59857142Y-116991666D01*
X59809523Y-116896428D01*
X59761904Y-116848809D01*
X59666666Y-116801190D01*
X59476190Y-116753571D01*
X59380952Y-116705952D01*
X59333333Y-116658333D01*
X59285714Y-116563095D01*
X59285714Y-116467857D01*
X59333333Y-116372619D01*
X59380952Y-116325000D01*
X59476190Y-116277380D01*
X59714285Y-116277380D01*
X59857142Y-116325000D01*
X60142857Y-116610714D02*
X60523809Y-116610714D01*
X60285714Y-116277380D02*
X60285714Y-117134523D01*
X60333333Y-117229761D01*
X60428571Y-117277380D01*
X60523809Y-117277380D01*
X61238095Y-117229761D02*
X61142857Y-117277380D01*
X60952380Y-117277380D01*
X60857142Y-117229761D01*
X60809523Y-117134523D01*
X60809523Y-116753571D01*
X60857142Y-116658333D01*
X60952380Y-116610714D01*
X61142857Y-116610714D01*
X61238095Y-116658333D01*
X61285714Y-116753571D01*
X61285714Y-116848809D01*
X60809523Y-116944047D01*
X62095238Y-117229761D02*
X61999999Y-117277380D01*
X61809523Y-117277380D01*
X61714285Y-117229761D01*
X61666666Y-117134523D01*
X61666666Y-116753571D01*
X61714285Y-116658333D01*
X61809523Y-116610714D01*
X61999999Y-116610714D01*
X62095238Y-116658333D01*
X62142857Y-116753571D01*
X62142857Y-116848809D01*
X61666666Y-116944047D01*
X62714285Y-117277380D02*
X62619047Y-117229761D01*
X62571428Y-117134523D01*
X62571428Y-116277380D01*
X64428571Y-117182142D02*
X64380952Y-117229761D01*
X64238095Y-117277380D01*
X64142857Y-117277380D01*
X63999999Y-117229761D01*
X63904761Y-117134523D01*
X63857142Y-117039285D01*
X63809523Y-116848809D01*
X63809523Y-116705952D01*
X63857142Y-116515476D01*
X63904761Y-116420238D01*
X63999999Y-116325000D01*
X64142857Y-116277380D01*
X64238095Y-116277380D01*
X64380952Y-116325000D01*
X64428571Y-116372619D01*
X64857142Y-117277380D02*
X64857142Y-116610714D01*
X64857142Y-116801190D02*
X64904761Y-116705952D01*
X64952380Y-116658333D01*
X65047619Y-116610714D01*
X65142857Y-116610714D01*
X65904761Y-117277380D02*
X65904761Y-116753571D01*
X65857142Y-116658333D01*
X65761904Y-116610714D01*
X65571428Y-116610714D01*
X65476190Y-116658333D01*
X65904761Y-117229761D02*
X65809523Y-117277380D01*
X65571428Y-117277380D01*
X65476190Y-117229761D01*
X65428571Y-117134523D01*
X65428571Y-117039285D01*
X65476190Y-116944047D01*
X65571428Y-116896428D01*
X65809523Y-116896428D01*
X65904761Y-116848809D01*
X66238095Y-116610714D02*
X66619047Y-116610714D01*
X66380952Y-116277380D02*
X66380952Y-117134523D01*
X66428571Y-117229761D01*
X66523809Y-117277380D01*
X66619047Y-117277380D01*
X67333333Y-117229761D02*
X67238095Y-117277380D01*
X67047619Y-117277380D01*
X66952380Y-117229761D01*
X66904761Y-117134523D01*
X66904761Y-116753571D01*
X66952380Y-116658333D01*
X67047619Y-116610714D01*
X67238095Y-116610714D01*
X67333333Y-116658333D01*
X67380952Y-116753571D01*
X67380952Y-116848809D01*
X66904761Y-116944047D01*
X69095238Y-116325000D02*
X69000000Y-116277380D01*
X68857142Y-116277380D01*
X68714285Y-116325000D01*
X68619047Y-116420238D01*
X68571428Y-116515476D01*
X68523809Y-116705952D01*
X68523809Y-116848809D01*
X68571428Y-117039285D01*
X68619047Y-117134523D01*
X68714285Y-117229761D01*
X68857142Y-117277380D01*
X68952380Y-117277380D01*
X69095238Y-117229761D01*
X69142857Y-117182142D01*
X69142857Y-116848809D01*
X68952380Y-116848809D01*
X70000000Y-117277380D02*
X70000000Y-116753571D01*
X69952380Y-116658333D01*
X69857142Y-116610714D01*
X69666666Y-116610714D01*
X69571428Y-116658333D01*
X70000000Y-117229761D02*
X69904761Y-117277380D01*
X69666666Y-117277380D01*
X69571428Y-117229761D01*
X69523809Y-117134523D01*
X69523809Y-117039285D01*
X69571428Y-116944047D01*
X69666666Y-116896428D01*
X69904761Y-116896428D01*
X70000000Y-116848809D01*
X70476190Y-117277380D02*
X70476190Y-116610714D01*
X70476190Y-116705952D02*
X70523809Y-116658333D01*
X70619047Y-116610714D01*
X70761904Y-116610714D01*
X70857142Y-116658333D01*
X70904761Y-116753571D01*
X70904761Y-117277380D01*
X70904761Y-116753571D02*
X70952380Y-116658333D01*
X71047619Y-116610714D01*
X71190476Y-116610714D01*
X71285714Y-116658333D01*
X71333333Y-116753571D01*
X71333333Y-117277380D01*
X72190476Y-117229761D02*
X72095238Y-117277380D01*
X71904761Y-117277380D01*
X71809523Y-117229761D01*
X71761904Y-117134523D01*
X71761904Y-116753571D01*
X71809523Y-116658333D01*
X71904761Y-116610714D01*
X72095238Y-116610714D01*
X72190476Y-116658333D01*
X72238095Y-116753571D01*
X72238095Y-116848809D01*
X71761904Y-116944047D01*
X72619047Y-117229761D02*
X72714285Y-117277380D01*
X72904761Y-117277380D01*
X72999999Y-117229761D01*
X73047619Y-117134523D01*
X73047619Y-117086904D01*
X72999999Y-116991666D01*
X72904761Y-116944047D01*
X72761904Y-116944047D01*
X72666666Y-116896428D01*
X72619047Y-116801190D01*
X72619047Y-116753571D01*
X72666666Y-116658333D01*
X72761904Y-116610714D01*
X72904761Y-116610714D01*
X72999999Y-116658333D01*
X74238095Y-116896428D02*
X74999999Y-116896428D01*
X76238095Y-117277380D02*
X76238095Y-116277380D01*
X76619047Y-116277380D01*
X76714285Y-116325000D01*
X76761904Y-116372619D01*
X76809523Y-116467857D01*
X76809523Y-116610714D01*
X76761904Y-116705952D01*
X76714285Y-116753571D01*
X76619047Y-116801190D01*
X76238095Y-116801190D01*
X77238095Y-117277380D02*
X77238095Y-116277380D01*
X77666666Y-117277380D02*
X77666666Y-116753571D01*
X77619047Y-116658333D01*
X77523809Y-116610714D01*
X77380952Y-116610714D01*
X77285714Y-116658333D01*
X77238095Y-116705952D01*
X78047619Y-116610714D02*
X78285714Y-117277380D01*
X78523809Y-116610714D02*
X78285714Y-117277380D01*
X78190476Y-117515476D01*
X78142857Y-117563095D01*
X78047619Y-117610714D01*
X78857142Y-117229761D02*
X78952380Y-117277380D01*
X79142857Y-117277380D01*
X79238095Y-117229761D01*
X79285714Y-117134523D01*
X79285714Y-117086904D01*
X79238095Y-116991666D01*
X79142857Y-116944047D01*
X78999999Y-116944047D01*
X78904761Y-116896428D01*
X78857142Y-116801190D01*
X78857142Y-116753571D01*
X78904761Y-116658333D01*
X78999999Y-116610714D01*
X79142857Y-116610714D01*
X79238095Y-116658333D01*
X79714285Y-117277380D02*
X79714285Y-116610714D01*
X79714285Y-116277380D02*
X79666666Y-116325000D01*
X79714285Y-116372619D01*
X79761904Y-116325000D01*
X79714285Y-116277380D01*
X79714285Y-116372619D01*
X80619047Y-117229761D02*
X80523809Y-117277380D01*
X80333333Y-117277380D01*
X80238095Y-117229761D01*
X80190476Y-117182142D01*
X80142857Y-117086904D01*
X80142857Y-116801190D01*
X80190476Y-116705952D01*
X80238095Y-116658333D01*
X80333333Y-116610714D01*
X80523809Y-116610714D01*
X80619047Y-116658333D01*
X81476190Y-117277380D02*
X81476190Y-116753571D01*
X81428571Y-116658333D01*
X81333333Y-116610714D01*
X81142857Y-116610714D01*
X81047619Y-116658333D01*
X81476190Y-117229761D02*
X81380952Y-117277380D01*
X81142857Y-117277380D01*
X81047619Y-117229761D01*
X80999999Y-117134523D01*
X80999999Y-117039285D01*
X81047619Y-116944047D01*
X81142857Y-116896428D01*
X81380952Y-116896428D01*
X81476190Y-116848809D01*
X82095238Y-117277380D02*
X81999999Y-117229761D01*
X81952380Y-117134523D01*
X81952380Y-116277380D01*
X83238095Y-117277380D02*
X83238095Y-116277380D01*
X83238095Y-116658333D02*
X83333333Y-116610714D01*
X83523809Y-116610714D01*
X83619047Y-116658333D01*
X83666666Y-116705952D01*
X83714285Y-116801190D01*
X83714285Y-117086904D01*
X83666666Y-117182142D01*
X83619047Y-117229761D01*
X83523809Y-117277380D01*
X83333333Y-117277380D01*
X83238095Y-117229761D01*
X84047619Y-116610714D02*
X84285714Y-117277380D01*
X84523809Y-116610714D02*
X84285714Y-117277380D01*
X84190476Y-117515476D01*
X84142857Y-117563095D01*
X84047619Y-117610714D01*
X85666666Y-117277380D02*
X85666666Y-116277380D01*
X85999999Y-116991666D01*
X86333333Y-116277380D01*
X86333333Y-117277380D01*
X87190476Y-117229761D02*
X87095238Y-117277380D01*
X86904761Y-117277380D01*
X86809523Y-117229761D01*
X86761904Y-117134523D01*
X86761904Y-116753571D01*
X86809523Y-116658333D01*
X86904761Y-116610714D01*
X87095238Y-116610714D01*
X87190476Y-116658333D01*
X87238095Y-116753571D01*
X87238095Y-116848809D01*
X86761904Y-116944047D01*
X87809523Y-117277380D02*
X87714285Y-117229761D01*
X87666666Y-117134523D01*
X87666666Y-116277380D01*
X88619047Y-117277380D02*
X88619047Y-116753571D01*
X88571428Y-116658333D01*
X88476190Y-116610714D01*
X88285714Y-116610714D01*
X88190476Y-116658333D01*
X88619047Y-117229761D02*
X88523809Y-117277380D01*
X88285714Y-117277380D01*
X88190476Y-117229761D01*
X88142857Y-117134523D01*
X88142857Y-117039285D01*
X88190476Y-116944047D01*
X88285714Y-116896428D01*
X88523809Y-116896428D01*
X88619047Y-116848809D01*
X89095238Y-117277380D02*
X89095238Y-116610714D01*
X89095238Y-116277380D02*
X89047619Y-116325000D01*
X89095238Y-116372619D01*
X89142857Y-116325000D01*
X89095238Y-116277380D01*
X89095238Y-116372619D01*
X89571428Y-117277380D02*
X89571428Y-116610714D01*
X89571428Y-116801190D02*
X89619047Y-116705952D01*
X89666666Y-116658333D01*
X89761904Y-116610714D01*
X89857142Y-116610714D01*
D10*
%TO.C,C5*%
X109265000Y-26261252D02*
X109265000Y-25738748D01*
X110735000Y-26261252D02*
X110735000Y-25738748D01*
%TO.C,J4*%
X114085000Y-32490000D02*
X114085000Y-31640000D01*
X114085000Y-31640000D02*
X111760000Y-31640000D01*
X111760000Y-31640000D02*
X111760000Y-29250000D01*
X101915000Y-32490000D02*
X101915000Y-31640000D01*
X101915000Y-31640000D02*
X104240000Y-31640000D01*
X114085000Y-36010000D02*
X114085000Y-36860000D01*
X114085000Y-36860000D02*
X101915000Y-36860000D01*
X101915000Y-36860000D02*
X101915000Y-36010000D01*
%TO.C,J5*%
X42500000Y-63000000D02*
X42500000Y-63500000D01*
X37500000Y-63000000D02*
X42500000Y-63000000D01*
X37500000Y-63500000D02*
X37500000Y-63000000D01*
X54250000Y-63500000D02*
X40000000Y-63500000D01*
X54250000Y-54500000D02*
X54250000Y-63500000D01*
X25750000Y-54500000D02*
X54250000Y-54500000D01*
X25750000Y-63500000D02*
X25750000Y-54500000D01*
X40000000Y-63500000D02*
X25750000Y-63500000D01*
X29780000Y-61600000D02*
X29780000Y-60270000D01*
X31110000Y-61600000D02*
X29780000Y-61600000D01*
X29780000Y-59000000D02*
X29780000Y-56400000D01*
X32380000Y-59000000D02*
X29780000Y-59000000D01*
X32380000Y-61600000D02*
X32380000Y-59000000D01*
X29780000Y-56400000D02*
X50220000Y-56400000D01*
X32380000Y-61600000D02*
X50220000Y-61600000D01*
X50220000Y-61600000D02*
X50220000Y-56400000D01*
%TO.C,J6*%
X72500000Y-63000000D02*
X72500000Y-63500000D01*
X67500000Y-63000000D02*
X72500000Y-63000000D01*
X67500000Y-63500000D02*
X67500000Y-63000000D01*
X84250000Y-63500000D02*
X70000000Y-63500000D01*
X84250000Y-54500000D02*
X84250000Y-63500000D01*
X55750000Y-54500000D02*
X84250000Y-54500000D01*
X55750000Y-63500000D02*
X55750000Y-54500000D01*
X70000000Y-63500000D02*
X55750000Y-63500000D01*
X59780000Y-61600000D02*
X59780000Y-60270000D01*
X61110000Y-61600000D02*
X59780000Y-61600000D01*
X59780000Y-59000000D02*
X59780000Y-56400000D01*
X62380000Y-59000000D02*
X59780000Y-59000000D01*
X62380000Y-61600000D02*
X62380000Y-59000000D01*
X59780000Y-56400000D02*
X80220000Y-56400000D01*
X62380000Y-61600000D02*
X80220000Y-61600000D01*
X80220000Y-61600000D02*
X80220000Y-56400000D01*
%TO.C,J7*%
X102500000Y-63000000D02*
X102500000Y-63500000D01*
X97500000Y-63000000D02*
X102500000Y-63000000D01*
X97500000Y-63500000D02*
X97500000Y-63000000D01*
X114250000Y-63500000D02*
X100000000Y-63500000D01*
X114250000Y-54500000D02*
X114250000Y-63500000D01*
X85750000Y-54500000D02*
X114250000Y-54500000D01*
X85750000Y-63500000D02*
X85750000Y-54500000D01*
X100000000Y-63500000D02*
X85750000Y-63500000D01*
X89780000Y-61600000D02*
X89780000Y-60270000D01*
X91110000Y-61600000D02*
X89780000Y-61600000D01*
X89780000Y-59000000D02*
X89780000Y-56400000D01*
X92380000Y-59000000D02*
X89780000Y-59000000D01*
X92380000Y-61600000D02*
X92380000Y-59000000D01*
X89780000Y-56400000D02*
X110220000Y-56400000D01*
X92380000Y-61600000D02*
X110220000Y-61600000D01*
X110220000Y-61600000D02*
X110220000Y-56400000D01*
%TO.C,J8*%
X46900000Y-28500000D02*
X46900000Y-29750000D01*
X48150000Y-28500000D02*
X46900000Y-28500000D01*
X69050000Y-34000000D02*
X58500000Y-34000000D01*
X69050000Y-31050000D02*
X69050000Y-34000000D01*
X69800000Y-31050000D02*
X69050000Y-31050000D01*
X47950000Y-34000000D02*
X58500000Y-34000000D01*
X47950000Y-31050000D02*
X47950000Y-34000000D01*
X47200000Y-31050000D02*
X47950000Y-31050000D01*
X69800000Y-28800000D02*
X68000000Y-28800000D01*
X69800000Y-29550000D02*
X69800000Y-28800000D01*
X68000000Y-29550000D02*
X69800000Y-29550000D01*
X68000000Y-28800000D02*
X68000000Y-29550000D01*
X49000000Y-28800000D02*
X47200000Y-28800000D01*
X49000000Y-29550000D02*
X49000000Y-28800000D01*
X47200000Y-29550000D02*
X49000000Y-29550000D01*
X47200000Y-28800000D02*
X47200000Y-29550000D01*
X66500000Y-28800000D02*
X50500000Y-28800000D01*
X66500000Y-29550000D02*
X66500000Y-28800000D01*
X50500000Y-29550000D02*
X66500000Y-29550000D01*
X50500000Y-28800000D02*
X50500000Y-29550000D01*
X69810000Y-28790000D02*
X47190000Y-28790000D01*
X69810000Y-34760000D02*
X69810000Y-28790000D01*
X47190000Y-34760000D02*
X69810000Y-34760000D01*
X47190000Y-28790000D02*
X47190000Y-34760000D01*
D11*
%TO.C,U2*%
X73200000Y-41375000D02*
X73200000Y-40000000D01*
X73625000Y-48625000D02*
X73625000Y-48100000D01*
X66375000Y-48625000D02*
X66375000Y-48100000D01*
X66375000Y-41375000D02*
X66375000Y-41900000D01*
X73625000Y-41375000D02*
X73625000Y-41900000D01*
X66375000Y-41375000D02*
X66900000Y-41375000D01*
X66375000Y-48625000D02*
X66900000Y-48625000D01*
X73625000Y-48625000D02*
X73100000Y-48625000D01*
X73625000Y-41375000D02*
X73200000Y-41375000D01*
D10*
%TO.C,D1*%
X107500000Y-27700000D02*
X102500000Y-27700000D01*
X101400000Y-23400000D02*
X101400000Y-22300000D01*
X101400000Y-22300000D02*
X107500000Y-22300000D01*
%TO.C,C3*%
X68288748Y-52735000D02*
X68811252Y-52735000D01*
X68288748Y-51265000D02*
X68811252Y-51265000D01*
%TO.C,C2*%
X47884000Y-28057241D02*
X48514000Y-28057241D01*
X48199000Y-28372241D02*
X48199000Y-27742241D01*
X49636000Y-21631000D02*
X50440000Y-21631000D01*
X49405000Y-21671000D02*
X50671000Y-21671000D01*
X49236000Y-21711000D02*
X50840000Y-21711000D01*
X49098000Y-21751000D02*
X50978000Y-21751000D01*
X48979000Y-21791000D02*
X51097000Y-21791000D01*
X48873000Y-21831000D02*
X51203000Y-21831000D01*
X48776000Y-21871000D02*
X51300000Y-21871000D01*
X48688000Y-21911000D02*
X51388000Y-21911000D01*
X48606000Y-21951000D02*
X51470000Y-21951000D01*
X48529000Y-21991000D02*
X51547000Y-21991000D01*
X48457000Y-22031000D02*
X51619000Y-22031000D01*
X48388000Y-22071000D02*
X51688000Y-22071000D01*
X48324000Y-22111000D02*
X51752000Y-22111000D01*
X48262000Y-22151000D02*
X51814000Y-22151000D01*
X48204000Y-22191000D02*
X51872000Y-22191000D01*
X48148000Y-22231000D02*
X51928000Y-22231000D01*
X48094000Y-22271000D02*
X51982000Y-22271000D01*
X48043000Y-22311000D02*
X52033000Y-22311000D01*
X47994000Y-22351000D02*
X52082000Y-22351000D01*
X47946000Y-22391000D02*
X52130000Y-22391000D01*
X47901000Y-22431000D02*
X52175000Y-22431000D01*
X47856000Y-22471000D02*
X52220000Y-22471000D01*
X47814000Y-22511000D02*
X52262000Y-22511000D01*
X47773000Y-22551000D02*
X52303000Y-22551000D01*
X51078000Y-22591000D02*
X52343000Y-22591000D01*
X47733000Y-22591000D02*
X48998000Y-22591000D01*
X51078000Y-22631000D02*
X52381000Y-22631000D01*
X47695000Y-22631000D02*
X48998000Y-22631000D01*
X51078000Y-22671000D02*
X52418000Y-22671000D01*
X47658000Y-22671000D02*
X48998000Y-22671000D01*
X51078000Y-22711000D02*
X52454000Y-22711000D01*
X47622000Y-22711000D02*
X48998000Y-22711000D01*
X51078000Y-22751000D02*
X52488000Y-22751000D01*
X47588000Y-22751000D02*
X48998000Y-22751000D01*
X51078000Y-22791000D02*
X52522000Y-22791000D01*
X47554000Y-22791000D02*
X48998000Y-22791000D01*
X51078000Y-22831000D02*
X52554000Y-22831000D01*
X47522000Y-22831000D02*
X48998000Y-22831000D01*
X51078000Y-22871000D02*
X52586000Y-22871000D01*
X47490000Y-22871000D02*
X48998000Y-22871000D01*
X51078000Y-22911000D02*
X52616000Y-22911000D01*
X47460000Y-22911000D02*
X48998000Y-22911000D01*
X51078000Y-22951000D02*
X52645000Y-22951000D01*
X47431000Y-22951000D02*
X48998000Y-22951000D01*
X51078000Y-22991000D02*
X52674000Y-22991000D01*
X47402000Y-22991000D02*
X48998000Y-22991000D01*
X51078000Y-23031000D02*
X52702000Y-23031000D01*
X47374000Y-23031000D02*
X48998000Y-23031000D01*
X51078000Y-23071000D02*
X52728000Y-23071000D01*
X47348000Y-23071000D02*
X48998000Y-23071000D01*
X51078000Y-23111000D02*
X52754000Y-23111000D01*
X47322000Y-23111000D02*
X48998000Y-23111000D01*
X51078000Y-23151000D02*
X52780000Y-23151000D01*
X47296000Y-23151000D02*
X48998000Y-23151000D01*
X51078000Y-23191000D02*
X52804000Y-23191000D01*
X47272000Y-23191000D02*
X48998000Y-23191000D01*
X51078000Y-23231000D02*
X52828000Y-23231000D01*
X47248000Y-23231000D02*
X48998000Y-23231000D01*
X51078000Y-23271000D02*
X52850000Y-23271000D01*
X47226000Y-23271000D02*
X48998000Y-23271000D01*
X51078000Y-23311000D02*
X52872000Y-23311000D01*
X47204000Y-23311000D02*
X48998000Y-23311000D01*
X51078000Y-23351000D02*
X52894000Y-23351000D01*
X47182000Y-23351000D02*
X48998000Y-23351000D01*
X51078000Y-23391000D02*
X52914000Y-23391000D01*
X47162000Y-23391000D02*
X48998000Y-23391000D01*
X51078000Y-23431000D02*
X52934000Y-23431000D01*
X47142000Y-23431000D02*
X48998000Y-23431000D01*
X51078000Y-23471000D02*
X52954000Y-23471000D01*
X47122000Y-23471000D02*
X48998000Y-23471000D01*
X51078000Y-23511000D02*
X52972000Y-23511000D01*
X47104000Y-23511000D02*
X48998000Y-23511000D01*
X51078000Y-23551000D02*
X52990000Y-23551000D01*
X47086000Y-23551000D02*
X48998000Y-23551000D01*
X51078000Y-23591000D02*
X53008000Y-23591000D01*
X47068000Y-23591000D02*
X48998000Y-23591000D01*
X51078000Y-23631000D02*
X53024000Y-23631000D01*
X47052000Y-23631000D02*
X48998000Y-23631000D01*
X51078000Y-23671000D02*
X53040000Y-23671000D01*
X47036000Y-23671000D02*
X48998000Y-23671000D01*
X51078000Y-23711000D02*
X53056000Y-23711000D01*
X47020000Y-23711000D02*
X48998000Y-23711000D01*
X51078000Y-23751000D02*
X53071000Y-23751000D01*
X47005000Y-23751000D02*
X48998000Y-23751000D01*
X51078000Y-23791000D02*
X53085000Y-23791000D01*
X46991000Y-23791000D02*
X48998000Y-23791000D01*
X51078000Y-23831000D02*
X53099000Y-23831000D01*
X46977000Y-23831000D02*
X48998000Y-23831000D01*
X51078000Y-23871000D02*
X53112000Y-23871000D01*
X46964000Y-23871000D02*
X48998000Y-23871000D01*
X51078000Y-23911000D02*
X53124000Y-23911000D01*
X46952000Y-23911000D02*
X48998000Y-23911000D01*
X51078000Y-23951000D02*
X53136000Y-23951000D01*
X46940000Y-23951000D02*
X48998000Y-23951000D01*
X51078000Y-23991000D02*
X53148000Y-23991000D01*
X46928000Y-23991000D02*
X48998000Y-23991000D01*
X51078000Y-24031000D02*
X53159000Y-24031000D01*
X46917000Y-24031000D02*
X48998000Y-24031000D01*
X51078000Y-24071000D02*
X53169000Y-24071000D01*
X46907000Y-24071000D02*
X48998000Y-24071000D01*
X51078000Y-24111000D02*
X53179000Y-24111000D01*
X46897000Y-24111000D02*
X48998000Y-24111000D01*
X51078000Y-24151000D02*
X53188000Y-24151000D01*
X46888000Y-24151000D02*
X48998000Y-24151000D01*
X51078000Y-24192000D02*
X53197000Y-24192000D01*
X46879000Y-24192000D02*
X48998000Y-24192000D01*
X51078000Y-24232000D02*
X53205000Y-24232000D01*
X46871000Y-24232000D02*
X48998000Y-24232000D01*
X51078000Y-24272000D02*
X53213000Y-24272000D01*
X46863000Y-24272000D02*
X48998000Y-24272000D01*
X51078000Y-24312000D02*
X53220000Y-24312000D01*
X46856000Y-24312000D02*
X48998000Y-24312000D01*
X51078000Y-24352000D02*
X53227000Y-24352000D01*
X46849000Y-24352000D02*
X48998000Y-24352000D01*
X51078000Y-24392000D02*
X53233000Y-24392000D01*
X46843000Y-24392000D02*
X48998000Y-24392000D01*
X51078000Y-24432000D02*
X53239000Y-24432000D01*
X46837000Y-24432000D02*
X48998000Y-24432000D01*
X51078000Y-24472000D02*
X53244000Y-24472000D01*
X46832000Y-24472000D02*
X48998000Y-24472000D01*
X51078000Y-24512000D02*
X53249000Y-24512000D01*
X46827000Y-24512000D02*
X48998000Y-24512000D01*
X51078000Y-24552000D02*
X53253000Y-24552000D01*
X46823000Y-24552000D02*
X48998000Y-24552000D01*
X51078000Y-24592000D02*
X53256000Y-24592000D01*
X46820000Y-24592000D02*
X48998000Y-24592000D01*
X51078000Y-24632000D02*
X53260000Y-24632000D01*
X46816000Y-24632000D02*
X48998000Y-24632000D01*
X46814000Y-24672000D02*
X53262000Y-24672000D01*
X46811000Y-24712000D02*
X53265000Y-24712000D01*
X46810000Y-24752000D02*
X53266000Y-24752000D01*
X46808000Y-24792000D02*
X53268000Y-24792000D01*
X46808000Y-24832000D02*
X53268000Y-24832000D01*
X46808000Y-24872000D02*
X53268000Y-24872000D01*
X53308000Y-24872000D02*
G75*
G03*
X53308000Y-24872000I-3270000J0D01*
G01*
%TO.C,BZ1*%
X45584500Y-47307500D02*
G75*
G03*
X45584500Y-47307500I-4500000J0D01*
G01*
%TO.C,C4*%
X70477748Y-36222000D02*
X71000252Y-36222000D01*
X70477748Y-37692000D02*
X71000252Y-37692000D01*
%TO.C,C1*%
X46455000Y-36634748D02*
X46455000Y-37157252D01*
X44985000Y-36634748D02*
X44985000Y-37157252D01*
%TO.C,C6*%
X55526000Y-25238748D02*
X55526000Y-25761252D01*
X56996000Y-25238748D02*
X56996000Y-25761252D01*
%TO.C,R1*%
X32792936Y-108993000D02*
X33247064Y-108993000D01*
X32792936Y-110463000D02*
X33247064Y-110463000D01*
%TO.C,R2*%
X38230436Y-39905000D02*
X38684564Y-39905000D01*
X38230436Y-41375000D02*
X38684564Y-41375000D01*
%TO.C,J1*%
X21050000Y-106224000D02*
X21050000Y-105724000D01*
X21050000Y-100524000D02*
X21050000Y-100024000D01*
X19050000Y-100524000D02*
X21050000Y-100524000D01*
X19050000Y-105724000D02*
X19050000Y-100524000D01*
X21050000Y-105724000D02*
X19050000Y-105724000D01*
X21050000Y-100024000D02*
X22250000Y-100024000D01*
X24200000Y-100024000D02*
X29450000Y-100024000D01*
X31400000Y-100024000D02*
X31700000Y-100024000D01*
X33250000Y-100774000D02*
X33250000Y-106224000D01*
X31200000Y-106224000D02*
X27600000Y-106224000D01*
X25700000Y-106224000D02*
X24200000Y-106224000D01*
X22350000Y-106224000D02*
X21050000Y-106224000D01*
X22350000Y-106224000D02*
X22350000Y-107574000D01*
X24200000Y-106224000D02*
X24200000Y-107574000D01*
%TO.C,R3*%
X32792936Y-43915000D02*
X33247064Y-43915000D01*
X32792936Y-42445000D02*
X33247064Y-42445000D01*
%TO.C,R4*%
X59235000Y-25727064D02*
X59235000Y-25272936D01*
X57765000Y-25727064D02*
X57765000Y-25272936D01*
%TO.C,J11*%
X74489000Y-25841000D02*
X74489000Y-24511000D01*
X75819000Y-25841000D02*
X74489000Y-25841000D01*
X77089000Y-25841000D02*
X77089000Y-23181000D01*
X77089000Y-23181000D02*
X82229000Y-23181000D01*
X77089000Y-25841000D02*
X82229000Y-25841000D01*
X82229000Y-25841000D02*
X82229000Y-23181000D01*
%TO.C,Q1*%
X95170000Y-32510000D02*
X95170000Y-31050000D01*
X98330000Y-32510000D02*
X98330000Y-30350000D01*
X98330000Y-32510000D02*
X97400000Y-32510000D01*
X95170000Y-32510000D02*
X96100000Y-32510000D01*
%TO.C,C7*%
X86011252Y-26015000D02*
X85488748Y-26015000D01*
X86011252Y-27485000D02*
X85488748Y-27485000D01*
%TO.C,J2*%
X24190000Y-39676000D02*
X24190000Y-41026000D01*
X22340000Y-39676000D02*
X22340000Y-41026000D01*
X22340000Y-39676000D02*
X21040000Y-39676000D01*
X25690000Y-39676000D02*
X24190000Y-39676000D01*
X31190000Y-39676000D02*
X27590000Y-39676000D01*
X33240000Y-34226000D02*
X33240000Y-39676000D01*
X31390000Y-33476000D02*
X31690000Y-33476000D01*
X24190000Y-33476000D02*
X29440000Y-33476000D01*
X21040000Y-33476000D02*
X22240000Y-33476000D01*
X21040000Y-39176000D02*
X19040000Y-39176000D01*
X19040000Y-39176000D02*
X19040000Y-33976000D01*
X19040000Y-33976000D02*
X21040000Y-33976000D01*
X21040000Y-33976000D02*
X21040000Y-33476000D01*
X21040000Y-39676000D02*
X21040000Y-39176000D01*
%TO.C,D3*%
X27630000Y-111250000D02*
X28560000Y-111250000D01*
X30790000Y-111250000D02*
X29860000Y-111250000D01*
X30790000Y-111250000D02*
X30790000Y-109090000D01*
X27630000Y-111250000D02*
X27630000Y-109790000D01*
%TO.C,R10*%
X31215000Y-28929064D02*
X31215000Y-28474936D01*
X29745000Y-28929064D02*
X29745000Y-28474936D01*
%TO.C,U1*%
X40132000Y-39136000D02*
X43582000Y-39136000D01*
X40132000Y-39136000D02*
X38182000Y-39136000D01*
X40132000Y-34016000D02*
X42082000Y-34016000D01*
X40132000Y-34016000D02*
X38182000Y-34016000D01*
%TO.C,R6*%
X48235000Y-46151436D02*
X48235000Y-46605564D01*
X46765000Y-46151436D02*
X46765000Y-46605564D01*
%TO.C,R5*%
X85977064Y-25235000D02*
X85522936Y-25235000D01*
X85977064Y-23765000D02*
X85522936Y-23765000D01*
%TO.C,R7*%
X96977064Y-28015000D02*
X96522936Y-28015000D01*
X96977064Y-29485000D02*
X96522936Y-29485000D01*
%TO.C,R8*%
X96977064Y-27235000D02*
X96522936Y-27235000D01*
X96977064Y-25765000D02*
X96522936Y-25765000D01*
%TO.C,C8*%
X32285000Y-24899252D02*
X32285000Y-24376748D01*
X33755000Y-24899252D02*
X33755000Y-24376748D01*
%TO.C,D2*%
X41386000Y-31044000D02*
X38701000Y-31044000D01*
X38701000Y-31044000D02*
X38701000Y-32964000D01*
X38701000Y-32964000D02*
X41386000Y-32964000D01*
%TO.C,R9*%
X36118436Y-31269000D02*
X36572564Y-31269000D01*
X36118436Y-32739000D02*
X36572564Y-32739000D01*
%TO.C,R11*%
X29745000Y-24865064D02*
X29745000Y-24410936D01*
X31215000Y-24865064D02*
X31215000Y-24410936D01*
%TO.C,R12*%
X44222936Y-24611000D02*
X44677064Y-24611000D01*
X44222936Y-23141000D02*
X44677064Y-23141000D01*
%TO.C,R13*%
X44222936Y-25681000D02*
X44677064Y-25681000D01*
X44222936Y-27151000D02*
X44677064Y-27151000D01*
%TO.C,U3*%
X38354000Y-28214000D02*
X40304000Y-28214000D01*
X38354000Y-28214000D02*
X36404000Y-28214000D01*
X38354000Y-23094000D02*
X40304000Y-23094000D01*
X38354000Y-23094000D02*
X34904000Y-23094000D01*
%TO.C,Q2*%
X34669000Y-49776500D02*
X34669000Y-48846500D01*
X34669000Y-46616500D02*
X34669000Y-47546500D01*
X34669000Y-46616500D02*
X32509000Y-46616500D01*
X34669000Y-49776500D02*
X33209000Y-49776500D01*
%TO.C,R14*%
X30095564Y-46382000D02*
X29641436Y-46382000D01*
X30095564Y-47852000D02*
X29641436Y-47852000D01*
%TO.C,R15*%
X30072064Y-50011000D02*
X29617936Y-50011000D01*
X30072064Y-48541000D02*
X29617936Y-48541000D01*
%TO.C,C9*%
X36060748Y-28983000D02*
X36583252Y-28983000D01*
X36060748Y-30453000D02*
X36583252Y-30453000D01*
%TO.C,J3*%
X60265000Y-25841000D02*
X60265000Y-24511000D01*
X61595000Y-25841000D02*
X60265000Y-25841000D01*
X62865000Y-25841000D02*
X62865000Y-23181000D01*
X62865000Y-23181000D02*
X73085000Y-23181000D01*
X62865000Y-25841000D02*
X73085000Y-25841000D01*
X73085000Y-25841000D02*
X73085000Y-23181000D01*
%TO.C,J9*%
X70940000Y-28790000D02*
X70940000Y-34760000D01*
X70940000Y-34760000D02*
X93560000Y-34760000D01*
X93560000Y-34760000D02*
X93560000Y-28790000D01*
X93560000Y-28790000D02*
X70940000Y-28790000D01*
X74250000Y-28800000D02*
X74250000Y-29550000D01*
X74250000Y-29550000D02*
X90250000Y-29550000D01*
X90250000Y-29550000D02*
X90250000Y-28800000D01*
X90250000Y-28800000D02*
X74250000Y-28800000D01*
X70950000Y-28800000D02*
X70950000Y-29550000D01*
X70950000Y-29550000D02*
X72750000Y-29550000D01*
X72750000Y-29550000D02*
X72750000Y-28800000D01*
X72750000Y-28800000D02*
X70950000Y-28800000D01*
X91750000Y-28800000D02*
X91750000Y-29550000D01*
X91750000Y-29550000D02*
X93550000Y-29550000D01*
X93550000Y-29550000D02*
X93550000Y-28800000D01*
X93550000Y-28800000D02*
X91750000Y-28800000D01*
X70950000Y-31050000D02*
X71700000Y-31050000D01*
X71700000Y-31050000D02*
X71700000Y-34000000D01*
X71700000Y-34000000D02*
X82250000Y-34000000D01*
X93550000Y-31050000D02*
X92800000Y-31050000D01*
X92800000Y-31050000D02*
X92800000Y-34000000D01*
X92800000Y-34000000D02*
X82250000Y-34000000D01*
X71900000Y-28500000D02*
X70650000Y-28500000D01*
X70650000Y-28500000D02*
X70650000Y-29750000D01*
%TO.C,C5*%
D11*
X111833333Y-27357142D02*
X111785714Y-27404761D01*
X111642857Y-27452380D01*
X111547619Y-27452380D01*
X111404761Y-27404761D01*
X111309523Y-27309523D01*
X111261904Y-27214285D01*
X111214285Y-27023809D01*
X111214285Y-26880952D01*
X111261904Y-26690476D01*
X111309523Y-26595238D01*
X111404761Y-26500000D01*
X111547619Y-26452380D01*
X111642857Y-26452380D01*
X111785714Y-26500000D01*
X111833333Y-26547619D01*
X112738095Y-26452380D02*
X112261904Y-26452380D01*
X112214285Y-26928571D01*
X112261904Y-26880952D01*
X112357142Y-26833333D01*
X112595238Y-26833333D01*
X112690476Y-26880952D01*
X112738095Y-26928571D01*
X112785714Y-27023809D01*
X112785714Y-27261904D01*
X112738095Y-27357142D01*
X112690476Y-27404761D01*
X112595238Y-27452380D01*
X112357142Y-27452380D01*
X112261904Y-27404761D01*
X112214285Y-27357142D01*
%TO.C,J4*%
X101916666Y-37452380D02*
X101916666Y-38166666D01*
X101869047Y-38309523D01*
X101773809Y-38404761D01*
X101630952Y-38452380D01*
X101535714Y-38452380D01*
X102821428Y-37785714D02*
X102821428Y-38452380D01*
X102583333Y-37404761D02*
X102345238Y-38119047D01*
X102964285Y-38119047D01*
%TO.C,J5*%
X25866666Y-64252380D02*
X25866666Y-64966666D01*
X25819047Y-65109523D01*
X25723809Y-65204761D01*
X25580952Y-65252380D01*
X25485714Y-65252380D01*
X26819047Y-64252380D02*
X26342857Y-64252380D01*
X26295238Y-64728571D01*
X26342857Y-64680952D01*
X26438095Y-64633333D01*
X26676190Y-64633333D01*
X26771428Y-64680952D01*
X26819047Y-64728571D01*
X26866666Y-64823809D01*
X26866666Y-65061904D01*
X26819047Y-65157142D01*
X26771428Y-65204761D01*
X26676190Y-65252380D01*
X26438095Y-65252380D01*
X26342857Y-65204761D01*
X26295238Y-65157142D01*
%TO.C,J6*%
X55866666Y-64252380D02*
X55866666Y-64966666D01*
X55819047Y-65109523D01*
X55723809Y-65204761D01*
X55580952Y-65252380D01*
X55485714Y-65252380D01*
X56771428Y-64252380D02*
X56580952Y-64252380D01*
X56485714Y-64300000D01*
X56438095Y-64347619D01*
X56342857Y-64490476D01*
X56295238Y-64680952D01*
X56295238Y-65061904D01*
X56342857Y-65157142D01*
X56390476Y-65204761D01*
X56485714Y-65252380D01*
X56676190Y-65252380D01*
X56771428Y-65204761D01*
X56819047Y-65157142D01*
X56866666Y-65061904D01*
X56866666Y-64823809D01*
X56819047Y-64728571D01*
X56771428Y-64680952D01*
X56676190Y-64633333D01*
X56485714Y-64633333D01*
X56390476Y-64680952D01*
X56342857Y-64728571D01*
X56295238Y-64823809D01*
%TO.C,J7*%
X85866666Y-64252380D02*
X85866666Y-64966666D01*
X85819047Y-65109523D01*
X85723809Y-65204761D01*
X85580952Y-65252380D01*
X85485714Y-65252380D01*
X86247619Y-64252380D02*
X86914285Y-64252380D01*
X86485714Y-65252380D01*
%TO.C,J8*%
X68861666Y-27273380D02*
X68861666Y-27987666D01*
X68814047Y-28130523D01*
X68718809Y-28225761D01*
X68575952Y-28273380D01*
X68480714Y-28273380D01*
X69480714Y-27701952D02*
X69385476Y-27654333D01*
X69337857Y-27606714D01*
X69290238Y-27511476D01*
X69290238Y-27463857D01*
X69337857Y-27368619D01*
X69385476Y-27321000D01*
X69480714Y-27273380D01*
X69671190Y-27273380D01*
X69766428Y-27321000D01*
X69814047Y-27368619D01*
X69861666Y-27463857D01*
X69861666Y-27511476D01*
X69814047Y-27606714D01*
X69766428Y-27654333D01*
X69671190Y-27701952D01*
X69480714Y-27701952D01*
X69385476Y-27749571D01*
X69337857Y-27797190D01*
X69290238Y-27892428D01*
X69290238Y-28082904D01*
X69337857Y-28178142D01*
X69385476Y-28225761D01*
X69480714Y-28273380D01*
X69671190Y-28273380D01*
X69766428Y-28225761D01*
X69814047Y-28178142D01*
X69861666Y-28082904D01*
X69861666Y-27892428D01*
X69814047Y-27797190D01*
X69766428Y-27749571D01*
X69671190Y-27701952D01*
%TO.C,U2*%
X66988095Y-38452380D02*
X66988095Y-39261904D01*
X67035714Y-39357142D01*
X67083333Y-39404761D01*
X67178571Y-39452380D01*
X67369047Y-39452380D01*
X67464285Y-39404761D01*
X67511904Y-39357142D01*
X67559523Y-39261904D01*
X67559523Y-38452380D01*
X67988095Y-38547619D02*
X68035714Y-38500000D01*
X68130952Y-38452380D01*
X68369047Y-38452380D01*
X68464285Y-38500000D01*
X68511904Y-38547619D01*
X68559523Y-38642857D01*
X68559523Y-38738095D01*
X68511904Y-38880952D01*
X67940476Y-39452380D01*
X68559523Y-39452380D01*
%TO.C,D1*%
X109011904Y-23452380D02*
X109011904Y-22452380D01*
X109250000Y-22452380D01*
X109392857Y-22500000D01*
X109488095Y-22595238D01*
X109535714Y-22690476D01*
X109583333Y-22880952D01*
X109583333Y-23023809D01*
X109535714Y-23214285D01*
X109488095Y-23309523D01*
X109392857Y-23404761D01*
X109250000Y-23452380D01*
X109011904Y-23452380D01*
X110535714Y-23452380D02*
X109964285Y-23452380D01*
X110250000Y-23452380D02*
X110250000Y-22452380D01*
X110154761Y-22595238D01*
X110059523Y-22690476D01*
X109964285Y-22738095D01*
%TO.C,C3*%
X65583333Y-52357142D02*
X65535714Y-52404761D01*
X65392857Y-52452380D01*
X65297619Y-52452380D01*
X65154761Y-52404761D01*
X65059523Y-52309523D01*
X65011904Y-52214285D01*
X64964285Y-52023809D01*
X64964285Y-51880952D01*
X65011904Y-51690476D01*
X65059523Y-51595238D01*
X65154761Y-51500000D01*
X65297619Y-51452380D01*
X65392857Y-51452380D01*
X65535714Y-51500000D01*
X65583333Y-51547619D01*
X65916666Y-51452380D02*
X66535714Y-51452380D01*
X66202380Y-51833333D01*
X66345238Y-51833333D01*
X66440476Y-51880952D01*
X66488095Y-51928571D01*
X66535714Y-52023809D01*
X66535714Y-52261904D01*
X66488095Y-52357142D01*
X66440476Y-52404761D01*
X66345238Y-52452380D01*
X66059523Y-52452380D01*
X65964285Y-52404761D01*
X65916666Y-52357142D01*
%TO.C,C2*%
X53554333Y-22582142D02*
X53506714Y-22629761D01*
X53363857Y-22677380D01*
X53268619Y-22677380D01*
X53125761Y-22629761D01*
X53030523Y-22534523D01*
X52982904Y-22439285D01*
X52935285Y-22248809D01*
X52935285Y-22105952D01*
X52982904Y-21915476D01*
X53030523Y-21820238D01*
X53125761Y-21725000D01*
X53268619Y-21677380D01*
X53363857Y-21677380D01*
X53506714Y-21725000D01*
X53554333Y-21772619D01*
X53935285Y-21772619D02*
X53982904Y-21725000D01*
X54078142Y-21677380D01*
X54316238Y-21677380D01*
X54411476Y-21725000D01*
X54459095Y-21772619D01*
X54506714Y-21867857D01*
X54506714Y-21963095D01*
X54459095Y-22105952D01*
X53887666Y-22677380D01*
X54506714Y-22677380D01*
%TO.C,BZ1*%
X41346547Y-41902071D02*
X41489404Y-41949690D01*
X41537023Y-41997309D01*
X41584642Y-42092547D01*
X41584642Y-42235404D01*
X41537023Y-42330642D01*
X41489404Y-42378261D01*
X41394166Y-42425880D01*
X41013214Y-42425880D01*
X41013214Y-41425880D01*
X41346547Y-41425880D01*
X41441785Y-41473500D01*
X41489404Y-41521119D01*
X41537023Y-41616357D01*
X41537023Y-41711595D01*
X41489404Y-41806833D01*
X41441785Y-41854452D01*
X41346547Y-41902071D01*
X41013214Y-41902071D01*
X41917976Y-41425880D02*
X42584642Y-41425880D01*
X41917976Y-42425880D01*
X42584642Y-42425880D01*
X43489404Y-42425880D02*
X42917976Y-42425880D01*
X43203690Y-42425880D02*
X43203690Y-41425880D01*
X43108452Y-41568738D01*
X43013214Y-41663976D01*
X42917976Y-41711595D01*
X42989547Y-49410928D02*
X43751452Y-49410928D01*
X43370500Y-49791880D02*
X43370500Y-49029976D01*
%TO.C,C4*%
X67833333Y-37357142D02*
X67785714Y-37404761D01*
X67642857Y-37452380D01*
X67547619Y-37452380D01*
X67404761Y-37404761D01*
X67309523Y-37309523D01*
X67261904Y-37214285D01*
X67214285Y-37023809D01*
X67214285Y-36880952D01*
X67261904Y-36690476D01*
X67309523Y-36595238D01*
X67404761Y-36500000D01*
X67547619Y-36452380D01*
X67642857Y-36452380D01*
X67785714Y-36500000D01*
X67833333Y-36547619D01*
X68690476Y-36785714D02*
X68690476Y-37452380D01*
X68452380Y-36404761D02*
X68214285Y-37119047D01*
X68833333Y-37119047D01*
%TO.C,C1*%
X45553333Y-39727142D02*
X45505714Y-39774761D01*
X45362857Y-39822380D01*
X45267619Y-39822380D01*
X45124761Y-39774761D01*
X45029523Y-39679523D01*
X44981904Y-39584285D01*
X44934285Y-39393809D01*
X44934285Y-39250952D01*
X44981904Y-39060476D01*
X45029523Y-38965238D01*
X45124761Y-38870000D01*
X45267619Y-38822380D01*
X45362857Y-38822380D01*
X45505714Y-38870000D01*
X45553333Y-38917619D01*
X46505714Y-39822380D02*
X45934285Y-39822380D01*
X46220000Y-39822380D02*
X46220000Y-38822380D01*
X46124761Y-38965238D01*
X46029523Y-39060476D01*
X45934285Y-39108095D01*
%TO.C,C6*%
X56083333Y-28357142D02*
X56035714Y-28404761D01*
X55892857Y-28452380D01*
X55797619Y-28452380D01*
X55654761Y-28404761D01*
X55559523Y-28309523D01*
X55511904Y-28214285D01*
X55464285Y-28023809D01*
X55464285Y-27880952D01*
X55511904Y-27690476D01*
X55559523Y-27595238D01*
X55654761Y-27500000D01*
X55797619Y-27452380D01*
X55892857Y-27452380D01*
X56035714Y-27500000D01*
X56083333Y-27547619D01*
X56940476Y-27452380D02*
X56750000Y-27452380D01*
X56654761Y-27500000D01*
X56607142Y-27547619D01*
X56511904Y-27690476D01*
X56464285Y-27880952D01*
X56464285Y-28261904D01*
X56511904Y-28357142D01*
X56559523Y-28404761D01*
X56654761Y-28452380D01*
X56845238Y-28452380D01*
X56940476Y-28404761D01*
X56988095Y-28357142D01*
X57035714Y-28261904D01*
X57035714Y-28023809D01*
X56988095Y-27928571D01*
X56940476Y-27880952D01*
X56845238Y-27833333D01*
X56654761Y-27833333D01*
X56559523Y-27880952D01*
X56511904Y-27928571D01*
X56464285Y-28023809D01*
%TO.C,R1*%
X33869333Y-111958380D02*
X33536000Y-111482190D01*
X33297904Y-111958380D02*
X33297904Y-110958380D01*
X33678857Y-110958380D01*
X33774095Y-111006000D01*
X33821714Y-111053619D01*
X33869333Y-111148857D01*
X33869333Y-111291714D01*
X33821714Y-111386952D01*
X33774095Y-111434571D01*
X33678857Y-111482190D01*
X33297904Y-111482190D01*
X34821714Y-111958380D02*
X34250285Y-111958380D01*
X34536000Y-111958380D02*
X34536000Y-110958380D01*
X34440761Y-111101238D01*
X34345523Y-111196476D01*
X34250285Y-111244095D01*
%TO.C,R2*%
X37425333Y-42870380D02*
X37092000Y-42394190D01*
X36853904Y-42870380D02*
X36853904Y-41870380D01*
X37234857Y-41870380D01*
X37330095Y-41918000D01*
X37377714Y-41965619D01*
X37425333Y-42060857D01*
X37425333Y-42203714D01*
X37377714Y-42298952D01*
X37330095Y-42346571D01*
X37234857Y-42394190D01*
X36853904Y-42394190D01*
X37806285Y-41965619D02*
X37853904Y-41918000D01*
X37949142Y-41870380D01*
X38187238Y-41870380D01*
X38282476Y-41918000D01*
X38330095Y-41965619D01*
X38377714Y-42060857D01*
X38377714Y-42156095D01*
X38330095Y-42298952D01*
X37758666Y-42870380D01*
X38377714Y-42870380D01*
%TO.C,J1*%
X32940666Y-96734380D02*
X32940666Y-97448666D01*
X32893047Y-97591523D01*
X32797809Y-97686761D01*
X32654952Y-97734380D01*
X32559714Y-97734380D01*
X33940666Y-97734380D02*
X33369238Y-97734380D01*
X33654952Y-97734380D02*
X33654952Y-96734380D01*
X33559714Y-96877238D01*
X33464476Y-96972476D01*
X33369238Y-97020095D01*
%TO.C,R3*%
X33533333Y-45352380D02*
X33200000Y-44876190D01*
X32961904Y-45352380D02*
X32961904Y-44352380D01*
X33342857Y-44352380D01*
X33438095Y-44400000D01*
X33485714Y-44447619D01*
X33533333Y-44542857D01*
X33533333Y-44685714D01*
X33485714Y-44780952D01*
X33438095Y-44828571D01*
X33342857Y-44876190D01*
X32961904Y-44876190D01*
X33866666Y-44352380D02*
X34485714Y-44352380D01*
X34152380Y-44733333D01*
X34295238Y-44733333D01*
X34390476Y-44780952D01*
X34438095Y-44828571D01*
X34485714Y-44923809D01*
X34485714Y-45161904D01*
X34438095Y-45257142D01*
X34390476Y-45304761D01*
X34295238Y-45352380D01*
X34009523Y-45352380D01*
X33914285Y-45304761D01*
X33866666Y-45257142D01*
%TO.C,R4*%
X58333333Y-28452380D02*
X58000000Y-27976190D01*
X57761904Y-28452380D02*
X57761904Y-27452380D01*
X58142857Y-27452380D01*
X58238095Y-27500000D01*
X58285714Y-27547619D01*
X58333333Y-27642857D01*
X58333333Y-27785714D01*
X58285714Y-27880952D01*
X58238095Y-27928571D01*
X58142857Y-27976190D01*
X57761904Y-27976190D01*
X59190476Y-27785714D02*
X59190476Y-28452380D01*
X58952380Y-27404761D02*
X58714285Y-28119047D01*
X59333333Y-28119047D01*
%TO.C,J11*%
X74501476Y-21486880D02*
X74501476Y-22201166D01*
X74453857Y-22344023D01*
X74358619Y-22439261D01*
X74215761Y-22486880D01*
X74120523Y-22486880D01*
X75501476Y-22486880D02*
X74930047Y-22486880D01*
X75215761Y-22486880D02*
X75215761Y-21486880D01*
X75120523Y-21629738D01*
X75025285Y-21724976D01*
X74930047Y-21772595D01*
X76453857Y-22486880D02*
X75882428Y-22486880D01*
X76168142Y-22486880D02*
X76168142Y-21486880D01*
X76072904Y-21629738D01*
X75977666Y-21724976D01*
X75882428Y-21772595D01*
%TO.C,Q1*%
X99404761Y-32297619D02*
X99309523Y-32250000D01*
X99214285Y-32154761D01*
X99071428Y-32011904D01*
X98976190Y-31964285D01*
X98880952Y-31964285D01*
X98928571Y-32202380D02*
X98833333Y-32154761D01*
X98738095Y-32059523D01*
X98690476Y-31869047D01*
X98690476Y-31535714D01*
X98738095Y-31345238D01*
X98833333Y-31250000D01*
X98928571Y-31202380D01*
X99119047Y-31202380D01*
X99214285Y-31250000D01*
X99309523Y-31345238D01*
X99357142Y-31535714D01*
X99357142Y-31869047D01*
X99309523Y-32059523D01*
X99214285Y-32154761D01*
X99119047Y-32202380D01*
X98928571Y-32202380D01*
X100309523Y-32202380D02*
X99738095Y-32202380D01*
X100023809Y-32202380D02*
X100023809Y-31202380D01*
X99928571Y-31345238D01*
X99833333Y-31440476D01*
X99738095Y-31488095D01*
%TO.C,C7*%
X88333333Y-27107142D02*
X88285714Y-27154761D01*
X88142857Y-27202380D01*
X88047619Y-27202380D01*
X87904761Y-27154761D01*
X87809523Y-27059523D01*
X87761904Y-26964285D01*
X87714285Y-26773809D01*
X87714285Y-26630952D01*
X87761904Y-26440476D01*
X87809523Y-26345238D01*
X87904761Y-26250000D01*
X88047619Y-26202380D01*
X88142857Y-26202380D01*
X88285714Y-26250000D01*
X88333333Y-26297619D01*
X88666666Y-26202380D02*
X89333333Y-26202380D01*
X88904761Y-27202380D01*
%TO.C,J2*%
X21766666Y-30252380D02*
X21766666Y-30966666D01*
X21719047Y-31109523D01*
X21623809Y-31204761D01*
X21480952Y-31252380D01*
X21385714Y-31252380D01*
X22195238Y-30347619D02*
X22242857Y-30300000D01*
X22338095Y-30252380D01*
X22576190Y-30252380D01*
X22671428Y-30300000D01*
X22719047Y-30347619D01*
X22766666Y-30442857D01*
X22766666Y-30538095D01*
X22719047Y-30680952D01*
X22147619Y-31252380D01*
X22766666Y-31252380D01*
%TO.C,D3*%
X29487904Y-113482380D02*
X29487904Y-112482380D01*
X29726000Y-112482380D01*
X29868857Y-112530000D01*
X29964095Y-112625238D01*
X30011714Y-112720476D01*
X30059333Y-112910952D01*
X30059333Y-113053809D01*
X30011714Y-113244285D01*
X29964095Y-113339523D01*
X29868857Y-113434761D01*
X29726000Y-113482380D01*
X29487904Y-113482380D01*
X30392666Y-112482380D02*
X31011714Y-112482380D01*
X30678380Y-112863333D01*
X30821238Y-112863333D01*
X30916476Y-112910952D01*
X30964095Y-112958571D01*
X31011714Y-113053809D01*
X31011714Y-113291904D01*
X30964095Y-113387142D01*
X30916476Y-113434761D01*
X30821238Y-113482380D01*
X30535523Y-113482380D01*
X30440285Y-113434761D01*
X30392666Y-113387142D01*
%TO.C,R10*%
X32250142Y-28138380D02*
X31916809Y-27662190D01*
X31678714Y-28138380D02*
X31678714Y-27138380D01*
X32059666Y-27138380D01*
X32154904Y-27186000D01*
X32202523Y-27233619D01*
X32250142Y-27328857D01*
X32250142Y-27471714D01*
X32202523Y-27566952D01*
X32154904Y-27614571D01*
X32059666Y-27662190D01*
X31678714Y-27662190D01*
X33202523Y-28138380D02*
X32631095Y-28138380D01*
X32916809Y-28138380D02*
X32916809Y-27138380D01*
X32821571Y-27281238D01*
X32726333Y-27376476D01*
X32631095Y-27424095D01*
X33821571Y-27138380D02*
X33916809Y-27138380D01*
X34012047Y-27186000D01*
X34059666Y-27233619D01*
X34107285Y-27328857D01*
X34154904Y-27519333D01*
X34154904Y-27757428D01*
X34107285Y-27947904D01*
X34059666Y-28043142D01*
X34012047Y-28090761D01*
X33916809Y-28138380D01*
X33821571Y-28138380D01*
X33726333Y-28090761D01*
X33678714Y-28043142D01*
X33631095Y-27947904D01*
X33583476Y-27757428D01*
X33583476Y-27519333D01*
X33631095Y-27328857D01*
X33678714Y-27233619D01*
X33726333Y-27186000D01*
X33821571Y-27138380D01*
%TO.C,U1*%
X42418095Y-39520880D02*
X42418095Y-40330404D01*
X42465714Y-40425642D01*
X42513333Y-40473261D01*
X42608571Y-40520880D01*
X42799047Y-40520880D01*
X42894285Y-40473261D01*
X42941904Y-40425642D01*
X42989523Y-40330404D01*
X42989523Y-39520880D01*
X43989523Y-40520880D02*
X43418095Y-40520880D01*
X43703809Y-40520880D02*
X43703809Y-39520880D01*
X43608571Y-39663738D01*
X43513333Y-39758976D01*
X43418095Y-39806595D01*
%TO.C,R6*%
X47359333Y-44476880D02*
X47026000Y-44000690D01*
X46787904Y-44476880D02*
X46787904Y-43476880D01*
X47168857Y-43476880D01*
X47264095Y-43524500D01*
X47311714Y-43572119D01*
X47359333Y-43667357D01*
X47359333Y-43810214D01*
X47311714Y-43905452D01*
X47264095Y-43953071D01*
X47168857Y-44000690D01*
X46787904Y-44000690D01*
X48216476Y-43476880D02*
X48026000Y-43476880D01*
X47930761Y-43524500D01*
X47883142Y-43572119D01*
X47787904Y-43714976D01*
X47740285Y-43905452D01*
X47740285Y-44286404D01*
X47787904Y-44381642D01*
X47835523Y-44429261D01*
X47930761Y-44476880D01*
X48121238Y-44476880D01*
X48216476Y-44429261D01*
X48264095Y-44381642D01*
X48311714Y-44286404D01*
X48311714Y-44048309D01*
X48264095Y-43953071D01*
X48216476Y-43905452D01*
X48121238Y-43857833D01*
X47930761Y-43857833D01*
X47835523Y-43905452D01*
X47787904Y-43953071D01*
X47740285Y-44048309D01*
%TO.C,R5*%
X88333333Y-24952380D02*
X88000000Y-24476190D01*
X87761904Y-24952380D02*
X87761904Y-23952380D01*
X88142857Y-23952380D01*
X88238095Y-24000000D01*
X88285714Y-24047619D01*
X88333333Y-24142857D01*
X88333333Y-24285714D01*
X88285714Y-24380952D01*
X88238095Y-24428571D01*
X88142857Y-24476190D01*
X87761904Y-24476190D01*
X89238095Y-23952380D02*
X88761904Y-23952380D01*
X88714285Y-24428571D01*
X88761904Y-24380952D01*
X88857142Y-24333333D01*
X89095238Y-24333333D01*
X89190476Y-24380952D01*
X89238095Y-24428571D01*
X89285714Y-24523809D01*
X89285714Y-24761904D01*
X89238095Y-24857142D01*
X89190476Y-24904761D01*
X89095238Y-24952380D01*
X88857142Y-24952380D01*
X88761904Y-24904761D01*
X88714285Y-24857142D01*
%TO.C,R7*%
X99333333Y-29202380D02*
X99000000Y-28726190D01*
X98761904Y-29202380D02*
X98761904Y-28202380D01*
X99142857Y-28202380D01*
X99238095Y-28250000D01*
X99285714Y-28297619D01*
X99333333Y-28392857D01*
X99333333Y-28535714D01*
X99285714Y-28630952D01*
X99238095Y-28678571D01*
X99142857Y-28726190D01*
X98761904Y-28726190D01*
X99666666Y-28202380D02*
X100333333Y-28202380D01*
X99904761Y-29202380D01*
%TO.C,R8*%
X99333333Y-26952380D02*
X99000000Y-26476190D01*
X98761904Y-26952380D02*
X98761904Y-25952380D01*
X99142857Y-25952380D01*
X99238095Y-26000000D01*
X99285714Y-26047619D01*
X99333333Y-26142857D01*
X99333333Y-26285714D01*
X99285714Y-26380952D01*
X99238095Y-26428571D01*
X99142857Y-26476190D01*
X98761904Y-26476190D01*
X99904761Y-26380952D02*
X99809523Y-26333333D01*
X99761904Y-26285714D01*
X99714285Y-26190476D01*
X99714285Y-26142857D01*
X99761904Y-26047619D01*
X99809523Y-26000000D01*
X99904761Y-25952380D01*
X100095238Y-25952380D01*
X100190476Y-26000000D01*
X100238095Y-26047619D01*
X100285714Y-26142857D01*
X100285714Y-26190476D01*
X100238095Y-26285714D01*
X100190476Y-26333333D01*
X100095238Y-26380952D01*
X99904761Y-26380952D01*
X99809523Y-26428571D01*
X99761904Y-26476190D01*
X99714285Y-26571428D01*
X99714285Y-26761904D01*
X99761904Y-26857142D01*
X99809523Y-26904761D01*
X99904761Y-26952380D01*
X100095238Y-26952380D01*
X100190476Y-26904761D01*
X100238095Y-26857142D01*
X100285714Y-26761904D01*
X100285714Y-26571428D01*
X100238095Y-26476190D01*
X100190476Y-26428571D01*
X100095238Y-26380952D01*
%TO.C,C8*%
X32853333Y-22582142D02*
X32805714Y-22629761D01*
X32662857Y-22677380D01*
X32567619Y-22677380D01*
X32424761Y-22629761D01*
X32329523Y-22534523D01*
X32281904Y-22439285D01*
X32234285Y-22248809D01*
X32234285Y-22105952D01*
X32281904Y-21915476D01*
X32329523Y-21820238D01*
X32424761Y-21725000D01*
X32567619Y-21677380D01*
X32662857Y-21677380D01*
X32805714Y-21725000D01*
X32853333Y-21772619D01*
X33424761Y-22105952D02*
X33329523Y-22058333D01*
X33281904Y-22010714D01*
X33234285Y-21915476D01*
X33234285Y-21867857D01*
X33281904Y-21772619D01*
X33329523Y-21725000D01*
X33424761Y-21677380D01*
X33615238Y-21677380D01*
X33710476Y-21725000D01*
X33758095Y-21772619D01*
X33805714Y-21867857D01*
X33805714Y-21915476D01*
X33758095Y-22010714D01*
X33710476Y-22058333D01*
X33615238Y-22105952D01*
X33424761Y-22105952D01*
X33329523Y-22153571D01*
X33281904Y-22201190D01*
X33234285Y-22296428D01*
X33234285Y-22486904D01*
X33281904Y-22582142D01*
X33329523Y-22629761D01*
X33424761Y-22677380D01*
X33615238Y-22677380D01*
X33710476Y-22629761D01*
X33758095Y-22582142D01*
X33805714Y-22486904D01*
X33805714Y-22296428D01*
X33758095Y-22201190D01*
X33710476Y-22153571D01*
X33615238Y-22105952D01*
%TO.C,D2*%
X39393904Y-30805380D02*
X39393904Y-29805380D01*
X39632000Y-29805380D01*
X39774857Y-29853000D01*
X39870095Y-29948238D01*
X39917714Y-30043476D01*
X39965333Y-30233952D01*
X39965333Y-30376809D01*
X39917714Y-30567285D01*
X39870095Y-30662523D01*
X39774857Y-30757761D01*
X39632000Y-30805380D01*
X39393904Y-30805380D01*
X40346285Y-29900619D02*
X40393904Y-29853000D01*
X40489142Y-29805380D01*
X40727238Y-29805380D01*
X40822476Y-29853000D01*
X40870095Y-29900619D01*
X40917714Y-29995857D01*
X40917714Y-30091095D01*
X40870095Y-30233952D01*
X40298666Y-30805380D01*
X40917714Y-30805380D01*
%TO.C,R9*%
X35202833Y-34107380D02*
X34869500Y-33631190D01*
X34631404Y-34107380D02*
X34631404Y-33107380D01*
X35012357Y-33107380D01*
X35107595Y-33155000D01*
X35155214Y-33202619D01*
X35202833Y-33297857D01*
X35202833Y-33440714D01*
X35155214Y-33535952D01*
X35107595Y-33583571D01*
X35012357Y-33631190D01*
X34631404Y-33631190D01*
X35679023Y-34107380D02*
X35869500Y-34107380D01*
X35964738Y-34059761D01*
X36012357Y-34012142D01*
X36107595Y-33869285D01*
X36155214Y-33678809D01*
X36155214Y-33297857D01*
X36107595Y-33202619D01*
X36059976Y-33155000D01*
X35964738Y-33107380D01*
X35774261Y-33107380D01*
X35679023Y-33155000D01*
X35631404Y-33202619D01*
X35583785Y-33297857D01*
X35583785Y-33535952D01*
X35631404Y-33631190D01*
X35679023Y-33678809D01*
X35774261Y-33726428D01*
X35964738Y-33726428D01*
X36059976Y-33678809D01*
X36107595Y-33631190D01*
X36155214Y-33535952D01*
%TO.C,R11*%
X29773642Y-22677380D02*
X29440309Y-22201190D01*
X29202214Y-22677380D02*
X29202214Y-21677380D01*
X29583166Y-21677380D01*
X29678404Y-21725000D01*
X29726023Y-21772619D01*
X29773642Y-21867857D01*
X29773642Y-22010714D01*
X29726023Y-22105952D01*
X29678404Y-22153571D01*
X29583166Y-22201190D01*
X29202214Y-22201190D01*
X30726023Y-22677380D02*
X30154595Y-22677380D01*
X30440309Y-22677380D02*
X30440309Y-21677380D01*
X30345071Y-21820238D01*
X30249833Y-21915476D01*
X30154595Y-21963095D01*
X31678404Y-22677380D02*
X31106976Y-22677380D01*
X31392690Y-22677380D02*
X31392690Y-21677380D01*
X31297452Y-21820238D01*
X31202214Y-21915476D01*
X31106976Y-21963095D01*
%TO.C,R12*%
X43807142Y-22678380D02*
X43473809Y-22202190D01*
X43235714Y-22678380D02*
X43235714Y-21678380D01*
X43616666Y-21678380D01*
X43711904Y-21726000D01*
X43759523Y-21773619D01*
X43807142Y-21868857D01*
X43807142Y-22011714D01*
X43759523Y-22106952D01*
X43711904Y-22154571D01*
X43616666Y-22202190D01*
X43235714Y-22202190D01*
X44759523Y-22678380D02*
X44188095Y-22678380D01*
X44473809Y-22678380D02*
X44473809Y-21678380D01*
X44378571Y-21821238D01*
X44283333Y-21916476D01*
X44188095Y-21964095D01*
X45140476Y-21773619D02*
X45188095Y-21726000D01*
X45283333Y-21678380D01*
X45521428Y-21678380D01*
X45616666Y-21726000D01*
X45664285Y-21773619D01*
X45711904Y-21868857D01*
X45711904Y-21964095D01*
X45664285Y-22106952D01*
X45092857Y-22678380D01*
X45711904Y-22678380D01*
%TO.C,R13*%
X43807142Y-28646380D02*
X43473809Y-28170190D01*
X43235714Y-28646380D02*
X43235714Y-27646380D01*
X43616666Y-27646380D01*
X43711904Y-27694000D01*
X43759523Y-27741619D01*
X43807142Y-27836857D01*
X43807142Y-27979714D01*
X43759523Y-28074952D01*
X43711904Y-28122571D01*
X43616666Y-28170190D01*
X43235714Y-28170190D01*
X44759523Y-28646380D02*
X44188095Y-28646380D01*
X44473809Y-28646380D02*
X44473809Y-27646380D01*
X44378571Y-27789238D01*
X44283333Y-27884476D01*
X44188095Y-27932095D01*
X45092857Y-27646380D02*
X45711904Y-27646380D01*
X45378571Y-28027333D01*
X45521428Y-28027333D01*
X45616666Y-28074952D01*
X45664285Y-28122571D01*
X45711904Y-28217809D01*
X45711904Y-28455904D01*
X45664285Y-28551142D01*
X45616666Y-28598761D01*
X45521428Y-28646380D01*
X45235714Y-28646380D01*
X45140476Y-28598761D01*
X45092857Y-28551142D01*
%TO.C,U3*%
X37592095Y-21706380D02*
X37592095Y-22515904D01*
X37639714Y-22611142D01*
X37687333Y-22658761D01*
X37782571Y-22706380D01*
X37973047Y-22706380D01*
X38068285Y-22658761D01*
X38115904Y-22611142D01*
X38163523Y-22515904D01*
X38163523Y-21706380D01*
X38544476Y-21706380D02*
X39163523Y-21706380D01*
X38830190Y-22087333D01*
X38973047Y-22087333D01*
X39068285Y-22134952D01*
X39115904Y-22182571D01*
X39163523Y-22277809D01*
X39163523Y-22515904D01*
X39115904Y-22611142D01*
X39068285Y-22658761D01*
X38973047Y-22706380D01*
X38687333Y-22706380D01*
X38592095Y-22658761D01*
X38544476Y-22611142D01*
%TO.C,Q2*%
X33604761Y-51247619D02*
X33509523Y-51200000D01*
X33414285Y-51104761D01*
X33271428Y-50961904D01*
X33176190Y-50914285D01*
X33080952Y-50914285D01*
X33128571Y-51152380D02*
X33033333Y-51104761D01*
X32938095Y-51009523D01*
X32890476Y-50819047D01*
X32890476Y-50485714D01*
X32938095Y-50295238D01*
X33033333Y-50200000D01*
X33128571Y-50152380D01*
X33319047Y-50152380D01*
X33414285Y-50200000D01*
X33509523Y-50295238D01*
X33557142Y-50485714D01*
X33557142Y-50819047D01*
X33509523Y-51009523D01*
X33414285Y-51104761D01*
X33319047Y-51152380D01*
X33128571Y-51152380D01*
X33938095Y-50247619D02*
X33985714Y-50200000D01*
X34080952Y-50152380D01*
X34319047Y-50152380D01*
X34414285Y-50200000D01*
X34461904Y-50247619D01*
X34509523Y-50342857D01*
X34509523Y-50438095D01*
X34461904Y-50580952D01*
X33890476Y-51152380D01*
X34509523Y-51152380D01*
%TO.C,R14*%
X28821142Y-45981880D02*
X28487809Y-45505690D01*
X28249714Y-45981880D02*
X28249714Y-44981880D01*
X28630666Y-44981880D01*
X28725904Y-45029500D01*
X28773523Y-45077119D01*
X28821142Y-45172357D01*
X28821142Y-45315214D01*
X28773523Y-45410452D01*
X28725904Y-45458071D01*
X28630666Y-45505690D01*
X28249714Y-45505690D01*
X29773523Y-45981880D02*
X29202095Y-45981880D01*
X29487809Y-45981880D02*
X29487809Y-44981880D01*
X29392571Y-45124738D01*
X29297333Y-45219976D01*
X29202095Y-45267595D01*
X30630666Y-45315214D02*
X30630666Y-45981880D01*
X30392571Y-44934261D02*
X30154476Y-45648547D01*
X30773523Y-45648547D01*
%TO.C,R15*%
X28821142Y-51379380D02*
X28487809Y-50903190D01*
X28249714Y-51379380D02*
X28249714Y-50379380D01*
X28630666Y-50379380D01*
X28725904Y-50427000D01*
X28773523Y-50474619D01*
X28821142Y-50569857D01*
X28821142Y-50712714D01*
X28773523Y-50807952D01*
X28725904Y-50855571D01*
X28630666Y-50903190D01*
X28249714Y-50903190D01*
X29773523Y-51379380D02*
X29202095Y-51379380D01*
X29487809Y-51379380D02*
X29487809Y-50379380D01*
X29392571Y-50522238D01*
X29297333Y-50617476D01*
X29202095Y-50665095D01*
X30678285Y-50379380D02*
X30202095Y-50379380D01*
X30154476Y-50855571D01*
X30202095Y-50807952D01*
X30297333Y-50760333D01*
X30535428Y-50760333D01*
X30630666Y-50807952D01*
X30678285Y-50855571D01*
X30725904Y-50950809D01*
X30725904Y-51188904D01*
X30678285Y-51284142D01*
X30630666Y-51331761D01*
X30535428Y-51379380D01*
X30297333Y-51379380D01*
X30202095Y-51331761D01*
X30154476Y-51284142D01*
%TO.C,C9*%
X33297833Y-30202142D02*
X33250214Y-30249761D01*
X33107357Y-30297380D01*
X33012119Y-30297380D01*
X32869261Y-30249761D01*
X32774023Y-30154523D01*
X32726404Y-30059285D01*
X32678785Y-29868809D01*
X32678785Y-29725952D01*
X32726404Y-29535476D01*
X32774023Y-29440238D01*
X32869261Y-29345000D01*
X33012119Y-29297380D01*
X33107357Y-29297380D01*
X33250214Y-29345000D01*
X33297833Y-29392619D01*
X33774023Y-30297380D02*
X33964500Y-30297380D01*
X34059738Y-30249761D01*
X34107357Y-30202142D01*
X34202595Y-30059285D01*
X34250214Y-29868809D01*
X34250214Y-29487857D01*
X34202595Y-29392619D01*
X34154976Y-29345000D01*
X34059738Y-29297380D01*
X33869261Y-29297380D01*
X33774023Y-29345000D01*
X33726404Y-29392619D01*
X33678785Y-29487857D01*
X33678785Y-29725952D01*
X33726404Y-29821190D01*
X33774023Y-29868809D01*
X33869261Y-29916428D01*
X34059738Y-29916428D01*
X34154976Y-29868809D01*
X34202595Y-29821190D01*
X34250214Y-29725952D01*
%TO.C,J3*%
X60166666Y-21452380D02*
X60166666Y-22166666D01*
X60119047Y-22309523D01*
X60023809Y-22404761D01*
X59880952Y-22452380D01*
X59785714Y-22452380D01*
X60547619Y-21452380D02*
X61166666Y-21452380D01*
X60833333Y-21833333D01*
X60976190Y-21833333D01*
X61071428Y-21880952D01*
X61119047Y-21928571D01*
X61166666Y-22023809D01*
X61166666Y-22261904D01*
X61119047Y-22357142D01*
X61071428Y-22404761D01*
X60976190Y-22452380D01*
X60690476Y-22452380D01*
X60595238Y-22404761D01*
X60547619Y-22357142D01*
%TO.C,J9*%
X92851666Y-27273380D02*
X92851666Y-27987666D01*
X92804047Y-28130523D01*
X92708809Y-28225761D01*
X92565952Y-28273380D01*
X92470714Y-28273380D01*
X93375476Y-28273380D02*
X93565952Y-28273380D01*
X93661190Y-28225761D01*
X93708809Y-28178142D01*
X93804047Y-28035285D01*
X93851666Y-27844809D01*
X93851666Y-27463857D01*
X93804047Y-27368619D01*
X93756428Y-27321000D01*
X93661190Y-27273380D01*
X93470714Y-27273380D01*
X93375476Y-27321000D01*
X93327857Y-27368619D01*
X93280238Y-27463857D01*
X93280238Y-27701952D01*
X93327857Y-27797190D01*
X93375476Y-27844809D01*
X93470714Y-27892428D01*
X93661190Y-27892428D01*
X93756428Y-27844809D01*
X93804047Y-27797190D01*
X93851666Y-27701952D01*
%TD*%
M02*
