%TF.GenerationSoftware,KiCad,Pcbnew,(5.1.9)-1*%
%TF.CreationDate,2021-05-23T18:55:04+01:00*%
%TF.ProjectId,ControlBoard,436f6e74-726f-46c4-926f-6172642e6b69,rev?*%
%TF.SameCoordinates,Original*%
%TF.FileFunction,Soldermask,Top*%
%TF.FilePolarity,Negative*%
%FSLAX46Y46*%
G04 Gerber Fmt 4.6, Leading zero omitted, Abs format (unit mm)*
G04 Created by KiCad (PCBNEW (5.1.9)-1) date 2021-05-23 18:55:04*
%MOMM*%
%LPD*%
G01*
G04 APERTURE LIST*
%ADD10R,1.700000X1.700000*%
%ADD11O,1.700000X1.700000*%
%ADD12O,1.700000X1.950000*%
%ADD13C,3.200000*%
%ADD14R,0.250000X1.300000*%
%ADD15R,1.300000X0.250000*%
%ADD16R,2.000000X1.100000*%
%ADD17R,1.600000X1.600000*%
%ADD18C,1.600000*%
%ADD19R,2.000000X2.000000*%
%ADD20C,2.000000*%
%ADD21R,1.500000X2.000000*%
%ADD22C,1.500000*%
%ADD23R,0.800000X0.900000*%
%ADD24R,2.290000X3.000000*%
%ADD25R,0.900000X0.800000*%
G04 APERTURE END LIST*
%TO.C,C5*%
G36*
G01*
X110475000Y-25550000D02*
X109525000Y-25550000D01*
G75*
G02*
X109275000Y-25300000I0J250000D01*
G01*
X109275000Y-24800000D01*
G75*
G02*
X109525000Y-24550000I250000J0D01*
G01*
X110475000Y-24550000D01*
G75*
G02*
X110725000Y-24800000I0J-250000D01*
G01*
X110725000Y-25300000D01*
G75*
G02*
X110475000Y-25550000I-250000J0D01*
G01*
G37*
G36*
G01*
X110475000Y-27450000D02*
X109525000Y-27450000D01*
G75*
G02*
X109275000Y-27200000I0J250000D01*
G01*
X109275000Y-26700000D01*
G75*
G02*
X109525000Y-26450000I250000J0D01*
G01*
X110475000Y-26450000D01*
G75*
G02*
X110725000Y-26700000I0J-250000D01*
G01*
X110725000Y-27200000D01*
G75*
G02*
X110475000Y-27450000I-250000J0D01*
G01*
G37*
%TD*%
%TO.C,J4*%
G36*
G01*
X103400000Y-33000000D02*
X103400000Y-35500000D01*
G75*
G02*
X103150000Y-35750000I-250000J0D01*
G01*
X102050000Y-35750000D01*
G75*
G02*
X101800000Y-35500000I0J250000D01*
G01*
X101800000Y-33000000D01*
G75*
G02*
X102050000Y-32750000I250000J0D01*
G01*
X103150000Y-32750000D01*
G75*
G02*
X103400000Y-33000000I0J-250000D01*
G01*
G37*
G36*
G01*
X114200000Y-33000000D02*
X114200000Y-35500000D01*
G75*
G02*
X113950000Y-35750000I-250000J0D01*
G01*
X112850000Y-35750000D01*
G75*
G02*
X112600000Y-35500000I0J250000D01*
G01*
X112600000Y-33000000D01*
G75*
G02*
X112850000Y-32750000I250000J0D01*
G01*
X113950000Y-32750000D01*
G75*
G02*
X114200000Y-33000000I0J-250000D01*
G01*
G37*
G36*
G01*
X105500000Y-29500000D02*
X105500000Y-34500000D01*
G75*
G02*
X105250000Y-34750000I-250000J0D01*
G01*
X104750000Y-34750000D01*
G75*
G02*
X104500000Y-34500000I0J250000D01*
G01*
X104500000Y-29500000D01*
G75*
G02*
X104750000Y-29250000I250000J0D01*
G01*
X105250000Y-29250000D01*
G75*
G02*
X105500000Y-29500000I0J-250000D01*
G01*
G37*
G36*
G01*
X107500000Y-29500000D02*
X107500000Y-34500000D01*
G75*
G02*
X107250000Y-34750000I-250000J0D01*
G01*
X106750000Y-34750000D01*
G75*
G02*
X106500000Y-34500000I0J250000D01*
G01*
X106500000Y-29500000D01*
G75*
G02*
X106750000Y-29250000I250000J0D01*
G01*
X107250000Y-29250000D01*
G75*
G02*
X107500000Y-29500000I0J-250000D01*
G01*
G37*
G36*
G01*
X109500000Y-29500000D02*
X109500000Y-34500000D01*
G75*
G02*
X109250000Y-34750000I-250000J0D01*
G01*
X108750000Y-34750000D01*
G75*
G02*
X108500000Y-34500000I0J250000D01*
G01*
X108500000Y-29500000D01*
G75*
G02*
X108750000Y-29250000I250000J0D01*
G01*
X109250000Y-29250000D01*
G75*
G02*
X109500000Y-29500000I0J-250000D01*
G01*
G37*
G36*
G01*
X111500000Y-29500000D02*
X111500000Y-34500000D01*
G75*
G02*
X111250000Y-34750000I-250000J0D01*
G01*
X110750000Y-34750000D01*
G75*
G02*
X110500000Y-34500000I0J250000D01*
G01*
X110500000Y-29500000D01*
G75*
G02*
X110750000Y-29250000I250000J0D01*
G01*
X111250000Y-29250000D01*
G75*
G02*
X111500000Y-29500000I0J-250000D01*
G01*
G37*
%TD*%
D10*
%TO.C,J5*%
X31110000Y-60270000D03*
D11*
X31110000Y-57730000D03*
X33650000Y-60270000D03*
X33650000Y-57730000D03*
X36190000Y-60270000D03*
X36190000Y-57730000D03*
X38730000Y-60270000D03*
X38730000Y-57730000D03*
X41270000Y-60270000D03*
X41270000Y-57730000D03*
X43810000Y-60270000D03*
X43810000Y-57730000D03*
X46350000Y-60270000D03*
X46350000Y-57730000D03*
X48890000Y-60270000D03*
X48890000Y-57730000D03*
%TD*%
D10*
%TO.C,J6*%
X61110000Y-60270000D03*
D11*
X61110000Y-57730000D03*
X63650000Y-60270000D03*
X63650000Y-57730000D03*
X66190000Y-60270000D03*
X66190000Y-57730000D03*
X68730000Y-60270000D03*
X68730000Y-57730000D03*
X71270000Y-60270000D03*
X71270000Y-57730000D03*
X73810000Y-60270000D03*
X73810000Y-57730000D03*
X76350000Y-60270000D03*
X76350000Y-57730000D03*
X78890000Y-60270000D03*
X78890000Y-57730000D03*
%TD*%
D10*
%TO.C,J7*%
X91110000Y-60270000D03*
D11*
X91110000Y-57730000D03*
X93650000Y-60270000D03*
X93650000Y-57730000D03*
X96190000Y-60270000D03*
X96190000Y-57730000D03*
X98730000Y-60270000D03*
X98730000Y-57730000D03*
X101270000Y-60270000D03*
X101270000Y-57730000D03*
X103810000Y-60270000D03*
X103810000Y-57730000D03*
X106350000Y-60270000D03*
X106350000Y-57730000D03*
X108890000Y-60270000D03*
X108890000Y-57730000D03*
%TD*%
%TO.C,J8*%
G36*
G01*
X48900000Y-31975000D02*
X48900000Y-30525000D01*
G75*
G02*
X49150000Y-30275000I250000J0D01*
G01*
X50350000Y-30275000D01*
G75*
G02*
X50600000Y-30525000I0J-250000D01*
G01*
X50600000Y-31975000D01*
G75*
G02*
X50350000Y-32225000I-250000J0D01*
G01*
X49150000Y-32225000D01*
G75*
G02*
X48900000Y-31975000I0J250000D01*
G01*
G37*
D12*
X52250000Y-31250000D03*
X54750000Y-31250000D03*
X57250000Y-31250000D03*
X59750000Y-31250000D03*
X62250000Y-31250000D03*
X64750000Y-31250000D03*
X67250000Y-31250000D03*
%TD*%
D13*
%TO.C,REF\u002A\u002A*%
X40000000Y-99000000D03*
%TD*%
%TO.C,REF\u002A\u002A*%
X40000000Y-79000000D03*
%TD*%
%TO.C,REF\u002A\u002A*%
X40000000Y-109000000D03*
%TD*%
%TO.C,REF\u002A\u002A*%
X40000000Y-69000000D03*
%TD*%
%TO.C,REF\u002A\u002A*%
X40000000Y-89000000D03*
%TD*%
%TO.C,REF\u002A\u002A*%
X100000000Y-89000000D03*
%TD*%
%TO.C,REF\u002A\u002A*%
X100000000Y-109000000D03*
%TD*%
%TO.C,REF\u002A\u002A*%
X100000000Y-99000000D03*
%TD*%
%TO.C,REF\u002A\u002A*%
X100000000Y-69000000D03*
%TD*%
%TO.C,REF\u002A\u002A*%
X100000000Y-79000000D03*
%TD*%
%TO.C,REF\u002A\u002A*%
X70000000Y-109000000D03*
%TD*%
%TO.C,REF\u002A\u002A*%
X70000000Y-99000000D03*
%TD*%
%TO.C,REF\u002A\u002A*%
X70000000Y-89000000D03*
%TD*%
%TO.C,REF\u002A\u002A*%
X70000000Y-79000000D03*
%TD*%
%TO.C,REF\u002A\u002A*%
X70000000Y-69000000D03*
%TD*%
D14*
%TO.C,U2*%
X72750000Y-40650000D03*
X72250000Y-40650000D03*
X71750000Y-40650000D03*
X71250000Y-40650000D03*
X70750000Y-40650000D03*
X70250000Y-40650000D03*
X69750000Y-40650000D03*
X69250000Y-40650000D03*
X68750000Y-40650000D03*
X68250000Y-40650000D03*
X67750000Y-40650000D03*
X67250000Y-40650000D03*
D15*
X65650000Y-42250000D03*
X65650000Y-42750000D03*
X65650000Y-43250000D03*
X65650000Y-43750000D03*
X65650000Y-44250000D03*
X65650000Y-44750000D03*
X65650000Y-45250000D03*
X65650000Y-45750000D03*
X65650000Y-46250000D03*
X65650000Y-46750000D03*
X65650000Y-47250000D03*
X65650000Y-47750000D03*
D14*
X67250000Y-49350000D03*
X67750000Y-49350000D03*
X68250000Y-49350000D03*
X68750000Y-49350000D03*
X69250000Y-49350000D03*
X69750000Y-49350000D03*
X70250000Y-49350000D03*
X70750000Y-49350000D03*
X71250000Y-49350000D03*
X71750000Y-49350000D03*
X72250000Y-49350000D03*
X72750000Y-49350000D03*
D15*
X74350000Y-47750000D03*
X74350000Y-47250000D03*
X74350000Y-46750000D03*
X74350000Y-46250000D03*
X74350000Y-45750000D03*
X74350000Y-45250000D03*
X74350000Y-44750000D03*
X74350000Y-44250000D03*
X74350000Y-43750000D03*
X74350000Y-43250000D03*
X74350000Y-42750000D03*
X74350000Y-42250000D03*
%TD*%
D16*
%TO.C,D1*%
X107400000Y-23300000D03*
X107400000Y-25000000D03*
X107400000Y-26700000D03*
X102600000Y-26700000D03*
X102600000Y-25000000D03*
X102600000Y-23300000D03*
%TD*%
D13*
%TO.C,REF\u002A\u002A*%
X115000000Y-25000000D03*
%TD*%
%TO.C,C3*%
G36*
G01*
X67100000Y-52475000D02*
X67100000Y-51525000D01*
G75*
G02*
X67350000Y-51275000I250000J0D01*
G01*
X67850000Y-51275000D01*
G75*
G02*
X68100000Y-51525000I0J-250000D01*
G01*
X68100000Y-52475000D01*
G75*
G02*
X67850000Y-52725000I-250000J0D01*
G01*
X67350000Y-52725000D01*
G75*
G02*
X67100000Y-52475000I0J250000D01*
G01*
G37*
G36*
G01*
X69000000Y-52475000D02*
X69000000Y-51525000D01*
G75*
G02*
X69250000Y-51275000I250000J0D01*
G01*
X69750000Y-51275000D01*
G75*
G02*
X70000000Y-51525000I0J-250000D01*
G01*
X70000000Y-52475000D01*
G75*
G02*
X69750000Y-52725000I-250000J0D01*
G01*
X69250000Y-52725000D01*
G75*
G02*
X69000000Y-52475000I0J250000D01*
G01*
G37*
%TD*%
%TO.C,REF\u002A\u002A*%
X115000000Y-115000000D03*
%TD*%
%TO.C,REF\u002A\u002A*%
X25000000Y-25000000D03*
%TD*%
D17*
%TO.C,C2*%
X50038000Y-26122000D03*
D18*
X50038000Y-23622000D03*
%TD*%
D13*
%TO.C,REF\u002A\u002A*%
X25000000Y-115000000D03*
%TD*%
D19*
%TO.C,BZ1*%
X43334500Y-47307500D03*
D20*
X38834500Y-47307500D03*
%TD*%
%TO.C,C4*%
G36*
G01*
X71189000Y-37432000D02*
X71189000Y-36482000D01*
G75*
G02*
X71439000Y-36232000I250000J0D01*
G01*
X71939000Y-36232000D01*
G75*
G02*
X72189000Y-36482000I0J-250000D01*
G01*
X72189000Y-37432000D01*
G75*
G02*
X71939000Y-37682000I-250000J0D01*
G01*
X71439000Y-37682000D01*
G75*
G02*
X71189000Y-37432000I0J250000D01*
G01*
G37*
G36*
G01*
X69289000Y-37432000D02*
X69289000Y-36482000D01*
G75*
G02*
X69539000Y-36232000I250000J0D01*
G01*
X70039000Y-36232000D01*
G75*
G02*
X70289000Y-36482000I0J-250000D01*
G01*
X70289000Y-37432000D01*
G75*
G02*
X70039000Y-37682000I-250000J0D01*
G01*
X69539000Y-37682000D01*
G75*
G02*
X69289000Y-37432000I0J250000D01*
G01*
G37*
%TD*%
%TO.C,C1*%
G36*
G01*
X45245000Y-37346000D02*
X46195000Y-37346000D01*
G75*
G02*
X46445000Y-37596000I0J-250000D01*
G01*
X46445000Y-38096000D01*
G75*
G02*
X46195000Y-38346000I-250000J0D01*
G01*
X45245000Y-38346000D01*
G75*
G02*
X44995000Y-38096000I0J250000D01*
G01*
X44995000Y-37596000D01*
G75*
G02*
X45245000Y-37346000I250000J0D01*
G01*
G37*
G36*
G01*
X45245000Y-35446000D02*
X46195000Y-35446000D01*
G75*
G02*
X46445000Y-35696000I0J-250000D01*
G01*
X46445000Y-36196000D01*
G75*
G02*
X46195000Y-36446000I-250000J0D01*
G01*
X45245000Y-36446000D01*
G75*
G02*
X44995000Y-36196000I0J250000D01*
G01*
X44995000Y-35696000D01*
G75*
G02*
X45245000Y-35446000I250000J0D01*
G01*
G37*
%TD*%
%TO.C,C6*%
G36*
G01*
X55786000Y-24050000D02*
X56736000Y-24050000D01*
G75*
G02*
X56986000Y-24300000I0J-250000D01*
G01*
X56986000Y-24800000D01*
G75*
G02*
X56736000Y-25050000I-250000J0D01*
G01*
X55786000Y-25050000D01*
G75*
G02*
X55536000Y-24800000I0J250000D01*
G01*
X55536000Y-24300000D01*
G75*
G02*
X55786000Y-24050000I250000J0D01*
G01*
G37*
G36*
G01*
X55786000Y-25950000D02*
X56736000Y-25950000D01*
G75*
G02*
X56986000Y-26200000I0J-250000D01*
G01*
X56986000Y-26700000D01*
G75*
G02*
X56736000Y-26950000I-250000J0D01*
G01*
X55786000Y-26950000D01*
G75*
G02*
X55536000Y-26700000I0J250000D01*
G01*
X55536000Y-26200000D01*
G75*
G02*
X55786000Y-25950000I250000J0D01*
G01*
G37*
%TD*%
%TO.C,R1*%
G36*
G01*
X33420000Y-110178001D02*
X33420000Y-109277999D01*
G75*
G02*
X33669999Y-109028000I249999J0D01*
G01*
X34195001Y-109028000D01*
G75*
G02*
X34445000Y-109277999I0J-249999D01*
G01*
X34445000Y-110178001D01*
G75*
G02*
X34195001Y-110428000I-249999J0D01*
G01*
X33669999Y-110428000D01*
G75*
G02*
X33420000Y-110178001I0J249999D01*
G01*
G37*
G36*
G01*
X31595000Y-110178001D02*
X31595000Y-109277999D01*
G75*
G02*
X31844999Y-109028000I249999J0D01*
G01*
X32370001Y-109028000D01*
G75*
G02*
X32620000Y-109277999I0J-249999D01*
G01*
X32620000Y-110178001D01*
G75*
G02*
X32370001Y-110428000I-249999J0D01*
G01*
X31844999Y-110428000D01*
G75*
G02*
X31595000Y-110178001I0J249999D01*
G01*
G37*
%TD*%
%TO.C,R2*%
G36*
G01*
X38857500Y-41090001D02*
X38857500Y-40189999D01*
G75*
G02*
X39107499Y-39940000I249999J0D01*
G01*
X39632501Y-39940000D01*
G75*
G02*
X39882500Y-40189999I0J-249999D01*
G01*
X39882500Y-41090001D01*
G75*
G02*
X39632501Y-41340000I-249999J0D01*
G01*
X39107499Y-41340000D01*
G75*
G02*
X38857500Y-41090001I0J249999D01*
G01*
G37*
G36*
G01*
X37032500Y-41090001D02*
X37032500Y-40189999D01*
G75*
G02*
X37282499Y-39940000I249999J0D01*
G01*
X37807501Y-39940000D01*
G75*
G02*
X38057500Y-40189999I0J-249999D01*
G01*
X38057500Y-41090001D01*
G75*
G02*
X37807501Y-41340000I-249999J0D01*
G01*
X37282499Y-41340000D01*
G75*
G02*
X37032500Y-41090001I0J249999D01*
G01*
G37*
%TD*%
D21*
%TO.C,J1*%
X32150000Y-106624000D03*
X26650000Y-106624000D03*
X23250000Y-106624000D03*
X32650000Y-99624000D03*
X30450000Y-99624000D03*
D22*
X23650000Y-103124000D03*
X30650000Y-103124000D03*
D21*
X23250000Y-99624000D03*
%TD*%
%TO.C,R3*%
G36*
G01*
X31595000Y-43630001D02*
X31595000Y-42729999D01*
G75*
G02*
X31844999Y-42480000I249999J0D01*
G01*
X32370001Y-42480000D01*
G75*
G02*
X32620000Y-42729999I0J-249999D01*
G01*
X32620000Y-43630001D01*
G75*
G02*
X32370001Y-43880000I-249999J0D01*
G01*
X31844999Y-43880000D01*
G75*
G02*
X31595000Y-43630001I0J249999D01*
G01*
G37*
G36*
G01*
X33420000Y-43630001D02*
X33420000Y-42729999D01*
G75*
G02*
X33669999Y-42480000I249999J0D01*
G01*
X34195001Y-42480000D01*
G75*
G02*
X34445000Y-42729999I0J-249999D01*
G01*
X34445000Y-43630001D01*
G75*
G02*
X34195001Y-43880000I-249999J0D01*
G01*
X33669999Y-43880000D01*
G75*
G02*
X33420000Y-43630001I0J249999D01*
G01*
G37*
%TD*%
%TO.C,R4*%
G36*
G01*
X58950001Y-26925000D02*
X58049999Y-26925000D01*
G75*
G02*
X57800000Y-26675001I0J249999D01*
G01*
X57800000Y-26149999D01*
G75*
G02*
X58049999Y-25900000I249999J0D01*
G01*
X58950001Y-25900000D01*
G75*
G02*
X59200000Y-26149999I0J-249999D01*
G01*
X59200000Y-26675001D01*
G75*
G02*
X58950001Y-26925000I-249999J0D01*
G01*
G37*
G36*
G01*
X58950001Y-25100000D02*
X58049999Y-25100000D01*
G75*
G02*
X57800000Y-24850001I0J249999D01*
G01*
X57800000Y-24324999D01*
G75*
G02*
X58049999Y-24075000I249999J0D01*
G01*
X58950001Y-24075000D01*
G75*
G02*
X59200000Y-24324999I0J-249999D01*
G01*
X59200000Y-24850001D01*
G75*
G02*
X58950001Y-25100000I-249999J0D01*
G01*
G37*
%TD*%
D10*
%TO.C,J11*%
X75819000Y-24511000D03*
D11*
X78359000Y-24511000D03*
X80899000Y-24511000D03*
%TD*%
D23*
%TO.C,Q1*%
X97700000Y-30750000D03*
X95800000Y-30750000D03*
X96750000Y-32750000D03*
%TD*%
%TO.C,C7*%
G36*
G01*
X87200000Y-26275000D02*
X87200000Y-27225000D01*
G75*
G02*
X86950000Y-27475000I-250000J0D01*
G01*
X86450000Y-27475000D01*
G75*
G02*
X86200000Y-27225000I0J250000D01*
G01*
X86200000Y-26275000D01*
G75*
G02*
X86450000Y-26025000I250000J0D01*
G01*
X86950000Y-26025000D01*
G75*
G02*
X87200000Y-26275000I0J-250000D01*
G01*
G37*
G36*
G01*
X85300000Y-26275000D02*
X85300000Y-27225000D01*
G75*
G02*
X85050000Y-27475000I-250000J0D01*
G01*
X84550000Y-27475000D01*
G75*
G02*
X84300000Y-27225000I0J250000D01*
G01*
X84300000Y-26275000D01*
G75*
G02*
X84550000Y-26025000I250000J0D01*
G01*
X85050000Y-26025000D01*
G75*
G02*
X85300000Y-26275000I0J-250000D01*
G01*
G37*
%TD*%
D21*
%TO.C,J2*%
X23240000Y-33076000D03*
D22*
X30640000Y-36576000D03*
X23640000Y-36576000D03*
D21*
X30440000Y-33076000D03*
X32640000Y-33076000D03*
X23240000Y-40076000D03*
X26640000Y-40076000D03*
X32140000Y-40076000D03*
%TD*%
D23*
%TO.C,D3*%
X30160000Y-109490000D03*
X28260000Y-109490000D03*
X29210000Y-111490000D03*
%TD*%
%TO.C,R10*%
G36*
G01*
X30930001Y-28302000D02*
X30029999Y-28302000D01*
G75*
G02*
X29780000Y-28052001I0J249999D01*
G01*
X29780000Y-27526999D01*
G75*
G02*
X30029999Y-27277000I249999J0D01*
G01*
X30930001Y-27277000D01*
G75*
G02*
X31180000Y-27526999I0J-249999D01*
G01*
X31180000Y-28052001D01*
G75*
G02*
X30930001Y-28302000I-249999J0D01*
G01*
G37*
G36*
G01*
X30930001Y-30127000D02*
X30029999Y-30127000D01*
G75*
G02*
X29780000Y-29877001I0J249999D01*
G01*
X29780000Y-29351999D01*
G75*
G02*
X30029999Y-29102000I249999J0D01*
G01*
X30930001Y-29102000D01*
G75*
G02*
X31180000Y-29351999I0J-249999D01*
G01*
X31180000Y-29877001D01*
G75*
G02*
X30930001Y-30127000I-249999J0D01*
G01*
G37*
%TD*%
%TO.C,U1*%
G36*
G01*
X43582000Y-38331000D02*
X43582000Y-38631000D01*
G75*
G02*
X43432000Y-38781000I-150000J0D01*
G01*
X41782000Y-38781000D01*
G75*
G02*
X41632000Y-38631000I0J150000D01*
G01*
X41632000Y-38331000D01*
G75*
G02*
X41782000Y-38181000I150000J0D01*
G01*
X43432000Y-38181000D01*
G75*
G02*
X43582000Y-38331000I0J-150000D01*
G01*
G37*
G36*
G01*
X43582000Y-37061000D02*
X43582000Y-37361000D01*
G75*
G02*
X43432000Y-37511000I-150000J0D01*
G01*
X41782000Y-37511000D01*
G75*
G02*
X41632000Y-37361000I0J150000D01*
G01*
X41632000Y-37061000D01*
G75*
G02*
X41782000Y-36911000I150000J0D01*
G01*
X43432000Y-36911000D01*
G75*
G02*
X43582000Y-37061000I0J-150000D01*
G01*
G37*
G36*
G01*
X43582000Y-35791000D02*
X43582000Y-36091000D01*
G75*
G02*
X43432000Y-36241000I-150000J0D01*
G01*
X41782000Y-36241000D01*
G75*
G02*
X41632000Y-36091000I0J150000D01*
G01*
X41632000Y-35791000D01*
G75*
G02*
X41782000Y-35641000I150000J0D01*
G01*
X43432000Y-35641000D01*
G75*
G02*
X43582000Y-35791000I0J-150000D01*
G01*
G37*
G36*
G01*
X43582000Y-34521000D02*
X43582000Y-34821000D01*
G75*
G02*
X43432000Y-34971000I-150000J0D01*
G01*
X41782000Y-34971000D01*
G75*
G02*
X41632000Y-34821000I0J150000D01*
G01*
X41632000Y-34521000D01*
G75*
G02*
X41782000Y-34371000I150000J0D01*
G01*
X43432000Y-34371000D01*
G75*
G02*
X43582000Y-34521000I0J-150000D01*
G01*
G37*
G36*
G01*
X38632000Y-34521000D02*
X38632000Y-34821000D01*
G75*
G02*
X38482000Y-34971000I-150000J0D01*
G01*
X36832000Y-34971000D01*
G75*
G02*
X36682000Y-34821000I0J150000D01*
G01*
X36682000Y-34521000D01*
G75*
G02*
X36832000Y-34371000I150000J0D01*
G01*
X38482000Y-34371000D01*
G75*
G02*
X38632000Y-34521000I0J-150000D01*
G01*
G37*
G36*
G01*
X38632000Y-35791000D02*
X38632000Y-36091000D01*
G75*
G02*
X38482000Y-36241000I-150000J0D01*
G01*
X36832000Y-36241000D01*
G75*
G02*
X36682000Y-36091000I0J150000D01*
G01*
X36682000Y-35791000D01*
G75*
G02*
X36832000Y-35641000I150000J0D01*
G01*
X38482000Y-35641000D01*
G75*
G02*
X38632000Y-35791000I0J-150000D01*
G01*
G37*
G36*
G01*
X38632000Y-37061000D02*
X38632000Y-37361000D01*
G75*
G02*
X38482000Y-37511000I-150000J0D01*
G01*
X36832000Y-37511000D01*
G75*
G02*
X36682000Y-37361000I0J150000D01*
G01*
X36682000Y-37061000D01*
G75*
G02*
X36832000Y-36911000I150000J0D01*
G01*
X38482000Y-36911000D01*
G75*
G02*
X38632000Y-37061000I0J-150000D01*
G01*
G37*
G36*
G01*
X38632000Y-38331000D02*
X38632000Y-38631000D01*
G75*
G02*
X38482000Y-38781000I-150000J0D01*
G01*
X36832000Y-38781000D01*
G75*
G02*
X36682000Y-38631000I0J150000D01*
G01*
X36682000Y-38331000D01*
G75*
G02*
X36832000Y-38181000I150000J0D01*
G01*
X38482000Y-38181000D01*
G75*
G02*
X38632000Y-38331000I0J-150000D01*
G01*
G37*
%TD*%
%TO.C,R6*%
G36*
G01*
X47049999Y-46778500D02*
X47950001Y-46778500D01*
G75*
G02*
X48200000Y-47028499I0J-249999D01*
G01*
X48200000Y-47553501D01*
G75*
G02*
X47950001Y-47803500I-249999J0D01*
G01*
X47049999Y-47803500D01*
G75*
G02*
X46800000Y-47553501I0J249999D01*
G01*
X46800000Y-47028499D01*
G75*
G02*
X47049999Y-46778500I249999J0D01*
G01*
G37*
G36*
G01*
X47049999Y-44953500D02*
X47950001Y-44953500D01*
G75*
G02*
X48200000Y-45203499I0J-249999D01*
G01*
X48200000Y-45728501D01*
G75*
G02*
X47950001Y-45978500I-249999J0D01*
G01*
X47049999Y-45978500D01*
G75*
G02*
X46800000Y-45728501I0J249999D01*
G01*
X46800000Y-45203499D01*
G75*
G02*
X47049999Y-44953500I249999J0D01*
G01*
G37*
%TD*%
%TO.C,R5*%
G36*
G01*
X85350000Y-24049999D02*
X85350000Y-24950001D01*
G75*
G02*
X85100001Y-25200000I-249999J0D01*
G01*
X84574999Y-25200000D01*
G75*
G02*
X84325000Y-24950001I0J249999D01*
G01*
X84325000Y-24049999D01*
G75*
G02*
X84574999Y-23800000I249999J0D01*
G01*
X85100001Y-23800000D01*
G75*
G02*
X85350000Y-24049999I0J-249999D01*
G01*
G37*
G36*
G01*
X87175000Y-24049999D02*
X87175000Y-24950001D01*
G75*
G02*
X86925001Y-25200000I-249999J0D01*
G01*
X86399999Y-25200000D01*
G75*
G02*
X86150000Y-24950001I0J249999D01*
G01*
X86150000Y-24049999D01*
G75*
G02*
X86399999Y-23800000I249999J0D01*
G01*
X86925001Y-23800000D01*
G75*
G02*
X87175000Y-24049999I0J-249999D01*
G01*
G37*
%TD*%
%TO.C,R7*%
G36*
G01*
X98175000Y-28299999D02*
X98175000Y-29200001D01*
G75*
G02*
X97925001Y-29450000I-249999J0D01*
G01*
X97399999Y-29450000D01*
G75*
G02*
X97150000Y-29200001I0J249999D01*
G01*
X97150000Y-28299999D01*
G75*
G02*
X97399999Y-28050000I249999J0D01*
G01*
X97925001Y-28050000D01*
G75*
G02*
X98175000Y-28299999I0J-249999D01*
G01*
G37*
G36*
G01*
X96350000Y-28299999D02*
X96350000Y-29200001D01*
G75*
G02*
X96100001Y-29450000I-249999J0D01*
G01*
X95574999Y-29450000D01*
G75*
G02*
X95325000Y-29200001I0J249999D01*
G01*
X95325000Y-28299999D01*
G75*
G02*
X95574999Y-28050000I249999J0D01*
G01*
X96100001Y-28050000D01*
G75*
G02*
X96350000Y-28299999I0J-249999D01*
G01*
G37*
%TD*%
%TO.C,R8*%
G36*
G01*
X96350000Y-26049999D02*
X96350000Y-26950001D01*
G75*
G02*
X96100001Y-27200000I-249999J0D01*
G01*
X95574999Y-27200000D01*
G75*
G02*
X95325000Y-26950001I0J249999D01*
G01*
X95325000Y-26049999D01*
G75*
G02*
X95574999Y-25800000I249999J0D01*
G01*
X96100001Y-25800000D01*
G75*
G02*
X96350000Y-26049999I0J-249999D01*
G01*
G37*
G36*
G01*
X98175000Y-26049999D02*
X98175000Y-26950001D01*
G75*
G02*
X97925001Y-27200000I-249999J0D01*
G01*
X97399999Y-27200000D01*
G75*
G02*
X97150000Y-26950001I0J249999D01*
G01*
X97150000Y-26049999D01*
G75*
G02*
X97399999Y-25800000I249999J0D01*
G01*
X97925001Y-25800000D01*
G75*
G02*
X98175000Y-26049999I0J-249999D01*
G01*
G37*
%TD*%
%TO.C,C8*%
G36*
G01*
X33495000Y-26088000D02*
X32545000Y-26088000D01*
G75*
G02*
X32295000Y-25838000I0J250000D01*
G01*
X32295000Y-25338000D01*
G75*
G02*
X32545000Y-25088000I250000J0D01*
G01*
X33495000Y-25088000D01*
G75*
G02*
X33745000Y-25338000I0J-250000D01*
G01*
X33745000Y-25838000D01*
G75*
G02*
X33495000Y-26088000I-250000J0D01*
G01*
G37*
G36*
G01*
X33495000Y-24188000D02*
X32545000Y-24188000D01*
G75*
G02*
X32295000Y-23938000I0J250000D01*
G01*
X32295000Y-23438000D01*
G75*
G02*
X32545000Y-23188000I250000J0D01*
G01*
X33495000Y-23188000D01*
G75*
G02*
X33745000Y-23438000I0J-250000D01*
G01*
X33745000Y-23938000D01*
G75*
G02*
X33495000Y-24188000I-250000J0D01*
G01*
G37*
%TD*%
%TO.C,D2*%
G36*
G01*
X38961000Y-32460250D02*
X38961000Y-31547750D01*
G75*
G02*
X39204750Y-31304000I243750J0D01*
G01*
X39692250Y-31304000D01*
G75*
G02*
X39936000Y-31547750I0J-243750D01*
G01*
X39936000Y-32460250D01*
G75*
G02*
X39692250Y-32704000I-243750J0D01*
G01*
X39204750Y-32704000D01*
G75*
G02*
X38961000Y-32460250I0J243750D01*
G01*
G37*
G36*
G01*
X40836000Y-32460250D02*
X40836000Y-31547750D01*
G75*
G02*
X41079750Y-31304000I243750J0D01*
G01*
X41567250Y-31304000D01*
G75*
G02*
X41811000Y-31547750I0J-243750D01*
G01*
X41811000Y-32460250D01*
G75*
G02*
X41567250Y-32704000I-243750J0D01*
G01*
X41079750Y-32704000D01*
G75*
G02*
X40836000Y-32460250I0J243750D01*
G01*
G37*
%TD*%
%TO.C,R9*%
G36*
G01*
X34920500Y-32454001D02*
X34920500Y-31553999D01*
G75*
G02*
X35170499Y-31304000I249999J0D01*
G01*
X35695501Y-31304000D01*
G75*
G02*
X35945500Y-31553999I0J-249999D01*
G01*
X35945500Y-32454001D01*
G75*
G02*
X35695501Y-32704000I-249999J0D01*
G01*
X35170499Y-32704000D01*
G75*
G02*
X34920500Y-32454001I0J249999D01*
G01*
G37*
G36*
G01*
X36745500Y-32454001D02*
X36745500Y-31553999D01*
G75*
G02*
X36995499Y-31304000I249999J0D01*
G01*
X37520501Y-31304000D01*
G75*
G02*
X37770500Y-31553999I0J-249999D01*
G01*
X37770500Y-32454001D01*
G75*
G02*
X37520501Y-32704000I-249999J0D01*
G01*
X36995499Y-32704000D01*
G75*
G02*
X36745500Y-32454001I0J249999D01*
G01*
G37*
%TD*%
%TO.C,R11*%
G36*
G01*
X30930001Y-26063000D02*
X30029999Y-26063000D01*
G75*
G02*
X29780000Y-25813001I0J249999D01*
G01*
X29780000Y-25287999D01*
G75*
G02*
X30029999Y-25038000I249999J0D01*
G01*
X30930001Y-25038000D01*
G75*
G02*
X31180000Y-25287999I0J-249999D01*
G01*
X31180000Y-25813001D01*
G75*
G02*
X30930001Y-26063000I-249999J0D01*
G01*
G37*
G36*
G01*
X30930001Y-24238000D02*
X30029999Y-24238000D01*
G75*
G02*
X29780000Y-23988001I0J249999D01*
G01*
X29780000Y-23462999D01*
G75*
G02*
X30029999Y-23213000I249999J0D01*
G01*
X30930001Y-23213000D01*
G75*
G02*
X31180000Y-23462999I0J-249999D01*
G01*
X31180000Y-23988001D01*
G75*
G02*
X30930001Y-24238000I-249999J0D01*
G01*
G37*
%TD*%
%TO.C,R12*%
G36*
G01*
X44850000Y-24326001D02*
X44850000Y-23425999D01*
G75*
G02*
X45099999Y-23176000I249999J0D01*
G01*
X45625001Y-23176000D01*
G75*
G02*
X45875000Y-23425999I0J-249999D01*
G01*
X45875000Y-24326001D01*
G75*
G02*
X45625001Y-24576000I-249999J0D01*
G01*
X45099999Y-24576000D01*
G75*
G02*
X44850000Y-24326001I0J249999D01*
G01*
G37*
G36*
G01*
X43025000Y-24326001D02*
X43025000Y-23425999D01*
G75*
G02*
X43274999Y-23176000I249999J0D01*
G01*
X43800001Y-23176000D01*
G75*
G02*
X44050000Y-23425999I0J-249999D01*
G01*
X44050000Y-24326001D01*
G75*
G02*
X43800001Y-24576000I-249999J0D01*
G01*
X43274999Y-24576000D01*
G75*
G02*
X43025000Y-24326001I0J249999D01*
G01*
G37*
%TD*%
%TO.C,R13*%
G36*
G01*
X43025000Y-26866001D02*
X43025000Y-25965999D01*
G75*
G02*
X43274999Y-25716000I249999J0D01*
G01*
X43800001Y-25716000D01*
G75*
G02*
X44050000Y-25965999I0J-249999D01*
G01*
X44050000Y-26866001D01*
G75*
G02*
X43800001Y-27116000I-249999J0D01*
G01*
X43274999Y-27116000D01*
G75*
G02*
X43025000Y-26866001I0J249999D01*
G01*
G37*
G36*
G01*
X44850000Y-26866001D02*
X44850000Y-25965999D01*
G75*
G02*
X45099999Y-25716000I249999J0D01*
G01*
X45625001Y-25716000D01*
G75*
G02*
X45875000Y-25965999I0J-249999D01*
G01*
X45875000Y-26866001D01*
G75*
G02*
X45625001Y-27116000I-249999J0D01*
G01*
X45099999Y-27116000D01*
G75*
G02*
X44850000Y-26866001I0J249999D01*
G01*
G37*
%TD*%
%TO.C,U3*%
G36*
G01*
X34904000Y-23899000D02*
X34904000Y-23599000D01*
G75*
G02*
X35054000Y-23449000I150000J0D01*
G01*
X36704000Y-23449000D01*
G75*
G02*
X36854000Y-23599000I0J-150000D01*
G01*
X36854000Y-23899000D01*
G75*
G02*
X36704000Y-24049000I-150000J0D01*
G01*
X35054000Y-24049000D01*
G75*
G02*
X34904000Y-23899000I0J150000D01*
G01*
G37*
G36*
G01*
X34904000Y-25169000D02*
X34904000Y-24869000D01*
G75*
G02*
X35054000Y-24719000I150000J0D01*
G01*
X36704000Y-24719000D01*
G75*
G02*
X36854000Y-24869000I0J-150000D01*
G01*
X36854000Y-25169000D01*
G75*
G02*
X36704000Y-25319000I-150000J0D01*
G01*
X35054000Y-25319000D01*
G75*
G02*
X34904000Y-25169000I0J150000D01*
G01*
G37*
G36*
G01*
X34904000Y-26439000D02*
X34904000Y-26139000D01*
G75*
G02*
X35054000Y-25989000I150000J0D01*
G01*
X36704000Y-25989000D01*
G75*
G02*
X36854000Y-26139000I0J-150000D01*
G01*
X36854000Y-26439000D01*
G75*
G02*
X36704000Y-26589000I-150000J0D01*
G01*
X35054000Y-26589000D01*
G75*
G02*
X34904000Y-26439000I0J150000D01*
G01*
G37*
G36*
G01*
X34904000Y-27709000D02*
X34904000Y-27409000D01*
G75*
G02*
X35054000Y-27259000I150000J0D01*
G01*
X36704000Y-27259000D01*
G75*
G02*
X36854000Y-27409000I0J-150000D01*
G01*
X36854000Y-27709000D01*
G75*
G02*
X36704000Y-27859000I-150000J0D01*
G01*
X35054000Y-27859000D01*
G75*
G02*
X34904000Y-27709000I0J150000D01*
G01*
G37*
G36*
G01*
X39854000Y-27709000D02*
X39854000Y-27409000D01*
G75*
G02*
X40004000Y-27259000I150000J0D01*
G01*
X41654000Y-27259000D01*
G75*
G02*
X41804000Y-27409000I0J-150000D01*
G01*
X41804000Y-27709000D01*
G75*
G02*
X41654000Y-27859000I-150000J0D01*
G01*
X40004000Y-27859000D01*
G75*
G02*
X39854000Y-27709000I0J150000D01*
G01*
G37*
G36*
G01*
X39854000Y-26439000D02*
X39854000Y-26139000D01*
G75*
G02*
X40004000Y-25989000I150000J0D01*
G01*
X41654000Y-25989000D01*
G75*
G02*
X41804000Y-26139000I0J-150000D01*
G01*
X41804000Y-26439000D01*
G75*
G02*
X41654000Y-26589000I-150000J0D01*
G01*
X40004000Y-26589000D01*
G75*
G02*
X39854000Y-26439000I0J150000D01*
G01*
G37*
G36*
G01*
X39854000Y-25169000D02*
X39854000Y-24869000D01*
G75*
G02*
X40004000Y-24719000I150000J0D01*
G01*
X41654000Y-24719000D01*
G75*
G02*
X41804000Y-24869000I0J-150000D01*
G01*
X41804000Y-25169000D01*
G75*
G02*
X41654000Y-25319000I-150000J0D01*
G01*
X40004000Y-25319000D01*
G75*
G02*
X39854000Y-25169000I0J150000D01*
G01*
G37*
G36*
G01*
X39854000Y-23899000D02*
X39854000Y-23599000D01*
G75*
G02*
X40004000Y-23449000I150000J0D01*
G01*
X41654000Y-23449000D01*
G75*
G02*
X41804000Y-23599000I0J-150000D01*
G01*
X41804000Y-23899000D01*
G75*
G02*
X41654000Y-24049000I-150000J0D01*
G01*
X40004000Y-24049000D01*
G75*
G02*
X39854000Y-23899000I0J150000D01*
G01*
G37*
D24*
X38354000Y-25654000D03*
%TD*%
D25*
%TO.C,Q2*%
X32909000Y-47246500D03*
X32909000Y-49146500D03*
X34909000Y-48196500D03*
%TD*%
%TO.C,R14*%
G36*
G01*
X29468500Y-46666999D02*
X29468500Y-47567001D01*
G75*
G02*
X29218501Y-47817000I-249999J0D01*
G01*
X28693499Y-47817000D01*
G75*
G02*
X28443500Y-47567001I0J249999D01*
G01*
X28443500Y-46666999D01*
G75*
G02*
X28693499Y-46417000I249999J0D01*
G01*
X29218501Y-46417000D01*
G75*
G02*
X29468500Y-46666999I0J-249999D01*
G01*
G37*
G36*
G01*
X31293500Y-46666999D02*
X31293500Y-47567001D01*
G75*
G02*
X31043501Y-47817000I-249999J0D01*
G01*
X30518499Y-47817000D01*
G75*
G02*
X30268500Y-47567001I0J249999D01*
G01*
X30268500Y-46666999D01*
G75*
G02*
X30518499Y-46417000I249999J0D01*
G01*
X31043501Y-46417000D01*
G75*
G02*
X31293500Y-46666999I0J-249999D01*
G01*
G37*
%TD*%
%TO.C,R15*%
G36*
G01*
X31270000Y-48825999D02*
X31270000Y-49726001D01*
G75*
G02*
X31020001Y-49976000I-249999J0D01*
G01*
X30494999Y-49976000D01*
G75*
G02*
X30245000Y-49726001I0J249999D01*
G01*
X30245000Y-48825999D01*
G75*
G02*
X30494999Y-48576000I249999J0D01*
G01*
X31020001Y-48576000D01*
G75*
G02*
X31270000Y-48825999I0J-249999D01*
G01*
G37*
G36*
G01*
X29445000Y-48825999D02*
X29445000Y-49726001D01*
G75*
G02*
X29195001Y-49976000I-249999J0D01*
G01*
X28669999Y-49976000D01*
G75*
G02*
X28420000Y-49726001I0J249999D01*
G01*
X28420000Y-48825999D01*
G75*
G02*
X28669999Y-48576000I249999J0D01*
G01*
X29195001Y-48576000D01*
G75*
G02*
X29445000Y-48825999I0J-249999D01*
G01*
G37*
%TD*%
%TO.C,C9*%
G36*
G01*
X34872000Y-30193000D02*
X34872000Y-29243000D01*
G75*
G02*
X35122000Y-28993000I250000J0D01*
G01*
X35622000Y-28993000D01*
G75*
G02*
X35872000Y-29243000I0J-250000D01*
G01*
X35872000Y-30193000D01*
G75*
G02*
X35622000Y-30443000I-250000J0D01*
G01*
X35122000Y-30443000D01*
G75*
G02*
X34872000Y-30193000I0J250000D01*
G01*
G37*
G36*
G01*
X36772000Y-30193000D02*
X36772000Y-29243000D01*
G75*
G02*
X37022000Y-28993000I250000J0D01*
G01*
X37522000Y-28993000D01*
G75*
G02*
X37772000Y-29243000I0J-250000D01*
G01*
X37772000Y-30193000D01*
G75*
G02*
X37522000Y-30443000I-250000J0D01*
G01*
X37022000Y-30443000D01*
G75*
G02*
X36772000Y-30193000I0J250000D01*
G01*
G37*
%TD*%
D10*
%TO.C,J3*%
X61595000Y-24511000D03*
D11*
X64135000Y-24511000D03*
X66675000Y-24511000D03*
X69215000Y-24511000D03*
X71755000Y-24511000D03*
%TD*%
D12*
%TO.C,J9*%
X91000000Y-31250000D03*
X88500000Y-31250000D03*
X86000000Y-31250000D03*
X83500000Y-31250000D03*
X81000000Y-31250000D03*
X78500000Y-31250000D03*
X76000000Y-31250000D03*
G36*
G01*
X72650000Y-31975000D02*
X72650000Y-30525000D01*
G75*
G02*
X72900000Y-30275000I250000J0D01*
G01*
X74100000Y-30275000D01*
G75*
G02*
X74350000Y-30525000I0J-250000D01*
G01*
X74350000Y-31975000D01*
G75*
G02*
X74100000Y-32225000I-250000J0D01*
G01*
X72900000Y-32225000D01*
G75*
G02*
X72650000Y-31975000I0J250000D01*
G01*
G37*
%TD*%
M02*
