%TF.GenerationSoftware,KiCad,Pcbnew,(5.1.9)-1*%
%TF.CreationDate,2021-05-23T18:55:04+01:00*%
%TF.ProjectId,ControlBoard,436f6e74-726f-46c4-926f-6172642e6b69,rev?*%
%TF.SameCoordinates,Original*%
%TF.FileFunction,Legend,Bot*%
%TF.FilePolarity,Positive*%
%FSLAX46Y46*%
G04 Gerber Fmt 4.6, Leading zero omitted, Abs format (unit mm)*
G04 Created by KiCad (PCBNEW (5.1.9)-1) date 2021-05-23 18:55:04*
%MOMM*%
%LPD*%
G01*
G04 APERTURE LIST*
%ADD10C,0.120000*%
%ADD11C,0.150000*%
%ADD12C,0.100000*%
G04 APERTURE END LIST*
D10*
X111200000Y-103800000D02*
X117200000Y-103800000D01*
D11*
X113827380Y-106300000D02*
X113351190Y-105966666D01*
X113827380Y-105728571D02*
X112827380Y-105728571D01*
X112827380Y-106109523D01*
X112875000Y-106204761D01*
X112922619Y-106252380D01*
X113017857Y-106300000D01*
X113160714Y-106300000D01*
X113255952Y-106252380D01*
X113303571Y-106204761D01*
X113351190Y-106109523D01*
X113351190Y-105728571D01*
X113779761Y-107109523D02*
X113827380Y-107014285D01*
X113827380Y-106823809D01*
X113779761Y-106728571D01*
X113684523Y-106680952D01*
X113303571Y-106680952D01*
X113208333Y-106728571D01*
X113160714Y-106823809D01*
X113160714Y-107014285D01*
X113208333Y-107109523D01*
X113303571Y-107157142D01*
X113398809Y-107157142D01*
X113494047Y-106680952D01*
X113160714Y-107490476D02*
X113827380Y-107728571D01*
X113160714Y-107966666D01*
X115191666Y-106085714D02*
X115191666Y-106561904D01*
X115477380Y-105990476D02*
X114477380Y-106323809D01*
X115477380Y-106657142D01*
X114477380Y-107180952D02*
X114477380Y-107276190D01*
X114525000Y-107371428D01*
X114572619Y-107419047D01*
X114667857Y-107466666D01*
X114858333Y-107514285D01*
X115096428Y-107514285D01*
X115286904Y-107466666D01*
X115382142Y-107419047D01*
X115429761Y-107371428D01*
X115477380Y-107276190D01*
X115477380Y-107180952D01*
X115429761Y-107085714D01*
X115382142Y-107038095D01*
X115286904Y-106990476D01*
X115096428Y-106942857D01*
X114858333Y-106942857D01*
X114667857Y-106990476D01*
X114572619Y-107038095D01*
X114525000Y-107085714D01*
X114477380Y-107180952D01*
X104252380Y-67585714D02*
X103252380Y-67585714D01*
X104252380Y-68157142D02*
X103680952Y-67728571D01*
X103252380Y-68157142D02*
X103823809Y-67585714D01*
X104204761Y-68966666D02*
X104252380Y-68871428D01*
X104252380Y-68680952D01*
X104204761Y-68585714D01*
X104109523Y-68538095D01*
X103728571Y-68538095D01*
X103633333Y-68585714D01*
X103585714Y-68680952D01*
X103585714Y-68871428D01*
X103633333Y-68966666D01*
X103728571Y-69014285D01*
X103823809Y-69014285D01*
X103919047Y-68538095D01*
X104204761Y-69823809D02*
X104252380Y-69728571D01*
X104252380Y-69538095D01*
X104204761Y-69442857D01*
X104109523Y-69395238D01*
X103728571Y-69395238D01*
X103633333Y-69442857D01*
X103585714Y-69538095D01*
X103585714Y-69728571D01*
X103633333Y-69823809D01*
X103728571Y-69871428D01*
X103823809Y-69871428D01*
X103919047Y-69395238D01*
X103585714Y-70300000D02*
X104585714Y-70300000D01*
X103633333Y-70300000D02*
X103585714Y-70395238D01*
X103585714Y-70585714D01*
X103633333Y-70680952D01*
X103680952Y-70728571D01*
X103776190Y-70776190D01*
X104061904Y-70776190D01*
X104157142Y-70728571D01*
X104204761Y-70680952D01*
X104252380Y-70585714D01*
X104252380Y-70395238D01*
X104204761Y-70300000D01*
X103252380Y-71823809D02*
X103252380Y-72395238D01*
X104252380Y-72109523D02*
X103252380Y-72109523D01*
X104252380Y-73157142D02*
X103728571Y-73157142D01*
X103633333Y-73109523D01*
X103585714Y-73014285D01*
X103585714Y-72823809D01*
X103633333Y-72728571D01*
X104204761Y-73157142D02*
X104252380Y-73061904D01*
X104252380Y-72823809D01*
X104204761Y-72728571D01*
X104109523Y-72680952D01*
X104014285Y-72680952D01*
X103919047Y-72728571D01*
X103871428Y-72823809D01*
X103871428Y-73061904D01*
X103823809Y-73157142D01*
X104252380Y-73776190D02*
X104204761Y-73680952D01*
X104109523Y-73633333D01*
X103252380Y-73633333D01*
X104252380Y-74157142D02*
X103252380Y-74157142D01*
X103871428Y-74252380D02*
X104252380Y-74538095D01*
X103585714Y-74538095D02*
X103966666Y-74157142D01*
X104252380Y-74966666D02*
X103585714Y-74966666D01*
X103252380Y-74966666D02*
X103300000Y-74919047D01*
X103347619Y-74966666D01*
X103300000Y-75014285D01*
X103252380Y-74966666D01*
X103347619Y-74966666D01*
X103585714Y-75442857D02*
X104252380Y-75442857D01*
X103680952Y-75442857D02*
X103633333Y-75490476D01*
X103585714Y-75585714D01*
X103585714Y-75728571D01*
X103633333Y-75823809D01*
X103728571Y-75871428D01*
X104252380Y-75871428D01*
X103585714Y-76776190D02*
X104395238Y-76776190D01*
X104490476Y-76728571D01*
X104538095Y-76680952D01*
X104585714Y-76585714D01*
X104585714Y-76442857D01*
X104538095Y-76347619D01*
X104204761Y-76776190D02*
X104252380Y-76680952D01*
X104252380Y-76490476D01*
X104204761Y-76395238D01*
X104157142Y-76347619D01*
X104061904Y-76300000D01*
X103776190Y-76300000D01*
X103680952Y-76347619D01*
X103633333Y-76395238D01*
X103585714Y-76490476D01*
X103585714Y-76680952D01*
X103633333Y-76776190D01*
X104252380Y-78442857D02*
X103728571Y-78442857D01*
X103633333Y-78395238D01*
X103585714Y-78299999D01*
X103585714Y-78109523D01*
X103633333Y-78014285D01*
X104204761Y-78442857D02*
X104252380Y-78347619D01*
X104252380Y-78109523D01*
X104204761Y-78014285D01*
X104109523Y-77966666D01*
X104014285Y-77966666D01*
X103919047Y-78014285D01*
X103871428Y-78109523D01*
X103871428Y-78347619D01*
X103823809Y-78442857D01*
X103585714Y-78919047D02*
X104252380Y-78919047D01*
X103680952Y-78919047D02*
X103633333Y-78966666D01*
X103585714Y-79061904D01*
X103585714Y-79204761D01*
X103633333Y-79299999D01*
X103728571Y-79347619D01*
X104252380Y-79347619D01*
X104252380Y-80252380D02*
X103252380Y-80252380D01*
X104204761Y-80252380D02*
X104252380Y-80157142D01*
X104252380Y-79966666D01*
X104204761Y-79871428D01*
X104157142Y-79823809D01*
X104061904Y-79776190D01*
X103776190Y-79776190D01*
X103680952Y-79823809D01*
X103633333Y-79871428D01*
X103585714Y-79966666D01*
X103585714Y-80157142D01*
X103633333Y-80252380D01*
X104252380Y-81490476D02*
X103252380Y-81490476D01*
X104252380Y-82061904D01*
X103252380Y-82061904D01*
X104252380Y-82680952D02*
X104204761Y-82585714D01*
X104157142Y-82538095D01*
X104061904Y-82490476D01*
X103776190Y-82490476D01*
X103680952Y-82538095D01*
X103633333Y-82585714D01*
X103585714Y-82680952D01*
X103585714Y-82823809D01*
X103633333Y-82919047D01*
X103680952Y-82966666D01*
X103776190Y-83014285D01*
X104061904Y-83014285D01*
X104157142Y-82966666D01*
X104204761Y-82919047D01*
X104252380Y-82823809D01*
X104252380Y-82680952D01*
X104252380Y-83442857D02*
X103252380Y-83442857D01*
X103633333Y-83442857D02*
X103585714Y-83538095D01*
X103585714Y-83728571D01*
X103633333Y-83823809D01*
X103680952Y-83871428D01*
X103776190Y-83919047D01*
X104061904Y-83919047D01*
X104157142Y-83871428D01*
X104204761Y-83823809D01*
X104252380Y-83728571D01*
X104252380Y-83538095D01*
X104204761Y-83442857D01*
X104252380Y-84490476D02*
X104204761Y-84395238D01*
X104157142Y-84347619D01*
X104061904Y-84299999D01*
X103776190Y-84299999D01*
X103680952Y-84347619D01*
X103633333Y-84395238D01*
X103585714Y-84490476D01*
X103585714Y-84633333D01*
X103633333Y-84728571D01*
X103680952Y-84776190D01*
X103776190Y-84823809D01*
X104061904Y-84823809D01*
X104157142Y-84776190D01*
X104204761Y-84728571D01*
X104252380Y-84633333D01*
X104252380Y-84490476D01*
X104252380Y-85680952D02*
X103252380Y-85680952D01*
X104204761Y-85680952D02*
X104252380Y-85585714D01*
X104252380Y-85395238D01*
X104204761Y-85299999D01*
X104157142Y-85252380D01*
X104061904Y-85204761D01*
X103776190Y-85204761D01*
X103680952Y-85252380D01*
X103633333Y-85299999D01*
X103585714Y-85395238D01*
X103585714Y-85585714D01*
X103633333Y-85680952D01*
X103585714Y-86061904D02*
X104252380Y-86299999D01*
X103585714Y-86538095D02*
X104252380Y-86299999D01*
X104490476Y-86204761D01*
X104538095Y-86157142D01*
X104585714Y-86061904D01*
X103728571Y-87680952D02*
X103728571Y-88014285D01*
X104252380Y-88157142D02*
X104252380Y-87680952D01*
X103252380Y-87680952D01*
X103252380Y-88157142D01*
X104252380Y-88490476D02*
X103585714Y-89014285D01*
X103585714Y-88490476D02*
X104252380Y-89014285D01*
X103585714Y-89395238D02*
X104585714Y-89395238D01*
X103633333Y-89395238D02*
X103585714Y-89490476D01*
X103585714Y-89680952D01*
X103633333Y-89776190D01*
X103680952Y-89823809D01*
X103776190Y-89871428D01*
X104061904Y-89871428D01*
X104157142Y-89823809D01*
X104204761Y-89776190D01*
X104252380Y-89680952D01*
X104252380Y-89490476D01*
X104204761Y-89395238D01*
X104252380Y-90442857D02*
X104204761Y-90347619D01*
X104109523Y-90299999D01*
X103252380Y-90299999D01*
X104252380Y-90966666D02*
X104204761Y-90871428D01*
X104157142Y-90823809D01*
X104061904Y-90776190D01*
X103776190Y-90776190D01*
X103680952Y-90823809D01*
X103633333Y-90871428D01*
X103585714Y-90966666D01*
X103585714Y-91109523D01*
X103633333Y-91204761D01*
X103680952Y-91252380D01*
X103776190Y-91299999D01*
X104061904Y-91299999D01*
X104157142Y-91252380D01*
X104204761Y-91204761D01*
X104252380Y-91109523D01*
X104252380Y-90966666D01*
X104252380Y-92157142D02*
X103252380Y-92157142D01*
X104204761Y-92157142D02*
X104252380Y-92061904D01*
X104252380Y-91871428D01*
X104204761Y-91776190D01*
X104157142Y-91728571D01*
X104061904Y-91680952D01*
X103776190Y-91680952D01*
X103680952Y-91728571D01*
X103633333Y-91776190D01*
X103585714Y-91871428D01*
X103585714Y-92061904D01*
X103633333Y-92157142D01*
X104204761Y-93014285D02*
X104252380Y-92919047D01*
X104252380Y-92728571D01*
X104204761Y-92633333D01*
X104109523Y-92585714D01*
X103728571Y-92585714D01*
X103633333Y-92633333D01*
X103585714Y-92728571D01*
X103585714Y-92919047D01*
X103633333Y-93014285D01*
X103728571Y-93061904D01*
X103823809Y-93061904D01*
X103919047Y-92585714D01*
X104204761Y-93442857D02*
X104252380Y-93538095D01*
X104252380Y-93728571D01*
X104204761Y-93823809D01*
X104109523Y-93871428D01*
X104061904Y-93871428D01*
X103966666Y-93823809D01*
X103919047Y-93728571D01*
X103919047Y-93585714D01*
X103871428Y-93490476D01*
X103776190Y-93442857D01*
X103728571Y-93442857D01*
X103633333Y-93490476D01*
X103585714Y-93585714D01*
X103585714Y-93728571D01*
X103633333Y-93823809D01*
X103871428Y-95061904D02*
X103871428Y-95823809D01*
X104157142Y-97633333D02*
X104204761Y-97585714D01*
X104252380Y-97442857D01*
X104252380Y-97347619D01*
X104204761Y-97204761D01*
X104109523Y-97109523D01*
X104014285Y-97061904D01*
X103823809Y-97014285D01*
X103680952Y-97014285D01*
X103490476Y-97061904D01*
X103395238Y-97109523D01*
X103300000Y-97204761D01*
X103252380Y-97347619D01*
X103252380Y-97442857D01*
X103300000Y-97585714D01*
X103347619Y-97633333D01*
X104252380Y-98204761D02*
X104204761Y-98109523D01*
X104157142Y-98061904D01*
X104061904Y-98014285D01*
X103776190Y-98014285D01*
X103680952Y-98061904D01*
X103633333Y-98109523D01*
X103585714Y-98204761D01*
X103585714Y-98347619D01*
X103633333Y-98442857D01*
X103680952Y-98490476D01*
X103776190Y-98538095D01*
X104061904Y-98538095D01*
X104157142Y-98490476D01*
X104204761Y-98442857D01*
X104252380Y-98347619D01*
X104252380Y-98204761D01*
X103585714Y-98966666D02*
X104252380Y-98966666D01*
X103680952Y-98966666D02*
X103633333Y-99014285D01*
X103585714Y-99109523D01*
X103585714Y-99252380D01*
X103633333Y-99347619D01*
X103728571Y-99395238D01*
X104252380Y-99395238D01*
X103585714Y-99728571D02*
X103585714Y-100109523D01*
X103252380Y-99871428D02*
X104109523Y-99871428D01*
X104204761Y-99919047D01*
X104252380Y-100014285D01*
X104252380Y-100109523D01*
X104252380Y-100442857D02*
X103585714Y-100442857D01*
X103776190Y-100442857D02*
X103680952Y-100490476D01*
X103633333Y-100538095D01*
X103585714Y-100633333D01*
X103585714Y-100728571D01*
X104252380Y-101204761D02*
X104204761Y-101109523D01*
X104157142Y-101061904D01*
X104061904Y-101014285D01*
X103776190Y-101014285D01*
X103680952Y-101061904D01*
X103633333Y-101109523D01*
X103585714Y-101204761D01*
X103585714Y-101347619D01*
X103633333Y-101442857D01*
X103680952Y-101490476D01*
X103776190Y-101538095D01*
X104061904Y-101538095D01*
X104157142Y-101490476D01*
X104204761Y-101442857D01*
X104252380Y-101347619D01*
X104252380Y-101204761D01*
X104252380Y-102109523D02*
X104204761Y-102014285D01*
X104109523Y-101966666D01*
X103252380Y-101966666D01*
X104252380Y-103252380D02*
X103252380Y-103252380D01*
X103966666Y-103585714D01*
X103252380Y-103919047D01*
X104252380Y-103919047D01*
X104252380Y-104538095D02*
X104204761Y-104442857D01*
X104157142Y-104395238D01*
X104061904Y-104347619D01*
X103776190Y-104347619D01*
X103680952Y-104395238D01*
X103633333Y-104442857D01*
X103585714Y-104538095D01*
X103585714Y-104680952D01*
X103633333Y-104776190D01*
X103680952Y-104823809D01*
X103776190Y-104871428D01*
X104061904Y-104871428D01*
X104157142Y-104823809D01*
X104204761Y-104776190D01*
X104252380Y-104680952D01*
X104252380Y-104538095D01*
X104252380Y-105728571D02*
X103252380Y-105728571D01*
X104204761Y-105728571D02*
X104252380Y-105633333D01*
X104252380Y-105442857D01*
X104204761Y-105347619D01*
X104157142Y-105299999D01*
X104061904Y-105252380D01*
X103776190Y-105252380D01*
X103680952Y-105299999D01*
X103633333Y-105347619D01*
X103585714Y-105442857D01*
X103585714Y-105633333D01*
X103633333Y-105728571D01*
X103585714Y-106633333D02*
X104252380Y-106633333D01*
X103585714Y-106204761D02*
X104109523Y-106204761D01*
X104204761Y-106252380D01*
X104252380Y-106347619D01*
X104252380Y-106490476D01*
X104204761Y-106585714D01*
X104157142Y-106633333D01*
X104252380Y-107252380D02*
X104204761Y-107157142D01*
X104109523Y-107109523D01*
X103252380Y-107109523D01*
X104204761Y-108014285D02*
X104252380Y-107919047D01*
X104252380Y-107728571D01*
X104204761Y-107633333D01*
X104109523Y-107585714D01*
X103728571Y-107585714D01*
X103633333Y-107633333D01*
X103585714Y-107728571D01*
X103585714Y-107919047D01*
X103633333Y-108014285D01*
X103728571Y-108061904D01*
X103823809Y-108061904D01*
X103919047Y-107585714D01*
D12*
G36*
X110800000Y-109400000D02*
G01*
X105600000Y-109400000D01*
X105600000Y-94200000D01*
X110800000Y-94200000D01*
X110800000Y-109400000D01*
G37*
X110800000Y-109400000D02*
X105600000Y-109400000D01*
X105600000Y-94200000D01*
X110800000Y-94200000D01*
X110800000Y-109400000D01*
D10*
X105200000Y-87800000D02*
X111200000Y-87800000D01*
X105200000Y-93800000D02*
X111200000Y-93800000D01*
D11*
X107771428Y-90221428D02*
X107814285Y-90178571D01*
X107857142Y-90050000D01*
X107857142Y-89964285D01*
X107814285Y-89835714D01*
X107728571Y-89750000D01*
X107642857Y-89707142D01*
X107471428Y-89664285D01*
X107342857Y-89664285D01*
X107171428Y-89707142D01*
X107085714Y-89750000D01*
X107000000Y-89835714D01*
X106957142Y-89964285D01*
X106957142Y-90050000D01*
X107000000Y-90178571D01*
X107042857Y-90221428D01*
X107600000Y-90564285D02*
X107600000Y-90992857D01*
X107857142Y-90478571D02*
X106957142Y-90778571D01*
X107857142Y-91078571D01*
X107857142Y-91378571D02*
X106957142Y-91378571D01*
X107857142Y-91892857D01*
X106957142Y-91892857D01*
X109357142Y-90350000D02*
X108457142Y-90350000D01*
X109357142Y-90778571D02*
X108457142Y-90778571D01*
X108457142Y-90992857D01*
X108500000Y-91121428D01*
X108585714Y-91207142D01*
X108671428Y-91250000D01*
X108842857Y-91292857D01*
X108971428Y-91292857D01*
X109142857Y-91250000D01*
X109228571Y-91207142D01*
X109314285Y-91121428D01*
X109357142Y-90992857D01*
X109357142Y-90778571D01*
D12*
G36*
X110800000Y-87400000D02*
G01*
X105600000Y-87400000D01*
X105600000Y-72200000D01*
X110800000Y-72200000D01*
X110800000Y-87400000D01*
G37*
X110800000Y-87400000D02*
X105600000Y-87400000D01*
X105600000Y-72200000D01*
X110800000Y-72200000D01*
X110800000Y-87400000D01*
G36*
X116800000Y-103400000D02*
G01*
X111600000Y-103400000D01*
X111600000Y-72200000D01*
X116800000Y-72200000D01*
X116800000Y-103400000D01*
G37*
X116800000Y-103400000D02*
X111600000Y-103400000D01*
X111600000Y-72200000D01*
X116800000Y-72200000D01*
X116800000Y-103400000D01*
D10*
X111200000Y-109800000D02*
X111200000Y-65800000D01*
X105200000Y-71800000D02*
X117200000Y-71800000D01*
X105200000Y-109800000D02*
X105200000Y-65800000D01*
X117200000Y-109800000D02*
X105200000Y-109800000D01*
X117200000Y-65800000D02*
X117200000Y-109800000D01*
X105200000Y-65800000D02*
X117200000Y-65800000D01*
D11*
X113827380Y-66419047D02*
X112827380Y-66419047D01*
X113541666Y-66752380D01*
X112827380Y-67085714D01*
X113827380Y-67085714D01*
X113827380Y-67704761D02*
X113779761Y-67609523D01*
X113732142Y-67561904D01*
X113636904Y-67514285D01*
X113351190Y-67514285D01*
X113255952Y-67561904D01*
X113208333Y-67609523D01*
X113160714Y-67704761D01*
X113160714Y-67847619D01*
X113208333Y-67942857D01*
X113255952Y-67990476D01*
X113351190Y-68038095D01*
X113636904Y-68038095D01*
X113732142Y-67990476D01*
X113779761Y-67942857D01*
X113827380Y-67847619D01*
X113827380Y-67704761D01*
X113827380Y-68895238D02*
X112827380Y-68895238D01*
X113779761Y-68895238D02*
X113827380Y-68800000D01*
X113827380Y-68609523D01*
X113779761Y-68514285D01*
X113732142Y-68466666D01*
X113636904Y-68419047D01*
X113351190Y-68419047D01*
X113255952Y-68466666D01*
X113208333Y-68514285D01*
X113160714Y-68609523D01*
X113160714Y-68800000D01*
X113208333Y-68895238D01*
X113160714Y-69800000D02*
X113827380Y-69800000D01*
X113160714Y-69371428D02*
X113684523Y-69371428D01*
X113779761Y-69419047D01*
X113827380Y-69514285D01*
X113827380Y-69657142D01*
X113779761Y-69752380D01*
X113732142Y-69800000D01*
X113827380Y-70419047D02*
X113779761Y-70323809D01*
X113684523Y-70276190D01*
X112827380Y-70276190D01*
X113779761Y-71180952D02*
X113827380Y-71085714D01*
X113827380Y-70895238D01*
X113779761Y-70800000D01*
X113684523Y-70752380D01*
X113303571Y-70752380D01*
X113208333Y-70800000D01*
X113160714Y-70895238D01*
X113160714Y-71085714D01*
X113208333Y-71180952D01*
X113303571Y-71228571D01*
X113398809Y-71228571D01*
X113494047Y-70752380D01*
X115382142Y-67228571D02*
X115429761Y-67180952D01*
X115477380Y-67038095D01*
X115477380Y-66942857D01*
X115429761Y-66800000D01*
X115334523Y-66704761D01*
X115239285Y-66657142D01*
X115048809Y-66609523D01*
X114905952Y-66609523D01*
X114715476Y-66657142D01*
X114620238Y-66704761D01*
X114525000Y-66800000D01*
X114477380Y-66942857D01*
X114477380Y-67038095D01*
X114525000Y-67180952D01*
X114572619Y-67228571D01*
X115477380Y-67800000D02*
X115429761Y-67704761D01*
X115382142Y-67657142D01*
X115286904Y-67609523D01*
X115001190Y-67609523D01*
X114905952Y-67657142D01*
X114858333Y-67704761D01*
X114810714Y-67800000D01*
X114810714Y-67942857D01*
X114858333Y-68038095D01*
X114905952Y-68085714D01*
X115001190Y-68133333D01*
X115286904Y-68133333D01*
X115382142Y-68085714D01*
X115429761Y-68038095D01*
X115477380Y-67942857D01*
X115477380Y-67800000D01*
X114810714Y-68561904D02*
X115477380Y-68561904D01*
X114905952Y-68561904D02*
X114858333Y-68609523D01*
X114810714Y-68704761D01*
X114810714Y-68847619D01*
X114858333Y-68942857D01*
X114953571Y-68990476D01*
X115477380Y-68990476D01*
X114810714Y-69323809D02*
X114810714Y-69704761D01*
X115477380Y-69466666D02*
X114620238Y-69466666D01*
X114525000Y-69514285D01*
X114477380Y-69609523D01*
X114477380Y-69704761D01*
X115477380Y-70038095D02*
X114810714Y-70038095D01*
X114477380Y-70038095D02*
X114525000Y-69990476D01*
X114572619Y-70038095D01*
X114525000Y-70085714D01*
X114477380Y-70038095D01*
X114572619Y-70038095D01*
X114810714Y-70942857D02*
X115620238Y-70942857D01*
X115715476Y-70895238D01*
X115763095Y-70847619D01*
X115810714Y-70752380D01*
X115810714Y-70609523D01*
X115763095Y-70514285D01*
X115429761Y-70942857D02*
X115477380Y-70847619D01*
X115477380Y-70657142D01*
X115429761Y-70561904D01*
X115382142Y-70514285D01*
X115286904Y-70466666D01*
X115001190Y-70466666D01*
X114905952Y-70514285D01*
X114858333Y-70561904D01*
X114810714Y-70657142D01*
X114810714Y-70847619D01*
X114858333Y-70942857D01*
X107814285Y-67021428D02*
X107857142Y-67150000D01*
X107857142Y-67364285D01*
X107814285Y-67450000D01*
X107771428Y-67492857D01*
X107685714Y-67535714D01*
X107600000Y-67535714D01*
X107514285Y-67492857D01*
X107471428Y-67450000D01*
X107428571Y-67364285D01*
X107385714Y-67192857D01*
X107342857Y-67107142D01*
X107300000Y-67064285D01*
X107214285Y-67021428D01*
X107128571Y-67021428D01*
X107042857Y-67064285D01*
X107000000Y-67107142D01*
X106957142Y-67192857D01*
X106957142Y-67407142D01*
X107000000Y-67535714D01*
X107814285Y-68264285D02*
X107857142Y-68178571D01*
X107857142Y-68007142D01*
X107814285Y-67921428D01*
X107728571Y-67878571D01*
X107385714Y-67878571D01*
X107300000Y-67921428D01*
X107257142Y-68007142D01*
X107257142Y-68178571D01*
X107300000Y-68264285D01*
X107385714Y-68307142D01*
X107471428Y-68307142D01*
X107557142Y-67878571D01*
X107857142Y-68692857D02*
X107257142Y-68692857D01*
X107428571Y-68692857D02*
X107342857Y-68735714D01*
X107300000Y-68778571D01*
X107257142Y-68864285D01*
X107257142Y-68950000D01*
X107857142Y-69250000D02*
X107257142Y-69250000D01*
X106957142Y-69250000D02*
X107000000Y-69207142D01*
X107042857Y-69250000D01*
X107000000Y-69292857D01*
X106957142Y-69250000D01*
X107042857Y-69250000D01*
X107857142Y-70064285D02*
X107385714Y-70064285D01*
X107300000Y-70021428D01*
X107257142Y-69935714D01*
X107257142Y-69764285D01*
X107300000Y-69678571D01*
X107814285Y-70064285D02*
X107857142Y-69978571D01*
X107857142Y-69764285D01*
X107814285Y-69678571D01*
X107728571Y-69635714D01*
X107642857Y-69635714D01*
X107557142Y-69678571D01*
X107514285Y-69764285D01*
X107514285Y-69978571D01*
X107471428Y-70064285D01*
X107857142Y-70621428D02*
X107814285Y-70535714D01*
X107728571Y-70492857D01*
X106957142Y-70492857D01*
X109357142Y-68135714D02*
X108457142Y-68135714D01*
X109357142Y-68650000D01*
X108457142Y-68650000D01*
X109357142Y-69207142D02*
X109314285Y-69121428D01*
X109271428Y-69078571D01*
X109185714Y-69035714D01*
X108928571Y-69035714D01*
X108842857Y-69078571D01*
X108800000Y-69121428D01*
X108757142Y-69207142D01*
X108757142Y-69335714D01*
X108800000Y-69421428D01*
X108842857Y-69464285D01*
X108928571Y-69507142D01*
X109185714Y-69507142D01*
X109271428Y-69464285D01*
X109314285Y-69421428D01*
X109357142Y-69335714D01*
X109357142Y-69207142D01*
M02*
