M48
; DRILL file {KiCad (5.1.9)-1} date 05/23/21 18:55:06
; FORMAT={-:-/ absolute / inch / decimal}
; #@! TF.CreationDate,2021-05-23T18:55:06+01:00
; #@! TF.GenerationSoftware,Kicad,Pcbnew,(5.1.9)-1
FMAT,2
INCH
T1C0.0157
T2C0.0315
T3C0.0374
T4C0.0394
T5C0.0591
T6C0.1260
%
G90
G05
T1
X1.05Y-1.51
X1.14Y-1.51
X1.15Y-0.93
X1.17Y-1.5748
X1.17Y-1.7
X1.185Y-4.2
X1.1969Y-2.0236
X1.1969Y-2.1142
X1.29Y-4.01
X1.34Y-1.31
X1.34Y-1.64
X1.525Y-1.165
X1.58Y-1.365
X1.58Y-1.515
X1.67Y-0.93
X1.67Y-1.0531
X1.67Y-1.26
X1.745Y-1.365
X1.745Y-1.515
X2.0965Y-1.4173
X2.0965Y-1.4567
X2.2047Y-1.1319
X2.2835Y-1.7224
X2.3031Y-1.1319
X2.3228Y-1.7224
X2.3622Y-1.7224
X2.374Y-1.5079
X2.374Y-1.5906
X2.4016Y-1.7224
X2.4803Y-1.1024
X2.4803Y-1.8012
X2.5295Y-1.7519
X2.5787Y-1.5354
X2.5787Y-1.5984
X2.5886Y-1.9291
X2.6083Y-1.4075
X2.6378Y-1.0728
X2.6378Y-1.7421
X2.6378Y-1.8504
X2.6378Y-1.8898
X2.6454Y-1.7829
X2.657Y-1.3489
X2.6614Y-1.8189
X2.6865Y-1.3785
X2.6969Y-1.7913
X2.6978Y-1.752
X2.7953Y-1.6634
X2.7953Y-1.7028
X2.7953Y-1.7421
X2.7953Y-1.7815
X2.8346Y-1.6535
X2.874Y-1.0728
X2.874Y-1.6535
X2.9055Y-1.4606
X2.9134Y-1.624
X2.9429Y-1.5945
X2.9528Y-1.4606
X3.2677Y-1.0531
X3.563Y-0.9646
X3.8681Y-0.9646
X3.9685Y-0.9286
X3.9685Y-0.9843
X4.3701Y-1.1004
T2
X1.97Y-0.93
X1.97Y-1.0284
T3
X1.9587Y-1.2303
X2.0571Y-1.2303
X2.1555Y-1.2303
X2.2539Y-1.2303
X2.3524Y-1.2303
X2.4508Y-1.2303
X2.5492Y-1.2303
X2.6476Y-1.2303
X2.8937Y-1.2303
X2.9921Y-1.2303
X3.0906Y-1.2303
X3.189Y-1.2303
X3.2874Y-1.2303
X3.3858Y-1.2303
X3.4843Y-1.2303
X3.5827Y-1.2303
T4
X1.2248Y-2.2728
X1.2248Y-2.3728
X1.3248Y-2.2728
X1.3248Y-2.3728
X1.4248Y-2.2728
X1.4248Y-2.3728
X1.5248Y-2.2728
X1.5248Y-2.3728
X1.5289Y-1.8625
X1.6248Y-2.2728
X1.6248Y-2.3728
X1.7061Y-1.8625
X1.7248Y-2.2728
X1.7248Y-2.3728
X1.8248Y-2.2728
X1.8248Y-2.3728
X1.9248Y-2.2728
X1.9248Y-2.3728
X2.4059Y-2.2728
X2.4059Y-2.3728
X2.425Y-0.965
X2.5059Y-2.2728
X2.5059Y-2.3728
X2.525Y-0.965
X2.6059Y-2.2728
X2.6059Y-2.3728
X2.625Y-0.965
X2.7059Y-2.2728
X2.7059Y-2.3728
X2.725Y-0.965
X2.8059Y-2.2728
X2.8059Y-2.3728
X2.825Y-0.965
X2.9059Y-2.2728
X2.9059Y-2.3728
X2.985Y-0.965
X3.0059Y-2.2728
X3.0059Y-2.3728
X3.085Y-0.965
X3.1059Y-2.2728
X3.1059Y-2.3728
X3.185Y-0.965
X3.587Y-2.2728
X3.587Y-2.3728
X3.687Y-2.2728
X3.687Y-2.3728
X3.787Y-2.2728
X3.787Y-2.3728
X3.887Y-2.2728
X3.887Y-2.3728
X3.987Y-2.2728
X3.987Y-2.3728
X4.087Y-2.2728
X4.087Y-2.3728
X4.187Y-2.2728
X4.187Y-2.3728
X4.287Y-2.2728
X4.287Y-2.3728
T5
X0.9307Y-1.44
X0.9311Y-4.06
X1.2063Y-1.44
X1.2067Y-4.06
T6
X0.9843Y-0.9843
X0.9843Y-4.5276
X1.5748Y-2.7165
X1.5748Y-3.1102
X1.5748Y-3.5039
X1.5748Y-3.8976
X1.5748Y-4.2913
X2.7559Y-2.7165
X2.7559Y-3.1102
X2.7559Y-3.5039
X2.7559Y-3.8976
X2.7559Y-4.2913
X3.937Y-2.7165
X3.937Y-3.1102
X3.937Y-3.5039
X3.937Y-3.8976
X3.937Y-4.2913
X4.5276Y-0.9843
X4.5276Y-4.5276
T0
M30
