%TF.GenerationSoftware,KiCad,Pcbnew,(6.0.9)*%
%TF.CreationDate,2022-12-02T21:30:47+00:00*%
%TF.ProjectId,SPIRadioCFRTC,53504952-6164-4696-9f43-465254432e6b,rev?*%
%TF.SameCoordinates,Original*%
%TF.FileFunction,Legend,Top*%
%TF.FilePolarity,Positive*%
%FSLAX46Y46*%
G04 Gerber Fmt 4.6, Leading zero omitted, Abs format (unit mm)*
G04 Created by KiCad (PCBNEW (6.0.9)) date 2022-12-02 21:30:47*
%MOMM*%
%LPD*%
G01*
G04 APERTURE LIST*
G04 Aperture macros list*
%AMRoundRect*
0 Rectangle with rounded corners*
0 $1 Rounding radius*
0 $2 $3 $4 $5 $6 $7 $8 $9 X,Y pos of 4 corners*
0 Add a 4 corners polygon primitive as box body*
4,1,4,$2,$3,$4,$5,$6,$7,$8,$9,$2,$3,0*
0 Add four circle primitives for the rounded corners*
1,1,$1+$1,$2,$3*
1,1,$1+$1,$4,$5*
1,1,$1+$1,$6,$7*
1,1,$1+$1,$8,$9*
0 Add four rect primitives between the rounded corners*
20,1,$1+$1,$2,$3,$4,$5,0*
20,1,$1+$1,$4,$5,$6,$7,0*
20,1,$1+$1,$6,$7,$8,$9,0*
20,1,$1+$1,$8,$9,$2,$3,0*%
G04 Aperture macros list end*
%ADD10C,0.120000*%
%ADD11C,0.150000*%
%ADD12C,3.200000*%
%ADD13RoundRect,0.250000X0.250000X0.475000X-0.250000X0.475000X-0.250000X-0.475000X0.250000X-0.475000X0*%
%ADD14RoundRect,0.150000X0.150000X-0.587500X0.150000X0.587500X-0.150000X0.587500X-0.150000X-0.587500X0*%
%ADD15R,1.400000X0.300000*%
%ADD16R,4.000000X1.000000*%
%ADD17R,3.000000X3.000000*%
%ADD18RoundRect,0.250000X0.450000X-0.262500X0.450000X0.262500X-0.450000X0.262500X-0.450000X-0.262500X0*%
%ADD19RoundRect,0.250000X0.262500X0.450000X-0.262500X0.450000X-0.262500X-0.450000X0.262500X-0.450000X0*%
%ADD20C,0.900000*%
%ADD21R,1.400000X0.700000*%
%ADD22R,1.400000X1.600000*%
%ADD23R,2.200000X1.200000*%
%ADD24R,1.800000X1.000000*%
%ADD25R,1.700000X1.700000*%
%ADD26O,1.700000X1.700000*%
G04 APERTURE END LIST*
D10*
X27000000Y-31500000D02*
X25750000Y-31750000D01*
D11*
%TO.C,C2*%
X26666333Y-55612142D02*
X26618714Y-55659761D01*
X26475857Y-55707380D01*
X26380619Y-55707380D01*
X26237761Y-55659761D01*
X26142523Y-55564523D01*
X26094904Y-55469285D01*
X26047285Y-55278809D01*
X26047285Y-55135952D01*
X26094904Y-54945476D01*
X26142523Y-54850238D01*
X26237761Y-54755000D01*
X26380619Y-54707380D01*
X26475857Y-54707380D01*
X26618714Y-54755000D01*
X26666333Y-54802619D01*
X27047285Y-54802619D02*
X27094904Y-54755000D01*
X27190142Y-54707380D01*
X27428238Y-54707380D01*
X27523476Y-54755000D01*
X27571095Y-54802619D01*
X27618714Y-54897857D01*
X27618714Y-54993095D01*
X27571095Y-55135952D01*
X26999666Y-55707380D01*
X27618714Y-55707380D01*
%TO.C,Q2*%
X47688095Y-25326190D02*
X47650000Y-25402380D01*
X47573809Y-25478571D01*
X47459523Y-25592857D01*
X47421428Y-25669047D01*
X47421428Y-25745238D01*
X47611904Y-25707142D02*
X47573809Y-25783333D01*
X47497619Y-25859523D01*
X47345238Y-25897619D01*
X47078571Y-25897619D01*
X46926190Y-25859523D01*
X46850000Y-25783333D01*
X46811904Y-25707142D01*
X46811904Y-25554761D01*
X46850000Y-25478571D01*
X46926190Y-25402380D01*
X47078571Y-25364285D01*
X47345238Y-25364285D01*
X47497619Y-25402380D01*
X47573809Y-25478571D01*
X47611904Y-25554761D01*
X47611904Y-25707142D01*
X46888095Y-25059523D02*
X46850000Y-25021428D01*
X46811904Y-24945238D01*
X46811904Y-24754761D01*
X46850000Y-24678571D01*
X46888095Y-24640476D01*
X46964285Y-24602380D01*
X47040476Y-24602380D01*
X47154761Y-24640476D01*
X47611904Y-25097619D01*
X47611904Y-24602380D01*
%TO.C,U3*%
X20552380Y-33761904D02*
X21361904Y-33761904D01*
X21457142Y-33714285D01*
X21504761Y-33666666D01*
X21552380Y-33571428D01*
X21552380Y-33380952D01*
X21504761Y-33285714D01*
X21457142Y-33238095D01*
X21361904Y-33190476D01*
X20552380Y-33190476D01*
X20552380Y-32809523D02*
X20552380Y-32190476D01*
X20933333Y-32523809D01*
X20933333Y-32380952D01*
X20980952Y-32285714D01*
X21028571Y-32238095D01*
X21123809Y-32190476D01*
X21361904Y-32190476D01*
X21457142Y-32238095D01*
X21504761Y-32285714D01*
X21552380Y-32380952D01*
X21552380Y-32666666D01*
X21504761Y-32761904D01*
X21457142Y-32809523D01*
%TO.C,U1*%
X23238095Y-44952380D02*
X23238095Y-45761904D01*
X23285714Y-45857142D01*
X23333333Y-45904761D01*
X23428571Y-45952380D01*
X23619047Y-45952380D01*
X23714285Y-45904761D01*
X23761904Y-45857142D01*
X23809523Y-45761904D01*
X23809523Y-44952380D01*
X24809523Y-45952380D02*
X24238095Y-45952380D01*
X24523809Y-45952380D02*
X24523809Y-44952380D01*
X24428571Y-45095238D01*
X24333333Y-45190476D01*
X24238095Y-45238095D01*
%TO.C,U2*%
X26422380Y-72761904D02*
X27231904Y-72761904D01*
X27327142Y-72714285D01*
X27374761Y-72666666D01*
X27422380Y-72571428D01*
X27422380Y-72380952D01*
X27374761Y-72285714D01*
X27327142Y-72238095D01*
X27231904Y-72190476D01*
X26422380Y-72190476D01*
X26517619Y-71761904D02*
X26470000Y-71714285D01*
X26422380Y-71619047D01*
X26422380Y-71380952D01*
X26470000Y-71285714D01*
X26517619Y-71238095D01*
X26612857Y-71190476D01*
X26708095Y-71190476D01*
X26850952Y-71238095D01*
X27422380Y-71809523D01*
X27422380Y-71190476D01*
%TO.C,R6*%
X26833333Y-32952380D02*
X26500000Y-32476190D01*
X26261904Y-32952380D02*
X26261904Y-31952380D01*
X26642857Y-31952380D01*
X26738095Y-32000000D01*
X26785714Y-32047619D01*
X26833333Y-32142857D01*
X26833333Y-32285714D01*
X26785714Y-32380952D01*
X26738095Y-32428571D01*
X26642857Y-32476190D01*
X26261904Y-32476190D01*
X27690476Y-31952380D02*
X27500000Y-31952380D01*
X27404761Y-32000000D01*
X27357142Y-32047619D01*
X27261904Y-32190476D01*
X27214285Y-32380952D01*
X27214285Y-32761904D01*
X27261904Y-32857142D01*
X27309523Y-32904761D01*
X27404761Y-32952380D01*
X27595238Y-32952380D01*
X27690476Y-32904761D01*
X27738095Y-32857142D01*
X27785714Y-32761904D01*
X27785714Y-32523809D01*
X27738095Y-32428571D01*
X27690476Y-32380952D01*
X27595238Y-32333333D01*
X27404761Y-32333333D01*
X27309523Y-32380952D01*
X27261904Y-32428571D01*
X27214285Y-32523809D01*
%TO.C,Q3*%
X48938095Y-25326190D02*
X48900000Y-25402380D01*
X48823809Y-25478571D01*
X48709523Y-25592857D01*
X48671428Y-25669047D01*
X48671428Y-25745238D01*
X48861904Y-25707142D02*
X48823809Y-25783333D01*
X48747619Y-25859523D01*
X48595238Y-25897619D01*
X48328571Y-25897619D01*
X48176190Y-25859523D01*
X48100000Y-25783333D01*
X48061904Y-25707142D01*
X48061904Y-25554761D01*
X48100000Y-25478571D01*
X48176190Y-25402380D01*
X48328571Y-25364285D01*
X48595238Y-25364285D01*
X48747619Y-25402380D01*
X48823809Y-25478571D01*
X48861904Y-25554761D01*
X48861904Y-25707142D01*
X48061904Y-25097619D02*
X48061904Y-24602380D01*
X48366666Y-24869047D01*
X48366666Y-24754761D01*
X48404761Y-24678571D01*
X48442857Y-24640476D01*
X48519047Y-24602380D01*
X48709523Y-24602380D01*
X48785714Y-24640476D01*
X48823809Y-24678571D01*
X48861904Y-24754761D01*
X48861904Y-24983333D01*
X48823809Y-25059523D01*
X48785714Y-25097619D01*
%TO.C,C3*%
X25333333Y-43357142D02*
X25285714Y-43404761D01*
X25142857Y-43452380D01*
X25047619Y-43452380D01*
X24904761Y-43404761D01*
X24809523Y-43309523D01*
X24761904Y-43214285D01*
X24714285Y-43023809D01*
X24714285Y-42880952D01*
X24761904Y-42690476D01*
X24809523Y-42595238D01*
X24904761Y-42500000D01*
X25047619Y-42452380D01*
X25142857Y-42452380D01*
X25285714Y-42500000D01*
X25333333Y-42547619D01*
X25666666Y-42452380D02*
X26285714Y-42452380D01*
X25952380Y-42833333D01*
X26095238Y-42833333D01*
X26190476Y-42880952D01*
X26238095Y-42928571D01*
X26285714Y-43023809D01*
X26285714Y-43261904D01*
X26238095Y-43357142D01*
X26190476Y-43404761D01*
X26095238Y-43452380D01*
X25809523Y-43452380D01*
X25714285Y-43404761D01*
X25666666Y-43357142D01*
%TO.C,R8*%
X32833333Y-32952380D02*
X32500000Y-32476190D01*
X32261904Y-32952380D02*
X32261904Y-31952380D01*
X32642857Y-31952380D01*
X32738095Y-32000000D01*
X32785714Y-32047619D01*
X32833333Y-32142857D01*
X32833333Y-32285714D01*
X32785714Y-32380952D01*
X32738095Y-32428571D01*
X32642857Y-32476190D01*
X32261904Y-32476190D01*
X33404761Y-32380952D02*
X33309523Y-32333333D01*
X33261904Y-32285714D01*
X33214285Y-32190476D01*
X33214285Y-32142857D01*
X33261904Y-32047619D01*
X33309523Y-32000000D01*
X33404761Y-31952380D01*
X33595238Y-31952380D01*
X33690476Y-32000000D01*
X33738095Y-32047619D01*
X33785714Y-32142857D01*
X33785714Y-32190476D01*
X33738095Y-32285714D01*
X33690476Y-32333333D01*
X33595238Y-32380952D01*
X33404761Y-32380952D01*
X33309523Y-32428571D01*
X33261904Y-32476190D01*
X33214285Y-32571428D01*
X33214285Y-32761904D01*
X33261904Y-32857142D01*
X33309523Y-32904761D01*
X33404761Y-32952380D01*
X33595238Y-32952380D01*
X33690476Y-32904761D01*
X33738095Y-32857142D01*
X33785714Y-32761904D01*
X33785714Y-32571428D01*
X33738095Y-32476190D01*
X33690476Y-32428571D01*
X33595238Y-32380952D01*
%TO.C,R1*%
X46361904Y-22883333D02*
X45980952Y-23150000D01*
X46361904Y-23340476D02*
X45561904Y-23340476D01*
X45561904Y-23035714D01*
X45600000Y-22959523D01*
X45638095Y-22921428D01*
X45714285Y-22883333D01*
X45828571Y-22883333D01*
X45904761Y-22921428D01*
X45942857Y-22959523D01*
X45980952Y-23035714D01*
X45980952Y-23340476D01*
X46361904Y-22121428D02*
X46361904Y-22578571D01*
X46361904Y-22350000D02*
X45561904Y-22350000D01*
X45676190Y-22426190D01*
X45752380Y-22502380D01*
X45790476Y-22578571D01*
%TO.C,R4*%
X47611904Y-27883333D02*
X47230952Y-28150000D01*
X47611904Y-28340476D02*
X46811904Y-28340476D01*
X46811904Y-28035714D01*
X46850000Y-27959523D01*
X46888095Y-27921428D01*
X46964285Y-27883333D01*
X47078571Y-27883333D01*
X47154761Y-27921428D01*
X47192857Y-27959523D01*
X47230952Y-28035714D01*
X47230952Y-28340476D01*
X47078571Y-27197619D02*
X47611904Y-27197619D01*
X46773809Y-27388095D02*
X47345238Y-27578571D01*
X47345238Y-27083333D01*
%TO.C,Q1*%
X46438095Y-25326190D02*
X46400000Y-25402380D01*
X46323809Y-25478571D01*
X46209523Y-25592857D01*
X46171428Y-25669047D01*
X46171428Y-25745238D01*
X46361904Y-25707142D02*
X46323809Y-25783333D01*
X46247619Y-25859523D01*
X46095238Y-25897619D01*
X45828571Y-25897619D01*
X45676190Y-25859523D01*
X45600000Y-25783333D01*
X45561904Y-25707142D01*
X45561904Y-25554761D01*
X45600000Y-25478571D01*
X45676190Y-25402380D01*
X45828571Y-25364285D01*
X46095238Y-25364285D01*
X46247619Y-25402380D01*
X46323809Y-25478571D01*
X46361904Y-25554761D01*
X46361904Y-25707142D01*
X46361904Y-24602380D02*
X46361904Y-25059523D01*
X46361904Y-24830952D02*
X45561904Y-24830952D01*
X45676190Y-24907142D01*
X45752380Y-24983333D01*
X45790476Y-25059523D01*
%TO.C,J2*%
X29422380Y-39833333D02*
X30136666Y-39833333D01*
X30279523Y-39880952D01*
X30374761Y-39976190D01*
X30422380Y-40119047D01*
X30422380Y-40214285D01*
X29517619Y-39404761D02*
X29470000Y-39357142D01*
X29422380Y-39261904D01*
X29422380Y-39023809D01*
X29470000Y-38928571D01*
X29517619Y-38880952D01*
X29612857Y-38833333D01*
X29708095Y-38833333D01*
X29850952Y-38880952D01*
X30422380Y-39452380D01*
X30422380Y-38833333D01*
%TO.C,R5*%
X28833333Y-32952380D02*
X28500000Y-32476190D01*
X28261904Y-32952380D02*
X28261904Y-31952380D01*
X28642857Y-31952380D01*
X28738095Y-32000000D01*
X28785714Y-32047619D01*
X28833333Y-32142857D01*
X28833333Y-32285714D01*
X28785714Y-32380952D01*
X28738095Y-32428571D01*
X28642857Y-32476190D01*
X28261904Y-32476190D01*
X29738095Y-31952380D02*
X29261904Y-31952380D01*
X29214285Y-32428571D01*
X29261904Y-32380952D01*
X29357142Y-32333333D01*
X29595238Y-32333333D01*
X29690476Y-32380952D01*
X29738095Y-32428571D01*
X29785714Y-32523809D01*
X29785714Y-32761904D01*
X29738095Y-32857142D01*
X29690476Y-32904761D01*
X29595238Y-32952380D01*
X29357142Y-32952380D01*
X29261904Y-32904761D01*
X29214285Y-32857142D01*
%TO.C,R10*%
X48861904Y-23264285D02*
X48480952Y-23530952D01*
X48861904Y-23721428D02*
X48061904Y-23721428D01*
X48061904Y-23416666D01*
X48100000Y-23340476D01*
X48138095Y-23302380D01*
X48214285Y-23264285D01*
X48328571Y-23264285D01*
X48404761Y-23302380D01*
X48442857Y-23340476D01*
X48480952Y-23416666D01*
X48480952Y-23721428D01*
X48861904Y-22502380D02*
X48861904Y-22959523D01*
X48861904Y-22730952D02*
X48061904Y-22730952D01*
X48176190Y-22807142D01*
X48252380Y-22883333D01*
X48290476Y-22959523D01*
X48061904Y-22007142D02*
X48061904Y-21930952D01*
X48100000Y-21854761D01*
X48138095Y-21816666D01*
X48214285Y-21778571D01*
X48366666Y-21740476D01*
X48557142Y-21740476D01*
X48709523Y-21778571D01*
X48785714Y-21816666D01*
X48823809Y-21854761D01*
X48861904Y-21930952D01*
X48861904Y-22007142D01*
X48823809Y-22083333D01*
X48785714Y-22121428D01*
X48709523Y-22159523D01*
X48557142Y-22197619D01*
X48366666Y-22197619D01*
X48214285Y-22159523D01*
X48138095Y-22121428D01*
X48100000Y-22083333D01*
X48061904Y-22007142D01*
%TO.C,C1*%
X25333333Y-44857142D02*
X25285714Y-44904761D01*
X25142857Y-44952380D01*
X25047619Y-44952380D01*
X24904761Y-44904761D01*
X24809523Y-44809523D01*
X24761904Y-44714285D01*
X24714285Y-44523809D01*
X24714285Y-44380952D01*
X24761904Y-44190476D01*
X24809523Y-44095238D01*
X24904761Y-44000000D01*
X25047619Y-43952380D01*
X25142857Y-43952380D01*
X25285714Y-44000000D01*
X25333333Y-44047619D01*
X26285714Y-44952380D02*
X25714285Y-44952380D01*
X26000000Y-44952380D02*
X26000000Y-43952380D01*
X25904761Y-44095238D01*
X25809523Y-44190476D01*
X25714285Y-44238095D01*
%TO.C,Y1*%
X21530809Y-44563190D02*
X21530809Y-45039380D01*
X21197476Y-44039380D02*
X21530809Y-44563190D01*
X21864142Y-44039380D01*
X22721285Y-45039380D02*
X22149857Y-45039380D01*
X22435571Y-45039380D02*
X22435571Y-44039380D01*
X22340333Y-44182238D01*
X22245095Y-44277476D01*
X22149857Y-44325095D01*
%TO.C,R3*%
X47611904Y-22883333D02*
X47230952Y-23150000D01*
X47611904Y-23340476D02*
X46811904Y-23340476D01*
X46811904Y-23035714D01*
X46850000Y-22959523D01*
X46888095Y-22921428D01*
X46964285Y-22883333D01*
X47078571Y-22883333D01*
X47154761Y-22921428D01*
X47192857Y-22959523D01*
X47230952Y-23035714D01*
X47230952Y-23340476D01*
X46811904Y-22616666D02*
X46811904Y-22121428D01*
X47116666Y-22388095D01*
X47116666Y-22273809D01*
X47154761Y-22197619D01*
X47192857Y-22159523D01*
X47269047Y-22121428D01*
X47459523Y-22121428D01*
X47535714Y-22159523D01*
X47573809Y-22197619D01*
X47611904Y-22273809D01*
X47611904Y-22502380D01*
X47573809Y-22578571D01*
X47535714Y-22616666D01*
%TO.C,C5*%
X23333333Y-38357142D02*
X23285714Y-38404761D01*
X23142857Y-38452380D01*
X23047619Y-38452380D01*
X22904761Y-38404761D01*
X22809523Y-38309523D01*
X22761904Y-38214285D01*
X22714285Y-38023809D01*
X22714285Y-37880952D01*
X22761904Y-37690476D01*
X22809523Y-37595238D01*
X22904761Y-37500000D01*
X23047619Y-37452380D01*
X23142857Y-37452380D01*
X23285714Y-37500000D01*
X23333333Y-37547619D01*
X24238095Y-37452380D02*
X23761904Y-37452380D01*
X23714285Y-37928571D01*
X23761904Y-37880952D01*
X23857142Y-37833333D01*
X24095238Y-37833333D01*
X24190476Y-37880952D01*
X24238095Y-37928571D01*
X24285714Y-38023809D01*
X24285714Y-38261904D01*
X24238095Y-38357142D01*
X24190476Y-38404761D01*
X24095238Y-38452380D01*
X23857142Y-38452380D01*
X23761904Y-38404761D01*
X23714285Y-38357142D01*
%TO.C,R2*%
X46361904Y-27883333D02*
X45980952Y-28150000D01*
X46361904Y-28340476D02*
X45561904Y-28340476D01*
X45561904Y-28035714D01*
X45600000Y-27959523D01*
X45638095Y-27921428D01*
X45714285Y-27883333D01*
X45828571Y-27883333D01*
X45904761Y-27921428D01*
X45942857Y-27959523D01*
X45980952Y-28035714D01*
X45980952Y-28340476D01*
X45638095Y-27578571D02*
X45600000Y-27540476D01*
X45561904Y-27464285D01*
X45561904Y-27273809D01*
X45600000Y-27197619D01*
X45638095Y-27159523D01*
X45714285Y-27121428D01*
X45790476Y-27121428D01*
X45904761Y-27159523D01*
X46361904Y-27616666D01*
X46361904Y-27121428D01*
%TO.C,C4*%
X23333333Y-28857142D02*
X23285714Y-28904761D01*
X23142857Y-28952380D01*
X23047619Y-28952380D01*
X22904761Y-28904761D01*
X22809523Y-28809523D01*
X22761904Y-28714285D01*
X22714285Y-28523809D01*
X22714285Y-28380952D01*
X22761904Y-28190476D01*
X22809523Y-28095238D01*
X22904761Y-28000000D01*
X23047619Y-27952380D01*
X23142857Y-27952380D01*
X23285714Y-28000000D01*
X23333333Y-28047619D01*
X24190476Y-28285714D02*
X24190476Y-28952380D01*
X23952380Y-27904761D02*
X23714285Y-28619047D01*
X24333333Y-28619047D01*
%TO.C,R7*%
X30833333Y-32952380D02*
X30500000Y-32476190D01*
X30261904Y-32952380D02*
X30261904Y-31952380D01*
X30642857Y-31952380D01*
X30738095Y-32000000D01*
X30785714Y-32047619D01*
X30833333Y-32142857D01*
X30833333Y-32285714D01*
X30785714Y-32380952D01*
X30738095Y-32428571D01*
X30642857Y-32476190D01*
X30261904Y-32476190D01*
X31166666Y-31952380D02*
X31833333Y-31952380D01*
X31404761Y-32952380D01*
%TO.C,R9*%
X34833333Y-32952380D02*
X34500000Y-32476190D01*
X34261904Y-32952380D02*
X34261904Y-31952380D01*
X34642857Y-31952380D01*
X34738095Y-32000000D01*
X34785714Y-32047619D01*
X34833333Y-32142857D01*
X34833333Y-32285714D01*
X34785714Y-32380952D01*
X34738095Y-32428571D01*
X34642857Y-32476190D01*
X34261904Y-32476190D01*
X35309523Y-32952380D02*
X35500000Y-32952380D01*
X35595238Y-32904761D01*
X35642857Y-32857142D01*
X35738095Y-32714285D01*
X35785714Y-32523809D01*
X35785714Y-32142857D01*
X35738095Y-32047619D01*
X35690476Y-32000000D01*
X35595238Y-31952380D01*
X35404761Y-31952380D01*
X35309523Y-32000000D01*
X35261904Y-32047619D01*
X35214285Y-32142857D01*
X35214285Y-32380952D01*
X35261904Y-32476190D01*
X35309523Y-32523809D01*
X35404761Y-32571428D01*
X35595238Y-32571428D01*
X35690476Y-32523809D01*
X35738095Y-32476190D01*
X35785714Y-32380952D01*
%TO.C,R11*%
X48861904Y-28264285D02*
X48480952Y-28530952D01*
X48861904Y-28721428D02*
X48061904Y-28721428D01*
X48061904Y-28416666D01*
X48100000Y-28340476D01*
X48138095Y-28302380D01*
X48214285Y-28264285D01*
X48328571Y-28264285D01*
X48404761Y-28302380D01*
X48442857Y-28340476D01*
X48480952Y-28416666D01*
X48480952Y-28721428D01*
X48861904Y-27502380D02*
X48861904Y-27959523D01*
X48861904Y-27730952D02*
X48061904Y-27730952D01*
X48176190Y-27807142D01*
X48252380Y-27883333D01*
X48290476Y-27959523D01*
X48861904Y-26740476D02*
X48861904Y-27197619D01*
X48861904Y-26969047D02*
X48061904Y-26969047D01*
X48176190Y-27045238D01*
X48252380Y-27121428D01*
X48290476Y-27197619D01*
D10*
%TO.C,C2*%
X27094252Y-56265000D02*
X26571748Y-56265000D01*
X27094252Y-57735000D02*
X26571748Y-57735000D01*
%TO.C,Q2*%
X44060000Y-33000000D02*
X44060000Y-33650000D01*
X40940000Y-33000000D02*
X40940000Y-34675000D01*
X44060000Y-33000000D02*
X44060000Y-32350000D01*
X40940000Y-33000000D02*
X40940000Y-32350000D01*
%TO.C,U3*%
X21940000Y-33000000D02*
X21940000Y-32350000D01*
X25060000Y-33000000D02*
X25060000Y-32350000D01*
X21940000Y-33000000D02*
X21940000Y-34675000D01*
X25060000Y-33000000D02*
X25060000Y-33650000D01*
D11*
%TO.C,U1*%
X28175000Y-49675000D02*
X28175000Y-49375000D01*
X24825000Y-49675000D02*
X28175000Y-49675000D01*
X24825000Y-46325000D02*
X28175000Y-46325000D01*
X28175000Y-46325000D02*
X28175000Y-46625000D01*
X24825000Y-46550000D02*
X23600000Y-46550000D01*
X24825000Y-46325000D02*
X24825000Y-46550000D01*
X24825000Y-49675000D02*
X24825000Y-49375000D01*
D10*
%TO.C,U2*%
X45970000Y-55500000D02*
X48970000Y-55500000D01*
X31470000Y-72500000D02*
X28470000Y-69500000D01*
X28470000Y-72500000D02*
X31470000Y-72500000D01*
X45970000Y-72500000D02*
X48970000Y-72500000D01*
X28470000Y-55500000D02*
X28470000Y-58500000D01*
X48970000Y-72500000D02*
X48970000Y-69500000D01*
X48970000Y-55500000D02*
X48970000Y-58500000D01*
X28470000Y-69500000D02*
X28470000Y-72500000D01*
X28470000Y-55500000D02*
X31470000Y-55500000D01*
%TO.C,R6*%
X27735000Y-35227064D02*
X27735000Y-34772936D01*
X26265000Y-35227064D02*
X26265000Y-34772936D01*
%TO.C,Q3*%
X44940000Y-33000000D02*
X44940000Y-34675000D01*
X48060000Y-33000000D02*
X48060000Y-33650000D01*
X44940000Y-33000000D02*
X44940000Y-32350000D01*
X48060000Y-33000000D02*
X48060000Y-32350000D01*
%TO.C,C3*%
X28311252Y-42215000D02*
X27788748Y-42215000D01*
X28311252Y-43685000D02*
X27788748Y-43685000D01*
%TO.C,R8*%
X33735000Y-35227064D02*
X33735000Y-34772936D01*
X32265000Y-35227064D02*
X32265000Y-34772936D01*
%TO.C,R1*%
X38727064Y-30735000D02*
X38272936Y-30735000D01*
X38727064Y-29265000D02*
X38272936Y-29265000D01*
%TO.C,R4*%
X42727064Y-35265000D02*
X42272936Y-35265000D01*
X42727064Y-36735000D02*
X42272936Y-36735000D01*
%TO.C,Q1*%
X40060000Y-33000000D02*
X40060000Y-33650000D01*
X36940000Y-33000000D02*
X36940000Y-34675000D01*
X36940000Y-33000000D02*
X36940000Y-32350000D01*
X40060000Y-33000000D02*
X40060000Y-32350000D01*
%TO.C,J2*%
X46470000Y-40000000D02*
X46470000Y-38000000D01*
X30970000Y-42000000D02*
X30970000Y-38000000D01*
X46470000Y-38000000D02*
X44470000Y-38000000D01*
X46470000Y-54000000D02*
X46470000Y-52000000D01*
X30970000Y-38000000D02*
X34970000Y-38000000D01*
X44470000Y-54000000D02*
X46470000Y-54000000D01*
X47970000Y-53500000D02*
X48970000Y-53500000D01*
X48970000Y-53500000D02*
X48970000Y-41000000D01*
X48970000Y-41000000D02*
X47970000Y-41000000D01*
%TO.C,R5*%
X29735000Y-35227064D02*
X29735000Y-34772936D01*
X28265000Y-35227064D02*
X28265000Y-34772936D01*
%TO.C,R10*%
X46727064Y-29265000D02*
X46272936Y-29265000D01*
X46727064Y-30735000D02*
X46272936Y-30735000D01*
%TO.C,C1*%
X28311252Y-45785000D02*
X27788748Y-45785000D01*
X28311252Y-44315000D02*
X27788748Y-44315000D01*
%TO.C,Y1*%
X22875000Y-46575000D02*
X22875000Y-47925000D01*
X21125000Y-46575000D02*
X21125000Y-47925000D01*
%TO.C,R3*%
X42727064Y-30735000D02*
X42272936Y-30735000D01*
X42727064Y-29265000D02*
X42272936Y-29265000D01*
%TO.C,C5*%
X23761252Y-36735000D02*
X23238748Y-36735000D01*
X23761252Y-35265000D02*
X23238748Y-35265000D01*
%TO.C,R2*%
X38727064Y-36735000D02*
X38272936Y-36735000D01*
X38727064Y-35265000D02*
X38272936Y-35265000D01*
%TO.C,C4*%
X23761252Y-29265000D02*
X23238748Y-29265000D01*
X23761252Y-30735000D02*
X23238748Y-30735000D01*
%TO.C,R7*%
X31735000Y-35227064D02*
X31735000Y-34772936D01*
X30265000Y-35227064D02*
X30265000Y-34772936D01*
%TO.C,R9*%
X35735000Y-35227064D02*
X35735000Y-34772936D01*
X34265000Y-35227064D02*
X34265000Y-34772936D01*
%TO.C,R11*%
X46727064Y-35265000D02*
X46272936Y-35265000D01*
X46727064Y-36735000D02*
X46272936Y-36735000D01*
%TD*%
%LPC*%
D12*
%TO.C,REF\u002A\u002A*%
X35000000Y-75500000D03*
%TD*%
D13*
%TO.C,C2*%
X27783000Y-57000000D03*
X25883000Y-57000000D03*
%TD*%
D14*
%TO.C,Q2*%
X41550000Y-33937500D03*
X43450000Y-33937500D03*
X42500000Y-32062500D03*
%TD*%
%TO.C,U3*%
X22550000Y-33937500D03*
X24450000Y-33937500D03*
X23500000Y-32062500D03*
%TD*%
D15*
%TO.C,U1*%
X24300000Y-47000000D03*
X24300000Y-47500000D03*
X24300000Y-48000000D03*
X24300000Y-48500000D03*
X24300000Y-49000000D03*
X28700000Y-49000000D03*
X28700000Y-48500000D03*
X28700000Y-48000000D03*
X28700000Y-47500000D03*
X28700000Y-47000000D03*
%TD*%
D16*
%TO.C,U2*%
X29470000Y-59555000D03*
X29470000Y-60825000D03*
X29470000Y-62095000D03*
X29470000Y-63365000D03*
X29470000Y-64635000D03*
X29470000Y-65905000D03*
X29470000Y-67175000D03*
X29470000Y-68445000D03*
D17*
X41970000Y-56500000D03*
X39470000Y-71500000D03*
%TD*%
D18*
%TO.C,R6*%
X27000000Y-35912500D03*
X27000000Y-34087500D03*
%TD*%
D14*
%TO.C,Q3*%
X45550000Y-33937500D03*
X47450000Y-33937500D03*
X46500000Y-32062500D03*
%TD*%
D13*
%TO.C,C3*%
X29000000Y-42950000D03*
X27100000Y-42950000D03*
%TD*%
D18*
%TO.C,R8*%
X33000000Y-35912500D03*
X33000000Y-34087500D03*
%TD*%
D19*
%TO.C,R1*%
X39412500Y-30000000D03*
X37587500Y-30000000D03*
%TD*%
%TO.C,R4*%
X43412500Y-36000000D03*
X41587500Y-36000000D03*
%TD*%
D14*
%TO.C,Q1*%
X37550000Y-33937500D03*
X39450000Y-33937500D03*
X38500000Y-32062500D03*
%TD*%
D20*
%TO.C,J2*%
X42070000Y-50950000D03*
X42070000Y-42950000D03*
D21*
X31470000Y-43750000D03*
X31470000Y-44850000D03*
X31470000Y-45950000D03*
X31470000Y-47050000D03*
X31470000Y-48150000D03*
X31470000Y-49250000D03*
X31470000Y-50350000D03*
X31470000Y-51450000D03*
X31470000Y-52550000D03*
D22*
X32070000Y-39150000D03*
D23*
X41670000Y-53750000D03*
X41670000Y-38250000D03*
D22*
X32070000Y-54000000D03*
%TD*%
D18*
%TO.C,R5*%
X29000000Y-35912500D03*
X29000000Y-34087500D03*
%TD*%
D19*
%TO.C,R10*%
X47412500Y-30000000D03*
X45587500Y-30000000D03*
%TD*%
D13*
%TO.C,C1*%
X29000000Y-45050000D03*
X27100000Y-45050000D03*
%TD*%
D24*
%TO.C,Y1*%
X22000000Y-48500000D03*
X22000000Y-46000000D03*
%TD*%
D19*
%TO.C,R3*%
X43412500Y-30000000D03*
X41587500Y-30000000D03*
%TD*%
D13*
%TO.C,C5*%
X24450000Y-36000000D03*
X22550000Y-36000000D03*
%TD*%
D19*
%TO.C,R2*%
X39412500Y-36000000D03*
X37587500Y-36000000D03*
%TD*%
D13*
%TO.C,C4*%
X24450000Y-30000000D03*
X22550000Y-30000000D03*
%TD*%
D18*
%TO.C,R7*%
X31000000Y-35912500D03*
X31000000Y-34087500D03*
%TD*%
%TO.C,R9*%
X35000000Y-35912500D03*
X35000000Y-34087500D03*
%TD*%
D19*
%TO.C,R11*%
X47412500Y-36000000D03*
X45587500Y-36000000D03*
%TD*%
D25*
%TO.C,J1*%
X43890000Y-26770000D03*
D26*
X43890000Y-24230000D03*
X41350000Y-26770000D03*
X41350000Y-24230000D03*
X38810000Y-26770000D03*
X38810000Y-24230000D03*
X36270000Y-26770000D03*
X36270000Y-24230000D03*
X33730000Y-26770000D03*
X33730000Y-24230000D03*
X31190000Y-26770000D03*
X31190000Y-24230000D03*
X28650000Y-26770000D03*
X28650000Y-24230000D03*
X26110000Y-26770000D03*
X26110000Y-24230000D03*
%TD*%
M02*
