%TF.GenerationSoftware,KiCad,Pcbnew,(6.0.9)*%
%TF.CreationDate,2022-12-02T21:30:47+00:00*%
%TF.ProjectId,SPIRadioCFRTC,53504952-6164-4696-9f43-465254432e6b,rev?*%
%TF.SameCoordinates,Original*%
%TF.FileFunction,Copper,L1,Top*%
%TF.FilePolarity,Positive*%
%FSLAX46Y46*%
G04 Gerber Fmt 4.6, Leading zero omitted, Abs format (unit mm)*
G04 Created by KiCad (PCBNEW (6.0.9)) date 2022-12-02 21:30:47*
%MOMM*%
%LPD*%
G01*
G04 APERTURE LIST*
G04 Aperture macros list*
%AMRoundRect*
0 Rectangle with rounded corners*
0 $1 Rounding radius*
0 $2 $3 $4 $5 $6 $7 $8 $9 X,Y pos of 4 corners*
0 Add a 4 corners polygon primitive as box body*
4,1,4,$2,$3,$4,$5,$6,$7,$8,$9,$2,$3,0*
0 Add four circle primitives for the rounded corners*
1,1,$1+$1,$2,$3*
1,1,$1+$1,$4,$5*
1,1,$1+$1,$6,$7*
1,1,$1+$1,$8,$9*
0 Add four rect primitives between the rounded corners*
20,1,$1+$1,$2,$3,$4,$5,0*
20,1,$1+$1,$4,$5,$6,$7,0*
20,1,$1+$1,$6,$7,$8,$9,0*
20,1,$1+$1,$8,$9,$2,$3,0*%
G04 Aperture macros list end*
%TA.AperFunction,SMDPad,CuDef*%
%ADD10RoundRect,0.250000X0.250000X0.475000X-0.250000X0.475000X-0.250000X-0.475000X0.250000X-0.475000X0*%
%TD*%
%TA.AperFunction,SMDPad,CuDef*%
%ADD11RoundRect,0.150000X0.150000X-0.587500X0.150000X0.587500X-0.150000X0.587500X-0.150000X-0.587500X0*%
%TD*%
%TA.AperFunction,SMDPad,CuDef*%
%ADD12R,1.400000X0.300000*%
%TD*%
%TA.AperFunction,SMDPad,CuDef*%
%ADD13R,4.000000X1.000000*%
%TD*%
%TA.AperFunction,SMDPad,CuDef*%
%ADD14R,3.000000X3.000000*%
%TD*%
%TA.AperFunction,SMDPad,CuDef*%
%ADD15RoundRect,0.250000X0.450000X-0.262500X0.450000X0.262500X-0.450000X0.262500X-0.450000X-0.262500X0*%
%TD*%
%TA.AperFunction,SMDPad,CuDef*%
%ADD16RoundRect,0.250000X0.262500X0.450000X-0.262500X0.450000X-0.262500X-0.450000X0.262500X-0.450000X0*%
%TD*%
%TA.AperFunction,SMDPad,CuDef*%
%ADD17R,1.400000X0.700000*%
%TD*%
%TA.AperFunction,SMDPad,CuDef*%
%ADD18R,1.400000X1.600000*%
%TD*%
%TA.AperFunction,SMDPad,CuDef*%
%ADD19R,2.200000X1.200000*%
%TD*%
%TA.AperFunction,SMDPad,CuDef*%
%ADD20R,1.800000X1.000000*%
%TD*%
%TA.AperFunction,ComponentPad*%
%ADD21R,1.700000X1.700000*%
%TD*%
%TA.AperFunction,ComponentPad*%
%ADD22O,1.700000X1.700000*%
%TD*%
%TA.AperFunction,ViaPad*%
%ADD23C,0.800000*%
%TD*%
%TA.AperFunction,ViaPad*%
%ADD24C,0.600000*%
%TD*%
%TA.AperFunction,Conductor*%
%ADD25C,0.635000*%
%TD*%
%TA.AperFunction,Conductor*%
%ADD26C,1.270000*%
%TD*%
%TA.AperFunction,Conductor*%
%ADD27C,0.250000*%
%TD*%
G04 APERTURE END LIST*
D10*
%TO.P,C2,1*%
%TO.N,+3V3*%
X27783000Y-57000000D03*
%TO.P,C2,2*%
%TO.N,GND*%
X25883000Y-57000000D03*
%TD*%
D11*
%TO.P,Q2,1,G*%
%TO.N,+3V3*%
X41550000Y-33937500D03*
%TO.P,Q2,2,S*%
%TO.N,MOSI*%
X43450000Y-33937500D03*
%TO.P,Q2,3,D*%
%TO.N,IN-MOSI*%
X42500000Y-32062500D03*
%TD*%
%TO.P,U3,1,GND*%
%TO.N,GND*%
X22550000Y-33937500D03*
%TO.P,U3,2,VO*%
%TO.N,+3V3*%
X24450000Y-33937500D03*
%TO.P,U3,3,VI*%
%TO.N,+5V*%
X23500000Y-32062500D03*
%TD*%
D12*
%TO.P,U1,1,X1*%
%TO.N,Net-(U1-Pad1)*%
X24300000Y-47000000D03*
%TO.P,U1,2,X2*%
%TO.N,Net-(U1-Pad2)*%
X24300000Y-47500000D03*
%TO.P,U1,3,VBAT*%
%TO.N,+BATT*%
X24300000Y-48000000D03*
%TO.P,U1,4,~{CS}*%
%TO.N,RTC-CS*%
X24300000Y-48500000D03*
%TO.P,U1,5,GND*%
%TO.N,GND*%
X24300000Y-49000000D03*
%TO.P,U1,6,MOSI*%
%TO.N,MOSI*%
X28700000Y-49000000D03*
%TO.P,U1,7,MISO*%
%TO.N,MISO*%
X28700000Y-48500000D03*
%TO.P,U1,8,SCLK*%
%TO.N,SCLK*%
X28700000Y-48000000D03*
%TO.P,U1,9,~{INT}*%
%TO.N,INT*%
X28700000Y-47500000D03*
%TO.P,U1,10,VCC*%
%TO.N,+3V3*%
X28700000Y-47000000D03*
%TD*%
D13*
%TO.P,U2,1,VCC*%
%TO.N,+3V3*%
X29470000Y-59555000D03*
%TO.P,U2,2,CE*%
%TO.N,NF24-CE*%
X29470000Y-60825000D03*
%TO.P,U2,3,~{CS}*%
%TO.N,NF24-CS*%
X29470000Y-62095000D03*
%TO.P,U2,4,SCLK*%
%TO.N,SCLK*%
X29470000Y-63365000D03*
%TO.P,U2,5,MOSI*%
%TO.N,MOSI*%
X29470000Y-64635000D03*
%TO.P,U2,6,MISO*%
%TO.N,MISO*%
X29470000Y-65905000D03*
%TO.P,U2,7,~{IRQ}*%
%TO.N,INT*%
X29470000Y-67175000D03*
%TO.P,U2,8,GND*%
%TO.N,GND*%
X29470000Y-68445000D03*
D14*
%TO.P,U2,MP*%
%TO.N,N/C*%
X41970000Y-56500000D03*
X39470000Y-71500000D03*
%TD*%
D15*
%TO.P,R6,1*%
%TO.N,RTC-CS*%
X27000000Y-35912500D03*
%TO.P,R6,2*%
%TO.N,+3V3*%
X27000000Y-34087500D03*
%TD*%
D11*
%TO.P,Q3,1,G*%
%TO.N,+3V3*%
X45550000Y-33937500D03*
%TO.P,Q3,2,S*%
%TO.N,MISO*%
X47450000Y-33937500D03*
%TO.P,Q3,3,D*%
%TO.N,IN-MISO*%
X46500000Y-32062500D03*
%TD*%
D10*
%TO.P,C3,1*%
%TO.N,+3V3*%
X29000000Y-42950000D03*
%TO.P,C3,2*%
%TO.N,GND*%
X27100000Y-42950000D03*
%TD*%
D15*
%TO.P,R8,1*%
%TO.N,NF24-CE*%
X33000000Y-35912500D03*
%TO.P,R8,2*%
%TO.N,+3V3*%
X33000000Y-34087500D03*
%TD*%
D16*
%TO.P,R1,1*%
%TO.N,IN-SCLK*%
X39412500Y-30000000D03*
%TO.P,R1,2*%
%TO.N,+5V*%
X37587500Y-30000000D03*
%TD*%
%TO.P,R4,1*%
%TO.N,MOSI*%
X43412500Y-36000000D03*
%TO.P,R4,2*%
%TO.N,+3V3*%
X41587500Y-36000000D03*
%TD*%
D11*
%TO.P,Q1,1,G*%
%TO.N,+3V3*%
X37550000Y-33937500D03*
%TO.P,Q1,2,S*%
%TO.N,SCLK*%
X39450000Y-33937500D03*
%TO.P,Q1,3,D*%
%TO.N,IN-SCLK*%
X38500000Y-32062500D03*
%TD*%
D17*
%TO.P,J2,1,DAT2*%
%TO.N,unconnected-(J2-Pad1)*%
X31470000Y-43750000D03*
%TO.P,J2,2,DAT3/CD*%
%TO.N,SD-CS*%
X31470000Y-44850000D03*
%TO.P,J2,3,CMD*%
%TO.N,MOSI*%
X31470000Y-45950000D03*
%TO.P,J2,4,VDD*%
%TO.N,+3V3*%
X31470000Y-47050000D03*
%TO.P,J2,5,CLK*%
%TO.N,SCLK*%
X31470000Y-48150000D03*
%TO.P,J2,6,VSS*%
%TO.N,GND*%
X31470000Y-49250000D03*
%TO.P,J2,7,DAT0*%
%TO.N,MISO*%
X31470000Y-50350000D03*
%TO.P,J2,8,DAT1*%
%TO.N,unconnected-(J2-Pad8)*%
X31470000Y-51450000D03*
%TO.P,J2,9,DET*%
%TO.N,unconnected-(J2-Pad9)*%
X31470000Y-52550000D03*
D18*
%TO.P,J2,MP*%
%TO.N,N/C*%
X32070000Y-39150000D03*
D19*
X41670000Y-53750000D03*
X41670000Y-38250000D03*
D18*
X32070000Y-54000000D03*
%TD*%
D15*
%TO.P,R5,1*%
%TO.N,SD-CS*%
X29000000Y-35912500D03*
%TO.P,R5,2*%
%TO.N,+3V3*%
X29000000Y-34087500D03*
%TD*%
D16*
%TO.P,R10,1*%
%TO.N,IN-MISO*%
X47412500Y-30000000D03*
%TO.P,R10,2*%
%TO.N,+5V*%
X45587500Y-30000000D03*
%TD*%
D10*
%TO.P,C1,1*%
%TO.N,+3V3*%
X29000000Y-45050000D03*
%TO.P,C1,2*%
%TO.N,GND*%
X27100000Y-45050000D03*
%TD*%
D20*
%TO.P,Y1,1,1*%
%TO.N,Net-(U1-Pad2)*%
X22000000Y-48500000D03*
%TO.P,Y1,2,2*%
%TO.N,Net-(U1-Pad1)*%
X22000000Y-46000000D03*
%TD*%
D16*
%TO.P,R3,1*%
%TO.N,IN-MOSI*%
X43412500Y-30000000D03*
%TO.P,R3,2*%
%TO.N,+5V*%
X41587500Y-30000000D03*
%TD*%
D10*
%TO.P,C5,1*%
%TO.N,+3V3*%
X24450000Y-36000000D03*
%TO.P,C5,2*%
%TO.N,GND*%
X22550000Y-36000000D03*
%TD*%
D16*
%TO.P,R2,1*%
%TO.N,SCLK*%
X39412500Y-36000000D03*
%TO.P,R2,2*%
%TO.N,+3V3*%
X37587500Y-36000000D03*
%TD*%
D10*
%TO.P,C4,1*%
%TO.N,+5V*%
X24450000Y-30000000D03*
%TO.P,C4,2*%
%TO.N,GND*%
X22550000Y-30000000D03*
%TD*%
D15*
%TO.P,R7,1*%
%TO.N,NF24-CS*%
X31000000Y-35912500D03*
%TO.P,R7,2*%
%TO.N,+3V3*%
X31000000Y-34087500D03*
%TD*%
%TO.P,R9,1*%
%TO.N,INT*%
X35000000Y-35912500D03*
%TO.P,R9,2*%
%TO.N,+3V3*%
X35000000Y-34087500D03*
%TD*%
D16*
%TO.P,R11,1*%
%TO.N,MISO*%
X47412500Y-36000000D03*
%TO.P,R11,2*%
%TO.N,+3V3*%
X45587500Y-36000000D03*
%TD*%
D21*
%TO.P,J1,1,Pin_1*%
%TO.N,GND*%
X43890000Y-26770000D03*
D22*
%TO.P,J1,2,Pin_2*%
%TO.N,IN-MISO*%
X43890000Y-24230000D03*
%TO.P,J1,3,Pin_3*%
%TO.N,GND*%
X41350000Y-26770000D03*
%TO.P,J1,4,Pin_4*%
%TO.N,IN-MOSI*%
X41350000Y-24230000D03*
%TO.P,J1,5,Pin_5*%
%TO.N,GND*%
X38810000Y-26770000D03*
%TO.P,J1,6,Pin_6*%
%TO.N,IN-SCLK*%
X38810000Y-24230000D03*
%TO.P,J1,7,Pin_7*%
%TO.N,GND*%
X36270000Y-26770000D03*
%TO.P,J1,8,Pin_8*%
%TO.N,INT*%
X36270000Y-24230000D03*
%TO.P,J1,9,Pin_9*%
%TO.N,+5V*%
X33730000Y-26770000D03*
%TO.P,J1,10,Pin_10*%
%TO.N,NF24-CE*%
X33730000Y-24230000D03*
%TO.P,J1,11,Pin_11*%
%TO.N,+5V*%
X31190000Y-26770000D03*
%TO.P,J1,12,Pin_12*%
%TO.N,NF24-CS*%
X31190000Y-24230000D03*
%TO.P,J1,13,Pin_13*%
%TO.N,+5V*%
X28650000Y-26770000D03*
%TO.P,J1,14,Pin_14*%
%TO.N,SD-CS*%
X28650000Y-24230000D03*
%TO.P,J1,15,Pin_15*%
%TO.N,+5V*%
X26110000Y-26770000D03*
%TO.P,J1,16,Pin_16*%
%TO.N,RTC-CS*%
X26110000Y-24230000D03*
%TD*%
D23*
%TO.N,GND*%
X22000000Y-65750000D03*
X22000000Y-63250000D03*
X22000000Y-70750000D03*
X22000000Y-68250000D03*
X46750000Y-50750000D03*
X46750000Y-48250000D03*
X48000000Y-47000000D03*
X48000000Y-49500000D03*
X45500000Y-49500000D03*
X44250000Y-48250000D03*
X45500000Y-47000000D03*
X44250000Y-50750000D03*
X44250000Y-43250000D03*
X46750000Y-43250000D03*
X44250000Y-45750000D03*
X46750000Y-45750000D03*
X45500000Y-44500000D03*
X48000000Y-42000000D03*
X45500000Y-42000000D03*
X48000000Y-44500000D03*
X46750000Y-72000000D03*
X46750000Y-69500000D03*
X48000000Y-68250000D03*
X48000000Y-70750000D03*
X45500000Y-70750000D03*
X44250000Y-69500000D03*
X45500000Y-68250000D03*
X44250000Y-72000000D03*
X44250000Y-64500000D03*
X46750000Y-64500000D03*
X44250000Y-67000000D03*
X46750000Y-67000000D03*
X45500000Y-65750000D03*
X48000000Y-63250000D03*
X45500000Y-63250000D03*
X48000000Y-65750000D03*
X25750000Y-69500000D03*
X23250000Y-69500000D03*
X24500000Y-68250000D03*
X23250000Y-72000000D03*
X25750000Y-72000000D03*
X24500000Y-70750000D03*
X25750000Y-67000000D03*
X23250000Y-67000000D03*
X24500000Y-65750000D03*
X25750000Y-64500000D03*
X23250000Y-64500000D03*
X24500000Y-63250000D03*
X33500000Y-54250000D03*
X33100000Y-51500000D03*
X31278000Y-30998000D03*
X33818000Y-30998000D03*
X31278000Y-32522000D03*
X28738000Y-32522000D03*
X26198000Y-29474000D03*
X28738000Y-29474000D03*
X26198000Y-30998000D03*
X33818000Y-29474000D03*
X31278000Y-29474000D03*
X26198000Y-32522000D03*
X36358000Y-30998000D03*
X33100000Y-49200000D03*
X28738000Y-30998000D03*
X36358000Y-32522000D03*
X36358000Y-29474000D03*
X33818000Y-32522000D03*
%TO.N,+3V3*%
X34500000Y-59500000D03*
X42500000Y-34000000D03*
X46500000Y-34000000D03*
X38500000Y-34000000D03*
X34500000Y-47000000D03*
%TO.N,SCLK*%
X38500000Y-48000000D03*
X39500000Y-37500000D03*
X38500000Y-63000000D03*
%TO.N,IN-SCLK*%
X39406250Y-31156250D03*
D24*
%TO.N,MOSI*%
X32900000Y-46000000D03*
D23*
X39500000Y-64500000D03*
D24*
X27500000Y-49000000D03*
D23*
X43500000Y-37500000D03*
X39500000Y-46000000D03*
%TO.N,IN-MOSI*%
X43406250Y-31156250D03*
%TO.N,MISO*%
X47000000Y-37500000D03*
X40500000Y-50000000D03*
X40500000Y-65500000D03*
%TO.N,IN-MISO*%
X47406250Y-31156250D03*
%TO.N,SD-CS*%
X34500000Y-44500000D03*
X29000000Y-37500000D03*
%TO.N,RTC-CS*%
X27000000Y-37500000D03*
D24*
X25500000Y-45500000D03*
D23*
%TO.N,NF24-CS*%
X31000000Y-37500000D03*
X35500000Y-61742000D03*
%TO.N,NF24-CE*%
X33000000Y-37500000D03*
X36500000Y-60500000D03*
D24*
%TO.N,INT*%
X27500000Y-47500000D03*
D23*
X37500000Y-67000000D03*
D24*
X35597992Y-41402008D03*
X33000000Y-44000000D03*
D23*
X35000000Y-37500000D03*
D24*
%TO.N,+BATT*%
X23250000Y-52750000D03*
%TD*%
D25*
%TO.N,+3V3*%
X29000000Y-41500000D02*
X29000000Y-42950000D01*
D26*
%TO.N,+5V*%
X31190000Y-26770000D02*
X28650000Y-26770000D01*
D25*
X41587500Y-30000000D02*
X41587500Y-29087500D01*
X45587500Y-29087500D02*
X45000000Y-28500000D01*
X41587500Y-29087500D02*
X41000000Y-28500000D01*
X24450000Y-27550000D02*
X25230000Y-26770000D01*
X23500000Y-31500000D02*
X23500000Y-32062500D01*
X37000000Y-28500000D02*
X35460000Y-28500000D01*
X45000000Y-28500000D02*
X41000000Y-28500000D01*
X35460000Y-28500000D02*
X33730000Y-26770000D01*
X24450000Y-30000000D02*
X24450000Y-30550000D01*
X24450000Y-30550000D02*
X23500000Y-31500000D01*
X37587500Y-30000000D02*
X37587500Y-29087500D01*
X24450000Y-30000000D02*
X24450000Y-27550000D01*
D26*
X33730000Y-26770000D02*
X31190000Y-26770000D01*
D25*
X37587500Y-29087500D02*
X37000000Y-28500000D01*
X41000000Y-28500000D02*
X37000000Y-28500000D01*
X45587500Y-30000000D02*
X45587500Y-29087500D01*
X25230000Y-26770000D02*
X26110000Y-26770000D01*
D26*
X28650000Y-26770000D02*
X26110000Y-26770000D01*
D27*
%TO.N,GND*%
X24300000Y-49000000D02*
X24300000Y-49800000D01*
D25*
%TO.N,+3V3*%
X41550000Y-35962500D02*
X41587500Y-36000000D01*
X29000000Y-42950000D02*
X29000000Y-45050000D01*
X31470000Y-47050000D02*
X34450000Y-47050000D01*
X29470000Y-59555000D02*
X34445000Y-59555000D01*
X38437500Y-33937500D02*
X38500000Y-34000000D01*
D27*
X28700000Y-47000000D02*
X30000000Y-47000000D01*
D25*
X45612500Y-34000000D02*
X45550000Y-33937500D01*
X35000000Y-34087500D02*
X33000000Y-34087500D01*
X42500000Y-34000000D02*
X41612500Y-34000000D01*
X45550000Y-33937500D02*
X45550000Y-35962500D01*
X34450000Y-47050000D02*
X34500000Y-47000000D01*
X29000000Y-45050000D02*
X29000000Y-46000000D01*
X27000000Y-34087500D02*
X24575000Y-34087500D01*
X35000000Y-34087500D02*
X37400000Y-34087500D01*
X24575000Y-34087500D02*
X24437500Y-33950000D01*
X37550000Y-33937500D02*
X38437500Y-33937500D01*
X45550000Y-35962500D02*
X45587500Y-36000000D01*
X34445000Y-59555000D02*
X34500000Y-59500000D01*
D27*
X30000000Y-47000000D02*
X30050000Y-47050000D01*
D25*
X29470000Y-57470000D02*
X29000000Y-57000000D01*
X27000000Y-34087500D02*
X29000000Y-34087500D01*
X37550000Y-35962500D02*
X37587500Y-36000000D01*
X37550000Y-33937500D02*
X37550000Y-35962500D01*
X29000000Y-57000000D02*
X27950000Y-57000000D01*
X24450000Y-36950000D02*
X29000000Y-41500000D01*
X41612500Y-34000000D02*
X41550000Y-33937500D01*
X30050000Y-47050000D02*
X31470000Y-47050000D01*
X29470000Y-59555000D02*
X29470000Y-57470000D01*
X41550000Y-33937500D02*
X41550000Y-35962500D01*
X37400000Y-34087500D02*
X37550000Y-33937500D01*
X24437500Y-35987500D02*
X24450000Y-36000000D01*
X29000000Y-46000000D02*
X30050000Y-47050000D01*
X46500000Y-34000000D02*
X45612500Y-34000000D01*
X24450000Y-36000000D02*
X24450000Y-36950000D01*
X29000000Y-34087500D02*
X31000000Y-34087500D01*
X24437500Y-33950000D02*
X24437500Y-35987500D01*
X33000000Y-34087500D02*
X31000000Y-34087500D01*
%TO.N,SCLK*%
X38350000Y-48150000D02*
X38500000Y-48000000D01*
D27*
X31320000Y-48000000D02*
X31470000Y-48150000D01*
D25*
X39412500Y-37412500D02*
X39500000Y-37500000D01*
X39450000Y-35962500D02*
X39412500Y-36000000D01*
X29470000Y-63365000D02*
X38135000Y-63365000D01*
D27*
X28700000Y-48000000D02*
X31320000Y-48000000D01*
D25*
X31470000Y-48150000D02*
X38350000Y-48150000D01*
X38135000Y-63365000D02*
X38500000Y-63000000D01*
X39450000Y-33937500D02*
X39450000Y-35962500D01*
X39412500Y-36000000D02*
X39412500Y-37412500D01*
%TO.N,IN-SCLK*%
X39406250Y-31156250D02*
X38500000Y-32062500D01*
X39412500Y-30000000D02*
X39412500Y-31150000D01*
X39412500Y-31150000D02*
X39406250Y-31156250D01*
%TO.N,MOSI*%
X39365000Y-64635000D02*
X39500000Y-64500000D01*
X43412500Y-37412500D02*
X43500000Y-37500000D01*
X43412500Y-36000000D02*
X43412500Y-37412500D01*
X29470000Y-64635000D02*
X39365000Y-64635000D01*
D27*
X28700000Y-49000000D02*
X27500000Y-49000000D01*
D25*
X43450000Y-35962500D02*
X43412500Y-36000000D01*
X31470000Y-45950000D02*
X39450000Y-45950000D01*
X43450000Y-33937500D02*
X43450000Y-35962500D01*
X39450000Y-45950000D02*
X39500000Y-46000000D01*
%TO.N,IN-MOSI*%
X43406250Y-31156250D02*
X42500000Y-32062500D01*
X43412500Y-31150000D02*
X43406250Y-31156250D01*
X43412500Y-30000000D02*
X43412500Y-31150000D01*
D27*
%TO.N,MISO*%
X30300000Y-48600000D02*
X30300000Y-50130000D01*
X30520000Y-50350000D02*
X31470000Y-50350000D01*
X28700000Y-48500000D02*
X30200000Y-48500000D01*
D25*
X40150000Y-50350000D02*
X40500000Y-50000000D01*
D27*
X30300000Y-50130000D02*
X30520000Y-50350000D01*
X30200000Y-48500000D02*
X30300000Y-48600000D01*
D25*
X40095000Y-65905000D02*
X40500000Y-65500000D01*
X31470000Y-50350000D02*
X40150000Y-50350000D01*
X47412500Y-37087500D02*
X47000000Y-37500000D01*
X47450000Y-35962500D02*
X47412500Y-36000000D01*
X29470000Y-65905000D02*
X40095000Y-65905000D01*
X47412500Y-36000000D02*
X47412500Y-37087500D01*
X47450000Y-33937500D02*
X47450000Y-35962500D01*
%TO.N,IN-MISO*%
X47406250Y-31156250D02*
X46500000Y-32062500D01*
X47412500Y-31150000D02*
X47406250Y-31156250D01*
X47412500Y-30000000D02*
X47412500Y-31150000D01*
%TO.N,SD-CS*%
X31470000Y-44850000D02*
X34150000Y-44850000D01*
X34150000Y-44850000D02*
X34500000Y-44500000D01*
X29000000Y-35912500D02*
X29000000Y-37500000D01*
%TO.N,RTC-CS*%
X27000000Y-35912500D02*
X27000000Y-37500000D01*
D27*
X24300000Y-48500000D02*
X25299022Y-48500000D01*
X25500000Y-48299022D02*
X25500000Y-45500000D01*
X25299022Y-48500000D02*
X25500000Y-48299022D01*
D25*
%TO.N,NF24-CS*%
X35147000Y-62095000D02*
X35500000Y-61742000D01*
X31000000Y-35912500D02*
X31000000Y-37500000D01*
X29470000Y-62095000D02*
X35147000Y-62095000D01*
%TO.N,NF24-CE*%
X36175000Y-60825000D02*
X36500000Y-60500000D01*
X33000000Y-35912500D02*
X33000000Y-37500000D01*
X29470000Y-60825000D02*
X36175000Y-60825000D01*
%TO.N,INT*%
X37325000Y-67175000D02*
X37500000Y-67000000D01*
X29470000Y-67175000D02*
X37325000Y-67175000D01*
D27*
X28700000Y-47500000D02*
X27500000Y-47500000D01*
D25*
X35000000Y-35912500D02*
X35000000Y-37500000D01*
D27*
X33000000Y-44000000D02*
X35597992Y-41402008D01*
%TO.N,Net-(U1-Pad1)*%
X22500000Y-47000000D02*
X22000000Y-46500000D01*
X22000000Y-46500000D02*
X22000000Y-45750000D01*
X24300000Y-47000000D02*
X22500000Y-47000000D01*
%TO.N,Net-(U1-Pad2)*%
X22000000Y-48000000D02*
X22000000Y-48250000D01*
X22500000Y-47500000D02*
X22000000Y-48000000D01*
X24300000Y-47500000D02*
X22500000Y-47500000D01*
%TO.N,+BATT*%
X24300000Y-48000000D02*
X23300978Y-48000000D01*
X23250000Y-48050978D02*
X23250000Y-52750000D01*
X23300978Y-48000000D02*
X23250000Y-48050978D01*
%TD*%
%TA.AperFunction,Conductor*%
%TO.N,GND*%
G36*
X48470018Y-21010000D02*
G01*
X48484852Y-21012310D01*
X48484855Y-21012310D01*
X48493724Y-21013691D01*
X48502626Y-21012527D01*
X48502750Y-21012511D01*
X48533192Y-21012240D01*
X48540621Y-21013077D01*
X48595264Y-21019234D01*
X48622771Y-21025513D01*
X48699853Y-21052485D01*
X48725274Y-21064727D01*
X48794426Y-21108178D01*
X48816485Y-21125770D01*
X48874230Y-21183515D01*
X48891822Y-21205574D01*
X48935273Y-21274726D01*
X48947515Y-21300147D01*
X48974487Y-21377228D01*
X48980766Y-21404736D01*
X48987018Y-21460226D01*
X48986923Y-21475868D01*
X48987800Y-21475879D01*
X48987690Y-21484851D01*
X48986309Y-21493724D01*
X48987473Y-21502626D01*
X48987473Y-21502628D01*
X48990436Y-21525283D01*
X48991500Y-21541621D01*
X48991500Y-73450633D01*
X48990000Y-73470018D01*
X48986309Y-73493724D01*
X48987473Y-73502626D01*
X48987489Y-73502750D01*
X48987760Y-73533192D01*
X48985430Y-73553870D01*
X48980766Y-73595264D01*
X48974487Y-73622771D01*
X48947515Y-73699853D01*
X48935273Y-73725274D01*
X48891822Y-73794426D01*
X48874230Y-73816485D01*
X48816485Y-73874230D01*
X48794426Y-73891822D01*
X48725274Y-73935273D01*
X48699853Y-73947515D01*
X48622771Y-73974487D01*
X48595265Y-73980766D01*
X48585096Y-73981912D01*
X48541446Y-73986830D01*
X48516640Y-73987112D01*
X48512552Y-73986424D01*
X48506544Y-73986351D01*
X48506276Y-73986309D01*
X48506007Y-73986344D01*
X48500000Y-73986271D01*
X48495192Y-73986960D01*
X48492365Y-73987144D01*
X48484401Y-73987886D01*
X48109444Y-74004257D01*
X48109433Y-74004258D01*
X48106684Y-74004378D01*
X47911523Y-74030071D01*
X47719100Y-74055403D01*
X47719091Y-74055405D01*
X47716361Y-74055764D01*
X47713666Y-74056361D01*
X47713663Y-74056362D01*
X47575421Y-74087010D01*
X47332003Y-74140975D01*
X47329386Y-74141800D01*
X47329379Y-74141802D01*
X46959161Y-74258531D01*
X46959153Y-74258534D01*
X46956533Y-74259360D01*
X46592810Y-74410019D01*
X46243603Y-74591805D01*
X45911567Y-74803335D01*
X45909392Y-74805004D01*
X45601399Y-75041334D01*
X45601393Y-75041339D01*
X45599231Y-75042998D01*
X45308972Y-75308972D01*
X45042998Y-75599231D01*
X44803335Y-75911567D01*
X44591805Y-76243603D01*
X44410019Y-76592810D01*
X44259360Y-76956533D01*
X44258534Y-76959153D01*
X44258531Y-76959161D01*
X44179132Y-77210984D01*
X44140975Y-77332003D01*
X44140380Y-77334687D01*
X44064553Y-77676719D01*
X44055764Y-77716361D01*
X44004378Y-78106684D01*
X44004258Y-78109433D01*
X44004257Y-78109444D01*
X43988240Y-78476296D01*
X43987732Y-78481404D01*
X43987690Y-78484855D01*
X43986309Y-78493724D01*
X43987473Y-78502626D01*
X43987489Y-78502750D01*
X43987760Y-78533192D01*
X43986134Y-78547627D01*
X43980766Y-78595264D01*
X43974487Y-78622771D01*
X43947515Y-78699853D01*
X43935273Y-78725274D01*
X43891822Y-78794426D01*
X43874230Y-78816485D01*
X43816485Y-78874230D01*
X43794426Y-78891822D01*
X43725274Y-78935273D01*
X43699853Y-78947515D01*
X43622772Y-78974487D01*
X43595264Y-78980766D01*
X43539774Y-78987018D01*
X43524132Y-78986923D01*
X43524121Y-78987800D01*
X43515149Y-78987690D01*
X43506276Y-78986309D01*
X43497374Y-78987473D01*
X43497372Y-78987473D01*
X43486385Y-78988910D01*
X43474714Y-78990436D01*
X43458379Y-78991500D01*
X26549367Y-78991500D01*
X26529982Y-78990000D01*
X26515148Y-78987690D01*
X26515145Y-78987690D01*
X26506276Y-78986309D01*
X26497374Y-78987473D01*
X26497250Y-78987489D01*
X26466808Y-78987760D01*
X26446130Y-78985430D01*
X26404736Y-78980766D01*
X26377229Y-78974487D01*
X26300147Y-78947515D01*
X26274726Y-78935273D01*
X26205574Y-78891822D01*
X26183515Y-78874230D01*
X26125770Y-78816485D01*
X26108178Y-78794426D01*
X26064727Y-78725274D01*
X26052485Y-78699853D01*
X26025513Y-78622772D01*
X26019234Y-78595266D01*
X26018077Y-78584997D01*
X26013170Y-78541447D01*
X26012888Y-78516640D01*
X26013576Y-78512552D01*
X26013729Y-78500000D01*
X26013039Y-78495182D01*
X26012855Y-78492357D01*
X26012114Y-78484401D01*
X25995743Y-78109444D01*
X25995742Y-78109433D01*
X25995622Y-78106684D01*
X25944236Y-77716361D01*
X25935448Y-77676719D01*
X25859620Y-77334687D01*
X25859025Y-77332003D01*
X25820868Y-77210984D01*
X25741469Y-76959161D01*
X25741466Y-76959153D01*
X25740640Y-76956533D01*
X25589981Y-76592810D01*
X25408195Y-76243603D01*
X25196665Y-75911567D01*
X24957002Y-75599231D01*
X24915739Y-75554200D01*
X31894908Y-75554200D01*
X31921004Y-75905358D01*
X31986684Y-76251304D01*
X32091104Y-76587592D01*
X32232921Y-76909897D01*
X32410313Y-77214076D01*
X32620999Y-77496219D01*
X32623443Y-77498817D01*
X32623448Y-77498823D01*
X32825550Y-77713663D01*
X32862270Y-77752697D01*
X32864999Y-77755007D01*
X33054652Y-77915560D01*
X33131024Y-77980214D01*
X33133988Y-77982194D01*
X33133990Y-77982196D01*
X33335917Y-78117119D01*
X33423807Y-78175845D01*
X33426989Y-78177484D01*
X33426991Y-78177485D01*
X33733670Y-78335436D01*
X33733675Y-78335438D01*
X33736853Y-78337075D01*
X33740194Y-78338341D01*
X33740199Y-78338343D01*
X33971696Y-78426049D01*
X34066139Y-78461830D01*
X34069603Y-78462710D01*
X34069607Y-78462711D01*
X34403963Y-78547627D01*
X34403971Y-78547629D01*
X34407430Y-78548507D01*
X34579152Y-78571878D01*
X34753347Y-78595585D01*
X34753354Y-78595586D01*
X34756340Y-78595992D01*
X34871081Y-78600500D01*
X35089198Y-78600500D01*
X35230756Y-78592462D01*
X35347992Y-78585805D01*
X35347999Y-78585804D01*
X35351560Y-78585602D01*
X35489883Y-78561834D01*
X35695082Y-78526575D01*
X35695090Y-78526573D01*
X35698600Y-78525970D01*
X35702025Y-78524972D01*
X35702028Y-78524971D01*
X36033221Y-78428436D01*
X36036659Y-78427434D01*
X36361390Y-78291263D01*
X36564556Y-78177485D01*
X36665502Y-78120953D01*
X36665507Y-78120950D01*
X36668619Y-78119207D01*
X36671515Y-78117122D01*
X36671520Y-78117119D01*
X36818239Y-78011496D01*
X36954395Y-77913477D01*
X37128858Y-77755007D01*
X37212405Y-77679118D01*
X37212406Y-77679117D01*
X37215046Y-77676719D01*
X37447219Y-77411977D01*
X37647929Y-77122653D01*
X37814598Y-76812468D01*
X37945081Y-76485410D01*
X38037701Y-76145683D01*
X38091268Y-75797655D01*
X38100833Y-75554200D01*
X38104952Y-75449370D01*
X38104952Y-75449365D01*
X38105092Y-75445800D01*
X38078996Y-75094642D01*
X38013316Y-74748696D01*
X37908896Y-74412408D01*
X37907455Y-74409133D01*
X37768522Y-74093382D01*
X37768520Y-74093379D01*
X37767079Y-74090103D01*
X37589687Y-73785924D01*
X37379001Y-73503781D01*
X37376557Y-73501183D01*
X37376552Y-73501177D01*
X37140180Y-73249907D01*
X37140176Y-73249904D01*
X37137730Y-73247303D01*
X37019308Y-73147051D01*
X36902462Y-73048134D01*
X37461500Y-73048134D01*
X37468255Y-73110316D01*
X37519385Y-73246705D01*
X37606739Y-73363261D01*
X37723295Y-73450615D01*
X37859684Y-73501745D01*
X37921866Y-73508500D01*
X41018134Y-73508500D01*
X41080316Y-73501745D01*
X41216705Y-73450615D01*
X41333261Y-73363261D01*
X41420615Y-73246705D01*
X41471745Y-73110316D01*
X41478500Y-73048134D01*
X41478500Y-69951866D01*
X41471745Y-69889684D01*
X41420615Y-69753295D01*
X41333261Y-69636739D01*
X41216705Y-69549385D01*
X41080316Y-69498255D01*
X41018134Y-69491500D01*
X37921866Y-69491500D01*
X37859684Y-69498255D01*
X37723295Y-69549385D01*
X37606739Y-69636739D01*
X37519385Y-69753295D01*
X37468255Y-69889684D01*
X37461500Y-69951866D01*
X37461500Y-73048134D01*
X36902462Y-73048134D01*
X36871698Y-73022090D01*
X36871694Y-73022087D01*
X36868976Y-73019786D01*
X36576193Y-72824155D01*
X36573009Y-72822515D01*
X36266330Y-72664564D01*
X36266325Y-72664562D01*
X36263147Y-72662925D01*
X36259806Y-72661659D01*
X36259801Y-72661657D01*
X35937205Y-72539437D01*
X35937206Y-72539437D01*
X35933861Y-72538170D01*
X35930397Y-72537290D01*
X35930393Y-72537289D01*
X35596037Y-72452373D01*
X35596029Y-72452371D01*
X35592570Y-72451493D01*
X35420848Y-72428122D01*
X35246653Y-72404415D01*
X35246646Y-72404414D01*
X35243660Y-72404008D01*
X35128919Y-72399500D01*
X34910802Y-72399500D01*
X34769244Y-72407538D01*
X34652008Y-72414195D01*
X34652001Y-72414196D01*
X34648440Y-72414398D01*
X34510117Y-72438166D01*
X34304918Y-72473425D01*
X34304910Y-72473427D01*
X34301400Y-72474030D01*
X34297975Y-72475028D01*
X34297972Y-72475029D01*
X34084370Y-72537289D01*
X33963341Y-72572566D01*
X33638610Y-72708737D01*
X33484995Y-72794765D01*
X33334498Y-72879047D01*
X33334493Y-72879050D01*
X33331381Y-72880793D01*
X33328485Y-72882878D01*
X33328480Y-72882881D01*
X33181761Y-72988504D01*
X33045605Y-73086523D01*
X33042969Y-73088917D01*
X33042967Y-73088919D01*
X32865733Y-73249907D01*
X32784954Y-73323281D01*
X32678008Y-73445229D01*
X32622845Y-73508131D01*
X32552781Y-73588023D01*
X32550749Y-73590952D01*
X32550746Y-73590956D01*
X32528675Y-73622772D01*
X32352071Y-73877347D01*
X32350380Y-73880494D01*
X32350377Y-73880499D01*
X32256398Y-74055403D01*
X32185402Y-74187532D01*
X32054919Y-74514590D01*
X31962299Y-74854317D01*
X31961757Y-74857839D01*
X31915428Y-75158843D01*
X31908732Y-75202345D01*
X31908592Y-75205909D01*
X31899027Y-75449370D01*
X31894908Y-75554200D01*
X24915739Y-75554200D01*
X24691028Y-75308972D01*
X24400769Y-75042998D01*
X24398607Y-75041339D01*
X24398601Y-75041334D01*
X24090608Y-74805004D01*
X24088433Y-74803335D01*
X23756398Y-74591805D01*
X23407190Y-74410019D01*
X23043467Y-74259360D01*
X23040847Y-74258534D01*
X23040839Y-74258531D01*
X22670621Y-74141802D01*
X22670614Y-74141800D01*
X22667997Y-74140975D01*
X22424579Y-74087010D01*
X22286337Y-74056362D01*
X22286334Y-74056361D01*
X22283639Y-74055764D01*
X22280909Y-74055405D01*
X22280900Y-74055403D01*
X22088477Y-74030071D01*
X21893316Y-74004378D01*
X21530965Y-73988557D01*
X21522205Y-73987632D01*
X21522202Y-73987667D01*
X21517354Y-73987232D01*
X21512552Y-73986424D01*
X21506544Y-73986351D01*
X21506276Y-73986309D01*
X21506007Y-73986344D01*
X21500000Y-73986271D01*
X21495180Y-73986961D01*
X21490329Y-73987277D01*
X21490310Y-73986990D01*
X21463554Y-73987393D01*
X21404735Y-73980766D01*
X21377228Y-73974487D01*
X21300147Y-73947515D01*
X21274726Y-73935273D01*
X21205574Y-73891822D01*
X21183515Y-73874230D01*
X21125770Y-73816485D01*
X21108178Y-73794426D01*
X21064727Y-73725274D01*
X21052485Y-73699853D01*
X21025513Y-73622772D01*
X21019234Y-73595266D01*
X21013170Y-73541451D01*
X21012888Y-73516640D01*
X21013576Y-73512552D01*
X21013729Y-73500000D01*
X21009773Y-73472376D01*
X21008500Y-73454514D01*
X21008500Y-68989669D01*
X26962001Y-68989669D01*
X26962371Y-68996490D01*
X26967895Y-69047352D01*
X26971521Y-69062604D01*
X27016676Y-69183054D01*
X27025214Y-69198649D01*
X27101715Y-69300724D01*
X27114276Y-69313285D01*
X27216351Y-69389786D01*
X27231946Y-69398324D01*
X27352394Y-69443478D01*
X27367649Y-69447105D01*
X27418514Y-69452631D01*
X27425328Y-69453000D01*
X29197885Y-69453000D01*
X29213124Y-69448525D01*
X29214329Y-69447135D01*
X29216000Y-69439452D01*
X29216000Y-69434884D01*
X29724000Y-69434884D01*
X29728475Y-69450123D01*
X29729865Y-69451328D01*
X29737548Y-69452999D01*
X31514669Y-69452999D01*
X31521490Y-69452629D01*
X31572352Y-69447105D01*
X31587604Y-69443479D01*
X31708054Y-69398324D01*
X31723649Y-69389786D01*
X31825724Y-69313285D01*
X31838285Y-69300724D01*
X31914786Y-69198649D01*
X31923324Y-69183054D01*
X31968478Y-69062606D01*
X31972105Y-69047351D01*
X31977631Y-68996486D01*
X31978000Y-68989672D01*
X31978000Y-68717115D01*
X31973525Y-68701876D01*
X31972135Y-68700671D01*
X31964452Y-68699000D01*
X29742115Y-68699000D01*
X29726876Y-68703475D01*
X29725671Y-68704865D01*
X29724000Y-68712548D01*
X29724000Y-69434884D01*
X29216000Y-69434884D01*
X29216000Y-68717115D01*
X29211525Y-68701876D01*
X29210135Y-68700671D01*
X29202452Y-68699000D01*
X26980116Y-68699000D01*
X26964877Y-68703475D01*
X26963672Y-68704865D01*
X26962001Y-68712548D01*
X26962001Y-68989669D01*
X21008500Y-68989669D01*
X21008500Y-57522095D01*
X24875001Y-57522095D01*
X24875338Y-57528614D01*
X24885257Y-57624206D01*
X24888149Y-57637600D01*
X24939588Y-57791784D01*
X24945761Y-57804962D01*
X25031063Y-57942807D01*
X25040099Y-57954208D01*
X25154829Y-58068739D01*
X25166240Y-58077751D01*
X25304243Y-58162816D01*
X25317424Y-58168963D01*
X25471710Y-58220138D01*
X25485086Y-58223005D01*
X25579438Y-58232672D01*
X25585854Y-58233000D01*
X25610885Y-58233000D01*
X25626124Y-58228525D01*
X25627329Y-58227135D01*
X25629000Y-58219452D01*
X25629000Y-58214884D01*
X26137000Y-58214884D01*
X26141475Y-58230123D01*
X26142865Y-58231328D01*
X26150548Y-58232999D01*
X26180095Y-58232999D01*
X26186614Y-58232662D01*
X26282206Y-58222743D01*
X26295600Y-58219851D01*
X26449784Y-58168412D01*
X26462962Y-58162239D01*
X26600807Y-58076937D01*
X26612208Y-58067901D01*
X26726738Y-57953172D01*
X26733794Y-57944238D01*
X26791712Y-57903177D01*
X26862635Y-57899947D01*
X26924046Y-57935574D01*
X26930846Y-57943407D01*
X26934522Y-57949348D01*
X27059697Y-58074305D01*
X27065927Y-58078145D01*
X27065928Y-58078146D01*
X27203288Y-58162816D01*
X27210262Y-58167115D01*
X27290005Y-58193564D01*
X27371611Y-58220632D01*
X27371613Y-58220632D01*
X27378139Y-58222797D01*
X27384975Y-58223497D01*
X27384978Y-58223498D01*
X27428031Y-58227909D01*
X27482600Y-58233500D01*
X28083400Y-58233500D01*
X28086646Y-58233163D01*
X28086650Y-58233163D01*
X28182308Y-58223238D01*
X28182312Y-58223237D01*
X28189166Y-58222526D01*
X28195702Y-58220345D01*
X28195704Y-58220345D01*
X28327806Y-58176272D01*
X28356946Y-58166550D01*
X28451697Y-58107916D01*
X28520149Y-58089078D01*
X28587918Y-58110239D01*
X28633490Y-58164680D01*
X28644000Y-58215060D01*
X28644000Y-58420500D01*
X28623998Y-58488621D01*
X28570342Y-58535114D01*
X28518000Y-58546500D01*
X27421866Y-58546500D01*
X27359684Y-58553255D01*
X27223295Y-58604385D01*
X27106739Y-58691739D01*
X27019385Y-58808295D01*
X26968255Y-58944684D01*
X26961500Y-59006866D01*
X26961500Y-60103134D01*
X26968207Y-60164874D01*
X26968255Y-60165316D01*
X26968207Y-60165321D01*
X26968207Y-60214679D01*
X26968255Y-60214684D01*
X26961500Y-60276866D01*
X26961500Y-61373134D01*
X26968207Y-61434874D01*
X26968255Y-61435316D01*
X26968207Y-61435321D01*
X26968207Y-61484679D01*
X26968255Y-61484684D01*
X26961500Y-61546866D01*
X26961500Y-62643134D01*
X26968207Y-62704874D01*
X26968255Y-62705316D01*
X26968207Y-62705321D01*
X26968207Y-62754679D01*
X26968255Y-62754684D01*
X26961500Y-62816866D01*
X26961500Y-63913134D01*
X26968207Y-63974874D01*
X26968255Y-63975316D01*
X26968207Y-63975321D01*
X26968207Y-64024679D01*
X26968255Y-64024684D01*
X26961500Y-64086866D01*
X26961500Y-65183134D01*
X26968207Y-65244874D01*
X26968255Y-65245316D01*
X26968207Y-65245321D01*
X26968207Y-65294679D01*
X26968255Y-65294684D01*
X26961500Y-65356866D01*
X26961500Y-66453134D01*
X26968207Y-66514874D01*
X26968255Y-66515316D01*
X26968207Y-66515321D01*
X26968207Y-66564679D01*
X26968255Y-66564684D01*
X26961500Y-66626866D01*
X26961500Y-67723134D01*
X26968255Y-67785316D01*
X26968467Y-67785882D01*
X26968468Y-67834763D01*
X26968748Y-67834793D01*
X26968468Y-67837371D01*
X26968468Y-67840237D01*
X26967895Y-67842648D01*
X26962369Y-67893514D01*
X26962000Y-67900328D01*
X26962000Y-68172885D01*
X26966475Y-68188124D01*
X26967865Y-68189329D01*
X26975548Y-68191000D01*
X31959884Y-68191000D01*
X31975123Y-68186525D01*
X31976328Y-68185135D01*
X31977999Y-68177452D01*
X31977999Y-68127000D01*
X31998001Y-68058879D01*
X32051657Y-68012386D01*
X32103999Y-68001000D01*
X37284967Y-68001000D01*
X37295512Y-68001442D01*
X37345300Y-68005623D01*
X37422743Y-67995289D01*
X37425743Y-67994927D01*
X37467498Y-67990391D01*
X37496634Y-67987226D01*
X37496636Y-67987226D01*
X37503417Y-67986489D01*
X37509883Y-67984313D01*
X37512233Y-67983796D01*
X37512783Y-67983699D01*
X37513550Y-67983520D01*
X37514085Y-67983365D01*
X37516432Y-67982789D01*
X37523190Y-67981887D01*
X37596542Y-67955189D01*
X37599443Y-67954174D01*
X37667039Y-67931425D01*
X37667046Y-67931422D01*
X37673511Y-67929246D01*
X37679360Y-67925731D01*
X37681553Y-67924718D01*
X37682068Y-67924506D01*
X37682766Y-67924173D01*
X37683267Y-67923900D01*
X37685421Y-67922840D01*
X37691834Y-67920506D01*
X37752813Y-67881808D01*
X37778972Y-67869499D01*
X37782288Y-67868794D01*
X37858723Y-67834763D01*
X37950722Y-67793803D01*
X37950724Y-67793802D01*
X37956752Y-67791118D01*
X38111253Y-67678866D01*
X38239040Y-67536944D01*
X38334527Y-67371556D01*
X38393542Y-67189928D01*
X38413504Y-67000000D01*
X38399858Y-66870169D01*
X38412630Y-66800333D01*
X38461132Y-66748486D01*
X38525168Y-66731000D01*
X40054967Y-66731000D01*
X40065512Y-66731442D01*
X40115300Y-66735623D01*
X40192743Y-66725289D01*
X40195743Y-66724927D01*
X40237498Y-66720391D01*
X40266634Y-66717226D01*
X40266636Y-66717226D01*
X40273417Y-66716489D01*
X40279883Y-66714313D01*
X40282233Y-66713796D01*
X40282783Y-66713699D01*
X40283550Y-66713520D01*
X40284085Y-66713365D01*
X40286432Y-66712789D01*
X40293190Y-66711887D01*
X40366542Y-66685189D01*
X40369443Y-66684174D01*
X40437039Y-66661425D01*
X40437046Y-66661422D01*
X40443511Y-66659246D01*
X40449360Y-66655731D01*
X40451553Y-66654718D01*
X40452068Y-66654506D01*
X40452766Y-66654173D01*
X40453267Y-66653900D01*
X40455421Y-66652840D01*
X40461834Y-66650506D01*
X40527802Y-66608641D01*
X40530394Y-66607041D01*
X40591502Y-66570324D01*
X40597344Y-66566814D01*
X40602295Y-66562133D01*
X40604231Y-66560663D01*
X40605162Y-66560015D01*
X40608996Y-66557115D01*
X40613364Y-66554343D01*
X40617464Y-66550677D01*
X40669387Y-66498754D01*
X40671909Y-66496301D01*
X40722782Y-66448193D01*
X40722784Y-66448191D01*
X40727740Y-66443504D01*
X40731574Y-66437863D01*
X40735703Y-66433011D01*
X40742560Y-66425581D01*
X40796522Y-66371619D01*
X40834368Y-66345607D01*
X40950722Y-66293803D01*
X40950724Y-66293802D01*
X40956752Y-66291118D01*
X41111253Y-66178866D01*
X41239040Y-66036944D01*
X41334527Y-65871556D01*
X41393542Y-65689928D01*
X41413504Y-65500000D01*
X41393542Y-65310072D01*
X41334527Y-65128444D01*
X41239040Y-64963056D01*
X41111253Y-64821134D01*
X40956752Y-64708882D01*
X40950724Y-64706198D01*
X40950722Y-64706197D01*
X40788319Y-64633891D01*
X40788318Y-64633891D01*
X40782288Y-64631206D01*
X40688887Y-64611353D01*
X40601944Y-64592872D01*
X40601939Y-64592872D01*
X40595487Y-64591500D01*
X40536572Y-64591500D01*
X40468451Y-64571498D01*
X40421958Y-64517842D01*
X40411262Y-64478670D01*
X40394232Y-64316635D01*
X40394232Y-64316633D01*
X40393542Y-64310072D01*
X40334527Y-64128444D01*
X40239040Y-63963056D01*
X40191014Y-63909717D01*
X40115675Y-63826045D01*
X40115674Y-63826044D01*
X40111253Y-63821134D01*
X39956752Y-63708882D01*
X39950724Y-63706198D01*
X39950722Y-63706197D01*
X39788319Y-63633891D01*
X39788318Y-63633891D01*
X39782288Y-63631206D01*
X39688888Y-63611353D01*
X39601944Y-63592872D01*
X39601939Y-63592872D01*
X39595487Y-63591500D01*
X39425780Y-63591500D01*
X39357659Y-63571498D01*
X39311166Y-63517842D01*
X39301062Y-63447568D01*
X39316662Y-63402499D01*
X39331222Y-63377281D01*
X39331223Y-63377278D01*
X39334527Y-63371556D01*
X39393542Y-63189928D01*
X39413504Y-63000000D01*
X39393542Y-62810072D01*
X39334527Y-62628444D01*
X39239040Y-62463056D01*
X39177824Y-62395068D01*
X39115675Y-62326045D01*
X39115674Y-62326044D01*
X39111253Y-62321134D01*
X38956752Y-62208882D01*
X38950724Y-62206198D01*
X38950722Y-62206197D01*
X38788319Y-62133891D01*
X38788318Y-62133891D01*
X38782288Y-62131206D01*
X38688888Y-62111353D01*
X38601944Y-62092872D01*
X38601939Y-62092872D01*
X38595487Y-62091500D01*
X38404513Y-62091500D01*
X38398061Y-62092872D01*
X38398056Y-62092872D01*
X38311112Y-62111353D01*
X38217712Y-62131206D01*
X38211682Y-62133891D01*
X38211681Y-62133891D01*
X38049278Y-62206197D01*
X38049276Y-62206198D01*
X38043248Y-62208882D01*
X37888747Y-62321134D01*
X37884326Y-62326044D01*
X37884325Y-62326045D01*
X37822177Y-62395068D01*
X37760960Y-62463056D01*
X37753487Y-62476000D01*
X37702106Y-62524993D01*
X37644368Y-62539000D01*
X36287885Y-62539000D01*
X36219764Y-62518998D01*
X36173271Y-62465342D01*
X36163167Y-62395068D01*
X36194247Y-62328691D01*
X36239040Y-62278944D01*
X36334527Y-62113556D01*
X36393542Y-61931928D01*
X36413504Y-61742000D01*
X36411292Y-61720954D01*
X36424064Y-61651116D01*
X36472566Y-61599269D01*
X36496415Y-61588365D01*
X36517040Y-61581424D01*
X36517042Y-61581423D01*
X36523511Y-61579246D01*
X36529360Y-61575731D01*
X36531553Y-61574718D01*
X36532068Y-61574506D01*
X36532766Y-61574173D01*
X36533267Y-61573900D01*
X36535421Y-61572840D01*
X36541834Y-61570506D01*
X36607802Y-61528641D01*
X36610394Y-61527041D01*
X36671502Y-61490324D01*
X36677344Y-61486814D01*
X36682295Y-61482133D01*
X36684231Y-61480663D01*
X36685162Y-61480015D01*
X36688996Y-61477115D01*
X36693364Y-61474343D01*
X36697464Y-61470677D01*
X36749387Y-61418754D01*
X36751872Y-61416336D01*
X36804165Y-61366885D01*
X36839487Y-61343328D01*
X36950722Y-61293803D01*
X36950724Y-61293802D01*
X36956752Y-61291118D01*
X37111253Y-61178866D01*
X37239040Y-61036944D01*
X37334527Y-60871556D01*
X37393542Y-60689928D01*
X37413504Y-60500000D01*
X37393542Y-60310072D01*
X37334527Y-60128444D01*
X37321876Y-60106531D01*
X37242341Y-59968774D01*
X37239040Y-59963056D01*
X37111253Y-59821134D01*
X36956752Y-59708882D01*
X36950724Y-59706198D01*
X36950722Y-59706197D01*
X36788319Y-59633891D01*
X36788318Y-59633891D01*
X36782288Y-59631206D01*
X36688888Y-59611353D01*
X36601944Y-59592872D01*
X36601939Y-59592872D01*
X36595487Y-59591500D01*
X36404513Y-59591500D01*
X36398061Y-59592872D01*
X36398056Y-59592872D01*
X36311112Y-59611353D01*
X36217712Y-59631206D01*
X36211682Y-59633891D01*
X36211681Y-59633891D01*
X36049278Y-59706197D01*
X36049276Y-59706198D01*
X36043248Y-59708882D01*
X35888747Y-59821134D01*
X35884326Y-59826044D01*
X35884325Y-59826045D01*
X35766134Y-59957310D01*
X35705688Y-59994550D01*
X35672498Y-59999000D01*
X35466542Y-59999000D01*
X35398421Y-59978998D01*
X35351928Y-59925342D01*
X35341824Y-59855068D01*
X35346709Y-59834064D01*
X35391502Y-59696206D01*
X35393542Y-59689928D01*
X35413504Y-59500000D01*
X35393542Y-59310072D01*
X35334527Y-59128444D01*
X35239040Y-58963056D01*
X35229572Y-58952540D01*
X35115675Y-58826045D01*
X35115674Y-58826044D01*
X35111253Y-58821134D01*
X34956752Y-58708882D01*
X34950724Y-58706198D01*
X34950722Y-58706197D01*
X34788319Y-58633891D01*
X34788318Y-58633891D01*
X34782288Y-58631206D01*
X34681445Y-58609771D01*
X34601944Y-58592872D01*
X34601939Y-58592872D01*
X34595487Y-58591500D01*
X34404513Y-58591500D01*
X34398061Y-58592872D01*
X34398056Y-58592872D01*
X34318555Y-58609771D01*
X34217712Y-58631206D01*
X34211682Y-58633891D01*
X34211681Y-58633891D01*
X34049279Y-58706197D01*
X34043248Y-58708882D01*
X34038659Y-58712216D01*
X33976021Y-58729000D01*
X31920913Y-58729000D01*
X31852792Y-58708998D01*
X31836136Y-58695575D01*
X31833261Y-58691739D01*
X31716705Y-58604385D01*
X31580316Y-58553255D01*
X31518134Y-58546500D01*
X30422000Y-58546500D01*
X30353879Y-58526498D01*
X30307386Y-58472842D01*
X30296000Y-58420500D01*
X30296000Y-58048134D01*
X39961500Y-58048134D01*
X39968255Y-58110316D01*
X40019385Y-58246705D01*
X40106739Y-58363261D01*
X40223295Y-58450615D01*
X40359684Y-58501745D01*
X40421866Y-58508500D01*
X43518134Y-58508500D01*
X43580316Y-58501745D01*
X43716705Y-58450615D01*
X43833261Y-58363261D01*
X43920615Y-58246705D01*
X43971745Y-58110316D01*
X43978500Y-58048134D01*
X43978500Y-54951866D01*
X43971745Y-54889684D01*
X43920615Y-54753295D01*
X43833261Y-54636739D01*
X43716705Y-54549385D01*
X43580316Y-54498255D01*
X43518134Y-54491500D01*
X43404500Y-54491500D01*
X43336379Y-54471498D01*
X43289886Y-54417842D01*
X43278500Y-54365500D01*
X43278500Y-53101866D01*
X43271745Y-53039684D01*
X43220615Y-52903295D01*
X43133261Y-52786739D01*
X43016705Y-52699385D01*
X42880316Y-52648255D01*
X42818134Y-52641500D01*
X40521866Y-52641500D01*
X40459684Y-52648255D01*
X40323295Y-52699385D01*
X40206739Y-52786739D01*
X40119385Y-52903295D01*
X40068255Y-53039684D01*
X40061500Y-53101866D01*
X40061500Y-54398134D01*
X40068255Y-54460316D01*
X40071027Y-54467712D01*
X40071029Y-54467718D01*
X40100957Y-54547551D01*
X40106140Y-54618358D01*
X40083801Y-54667345D01*
X40019385Y-54753295D01*
X39968255Y-54889684D01*
X39961500Y-54951866D01*
X39961500Y-58048134D01*
X30296000Y-58048134D01*
X30296000Y-57510033D01*
X30296442Y-57499489D01*
X30300052Y-57456498D01*
X30300623Y-57449700D01*
X30290289Y-57372257D01*
X30289924Y-57369236D01*
X30282226Y-57298366D01*
X30282226Y-57298364D01*
X30281489Y-57291583D01*
X30279313Y-57285117D01*
X30278796Y-57282767D01*
X30278699Y-57282218D01*
X30278522Y-57281459D01*
X30278364Y-57280914D01*
X30277789Y-57278574D01*
X30276887Y-57271810D01*
X30274554Y-57265401D01*
X30274553Y-57265396D01*
X30250189Y-57198459D01*
X30249171Y-57195552D01*
X30226424Y-57127959D01*
X30226422Y-57127954D01*
X30224246Y-57121489D01*
X30220729Y-57115636D01*
X30219720Y-57113453D01*
X30219511Y-57112946D01*
X30219167Y-57112226D01*
X30218896Y-57111728D01*
X30217841Y-57109583D01*
X30215505Y-57103165D01*
X30173649Y-57037211D01*
X30172064Y-57034643D01*
X30135328Y-56973504D01*
X30135327Y-56973503D01*
X30131814Y-56967656D01*
X30127126Y-56962699D01*
X30125657Y-56960763D01*
X30125016Y-56959840D01*
X30122108Y-56955995D01*
X30119342Y-56951636D01*
X30115677Y-56947536D01*
X30063756Y-56895615D01*
X30061303Y-56893093D01*
X30013193Y-56842218D01*
X30013191Y-56842216D01*
X30008504Y-56837260D01*
X30002863Y-56833426D01*
X29998011Y-56829297D01*
X29990581Y-56822440D01*
X29612383Y-56444242D01*
X29605241Y-56436476D01*
X29577390Y-56403520D01*
X29572985Y-56398307D01*
X29510934Y-56350866D01*
X29508514Y-56348968D01*
X29452968Y-56304307D01*
X29447650Y-56300031D01*
X29441540Y-56296998D01*
X29439504Y-56295696D01*
X29439048Y-56295377D01*
X29438390Y-56294967D01*
X29437900Y-56294698D01*
X29435834Y-56293447D01*
X29430414Y-56289303D01*
X29359646Y-56256304D01*
X29356875Y-56254970D01*
X29286898Y-56220233D01*
X29280273Y-56218581D01*
X29278006Y-56217747D01*
X29277481Y-56217528D01*
X29276777Y-56217279D01*
X29276227Y-56217117D01*
X29273943Y-56216339D01*
X29267761Y-56213457D01*
X29261103Y-56211969D01*
X29261095Y-56211966D01*
X29191542Y-56196419D01*
X29188546Y-56195711D01*
X29119385Y-56178467D01*
X29119382Y-56178467D01*
X29112762Y-56176816D01*
X29105941Y-56176625D01*
X29103544Y-56176297D01*
X29102430Y-56176096D01*
X29097656Y-56175434D01*
X29092616Y-56174307D01*
X29087125Y-56174000D01*
X29013711Y-56174000D01*
X29010193Y-56173951D01*
X29009283Y-56173926D01*
X28933365Y-56171805D01*
X28926658Y-56173084D01*
X28920323Y-56173594D01*
X28910216Y-56174000D01*
X28778010Y-56174000D01*
X28709889Y-56153998D01*
X28670867Y-56114304D01*
X28631478Y-56050652D01*
X28506303Y-55925695D01*
X28500072Y-55921854D01*
X28361968Y-55836725D01*
X28361966Y-55836724D01*
X28355738Y-55832885D01*
X28275995Y-55806436D01*
X28194389Y-55779368D01*
X28194387Y-55779368D01*
X28187861Y-55777203D01*
X28181025Y-55776503D01*
X28181022Y-55776502D01*
X28137969Y-55772091D01*
X28083400Y-55766500D01*
X27482600Y-55766500D01*
X27479354Y-55766837D01*
X27479350Y-55766837D01*
X27383692Y-55776762D01*
X27383688Y-55776763D01*
X27376834Y-55777474D01*
X27370298Y-55779655D01*
X27370296Y-55779655D01*
X27353928Y-55785116D01*
X27209054Y-55833450D01*
X27058652Y-55926522D01*
X26933695Y-56051697D01*
X26930898Y-56056235D01*
X26873647Y-56096824D01*
X26802724Y-56100054D01*
X26741313Y-56064428D01*
X26733938Y-56055932D01*
X26725902Y-56045793D01*
X26611171Y-55931261D01*
X26599760Y-55922249D01*
X26461757Y-55837184D01*
X26448576Y-55831037D01*
X26294290Y-55779862D01*
X26280914Y-55776995D01*
X26186562Y-55767328D01*
X26180145Y-55767000D01*
X26155115Y-55767000D01*
X26139876Y-55771475D01*
X26138671Y-55772865D01*
X26137000Y-55780548D01*
X26137000Y-58214884D01*
X25629000Y-58214884D01*
X25629000Y-57272115D01*
X25624525Y-57256876D01*
X25623135Y-57255671D01*
X25615452Y-57254000D01*
X24893116Y-57254000D01*
X24877877Y-57258475D01*
X24876672Y-57259865D01*
X24875001Y-57267548D01*
X24875001Y-57522095D01*
X21008500Y-57522095D01*
X21008500Y-56727885D01*
X24875000Y-56727885D01*
X24879475Y-56743124D01*
X24880865Y-56744329D01*
X24888548Y-56746000D01*
X25610885Y-56746000D01*
X25626124Y-56741525D01*
X25627329Y-56740135D01*
X25629000Y-56732452D01*
X25629000Y-55785116D01*
X25624525Y-55769877D01*
X25623135Y-55768672D01*
X25615452Y-55767001D01*
X25585905Y-55767001D01*
X25579386Y-55767338D01*
X25483794Y-55777257D01*
X25470400Y-55780149D01*
X25316216Y-55831588D01*
X25303038Y-55837761D01*
X25165193Y-55923063D01*
X25153792Y-55932099D01*
X25039261Y-56046829D01*
X25030249Y-56058240D01*
X24945184Y-56196243D01*
X24939037Y-56209424D01*
X24887862Y-56363710D01*
X24884995Y-56377086D01*
X24875328Y-56471438D01*
X24875000Y-56477854D01*
X24875000Y-56727885D01*
X21008500Y-56727885D01*
X21008500Y-49634500D01*
X21028502Y-49566379D01*
X21082158Y-49519886D01*
X21134500Y-49508500D01*
X22490500Y-49508500D01*
X22558621Y-49528502D01*
X22605114Y-49582158D01*
X22616500Y-49634500D01*
X22616500Y-52203331D01*
X22596411Y-52271586D01*
X22525054Y-52382310D01*
X22525050Y-52382319D01*
X22521235Y-52388238D01*
X22518826Y-52394858D01*
X22518825Y-52394859D01*
X22461606Y-52552066D01*
X22459197Y-52558685D01*
X22436463Y-52738640D01*
X22454163Y-52919160D01*
X22511418Y-53091273D01*
X22515065Y-53097295D01*
X22515066Y-53097297D01*
X22550184Y-53155283D01*
X22605380Y-53246424D01*
X22610269Y-53251487D01*
X22610270Y-53251488D01*
X22621639Y-53263261D01*
X22731382Y-53376902D01*
X22883159Y-53476222D01*
X22889763Y-53478678D01*
X22889765Y-53478679D01*
X23046558Y-53536990D01*
X23046560Y-53536990D01*
X23053168Y-53539448D01*
X23136995Y-53550633D01*
X23225980Y-53562507D01*
X23225984Y-53562507D01*
X23232961Y-53563438D01*
X23239972Y-53562800D01*
X23239976Y-53562800D01*
X23382459Y-53549832D01*
X23413600Y-53546998D01*
X23420302Y-53544820D01*
X23420304Y-53544820D01*
X23579409Y-53493124D01*
X23579412Y-53493123D01*
X23586108Y-53490947D01*
X23734315Y-53402598D01*
X23735860Y-53401677D01*
X23735862Y-53401676D01*
X23741912Y-53398069D01*
X23873266Y-53272982D01*
X23973643Y-53121902D01*
X24038055Y-52952338D01*
X24039126Y-52944717D01*
X24062748Y-52776639D01*
X24062748Y-52776636D01*
X24063299Y-52772717D01*
X24063452Y-52761738D01*
X24063561Y-52753962D01*
X24063561Y-52753957D01*
X24063616Y-52750000D01*
X24043397Y-52569745D01*
X24041080Y-52563091D01*
X23986064Y-52405106D01*
X23986062Y-52405103D01*
X23983745Y-52398448D01*
X23902646Y-52268661D01*
X23883500Y-52201892D01*
X23883500Y-49784000D01*
X23903502Y-49715879D01*
X23957158Y-49669386D01*
X24009500Y-49658000D01*
X24131885Y-49658000D01*
X24147124Y-49653525D01*
X24148329Y-49652135D01*
X24150000Y-49644452D01*
X24150000Y-49284500D01*
X24170002Y-49216379D01*
X24223658Y-49169886D01*
X24276000Y-49158500D01*
X24324000Y-49158500D01*
X24392121Y-49178502D01*
X24438614Y-49232158D01*
X24450000Y-49284500D01*
X24450000Y-49639884D01*
X24454475Y-49655123D01*
X24455865Y-49656328D01*
X24463548Y-49657999D01*
X25044669Y-49657999D01*
X25051490Y-49657629D01*
X25102352Y-49652105D01*
X25117604Y-49648479D01*
X25238054Y-49603324D01*
X25253649Y-49594786D01*
X25355724Y-49518285D01*
X25368285Y-49505724D01*
X25444786Y-49403649D01*
X25453324Y-49388054D01*
X25498478Y-49267606D01*
X25502105Y-49252351D01*
X25507631Y-49201486D01*
X25508000Y-49194672D01*
X25508000Y-49184272D01*
X25528002Y-49116151D01*
X25569843Y-49075829D01*
X25570034Y-49075716D01*
X25587798Y-49067012D01*
X25606639Y-49059552D01*
X25642409Y-49033564D01*
X25652329Y-49027048D01*
X25683557Y-49008580D01*
X25683560Y-49008578D01*
X25690384Y-49004542D01*
X25704708Y-48990218D01*
X25719735Y-48977383D01*
X25736129Y-48965472D01*
X25764314Y-48931403D01*
X25772302Y-48922625D01*
X25892256Y-48802670D01*
X25900538Y-48795134D01*
X25907018Y-48791022D01*
X25953645Y-48741369D01*
X25956399Y-48738528D01*
X25976135Y-48718792D01*
X25978615Y-48715595D01*
X25986320Y-48706573D01*
X26011159Y-48680122D01*
X26016586Y-48674343D01*
X26020405Y-48667397D01*
X26020407Y-48667394D01*
X26026348Y-48656588D01*
X26037199Y-48640069D01*
X26038619Y-48638238D01*
X26049614Y-48624063D01*
X26052759Y-48616794D01*
X26052762Y-48616790D01*
X26067174Y-48583485D01*
X26072391Y-48572835D01*
X26093695Y-48534082D01*
X26098733Y-48514459D01*
X26105137Y-48495756D01*
X26110033Y-48484442D01*
X26110033Y-48484441D01*
X26113181Y-48477167D01*
X26114420Y-48469344D01*
X26114423Y-48469334D01*
X26120099Y-48433498D01*
X26122505Y-48421878D01*
X26131528Y-48386733D01*
X26131528Y-48386732D01*
X26133500Y-48379052D01*
X26133500Y-48358798D01*
X26135051Y-48339087D01*
X26136980Y-48326908D01*
X26138220Y-48319079D01*
X26134059Y-48275060D01*
X26133500Y-48263203D01*
X26133500Y-46184641D01*
X26153502Y-46116520D01*
X26207158Y-46070027D01*
X26277432Y-46059923D01*
X26342012Y-46089417D01*
X26348519Y-46095469D01*
X26371829Y-46118739D01*
X26383240Y-46127751D01*
X26521243Y-46212816D01*
X26534424Y-46218963D01*
X26688710Y-46270138D01*
X26702086Y-46273005D01*
X26796438Y-46282672D01*
X26802854Y-46283000D01*
X26827885Y-46283000D01*
X26843124Y-46278525D01*
X26844329Y-46277135D01*
X26846000Y-46269452D01*
X26846000Y-43222115D01*
X26841525Y-43206876D01*
X26840135Y-43205671D01*
X26832452Y-43204000D01*
X26110116Y-43204000D01*
X26094877Y-43208475D01*
X26093672Y-43209865D01*
X26092001Y-43217548D01*
X26092001Y-43472095D01*
X26092338Y-43478614D01*
X26102257Y-43574206D01*
X26105149Y-43587600D01*
X26156588Y-43741784D01*
X26162761Y-43754962D01*
X26248063Y-43892807D01*
X26257099Y-43904208D01*
X26263816Y-43910913D01*
X26297896Y-43973195D01*
X26292894Y-44044015D01*
X26263970Y-44089106D01*
X26256264Y-44096825D01*
X26247249Y-44108240D01*
X26162184Y-44246243D01*
X26156037Y-44259424D01*
X26104862Y-44413710D01*
X26101995Y-44427086D01*
X26092328Y-44521438D01*
X26092000Y-44527855D01*
X26092000Y-44688882D01*
X26071998Y-44757003D01*
X26018342Y-44803496D01*
X25948068Y-44813600D01*
X25898489Y-44795268D01*
X25856666Y-44768727D01*
X25823741Y-44757003D01*
X25692425Y-44710243D01*
X25692420Y-44710242D01*
X25685790Y-44707881D01*
X25678802Y-44707048D01*
X25678799Y-44707047D01*
X25555698Y-44692368D01*
X25505680Y-44686404D01*
X25498677Y-44687140D01*
X25498676Y-44687140D01*
X25332288Y-44704628D01*
X25332286Y-44704629D01*
X25325288Y-44705364D01*
X25153579Y-44763818D01*
X25147575Y-44767512D01*
X25005095Y-44855166D01*
X25005092Y-44855168D01*
X24999088Y-44858862D01*
X24994053Y-44863793D01*
X24994050Y-44863795D01*
X24874525Y-44980843D01*
X24869493Y-44985771D01*
X24771235Y-45138238D01*
X24768826Y-45144858D01*
X24768824Y-45144861D01*
X24731973Y-45246109D01*
X24709197Y-45308685D01*
X24686463Y-45488640D01*
X24704163Y-45669160D01*
X24761418Y-45841273D01*
X24765065Y-45847295D01*
X24765066Y-45847297D01*
X24848276Y-45984694D01*
X24866500Y-46049965D01*
X24866500Y-46215500D01*
X24846498Y-46283621D01*
X24792842Y-46330114D01*
X24740500Y-46341500D01*
X23551866Y-46341500D01*
X23548471Y-46341869D01*
X23548467Y-46341869D01*
X23548100Y-46341909D01*
X23548014Y-46341894D01*
X23545072Y-46342053D01*
X23545034Y-46341359D01*
X23478218Y-46329376D01*
X23426205Y-46281052D01*
X23408500Y-46216645D01*
X23408500Y-45451866D01*
X23401745Y-45389684D01*
X23350615Y-45253295D01*
X23263261Y-45136739D01*
X23146705Y-45049385D01*
X23010316Y-44998255D01*
X22948134Y-44991500D01*
X21134500Y-44991500D01*
X21066379Y-44971498D01*
X21019886Y-44917842D01*
X21008500Y-44865500D01*
X21008500Y-42677885D01*
X26092000Y-42677885D01*
X26096475Y-42693124D01*
X26097865Y-42694329D01*
X26105548Y-42696000D01*
X26827885Y-42696000D01*
X26843124Y-42691525D01*
X26844329Y-42690135D01*
X26846000Y-42682452D01*
X26846000Y-41735116D01*
X26841525Y-41719877D01*
X26840135Y-41718672D01*
X26832452Y-41717001D01*
X26802905Y-41717001D01*
X26796386Y-41717338D01*
X26700794Y-41727257D01*
X26687400Y-41730149D01*
X26533216Y-41781588D01*
X26520038Y-41787761D01*
X26382193Y-41873063D01*
X26370792Y-41882099D01*
X26256261Y-41996829D01*
X26247249Y-42008240D01*
X26162184Y-42146243D01*
X26156037Y-42159424D01*
X26104862Y-42313710D01*
X26101995Y-42327086D01*
X26092328Y-42421438D01*
X26092000Y-42427855D01*
X26092000Y-42677885D01*
X21008500Y-42677885D01*
X21008500Y-36522095D01*
X21542001Y-36522095D01*
X21542338Y-36528614D01*
X21552257Y-36624206D01*
X21555149Y-36637600D01*
X21606588Y-36791784D01*
X21612761Y-36804962D01*
X21698063Y-36942807D01*
X21707099Y-36954208D01*
X21821829Y-37068739D01*
X21833240Y-37077751D01*
X21971243Y-37162816D01*
X21984424Y-37168963D01*
X22138710Y-37220138D01*
X22152086Y-37223005D01*
X22246438Y-37232672D01*
X22252854Y-37233000D01*
X22277885Y-37233000D01*
X22293124Y-37228525D01*
X22294329Y-37227135D01*
X22296000Y-37219452D01*
X22296000Y-36272115D01*
X22291525Y-36256876D01*
X22290135Y-36255671D01*
X22282452Y-36254000D01*
X21560116Y-36254000D01*
X21544877Y-36258475D01*
X21543672Y-36259865D01*
X21542001Y-36267548D01*
X21542001Y-36522095D01*
X21008500Y-36522095D01*
X21008500Y-35727885D01*
X21542000Y-35727885D01*
X21546475Y-35743124D01*
X21547865Y-35744329D01*
X21555548Y-35746000D01*
X22277885Y-35746000D01*
X22293124Y-35741525D01*
X22294329Y-35740135D01*
X22296000Y-35732452D01*
X22296000Y-34209615D01*
X22291525Y-34194376D01*
X22290135Y-34193171D01*
X22282452Y-34191500D01*
X21760116Y-34191500D01*
X21744877Y-34195975D01*
X21743672Y-34197365D01*
X21742001Y-34205048D01*
X21742001Y-34588984D01*
X21742195Y-34593920D01*
X21744430Y-34622336D01*
X21746730Y-34634931D01*
X21789107Y-34780790D01*
X21795353Y-34795223D01*
X21805943Y-34813130D01*
X21823403Y-34881947D01*
X21800887Y-34949278D01*
X21786662Y-34966288D01*
X21706265Y-35046824D01*
X21697249Y-35058240D01*
X21612184Y-35196243D01*
X21606037Y-35209424D01*
X21554862Y-35363710D01*
X21551995Y-35377086D01*
X21542328Y-35471438D01*
X21542000Y-35477855D01*
X21542000Y-35727885D01*
X21008500Y-35727885D01*
X21008500Y-33665385D01*
X21742000Y-33665385D01*
X21746475Y-33680624D01*
X21747865Y-33681829D01*
X21755548Y-33683500D01*
X22277885Y-33683500D01*
X22293124Y-33679025D01*
X22294329Y-33677635D01*
X22296000Y-33669952D01*
X22296000Y-32713122D01*
X22292027Y-32699591D01*
X22284129Y-32698456D01*
X22144210Y-32739107D01*
X22129779Y-32745352D01*
X22000322Y-32821911D01*
X21987896Y-32831551D01*
X21881551Y-32937896D01*
X21871911Y-32950322D01*
X21795352Y-33079779D01*
X21789107Y-33094210D01*
X21746731Y-33240065D01*
X21744430Y-33252667D01*
X21742193Y-33281084D01*
X21742000Y-33286014D01*
X21742000Y-33665385D01*
X21008500Y-33665385D01*
X21008500Y-31566635D01*
X22671805Y-31566635D01*
X22673084Y-31573342D01*
X22673594Y-31579677D01*
X22674000Y-31589784D01*
X22674000Y-32107339D01*
X22674369Y-32110736D01*
X22687584Y-32232380D01*
X22688511Y-32240917D01*
X22689098Y-32242662D01*
X22691500Y-32264767D01*
X22691500Y-32716502D01*
X22691693Y-32718950D01*
X22691693Y-32718958D01*
X22693771Y-32745352D01*
X22694438Y-32753831D01*
X22740855Y-32913601D01*
X22744892Y-32920427D01*
X22786453Y-32990703D01*
X22804000Y-33054842D01*
X22804000Y-33665385D01*
X22808475Y-33680624D01*
X22809865Y-33681829D01*
X22817548Y-33683500D01*
X23339884Y-33683500D01*
X23355123Y-33679025D01*
X23356328Y-33677635D01*
X23357999Y-33669952D01*
X23357999Y-33434500D01*
X23378001Y-33366379D01*
X23431657Y-33319886D01*
X23483999Y-33308500D01*
X23515500Y-33308500D01*
X23583621Y-33328502D01*
X23630114Y-33382158D01*
X23641500Y-33434500D01*
X23641500Y-33709073D01*
X23635865Y-33746333D01*
X23623913Y-33784943D01*
X23621895Y-33791462D01*
X23621324Y-33798263D01*
X23619817Y-33816205D01*
X23617227Y-33833137D01*
X23611807Y-33857384D01*
X23611500Y-33862875D01*
X23611500Y-33909967D01*
X23611058Y-33920511D01*
X23606877Y-33970300D01*
X23607779Y-33977059D01*
X23607779Y-33977063D01*
X23610393Y-33996652D01*
X23611500Y-34013316D01*
X23611500Y-34960194D01*
X23591498Y-35028315D01*
X23537842Y-35074808D01*
X23467568Y-35084912D01*
X23402988Y-35055418D01*
X23396482Y-35049367D01*
X23313463Y-34966492D01*
X23279384Y-34904209D01*
X23284387Y-34833389D01*
X23294028Y-34813179D01*
X23304647Y-34795223D01*
X23310893Y-34780790D01*
X23353269Y-34634935D01*
X23355570Y-34622333D01*
X23357807Y-34593916D01*
X23358000Y-34588986D01*
X23358000Y-34209615D01*
X23353525Y-34194376D01*
X23352135Y-34193171D01*
X23344452Y-34191500D01*
X22822115Y-34191500D01*
X22806876Y-34195975D01*
X22805671Y-34197365D01*
X22804000Y-34205048D01*
X22804000Y-37214884D01*
X22808475Y-37230123D01*
X22809865Y-37231328D01*
X22817548Y-37232999D01*
X22847095Y-37232999D01*
X22853614Y-37232662D01*
X22949206Y-37222743D01*
X22962600Y-37219851D01*
X23116784Y-37168412D01*
X23129962Y-37162239D01*
X23267807Y-37076937D01*
X23279208Y-37067901D01*
X23393741Y-36953169D01*
X23400388Y-36944752D01*
X23458304Y-36903688D01*
X23529227Y-36900455D01*
X23590639Y-36936079D01*
X23624164Y-37006175D01*
X23629712Y-37047753D01*
X23630073Y-37050743D01*
X23631019Y-37059443D01*
X23636910Y-37113675D01*
X23638511Y-37128417D01*
X23640687Y-37134883D01*
X23641204Y-37137233D01*
X23641301Y-37137783D01*
X23641480Y-37138550D01*
X23641635Y-37139085D01*
X23642211Y-37141432D01*
X23643113Y-37148190D01*
X23665064Y-37208500D01*
X23669810Y-37221540D01*
X23670826Y-37224443D01*
X23693575Y-37292039D01*
X23693578Y-37292046D01*
X23695754Y-37298511D01*
X23699269Y-37304360D01*
X23700282Y-37306553D01*
X23700494Y-37307068D01*
X23700827Y-37307766D01*
X23701100Y-37308267D01*
X23702160Y-37310421D01*
X23704494Y-37316834D01*
X23744905Y-37380511D01*
X23746342Y-37382775D01*
X23747956Y-37385390D01*
X23788186Y-37452344D01*
X23792867Y-37457295D01*
X23794337Y-37459231D01*
X23794985Y-37460162D01*
X23797885Y-37463996D01*
X23800657Y-37468364D01*
X23804323Y-37472464D01*
X23856246Y-37524387D01*
X23858698Y-37526908D01*
X23911496Y-37582740D01*
X23917137Y-37586574D01*
X23921989Y-37590703D01*
X23929419Y-37597560D01*
X28137095Y-41805235D01*
X28171121Y-41867547D01*
X28174000Y-41894330D01*
X28174000Y-41925544D01*
X28153998Y-41993665D01*
X28100342Y-42040158D01*
X28030068Y-42050262D01*
X27965488Y-42020768D01*
X27949252Y-42003806D01*
X27942899Y-41995790D01*
X27828171Y-41881261D01*
X27816760Y-41872249D01*
X27678757Y-41787184D01*
X27665576Y-41781037D01*
X27511290Y-41729862D01*
X27497914Y-41726995D01*
X27403562Y-41717328D01*
X27397145Y-41717000D01*
X27372115Y-41717000D01*
X27356876Y-41721475D01*
X27355671Y-41722865D01*
X27354000Y-41730548D01*
X27354000Y-46264884D01*
X27358475Y-46280123D01*
X27359865Y-46281328D01*
X27367548Y-46282999D01*
X27397095Y-46282999D01*
X27403614Y-46282662D01*
X27499206Y-46272743D01*
X27512604Y-46269850D01*
X27520458Y-46267230D01*
X27591408Y-46264646D01*
X27652491Y-46300831D01*
X27684315Y-46364295D01*
X27676776Y-46434890D01*
X27649428Y-46475849D01*
X27643919Y-46481358D01*
X27636739Y-46486739D01*
X27631358Y-46493919D01*
X27554767Y-46596113D01*
X27554765Y-46596116D01*
X27549385Y-46603295D01*
X27546235Y-46611697D01*
X27546233Y-46611701D01*
X27546086Y-46612094D01*
X27545836Y-46612427D01*
X27541923Y-46619574D01*
X27540891Y-46619009D01*
X27503444Y-46668858D01*
X27441276Y-46693173D01*
X27332288Y-46704628D01*
X27332286Y-46704629D01*
X27325288Y-46705364D01*
X27153579Y-46763818D01*
X27147575Y-46767512D01*
X27005095Y-46855166D01*
X27005092Y-46855168D01*
X26999088Y-46858862D01*
X26994053Y-46863793D01*
X26994050Y-46863795D01*
X26949800Y-46907128D01*
X26869493Y-46985771D01*
X26771235Y-47138238D01*
X26768826Y-47144858D01*
X26768824Y-47144861D01*
X26730432Y-47250342D01*
X26709197Y-47308685D01*
X26686463Y-47488640D01*
X26704163Y-47669160D01*
X26761418Y-47841273D01*
X26855380Y-47996424D01*
X26981382Y-48126902D01*
X27006533Y-48143361D01*
X27052581Y-48197396D01*
X27062105Y-48267751D01*
X27032081Y-48332086D01*
X27010315Y-48350422D01*
X27010638Y-48350836D01*
X27005094Y-48355167D01*
X26999088Y-48358862D01*
X26994053Y-48363793D01*
X26994050Y-48363795D01*
X26970627Y-48386733D01*
X26869493Y-48485771D01*
X26771235Y-48638238D01*
X26768826Y-48644858D01*
X26768824Y-48644861D01*
X26714295Y-48794679D01*
X26709197Y-48808685D01*
X26686463Y-48988640D01*
X26704163Y-49169160D01*
X26761418Y-49341273D01*
X26765065Y-49347295D01*
X26765066Y-49347297D01*
X26838635Y-49468774D01*
X26855380Y-49496424D01*
X26860269Y-49501487D01*
X26860270Y-49501488D01*
X26922935Y-49566379D01*
X26981382Y-49626902D01*
X27133159Y-49726222D01*
X27139763Y-49728678D01*
X27139765Y-49728679D01*
X27296558Y-49786990D01*
X27296560Y-49786990D01*
X27303168Y-49789448D01*
X27386995Y-49800633D01*
X27475980Y-49812507D01*
X27475984Y-49812507D01*
X27482961Y-49813438D01*
X27489972Y-49812800D01*
X27489976Y-49812800D01*
X27632459Y-49799832D01*
X27663600Y-49796998D01*
X27670302Y-49794820D01*
X27670304Y-49794820D01*
X27829409Y-49743124D01*
X27829412Y-49743123D01*
X27836108Y-49740947D01*
X27944603Y-49676271D01*
X28009120Y-49658500D01*
X29448134Y-49658500D01*
X29510316Y-49651745D01*
X29513395Y-49650591D01*
X29582255Y-49654187D01*
X29639898Y-49695633D01*
X29665983Y-49761665D01*
X29666500Y-49773067D01*
X29666500Y-50051233D01*
X29665973Y-50062416D01*
X29664298Y-50069909D01*
X29664547Y-50077835D01*
X29664547Y-50077836D01*
X29666438Y-50137986D01*
X29666500Y-50141945D01*
X29666500Y-50169856D01*
X29666997Y-50173790D01*
X29666997Y-50173791D01*
X29667005Y-50173856D01*
X29667938Y-50185693D01*
X29669327Y-50229889D01*
X29674978Y-50249339D01*
X29678987Y-50268700D01*
X29681526Y-50288797D01*
X29684445Y-50296168D01*
X29684445Y-50296170D01*
X29697804Y-50329912D01*
X29701649Y-50341142D01*
X29713982Y-50383593D01*
X29718015Y-50390412D01*
X29718017Y-50390417D01*
X29724293Y-50401028D01*
X29732988Y-50418776D01*
X29740448Y-50437617D01*
X29745110Y-50444033D01*
X29745110Y-50444034D01*
X29766436Y-50473387D01*
X29772952Y-50483307D01*
X29795458Y-50521362D01*
X29809782Y-50535686D01*
X29822617Y-50550713D01*
X29834528Y-50567107D01*
X29840636Y-50572160D01*
X29868597Y-50595292D01*
X29877375Y-50603280D01*
X30016352Y-50742256D01*
X30023888Y-50750538D01*
X30028000Y-50757018D01*
X30033779Y-50762445D01*
X30033780Y-50762446D01*
X30077652Y-50803644D01*
X30080494Y-50806399D01*
X30100230Y-50826135D01*
X30103427Y-50828615D01*
X30112447Y-50836318D01*
X30144679Y-50866586D01*
X30151625Y-50870405D01*
X30151628Y-50870407D01*
X30162434Y-50876348D01*
X30178953Y-50887199D01*
X30194959Y-50899614D01*
X30202228Y-50902760D01*
X30203250Y-50903364D01*
X30251702Y-50955257D01*
X30264372Y-51025421D01*
X30261869Y-51048462D01*
X30261868Y-51048476D01*
X30261500Y-51051866D01*
X30261500Y-51848134D01*
X30261869Y-51851531D01*
X30266250Y-51891856D01*
X30268255Y-51910316D01*
X30271027Y-51917709D01*
X30271027Y-51917711D01*
X30285295Y-51955771D01*
X30290478Y-52026578D01*
X30285295Y-52044229D01*
X30268255Y-52089684D01*
X30261500Y-52151866D01*
X30261500Y-52948134D01*
X30268255Y-53010316D01*
X30319385Y-53146705D01*
X30406739Y-53263261D01*
X30523295Y-53350615D01*
X30659684Y-53401745D01*
X30721866Y-53408500D01*
X30735500Y-53408500D01*
X30803621Y-53428502D01*
X30850114Y-53482158D01*
X30861500Y-53534500D01*
X30861500Y-54848134D01*
X30868255Y-54910316D01*
X30919385Y-55046705D01*
X31006739Y-55163261D01*
X31123295Y-55250615D01*
X31259684Y-55301745D01*
X31321866Y-55308500D01*
X32818134Y-55308500D01*
X32880316Y-55301745D01*
X33016705Y-55250615D01*
X33133261Y-55163261D01*
X33220615Y-55046705D01*
X33271745Y-54910316D01*
X33278500Y-54848134D01*
X33278500Y-53151866D01*
X33271745Y-53089684D01*
X33220615Y-52953295D01*
X33133261Y-52836739D01*
X33016705Y-52749385D01*
X32880316Y-52698255D01*
X32818134Y-52691500D01*
X32804500Y-52691500D01*
X32736379Y-52671498D01*
X32689886Y-52617842D01*
X32678500Y-52565500D01*
X32678500Y-52151866D01*
X32671745Y-52089684D01*
X32654705Y-52044229D01*
X32649522Y-51973422D01*
X32654705Y-51955771D01*
X32668973Y-51917711D01*
X32668973Y-51917709D01*
X32671745Y-51910316D01*
X32673751Y-51891856D01*
X32678131Y-51851531D01*
X32678500Y-51848134D01*
X32678500Y-51302000D01*
X32698502Y-51233879D01*
X32752158Y-51187386D01*
X32804500Y-51176000D01*
X40109967Y-51176000D01*
X40120512Y-51176442D01*
X40170300Y-51180623D01*
X40247743Y-51170289D01*
X40250743Y-51169927D01*
X40292498Y-51165391D01*
X40321634Y-51162226D01*
X40321636Y-51162226D01*
X40328417Y-51161489D01*
X40334883Y-51159313D01*
X40337233Y-51158796D01*
X40337783Y-51158699D01*
X40338550Y-51158520D01*
X40339085Y-51158365D01*
X40341432Y-51157789D01*
X40348190Y-51156887D01*
X40421542Y-51130189D01*
X40424443Y-51129174D01*
X40492039Y-51106425D01*
X40492046Y-51106422D01*
X40498511Y-51104246D01*
X40504360Y-51100731D01*
X40506553Y-51099718D01*
X40507068Y-51099506D01*
X40507766Y-51099173D01*
X40508267Y-51098900D01*
X40510421Y-51097840D01*
X40516834Y-51095506D01*
X40582802Y-51053641D01*
X40585394Y-51052041D01*
X40646502Y-51015324D01*
X40652344Y-51011814D01*
X40657295Y-51007133D01*
X40659231Y-51005663D01*
X40660162Y-51005015D01*
X40663996Y-51002115D01*
X40668364Y-50999343D01*
X40672464Y-50995677D01*
X40724385Y-50943756D01*
X40726907Y-50941303D01*
X40767026Y-50903364D01*
X40782740Y-50888504D01*
X40786578Y-50882856D01*
X40789909Y-50878942D01*
X40834615Y-50845497D01*
X40934527Y-50801013D01*
X41004894Y-50791579D01*
X41069191Y-50821685D01*
X41107004Y-50881774D01*
X41111603Y-50922713D01*
X41108041Y-50990682D01*
X41107707Y-50997064D01*
X41123200Y-51099506D01*
X41135468Y-51180623D01*
X41136825Y-51189599D01*
X41139028Y-51195585D01*
X41139029Y-51195591D01*
X41201860Y-51366360D01*
X41201862Y-51366365D01*
X41204063Y-51372346D01*
X41306674Y-51537840D01*
X41440466Y-51679322D01*
X41599975Y-51791011D01*
X41605838Y-51793548D01*
X41772825Y-51865810D01*
X41772829Y-51865811D01*
X41778684Y-51868345D01*
X41784931Y-51869650D01*
X41784934Y-51869651D01*
X41964557Y-51907176D01*
X41964562Y-51907177D01*
X41969293Y-51908165D01*
X41975685Y-51908500D01*
X42118663Y-51908500D01*
X42187951Y-51901462D01*
X42257378Y-51894410D01*
X42257379Y-51894410D01*
X42263727Y-51893765D01*
X42344843Y-51868345D01*
X42443451Y-51837444D01*
X42443456Y-51837442D01*
X42449541Y-51835535D01*
X42536475Y-51787346D01*
X42614271Y-51744223D01*
X42614274Y-51744221D01*
X42619850Y-51741130D01*
X42624691Y-51736981D01*
X42624695Y-51736978D01*
X42762855Y-51618560D01*
X42767698Y-51614409D01*
X42887046Y-51460547D01*
X42927779Y-51377768D01*
X42970200Y-51291556D01*
X42973018Y-51285829D01*
X42986550Y-51233879D01*
X43020492Y-51103575D01*
X43020492Y-51103572D01*
X43022102Y-51097393D01*
X43027499Y-50994416D01*
X43031959Y-50909317D01*
X43031959Y-50909313D01*
X43032293Y-50902936D01*
X43003175Y-50710401D01*
X43000972Y-50704415D01*
X43000971Y-50704409D01*
X42938140Y-50533640D01*
X42938138Y-50533635D01*
X42935937Y-50527654D01*
X42884090Y-50444034D01*
X42836688Y-50367582D01*
X42836687Y-50367581D01*
X42833326Y-50362160D01*
X42813451Y-50341142D01*
X42703919Y-50225315D01*
X42699534Y-50220678D01*
X42540025Y-50108989D01*
X42492013Y-50088212D01*
X42367175Y-50034190D01*
X42367171Y-50034189D01*
X42361316Y-50031655D01*
X42355069Y-50030350D01*
X42355066Y-50030349D01*
X42175443Y-49992824D01*
X42175438Y-49992823D01*
X42170707Y-49991835D01*
X42164315Y-49991500D01*
X42021337Y-49991500D01*
X41952049Y-49998538D01*
X41882622Y-50005590D01*
X41882621Y-50005590D01*
X41876273Y-50006235D01*
X41819939Y-50023889D01*
X41696549Y-50062556D01*
X41696544Y-50062558D01*
X41690459Y-50064465D01*
X41610137Y-50108989D01*
X41599901Y-50114663D01*
X41530624Y-50130195D01*
X41463947Y-50105807D01*
X41421041Y-50049243D01*
X41412955Y-50005227D01*
X41413504Y-50000000D01*
X41393542Y-49810072D01*
X41334527Y-49628444D01*
X41239040Y-49463056D01*
X41111253Y-49321134D01*
X40956752Y-49208882D01*
X40950724Y-49206198D01*
X40950722Y-49206197D01*
X40788319Y-49133891D01*
X40788318Y-49133891D01*
X40782288Y-49131206D01*
X40688887Y-49111353D01*
X40601944Y-49092872D01*
X40601939Y-49092872D01*
X40595487Y-49091500D01*
X40404513Y-49091500D01*
X40398061Y-49092872D01*
X40398056Y-49092872D01*
X40311113Y-49111353D01*
X40217712Y-49131206D01*
X40211682Y-49133891D01*
X40211681Y-49133891D01*
X40049278Y-49206197D01*
X40049276Y-49206198D01*
X40043248Y-49208882D01*
X39888747Y-49321134D01*
X39760960Y-49463056D01*
X39757659Y-49468774D01*
X39755271Y-49472061D01*
X39699048Y-49515415D01*
X39653335Y-49524000D01*
X32740283Y-49524000D01*
X32694229Y-49510478D01*
X32664452Y-49504000D01*
X32314986Y-49504000D01*
X32286835Y-49500699D01*
X32280316Y-49498255D01*
X32272468Y-49497402D01*
X32272466Y-49497402D01*
X32221531Y-49491869D01*
X32218134Y-49491500D01*
X31342000Y-49491500D01*
X31273879Y-49471498D01*
X31227386Y-49417842D01*
X31216000Y-49365500D01*
X31216000Y-49134500D01*
X31236002Y-49066379D01*
X31289658Y-49019886D01*
X31342000Y-49008500D01*
X32218134Y-49008500D01*
X32221531Y-49008131D01*
X32272466Y-49002598D01*
X32272468Y-49002598D01*
X32280316Y-49001745D01*
X32286835Y-48999301D01*
X32314986Y-48996000D01*
X32659884Y-48996000D01*
X32710615Y-48981104D01*
X32746113Y-48976000D01*
X38309967Y-48976000D01*
X38320512Y-48976442D01*
X38370300Y-48980623D01*
X38447743Y-48970289D01*
X38450743Y-48969927D01*
X38492498Y-48965391D01*
X38521634Y-48962226D01*
X38521636Y-48962226D01*
X38528417Y-48961489D01*
X38534883Y-48959313D01*
X38537233Y-48958796D01*
X38537783Y-48958699D01*
X38538550Y-48958520D01*
X38539085Y-48958365D01*
X38541432Y-48957789D01*
X38548190Y-48956887D01*
X38621542Y-48930189D01*
X38624443Y-48929174D01*
X38692039Y-48906425D01*
X38692046Y-48906422D01*
X38698511Y-48904246D01*
X38704360Y-48900731D01*
X38706553Y-48899718D01*
X38707064Y-48899508D01*
X38707769Y-48899171D01*
X38708270Y-48898898D01*
X38710419Y-48897841D01*
X38716834Y-48895506D01*
X38728021Y-48888407D01*
X38769334Y-48871548D01*
X38782288Y-48868794D01*
X38930806Y-48802670D01*
X38950722Y-48793803D01*
X38950724Y-48793802D01*
X38956752Y-48791118D01*
X39111253Y-48678866D01*
X39115675Y-48673955D01*
X39234621Y-48541852D01*
X39234622Y-48541851D01*
X39239040Y-48536944D01*
X39334527Y-48371556D01*
X39393542Y-48189928D01*
X39413504Y-48000000D01*
X39412495Y-47990401D01*
X39394232Y-47816635D01*
X39394232Y-47816633D01*
X39393542Y-47810072D01*
X39334527Y-47628444D01*
X39239040Y-47463056D01*
X39111253Y-47321134D01*
X39012157Y-47249136D01*
X38962094Y-47212763D01*
X38962093Y-47212762D01*
X38956752Y-47208882D01*
X38950724Y-47206198D01*
X38950722Y-47206197D01*
X38788319Y-47133891D01*
X38788318Y-47133891D01*
X38782288Y-47131206D01*
X38688887Y-47111353D01*
X38601944Y-47092872D01*
X38601939Y-47092872D01*
X38595487Y-47091500D01*
X38404513Y-47091500D01*
X38398061Y-47092872D01*
X38398056Y-47092872D01*
X38311113Y-47111353D01*
X38217712Y-47131206D01*
X38211682Y-47133891D01*
X38211681Y-47133891D01*
X38049278Y-47206197D01*
X38049276Y-47206198D01*
X38043248Y-47208882D01*
X38037907Y-47212762D01*
X38037906Y-47212763D01*
X37917923Y-47299936D01*
X37851055Y-47323795D01*
X37843862Y-47324000D01*
X35519388Y-47324000D01*
X35451267Y-47303998D01*
X35404774Y-47250342D01*
X35394078Y-47184830D01*
X35412814Y-47006565D01*
X35413504Y-47000000D01*
X35404588Y-46915170D01*
X35417360Y-46845332D01*
X35465862Y-46793485D01*
X35529898Y-46776000D01*
X38984681Y-46776000D01*
X39043019Y-46791631D01*
X39043248Y-46791118D01*
X39046488Y-46792561D01*
X39046491Y-46792562D01*
X39217712Y-46868794D01*
X39311112Y-46888647D01*
X39398056Y-46907128D01*
X39398061Y-46907128D01*
X39404513Y-46908500D01*
X39595487Y-46908500D01*
X39601939Y-46907128D01*
X39601944Y-46907128D01*
X39688888Y-46888647D01*
X39782288Y-46868794D01*
X39804596Y-46858862D01*
X39950722Y-46793803D01*
X39950724Y-46793802D01*
X39956752Y-46791118D01*
X40111253Y-46678866D01*
X40164640Y-46619574D01*
X40234621Y-46541852D01*
X40234622Y-46541851D01*
X40239040Y-46536944D01*
X40334527Y-46371556D01*
X40393542Y-46189928D01*
X40401113Y-46117899D01*
X40412814Y-46006565D01*
X40413504Y-46000000D01*
X40411895Y-45984694D01*
X40394232Y-45816635D01*
X40394232Y-45816633D01*
X40393542Y-45810072D01*
X40334527Y-45628444D01*
X40239040Y-45463056D01*
X40228965Y-45451866D01*
X40115675Y-45326045D01*
X40115674Y-45326044D01*
X40111253Y-45321134D01*
X39956752Y-45208882D01*
X39950724Y-45206198D01*
X39950722Y-45206197D01*
X39788319Y-45133891D01*
X39788318Y-45133891D01*
X39782288Y-45131206D01*
X39688887Y-45111353D01*
X39601944Y-45092872D01*
X39601939Y-45092872D01*
X39595487Y-45091500D01*
X39404513Y-45091500D01*
X39398060Y-45092872D01*
X39398056Y-45092872D01*
X39264565Y-45121247D01*
X39238368Y-45124000D01*
X35407017Y-45124000D01*
X35338896Y-45103998D01*
X35292403Y-45050342D01*
X35282299Y-44980068D01*
X35297897Y-44935001D01*
X35307804Y-44917842D01*
X35334527Y-44871556D01*
X35393542Y-44689928D01*
X35413504Y-44500000D01*
X35402735Y-44397534D01*
X35394232Y-44316635D01*
X35394232Y-44316633D01*
X35393542Y-44310072D01*
X35334527Y-44128444D01*
X35317972Y-44099769D01*
X35277563Y-44029779D01*
X35239040Y-43963056D01*
X35188726Y-43907176D01*
X35115675Y-43826045D01*
X35115674Y-43826044D01*
X35111253Y-43821134D01*
X34956752Y-43708882D01*
X34950724Y-43706198D01*
X34950722Y-43706197D01*
X34788319Y-43633891D01*
X34788318Y-43633891D01*
X34782288Y-43631206D01*
X34595487Y-43591500D01*
X34592824Y-43591500D01*
X34528519Y-43565041D01*
X34487890Y-43506819D01*
X34485189Y-43435874D01*
X34518253Y-43377651D01*
X34898840Y-42997064D01*
X41107707Y-42997064D01*
X41136825Y-43189599D01*
X41139028Y-43195585D01*
X41139029Y-43195591D01*
X41201860Y-43366360D01*
X41201862Y-43366365D01*
X41204063Y-43372346D01*
X41306674Y-43537840D01*
X41311055Y-43542473D01*
X41311056Y-43542474D01*
X41339944Y-43573022D01*
X41440466Y-43679322D01*
X41445696Y-43682984D01*
X41445697Y-43682985D01*
X41482682Y-43708882D01*
X41599975Y-43791011D01*
X41605838Y-43793548D01*
X41772825Y-43865810D01*
X41772829Y-43865811D01*
X41778684Y-43868345D01*
X41784931Y-43869650D01*
X41784934Y-43869651D01*
X41964557Y-43907176D01*
X41964562Y-43907177D01*
X41969293Y-43908165D01*
X41975685Y-43908500D01*
X42118663Y-43908500D01*
X42219051Y-43898303D01*
X42257378Y-43894410D01*
X42257379Y-43894410D01*
X42263727Y-43893765D01*
X42344843Y-43868345D01*
X42443451Y-43837444D01*
X42443456Y-43837442D01*
X42449541Y-43835535D01*
X42594897Y-43754962D01*
X42614271Y-43744223D01*
X42614274Y-43744221D01*
X42619850Y-43741130D01*
X42624691Y-43736981D01*
X42624695Y-43736978D01*
X42762855Y-43618560D01*
X42767698Y-43614409D01*
X42887046Y-43460547D01*
X42927779Y-43377768D01*
X42970200Y-43291556D01*
X42973018Y-43285829D01*
X42974628Y-43279649D01*
X43020492Y-43103575D01*
X43020492Y-43103572D01*
X43022102Y-43097393D01*
X43027694Y-42990683D01*
X43031959Y-42909317D01*
X43031959Y-42909313D01*
X43032293Y-42902936D01*
X43003175Y-42710401D01*
X43000972Y-42704415D01*
X43000971Y-42704409D01*
X42938140Y-42533640D01*
X42938138Y-42533635D01*
X42935937Y-42527654D01*
X42870080Y-42421438D01*
X42836688Y-42367582D01*
X42836687Y-42367581D01*
X42833326Y-42362160D01*
X42787510Y-42313710D01*
X42703919Y-42225315D01*
X42699534Y-42220678D01*
X42540025Y-42108989D01*
X42492013Y-42088212D01*
X42367175Y-42034190D01*
X42367171Y-42034189D01*
X42361316Y-42031655D01*
X42355069Y-42030350D01*
X42355066Y-42030349D01*
X42175443Y-41992824D01*
X42175438Y-41992823D01*
X42170707Y-41991835D01*
X42164315Y-41991500D01*
X42021337Y-41991500D01*
X41979103Y-41995790D01*
X41882622Y-42005590D01*
X41882621Y-42005590D01*
X41876273Y-42006235D01*
X41829898Y-42020768D01*
X41696549Y-42062556D01*
X41696544Y-42062558D01*
X41690459Y-42064465D01*
X41614713Y-42106452D01*
X41525729Y-42155777D01*
X41525726Y-42155779D01*
X41520150Y-42158870D01*
X41515309Y-42163019D01*
X41515305Y-42163022D01*
X41377145Y-42281440D01*
X41372302Y-42285591D01*
X41368391Y-42290633D01*
X41368390Y-42290634D01*
X41346516Y-42318834D01*
X41252954Y-42439453D01*
X41250138Y-42445176D01*
X41250136Y-42445179D01*
X41206608Y-42533640D01*
X41166982Y-42614171D01*
X41165373Y-42620349D01*
X41165372Y-42620351D01*
X41143477Y-42704409D01*
X41117898Y-42802607D01*
X41117564Y-42808986D01*
X41110206Y-42949385D01*
X41107707Y-42997064D01*
X34898840Y-42997064D01*
X35658169Y-42237735D01*
X35720481Y-42203709D01*
X35735829Y-42201351D01*
X35761592Y-42199006D01*
X35768294Y-42196828D01*
X35768296Y-42196828D01*
X35927401Y-42145132D01*
X35927404Y-42145131D01*
X35934100Y-42142955D01*
X36030505Y-42085486D01*
X36083852Y-42053685D01*
X36083854Y-42053684D01*
X36089904Y-42050077D01*
X36221258Y-41924990D01*
X36321635Y-41773910D01*
X36386047Y-41604346D01*
X36387027Y-41597374D01*
X36410740Y-41428647D01*
X36410740Y-41428644D01*
X36411291Y-41424725D01*
X36411608Y-41402008D01*
X36391389Y-41221753D01*
X36389072Y-41215099D01*
X36334056Y-41057114D01*
X36334054Y-41057111D01*
X36331737Y-41050456D01*
X36235618Y-40896632D01*
X36211379Y-40872223D01*
X36112770Y-40772923D01*
X36112766Y-40772920D01*
X36107807Y-40767926D01*
X36096689Y-40760870D01*
X36048530Y-40730308D01*
X35954658Y-40670735D01*
X35925455Y-40660336D01*
X35790417Y-40612251D01*
X35790412Y-40612250D01*
X35783782Y-40609889D01*
X35776794Y-40609056D01*
X35776791Y-40609055D01*
X35653690Y-40594376D01*
X35603672Y-40588412D01*
X35596669Y-40589148D01*
X35596668Y-40589148D01*
X35430280Y-40606636D01*
X35430278Y-40606637D01*
X35423280Y-40607372D01*
X35251571Y-40665826D01*
X35245567Y-40669520D01*
X35103087Y-40757174D01*
X35103084Y-40757176D01*
X35097080Y-40760870D01*
X35092045Y-40765801D01*
X35092042Y-40765803D01*
X34988438Y-40867260D01*
X34967485Y-40887779D01*
X34869227Y-41040246D01*
X34866818Y-41046866D01*
X34866816Y-41046869D01*
X34826384Y-41157956D01*
X34807189Y-41210693D01*
X34800129Y-41266577D01*
X34771749Y-41331650D01*
X34764219Y-41339877D01*
X32938908Y-43165187D01*
X32876596Y-43199213D01*
X32862986Y-43201402D01*
X32854210Y-43202324D01*
X32832288Y-43204628D01*
X32832286Y-43204628D01*
X32825288Y-43205364D01*
X32776082Y-43222115D01*
X32775838Y-43222198D01*
X32704906Y-43225216D01*
X32643602Y-43189406D01*
X32624714Y-43163431D01*
X32623765Y-43161698D01*
X32620615Y-43153295D01*
X32615230Y-43146109D01*
X32538642Y-43043919D01*
X32533261Y-43036739D01*
X32416705Y-42949385D01*
X32280316Y-42898255D01*
X32218134Y-42891500D01*
X30721866Y-42891500D01*
X30659684Y-42898255D01*
X30523295Y-42949385D01*
X30406739Y-43036739D01*
X30319385Y-43153295D01*
X30268255Y-43289684D01*
X30261500Y-43351866D01*
X30261500Y-44148134D01*
X30268255Y-44210316D01*
X30271027Y-44217709D01*
X30271027Y-44217711D01*
X30285295Y-44255771D01*
X30290478Y-44326578D01*
X30285295Y-44344229D01*
X30268255Y-44389684D01*
X30267402Y-44397532D01*
X30267402Y-44397534D01*
X30264343Y-44425692D01*
X30261500Y-44451866D01*
X30261500Y-45248134D01*
X30268255Y-45310316D01*
X30271027Y-45317709D01*
X30271027Y-45317711D01*
X30285295Y-45355771D01*
X30290478Y-45426578D01*
X30285295Y-45444229D01*
X30268255Y-45489684D01*
X30267402Y-45497532D01*
X30267402Y-45497534D01*
X30261869Y-45548469D01*
X30261500Y-45551866D01*
X30261500Y-45789169D01*
X30241498Y-45857290D01*
X30187842Y-45903783D01*
X30117568Y-45913887D01*
X30052988Y-45884393D01*
X30046405Y-45878264D01*
X30015460Y-45847319D01*
X29981434Y-45785007D01*
X29984962Y-45718556D01*
X29990342Y-45702338D01*
X29997797Y-45679861D01*
X29998894Y-45669160D01*
X30003065Y-45628444D01*
X30008500Y-45575400D01*
X30008500Y-44524600D01*
X30005948Y-44500000D01*
X29998238Y-44425692D01*
X29998237Y-44425688D01*
X29997526Y-44418834D01*
X29941550Y-44251054D01*
X29848478Y-44100652D01*
X29849905Y-44099769D01*
X29826617Y-44042231D01*
X29826000Y-44029779D01*
X29826000Y-43970199D01*
X29846002Y-43902078D01*
X29847169Y-43900443D01*
X29849305Y-43898303D01*
X29866967Y-43869651D01*
X29938275Y-43753968D01*
X29938276Y-43753966D01*
X29942115Y-43747738D01*
X29984961Y-43618560D01*
X29995632Y-43586389D01*
X29995632Y-43586387D01*
X29997797Y-43579861D01*
X29999316Y-43565041D01*
X30005281Y-43506819D01*
X30008500Y-43475400D01*
X30008500Y-42424600D01*
X30002584Y-42367582D01*
X29998238Y-42325692D01*
X29998237Y-42325688D01*
X29997526Y-42318834D01*
X29985051Y-42281440D01*
X29943868Y-42158002D01*
X29941550Y-42151054D01*
X29848478Y-42000652D01*
X29849905Y-41999769D01*
X29826617Y-41942231D01*
X29826000Y-41929779D01*
X29826000Y-41540034D01*
X29826442Y-41529490D01*
X29830052Y-41486499D01*
X29830623Y-41479701D01*
X29829721Y-41472937D01*
X29820295Y-41402288D01*
X29819925Y-41399234D01*
X29812226Y-41328364D01*
X29812225Y-41328361D01*
X29811489Y-41321583D01*
X29809315Y-41315122D01*
X29808794Y-41312753D01*
X29808697Y-41312204D01*
X29808525Y-41311463D01*
X29808368Y-41310923D01*
X29807790Y-41308571D01*
X29806888Y-41301810D01*
X29780178Y-41228425D01*
X29779161Y-41225522D01*
X29756422Y-41157956D01*
X29754246Y-41151489D01*
X29750731Y-41145639D01*
X29749718Y-41143447D01*
X29749506Y-41142932D01*
X29749173Y-41142234D01*
X29748900Y-41141733D01*
X29747840Y-41139579D01*
X29745506Y-41133166D01*
X29703641Y-41067198D01*
X29702041Y-41064606D01*
X29691384Y-41046869D01*
X29661814Y-40997656D01*
X29657133Y-40992705D01*
X29655663Y-40990769D01*
X29655016Y-40989838D01*
X29652113Y-40986000D01*
X29649343Y-40981636D01*
X29645677Y-40977537D01*
X29593772Y-40925632D01*
X29591319Y-40923110D01*
X29543198Y-40872223D01*
X29543194Y-40872220D01*
X29538504Y-40867260D01*
X29532857Y-40863422D01*
X29528005Y-40859293D01*
X29520575Y-40852435D01*
X27241947Y-38573807D01*
X27207921Y-38511495D01*
X27212986Y-38440680D01*
X27255533Y-38383844D01*
X27282713Y-38369748D01*
X27282288Y-38368794D01*
X27450722Y-38293803D01*
X27450724Y-38293802D01*
X27456752Y-38291118D01*
X27611253Y-38178866D01*
X27739040Y-38036944D01*
X27834527Y-37871556D01*
X27880167Y-37731090D01*
X27920241Y-37672486D01*
X27985637Y-37644849D01*
X28055594Y-37656956D01*
X28107900Y-37704962D01*
X28119832Y-37731089D01*
X28165473Y-37871556D01*
X28260960Y-38036944D01*
X28388747Y-38178866D01*
X28543248Y-38291118D01*
X28549276Y-38293802D01*
X28549278Y-38293803D01*
X28615748Y-38323397D01*
X28717712Y-38368794D01*
X28790121Y-38384185D01*
X28898056Y-38407128D01*
X28898061Y-38407128D01*
X28904513Y-38408500D01*
X29095487Y-38408500D01*
X29101939Y-38407128D01*
X29101944Y-38407128D01*
X29209879Y-38384185D01*
X29282288Y-38368794D01*
X29384252Y-38323397D01*
X29450722Y-38293803D01*
X29450724Y-38293802D01*
X29456752Y-38291118D01*
X29611253Y-38178866D01*
X29739040Y-38036944D01*
X29834527Y-37871556D01*
X29880167Y-37731090D01*
X29920241Y-37672486D01*
X29985637Y-37644849D01*
X30055594Y-37656956D01*
X30107900Y-37704962D01*
X30119832Y-37731089D01*
X30165473Y-37871556D01*
X30260960Y-38036944D01*
X30388747Y-38178866D01*
X30543248Y-38291118D01*
X30549276Y-38293802D01*
X30549278Y-38293803D01*
X30615748Y-38323397D01*
X30717712Y-38368794D01*
X30724167Y-38370166D01*
X30724170Y-38370167D01*
X30761696Y-38378143D01*
X30824170Y-38411871D01*
X30858491Y-38474020D01*
X30861500Y-38501390D01*
X30861500Y-39998134D01*
X30868255Y-40060316D01*
X30919385Y-40196705D01*
X31006739Y-40313261D01*
X31123295Y-40400615D01*
X31259684Y-40451745D01*
X31321866Y-40458500D01*
X32818134Y-40458500D01*
X32880316Y-40451745D01*
X33016705Y-40400615D01*
X33133261Y-40313261D01*
X33220615Y-40196705D01*
X33271745Y-40060316D01*
X33278500Y-39998134D01*
X33278500Y-38452306D01*
X33298502Y-38384185D01*
X33353252Y-38337199D01*
X33450719Y-38293805D01*
X33450726Y-38293801D01*
X33456752Y-38291118D01*
X33611253Y-38178866D01*
X33739040Y-38036944D01*
X33834527Y-37871556D01*
X33880167Y-37731090D01*
X33920241Y-37672486D01*
X33985637Y-37644849D01*
X34055594Y-37656956D01*
X34107900Y-37704962D01*
X34119832Y-37731089D01*
X34165473Y-37871556D01*
X34260960Y-38036944D01*
X34388747Y-38178866D01*
X34543248Y-38291118D01*
X34549276Y-38293802D01*
X34549278Y-38293803D01*
X34615748Y-38323397D01*
X34717712Y-38368794D01*
X34790121Y-38384185D01*
X34898056Y-38407128D01*
X34898061Y-38407128D01*
X34904513Y-38408500D01*
X35095487Y-38408500D01*
X35101939Y-38407128D01*
X35101944Y-38407128D01*
X35209879Y-38384185D01*
X35282288Y-38368794D01*
X35384252Y-38323397D01*
X35450722Y-38293803D01*
X35450724Y-38293802D01*
X35456752Y-38291118D01*
X35611253Y-38178866D01*
X35739040Y-38036944D01*
X35834527Y-37871556D01*
X35893542Y-37689928D01*
X35897008Y-37656956D01*
X35912814Y-37506565D01*
X35913504Y-37500000D01*
X35907881Y-37446502D01*
X35894232Y-37316635D01*
X35894232Y-37316633D01*
X35893542Y-37310072D01*
X35834527Y-37128444D01*
X35835346Y-37128178D01*
X35826000Y-37084207D01*
X35826000Y-36904540D01*
X35846002Y-36836419D01*
X35885697Y-36797396D01*
X35918120Y-36777332D01*
X35924348Y-36773478D01*
X36049305Y-36648303D01*
X36053146Y-36642072D01*
X36138275Y-36503968D01*
X36138276Y-36503966D01*
X36142115Y-36497738D01*
X36197797Y-36329861D01*
X36208500Y-36225400D01*
X36208500Y-35599600D01*
X36208163Y-35596350D01*
X36198238Y-35500692D01*
X36198237Y-35500688D01*
X36197526Y-35493834D01*
X36141550Y-35326054D01*
X36048478Y-35175652D01*
X36001417Y-35128673D01*
X35967338Y-35066391D01*
X35972341Y-34995570D01*
X36014838Y-34938698D01*
X36081337Y-34913829D01*
X36090435Y-34913500D01*
X36598000Y-34913500D01*
X36666121Y-34933502D01*
X36712614Y-34987158D01*
X36724000Y-35039500D01*
X36724000Y-35043733D01*
X36705260Y-35109848D01*
X36677472Y-35154929D01*
X36643881Y-35209424D01*
X36632885Y-35227262D01*
X36630581Y-35234209D01*
X36595318Y-35340525D01*
X36577203Y-35395139D01*
X36566500Y-35499600D01*
X36566500Y-36500400D01*
X36566837Y-36503646D01*
X36566837Y-36503650D01*
X36569426Y-36528598D01*
X36577474Y-36606166D01*
X36579655Y-36612702D01*
X36579655Y-36612704D01*
X36595259Y-36659475D01*
X36633450Y-36773946D01*
X36726522Y-36924348D01*
X36851697Y-37049305D01*
X36857927Y-37053145D01*
X36857928Y-37053146D01*
X36995090Y-37137694D01*
X37002262Y-37142115D01*
X37062934Y-37162239D01*
X37163611Y-37195632D01*
X37163613Y-37195632D01*
X37170139Y-37197797D01*
X37176975Y-37198497D01*
X37176978Y-37198498D01*
X37220031Y-37202909D01*
X37274600Y-37208500D01*
X37900400Y-37208500D01*
X37903646Y-37208163D01*
X37903650Y-37208163D01*
X37999308Y-37198238D01*
X37999312Y-37198237D01*
X38006166Y-37197526D01*
X38012702Y-37195345D01*
X38012704Y-37195345D01*
X38159667Y-37146314D01*
X38173946Y-37141550D01*
X38324348Y-37048478D01*
X38371327Y-37001417D01*
X38433609Y-36967338D01*
X38504430Y-36972341D01*
X38561302Y-37014838D01*
X38586171Y-37081337D01*
X38586500Y-37090435D01*
X38586500Y-37372467D01*
X38586058Y-37383011D01*
X38581877Y-37432800D01*
X38582779Y-37439560D01*
X38586425Y-37466881D01*
X38586703Y-37486832D01*
X38587187Y-37486832D01*
X38587187Y-37493430D01*
X38586496Y-37500000D01*
X38587186Y-37506565D01*
X38587186Y-37506567D01*
X38603363Y-37660485D01*
X38606458Y-37689928D01*
X38665473Y-37871556D01*
X38760960Y-38036944D01*
X38888747Y-38178866D01*
X39043248Y-38291118D01*
X39049276Y-38293802D01*
X39049278Y-38293803D01*
X39115748Y-38323397D01*
X39217712Y-38368794D01*
X39290121Y-38384185D01*
X39398056Y-38407128D01*
X39398061Y-38407128D01*
X39404513Y-38408500D01*
X39595487Y-38408500D01*
X39601939Y-38407128D01*
X39601944Y-38407128D01*
X39709879Y-38384185D01*
X39782288Y-38368794D01*
X39884252Y-38323397D01*
X39954618Y-38313963D01*
X40018915Y-38344069D01*
X40056729Y-38404158D01*
X40061500Y-38438504D01*
X40061500Y-38898134D01*
X40068255Y-38960316D01*
X40119385Y-39096705D01*
X40206739Y-39213261D01*
X40323295Y-39300615D01*
X40459684Y-39351745D01*
X40521866Y-39358500D01*
X42818134Y-39358500D01*
X42880316Y-39351745D01*
X43016705Y-39300615D01*
X43133261Y-39213261D01*
X43220615Y-39096705D01*
X43271745Y-38960316D01*
X43278500Y-38898134D01*
X43278500Y-38534499D01*
X43298502Y-38466378D01*
X43352158Y-38419885D01*
X43404513Y-38410584D01*
X43404513Y-38408500D01*
X43595487Y-38408500D01*
X43601939Y-38407128D01*
X43601944Y-38407128D01*
X43709879Y-38384185D01*
X43782288Y-38368794D01*
X43884252Y-38323397D01*
X43950722Y-38293803D01*
X43950724Y-38293802D01*
X43956752Y-38291118D01*
X44111253Y-38178866D01*
X44239040Y-38036944D01*
X44334527Y-37871556D01*
X44393542Y-37689928D01*
X44397008Y-37656956D01*
X44412814Y-37506565D01*
X44413504Y-37500000D01*
X44407881Y-37446502D01*
X44394232Y-37316635D01*
X44394232Y-37316633D01*
X44393542Y-37310072D01*
X44334527Y-37128444D01*
X44281837Y-37037182D01*
X44265099Y-36968188D01*
X44283695Y-36908070D01*
X44367115Y-36772738D01*
X44380449Y-36732537D01*
X44420880Y-36674177D01*
X44486445Y-36646941D01*
X44556326Y-36659475D01*
X44608338Y-36707800D01*
X44619566Y-36732330D01*
X44629130Y-36760996D01*
X44633450Y-36773946D01*
X44726522Y-36924348D01*
X44851697Y-37049305D01*
X44857927Y-37053145D01*
X44857928Y-37053146D01*
X44995090Y-37137694D01*
X45002262Y-37142115D01*
X45062934Y-37162239D01*
X45163611Y-37195632D01*
X45163613Y-37195632D01*
X45170139Y-37197797D01*
X45176975Y-37198497D01*
X45176978Y-37198498D01*
X45220031Y-37202909D01*
X45274600Y-37208500D01*
X45900400Y-37208500D01*
X45903644Y-37208163D01*
X45903652Y-37208163D01*
X45964968Y-37201801D01*
X46034789Y-37214666D01*
X46086571Y-37263237D01*
X46103873Y-37332093D01*
X46103281Y-37340298D01*
X46092119Y-37446502D01*
X46086496Y-37500000D01*
X46087186Y-37506565D01*
X46102993Y-37656956D01*
X46106458Y-37689928D01*
X46165473Y-37871556D01*
X46260960Y-38036944D01*
X46388747Y-38178866D01*
X46543248Y-38291118D01*
X46549276Y-38293802D01*
X46549278Y-38293803D01*
X46615748Y-38323397D01*
X46717712Y-38368794D01*
X46790121Y-38384185D01*
X46898056Y-38407128D01*
X46898061Y-38407128D01*
X46904513Y-38408500D01*
X47095487Y-38408500D01*
X47101939Y-38407128D01*
X47101944Y-38407128D01*
X47209879Y-38384185D01*
X47282288Y-38368794D01*
X47384252Y-38323397D01*
X47450722Y-38293803D01*
X47450724Y-38293802D01*
X47456752Y-38291118D01*
X47611253Y-38178866D01*
X47739040Y-38036944D01*
X47834527Y-37871556D01*
X47843442Y-37844118D01*
X47874180Y-37793960D01*
X47968255Y-37699885D01*
X47976023Y-37692742D01*
X48008975Y-37664895D01*
X48008977Y-37664893D01*
X48014193Y-37660485D01*
X48061634Y-37598434D01*
X48063532Y-37596014D01*
X48108193Y-37540468D01*
X48112469Y-37535150D01*
X48115502Y-37529040D01*
X48116804Y-37527004D01*
X48117123Y-37526548D01*
X48117533Y-37525890D01*
X48117802Y-37525400D01*
X48119053Y-37523334D01*
X48123197Y-37517914D01*
X48156196Y-37447146D01*
X48157530Y-37444375D01*
X48166591Y-37426121D01*
X48192267Y-37374398D01*
X48193919Y-37367773D01*
X48194753Y-37365506D01*
X48194972Y-37364981D01*
X48195221Y-37364277D01*
X48195383Y-37363727D01*
X48196161Y-37361443D01*
X48199043Y-37355261D01*
X48200531Y-37348603D01*
X48200534Y-37348595D01*
X48216081Y-37279042D01*
X48216789Y-37276046D01*
X48234033Y-37206885D01*
X48234033Y-37206882D01*
X48235684Y-37200262D01*
X48235875Y-37193441D01*
X48236203Y-37191044D01*
X48236404Y-37189930D01*
X48237066Y-37185156D01*
X48238193Y-37180116D01*
X48238500Y-37174625D01*
X48238500Y-37101211D01*
X48238549Y-37097693D01*
X48239860Y-37050764D01*
X48240695Y-37020865D01*
X48240209Y-37018315D01*
X48254351Y-36950397D01*
X48266593Y-36931700D01*
X48269134Y-36928483D01*
X48274305Y-36923303D01*
X48283698Y-36908066D01*
X48363275Y-36778968D01*
X48363276Y-36778966D01*
X48367115Y-36772738D01*
X48401670Y-36668558D01*
X48420632Y-36611389D01*
X48420632Y-36611387D01*
X48422797Y-36604861D01*
X48433500Y-36500400D01*
X48433500Y-35499600D01*
X48432360Y-35488611D01*
X48423238Y-35400692D01*
X48423237Y-35400688D01*
X48422526Y-35393834D01*
X48416939Y-35377086D01*
X48368868Y-35233002D01*
X48366550Y-35226054D01*
X48294856Y-35110198D01*
X48276000Y-35043895D01*
X48276000Y-33892661D01*
X48272764Y-33862875D01*
X48262226Y-33765864D01*
X48262225Y-33765861D01*
X48261489Y-33759083D01*
X48260902Y-33757338D01*
X48258500Y-33735233D01*
X48258500Y-33283498D01*
X48256769Y-33261500D01*
X48256067Y-33252579D01*
X48256066Y-33252574D01*
X48255562Y-33246169D01*
X48221981Y-33130581D01*
X48211357Y-33094012D01*
X48211356Y-33094010D01*
X48209145Y-33086399D01*
X48190482Y-33054842D01*
X48128491Y-32950020D01*
X48128489Y-32950017D01*
X48124453Y-32943193D01*
X48006807Y-32825547D01*
X47999983Y-32821511D01*
X47999980Y-32821509D01*
X47870427Y-32744892D01*
X47870428Y-32744892D01*
X47863601Y-32740855D01*
X47855990Y-32738644D01*
X47855988Y-32738643D01*
X47788230Y-32718958D01*
X47703831Y-32694438D01*
X47697426Y-32693934D01*
X47697421Y-32693933D01*
X47668958Y-32691693D01*
X47668950Y-32691693D01*
X47666502Y-32691500D01*
X47434500Y-32691500D01*
X47366379Y-32671498D01*
X47319886Y-32617842D01*
X47308500Y-32565500D01*
X47308500Y-32474332D01*
X47328502Y-32406211D01*
X47345404Y-32385237D01*
X47702773Y-32027867D01*
X47740621Y-32001855D01*
X47856970Y-31950054D01*
X47856973Y-31950052D01*
X47863002Y-31947368D01*
X48017503Y-31835116D01*
X48145290Y-31693194D01*
X48240777Y-31527806D01*
X48299792Y-31346178D01*
X48303757Y-31308458D01*
X48319064Y-31162815D01*
X48319754Y-31156250D01*
X48311504Y-31077751D01*
X48300483Y-30972892D01*
X48300482Y-30972888D01*
X48299792Y-30966322D01*
X48297751Y-30960040D01*
X48296424Y-30953798D01*
X48301826Y-30883007D01*
X48312411Y-30861485D01*
X48363275Y-30778968D01*
X48363276Y-30778967D01*
X48367115Y-30772738D01*
X48399806Y-30674177D01*
X48420632Y-30611389D01*
X48420632Y-30611387D01*
X48422797Y-30604861D01*
X48433500Y-30500400D01*
X48433500Y-29499600D01*
X48422526Y-29393834D01*
X48416939Y-29377086D01*
X48372653Y-29244346D01*
X48366550Y-29226054D01*
X48273478Y-29075652D01*
X48148303Y-28950695D01*
X48142072Y-28946854D01*
X48003968Y-28861725D01*
X48003966Y-28861724D01*
X47997738Y-28857885D01*
X47916793Y-28831037D01*
X47836389Y-28804368D01*
X47836387Y-28804368D01*
X47829861Y-28802203D01*
X47823025Y-28801503D01*
X47823022Y-28801502D01*
X47779969Y-28797091D01*
X47725400Y-28791500D01*
X47099600Y-28791500D01*
X47096354Y-28791837D01*
X47096350Y-28791837D01*
X47000692Y-28801762D01*
X47000688Y-28801763D01*
X46993834Y-28802474D01*
X46987298Y-28804655D01*
X46987296Y-28804655D01*
X46906569Y-28831588D01*
X46826054Y-28858450D01*
X46675652Y-28951522D01*
X46670479Y-28956704D01*
X46670474Y-28956708D01*
X46616302Y-29010975D01*
X46554020Y-29045055D01*
X46483200Y-29040052D01*
X46426327Y-28997555D01*
X46401866Y-28935566D01*
X46399726Y-28915867D01*
X46398989Y-28909083D01*
X46396812Y-28902615D01*
X46396296Y-28900268D01*
X46396198Y-28899714D01*
X46396022Y-28898958D01*
X46395864Y-28898414D01*
X46395289Y-28896074D01*
X46394387Y-28889310D01*
X46392054Y-28882901D01*
X46392053Y-28882896D01*
X46367689Y-28815959D01*
X46366671Y-28813052D01*
X46343924Y-28745459D01*
X46343922Y-28745454D01*
X46341746Y-28738989D01*
X46338229Y-28733136D01*
X46337220Y-28730953D01*
X46337011Y-28730446D01*
X46336667Y-28729726D01*
X46336396Y-28729228D01*
X46335341Y-28727083D01*
X46333005Y-28720665D01*
X46291149Y-28654711D01*
X46289564Y-28652143D01*
X46252828Y-28591004D01*
X46252827Y-28591003D01*
X46249314Y-28585156D01*
X46244626Y-28580199D01*
X46243157Y-28578263D01*
X46242516Y-28577340D01*
X46239608Y-28573495D01*
X46236842Y-28569136D01*
X46233177Y-28565036D01*
X46181256Y-28513115D01*
X46178803Y-28510593D01*
X46130693Y-28459718D01*
X46130691Y-28459716D01*
X46126004Y-28454760D01*
X46120362Y-28450926D01*
X46115518Y-28446803D01*
X46108088Y-28439947D01*
X45612379Y-27944239D01*
X45605236Y-27936471D01*
X45577390Y-27903520D01*
X45572985Y-27898307D01*
X45510934Y-27850866D01*
X45508514Y-27848968D01*
X45452968Y-27804307D01*
X45447650Y-27800031D01*
X45441540Y-27796998D01*
X45439504Y-27795696D01*
X45439048Y-27795377D01*
X45438390Y-27794967D01*
X45437900Y-27794698D01*
X45435834Y-27793447D01*
X45430414Y-27789303D01*
X45359646Y-27756304D01*
X45356874Y-27754969D01*
X45317975Y-27735659D01*
X45265853Y-27687454D01*
X45248000Y-27622800D01*
X45248000Y-27042115D01*
X45243525Y-27026876D01*
X45242135Y-27025671D01*
X45234452Y-27024000D01*
X36142000Y-27024000D01*
X36073879Y-27003998D01*
X36027386Y-26950342D01*
X36016000Y-26898000D01*
X36016000Y-26642000D01*
X36036002Y-26573879D01*
X36089658Y-26527386D01*
X36142000Y-26516000D01*
X45229884Y-26516000D01*
X45245123Y-26511525D01*
X45246328Y-26510135D01*
X45247999Y-26502452D01*
X45247999Y-25875331D01*
X45247629Y-25868510D01*
X45242105Y-25817648D01*
X45238479Y-25802396D01*
X45193324Y-25681946D01*
X45184786Y-25666351D01*
X45108285Y-25564276D01*
X45095724Y-25551715D01*
X44993649Y-25475214D01*
X44978054Y-25466676D01*
X44867813Y-25425348D01*
X44811049Y-25382706D01*
X44786349Y-25316145D01*
X44801557Y-25246796D01*
X44823104Y-25218115D01*
X44924430Y-25117144D01*
X44924440Y-25117132D01*
X44928096Y-25113489D01*
X44987594Y-25030689D01*
X45055435Y-24936277D01*
X45058453Y-24932077D01*
X45079320Y-24889857D01*
X45155136Y-24736453D01*
X45155137Y-24736451D01*
X45157430Y-24731811D01*
X45222370Y-24518069D01*
X45251529Y-24296590D01*
X45253156Y-24230000D01*
X45234852Y-24007361D01*
X45180431Y-23790702D01*
X45091354Y-23585840D01*
X44970014Y-23398277D01*
X44819670Y-23233051D01*
X44815619Y-23229852D01*
X44815615Y-23229848D01*
X44648414Y-23097800D01*
X44648410Y-23097798D01*
X44644359Y-23094598D01*
X44448789Y-22986638D01*
X44443920Y-22984914D01*
X44443916Y-22984912D01*
X44243087Y-22913795D01*
X44243083Y-22913794D01*
X44238212Y-22912069D01*
X44233119Y-22911162D01*
X44233116Y-22911161D01*
X44023373Y-22873800D01*
X44023367Y-22873799D01*
X44018284Y-22872894D01*
X43944452Y-22871992D01*
X43800081Y-22870228D01*
X43800079Y-22870228D01*
X43794911Y-22870165D01*
X43574091Y-22903955D01*
X43361756Y-22973357D01*
X43163607Y-23076507D01*
X43159474Y-23079610D01*
X43159471Y-23079612D01*
X43135247Y-23097800D01*
X42984965Y-23210635D01*
X42830629Y-23372138D01*
X42723201Y-23529621D01*
X42668293Y-23574621D01*
X42597768Y-23582792D01*
X42534021Y-23551538D01*
X42513324Y-23527054D01*
X42432822Y-23402617D01*
X42432820Y-23402614D01*
X42430014Y-23398277D01*
X42279670Y-23233051D01*
X42275619Y-23229852D01*
X42275615Y-23229848D01*
X42108414Y-23097800D01*
X42108410Y-23097798D01*
X42104359Y-23094598D01*
X41908789Y-22986638D01*
X41903920Y-22984914D01*
X41903916Y-22984912D01*
X41703087Y-22913795D01*
X41703083Y-22913794D01*
X41698212Y-22912069D01*
X41693119Y-22911162D01*
X41693116Y-22911161D01*
X41483373Y-22873800D01*
X41483367Y-22873799D01*
X41478284Y-22872894D01*
X41404452Y-22871992D01*
X41260081Y-22870228D01*
X41260079Y-22870228D01*
X41254911Y-22870165D01*
X41034091Y-22903955D01*
X40821756Y-22973357D01*
X40623607Y-23076507D01*
X40619474Y-23079610D01*
X40619471Y-23079612D01*
X40595247Y-23097800D01*
X40444965Y-23210635D01*
X40290629Y-23372138D01*
X40183201Y-23529621D01*
X40128293Y-23574621D01*
X40057768Y-23582792D01*
X39994021Y-23551538D01*
X39973324Y-23527054D01*
X39892822Y-23402617D01*
X39892820Y-23402614D01*
X39890014Y-23398277D01*
X39739670Y-23233051D01*
X39735619Y-23229852D01*
X39735615Y-23229848D01*
X39568414Y-23097800D01*
X39568410Y-23097798D01*
X39564359Y-23094598D01*
X39368789Y-22986638D01*
X39363920Y-22984914D01*
X39363916Y-22984912D01*
X39163087Y-22913795D01*
X39163083Y-22913794D01*
X39158212Y-22912069D01*
X39153119Y-22911162D01*
X39153116Y-22911161D01*
X38943373Y-22873800D01*
X38943367Y-22873799D01*
X38938284Y-22872894D01*
X38864452Y-22871992D01*
X38720081Y-22870228D01*
X38720079Y-22870228D01*
X38714911Y-22870165D01*
X38494091Y-22903955D01*
X38281756Y-22973357D01*
X38083607Y-23076507D01*
X38079474Y-23079610D01*
X38079471Y-23079612D01*
X38055247Y-23097800D01*
X37904965Y-23210635D01*
X37750629Y-23372138D01*
X37643201Y-23529621D01*
X37588293Y-23574621D01*
X37517768Y-23582792D01*
X37454021Y-23551538D01*
X37433324Y-23527054D01*
X37352822Y-23402617D01*
X37352820Y-23402614D01*
X37350014Y-23398277D01*
X37199670Y-23233051D01*
X37195619Y-23229852D01*
X37195615Y-23229848D01*
X37028414Y-23097800D01*
X37028410Y-23097798D01*
X37024359Y-23094598D01*
X36828789Y-22986638D01*
X36823920Y-22984914D01*
X36823916Y-22984912D01*
X36623087Y-22913795D01*
X36623083Y-22913794D01*
X36618212Y-22912069D01*
X36613119Y-22911162D01*
X36613116Y-22911161D01*
X36403373Y-22873800D01*
X36403367Y-22873799D01*
X36398284Y-22872894D01*
X36324452Y-22871992D01*
X36180081Y-22870228D01*
X36180079Y-22870228D01*
X36174911Y-22870165D01*
X35954091Y-22903955D01*
X35741756Y-22973357D01*
X35543607Y-23076507D01*
X35539474Y-23079610D01*
X35539471Y-23079612D01*
X35515247Y-23097800D01*
X35364965Y-23210635D01*
X35210629Y-23372138D01*
X35103201Y-23529621D01*
X35048293Y-23574621D01*
X34977768Y-23582792D01*
X34914021Y-23551538D01*
X34893324Y-23527054D01*
X34812822Y-23402617D01*
X34812820Y-23402614D01*
X34810014Y-23398277D01*
X34659670Y-23233051D01*
X34655619Y-23229852D01*
X34655615Y-23229848D01*
X34488414Y-23097800D01*
X34488410Y-23097798D01*
X34484359Y-23094598D01*
X34288789Y-22986638D01*
X34283920Y-22984914D01*
X34283916Y-22984912D01*
X34083087Y-22913795D01*
X34083083Y-22913794D01*
X34078212Y-22912069D01*
X34073119Y-22911162D01*
X34073116Y-22911161D01*
X33863373Y-22873800D01*
X33863367Y-22873799D01*
X33858284Y-22872894D01*
X33784452Y-22871992D01*
X33640081Y-22870228D01*
X33640079Y-22870228D01*
X33634911Y-22870165D01*
X33414091Y-22903955D01*
X33201756Y-22973357D01*
X33003607Y-23076507D01*
X32999474Y-23079610D01*
X32999471Y-23079612D01*
X32975247Y-23097800D01*
X32824965Y-23210635D01*
X32670629Y-23372138D01*
X32563201Y-23529621D01*
X32508293Y-23574621D01*
X32437768Y-23582792D01*
X32374021Y-23551538D01*
X32353324Y-23527054D01*
X32272822Y-23402617D01*
X32272820Y-23402614D01*
X32270014Y-23398277D01*
X32119670Y-23233051D01*
X32115619Y-23229852D01*
X32115615Y-23229848D01*
X31948414Y-23097800D01*
X31948410Y-23097798D01*
X31944359Y-23094598D01*
X31748789Y-22986638D01*
X31743920Y-22984914D01*
X31743916Y-22984912D01*
X31543087Y-22913795D01*
X31543083Y-22913794D01*
X31538212Y-22912069D01*
X31533119Y-22911162D01*
X31533116Y-22911161D01*
X31323373Y-22873800D01*
X31323367Y-22873799D01*
X31318284Y-22872894D01*
X31244452Y-22871992D01*
X31100081Y-22870228D01*
X31100079Y-22870228D01*
X31094911Y-22870165D01*
X30874091Y-22903955D01*
X30661756Y-22973357D01*
X30463607Y-23076507D01*
X30459474Y-23079610D01*
X30459471Y-23079612D01*
X30435247Y-23097800D01*
X30284965Y-23210635D01*
X30130629Y-23372138D01*
X30023201Y-23529621D01*
X29968293Y-23574621D01*
X29897768Y-23582792D01*
X29834021Y-23551538D01*
X29813324Y-23527054D01*
X29732822Y-23402617D01*
X29732820Y-23402614D01*
X29730014Y-23398277D01*
X29579670Y-23233051D01*
X29575619Y-23229852D01*
X29575615Y-23229848D01*
X29408414Y-23097800D01*
X29408410Y-23097798D01*
X29404359Y-23094598D01*
X29208789Y-22986638D01*
X29203920Y-22984914D01*
X29203916Y-22984912D01*
X29003087Y-22913795D01*
X29003083Y-22913794D01*
X28998212Y-22912069D01*
X28993119Y-22911162D01*
X28993116Y-22911161D01*
X28783373Y-22873800D01*
X28783367Y-22873799D01*
X28778284Y-22872894D01*
X28704452Y-22871992D01*
X28560081Y-22870228D01*
X28560079Y-22870228D01*
X28554911Y-22870165D01*
X28334091Y-22903955D01*
X28121756Y-22973357D01*
X27923607Y-23076507D01*
X27919474Y-23079610D01*
X27919471Y-23079612D01*
X27895247Y-23097800D01*
X27744965Y-23210635D01*
X27590629Y-23372138D01*
X27483201Y-23529621D01*
X27428293Y-23574621D01*
X27357768Y-23582792D01*
X27294021Y-23551538D01*
X27273324Y-23527054D01*
X27192822Y-23402617D01*
X27192820Y-23402614D01*
X27190014Y-23398277D01*
X27039670Y-23233051D01*
X27035619Y-23229852D01*
X27035615Y-23229848D01*
X26868414Y-23097800D01*
X26868410Y-23097798D01*
X26864359Y-23094598D01*
X26668789Y-22986638D01*
X26663920Y-22984914D01*
X26663916Y-22984912D01*
X26463087Y-22913795D01*
X26463083Y-22913794D01*
X26458212Y-22912069D01*
X26453119Y-22911162D01*
X26453116Y-22911161D01*
X26243373Y-22873800D01*
X26243367Y-22873799D01*
X26238284Y-22872894D01*
X26164452Y-22871992D01*
X26020081Y-22870228D01*
X26020079Y-22870228D01*
X26014911Y-22870165D01*
X25794091Y-22903955D01*
X25581756Y-22973357D01*
X25383607Y-23076507D01*
X25379474Y-23079610D01*
X25379471Y-23079612D01*
X25355247Y-23097800D01*
X25204965Y-23210635D01*
X25050629Y-23372138D01*
X24924743Y-23556680D01*
X24830688Y-23759305D01*
X24770989Y-23974570D01*
X24747251Y-24196695D01*
X24747548Y-24201848D01*
X24747548Y-24201851D01*
X24753011Y-24296590D01*
X24760110Y-24419715D01*
X24761247Y-24424761D01*
X24761248Y-24424767D01*
X24781119Y-24512939D01*
X24809222Y-24637639D01*
X24893266Y-24844616D01*
X24944019Y-24927438D01*
X25007291Y-25030688D01*
X25009987Y-25035088D01*
X25156250Y-25203938D01*
X25328126Y-25346632D01*
X25389860Y-25382706D01*
X25401445Y-25389476D01*
X25450169Y-25441114D01*
X25463240Y-25510897D01*
X25436509Y-25576669D01*
X25396055Y-25610027D01*
X25391762Y-25612262D01*
X25383607Y-25616507D01*
X25379474Y-25619610D01*
X25379471Y-25619612D01*
X25296450Y-25681946D01*
X25204965Y-25750635D01*
X25201393Y-25754373D01*
X25101309Y-25859105D01*
X25050629Y-25912138D01*
X25047715Y-25916410D01*
X25047714Y-25916411D01*
X25033453Y-25937317D01*
X24972459Y-25984714D01*
X24958403Y-25989830D01*
X24955524Y-25990838D01*
X24881489Y-26015754D01*
X24875639Y-26019269D01*
X24873447Y-26020282D01*
X24872932Y-26020494D01*
X24872234Y-26020827D01*
X24871733Y-26021100D01*
X24869579Y-26022160D01*
X24863166Y-26024494D01*
X24797169Y-26066377D01*
X24794700Y-26067902D01*
X24727656Y-26108186D01*
X24722694Y-26112878D01*
X24720772Y-26114337D01*
X24719851Y-26114976D01*
X24716005Y-26117885D01*
X24711637Y-26120657D01*
X24707537Y-26124323D01*
X24655632Y-26176228D01*
X24653110Y-26178681D01*
X24602223Y-26226802D01*
X24602220Y-26226806D01*
X24597260Y-26231496D01*
X24593422Y-26237143D01*
X24589293Y-26241995D01*
X24582435Y-26249425D01*
X23894245Y-26937615D01*
X23886478Y-26944758D01*
X23848307Y-26977015D01*
X23844164Y-26982434D01*
X23844163Y-26982435D01*
X23800869Y-27039062D01*
X23798971Y-27041482D01*
X23750031Y-27102350D01*
X23746998Y-27108460D01*
X23745696Y-27110496D01*
X23745377Y-27110952D01*
X23744967Y-27111610D01*
X23744698Y-27112100D01*
X23743447Y-27114166D01*
X23739303Y-27119586D01*
X23706305Y-27190351D01*
X23704971Y-27193122D01*
X23670233Y-27263102D01*
X23668581Y-27269727D01*
X23667747Y-27271994D01*
X23667528Y-27272519D01*
X23667279Y-27273223D01*
X23667117Y-27273773D01*
X23666339Y-27276057D01*
X23663457Y-27282239D01*
X23661969Y-27288897D01*
X23661966Y-27288905D01*
X23646419Y-27358458D01*
X23645711Y-27361454D01*
X23628467Y-27430615D01*
X23626816Y-27437238D01*
X23626625Y-27444059D01*
X23626297Y-27446456D01*
X23626096Y-27447570D01*
X23625434Y-27452344D01*
X23624307Y-27457384D01*
X23624000Y-27462875D01*
X23624000Y-27536289D01*
X23623951Y-27539807D01*
X23621805Y-27616635D01*
X23623084Y-27623342D01*
X23623594Y-27629677D01*
X23624000Y-27639784D01*
X23624000Y-28975544D01*
X23603998Y-29043665D01*
X23550342Y-29090158D01*
X23480068Y-29100262D01*
X23415488Y-29070768D01*
X23399252Y-29053806D01*
X23392899Y-29045790D01*
X23278171Y-28931261D01*
X23266760Y-28922249D01*
X23128757Y-28837184D01*
X23115576Y-28831037D01*
X22961290Y-28779862D01*
X22947914Y-28776995D01*
X22853562Y-28767328D01*
X22847145Y-28767000D01*
X22822115Y-28767000D01*
X22806876Y-28771475D01*
X22805671Y-28772865D01*
X22804000Y-28780548D01*
X22804000Y-31011561D01*
X22787971Y-31068965D01*
X22789303Y-31069586D01*
X22756305Y-31140351D01*
X22754971Y-31143122D01*
X22720233Y-31213102D01*
X22718581Y-31219727D01*
X22717747Y-31221994D01*
X22717528Y-31222519D01*
X22717279Y-31223223D01*
X22717117Y-31223773D01*
X22716339Y-31226057D01*
X22713457Y-31232239D01*
X22711969Y-31238897D01*
X22711966Y-31238905D01*
X22696419Y-31308458D01*
X22695711Y-31311454D01*
X22679224Y-31377579D01*
X22676816Y-31387238D01*
X22676625Y-31394059D01*
X22676297Y-31396456D01*
X22676096Y-31397570D01*
X22675434Y-31402344D01*
X22674307Y-31407384D01*
X22674000Y-31412875D01*
X22674000Y-31486289D01*
X22673951Y-31489807D01*
X22671805Y-31566635D01*
X21008500Y-31566635D01*
X21008500Y-30522095D01*
X21542001Y-30522095D01*
X21542338Y-30528614D01*
X21552257Y-30624206D01*
X21555149Y-30637600D01*
X21606588Y-30791784D01*
X21612761Y-30804962D01*
X21698063Y-30942807D01*
X21707099Y-30954208D01*
X21821829Y-31068739D01*
X21833240Y-31077751D01*
X21971243Y-31162816D01*
X21984424Y-31168963D01*
X22138710Y-31220138D01*
X22152086Y-31223005D01*
X22246438Y-31232672D01*
X22252854Y-31233000D01*
X22277885Y-31233000D01*
X22293124Y-31228525D01*
X22294329Y-31227135D01*
X22296000Y-31219452D01*
X22296000Y-30272115D01*
X22291525Y-30256876D01*
X22290135Y-30255671D01*
X22282452Y-30254000D01*
X21560116Y-30254000D01*
X21544877Y-30258475D01*
X21543672Y-30259865D01*
X21542001Y-30267548D01*
X21542001Y-30522095D01*
X21008500Y-30522095D01*
X21008500Y-29727885D01*
X21542000Y-29727885D01*
X21546475Y-29743124D01*
X21547865Y-29744329D01*
X21555548Y-29746000D01*
X22277885Y-29746000D01*
X22293124Y-29741525D01*
X22294329Y-29740135D01*
X22296000Y-29732452D01*
X22296000Y-28785116D01*
X22291525Y-28769877D01*
X22290135Y-28768672D01*
X22282452Y-28767001D01*
X22252905Y-28767001D01*
X22246386Y-28767338D01*
X22150794Y-28777257D01*
X22137400Y-28780149D01*
X21983216Y-28831588D01*
X21970038Y-28837761D01*
X21832193Y-28923063D01*
X21820792Y-28932099D01*
X21706261Y-29046829D01*
X21697249Y-29058240D01*
X21612184Y-29196243D01*
X21606037Y-29209424D01*
X21554862Y-29363710D01*
X21551995Y-29377086D01*
X21542328Y-29471438D01*
X21542000Y-29477855D01*
X21542000Y-29727885D01*
X21008500Y-29727885D01*
X21008500Y-21553250D01*
X21010246Y-21532345D01*
X21012770Y-21517344D01*
X21012770Y-21517341D01*
X21013576Y-21512552D01*
X21013729Y-21500000D01*
X21013040Y-21495188D01*
X21012723Y-21490327D01*
X21013008Y-21490308D01*
X21012607Y-21463549D01*
X21019234Y-21404736D01*
X21025513Y-21377229D01*
X21052485Y-21300147D01*
X21064727Y-21274726D01*
X21108178Y-21205574D01*
X21125770Y-21183515D01*
X21183515Y-21125770D01*
X21205574Y-21108178D01*
X21274726Y-21064727D01*
X21300147Y-21052485D01*
X21377228Y-21025513D01*
X21404736Y-21019234D01*
X21460226Y-21012982D01*
X21475868Y-21013077D01*
X21475879Y-21012200D01*
X21484851Y-21012310D01*
X21493724Y-21013691D01*
X21502626Y-21012527D01*
X21502628Y-21012527D01*
X21517951Y-21010523D01*
X21525286Y-21009564D01*
X21541621Y-21008500D01*
X48450633Y-21008500D01*
X48470018Y-21010000D01*
G37*
%TD.AperFunction*%
%TA.AperFunction,Conductor*%
G36*
X27943560Y-27930712D02*
G01*
X28061000Y-27999338D01*
X28065825Y-28001180D01*
X28065826Y-28001181D01*
X28138612Y-28028975D01*
X28269692Y-28079030D01*
X28274760Y-28080061D01*
X28274763Y-28080062D01*
X28382017Y-28101883D01*
X28488597Y-28123567D01*
X28493772Y-28123757D01*
X28493774Y-28123757D01*
X28706673Y-28131564D01*
X28706677Y-28131564D01*
X28711837Y-28131753D01*
X28716957Y-28131097D01*
X28716959Y-28131097D01*
X28928288Y-28104025D01*
X28928289Y-28104025D01*
X28933416Y-28103368D01*
X28938366Y-28101883D01*
X29142429Y-28040661D01*
X29142434Y-28040659D01*
X29147384Y-28039174D01*
X29347994Y-27940896D01*
X29352205Y-27937893D01*
X29352209Y-27937890D01*
X29353569Y-27936920D01*
X29354146Y-27936735D01*
X29356648Y-27935244D01*
X29356994Y-27935824D01*
X29426735Y-27913500D01*
X30419990Y-27913500D01*
X30483560Y-27930712D01*
X30601000Y-27999338D01*
X30605825Y-28001180D01*
X30605826Y-28001181D01*
X30678612Y-28028975D01*
X30809692Y-28079030D01*
X30814760Y-28080061D01*
X30814763Y-28080062D01*
X30922017Y-28101883D01*
X31028597Y-28123567D01*
X31033772Y-28123757D01*
X31033774Y-28123757D01*
X31246673Y-28131564D01*
X31246677Y-28131564D01*
X31251837Y-28131753D01*
X31256957Y-28131097D01*
X31256959Y-28131097D01*
X31468288Y-28104025D01*
X31468289Y-28104025D01*
X31473416Y-28103368D01*
X31478366Y-28101883D01*
X31682429Y-28040661D01*
X31682434Y-28040659D01*
X31687384Y-28039174D01*
X31887994Y-27940896D01*
X31892205Y-27937893D01*
X31892209Y-27937890D01*
X31893569Y-27936920D01*
X31894146Y-27936735D01*
X31896648Y-27935244D01*
X31896994Y-27935824D01*
X31966735Y-27913500D01*
X32959990Y-27913500D01*
X33023560Y-27930712D01*
X33141000Y-27999338D01*
X33145825Y-28001180D01*
X33145826Y-28001181D01*
X33218612Y-28028975D01*
X33349692Y-28079030D01*
X33354760Y-28080061D01*
X33354763Y-28080062D01*
X33462017Y-28101883D01*
X33568597Y-28123567D01*
X33573772Y-28123757D01*
X33573774Y-28123757D01*
X33786673Y-28131564D01*
X33786677Y-28131564D01*
X33791837Y-28131753D01*
X33796956Y-28131097D01*
X33796961Y-28131097D01*
X33847289Y-28124650D01*
X33917399Y-28135835D01*
X33952393Y-28160534D01*
X34847621Y-29055762D01*
X34854763Y-29063528D01*
X34887015Y-29101693D01*
X34949108Y-29149167D01*
X34951416Y-29150976D01*
X35012350Y-29199969D01*
X35018465Y-29203004D01*
X35020494Y-29204302D01*
X35020960Y-29204628D01*
X35021605Y-29205029D01*
X35022100Y-29205302D01*
X35024166Y-29206553D01*
X35029586Y-29210697D01*
X35077420Y-29233002D01*
X35100351Y-29243695D01*
X35103122Y-29245029D01*
X35173102Y-29279767D01*
X35179727Y-29281419D01*
X35181994Y-29282253D01*
X35182519Y-29282472D01*
X35183223Y-29282721D01*
X35183773Y-29282883D01*
X35186057Y-29283661D01*
X35192239Y-29286543D01*
X35198897Y-29288031D01*
X35198905Y-29288034D01*
X35268453Y-29303580D01*
X35271449Y-29304288D01*
X35340611Y-29321532D01*
X35347237Y-29323184D01*
X35354058Y-29323375D01*
X35356469Y-29323705D01*
X35357573Y-29323903D01*
X35362328Y-29324563D01*
X35367384Y-29325693D01*
X35372875Y-29326000D01*
X35446310Y-29326000D01*
X35449827Y-29326049D01*
X35519814Y-29328004D01*
X35519818Y-29328004D01*
X35526635Y-29328194D01*
X35533339Y-29326915D01*
X35539665Y-29326406D01*
X35549772Y-29326000D01*
X36444717Y-29326000D01*
X36512838Y-29346002D01*
X36559331Y-29399658D01*
X36570061Y-29464842D01*
X36566500Y-29499600D01*
X36566500Y-30500400D01*
X36566837Y-30503646D01*
X36566837Y-30503650D01*
X36569426Y-30528598D01*
X36577474Y-30606166D01*
X36579655Y-30612702D01*
X36579655Y-30612704D01*
X36595259Y-30659475D01*
X36633450Y-30773946D01*
X36726522Y-30924348D01*
X36851697Y-31049305D01*
X36857927Y-31053145D01*
X36857928Y-31053146D01*
X36897845Y-31077751D01*
X37002262Y-31142115D01*
X37025085Y-31149685D01*
X37163611Y-31195632D01*
X37163613Y-31195632D01*
X37170139Y-31197797D01*
X37176975Y-31198497D01*
X37176978Y-31198498D01*
X37220031Y-31202909D01*
X37274600Y-31208500D01*
X37573881Y-31208500D01*
X37642002Y-31228502D01*
X37688495Y-31282158D01*
X37698599Y-31352432D01*
X37697260Y-31358631D01*
X37697390Y-31358655D01*
X37696232Y-31364994D01*
X37694438Y-31371169D01*
X37693934Y-31377574D01*
X37693933Y-31377579D01*
X37692360Y-31397570D01*
X37691500Y-31408498D01*
X37691500Y-31875374D01*
X37687757Y-31905856D01*
X37676816Y-31949738D01*
X37671805Y-32129135D01*
X37676761Y-32155116D01*
X37689268Y-32220679D01*
X37691500Y-32244289D01*
X37691500Y-32565500D01*
X37671498Y-32633621D01*
X37617842Y-32680114D01*
X37565500Y-32691500D01*
X37333498Y-32691500D01*
X37331050Y-32691693D01*
X37331042Y-32691693D01*
X37302579Y-32693933D01*
X37302574Y-32693934D01*
X37296169Y-32694438D01*
X37211770Y-32718958D01*
X37144012Y-32738643D01*
X37144010Y-32738644D01*
X37136399Y-32740855D01*
X37129572Y-32744892D01*
X37129573Y-32744892D01*
X37000020Y-32821509D01*
X37000017Y-32821511D01*
X36993193Y-32825547D01*
X36875547Y-32943193D01*
X36871511Y-32950017D01*
X36871509Y-32950020D01*
X36809518Y-33054842D01*
X36790855Y-33086399D01*
X36788644Y-33094010D01*
X36788643Y-33094012D01*
X36766377Y-33170653D01*
X36728164Y-33230488D01*
X36663668Y-33260166D01*
X36645380Y-33261500D01*
X36011026Y-33261500D01*
X35942905Y-33241498D01*
X35932932Y-33234380D01*
X35928484Y-33230867D01*
X35923303Y-33225695D01*
X35848020Y-33179290D01*
X35778968Y-33136725D01*
X35778966Y-33136724D01*
X35772738Y-33132885D01*
X35655539Y-33094012D01*
X35611389Y-33079368D01*
X35611387Y-33079368D01*
X35604861Y-33077203D01*
X35598025Y-33076503D01*
X35598022Y-33076502D01*
X35554969Y-33072091D01*
X35500400Y-33066500D01*
X34499600Y-33066500D01*
X34496354Y-33066837D01*
X34496350Y-33066837D01*
X34400692Y-33076762D01*
X34400688Y-33076763D01*
X34393834Y-33077474D01*
X34387298Y-33079655D01*
X34387296Y-33079655D01*
X34343670Y-33094210D01*
X34226054Y-33133450D01*
X34075652Y-33226522D01*
X34075534Y-33226640D01*
X34012449Y-33252173D01*
X33942685Y-33239001D01*
X33925749Y-33228137D01*
X33923303Y-33225695D01*
X33861894Y-33187842D01*
X33778968Y-33136725D01*
X33778966Y-33136724D01*
X33772738Y-33132885D01*
X33655539Y-33094012D01*
X33611389Y-33079368D01*
X33611387Y-33079368D01*
X33604861Y-33077203D01*
X33598025Y-33076503D01*
X33598022Y-33076502D01*
X33554969Y-33072091D01*
X33500400Y-33066500D01*
X32499600Y-33066500D01*
X32496354Y-33066837D01*
X32496350Y-33066837D01*
X32400692Y-33076762D01*
X32400688Y-33076763D01*
X32393834Y-33077474D01*
X32387298Y-33079655D01*
X32387296Y-33079655D01*
X32343670Y-33094210D01*
X32226054Y-33133450D01*
X32075652Y-33226522D01*
X32075534Y-33226640D01*
X32012449Y-33252173D01*
X31942685Y-33239001D01*
X31925749Y-33228137D01*
X31923303Y-33225695D01*
X31861894Y-33187842D01*
X31778968Y-33136725D01*
X31778966Y-33136724D01*
X31772738Y-33132885D01*
X31655539Y-33094012D01*
X31611389Y-33079368D01*
X31611387Y-33079368D01*
X31604861Y-33077203D01*
X31598025Y-33076503D01*
X31598022Y-33076502D01*
X31554969Y-33072091D01*
X31500400Y-33066500D01*
X30499600Y-33066500D01*
X30496354Y-33066837D01*
X30496350Y-33066837D01*
X30400692Y-33076762D01*
X30400688Y-33076763D01*
X30393834Y-33077474D01*
X30387298Y-33079655D01*
X30387296Y-33079655D01*
X30343670Y-33094210D01*
X30226054Y-33133450D01*
X30075652Y-33226522D01*
X30075534Y-33226640D01*
X30012449Y-33252173D01*
X29942685Y-33239001D01*
X29925749Y-33228137D01*
X29923303Y-33225695D01*
X29861894Y-33187842D01*
X29778968Y-33136725D01*
X29778966Y-33136724D01*
X29772738Y-33132885D01*
X29655539Y-33094012D01*
X29611389Y-33079368D01*
X29611387Y-33079368D01*
X29604861Y-33077203D01*
X29598025Y-33076503D01*
X29598022Y-33076502D01*
X29554969Y-33072091D01*
X29500400Y-33066500D01*
X28499600Y-33066500D01*
X28496354Y-33066837D01*
X28496350Y-33066837D01*
X28400692Y-33076762D01*
X28400688Y-33076763D01*
X28393834Y-33077474D01*
X28387298Y-33079655D01*
X28387296Y-33079655D01*
X28343670Y-33094210D01*
X28226054Y-33133450D01*
X28075652Y-33226522D01*
X28075534Y-33226640D01*
X28012449Y-33252173D01*
X27942685Y-33239001D01*
X27925749Y-33228137D01*
X27923303Y-33225695D01*
X27861894Y-33187842D01*
X27778968Y-33136725D01*
X27778966Y-33136724D01*
X27772738Y-33132885D01*
X27655539Y-33094012D01*
X27611389Y-33079368D01*
X27611387Y-33079368D01*
X27604861Y-33077203D01*
X27598025Y-33076503D01*
X27598022Y-33076502D01*
X27554969Y-33072091D01*
X27500400Y-33066500D01*
X26499600Y-33066500D01*
X26496354Y-33066837D01*
X26496350Y-33066837D01*
X26400692Y-33076762D01*
X26400688Y-33076763D01*
X26393834Y-33077474D01*
X26387298Y-33079655D01*
X26387296Y-33079655D01*
X26343670Y-33094210D01*
X26226054Y-33133450D01*
X26075652Y-33226522D01*
X26070484Y-33231699D01*
X26067269Y-33234247D01*
X26001458Y-33260883D01*
X25989007Y-33261500D01*
X25354620Y-33261500D01*
X25286499Y-33241498D01*
X25240006Y-33187842D01*
X25233623Y-33170653D01*
X25211357Y-33094012D01*
X25211356Y-33094010D01*
X25209145Y-33086399D01*
X25190482Y-33054842D01*
X25128491Y-32950020D01*
X25128489Y-32950017D01*
X25124453Y-32943193D01*
X25006807Y-32825547D01*
X24999983Y-32821511D01*
X24999980Y-32821509D01*
X24870427Y-32744892D01*
X24870428Y-32744892D01*
X24863601Y-32740855D01*
X24855990Y-32738644D01*
X24855988Y-32738643D01*
X24788230Y-32718958D01*
X24703831Y-32694438D01*
X24697426Y-32693934D01*
X24697421Y-32693933D01*
X24668958Y-32691693D01*
X24668950Y-32691693D01*
X24666502Y-32691500D01*
X24434500Y-32691500D01*
X24366379Y-32671498D01*
X24319886Y-32617842D01*
X24308500Y-32565500D01*
X24308500Y-32245940D01*
X24311535Y-32218453D01*
X24324566Y-32160158D01*
X24325693Y-32155116D01*
X24326000Y-32149625D01*
X24326000Y-31894332D01*
X24346002Y-31826211D01*
X24362904Y-31805237D01*
X24969377Y-31198763D01*
X25010898Y-31173093D01*
X25010373Y-31171972D01*
X25017002Y-31168867D01*
X25023946Y-31166550D01*
X25051200Y-31149685D01*
X25168120Y-31077332D01*
X25174348Y-31073478D01*
X25299305Y-30948303D01*
X25303146Y-30942072D01*
X25388275Y-30803968D01*
X25388276Y-30803966D01*
X25392115Y-30797738D01*
X25447797Y-30629861D01*
X25450359Y-30604861D01*
X25452909Y-30579969D01*
X25458500Y-30525400D01*
X25458500Y-29474600D01*
X25450832Y-29400692D01*
X25448238Y-29375692D01*
X25448237Y-29375688D01*
X25447526Y-29368834D01*
X25433968Y-29328194D01*
X25393868Y-29208002D01*
X25391550Y-29201054D01*
X25298478Y-29050652D01*
X25299905Y-29049769D01*
X25276617Y-28992231D01*
X25276000Y-28979779D01*
X25276000Y-28075735D01*
X25296002Y-28007614D01*
X25349658Y-27961121D01*
X25419932Y-27951017D01*
X25465567Y-27966945D01*
X25521000Y-27999338D01*
X25525825Y-28001180D01*
X25525826Y-28001181D01*
X25598612Y-28028975D01*
X25729692Y-28079030D01*
X25734760Y-28080061D01*
X25734763Y-28080062D01*
X25842017Y-28101883D01*
X25948597Y-28123567D01*
X25953772Y-28123757D01*
X25953774Y-28123757D01*
X26166673Y-28131564D01*
X26166677Y-28131564D01*
X26171837Y-28131753D01*
X26176957Y-28131097D01*
X26176959Y-28131097D01*
X26388288Y-28104025D01*
X26388289Y-28104025D01*
X26393416Y-28103368D01*
X26398366Y-28101883D01*
X26602429Y-28040661D01*
X26602434Y-28040659D01*
X26607384Y-28039174D01*
X26807994Y-27940896D01*
X26812205Y-27937893D01*
X26812209Y-27937890D01*
X26813569Y-27936920D01*
X26814146Y-27936735D01*
X26816648Y-27935244D01*
X26816994Y-27935824D01*
X26886735Y-27913500D01*
X27879990Y-27913500D01*
X27943560Y-27930712D01*
G37*
%TD.AperFunction*%
%TD*%
M02*
