M48
; DRILL file {KiCad (6.0.9)} date Fri Dec  2 21:30:57 2022
; FORMAT={-:-/ absolute / inch / decimal}
; #@! TF.CreationDate,2022-12-02T21:30:57+00:00
; #@! TF.GenerationSoftware,Kicad,Pcbnew,(6.0.9)
; #@! TF.FileFunction,Plated,1,2,PTH
FMAT,2
INCH
; #@! TA.AperFunction,Plated,PTH,ViaDrill
T1C0.0118
; #@! TA.AperFunction,Plated,PTH,ViaDrill
T2C0.0157
; #@! TA.AperFunction,Plated,PTH,ComponentDrill
T3C0.0394
%
G90
G05
T1
X0.9154Y-2.0768
X1.0039Y-1.7913
X1.0827Y-1.8701
X1.0827Y-1.9291
X1.2953Y-1.811
X1.2992Y-1.7323
X1.4015Y-1.63
T2
X0.8661Y-2.4902
X0.8661Y-2.5886
X0.8661Y-2.687
X0.8661Y-2.7854
X0.9154Y-2.5394
X0.9154Y-2.6378
X0.9154Y-2.7362
X0.9154Y-2.8346
X0.9646Y-2.4902
X0.9646Y-2.5886
X0.9646Y-2.687
X0.9646Y-2.7854
X1.0138Y-2.5394
X1.0138Y-2.6378
X1.0138Y-2.7362
X1.0138Y-2.8346
X1.0314Y-1.1604
X1.0314Y-1.2204
X1.0314Y-1.2804
X1.063Y-1.4764
X1.1314Y-1.1604
X1.1314Y-1.2204
X1.1314Y-1.2804
X1.1417Y-1.4764
X1.2205Y-1.4764
X1.2314Y-1.1604
X1.2314Y-1.2204
X1.2314Y-1.2804
X1.2992Y-1.4764
X1.3031Y-1.937
X1.3031Y-2.0276
X1.3189Y-2.1358
X1.3314Y-1.1604
X1.3314Y-1.2204
X1.3314Y-1.2804
X1.3583Y-1.752
X1.3583Y-1.8504
X1.3583Y-2.3425
X1.378Y-1.4764
X1.3976Y-2.4308
X1.4314Y-1.1604
X1.4314Y-1.2204
X1.4314Y-1.2804
X1.437Y-2.3819
X1.4764Y-2.6378
X1.5157Y-1.3386
X1.5157Y-1.8898
X1.5157Y-2.4803
X1.5514Y-1.2266
X1.5551Y-1.4764
X1.5551Y-1.811
X1.5551Y-2.5394
X1.5945Y-1.9685
X1.5945Y-2.5787
X1.6732Y-1.3386
X1.7089Y-1.2266
X1.7126Y-1.4764
X1.7421Y-1.7028
X1.7421Y-1.8012
X1.7421Y-1.8996
X1.7421Y-1.998
X1.7421Y-2.5394
X1.7421Y-2.6378
X1.7421Y-2.7362
X1.7421Y-2.8346
X1.7913Y-1.6535
X1.7913Y-1.752
X1.7913Y-1.8504
X1.7913Y-1.9488
X1.7913Y-2.4902
X1.7913Y-2.5886
X1.7913Y-2.687
X1.7913Y-2.7854
X1.8307Y-1.3386
X1.8406Y-1.7028
X1.8406Y-1.8012
X1.8406Y-1.8996
X1.8406Y-1.998
X1.8406Y-2.5394
X1.8406Y-2.6378
X1.8406Y-2.7362
X1.8406Y-2.8346
X1.8504Y-1.4764
X1.8664Y-1.2266
X1.8898Y-1.6535
X1.8898Y-1.752
X1.8898Y-1.8504
X1.8898Y-1.9488
X1.8898Y-2.4902
X1.8898Y-2.5886
X1.8898Y-2.687
X1.8898Y-2.7854
T3
X1.028Y-0.9539
X1.028Y-1.0539
X1.128Y-0.9539
X1.128Y-1.0539
X1.228Y-0.9539
X1.228Y-1.0539
X1.328Y-0.9539
X1.328Y-1.0539
X1.428Y-0.9539
X1.428Y-1.0539
X1.528Y-0.9539
X1.528Y-1.0539
X1.628Y-0.9539
X1.628Y-1.0539
X1.728Y-0.9539
X1.728Y-1.0539
T0
M30
