%TF.GenerationSoftware,KiCad,Pcbnew,(6.0.9)*%
%TF.CreationDate,2022-12-02T21:30:47+00:00*%
%TF.ProjectId,SPIRadioCFRTC,53504952-6164-4696-9f43-465254432e6b,rev?*%
%TF.SameCoordinates,Original*%
%TF.FileFunction,Legend,Bot*%
%TF.FilePolarity,Positive*%
%FSLAX46Y46*%
G04 Gerber Fmt 4.6, Leading zero omitted, Abs format (unit mm)*
G04 Created by KiCad (PCBNEW (6.0.9)) date 2022-12-02 21:30:47*
%MOMM*%
%LPD*%
G01*
G04 APERTURE LIST*
%ADD10C,0.150000*%
%ADD11C,0.120000*%
%ADD12C,3.200000*%
%ADD13C,0.900000*%
%ADD14R,1.700000X1.700000*%
%ADD15O,1.700000X1.700000*%
%ADD16R,3.050000X3.400000*%
%ADD17R,4.500000X2.400000*%
G04 APERTURE END LIST*
D10*
X48119047Y-67397380D02*
X48119047Y-66397380D01*
X47547619Y-67397380D02*
X47976190Y-66825952D01*
X47547619Y-66397380D02*
X48119047Y-66968809D01*
X46738095Y-67349761D02*
X46833333Y-67397380D01*
X47023809Y-67397380D01*
X47119047Y-67349761D01*
X47166666Y-67254523D01*
X47166666Y-66873571D01*
X47119047Y-66778333D01*
X47023809Y-66730714D01*
X46833333Y-66730714D01*
X46738095Y-66778333D01*
X46690476Y-66873571D01*
X46690476Y-66968809D01*
X47166666Y-67064047D01*
X45880952Y-67349761D02*
X45976190Y-67397380D01*
X46166666Y-67397380D01*
X46261904Y-67349761D01*
X46309523Y-67254523D01*
X46309523Y-66873571D01*
X46261904Y-66778333D01*
X46166666Y-66730714D01*
X45976190Y-66730714D01*
X45880952Y-66778333D01*
X45833333Y-66873571D01*
X45833333Y-66968809D01*
X46309523Y-67064047D01*
X45404761Y-66730714D02*
X45404761Y-67730714D01*
X45404761Y-66778333D02*
X45309523Y-66730714D01*
X45119047Y-66730714D01*
X45023809Y-66778333D01*
X44976190Y-66825952D01*
X44928571Y-66921190D01*
X44928571Y-67206904D01*
X44976190Y-67302142D01*
X45023809Y-67349761D01*
X45119047Y-67397380D01*
X45309523Y-67397380D01*
X45404761Y-67349761D01*
X43880952Y-66397380D02*
X43309523Y-66397380D01*
X43595238Y-67397380D02*
X43595238Y-66397380D01*
X42547619Y-67397380D02*
X42547619Y-66873571D01*
X42595238Y-66778333D01*
X42690476Y-66730714D01*
X42880952Y-66730714D01*
X42976190Y-66778333D01*
X42547619Y-67349761D02*
X42642857Y-67397380D01*
X42880952Y-67397380D01*
X42976190Y-67349761D01*
X43023809Y-67254523D01*
X43023809Y-67159285D01*
X42976190Y-67064047D01*
X42880952Y-67016428D01*
X42642857Y-67016428D01*
X42547619Y-66968809D01*
X41928571Y-67397380D02*
X42023809Y-67349761D01*
X42071428Y-67254523D01*
X42071428Y-66397380D01*
X41547619Y-67397380D02*
X41547619Y-66397380D01*
X41452380Y-67016428D02*
X41166666Y-67397380D01*
X41166666Y-66730714D02*
X41547619Y-67111666D01*
X40738095Y-67397380D02*
X40738095Y-66730714D01*
X40738095Y-66397380D02*
X40785714Y-66445000D01*
X40738095Y-66492619D01*
X40690476Y-66445000D01*
X40738095Y-66397380D01*
X40738095Y-66492619D01*
X40261904Y-66730714D02*
X40261904Y-67397380D01*
X40261904Y-66825952D02*
X40214285Y-66778333D01*
X40119047Y-66730714D01*
X39976190Y-66730714D01*
X39880952Y-66778333D01*
X39833333Y-66873571D01*
X39833333Y-67397380D01*
X38928571Y-66730714D02*
X38928571Y-67540238D01*
X38976190Y-67635476D01*
X39023809Y-67683095D01*
X39119047Y-67730714D01*
X39261904Y-67730714D01*
X39357142Y-67683095D01*
X38928571Y-67349761D02*
X39023809Y-67397380D01*
X39214285Y-67397380D01*
X39309523Y-67349761D01*
X39357142Y-67302142D01*
X39404761Y-67206904D01*
X39404761Y-66921190D01*
X39357142Y-66825952D01*
X39309523Y-66778333D01*
X39214285Y-66730714D01*
X39023809Y-66730714D01*
X38928571Y-66778333D01*
X37261904Y-67397380D02*
X37261904Y-66873571D01*
X37309523Y-66778333D01*
X37404761Y-66730714D01*
X37595238Y-66730714D01*
X37690476Y-66778333D01*
X37261904Y-67349761D02*
X37357142Y-67397380D01*
X37595238Y-67397380D01*
X37690476Y-67349761D01*
X37738095Y-67254523D01*
X37738095Y-67159285D01*
X37690476Y-67064047D01*
X37595238Y-67016428D01*
X37357142Y-67016428D01*
X37261904Y-66968809D01*
X36785714Y-66730714D02*
X36785714Y-67397380D01*
X36785714Y-66825952D02*
X36738095Y-66778333D01*
X36642857Y-66730714D01*
X36500000Y-66730714D01*
X36404761Y-66778333D01*
X36357142Y-66873571D01*
X36357142Y-67397380D01*
X35452380Y-67397380D02*
X35452380Y-66397380D01*
X35452380Y-67349761D02*
X35547619Y-67397380D01*
X35738095Y-67397380D01*
X35833333Y-67349761D01*
X35880952Y-67302142D01*
X35928571Y-67206904D01*
X35928571Y-66921190D01*
X35880952Y-66825952D01*
X35833333Y-66778333D01*
X35738095Y-66730714D01*
X35547619Y-66730714D01*
X35452380Y-66778333D01*
X34214285Y-67397380D02*
X34214285Y-66397380D01*
X33642857Y-67397380D01*
X33642857Y-66397380D01*
X33023809Y-67397380D02*
X33119047Y-67349761D01*
X33166666Y-67302142D01*
X33214285Y-67206904D01*
X33214285Y-66921190D01*
X33166666Y-66825952D01*
X33119047Y-66778333D01*
X33023809Y-66730714D01*
X32880952Y-66730714D01*
X32785714Y-66778333D01*
X32738095Y-66825952D01*
X32690476Y-66921190D01*
X32690476Y-67206904D01*
X32738095Y-67302142D01*
X32785714Y-67349761D01*
X32880952Y-67397380D01*
X33023809Y-67397380D01*
X32261904Y-67397380D02*
X32261904Y-66397380D01*
X32261904Y-66778333D02*
X32166666Y-66730714D01*
X31976190Y-66730714D01*
X31880952Y-66778333D01*
X31833333Y-66825952D01*
X31785714Y-66921190D01*
X31785714Y-67206904D01*
X31833333Y-67302142D01*
X31880952Y-67349761D01*
X31976190Y-67397380D01*
X32166666Y-67397380D01*
X32261904Y-67349761D01*
X31214285Y-67397380D02*
X31309523Y-67349761D01*
X31357142Y-67302142D01*
X31404761Y-67206904D01*
X31404761Y-66921190D01*
X31357142Y-66825952D01*
X31309523Y-66778333D01*
X31214285Y-66730714D01*
X31071428Y-66730714D01*
X30976190Y-66778333D01*
X30928571Y-66825952D01*
X30880952Y-66921190D01*
X30880952Y-67206904D01*
X30928571Y-67302142D01*
X30976190Y-67349761D01*
X31071428Y-67397380D01*
X31214285Y-67397380D01*
X30023809Y-67397380D02*
X30023809Y-66397380D01*
X30023809Y-67349761D02*
X30119047Y-67397380D01*
X30309523Y-67397380D01*
X30404761Y-67349761D01*
X30452380Y-67302142D01*
X30500000Y-67206904D01*
X30500000Y-66921190D01*
X30452380Y-66825952D01*
X30404761Y-66778333D01*
X30309523Y-66730714D01*
X30119047Y-66730714D01*
X30023809Y-66778333D01*
X29642857Y-66730714D02*
X29404761Y-67397380D01*
X29166666Y-66730714D02*
X29404761Y-67397380D01*
X29500000Y-67635476D01*
X29547619Y-67683095D01*
X29642857Y-67730714D01*
X28023809Y-66873571D02*
X27690476Y-66873571D01*
X27547619Y-67397380D02*
X28023809Y-67397380D01*
X28023809Y-66397380D01*
X27547619Y-66397380D01*
X27214285Y-67397380D02*
X26690476Y-66730714D01*
X27214285Y-66730714D02*
X26690476Y-67397380D01*
X26309523Y-66730714D02*
X26309523Y-67730714D01*
X26309523Y-66778333D02*
X26214285Y-66730714D01*
X26023809Y-66730714D01*
X25928571Y-66778333D01*
X25880952Y-66825952D01*
X25833333Y-66921190D01*
X25833333Y-67206904D01*
X25880952Y-67302142D01*
X25928571Y-67349761D01*
X26023809Y-67397380D01*
X26214285Y-67397380D01*
X26309523Y-67349761D01*
X25261904Y-67397380D02*
X25357142Y-67349761D01*
X25404761Y-67254523D01*
X25404761Y-66397380D01*
X24738095Y-67397380D02*
X24833333Y-67349761D01*
X24880952Y-67302142D01*
X24928571Y-67206904D01*
X24928571Y-66921190D01*
X24880952Y-66825952D01*
X24833333Y-66778333D01*
X24738095Y-66730714D01*
X24595238Y-66730714D01*
X24500000Y-66778333D01*
X24452380Y-66825952D01*
X24404761Y-66921190D01*
X24404761Y-67206904D01*
X24452380Y-67302142D01*
X24500000Y-67349761D01*
X24595238Y-67397380D01*
X24738095Y-67397380D01*
X23547619Y-67397380D02*
X23547619Y-66397380D01*
X23547619Y-67349761D02*
X23642857Y-67397380D01*
X23833333Y-67397380D01*
X23928571Y-67349761D01*
X23976190Y-67302142D01*
X24023809Y-67206904D01*
X24023809Y-66921190D01*
X23976190Y-66825952D01*
X23928571Y-66778333D01*
X23833333Y-66730714D01*
X23642857Y-66730714D01*
X23547619Y-66778333D01*
X22690476Y-67349761D02*
X22785714Y-67397380D01*
X22976190Y-67397380D01*
X23071428Y-67349761D01*
X23119047Y-67254523D01*
X23119047Y-66873571D01*
X23071428Y-66778333D01*
X22976190Y-66730714D01*
X22785714Y-66730714D01*
X22690476Y-66778333D01*
X22642857Y-66873571D01*
X22642857Y-66968809D01*
X23119047Y-67064047D01*
X22261904Y-67349761D02*
X22166666Y-67397380D01*
X21976190Y-67397380D01*
X21880952Y-67349761D01*
X21833333Y-67254523D01*
X21833333Y-67206904D01*
X21880952Y-67111666D01*
X21976190Y-67064047D01*
X22119047Y-67064047D01*
X22214285Y-67016428D01*
X22261904Y-66921190D01*
X22261904Y-66873571D01*
X22214285Y-66778333D01*
X22119047Y-66730714D01*
X21976190Y-66730714D01*
X21880952Y-66778333D01*
X47071428Y-69007380D02*
X47404761Y-68531190D01*
X47642857Y-69007380D02*
X47642857Y-68007380D01*
X47261904Y-68007380D01*
X47166666Y-68055000D01*
X47119047Y-68102619D01*
X47071428Y-68197857D01*
X47071428Y-68340714D01*
X47119047Y-68435952D01*
X47166666Y-68483571D01*
X47261904Y-68531190D01*
X47642857Y-68531190D01*
X46785714Y-68007380D02*
X46214285Y-68007380D01*
X46500000Y-69007380D02*
X46500000Y-68007380D01*
X45309523Y-68912142D02*
X45357142Y-68959761D01*
X45500000Y-69007380D01*
X45595238Y-69007380D01*
X45738095Y-68959761D01*
X45833333Y-68864523D01*
X45880952Y-68769285D01*
X45928571Y-68578809D01*
X45928571Y-68435952D01*
X45880952Y-68245476D01*
X45833333Y-68150238D01*
X45738095Y-68055000D01*
X45595238Y-68007380D01*
X45500000Y-68007380D01*
X45357142Y-68055000D01*
X45309523Y-68102619D01*
X44166666Y-67959761D02*
X45023809Y-69245476D01*
X43833333Y-68340714D02*
X43833333Y-69340714D01*
X43357142Y-68864523D02*
X43309523Y-68959761D01*
X43214285Y-69007380D01*
X43833333Y-68864523D02*
X43785714Y-68959761D01*
X43690476Y-69007380D01*
X43500000Y-69007380D01*
X43404761Y-68959761D01*
X43357142Y-68864523D01*
X43357142Y-68340714D01*
X42833333Y-68959761D02*
X42690476Y-69007380D01*
X42452380Y-69007380D01*
X42357142Y-68959761D01*
X42309523Y-68912142D01*
X42261904Y-68816904D01*
X42261904Y-68721666D01*
X42309523Y-68626428D01*
X42357142Y-68578809D01*
X42452380Y-68531190D01*
X42642857Y-68483571D01*
X42738095Y-68435952D01*
X42785714Y-68388333D01*
X42833333Y-68293095D01*
X42833333Y-68197857D01*
X42785714Y-68102619D01*
X42738095Y-68055000D01*
X42642857Y-68007380D01*
X42404761Y-68007380D01*
X42261904Y-68055000D01*
X41833333Y-69007380D02*
X41833333Y-68007380D01*
X41595238Y-68007380D01*
X41452380Y-68055000D01*
X41357142Y-68150238D01*
X41309523Y-68245476D01*
X41261904Y-68435952D01*
X41261904Y-68578809D01*
X41309523Y-68769285D01*
X41357142Y-68864523D01*
X41452380Y-68959761D01*
X41595238Y-69007380D01*
X41833333Y-69007380D01*
X40119047Y-67959761D02*
X40976190Y-69245476D01*
X39785714Y-68340714D02*
X39785714Y-69007380D01*
X39785714Y-68435952D02*
X39738095Y-68388333D01*
X39642857Y-68340714D01*
X39500000Y-68340714D01*
X39404761Y-68388333D01*
X39357142Y-68483571D01*
X39357142Y-69007380D01*
X38547619Y-68483571D02*
X38880952Y-68483571D01*
X38880952Y-69007380D02*
X38880952Y-68007380D01*
X38404761Y-68007380D01*
X38071428Y-68102619D02*
X38023809Y-68055000D01*
X37928571Y-68007380D01*
X37690476Y-68007380D01*
X37595238Y-68055000D01*
X37547619Y-68102619D01*
X37500000Y-68197857D01*
X37500000Y-68293095D01*
X37547619Y-68435952D01*
X38119047Y-69007380D01*
X37500000Y-69007380D01*
X36642857Y-68340714D02*
X36642857Y-69007380D01*
X36880952Y-67959761D02*
X37119047Y-68674047D01*
X36500000Y-68674047D01*
X35357142Y-69007380D02*
X35357142Y-68007380D01*
X35023809Y-68721666D01*
X34690476Y-68007380D01*
X34690476Y-69007380D01*
X34071428Y-69007380D02*
X34166666Y-68959761D01*
X34214285Y-68912142D01*
X34261904Y-68816904D01*
X34261904Y-68531190D01*
X34214285Y-68435952D01*
X34166666Y-68388333D01*
X34071428Y-68340714D01*
X33928571Y-68340714D01*
X33833333Y-68388333D01*
X33785714Y-68435952D01*
X33738095Y-68531190D01*
X33738095Y-68816904D01*
X33785714Y-68912142D01*
X33833333Y-68959761D01*
X33928571Y-69007380D01*
X34071428Y-69007380D01*
X32880952Y-69007380D02*
X32880952Y-68007380D01*
X32880952Y-68959761D02*
X32976190Y-69007380D01*
X33166666Y-69007380D01*
X33261904Y-68959761D01*
X33309523Y-68912142D01*
X33357142Y-68816904D01*
X33357142Y-68531190D01*
X33309523Y-68435952D01*
X33261904Y-68388333D01*
X33166666Y-68340714D01*
X32976190Y-68340714D01*
X32880952Y-68388333D01*
X31976190Y-68340714D02*
X31976190Y-69007380D01*
X32404761Y-68340714D02*
X32404761Y-68864523D01*
X32357142Y-68959761D01*
X32261904Y-69007380D01*
X32119047Y-69007380D01*
X32023809Y-68959761D01*
X31976190Y-68912142D01*
X31357142Y-69007380D02*
X31452380Y-68959761D01*
X31500000Y-68864523D01*
X31500000Y-68007380D01*
X30595238Y-68959761D02*
X30690476Y-69007380D01*
X30880952Y-69007380D01*
X30976190Y-68959761D01*
X31023809Y-68864523D01*
X31023809Y-68483571D01*
X30976190Y-68388333D01*
X30880952Y-68340714D01*
X30690476Y-68340714D01*
X30595238Y-68388333D01*
X30547619Y-68483571D01*
X30547619Y-68578809D01*
X31023809Y-68674047D01*
X29071428Y-69388333D02*
X29119047Y-69340714D01*
X29214285Y-69197857D01*
X29261904Y-69102619D01*
X29309523Y-68959761D01*
X29357142Y-68721666D01*
X29357142Y-68531190D01*
X29309523Y-68293095D01*
X29261904Y-68150238D01*
X29214285Y-68055000D01*
X29119047Y-67912142D01*
X29071428Y-67864523D01*
X28119047Y-69007380D02*
X28452380Y-68531190D01*
X28690476Y-69007380D02*
X28690476Y-68007380D01*
X28309523Y-68007380D01*
X28214285Y-68055000D01*
X28166666Y-68102619D01*
X28119047Y-68197857D01*
X28119047Y-68340714D01*
X28166666Y-68435952D01*
X28214285Y-68483571D01*
X28309523Y-68531190D01*
X28690476Y-68531190D01*
X27309523Y-68959761D02*
X27404761Y-69007380D01*
X27595238Y-69007380D01*
X27690476Y-68959761D01*
X27738095Y-68864523D01*
X27738095Y-68483571D01*
X27690476Y-68388333D01*
X27595238Y-68340714D01*
X27404761Y-68340714D01*
X27309523Y-68388333D01*
X27261904Y-68483571D01*
X27261904Y-68578809D01*
X27738095Y-68674047D01*
X26928571Y-68340714D02*
X26690476Y-69007380D01*
X26452380Y-68340714D01*
X25357142Y-68721666D02*
X24880952Y-68721666D01*
X25452380Y-69007380D02*
X25119047Y-68007380D01*
X24785714Y-69007380D01*
X24261904Y-68007380D02*
X24166666Y-68007380D01*
X24071428Y-68055000D01*
X24023809Y-68102619D01*
X23976190Y-68197857D01*
X23928571Y-68388333D01*
X23928571Y-68626428D01*
X23976190Y-68816904D01*
X24023809Y-68912142D01*
X24071428Y-68959761D01*
X24166666Y-69007380D01*
X24261904Y-69007380D01*
X24357142Y-68959761D01*
X24404761Y-68912142D01*
X24452380Y-68816904D01*
X24500000Y-68626428D01*
X24500000Y-68388333D01*
X24452380Y-68197857D01*
X24404761Y-68102619D01*
X24357142Y-68055000D01*
X24261904Y-68007380D01*
X23547619Y-68102619D02*
X23500000Y-68055000D01*
X23404761Y-68007380D01*
X23166666Y-68007380D01*
X23071428Y-68055000D01*
X23023809Y-68102619D01*
X22976190Y-68197857D01*
X22976190Y-68293095D01*
X23023809Y-68435952D01*
X23595238Y-69007380D01*
X22976190Y-69007380D01*
X22642857Y-69388333D02*
X22595238Y-69340714D01*
X22500000Y-69197857D01*
X22452380Y-69102619D01*
X22404761Y-68959761D01*
X22357142Y-68721666D01*
X22357142Y-68531190D01*
X22404761Y-68293095D01*
X22452380Y-68150238D01*
X22500000Y-68055000D01*
X22595238Y-67912142D01*
X22642857Y-67864523D01*
%TO.C,J1*%
X48833333Y-30752380D02*
X48833333Y-31466666D01*
X48880952Y-31609523D01*
X48976190Y-31704761D01*
X49119047Y-31752380D01*
X49214285Y-31752380D01*
X47833333Y-31752380D02*
X48404761Y-31752380D01*
X48119047Y-31752380D02*
X48119047Y-30752380D01*
X48214285Y-30895238D01*
X48309523Y-30990476D01*
X48404761Y-31038095D01*
%TO.C,BT1*%
X27754064Y-46928571D02*
X27611207Y-46976190D01*
X27563588Y-47023809D01*
X27515969Y-47119047D01*
X27515969Y-47261904D01*
X27563588Y-47357142D01*
X27611207Y-47404761D01*
X27706445Y-47452380D01*
X28087397Y-47452380D01*
X28087397Y-46452380D01*
X27754064Y-46452380D01*
X27658826Y-46500000D01*
X27611207Y-46547619D01*
X27563588Y-46642857D01*
X27563588Y-46738095D01*
X27611207Y-46833333D01*
X27658826Y-46880952D01*
X27754064Y-46928571D01*
X28087397Y-46928571D01*
X27230254Y-46452380D02*
X26658826Y-46452380D01*
X26944540Y-47452380D02*
X26944540Y-46452380D01*
X25801683Y-47452380D02*
X26373111Y-47452380D01*
X26087397Y-47452380D02*
X26087397Y-46452380D01*
X26182635Y-46595238D01*
X26277873Y-46690476D01*
X26373111Y-46738095D01*
D11*
%TO.C,J1*%
X49250000Y-30000000D02*
X49250000Y-21000000D01*
X37500000Y-30000000D02*
X37500000Y-29500000D01*
X45220000Y-28100000D02*
X45220000Y-26770000D01*
X24780000Y-28100000D02*
X24780000Y-22900000D01*
X20750000Y-30000000D02*
X35000000Y-30000000D01*
X20750000Y-21000000D02*
X20750000Y-30000000D01*
X32500000Y-29500000D02*
X32500000Y-30000000D01*
X42620000Y-25500000D02*
X45220000Y-25500000D01*
X45220000Y-25500000D02*
X45220000Y-22900000D01*
X43890000Y-28100000D02*
X45220000Y-28100000D01*
X37500000Y-29500000D02*
X32500000Y-29500000D01*
X42620000Y-28100000D02*
X42620000Y-25500000D01*
X45220000Y-22900000D02*
X24780000Y-22900000D01*
X35000000Y-30000000D02*
X49250000Y-30000000D01*
X49250000Y-21000000D02*
X20750000Y-21000000D01*
X42620000Y-28100000D02*
X24780000Y-28100000D01*
%TO.C,BT1*%
X24518350Y-48500000D02*
X24518350Y-61500000D01*
X29668350Y-61500000D02*
X24518350Y-61500000D01*
X43868350Y-62850000D02*
X31068350Y-62850000D01*
X29768350Y-48500000D02*
X24518350Y-48500000D01*
X43868350Y-47150000D02*
X31068350Y-47150000D01*
X43868349Y-62849999D02*
G75*
G03*
X43868349Y-47150001I-6399998J7849999D01*
G01*
X31068357Y-47150008D02*
G75*
G03*
X29768350Y-48500000I4935193J-6053392D01*
G01*
X29668350Y-61500000D02*
G75*
G03*
X31052539Y-62869394I7799900J6499900D01*
G01*
%TD*%
%LPC*%
D12*
%TO.C,REF\u002A\u002A*%
X35000000Y-75500000D03*
%TD*%
D13*
%TO.C,J2*%
X42070000Y-50950000D03*
X42070000Y-42950000D03*
%TD*%
D14*
%TO.C,J1*%
X43890000Y-26770000D03*
D15*
X43890000Y-24230000D03*
X41350000Y-26770000D03*
X41350000Y-24230000D03*
X38810000Y-26770000D03*
X38810000Y-24230000D03*
X36270000Y-26770000D03*
X36270000Y-24230000D03*
X33730000Y-26770000D03*
X33730000Y-24230000D03*
X31190000Y-26770000D03*
X31190000Y-24230000D03*
X28650000Y-26770000D03*
X28650000Y-24230000D03*
X26110000Y-26770000D03*
X26110000Y-24230000D03*
%TD*%
D16*
%TO.C,BT1*%
X23868350Y-55000000D03*
D17*
X44968350Y-55000000D03*
%TD*%
M02*
