%TF.GenerationSoftware,KiCad,Pcbnew,(6.0.9)*%
%TF.CreationDate,2022-12-02T21:40:22+00:00*%
%TF.ProjectId,PowerManagement,506f7765-724d-4616-9e61-67656d656e74,rev?*%
%TF.SameCoordinates,Original*%
%TF.FileFunction,Paste,Top*%
%TF.FilePolarity,Positive*%
%FSLAX46Y46*%
G04 Gerber Fmt 4.6, Leading zero omitted, Abs format (unit mm)*
G04 Created by KiCad (PCBNEW (6.0.9)) date 2022-12-02 21:40:22*
%MOMM*%
%LPD*%
G01*
G04 APERTURE LIST*
G04 Aperture macros list*
%AMRoundRect*
0 Rectangle with rounded corners*
0 $1 Rounding radius*
0 $2 $3 $4 $5 $6 $7 $8 $9 X,Y pos of 4 corners*
0 Add a 4 corners polygon primitive as box body*
4,1,4,$2,$3,$4,$5,$6,$7,$8,$9,$2,$3,0*
0 Add four circle primitives for the rounded corners*
1,1,$1+$1,$2,$3*
1,1,$1+$1,$4,$5*
1,1,$1+$1,$6,$7*
1,1,$1+$1,$8,$9*
0 Add four rect primitives between the rounded corners*
20,1,$1+$1,$2,$3,$4,$5,0*
20,1,$1+$1,$4,$5,$6,$7,0*
20,1,$1+$1,$6,$7,$8,$9,0*
20,1,$1+$1,$8,$9,$2,$3,0*%
G04 Aperture macros list end*
%ADD10RoundRect,0.250000X-0.475000X0.250000X-0.475000X-0.250000X0.475000X-0.250000X0.475000X0.250000X0*%
%ADD11R,1.500000X2.000000*%
%ADD12RoundRect,0.250000X0.475000X-0.250000X0.475000X0.250000X-0.475000X0.250000X-0.475000X-0.250000X0*%
%ADD13RoundRect,0.225000X-0.250000X0.225000X-0.250000X-0.225000X0.250000X-0.225000X0.250000X0.225000X0*%
%ADD14RoundRect,0.250000X-0.262500X-0.450000X0.262500X-0.450000X0.262500X0.450000X-0.262500X0.450000X0*%
%ADD15RoundRect,0.250000X1.025000X-0.787500X1.025000X0.787500X-1.025000X0.787500X-1.025000X-0.787500X0*%
%ADD16RoundRect,0.225000X0.250000X-0.225000X0.250000X0.225000X-0.250000X0.225000X-0.250000X-0.225000X0*%
%ADD17RoundRect,0.250000X-0.650000X0.325000X-0.650000X-0.325000X0.650000X-0.325000X0.650000X0.325000X0*%
%ADD18RoundRect,0.250000X0.450000X-0.262500X0.450000X0.262500X-0.450000X0.262500X-0.450000X-0.262500X0*%
%ADD19RoundRect,0.250000X0.262500X0.450000X-0.262500X0.450000X-0.262500X-0.450000X0.262500X-0.450000X0*%
%ADD20RoundRect,0.060000X0.140000X0.257500X-0.140000X0.257500X-0.140000X-0.257500X0.140000X-0.257500X0*%
%ADD21RoundRect,0.046500X-0.403500X-0.108500X0.403500X-0.108500X0.403500X0.108500X-0.403500X0.108500X0*%
%ADD22R,1.200000X0.200000*%
%ADD23RoundRect,0.060000X0.140000X0.255000X-0.140000X0.255000X-0.140000X-0.255000X0.140000X-0.255000X0*%
%ADD24RoundRect,0.045000X-0.405000X-0.104999X0.405000X-0.104999X0.405000X0.104999X-0.405000X0.104999X0*%
%ADD25RoundRect,0.045000X0.105000X-0.519999X0.105000X0.519999X-0.105000X0.519999X-0.105000X-0.519999X0*%
%ADD26R,0.200000X0.800000*%
%ADD27RoundRect,0.045000X0.105000X-0.520000X0.105000X0.520000X-0.105000X0.520000X-0.105000X-0.520000X0*%
%ADD28RoundRect,0.045000X0.105000X-0.514999X0.105000X0.514999X-0.105000X0.514999X-0.105000X-0.514999X0*%
%ADD29RoundRect,0.250000X0.250000X0.475000X-0.250000X0.475000X-0.250000X-0.475000X0.250000X-0.475000X0*%
%ADD30R,0.450000X1.050000*%
%ADD31R,0.537000X0.882000*%
%ADD32R,3.800000X1.050000*%
%ADD33R,5.500000X3.850000*%
%ADD34RoundRect,0.243750X-0.243750X-0.456250X0.243750X-0.456250X0.243750X0.456250X-0.243750X0.456250X0*%
G04 APERTURE END LIST*
D10*
%TO.C,C6*%
X36900000Y-33750000D03*
X36900000Y-35650000D03*
%TD*%
D11*
%TO.C,J2*%
X44614000Y-62296000D03*
X44614000Y-69296000D03*
X41214000Y-62296000D03*
X37414000Y-69296000D03*
X35214000Y-69296000D03*
X35714000Y-62296000D03*
%TD*%
D12*
%TO.C,C1*%
X36900000Y-40050000D03*
X36900000Y-38150000D03*
%TD*%
D13*
%TO.C,C3*%
X31620000Y-39745000D03*
X31620000Y-41295000D03*
%TD*%
D14*
%TO.C,R9*%
X24337500Y-73750000D03*
X26162500Y-73750000D03*
%TD*%
D15*
%TO.C,C8*%
X30516000Y-69797500D03*
X30516000Y-63572500D03*
%TD*%
D16*
%TO.C,C5*%
X30600000Y-33975000D03*
X30600000Y-32425000D03*
%TD*%
D17*
%TO.C,C2*%
X28700000Y-35525000D03*
X28700000Y-38475000D03*
%TD*%
D18*
%TO.C,R6*%
X32920000Y-32967500D03*
X32920000Y-31142500D03*
%TD*%
D14*
%TO.C,R3*%
X33187500Y-42000000D03*
X35012500Y-42000000D03*
%TD*%
D19*
%TO.C,R8*%
X26162500Y-71750000D03*
X24337500Y-71750000D03*
%TD*%
%TO.C,R1*%
X41207500Y-59700000D03*
X39382500Y-59700000D03*
%TD*%
D20*
%TO.C,U1*%
X32100000Y-35237500D03*
D21*
X31850000Y-35399998D03*
D22*
X32050000Y-35850000D03*
X32050000Y-36299999D03*
X32050000Y-36750001D03*
X32050000Y-37200000D03*
D23*
X32100000Y-37810000D03*
D24*
X31850000Y-37645000D03*
D25*
X32150000Y-38059999D03*
D26*
X32599999Y-38174999D03*
X33050001Y-38174999D03*
X33500000Y-38174999D03*
X33949999Y-38174999D03*
X34400001Y-38174999D03*
D27*
X34850000Y-38065000D03*
D21*
X35150000Y-37650002D03*
D23*
X34900000Y-37810000D03*
D22*
X34950000Y-37200000D03*
X34950000Y-36750001D03*
X34950000Y-36299999D03*
X34950000Y-35850000D03*
D23*
X34900000Y-35240000D03*
D21*
X35150000Y-35400001D03*
D28*
X34850000Y-34995000D03*
D26*
X34400001Y-34875001D03*
X33949999Y-34875001D03*
X33500000Y-34875001D03*
X33050001Y-34875001D03*
X32599999Y-34875001D03*
D25*
X32150000Y-34985000D03*
%TD*%
D19*
%TO.C,R4*%
X38512500Y-42000000D03*
X36687500Y-42000000D03*
%TD*%
%TO.C,R5*%
X47650000Y-48700000D03*
X45825000Y-48700000D03*
%TD*%
%TO.C,R2*%
X35012500Y-40000000D03*
X33187500Y-40000000D03*
%TD*%
D29*
%TO.C,C9*%
X23700000Y-62000000D03*
X21800000Y-62000000D03*
%TD*%
D30*
%TO.C,U2*%
X27025000Y-64225000D03*
X26375000Y-64225000D03*
X25725000Y-64225000D03*
X25075000Y-64225000D03*
X24425000Y-64225000D03*
X23775000Y-64225000D03*
X23125000Y-64225000D03*
X22475000Y-64225000D03*
X22475000Y-69775000D03*
X23125000Y-69775000D03*
X23775000Y-69775000D03*
X24425000Y-69775000D03*
X25075000Y-69775000D03*
X25725000Y-69775000D03*
X26375000Y-69775000D03*
X27025000Y-69775000D03*
D31*
X26092500Y-66265000D03*
X23407500Y-67735000D03*
X25197500Y-66265000D03*
X24302500Y-66265000D03*
X26092500Y-67735000D03*
X25197500Y-67735000D03*
X24302500Y-67735000D03*
X23407500Y-66265000D03*
%TD*%
D32*
%TO.C,L1*%
X28500000Y-42000000D03*
X28500000Y-44000000D03*
%TD*%
D16*
%TO.C,C7*%
X27900000Y-73575000D03*
X27900000Y-72025000D03*
%TD*%
D33*
%TO.C,L2*%
X28000000Y-47550000D03*
X28000000Y-57450000D03*
%TD*%
D10*
%TO.C,C4*%
X39000000Y-37350000D03*
X39000000Y-39250000D03*
%TD*%
D34*
%TO.C,D1*%
X45800000Y-50800000D03*
X47675000Y-50800000D03*
%TD*%
M02*
