%TF.GenerationSoftware,KiCad,Pcbnew,(6.0.9)*%
%TF.CreationDate,2022-12-02T21:40:22+00:00*%
%TF.ProjectId,PowerManagement,506f7765-724d-4616-9e61-67656d656e74,rev?*%
%TF.SameCoordinates,Original*%
%TF.FileFunction,Copper,L1,Top*%
%TF.FilePolarity,Positive*%
%FSLAX46Y46*%
G04 Gerber Fmt 4.6, Leading zero omitted, Abs format (unit mm)*
G04 Created by KiCad (PCBNEW (6.0.9)) date 2022-12-02 21:40:22*
%MOMM*%
%LPD*%
G01*
G04 APERTURE LIST*
G04 Aperture macros list*
%AMRoundRect*
0 Rectangle with rounded corners*
0 $1 Rounding radius*
0 $2 $3 $4 $5 $6 $7 $8 $9 X,Y pos of 4 corners*
0 Add a 4 corners polygon primitive as box body*
4,1,4,$2,$3,$4,$5,$6,$7,$8,$9,$2,$3,0*
0 Add four circle primitives for the rounded corners*
1,1,$1+$1,$2,$3*
1,1,$1+$1,$4,$5*
1,1,$1+$1,$6,$7*
1,1,$1+$1,$8,$9*
0 Add four rect primitives between the rounded corners*
20,1,$1+$1,$2,$3,$4,$5,0*
20,1,$1+$1,$4,$5,$6,$7,0*
20,1,$1+$1,$6,$7,$8,$9,0*
20,1,$1+$1,$8,$9,$2,$3,0*%
G04 Aperture macros list end*
%TA.AperFunction,SMDPad,CuDef*%
%ADD10RoundRect,0.250000X-0.475000X0.250000X-0.475000X-0.250000X0.475000X-0.250000X0.475000X0.250000X0*%
%TD*%
%TA.AperFunction,SMDPad,CuDef*%
%ADD11R,1.500000X2.000000*%
%TD*%
%TA.AperFunction,SMDPad,CuDef*%
%ADD12RoundRect,0.250000X0.475000X-0.250000X0.475000X0.250000X-0.475000X0.250000X-0.475000X-0.250000X0*%
%TD*%
%TA.AperFunction,ComponentPad*%
%ADD13R,1.700000X1.700000*%
%TD*%
%TA.AperFunction,ComponentPad*%
%ADD14O,1.700000X1.700000*%
%TD*%
%TA.AperFunction,SMDPad,CuDef*%
%ADD15RoundRect,0.225000X-0.250000X0.225000X-0.250000X-0.225000X0.250000X-0.225000X0.250000X0.225000X0*%
%TD*%
%TA.AperFunction,SMDPad,CuDef*%
%ADD16RoundRect,0.250000X-0.262500X-0.450000X0.262500X-0.450000X0.262500X0.450000X-0.262500X0.450000X0*%
%TD*%
%TA.AperFunction,SMDPad,CuDef*%
%ADD17RoundRect,0.250000X1.025000X-0.787500X1.025000X0.787500X-1.025000X0.787500X-1.025000X-0.787500X0*%
%TD*%
%TA.AperFunction,SMDPad,CuDef*%
%ADD18RoundRect,0.225000X0.250000X-0.225000X0.250000X0.225000X-0.250000X0.225000X-0.250000X-0.225000X0*%
%TD*%
%TA.AperFunction,SMDPad,CuDef*%
%ADD19RoundRect,0.250000X-0.650000X0.325000X-0.650000X-0.325000X0.650000X-0.325000X0.650000X0.325000X0*%
%TD*%
%TA.AperFunction,SMDPad,CuDef*%
%ADD20RoundRect,0.250000X0.450000X-0.262500X0.450000X0.262500X-0.450000X0.262500X-0.450000X-0.262500X0*%
%TD*%
%TA.AperFunction,SMDPad,CuDef*%
%ADD21RoundRect,0.250000X0.262500X0.450000X-0.262500X0.450000X-0.262500X-0.450000X0.262500X-0.450000X0*%
%TD*%
%TA.AperFunction,ComponentPad*%
%ADD22RoundRect,0.250000X-0.625000X0.350000X-0.625000X-0.350000X0.625000X-0.350000X0.625000X0.350000X0*%
%TD*%
%TA.AperFunction,ComponentPad*%
%ADD23O,1.750000X1.200000*%
%TD*%
%TA.AperFunction,SMDPad,CuDef*%
%ADD24RoundRect,0.060000X0.140000X0.257500X-0.140000X0.257500X-0.140000X-0.257500X0.140000X-0.257500X0*%
%TD*%
%TA.AperFunction,SMDPad,CuDef*%
%ADD25RoundRect,0.046500X-0.403500X-0.108500X0.403500X-0.108500X0.403500X0.108500X-0.403500X0.108500X0*%
%TD*%
%TA.AperFunction,SMDPad,CuDef*%
%ADD26R,1.200000X0.200000*%
%TD*%
%TA.AperFunction,SMDPad,CuDef*%
%ADD27RoundRect,0.060000X0.140000X0.255000X-0.140000X0.255000X-0.140000X-0.255000X0.140000X-0.255000X0*%
%TD*%
%TA.AperFunction,SMDPad,CuDef*%
%ADD28RoundRect,0.045000X-0.405000X-0.104999X0.405000X-0.104999X0.405000X0.104999X-0.405000X0.104999X0*%
%TD*%
%TA.AperFunction,SMDPad,CuDef*%
%ADD29RoundRect,0.045000X0.105000X-0.519999X0.105000X0.519999X-0.105000X0.519999X-0.105000X-0.519999X0*%
%TD*%
%TA.AperFunction,SMDPad,CuDef*%
%ADD30R,0.200000X0.800000*%
%TD*%
%TA.AperFunction,SMDPad,CuDef*%
%ADD31RoundRect,0.045000X0.105000X-0.520000X0.105000X0.520000X-0.105000X0.520000X-0.105000X-0.520000X0*%
%TD*%
%TA.AperFunction,SMDPad,CuDef*%
%ADD32RoundRect,0.045000X0.105000X-0.514999X0.105000X0.514999X-0.105000X0.514999X-0.105000X-0.514999X0*%
%TD*%
%TA.AperFunction,SMDPad,CuDef*%
%ADD33RoundRect,0.250000X0.250000X0.475000X-0.250000X0.475000X-0.250000X-0.475000X0.250000X-0.475000X0*%
%TD*%
%TA.AperFunction,SMDPad,CuDef*%
%ADD34R,0.450000X1.050000*%
%TD*%
%TA.AperFunction,SMDPad,CuDef*%
%ADD35R,0.895000X1.470000*%
%TD*%
%TA.AperFunction,ComponentPad*%
%ADD36RoundRect,0.250000X-0.750000X0.600000X-0.750000X-0.600000X0.750000X-0.600000X0.750000X0.600000X0*%
%TD*%
%TA.AperFunction,ComponentPad*%
%ADD37O,2.000000X1.700000*%
%TD*%
%TA.AperFunction,SMDPad,CuDef*%
%ADD38R,3.800000X1.050000*%
%TD*%
%TA.AperFunction,SMDPad,CuDef*%
%ADD39R,5.500000X3.850000*%
%TD*%
%TA.AperFunction,SMDPad,CuDef*%
%ADD40RoundRect,0.243750X-0.243750X-0.456250X0.243750X-0.456250X0.243750X0.456250X-0.243750X0.456250X0*%
%TD*%
%TA.AperFunction,ViaPad*%
%ADD41C,0.500000*%
%TD*%
%TA.AperFunction,Conductor*%
%ADD42C,0.500000*%
%TD*%
%TA.AperFunction,Conductor*%
%ADD43C,0.250000*%
%TD*%
G04 APERTURE END LIST*
D10*
%TO.P,C6,1*%
%TO.N,GND*%
X36900000Y-33750000D03*
%TO.P,C6,2*%
%TO.N,+BATT*%
X36900000Y-35650000D03*
%TD*%
D11*
%TO.P,J2,1*%
%TO.N,GND*%
X44614000Y-62296000D03*
%TO.P,J2,2*%
%TO.N,+5V*%
X44614000Y-69296000D03*
%TO.P,J2,3*%
%TO.N,Net-(J2-Pad3)*%
X41214000Y-62296000D03*
%TO.P,J2,4*%
%TO.N,Net-(J2-Pad4)*%
X37414000Y-69296000D03*
%TO.P,J2,5*%
%TO.N,unconnected-(J2-Pad5)*%
X35214000Y-69296000D03*
%TO.P,J2,6*%
%TO.N,unconnected-(J2-Pad6)*%
X35714000Y-62296000D03*
%TD*%
D12*
%TO.P,C1,1*%
%TO.N,VREF*%
X36900000Y-40050000D03*
%TO.P,C1,2*%
%TO.N,GND*%
X36900000Y-38150000D03*
%TD*%
D13*
%TO.P,J1,1,Pin_1*%
%TO.N,VBUS*%
X22500000Y-32700000D03*
D14*
%TO.P,J1,2,Pin_2*%
%TO.N,USB-DM*%
X22500000Y-35240000D03*
%TO.P,J1,3,Pin_3*%
%TO.N,USB-DP*%
X22500000Y-37780000D03*
%TO.P,J1,4,Pin_4*%
%TO.N,GND*%
X22500000Y-40320000D03*
%TD*%
D15*
%TO.P,C3,1*%
%TO.N,Net-(C3-Pad1)*%
X31620000Y-39745000D03*
%TO.P,C3,2*%
%TO.N,Net-(C3-Pad2)*%
X31620000Y-41295000D03*
%TD*%
D16*
%TO.P,R9,1*%
%TO.N,Net-(R8-Pad2)*%
X24337500Y-73750000D03*
%TO.P,R9,2*%
%TO.N,GND*%
X26162500Y-73750000D03*
%TD*%
D17*
%TO.P,C8,1*%
%TO.N,+5V*%
X30516000Y-69797500D03*
%TO.P,C8,2*%
%TO.N,GND*%
X30516000Y-63572500D03*
%TD*%
D18*
%TO.P,C5,1*%
%TO.N,VBUS*%
X30600000Y-33975000D03*
%TO.P,C5,2*%
%TO.N,GND*%
X30600000Y-32425000D03*
%TD*%
D19*
%TO.P,C2,1*%
%TO.N,Net-(C2-Pad1)*%
X28700000Y-35525000D03*
%TO.P,C2,2*%
%TO.N,GND*%
X28700000Y-38475000D03*
%TD*%
D20*
%TO.P,R6,1*%
%TO.N,Net-(R6-Pad1)*%
X32920000Y-32967500D03*
%TO.P,R6,2*%
%TO.N,GND*%
X32920000Y-31142500D03*
%TD*%
D16*
%TO.P,R3,1*%
%TO.N,Net-(R2-Pad2)*%
X33187500Y-42000000D03*
%TO.P,R3,2*%
%TO.N,Net-(J5-Pad2)*%
X35012500Y-42000000D03*
%TD*%
D21*
%TO.P,R8,1*%
%TO.N,+5V*%
X26162500Y-71750000D03*
%TO.P,R8,2*%
%TO.N,Net-(R8-Pad2)*%
X24337500Y-71750000D03*
%TD*%
%TO.P,R1,1*%
%TO.N,Net-(J2-Pad3)*%
X41207500Y-59700000D03*
%TO.P,R1,2*%
%TO.N,Net-(J2-Pad4)*%
X39382500Y-59700000D03*
%TD*%
D22*
%TO.P,J5,1,Pin_1*%
%TO.N,+BATT*%
X47050000Y-33500000D03*
D23*
%TO.P,J5,2,Pin_2*%
%TO.N,Net-(J5-Pad2)*%
X47050000Y-35500000D03*
%TO.P,J5,3,Pin_3*%
%TO.N,GND*%
X47050000Y-37500000D03*
%TD*%
D24*
%TO.P,U1,1,DP*%
%TO.N,USB-DP*%
X32100000Y-35237500D03*
D25*
X31850000Y-35399998D03*
D26*
%TO.P,U1,2,IN*%
%TO.N,VBUS*%
X32050000Y-35850000D03*
%TO.P,U1,3,PMID*%
%TO.N,Net-(C2-Pad1)*%
X32050000Y-36299999D03*
%TO.P,U1,4,SW*%
%TO.N,Net-(C3-Pad2)*%
X32050000Y-36750001D03*
%TO.P,U1,5,PGND*%
%TO.N,GND*%
X32050000Y-37200000D03*
D27*
%TO.P,U1,6,PGND*%
X32100000Y-37810000D03*
D28*
X31850000Y-37645000D03*
D29*
%TO.P,U1,7,PGND*%
X32150000Y-38059999D03*
D30*
%TO.P,U1,8,BST*%
%TO.N,Net-(C3-Pad1)*%
X32599999Y-38174999D03*
%TO.P,U1,9,STAT*%
%TO.N,Net-(D1-Pad1)*%
X33050001Y-38174999D03*
%TO.P,U1,10,~{INT}*%
%TO.N,unconnected-(U1-Pad10)*%
X33500000Y-38174999D03*
%TO.P,U1,11,NTC*%
%TO.N,Net-(R2-Pad2)*%
X33949999Y-38174999D03*
%TO.P,U1,12,VNTC*%
%TO.N,Net-(R2-Pad1)*%
X34400001Y-38174999D03*
D31*
%TO.P,U1,13,VREF*%
%TO.N,VREF*%
X34850000Y-38065000D03*
D25*
%TO.P,U1,14,VREF*%
X35150000Y-37650002D03*
D27*
X34900000Y-37810000D03*
D26*
%TO.P,U1,15,AGND*%
%TO.N,GND*%
X34950000Y-37200000D03*
%TO.P,U1,16,SYS*%
%TO.N,+VSW*%
X34950000Y-36750001D03*
%TO.P,U1,17,BATT*%
%TO.N,+BATT*%
X34950000Y-36299999D03*
%TO.P,U1,18,~{CE}*%
%TO.N,GND*%
X34950000Y-35850000D03*
D27*
%TO.P,U1,19,SCL*%
%TO.N,SCL*%
X34900000Y-35240000D03*
D25*
X35150000Y-35400001D03*
D32*
%TO.P,U1,20,SCL*%
X34850000Y-34995000D03*
D30*
%TO.P,U1,21,SDA*%
%TO.N,SDA*%
X34400001Y-34875001D03*
%TO.P,U1,22,DISC*%
%TO.N,Net-(J6-Pad1)*%
X33949999Y-34875001D03*
%TO.P,U1,23,OTG*%
%TO.N,GND*%
X33500000Y-34875001D03*
%TO.P,U1,24,ILM*%
%TO.N,Net-(R6-Pad1)*%
X33050001Y-34875001D03*
%TO.P,U1,25,DM*%
%TO.N,USB-DM*%
X32599999Y-34875001D03*
D29*
%TO.P,U1,26,DP*%
%TO.N,USB-DP*%
X32150000Y-34985000D03*
%TD*%
D21*
%TO.P,R4,1*%
%TO.N,Net-(J6-Pad1)*%
X38512500Y-42000000D03*
%TO.P,R4,2*%
%TO.N,VREF*%
X36687500Y-42000000D03*
%TD*%
%TO.P,R5,1*%
%TO.N,Net-(D1-Pad2)*%
X47650000Y-48700000D03*
%TO.P,R5,2*%
%TO.N,VREF*%
X45825000Y-48700000D03*
%TD*%
%TO.P,R2,1*%
%TO.N,Net-(R2-Pad1)*%
X35012500Y-40000000D03*
%TO.P,R2,2*%
%TO.N,Net-(R2-Pad2)*%
X33187500Y-40000000D03*
%TD*%
D33*
%TO.P,C9,1*%
%TO.N,GND*%
X23700000Y-62000000D03*
%TO.P,C9,2*%
%TO.N,+VSW*%
X21800000Y-62000000D03*
%TD*%
D34*
%TO.P,U2,1,SW*%
%TO.N,Net-(L2-Pad2)*%
X27025000Y-64225000D03*
%TO.P,U2,2,SW*%
X26375000Y-64225000D03*
%TO.P,U2,3,PGND*%
%TO.N,GND*%
X25725000Y-64225000D03*
%TO.P,U2,4,PGND*%
X25075000Y-64225000D03*
%TO.P,U2,5,PGND*%
X24425000Y-64225000D03*
%TO.P,U2,6,VBAT*%
%TO.N,+VSW*%
X23775000Y-64225000D03*
%TO.P,U2,7,LBI*%
%TO.N,GND*%
X23125000Y-64225000D03*
%TO.P,U2,8,SYNC*%
X22475000Y-64225000D03*
%TO.P,U2,9,EN*%
%TO.N,+VSW*%
X22475000Y-69775000D03*
%TO.P,U2,10,LBO*%
%TO.N,unconnected-(U2-Pad10)*%
X23125000Y-69775000D03*
%TO.P,U2,11,GND*%
%TO.N,GND*%
X23775000Y-69775000D03*
%TO.P,U2,12,FB*%
%TO.N,Net-(R8-Pad2)*%
X24425000Y-69775000D03*
%TO.P,U2,13,VOUT*%
%TO.N,+5V*%
X25075000Y-69775000D03*
%TO.P,U2,14,VOUT*%
X25725000Y-69775000D03*
%TO.P,U2,15,VOUT*%
X26375000Y-69775000D03*
%TO.P,U2,16*%
%TO.N,N/C*%
X27025000Y-69775000D03*
D35*
%TO.P,U2,17,PGND*%
%TO.N,GND*%
X26092500Y-66265000D03*
X23407500Y-67735000D03*
X25197500Y-66265000D03*
X24302500Y-66265000D03*
X26092500Y-67735000D03*
X25197500Y-67735000D03*
X24302500Y-67735000D03*
X23407500Y-66265000D03*
%TD*%
D36*
%TO.P,J4,1,Pin_1*%
%TO.N,+5V*%
X46275000Y-55250000D03*
D37*
%TO.P,J4,2,Pin_2*%
%TO.N,GND*%
X46275000Y-57750000D03*
%TD*%
D38*
%TO.P,L1,1*%
%TO.N,Net-(C3-Pad2)*%
X28500000Y-42000000D03*
%TO.P,L1,2*%
%TO.N,+VSW*%
X28500000Y-44000000D03*
%TD*%
D18*
%TO.P,C7,1*%
%TO.N,GND*%
X27900000Y-73575000D03*
%TO.P,C7,2*%
%TO.N,+5V*%
X27900000Y-72025000D03*
%TD*%
D39*
%TO.P,L2,1*%
%TO.N,+VSW*%
X28000000Y-47550000D03*
%TO.P,L2,2*%
%TO.N,Net-(L2-Pad2)*%
X28000000Y-57450000D03*
%TD*%
D10*
%TO.P,C4,1*%
%TO.N,+VSW*%
X39000000Y-37350000D03*
%TO.P,C4,2*%
%TO.N,GND*%
X39000000Y-39250000D03*
%TD*%
D22*
%TO.P,J6,1,Pin_1*%
%TO.N,Net-(J6-Pad1)*%
X47050000Y-43000000D03*
D23*
%TO.P,J6,2,Pin_2*%
%TO.N,GND*%
X47050000Y-45000000D03*
%TD*%
D40*
%TO.P,D1,1,K*%
%TO.N,Net-(D1-Pad1)*%
X45800000Y-50800000D03*
%TO.P,D1,2,A*%
%TO.N,Net-(D1-Pad2)*%
X47675000Y-50800000D03*
%TD*%
D13*
%TO.P,J3,1,Pin_1*%
%TO.N,GND*%
X43890000Y-26770000D03*
D14*
%TO.P,J3,2,Pin_2*%
%TO.N,unconnected-(J3-Pad2)*%
X43890000Y-24230000D03*
%TO.P,J3,3,Pin_3*%
%TO.N,GND*%
X41350000Y-26770000D03*
%TO.P,J3,4,Pin_4*%
%TO.N,unconnected-(J3-Pad4)*%
X41350000Y-24230000D03*
%TO.P,J3,5,Pin_5*%
%TO.N,GND*%
X38810000Y-26770000D03*
%TO.P,J3,6,Pin_6*%
%TO.N,unconnected-(J3-Pad6)*%
X38810000Y-24230000D03*
%TO.P,J3,7,Pin_7*%
%TO.N,GND*%
X36270000Y-26770000D03*
%TO.P,J3,8,Pin_8*%
%TO.N,SCL*%
X36270000Y-24230000D03*
%TO.P,J3,9,Pin_9*%
%TO.N,unconnected-(J3-Pad9)*%
X33730000Y-26770000D03*
%TO.P,J3,10,Pin_10*%
%TO.N,SDA*%
X33730000Y-24230000D03*
%TO.P,J3,11,Pin_11*%
%TO.N,unconnected-(J3-Pad11)*%
X31190000Y-26770000D03*
%TO.P,J3,12,Pin_12*%
%TO.N,unconnected-(J3-Pad12)*%
X31190000Y-24230000D03*
%TO.P,J3,13,Pin_13*%
%TO.N,unconnected-(J3-Pad13)*%
X28650000Y-26770000D03*
%TO.P,J3,14,Pin_14*%
%TO.N,unconnected-(J3-Pad14)*%
X28650000Y-24230000D03*
%TO.P,J3,15,Pin_15*%
%TO.N,unconnected-(J3-Pad15)*%
X26110000Y-26770000D03*
%TO.P,J3,16,Pin_16*%
%TO.N,unconnected-(J3-Pad16)*%
X26110000Y-24230000D03*
%TD*%
D41*
%TO.N,VREF*%
X44800000Y-48700000D03*
X37500000Y-42600000D03*
%TO.N,Net-(D1-Pad1)*%
X33100000Y-37500000D03*
X44800000Y-50800000D03*
%TO.N,+5V*%
X48200000Y-60100000D03*
X38900000Y-69200000D03*
X48900000Y-70600000D03*
X33100000Y-71300000D03*
X38900000Y-71300000D03*
X48200000Y-62200000D03*
X48900000Y-62200000D03*
X48200000Y-71300000D03*
X47500000Y-62200000D03*
X40300000Y-69200000D03*
X39600000Y-69900000D03*
X40300000Y-71300000D03*
X38900000Y-70600000D03*
X39600000Y-71300000D03*
X48900000Y-69900000D03*
X28500000Y-70400000D03*
X48900000Y-60800000D03*
X48900000Y-60100000D03*
X39600000Y-70600000D03*
X40300000Y-69900000D03*
X47500000Y-69900000D03*
X33800000Y-71300000D03*
X48200000Y-69900000D03*
X32400000Y-71300000D03*
X48900000Y-71300000D03*
X27900000Y-70400000D03*
X48200000Y-70600000D03*
X27900000Y-69800000D03*
X32400000Y-69200000D03*
X48200000Y-60800000D03*
X47500000Y-60100000D03*
X32400000Y-70600000D03*
X47500000Y-61500000D03*
X39600000Y-69200000D03*
X27900000Y-71000000D03*
X28500000Y-71000000D03*
X48200000Y-69200000D03*
X47500000Y-60800000D03*
X32400000Y-69900000D03*
X48900000Y-61500000D03*
X48200000Y-61500000D03*
X47500000Y-71300000D03*
X33800000Y-69900000D03*
X33100000Y-69900000D03*
X48900000Y-69200000D03*
X38900000Y-69900000D03*
X33100000Y-70600000D03*
X47500000Y-69200000D03*
X28500000Y-69800000D03*
X33100000Y-69200000D03*
X47500000Y-70600000D03*
X28500000Y-69200000D03*
X33800000Y-69200000D03*
X40300000Y-70600000D03*
X33800000Y-70600000D03*
X27900000Y-69200000D03*
%TO.N,USB-DM*%
X32500000Y-33900000D03*
%TO.N,USB-DP*%
X31800000Y-34100000D03*
%TO.N,Net-(J6-Pad1)*%
X33600000Y-35800000D03*
X39500000Y-42000000D03*
X43200000Y-42900000D03*
%TO.N,SCL*%
X34800000Y-31100000D03*
%TO.N,SDA*%
X34200000Y-31400000D03*
%TO.N,Net-(J5-Pad2)*%
X43200000Y-40700000D03*
X35900000Y-41000000D03*
%TO.N,GND*%
X30200000Y-38200000D03*
X43000000Y-78000000D03*
X28000000Y-77000000D03*
X42000000Y-75000000D03*
X41000000Y-75000000D03*
X28000000Y-78000000D03*
X31400000Y-38200000D03*
X43000000Y-76000000D03*
X42000000Y-78000000D03*
X30000000Y-76000000D03*
X28400000Y-40200000D03*
X28000000Y-76000000D03*
X28000000Y-75000000D03*
X27000000Y-76000000D03*
X39500000Y-40400000D03*
X29000000Y-76000000D03*
X30200000Y-38800000D03*
X30800000Y-37600000D03*
X27000000Y-77000000D03*
X37600000Y-39100000D03*
X30800000Y-38200000D03*
X29600000Y-39600000D03*
X43000000Y-77000000D03*
X40000000Y-77000000D03*
X40000000Y-78000000D03*
X41000000Y-76000000D03*
X29000000Y-78000000D03*
X42000000Y-76000000D03*
X40000000Y-75000000D03*
X30000000Y-78000000D03*
X36900000Y-39100000D03*
X29000000Y-40200000D03*
X38300000Y-40400000D03*
X30800000Y-38800000D03*
X29000000Y-77000000D03*
X30200000Y-40200000D03*
X30200000Y-39600000D03*
X41000000Y-78000000D03*
X27000000Y-78000000D03*
X40000000Y-76000000D03*
X38900000Y-40400000D03*
X31400000Y-38800000D03*
X43000000Y-75000000D03*
X41000000Y-77000000D03*
X36300000Y-39100000D03*
X42000000Y-77000000D03*
X27000000Y-75000000D03*
X28400000Y-39600000D03*
X29600000Y-40200000D03*
X30000000Y-77000000D03*
X30000000Y-75000000D03*
X29000000Y-39600000D03*
X29000000Y-75000000D03*
%TD*%
D42*
%TO.N,Net-(J2-Pad3)*%
X41214000Y-59706500D02*
X41207500Y-59700000D01*
X41214000Y-62296000D02*
X41214000Y-59706500D01*
D43*
%TO.N,VREF*%
X44800000Y-48700000D02*
X45825000Y-48700000D01*
X36687500Y-40262500D02*
X36900000Y-40050000D01*
X36900000Y-42000000D02*
X37500000Y-42600000D01*
X34850000Y-38453928D02*
X34850000Y-38065000D01*
X36687500Y-42000000D02*
X36900000Y-42000000D01*
X36687500Y-42000000D02*
X36687500Y-40262500D01*
X36446072Y-40050000D02*
X34850000Y-38453928D01*
X36900000Y-40050000D02*
X36446072Y-40050000D01*
%TO.N,Net-(C3-Pad1)*%
X31820000Y-39620000D02*
X32599999Y-38840001D01*
X31595000Y-39620000D02*
X31820000Y-39620000D01*
X32599999Y-38840001D02*
X32599999Y-38149999D01*
D42*
%TO.N,+VSW*%
X21800000Y-62000000D02*
X21800000Y-63200000D01*
X21800000Y-48600000D02*
X22850000Y-47550000D01*
X21800000Y-69100000D02*
X22475000Y-69775000D01*
X21800000Y-63200000D02*
X21800000Y-69100000D01*
X21800000Y-62000000D02*
X21800000Y-48600000D01*
X22850000Y-47550000D02*
X28000000Y-47550000D01*
X23775000Y-64225000D02*
X23775000Y-63375000D01*
X23775000Y-63375000D02*
X23600000Y-63200000D01*
X23600000Y-63200000D02*
X21800000Y-63200000D01*
D43*
%TO.N,Net-(D1-Pad1)*%
X44800000Y-50800000D02*
X45800000Y-50800000D01*
X33050001Y-37549999D02*
X33100000Y-37500000D01*
X33050001Y-38174999D02*
X33050001Y-37549999D01*
%TO.N,Net-(D1-Pad2)*%
X47675000Y-50800000D02*
X47675000Y-48725000D01*
X47675000Y-48725000D02*
X47650000Y-48700000D01*
%TO.N,USB-DM*%
X32599999Y-34875001D02*
X32599999Y-33999999D01*
X32599999Y-33999999D02*
X32500000Y-33900000D01*
%TO.N,USB-DP*%
X32025002Y-35374998D02*
X31850000Y-35374998D01*
X32150000Y-34450000D02*
X31800000Y-34100000D01*
X32150000Y-34850001D02*
X32150000Y-35250000D01*
X32150000Y-34985000D02*
X32150000Y-34450000D01*
X32150000Y-35250000D02*
X32025002Y-35374998D01*
%TO.N,Net-(J6-Pad1)*%
X43200000Y-42900000D02*
X46950000Y-42900000D01*
X39500000Y-42000000D02*
X38512500Y-42000000D01*
X33700000Y-35700000D02*
X33949999Y-35450001D01*
X46950000Y-42900000D02*
X47050000Y-43000000D01*
X33949999Y-35450001D02*
X33949999Y-34850001D01*
%TO.N,SCL*%
X34850000Y-31250000D02*
X34850000Y-34995000D01*
X34800000Y-31100000D02*
X34850000Y-31250000D01*
%TO.N,SDA*%
X34400000Y-31600000D02*
X34400001Y-34875001D01*
X34200000Y-31400000D02*
X34400000Y-31600000D01*
%TO.N,Net-(C2-Pad1)*%
X30699999Y-36299999D02*
X32050000Y-36299999D01*
X29925000Y-35525000D02*
X30699999Y-36299999D01*
X28700000Y-35525000D02*
X29925000Y-35525000D01*
D42*
%TO.N,Net-(J2-Pad4)*%
X39382500Y-67077500D02*
X39382500Y-59700000D01*
X37414000Y-69046000D02*
X39382500Y-67077500D01*
X37414000Y-69296000D02*
X37414000Y-69046000D01*
D43*
%TO.N,Net-(J5-Pad2)*%
X44000000Y-35500000D02*
X47050000Y-35500000D01*
X35012500Y-41887500D02*
X35900000Y-41000000D01*
X43200000Y-36400000D02*
X44000000Y-35500000D01*
X35012500Y-42000000D02*
X35012500Y-41887500D01*
X43200000Y-40700000D02*
X43200000Y-36400000D01*
%TO.N,Net-(R6-Pad1)*%
X33050001Y-34875001D02*
X33050001Y-33097501D01*
X33050001Y-33097501D02*
X32920000Y-32967500D01*
%TO.N,Net-(R2-Pad1)*%
X34400001Y-38174999D02*
X34400001Y-39387501D01*
X34400001Y-39387501D02*
X35012500Y-40000000D01*
%TO.N,Net-(R2-Pad2)*%
X33187500Y-40000000D02*
X33187500Y-42000000D01*
X33949999Y-39249999D02*
X33199998Y-40000000D01*
X33199998Y-40000000D02*
X33187500Y-40000000D01*
X33949999Y-38174999D02*
X33949999Y-39249999D01*
D42*
%TO.N,Net-(R8-Pad2)*%
X24337500Y-71750000D02*
X24337500Y-73750000D01*
X24425000Y-71662500D02*
X24337500Y-71750000D01*
X24425000Y-69775000D02*
X24425000Y-71662500D01*
%TD*%
%TA.AperFunction,Conductor*%
%TO.N,GND*%
G36*
X48482638Y-20701746D02*
G01*
X48494265Y-20704420D01*
X48494266Y-20704420D01*
X48499641Y-20705656D01*
X48505024Y-20704438D01*
X48507898Y-20703788D01*
X48523514Y-20702816D01*
X48651172Y-20715389D01*
X48660593Y-20717263D01*
X48801336Y-20759957D01*
X48810210Y-20763633D01*
X48939921Y-20832965D01*
X48947908Y-20838301D01*
X49061601Y-20931606D01*
X49068394Y-20938399D01*
X49161699Y-21052092D01*
X49167035Y-21060079D01*
X49236367Y-21189790D01*
X49240043Y-21198664D01*
X49282737Y-21339407D01*
X49284611Y-21348828D01*
X49297144Y-21476075D01*
X49296133Y-21491860D01*
X49294344Y-21499641D01*
X49298292Y-21517087D01*
X49299500Y-21527902D01*
X49299500Y-53952808D01*
X49285148Y-53987456D01*
X49250500Y-54001808D01*
X49242839Y-54001205D01*
X49200500Y-53994500D01*
X45199000Y-53994500D01*
X45166856Y-53997030D01*
X45136263Y-54001875D01*
X45047617Y-54038592D01*
X45045279Y-54040291D01*
X44998997Y-54073916D01*
X44998988Y-54073923D01*
X44998117Y-54074556D01*
X44970372Y-54098797D01*
X44923464Y-54177307D01*
X44904557Y-54235498D01*
X44894500Y-54299000D01*
X44894500Y-56201000D01*
X44897030Y-56233144D01*
X44901875Y-56263737D01*
X44938592Y-56352383D01*
X44940291Y-56354721D01*
X44973916Y-56401003D01*
X44973923Y-56401012D01*
X44974556Y-56401883D01*
X44998797Y-56429628D01*
X45077307Y-56476536D01*
X45079922Y-56477386D01*
X45079925Y-56477387D01*
X45107501Y-56486346D01*
X45135498Y-56495443D01*
X45199000Y-56505500D01*
X47445500Y-56505500D01*
X47480148Y-56519852D01*
X47494500Y-56554500D01*
X47494500Y-57329806D01*
X47480148Y-57364454D01*
X47445500Y-57378806D01*
X47410852Y-57364454D01*
X47402076Y-57352507D01*
X47308965Y-57174402D01*
X47306354Y-57170410D01*
X47180327Y-57013664D01*
X47176992Y-57010259D01*
X47022922Y-56880979D01*
X47018985Y-56878283D01*
X46842737Y-56781390D01*
X46838359Y-56779514D01*
X46646645Y-56718699D01*
X46641990Y-56717709D01*
X46485470Y-56700152D01*
X46482740Y-56700000D01*
X46384747Y-56700000D01*
X46377855Y-56702855D01*
X46375000Y-56709747D01*
X46375000Y-58790253D01*
X46377855Y-58797145D01*
X46384747Y-58800000D01*
X46475631Y-58800000D01*
X46478005Y-58799884D01*
X46627552Y-58785221D01*
X46632221Y-58784296D01*
X46824767Y-58726163D01*
X46829179Y-58724344D01*
X47006755Y-58629925D01*
X47010732Y-58627283D01*
X47166586Y-58500172D01*
X47169974Y-58496808D01*
X47298175Y-58341840D01*
X47300842Y-58337886D01*
X47396501Y-58160966D01*
X47398350Y-58156569D01*
X47398692Y-58155464D01*
X47398940Y-58155165D01*
X47399279Y-58154359D01*
X47399524Y-58154462D01*
X47422648Y-58126610D01*
X47459991Y-58123147D01*
X47488845Y-58147103D01*
X47494500Y-58169955D01*
X47494500Y-59345500D01*
X47480148Y-59380148D01*
X47445500Y-59394500D01*
X47099000Y-59394500D01*
X47066856Y-59397030D01*
X47036263Y-59401875D01*
X46947617Y-59438592D01*
X46945279Y-59440291D01*
X46898997Y-59473916D01*
X46898988Y-59473923D01*
X46898117Y-59474556D01*
X46870372Y-59498797D01*
X46823464Y-59577307D01*
X46804557Y-59635498D01*
X46794500Y-59699000D01*
X46794500Y-67745500D01*
X46780148Y-67780148D01*
X46745500Y-67794500D01*
X43699000Y-67794500D01*
X43666856Y-67797030D01*
X43636263Y-67801875D01*
X43547617Y-67838592D01*
X43529323Y-67851883D01*
X43498997Y-67873916D01*
X43498988Y-67873923D01*
X43498117Y-67874556D01*
X43470372Y-67898797D01*
X43423464Y-67977307D01*
X43404557Y-68035498D01*
X43394500Y-68099000D01*
X43394500Y-68445500D01*
X43380148Y-68480148D01*
X43345500Y-68494500D01*
X38720899Y-68494500D01*
X38686251Y-68480148D01*
X38671899Y-68445500D01*
X38686251Y-68410852D01*
X39680065Y-67417038D01*
X39684377Y-67413206D01*
X39711734Y-67391639D01*
X39714610Y-67389372D01*
X39716693Y-67386358D01*
X39716695Y-67386356D01*
X39748660Y-67340107D01*
X39749555Y-67338854D01*
X39782957Y-67293631D01*
X39785134Y-67290684D01*
X39786347Y-67287229D01*
X39787989Y-67284128D01*
X39789550Y-67280941D01*
X39791631Y-67277931D01*
X39809690Y-67220829D01*
X39810162Y-67219415D01*
X39830019Y-67162869D01*
X39830163Y-67159209D01*
X39830849Y-67155610D01*
X39831188Y-67155675D01*
X39831438Y-67154240D01*
X39831103Y-67154175D01*
X39831637Y-67151435D01*
X39832480Y-67148770D01*
X39833000Y-67142163D01*
X39833000Y-67087963D01*
X39833038Y-67086039D01*
X39835194Y-67031167D01*
X39835338Y-67027506D01*
X39834399Y-67023964D01*
X39833997Y-67020324D01*
X39834044Y-67020319D01*
X39833000Y-67012303D01*
X39833000Y-65845126D01*
X43209541Y-65845126D01*
X43239935Y-66046097D01*
X43310119Y-66236852D01*
X43311426Y-66238960D01*
X43311428Y-66238964D01*
X43391344Y-66367855D01*
X43417226Y-66409599D01*
X43556881Y-66557280D01*
X43558916Y-66558705D01*
X43721343Y-66672438D01*
X43721347Y-66672440D01*
X43723379Y-66673863D01*
X43909919Y-66754586D01*
X43912343Y-66755092D01*
X43912348Y-66755094D01*
X44021035Y-66777799D01*
X44108880Y-66796151D01*
X44115539Y-66796500D01*
X44264800Y-66796500D01*
X44266029Y-66796375D01*
X44266032Y-66796375D01*
X44313487Y-66791555D01*
X44416216Y-66781120D01*
X44610172Y-66720338D01*
X44787944Y-66621797D01*
X44942271Y-66489523D01*
X45066848Y-66328919D01*
X45156587Y-66146545D01*
X45207822Y-65949852D01*
X45218459Y-65746874D01*
X45188065Y-65545903D01*
X45117881Y-65355148D01*
X45060798Y-65263081D01*
X45012078Y-65184504D01*
X45012078Y-65184503D01*
X45010774Y-65182401D01*
X44871119Y-65034720D01*
X44869084Y-65033295D01*
X44706657Y-64919562D01*
X44706653Y-64919560D01*
X44704621Y-64918137D01*
X44518081Y-64837414D01*
X44515657Y-64836908D01*
X44515652Y-64836906D01*
X44394626Y-64811623D01*
X44319120Y-64795849D01*
X44312461Y-64795500D01*
X44163200Y-64795500D01*
X44161971Y-64795625D01*
X44161968Y-64795625D01*
X44116417Y-64800252D01*
X44011784Y-64810880D01*
X43817828Y-64871662D01*
X43695740Y-64939337D01*
X43655923Y-64961408D01*
X43640056Y-64970203D01*
X43485729Y-65102477D01*
X43361152Y-65263081D01*
X43271413Y-65445455D01*
X43220178Y-65642148D01*
X43209541Y-65845126D01*
X39833000Y-65845126D01*
X39833000Y-63315748D01*
X40263500Y-63315748D01*
X40275133Y-63374231D01*
X40319448Y-63440552D01*
X40385769Y-63484867D01*
X40444252Y-63496500D01*
X41983748Y-63496500D01*
X42042231Y-63484867D01*
X42108552Y-63440552D01*
X42152867Y-63374231D01*
X42164500Y-63315748D01*
X42164500Y-63313295D01*
X43664000Y-63313295D01*
X43664468Y-63318052D01*
X43674663Y-63369303D01*
X43678285Y-63378049D01*
X43717128Y-63436181D01*
X43723819Y-63442872D01*
X43781951Y-63481715D01*
X43790697Y-63485337D01*
X43841948Y-63495532D01*
X43846705Y-63496000D01*
X44504253Y-63496000D01*
X44511145Y-63493145D01*
X44514000Y-63486253D01*
X44714000Y-63486253D01*
X44716855Y-63493145D01*
X44723747Y-63496000D01*
X45381295Y-63496000D01*
X45386052Y-63495532D01*
X45437303Y-63485337D01*
X45446049Y-63481715D01*
X45504181Y-63442872D01*
X45510872Y-63436181D01*
X45549715Y-63378049D01*
X45553337Y-63369303D01*
X45563532Y-63318052D01*
X45564000Y-63313295D01*
X45564000Y-62405747D01*
X45561145Y-62398855D01*
X45554253Y-62396000D01*
X44723747Y-62396000D01*
X44716855Y-62398855D01*
X44714000Y-62405747D01*
X44714000Y-63486253D01*
X44514000Y-63486253D01*
X44514000Y-62405747D01*
X44511145Y-62398855D01*
X44504253Y-62396000D01*
X43673747Y-62396000D01*
X43666855Y-62398855D01*
X43664000Y-62405747D01*
X43664000Y-63313295D01*
X42164500Y-63313295D01*
X42164500Y-62186253D01*
X43664000Y-62186253D01*
X43666855Y-62193145D01*
X43673747Y-62196000D01*
X44504253Y-62196000D01*
X44511145Y-62193145D01*
X44514000Y-62186253D01*
X44714000Y-62186253D01*
X44716855Y-62193145D01*
X44723747Y-62196000D01*
X45554253Y-62196000D01*
X45561145Y-62193145D01*
X45564000Y-62186253D01*
X45564000Y-61278705D01*
X45563532Y-61273948D01*
X45553337Y-61222697D01*
X45549715Y-61213951D01*
X45510872Y-61155819D01*
X45504181Y-61149128D01*
X45446049Y-61110285D01*
X45437303Y-61106663D01*
X45386052Y-61096468D01*
X45381295Y-61096000D01*
X44723747Y-61096000D01*
X44716855Y-61098855D01*
X44714000Y-61105747D01*
X44714000Y-62186253D01*
X44514000Y-62186253D01*
X44514000Y-61105747D01*
X44511145Y-61098855D01*
X44504253Y-61096000D01*
X43846705Y-61096000D01*
X43841948Y-61096468D01*
X43790697Y-61106663D01*
X43781951Y-61110285D01*
X43723819Y-61149128D01*
X43717128Y-61155819D01*
X43678285Y-61213951D01*
X43674663Y-61222697D01*
X43664468Y-61273948D01*
X43664000Y-61278705D01*
X43664000Y-62186253D01*
X42164500Y-62186253D01*
X42164500Y-61276252D01*
X42152867Y-61217769D01*
X42108552Y-61151448D01*
X42042231Y-61107133D01*
X41983748Y-61095500D01*
X41713500Y-61095500D01*
X41678852Y-61081148D01*
X41664500Y-61046500D01*
X41664500Y-60591159D01*
X41678852Y-60556511D01*
X41684388Y-60551745D01*
X41789204Y-60474326D01*
X41792150Y-60472150D01*
X41872634Y-60363184D01*
X41917519Y-60235369D01*
X41920500Y-60203834D01*
X41920500Y-59196166D01*
X41917519Y-59164631D01*
X41872634Y-59036816D01*
X41792150Y-58927850D01*
X41683184Y-58847366D01*
X41679723Y-58846151D01*
X41679722Y-58846150D01*
X41558188Y-58803471D01*
X41555369Y-58802481D01*
X41552397Y-58802200D01*
X41524980Y-58799608D01*
X41524973Y-58799608D01*
X41523834Y-58799500D01*
X40891166Y-58799500D01*
X40890027Y-58799608D01*
X40890020Y-58799608D01*
X40862603Y-58802200D01*
X40859631Y-58802481D01*
X40856812Y-58803471D01*
X40735278Y-58846150D01*
X40735277Y-58846151D01*
X40731816Y-58847366D01*
X40622850Y-58927850D01*
X40542366Y-59036816D01*
X40497481Y-59164631D01*
X40494500Y-59196166D01*
X40494500Y-60203834D01*
X40497481Y-60235369D01*
X40542366Y-60363184D01*
X40622850Y-60472150D01*
X40731816Y-60552634D01*
X40735274Y-60553848D01*
X40737430Y-60554990D01*
X40761334Y-60583887D01*
X40763500Y-60598294D01*
X40763500Y-61046500D01*
X40749148Y-61081148D01*
X40714500Y-61095500D01*
X40444252Y-61095500D01*
X40385769Y-61107133D01*
X40319448Y-61151448D01*
X40275133Y-61217769D01*
X40263500Y-61276252D01*
X40263500Y-63315748D01*
X39833000Y-63315748D01*
X39833000Y-60594852D01*
X39847352Y-60560204D01*
X39857071Y-60553025D01*
X39858184Y-60552634D01*
X39967150Y-60472150D01*
X40047634Y-60363184D01*
X40092519Y-60235369D01*
X40095500Y-60203834D01*
X40095500Y-59196166D01*
X40092519Y-59164631D01*
X40047634Y-59036816D01*
X39967150Y-58927850D01*
X39858184Y-58847366D01*
X39854723Y-58846151D01*
X39854722Y-58846150D01*
X39733188Y-58803471D01*
X39730369Y-58802481D01*
X39727397Y-58802200D01*
X39699980Y-58799608D01*
X39699973Y-58799608D01*
X39698834Y-58799500D01*
X39066166Y-58799500D01*
X39065027Y-58799608D01*
X39065020Y-58799608D01*
X39037603Y-58802200D01*
X39034631Y-58802481D01*
X39031812Y-58803471D01*
X38910278Y-58846150D01*
X38910277Y-58846151D01*
X38906816Y-58847366D01*
X38797850Y-58927850D01*
X38717366Y-59036816D01*
X38672481Y-59164631D01*
X38669500Y-59196166D01*
X38669500Y-60203834D01*
X38672481Y-60235369D01*
X38717366Y-60363184D01*
X38797850Y-60472150D01*
X38906816Y-60552634D01*
X38906832Y-60552640D01*
X38929834Y-60580443D01*
X38932000Y-60594852D01*
X38932000Y-66870601D01*
X38917648Y-66905249D01*
X37741749Y-68081148D01*
X37707101Y-68095500D01*
X36644252Y-68095500D01*
X36585769Y-68107133D01*
X36519448Y-68151448D01*
X36475133Y-68217769D01*
X36463500Y-68276252D01*
X36463500Y-68452808D01*
X36449148Y-68487456D01*
X36414500Y-68501808D01*
X36406839Y-68501205D01*
X36364500Y-68494500D01*
X36263500Y-68494500D01*
X36231356Y-68497030D01*
X36221165Y-68498644D01*
X36184698Y-68489889D01*
X36165103Y-68457912D01*
X36164500Y-68450247D01*
X36164500Y-68276252D01*
X36152867Y-68217769D01*
X36108552Y-68151448D01*
X36042231Y-68107133D01*
X35983748Y-68095500D01*
X34444252Y-68095500D01*
X34385769Y-68107133D01*
X34319448Y-68151448D01*
X34275133Y-68217769D01*
X34263500Y-68276252D01*
X34263500Y-68452808D01*
X34249148Y-68487456D01*
X34214500Y-68501808D01*
X34206839Y-68501205D01*
X34164500Y-68494500D01*
X26789000Y-68494500D01*
X26754352Y-68480148D01*
X26740000Y-68445500D01*
X26740000Y-67844747D01*
X26737145Y-67837855D01*
X26730253Y-67835000D01*
X24412247Y-67835000D01*
X24405355Y-67837855D01*
X24402500Y-67844747D01*
X24402500Y-68660253D01*
X24405355Y-68667145D01*
X24412247Y-68670000D01*
X24558396Y-68670000D01*
X24593044Y-68684352D01*
X24607396Y-68719000D01*
X24605377Y-68731740D01*
X24605601Y-68731794D01*
X24605150Y-68733673D01*
X24604557Y-68735498D01*
X24594500Y-68799000D01*
X24594500Y-69000500D01*
X24580148Y-69035148D01*
X24545500Y-69049500D01*
X24180252Y-69049500D01*
X24121769Y-69061133D01*
X24117959Y-69063679D01*
X24080581Y-69063677D01*
X24073306Y-69060663D01*
X24022052Y-69050468D01*
X24017295Y-69050000D01*
X23884747Y-69050000D01*
X23877855Y-69052855D01*
X23875000Y-69059747D01*
X23875000Y-70490253D01*
X23877855Y-70497145D01*
X23884747Y-70500000D01*
X23925500Y-70500000D01*
X23960148Y-70514352D01*
X23974500Y-70549000D01*
X23974500Y-70823069D01*
X23960148Y-70857717D01*
X23941735Y-70869301D01*
X23865278Y-70896150D01*
X23865277Y-70896151D01*
X23861816Y-70897366D01*
X23752850Y-70977850D01*
X23672366Y-71086816D01*
X23671151Y-71090277D01*
X23671150Y-71090278D01*
X23657934Y-71127913D01*
X23627481Y-71214631D01*
X23624500Y-71246166D01*
X23624500Y-72253834D01*
X23627481Y-72285369D01*
X23628471Y-72288188D01*
X23669144Y-72404008D01*
X23672366Y-72413184D01*
X23752850Y-72522150D01*
X23755796Y-72524326D01*
X23858865Y-72600454D01*
X23861816Y-72602634D01*
X23861832Y-72602640D01*
X23884834Y-72630443D01*
X23887000Y-72644852D01*
X23887000Y-72855148D01*
X23872648Y-72889796D01*
X23862929Y-72896975D01*
X23861816Y-72897366D01*
X23858868Y-72899544D01*
X23858867Y-72899544D01*
X23755796Y-72975674D01*
X23752850Y-72977850D01*
X23672366Y-73086816D01*
X23671151Y-73090277D01*
X23671150Y-73090278D01*
X23635394Y-73192098D01*
X23627481Y-73214631D01*
X23624500Y-73246166D01*
X23624500Y-74253834D01*
X23627481Y-74285369D01*
X23628471Y-74288188D01*
X23637223Y-74313109D01*
X23672366Y-74413184D01*
X23752850Y-74522150D01*
X23861816Y-74602634D01*
X23865277Y-74603849D01*
X23865278Y-74603850D01*
X23967098Y-74639606D01*
X23989631Y-74647519D01*
X23992603Y-74647800D01*
X24020020Y-74650392D01*
X24020027Y-74650392D01*
X24021166Y-74650500D01*
X24653834Y-74650500D01*
X24654973Y-74650392D01*
X24654980Y-74650392D01*
X24682397Y-74647800D01*
X24685369Y-74647519D01*
X24707902Y-74639606D01*
X24809722Y-74603850D01*
X24809723Y-74603849D01*
X24813184Y-74602634D01*
X24922150Y-74522150D01*
X25002634Y-74413184D01*
X25037778Y-74313109D01*
X25046529Y-74288188D01*
X25047519Y-74285369D01*
X25050500Y-74253834D01*
X25050500Y-74252613D01*
X25450001Y-74252613D01*
X25450110Y-74254918D01*
X25452697Y-74282303D01*
X25453967Y-74288092D01*
X25496597Y-74409485D01*
X25499993Y-74415898D01*
X25576032Y-74518846D01*
X25581154Y-74523968D01*
X25684102Y-74600007D01*
X25690515Y-74603403D01*
X25811907Y-74646032D01*
X25817698Y-74647303D01*
X25845083Y-74649892D01*
X25847385Y-74650000D01*
X26052753Y-74650000D01*
X26059645Y-74647145D01*
X26062500Y-74640253D01*
X26062500Y-74640252D01*
X26262500Y-74640252D01*
X26265355Y-74647144D01*
X26272247Y-74649999D01*
X26477613Y-74649999D01*
X26479918Y-74649890D01*
X26507303Y-74647303D01*
X26513092Y-74646033D01*
X26634485Y-74603403D01*
X26640898Y-74600007D01*
X26743846Y-74523968D01*
X26748968Y-74518846D01*
X26825007Y-74415898D01*
X26828403Y-74409485D01*
X26871032Y-74288093D01*
X26872303Y-74282302D01*
X26874892Y-74254917D01*
X26875000Y-74252615D01*
X26875000Y-73859747D01*
X26872145Y-73852855D01*
X26865253Y-73850000D01*
X26272247Y-73850000D01*
X26265355Y-73852855D01*
X26262500Y-73859747D01*
X26262500Y-74640252D01*
X26062500Y-74640252D01*
X26062500Y-73859747D01*
X26059645Y-73852855D01*
X26052753Y-73850000D01*
X25459748Y-73850000D01*
X25452856Y-73852855D01*
X25450001Y-73859747D01*
X25450001Y-74252613D01*
X25050500Y-74252613D01*
X25050500Y-73831526D01*
X27225001Y-73831526D01*
X27225302Y-73835349D01*
X27240159Y-73929163D01*
X27242512Y-73936403D01*
X27300132Y-74049489D01*
X27304608Y-74055649D01*
X27394351Y-74145392D01*
X27400511Y-74149868D01*
X27513597Y-74207488D01*
X27520837Y-74209841D01*
X27614651Y-74224699D01*
X27618473Y-74225000D01*
X27790253Y-74225000D01*
X27797145Y-74222145D01*
X27800000Y-74215253D01*
X27800000Y-74215252D01*
X28000000Y-74215252D01*
X28002855Y-74222144D01*
X28009747Y-74224999D01*
X28181526Y-74224999D01*
X28185349Y-74224698D01*
X28279163Y-74209841D01*
X28286403Y-74207488D01*
X28399489Y-74149868D01*
X28405649Y-74145392D01*
X28495392Y-74055649D01*
X28499868Y-74049489D01*
X28557488Y-73936403D01*
X28559841Y-73929163D01*
X28574699Y-73835349D01*
X28575000Y-73831527D01*
X28575000Y-73684747D01*
X28572145Y-73677855D01*
X28565253Y-73675000D01*
X28009747Y-73675000D01*
X28002855Y-73677855D01*
X28000000Y-73684747D01*
X28000000Y-74215252D01*
X27800000Y-74215252D01*
X27800000Y-73684747D01*
X27797145Y-73677855D01*
X27790253Y-73675000D01*
X27234748Y-73675000D01*
X27227856Y-73677855D01*
X27225001Y-73684747D01*
X27225001Y-73831526D01*
X25050500Y-73831526D01*
X25050500Y-73640253D01*
X25450000Y-73640253D01*
X25452855Y-73647145D01*
X25459747Y-73650000D01*
X26052753Y-73650000D01*
X26059645Y-73647145D01*
X26062500Y-73640253D01*
X26262500Y-73640253D01*
X26265355Y-73647145D01*
X26272247Y-73650000D01*
X26865252Y-73650000D01*
X26872144Y-73647145D01*
X26874999Y-73640253D01*
X26874999Y-73465253D01*
X27225000Y-73465253D01*
X27227855Y-73472145D01*
X27234747Y-73475000D01*
X27790253Y-73475000D01*
X27797145Y-73472145D01*
X27800000Y-73465253D01*
X28000000Y-73465253D01*
X28002855Y-73472145D01*
X28009747Y-73475000D01*
X28565252Y-73475000D01*
X28572144Y-73472145D01*
X28574999Y-73465253D01*
X28574999Y-73318474D01*
X28574698Y-73314651D01*
X28559841Y-73220837D01*
X28557488Y-73213597D01*
X28499868Y-73100511D01*
X28495392Y-73094351D01*
X28405649Y-73004608D01*
X28399489Y-73000132D01*
X28286403Y-72942512D01*
X28279163Y-72940159D01*
X28185349Y-72925301D01*
X28181527Y-72925000D01*
X28009747Y-72925000D01*
X28002855Y-72927855D01*
X28000000Y-72934747D01*
X28000000Y-73465253D01*
X27800000Y-73465253D01*
X27800000Y-72934748D01*
X27797145Y-72927856D01*
X27790253Y-72925001D01*
X27618474Y-72925001D01*
X27614651Y-72925302D01*
X27520837Y-72940159D01*
X27513597Y-72942512D01*
X27400511Y-73000132D01*
X27394351Y-73004608D01*
X27304608Y-73094351D01*
X27300132Y-73100511D01*
X27242512Y-73213597D01*
X27240159Y-73220837D01*
X27225301Y-73314651D01*
X27225000Y-73318473D01*
X27225000Y-73465253D01*
X26874999Y-73465253D01*
X26874999Y-73247387D01*
X26874890Y-73245082D01*
X26872303Y-73217697D01*
X26871033Y-73211908D01*
X26828403Y-73090515D01*
X26825007Y-73084102D01*
X26748968Y-72981154D01*
X26743846Y-72976032D01*
X26640898Y-72899993D01*
X26634485Y-72896597D01*
X26513093Y-72853968D01*
X26507302Y-72852697D01*
X26479917Y-72850108D01*
X26477615Y-72850000D01*
X26272247Y-72850000D01*
X26265355Y-72852855D01*
X26262500Y-72859747D01*
X26262500Y-73640253D01*
X26062500Y-73640253D01*
X26062500Y-72859748D01*
X26059645Y-72852856D01*
X26052753Y-72850001D01*
X25847387Y-72850001D01*
X25845082Y-72850110D01*
X25817697Y-72852697D01*
X25811908Y-72853967D01*
X25690515Y-72896597D01*
X25684102Y-72899993D01*
X25581154Y-72976032D01*
X25576032Y-72981154D01*
X25499993Y-73084102D01*
X25496597Y-73090515D01*
X25453968Y-73211907D01*
X25452697Y-73217698D01*
X25450108Y-73245083D01*
X25450000Y-73247385D01*
X25450000Y-73640253D01*
X25050500Y-73640253D01*
X25050500Y-73246166D01*
X25047519Y-73214631D01*
X25039606Y-73192098D01*
X25003850Y-73090278D01*
X25003849Y-73090277D01*
X25002634Y-73086816D01*
X24922150Y-72977850D01*
X24919204Y-72975674D01*
X24816133Y-72899544D01*
X24816132Y-72899544D01*
X24813184Y-72897366D01*
X24813168Y-72897360D01*
X24790166Y-72869557D01*
X24788000Y-72855148D01*
X24788000Y-72644852D01*
X24802352Y-72610204D01*
X24812071Y-72603025D01*
X24813184Y-72602634D01*
X24816136Y-72600454D01*
X24919204Y-72524326D01*
X24922150Y-72522150D01*
X25002634Y-72413184D01*
X25005857Y-72404008D01*
X25046529Y-72288188D01*
X25047519Y-72285369D01*
X25050500Y-72253834D01*
X25050500Y-71246166D01*
X25047519Y-71214631D01*
X25032104Y-71170735D01*
X25034165Y-71133289D01*
X25062100Y-71108268D01*
X25078336Y-71105500D01*
X25412188Y-71105500D01*
X25436989Y-71112240D01*
X25444846Y-71116851D01*
X25467464Y-71146766D01*
X25466277Y-71175345D01*
X25452481Y-71214631D01*
X25449500Y-71246166D01*
X25449500Y-72253834D01*
X25452481Y-72285369D01*
X25453471Y-72288188D01*
X25494144Y-72404008D01*
X25497366Y-72413184D01*
X25577850Y-72522150D01*
X25686816Y-72602634D01*
X25690277Y-72603849D01*
X25690278Y-72603850D01*
X25736481Y-72620075D01*
X25814631Y-72647519D01*
X25817603Y-72647800D01*
X25845020Y-72650392D01*
X25845027Y-72650392D01*
X25846166Y-72650500D01*
X26478834Y-72650500D01*
X26479973Y-72650392D01*
X26479980Y-72650392D01*
X26507397Y-72647800D01*
X26510369Y-72647519D01*
X26526040Y-72642016D01*
X26565155Y-72628280D01*
X26602601Y-72630341D01*
X26623897Y-72650228D01*
X26624818Y-72652383D01*
X26626431Y-72654603D01*
X26626432Y-72654605D01*
X26660142Y-72701003D01*
X26660149Y-72701012D01*
X26660782Y-72701883D01*
X26685023Y-72729628D01*
X26763533Y-72776536D01*
X26766148Y-72777386D01*
X26766151Y-72777387D01*
X26793727Y-72786346D01*
X26821724Y-72795443D01*
X26885226Y-72805500D01*
X28601000Y-72805500D01*
X28633144Y-72802970D01*
X28663737Y-72798125D01*
X28752383Y-72761408D01*
X28770677Y-72748117D01*
X28801003Y-72726084D01*
X28801012Y-72726077D01*
X28801883Y-72725444D01*
X28829628Y-72701203D01*
X28876536Y-72622693D01*
X28883054Y-72602634D01*
X28892823Y-72572566D01*
X28895443Y-72564502D01*
X28905500Y-72501000D01*
X28905500Y-72054500D01*
X28919852Y-72019852D01*
X28954500Y-72005500D01*
X49200500Y-72005500D01*
X49232644Y-72002970D01*
X49242835Y-72001356D01*
X49279302Y-72010111D01*
X49298897Y-72042088D01*
X49299500Y-72049753D01*
X49299500Y-73471657D01*
X49298254Y-73482637D01*
X49294344Y-73499641D01*
X49295562Y-73505024D01*
X49296212Y-73507898D01*
X49297184Y-73523514D01*
X49284611Y-73651172D01*
X49282737Y-73660593D01*
X49240043Y-73801336D01*
X49236367Y-73810210D01*
X49167035Y-73939921D01*
X49161699Y-73947908D01*
X49068394Y-74061601D01*
X49061601Y-74068394D01*
X48947908Y-74161699D01*
X48939921Y-74167035D01*
X48810210Y-74236367D01*
X48801336Y-74240043D01*
X48752300Y-74254918D01*
X48660592Y-74282737D01*
X48651174Y-74284611D01*
X48643476Y-74285369D01*
X48524129Y-74297123D01*
X48508264Y-74296094D01*
X48503437Y-74294975D01*
X48503435Y-74294975D01*
X48500718Y-74294345D01*
X48500361Y-74294345D01*
X48500359Y-74294344D01*
X48500000Y-74294344D01*
X48497320Y-74294955D01*
X48496196Y-74295082D01*
X48492983Y-74295337D01*
X48112013Y-74312951D01*
X47883434Y-74344836D01*
X47728459Y-74366454D01*
X47728452Y-74366455D01*
X47727336Y-74366611D01*
X47726237Y-74366870D01*
X47726229Y-74366871D01*
X47529320Y-74413184D01*
X47349251Y-74455536D01*
X47348185Y-74455893D01*
X47348179Y-74455895D01*
X46982059Y-74578605D01*
X46982052Y-74578608D01*
X46980983Y-74578966D01*
X46979947Y-74579424D01*
X46979943Y-74579425D01*
X46664299Y-74718796D01*
X46625676Y-74735850D01*
X46624676Y-74736407D01*
X46410519Y-74855692D01*
X46286360Y-74924848D01*
X45965929Y-75144348D01*
X45667119Y-75392477D01*
X45392477Y-75667119D01*
X45144348Y-75965929D01*
X44924848Y-76286360D01*
X44924300Y-76287343D01*
X44924298Y-76287347D01*
X44738676Y-76620602D01*
X44735850Y-76625676D01*
X44735389Y-76626720D01*
X44610354Y-76909897D01*
X44578966Y-76980983D01*
X44578608Y-76982052D01*
X44578605Y-76982059D01*
X44455895Y-77348179D01*
X44455536Y-77349251D01*
X44366611Y-77727336D01*
X44312951Y-78112013D01*
X44295202Y-78495909D01*
X44294344Y-78499641D01*
X44295562Y-78505023D01*
X44296212Y-78507898D01*
X44297184Y-78523514D01*
X44284611Y-78651172D01*
X44282737Y-78660593D01*
X44240043Y-78801336D01*
X44236367Y-78810210D01*
X44167035Y-78939921D01*
X44161699Y-78947908D01*
X44068394Y-79061601D01*
X44061601Y-79068394D01*
X43947908Y-79161699D01*
X43939921Y-79167035D01*
X43810210Y-79236367D01*
X43801336Y-79240043D01*
X43660593Y-79282737D01*
X43651172Y-79284611D01*
X43523922Y-79297144D01*
X43508140Y-79296133D01*
X43506580Y-79295774D01*
X43505735Y-79295580D01*
X43505734Y-79295580D01*
X43500359Y-79294344D01*
X43482910Y-79298292D01*
X43472098Y-79299500D01*
X26528343Y-79299500D01*
X26517362Y-79298254D01*
X26505735Y-79295580D01*
X26505734Y-79295580D01*
X26500359Y-79294344D01*
X26494976Y-79295562D01*
X26492102Y-79296212D01*
X26476486Y-79297184D01*
X26348828Y-79284611D01*
X26339407Y-79282737D01*
X26198664Y-79240043D01*
X26189790Y-79236367D01*
X26060079Y-79167035D01*
X26052092Y-79161699D01*
X25938399Y-79068394D01*
X25931606Y-79061601D01*
X25838301Y-78947908D01*
X25832965Y-78939921D01*
X25763633Y-78810210D01*
X25759957Y-78801336D01*
X25717263Y-78660593D01*
X25715389Y-78651172D01*
X25702877Y-78524132D01*
X25703906Y-78508267D01*
X25705028Y-78503425D01*
X25705028Y-78503421D01*
X25705655Y-78500718D01*
X25705656Y-78500000D01*
X25705041Y-78497304D01*
X25704915Y-78496178D01*
X25704663Y-78492992D01*
X25695305Y-78290582D01*
X25687049Y-78112013D01*
X25633389Y-77727336D01*
X25544464Y-77349251D01*
X25544105Y-77348179D01*
X25421395Y-76982059D01*
X25421392Y-76982052D01*
X25421034Y-76980983D01*
X25389647Y-76909897D01*
X25264611Y-76626720D01*
X25264150Y-76625676D01*
X25261324Y-76620602D01*
X25075702Y-76287347D01*
X25075700Y-76287343D01*
X25075152Y-76286360D01*
X24855652Y-75965929D01*
X24607523Y-75667119D01*
X24494604Y-75554200D01*
X31894908Y-75554200D01*
X31921004Y-75905358D01*
X31921263Y-75906720D01*
X31921263Y-75906723D01*
X31986424Y-76249935D01*
X31986684Y-76251304D01*
X32091104Y-76587592D01*
X32232921Y-76909897D01*
X32233618Y-76911093D01*
X32233620Y-76911096D01*
X32409615Y-77212880D01*
X32409619Y-77212886D01*
X32410313Y-77214076D01*
X32620999Y-77496219D01*
X32621951Y-77497231D01*
X32621956Y-77497237D01*
X32741634Y-77624458D01*
X32862270Y-77752697D01*
X33131024Y-77980214D01*
X33423807Y-78175845D01*
X33425042Y-78176481D01*
X33735617Y-78336439D01*
X33735625Y-78336443D01*
X33736853Y-78337075D01*
X34066139Y-78461830D01*
X34407430Y-78548507D01*
X34756340Y-78595992D01*
X34779812Y-78596914D01*
X34870614Y-78600482D01*
X34870631Y-78600482D01*
X34871081Y-78600500D01*
X35089198Y-78600500D01*
X35089880Y-78600461D01*
X35089890Y-78600461D01*
X35284062Y-78589435D01*
X35351560Y-78585602D01*
X35352928Y-78585367D01*
X35352936Y-78585366D01*
X35635986Y-78536729D01*
X35698600Y-78525970D01*
X35699934Y-78525581D01*
X35699939Y-78525580D01*
X36035322Y-78427824D01*
X36035327Y-78427822D01*
X36036659Y-78427434D01*
X36199024Y-78359349D01*
X36360110Y-78291800D01*
X36360114Y-78291798D01*
X36361390Y-78291263D01*
X36668619Y-78119207D01*
X36954395Y-77913477D01*
X37215046Y-77676719D01*
X37447219Y-77411977D01*
X37583735Y-77215189D01*
X37647141Y-77123790D01*
X37647147Y-77123781D01*
X37647929Y-77122653D01*
X37814598Y-76812468D01*
X37855907Y-76708928D01*
X37944567Y-76486699D01*
X37944568Y-76486695D01*
X37945081Y-76485410D01*
X38008543Y-76252633D01*
X38037336Y-76147023D01*
X38037337Y-76147018D01*
X38037701Y-76145683D01*
X38074691Y-75905358D01*
X38091057Y-75799029D01*
X38091058Y-75799021D01*
X38091268Y-75797655D01*
X38096429Y-75666312D01*
X38105037Y-75447201D01*
X38105037Y-75447200D01*
X38105092Y-75445800D01*
X38078996Y-75094642D01*
X38033115Y-74852977D01*
X38013576Y-74750065D01*
X38013576Y-74750064D01*
X38013316Y-74748696D01*
X37908896Y-74412408D01*
X37767079Y-74090103D01*
X37741768Y-74046701D01*
X37590385Y-73787120D01*
X37590381Y-73787114D01*
X37589687Y-73785924D01*
X37516848Y-73688380D01*
X37379838Y-73504902D01*
X37379001Y-73503781D01*
X37378049Y-73502769D01*
X37378044Y-73502763D01*
X37209203Y-73323281D01*
X37137730Y-73247303D01*
X36868976Y-73019786D01*
X36576193Y-72824155D01*
X36534765Y-72802818D01*
X36264383Y-72663561D01*
X36264375Y-72663557D01*
X36263147Y-72662925D01*
X35933861Y-72538170D01*
X35592570Y-72451493D01*
X35243660Y-72404008D01*
X35220188Y-72403086D01*
X35129386Y-72399518D01*
X35129369Y-72399518D01*
X35128919Y-72399500D01*
X34910802Y-72399500D01*
X34910120Y-72399539D01*
X34910110Y-72399539D01*
X34730787Y-72409722D01*
X34648440Y-72414398D01*
X34647072Y-72414633D01*
X34647064Y-72414634D01*
X34432558Y-72451493D01*
X34301400Y-72474030D01*
X34300066Y-72474419D01*
X34300061Y-72474420D01*
X33964678Y-72572176D01*
X33964673Y-72572178D01*
X33963341Y-72572566D01*
X33866421Y-72613208D01*
X33639890Y-72708200D01*
X33639886Y-72708202D01*
X33638610Y-72708737D01*
X33331381Y-72880793D01*
X33045605Y-73086523D01*
X32784954Y-73323281D01*
X32552781Y-73588023D01*
X32551995Y-73589156D01*
X32352859Y-73876210D01*
X32352853Y-73876219D01*
X32352071Y-73877347D01*
X32185402Y-74187532D01*
X32184891Y-74188812D01*
X32184889Y-74188817D01*
X32078583Y-74455276D01*
X32054919Y-74514590D01*
X32054555Y-74515926D01*
X31984331Y-74773506D01*
X31962299Y-74854317D01*
X31962088Y-74855686D01*
X31962087Y-74855692D01*
X31917659Y-75144348D01*
X31908732Y-75202345D01*
X31894908Y-75554200D01*
X24494604Y-75554200D01*
X24332881Y-75392477D01*
X24034071Y-75144348D01*
X23713640Y-74924848D01*
X23589482Y-74855692D01*
X23375324Y-74736407D01*
X23374324Y-74735850D01*
X23335701Y-74718796D01*
X23020057Y-74579425D01*
X23020053Y-74579424D01*
X23019017Y-74578966D01*
X23017948Y-74578608D01*
X23017941Y-74578605D01*
X22651821Y-74455895D01*
X22651815Y-74455893D01*
X22650749Y-74455536D01*
X22470680Y-74413184D01*
X22273771Y-74366871D01*
X22273763Y-74366870D01*
X22272664Y-74366611D01*
X22271548Y-74366455D01*
X22271541Y-74366454D01*
X22116566Y-74344836D01*
X21887987Y-74312951D01*
X21507955Y-74295381D01*
X21504660Y-74295116D01*
X21503442Y-74294977D01*
X21500718Y-74294345D01*
X21500361Y-74294345D01*
X21500359Y-74294344D01*
X21500000Y-74294344D01*
X21491981Y-74296173D01*
X21476283Y-74297164D01*
X21348828Y-74284611D01*
X21339407Y-74282737D01*
X21198664Y-74240043D01*
X21189790Y-74236367D01*
X21060079Y-74167035D01*
X21052092Y-74161699D01*
X20938399Y-74068394D01*
X20931606Y-74061601D01*
X20838301Y-73947908D01*
X20832965Y-73939921D01*
X20763633Y-73810210D01*
X20759957Y-73801336D01*
X20717263Y-73660593D01*
X20715389Y-73651172D01*
X20702877Y-73524132D01*
X20703906Y-73508267D01*
X20705028Y-73503425D01*
X20705028Y-73503421D01*
X20705655Y-73500718D01*
X20705656Y-73500000D01*
X20701727Y-73482776D01*
X20700500Y-73471878D01*
X20700500Y-62528834D01*
X21099500Y-62528834D01*
X21102481Y-62560369D01*
X21147366Y-62688184D01*
X21227850Y-62797150D01*
X21230796Y-62799326D01*
X21329612Y-62872313D01*
X21348955Y-62904442D01*
X21349500Y-62911727D01*
X21349500Y-63142755D01*
X21348234Y-63153818D01*
X21345815Y-63164255D01*
X21346528Y-63174318D01*
X21349378Y-63214575D01*
X21349500Y-63218036D01*
X21349500Y-69070327D01*
X21349160Y-69076085D01*
X21344636Y-69114310D01*
X21355401Y-69173253D01*
X21355642Y-69174708D01*
X21364551Y-69233962D01*
X21366137Y-69237264D01*
X21367155Y-69240574D01*
X21368316Y-69243966D01*
X21368975Y-69247573D01*
X21370666Y-69250828D01*
X21396566Y-69300688D01*
X21397247Y-69302051D01*
X21423191Y-69356079D01*
X21425677Y-69358768D01*
X21427736Y-69361798D01*
X21427447Y-69361994D01*
X21428286Y-69363187D01*
X21428573Y-69362994D01*
X21430135Y-69365312D01*
X21431421Y-69367788D01*
X21433233Y-69369909D01*
X21433233Y-69369910D01*
X21435107Y-69372105D01*
X21435115Y-69372113D01*
X21435725Y-69372828D01*
X21474033Y-69411136D01*
X21475367Y-69412523D01*
X21515146Y-69455556D01*
X21518313Y-69457395D01*
X21521173Y-69459687D01*
X21521143Y-69459724D01*
X21527554Y-69464657D01*
X22035148Y-69972251D01*
X22049500Y-70006899D01*
X22049500Y-70319748D01*
X22061133Y-70378231D01*
X22105448Y-70444552D01*
X22171769Y-70488867D01*
X22230252Y-70500500D01*
X22719748Y-70500500D01*
X22778231Y-70488867D01*
X22781628Y-70486597D01*
X22818372Y-70486597D01*
X22821769Y-70488867D01*
X22880252Y-70500500D01*
X23369748Y-70500500D01*
X23428231Y-70488867D01*
X23432041Y-70486321D01*
X23469419Y-70486323D01*
X23476694Y-70489337D01*
X23527948Y-70499532D01*
X23532705Y-70500000D01*
X23665253Y-70500000D01*
X23672145Y-70497145D01*
X23675000Y-70490253D01*
X23675000Y-69059747D01*
X23672145Y-69052855D01*
X23665253Y-69050000D01*
X23532705Y-69050000D01*
X23527948Y-69050468D01*
X23476694Y-69060663D01*
X23469419Y-69063677D01*
X23432041Y-69063679D01*
X23428231Y-69061133D01*
X23369748Y-69049500D01*
X22880252Y-69049500D01*
X22821769Y-69061133D01*
X22818372Y-69063403D01*
X22781628Y-69063403D01*
X22778231Y-69061133D01*
X22719748Y-69049500D01*
X22406899Y-69049500D01*
X22372251Y-69035148D01*
X22264852Y-68927749D01*
X22250500Y-68893101D01*
X22250500Y-68487295D01*
X22760000Y-68487295D01*
X22760468Y-68492052D01*
X22770663Y-68543303D01*
X22774285Y-68552049D01*
X22813128Y-68610181D01*
X22819819Y-68616872D01*
X22877951Y-68655715D01*
X22886697Y-68659337D01*
X22937948Y-68669532D01*
X22942705Y-68670000D01*
X23297753Y-68670000D01*
X23304645Y-68667145D01*
X23307500Y-68660253D01*
X23507500Y-68660253D01*
X23510355Y-68667145D01*
X23517247Y-68670000D01*
X24192753Y-68670000D01*
X24199645Y-68667145D01*
X24202500Y-68660253D01*
X24202500Y-67844747D01*
X24199645Y-67837855D01*
X24192753Y-67835000D01*
X23517247Y-67835000D01*
X23510355Y-67837855D01*
X23507500Y-67844747D01*
X23507500Y-68660253D01*
X23307500Y-68660253D01*
X23307500Y-67844747D01*
X23304645Y-67837855D01*
X23297753Y-67835000D01*
X22769747Y-67835000D01*
X22762855Y-67837855D01*
X22760000Y-67844747D01*
X22760000Y-68487295D01*
X22250500Y-68487295D01*
X22250500Y-67625253D01*
X22760000Y-67625253D01*
X22762855Y-67632145D01*
X22769747Y-67635000D01*
X23297753Y-67635000D01*
X23304645Y-67632145D01*
X23307500Y-67625253D01*
X23507500Y-67625253D01*
X23510355Y-67632145D01*
X23517247Y-67635000D01*
X24192753Y-67635000D01*
X24199645Y-67632145D01*
X24202500Y-67625253D01*
X24402500Y-67625253D01*
X24405355Y-67632145D01*
X24412247Y-67635000D01*
X25087753Y-67635000D01*
X25094645Y-67632145D01*
X25097500Y-67625253D01*
X25297500Y-67625253D01*
X25300355Y-67632145D01*
X25307247Y-67635000D01*
X25982753Y-67635000D01*
X25989645Y-67632145D01*
X25992500Y-67625253D01*
X26192500Y-67625253D01*
X26195355Y-67632145D01*
X26202247Y-67635000D01*
X26730253Y-67635000D01*
X26737145Y-67632145D01*
X26740000Y-67625253D01*
X26740000Y-66374747D01*
X26737145Y-66367855D01*
X26730253Y-66365000D01*
X26202247Y-66365000D01*
X26195355Y-66367855D01*
X26192500Y-66374747D01*
X26192500Y-67625253D01*
X25992500Y-67625253D01*
X25992500Y-66374747D01*
X25989645Y-66367855D01*
X25982753Y-66365000D01*
X25307247Y-66365000D01*
X25300355Y-66367855D01*
X25297500Y-66374747D01*
X25297500Y-67625253D01*
X25097500Y-67625253D01*
X25097500Y-66374747D01*
X25094645Y-66367855D01*
X25087753Y-66365000D01*
X24412247Y-66365000D01*
X24405355Y-66367855D01*
X24402500Y-66374747D01*
X24402500Y-67625253D01*
X24202500Y-67625253D01*
X24202500Y-66374747D01*
X24199645Y-66367855D01*
X24192753Y-66365000D01*
X23517247Y-66365000D01*
X23510355Y-66367855D01*
X23507500Y-66374747D01*
X23507500Y-67625253D01*
X23307500Y-67625253D01*
X23307500Y-66374747D01*
X23304645Y-66367855D01*
X23297753Y-66365000D01*
X22769747Y-66365000D01*
X22762855Y-66367855D01*
X22760000Y-66374747D01*
X22760000Y-67625253D01*
X22250500Y-67625253D01*
X22250500Y-66155253D01*
X22760000Y-66155253D01*
X22762855Y-66162145D01*
X22769747Y-66165000D01*
X23297753Y-66165000D01*
X23304645Y-66162145D01*
X23307500Y-66155253D01*
X23507500Y-66155253D01*
X23510355Y-66162145D01*
X23517247Y-66165000D01*
X24192753Y-66165000D01*
X24199645Y-66162145D01*
X24202500Y-66155253D01*
X24402500Y-66155253D01*
X24405355Y-66162145D01*
X24412247Y-66165000D01*
X25087753Y-66165000D01*
X25094645Y-66162145D01*
X25097500Y-66155253D01*
X25297500Y-66155253D01*
X25300355Y-66162145D01*
X25307247Y-66165000D01*
X25982753Y-66165000D01*
X25989645Y-66162145D01*
X25992500Y-66155253D01*
X26192500Y-66155253D01*
X26195355Y-66162145D01*
X26202247Y-66165000D01*
X26730253Y-66165000D01*
X26737145Y-66162145D01*
X26740000Y-66155253D01*
X26740000Y-65845126D01*
X36209541Y-65845126D01*
X36239935Y-66046097D01*
X36310119Y-66236852D01*
X36311426Y-66238960D01*
X36311428Y-66238964D01*
X36391344Y-66367855D01*
X36417226Y-66409599D01*
X36556881Y-66557280D01*
X36558916Y-66558705D01*
X36721343Y-66672438D01*
X36721347Y-66672440D01*
X36723379Y-66673863D01*
X36909919Y-66754586D01*
X36912343Y-66755092D01*
X36912348Y-66755094D01*
X37021035Y-66777799D01*
X37108880Y-66796151D01*
X37115539Y-66796500D01*
X37264800Y-66796500D01*
X37266029Y-66796375D01*
X37266032Y-66796375D01*
X37313487Y-66791555D01*
X37416216Y-66781120D01*
X37610172Y-66720338D01*
X37787944Y-66621797D01*
X37942271Y-66489523D01*
X38066848Y-66328919D01*
X38156587Y-66146545D01*
X38207822Y-65949852D01*
X38218459Y-65746874D01*
X38188065Y-65545903D01*
X38117881Y-65355148D01*
X38060798Y-65263081D01*
X38012078Y-65184504D01*
X38012078Y-65184503D01*
X38010774Y-65182401D01*
X37871119Y-65034720D01*
X37869084Y-65033295D01*
X37706657Y-64919562D01*
X37706653Y-64919560D01*
X37704621Y-64918137D01*
X37518081Y-64837414D01*
X37515657Y-64836908D01*
X37515652Y-64836906D01*
X37394626Y-64811623D01*
X37319120Y-64795849D01*
X37312461Y-64795500D01*
X37163200Y-64795500D01*
X37161971Y-64795625D01*
X37161968Y-64795625D01*
X37116417Y-64800252D01*
X37011784Y-64810880D01*
X36817828Y-64871662D01*
X36695740Y-64939337D01*
X36655923Y-64961408D01*
X36640056Y-64970203D01*
X36485729Y-65102477D01*
X36361152Y-65263081D01*
X36271413Y-65445455D01*
X36220178Y-65642148D01*
X36209541Y-65845126D01*
X26740000Y-65845126D01*
X26740000Y-65512705D01*
X26739532Y-65507948D01*
X26729337Y-65456697D01*
X26725715Y-65447951D01*
X26686872Y-65389819D01*
X26680181Y-65383128D01*
X26622049Y-65344285D01*
X26613303Y-65340663D01*
X26562052Y-65330468D01*
X26557295Y-65330000D01*
X26202247Y-65330000D01*
X26195355Y-65332855D01*
X26192500Y-65339747D01*
X26192500Y-66155253D01*
X25992500Y-66155253D01*
X25992500Y-65339747D01*
X25989645Y-65332855D01*
X25982753Y-65330000D01*
X25307247Y-65330000D01*
X25300355Y-65332855D01*
X25297500Y-65339747D01*
X25297500Y-66155253D01*
X25097500Y-66155253D01*
X25097500Y-65339747D01*
X25094645Y-65332855D01*
X25087753Y-65330000D01*
X24412247Y-65330000D01*
X24405355Y-65332855D01*
X24402500Y-65339747D01*
X24402500Y-66155253D01*
X24202500Y-66155253D01*
X24202500Y-65339747D01*
X24199645Y-65332855D01*
X24192753Y-65330000D01*
X23517247Y-65330000D01*
X23510355Y-65332855D01*
X23507500Y-65339747D01*
X23507500Y-66155253D01*
X23307500Y-66155253D01*
X23307500Y-65339747D01*
X23304645Y-65332855D01*
X23297753Y-65330000D01*
X22942705Y-65330000D01*
X22937948Y-65330468D01*
X22886697Y-65340663D01*
X22877951Y-65344285D01*
X22819819Y-65383128D01*
X22813128Y-65389819D01*
X22774285Y-65447951D01*
X22770663Y-65456697D01*
X22760468Y-65507948D01*
X22760000Y-65512705D01*
X22760000Y-66155253D01*
X22250500Y-66155253D01*
X22250500Y-64999000D01*
X22264852Y-64964352D01*
X22299500Y-64950000D01*
X22365253Y-64950000D01*
X22372145Y-64947145D01*
X22375000Y-64940253D01*
X22575000Y-64940253D01*
X22577855Y-64947145D01*
X22584747Y-64950000D01*
X22717295Y-64950000D01*
X22722052Y-64949532D01*
X22773303Y-64939337D01*
X22781246Y-64936047D01*
X22818754Y-64936047D01*
X22826697Y-64939337D01*
X22877948Y-64949532D01*
X22882705Y-64950000D01*
X23015253Y-64950000D01*
X23022145Y-64947145D01*
X23025000Y-64940253D01*
X23025000Y-64334747D01*
X23022145Y-64327855D01*
X23015253Y-64325000D01*
X22584747Y-64325000D01*
X22577855Y-64327855D01*
X22575000Y-64334747D01*
X22575000Y-64940253D01*
X22375000Y-64940253D01*
X22375000Y-64174000D01*
X22389352Y-64139352D01*
X22424000Y-64125000D01*
X23176000Y-64125000D01*
X23210648Y-64139352D01*
X23225000Y-64174000D01*
X23225000Y-64940253D01*
X23227855Y-64947145D01*
X23234747Y-64950000D01*
X23367295Y-64950000D01*
X23372052Y-64949532D01*
X23423306Y-64939337D01*
X23430581Y-64936323D01*
X23467959Y-64936321D01*
X23471769Y-64938867D01*
X23530252Y-64950500D01*
X24019748Y-64950500D01*
X24078231Y-64938867D01*
X24082041Y-64936321D01*
X24119419Y-64936323D01*
X24126694Y-64939337D01*
X24177948Y-64949532D01*
X24182705Y-64950000D01*
X24315253Y-64950000D01*
X24322145Y-64947145D01*
X24325000Y-64940253D01*
X24525000Y-64940253D01*
X24527855Y-64947145D01*
X24534747Y-64950000D01*
X24667295Y-64950000D01*
X24672052Y-64949532D01*
X24723303Y-64939337D01*
X24731246Y-64936047D01*
X24768754Y-64936047D01*
X24776697Y-64939337D01*
X24827948Y-64949532D01*
X24832705Y-64950000D01*
X24965253Y-64950000D01*
X24972145Y-64947145D01*
X24975000Y-64940253D01*
X25175000Y-64940253D01*
X25177855Y-64947145D01*
X25184747Y-64950000D01*
X25317295Y-64950000D01*
X25322052Y-64949532D01*
X25373303Y-64939337D01*
X25381246Y-64936047D01*
X25418754Y-64936047D01*
X25426697Y-64939337D01*
X25477948Y-64949532D01*
X25482705Y-64950000D01*
X25615253Y-64950000D01*
X25622145Y-64947145D01*
X25625000Y-64940253D01*
X25625000Y-64334747D01*
X25622145Y-64327855D01*
X25615253Y-64325000D01*
X25184747Y-64325000D01*
X25177855Y-64327855D01*
X25175000Y-64334747D01*
X25175000Y-64940253D01*
X24975000Y-64940253D01*
X24975000Y-64334747D01*
X24972145Y-64327855D01*
X24965253Y-64325000D01*
X24534747Y-64325000D01*
X24527855Y-64327855D01*
X24525000Y-64334747D01*
X24525000Y-64940253D01*
X24325000Y-64940253D01*
X24325000Y-64115253D01*
X24525000Y-64115253D01*
X24527855Y-64122145D01*
X24534747Y-64125000D01*
X24965253Y-64125000D01*
X24972145Y-64122145D01*
X24975000Y-64115253D01*
X25175000Y-64115253D01*
X25177855Y-64122145D01*
X25184747Y-64125000D01*
X25615253Y-64125000D01*
X25622145Y-64122145D01*
X25625000Y-64115253D01*
X25625000Y-63509747D01*
X25622145Y-63502855D01*
X25615253Y-63500000D01*
X25482705Y-63500000D01*
X25477948Y-63500468D01*
X25426697Y-63510663D01*
X25418754Y-63513953D01*
X25381246Y-63513953D01*
X25373303Y-63510663D01*
X25322052Y-63500468D01*
X25317295Y-63500000D01*
X25184747Y-63500000D01*
X25177855Y-63502855D01*
X25175000Y-63509747D01*
X25175000Y-64115253D01*
X24975000Y-64115253D01*
X24975000Y-63509747D01*
X24972145Y-63502855D01*
X24965253Y-63500000D01*
X24832705Y-63500000D01*
X24827948Y-63500468D01*
X24776697Y-63510663D01*
X24768754Y-63513953D01*
X24731246Y-63513953D01*
X24723303Y-63510663D01*
X24672052Y-63500468D01*
X24667295Y-63500000D01*
X24534747Y-63500000D01*
X24527855Y-63502855D01*
X24525000Y-63509747D01*
X24525000Y-64115253D01*
X24325000Y-64115253D01*
X24325000Y-63509747D01*
X24322145Y-63502855D01*
X24315253Y-63500000D01*
X24274500Y-63500000D01*
X24239852Y-63485648D01*
X24225500Y-63451000D01*
X24225500Y-63404672D01*
X24225840Y-63398913D01*
X24229933Y-63364328D01*
X24230364Y-63360689D01*
X24219604Y-63301775D01*
X24219352Y-63300256D01*
X24210994Y-63244664D01*
X24210449Y-63241038D01*
X24208863Y-63237735D01*
X24207839Y-63234407D01*
X24206683Y-63231031D01*
X24206025Y-63227427D01*
X24178425Y-63174293D01*
X24177750Y-63172942D01*
X24153395Y-63122223D01*
X24153394Y-63122221D01*
X24151809Y-63118921D01*
X24149323Y-63116232D01*
X24147264Y-63113202D01*
X24147546Y-63113010D01*
X24146709Y-63111819D01*
X24146429Y-63112008D01*
X24144866Y-63109688D01*
X24143579Y-63107211D01*
X24139275Y-63102172D01*
X24100967Y-63063864D01*
X24099633Y-63062477D01*
X24062342Y-63022135D01*
X24062340Y-63022134D01*
X24059854Y-63019444D01*
X24056687Y-63017605D01*
X24053827Y-63015313D01*
X24053857Y-63015276D01*
X24047446Y-63010343D01*
X24033990Y-62996887D01*
X24019638Y-62962239D01*
X24033990Y-62927591D01*
X24052403Y-62916007D01*
X24159485Y-62878403D01*
X24165898Y-62875007D01*
X24268846Y-62798968D01*
X24273968Y-62793846D01*
X24350007Y-62690898D01*
X24353403Y-62684485D01*
X24396032Y-62563093D01*
X24397303Y-62557302D01*
X24399892Y-62529917D01*
X24400000Y-62527615D01*
X24400000Y-62109747D01*
X24397145Y-62102855D01*
X24390253Y-62100000D01*
X23009748Y-62100000D01*
X23002856Y-62102855D01*
X23000001Y-62109747D01*
X23000001Y-62527613D01*
X23000110Y-62529918D01*
X23002697Y-62557303D01*
X23003967Y-62563092D01*
X23046520Y-62684265D01*
X23044459Y-62721711D01*
X23016523Y-62746732D01*
X23000288Y-62749500D01*
X22500242Y-62749500D01*
X22465594Y-62735148D01*
X22451242Y-62700500D01*
X22454010Y-62684265D01*
X22496529Y-62563188D01*
X22497519Y-62560369D01*
X22500500Y-62528834D01*
X22500500Y-61890253D01*
X23000000Y-61890253D01*
X23002855Y-61897145D01*
X23009747Y-61900000D01*
X23590253Y-61900000D01*
X23597145Y-61897145D01*
X23600000Y-61890253D01*
X23800000Y-61890253D01*
X23802855Y-61897145D01*
X23809747Y-61900000D01*
X24390252Y-61900000D01*
X24397144Y-61897145D01*
X24399999Y-61890253D01*
X24399999Y-61472387D01*
X24399890Y-61470082D01*
X24397303Y-61442697D01*
X24396033Y-61436908D01*
X24353403Y-61315515D01*
X24350007Y-61309102D01*
X24273968Y-61206154D01*
X24268846Y-61201032D01*
X24165898Y-61124993D01*
X24159485Y-61121597D01*
X24038093Y-61078968D01*
X24032302Y-61077697D01*
X24004917Y-61075108D01*
X24002615Y-61075000D01*
X23809747Y-61075000D01*
X23802855Y-61077855D01*
X23800000Y-61084747D01*
X23800000Y-61890253D01*
X23600000Y-61890253D01*
X23600000Y-61084748D01*
X23597145Y-61077856D01*
X23590253Y-61075001D01*
X23397387Y-61075001D01*
X23395082Y-61075110D01*
X23367697Y-61077697D01*
X23361908Y-61078967D01*
X23240515Y-61121597D01*
X23234102Y-61124993D01*
X23131154Y-61201032D01*
X23126032Y-61206154D01*
X23049993Y-61309102D01*
X23046597Y-61315515D01*
X23003968Y-61436907D01*
X23002697Y-61442698D01*
X23000108Y-61470083D01*
X23000000Y-61472385D01*
X23000000Y-61890253D01*
X22500500Y-61890253D01*
X22500500Y-61471166D01*
X22497519Y-61439631D01*
X22452634Y-61311816D01*
X22372150Y-61202850D01*
X22270388Y-61127687D01*
X22251045Y-61095558D01*
X22250500Y-61088273D01*
X22250500Y-60876630D01*
X24594500Y-60876630D01*
X24599998Y-60923846D01*
X24610450Y-60968120D01*
X24626647Y-61012806D01*
X25840628Y-63440768D01*
X25843286Y-63478176D01*
X25833906Y-63488246D01*
X25825000Y-63509747D01*
X25825000Y-64940253D01*
X25827855Y-64947145D01*
X25834747Y-64950000D01*
X25967295Y-64950000D01*
X25972052Y-64949532D01*
X26023306Y-64939337D01*
X26025505Y-64938426D01*
X26027885Y-64938426D01*
X26028036Y-64938396D01*
X26028042Y-64938426D01*
X26063008Y-64938426D01*
X26069389Y-64941632D01*
X26127807Y-64976536D01*
X26130422Y-64977386D01*
X26130425Y-64977387D01*
X26158001Y-64986346D01*
X26185998Y-64995443D01*
X26249500Y-65005500D01*
X27201000Y-65005500D01*
X27233144Y-65002970D01*
X27263737Y-64998125D01*
X27352383Y-64961408D01*
X27379602Y-64941632D01*
X27401003Y-64926084D01*
X27401012Y-64926077D01*
X27401883Y-64925444D01*
X27412980Y-64915749D01*
X27426723Y-64903741D01*
X27429628Y-64901203D01*
X27476536Y-64822693D01*
X27480661Y-64809999D01*
X27486346Y-64792499D01*
X27495443Y-64764502D01*
X27505500Y-64701000D01*
X27505500Y-64412613D01*
X29041001Y-64412613D01*
X29041110Y-64414918D01*
X29043697Y-64442303D01*
X29044967Y-64448092D01*
X29087597Y-64569485D01*
X29090993Y-64575898D01*
X29167032Y-64678846D01*
X29172154Y-64683968D01*
X29275102Y-64760007D01*
X29281515Y-64763403D01*
X29402907Y-64806032D01*
X29408698Y-64807303D01*
X29436083Y-64809892D01*
X29438385Y-64810000D01*
X30406253Y-64810000D01*
X30413145Y-64807145D01*
X30416000Y-64800253D01*
X30416000Y-64800252D01*
X30616000Y-64800252D01*
X30618855Y-64807144D01*
X30625747Y-64809999D01*
X31593613Y-64809999D01*
X31595918Y-64809890D01*
X31623303Y-64807303D01*
X31629092Y-64806033D01*
X31750485Y-64763403D01*
X31756898Y-64760007D01*
X31859846Y-64683968D01*
X31864968Y-64678846D01*
X31941007Y-64575898D01*
X31944403Y-64569485D01*
X31987032Y-64448093D01*
X31988303Y-64442302D01*
X31990892Y-64414917D01*
X31991000Y-64412615D01*
X31991000Y-63682247D01*
X31988145Y-63675355D01*
X31981253Y-63672500D01*
X30625747Y-63672500D01*
X30618855Y-63675355D01*
X30616000Y-63682247D01*
X30616000Y-64800252D01*
X30416000Y-64800252D01*
X30416000Y-63682247D01*
X30413145Y-63675355D01*
X30406253Y-63672500D01*
X29050748Y-63672500D01*
X29043856Y-63675355D01*
X29041001Y-63682247D01*
X29041001Y-64412613D01*
X27505500Y-64412613D01*
X27505500Y-63613636D01*
X27521790Y-63577152D01*
X27546705Y-63554815D01*
X27649390Y-63462753D01*
X29041000Y-63462753D01*
X29043855Y-63469645D01*
X29050747Y-63472500D01*
X30406253Y-63472500D01*
X30413145Y-63469645D01*
X30416000Y-63462753D01*
X30616000Y-63462753D01*
X30618855Y-63469645D01*
X30625747Y-63472500D01*
X31981252Y-63472500D01*
X31988144Y-63469645D01*
X31990999Y-63462753D01*
X31990999Y-63315748D01*
X34763500Y-63315748D01*
X34775133Y-63374231D01*
X34819448Y-63440552D01*
X34885769Y-63484867D01*
X34944252Y-63496500D01*
X36483748Y-63496500D01*
X36542231Y-63484867D01*
X36608552Y-63440552D01*
X36652867Y-63374231D01*
X36664500Y-63315748D01*
X36664500Y-61276252D01*
X36652867Y-61217769D01*
X36608552Y-61151448D01*
X36542231Y-61107133D01*
X36483748Y-61095500D01*
X34944252Y-61095500D01*
X34885769Y-61107133D01*
X34819448Y-61151448D01*
X34775133Y-61217769D01*
X34763500Y-61276252D01*
X34763500Y-63315748D01*
X31990999Y-63315748D01*
X31990999Y-62732387D01*
X31990890Y-62730082D01*
X31988303Y-62702697D01*
X31987033Y-62696908D01*
X31944403Y-62575515D01*
X31941007Y-62569102D01*
X31864968Y-62466154D01*
X31859846Y-62461032D01*
X31756898Y-62384993D01*
X31750485Y-62381597D01*
X31629093Y-62338968D01*
X31623302Y-62337697D01*
X31595917Y-62335108D01*
X31593615Y-62335000D01*
X30625747Y-62335000D01*
X30618855Y-62337855D01*
X30616000Y-62344747D01*
X30616000Y-63462753D01*
X30416000Y-63462753D01*
X30416000Y-62344748D01*
X30413145Y-62337856D01*
X30406253Y-62335001D01*
X29438387Y-62335001D01*
X29436082Y-62335110D01*
X29408697Y-62337697D01*
X29402908Y-62338967D01*
X29281515Y-62381597D01*
X29275102Y-62384993D01*
X29172154Y-62461032D01*
X29167032Y-62466154D01*
X29090993Y-62569102D01*
X29087597Y-62575515D01*
X29044968Y-62696907D01*
X29043697Y-62702698D01*
X29041108Y-62730083D01*
X29041000Y-62732385D01*
X29041000Y-63462753D01*
X27649390Y-63462753D01*
X30331856Y-61057783D01*
X30333956Y-61056004D01*
X31290586Y-60290700D01*
X31291220Y-60290193D01*
X31311487Y-60271624D01*
X31329735Y-60252509D01*
X31376536Y-60174111D01*
X31395443Y-60115920D01*
X31405500Y-60052418D01*
X31405500Y-57857992D01*
X45080443Y-57857992D01*
X45088390Y-57945312D01*
X45089285Y-57950004D01*
X45146069Y-58142941D01*
X45147856Y-58147363D01*
X45241035Y-58325598D01*
X45243646Y-58329590D01*
X45369673Y-58486336D01*
X45373008Y-58489741D01*
X45527078Y-58619021D01*
X45531015Y-58621717D01*
X45707263Y-58718610D01*
X45711641Y-58720486D01*
X45903355Y-58781301D01*
X45908010Y-58782291D01*
X46064530Y-58799848D01*
X46067260Y-58800000D01*
X46165253Y-58800000D01*
X46172145Y-58797145D01*
X46175000Y-58790253D01*
X46175000Y-57859747D01*
X46172145Y-57852855D01*
X46165253Y-57850000D01*
X45089463Y-57850000D01*
X45082571Y-57852855D01*
X45080443Y-57857992D01*
X31405500Y-57857992D01*
X31405500Y-57640308D01*
X45080700Y-57640308D01*
X45082818Y-57647459D01*
X45087497Y-57650000D01*
X46165253Y-57650000D01*
X46172145Y-57647145D01*
X46175000Y-57640253D01*
X46175000Y-56709747D01*
X46172145Y-56702855D01*
X46165253Y-56700000D01*
X46074369Y-56700000D01*
X46071995Y-56700116D01*
X45922448Y-56714779D01*
X45917779Y-56715704D01*
X45725233Y-56773837D01*
X45720821Y-56775656D01*
X45543245Y-56870075D01*
X45539268Y-56872717D01*
X45383414Y-56999828D01*
X45380026Y-57003192D01*
X45251825Y-57158160D01*
X45249158Y-57162114D01*
X45153499Y-57339034D01*
X45151653Y-57343425D01*
X45092176Y-57535563D01*
X45091219Y-57540225D01*
X45080700Y-57640308D01*
X31405500Y-57640308D01*
X31405500Y-55199000D01*
X31402970Y-55166856D01*
X31398125Y-55136263D01*
X31361408Y-55047617D01*
X31348117Y-55029323D01*
X31326084Y-54998997D01*
X31326077Y-54998988D01*
X31325444Y-54998117D01*
X31301203Y-54970372D01*
X31222693Y-54923464D01*
X31220078Y-54922614D01*
X31220075Y-54922613D01*
X31192499Y-54913654D01*
X31164502Y-54904557D01*
X31101000Y-54894500D01*
X24899000Y-54894500D01*
X24866856Y-54897030D01*
X24836263Y-54901875D01*
X24747617Y-54938592D01*
X24745279Y-54940291D01*
X24698997Y-54973916D01*
X24698988Y-54973923D01*
X24698117Y-54974556D01*
X24670372Y-54998797D01*
X24623464Y-55077307D01*
X24604557Y-55135498D01*
X24594500Y-55199000D01*
X24594500Y-60876630D01*
X22250500Y-60876630D01*
X22250500Y-50794440D01*
X44344901Y-50794440D01*
X44361633Y-50922394D01*
X44413605Y-51040510D01*
X44415851Y-51043182D01*
X44415853Y-51043185D01*
X44486032Y-51126673D01*
X44496639Y-51139291D01*
X44604060Y-51210796D01*
X44607386Y-51211835D01*
X44607388Y-51211836D01*
X44626158Y-51217700D01*
X44727233Y-51249278D01*
X44730723Y-51249342D01*
X44756920Y-51249822D01*
X44856255Y-51251643D01*
X44980755Y-51217700D01*
X44983726Y-51215876D01*
X44983728Y-51215875D01*
X45037362Y-51182943D01*
X45074398Y-51177044D01*
X45104758Y-51199061D01*
X45112001Y-51224700D01*
X45112001Y-51309332D01*
X45114940Y-51340434D01*
X45115928Y-51343247D01*
X45115929Y-51343252D01*
X45157986Y-51463014D01*
X45159202Y-51466476D01*
X45238570Y-51573930D01*
X45346024Y-51653298D01*
X45349485Y-51654513D01*
X45349486Y-51654514D01*
X45447762Y-51689025D01*
X45472066Y-51697560D01*
X45475038Y-51697841D01*
X45502021Y-51700392D01*
X45502028Y-51700392D01*
X45503167Y-51700500D01*
X45799871Y-51700500D01*
X46096832Y-51700499D01*
X46116103Y-51698678D01*
X46124963Y-51697841D01*
X46124965Y-51697841D01*
X46127934Y-51697560D01*
X46130747Y-51696572D01*
X46130752Y-51696571D01*
X46250514Y-51654514D01*
X46250515Y-51654513D01*
X46253976Y-51653298D01*
X46361430Y-51573930D01*
X46440798Y-51466476D01*
X46485060Y-51340434D01*
X46488000Y-51309333D01*
X46487999Y-50290668D01*
X46485060Y-50259566D01*
X46484072Y-50256753D01*
X46484071Y-50256748D01*
X46442014Y-50136986D01*
X46442013Y-50136985D01*
X46440798Y-50133524D01*
X46361430Y-50026070D01*
X46253976Y-49946702D01*
X46250515Y-49945487D01*
X46250514Y-49945486D01*
X46130753Y-49903430D01*
X46127934Y-49902440D01*
X46124962Y-49902159D01*
X46097979Y-49899608D01*
X46097972Y-49899608D01*
X46096833Y-49899500D01*
X45800129Y-49899500D01*
X45503168Y-49899501D01*
X45483897Y-49901322D01*
X45475037Y-49902159D01*
X45475035Y-49902159D01*
X45472066Y-49902440D01*
X45469253Y-49903428D01*
X45469248Y-49903429D01*
X45349486Y-49945486D01*
X45349485Y-49945487D01*
X45346024Y-49946702D01*
X45238570Y-50026070D01*
X45159202Y-50133524D01*
X45114940Y-50259566D01*
X45112000Y-50290667D01*
X45112000Y-50375177D01*
X45097648Y-50409825D01*
X45063000Y-50424177D01*
X45036349Y-50416295D01*
X44993837Y-50388740D01*
X44993833Y-50388738D01*
X44990906Y-50386841D01*
X44987562Y-50385841D01*
X44987560Y-50385840D01*
X44870623Y-50350868D01*
X44870624Y-50350868D01*
X44867273Y-50349866D01*
X44801073Y-50349462D01*
X44741723Y-50349099D01*
X44741721Y-50349099D01*
X44738231Y-50349078D01*
X44734876Y-50350037D01*
X44734875Y-50350037D01*
X44646912Y-50375177D01*
X44614155Y-50384539D01*
X44505019Y-50453399D01*
X44419596Y-50550122D01*
X44364754Y-50666932D01*
X44344901Y-50794440D01*
X22250500Y-50794440D01*
X22250500Y-48806899D01*
X22264852Y-48772251D01*
X23022251Y-48014852D01*
X23056899Y-48000500D01*
X24545500Y-48000500D01*
X24580148Y-48014852D01*
X24594500Y-48049500D01*
X24594500Y-49851000D01*
X24594971Y-49853366D01*
X24609672Y-49927278D01*
X24609674Y-49927283D01*
X24610143Y-49929643D01*
X24624495Y-49964291D01*
X24661121Y-50022581D01*
X24735709Y-50075505D01*
X24770357Y-50089857D01*
X24772717Y-50090326D01*
X24772722Y-50090328D01*
X24817420Y-50099218D01*
X24849000Y-50105500D01*
X31151000Y-50105500D01*
X31182580Y-50099218D01*
X31227278Y-50090328D01*
X31227283Y-50090326D01*
X31229643Y-50089857D01*
X31264291Y-50075505D01*
X31322581Y-50038879D01*
X31332164Y-50025374D01*
X31373911Y-49966537D01*
X31375505Y-49964291D01*
X31389857Y-49929643D01*
X31390326Y-49927283D01*
X31390328Y-49927278D01*
X31405029Y-49853366D01*
X31405500Y-49851000D01*
X31405500Y-48694440D01*
X44344901Y-48694440D01*
X44361633Y-48822394D01*
X44413605Y-48940510D01*
X44415851Y-48943182D01*
X44415853Y-48943185D01*
X44486033Y-49026674D01*
X44496639Y-49039291D01*
X44604060Y-49110796D01*
X44607386Y-49111835D01*
X44607388Y-49111836D01*
X44626158Y-49117700D01*
X44727233Y-49149278D01*
X44730723Y-49149342D01*
X44756920Y-49149822D01*
X44856255Y-49151643D01*
X44980755Y-49117700D01*
X44983726Y-49115876D01*
X44983728Y-49115875D01*
X45037361Y-49082944D01*
X45074397Y-49077045D01*
X45104757Y-49099062D01*
X45112000Y-49124701D01*
X45112000Y-49203834D01*
X45114981Y-49235369D01*
X45159866Y-49363184D01*
X45240350Y-49472150D01*
X45349316Y-49552634D01*
X45352777Y-49553849D01*
X45352778Y-49553850D01*
X45441735Y-49585089D01*
X45477131Y-49597519D01*
X45480103Y-49597800D01*
X45507520Y-49600392D01*
X45507527Y-49600392D01*
X45508666Y-49600500D01*
X46141334Y-49600500D01*
X46142473Y-49600392D01*
X46142480Y-49600392D01*
X46169897Y-49597800D01*
X46172869Y-49597519D01*
X46208265Y-49585089D01*
X46297222Y-49553850D01*
X46297223Y-49553849D01*
X46300684Y-49552634D01*
X46409650Y-49472150D01*
X46490134Y-49363184D01*
X46535019Y-49235369D01*
X46538000Y-49203834D01*
X46937000Y-49203834D01*
X46939981Y-49235369D01*
X46984866Y-49363184D01*
X47065350Y-49472150D01*
X47174316Y-49552634D01*
X47177777Y-49553849D01*
X47177778Y-49553850D01*
X47266735Y-49585089D01*
X47302131Y-49597519D01*
X47305107Y-49597800D01*
X47305110Y-49597801D01*
X47305116Y-49597802D01*
X47305119Y-49597803D01*
X47308024Y-49598441D01*
X47307847Y-49599248D01*
X47338258Y-49615354D01*
X47349500Y-49646584D01*
X47349500Y-49866859D01*
X47335148Y-49901507D01*
X47316735Y-49913091D01*
X47224486Y-49945486D01*
X47224485Y-49945487D01*
X47221024Y-49946702D01*
X47113570Y-50026070D01*
X47034202Y-50133524D01*
X46989940Y-50259566D01*
X46987000Y-50290667D01*
X46987001Y-51309332D01*
X46989940Y-51340434D01*
X46990928Y-51343247D01*
X46990929Y-51343252D01*
X47032986Y-51463014D01*
X47034202Y-51466476D01*
X47113570Y-51573930D01*
X47221024Y-51653298D01*
X47224485Y-51654513D01*
X47224486Y-51654514D01*
X47322762Y-51689025D01*
X47347066Y-51697560D01*
X47350038Y-51697841D01*
X47377021Y-51700392D01*
X47377028Y-51700392D01*
X47378167Y-51700500D01*
X47674871Y-51700500D01*
X47971832Y-51700499D01*
X47991103Y-51698678D01*
X47999963Y-51697841D01*
X47999965Y-51697841D01*
X48002934Y-51697560D01*
X48005747Y-51696572D01*
X48005752Y-51696571D01*
X48125514Y-51654514D01*
X48125515Y-51654513D01*
X48128976Y-51653298D01*
X48236430Y-51573930D01*
X48315798Y-51466476D01*
X48360060Y-51340434D01*
X48363000Y-51309333D01*
X48362999Y-50290668D01*
X48360060Y-50259566D01*
X48359072Y-50256753D01*
X48359071Y-50256748D01*
X48317014Y-50136986D01*
X48317013Y-50136985D01*
X48315798Y-50133524D01*
X48236430Y-50026070D01*
X48128976Y-49946702D01*
X48125515Y-49945487D01*
X48125514Y-49945486D01*
X48033265Y-49913091D01*
X48005329Y-49888070D01*
X48000500Y-49866859D01*
X48000500Y-49631321D01*
X48014852Y-49596673D01*
X48033265Y-49585089D01*
X48122222Y-49553850D01*
X48122223Y-49553849D01*
X48125684Y-49552634D01*
X48234650Y-49472150D01*
X48315134Y-49363184D01*
X48360019Y-49235369D01*
X48363000Y-49203834D01*
X48363000Y-48196166D01*
X48360019Y-48164631D01*
X48315134Y-48036816D01*
X48234650Y-47927850D01*
X48125684Y-47847366D01*
X48122223Y-47846151D01*
X48122222Y-47846150D01*
X48000688Y-47803471D01*
X47997869Y-47802481D01*
X47994897Y-47802200D01*
X47967480Y-47799608D01*
X47967473Y-47799608D01*
X47966334Y-47799500D01*
X47333666Y-47799500D01*
X47332527Y-47799608D01*
X47332520Y-47799608D01*
X47305103Y-47802200D01*
X47302131Y-47802481D01*
X47299312Y-47803471D01*
X47177778Y-47846150D01*
X47177777Y-47846151D01*
X47174316Y-47847366D01*
X47065350Y-47927850D01*
X46984866Y-48036816D01*
X46939981Y-48164631D01*
X46937000Y-48196166D01*
X46937000Y-49203834D01*
X46538000Y-49203834D01*
X46538000Y-48196166D01*
X46535019Y-48164631D01*
X46490134Y-48036816D01*
X46409650Y-47927850D01*
X46300684Y-47847366D01*
X46297223Y-47846151D01*
X46297222Y-47846150D01*
X46175688Y-47803471D01*
X46172869Y-47802481D01*
X46169897Y-47802200D01*
X46142480Y-47799608D01*
X46142473Y-47799608D01*
X46141334Y-47799500D01*
X45508666Y-47799500D01*
X45507527Y-47799608D01*
X45507520Y-47799608D01*
X45480103Y-47802200D01*
X45477131Y-47802481D01*
X45474312Y-47803471D01*
X45352778Y-47846150D01*
X45352777Y-47846151D01*
X45349316Y-47847366D01*
X45240350Y-47927850D01*
X45159866Y-48036816D01*
X45114981Y-48164631D01*
X45112000Y-48196166D01*
X45112000Y-48275177D01*
X45097648Y-48309825D01*
X45063000Y-48324177D01*
X45036349Y-48316295D01*
X44993837Y-48288740D01*
X44993833Y-48288738D01*
X44990906Y-48286841D01*
X44987562Y-48285841D01*
X44987560Y-48285840D01*
X44870623Y-48250868D01*
X44870624Y-48250868D01*
X44867273Y-48249866D01*
X44801073Y-48249462D01*
X44741723Y-48249099D01*
X44741721Y-48249099D01*
X44738231Y-48249078D01*
X44734876Y-48250037D01*
X44734875Y-48250037D01*
X44698399Y-48260462D01*
X44614155Y-48284539D01*
X44505019Y-48353399D01*
X44419596Y-48450122D01*
X44364754Y-48566932D01*
X44364217Y-48570379D01*
X44364217Y-48570380D01*
X44350703Y-48657179D01*
X44344901Y-48694440D01*
X31405500Y-48694440D01*
X31405500Y-46154500D01*
X31419852Y-46119852D01*
X31454500Y-46105500D01*
X42851000Y-46105500D01*
X42882580Y-46099218D01*
X42927278Y-46090328D01*
X42927283Y-46090326D01*
X42929643Y-46089857D01*
X42964291Y-46075505D01*
X43022581Y-46038879D01*
X43075505Y-45964291D01*
X43089857Y-45929643D01*
X43090326Y-45927283D01*
X43090328Y-45927278D01*
X43105029Y-45853366D01*
X43105500Y-45851000D01*
X43105500Y-45107775D01*
X45981876Y-45107775D01*
X45988432Y-45170152D01*
X45989601Y-45175469D01*
X46045675Y-45340184D01*
X46047994Y-45345114D01*
X46139167Y-45493313D01*
X46142518Y-45497603D01*
X46264261Y-45621922D01*
X46268478Y-45625361D01*
X46414743Y-45719623D01*
X46419611Y-45722039D01*
X46583121Y-45781552D01*
X46588413Y-45782832D01*
X46722792Y-45799808D01*
X46725839Y-45800000D01*
X46940253Y-45800000D01*
X46947145Y-45797145D01*
X46950000Y-45790253D01*
X47150000Y-45790253D01*
X47152855Y-45797145D01*
X47159747Y-45800000D01*
X47368758Y-45800000D01*
X47371488Y-45799848D01*
X47500636Y-45785362D01*
X47505952Y-45784154D01*
X47670270Y-45726931D01*
X47675179Y-45724580D01*
X47822737Y-45632375D01*
X47827007Y-45628991D01*
X47950468Y-45506388D01*
X47953884Y-45502140D01*
X48047118Y-45355228D01*
X48049504Y-45350336D01*
X48107872Y-45186418D01*
X48109116Y-45181114D01*
X48117634Y-45109679D01*
X48115615Y-45102498D01*
X48111165Y-45100000D01*
X47159747Y-45100000D01*
X47152855Y-45102855D01*
X47150000Y-45109747D01*
X47150000Y-45790253D01*
X46950000Y-45790253D01*
X46950000Y-45109747D01*
X46947145Y-45102855D01*
X46940253Y-45100000D01*
X45990806Y-45100000D01*
X45983914Y-45102855D01*
X45981876Y-45107775D01*
X43105500Y-45107775D01*
X43105500Y-44890321D01*
X45982366Y-44890321D01*
X45984385Y-44897502D01*
X45988835Y-44900000D01*
X46940253Y-44900000D01*
X46947145Y-44897145D01*
X46950000Y-44890253D01*
X47150000Y-44890253D01*
X47152855Y-44897145D01*
X47159747Y-44900000D01*
X48109194Y-44900000D01*
X48116086Y-44897145D01*
X48118124Y-44892225D01*
X48111568Y-44829848D01*
X48110399Y-44824531D01*
X48054325Y-44659816D01*
X48052006Y-44654886D01*
X47960833Y-44506687D01*
X47957482Y-44502397D01*
X47835739Y-44378078D01*
X47831522Y-44374639D01*
X47685257Y-44280377D01*
X47680389Y-44277961D01*
X47516879Y-44218448D01*
X47511587Y-44217168D01*
X47377208Y-44200192D01*
X47374161Y-44200000D01*
X47159747Y-44200000D01*
X47152855Y-44202855D01*
X47150000Y-44209747D01*
X47150000Y-44890253D01*
X46950000Y-44890253D01*
X46950000Y-44209747D01*
X46947145Y-44202855D01*
X46940253Y-44200000D01*
X46731242Y-44200000D01*
X46728512Y-44200152D01*
X46599364Y-44214638D01*
X46594048Y-44215846D01*
X46429730Y-44273069D01*
X46424821Y-44275420D01*
X46277263Y-44367625D01*
X46272993Y-44371009D01*
X46149532Y-44493612D01*
X46146116Y-44497860D01*
X46052882Y-44644772D01*
X46050496Y-44649664D01*
X45992128Y-44813582D01*
X45990884Y-44818886D01*
X45982366Y-44890321D01*
X43105500Y-44890321D01*
X43105500Y-43398786D01*
X43119852Y-43364138D01*
X43155397Y-43349794D01*
X43256255Y-43351643D01*
X43380755Y-43317700D01*
X43383726Y-43315876D01*
X43383728Y-43315875D01*
X43487751Y-43252005D01*
X43487754Y-43252003D01*
X43490724Y-43250179D01*
X43498474Y-43241616D01*
X43534801Y-43225500D01*
X45925500Y-43225500D01*
X45960148Y-43239852D01*
X45974500Y-43274500D01*
X45974500Y-43403834D01*
X45977481Y-43435369D01*
X46022366Y-43563184D01*
X46102850Y-43672150D01*
X46211816Y-43752634D01*
X46215277Y-43753849D01*
X46215278Y-43753850D01*
X46317098Y-43789606D01*
X46339631Y-43797519D01*
X46342603Y-43797800D01*
X46370020Y-43800392D01*
X46370027Y-43800392D01*
X46371166Y-43800500D01*
X47728834Y-43800500D01*
X47729973Y-43800392D01*
X47729980Y-43800392D01*
X47757397Y-43797800D01*
X47760369Y-43797519D01*
X47782902Y-43789606D01*
X47884722Y-43753850D01*
X47884723Y-43753849D01*
X47888184Y-43752634D01*
X47997150Y-43672150D01*
X48077634Y-43563184D01*
X48122519Y-43435369D01*
X48125500Y-43403834D01*
X48125500Y-42596166D01*
X48122996Y-42569671D01*
X48122800Y-42567603D01*
X48122519Y-42564631D01*
X48082841Y-42451643D01*
X48078850Y-42440278D01*
X48078849Y-42440276D01*
X48077634Y-42436816D01*
X47997150Y-42327850D01*
X47888184Y-42247366D01*
X47884723Y-42246151D01*
X47884722Y-42246150D01*
X47763188Y-42203471D01*
X47760369Y-42202481D01*
X47757397Y-42202200D01*
X47729980Y-42199608D01*
X47729973Y-42199608D01*
X47728834Y-42199500D01*
X46371166Y-42199500D01*
X46370027Y-42199608D01*
X46370020Y-42199608D01*
X46342603Y-42202200D01*
X46339631Y-42202481D01*
X46336812Y-42203471D01*
X46215278Y-42246150D01*
X46215277Y-42246151D01*
X46211816Y-42247366D01*
X46102850Y-42327850D01*
X46022366Y-42436816D01*
X46017481Y-42450726D01*
X45985521Y-42541736D01*
X45960500Y-42569671D01*
X45939289Y-42574500D01*
X43536708Y-42574500D01*
X43505604Y-42560249D01*
X43504104Y-42561969D01*
X43501473Y-42559674D01*
X43499193Y-42557028D01*
X43460776Y-42532128D01*
X43393837Y-42488740D01*
X43393833Y-42488738D01*
X43390906Y-42486841D01*
X43387562Y-42485841D01*
X43387560Y-42485840D01*
X43295918Y-42458433D01*
X43267273Y-42449866D01*
X43154200Y-42449176D01*
X43119641Y-42434613D01*
X43105500Y-42400177D01*
X43105500Y-41198786D01*
X43119852Y-41164138D01*
X43155397Y-41149794D01*
X43256255Y-41151643D01*
X43380755Y-41117700D01*
X43383726Y-41115876D01*
X43383728Y-41115875D01*
X43487750Y-41052005D01*
X43490724Y-41050179D01*
X43577322Y-40954507D01*
X43619752Y-40866932D01*
X43632065Y-40841519D01*
X43632066Y-40841517D01*
X43633588Y-40838375D01*
X43634277Y-40834285D01*
X43648390Y-40750392D01*
X43654997Y-40711120D01*
X43655133Y-40700000D01*
X43636839Y-40572259D01*
X43583428Y-40454788D01*
X43575434Y-40445510D01*
X43537379Y-40401345D01*
X43525500Y-40369360D01*
X43525500Y-37607775D01*
X45981876Y-37607775D01*
X45988432Y-37670152D01*
X45989601Y-37675469D01*
X46045675Y-37840184D01*
X46047994Y-37845114D01*
X46139167Y-37993313D01*
X46142518Y-37997603D01*
X46264261Y-38121922D01*
X46268478Y-38125361D01*
X46414743Y-38219623D01*
X46419611Y-38222039D01*
X46583121Y-38281552D01*
X46588413Y-38282832D01*
X46722792Y-38299808D01*
X46725839Y-38300000D01*
X46940253Y-38300000D01*
X46947145Y-38297145D01*
X46950000Y-38290253D01*
X47150000Y-38290253D01*
X47152855Y-38297145D01*
X47159747Y-38300000D01*
X47368758Y-38300000D01*
X47371488Y-38299848D01*
X47500636Y-38285362D01*
X47505952Y-38284154D01*
X47670270Y-38226931D01*
X47675179Y-38224580D01*
X47822737Y-38132375D01*
X47827007Y-38128991D01*
X47950468Y-38006388D01*
X47953884Y-38002140D01*
X48047118Y-37855228D01*
X48049504Y-37850336D01*
X48107872Y-37686418D01*
X48109116Y-37681114D01*
X48117634Y-37609679D01*
X48115615Y-37602498D01*
X48111165Y-37600000D01*
X47159747Y-37600000D01*
X47152855Y-37602855D01*
X47150000Y-37609747D01*
X47150000Y-38290253D01*
X46950000Y-38290253D01*
X46950000Y-37609747D01*
X46947145Y-37602855D01*
X46940253Y-37600000D01*
X45990806Y-37600000D01*
X45983914Y-37602855D01*
X45981876Y-37607775D01*
X43525500Y-37607775D01*
X43525500Y-37390321D01*
X45982366Y-37390321D01*
X45984385Y-37397502D01*
X45988835Y-37400000D01*
X46940253Y-37400000D01*
X46947145Y-37397145D01*
X46950000Y-37390253D01*
X47150000Y-37390253D01*
X47152855Y-37397145D01*
X47159747Y-37400000D01*
X48109194Y-37400000D01*
X48116086Y-37397145D01*
X48118124Y-37392225D01*
X48111568Y-37329848D01*
X48110399Y-37324531D01*
X48054325Y-37159816D01*
X48052006Y-37154886D01*
X47960833Y-37006687D01*
X47957482Y-37002397D01*
X47835739Y-36878078D01*
X47831522Y-36874639D01*
X47685257Y-36780377D01*
X47680389Y-36777961D01*
X47516879Y-36718448D01*
X47511587Y-36717168D01*
X47377208Y-36700192D01*
X47374161Y-36700000D01*
X47159747Y-36700000D01*
X47152855Y-36702855D01*
X47150000Y-36709747D01*
X47150000Y-37390253D01*
X46950000Y-37390253D01*
X46950000Y-36709747D01*
X46947145Y-36702855D01*
X46940253Y-36700000D01*
X46731242Y-36700000D01*
X46728512Y-36700152D01*
X46599364Y-36714638D01*
X46594048Y-36715846D01*
X46429730Y-36773069D01*
X46424821Y-36775420D01*
X46277263Y-36867625D01*
X46272993Y-36871009D01*
X46149532Y-36993612D01*
X46146116Y-36997860D01*
X46052882Y-37144772D01*
X46050496Y-37149664D01*
X45992128Y-37313582D01*
X45990884Y-37318886D01*
X45982366Y-37390321D01*
X43525500Y-37390321D01*
X43525500Y-36542385D01*
X43537877Y-36509831D01*
X43724084Y-36300348D01*
X44131553Y-35841946D01*
X44168175Y-35825500D01*
X46007956Y-35825500D01*
X46042604Y-35839852D01*
X46049691Y-35848825D01*
X46138629Y-35993391D01*
X46140206Y-35995955D01*
X46142121Y-35997911D01*
X46142123Y-35997913D01*
X46263941Y-36122310D01*
X46263944Y-36122312D01*
X46265859Y-36124268D01*
X46416817Y-36221554D01*
X46499310Y-36251579D01*
X46583003Y-36282041D01*
X46583005Y-36282041D01*
X46585578Y-36282978D01*
X46724283Y-36300500D01*
X47370155Y-36300500D01*
X47371506Y-36300348D01*
X47371514Y-36300348D01*
X47500754Y-36285851D01*
X47500755Y-36285851D01*
X47503472Y-36285546D01*
X47600829Y-36251643D01*
X47670484Y-36227387D01*
X47670487Y-36227385D01*
X47673073Y-36226485D01*
X47678542Y-36223068D01*
X47823050Y-36132769D01*
X47823051Y-36132768D01*
X47825375Y-36131316D01*
X47832473Y-36124268D01*
X47909499Y-36047777D01*
X47952807Y-36004770D01*
X48003055Y-35925592D01*
X48047570Y-35855448D01*
X48047571Y-35855446D01*
X48049037Y-35853136D01*
X48050050Y-35850293D01*
X48108362Y-35686532D01*
X48109281Y-35683951D01*
X48111311Y-35666932D01*
X48124069Y-35559935D01*
X48130545Y-35505624D01*
X48129982Y-35500260D01*
X48114092Y-35349078D01*
X48111773Y-35327017D01*
X48053897Y-35157007D01*
X47978819Y-35034970D01*
X47961229Y-35006377D01*
X47961227Y-35006375D01*
X47959794Y-35004045D01*
X47953429Y-34997545D01*
X47836059Y-34877690D01*
X47836056Y-34877688D01*
X47834141Y-34875732D01*
X47829471Y-34872722D01*
X47685481Y-34779927D01*
X47683183Y-34778446D01*
X47606526Y-34750545D01*
X47578876Y-34725208D01*
X47577240Y-34687741D01*
X47602577Y-34660091D01*
X47623285Y-34655500D01*
X48201000Y-34655500D01*
X48232580Y-34649218D01*
X48277278Y-34640328D01*
X48277283Y-34640326D01*
X48279643Y-34639857D01*
X48314291Y-34625505D01*
X48372581Y-34588879D01*
X48425505Y-34514291D01*
X48439857Y-34479643D01*
X48440326Y-34477283D01*
X48440328Y-34477278D01*
X48455029Y-34403366D01*
X48455500Y-34401000D01*
X48455500Y-32599000D01*
X48449218Y-32567420D01*
X48440328Y-32522722D01*
X48440326Y-32522717D01*
X48439857Y-32520357D01*
X48425505Y-32485709D01*
X48388879Y-32427419D01*
X48314291Y-32374495D01*
X48279643Y-32360143D01*
X48277283Y-32359674D01*
X48277278Y-32359672D01*
X48232580Y-32350782D01*
X48201000Y-32344500D01*
X43721676Y-32344500D01*
X43638540Y-32362067D01*
X43636207Y-32363099D01*
X43636204Y-32363100D01*
X43604620Y-32377072D01*
X43602283Y-32378106D01*
X43600212Y-32379600D01*
X43600211Y-32379600D01*
X43537770Y-32424626D01*
X43533361Y-32427805D01*
X42310179Y-33773306D01*
X42123674Y-33978461D01*
X42087417Y-33994500D01*
X39211567Y-33994500D01*
X39210153Y-33994665D01*
X39210147Y-33994665D01*
X39186183Y-33997455D01*
X39164352Y-33999997D01*
X39162977Y-34000322D01*
X39162969Y-34000323D01*
X39153395Y-34002584D01*
X39142439Y-34005170D01*
X39097752Y-34021368D01*
X37761834Y-34689327D01*
X37739921Y-34694500D01*
X35849000Y-34694500D01*
X35817420Y-34700782D01*
X35772722Y-34709672D01*
X35772717Y-34709674D01*
X35770357Y-34710143D01*
X35735709Y-34724495D01*
X35677419Y-34761121D01*
X35674627Y-34765056D01*
X35674626Y-34765057D01*
X35665789Y-34777511D01*
X35624495Y-34835709D01*
X35610143Y-34870357D01*
X35609674Y-34872717D01*
X35609672Y-34872722D01*
X35603981Y-34901335D01*
X35594500Y-34949000D01*
X35594500Y-34995501D01*
X35580148Y-35030149D01*
X35545500Y-35044501D01*
X35349500Y-35044501D01*
X35314852Y-35030149D01*
X35300500Y-34995501D01*
X35300500Y-34959346D01*
X35285385Y-34883358D01*
X35282704Y-34879346D01*
X35282703Y-34879343D01*
X35230493Y-34801205D01*
X35230492Y-34801204D01*
X35227810Y-34797190D01*
X35222275Y-34793492D01*
X35221261Y-34791974D01*
X35220385Y-34791098D01*
X35220559Y-34790924D01*
X35201441Y-34762311D01*
X35200499Y-34752751D01*
X35200499Y-34455821D01*
X35199916Y-34452887D01*
X35187197Y-34388942D01*
X35187197Y-34388941D01*
X35186256Y-34384212D01*
X35183576Y-34380200D01*
X35181729Y-34375743D01*
X35182256Y-34375525D01*
X35175500Y-34353251D01*
X35175500Y-34052613D01*
X35975001Y-34052613D01*
X35975110Y-34054918D01*
X35977697Y-34082303D01*
X35978967Y-34088092D01*
X36021597Y-34209485D01*
X36024993Y-34215898D01*
X36101032Y-34318846D01*
X36106154Y-34323968D01*
X36209102Y-34400007D01*
X36215515Y-34403403D01*
X36336907Y-34446032D01*
X36342698Y-34447303D01*
X36370083Y-34449892D01*
X36372385Y-34450000D01*
X36790253Y-34450000D01*
X36797145Y-34447145D01*
X36800000Y-34440253D01*
X36800000Y-34440252D01*
X37000000Y-34440252D01*
X37002855Y-34447144D01*
X37009747Y-34449999D01*
X37427613Y-34449999D01*
X37429918Y-34449890D01*
X37457303Y-34447303D01*
X37463092Y-34446033D01*
X37584485Y-34403403D01*
X37590898Y-34400007D01*
X37693846Y-34323968D01*
X37698968Y-34318846D01*
X37775007Y-34215898D01*
X37778403Y-34209485D01*
X37821032Y-34088093D01*
X37822303Y-34082302D01*
X37824892Y-34054917D01*
X37825000Y-34052615D01*
X37825000Y-33859747D01*
X37822145Y-33852855D01*
X37815253Y-33850000D01*
X37009747Y-33850000D01*
X37002855Y-33852855D01*
X37000000Y-33859747D01*
X37000000Y-34440252D01*
X36800000Y-34440252D01*
X36800000Y-33859747D01*
X36797145Y-33852855D01*
X36790253Y-33850000D01*
X35984748Y-33850000D01*
X35977856Y-33852855D01*
X35975001Y-33859747D01*
X35975001Y-34052613D01*
X35175500Y-34052613D01*
X35175500Y-33640253D01*
X35975000Y-33640253D01*
X35977855Y-33647145D01*
X35984747Y-33650000D01*
X36790253Y-33650000D01*
X36797145Y-33647145D01*
X36800000Y-33640253D01*
X37000000Y-33640253D01*
X37002855Y-33647145D01*
X37009747Y-33650000D01*
X37815252Y-33650000D01*
X37822144Y-33647145D01*
X37824999Y-33640253D01*
X37824999Y-33447387D01*
X37824890Y-33445082D01*
X37822303Y-33417697D01*
X37821033Y-33411908D01*
X37778403Y-33290515D01*
X37775007Y-33284102D01*
X37698968Y-33181154D01*
X37693846Y-33176032D01*
X37590898Y-33099993D01*
X37584485Y-33096597D01*
X37463093Y-33053968D01*
X37457302Y-33052697D01*
X37429917Y-33050108D01*
X37427615Y-33050000D01*
X37009747Y-33050000D01*
X37002855Y-33052855D01*
X37000000Y-33059747D01*
X37000000Y-33640253D01*
X36800000Y-33640253D01*
X36800000Y-33059748D01*
X36797145Y-33052856D01*
X36790253Y-33050001D01*
X36372387Y-33050001D01*
X36370082Y-33050110D01*
X36342697Y-33052697D01*
X36336908Y-33053967D01*
X36215515Y-33096597D01*
X36209102Y-33099993D01*
X36106154Y-33176032D01*
X36101032Y-33181154D01*
X36024993Y-33284102D01*
X36021597Y-33290515D01*
X35978968Y-33411907D01*
X35977697Y-33417698D01*
X35975108Y-33445083D01*
X35975000Y-33447385D01*
X35975000Y-33640253D01*
X35175500Y-33640253D01*
X35175500Y-31369513D01*
X35180403Y-31348148D01*
X35232065Y-31241519D01*
X35232066Y-31241517D01*
X35233588Y-31238375D01*
X35254997Y-31111120D01*
X35255133Y-31100000D01*
X35236839Y-30972259D01*
X35183428Y-30854788D01*
X35134236Y-30797697D01*
X35101473Y-30759674D01*
X35099193Y-30757028D01*
X35060776Y-30732128D01*
X34993837Y-30688740D01*
X34993833Y-30688738D01*
X34990906Y-30686841D01*
X34987562Y-30685841D01*
X34987560Y-30685840D01*
X34870623Y-30650868D01*
X34870624Y-30650868D01*
X34867273Y-30649866D01*
X34801073Y-30649462D01*
X34741723Y-30649099D01*
X34741721Y-30649099D01*
X34738231Y-30649078D01*
X34734876Y-30650037D01*
X34734875Y-30650037D01*
X34663224Y-30670515D01*
X34614155Y-30684539D01*
X34505019Y-30753399D01*
X34419596Y-30850122D01*
X34418112Y-30853283D01*
X34377721Y-30939313D01*
X34350004Y-30964578D01*
X34319327Y-30965434D01*
X34267273Y-30949866D01*
X34201073Y-30949462D01*
X34141723Y-30949099D01*
X34141721Y-30949099D01*
X34138231Y-30949078D01*
X34134876Y-30950037D01*
X34134875Y-30950037D01*
X34057122Y-30972259D01*
X34014155Y-30984539D01*
X34011204Y-30986401D01*
X33926818Y-31039645D01*
X33905019Y-31053399D01*
X33902705Y-31056020D01*
X33900761Y-31057674D01*
X33865074Y-31069203D01*
X33831687Y-31052122D01*
X33820000Y-31020361D01*
X33819999Y-30827387D01*
X33819890Y-30825082D01*
X33817303Y-30797697D01*
X33816033Y-30791908D01*
X33773403Y-30670515D01*
X33770007Y-30664102D01*
X33693968Y-30561154D01*
X33688846Y-30556032D01*
X33585898Y-30479993D01*
X33579485Y-30476597D01*
X33458093Y-30433968D01*
X33452302Y-30432697D01*
X33424917Y-30430108D01*
X33422615Y-30430000D01*
X33029747Y-30430000D01*
X33022855Y-30432855D01*
X33020000Y-30439747D01*
X33020000Y-31845252D01*
X33022855Y-31852144D01*
X33029747Y-31854999D01*
X33422613Y-31854999D01*
X33424918Y-31854890D01*
X33452303Y-31852303D01*
X33458092Y-31851033D01*
X33579485Y-31808403D01*
X33585898Y-31805007D01*
X33688846Y-31728968D01*
X33693968Y-31723846D01*
X33745760Y-31653726D01*
X33777889Y-31634383D01*
X33814286Y-31643424D01*
X33822681Y-31651307D01*
X33896639Y-31739291D01*
X34004060Y-31810796D01*
X34007386Y-31811835D01*
X34007388Y-31811836D01*
X34019625Y-31815659D01*
X34040113Y-31822060D01*
X34068904Y-31846090D01*
X34074500Y-31868830D01*
X34074501Y-33053968D01*
X34074501Y-34225501D01*
X34060149Y-34260149D01*
X34025501Y-34274501D01*
X33830251Y-34274501D01*
X33771768Y-34286134D01*
X33705447Y-34330449D01*
X33702767Y-34334460D01*
X33666363Y-34388942D01*
X33661132Y-34396770D01*
X33649499Y-34455253D01*
X33649499Y-34706354D01*
X33642934Y-34730854D01*
X33639411Y-34736956D01*
X33638667Y-34741175D01*
X33629672Y-34792190D01*
X33624499Y-34821526D01*
X33624499Y-35294879D01*
X33610147Y-35329527D01*
X33604754Y-35334920D01*
X33569807Y-35349271D01*
X33564678Y-35349240D01*
X33541723Y-35349099D01*
X33541721Y-35349099D01*
X33538231Y-35349078D01*
X33534876Y-35350037D01*
X33534875Y-35350037D01*
X33417513Y-35383579D01*
X33417511Y-35383580D01*
X33414155Y-35384539D01*
X33411201Y-35386403D01*
X33411129Y-35386435D01*
X33373640Y-35387482D01*
X33346391Y-35361715D01*
X33343062Y-35332146D01*
X33346438Y-35315175D01*
X33350501Y-35294749D01*
X33350501Y-35018648D01*
X33357066Y-34994148D01*
X33358446Y-34991758D01*
X33358446Y-34991757D01*
X33360589Y-34988046D01*
X33362619Y-34976536D01*
X33375130Y-34905582D01*
X33375130Y-34905578D01*
X33375501Y-34903476D01*
X33375501Y-33729469D01*
X33389853Y-33694821D01*
X33422193Y-33680523D01*
X33422679Y-33680500D01*
X33423834Y-33680500D01*
X33449477Y-33678076D01*
X33452397Y-33677800D01*
X33455369Y-33677519D01*
X33533627Y-33650037D01*
X33579722Y-33633850D01*
X33579723Y-33633849D01*
X33583184Y-33632634D01*
X33692150Y-33552150D01*
X33772634Y-33443184D01*
X33775065Y-33436263D01*
X33816529Y-33318188D01*
X33817519Y-33315369D01*
X33819150Y-33298117D01*
X33820392Y-33284980D01*
X33820392Y-33284973D01*
X33820500Y-33283834D01*
X33820500Y-32651166D01*
X33817519Y-32619631D01*
X33782657Y-32520357D01*
X33773850Y-32495278D01*
X33773849Y-32495277D01*
X33772634Y-32491816D01*
X33692150Y-32382850D01*
X33583184Y-32302366D01*
X33579723Y-32301151D01*
X33579722Y-32301150D01*
X33458188Y-32258471D01*
X33455369Y-32257481D01*
X33452397Y-32257200D01*
X33424980Y-32254608D01*
X33424973Y-32254608D01*
X33423834Y-32254500D01*
X32416166Y-32254500D01*
X32415027Y-32254608D01*
X32415020Y-32254608D01*
X32387603Y-32257200D01*
X32384631Y-32257481D01*
X32381812Y-32258471D01*
X32260278Y-32301150D01*
X32260277Y-32301151D01*
X32256816Y-32302366D01*
X32147850Y-32382850D01*
X32067366Y-32491816D01*
X32066151Y-32495277D01*
X32066150Y-32495278D01*
X32057343Y-32520357D01*
X32022481Y-32619631D01*
X32019500Y-32651166D01*
X32019500Y-33283834D01*
X32019608Y-33284973D01*
X32019608Y-33284980D01*
X32020850Y-33298117D01*
X32022481Y-33315369D01*
X32023471Y-33318188D01*
X32064936Y-33436263D01*
X32067366Y-33443184D01*
X32146894Y-33550855D01*
X32146894Y-33550856D01*
X32147850Y-33552150D01*
X32147529Y-33552387D01*
X32160941Y-33584767D01*
X32148668Y-33617203D01*
X32128312Y-33640253D01*
X32119596Y-33650122D01*
X32105385Y-33680391D01*
X32100225Y-33691381D01*
X32072508Y-33716645D01*
X32035045Y-33714911D01*
X32029219Y-33711674D01*
X31993836Y-33688740D01*
X31993835Y-33688740D01*
X31990906Y-33686841D01*
X31987562Y-33685841D01*
X31987560Y-33685840D01*
X31901962Y-33660240D01*
X31867273Y-33649866D01*
X31801073Y-33649462D01*
X31741723Y-33649099D01*
X31741721Y-33649099D01*
X31738231Y-33649078D01*
X31734876Y-33650037D01*
X31734875Y-33650037D01*
X31617510Y-33683580D01*
X31614155Y-33684539D01*
X31505019Y-33753399D01*
X31491227Y-33769016D01*
X31457533Y-33785485D01*
X31422063Y-33773306D01*
X31405500Y-33736579D01*
X31405500Y-33499000D01*
X31402970Y-33466856D01*
X31398125Y-33436263D01*
X31361408Y-33347617D01*
X31348117Y-33329323D01*
X31326084Y-33298997D01*
X31326077Y-33298988D01*
X31325444Y-33298117D01*
X31301203Y-33270372D01*
X31222693Y-33223464D01*
X31220078Y-33222614D01*
X31220075Y-33222613D01*
X31192499Y-33213654D01*
X31164502Y-33204557D01*
X31101000Y-33194500D01*
X25786872Y-33194500D01*
X25756911Y-33184273D01*
X25232651Y-32779163D01*
X25106297Y-32681526D01*
X29925001Y-32681526D01*
X29925302Y-32685349D01*
X29940159Y-32779163D01*
X29942512Y-32786403D01*
X30000132Y-32899489D01*
X30004608Y-32905649D01*
X30094351Y-32995392D01*
X30100511Y-32999868D01*
X30213597Y-33057488D01*
X30220837Y-33059841D01*
X30314651Y-33074699D01*
X30318473Y-33075000D01*
X30490253Y-33075000D01*
X30497145Y-33072145D01*
X30500000Y-33065253D01*
X30500000Y-33065252D01*
X30700000Y-33065252D01*
X30702855Y-33072144D01*
X30709747Y-33074999D01*
X30881526Y-33074999D01*
X30885349Y-33074698D01*
X30979163Y-33059841D01*
X30986403Y-33057488D01*
X31099489Y-32999868D01*
X31105649Y-32995392D01*
X31195392Y-32905649D01*
X31199868Y-32899489D01*
X31257488Y-32786403D01*
X31259841Y-32779163D01*
X31274699Y-32685349D01*
X31275000Y-32681527D01*
X31275000Y-32534747D01*
X31272145Y-32527855D01*
X31265253Y-32525000D01*
X30709747Y-32525000D01*
X30702855Y-32527855D01*
X30700000Y-32534747D01*
X30700000Y-33065252D01*
X30500000Y-33065252D01*
X30500000Y-32534747D01*
X30497145Y-32527855D01*
X30490253Y-32525000D01*
X29934748Y-32525000D01*
X29927856Y-32527855D01*
X29925001Y-32534747D01*
X29925001Y-32681526D01*
X25106297Y-32681526D01*
X24632297Y-32315253D01*
X29925000Y-32315253D01*
X29927855Y-32322145D01*
X29934747Y-32325000D01*
X30490253Y-32325000D01*
X30497145Y-32322145D01*
X30500000Y-32315253D01*
X30700000Y-32315253D01*
X30702855Y-32322145D01*
X30709747Y-32325000D01*
X31265252Y-32325000D01*
X31272144Y-32322145D01*
X31274999Y-32315253D01*
X31274999Y-32168474D01*
X31274698Y-32164651D01*
X31259841Y-32070837D01*
X31257488Y-32063597D01*
X31199868Y-31950511D01*
X31195392Y-31944351D01*
X31105649Y-31854608D01*
X31099489Y-31850132D01*
X30986403Y-31792512D01*
X30979163Y-31790159D01*
X30885349Y-31775301D01*
X30881527Y-31775000D01*
X30709747Y-31775000D01*
X30702855Y-31777855D01*
X30700000Y-31784747D01*
X30700000Y-32315253D01*
X30500000Y-32315253D01*
X30500000Y-31784748D01*
X30497145Y-31777856D01*
X30490253Y-31775001D01*
X30318474Y-31775001D01*
X30314651Y-31775302D01*
X30220837Y-31790159D01*
X30213597Y-31792512D01*
X30100511Y-31850132D01*
X30094351Y-31854608D01*
X30004608Y-31944351D01*
X30000132Y-31950511D01*
X29942512Y-32063597D01*
X29940159Y-32070837D01*
X29925301Y-32164651D01*
X29925000Y-32168473D01*
X29925000Y-32315253D01*
X24632297Y-32315253D01*
X23652392Y-31558054D01*
X23650621Y-31557101D01*
X23650617Y-31557099D01*
X23594903Y-31527136D01*
X23594896Y-31527133D01*
X23593126Y-31526181D01*
X23591221Y-31525531D01*
X23591217Y-31525529D01*
X23564628Y-31516453D01*
X23532593Y-31505518D01*
X23466207Y-31494500D01*
X21599000Y-31494500D01*
X21566856Y-31497030D01*
X21536263Y-31501875D01*
X21447617Y-31538592D01*
X21445279Y-31540291D01*
X21398997Y-31573916D01*
X21398988Y-31573923D01*
X21398117Y-31574556D01*
X21370372Y-31598797D01*
X21323464Y-31677307D01*
X21304557Y-31735498D01*
X21294500Y-31799000D01*
X21294500Y-33601000D01*
X21297030Y-33633144D01*
X21301875Y-33663737D01*
X21338592Y-33752383D01*
X21374556Y-33801883D01*
X21398797Y-33829628D01*
X21477307Y-33876536D01*
X21479922Y-33877386D01*
X21479925Y-33877387D01*
X21507501Y-33886346D01*
X21535498Y-33895443D01*
X21599000Y-33905500D01*
X23394584Y-33905500D01*
X23429232Y-33919852D01*
X24425694Y-34916314D01*
X24426046Y-34916639D01*
X24437194Y-34926946D01*
X24437209Y-34926960D01*
X24437544Y-34927269D01*
X24449357Y-34937358D01*
X24519315Y-34976536D01*
X24577506Y-34995443D01*
X24641008Y-35005500D01*
X27571664Y-35005500D01*
X27606312Y-35019852D01*
X27620664Y-35054500D01*
X27617896Y-35070735D01*
X27602481Y-35114631D01*
X27602200Y-35117599D01*
X27602200Y-35117601D01*
X27599653Y-35144552D01*
X27599500Y-35146166D01*
X27599500Y-35903834D01*
X27602481Y-35935369D01*
X27603470Y-35938185D01*
X27617896Y-35979264D01*
X27615835Y-36016711D01*
X27587900Y-36041732D01*
X27571664Y-36044500D01*
X25849000Y-36044500D01*
X25817420Y-36050782D01*
X25772722Y-36059672D01*
X25772717Y-36059674D01*
X25770357Y-36060143D01*
X25735709Y-36074495D01*
X25677419Y-36111121D01*
X25674627Y-36115056D01*
X25674626Y-36115057D01*
X25667038Y-36125751D01*
X25624495Y-36185709D01*
X25610143Y-36220357D01*
X25609674Y-36222717D01*
X25609672Y-36222722D01*
X25603920Y-36251643D01*
X25594500Y-36299000D01*
X25594500Y-42801000D01*
X25601451Y-42835943D01*
X25594134Y-42872723D01*
X25562951Y-42893559D01*
X25553392Y-42894500D01*
X24849000Y-42894500D01*
X24817420Y-42900782D01*
X24772722Y-42909672D01*
X24772717Y-42909674D01*
X24770357Y-42910143D01*
X24735709Y-42924495D01*
X24677419Y-42961121D01*
X24624495Y-43035709D01*
X24610143Y-43070357D01*
X24609674Y-43072717D01*
X24609672Y-43072722D01*
X24600782Y-43117420D01*
X24594500Y-43149000D01*
X24594500Y-47050500D01*
X24580148Y-47085148D01*
X24545500Y-47099500D01*
X22879672Y-47099500D01*
X22873913Y-47099160D01*
X22835689Y-47094636D01*
X22832086Y-47095294D01*
X22776775Y-47105396D01*
X22775256Y-47105648D01*
X22735316Y-47111653D01*
X22716038Y-47114551D01*
X22712735Y-47116137D01*
X22709407Y-47117161D01*
X22706031Y-47118317D01*
X22702427Y-47118975D01*
X22649293Y-47146575D01*
X22647942Y-47147250D01*
X22597223Y-47171605D01*
X22597221Y-47171606D01*
X22593921Y-47173191D01*
X22591232Y-47175677D01*
X22588202Y-47177736D01*
X22588010Y-47177454D01*
X22586819Y-47178291D01*
X22587008Y-47178571D01*
X22584688Y-47180134D01*
X22582211Y-47181421D01*
X22577172Y-47185725D01*
X22538864Y-47224033D01*
X22537477Y-47225367D01*
X22497135Y-47262658D01*
X22497134Y-47262660D01*
X22494444Y-47265146D01*
X22492605Y-47268313D01*
X22490313Y-47271173D01*
X22490276Y-47271143D01*
X22485343Y-47277554D01*
X21502435Y-48260462D01*
X21498123Y-48264294D01*
X21467890Y-48288128D01*
X21465807Y-48291142D01*
X21465805Y-48291144D01*
X21433840Y-48337393D01*
X21432945Y-48338646D01*
X21397366Y-48386816D01*
X21396153Y-48390271D01*
X21394511Y-48393372D01*
X21392950Y-48396559D01*
X21390869Y-48399569D01*
X21389765Y-48403060D01*
X21389764Y-48403062D01*
X21372811Y-48456667D01*
X21372338Y-48458085D01*
X21352481Y-48514631D01*
X21352337Y-48518291D01*
X21351651Y-48521890D01*
X21351312Y-48521825D01*
X21351062Y-48523260D01*
X21351397Y-48523325D01*
X21350863Y-48526065D01*
X21350020Y-48528730D01*
X21349500Y-48535337D01*
X21349500Y-48589537D01*
X21349462Y-48591461D01*
X21347162Y-48649994D01*
X21348102Y-48653537D01*
X21348503Y-48657174D01*
X21348456Y-48657179D01*
X21349500Y-48665196D01*
X21349500Y-61088273D01*
X21335148Y-61122921D01*
X21329612Y-61127687D01*
X21227850Y-61202850D01*
X21147366Y-61311816D01*
X21102481Y-61439631D01*
X21099500Y-61471166D01*
X21099500Y-62528834D01*
X20700500Y-62528834D01*
X20700500Y-40428104D01*
X21455337Y-40428104D01*
X21462052Y-40508076D01*
X21462912Y-40512763D01*
X21518350Y-40706100D01*
X21520105Y-40710532D01*
X21612038Y-40889414D01*
X21614622Y-40893424D01*
X21739548Y-41051041D01*
X21742865Y-41054476D01*
X21896026Y-41184826D01*
X21899943Y-41187548D01*
X22075506Y-41285667D01*
X22079877Y-41287577D01*
X22271155Y-41349727D01*
X22275822Y-41350752D01*
X22390321Y-41364406D01*
X22397502Y-41362387D01*
X22400000Y-41357937D01*
X22400000Y-41355708D01*
X22600000Y-41355708D01*
X22602430Y-41361574D01*
X22610696Y-41364632D01*
X22680828Y-41359235D01*
X22685518Y-41358408D01*
X22879240Y-41304320D01*
X22883676Y-41302600D01*
X23063201Y-41211915D01*
X23067234Y-41209355D01*
X23225716Y-41085535D01*
X23229166Y-41082250D01*
X23360592Y-40929993D01*
X23363337Y-40926101D01*
X23462679Y-40751226D01*
X23464621Y-40746865D01*
X23528106Y-40556024D01*
X23529162Y-40551378D01*
X23544538Y-40429668D01*
X23542570Y-40422475D01*
X23538230Y-40420000D01*
X22609747Y-40420000D01*
X22602855Y-40422855D01*
X22600000Y-40429747D01*
X22600000Y-41355708D01*
X22400000Y-41355708D01*
X22400000Y-40429747D01*
X22397145Y-40422855D01*
X22390253Y-40420000D01*
X21464403Y-40420000D01*
X21457511Y-40422855D01*
X21455337Y-40428104D01*
X20700500Y-40428104D01*
X20700500Y-40210316D01*
X21455672Y-40210316D01*
X21457740Y-40217481D01*
X21462304Y-40220000D01*
X22390253Y-40220000D01*
X22397145Y-40217145D01*
X22400000Y-40210253D01*
X22600000Y-40210253D01*
X22602855Y-40217145D01*
X22609747Y-40220000D01*
X23535529Y-40220000D01*
X23542421Y-40217145D01*
X23544503Y-40212118D01*
X23535221Y-40117449D01*
X23534296Y-40112779D01*
X23476163Y-39920233D01*
X23474344Y-39915821D01*
X23379925Y-39738245D01*
X23377283Y-39734268D01*
X23250172Y-39578414D01*
X23246808Y-39575026D01*
X23091840Y-39446825D01*
X23087886Y-39444158D01*
X22910966Y-39348499D01*
X22906575Y-39346653D01*
X22714437Y-39287176D01*
X22709775Y-39286219D01*
X22609692Y-39275700D01*
X22602541Y-39277818D01*
X22600000Y-39282497D01*
X22600000Y-40210253D01*
X22400000Y-40210253D01*
X22400000Y-39284463D01*
X22397145Y-39277571D01*
X22392008Y-39275443D01*
X22304688Y-39283390D01*
X22299996Y-39284285D01*
X22107059Y-39341069D01*
X22102637Y-39342856D01*
X21924402Y-39436035D01*
X21920410Y-39438646D01*
X21763664Y-39564673D01*
X21760259Y-39568008D01*
X21630979Y-39722078D01*
X21628283Y-39726015D01*
X21531390Y-39902263D01*
X21529514Y-39906641D01*
X21468699Y-40098355D01*
X21467709Y-40103010D01*
X21455672Y-40210316D01*
X20700500Y-40210316D01*
X20700500Y-37765262D01*
X21444520Y-37765262D01*
X21444720Y-37767644D01*
X21444720Y-37767648D01*
X21451664Y-37850336D01*
X21461759Y-37970553D01*
X21479735Y-38033242D01*
X21498591Y-38099000D01*
X21518544Y-38168586D01*
X21612712Y-38351818D01*
X21614198Y-38353693D01*
X21614200Y-38353696D01*
X21674395Y-38429643D01*
X21740677Y-38513270D01*
X21742503Y-38514824D01*
X21742504Y-38514825D01*
X21859727Y-38614589D01*
X21897564Y-38646791D01*
X22077398Y-38747297D01*
X22088198Y-38750806D01*
X22271047Y-38810218D01*
X22271051Y-38810219D01*
X22273329Y-38810959D01*
X22477894Y-38835351D01*
X22683300Y-38819546D01*
X22881725Y-38764145D01*
X22883854Y-38763070D01*
X22883858Y-38763068D01*
X22971402Y-38718846D01*
X23065610Y-38671258D01*
X23227951Y-38544424D01*
X23229519Y-38542608D01*
X23360993Y-38390293D01*
X23360997Y-38390288D01*
X23362564Y-38388472D01*
X23464323Y-38209344D01*
X23477193Y-38170657D01*
X23511443Y-38067697D01*
X23529351Y-38013863D01*
X23532557Y-37988489D01*
X23555000Y-37810828D01*
X23555000Y-37810827D01*
X23555171Y-37809474D01*
X23555510Y-37785196D01*
X23555564Y-37781371D01*
X23555564Y-37781368D01*
X23555583Y-37780000D01*
X23535480Y-37574970D01*
X23534115Y-37570447D01*
X23487711Y-37416753D01*
X23475935Y-37377749D01*
X23431671Y-37294500D01*
X23380342Y-37197962D01*
X23380339Y-37197958D01*
X23379218Y-37195849D01*
X23249011Y-37036200D01*
X23090275Y-36904882D01*
X22909055Y-36806897D01*
X22712254Y-36745977D01*
X22709879Y-36745727D01*
X22709877Y-36745727D01*
X22509752Y-36724693D01*
X22509747Y-36724693D01*
X22507369Y-36724443D01*
X22504984Y-36724660D01*
X22504979Y-36724660D01*
X22404786Y-36733778D01*
X22302203Y-36743114D01*
X22200425Y-36773069D01*
X22106875Y-36800602D01*
X22106873Y-36800603D01*
X22104572Y-36801280D01*
X22102446Y-36802391D01*
X22102447Y-36802391D01*
X21971194Y-36871009D01*
X21922002Y-36896726D01*
X21877824Y-36932246D01*
X21763312Y-37024315D01*
X21763309Y-37024318D01*
X21761447Y-37025815D01*
X21759908Y-37027649D01*
X21759907Y-37027650D01*
X21750494Y-37038868D01*
X21629024Y-37183630D01*
X21627869Y-37185731D01*
X21531655Y-37360745D01*
X21529776Y-37364162D01*
X21529052Y-37366443D01*
X21529052Y-37366444D01*
X21521499Y-37390253D01*
X21467484Y-37560532D01*
X21444520Y-37765262D01*
X20700500Y-37765262D01*
X20700500Y-35225262D01*
X21444520Y-35225262D01*
X21444720Y-35227644D01*
X21444720Y-35227648D01*
X21452070Y-35315175D01*
X21461759Y-35430553D01*
X21475596Y-35478808D01*
X21517532Y-35625055D01*
X21518544Y-35628586D01*
X21612712Y-35811818D01*
X21614198Y-35813693D01*
X21614200Y-35813696D01*
X21720116Y-35947328D01*
X21740677Y-35973270D01*
X21742503Y-35974824D01*
X21742504Y-35974825D01*
X21860908Y-36075594D01*
X21897564Y-36106791D01*
X22077398Y-36207297D01*
X22124154Y-36222489D01*
X22271047Y-36270218D01*
X22271051Y-36270219D01*
X22273329Y-36270959D01*
X22477894Y-36295351D01*
X22683300Y-36279546D01*
X22881725Y-36224145D01*
X22883854Y-36223070D01*
X22883858Y-36223068D01*
X22973304Y-36177885D01*
X23065610Y-36131258D01*
X23197479Y-36028231D01*
X23226062Y-36005900D01*
X23226063Y-36005899D01*
X23227951Y-36004424D01*
X23231796Y-35999970D01*
X23360993Y-35850293D01*
X23360997Y-35850288D01*
X23362564Y-35848472D01*
X23464323Y-35669344D01*
X23465126Y-35666932D01*
X23502932Y-35553281D01*
X23529351Y-35473863D01*
X23530953Y-35461186D01*
X23555000Y-35270828D01*
X23555000Y-35270827D01*
X23555171Y-35269474D01*
X23555583Y-35240000D01*
X23535480Y-35034970D01*
X23534025Y-35030149D01*
X23488493Y-34879343D01*
X23475935Y-34837749D01*
X23451596Y-34791974D01*
X23380342Y-34657962D01*
X23380339Y-34657958D01*
X23379218Y-34655849D01*
X23249011Y-34496200D01*
X23090275Y-34364882D01*
X22982230Y-34306463D01*
X22911160Y-34268035D01*
X22911159Y-34268034D01*
X22909055Y-34266897D01*
X22712254Y-34205977D01*
X22709879Y-34205727D01*
X22709877Y-34205727D01*
X22509752Y-34184693D01*
X22509747Y-34184693D01*
X22507369Y-34184443D01*
X22504984Y-34184660D01*
X22504979Y-34184660D01*
X22404786Y-34193779D01*
X22302203Y-34203114D01*
X22226139Y-34225501D01*
X22106875Y-34260602D01*
X22106873Y-34260603D01*
X22104572Y-34261280D01*
X22102446Y-34262391D01*
X22102447Y-34262391D01*
X21964593Y-34334460D01*
X21922002Y-34356726D01*
X21863993Y-34403366D01*
X21763312Y-34484315D01*
X21763309Y-34484318D01*
X21761447Y-34485815D01*
X21759908Y-34487649D01*
X21759907Y-34487650D01*
X21740485Y-34510796D01*
X21629024Y-34643630D01*
X21627869Y-34645731D01*
X21542397Y-34801205D01*
X21529776Y-34824162D01*
X21529052Y-34826443D01*
X21529052Y-34826444D01*
X21516616Y-34865649D01*
X21467484Y-35020532D01*
X21444520Y-35225262D01*
X20700500Y-35225262D01*
X20700500Y-31457613D01*
X32020001Y-31457613D01*
X32020110Y-31459918D01*
X32022697Y-31487303D01*
X32023967Y-31493092D01*
X32066597Y-31614485D01*
X32069993Y-31620898D01*
X32146032Y-31723846D01*
X32151154Y-31728968D01*
X32254102Y-31805007D01*
X32260515Y-31808403D01*
X32381907Y-31851032D01*
X32387698Y-31852303D01*
X32415083Y-31854892D01*
X32417385Y-31855000D01*
X32810253Y-31855000D01*
X32817145Y-31852145D01*
X32820000Y-31845253D01*
X32820000Y-31252247D01*
X32817145Y-31245355D01*
X32810253Y-31242500D01*
X32029748Y-31242500D01*
X32022856Y-31245355D01*
X32020001Y-31252247D01*
X32020001Y-31457613D01*
X20700500Y-31457613D01*
X20700500Y-31032753D01*
X32020000Y-31032753D01*
X32022855Y-31039645D01*
X32029747Y-31042500D01*
X32810253Y-31042500D01*
X32817145Y-31039645D01*
X32820000Y-31032753D01*
X32820000Y-30439748D01*
X32817145Y-30432856D01*
X32810253Y-30430001D01*
X32417387Y-30430001D01*
X32415082Y-30430110D01*
X32387697Y-30432697D01*
X32381908Y-30433967D01*
X32260515Y-30476597D01*
X32254102Y-30479993D01*
X32151154Y-30556032D01*
X32146032Y-30561154D01*
X32069993Y-30664102D01*
X32066597Y-30670515D01*
X32023968Y-30791907D01*
X32022697Y-30797698D01*
X32020108Y-30825083D01*
X32020000Y-30827385D01*
X32020000Y-31032753D01*
X20700500Y-31032753D01*
X20700500Y-26755262D01*
X25054520Y-26755262D01*
X25054720Y-26757644D01*
X25054720Y-26757648D01*
X25058346Y-26800828D01*
X25071759Y-26960553D01*
X25128544Y-27158586D01*
X25222712Y-27341818D01*
X25224198Y-27343693D01*
X25224200Y-27343696D01*
X25334033Y-27482270D01*
X25350677Y-27503270D01*
X25507564Y-27636791D01*
X25687398Y-27737297D01*
X25734496Y-27752600D01*
X25881047Y-27800218D01*
X25881051Y-27800219D01*
X25883329Y-27800959D01*
X26087894Y-27825351D01*
X26293300Y-27809546D01*
X26491725Y-27754145D01*
X26493854Y-27753070D01*
X26493858Y-27753068D01*
X26580728Y-27709186D01*
X26675610Y-27661258D01*
X26837951Y-27534424D01*
X26863500Y-27504825D01*
X26970993Y-27380293D01*
X26970997Y-27380288D01*
X26972564Y-27378472D01*
X27074323Y-27199344D01*
X27087882Y-27158586D01*
X27138595Y-27006135D01*
X27139351Y-27003863D01*
X27165171Y-26799474D01*
X27165583Y-26770000D01*
X27164138Y-26755262D01*
X27594520Y-26755262D01*
X27594720Y-26757644D01*
X27594720Y-26757648D01*
X27598346Y-26800828D01*
X27611759Y-26960553D01*
X27668544Y-27158586D01*
X27762712Y-27341818D01*
X27764198Y-27343693D01*
X27764200Y-27343696D01*
X27874033Y-27482270D01*
X27890677Y-27503270D01*
X28047564Y-27636791D01*
X28227398Y-27737297D01*
X28274496Y-27752600D01*
X28421047Y-27800218D01*
X28421051Y-27800219D01*
X28423329Y-27800959D01*
X28627894Y-27825351D01*
X28833300Y-27809546D01*
X29031725Y-27754145D01*
X29033854Y-27753070D01*
X29033858Y-27753068D01*
X29120728Y-27709186D01*
X29215610Y-27661258D01*
X29377951Y-27534424D01*
X29403500Y-27504825D01*
X29510993Y-27380293D01*
X29510997Y-27380288D01*
X29512564Y-27378472D01*
X29614323Y-27199344D01*
X29627882Y-27158586D01*
X29678595Y-27006135D01*
X29679351Y-27003863D01*
X29705171Y-26799474D01*
X29705583Y-26770000D01*
X29704138Y-26755262D01*
X30134520Y-26755262D01*
X30134720Y-26757644D01*
X30134720Y-26757648D01*
X30138346Y-26800828D01*
X30151759Y-26960553D01*
X30208544Y-27158586D01*
X30302712Y-27341818D01*
X30304198Y-27343693D01*
X30304200Y-27343696D01*
X30414033Y-27482270D01*
X30430677Y-27503270D01*
X30587564Y-27636791D01*
X30767398Y-27737297D01*
X30814496Y-27752600D01*
X30961047Y-27800218D01*
X30961051Y-27800219D01*
X30963329Y-27800959D01*
X31167894Y-27825351D01*
X31373300Y-27809546D01*
X31571725Y-27754145D01*
X31573854Y-27753070D01*
X31573858Y-27753068D01*
X31660728Y-27709186D01*
X31755610Y-27661258D01*
X31917951Y-27534424D01*
X31943500Y-27504825D01*
X32050993Y-27380293D01*
X32050997Y-27380288D01*
X32052564Y-27378472D01*
X32154323Y-27199344D01*
X32167882Y-27158586D01*
X32218595Y-27006135D01*
X32219351Y-27003863D01*
X32245171Y-26799474D01*
X32245583Y-26770000D01*
X32244138Y-26755262D01*
X32674520Y-26755262D01*
X32674720Y-26757644D01*
X32674720Y-26757648D01*
X32678346Y-26800828D01*
X32691759Y-26960553D01*
X32748544Y-27158586D01*
X32842712Y-27341818D01*
X32844198Y-27343693D01*
X32844200Y-27343696D01*
X32954033Y-27482270D01*
X32970677Y-27503270D01*
X33127564Y-27636791D01*
X33307398Y-27737297D01*
X33354496Y-27752600D01*
X33501047Y-27800218D01*
X33501051Y-27800219D01*
X33503329Y-27800959D01*
X33707894Y-27825351D01*
X33913300Y-27809546D01*
X34111725Y-27754145D01*
X34113854Y-27753070D01*
X34113858Y-27753068D01*
X34200728Y-27709186D01*
X34295610Y-27661258D01*
X34457951Y-27534424D01*
X34483500Y-27504825D01*
X34590993Y-27380293D01*
X34590997Y-27380288D01*
X34592564Y-27378472D01*
X34694323Y-27199344D01*
X34707882Y-27158586D01*
X34758595Y-27006135D01*
X34759351Y-27003863D01*
X34775238Y-26878104D01*
X35225337Y-26878104D01*
X35232052Y-26958076D01*
X35232912Y-26962763D01*
X35288350Y-27156100D01*
X35290105Y-27160532D01*
X35382038Y-27339414D01*
X35384622Y-27343424D01*
X35509548Y-27501041D01*
X35512865Y-27504476D01*
X35666026Y-27634826D01*
X35669943Y-27637548D01*
X35845506Y-27735667D01*
X35849877Y-27737577D01*
X36041155Y-27799727D01*
X36045822Y-27800752D01*
X36160321Y-27814406D01*
X36167502Y-27812387D01*
X36170000Y-27807937D01*
X36170000Y-27805708D01*
X36370000Y-27805708D01*
X36372430Y-27811574D01*
X36380696Y-27814632D01*
X36450828Y-27809235D01*
X36455518Y-27808408D01*
X36649240Y-27754320D01*
X36653676Y-27752600D01*
X36833201Y-27661915D01*
X36837234Y-27659355D01*
X36995716Y-27535535D01*
X36999166Y-27532250D01*
X37130592Y-27379993D01*
X37133337Y-27376101D01*
X37232679Y-27201226D01*
X37234621Y-27196865D01*
X37298106Y-27006024D01*
X37299162Y-27001378D01*
X37314538Y-26879668D01*
X37314110Y-26878104D01*
X37765337Y-26878104D01*
X37772052Y-26958076D01*
X37772912Y-26962763D01*
X37828350Y-27156100D01*
X37830105Y-27160532D01*
X37922038Y-27339414D01*
X37924622Y-27343424D01*
X38049548Y-27501041D01*
X38052865Y-27504476D01*
X38206026Y-27634826D01*
X38209943Y-27637548D01*
X38385506Y-27735667D01*
X38389877Y-27737577D01*
X38581155Y-27799727D01*
X38585822Y-27800752D01*
X38700321Y-27814406D01*
X38707502Y-27812387D01*
X38710000Y-27807937D01*
X38710000Y-27805708D01*
X38910000Y-27805708D01*
X38912430Y-27811574D01*
X38920696Y-27814632D01*
X38990828Y-27809235D01*
X38995518Y-27808408D01*
X39189240Y-27754320D01*
X39193676Y-27752600D01*
X39373201Y-27661915D01*
X39377234Y-27659355D01*
X39535716Y-27535535D01*
X39539166Y-27532250D01*
X39670592Y-27379993D01*
X39673337Y-27376101D01*
X39772679Y-27201226D01*
X39774621Y-27196865D01*
X39838106Y-27006024D01*
X39839162Y-27001378D01*
X39854538Y-26879668D01*
X39854110Y-26878104D01*
X40305337Y-26878104D01*
X40312052Y-26958076D01*
X40312912Y-26962763D01*
X40368350Y-27156100D01*
X40370105Y-27160532D01*
X40462038Y-27339414D01*
X40464622Y-27343424D01*
X40589548Y-27501041D01*
X40592865Y-27504476D01*
X40746026Y-27634826D01*
X40749943Y-27637548D01*
X40925506Y-27735667D01*
X40929877Y-27737577D01*
X41121155Y-27799727D01*
X41125822Y-27800752D01*
X41240321Y-27814406D01*
X41247502Y-27812387D01*
X41250000Y-27807937D01*
X41250000Y-27805708D01*
X41450000Y-27805708D01*
X41452430Y-27811574D01*
X41460696Y-27814632D01*
X41530828Y-27809235D01*
X41535518Y-27808408D01*
X41729240Y-27754320D01*
X41733676Y-27752600D01*
X41913201Y-27661915D01*
X41917234Y-27659355D01*
X41945469Y-27637295D01*
X42840000Y-27637295D01*
X42840468Y-27642052D01*
X42850663Y-27693303D01*
X42854285Y-27702049D01*
X42893128Y-27760181D01*
X42899819Y-27766872D01*
X42957951Y-27805715D01*
X42966697Y-27809337D01*
X43017948Y-27819532D01*
X43022705Y-27820000D01*
X43780253Y-27820000D01*
X43787145Y-27817145D01*
X43790000Y-27810253D01*
X43990000Y-27810253D01*
X43992855Y-27817145D01*
X43999747Y-27820000D01*
X44757295Y-27820000D01*
X44762052Y-27819532D01*
X44813303Y-27809337D01*
X44822049Y-27805715D01*
X44880181Y-27766872D01*
X44886872Y-27760181D01*
X44925715Y-27702049D01*
X44929337Y-27693303D01*
X44939532Y-27642052D01*
X44940000Y-27637295D01*
X44940000Y-26879747D01*
X44937145Y-26872855D01*
X44930253Y-26870000D01*
X43999747Y-26870000D01*
X43992855Y-26872855D01*
X43990000Y-26879747D01*
X43990000Y-27810253D01*
X43790000Y-27810253D01*
X43790000Y-26879747D01*
X43787145Y-26872855D01*
X43780253Y-26870000D01*
X42849747Y-26870000D01*
X42842855Y-26872855D01*
X42840000Y-26879747D01*
X42840000Y-27637295D01*
X41945469Y-27637295D01*
X42075716Y-27535535D01*
X42079166Y-27532250D01*
X42210592Y-27379993D01*
X42213337Y-27376101D01*
X42312679Y-27201226D01*
X42314621Y-27196865D01*
X42378106Y-27006024D01*
X42379162Y-27001378D01*
X42394538Y-26879668D01*
X42392570Y-26872475D01*
X42388230Y-26870000D01*
X41459747Y-26870000D01*
X41452855Y-26872855D01*
X41450000Y-26879747D01*
X41450000Y-27805708D01*
X41250000Y-27805708D01*
X41250000Y-26879747D01*
X41247145Y-26872855D01*
X41240253Y-26870000D01*
X40314403Y-26870000D01*
X40307511Y-26872855D01*
X40305337Y-26878104D01*
X39854110Y-26878104D01*
X39852570Y-26872475D01*
X39848230Y-26870000D01*
X38919747Y-26870000D01*
X38912855Y-26872855D01*
X38910000Y-26879747D01*
X38910000Y-27805708D01*
X38710000Y-27805708D01*
X38710000Y-26879747D01*
X38707145Y-26872855D01*
X38700253Y-26870000D01*
X37774403Y-26870000D01*
X37767511Y-26872855D01*
X37765337Y-26878104D01*
X37314110Y-26878104D01*
X37312570Y-26872475D01*
X37308230Y-26870000D01*
X36379747Y-26870000D01*
X36372855Y-26872855D01*
X36370000Y-26879747D01*
X36370000Y-27805708D01*
X36170000Y-27805708D01*
X36170000Y-26879747D01*
X36167145Y-26872855D01*
X36160253Y-26870000D01*
X35234403Y-26870000D01*
X35227511Y-26872855D01*
X35225337Y-26878104D01*
X34775238Y-26878104D01*
X34785171Y-26799474D01*
X34785583Y-26770000D01*
X34774829Y-26660316D01*
X35225672Y-26660316D01*
X35227740Y-26667481D01*
X35232304Y-26670000D01*
X36160253Y-26670000D01*
X36167145Y-26667145D01*
X36170000Y-26660253D01*
X36370000Y-26660253D01*
X36372855Y-26667145D01*
X36379747Y-26670000D01*
X37305529Y-26670000D01*
X37312421Y-26667145D01*
X37314503Y-26662118D01*
X37314326Y-26660316D01*
X37765672Y-26660316D01*
X37767740Y-26667481D01*
X37772304Y-26670000D01*
X38700253Y-26670000D01*
X38707145Y-26667145D01*
X38710000Y-26660253D01*
X38910000Y-26660253D01*
X38912855Y-26667145D01*
X38919747Y-26670000D01*
X39845529Y-26670000D01*
X39852421Y-26667145D01*
X39854503Y-26662118D01*
X39854326Y-26660316D01*
X40305672Y-26660316D01*
X40307740Y-26667481D01*
X40312304Y-26670000D01*
X41240253Y-26670000D01*
X41247145Y-26667145D01*
X41250000Y-26660253D01*
X41450000Y-26660253D01*
X41452855Y-26667145D01*
X41459747Y-26670000D01*
X42385529Y-26670000D01*
X42392421Y-26667145D01*
X42394503Y-26662118D01*
X42394320Y-26660253D01*
X42840000Y-26660253D01*
X42842855Y-26667145D01*
X42849747Y-26670000D01*
X43780253Y-26670000D01*
X43787145Y-26667145D01*
X43790000Y-26660253D01*
X43990000Y-26660253D01*
X43992855Y-26667145D01*
X43999747Y-26670000D01*
X44930253Y-26670000D01*
X44937145Y-26667145D01*
X44940000Y-26660253D01*
X44940000Y-25902705D01*
X44939532Y-25897948D01*
X44929337Y-25846697D01*
X44925715Y-25837951D01*
X44886872Y-25779819D01*
X44880181Y-25773128D01*
X44822049Y-25734285D01*
X44813303Y-25730663D01*
X44762052Y-25720468D01*
X44757295Y-25720000D01*
X43999747Y-25720000D01*
X43992855Y-25722855D01*
X43990000Y-25729747D01*
X43990000Y-26660253D01*
X43790000Y-26660253D01*
X43790000Y-25729747D01*
X43787145Y-25722855D01*
X43780253Y-25720000D01*
X43022705Y-25720000D01*
X43017948Y-25720468D01*
X42966697Y-25730663D01*
X42957951Y-25734285D01*
X42899819Y-25773128D01*
X42893128Y-25779819D01*
X42854285Y-25837951D01*
X42850663Y-25846697D01*
X42840468Y-25897948D01*
X42840000Y-25902705D01*
X42840000Y-26660253D01*
X42394320Y-26660253D01*
X42385221Y-26567449D01*
X42384296Y-26562779D01*
X42326163Y-26370233D01*
X42324344Y-26365821D01*
X42229925Y-26188245D01*
X42227283Y-26184268D01*
X42100172Y-26028414D01*
X42096808Y-26025026D01*
X41941840Y-25896825D01*
X41937886Y-25894158D01*
X41760966Y-25798499D01*
X41756575Y-25796653D01*
X41564437Y-25737176D01*
X41559775Y-25736219D01*
X41459692Y-25725700D01*
X41452541Y-25727818D01*
X41450000Y-25732497D01*
X41450000Y-26660253D01*
X41250000Y-26660253D01*
X41250000Y-25734463D01*
X41247145Y-25727571D01*
X41242008Y-25725443D01*
X41154688Y-25733390D01*
X41149996Y-25734285D01*
X40957059Y-25791069D01*
X40952637Y-25792856D01*
X40774402Y-25886035D01*
X40770410Y-25888646D01*
X40613664Y-26014673D01*
X40610259Y-26018008D01*
X40480979Y-26172078D01*
X40478283Y-26176015D01*
X40381390Y-26352263D01*
X40379514Y-26356641D01*
X40318699Y-26548355D01*
X40317709Y-26553010D01*
X40305672Y-26660316D01*
X39854326Y-26660316D01*
X39845221Y-26567449D01*
X39844296Y-26562779D01*
X39786163Y-26370233D01*
X39784344Y-26365821D01*
X39689925Y-26188245D01*
X39687283Y-26184268D01*
X39560172Y-26028414D01*
X39556808Y-26025026D01*
X39401840Y-25896825D01*
X39397886Y-25894158D01*
X39220966Y-25798499D01*
X39216575Y-25796653D01*
X39024437Y-25737176D01*
X39019775Y-25736219D01*
X38919692Y-25725700D01*
X38912541Y-25727818D01*
X38910000Y-25732497D01*
X38910000Y-26660253D01*
X38710000Y-26660253D01*
X38710000Y-25734463D01*
X38707145Y-25727571D01*
X38702008Y-25725443D01*
X38614688Y-25733390D01*
X38609996Y-25734285D01*
X38417059Y-25791069D01*
X38412637Y-25792856D01*
X38234402Y-25886035D01*
X38230410Y-25888646D01*
X38073664Y-26014673D01*
X38070259Y-26018008D01*
X37940979Y-26172078D01*
X37938283Y-26176015D01*
X37841390Y-26352263D01*
X37839514Y-26356641D01*
X37778699Y-26548355D01*
X37777709Y-26553010D01*
X37765672Y-26660316D01*
X37314326Y-26660316D01*
X37305221Y-26567449D01*
X37304296Y-26562779D01*
X37246163Y-26370233D01*
X37244344Y-26365821D01*
X37149925Y-26188245D01*
X37147283Y-26184268D01*
X37020172Y-26028414D01*
X37016808Y-26025026D01*
X36861840Y-25896825D01*
X36857886Y-25894158D01*
X36680966Y-25798499D01*
X36676575Y-25796653D01*
X36484437Y-25737176D01*
X36479775Y-25736219D01*
X36379692Y-25725700D01*
X36372541Y-25727818D01*
X36370000Y-25732497D01*
X36370000Y-26660253D01*
X36170000Y-26660253D01*
X36170000Y-25734463D01*
X36167145Y-25727571D01*
X36162008Y-25725443D01*
X36074688Y-25733390D01*
X36069996Y-25734285D01*
X35877059Y-25791069D01*
X35872637Y-25792856D01*
X35694402Y-25886035D01*
X35690410Y-25888646D01*
X35533664Y-26014673D01*
X35530259Y-26018008D01*
X35400979Y-26172078D01*
X35398283Y-26176015D01*
X35301390Y-26352263D01*
X35299514Y-26356641D01*
X35238699Y-26548355D01*
X35237709Y-26553010D01*
X35225672Y-26660316D01*
X34774829Y-26660316D01*
X34765480Y-26564970D01*
X34760433Y-26548251D01*
X34706626Y-26370039D01*
X34705935Y-26367749D01*
X34610492Y-26188245D01*
X34610342Y-26187962D01*
X34610339Y-26187958D01*
X34609218Y-26185849D01*
X34479011Y-26026200D01*
X34320275Y-25894882D01*
X34139055Y-25796897D01*
X33942254Y-25735977D01*
X33939879Y-25735727D01*
X33939877Y-25735727D01*
X33739752Y-25714693D01*
X33739747Y-25714693D01*
X33737369Y-25714443D01*
X33734984Y-25714660D01*
X33734979Y-25714660D01*
X33634786Y-25723779D01*
X33532203Y-25733114D01*
X33396247Y-25773128D01*
X33336875Y-25790602D01*
X33336873Y-25790603D01*
X33334572Y-25791280D01*
X33152002Y-25886726D01*
X33070206Y-25952491D01*
X32993312Y-26014315D01*
X32993309Y-26014318D01*
X32991447Y-26015815D01*
X32989908Y-26017649D01*
X32989907Y-26017650D01*
X32980875Y-26028414D01*
X32859024Y-26173630D01*
X32759776Y-26354162D01*
X32759052Y-26356443D01*
X32759052Y-26356444D01*
X32754678Y-26370233D01*
X32697484Y-26550532D01*
X32674520Y-26755262D01*
X32244138Y-26755262D01*
X32225480Y-26564970D01*
X32220433Y-26548251D01*
X32166626Y-26370039D01*
X32165935Y-26367749D01*
X32070492Y-26188245D01*
X32070342Y-26187962D01*
X32070339Y-26187958D01*
X32069218Y-26185849D01*
X31939011Y-26026200D01*
X31780275Y-25894882D01*
X31599055Y-25796897D01*
X31402254Y-25735977D01*
X31399879Y-25735727D01*
X31399877Y-25735727D01*
X31199752Y-25714693D01*
X31199747Y-25714693D01*
X31197369Y-25714443D01*
X31194984Y-25714660D01*
X31194979Y-25714660D01*
X31094786Y-25723779D01*
X30992203Y-25733114D01*
X30856247Y-25773128D01*
X30796875Y-25790602D01*
X30796873Y-25790603D01*
X30794572Y-25791280D01*
X30612002Y-25886726D01*
X30530206Y-25952491D01*
X30453312Y-26014315D01*
X30453309Y-26014318D01*
X30451447Y-26015815D01*
X30449908Y-26017649D01*
X30449907Y-26017650D01*
X30440875Y-26028414D01*
X30319024Y-26173630D01*
X30219776Y-26354162D01*
X30219052Y-26356443D01*
X30219052Y-26356444D01*
X30214678Y-26370233D01*
X30157484Y-26550532D01*
X30134520Y-26755262D01*
X29704138Y-26755262D01*
X29685480Y-26564970D01*
X29680433Y-26548251D01*
X29626626Y-26370039D01*
X29625935Y-26367749D01*
X29530492Y-26188245D01*
X29530342Y-26187962D01*
X29530339Y-26187958D01*
X29529218Y-26185849D01*
X29399011Y-26026200D01*
X29240275Y-25894882D01*
X29059055Y-25796897D01*
X28862254Y-25735977D01*
X28859879Y-25735727D01*
X28859877Y-25735727D01*
X28659752Y-25714693D01*
X28659747Y-25714693D01*
X28657369Y-25714443D01*
X28654984Y-25714660D01*
X28654979Y-25714660D01*
X28554786Y-25723779D01*
X28452203Y-25733114D01*
X28316247Y-25773128D01*
X28256875Y-25790602D01*
X28256873Y-25790603D01*
X28254572Y-25791280D01*
X28072002Y-25886726D01*
X27990206Y-25952491D01*
X27913312Y-26014315D01*
X27913309Y-26014318D01*
X27911447Y-26015815D01*
X27909908Y-26017649D01*
X27909907Y-26017650D01*
X27900875Y-26028414D01*
X27779024Y-26173630D01*
X27679776Y-26354162D01*
X27679052Y-26356443D01*
X27679052Y-26356444D01*
X27674678Y-26370233D01*
X27617484Y-26550532D01*
X27594520Y-26755262D01*
X27164138Y-26755262D01*
X27145480Y-26564970D01*
X27140433Y-26548251D01*
X27086626Y-26370039D01*
X27085935Y-26367749D01*
X26990492Y-26188245D01*
X26990342Y-26187962D01*
X26990339Y-26187958D01*
X26989218Y-26185849D01*
X26859011Y-26026200D01*
X26700275Y-25894882D01*
X26519055Y-25796897D01*
X26322254Y-25735977D01*
X26319879Y-25735727D01*
X26319877Y-25735727D01*
X26119752Y-25714693D01*
X26119747Y-25714693D01*
X26117369Y-25714443D01*
X26114984Y-25714660D01*
X26114979Y-25714660D01*
X26014786Y-25723779D01*
X25912203Y-25733114D01*
X25776247Y-25773128D01*
X25716875Y-25790602D01*
X25716873Y-25790603D01*
X25714572Y-25791280D01*
X25532002Y-25886726D01*
X25450206Y-25952491D01*
X25373312Y-26014315D01*
X25373309Y-26014318D01*
X25371447Y-26015815D01*
X25369908Y-26017649D01*
X25369907Y-26017650D01*
X25360875Y-26028414D01*
X25239024Y-26173630D01*
X25139776Y-26354162D01*
X25139052Y-26356443D01*
X25139052Y-26356444D01*
X25134678Y-26370233D01*
X25077484Y-26550532D01*
X25054520Y-26755262D01*
X20700500Y-26755262D01*
X20700500Y-24215262D01*
X25054520Y-24215262D01*
X25054720Y-24217644D01*
X25054720Y-24217648D01*
X25058346Y-24260828D01*
X25071759Y-24420553D01*
X25128544Y-24618586D01*
X25222712Y-24801818D01*
X25224198Y-24803693D01*
X25224200Y-24803696D01*
X25334033Y-24942270D01*
X25350677Y-24963270D01*
X25507564Y-25096791D01*
X25687398Y-25197297D01*
X25735936Y-25213068D01*
X25881047Y-25260218D01*
X25881051Y-25260219D01*
X25883329Y-25260959D01*
X26087894Y-25285351D01*
X26293300Y-25269546D01*
X26491725Y-25214145D01*
X26493854Y-25213070D01*
X26493858Y-25213068D01*
X26580728Y-25169186D01*
X26675610Y-25121258D01*
X26837951Y-24994424D01*
X26863500Y-24964825D01*
X26970993Y-24840293D01*
X26970997Y-24840288D01*
X26972564Y-24838472D01*
X27074323Y-24659344D01*
X27087882Y-24618586D01*
X27138595Y-24466135D01*
X27139351Y-24463863D01*
X27165171Y-24259474D01*
X27165583Y-24230000D01*
X27164138Y-24215262D01*
X27594520Y-24215262D01*
X27594720Y-24217644D01*
X27594720Y-24217648D01*
X27598346Y-24260828D01*
X27611759Y-24420553D01*
X27668544Y-24618586D01*
X27762712Y-24801818D01*
X27764198Y-24803693D01*
X27764200Y-24803696D01*
X27874033Y-24942270D01*
X27890677Y-24963270D01*
X28047564Y-25096791D01*
X28227398Y-25197297D01*
X28275936Y-25213068D01*
X28421047Y-25260218D01*
X28421051Y-25260219D01*
X28423329Y-25260959D01*
X28627894Y-25285351D01*
X28833300Y-25269546D01*
X29031725Y-25214145D01*
X29033854Y-25213070D01*
X29033858Y-25213068D01*
X29120728Y-25169186D01*
X29215610Y-25121258D01*
X29377951Y-24994424D01*
X29403500Y-24964825D01*
X29510993Y-24840293D01*
X29510997Y-24840288D01*
X29512564Y-24838472D01*
X29614323Y-24659344D01*
X29627882Y-24618586D01*
X29678595Y-24466135D01*
X29679351Y-24463863D01*
X29705171Y-24259474D01*
X29705583Y-24230000D01*
X29704138Y-24215262D01*
X30134520Y-24215262D01*
X30134720Y-24217644D01*
X30134720Y-24217648D01*
X30138346Y-24260828D01*
X30151759Y-24420553D01*
X30208544Y-24618586D01*
X30302712Y-24801818D01*
X30304198Y-24803693D01*
X30304200Y-24803696D01*
X30414033Y-24942270D01*
X30430677Y-24963270D01*
X30587564Y-25096791D01*
X30767398Y-25197297D01*
X30815936Y-25213068D01*
X30961047Y-25260218D01*
X30961051Y-25260219D01*
X30963329Y-25260959D01*
X31167894Y-25285351D01*
X31373300Y-25269546D01*
X31571725Y-25214145D01*
X31573854Y-25213070D01*
X31573858Y-25213068D01*
X31660728Y-25169186D01*
X31755610Y-25121258D01*
X31917951Y-24994424D01*
X31943500Y-24964825D01*
X32050993Y-24840293D01*
X32050997Y-24840288D01*
X32052564Y-24838472D01*
X32154323Y-24659344D01*
X32167882Y-24618586D01*
X32218595Y-24466135D01*
X32219351Y-24463863D01*
X32245171Y-24259474D01*
X32245583Y-24230000D01*
X32244138Y-24215262D01*
X32674520Y-24215262D01*
X32674720Y-24217644D01*
X32674720Y-24217648D01*
X32678346Y-24260828D01*
X32691759Y-24420553D01*
X32748544Y-24618586D01*
X32842712Y-24801818D01*
X32844198Y-24803693D01*
X32844200Y-24803696D01*
X32954033Y-24942270D01*
X32970677Y-24963270D01*
X33127564Y-25096791D01*
X33307398Y-25197297D01*
X33355936Y-25213068D01*
X33501047Y-25260218D01*
X33501051Y-25260219D01*
X33503329Y-25260959D01*
X33707894Y-25285351D01*
X33913300Y-25269546D01*
X34111725Y-25214145D01*
X34113854Y-25213070D01*
X34113858Y-25213068D01*
X34200728Y-25169186D01*
X34295610Y-25121258D01*
X34457951Y-24994424D01*
X34483500Y-24964825D01*
X34590993Y-24840293D01*
X34590997Y-24840288D01*
X34592564Y-24838472D01*
X34694323Y-24659344D01*
X34707882Y-24618586D01*
X34758595Y-24466135D01*
X34759351Y-24463863D01*
X34785171Y-24259474D01*
X34785583Y-24230000D01*
X34784138Y-24215262D01*
X35214520Y-24215262D01*
X35214720Y-24217644D01*
X35214720Y-24217648D01*
X35218346Y-24260828D01*
X35231759Y-24420553D01*
X35288544Y-24618586D01*
X35382712Y-24801818D01*
X35384198Y-24803693D01*
X35384200Y-24803696D01*
X35494033Y-24942270D01*
X35510677Y-24963270D01*
X35667564Y-25096791D01*
X35847398Y-25197297D01*
X35895936Y-25213068D01*
X36041047Y-25260218D01*
X36041051Y-25260219D01*
X36043329Y-25260959D01*
X36247894Y-25285351D01*
X36453300Y-25269546D01*
X36651725Y-25214145D01*
X36653854Y-25213070D01*
X36653858Y-25213068D01*
X36740728Y-25169186D01*
X36835610Y-25121258D01*
X36997951Y-24994424D01*
X37023500Y-24964825D01*
X37130993Y-24840293D01*
X37130997Y-24840288D01*
X37132564Y-24838472D01*
X37234323Y-24659344D01*
X37247882Y-24618586D01*
X37298595Y-24466135D01*
X37299351Y-24463863D01*
X37325171Y-24259474D01*
X37325583Y-24230000D01*
X37324138Y-24215262D01*
X37754520Y-24215262D01*
X37754720Y-24217644D01*
X37754720Y-24217648D01*
X37758346Y-24260828D01*
X37771759Y-24420553D01*
X37828544Y-24618586D01*
X37922712Y-24801818D01*
X37924198Y-24803693D01*
X37924200Y-24803696D01*
X38034033Y-24942270D01*
X38050677Y-24963270D01*
X38207564Y-25096791D01*
X38387398Y-25197297D01*
X38435936Y-25213068D01*
X38581047Y-25260218D01*
X38581051Y-25260219D01*
X38583329Y-25260959D01*
X38787894Y-25285351D01*
X38993300Y-25269546D01*
X39191725Y-25214145D01*
X39193854Y-25213070D01*
X39193858Y-25213068D01*
X39280728Y-25169186D01*
X39375610Y-25121258D01*
X39537951Y-24994424D01*
X39563500Y-24964825D01*
X39670993Y-24840293D01*
X39670997Y-24840288D01*
X39672564Y-24838472D01*
X39774323Y-24659344D01*
X39787882Y-24618586D01*
X39838595Y-24466135D01*
X39839351Y-24463863D01*
X39865171Y-24259474D01*
X39865583Y-24230000D01*
X39864138Y-24215262D01*
X40294520Y-24215262D01*
X40294720Y-24217644D01*
X40294720Y-24217648D01*
X40298346Y-24260828D01*
X40311759Y-24420553D01*
X40368544Y-24618586D01*
X40462712Y-24801818D01*
X40464198Y-24803693D01*
X40464200Y-24803696D01*
X40574033Y-24942270D01*
X40590677Y-24963270D01*
X40747564Y-25096791D01*
X40927398Y-25197297D01*
X40975936Y-25213068D01*
X41121047Y-25260218D01*
X41121051Y-25260219D01*
X41123329Y-25260959D01*
X41327894Y-25285351D01*
X41533300Y-25269546D01*
X41731725Y-25214145D01*
X41733854Y-25213070D01*
X41733858Y-25213068D01*
X41820728Y-25169186D01*
X41915610Y-25121258D01*
X42077951Y-24994424D01*
X42103500Y-24964825D01*
X42210993Y-24840293D01*
X42210997Y-24840288D01*
X42212564Y-24838472D01*
X42314323Y-24659344D01*
X42327882Y-24618586D01*
X42378595Y-24466135D01*
X42379351Y-24463863D01*
X42405171Y-24259474D01*
X42405583Y-24230000D01*
X42404138Y-24215262D01*
X42834520Y-24215262D01*
X42834720Y-24217644D01*
X42834720Y-24217648D01*
X42838346Y-24260828D01*
X42851759Y-24420553D01*
X42908544Y-24618586D01*
X43002712Y-24801818D01*
X43004198Y-24803693D01*
X43004200Y-24803696D01*
X43114033Y-24942270D01*
X43130677Y-24963270D01*
X43287564Y-25096791D01*
X43467398Y-25197297D01*
X43515936Y-25213068D01*
X43661047Y-25260218D01*
X43661051Y-25260219D01*
X43663329Y-25260959D01*
X43867894Y-25285351D01*
X44073300Y-25269546D01*
X44271725Y-25214145D01*
X44273854Y-25213070D01*
X44273858Y-25213068D01*
X44360728Y-25169186D01*
X44455610Y-25121258D01*
X44617951Y-24994424D01*
X44643500Y-24964825D01*
X44750993Y-24840293D01*
X44750997Y-24840288D01*
X44752564Y-24838472D01*
X44854323Y-24659344D01*
X44867882Y-24618586D01*
X44918595Y-24466135D01*
X44919351Y-24463863D01*
X44945171Y-24259474D01*
X44945583Y-24230000D01*
X44925480Y-24024970D01*
X44920433Y-24008251D01*
X44866626Y-23830039D01*
X44865935Y-23827749D01*
X44857596Y-23812066D01*
X44770342Y-23647962D01*
X44770339Y-23647958D01*
X44769218Y-23645849D01*
X44639011Y-23486200D01*
X44480275Y-23354882D01*
X44299055Y-23256897D01*
X44102254Y-23195977D01*
X44099879Y-23195727D01*
X44099877Y-23195727D01*
X43899752Y-23174693D01*
X43899747Y-23174693D01*
X43897369Y-23174443D01*
X43894984Y-23174660D01*
X43894979Y-23174660D01*
X43794786Y-23183779D01*
X43692203Y-23193114D01*
X43551244Y-23234600D01*
X43496875Y-23250602D01*
X43496873Y-23250603D01*
X43494572Y-23251280D01*
X43312002Y-23346726D01*
X43230206Y-23412491D01*
X43153312Y-23474315D01*
X43153309Y-23474318D01*
X43151447Y-23475815D01*
X43149908Y-23477649D01*
X43149907Y-23477650D01*
X43101151Y-23535755D01*
X43019024Y-23633630D01*
X42919776Y-23814162D01*
X42919052Y-23816443D01*
X42919052Y-23816444D01*
X42906616Y-23855649D01*
X42857484Y-24010532D01*
X42834520Y-24215262D01*
X42404138Y-24215262D01*
X42385480Y-24024970D01*
X42380433Y-24008251D01*
X42326626Y-23830039D01*
X42325935Y-23827749D01*
X42317596Y-23812066D01*
X42230342Y-23647962D01*
X42230339Y-23647958D01*
X42229218Y-23645849D01*
X42099011Y-23486200D01*
X41940275Y-23354882D01*
X41759055Y-23256897D01*
X41562254Y-23195977D01*
X41559879Y-23195727D01*
X41559877Y-23195727D01*
X41359752Y-23174693D01*
X41359747Y-23174693D01*
X41357369Y-23174443D01*
X41354984Y-23174660D01*
X41354979Y-23174660D01*
X41254786Y-23183779D01*
X41152203Y-23193114D01*
X41011244Y-23234600D01*
X40956875Y-23250602D01*
X40956873Y-23250603D01*
X40954572Y-23251280D01*
X40772002Y-23346726D01*
X40690206Y-23412491D01*
X40613312Y-23474315D01*
X40613309Y-23474318D01*
X40611447Y-23475815D01*
X40609908Y-23477649D01*
X40609907Y-23477650D01*
X40561151Y-23535755D01*
X40479024Y-23633630D01*
X40379776Y-23814162D01*
X40379052Y-23816443D01*
X40379052Y-23816444D01*
X40366616Y-23855649D01*
X40317484Y-24010532D01*
X40294520Y-24215262D01*
X39864138Y-24215262D01*
X39845480Y-24024970D01*
X39840433Y-24008251D01*
X39786626Y-23830039D01*
X39785935Y-23827749D01*
X39777596Y-23812066D01*
X39690342Y-23647962D01*
X39690339Y-23647958D01*
X39689218Y-23645849D01*
X39559011Y-23486200D01*
X39400275Y-23354882D01*
X39219055Y-23256897D01*
X39022254Y-23195977D01*
X39019879Y-23195727D01*
X39019877Y-23195727D01*
X38819752Y-23174693D01*
X38819747Y-23174693D01*
X38817369Y-23174443D01*
X38814984Y-23174660D01*
X38814979Y-23174660D01*
X38714786Y-23183779D01*
X38612203Y-23193114D01*
X38471244Y-23234600D01*
X38416875Y-23250602D01*
X38416873Y-23250603D01*
X38414572Y-23251280D01*
X38232002Y-23346726D01*
X38150206Y-23412491D01*
X38073312Y-23474315D01*
X38073309Y-23474318D01*
X38071447Y-23475815D01*
X38069908Y-23477649D01*
X38069907Y-23477650D01*
X38021151Y-23535755D01*
X37939024Y-23633630D01*
X37839776Y-23814162D01*
X37839052Y-23816443D01*
X37839052Y-23816444D01*
X37826616Y-23855649D01*
X37777484Y-24010532D01*
X37754520Y-24215262D01*
X37324138Y-24215262D01*
X37305480Y-24024970D01*
X37300433Y-24008251D01*
X37246626Y-23830039D01*
X37245935Y-23827749D01*
X37237596Y-23812066D01*
X37150342Y-23647962D01*
X37150339Y-23647958D01*
X37149218Y-23645849D01*
X37019011Y-23486200D01*
X36860275Y-23354882D01*
X36679055Y-23256897D01*
X36482254Y-23195977D01*
X36479879Y-23195727D01*
X36479877Y-23195727D01*
X36279752Y-23174693D01*
X36279747Y-23174693D01*
X36277369Y-23174443D01*
X36274984Y-23174660D01*
X36274979Y-23174660D01*
X36174786Y-23183779D01*
X36072203Y-23193114D01*
X35931244Y-23234600D01*
X35876875Y-23250602D01*
X35876873Y-23250603D01*
X35874572Y-23251280D01*
X35692002Y-23346726D01*
X35610206Y-23412491D01*
X35533312Y-23474315D01*
X35533309Y-23474318D01*
X35531447Y-23475815D01*
X35529908Y-23477649D01*
X35529907Y-23477650D01*
X35481151Y-23535755D01*
X35399024Y-23633630D01*
X35299776Y-23814162D01*
X35299052Y-23816443D01*
X35299052Y-23816444D01*
X35286616Y-23855649D01*
X35237484Y-24010532D01*
X35214520Y-24215262D01*
X34784138Y-24215262D01*
X34765480Y-24024970D01*
X34760433Y-24008251D01*
X34706626Y-23830039D01*
X34705935Y-23827749D01*
X34697596Y-23812066D01*
X34610342Y-23647962D01*
X34610339Y-23647958D01*
X34609218Y-23645849D01*
X34479011Y-23486200D01*
X34320275Y-23354882D01*
X34139055Y-23256897D01*
X33942254Y-23195977D01*
X33939879Y-23195727D01*
X33939877Y-23195727D01*
X33739752Y-23174693D01*
X33739747Y-23174693D01*
X33737369Y-23174443D01*
X33734984Y-23174660D01*
X33734979Y-23174660D01*
X33634786Y-23183779D01*
X33532203Y-23193114D01*
X33391244Y-23234600D01*
X33336875Y-23250602D01*
X33336873Y-23250603D01*
X33334572Y-23251280D01*
X33152002Y-23346726D01*
X33070206Y-23412491D01*
X32993312Y-23474315D01*
X32993309Y-23474318D01*
X32991447Y-23475815D01*
X32989908Y-23477649D01*
X32989907Y-23477650D01*
X32941151Y-23535755D01*
X32859024Y-23633630D01*
X32759776Y-23814162D01*
X32759052Y-23816443D01*
X32759052Y-23816444D01*
X32746616Y-23855649D01*
X32697484Y-24010532D01*
X32674520Y-24215262D01*
X32244138Y-24215262D01*
X32225480Y-24024970D01*
X32220433Y-24008251D01*
X32166626Y-23830039D01*
X32165935Y-23827749D01*
X32157596Y-23812066D01*
X32070342Y-23647962D01*
X32070339Y-23647958D01*
X32069218Y-23645849D01*
X31939011Y-23486200D01*
X31780275Y-23354882D01*
X31599055Y-23256897D01*
X31402254Y-23195977D01*
X31399879Y-23195727D01*
X31399877Y-23195727D01*
X31199752Y-23174693D01*
X31199747Y-23174693D01*
X31197369Y-23174443D01*
X31194984Y-23174660D01*
X31194979Y-23174660D01*
X31094786Y-23183779D01*
X30992203Y-23193114D01*
X30851244Y-23234600D01*
X30796875Y-23250602D01*
X30796873Y-23250603D01*
X30794572Y-23251280D01*
X30612002Y-23346726D01*
X30530206Y-23412491D01*
X30453312Y-23474315D01*
X30453309Y-23474318D01*
X30451447Y-23475815D01*
X30449908Y-23477649D01*
X30449907Y-23477650D01*
X30401151Y-23535755D01*
X30319024Y-23633630D01*
X30219776Y-23814162D01*
X30219052Y-23816443D01*
X30219052Y-23816444D01*
X30206616Y-23855649D01*
X30157484Y-24010532D01*
X30134520Y-24215262D01*
X29704138Y-24215262D01*
X29685480Y-24024970D01*
X29680433Y-24008251D01*
X29626626Y-23830039D01*
X29625935Y-23827749D01*
X29617596Y-23812066D01*
X29530342Y-23647962D01*
X29530339Y-23647958D01*
X29529218Y-23645849D01*
X29399011Y-23486200D01*
X29240275Y-23354882D01*
X29059055Y-23256897D01*
X28862254Y-23195977D01*
X28859879Y-23195727D01*
X28859877Y-23195727D01*
X28659752Y-23174693D01*
X28659747Y-23174693D01*
X28657369Y-23174443D01*
X28654984Y-23174660D01*
X28654979Y-23174660D01*
X28554786Y-23183779D01*
X28452203Y-23193114D01*
X28311244Y-23234600D01*
X28256875Y-23250602D01*
X28256873Y-23250603D01*
X28254572Y-23251280D01*
X28072002Y-23346726D01*
X27990206Y-23412491D01*
X27913312Y-23474315D01*
X27913309Y-23474318D01*
X27911447Y-23475815D01*
X27909908Y-23477649D01*
X27909907Y-23477650D01*
X27861151Y-23535755D01*
X27779024Y-23633630D01*
X27679776Y-23814162D01*
X27679052Y-23816443D01*
X27679052Y-23816444D01*
X27666616Y-23855649D01*
X27617484Y-24010532D01*
X27594520Y-24215262D01*
X27164138Y-24215262D01*
X27145480Y-24024970D01*
X27140433Y-24008251D01*
X27086626Y-23830039D01*
X27085935Y-23827749D01*
X27077596Y-23812066D01*
X26990342Y-23647962D01*
X26990339Y-23647958D01*
X26989218Y-23645849D01*
X26859011Y-23486200D01*
X26700275Y-23354882D01*
X26519055Y-23256897D01*
X26322254Y-23195977D01*
X26319879Y-23195727D01*
X26319877Y-23195727D01*
X26119752Y-23174693D01*
X26119747Y-23174693D01*
X26117369Y-23174443D01*
X26114984Y-23174660D01*
X26114979Y-23174660D01*
X26014786Y-23183779D01*
X25912203Y-23193114D01*
X25771244Y-23234600D01*
X25716875Y-23250602D01*
X25716873Y-23250603D01*
X25714572Y-23251280D01*
X25532002Y-23346726D01*
X25450206Y-23412491D01*
X25373312Y-23474315D01*
X25373309Y-23474318D01*
X25371447Y-23475815D01*
X25369908Y-23477649D01*
X25369907Y-23477650D01*
X25321151Y-23535755D01*
X25239024Y-23633630D01*
X25139776Y-23814162D01*
X25139052Y-23816443D01*
X25139052Y-23816444D01*
X25126616Y-23855649D01*
X25077484Y-24010532D01*
X25054520Y-24215262D01*
X20700500Y-24215262D01*
X20700500Y-21528560D01*
X20701766Y-21517495D01*
X20705029Y-21503420D01*
X20705029Y-21503417D01*
X20705655Y-21500718D01*
X20705656Y-21500000D01*
X20703827Y-21491981D01*
X20702836Y-21476282D01*
X20702857Y-21476075D01*
X20715389Y-21348828D01*
X20717263Y-21339407D01*
X20759957Y-21198664D01*
X20763633Y-21189790D01*
X20832965Y-21060079D01*
X20838301Y-21052092D01*
X20931606Y-20938399D01*
X20938399Y-20931606D01*
X21052092Y-20838301D01*
X21060079Y-20832965D01*
X21189790Y-20763633D01*
X21198664Y-20759957D01*
X21339407Y-20717263D01*
X21348828Y-20715389D01*
X21360376Y-20714252D01*
X21476078Y-20702856D01*
X21491860Y-20703867D01*
X21493420Y-20704226D01*
X21494265Y-20704420D01*
X21494266Y-20704420D01*
X21499641Y-20705656D01*
X21517090Y-20701708D01*
X21527902Y-20700500D01*
X48471657Y-20700500D01*
X48482638Y-20701746D01*
G37*
%TD.AperFunction*%
%TA.AperFunction,Conductor*%
G36*
X32852223Y-35450807D02*
G01*
X32871770Y-35463868D01*
X32930253Y-35475501D01*
X33169749Y-35475501D01*
X33172120Y-35475029D01*
X33174183Y-35474826D01*
X33210072Y-35485710D01*
X33227754Y-35518783D01*
X33220207Y-35549430D01*
X33219596Y-35550122D01*
X33164754Y-35666932D01*
X33164217Y-35670379D01*
X33164217Y-35670380D01*
X33150964Y-35755501D01*
X33144901Y-35794440D01*
X33145353Y-35797897D01*
X33145353Y-35797900D01*
X33156930Y-35886429D01*
X33161633Y-35922394D01*
X33163040Y-35925591D01*
X33163040Y-35925592D01*
X33192872Y-35993391D01*
X33213605Y-36040510D01*
X33215851Y-36043182D01*
X33215853Y-36043185D01*
X33289935Y-36131316D01*
X33296639Y-36139291D01*
X33404060Y-36210796D01*
X33407386Y-36211835D01*
X33407388Y-36211836D01*
X33449630Y-36225033D01*
X33527233Y-36249278D01*
X33530723Y-36249342D01*
X33556920Y-36249822D01*
X33656255Y-36251643D01*
X33780755Y-36217700D01*
X33783726Y-36215876D01*
X33783728Y-36215875D01*
X33887750Y-36152005D01*
X33890724Y-36150179D01*
X33977322Y-36054507D01*
X34016681Y-35973270D01*
X34032065Y-35941519D01*
X34032066Y-35941517D01*
X34033588Y-35938375D01*
X34034594Y-35932399D01*
X34053570Y-35819602D01*
X34067243Y-35793083D01*
X34168595Y-35691731D01*
X34171747Y-35688843D01*
X34199906Y-35665215D01*
X34199909Y-35665212D01*
X34203193Y-35662456D01*
X34223715Y-35626909D01*
X34226012Y-35623304D01*
X34247093Y-35593198D01*
X34249553Y-35589685D01*
X34251648Y-35581865D01*
X34256542Y-35570053D01*
X34258441Y-35566763D01*
X34260587Y-35563046D01*
X34262976Y-35549500D01*
X34267713Y-35522629D01*
X34268635Y-35518471D01*
X34270417Y-35511818D01*
X34293246Y-35482066D01*
X34317747Y-35475501D01*
X34450500Y-35475501D01*
X34485148Y-35489853D01*
X34499500Y-35524501D01*
X34499500Y-35532829D01*
X34499501Y-35532834D01*
X34499501Y-35534179D01*
X34513744Y-35605788D01*
X34516424Y-35609800D01*
X34516425Y-35609801D01*
X34554690Y-35667069D01*
X34568004Y-35686995D01*
X34649211Y-35741255D01*
X34720819Y-35755499D01*
X34722162Y-35755499D01*
X34722172Y-35755501D01*
X35516940Y-35755501D01*
X35551588Y-35769853D01*
X35565940Y-35804501D01*
X35563008Y-35821196D01*
X35555670Y-35841439D01*
X35550497Y-35863352D01*
X35545000Y-35910567D01*
X35545000Y-35921652D01*
X35528257Y-35958537D01*
X35500988Y-35982385D01*
X35468731Y-35994500D01*
X34449000Y-35994500D01*
X34446648Y-35994968D01*
X34446636Y-35994969D01*
X34428599Y-35998557D01*
X34419040Y-35999499D01*
X34330252Y-35999499D01*
X34271769Y-36011132D01*
X34267755Y-36013814D01*
X34253268Y-36023494D01*
X34205448Y-36055447D01*
X34161133Y-36121768D01*
X34149500Y-36180251D01*
X34149500Y-36419747D01*
X34161133Y-36478230D01*
X34163815Y-36482244D01*
X34174194Y-36497777D01*
X34181511Y-36534559D01*
X34174194Y-36552223D01*
X34161133Y-36571770D01*
X34149500Y-36630253D01*
X34149500Y-36869749D01*
X34161133Y-36928232D01*
X34205448Y-36994553D01*
X34271769Y-37038868D01*
X34330252Y-37050501D01*
X34419040Y-37050501D01*
X34428599Y-37051443D01*
X34446636Y-37055031D01*
X34446648Y-37055032D01*
X34449000Y-37055500D01*
X35559642Y-37055500D01*
X35590540Y-37066470D01*
X36113034Y-37490995D01*
X36115504Y-37493002D01*
X36133345Y-37525990D01*
X36122635Y-37561931D01*
X36113717Y-37570447D01*
X36106150Y-37576036D01*
X36101032Y-37581154D01*
X36024993Y-37684102D01*
X36021597Y-37690515D01*
X35978968Y-37811907D01*
X35977697Y-37817698D01*
X35975108Y-37845083D01*
X35975000Y-37847385D01*
X35975000Y-38040253D01*
X35977855Y-38047145D01*
X35984747Y-38050000D01*
X36951000Y-38050000D01*
X36985648Y-38064352D01*
X37000000Y-38099000D01*
X37000000Y-38840252D01*
X37002855Y-38847144D01*
X37009747Y-38849999D01*
X37427613Y-38849999D01*
X37429918Y-38849890D01*
X37457303Y-38847303D01*
X37463092Y-38846033D01*
X37584485Y-38803403D01*
X37590898Y-38800007D01*
X37693846Y-38723968D01*
X37698968Y-38718846D01*
X37775974Y-38614589D01*
X37808103Y-38595246D01*
X37824945Y-38595643D01*
X37874500Y-38605500D01*
X38159803Y-38605500D01*
X38194451Y-38619852D01*
X38208803Y-38654500D01*
X38199217Y-38683612D01*
X38124993Y-38784102D01*
X38121597Y-38790515D01*
X38078968Y-38911907D01*
X38077697Y-38917698D01*
X38075108Y-38945083D01*
X38075000Y-38947385D01*
X38075000Y-39140253D01*
X38077855Y-39147145D01*
X38084747Y-39150000D01*
X39051000Y-39150000D01*
X39085648Y-39164352D01*
X39100000Y-39199000D01*
X39100000Y-39940252D01*
X39102855Y-39947144D01*
X39109747Y-39949999D01*
X39527613Y-39949999D01*
X39529918Y-39949890D01*
X39557303Y-39947303D01*
X39563092Y-39946033D01*
X39684485Y-39903403D01*
X39690898Y-39900007D01*
X39716388Y-39881180D01*
X39752785Y-39872139D01*
X39784914Y-39891482D01*
X39794500Y-39920594D01*
X39794500Y-41563834D01*
X39780148Y-41598482D01*
X39745500Y-41612834D01*
X39718851Y-41604954D01*
X39690906Y-41586841D01*
X39687562Y-41585841D01*
X39687560Y-41585840D01*
X39570623Y-41550868D01*
X39570624Y-41550868D01*
X39567273Y-41549866D01*
X39501073Y-41549462D01*
X39441723Y-41549099D01*
X39441721Y-41549099D01*
X39438231Y-41549078D01*
X39434876Y-41550037D01*
X39434875Y-41550037D01*
X39337846Y-41577768D01*
X39314155Y-41584539D01*
X39311204Y-41586401D01*
X39300647Y-41593062D01*
X39263686Y-41599413D01*
X39233059Y-41577768D01*
X39225500Y-41551621D01*
X39225500Y-41496166D01*
X39225291Y-41493947D01*
X39222800Y-41467603D01*
X39222519Y-41464631D01*
X39185507Y-41359235D01*
X39178850Y-41340278D01*
X39178849Y-41340277D01*
X39177634Y-41336816D01*
X39097150Y-41227850D01*
X38988184Y-41147366D01*
X38984723Y-41146151D01*
X38984722Y-41146150D01*
X38863188Y-41103471D01*
X38860369Y-41102481D01*
X38857397Y-41102200D01*
X38829980Y-41099608D01*
X38829973Y-41099608D01*
X38828834Y-41099500D01*
X38196166Y-41099500D01*
X38195027Y-41099608D01*
X38195020Y-41099608D01*
X38167603Y-41102200D01*
X38164631Y-41102481D01*
X38161812Y-41103471D01*
X38040278Y-41146150D01*
X38040277Y-41146151D01*
X38036816Y-41147366D01*
X37927850Y-41227850D01*
X37847366Y-41336816D01*
X37846151Y-41340277D01*
X37846150Y-41340278D01*
X37839493Y-41359235D01*
X37802481Y-41464631D01*
X37802200Y-41467603D01*
X37799710Y-41493947D01*
X37799500Y-41496166D01*
X37799500Y-42167075D01*
X37785148Y-42201723D01*
X37750500Y-42216075D01*
X37723849Y-42208193D01*
X37693837Y-42188741D01*
X37690906Y-42186841D01*
X37687562Y-42185841D01*
X37687560Y-42185840D01*
X37570623Y-42150868D01*
X37570624Y-42150868D01*
X37567273Y-42149866D01*
X37529962Y-42149638D01*
X37495613Y-42135287D01*
X37414852Y-42054526D01*
X37400500Y-42019878D01*
X37400500Y-41496166D01*
X37400291Y-41493947D01*
X37397800Y-41467603D01*
X37397519Y-41464631D01*
X37360507Y-41359235D01*
X37353850Y-41340278D01*
X37353849Y-41340277D01*
X37352634Y-41336816D01*
X37272150Y-41227850D01*
X37163184Y-41147366D01*
X37159723Y-41146151D01*
X37159722Y-41146150D01*
X37059992Y-41111128D01*
X37045765Y-41106132D01*
X37017829Y-41081111D01*
X37013000Y-41059900D01*
X37013000Y-40799500D01*
X37027352Y-40764852D01*
X37062000Y-40750500D01*
X37428834Y-40750500D01*
X37429973Y-40750392D01*
X37429980Y-40750392D01*
X37457397Y-40747800D01*
X37460369Y-40747519D01*
X37549938Y-40716065D01*
X37584722Y-40703850D01*
X37584723Y-40703849D01*
X37588184Y-40702634D01*
X37697150Y-40622150D01*
X37777634Y-40513184D01*
X37780918Y-40503834D01*
X37816594Y-40402240D01*
X37822519Y-40385369D01*
X37823395Y-40376101D01*
X37825392Y-40354980D01*
X37825392Y-40354973D01*
X37825500Y-40353834D01*
X37825500Y-39746166D01*
X37824376Y-39734268D01*
X37822800Y-39717603D01*
X37822519Y-39714631D01*
X37783216Y-39602711D01*
X37778850Y-39590278D01*
X37778849Y-39590277D01*
X37777634Y-39586816D01*
X37752371Y-39552613D01*
X38075001Y-39552613D01*
X38075110Y-39554918D01*
X38077697Y-39582303D01*
X38078967Y-39588092D01*
X38121597Y-39709485D01*
X38124993Y-39715898D01*
X38201032Y-39818846D01*
X38206154Y-39823968D01*
X38309102Y-39900007D01*
X38315515Y-39903403D01*
X38436907Y-39946032D01*
X38442698Y-39947303D01*
X38470083Y-39949892D01*
X38472385Y-39950000D01*
X38890253Y-39950000D01*
X38897145Y-39947145D01*
X38900000Y-39940253D01*
X38900000Y-39359747D01*
X38897145Y-39352855D01*
X38890253Y-39350000D01*
X38084748Y-39350000D01*
X38077856Y-39352855D01*
X38075001Y-39359747D01*
X38075001Y-39552613D01*
X37752371Y-39552613D01*
X37697150Y-39477850D01*
X37588184Y-39397366D01*
X37584723Y-39396151D01*
X37584722Y-39396150D01*
X37463188Y-39353471D01*
X37460369Y-39352481D01*
X37457397Y-39352200D01*
X37429980Y-39349608D01*
X37429973Y-39349608D01*
X37428834Y-39349500D01*
X36371166Y-39349500D01*
X36370027Y-39349608D01*
X36370020Y-39349608D01*
X36342601Y-39352200D01*
X36342599Y-39352200D01*
X36339631Y-39352481D01*
X36271947Y-39376250D01*
X36234501Y-39374189D01*
X36221064Y-39364666D01*
X35309011Y-38452613D01*
X35975001Y-38452613D01*
X35975110Y-38454918D01*
X35977697Y-38482303D01*
X35978967Y-38488092D01*
X36021597Y-38609485D01*
X36024993Y-38615898D01*
X36101032Y-38718846D01*
X36106154Y-38723968D01*
X36209102Y-38800007D01*
X36215515Y-38803403D01*
X36336907Y-38846032D01*
X36342698Y-38847303D01*
X36370083Y-38849892D01*
X36372385Y-38850000D01*
X36790253Y-38850000D01*
X36797145Y-38847145D01*
X36800000Y-38840253D01*
X36800000Y-38259747D01*
X36797145Y-38252855D01*
X36790253Y-38250000D01*
X35984748Y-38250000D01*
X35977856Y-38252855D01*
X35975001Y-38259747D01*
X35975001Y-38452613D01*
X35309011Y-38452613D01*
X35214852Y-38358454D01*
X35200500Y-38323806D01*
X35200500Y-38297249D01*
X35214852Y-38262601D01*
X35222277Y-38256507D01*
X35223799Y-38255490D01*
X35227810Y-38252810D01*
X35245102Y-38226931D01*
X35282703Y-38170657D01*
X35282704Y-38170654D01*
X35285385Y-38166642D01*
X35300500Y-38090654D01*
X35300500Y-38054502D01*
X35314852Y-38019854D01*
X35349500Y-38005502D01*
X35577828Y-38005502D01*
X35649875Y-37991171D01*
X35731577Y-37936579D01*
X35786169Y-37854877D01*
X35800500Y-37782830D01*
X35800500Y-37517174D01*
X35786169Y-37445127D01*
X35731577Y-37363425D01*
X35649875Y-37308833D01*
X35577828Y-37294502D01*
X35065674Y-37294502D01*
X35065661Y-37294501D01*
X35065654Y-37294500D01*
X34734346Y-37294500D01*
X34734339Y-37294501D01*
X34734326Y-37294502D01*
X34722172Y-37294502D01*
X34650125Y-37308833D01*
X34568423Y-37363425D01*
X34513831Y-37445127D01*
X34499500Y-37517174D01*
X34499500Y-37525499D01*
X34485148Y-37560147D01*
X34450500Y-37574499D01*
X34280253Y-37574499D01*
X34221770Y-37586132D01*
X34217758Y-37588813D01*
X34217756Y-37588814D01*
X34202223Y-37599193D01*
X34165441Y-37606510D01*
X34147777Y-37599193D01*
X34132244Y-37588814D01*
X34132242Y-37588813D01*
X34128230Y-37586132D01*
X34069747Y-37574499D01*
X33830251Y-37574499D01*
X33771768Y-37586132D01*
X33752222Y-37599192D01*
X33715441Y-37606509D01*
X33697777Y-37599192D01*
X33682246Y-37588814D01*
X33682243Y-37588813D01*
X33678231Y-37586132D01*
X33619748Y-37574499D01*
X33602267Y-37574499D01*
X33567619Y-37560147D01*
X33553267Y-37525499D01*
X33553946Y-37517372D01*
X33554683Y-37512989D01*
X33554684Y-37512983D01*
X33554997Y-37511120D01*
X33555049Y-37506832D01*
X33555110Y-37501902D01*
X33555110Y-37501899D01*
X33555133Y-37500000D01*
X33536839Y-37372259D01*
X33483428Y-37254788D01*
X33399193Y-37157028D01*
X33360776Y-37132128D01*
X33293837Y-37088740D01*
X33293833Y-37088738D01*
X33290906Y-37086841D01*
X33287562Y-37085841D01*
X33287560Y-37085840D01*
X33170623Y-37050868D01*
X33170624Y-37050868D01*
X33167273Y-37049866D01*
X33101073Y-37049462D01*
X33041723Y-37049099D01*
X33041721Y-37049099D01*
X33038231Y-37049078D01*
X33034876Y-37050037D01*
X33034875Y-37050037D01*
X32977377Y-37066470D01*
X32914155Y-37084539D01*
X32805019Y-37153399D01*
X32719596Y-37250122D01*
X32718112Y-37253283D01*
X32666401Y-37363425D01*
X32664754Y-37366932D01*
X32664217Y-37370379D01*
X32664217Y-37370380D01*
X32650445Y-37458835D01*
X32644901Y-37494440D01*
X32647565Y-37514808D01*
X32648132Y-37519145D01*
X32638395Y-37555362D01*
X32605900Y-37574085D01*
X32599546Y-37574499D01*
X32480251Y-37574499D01*
X32421768Y-37586132D01*
X32355447Y-37630447D01*
X32311132Y-37696768D01*
X32299499Y-37755251D01*
X32299499Y-38006352D01*
X32292934Y-38030852D01*
X32289411Y-38036954D01*
X32288667Y-38041173D01*
X32278471Y-38099000D01*
X32274499Y-38121524D01*
X32274499Y-38684878D01*
X32260147Y-38719526D01*
X31899526Y-39080148D01*
X31864878Y-39094500D01*
X31336512Y-39094500D01*
X31271859Y-39104740D01*
X31240680Y-39109678D01*
X31240679Y-39109678D01*
X31236874Y-39110281D01*
X31210012Y-39123968D01*
X31120214Y-39169722D01*
X31120213Y-39169723D01*
X31116780Y-39171472D01*
X31021472Y-39266780D01*
X31019723Y-39270213D01*
X31019722Y-39270214D01*
X31015854Y-39277806D01*
X30960281Y-39386874D01*
X30959678Y-39390679D01*
X30959678Y-39390680D01*
X30954740Y-39421859D01*
X30944500Y-39486512D01*
X30944500Y-40003488D01*
X30960281Y-40103126D01*
X30967579Y-40117449D01*
X31018377Y-40217145D01*
X31021472Y-40223220D01*
X31109104Y-40310852D01*
X31123456Y-40345500D01*
X31109104Y-40380148D01*
X31074456Y-40394500D01*
X30423425Y-40394500D01*
X30367558Y-40402240D01*
X30365946Y-40402695D01*
X30365943Y-40402696D01*
X30343542Y-40409024D01*
X30343535Y-40409026D01*
X30341919Y-40409483D01*
X30340371Y-40410161D01*
X30340369Y-40410162D01*
X30310165Y-40423397D01*
X30303388Y-40425792D01*
X30237362Y-40443793D01*
X30223575Y-40445510D01*
X30195509Y-40444995D01*
X30167441Y-40444481D01*
X30153731Y-40442260D01*
X30071519Y-40416576D01*
X30065239Y-40414127D01*
X30059735Y-40411531D01*
X30058675Y-40411210D01*
X30058660Y-40411258D01*
X30057415Y-40410779D01*
X30057401Y-40410824D01*
X30032501Y-40403295D01*
X29973024Y-40394500D01*
X29823425Y-40394500D01*
X29767558Y-40402240D01*
X29765946Y-40402695D01*
X29765943Y-40402696D01*
X29743542Y-40409024D01*
X29743535Y-40409026D01*
X29741919Y-40409483D01*
X29740371Y-40410161D01*
X29740369Y-40410162D01*
X29710165Y-40423397D01*
X29703388Y-40425792D01*
X29637362Y-40443793D01*
X29623575Y-40445510D01*
X29595509Y-40444995D01*
X29567441Y-40444481D01*
X29553731Y-40442260D01*
X29471519Y-40416576D01*
X29465239Y-40414127D01*
X29459735Y-40411531D01*
X29458675Y-40411210D01*
X29458660Y-40411258D01*
X29457415Y-40410779D01*
X29457401Y-40410824D01*
X29432501Y-40403295D01*
X29373024Y-40394500D01*
X29223425Y-40394500D01*
X29167558Y-40402240D01*
X29165946Y-40402695D01*
X29165943Y-40402696D01*
X29143542Y-40409024D01*
X29143535Y-40409026D01*
X29141919Y-40409483D01*
X29140371Y-40410161D01*
X29140369Y-40410162D01*
X29110165Y-40423397D01*
X29103388Y-40425792D01*
X29037362Y-40443793D01*
X29023575Y-40445510D01*
X28995509Y-40444995D01*
X28967441Y-40444481D01*
X28953731Y-40442260D01*
X28871519Y-40416576D01*
X28865239Y-40414127D01*
X28859735Y-40411531D01*
X28858675Y-40411210D01*
X28858660Y-40411258D01*
X28857415Y-40410779D01*
X28857401Y-40410824D01*
X28832501Y-40403295D01*
X28773024Y-40394500D01*
X28623425Y-40394500D01*
X28567558Y-40402240D01*
X28565946Y-40402695D01*
X28565943Y-40402696D01*
X28543542Y-40409024D01*
X28543535Y-40409026D01*
X28541919Y-40409483D01*
X28540371Y-40410161D01*
X28540369Y-40410162D01*
X28510165Y-40423397D01*
X28503388Y-40425792D01*
X28437362Y-40443793D01*
X28423575Y-40445510D01*
X28395509Y-40444995D01*
X28367441Y-40444481D01*
X28353731Y-40442260D01*
X28271519Y-40416576D01*
X28265239Y-40414127D01*
X28259735Y-40411531D01*
X28258675Y-40411210D01*
X28258660Y-40411258D01*
X28257415Y-40410779D01*
X28257401Y-40410824D01*
X28232501Y-40403295D01*
X28173024Y-40394500D01*
X27904500Y-40394500D01*
X27869852Y-40380148D01*
X27855500Y-40345500D01*
X27855500Y-39277806D01*
X27869852Y-39243158D01*
X27904500Y-39228806D01*
X27920735Y-39231574D01*
X27961907Y-39246032D01*
X27967698Y-39247303D01*
X27995083Y-39249892D01*
X27997385Y-39250000D01*
X28590253Y-39250000D01*
X28597145Y-39247145D01*
X28600000Y-39240253D01*
X28600000Y-39240252D01*
X28800000Y-39240252D01*
X28802855Y-39247144D01*
X28809747Y-39249999D01*
X29402613Y-39249999D01*
X29404918Y-39249890D01*
X29432303Y-39247303D01*
X29438092Y-39246033D01*
X29559485Y-39203403D01*
X29565898Y-39200007D01*
X29668846Y-39123968D01*
X29673968Y-39118846D01*
X29750007Y-39015898D01*
X29753403Y-39009485D01*
X29796032Y-38888093D01*
X29797303Y-38882302D01*
X29799892Y-38854917D01*
X29800000Y-38852615D01*
X29800000Y-38584747D01*
X29797145Y-38577855D01*
X29790253Y-38575000D01*
X28809747Y-38575000D01*
X28802855Y-38577855D01*
X28800000Y-38584747D01*
X28800000Y-39240252D01*
X28600000Y-39240252D01*
X28600000Y-38424000D01*
X28614352Y-38389352D01*
X28649000Y-38375000D01*
X29790252Y-38375000D01*
X29797144Y-38372145D01*
X29799999Y-38365253D01*
X29799999Y-38097387D01*
X29799890Y-38095082D01*
X29797303Y-38067697D01*
X29796033Y-38061908D01*
X29780002Y-38016259D01*
X29782063Y-37978813D01*
X29809999Y-37953792D01*
X29820132Y-37951405D01*
X29838280Y-37949128D01*
X29839747Y-37948754D01*
X29839752Y-37948753D01*
X29849718Y-37946212D01*
X29861744Y-37943145D01*
X29863157Y-37942590D01*
X29863162Y-37942588D01*
X29907962Y-37924979D01*
X29907967Y-37924977D01*
X29909373Y-37924424D01*
X29910698Y-37923701D01*
X29910705Y-37923698D01*
X30463143Y-37622367D01*
X30463144Y-37622366D01*
X30464846Y-37621438D01*
X30516072Y-37581889D01*
X30522586Y-37574970D01*
X30535634Y-37561109D01*
X30535635Y-37561107D01*
X30536963Y-37559697D01*
X30564533Y-37519145D01*
X30572262Y-37507777D01*
X30572263Y-37507776D01*
X30573351Y-37506175D01*
X30590126Y-37470446D01*
X30597754Y-37458835D01*
X30605677Y-37449864D01*
X30634922Y-37416751D01*
X30645497Y-37407750D01*
X30692987Y-37377786D01*
X30705669Y-37372113D01*
X30759661Y-37356682D01*
X30773425Y-37354797D01*
X30862948Y-37355344D01*
X30864417Y-37355375D01*
X30885568Y-37356139D01*
X30885570Y-37356139D01*
X30889700Y-37356288D01*
X30893651Y-37355063D01*
X30895788Y-37354779D01*
X30901581Y-37353590D01*
X30927886Y-37350838D01*
X31004905Y-37326862D01*
X31007033Y-37325701D01*
X31007036Y-37325700D01*
X31441462Y-37088740D01*
X31491433Y-37061483D01*
X31514897Y-37055500D01*
X32601000Y-37055500D01*
X32603352Y-37055032D01*
X32603364Y-37055031D01*
X32621401Y-37051443D01*
X32630960Y-37050501D01*
X32669748Y-37050501D01*
X32728231Y-37038868D01*
X32794552Y-36994553D01*
X32838867Y-36928232D01*
X32850500Y-36869749D01*
X32850500Y-36830965D01*
X32851442Y-36821406D01*
X32855031Y-36803364D01*
X32855032Y-36803352D01*
X32855500Y-36801000D01*
X32855500Y-36699000D01*
X32855032Y-36696648D01*
X32855031Y-36696636D01*
X32851442Y-36678594D01*
X32850500Y-36669035D01*
X32850500Y-36630253D01*
X32838867Y-36571770D01*
X32825806Y-36552223D01*
X32818489Y-36515441D01*
X32825806Y-36497777D01*
X32836185Y-36482244D01*
X32838867Y-36478230D01*
X32850500Y-36419747D01*
X32850500Y-36180251D01*
X32838867Y-36121768D01*
X32825807Y-36102222D01*
X32818490Y-36065441D01*
X32825807Y-36047777D01*
X32836185Y-36032246D01*
X32836186Y-36032243D01*
X32838867Y-36028231D01*
X32850500Y-35969748D01*
X32850500Y-35886429D01*
X32851103Y-35878764D01*
X32853944Y-35860826D01*
X32855500Y-35851000D01*
X32855500Y-35849000D01*
X32852970Y-35816856D01*
X32851103Y-35805067D01*
X32850500Y-35797402D01*
X32850500Y-35730252D01*
X32838867Y-35671769D01*
X32830163Y-35658742D01*
X32797232Y-35609459D01*
X32794552Y-35605448D01*
X32728231Y-35561133D01*
X32729032Y-35559935D01*
X32706866Y-35537763D01*
X32706870Y-35500260D01*
X32733392Y-35473745D01*
X32742565Y-35470962D01*
X32778230Y-35463868D01*
X32797777Y-35450807D01*
X32834559Y-35443490D01*
X32852223Y-35450807D01*
G37*
%TD.AperFunction*%
%TD*%
%TA.AperFunction,Conductor*%
%TO.N,Net-(C3-Pad2)*%
G36*
X27837197Y-36252768D02*
G01*
X27964631Y-36297519D01*
X27967603Y-36297800D01*
X27995020Y-36300392D01*
X27995027Y-36300392D01*
X27996166Y-36300500D01*
X29403834Y-36300500D01*
X29404973Y-36300392D01*
X29404980Y-36300392D01*
X29432397Y-36297800D01*
X29435369Y-36297519D01*
X29562803Y-36252768D01*
X29579037Y-36250000D01*
X30169378Y-36250000D01*
X30204026Y-36264352D01*
X30458269Y-36518595D01*
X30461157Y-36521747D01*
X30484785Y-36549906D01*
X30484788Y-36549909D01*
X30487544Y-36553193D01*
X30491258Y-36555337D01*
X30523090Y-36573715D01*
X30526694Y-36576011D01*
X30560315Y-36599553D01*
X30567695Y-36601531D01*
X30568129Y-36601647D01*
X30579948Y-36606542D01*
X30586954Y-36610587D01*
X30591179Y-36611332D01*
X30627364Y-36617713D01*
X30631534Y-36618636D01*
X30669535Y-36628818D01*
X30691501Y-36641501D01*
X30700000Y-36650000D01*
X32601000Y-36650000D01*
X32635648Y-36664352D01*
X32650000Y-36699000D01*
X32650000Y-36801000D01*
X32635648Y-36835648D01*
X32601000Y-36850000D01*
X31450000Y-36850000D01*
X31444601Y-36852945D01*
X30906501Y-37146454D01*
X30874302Y-37149823D01*
X30874069Y-37151383D01*
X30870624Y-37150868D01*
X30867273Y-37149866D01*
X30801073Y-37149462D01*
X30741723Y-37149099D01*
X30741721Y-37149099D01*
X30738231Y-37149078D01*
X30734876Y-37150037D01*
X30734875Y-37150037D01*
X30710414Y-37157028D01*
X30614155Y-37184539D01*
X30505019Y-37253399D01*
X30419596Y-37350122D01*
X30418113Y-37353280D01*
X30418112Y-37353282D01*
X30387333Y-37418839D01*
X30366442Y-37441031D01*
X29810969Y-37744017D01*
X29787505Y-37750000D01*
X29579037Y-37750000D01*
X29562802Y-37747232D01*
X29438188Y-37703471D01*
X29435369Y-37702481D01*
X29432397Y-37702200D01*
X29404980Y-37699608D01*
X29404973Y-37699608D01*
X29403834Y-37699500D01*
X27996166Y-37699500D01*
X27995027Y-37699608D01*
X27995020Y-37699608D01*
X27967603Y-37702200D01*
X27964631Y-37702481D01*
X27961812Y-37703471D01*
X27837198Y-37747232D01*
X27820963Y-37750000D01*
X27650000Y-37750000D01*
X27650000Y-37920963D01*
X27647232Y-37937197D01*
X27602481Y-38064631D01*
X27599500Y-38096166D01*
X27599500Y-38853834D01*
X27602481Y-38885369D01*
X27625641Y-38951318D01*
X27647232Y-39012802D01*
X27650000Y-39029037D01*
X27650000Y-40600000D01*
X28173024Y-40600000D01*
X28197924Y-40607529D01*
X28198005Y-40607360D01*
X28199115Y-40607889D01*
X28200175Y-40608210D01*
X28204060Y-40610796D01*
X28327233Y-40649278D01*
X28330723Y-40649342D01*
X28356920Y-40649822D01*
X28456255Y-40651643D01*
X28580755Y-40617700D01*
X28583726Y-40615876D01*
X28583728Y-40615875D01*
X28597786Y-40607243D01*
X28623425Y-40600000D01*
X28773024Y-40600000D01*
X28797924Y-40607529D01*
X28798005Y-40607360D01*
X28799115Y-40607889D01*
X28800175Y-40608210D01*
X28804060Y-40610796D01*
X28927233Y-40649278D01*
X28930723Y-40649342D01*
X28956920Y-40649822D01*
X29056255Y-40651643D01*
X29180755Y-40617700D01*
X29183726Y-40615876D01*
X29183728Y-40615875D01*
X29197786Y-40607243D01*
X29223425Y-40600000D01*
X29373024Y-40600000D01*
X29397924Y-40607529D01*
X29398005Y-40607360D01*
X29399115Y-40607889D01*
X29400175Y-40608210D01*
X29404060Y-40610796D01*
X29527233Y-40649278D01*
X29530723Y-40649342D01*
X29556920Y-40649822D01*
X29656255Y-40651643D01*
X29780755Y-40617700D01*
X29783726Y-40615876D01*
X29783728Y-40615875D01*
X29797786Y-40607243D01*
X29823425Y-40600000D01*
X29973024Y-40600000D01*
X29997924Y-40607529D01*
X29998005Y-40607360D01*
X29999115Y-40607889D01*
X30000175Y-40608210D01*
X30004060Y-40610796D01*
X30127233Y-40649278D01*
X30130723Y-40649342D01*
X30156920Y-40649822D01*
X30256255Y-40651643D01*
X30380755Y-40617700D01*
X30383726Y-40615876D01*
X30383728Y-40615875D01*
X30397786Y-40607243D01*
X30423425Y-40600000D01*
X31152184Y-40600000D01*
X31186832Y-40614352D01*
X31201184Y-40649000D01*
X31186832Y-40683648D01*
X31174430Y-40692659D01*
X31120511Y-40720132D01*
X31114351Y-40724608D01*
X31024608Y-40814351D01*
X31020132Y-40820511D01*
X30962512Y-40933597D01*
X30960159Y-40940837D01*
X30945301Y-41034651D01*
X30945000Y-41038473D01*
X30945000Y-41185253D01*
X30947855Y-41192145D01*
X30954747Y-41195000D01*
X31671000Y-41195000D01*
X31705648Y-41209352D01*
X31720000Y-41244000D01*
X31720000Y-41935252D01*
X31722855Y-41942144D01*
X31729747Y-41944999D01*
X31901526Y-41944999D01*
X31905349Y-41944698D01*
X31999163Y-41929841D01*
X32006403Y-41927488D01*
X32119489Y-41869868D01*
X32125649Y-41865392D01*
X32215392Y-41775649D01*
X32219868Y-41769489D01*
X32257341Y-41695944D01*
X32285858Y-41671588D01*
X32323246Y-41674531D01*
X32347602Y-41703048D01*
X32350000Y-41718190D01*
X32350000Y-42801000D01*
X32335648Y-42835648D01*
X32301000Y-42850000D01*
X25849000Y-42850000D01*
X25814352Y-42835648D01*
X25800000Y-42801000D01*
X25800000Y-41551526D01*
X30945001Y-41551526D01*
X30945302Y-41555349D01*
X30960159Y-41649163D01*
X30962512Y-41656403D01*
X31020132Y-41769489D01*
X31024608Y-41775649D01*
X31114351Y-41865392D01*
X31120511Y-41869868D01*
X31233597Y-41927488D01*
X31240837Y-41929841D01*
X31334651Y-41944699D01*
X31338473Y-41945000D01*
X31510253Y-41945000D01*
X31517145Y-41942145D01*
X31520000Y-41935253D01*
X31520000Y-41404747D01*
X31517145Y-41397855D01*
X31510253Y-41395000D01*
X30954748Y-41395000D01*
X30947856Y-41397855D01*
X30945001Y-41404747D01*
X30945001Y-41551526D01*
X25800000Y-41551526D01*
X25800000Y-36299000D01*
X25814352Y-36264352D01*
X25849000Y-36250000D01*
X27820963Y-36250000D01*
X27837197Y-36252768D01*
G37*
%TD.AperFunction*%
%TD*%
%TA.AperFunction,Conductor*%
%TO.N,+VSW*%
G36*
X42885648Y-36214352D02*
G01*
X42900000Y-36249000D01*
X42900000Y-36252553D01*
X42896548Y-36270619D01*
X42895010Y-36274495D01*
X42892761Y-36278147D01*
X42891918Y-36282242D01*
X42891505Y-36283331D01*
X42889412Y-36286955D01*
X42882910Y-36323832D01*
X42880368Y-36338245D01*
X42880105Y-36339617D01*
X42876021Y-36359456D01*
X42869613Y-36390578D01*
X42870237Y-36394818D01*
X42873979Y-36420265D01*
X42874500Y-36427395D01*
X42874500Y-40369416D01*
X42862227Y-40401851D01*
X42819596Y-40450122D01*
X42764754Y-40566932D01*
X42764217Y-40570379D01*
X42764217Y-40570380D01*
X42749768Y-40663184D01*
X42744901Y-40694440D01*
X42745353Y-40697897D01*
X42745353Y-40697900D01*
X42748436Y-40721472D01*
X42761633Y-40822394D01*
X42813605Y-40940510D01*
X42815851Y-40943182D01*
X42815853Y-40943185D01*
X42888509Y-41029619D01*
X42900000Y-41061148D01*
X42900000Y-42540542D01*
X42887727Y-42572978D01*
X42821908Y-42647504D01*
X42819596Y-42650122D01*
X42764754Y-42766932D01*
X42764217Y-42770379D01*
X42764217Y-42770380D01*
X42751119Y-42854507D01*
X42744901Y-42894440D01*
X42761633Y-43022394D01*
X42813605Y-43140510D01*
X42815851Y-43143182D01*
X42815853Y-43143185D01*
X42824267Y-43153194D01*
X42885047Y-43225500D01*
X42888509Y-43229619D01*
X42900000Y-43261148D01*
X42900000Y-45851000D01*
X42885648Y-45885648D01*
X42851000Y-45900000D01*
X31200000Y-45900000D01*
X31200000Y-49851000D01*
X31185648Y-49885648D01*
X31151000Y-49900000D01*
X24849000Y-49900000D01*
X24814352Y-49885648D01*
X24800000Y-49851000D01*
X24800000Y-43149000D01*
X24814352Y-43114352D01*
X24849000Y-43100000D01*
X40000000Y-43100000D01*
X40000000Y-38400000D01*
X37874500Y-38400000D01*
X37839852Y-38385648D01*
X37825500Y-38351000D01*
X37825500Y-37846166D01*
X37822519Y-37814631D01*
X37802768Y-37758388D01*
X37800000Y-37742153D01*
X37800000Y-37500000D01*
X37604037Y-37500000D01*
X37587802Y-37497232D01*
X37463188Y-37453471D01*
X37460369Y-37452481D01*
X37457397Y-37452200D01*
X37429980Y-37449608D01*
X37429973Y-37449608D01*
X37428834Y-37449500D01*
X36405243Y-37449500D01*
X36374345Y-37438530D01*
X35650000Y-36850000D01*
X34449000Y-36850000D01*
X34414352Y-36835648D01*
X34400000Y-36801000D01*
X34400000Y-36699000D01*
X34414352Y-36664352D01*
X34449000Y-36650000D01*
X35646946Y-36650000D01*
X35653024Y-36650378D01*
X36048484Y-36699811D01*
X36048492Y-36699811D01*
X36050000Y-36700000D01*
X38250000Y-36700000D01*
X38725550Y-36420265D01*
X39088500Y-36206765D01*
X39113344Y-36200000D01*
X42851000Y-36200000D01*
X42885648Y-36214352D01*
G37*
%TD.AperFunction*%
%TD*%
%TA.AperFunction,Conductor*%
%TO.N,Net-(L2-Pad2)*%
G36*
X31159191Y-55118907D02*
G01*
X31195155Y-55168407D01*
X31200000Y-55199000D01*
X31200000Y-60052418D01*
X31181093Y-60110609D01*
X31162845Y-60129724D01*
X30201088Y-60899129D01*
X30201075Y-60899140D01*
X30200000Y-60900000D01*
X27300000Y-63500000D01*
X27300000Y-64701000D01*
X27281093Y-64759191D01*
X27231593Y-64795155D01*
X27201000Y-64800000D01*
X26249500Y-64800000D01*
X26191309Y-64781093D01*
X26155345Y-64731593D01*
X26150500Y-64701000D01*
X26150500Y-63680252D01*
X26138867Y-63621769D01*
X26116685Y-63588572D01*
X26100000Y-63533570D01*
X26100000Y-63500000D01*
X26094846Y-63489693D01*
X26094846Y-63489691D01*
X24810452Y-60920904D01*
X24800000Y-60876630D01*
X24800000Y-55199000D01*
X24818907Y-55140809D01*
X24868407Y-55104845D01*
X24899000Y-55100000D01*
X31101000Y-55100000D01*
X31159191Y-55118907D01*
G37*
%TD.AperFunction*%
%TD*%
%TA.AperFunction,Conductor*%
%TO.N,VBUS*%
G36*
X23526740Y-31720663D02*
G01*
X24705062Y-32631184D01*
X25700000Y-33400000D01*
X31101000Y-33400000D01*
X31159191Y-33418907D01*
X31195155Y-33468407D01*
X31200000Y-33499000D01*
X31200000Y-35262093D01*
X31199833Y-35265498D01*
X31199500Y-35267170D01*
X31199500Y-35532826D01*
X31199833Y-35534498D01*
X31200000Y-35537903D01*
X31200000Y-35750000D01*
X31384780Y-35750000D01*
X31404095Y-35751903D01*
X31414149Y-35753903D01*
X31467533Y-35783800D01*
X31493148Y-35839365D01*
X31481210Y-35899375D01*
X31436280Y-35940907D01*
X31394834Y-35950000D01*
X30851334Y-35950000D01*
X30793143Y-35931093D01*
X30781330Y-35921004D01*
X30168269Y-35307943D01*
X30162434Y-35301575D01*
X30156706Y-35294749D01*
X30137455Y-35271806D01*
X30103792Y-35252371D01*
X30096511Y-35247732D01*
X30094056Y-35246013D01*
X30064684Y-35225446D01*
X30056315Y-35223203D01*
X30051039Y-35220743D01*
X30045551Y-35218745D01*
X30038045Y-35214412D01*
X30029510Y-35212907D01*
X30024031Y-35210913D01*
X29987887Y-35187887D01*
X29600000Y-34800000D01*
X29587563Y-34800000D01*
X29554761Y-34794408D01*
X29441064Y-34754481D01*
X29441065Y-34754481D01*
X29435369Y-34752481D01*
X29429362Y-34751913D01*
X29429361Y-34751913D01*
X29406145Y-34749718D01*
X29406135Y-34749718D01*
X29403834Y-34749500D01*
X27996166Y-34749500D01*
X27993865Y-34749718D01*
X27993855Y-34749718D01*
X27970639Y-34751913D01*
X27970638Y-34751913D01*
X27964631Y-34752481D01*
X27958935Y-34754481D01*
X27958936Y-34754481D01*
X27845239Y-34794408D01*
X27812437Y-34800000D01*
X24641008Y-34800000D01*
X24582817Y-34781093D01*
X24571004Y-34771004D01*
X23500000Y-33700000D01*
X21599000Y-33700000D01*
X21540809Y-33681093D01*
X21504845Y-33631593D01*
X21500000Y-33601000D01*
X21500000Y-31799000D01*
X21518907Y-31740809D01*
X21568407Y-31704845D01*
X21599000Y-31700000D01*
X23466207Y-31700000D01*
X23526740Y-31720663D01*
G37*
%TD.AperFunction*%
%TD*%
%TA.AperFunction,Conductor*%
%TO.N,+5V*%
G36*
X49258691Y-54218907D02*
G01*
X49294655Y-54268407D01*
X49299500Y-54299000D01*
X49299500Y-71701000D01*
X49280593Y-71759191D01*
X49231093Y-71795155D01*
X49200500Y-71800000D01*
X28700000Y-71800000D01*
X28700000Y-72501000D01*
X28681093Y-72559191D01*
X28631593Y-72595155D01*
X28601000Y-72600000D01*
X26885226Y-72600000D01*
X26827035Y-72581093D01*
X26791071Y-72531593D01*
X26791071Y-72470407D01*
X26805594Y-72442181D01*
X26822791Y-72418899D01*
X26829638Y-72405966D01*
X26870022Y-72290969D01*
X26872590Y-72279266D01*
X26874782Y-72256082D01*
X26875000Y-72251446D01*
X26875000Y-71865680D01*
X26870878Y-71852995D01*
X26866757Y-71850000D01*
X26161500Y-71850000D01*
X26103309Y-71831093D01*
X26067345Y-71781593D01*
X26062500Y-71751000D01*
X26062500Y-71634320D01*
X26262500Y-71634320D01*
X26266622Y-71647005D01*
X26270743Y-71650000D01*
X26859319Y-71650000D01*
X26872004Y-71645878D01*
X26874999Y-71641757D01*
X26874999Y-71248557D01*
X26874780Y-71243914D01*
X26872589Y-71220731D01*
X26870024Y-71209035D01*
X26829638Y-71094034D01*
X26822791Y-71081101D01*
X26751192Y-70984165D01*
X26740835Y-70973808D01*
X26643899Y-70902209D01*
X26630966Y-70895362D01*
X26515969Y-70854978D01*
X26504266Y-70852410D01*
X26481082Y-70850218D01*
X26476446Y-70850000D01*
X26278180Y-70850000D01*
X26265495Y-70854122D01*
X26262500Y-70858243D01*
X26262500Y-71634320D01*
X26062500Y-71634320D01*
X26062500Y-70865681D01*
X26058378Y-70852996D01*
X26054257Y-70850001D01*
X25848557Y-70850001D01*
X25843914Y-70850220D01*
X25820731Y-70852411D01*
X25809035Y-70854976D01*
X25694034Y-70895362D01*
X25681105Y-70902207D01*
X25642038Y-70931063D01*
X25583997Y-70950427D01*
X25525660Y-70931978D01*
X25514156Y-70916274D01*
X25500000Y-70905989D01*
X25500000Y-70900000D01*
X24974500Y-70900000D01*
X24916309Y-70881093D01*
X24880345Y-70831593D01*
X24875500Y-70801000D01*
X24875500Y-70319748D01*
X26599500Y-70319748D01*
X26600448Y-70324512D01*
X26608435Y-70364666D01*
X26611133Y-70378231D01*
X26655448Y-70444552D01*
X26721769Y-70488867D01*
X26731332Y-70490769D01*
X26731334Y-70490770D01*
X26754005Y-70495279D01*
X26780252Y-70500500D01*
X27269748Y-70500500D01*
X27295995Y-70495279D01*
X27318666Y-70490770D01*
X27318668Y-70490769D01*
X27328231Y-70488867D01*
X27394552Y-70444552D01*
X27438867Y-70378231D01*
X27441566Y-70364666D01*
X27449552Y-70324512D01*
X27450500Y-70319748D01*
X27450500Y-69230252D01*
X27438867Y-69171769D01*
X27394552Y-69105448D01*
X27328231Y-69061133D01*
X27318668Y-69059231D01*
X27318666Y-69059230D01*
X27295995Y-69054721D01*
X27269748Y-69049500D01*
X26780252Y-69049500D01*
X26754005Y-69054721D01*
X26731334Y-69059230D01*
X26731332Y-69059231D01*
X26721769Y-69061133D01*
X26655448Y-69105448D01*
X26611133Y-69171769D01*
X26599500Y-69230252D01*
X26599500Y-70319748D01*
X24875500Y-70319748D01*
X24875500Y-69741150D01*
X24860449Y-69641038D01*
X24857246Y-69634367D01*
X24855070Y-69627295D01*
X24857077Y-69626677D01*
X24850500Y-69597782D01*
X24850500Y-69230252D01*
X24838867Y-69171769D01*
X24816685Y-69138572D01*
X24800000Y-69083570D01*
X24800000Y-68799000D01*
X24818907Y-68740809D01*
X24868407Y-68704845D01*
X24899000Y-68700000D01*
X34164500Y-68700000D01*
X34222691Y-68718907D01*
X34258655Y-68768407D01*
X34263500Y-68799000D01*
X34263500Y-70315748D01*
X34275133Y-70374231D01*
X34319448Y-70440552D01*
X34385769Y-70484867D01*
X34395332Y-70486769D01*
X34395334Y-70486770D01*
X34415445Y-70490770D01*
X34444252Y-70496500D01*
X35983748Y-70496500D01*
X36012555Y-70490770D01*
X36032666Y-70486770D01*
X36032668Y-70486769D01*
X36042231Y-70484867D01*
X36108552Y-70440552D01*
X36152867Y-70374231D01*
X36164500Y-70315748D01*
X36164500Y-68799000D01*
X36183407Y-68740809D01*
X36232907Y-68704845D01*
X36263500Y-68700000D01*
X36364500Y-68700000D01*
X36422691Y-68718907D01*
X36458655Y-68768407D01*
X36463500Y-68799000D01*
X36463500Y-70315748D01*
X36475133Y-70374231D01*
X36519448Y-70440552D01*
X36585769Y-70484867D01*
X36595332Y-70486769D01*
X36595334Y-70486770D01*
X36615445Y-70490770D01*
X36644252Y-70496500D01*
X38183748Y-70496500D01*
X38212555Y-70490770D01*
X38232666Y-70486770D01*
X38232668Y-70486769D01*
X38242231Y-70484867D01*
X38308552Y-70440552D01*
X38352867Y-70374231D01*
X38364500Y-70315748D01*
X38364500Y-68799000D01*
X38383407Y-68740809D01*
X38432907Y-68704845D01*
X38463500Y-68700000D01*
X43600000Y-68700000D01*
X43600000Y-68099000D01*
X43618907Y-68040809D01*
X43668407Y-68004845D01*
X43699000Y-68000000D01*
X47000000Y-68000000D01*
X47000000Y-59699000D01*
X47018907Y-59640809D01*
X47068407Y-59604845D01*
X47099000Y-59600000D01*
X47700000Y-59600000D01*
X47700000Y-56300000D01*
X45199000Y-56300000D01*
X45140809Y-56281093D01*
X45104845Y-56231593D01*
X45100000Y-56201000D01*
X45100000Y-54299000D01*
X45118907Y-54240809D01*
X45168407Y-54204845D01*
X45199000Y-54200000D01*
X49200500Y-54200000D01*
X49258691Y-54218907D01*
G37*
%TD.AperFunction*%
%TD*%
%TA.AperFunction,Conductor*%
%TO.N,+BATT*%
G36*
X48235648Y-32564352D02*
G01*
X48250000Y-32599000D01*
X48250000Y-34401000D01*
X48235648Y-34435648D01*
X48201000Y-34450000D01*
X44500000Y-34450000D01*
X44493075Y-34457173D01*
X44493074Y-34457173D01*
X43114449Y-35885035D01*
X43079198Y-35900000D01*
X39100000Y-35900000D01*
X38471800Y-36249000D01*
X38211099Y-36393834D01*
X38187302Y-36400000D01*
X34449000Y-36400000D01*
X34414352Y-36385648D01*
X34400000Y-36351000D01*
X34400000Y-36249000D01*
X34414352Y-36214352D01*
X34449000Y-36200000D01*
X35600000Y-36200000D01*
X35625931Y-36148138D01*
X35642535Y-36129309D01*
X35650080Y-36124268D01*
X35694552Y-36094552D01*
X35738867Y-36028231D01*
X35750500Y-35969748D01*
X35750500Y-35910567D01*
X35755673Y-35888654D01*
X35800000Y-35800000D01*
X35800000Y-35537908D01*
X35800167Y-35534501D01*
X35800500Y-35532829D01*
X35800500Y-35267173D01*
X35800167Y-35265501D01*
X35800000Y-35262094D01*
X35800000Y-34949000D01*
X35814352Y-34914352D01*
X35849000Y-34900000D01*
X37800000Y-34900000D01*
X39189654Y-34205173D01*
X39211567Y-34200000D01*
X42200000Y-34200000D01*
X43685419Y-32566039D01*
X43721676Y-32550000D01*
X48201000Y-32550000D01*
X48235648Y-32564352D01*
G37*
%TD.AperFunction*%
%TD*%
M02*
