%TF.GenerationSoftware,KiCad,Pcbnew,(6.0.9)*%
%TF.CreationDate,2022-12-02T21:40:22+00:00*%
%TF.ProjectId,PowerManagement,506f7765-724d-4616-9e61-67656d656e74,rev?*%
%TF.SameCoordinates,Original*%
%TF.FileFunction,Legend,Top*%
%TF.FilePolarity,Positive*%
%FSLAX46Y46*%
G04 Gerber Fmt 4.6, Leading zero omitted, Abs format (unit mm)*
G04 Created by KiCad (PCBNEW (6.0.9)) date 2022-12-02 21:40:22*
%MOMM*%
%LPD*%
G01*
G04 APERTURE LIST*
G04 Aperture macros list*
%AMRoundRect*
0 Rectangle with rounded corners*
0 $1 Rounding radius*
0 $2 $3 $4 $5 $6 $7 $8 $9 X,Y pos of 4 corners*
0 Add a 4 corners polygon primitive as box body*
4,1,4,$2,$3,$4,$5,$6,$7,$8,$9,$2,$3,0*
0 Add four circle primitives for the rounded corners*
1,1,$1+$1,$2,$3*
1,1,$1+$1,$4,$5*
1,1,$1+$1,$6,$7*
1,1,$1+$1,$8,$9*
0 Add four rect primitives between the rounded corners*
20,1,$1+$1,$2,$3,$4,$5,0*
20,1,$1+$1,$4,$5,$6,$7,0*
20,1,$1+$1,$6,$7,$8,$9,0*
20,1,$1+$1,$8,$9,$2,$3,0*%
G04 Aperture macros list end*
%ADD10C,0.120000*%
%ADD11C,0.150000*%
%ADD12C,3.200000*%
%ADD13RoundRect,0.250000X-0.475000X0.250000X-0.475000X-0.250000X0.475000X-0.250000X0.475000X0.250000X0*%
%ADD14C,1.500000*%
%ADD15R,1.500000X2.000000*%
%ADD16RoundRect,0.250000X0.475000X-0.250000X0.475000X0.250000X-0.475000X0.250000X-0.475000X-0.250000X0*%
%ADD17R,1.700000X1.700000*%
%ADD18O,1.700000X1.700000*%
%ADD19RoundRect,0.225000X-0.250000X0.225000X-0.250000X-0.225000X0.250000X-0.225000X0.250000X0.225000X0*%
%ADD20RoundRect,0.250000X-0.262500X-0.450000X0.262500X-0.450000X0.262500X0.450000X-0.262500X0.450000X0*%
%ADD21RoundRect,0.250000X1.025000X-0.787500X1.025000X0.787500X-1.025000X0.787500X-1.025000X-0.787500X0*%
%ADD22RoundRect,0.225000X0.250000X-0.225000X0.250000X0.225000X-0.250000X0.225000X-0.250000X-0.225000X0*%
%ADD23RoundRect,0.250000X-0.650000X0.325000X-0.650000X-0.325000X0.650000X-0.325000X0.650000X0.325000X0*%
%ADD24RoundRect,0.250000X0.450000X-0.262500X0.450000X0.262500X-0.450000X0.262500X-0.450000X-0.262500X0*%
%ADD25RoundRect,0.250000X0.262500X0.450000X-0.262500X0.450000X-0.262500X-0.450000X0.262500X-0.450000X0*%
%ADD26RoundRect,0.250000X-0.625000X0.350000X-0.625000X-0.350000X0.625000X-0.350000X0.625000X0.350000X0*%
%ADD27O,1.750000X1.200000*%
%ADD28RoundRect,0.060000X0.140000X0.257500X-0.140000X0.257500X-0.140000X-0.257500X0.140000X-0.257500X0*%
%ADD29RoundRect,0.046500X-0.403500X-0.108500X0.403500X-0.108500X0.403500X0.108500X-0.403500X0.108500X0*%
%ADD30R,1.200000X0.200000*%
%ADD31RoundRect,0.060000X0.140000X0.255000X-0.140000X0.255000X-0.140000X-0.255000X0.140000X-0.255000X0*%
%ADD32RoundRect,0.045000X-0.405000X-0.104999X0.405000X-0.104999X0.405000X0.104999X-0.405000X0.104999X0*%
%ADD33RoundRect,0.045000X0.105000X-0.519999X0.105000X0.519999X-0.105000X0.519999X-0.105000X-0.519999X0*%
%ADD34R,0.200000X0.800000*%
%ADD35RoundRect,0.045000X0.105000X-0.520000X0.105000X0.520000X-0.105000X0.520000X-0.105000X-0.520000X0*%
%ADD36RoundRect,0.045000X0.105000X-0.514999X0.105000X0.514999X-0.105000X0.514999X-0.105000X-0.514999X0*%
%ADD37RoundRect,0.250000X0.250000X0.475000X-0.250000X0.475000X-0.250000X-0.475000X0.250000X-0.475000X0*%
%ADD38R,0.450000X1.050000*%
%ADD39R,0.895000X1.470000*%
%ADD40RoundRect,0.250000X-0.750000X0.600000X-0.750000X-0.600000X0.750000X-0.600000X0.750000X0.600000X0*%
%ADD41O,2.000000X1.700000*%
%ADD42R,3.800000X1.050000*%
%ADD43R,5.500000X3.850000*%
%ADD44RoundRect,0.243750X-0.243750X-0.456250X0.243750X-0.456250X0.243750X0.456250X-0.243750X0.456250X0*%
G04 APERTURE END LIST*
D10*
X38200000Y-40400000D02*
X39400000Y-40800000D01*
D11*
%TO.C,C6*%
X36733333Y-32657142D02*
X36685714Y-32704761D01*
X36542857Y-32752380D01*
X36447619Y-32752380D01*
X36304761Y-32704761D01*
X36209523Y-32609523D01*
X36161904Y-32514285D01*
X36114285Y-32323809D01*
X36114285Y-32180952D01*
X36161904Y-31990476D01*
X36209523Y-31895238D01*
X36304761Y-31800000D01*
X36447619Y-31752380D01*
X36542857Y-31752380D01*
X36685714Y-31800000D01*
X36733333Y-31847619D01*
X37590476Y-31752380D02*
X37400000Y-31752380D01*
X37304761Y-31800000D01*
X37257142Y-31847619D01*
X37161904Y-31990476D01*
X37114285Y-32180952D01*
X37114285Y-32561904D01*
X37161904Y-32657142D01*
X37209523Y-32704761D01*
X37304761Y-32752380D01*
X37495238Y-32752380D01*
X37590476Y-32704761D01*
X37638095Y-32657142D01*
X37685714Y-32561904D01*
X37685714Y-32323809D01*
X37638095Y-32228571D01*
X37590476Y-32180952D01*
X37495238Y-32133333D01*
X37304761Y-32133333D01*
X37209523Y-32180952D01*
X37161904Y-32228571D01*
X37114285Y-32323809D01*
%TO.C,J2*%
X37266666Y-61452380D02*
X37266666Y-62166666D01*
X37219047Y-62309523D01*
X37123809Y-62404761D01*
X36980952Y-62452380D01*
X36885714Y-62452380D01*
X37695238Y-61547619D02*
X37742857Y-61500000D01*
X37838095Y-61452380D01*
X38076190Y-61452380D01*
X38171428Y-61500000D01*
X38219047Y-61547619D01*
X38266666Y-61642857D01*
X38266666Y-61738095D01*
X38219047Y-61880952D01*
X37647619Y-62452380D01*
X38266666Y-62452380D01*
X41071428Y-69628571D02*
X41214285Y-69676190D01*
X41261904Y-69723809D01*
X41309523Y-69819047D01*
X41309523Y-69961904D01*
X41261904Y-70057142D01*
X41214285Y-70104761D01*
X41119047Y-70152380D01*
X40738095Y-70152380D01*
X40738095Y-69152380D01*
X41071428Y-69152380D01*
X41166666Y-69200000D01*
X41214285Y-69247619D01*
X41261904Y-69342857D01*
X41261904Y-69438095D01*
X41214285Y-69533333D01*
X41166666Y-69580952D01*
X41071428Y-69628571D01*
X40738095Y-69628571D01*
X41738095Y-69152380D02*
X41738095Y-69961904D01*
X41785714Y-70057142D01*
X41833333Y-70104761D01*
X41928571Y-70152380D01*
X42119047Y-70152380D01*
X42214285Y-70104761D01*
X42261904Y-70057142D01*
X42309523Y-69961904D01*
X42309523Y-69152380D01*
X42738095Y-70104761D02*
X42880952Y-70152380D01*
X43119047Y-70152380D01*
X43214285Y-70104761D01*
X43261904Y-70057142D01*
X43309523Y-69961904D01*
X43309523Y-69866666D01*
X43261904Y-69771428D01*
X43214285Y-69723809D01*
X43119047Y-69676190D01*
X42928571Y-69628571D01*
X42833333Y-69580952D01*
X42785714Y-69533333D01*
X42738095Y-69438095D01*
X42738095Y-69342857D01*
X42785714Y-69247619D01*
X42833333Y-69200000D01*
X42928571Y-69152380D01*
X43166666Y-69152380D01*
X43309523Y-69200000D01*
%TO.C,C1*%
X40333333Y-41557142D02*
X40285714Y-41604761D01*
X40142857Y-41652380D01*
X40047619Y-41652380D01*
X39904761Y-41604761D01*
X39809523Y-41509523D01*
X39761904Y-41414285D01*
X39714285Y-41223809D01*
X39714285Y-41080952D01*
X39761904Y-40890476D01*
X39809523Y-40795238D01*
X39904761Y-40700000D01*
X40047619Y-40652380D01*
X40142857Y-40652380D01*
X40285714Y-40700000D01*
X40333333Y-40747619D01*
X41285714Y-41652380D02*
X40714285Y-41652380D01*
X41000000Y-41652380D02*
X41000000Y-40652380D01*
X40904761Y-40795238D01*
X40809523Y-40890476D01*
X40714285Y-40938095D01*
%TO.C,J1*%
X24666666Y-31452380D02*
X24666666Y-32166666D01*
X24619047Y-32309523D01*
X24523809Y-32404761D01*
X24380952Y-32452380D01*
X24285714Y-32452380D01*
X25666666Y-32452380D02*
X25095238Y-32452380D01*
X25380952Y-32452380D02*
X25380952Y-31452380D01*
X25285714Y-31595238D01*
X25190476Y-31690476D01*
X25095238Y-31738095D01*
X24252380Y-41461904D02*
X25061904Y-41461904D01*
X25157142Y-41414285D01*
X25204761Y-41366666D01*
X25252380Y-41271428D01*
X25252380Y-41080952D01*
X25204761Y-40985714D01*
X25157142Y-40938095D01*
X25061904Y-40890476D01*
X24252380Y-40890476D01*
X25204761Y-40461904D02*
X25252380Y-40319047D01*
X25252380Y-40080952D01*
X25204761Y-39985714D01*
X25157142Y-39938095D01*
X25061904Y-39890476D01*
X24966666Y-39890476D01*
X24871428Y-39938095D01*
X24823809Y-39985714D01*
X24776190Y-40080952D01*
X24728571Y-40271428D01*
X24680952Y-40366666D01*
X24633333Y-40414285D01*
X24538095Y-40461904D01*
X24442857Y-40461904D01*
X24347619Y-40414285D01*
X24300000Y-40366666D01*
X24252380Y-40271428D01*
X24252380Y-40033333D01*
X24300000Y-39890476D01*
X24728571Y-39128571D02*
X24776190Y-38985714D01*
X24823809Y-38938095D01*
X24919047Y-38890476D01*
X25061904Y-38890476D01*
X25157142Y-38938095D01*
X25204761Y-38985714D01*
X25252380Y-39080952D01*
X25252380Y-39461904D01*
X24252380Y-39461904D01*
X24252380Y-39128571D01*
X24300000Y-39033333D01*
X24347619Y-38985714D01*
X24442857Y-38938095D01*
X24538095Y-38938095D01*
X24633333Y-38985714D01*
X24680952Y-39033333D01*
X24728571Y-39128571D01*
X24728571Y-39461904D01*
%TO.C,C3*%
X29633333Y-40357142D02*
X29585714Y-40404761D01*
X29442857Y-40452380D01*
X29347619Y-40452380D01*
X29204761Y-40404761D01*
X29109523Y-40309523D01*
X29061904Y-40214285D01*
X29014285Y-40023809D01*
X29014285Y-39880952D01*
X29061904Y-39690476D01*
X29109523Y-39595238D01*
X29204761Y-39500000D01*
X29347619Y-39452380D01*
X29442857Y-39452380D01*
X29585714Y-39500000D01*
X29633333Y-39547619D01*
X29966666Y-39452380D02*
X30585714Y-39452380D01*
X30252380Y-39833333D01*
X30395238Y-39833333D01*
X30490476Y-39880952D01*
X30538095Y-39928571D01*
X30585714Y-40023809D01*
X30585714Y-40261904D01*
X30538095Y-40357142D01*
X30490476Y-40404761D01*
X30395238Y-40452380D01*
X30109523Y-40452380D01*
X30014285Y-40404761D01*
X29966666Y-40357142D01*
%TO.C,R9*%
X22333333Y-73902380D02*
X22000000Y-73426190D01*
X21761904Y-73902380D02*
X21761904Y-72902380D01*
X22142857Y-72902380D01*
X22238095Y-72950000D01*
X22285714Y-72997619D01*
X22333333Y-73092857D01*
X22333333Y-73235714D01*
X22285714Y-73330952D01*
X22238095Y-73378571D01*
X22142857Y-73426190D01*
X21761904Y-73426190D01*
X22809523Y-73902380D02*
X23000000Y-73902380D01*
X23095238Y-73854761D01*
X23142857Y-73807142D01*
X23238095Y-73664285D01*
X23285714Y-73473809D01*
X23285714Y-73092857D01*
X23238095Y-72997619D01*
X23190476Y-72950000D01*
X23095238Y-72902380D01*
X22904761Y-72902380D01*
X22809523Y-72950000D01*
X22761904Y-72997619D01*
X22714285Y-73092857D01*
X22714285Y-73330952D01*
X22761904Y-73426190D01*
X22809523Y-73473809D01*
X22904761Y-73521428D01*
X23095238Y-73521428D01*
X23190476Y-73473809D01*
X23238095Y-73426190D01*
X23285714Y-73330952D01*
%TO.C,C8*%
X30333333Y-61957142D02*
X30285714Y-62004761D01*
X30142857Y-62052380D01*
X30047619Y-62052380D01*
X29904761Y-62004761D01*
X29809523Y-61909523D01*
X29761904Y-61814285D01*
X29714285Y-61623809D01*
X29714285Y-61480952D01*
X29761904Y-61290476D01*
X29809523Y-61195238D01*
X29904761Y-61100000D01*
X30047619Y-61052380D01*
X30142857Y-61052380D01*
X30285714Y-61100000D01*
X30333333Y-61147619D01*
X30904761Y-61480952D02*
X30809523Y-61433333D01*
X30761904Y-61385714D01*
X30714285Y-61290476D01*
X30714285Y-61242857D01*
X30761904Y-61147619D01*
X30809523Y-61100000D01*
X30904761Y-61052380D01*
X31095238Y-61052380D01*
X31190476Y-61100000D01*
X31238095Y-61147619D01*
X31285714Y-61242857D01*
X31285714Y-61290476D01*
X31238095Y-61385714D01*
X31190476Y-61433333D01*
X31095238Y-61480952D01*
X30904761Y-61480952D01*
X30809523Y-61528571D01*
X30761904Y-61576190D01*
X30714285Y-61671428D01*
X30714285Y-61861904D01*
X30761904Y-61957142D01*
X30809523Y-62004761D01*
X30904761Y-62052380D01*
X31095238Y-62052380D01*
X31190476Y-62004761D01*
X31238095Y-61957142D01*
X31285714Y-61861904D01*
X31285714Y-61671428D01*
X31238095Y-61576190D01*
X31190476Y-61528571D01*
X31095238Y-61480952D01*
%TO.C,C5*%
X30433333Y-31382142D02*
X30385714Y-31429761D01*
X30242857Y-31477380D01*
X30147619Y-31477380D01*
X30004761Y-31429761D01*
X29909523Y-31334523D01*
X29861904Y-31239285D01*
X29814285Y-31048809D01*
X29814285Y-30905952D01*
X29861904Y-30715476D01*
X29909523Y-30620238D01*
X30004761Y-30525000D01*
X30147619Y-30477380D01*
X30242857Y-30477380D01*
X30385714Y-30525000D01*
X30433333Y-30572619D01*
X31338095Y-30477380D02*
X30861904Y-30477380D01*
X30814285Y-30953571D01*
X30861904Y-30905952D01*
X30957142Y-30858333D01*
X31195238Y-30858333D01*
X31290476Y-30905952D01*
X31338095Y-30953571D01*
X31385714Y-31048809D01*
X31385714Y-31286904D01*
X31338095Y-31382142D01*
X31290476Y-31429761D01*
X31195238Y-31477380D01*
X30957142Y-31477380D01*
X30861904Y-31429761D01*
X30814285Y-31382142D01*
%TO.C,C2*%
X28533333Y-34357142D02*
X28485714Y-34404761D01*
X28342857Y-34452380D01*
X28247619Y-34452380D01*
X28104761Y-34404761D01*
X28009523Y-34309523D01*
X27961904Y-34214285D01*
X27914285Y-34023809D01*
X27914285Y-33880952D01*
X27961904Y-33690476D01*
X28009523Y-33595238D01*
X28104761Y-33500000D01*
X28247619Y-33452380D01*
X28342857Y-33452380D01*
X28485714Y-33500000D01*
X28533333Y-33547619D01*
X28914285Y-33547619D02*
X28961904Y-33500000D01*
X29057142Y-33452380D01*
X29295238Y-33452380D01*
X29390476Y-33500000D01*
X29438095Y-33547619D01*
X29485714Y-33642857D01*
X29485714Y-33738095D01*
X29438095Y-33880952D01*
X28866666Y-34452380D01*
X29485714Y-34452380D01*
%TO.C,R6*%
X32833333Y-30152380D02*
X32500000Y-29676190D01*
X32261904Y-30152380D02*
X32261904Y-29152380D01*
X32642857Y-29152380D01*
X32738095Y-29200000D01*
X32785714Y-29247619D01*
X32833333Y-29342857D01*
X32833333Y-29485714D01*
X32785714Y-29580952D01*
X32738095Y-29628571D01*
X32642857Y-29676190D01*
X32261904Y-29676190D01*
X33690476Y-29152380D02*
X33500000Y-29152380D01*
X33404761Y-29200000D01*
X33357142Y-29247619D01*
X33261904Y-29390476D01*
X33214285Y-29580952D01*
X33214285Y-29961904D01*
X33261904Y-30057142D01*
X33309523Y-30104761D01*
X33404761Y-30152380D01*
X33595238Y-30152380D01*
X33690476Y-30104761D01*
X33738095Y-30057142D01*
X33785714Y-29961904D01*
X33785714Y-29723809D01*
X33738095Y-29628571D01*
X33690476Y-29580952D01*
X33595238Y-29533333D01*
X33404761Y-29533333D01*
X33309523Y-29580952D01*
X33261904Y-29628571D01*
X33214285Y-29723809D01*
%TO.C,R3*%
X34033333Y-44252380D02*
X33700000Y-43776190D01*
X33461904Y-44252380D02*
X33461904Y-43252380D01*
X33842857Y-43252380D01*
X33938095Y-43300000D01*
X33985714Y-43347619D01*
X34033333Y-43442857D01*
X34033333Y-43585714D01*
X33985714Y-43680952D01*
X33938095Y-43728571D01*
X33842857Y-43776190D01*
X33461904Y-43776190D01*
X34366666Y-43252380D02*
X34985714Y-43252380D01*
X34652380Y-43633333D01*
X34795238Y-43633333D01*
X34890476Y-43680952D01*
X34938095Y-43728571D01*
X34985714Y-43823809D01*
X34985714Y-44061904D01*
X34938095Y-44157142D01*
X34890476Y-44204761D01*
X34795238Y-44252380D01*
X34509523Y-44252380D01*
X34414285Y-44204761D01*
X34366666Y-44157142D01*
%TO.C,R8*%
X22333333Y-71902380D02*
X22000000Y-71426190D01*
X21761904Y-71902380D02*
X21761904Y-70902380D01*
X22142857Y-70902380D01*
X22238095Y-70950000D01*
X22285714Y-70997619D01*
X22333333Y-71092857D01*
X22333333Y-71235714D01*
X22285714Y-71330952D01*
X22238095Y-71378571D01*
X22142857Y-71426190D01*
X21761904Y-71426190D01*
X22904761Y-71330952D02*
X22809523Y-71283333D01*
X22761904Y-71235714D01*
X22714285Y-71140476D01*
X22714285Y-71092857D01*
X22761904Y-70997619D01*
X22809523Y-70950000D01*
X22904761Y-70902380D01*
X23095238Y-70902380D01*
X23190476Y-70950000D01*
X23238095Y-70997619D01*
X23285714Y-71092857D01*
X23285714Y-71140476D01*
X23238095Y-71235714D01*
X23190476Y-71283333D01*
X23095238Y-71330952D01*
X22904761Y-71330952D01*
X22809523Y-71378571D01*
X22761904Y-71426190D01*
X22714285Y-71521428D01*
X22714285Y-71711904D01*
X22761904Y-71807142D01*
X22809523Y-71854761D01*
X22904761Y-71902380D01*
X23095238Y-71902380D01*
X23190476Y-71854761D01*
X23238095Y-71807142D01*
X23285714Y-71711904D01*
X23285714Y-71521428D01*
X23238095Y-71426190D01*
X23190476Y-71378571D01*
X23095238Y-71330952D01*
%TO.C,R1*%
X39233333Y-58552380D02*
X38900000Y-58076190D01*
X38661904Y-58552380D02*
X38661904Y-57552380D01*
X39042857Y-57552380D01*
X39138095Y-57600000D01*
X39185714Y-57647619D01*
X39233333Y-57742857D01*
X39233333Y-57885714D01*
X39185714Y-57980952D01*
X39138095Y-58028571D01*
X39042857Y-58076190D01*
X38661904Y-58076190D01*
X40185714Y-58552380D02*
X39614285Y-58552380D01*
X39900000Y-58552380D02*
X39900000Y-57552380D01*
X39804761Y-57695238D01*
X39709523Y-57790476D01*
X39614285Y-57838095D01*
%TO.C,J5*%
X42766666Y-31452380D02*
X42766666Y-32166666D01*
X42719047Y-32309523D01*
X42623809Y-32404761D01*
X42480952Y-32452380D01*
X42385714Y-32452380D01*
X43719047Y-31452380D02*
X43242857Y-31452380D01*
X43195238Y-31928571D01*
X43242857Y-31880952D01*
X43338095Y-31833333D01*
X43576190Y-31833333D01*
X43671428Y-31880952D01*
X43719047Y-31928571D01*
X43766666Y-32023809D01*
X43766666Y-32261904D01*
X43719047Y-32357142D01*
X43671428Y-32404761D01*
X43576190Y-32452380D01*
X43338095Y-32452380D01*
X43242857Y-32404761D01*
X43195238Y-32357142D01*
X43028571Y-39219047D02*
X43076190Y-39076190D01*
X43123809Y-39028571D01*
X43219047Y-38980952D01*
X43361904Y-38980952D01*
X43457142Y-39028571D01*
X43504761Y-39076190D01*
X43552380Y-39171428D01*
X43552380Y-39552380D01*
X42552380Y-39552380D01*
X42552380Y-39219047D01*
X42600000Y-39123809D01*
X42647619Y-39076190D01*
X42742857Y-39028571D01*
X42838095Y-39028571D01*
X42933333Y-39076190D01*
X42980952Y-39123809D01*
X43028571Y-39219047D01*
X43028571Y-39552380D01*
X43266666Y-38600000D02*
X43266666Y-38123809D01*
X43552380Y-38695238D02*
X42552380Y-38361904D01*
X43552380Y-38028571D01*
X42552380Y-37838095D02*
X42552380Y-37266666D01*
X43552380Y-37552380D02*
X42552380Y-37552380D01*
X42552380Y-37076190D02*
X42552380Y-36504761D01*
X43552380Y-36790476D02*
X42552380Y-36790476D01*
%TO.C,U1*%
X34138095Y-32952380D02*
X34138095Y-33761904D01*
X34185714Y-33857142D01*
X34233333Y-33904761D01*
X34328571Y-33952380D01*
X34519047Y-33952380D01*
X34614285Y-33904761D01*
X34661904Y-33857142D01*
X34709523Y-33761904D01*
X34709523Y-32952380D01*
X35709523Y-33952380D02*
X35138095Y-33952380D01*
X35423809Y-33952380D02*
X35423809Y-32952380D01*
X35328571Y-33095238D01*
X35233333Y-33190476D01*
X35138095Y-33238095D01*
X31747400Y-33716780D02*
X31747400Y-33954876D01*
X31509304Y-33859638D02*
X31747400Y-33954876D01*
X31985495Y-33859638D01*
X31604542Y-34145352D02*
X31747400Y-33954876D01*
X31890257Y-34145352D01*
X31747400Y-33716780D02*
X31747400Y-33954876D01*
X31509304Y-33859638D02*
X31747400Y-33954876D01*
X31985495Y-33859638D01*
X31604542Y-34145352D02*
X31747400Y-33954876D01*
X31890257Y-34145352D01*
%TO.C,R4*%
X37433333Y-44102380D02*
X37100000Y-43626190D01*
X36861904Y-44102380D02*
X36861904Y-43102380D01*
X37242857Y-43102380D01*
X37338095Y-43150000D01*
X37385714Y-43197619D01*
X37433333Y-43292857D01*
X37433333Y-43435714D01*
X37385714Y-43530952D01*
X37338095Y-43578571D01*
X37242857Y-43626190D01*
X36861904Y-43626190D01*
X38290476Y-43435714D02*
X38290476Y-44102380D01*
X38052380Y-43054761D02*
X37814285Y-43769047D01*
X38433333Y-43769047D01*
%TO.C,R5*%
X43633333Y-49152380D02*
X43300000Y-48676190D01*
X43061904Y-49152380D02*
X43061904Y-48152380D01*
X43442857Y-48152380D01*
X43538095Y-48200000D01*
X43585714Y-48247619D01*
X43633333Y-48342857D01*
X43633333Y-48485714D01*
X43585714Y-48580952D01*
X43538095Y-48628571D01*
X43442857Y-48676190D01*
X43061904Y-48676190D01*
X44538095Y-48152380D02*
X44061904Y-48152380D01*
X44014285Y-48628571D01*
X44061904Y-48580952D01*
X44157142Y-48533333D01*
X44395238Y-48533333D01*
X44490476Y-48580952D01*
X44538095Y-48628571D01*
X44585714Y-48723809D01*
X44585714Y-48961904D01*
X44538095Y-49057142D01*
X44490476Y-49104761D01*
X44395238Y-49152380D01*
X44157142Y-49152380D01*
X44061904Y-49104761D01*
X44014285Y-49057142D01*
%TO.C,R2*%
X34033333Y-45552380D02*
X33700000Y-45076190D01*
X33461904Y-45552380D02*
X33461904Y-44552380D01*
X33842857Y-44552380D01*
X33938095Y-44600000D01*
X33985714Y-44647619D01*
X34033333Y-44742857D01*
X34033333Y-44885714D01*
X33985714Y-44980952D01*
X33938095Y-45028571D01*
X33842857Y-45076190D01*
X33461904Y-45076190D01*
X34414285Y-44647619D02*
X34461904Y-44600000D01*
X34557142Y-44552380D01*
X34795238Y-44552380D01*
X34890476Y-44600000D01*
X34938095Y-44647619D01*
X34985714Y-44742857D01*
X34985714Y-44838095D01*
X34938095Y-44980952D01*
X34366666Y-45552380D01*
X34985714Y-45552380D01*
%TO.C,C9*%
X21733333Y-60757142D02*
X21685714Y-60804761D01*
X21542857Y-60852380D01*
X21447619Y-60852380D01*
X21304761Y-60804761D01*
X21209523Y-60709523D01*
X21161904Y-60614285D01*
X21114285Y-60423809D01*
X21114285Y-60280952D01*
X21161904Y-60090476D01*
X21209523Y-59995238D01*
X21304761Y-59900000D01*
X21447619Y-59852380D01*
X21542857Y-59852380D01*
X21685714Y-59900000D01*
X21733333Y-59947619D01*
X22209523Y-60852380D02*
X22400000Y-60852380D01*
X22495238Y-60804761D01*
X22542857Y-60757142D01*
X22638095Y-60614285D01*
X22685714Y-60423809D01*
X22685714Y-60042857D01*
X22638095Y-59947619D01*
X22590476Y-59900000D01*
X22495238Y-59852380D01*
X22304761Y-59852380D01*
X22209523Y-59900000D01*
X22161904Y-59947619D01*
X22114285Y-60042857D01*
X22114285Y-60280952D01*
X22161904Y-60376190D01*
X22209523Y-60423809D01*
X22304761Y-60471428D01*
X22495238Y-60471428D01*
X22590476Y-60423809D01*
X22638095Y-60376190D01*
X22685714Y-60280952D01*
%TO.C,U2*%
X25938095Y-62252380D02*
X25938095Y-63061904D01*
X25985714Y-63157142D01*
X26033333Y-63204761D01*
X26128571Y-63252380D01*
X26319047Y-63252380D01*
X26414285Y-63204761D01*
X26461904Y-63157142D01*
X26509523Y-63061904D01*
X26509523Y-62252380D01*
X26938095Y-62347619D02*
X26985714Y-62300000D01*
X27080952Y-62252380D01*
X27319047Y-62252380D01*
X27414285Y-62300000D01*
X27461904Y-62347619D01*
X27509523Y-62442857D01*
X27509523Y-62538095D01*
X27461904Y-62680952D01*
X26890476Y-63252380D01*
X27509523Y-63252380D01*
%TO.C,J4*%
X41266666Y-52802380D02*
X41266666Y-53516666D01*
X41219047Y-53659523D01*
X41123809Y-53754761D01*
X40980952Y-53802380D01*
X40885714Y-53802380D01*
X42171428Y-53135714D02*
X42171428Y-53802380D01*
X41933333Y-52754761D02*
X41695238Y-53469047D01*
X42314285Y-53469047D01*
X42152380Y-58333333D02*
X41152380Y-58333333D01*
X41152380Y-57952380D01*
X41200000Y-57857142D01*
X41247619Y-57809523D01*
X41342857Y-57761904D01*
X41485714Y-57761904D01*
X41580952Y-57809523D01*
X41628571Y-57857142D01*
X41676190Y-57952380D01*
X41676190Y-58333333D01*
X41152380Y-57428571D02*
X42152380Y-57190476D01*
X41438095Y-57000000D01*
X42152380Y-56809523D01*
X41152380Y-56571428D01*
X42152380Y-55619047D02*
X41676190Y-55952380D01*
X42152380Y-56190476D02*
X41152380Y-56190476D01*
X41152380Y-55809523D01*
X41200000Y-55714285D01*
X41247619Y-55666666D01*
X41342857Y-55619047D01*
X41485714Y-55619047D01*
X41580952Y-55666666D01*
X41628571Y-55714285D01*
X41676190Y-55809523D01*
X41676190Y-56190476D01*
%TO.C,L1*%
X26933333Y-40652380D02*
X26457142Y-40652380D01*
X26457142Y-39652380D01*
X27790476Y-40652380D02*
X27219047Y-40652380D01*
X27504761Y-40652380D02*
X27504761Y-39652380D01*
X27409523Y-39795238D01*
X27314285Y-39890476D01*
X27219047Y-39938095D01*
%TO.C,C7*%
X29533333Y-73157142D02*
X29485714Y-73204761D01*
X29342857Y-73252380D01*
X29247619Y-73252380D01*
X29104761Y-73204761D01*
X29009523Y-73109523D01*
X28961904Y-73014285D01*
X28914285Y-72823809D01*
X28914285Y-72680952D01*
X28961904Y-72490476D01*
X29009523Y-72395238D01*
X29104761Y-72300000D01*
X29247619Y-72252380D01*
X29342857Y-72252380D01*
X29485714Y-72300000D01*
X29533333Y-72347619D01*
X29866666Y-72252380D02*
X30533333Y-72252380D01*
X30104761Y-73252380D01*
%TO.C,L2*%
X22233333Y-45852380D02*
X21757142Y-45852380D01*
X21757142Y-44852380D01*
X22519047Y-44947619D02*
X22566666Y-44900000D01*
X22661904Y-44852380D01*
X22900000Y-44852380D01*
X22995238Y-44900000D01*
X23042857Y-44947619D01*
X23090476Y-45042857D01*
X23090476Y-45138095D01*
X23042857Y-45280952D01*
X22471428Y-45852380D01*
X23090476Y-45852380D01*
%TO.C,C4*%
X38833333Y-36257142D02*
X38785714Y-36304761D01*
X38642857Y-36352380D01*
X38547619Y-36352380D01*
X38404761Y-36304761D01*
X38309523Y-36209523D01*
X38261904Y-36114285D01*
X38214285Y-35923809D01*
X38214285Y-35780952D01*
X38261904Y-35590476D01*
X38309523Y-35495238D01*
X38404761Y-35400000D01*
X38547619Y-35352380D01*
X38642857Y-35352380D01*
X38785714Y-35400000D01*
X38833333Y-35447619D01*
X39690476Y-35685714D02*
X39690476Y-36352380D01*
X39452380Y-35304761D02*
X39214285Y-36019047D01*
X39833333Y-36019047D01*
%TO.C,J6*%
X42766666Y-40952380D02*
X42766666Y-41666666D01*
X42719047Y-41809523D01*
X42623809Y-41904761D01*
X42480952Y-41952380D01*
X42385714Y-41952380D01*
X43671428Y-40952380D02*
X43480952Y-40952380D01*
X43385714Y-41000000D01*
X43338095Y-41047619D01*
X43242857Y-41190476D01*
X43195238Y-41380952D01*
X43195238Y-41761904D01*
X43242857Y-41857142D01*
X43290476Y-41904761D01*
X43385714Y-41952380D01*
X43576190Y-41952380D01*
X43671428Y-41904761D01*
X43719047Y-41857142D01*
X43766666Y-41761904D01*
X43766666Y-41523809D01*
X43719047Y-41428571D01*
X43671428Y-41380952D01*
X43576190Y-41333333D01*
X43385714Y-41333333D01*
X43290476Y-41380952D01*
X43242857Y-41428571D01*
X43195238Y-41523809D01*
X43028571Y-46814285D02*
X43076190Y-46671428D01*
X43123809Y-46623809D01*
X43219047Y-46576190D01*
X43361904Y-46576190D01*
X43457142Y-46623809D01*
X43504761Y-46671428D01*
X43552380Y-46766666D01*
X43552380Y-47147619D01*
X42552380Y-47147619D01*
X42552380Y-46814285D01*
X42600000Y-46719047D01*
X42647619Y-46671428D01*
X42742857Y-46623809D01*
X42838095Y-46623809D01*
X42933333Y-46671428D01*
X42980952Y-46719047D01*
X43028571Y-46814285D01*
X43028571Y-47147619D01*
X42552380Y-46147619D02*
X43361904Y-46147619D01*
X43457142Y-46100000D01*
X43504761Y-46052380D01*
X43552380Y-45957142D01*
X43552380Y-45766666D01*
X43504761Y-45671428D01*
X43457142Y-45623809D01*
X43361904Y-45576190D01*
X42552380Y-45576190D01*
X42552380Y-45242857D02*
X42552380Y-44671428D01*
X43552380Y-44957142D02*
X42552380Y-44957142D01*
X42552380Y-44480952D02*
X42552380Y-43909523D01*
X43552380Y-44195238D02*
X42552380Y-44195238D01*
%TO.C,D1*%
X43061904Y-51252380D02*
X43061904Y-50252380D01*
X43300000Y-50252380D01*
X43442857Y-50300000D01*
X43538095Y-50395238D01*
X43585714Y-50490476D01*
X43633333Y-50680952D01*
X43633333Y-50823809D01*
X43585714Y-51014285D01*
X43538095Y-51109523D01*
X43442857Y-51204761D01*
X43300000Y-51252380D01*
X43061904Y-51252380D01*
X44585714Y-51252380D02*
X44014285Y-51252380D01*
X44300000Y-51252380D02*
X44300000Y-50252380D01*
X44204761Y-50395238D01*
X44109523Y-50490476D01*
X44014285Y-50538095D01*
D10*
%TO.C,C6*%
X37635000Y-34438748D02*
X37635000Y-34961252D01*
X36165000Y-34438748D02*
X36165000Y-34961252D01*
%TO.C,J2*%
X46814000Y-68396000D02*
X46814000Y-68896000D01*
X43664000Y-68896000D02*
X38414000Y-68896000D01*
X43664000Y-62696000D02*
X43664000Y-61346000D01*
X36664000Y-62696000D02*
X40264000Y-62696000D01*
X48814000Y-63196000D02*
X48814000Y-68396000D01*
X36464000Y-68896000D02*
X36164000Y-68896000D01*
X46814000Y-68896000D02*
X45614000Y-68896000D01*
X34614000Y-68146000D02*
X34614000Y-62696000D01*
X48814000Y-68396000D02*
X46814000Y-68396000D01*
X46814000Y-62696000D02*
X46814000Y-63196000D01*
X46814000Y-63196000D02*
X48814000Y-63196000D01*
X45514000Y-62696000D02*
X46814000Y-62696000D01*
X45514000Y-62696000D02*
X45514000Y-61346000D01*
X42164000Y-62696000D02*
X43664000Y-62696000D01*
%TO.C,C1*%
X36165000Y-39361252D02*
X36165000Y-38838748D01*
X37635000Y-39361252D02*
X37635000Y-38838748D01*
%TO.C,J1*%
X21170000Y-32700000D02*
X21170000Y-31370000D01*
X21170000Y-31370000D02*
X22500000Y-31370000D01*
X21170000Y-33970000D02*
X23830000Y-33970000D01*
X21170000Y-41650000D02*
X23830000Y-41650000D01*
X23830000Y-33970000D02*
X23830000Y-41650000D01*
X21170000Y-33970000D02*
X21170000Y-41650000D01*
%TO.C,C3*%
X32130000Y-40379420D02*
X32130000Y-40660580D01*
X31110000Y-40379420D02*
X31110000Y-40660580D01*
%TO.C,R9*%
X25022936Y-73015000D02*
X25477064Y-73015000D01*
X25022936Y-74485000D02*
X25477064Y-74485000D01*
%TO.C,C8*%
X28256000Y-63035000D02*
X28256000Y-71095000D01*
X28256000Y-71095000D02*
X32776000Y-71095000D01*
X32776000Y-71095000D02*
X32776000Y-63035000D01*
%TO.C,C5*%
X31110000Y-33340580D02*
X31110000Y-33059420D01*
X30090000Y-33340580D02*
X30090000Y-33059420D01*
%TO.C,C2*%
X29610000Y-36288748D02*
X29610000Y-37711252D01*
X27790000Y-36288748D02*
X27790000Y-37711252D01*
%TO.C,R6*%
X32185000Y-32282064D02*
X32185000Y-31827936D01*
X33655000Y-32282064D02*
X33655000Y-31827936D01*
%TO.C,R3*%
X33872936Y-42735000D02*
X34327064Y-42735000D01*
X33872936Y-41265000D02*
X34327064Y-41265000D01*
%TO.C,R8*%
X25477064Y-72485000D02*
X25022936Y-72485000D01*
X25477064Y-71015000D02*
X25022936Y-71015000D01*
%TO.C,R1*%
X40522064Y-58965000D02*
X40067936Y-58965000D01*
X40522064Y-60435000D02*
X40067936Y-60435000D01*
%TO.C,J5*%
X48250000Y-37000000D02*
X48860000Y-37000000D01*
X47550000Y-39560000D02*
X47550000Y-38950000D01*
X48250000Y-38950000D02*
X48250000Y-37000000D01*
X48250000Y-34000000D02*
X48250000Y-32050000D01*
X49060000Y-32900000D02*
X48860000Y-32900000D01*
X48860000Y-34000000D02*
X48250000Y-34000000D01*
X49160000Y-31140000D02*
X47910000Y-31140000D01*
X44140000Y-31440000D02*
X44140000Y-39560000D01*
X44750000Y-32050000D02*
X44750000Y-38950000D01*
X46250000Y-39560000D02*
X46250000Y-38950000D01*
X44750000Y-38950000D02*
X48250000Y-38950000D01*
X48960000Y-33200000D02*
X48960000Y-32900000D01*
X48860000Y-33200000D02*
X49060000Y-33200000D01*
X44140000Y-39560000D02*
X48860000Y-39560000D01*
X45250000Y-34400000D02*
X45250000Y-34600000D01*
X47550000Y-31440000D02*
X47550000Y-32050000D01*
X45250000Y-36400000D02*
X45250000Y-36600000D01*
X44750000Y-36400000D02*
X45250000Y-36400000D01*
X49060000Y-33200000D02*
X49060000Y-32900000D01*
X49160000Y-32390000D02*
X49160000Y-31140000D01*
X46250000Y-31440000D02*
X46250000Y-32050000D01*
X48860000Y-31440000D02*
X44140000Y-31440000D01*
X48250000Y-32050000D02*
X44750000Y-32050000D01*
X44750000Y-36500000D02*
X45250000Y-36500000D01*
X44750000Y-34400000D02*
X45250000Y-34400000D01*
X48860000Y-39560000D02*
X48860000Y-31440000D01*
X45250000Y-34600000D02*
X44750000Y-34600000D01*
X45250000Y-36600000D02*
X44750000Y-36600000D01*
X44750000Y-34500000D02*
X45250000Y-34500000D01*
%TO.C,U1*%
X31569600Y-34967258D02*
X31569600Y-34594600D01*
X35430400Y-38082742D02*
X35430400Y-38455400D01*
X35430400Y-34594600D02*
X35430400Y-34967256D01*
X31569600Y-38455400D02*
X31569600Y-38082739D01*
%TO.C,R4*%
X37827064Y-42735000D02*
X37372936Y-42735000D01*
X37827064Y-41265000D02*
X37372936Y-41265000D01*
%TO.C,R5*%
X46964564Y-49435000D02*
X46510436Y-49435000D01*
X46964564Y-47965000D02*
X46510436Y-47965000D01*
%TO.C,R2*%
X34327064Y-40735000D02*
X33872936Y-40735000D01*
X34327064Y-39265000D02*
X33872936Y-39265000D01*
%TO.C,C9*%
X23011252Y-62735000D02*
X22488748Y-62735000D01*
X23011252Y-61265000D02*
X22488748Y-61265000D01*
D11*
%TO.C,U2*%
X27575000Y-63625000D02*
X27575000Y-69250000D01*
X22025000Y-64750000D02*
X22025000Y-69250000D01*
D10*
%TO.C,J4*%
X48725000Y-58500000D02*
X47975000Y-58500000D01*
X42765000Y-60310000D02*
X48735000Y-60310000D01*
X48725000Y-56000000D02*
X47975000Y-56000000D01*
X46475000Y-60300000D02*
X46475000Y-59550000D01*
X42765000Y-52690000D02*
X42765000Y-60310000D01*
X48735000Y-60310000D02*
X48735000Y-52690000D01*
X46475000Y-59550000D02*
X43525000Y-59550000D01*
X47975000Y-60300000D02*
X48725000Y-60300000D01*
X48725000Y-54500000D02*
X48725000Y-52700000D01*
X43525000Y-59550000D02*
X43525000Y-56500000D01*
X49025000Y-53650000D02*
X49025000Y-52400000D01*
X47975000Y-52700000D02*
X47975000Y-54500000D01*
X46475000Y-53450000D02*
X43525000Y-53450000D01*
X48725000Y-52700000D02*
X47975000Y-52700000D01*
X43525000Y-53450000D02*
X43525000Y-56500000D01*
X47975000Y-56000000D02*
X47975000Y-57000000D01*
X48725000Y-60300000D02*
X48725000Y-58500000D01*
X47975000Y-58500000D02*
X47975000Y-60300000D01*
X48735000Y-52690000D02*
X42765000Y-52690000D01*
X48725000Y-57000000D02*
X48725000Y-56000000D01*
X47975000Y-57000000D02*
X48725000Y-57000000D01*
X49025000Y-52400000D02*
X47775000Y-52400000D01*
X46475000Y-52700000D02*
X46475000Y-53450000D01*
X47975000Y-54500000D02*
X48725000Y-54500000D01*
%TO.C,L1*%
X26450000Y-40950000D02*
X30550000Y-40950000D01*
X30550000Y-40950000D02*
X30550000Y-45050000D01*
X30550000Y-45050000D02*
X26450000Y-45050000D01*
X26450000Y-45050000D02*
X26450000Y-40950000D01*
%TO.C,C7*%
X27390000Y-72940580D02*
X27390000Y-72659420D01*
X28410000Y-72940580D02*
X28410000Y-72659420D01*
%TO.C,L2*%
X34300000Y-58800000D02*
X31300000Y-58800000D01*
X21700000Y-46200000D02*
X24700000Y-46200000D01*
X34300000Y-46200000D02*
X34300000Y-58800000D01*
X24700000Y-58800000D02*
X21700000Y-58800000D01*
X31300000Y-46200000D02*
X34300000Y-46200000D01*
X21700000Y-58800000D02*
X21700000Y-46200000D01*
%TO.C,C4*%
X39735000Y-38038748D02*
X39735000Y-38561252D01*
X38265000Y-38038748D02*
X38265000Y-38561252D01*
%TO.C,J6*%
X44140000Y-40940000D02*
X44140000Y-47060000D01*
X48250000Y-46450000D02*
X48250000Y-44500000D01*
X46250000Y-40940000D02*
X46250000Y-41550000D01*
X47550000Y-40940000D02*
X47550000Y-41550000D01*
X49060000Y-42700000D02*
X49060000Y-42400000D01*
X49160000Y-40640000D02*
X47910000Y-40640000D01*
X44750000Y-46450000D02*
X48250000Y-46450000D01*
X49060000Y-42400000D02*
X48860000Y-42400000D01*
X48960000Y-42700000D02*
X48960000Y-42400000D01*
X48860000Y-47060000D02*
X48860000Y-40940000D01*
X48250000Y-41550000D02*
X44750000Y-41550000D01*
X44750000Y-44000000D02*
X45250000Y-44000000D01*
X48860000Y-43500000D02*
X48250000Y-43500000D01*
X48250000Y-44500000D02*
X48860000Y-44500000D01*
X46250000Y-47060000D02*
X46250000Y-46450000D01*
X44750000Y-43900000D02*
X45250000Y-43900000D01*
X48860000Y-42700000D02*
X49060000Y-42700000D01*
X44140000Y-47060000D02*
X48860000Y-47060000D01*
X44750000Y-41550000D02*
X44750000Y-46450000D01*
X48860000Y-40940000D02*
X44140000Y-40940000D01*
X45250000Y-43900000D02*
X45250000Y-44100000D01*
X49160000Y-41890000D02*
X49160000Y-40640000D01*
X47550000Y-47060000D02*
X47550000Y-46450000D01*
X48250000Y-43500000D02*
X48250000Y-41550000D01*
X45250000Y-44100000D02*
X44750000Y-44100000D01*
%TO.C,D1*%
X45052500Y-51760000D02*
X47737500Y-51760000D01*
X45052500Y-49840000D02*
X45052500Y-51760000D01*
X47737500Y-49840000D02*
X45052500Y-49840000D01*
%TD*%
%LPC*%
D12*
%TO.C,REF\u002A\u002A*%
X35000000Y-75500000D03*
%TD*%
D13*
%TO.C,C6*%
X36900000Y-33750000D03*
X36900000Y-35650000D03*
%TD*%
D14*
%TO.C,J2*%
X37214000Y-65796000D03*
X44214000Y-65796000D03*
D15*
X44614000Y-62296000D03*
X44614000Y-69296000D03*
X41214000Y-62296000D03*
X37414000Y-69296000D03*
X35214000Y-69296000D03*
X35714000Y-62296000D03*
%TD*%
D16*
%TO.C,C1*%
X36900000Y-40050000D03*
X36900000Y-38150000D03*
%TD*%
D17*
%TO.C,J1*%
X22500000Y-32700000D03*
D18*
X22500000Y-35240000D03*
X22500000Y-37780000D03*
X22500000Y-40320000D03*
%TD*%
D19*
%TO.C,C3*%
X31620000Y-39745000D03*
X31620000Y-41295000D03*
%TD*%
D20*
%TO.C,R9*%
X24337500Y-73750000D03*
X26162500Y-73750000D03*
%TD*%
D21*
%TO.C,C8*%
X30516000Y-69797500D03*
X30516000Y-63572500D03*
%TD*%
D22*
%TO.C,C5*%
X30600000Y-33975000D03*
X30600000Y-32425000D03*
%TD*%
D23*
%TO.C,C2*%
X28700000Y-35525000D03*
X28700000Y-38475000D03*
%TD*%
D24*
%TO.C,R6*%
X32920000Y-32967500D03*
X32920000Y-31142500D03*
%TD*%
D20*
%TO.C,R3*%
X33187500Y-42000000D03*
X35012500Y-42000000D03*
%TD*%
D25*
%TO.C,R8*%
X26162500Y-71750000D03*
X24337500Y-71750000D03*
%TD*%
%TO.C,R1*%
X41207500Y-59700000D03*
X39382500Y-59700000D03*
%TD*%
D26*
%TO.C,J5*%
X47050000Y-33500000D03*
D27*
X47050000Y-35500000D03*
X47050000Y-37500000D03*
%TD*%
D28*
%TO.C,U1*%
X32100000Y-35237500D03*
D29*
X31850000Y-35399998D03*
D30*
X32050000Y-35850000D03*
X32050000Y-36299999D03*
X32050000Y-36750001D03*
X32050000Y-37200000D03*
D31*
X32100000Y-37810000D03*
D32*
X31850000Y-37645000D03*
D33*
X32150000Y-38059999D03*
D34*
X32599999Y-38174999D03*
X33050001Y-38174999D03*
X33500000Y-38174999D03*
X33949999Y-38174999D03*
X34400001Y-38174999D03*
D35*
X34850000Y-38065000D03*
D29*
X35150000Y-37650002D03*
D31*
X34900000Y-37810000D03*
D30*
X34950000Y-37200000D03*
X34950000Y-36750001D03*
X34950000Y-36299999D03*
X34950000Y-35850000D03*
D31*
X34900000Y-35240000D03*
D29*
X35150000Y-35400001D03*
D36*
X34850000Y-34995000D03*
D34*
X34400001Y-34875001D03*
X33949999Y-34875001D03*
X33500000Y-34875001D03*
X33050001Y-34875001D03*
X32599999Y-34875001D03*
D33*
X32150000Y-34985000D03*
%TD*%
D25*
%TO.C,R4*%
X38512500Y-42000000D03*
X36687500Y-42000000D03*
%TD*%
%TO.C,R5*%
X47650000Y-48700000D03*
X45825000Y-48700000D03*
%TD*%
%TO.C,R2*%
X35012500Y-40000000D03*
X33187500Y-40000000D03*
%TD*%
D37*
%TO.C,C9*%
X23700000Y-62000000D03*
X21800000Y-62000000D03*
%TD*%
D38*
%TO.C,U2*%
X27025000Y-64225000D03*
X26375000Y-64225000D03*
X25725000Y-64225000D03*
X25075000Y-64225000D03*
X24425000Y-64225000D03*
X23775000Y-64225000D03*
X23125000Y-64225000D03*
X22475000Y-64225000D03*
X22475000Y-69775000D03*
X23125000Y-69775000D03*
X23775000Y-69775000D03*
X24425000Y-69775000D03*
X25075000Y-69775000D03*
X25725000Y-69775000D03*
X26375000Y-69775000D03*
X27025000Y-69775000D03*
D39*
X26092500Y-66265000D03*
X23407500Y-67735000D03*
X25197500Y-66265000D03*
X24302500Y-66265000D03*
X26092500Y-67735000D03*
X25197500Y-67735000D03*
X24302500Y-67735000D03*
X23407500Y-66265000D03*
%TD*%
D40*
%TO.C,J4*%
X46275000Y-55250000D03*
D41*
X46275000Y-57750000D03*
%TD*%
D42*
%TO.C,L1*%
X28500000Y-42000000D03*
X28500000Y-44000000D03*
%TD*%
D22*
%TO.C,C7*%
X27900000Y-73575000D03*
X27900000Y-72025000D03*
%TD*%
D43*
%TO.C,L2*%
X28000000Y-47550000D03*
X28000000Y-57450000D03*
%TD*%
D13*
%TO.C,C4*%
X39000000Y-37350000D03*
X39000000Y-39250000D03*
%TD*%
D26*
%TO.C,J6*%
X47050000Y-43000000D03*
D27*
X47050000Y-45000000D03*
%TD*%
D44*
%TO.C,D1*%
X45800000Y-50800000D03*
X47675000Y-50800000D03*
%TD*%
D17*
%TO.C,J3*%
X43890000Y-26770000D03*
D18*
X43890000Y-24230000D03*
X41350000Y-26770000D03*
X41350000Y-24230000D03*
X38810000Y-26770000D03*
X38810000Y-24230000D03*
X36270000Y-26770000D03*
X36270000Y-24230000D03*
X33730000Y-26770000D03*
X33730000Y-24230000D03*
X31190000Y-26770000D03*
X31190000Y-24230000D03*
X28650000Y-26770000D03*
X28650000Y-24230000D03*
X26110000Y-26770000D03*
X26110000Y-24230000D03*
%TD*%
M02*
