<?xml version="1.0" encoding="UTF-8" standalone="no"?>
<svg
   viewBox="0 0 348 348"
   fill="none"
   version="1.1"
   id="svg12"
   sodipodi:docname="Operator.svg"
   inkscape:version="1.2.2 (732a01da63, 2022-12-09)"
   xmlns:inkscape="http://www.inkscape.org/namespaces/inkscape"
   xmlns:sodipodi="http://sodipodi.sourceforge.net/DTD/sodipodi-0.dtd"
   xmlns="http://www.w3.org/2000/svg"
   xmlns:svg="http://www.w3.org/2000/svg"
   xmlns:rdf="http://www.w3.org/1999/02/22-rdf-syntax-ns#"
   xmlns:cc="http://creativecommons.org/ns#"
   xmlns:dc="http://purl.org/dc/elements/1.1/">
  <metadata
     id="metadata18">
    <rdf:RDF>
      <cc:Work
         rdf:about="">
        <dc:format>image/svg+xml</dc:format>
        <dc:type
           rdf:resource="http://purl.org/dc/dcmitype/StillImage" />
      </cc:Work>
    </rdf:RDF>
  </metadata>
  <defs
     id="defs16" />
  <sodipodi:namedview
     pagecolor="#ffffff"
     bordercolor="#666666"
     borderopacity="1"
     objecttolerance="10"
     gridtolerance="10"
     guidetolerance="10"
     inkscape:pageopacity="0"
     inkscape:pageshadow="2"
     inkscape:window-width="2560"
     inkscape:window-height="1369"
     id="namedview14"
     showgrid="false"
     inkscape:zoom="2.9482759"
     inkscape:cx="167.72514"
     inkscape:cy="174"
     inkscape:window-x="1912"
     inkscape:window-y="-8"
     inkscape:window-maximized="1"
     inkscape:current-layer="svg12"
     inkscape:document-rotation="0"
     inkscape:showpageshadow="2"
     inkscape:pagecheckerboard="0"
     inkscape:deskcolor="#d1d1d1" />
  <path
     d="M5.079 5.776h336.913v337.67H5.08z"
     stroke-width="2"
     stroke="#000"
     id="path2" />
  <path
     d="M282.734 40.554c0-8.376 6.966-15.165 15.56-15.165 4.126 0 8.084 1.597 11.001 4.441 2.918 2.844 4.558 6.702 4.558 10.724 0 8.376-6.966 15.165-15.56 15.165-8.593 0-15.559-6.79-15.559-15.165z"
     stroke-width="2"
     stroke="#000"
     id="path4" />
  <path
     d="m 79.647599,165.61103 c 0,-51.85658 42.033701,-93.88793 93.890921,-93.88793 24.89678,0 48.77984,9.88713 66.38136,27.494635 17.60756,17.607445 27.50352,41.492735 27.50352,66.393295 0,51.85654 -42.0337,93.88789 -93.89092,93.88789 -51.85118,0 -93.884881,-42.03752 -93.884881,-93.88789 z"
     stroke-width="12.2242"
     stroke="#000000"
     id="path4-9" />
  <g
     id="g2894"
     transform="translate(-9.128919,79.80034)">
    <path
       d="m 63.839515,216.39766 c 0,-8.376 6.965999,-15.165 15.56,-15.165 4.126003,0 8.084003,1.597 11.001003,4.441 2.918,2.844 4.558,6.702 4.558,10.724 0,8.376 -6.966,15.165 -15.560004,15.165 -8.593,0 -15.558999,-6.79 -15.558999,-15.165 z"
       stroke-width="2"
       stroke="#000000"
       id="path4-1" />
    <path
       d="m 105.14567,216.39766 c 0,-8.376 6.966,-15.165 15.56,-15.165 4.126,0 8.084,1.597 11.001,4.441 2.918,2.844 4.558,6.702 4.558,10.724 0,8.376 -6.966,15.165 -15.56,15.165 -8.593,0 -15.559,-6.79 -15.559,-15.165 z"
       stroke-width="2"
       stroke="#000000"
       id="path4-1-0" />
    <path
       d="m 146.45183,216.39766 c 0,-8.376 6.966,-15.165 15.56,-15.165 4.126,0 8.084,1.597 11.001,4.441 2.918,2.844 4.558,6.702 4.558,10.724 0,8.376 -6.966,15.165 -15.56001,15.165 -8.59299,0 -15.55899,-6.79 -15.55899,-15.165 z"
       stroke-width="2"
       stroke="#000000"
       id="path4-1-3" />
    <path
       d="m 187.75798,216.39766 c 0,-8.376 6.966,-15.165 15.56,-15.165 4.12601,0 8.08401,1.597 11.00101,4.441 2.918,2.844 4.558,6.702 4.558,10.724 0,8.376 -6.966,15.165 -15.56001,15.165 -8.593,0 -15.559,-6.79 -15.559,-15.165 z"
       stroke-width="2"
       stroke="#000000"
       id="path4-1-2" />
    <path
       d="m 229.06415,216.39766 c 0,-8.376 6.966,-15.165 15.56,-15.165 4.12601,0 8.08401,1.597 11.00101,4.441 2.918,2.844 4.558,6.702 4.558,10.724 0,8.376 -6.966,15.165 -15.56001,15.165 -8.593,0 -15.559,-6.79 -15.559,-15.165 z"
       stroke-width="2"
       stroke="#000000"
       id="path4-1-8" />
    <path
       d="m 270.37031,216.39766 c 0,-8.376 6.966,-15.165 15.56,-15.165 4.12601,0 8.08401,1.597 11.00101,4.441 2.918,2.844 4.558,6.702 4.558,10.724 0,8.376 -6.966,15.165 -15.56001,15.165 -8.593,0 -15.559,-6.79 -15.559,-15.165 z"
       stroke-width="2"
       stroke="#000000"
       id="path4-1-5" />
  </g>
</svg>
