%TF.GenerationSoftware,KiCad,Pcbnew,10.0.0*%
%TF.CreationDate,2026-03-29T14:49:32+01:00*%
%TF.ProjectId,ControlBoard,436f6e74-726f-46c4-926f-6172642e6b69,rev?*%
%TF.SameCoordinates,Original*%
%TF.FileFunction,Legend,Bot*%
%TF.FilePolarity,Positive*%
%FSLAX46Y46*%
G04 Gerber Fmt 4.6, Leading zero omitted, Abs format (unit mm)*
G04 Created by KiCad (PCBNEW 10.0.0) date 2026-03-29 14:49:32*
%MOMM*%
%LPD*%
G01*
G04 APERTURE LIST*
%ADD10C,0.150000*%
G04 APERTURE END LIST*
D10*
X46064286Y-53763703D02*
X46364286Y-53763703D01*
X46364286Y-54235132D02*
X46364286Y-53335132D01*
X46364286Y-53335132D02*
X45935714Y-53335132D01*
X45592857Y-54235132D02*
X45592857Y-53635132D01*
X45592857Y-53335132D02*
X45635714Y-53377989D01*
X45635714Y-53377989D02*
X45592857Y-53420846D01*
X45592857Y-53420846D02*
X45550000Y-53377989D01*
X45550000Y-53377989D02*
X45592857Y-53335132D01*
X45592857Y-53335132D02*
X45592857Y-53420846D01*
X45164286Y-53635132D02*
X45164286Y-54235132D01*
X45164286Y-53720846D02*
X45121429Y-53677989D01*
X45121429Y-53677989D02*
X45035714Y-53635132D01*
X45035714Y-53635132D02*
X44907143Y-53635132D01*
X44907143Y-53635132D02*
X44821429Y-53677989D01*
X44821429Y-53677989D02*
X44778572Y-53763703D01*
X44778572Y-53763703D02*
X44778572Y-54235132D01*
X43964286Y-54235132D02*
X43964286Y-53763703D01*
X43964286Y-53763703D02*
X44007143Y-53677989D01*
X44007143Y-53677989D02*
X44092857Y-53635132D01*
X44092857Y-53635132D02*
X44264286Y-53635132D01*
X44264286Y-53635132D02*
X44350000Y-53677989D01*
X43964286Y-54192275D02*
X44050000Y-54235132D01*
X44050000Y-54235132D02*
X44264286Y-54235132D01*
X44264286Y-54235132D02*
X44350000Y-54192275D01*
X44350000Y-54192275D02*
X44392857Y-54106560D01*
X44392857Y-54106560D02*
X44392857Y-54020846D01*
X44392857Y-54020846D02*
X44350000Y-53935132D01*
X44350000Y-53935132D02*
X44264286Y-53892275D01*
X44264286Y-53892275D02*
X44050000Y-53892275D01*
X44050000Y-53892275D02*
X43964286Y-53849417D01*
X43407142Y-54235132D02*
X43492857Y-54192275D01*
X43492857Y-54192275D02*
X43535714Y-54106560D01*
X43535714Y-54106560D02*
X43535714Y-53335132D01*
X42935713Y-54235132D02*
X43021428Y-54192275D01*
X43021428Y-54192275D02*
X43064285Y-54106560D01*
X43064285Y-54106560D02*
X43064285Y-53335132D01*
X42678570Y-53635132D02*
X42464284Y-54235132D01*
X42249999Y-53635132D02*
X42464284Y-54235132D01*
X42464284Y-54235132D02*
X42549999Y-54449417D01*
X42549999Y-54449417D02*
X42592856Y-54492275D01*
X42592856Y-54492275D02*
X42678570Y-54535132D01*
X41864285Y-54192275D02*
X41864285Y-54235132D01*
X41864285Y-54235132D02*
X41907142Y-54320846D01*
X41907142Y-54320846D02*
X41949999Y-54363703D01*
X40792857Y-54235132D02*
X40792857Y-53335132D01*
X40407143Y-54235132D02*
X40407143Y-53763703D01*
X40407143Y-53763703D02*
X40450000Y-53677989D01*
X40450000Y-53677989D02*
X40535714Y-53635132D01*
X40535714Y-53635132D02*
X40664285Y-53635132D01*
X40664285Y-53635132D02*
X40750000Y-53677989D01*
X40750000Y-53677989D02*
X40792857Y-53720846D01*
X39592857Y-53635132D02*
X39592857Y-54235132D01*
X39978571Y-53635132D02*
X39978571Y-54106560D01*
X39978571Y-54106560D02*
X39935714Y-54192275D01*
X39935714Y-54192275D02*
X39849999Y-54235132D01*
X39849999Y-54235132D02*
X39721428Y-54235132D01*
X39721428Y-54235132D02*
X39635714Y-54192275D01*
X39635714Y-54192275D02*
X39592857Y-54149417D01*
X38778571Y-53635132D02*
X38778571Y-54363703D01*
X38778571Y-54363703D02*
X38821428Y-54449417D01*
X38821428Y-54449417D02*
X38864285Y-54492275D01*
X38864285Y-54492275D02*
X38949999Y-54535132D01*
X38949999Y-54535132D02*
X39078571Y-54535132D01*
X39078571Y-54535132D02*
X39164285Y-54492275D01*
X38778571Y-54192275D02*
X38864285Y-54235132D01*
X38864285Y-54235132D02*
X39035713Y-54235132D01*
X39035713Y-54235132D02*
X39121428Y-54192275D01*
X39121428Y-54192275D02*
X39164285Y-54149417D01*
X39164285Y-54149417D02*
X39207142Y-54063703D01*
X39207142Y-54063703D02*
X39207142Y-53806560D01*
X39207142Y-53806560D02*
X39164285Y-53720846D01*
X39164285Y-53720846D02*
X39121428Y-53677989D01*
X39121428Y-53677989D02*
X39035713Y-53635132D01*
X39035713Y-53635132D02*
X38864285Y-53635132D01*
X38864285Y-53635132D02*
X38778571Y-53677989D01*
X38007142Y-54192275D02*
X38092856Y-54235132D01*
X38092856Y-54235132D02*
X38264285Y-54235132D01*
X38264285Y-54235132D02*
X38349999Y-54192275D01*
X38349999Y-54192275D02*
X38392856Y-54106560D01*
X38392856Y-54106560D02*
X38392856Y-53763703D01*
X38392856Y-53763703D02*
X38349999Y-53677989D01*
X38349999Y-53677989D02*
X38264285Y-53635132D01*
X38264285Y-53635132D02*
X38092856Y-53635132D01*
X38092856Y-53635132D02*
X38007142Y-53677989D01*
X38007142Y-53677989D02*
X37964285Y-53763703D01*
X37964285Y-53763703D02*
X37964285Y-53849417D01*
X37964285Y-53849417D02*
X38392856Y-53935132D01*
X37021427Y-53635132D02*
X36678570Y-53635132D01*
X36892856Y-53335132D02*
X36892856Y-54106560D01*
X36892856Y-54106560D02*
X36849999Y-54192275D01*
X36849999Y-54192275D02*
X36764284Y-54235132D01*
X36764284Y-54235132D02*
X36678570Y-54235132D01*
X36378570Y-54235132D02*
X36378570Y-53335132D01*
X35992856Y-54235132D02*
X35992856Y-53763703D01*
X35992856Y-53763703D02*
X36035713Y-53677989D01*
X36035713Y-53677989D02*
X36121427Y-53635132D01*
X36121427Y-53635132D02*
X36249998Y-53635132D01*
X36249998Y-53635132D02*
X36335713Y-53677989D01*
X36335713Y-53677989D02*
X36378570Y-53720846D01*
X35178570Y-54235132D02*
X35178570Y-53763703D01*
X35178570Y-53763703D02*
X35221427Y-53677989D01*
X35221427Y-53677989D02*
X35307141Y-53635132D01*
X35307141Y-53635132D02*
X35478570Y-53635132D01*
X35478570Y-53635132D02*
X35564284Y-53677989D01*
X35178570Y-54192275D02*
X35264284Y-54235132D01*
X35264284Y-54235132D02*
X35478570Y-54235132D01*
X35478570Y-54235132D02*
X35564284Y-54192275D01*
X35564284Y-54192275D02*
X35607141Y-54106560D01*
X35607141Y-54106560D02*
X35607141Y-54020846D01*
X35607141Y-54020846D02*
X35564284Y-53935132D01*
X35564284Y-53935132D02*
X35478570Y-53892275D01*
X35478570Y-53892275D02*
X35264284Y-53892275D01*
X35264284Y-53892275D02*
X35178570Y-53849417D01*
X34749998Y-53635132D02*
X34749998Y-54235132D01*
X34749998Y-53720846D02*
X34707141Y-53677989D01*
X34707141Y-53677989D02*
X34621426Y-53635132D01*
X34621426Y-53635132D02*
X34492855Y-53635132D01*
X34492855Y-53635132D02*
X34407141Y-53677989D01*
X34407141Y-53677989D02*
X34364284Y-53763703D01*
X34364284Y-53763703D02*
X34364284Y-54235132D01*
X33935712Y-54235132D02*
X33935712Y-53335132D01*
X33849998Y-53892275D02*
X33592855Y-54235132D01*
X33592855Y-53635132D02*
X33935712Y-53977989D01*
X33249998Y-54192275D02*
X33164284Y-54235132D01*
X33164284Y-54235132D02*
X32992855Y-54235132D01*
X32992855Y-54235132D02*
X32907141Y-54192275D01*
X32907141Y-54192275D02*
X32864284Y-54106560D01*
X32864284Y-54106560D02*
X32864284Y-54063703D01*
X32864284Y-54063703D02*
X32907141Y-53977989D01*
X32907141Y-53977989D02*
X32992855Y-53935132D01*
X32992855Y-53935132D02*
X33121427Y-53935132D01*
X33121427Y-53935132D02*
X33207141Y-53892275D01*
X33207141Y-53892275D02*
X33249998Y-53806560D01*
X33249998Y-53806560D02*
X33249998Y-53763703D01*
X33249998Y-53763703D02*
X33207141Y-53677989D01*
X33207141Y-53677989D02*
X33121427Y-53635132D01*
X33121427Y-53635132D02*
X32992855Y-53635132D01*
X32992855Y-53635132D02*
X32907141Y-53677989D01*
X31921427Y-53635132D02*
X31578570Y-53635132D01*
X31792856Y-53335132D02*
X31792856Y-54106560D01*
X31792856Y-54106560D02*
X31749999Y-54192275D01*
X31749999Y-54192275D02*
X31664284Y-54235132D01*
X31664284Y-54235132D02*
X31578570Y-54235132D01*
X31149998Y-54235132D02*
X31235713Y-54192275D01*
X31235713Y-54192275D02*
X31278570Y-54149417D01*
X31278570Y-54149417D02*
X31321427Y-54063703D01*
X31321427Y-54063703D02*
X31321427Y-53806560D01*
X31321427Y-53806560D02*
X31278570Y-53720846D01*
X31278570Y-53720846D02*
X31235713Y-53677989D01*
X31235713Y-53677989D02*
X31149998Y-53635132D01*
X31149998Y-53635132D02*
X31021427Y-53635132D01*
X31021427Y-53635132D02*
X30935713Y-53677989D01*
X30935713Y-53677989D02*
X30892856Y-53720846D01*
X30892856Y-53720846D02*
X30849998Y-53806560D01*
X30849998Y-53806560D02*
X30849998Y-54063703D01*
X30849998Y-54063703D02*
X30892856Y-54149417D01*
X30892856Y-54149417D02*
X30935713Y-54192275D01*
X30935713Y-54192275D02*
X31021427Y-54235132D01*
X31021427Y-54235132D02*
X31149998Y-54235132D01*
X29778570Y-54235132D02*
X29778570Y-53635132D01*
X29778570Y-53720846D02*
X29735713Y-53677989D01*
X29735713Y-53677989D02*
X29649998Y-53635132D01*
X29649998Y-53635132D02*
X29521427Y-53635132D01*
X29521427Y-53635132D02*
X29435713Y-53677989D01*
X29435713Y-53677989D02*
X29392856Y-53763703D01*
X29392856Y-53763703D02*
X29392856Y-54235132D01*
X29392856Y-53763703D02*
X29349998Y-53677989D01*
X29349998Y-53677989D02*
X29264284Y-53635132D01*
X29264284Y-53635132D02*
X29135713Y-53635132D01*
X29135713Y-53635132D02*
X29049998Y-53677989D01*
X29049998Y-53677989D02*
X29007141Y-53763703D01*
X29007141Y-53763703D02*
X29007141Y-54235132D01*
X28664284Y-53635132D02*
X28449998Y-54235132D01*
X28235713Y-53635132D02*
X28449998Y-54235132D01*
X28449998Y-54235132D02*
X28535713Y-54449417D01*
X28535713Y-54449417D02*
X28578570Y-54492275D01*
X28578570Y-54492275D02*
X28664284Y-54535132D01*
X47971430Y-55084082D02*
X47800002Y-55684082D01*
X47800002Y-55684082D02*
X47628573Y-55255510D01*
X47628573Y-55255510D02*
X47457144Y-55684082D01*
X47457144Y-55684082D02*
X47285716Y-55084082D01*
X46942859Y-55684082D02*
X46942859Y-55084082D01*
X46942859Y-54784082D02*
X46985716Y-54826939D01*
X46985716Y-54826939D02*
X46942859Y-54869796D01*
X46942859Y-54869796D02*
X46900002Y-54826939D01*
X46900002Y-54826939D02*
X46942859Y-54784082D01*
X46942859Y-54784082D02*
X46942859Y-54869796D01*
X46642859Y-55084082D02*
X46300002Y-55084082D01*
X46514288Y-55684082D02*
X46514288Y-54912653D01*
X46514288Y-54912653D02*
X46471431Y-54826939D01*
X46471431Y-54826939D02*
X46385716Y-54784082D01*
X46385716Y-54784082D02*
X46300002Y-54784082D01*
X45657145Y-55641225D02*
X45742859Y-55684082D01*
X45742859Y-55684082D02*
X45914288Y-55684082D01*
X45914288Y-55684082D02*
X46000002Y-55641225D01*
X46000002Y-55641225D02*
X46042859Y-55555510D01*
X46042859Y-55555510D02*
X46042859Y-55212653D01*
X46042859Y-55212653D02*
X46000002Y-55126939D01*
X46000002Y-55126939D02*
X45914288Y-55084082D01*
X45914288Y-55084082D02*
X45742859Y-55084082D01*
X45742859Y-55084082D02*
X45657145Y-55126939D01*
X45657145Y-55126939D02*
X45614288Y-55212653D01*
X45614288Y-55212653D02*
X45614288Y-55298367D01*
X45614288Y-55298367D02*
X46042859Y-55384082D01*
X44157145Y-55684082D02*
X44157145Y-55212653D01*
X44157145Y-55212653D02*
X44200002Y-55126939D01*
X44200002Y-55126939D02*
X44285716Y-55084082D01*
X44285716Y-55084082D02*
X44457145Y-55084082D01*
X44457145Y-55084082D02*
X44542859Y-55126939D01*
X44157145Y-55641225D02*
X44242859Y-55684082D01*
X44242859Y-55684082D02*
X44457145Y-55684082D01*
X44457145Y-55684082D02*
X44542859Y-55641225D01*
X44542859Y-55641225D02*
X44585716Y-55555510D01*
X44585716Y-55555510D02*
X44585716Y-55469796D01*
X44585716Y-55469796D02*
X44542859Y-55384082D01*
X44542859Y-55384082D02*
X44457145Y-55341225D01*
X44457145Y-55341225D02*
X44242859Y-55341225D01*
X44242859Y-55341225D02*
X44157145Y-55298367D01*
X43728573Y-55084082D02*
X43728573Y-55684082D01*
X43728573Y-55169796D02*
X43685716Y-55126939D01*
X43685716Y-55126939D02*
X43600001Y-55084082D01*
X43600001Y-55084082D02*
X43471430Y-55084082D01*
X43471430Y-55084082D02*
X43385716Y-55126939D01*
X43385716Y-55126939D02*
X43342859Y-55212653D01*
X43342859Y-55212653D02*
X43342859Y-55684082D01*
X42528573Y-55684082D02*
X42528573Y-54784082D01*
X42528573Y-55641225D02*
X42614287Y-55684082D01*
X42614287Y-55684082D02*
X42785715Y-55684082D01*
X42785715Y-55684082D02*
X42871430Y-55641225D01*
X42871430Y-55641225D02*
X42914287Y-55598367D01*
X42914287Y-55598367D02*
X42957144Y-55512653D01*
X42957144Y-55512653D02*
X42957144Y-55255510D01*
X42957144Y-55255510D02*
X42914287Y-55169796D01*
X42914287Y-55169796D02*
X42871430Y-55126939D01*
X42871430Y-55126939D02*
X42785715Y-55084082D01*
X42785715Y-55084082D02*
X42614287Y-55084082D01*
X42614287Y-55084082D02*
X42528573Y-55126939D01*
X41028573Y-55684082D02*
X41028573Y-54784082D01*
X41028573Y-55641225D02*
X41114287Y-55684082D01*
X41114287Y-55684082D02*
X41285715Y-55684082D01*
X41285715Y-55684082D02*
X41371430Y-55641225D01*
X41371430Y-55641225D02*
X41414287Y-55598367D01*
X41414287Y-55598367D02*
X41457144Y-55512653D01*
X41457144Y-55512653D02*
X41457144Y-55255510D01*
X41457144Y-55255510D02*
X41414287Y-55169796D01*
X41414287Y-55169796D02*
X41371430Y-55126939D01*
X41371430Y-55126939D02*
X41285715Y-55084082D01*
X41285715Y-55084082D02*
X41114287Y-55084082D01*
X41114287Y-55084082D02*
X41028573Y-55126939D01*
X40214287Y-55684082D02*
X40214287Y-55212653D01*
X40214287Y-55212653D02*
X40257144Y-55126939D01*
X40257144Y-55126939D02*
X40342858Y-55084082D01*
X40342858Y-55084082D02*
X40514287Y-55084082D01*
X40514287Y-55084082D02*
X40600001Y-55126939D01*
X40214287Y-55641225D02*
X40300001Y-55684082D01*
X40300001Y-55684082D02*
X40514287Y-55684082D01*
X40514287Y-55684082D02*
X40600001Y-55641225D01*
X40600001Y-55641225D02*
X40642858Y-55555510D01*
X40642858Y-55555510D02*
X40642858Y-55469796D01*
X40642858Y-55469796D02*
X40600001Y-55384082D01*
X40600001Y-55384082D02*
X40514287Y-55341225D01*
X40514287Y-55341225D02*
X40300001Y-55341225D01*
X40300001Y-55341225D02*
X40214287Y-55298367D01*
X39400001Y-55084082D02*
X39400001Y-55684082D01*
X39785715Y-55084082D02*
X39785715Y-55555510D01*
X39785715Y-55555510D02*
X39742858Y-55641225D01*
X39742858Y-55641225D02*
X39657143Y-55684082D01*
X39657143Y-55684082D02*
X39528572Y-55684082D01*
X39528572Y-55684082D02*
X39442858Y-55641225D01*
X39442858Y-55641225D02*
X39400001Y-55598367D01*
X38585715Y-55084082D02*
X38585715Y-55812653D01*
X38585715Y-55812653D02*
X38628572Y-55898367D01*
X38628572Y-55898367D02*
X38671429Y-55941225D01*
X38671429Y-55941225D02*
X38757143Y-55984082D01*
X38757143Y-55984082D02*
X38885715Y-55984082D01*
X38885715Y-55984082D02*
X38971429Y-55941225D01*
X38585715Y-55641225D02*
X38671429Y-55684082D01*
X38671429Y-55684082D02*
X38842857Y-55684082D01*
X38842857Y-55684082D02*
X38928572Y-55641225D01*
X38928572Y-55641225D02*
X38971429Y-55598367D01*
X38971429Y-55598367D02*
X39014286Y-55512653D01*
X39014286Y-55512653D02*
X39014286Y-55255510D01*
X39014286Y-55255510D02*
X38971429Y-55169796D01*
X38971429Y-55169796D02*
X38928572Y-55126939D01*
X38928572Y-55126939D02*
X38842857Y-55084082D01*
X38842857Y-55084082D02*
X38671429Y-55084082D01*
X38671429Y-55084082D02*
X38585715Y-55126939D01*
X38157143Y-55684082D02*
X38157143Y-54784082D01*
X37771429Y-55684082D02*
X37771429Y-55212653D01*
X37771429Y-55212653D02*
X37814286Y-55126939D01*
X37814286Y-55126939D02*
X37900000Y-55084082D01*
X37900000Y-55084082D02*
X38028571Y-55084082D01*
X38028571Y-55084082D02*
X38114286Y-55126939D01*
X38114286Y-55126939D02*
X38157143Y-55169796D01*
X37471428Y-55084082D02*
X37128571Y-55084082D01*
X37342857Y-54784082D02*
X37342857Y-55555510D01*
X37342857Y-55555510D02*
X37300000Y-55641225D01*
X37300000Y-55641225D02*
X37214285Y-55684082D01*
X37214285Y-55684082D02*
X37128571Y-55684082D01*
X36485714Y-55641225D02*
X36571428Y-55684082D01*
X36571428Y-55684082D02*
X36742857Y-55684082D01*
X36742857Y-55684082D02*
X36828571Y-55641225D01*
X36828571Y-55641225D02*
X36871428Y-55555510D01*
X36871428Y-55555510D02*
X36871428Y-55212653D01*
X36871428Y-55212653D02*
X36828571Y-55126939D01*
X36828571Y-55126939D02*
X36742857Y-55084082D01*
X36742857Y-55084082D02*
X36571428Y-55084082D01*
X36571428Y-55084082D02*
X36485714Y-55126939D01*
X36485714Y-55126939D02*
X36442857Y-55212653D01*
X36442857Y-55212653D02*
X36442857Y-55298367D01*
X36442857Y-55298367D02*
X36871428Y-55384082D01*
X36057142Y-55684082D02*
X36057142Y-55084082D01*
X36057142Y-55255510D02*
X36014285Y-55169796D01*
X36014285Y-55169796D02*
X35971428Y-55126939D01*
X35971428Y-55126939D02*
X35885713Y-55084082D01*
X35885713Y-55084082D02*
X35799999Y-55084082D01*
X35542856Y-55641225D02*
X35457142Y-55684082D01*
X35457142Y-55684082D02*
X35285713Y-55684082D01*
X35285713Y-55684082D02*
X35199999Y-55641225D01*
X35199999Y-55641225D02*
X35157142Y-55555510D01*
X35157142Y-55555510D02*
X35157142Y-55512653D01*
X35157142Y-55512653D02*
X35199999Y-55426939D01*
X35199999Y-55426939D02*
X35285713Y-55384082D01*
X35285713Y-55384082D02*
X35414285Y-55384082D01*
X35414285Y-55384082D02*
X35499999Y-55341225D01*
X35499999Y-55341225D02*
X35542856Y-55255510D01*
X35542856Y-55255510D02*
X35542856Y-55212653D01*
X35542856Y-55212653D02*
X35499999Y-55126939D01*
X35499999Y-55126939D02*
X35414285Y-55084082D01*
X35414285Y-55084082D02*
X35285713Y-55084082D01*
X35285713Y-55084082D02*
X35199999Y-55126939D01*
X34214285Y-55084082D02*
X33871428Y-55084082D01*
X34085714Y-54784082D02*
X34085714Y-55555510D01*
X34085714Y-55555510D02*
X34042857Y-55641225D01*
X34042857Y-55641225D02*
X33957142Y-55684082D01*
X33957142Y-55684082D02*
X33871428Y-55684082D01*
X33571428Y-55684082D02*
X33571428Y-54784082D01*
X33185714Y-55684082D02*
X33185714Y-55212653D01*
X33185714Y-55212653D02*
X33228571Y-55126939D01*
X33228571Y-55126939D02*
X33314285Y-55084082D01*
X33314285Y-55084082D02*
X33442856Y-55084082D01*
X33442856Y-55084082D02*
X33528571Y-55126939D01*
X33528571Y-55126939D02*
X33571428Y-55169796D01*
X32371428Y-55684082D02*
X32371428Y-55212653D01*
X32371428Y-55212653D02*
X32414285Y-55126939D01*
X32414285Y-55126939D02*
X32499999Y-55084082D01*
X32499999Y-55084082D02*
X32671428Y-55084082D01*
X32671428Y-55084082D02*
X32757142Y-55126939D01*
X32371428Y-55641225D02*
X32457142Y-55684082D01*
X32457142Y-55684082D02*
X32671428Y-55684082D01*
X32671428Y-55684082D02*
X32757142Y-55641225D01*
X32757142Y-55641225D02*
X32799999Y-55555510D01*
X32799999Y-55555510D02*
X32799999Y-55469796D01*
X32799999Y-55469796D02*
X32757142Y-55384082D01*
X32757142Y-55384082D02*
X32671428Y-55341225D01*
X32671428Y-55341225D02*
X32457142Y-55341225D01*
X32457142Y-55341225D02*
X32371428Y-55298367D01*
X32071427Y-55084082D02*
X31728570Y-55084082D01*
X31942856Y-54784082D02*
X31942856Y-55555510D01*
X31942856Y-55555510D02*
X31899999Y-55641225D01*
X31899999Y-55641225D02*
X31814284Y-55684082D01*
X31814284Y-55684082D02*
X31728570Y-55684082D01*
X30785713Y-55641225D02*
X30699999Y-55684082D01*
X30699999Y-55684082D02*
X30528570Y-55684082D01*
X30528570Y-55684082D02*
X30442856Y-55641225D01*
X30442856Y-55641225D02*
X30399999Y-55555510D01*
X30399999Y-55555510D02*
X30399999Y-55512653D01*
X30399999Y-55512653D02*
X30442856Y-55426939D01*
X30442856Y-55426939D02*
X30528570Y-55384082D01*
X30528570Y-55384082D02*
X30657142Y-55384082D01*
X30657142Y-55384082D02*
X30742856Y-55341225D01*
X30742856Y-55341225D02*
X30785713Y-55255510D01*
X30785713Y-55255510D02*
X30785713Y-55212653D01*
X30785713Y-55212653D02*
X30742856Y-55126939D01*
X30742856Y-55126939D02*
X30657142Y-55084082D01*
X30657142Y-55084082D02*
X30528570Y-55084082D01*
X30528570Y-55084082D02*
X30442856Y-55126939D01*
X29628571Y-55084082D02*
X29628571Y-55684082D01*
X30014285Y-55084082D02*
X30014285Y-55555510D01*
X30014285Y-55555510D02*
X29971428Y-55641225D01*
X29971428Y-55641225D02*
X29885713Y-55684082D01*
X29885713Y-55684082D02*
X29757142Y-55684082D01*
X29757142Y-55684082D02*
X29671428Y-55641225D01*
X29671428Y-55641225D02*
X29628571Y-55598367D01*
X29199999Y-55084082D02*
X29199999Y-55984082D01*
X29199999Y-55126939D02*
X29114285Y-55084082D01*
X29114285Y-55084082D02*
X28942856Y-55084082D01*
X28942856Y-55084082D02*
X28857142Y-55126939D01*
X28857142Y-55126939D02*
X28814285Y-55169796D01*
X28814285Y-55169796D02*
X28771427Y-55255510D01*
X28771427Y-55255510D02*
X28771427Y-55512653D01*
X28771427Y-55512653D02*
X28814285Y-55598367D01*
X28814285Y-55598367D02*
X28857142Y-55641225D01*
X28857142Y-55641225D02*
X28942856Y-55684082D01*
X28942856Y-55684082D02*
X29114285Y-55684082D01*
X29114285Y-55684082D02*
X29199999Y-55641225D01*
X28385713Y-55084082D02*
X28385713Y-55984082D01*
X28385713Y-55126939D02*
X28299999Y-55084082D01*
X28299999Y-55084082D02*
X28128570Y-55084082D01*
X28128570Y-55084082D02*
X28042856Y-55126939D01*
X28042856Y-55126939D02*
X27999999Y-55169796D01*
X27999999Y-55169796D02*
X27957141Y-55255510D01*
X27957141Y-55255510D02*
X27957141Y-55512653D01*
X27957141Y-55512653D02*
X27999999Y-55598367D01*
X27999999Y-55598367D02*
X28042856Y-55641225D01*
X28042856Y-55641225D02*
X28128570Y-55684082D01*
X28128570Y-55684082D02*
X28299999Y-55684082D01*
X28299999Y-55684082D02*
X28385713Y-55641225D01*
X27442855Y-55684082D02*
X27528570Y-55641225D01*
X27528570Y-55641225D02*
X27571427Y-55598367D01*
X27571427Y-55598367D02*
X27614284Y-55512653D01*
X27614284Y-55512653D02*
X27614284Y-55255510D01*
X27614284Y-55255510D02*
X27571427Y-55169796D01*
X27571427Y-55169796D02*
X27528570Y-55126939D01*
X27528570Y-55126939D02*
X27442855Y-55084082D01*
X27442855Y-55084082D02*
X27314284Y-55084082D01*
X27314284Y-55084082D02*
X27228570Y-55126939D01*
X27228570Y-55126939D02*
X27185713Y-55169796D01*
X27185713Y-55169796D02*
X27142855Y-55255510D01*
X27142855Y-55255510D02*
X27142855Y-55512653D01*
X27142855Y-55512653D02*
X27185713Y-55598367D01*
X27185713Y-55598367D02*
X27228570Y-55641225D01*
X27228570Y-55641225D02*
X27314284Y-55684082D01*
X27314284Y-55684082D02*
X27442855Y-55684082D01*
X26757141Y-55684082D02*
X26757141Y-55084082D01*
X26757141Y-55255510D02*
X26714284Y-55169796D01*
X26714284Y-55169796D02*
X26671427Y-55126939D01*
X26671427Y-55126939D02*
X26585712Y-55084082D01*
X26585712Y-55084082D02*
X26499998Y-55084082D01*
X26328569Y-55084082D02*
X25985712Y-55084082D01*
X26199998Y-54784082D02*
X26199998Y-55555510D01*
X26199998Y-55555510D02*
X26157141Y-55641225D01*
X26157141Y-55641225D02*
X26071426Y-55684082D01*
X26071426Y-55684082D02*
X25985712Y-55684082D01*
X47050000Y-57133032D02*
X47050000Y-56533032D01*
X47050000Y-56618746D02*
X47007143Y-56575889D01*
X47007143Y-56575889D02*
X46921428Y-56533032D01*
X46921428Y-56533032D02*
X46792857Y-56533032D01*
X46792857Y-56533032D02*
X46707143Y-56575889D01*
X46707143Y-56575889D02*
X46664286Y-56661603D01*
X46664286Y-56661603D02*
X46664286Y-57133032D01*
X46664286Y-56661603D02*
X46621428Y-56575889D01*
X46621428Y-56575889D02*
X46535714Y-56533032D01*
X46535714Y-56533032D02*
X46407143Y-56533032D01*
X46407143Y-56533032D02*
X46321428Y-56575889D01*
X46321428Y-56575889D02*
X46278571Y-56661603D01*
X46278571Y-56661603D02*
X46278571Y-57133032D01*
X45935714Y-56533032D02*
X45721428Y-57133032D01*
X45507143Y-56533032D02*
X45721428Y-57133032D01*
X45721428Y-57133032D02*
X45807143Y-57347317D01*
X45807143Y-57347317D02*
X45850000Y-57390175D01*
X45850000Y-57390175D02*
X45935714Y-57433032D01*
X44478572Y-57133032D02*
X44478572Y-56533032D01*
X44478572Y-56233032D02*
X44521429Y-56275889D01*
X44521429Y-56275889D02*
X44478572Y-56318746D01*
X44478572Y-56318746D02*
X44435715Y-56275889D01*
X44435715Y-56275889D02*
X44478572Y-56233032D01*
X44478572Y-56233032D02*
X44478572Y-56318746D01*
X44050001Y-56533032D02*
X44050001Y-57133032D01*
X44050001Y-56618746D02*
X44007144Y-56575889D01*
X44007144Y-56575889D02*
X43921429Y-56533032D01*
X43921429Y-56533032D02*
X43792858Y-56533032D01*
X43792858Y-56533032D02*
X43707144Y-56575889D01*
X43707144Y-56575889D02*
X43664287Y-56661603D01*
X43664287Y-56661603D02*
X43664287Y-57133032D01*
X43278572Y-57090175D02*
X43192858Y-57133032D01*
X43192858Y-57133032D02*
X43021429Y-57133032D01*
X43021429Y-57133032D02*
X42935715Y-57090175D01*
X42935715Y-57090175D02*
X42892858Y-57004460D01*
X42892858Y-57004460D02*
X42892858Y-56961603D01*
X42892858Y-56961603D02*
X42935715Y-56875889D01*
X42935715Y-56875889D02*
X43021429Y-56833032D01*
X43021429Y-56833032D02*
X43150001Y-56833032D01*
X43150001Y-56833032D02*
X43235715Y-56790175D01*
X43235715Y-56790175D02*
X43278572Y-56704460D01*
X43278572Y-56704460D02*
X43278572Y-56661603D01*
X43278572Y-56661603D02*
X43235715Y-56575889D01*
X43235715Y-56575889D02*
X43150001Y-56533032D01*
X43150001Y-56533032D02*
X43021429Y-56533032D01*
X43021429Y-56533032D02*
X42935715Y-56575889D01*
X42121430Y-57133032D02*
X42121430Y-56661603D01*
X42121430Y-56661603D02*
X42164287Y-56575889D01*
X42164287Y-56575889D02*
X42250001Y-56533032D01*
X42250001Y-56533032D02*
X42421430Y-56533032D01*
X42421430Y-56533032D02*
X42507144Y-56575889D01*
X42121430Y-57090175D02*
X42207144Y-57133032D01*
X42207144Y-57133032D02*
X42421430Y-57133032D01*
X42421430Y-57133032D02*
X42507144Y-57090175D01*
X42507144Y-57090175D02*
X42550001Y-57004460D01*
X42550001Y-57004460D02*
X42550001Y-56918746D01*
X42550001Y-56918746D02*
X42507144Y-56833032D01*
X42507144Y-56833032D02*
X42421430Y-56790175D01*
X42421430Y-56790175D02*
X42207144Y-56790175D01*
X42207144Y-56790175D02*
X42121430Y-56747317D01*
X41692858Y-56533032D02*
X41692858Y-57133032D01*
X41692858Y-56618746D02*
X41650001Y-56575889D01*
X41650001Y-56575889D02*
X41564286Y-56533032D01*
X41564286Y-56533032D02*
X41435715Y-56533032D01*
X41435715Y-56533032D02*
X41350001Y-56575889D01*
X41350001Y-56575889D02*
X41307144Y-56661603D01*
X41307144Y-56661603D02*
X41307144Y-57133032D01*
X40535715Y-57090175D02*
X40621429Y-57133032D01*
X40621429Y-57133032D02*
X40792858Y-57133032D01*
X40792858Y-57133032D02*
X40878572Y-57090175D01*
X40878572Y-57090175D02*
X40921429Y-57004460D01*
X40921429Y-57004460D02*
X40921429Y-56661603D01*
X40921429Y-56661603D02*
X40878572Y-56575889D01*
X40878572Y-56575889D02*
X40792858Y-56533032D01*
X40792858Y-56533032D02*
X40621429Y-56533032D01*
X40621429Y-56533032D02*
X40535715Y-56575889D01*
X40535715Y-56575889D02*
X40492858Y-56661603D01*
X40492858Y-56661603D02*
X40492858Y-56747317D01*
X40492858Y-56747317D02*
X40921429Y-56833032D01*
X39421429Y-57133032D02*
X39421429Y-56233032D01*
X39035715Y-57133032D02*
X39035715Y-56661603D01*
X39035715Y-56661603D02*
X39078572Y-56575889D01*
X39078572Y-56575889D02*
X39164286Y-56533032D01*
X39164286Y-56533032D02*
X39292857Y-56533032D01*
X39292857Y-56533032D02*
X39378572Y-56575889D01*
X39378572Y-56575889D02*
X39421429Y-56618746D01*
X38478571Y-57133032D02*
X38564286Y-57090175D01*
X38564286Y-57090175D02*
X38607143Y-57047317D01*
X38607143Y-57047317D02*
X38650000Y-56961603D01*
X38650000Y-56961603D02*
X38650000Y-56704460D01*
X38650000Y-56704460D02*
X38607143Y-56618746D01*
X38607143Y-56618746D02*
X38564286Y-56575889D01*
X38564286Y-56575889D02*
X38478571Y-56533032D01*
X38478571Y-56533032D02*
X38350000Y-56533032D01*
X38350000Y-56533032D02*
X38264286Y-56575889D01*
X38264286Y-56575889D02*
X38221429Y-56618746D01*
X38221429Y-56618746D02*
X38178571Y-56704460D01*
X38178571Y-56704460D02*
X38178571Y-56961603D01*
X38178571Y-56961603D02*
X38221429Y-57047317D01*
X38221429Y-57047317D02*
X38264286Y-57090175D01*
X38264286Y-57090175D02*
X38350000Y-57133032D01*
X38350000Y-57133032D02*
X38478571Y-57133032D01*
X37792857Y-57133032D02*
X37792857Y-56233032D01*
X37792857Y-56575889D02*
X37707143Y-56533032D01*
X37707143Y-56533032D02*
X37535714Y-56533032D01*
X37535714Y-56533032D02*
X37450000Y-56575889D01*
X37450000Y-56575889D02*
X37407143Y-56618746D01*
X37407143Y-56618746D02*
X37364285Y-56704460D01*
X37364285Y-56704460D02*
X37364285Y-56961603D01*
X37364285Y-56961603D02*
X37407143Y-57047317D01*
X37407143Y-57047317D02*
X37450000Y-57090175D01*
X37450000Y-57090175D02*
X37535714Y-57133032D01*
X37535714Y-57133032D02*
X37707143Y-57133032D01*
X37707143Y-57133032D02*
X37792857Y-57090175D01*
X36978571Y-57133032D02*
X36978571Y-56233032D01*
X36978571Y-56575889D02*
X36892857Y-56533032D01*
X36892857Y-56533032D02*
X36721428Y-56533032D01*
X36721428Y-56533032D02*
X36635714Y-56575889D01*
X36635714Y-56575889D02*
X36592857Y-56618746D01*
X36592857Y-56618746D02*
X36549999Y-56704460D01*
X36549999Y-56704460D02*
X36549999Y-56961603D01*
X36549999Y-56961603D02*
X36592857Y-57047317D01*
X36592857Y-57047317D02*
X36635714Y-57090175D01*
X36635714Y-57090175D02*
X36721428Y-57133032D01*
X36721428Y-57133032D02*
X36892857Y-57133032D01*
X36892857Y-57133032D02*
X36978571Y-57090175D01*
X36164285Y-57133032D02*
X36164285Y-56533032D01*
X36164285Y-56233032D02*
X36207142Y-56275889D01*
X36207142Y-56275889D02*
X36164285Y-56318746D01*
X36164285Y-56318746D02*
X36121428Y-56275889D01*
X36121428Y-56275889D02*
X36164285Y-56233032D01*
X36164285Y-56233032D02*
X36164285Y-56318746D01*
X35392857Y-57090175D02*
X35478571Y-57133032D01*
X35478571Y-57133032D02*
X35650000Y-57133032D01*
X35650000Y-57133032D02*
X35735714Y-57090175D01*
X35735714Y-57090175D02*
X35778571Y-57004460D01*
X35778571Y-57004460D02*
X35778571Y-56661603D01*
X35778571Y-56661603D02*
X35735714Y-56575889D01*
X35735714Y-56575889D02*
X35650000Y-56533032D01*
X35650000Y-56533032D02*
X35478571Y-56533032D01*
X35478571Y-56533032D02*
X35392857Y-56575889D01*
X35392857Y-56575889D02*
X35350000Y-56661603D01*
X35350000Y-56661603D02*
X35350000Y-56747317D01*
X35350000Y-56747317D02*
X35778571Y-56833032D01*
X35007142Y-57090175D02*
X34921428Y-57133032D01*
X34921428Y-57133032D02*
X34749999Y-57133032D01*
X34749999Y-57133032D02*
X34664285Y-57090175D01*
X34664285Y-57090175D02*
X34621428Y-57004460D01*
X34621428Y-57004460D02*
X34621428Y-56961603D01*
X34621428Y-56961603D02*
X34664285Y-56875889D01*
X34664285Y-56875889D02*
X34749999Y-56833032D01*
X34749999Y-56833032D02*
X34878571Y-56833032D01*
X34878571Y-56833032D02*
X34964285Y-56790175D01*
X34964285Y-56790175D02*
X35007142Y-56704460D01*
X35007142Y-56704460D02*
X35007142Y-56661603D01*
X35007142Y-56661603D02*
X34964285Y-56575889D01*
X34964285Y-56575889D02*
X34878571Y-56533032D01*
X34878571Y-56533032D02*
X34749999Y-56533032D01*
X34749999Y-56533032D02*
X34664285Y-56575889D01*
X33164286Y-57133032D02*
X33164286Y-56661603D01*
X33164286Y-56661603D02*
X33207143Y-56575889D01*
X33207143Y-56575889D02*
X33292857Y-56533032D01*
X33292857Y-56533032D02*
X33464286Y-56533032D01*
X33464286Y-56533032D02*
X33550000Y-56575889D01*
X33164286Y-57090175D02*
X33250000Y-57133032D01*
X33250000Y-57133032D02*
X33464286Y-57133032D01*
X33464286Y-57133032D02*
X33550000Y-57090175D01*
X33550000Y-57090175D02*
X33592857Y-57004460D01*
X33592857Y-57004460D02*
X33592857Y-56918746D01*
X33592857Y-56918746D02*
X33550000Y-56833032D01*
X33550000Y-56833032D02*
X33464286Y-56790175D01*
X33464286Y-56790175D02*
X33250000Y-56790175D01*
X33250000Y-56790175D02*
X33164286Y-56747317D01*
X32735714Y-56533032D02*
X32735714Y-57133032D01*
X32735714Y-56618746D02*
X32692857Y-56575889D01*
X32692857Y-56575889D02*
X32607142Y-56533032D01*
X32607142Y-56533032D02*
X32478571Y-56533032D01*
X32478571Y-56533032D02*
X32392857Y-56575889D01*
X32392857Y-56575889D02*
X32350000Y-56661603D01*
X32350000Y-56661603D02*
X32350000Y-57133032D01*
X31535714Y-57133032D02*
X31535714Y-56233032D01*
X31535714Y-57090175D02*
X31621428Y-57133032D01*
X31621428Y-57133032D02*
X31792856Y-57133032D01*
X31792856Y-57133032D02*
X31878571Y-57090175D01*
X31878571Y-57090175D02*
X31921428Y-57047317D01*
X31921428Y-57047317D02*
X31964285Y-56961603D01*
X31964285Y-56961603D02*
X31964285Y-56704460D01*
X31964285Y-56704460D02*
X31921428Y-56618746D01*
X31921428Y-56618746D02*
X31878571Y-56575889D01*
X31878571Y-56575889D02*
X31792856Y-56533032D01*
X31792856Y-56533032D02*
X31621428Y-56533032D01*
X31621428Y-56533032D02*
X31535714Y-56575889D01*
X30464285Y-57090175D02*
X30378571Y-57133032D01*
X30378571Y-57133032D02*
X30207142Y-57133032D01*
X30207142Y-57133032D02*
X30121428Y-57090175D01*
X30121428Y-57090175D02*
X30078571Y-57004460D01*
X30078571Y-57004460D02*
X30078571Y-56961603D01*
X30078571Y-56961603D02*
X30121428Y-56875889D01*
X30121428Y-56875889D02*
X30207142Y-56833032D01*
X30207142Y-56833032D02*
X30335714Y-56833032D01*
X30335714Y-56833032D02*
X30421428Y-56790175D01*
X30421428Y-56790175D02*
X30464285Y-56704460D01*
X30464285Y-56704460D02*
X30464285Y-56661603D01*
X30464285Y-56661603D02*
X30421428Y-56575889D01*
X30421428Y-56575889D02*
X30335714Y-56533032D01*
X30335714Y-56533032D02*
X30207142Y-56533032D01*
X30207142Y-56533032D02*
X30121428Y-56575889D01*
X29307143Y-56533032D02*
X29307143Y-57133032D01*
X29692857Y-56533032D02*
X29692857Y-57004460D01*
X29692857Y-57004460D02*
X29650000Y-57090175D01*
X29650000Y-57090175D02*
X29564285Y-57133032D01*
X29564285Y-57133032D02*
X29435714Y-57133032D01*
X29435714Y-57133032D02*
X29350000Y-57090175D01*
X29350000Y-57090175D02*
X29307143Y-57047317D01*
X29007142Y-56533032D02*
X28664285Y-56533032D01*
X28878571Y-57133032D02*
X28878571Y-56361603D01*
X28878571Y-56361603D02*
X28835714Y-56275889D01*
X28835714Y-56275889D02*
X28749999Y-56233032D01*
X28749999Y-56233032D02*
X28664285Y-56233032D01*
X28492856Y-56533032D02*
X28149999Y-56533032D01*
X28364285Y-57133032D02*
X28364285Y-56361603D01*
X28364285Y-56361603D02*
X28321428Y-56275889D01*
X28321428Y-56275889D02*
X28235713Y-56233032D01*
X28235713Y-56233032D02*
X28149999Y-56233032D01*
X27507142Y-57090175D02*
X27592856Y-57133032D01*
X27592856Y-57133032D02*
X27764285Y-57133032D01*
X27764285Y-57133032D02*
X27849999Y-57090175D01*
X27849999Y-57090175D02*
X27892856Y-57004460D01*
X27892856Y-57004460D02*
X27892856Y-56661603D01*
X27892856Y-56661603D02*
X27849999Y-56575889D01*
X27849999Y-56575889D02*
X27764285Y-56533032D01*
X27764285Y-56533032D02*
X27592856Y-56533032D01*
X27592856Y-56533032D02*
X27507142Y-56575889D01*
X27507142Y-56575889D02*
X27464285Y-56661603D01*
X27464285Y-56661603D02*
X27464285Y-56747317D01*
X27464285Y-56747317D02*
X27892856Y-56833032D01*
X27078570Y-57133032D02*
X27078570Y-56533032D01*
X27078570Y-56704460D02*
X27035713Y-56618746D01*
X27035713Y-56618746D02*
X26992856Y-56575889D01*
X26992856Y-56575889D02*
X26907141Y-56533032D01*
X26907141Y-56533032D02*
X26821427Y-56533032D01*
X44307143Y-58581982D02*
X44307143Y-57981982D01*
X44307143Y-58067696D02*
X44264286Y-58024839D01*
X44264286Y-58024839D02*
X44178571Y-57981982D01*
X44178571Y-57981982D02*
X44050000Y-57981982D01*
X44050000Y-57981982D02*
X43964286Y-58024839D01*
X43964286Y-58024839D02*
X43921429Y-58110553D01*
X43921429Y-58110553D02*
X43921429Y-58581982D01*
X43921429Y-58110553D02*
X43878571Y-58024839D01*
X43878571Y-58024839D02*
X43792857Y-57981982D01*
X43792857Y-57981982D02*
X43664286Y-57981982D01*
X43664286Y-57981982D02*
X43578571Y-58024839D01*
X43578571Y-58024839D02*
X43535714Y-58110553D01*
X43535714Y-58110553D02*
X43535714Y-58581982D01*
X43192857Y-57981982D02*
X42978571Y-58581982D01*
X42764286Y-57981982D02*
X42978571Y-58581982D01*
X42978571Y-58581982D02*
X43064286Y-58796267D01*
X43064286Y-58796267D02*
X43107143Y-58839125D01*
X43107143Y-58839125D02*
X43192857Y-58881982D01*
X41735715Y-58581982D02*
X41735715Y-57981982D01*
X41735715Y-57681982D02*
X41778572Y-57724839D01*
X41778572Y-57724839D02*
X41735715Y-57767696D01*
X41735715Y-57767696D02*
X41692858Y-57724839D01*
X41692858Y-57724839D02*
X41735715Y-57681982D01*
X41735715Y-57681982D02*
X41735715Y-57767696D01*
X41307144Y-57981982D02*
X41307144Y-58581982D01*
X41307144Y-58067696D02*
X41264287Y-58024839D01*
X41264287Y-58024839D02*
X41178572Y-57981982D01*
X41178572Y-57981982D02*
X41050001Y-57981982D01*
X41050001Y-57981982D02*
X40964287Y-58024839D01*
X40964287Y-58024839D02*
X40921430Y-58110553D01*
X40921430Y-58110553D02*
X40921430Y-58581982D01*
X40107144Y-58539125D02*
X40192858Y-58581982D01*
X40192858Y-58581982D02*
X40364286Y-58581982D01*
X40364286Y-58581982D02*
X40450001Y-58539125D01*
X40450001Y-58539125D02*
X40492858Y-58496267D01*
X40492858Y-58496267D02*
X40535715Y-58410553D01*
X40535715Y-58410553D02*
X40535715Y-58153410D01*
X40535715Y-58153410D02*
X40492858Y-58067696D01*
X40492858Y-58067696D02*
X40450001Y-58024839D01*
X40450001Y-58024839D02*
X40364286Y-57981982D01*
X40364286Y-57981982D02*
X40192858Y-57981982D01*
X40192858Y-57981982D02*
X40107144Y-58024839D01*
X39378572Y-58539125D02*
X39464286Y-58581982D01*
X39464286Y-58581982D02*
X39635715Y-58581982D01*
X39635715Y-58581982D02*
X39721429Y-58539125D01*
X39721429Y-58539125D02*
X39764286Y-58453410D01*
X39764286Y-58453410D02*
X39764286Y-58110553D01*
X39764286Y-58110553D02*
X39721429Y-58024839D01*
X39721429Y-58024839D02*
X39635715Y-57981982D01*
X39635715Y-57981982D02*
X39464286Y-57981982D01*
X39464286Y-57981982D02*
X39378572Y-58024839D01*
X39378572Y-58024839D02*
X39335715Y-58110553D01*
X39335715Y-58110553D02*
X39335715Y-58196267D01*
X39335715Y-58196267D02*
X39764286Y-58281982D01*
X38992857Y-58539125D02*
X38907143Y-58581982D01*
X38907143Y-58581982D02*
X38735714Y-58581982D01*
X38735714Y-58581982D02*
X38650000Y-58539125D01*
X38650000Y-58539125D02*
X38607143Y-58453410D01*
X38607143Y-58453410D02*
X38607143Y-58410553D01*
X38607143Y-58410553D02*
X38650000Y-58324839D01*
X38650000Y-58324839D02*
X38735714Y-58281982D01*
X38735714Y-58281982D02*
X38864286Y-58281982D01*
X38864286Y-58281982D02*
X38950000Y-58239125D01*
X38950000Y-58239125D02*
X38992857Y-58153410D01*
X38992857Y-58153410D02*
X38992857Y-58110553D01*
X38992857Y-58110553D02*
X38950000Y-58024839D01*
X38950000Y-58024839D02*
X38864286Y-57981982D01*
X38864286Y-57981982D02*
X38735714Y-57981982D01*
X38735714Y-57981982D02*
X38650000Y-58024839D01*
X38264286Y-58539125D02*
X38178572Y-58581982D01*
X38178572Y-58581982D02*
X38007143Y-58581982D01*
X38007143Y-58581982D02*
X37921429Y-58539125D01*
X37921429Y-58539125D02*
X37878572Y-58453410D01*
X37878572Y-58453410D02*
X37878572Y-58410553D01*
X37878572Y-58410553D02*
X37921429Y-58324839D01*
X37921429Y-58324839D02*
X38007143Y-58281982D01*
X38007143Y-58281982D02*
X38135715Y-58281982D01*
X38135715Y-58281982D02*
X38221429Y-58239125D01*
X38221429Y-58239125D02*
X38264286Y-58153410D01*
X38264286Y-58153410D02*
X38264286Y-58110553D01*
X38264286Y-58110553D02*
X38221429Y-58024839D01*
X38221429Y-58024839D02*
X38135715Y-57981982D01*
X38135715Y-57981982D02*
X38007143Y-57981982D01*
X38007143Y-57981982D02*
X37921429Y-58024839D01*
X37107144Y-58581982D02*
X37107144Y-58110553D01*
X37107144Y-58110553D02*
X37150001Y-58024839D01*
X37150001Y-58024839D02*
X37235715Y-57981982D01*
X37235715Y-57981982D02*
X37407144Y-57981982D01*
X37407144Y-57981982D02*
X37492858Y-58024839D01*
X37107144Y-58539125D02*
X37192858Y-58581982D01*
X37192858Y-58581982D02*
X37407144Y-58581982D01*
X37407144Y-58581982D02*
X37492858Y-58539125D01*
X37492858Y-58539125D02*
X37535715Y-58453410D01*
X37535715Y-58453410D02*
X37535715Y-58367696D01*
X37535715Y-58367696D02*
X37492858Y-58281982D01*
X37492858Y-58281982D02*
X37407144Y-58239125D01*
X37407144Y-58239125D02*
X37192858Y-58239125D01*
X37192858Y-58239125D02*
X37107144Y-58196267D01*
X36678572Y-57981982D02*
X36678572Y-58581982D01*
X36678572Y-58067696D02*
X36635715Y-58024839D01*
X36635715Y-58024839D02*
X36550000Y-57981982D01*
X36550000Y-57981982D02*
X36421429Y-57981982D01*
X36421429Y-57981982D02*
X36335715Y-58024839D01*
X36335715Y-58024839D02*
X36292858Y-58110553D01*
X36292858Y-58110553D02*
X36292858Y-58581982D01*
X35992857Y-57981982D02*
X35650000Y-57981982D01*
X35864286Y-57681982D02*
X35864286Y-58453410D01*
X35864286Y-58453410D02*
X35821429Y-58539125D01*
X35821429Y-58539125D02*
X35735714Y-58581982D01*
X35735714Y-58581982D02*
X35650000Y-58581982D01*
X34664286Y-57981982D02*
X34664286Y-58581982D01*
X34664286Y-58067696D02*
X34621429Y-58024839D01*
X34621429Y-58024839D02*
X34535714Y-57981982D01*
X34535714Y-57981982D02*
X34407143Y-57981982D01*
X34407143Y-57981982D02*
X34321429Y-58024839D01*
X34321429Y-58024839D02*
X34278572Y-58110553D01*
X34278572Y-58110553D02*
X34278572Y-58581982D01*
X33507143Y-58539125D02*
X33592857Y-58581982D01*
X33592857Y-58581982D02*
X33764286Y-58581982D01*
X33764286Y-58581982D02*
X33850000Y-58539125D01*
X33850000Y-58539125D02*
X33892857Y-58453410D01*
X33892857Y-58453410D02*
X33892857Y-58110553D01*
X33892857Y-58110553D02*
X33850000Y-58024839D01*
X33850000Y-58024839D02*
X33764286Y-57981982D01*
X33764286Y-57981982D02*
X33592857Y-57981982D01*
X33592857Y-57981982D02*
X33507143Y-58024839D01*
X33507143Y-58024839D02*
X33464286Y-58110553D01*
X33464286Y-58110553D02*
X33464286Y-58196267D01*
X33464286Y-58196267D02*
X33892857Y-58281982D01*
X33078571Y-58581982D02*
X33078571Y-57981982D01*
X33078571Y-58153410D02*
X33035714Y-58067696D01*
X33035714Y-58067696D02*
X32992857Y-58024839D01*
X32992857Y-58024839D02*
X32907142Y-57981982D01*
X32907142Y-57981982D02*
X32821428Y-57981982D01*
X32135714Y-58581982D02*
X32135714Y-57681982D01*
X32135714Y-58539125D02*
X32221428Y-58581982D01*
X32221428Y-58581982D02*
X32392856Y-58581982D01*
X32392856Y-58581982D02*
X32478571Y-58539125D01*
X32478571Y-58539125D02*
X32521428Y-58496267D01*
X32521428Y-58496267D02*
X32564285Y-58410553D01*
X32564285Y-58410553D02*
X32564285Y-58153410D01*
X32564285Y-58153410D02*
X32521428Y-58067696D01*
X32521428Y-58067696D02*
X32478571Y-58024839D01*
X32478571Y-58024839D02*
X32392856Y-57981982D01*
X32392856Y-57981982D02*
X32221428Y-57981982D01*
X32221428Y-57981982D02*
X32135714Y-58024839D01*
X31364285Y-58539125D02*
X31449999Y-58581982D01*
X31449999Y-58581982D02*
X31621428Y-58581982D01*
X31621428Y-58581982D02*
X31707142Y-58539125D01*
X31707142Y-58539125D02*
X31749999Y-58453410D01*
X31749999Y-58453410D02*
X31749999Y-58110553D01*
X31749999Y-58110553D02*
X31707142Y-58024839D01*
X31707142Y-58024839D02*
X31621428Y-57981982D01*
X31621428Y-57981982D02*
X31449999Y-57981982D01*
X31449999Y-57981982D02*
X31364285Y-58024839D01*
X31364285Y-58024839D02*
X31321428Y-58110553D01*
X31321428Y-58110553D02*
X31321428Y-58196267D01*
X31321428Y-58196267D02*
X31749999Y-58281982D01*
X30935713Y-58581982D02*
X30935713Y-57981982D01*
X30935713Y-58153410D02*
X30892856Y-58067696D01*
X30892856Y-58067696D02*
X30849999Y-58024839D01*
X30849999Y-58024839D02*
X30764284Y-57981982D01*
X30764284Y-57981982D02*
X30678570Y-57981982D01*
X30464284Y-57981982D02*
X30249998Y-58581982D01*
X30035713Y-57981982D02*
X30249998Y-58581982D01*
X30249998Y-58581982D02*
X30335713Y-58796267D01*
X30335713Y-58796267D02*
X30378570Y-58839125D01*
X30378570Y-58839125D02*
X30464284Y-58881982D01*
X29692856Y-58496267D02*
X29649999Y-58539125D01*
X29649999Y-58539125D02*
X29692856Y-58581982D01*
X29692856Y-58581982D02*
X29735713Y-58539125D01*
X29735713Y-58539125D02*
X29692856Y-58496267D01*
X29692856Y-58496267D02*
X29692856Y-58581982D01*
X78828571Y-53335132D02*
X78314286Y-53335132D01*
X78571428Y-54235132D02*
X78571428Y-53335132D01*
X78014286Y-54235132D02*
X78014286Y-53335132D01*
X77628572Y-54235132D02*
X77628572Y-53763703D01*
X77628572Y-53763703D02*
X77671429Y-53677989D01*
X77671429Y-53677989D02*
X77757143Y-53635132D01*
X77757143Y-53635132D02*
X77885714Y-53635132D01*
X77885714Y-53635132D02*
X77971429Y-53677989D01*
X77971429Y-53677989D02*
X78014286Y-53720846D01*
X76814286Y-54235132D02*
X76814286Y-53763703D01*
X76814286Y-53763703D02*
X76857143Y-53677989D01*
X76857143Y-53677989D02*
X76942857Y-53635132D01*
X76942857Y-53635132D02*
X77114286Y-53635132D01*
X77114286Y-53635132D02*
X77200000Y-53677989D01*
X76814286Y-54192275D02*
X76900000Y-54235132D01*
X76900000Y-54235132D02*
X77114286Y-54235132D01*
X77114286Y-54235132D02*
X77200000Y-54192275D01*
X77200000Y-54192275D02*
X77242857Y-54106560D01*
X77242857Y-54106560D02*
X77242857Y-54020846D01*
X77242857Y-54020846D02*
X77200000Y-53935132D01*
X77200000Y-53935132D02*
X77114286Y-53892275D01*
X77114286Y-53892275D02*
X76900000Y-53892275D01*
X76900000Y-53892275D02*
X76814286Y-53849417D01*
X76385714Y-53635132D02*
X76385714Y-54235132D01*
X76385714Y-53720846D02*
X76342857Y-53677989D01*
X76342857Y-53677989D02*
X76257142Y-53635132D01*
X76257142Y-53635132D02*
X76128571Y-53635132D01*
X76128571Y-53635132D02*
X76042857Y-53677989D01*
X76042857Y-53677989D02*
X76000000Y-53763703D01*
X76000000Y-53763703D02*
X76000000Y-54235132D01*
X75571428Y-54235132D02*
X75571428Y-53335132D01*
X75485714Y-53892275D02*
X75228571Y-54235132D01*
X75228571Y-53635132D02*
X75571428Y-53977989D01*
X74885714Y-54192275D02*
X74800000Y-54235132D01*
X74800000Y-54235132D02*
X74628571Y-54235132D01*
X74628571Y-54235132D02*
X74542857Y-54192275D01*
X74542857Y-54192275D02*
X74500000Y-54106560D01*
X74500000Y-54106560D02*
X74500000Y-54063703D01*
X74500000Y-54063703D02*
X74542857Y-53977989D01*
X74542857Y-53977989D02*
X74628571Y-53935132D01*
X74628571Y-53935132D02*
X74757143Y-53935132D01*
X74757143Y-53935132D02*
X74842857Y-53892275D01*
X74842857Y-53892275D02*
X74885714Y-53806560D01*
X74885714Y-53806560D02*
X74885714Y-53763703D01*
X74885714Y-53763703D02*
X74842857Y-53677989D01*
X74842857Y-53677989D02*
X74757143Y-53635132D01*
X74757143Y-53635132D02*
X74628571Y-53635132D01*
X74628571Y-53635132D02*
X74542857Y-53677989D01*
X73557143Y-53635132D02*
X73214286Y-53635132D01*
X73428572Y-53335132D02*
X73428572Y-54106560D01*
X73428572Y-54106560D02*
X73385715Y-54192275D01*
X73385715Y-54192275D02*
X73300000Y-54235132D01*
X73300000Y-54235132D02*
X73214286Y-54235132D01*
X72785714Y-54235132D02*
X72871429Y-54192275D01*
X72871429Y-54192275D02*
X72914286Y-54149417D01*
X72914286Y-54149417D02*
X72957143Y-54063703D01*
X72957143Y-54063703D02*
X72957143Y-53806560D01*
X72957143Y-53806560D02*
X72914286Y-53720846D01*
X72914286Y-53720846D02*
X72871429Y-53677989D01*
X72871429Y-53677989D02*
X72785714Y-53635132D01*
X72785714Y-53635132D02*
X72657143Y-53635132D01*
X72657143Y-53635132D02*
X72571429Y-53677989D01*
X72571429Y-53677989D02*
X72528572Y-53720846D01*
X72528572Y-53720846D02*
X72485714Y-53806560D01*
X72485714Y-53806560D02*
X72485714Y-54063703D01*
X72485714Y-54063703D02*
X72528572Y-54149417D01*
X72528572Y-54149417D02*
X72571429Y-54192275D01*
X72571429Y-54192275D02*
X72657143Y-54235132D01*
X72657143Y-54235132D02*
X72785714Y-54235132D01*
X71414286Y-54235132D02*
X71414286Y-53635132D01*
X71414286Y-53720846D02*
X71371429Y-53677989D01*
X71371429Y-53677989D02*
X71285714Y-53635132D01*
X71285714Y-53635132D02*
X71157143Y-53635132D01*
X71157143Y-53635132D02*
X71071429Y-53677989D01*
X71071429Y-53677989D02*
X71028572Y-53763703D01*
X71028572Y-53763703D02*
X71028572Y-54235132D01*
X71028572Y-53763703D02*
X70985714Y-53677989D01*
X70985714Y-53677989D02*
X70900000Y-53635132D01*
X70900000Y-53635132D02*
X70771429Y-53635132D01*
X70771429Y-53635132D02*
X70685714Y-53677989D01*
X70685714Y-53677989D02*
X70642857Y-53763703D01*
X70642857Y-53763703D02*
X70642857Y-54235132D01*
X70300000Y-53635132D02*
X70085714Y-54235132D01*
X69871429Y-53635132D02*
X70085714Y-54235132D01*
X70085714Y-54235132D02*
X70171429Y-54449417D01*
X70171429Y-54449417D02*
X70214286Y-54492275D01*
X70214286Y-54492275D02*
X70300000Y-54535132D01*
X68971429Y-53635132D02*
X68628572Y-53635132D01*
X68842858Y-54235132D02*
X68842858Y-53463703D01*
X68842858Y-53463703D02*
X68800001Y-53377989D01*
X68800001Y-53377989D02*
X68714286Y-53335132D01*
X68714286Y-53335132D02*
X68628572Y-53335132D01*
X68328572Y-54235132D02*
X68328572Y-53635132D01*
X68328572Y-53806560D02*
X68285715Y-53720846D01*
X68285715Y-53720846D02*
X68242858Y-53677989D01*
X68242858Y-53677989D02*
X68157143Y-53635132D01*
X68157143Y-53635132D02*
X68071429Y-53635132D01*
X67771429Y-54235132D02*
X67771429Y-53635132D01*
X67771429Y-53335132D02*
X67814286Y-53377989D01*
X67814286Y-53377989D02*
X67771429Y-53420846D01*
X67771429Y-53420846D02*
X67728572Y-53377989D01*
X67728572Y-53377989D02*
X67771429Y-53335132D01*
X67771429Y-53335132D02*
X67771429Y-53420846D01*
X67000001Y-54192275D02*
X67085715Y-54235132D01*
X67085715Y-54235132D02*
X67257144Y-54235132D01*
X67257144Y-54235132D02*
X67342858Y-54192275D01*
X67342858Y-54192275D02*
X67385715Y-54106560D01*
X67385715Y-54106560D02*
X67385715Y-53763703D01*
X67385715Y-53763703D02*
X67342858Y-53677989D01*
X67342858Y-53677989D02*
X67257144Y-53635132D01*
X67257144Y-53635132D02*
X67085715Y-53635132D01*
X67085715Y-53635132D02*
X67000001Y-53677989D01*
X67000001Y-53677989D02*
X66957144Y-53763703D01*
X66957144Y-53763703D02*
X66957144Y-53849417D01*
X66957144Y-53849417D02*
X67385715Y-53935132D01*
X66571429Y-53635132D02*
X66571429Y-54235132D01*
X66571429Y-53720846D02*
X66528572Y-53677989D01*
X66528572Y-53677989D02*
X66442857Y-53635132D01*
X66442857Y-53635132D02*
X66314286Y-53635132D01*
X66314286Y-53635132D02*
X66228572Y-53677989D01*
X66228572Y-53677989D02*
X66185715Y-53763703D01*
X66185715Y-53763703D02*
X66185715Y-54235132D01*
X65371429Y-54235132D02*
X65371429Y-53335132D01*
X65371429Y-54192275D02*
X65457143Y-54235132D01*
X65457143Y-54235132D02*
X65628571Y-54235132D01*
X65628571Y-54235132D02*
X65714286Y-54192275D01*
X65714286Y-54192275D02*
X65757143Y-54149417D01*
X65757143Y-54149417D02*
X65800000Y-54063703D01*
X65800000Y-54063703D02*
X65800000Y-53806560D01*
X65800000Y-53806560D02*
X65757143Y-53720846D01*
X65757143Y-53720846D02*
X65714286Y-53677989D01*
X65714286Y-53677989D02*
X65628571Y-53635132D01*
X65628571Y-53635132D02*
X65457143Y-53635132D01*
X65457143Y-53635132D02*
X65371429Y-53677989D01*
X64985714Y-54192275D02*
X64900000Y-54235132D01*
X64900000Y-54235132D02*
X64728571Y-54235132D01*
X64728571Y-54235132D02*
X64642857Y-54192275D01*
X64642857Y-54192275D02*
X64600000Y-54106560D01*
X64600000Y-54106560D02*
X64600000Y-54063703D01*
X64600000Y-54063703D02*
X64642857Y-53977989D01*
X64642857Y-53977989D02*
X64728571Y-53935132D01*
X64728571Y-53935132D02*
X64857143Y-53935132D01*
X64857143Y-53935132D02*
X64942857Y-53892275D01*
X64942857Y-53892275D02*
X64985714Y-53806560D01*
X64985714Y-53806560D02*
X64985714Y-53763703D01*
X64985714Y-53763703D02*
X64942857Y-53677989D01*
X64942857Y-53677989D02*
X64857143Y-53635132D01*
X64857143Y-53635132D02*
X64728571Y-53635132D01*
X64728571Y-53635132D02*
X64642857Y-53677989D01*
X63657143Y-53635132D02*
X63314286Y-53635132D01*
X63528572Y-53335132D02*
X63528572Y-54106560D01*
X63528572Y-54106560D02*
X63485715Y-54192275D01*
X63485715Y-54192275D02*
X63400000Y-54235132D01*
X63400000Y-54235132D02*
X63314286Y-54235132D01*
X63014286Y-54235132D02*
X63014286Y-53335132D01*
X62628572Y-54235132D02*
X62628572Y-53763703D01*
X62628572Y-53763703D02*
X62671429Y-53677989D01*
X62671429Y-53677989D02*
X62757143Y-53635132D01*
X62757143Y-53635132D02*
X62885714Y-53635132D01*
X62885714Y-53635132D02*
X62971429Y-53677989D01*
X62971429Y-53677989D02*
X63014286Y-53720846D01*
X61814286Y-54235132D02*
X61814286Y-53763703D01*
X61814286Y-53763703D02*
X61857143Y-53677989D01*
X61857143Y-53677989D02*
X61942857Y-53635132D01*
X61942857Y-53635132D02*
X62114286Y-53635132D01*
X62114286Y-53635132D02*
X62200000Y-53677989D01*
X61814286Y-54192275D02*
X61900000Y-54235132D01*
X61900000Y-54235132D02*
X62114286Y-54235132D01*
X62114286Y-54235132D02*
X62200000Y-54192275D01*
X62200000Y-54192275D02*
X62242857Y-54106560D01*
X62242857Y-54106560D02*
X62242857Y-54020846D01*
X62242857Y-54020846D02*
X62200000Y-53935132D01*
X62200000Y-53935132D02*
X62114286Y-53892275D01*
X62114286Y-53892275D02*
X61900000Y-53892275D01*
X61900000Y-53892275D02*
X61814286Y-53849417D01*
X61514285Y-53635132D02*
X61171428Y-53635132D01*
X61385714Y-53335132D02*
X61385714Y-54106560D01*
X61385714Y-54106560D02*
X61342857Y-54192275D01*
X61342857Y-54192275D02*
X61257142Y-54235132D01*
X61257142Y-54235132D02*
X61171428Y-54235132D01*
X78700001Y-55641225D02*
X78785715Y-55684082D01*
X78785715Y-55684082D02*
X78957143Y-55684082D01*
X78957143Y-55684082D02*
X79042858Y-55641225D01*
X79042858Y-55641225D02*
X79085715Y-55598367D01*
X79085715Y-55598367D02*
X79128572Y-55512653D01*
X79128572Y-55512653D02*
X79128572Y-55255510D01*
X79128572Y-55255510D02*
X79085715Y-55169796D01*
X79085715Y-55169796D02*
X79042858Y-55126939D01*
X79042858Y-55126939D02*
X78957143Y-55084082D01*
X78957143Y-55084082D02*
X78785715Y-55084082D01*
X78785715Y-55084082D02*
X78700001Y-55126939D01*
X77928572Y-55684082D02*
X77928572Y-55212653D01*
X77928572Y-55212653D02*
X77971429Y-55126939D01*
X77971429Y-55126939D02*
X78057143Y-55084082D01*
X78057143Y-55084082D02*
X78228572Y-55084082D01*
X78228572Y-55084082D02*
X78314286Y-55126939D01*
X77928572Y-55641225D02*
X78014286Y-55684082D01*
X78014286Y-55684082D02*
X78228572Y-55684082D01*
X78228572Y-55684082D02*
X78314286Y-55641225D01*
X78314286Y-55641225D02*
X78357143Y-55555510D01*
X78357143Y-55555510D02*
X78357143Y-55469796D01*
X78357143Y-55469796D02*
X78314286Y-55384082D01*
X78314286Y-55384082D02*
X78228572Y-55341225D01*
X78228572Y-55341225D02*
X78014286Y-55341225D01*
X78014286Y-55341225D02*
X77928572Y-55298367D01*
X77114286Y-55084082D02*
X77114286Y-55684082D01*
X77500000Y-55084082D02*
X77500000Y-55555510D01*
X77500000Y-55555510D02*
X77457143Y-55641225D01*
X77457143Y-55641225D02*
X77371428Y-55684082D01*
X77371428Y-55684082D02*
X77242857Y-55684082D01*
X77242857Y-55684082D02*
X77157143Y-55641225D01*
X77157143Y-55641225D02*
X77114286Y-55598367D01*
X76728571Y-55641225D02*
X76642857Y-55684082D01*
X76642857Y-55684082D02*
X76471428Y-55684082D01*
X76471428Y-55684082D02*
X76385714Y-55641225D01*
X76385714Y-55641225D02*
X76342857Y-55555510D01*
X76342857Y-55555510D02*
X76342857Y-55512653D01*
X76342857Y-55512653D02*
X76385714Y-55426939D01*
X76385714Y-55426939D02*
X76471428Y-55384082D01*
X76471428Y-55384082D02*
X76600000Y-55384082D01*
X76600000Y-55384082D02*
X76685714Y-55341225D01*
X76685714Y-55341225D02*
X76728571Y-55255510D01*
X76728571Y-55255510D02*
X76728571Y-55212653D01*
X76728571Y-55212653D02*
X76685714Y-55126939D01*
X76685714Y-55126939D02*
X76600000Y-55084082D01*
X76600000Y-55084082D02*
X76471428Y-55084082D01*
X76471428Y-55084082D02*
X76385714Y-55126939D01*
X75614286Y-55641225D02*
X75700000Y-55684082D01*
X75700000Y-55684082D02*
X75871429Y-55684082D01*
X75871429Y-55684082D02*
X75957143Y-55641225D01*
X75957143Y-55641225D02*
X76000000Y-55555510D01*
X76000000Y-55555510D02*
X76000000Y-55212653D01*
X76000000Y-55212653D02*
X75957143Y-55126939D01*
X75957143Y-55126939D02*
X75871429Y-55084082D01*
X75871429Y-55084082D02*
X75700000Y-55084082D01*
X75700000Y-55084082D02*
X75614286Y-55126939D01*
X75614286Y-55126939D02*
X75571429Y-55212653D01*
X75571429Y-55212653D02*
X75571429Y-55298367D01*
X75571429Y-55298367D02*
X76000000Y-55384082D01*
X74800000Y-55684082D02*
X74800000Y-54784082D01*
X74800000Y-55641225D02*
X74885714Y-55684082D01*
X74885714Y-55684082D02*
X75057142Y-55684082D01*
X75057142Y-55684082D02*
X75142857Y-55641225D01*
X75142857Y-55641225D02*
X75185714Y-55598367D01*
X75185714Y-55598367D02*
X75228571Y-55512653D01*
X75228571Y-55512653D02*
X75228571Y-55255510D01*
X75228571Y-55255510D02*
X75185714Y-55169796D01*
X75185714Y-55169796D02*
X75142857Y-55126939D01*
X75142857Y-55126939D02*
X75057142Y-55084082D01*
X75057142Y-55084082D02*
X74885714Y-55084082D01*
X74885714Y-55084082D02*
X74800000Y-55126939D01*
X73685714Y-55684082D02*
X73685714Y-55084082D01*
X73685714Y-55169796D02*
X73642857Y-55126939D01*
X73642857Y-55126939D02*
X73557142Y-55084082D01*
X73557142Y-55084082D02*
X73428571Y-55084082D01*
X73428571Y-55084082D02*
X73342857Y-55126939D01*
X73342857Y-55126939D02*
X73300000Y-55212653D01*
X73300000Y-55212653D02*
X73300000Y-55684082D01*
X73300000Y-55212653D02*
X73257142Y-55126939D01*
X73257142Y-55126939D02*
X73171428Y-55084082D01*
X73171428Y-55084082D02*
X73042857Y-55084082D01*
X73042857Y-55084082D02*
X72957142Y-55126939D01*
X72957142Y-55126939D02*
X72914285Y-55212653D01*
X72914285Y-55212653D02*
X72914285Y-55684082D01*
X72142857Y-55641225D02*
X72228571Y-55684082D01*
X72228571Y-55684082D02*
X72400000Y-55684082D01*
X72400000Y-55684082D02*
X72485714Y-55641225D01*
X72485714Y-55641225D02*
X72528571Y-55555510D01*
X72528571Y-55555510D02*
X72528571Y-55212653D01*
X72528571Y-55212653D02*
X72485714Y-55126939D01*
X72485714Y-55126939D02*
X72400000Y-55084082D01*
X72400000Y-55084082D02*
X72228571Y-55084082D01*
X72228571Y-55084082D02*
X72142857Y-55126939D01*
X72142857Y-55126939D02*
X72100000Y-55212653D01*
X72100000Y-55212653D02*
X72100000Y-55298367D01*
X72100000Y-55298367D02*
X72528571Y-55384082D01*
X71157142Y-55084082D02*
X70814285Y-55084082D01*
X71028571Y-54784082D02*
X71028571Y-55555510D01*
X71028571Y-55555510D02*
X70985714Y-55641225D01*
X70985714Y-55641225D02*
X70899999Y-55684082D01*
X70899999Y-55684082D02*
X70814285Y-55684082D01*
X70385713Y-55684082D02*
X70471428Y-55641225D01*
X70471428Y-55641225D02*
X70514285Y-55598367D01*
X70514285Y-55598367D02*
X70557142Y-55512653D01*
X70557142Y-55512653D02*
X70557142Y-55255510D01*
X70557142Y-55255510D02*
X70514285Y-55169796D01*
X70514285Y-55169796D02*
X70471428Y-55126939D01*
X70471428Y-55126939D02*
X70385713Y-55084082D01*
X70385713Y-55084082D02*
X70257142Y-55084082D01*
X70257142Y-55084082D02*
X70171428Y-55126939D01*
X70171428Y-55126939D02*
X70128571Y-55169796D01*
X70128571Y-55169796D02*
X70085713Y-55255510D01*
X70085713Y-55255510D02*
X70085713Y-55512653D01*
X70085713Y-55512653D02*
X70128571Y-55598367D01*
X70128571Y-55598367D02*
X70171428Y-55641225D01*
X70171428Y-55641225D02*
X70257142Y-55684082D01*
X70257142Y-55684082D02*
X70385713Y-55684082D01*
X68628571Y-55084082D02*
X68628571Y-55812653D01*
X68628571Y-55812653D02*
X68671428Y-55898367D01*
X68671428Y-55898367D02*
X68714285Y-55941225D01*
X68714285Y-55941225D02*
X68799999Y-55984082D01*
X68799999Y-55984082D02*
X68928571Y-55984082D01*
X68928571Y-55984082D02*
X69014285Y-55941225D01*
X68628571Y-55641225D02*
X68714285Y-55684082D01*
X68714285Y-55684082D02*
X68885713Y-55684082D01*
X68885713Y-55684082D02*
X68971428Y-55641225D01*
X68971428Y-55641225D02*
X69014285Y-55598367D01*
X69014285Y-55598367D02*
X69057142Y-55512653D01*
X69057142Y-55512653D02*
X69057142Y-55255510D01*
X69057142Y-55255510D02*
X69014285Y-55169796D01*
X69014285Y-55169796D02*
X68971428Y-55126939D01*
X68971428Y-55126939D02*
X68885713Y-55084082D01*
X68885713Y-55084082D02*
X68714285Y-55084082D01*
X68714285Y-55084082D02*
X68628571Y-55126939D01*
X67857142Y-55641225D02*
X67942856Y-55684082D01*
X67942856Y-55684082D02*
X68114285Y-55684082D01*
X68114285Y-55684082D02*
X68199999Y-55641225D01*
X68199999Y-55641225D02*
X68242856Y-55555510D01*
X68242856Y-55555510D02*
X68242856Y-55212653D01*
X68242856Y-55212653D02*
X68199999Y-55126939D01*
X68199999Y-55126939D02*
X68114285Y-55084082D01*
X68114285Y-55084082D02*
X67942856Y-55084082D01*
X67942856Y-55084082D02*
X67857142Y-55126939D01*
X67857142Y-55126939D02*
X67814285Y-55212653D01*
X67814285Y-55212653D02*
X67814285Y-55298367D01*
X67814285Y-55298367D02*
X68242856Y-55384082D01*
X67557141Y-55084082D02*
X67214284Y-55084082D01*
X67428570Y-54784082D02*
X67428570Y-55555510D01*
X67428570Y-55555510D02*
X67385713Y-55641225D01*
X67385713Y-55641225D02*
X67299998Y-55684082D01*
X67299998Y-55684082D02*
X67214284Y-55684082D01*
X66228570Y-55684082D02*
X66228570Y-55084082D01*
X66228570Y-54784082D02*
X66271427Y-54826939D01*
X66271427Y-54826939D02*
X66228570Y-54869796D01*
X66228570Y-54869796D02*
X66185713Y-54826939D01*
X66185713Y-54826939D02*
X66228570Y-54784082D01*
X66228570Y-54784082D02*
X66228570Y-54869796D01*
X65799999Y-55084082D02*
X65799999Y-55684082D01*
X65799999Y-55169796D02*
X65757142Y-55126939D01*
X65757142Y-55126939D02*
X65671427Y-55084082D01*
X65671427Y-55084082D02*
X65542856Y-55084082D01*
X65542856Y-55084082D02*
X65457142Y-55126939D01*
X65457142Y-55126939D02*
X65414285Y-55212653D01*
X65414285Y-55212653D02*
X65414285Y-55684082D01*
X65114284Y-55084082D02*
X64771427Y-55084082D01*
X64985713Y-54784082D02*
X64985713Y-55555510D01*
X64985713Y-55555510D02*
X64942856Y-55641225D01*
X64942856Y-55641225D02*
X64857141Y-55684082D01*
X64857141Y-55684082D02*
X64771427Y-55684082D01*
X64342855Y-55684082D02*
X64428570Y-55641225D01*
X64428570Y-55641225D02*
X64471427Y-55598367D01*
X64471427Y-55598367D02*
X64514284Y-55512653D01*
X64514284Y-55512653D02*
X64514284Y-55255510D01*
X64514284Y-55255510D02*
X64471427Y-55169796D01*
X64471427Y-55169796D02*
X64428570Y-55126939D01*
X64428570Y-55126939D02*
X64342855Y-55084082D01*
X64342855Y-55084082D02*
X64214284Y-55084082D01*
X64214284Y-55084082D02*
X64128570Y-55126939D01*
X64128570Y-55126939D02*
X64085713Y-55169796D01*
X64085713Y-55169796D02*
X64042855Y-55255510D01*
X64042855Y-55255510D02*
X64042855Y-55512653D01*
X64042855Y-55512653D02*
X64085713Y-55598367D01*
X64085713Y-55598367D02*
X64128570Y-55641225D01*
X64128570Y-55641225D02*
X64214284Y-55684082D01*
X64214284Y-55684082D02*
X64342855Y-55684082D01*
X63099998Y-55084082D02*
X62757141Y-55084082D01*
X62971427Y-54784082D02*
X62971427Y-55555510D01*
X62971427Y-55555510D02*
X62928570Y-55641225D01*
X62928570Y-55641225D02*
X62842855Y-55684082D01*
X62842855Y-55684082D02*
X62757141Y-55684082D01*
X62457141Y-55684082D02*
X62457141Y-54784082D01*
X62071427Y-55684082D02*
X62071427Y-55212653D01*
X62071427Y-55212653D02*
X62114284Y-55126939D01*
X62114284Y-55126939D02*
X62199998Y-55084082D01*
X62199998Y-55084082D02*
X62328569Y-55084082D01*
X62328569Y-55084082D02*
X62414284Y-55126939D01*
X62414284Y-55126939D02*
X62457141Y-55169796D01*
X61642855Y-55684082D02*
X61642855Y-55084082D01*
X61642855Y-54784082D02*
X61685712Y-54826939D01*
X61685712Y-54826939D02*
X61642855Y-54869796D01*
X61642855Y-54869796D02*
X61599998Y-54826939D01*
X61599998Y-54826939D02*
X61642855Y-54784082D01*
X61642855Y-54784082D02*
X61642855Y-54869796D01*
X61257141Y-55641225D02*
X61171427Y-55684082D01*
X61171427Y-55684082D02*
X60999998Y-55684082D01*
X60999998Y-55684082D02*
X60914284Y-55641225D01*
X60914284Y-55641225D02*
X60871427Y-55555510D01*
X60871427Y-55555510D02*
X60871427Y-55512653D01*
X60871427Y-55512653D02*
X60914284Y-55426939D01*
X60914284Y-55426939D02*
X60999998Y-55384082D01*
X60999998Y-55384082D02*
X61128570Y-55384082D01*
X61128570Y-55384082D02*
X61214284Y-55341225D01*
X61214284Y-55341225D02*
X61257141Y-55255510D01*
X61257141Y-55255510D02*
X61257141Y-55212653D01*
X61257141Y-55212653D02*
X61214284Y-55126939D01*
X61214284Y-55126939D02*
X61128570Y-55084082D01*
X61128570Y-55084082D02*
X60999998Y-55084082D01*
X60999998Y-55084082D02*
X60914284Y-55126939D01*
X78121428Y-57133032D02*
X78121428Y-56533032D01*
X78121428Y-56618746D02*
X78078571Y-56575889D01*
X78078571Y-56575889D02*
X77992856Y-56533032D01*
X77992856Y-56533032D02*
X77864285Y-56533032D01*
X77864285Y-56533032D02*
X77778571Y-56575889D01*
X77778571Y-56575889D02*
X77735714Y-56661603D01*
X77735714Y-56661603D02*
X77735714Y-57133032D01*
X77735714Y-56661603D02*
X77692856Y-56575889D01*
X77692856Y-56575889D02*
X77607142Y-56533032D01*
X77607142Y-56533032D02*
X77478571Y-56533032D01*
X77478571Y-56533032D02*
X77392856Y-56575889D01*
X77392856Y-56575889D02*
X77349999Y-56661603D01*
X77349999Y-56661603D02*
X77349999Y-57133032D01*
X76578571Y-57090175D02*
X76664285Y-57133032D01*
X76664285Y-57133032D02*
X76835714Y-57133032D01*
X76835714Y-57133032D02*
X76921428Y-57090175D01*
X76921428Y-57090175D02*
X76964285Y-57004460D01*
X76964285Y-57004460D02*
X76964285Y-56661603D01*
X76964285Y-56661603D02*
X76921428Y-56575889D01*
X76921428Y-56575889D02*
X76835714Y-56533032D01*
X76835714Y-56533032D02*
X76664285Y-56533032D01*
X76664285Y-56533032D02*
X76578571Y-56575889D01*
X76578571Y-56575889D02*
X76535714Y-56661603D01*
X76535714Y-56661603D02*
X76535714Y-56747317D01*
X76535714Y-56747317D02*
X76964285Y-56833032D01*
X76192856Y-57090175D02*
X76107142Y-57133032D01*
X76107142Y-57133032D02*
X75935713Y-57133032D01*
X75935713Y-57133032D02*
X75849999Y-57090175D01*
X75849999Y-57090175D02*
X75807142Y-57004460D01*
X75807142Y-57004460D02*
X75807142Y-56961603D01*
X75807142Y-56961603D02*
X75849999Y-56875889D01*
X75849999Y-56875889D02*
X75935713Y-56833032D01*
X75935713Y-56833032D02*
X76064285Y-56833032D01*
X76064285Y-56833032D02*
X76149999Y-56790175D01*
X76149999Y-56790175D02*
X76192856Y-56704460D01*
X76192856Y-56704460D02*
X76192856Y-56661603D01*
X76192856Y-56661603D02*
X76149999Y-56575889D01*
X76149999Y-56575889D02*
X76064285Y-56533032D01*
X76064285Y-56533032D02*
X75935713Y-56533032D01*
X75935713Y-56533032D02*
X75849999Y-56575889D01*
X75464285Y-57090175D02*
X75378571Y-57133032D01*
X75378571Y-57133032D02*
X75207142Y-57133032D01*
X75207142Y-57133032D02*
X75121428Y-57090175D01*
X75121428Y-57090175D02*
X75078571Y-57004460D01*
X75078571Y-57004460D02*
X75078571Y-56961603D01*
X75078571Y-56961603D02*
X75121428Y-56875889D01*
X75121428Y-56875889D02*
X75207142Y-56833032D01*
X75207142Y-56833032D02*
X75335714Y-56833032D01*
X75335714Y-56833032D02*
X75421428Y-56790175D01*
X75421428Y-56790175D02*
X75464285Y-56704460D01*
X75464285Y-56704460D02*
X75464285Y-56661603D01*
X75464285Y-56661603D02*
X75421428Y-56575889D01*
X75421428Y-56575889D02*
X75335714Y-56533032D01*
X75335714Y-56533032D02*
X75207142Y-56533032D01*
X75207142Y-56533032D02*
X75121428Y-56575889D01*
X74650000Y-57090175D02*
X74650000Y-57133032D01*
X74650000Y-57133032D02*
X74692857Y-57218746D01*
X74692857Y-57218746D02*
X74735714Y-57261603D01*
X73192858Y-57133032D02*
X73192858Y-56661603D01*
X73192858Y-56661603D02*
X73235715Y-56575889D01*
X73235715Y-56575889D02*
X73321429Y-56533032D01*
X73321429Y-56533032D02*
X73492858Y-56533032D01*
X73492858Y-56533032D02*
X73578572Y-56575889D01*
X73192858Y-57090175D02*
X73278572Y-57133032D01*
X73278572Y-57133032D02*
X73492858Y-57133032D01*
X73492858Y-57133032D02*
X73578572Y-57090175D01*
X73578572Y-57090175D02*
X73621429Y-57004460D01*
X73621429Y-57004460D02*
X73621429Y-56918746D01*
X73621429Y-56918746D02*
X73578572Y-56833032D01*
X73578572Y-56833032D02*
X73492858Y-56790175D01*
X73492858Y-56790175D02*
X73278572Y-56790175D01*
X73278572Y-56790175D02*
X73192858Y-56747317D01*
X72764286Y-56533032D02*
X72764286Y-57133032D01*
X72764286Y-56618746D02*
X72721429Y-56575889D01*
X72721429Y-56575889D02*
X72635714Y-56533032D01*
X72635714Y-56533032D02*
X72507143Y-56533032D01*
X72507143Y-56533032D02*
X72421429Y-56575889D01*
X72421429Y-56575889D02*
X72378572Y-56661603D01*
X72378572Y-56661603D02*
X72378572Y-57133032D01*
X71564286Y-57133032D02*
X71564286Y-56233032D01*
X71564286Y-57090175D02*
X71650000Y-57133032D01*
X71650000Y-57133032D02*
X71821428Y-57133032D01*
X71821428Y-57133032D02*
X71907143Y-57090175D01*
X71907143Y-57090175D02*
X71950000Y-57047317D01*
X71950000Y-57047317D02*
X71992857Y-56961603D01*
X71992857Y-56961603D02*
X71992857Y-56704460D01*
X71992857Y-56704460D02*
X71950000Y-56618746D01*
X71950000Y-56618746D02*
X71907143Y-56575889D01*
X71907143Y-56575889D02*
X71821428Y-56533032D01*
X71821428Y-56533032D02*
X71650000Y-56533032D01*
X71650000Y-56533032D02*
X71564286Y-56575889D01*
X70450000Y-57133032D02*
X70450000Y-56233032D01*
X70064286Y-57133032D02*
X70064286Y-56661603D01*
X70064286Y-56661603D02*
X70107143Y-56575889D01*
X70107143Y-56575889D02*
X70192857Y-56533032D01*
X70192857Y-56533032D02*
X70321428Y-56533032D01*
X70321428Y-56533032D02*
X70407143Y-56575889D01*
X70407143Y-56575889D02*
X70450000Y-56618746D01*
X69292857Y-57090175D02*
X69378571Y-57133032D01*
X69378571Y-57133032D02*
X69550000Y-57133032D01*
X69550000Y-57133032D02*
X69635714Y-57090175D01*
X69635714Y-57090175D02*
X69678571Y-57004460D01*
X69678571Y-57004460D02*
X69678571Y-56661603D01*
X69678571Y-56661603D02*
X69635714Y-56575889D01*
X69635714Y-56575889D02*
X69550000Y-56533032D01*
X69550000Y-56533032D02*
X69378571Y-56533032D01*
X69378571Y-56533032D02*
X69292857Y-56575889D01*
X69292857Y-56575889D02*
X69250000Y-56661603D01*
X69250000Y-56661603D02*
X69250000Y-56747317D01*
X69250000Y-56747317D02*
X69678571Y-56833032D01*
X68735713Y-57133032D02*
X68821428Y-57090175D01*
X68821428Y-57090175D02*
X68864285Y-57004460D01*
X68864285Y-57004460D02*
X68864285Y-56233032D01*
X68392856Y-56533032D02*
X68392856Y-57433032D01*
X68392856Y-56575889D02*
X68307142Y-56533032D01*
X68307142Y-56533032D02*
X68135713Y-56533032D01*
X68135713Y-56533032D02*
X68049999Y-56575889D01*
X68049999Y-56575889D02*
X68007142Y-56618746D01*
X68007142Y-56618746D02*
X67964284Y-56704460D01*
X67964284Y-56704460D02*
X67964284Y-56961603D01*
X67964284Y-56961603D02*
X68007142Y-57047317D01*
X68007142Y-57047317D02*
X68049999Y-57090175D01*
X68049999Y-57090175D02*
X68135713Y-57133032D01*
X68135713Y-57133032D02*
X68307142Y-57133032D01*
X68307142Y-57133032D02*
X68392856Y-57090175D01*
X66978570Y-56533032D02*
X66807142Y-57133032D01*
X66807142Y-57133032D02*
X66635713Y-56704460D01*
X66635713Y-56704460D02*
X66464284Y-57133032D01*
X66464284Y-57133032D02*
X66292856Y-56533032D01*
X65949999Y-57133032D02*
X65949999Y-56533032D01*
X65949999Y-56233032D02*
X65992856Y-56275889D01*
X65992856Y-56275889D02*
X65949999Y-56318746D01*
X65949999Y-56318746D02*
X65907142Y-56275889D01*
X65907142Y-56275889D02*
X65949999Y-56233032D01*
X65949999Y-56233032D02*
X65949999Y-56318746D01*
X65649999Y-56533032D02*
X65307142Y-56533032D01*
X65521428Y-56233032D02*
X65521428Y-57004460D01*
X65521428Y-57004460D02*
X65478571Y-57090175D01*
X65478571Y-57090175D02*
X65392856Y-57133032D01*
X65392856Y-57133032D02*
X65307142Y-57133032D01*
X65007142Y-57133032D02*
X65007142Y-56233032D01*
X64621428Y-57133032D02*
X64621428Y-56661603D01*
X64621428Y-56661603D02*
X64664285Y-56575889D01*
X64664285Y-56575889D02*
X64749999Y-56533032D01*
X64749999Y-56533032D02*
X64878570Y-56533032D01*
X64878570Y-56533032D02*
X64964285Y-56575889D01*
X64964285Y-56575889D02*
X65007142Y-56618746D01*
X63507142Y-57133032D02*
X63507142Y-56233032D01*
X62564285Y-57133032D02*
X62864285Y-56704460D01*
X63078571Y-57133032D02*
X63078571Y-56233032D01*
X63078571Y-56233032D02*
X62735714Y-56233032D01*
X62735714Y-56233032D02*
X62649999Y-56275889D01*
X62649999Y-56275889D02*
X62607142Y-56318746D01*
X62607142Y-56318746D02*
X62564285Y-56404460D01*
X62564285Y-56404460D02*
X62564285Y-56533032D01*
X62564285Y-56533032D02*
X62607142Y-56618746D01*
X62607142Y-56618746D02*
X62649999Y-56661603D01*
X62649999Y-56661603D02*
X62735714Y-56704460D01*
X62735714Y-56704460D02*
X63078571Y-56704460D01*
X61749999Y-57133032D02*
X62178571Y-57133032D01*
X62178571Y-57133032D02*
X62178571Y-56233032D01*
X80607143Y-57981982D02*
X80264286Y-57981982D01*
X80478572Y-57681982D02*
X80478572Y-58453410D01*
X80478572Y-58453410D02*
X80435715Y-58539125D01*
X80435715Y-58539125D02*
X80350000Y-58581982D01*
X80350000Y-58581982D02*
X80264286Y-58581982D01*
X79621429Y-58539125D02*
X79707143Y-58581982D01*
X79707143Y-58581982D02*
X79878572Y-58581982D01*
X79878572Y-58581982D02*
X79964286Y-58539125D01*
X79964286Y-58539125D02*
X80007143Y-58453410D01*
X80007143Y-58453410D02*
X80007143Y-58110553D01*
X80007143Y-58110553D02*
X79964286Y-58024839D01*
X79964286Y-58024839D02*
X79878572Y-57981982D01*
X79878572Y-57981982D02*
X79707143Y-57981982D01*
X79707143Y-57981982D02*
X79621429Y-58024839D01*
X79621429Y-58024839D02*
X79578572Y-58110553D01*
X79578572Y-58110553D02*
X79578572Y-58196267D01*
X79578572Y-58196267D02*
X80007143Y-58281982D01*
X79235714Y-58539125D02*
X79150000Y-58581982D01*
X79150000Y-58581982D02*
X78978571Y-58581982D01*
X78978571Y-58581982D02*
X78892857Y-58539125D01*
X78892857Y-58539125D02*
X78850000Y-58453410D01*
X78850000Y-58453410D02*
X78850000Y-58410553D01*
X78850000Y-58410553D02*
X78892857Y-58324839D01*
X78892857Y-58324839D02*
X78978571Y-58281982D01*
X78978571Y-58281982D02*
X79107143Y-58281982D01*
X79107143Y-58281982D02*
X79192857Y-58239125D01*
X79192857Y-58239125D02*
X79235714Y-58153410D01*
X79235714Y-58153410D02*
X79235714Y-58110553D01*
X79235714Y-58110553D02*
X79192857Y-58024839D01*
X79192857Y-58024839D02*
X79107143Y-57981982D01*
X79107143Y-57981982D02*
X78978571Y-57981982D01*
X78978571Y-57981982D02*
X78892857Y-58024839D01*
X78592857Y-57981982D02*
X78250000Y-57981982D01*
X78464286Y-57681982D02*
X78464286Y-58453410D01*
X78464286Y-58453410D02*
X78421429Y-58539125D01*
X78421429Y-58539125D02*
X78335714Y-58581982D01*
X78335714Y-58581982D02*
X78250000Y-58581982D01*
X77950000Y-58581982D02*
X77950000Y-57981982D01*
X77950000Y-57681982D02*
X77992857Y-57724839D01*
X77992857Y-57724839D02*
X77950000Y-57767696D01*
X77950000Y-57767696D02*
X77907143Y-57724839D01*
X77907143Y-57724839D02*
X77950000Y-57681982D01*
X77950000Y-57681982D02*
X77950000Y-57767696D01*
X77521429Y-57981982D02*
X77521429Y-58581982D01*
X77521429Y-58067696D02*
X77478572Y-58024839D01*
X77478572Y-58024839D02*
X77392857Y-57981982D01*
X77392857Y-57981982D02*
X77264286Y-57981982D01*
X77264286Y-57981982D02*
X77178572Y-58024839D01*
X77178572Y-58024839D02*
X77135715Y-58110553D01*
X77135715Y-58110553D02*
X77135715Y-58581982D01*
X76321429Y-57981982D02*
X76321429Y-58710553D01*
X76321429Y-58710553D02*
X76364286Y-58796267D01*
X76364286Y-58796267D02*
X76407143Y-58839125D01*
X76407143Y-58839125D02*
X76492857Y-58881982D01*
X76492857Y-58881982D02*
X76621429Y-58881982D01*
X76621429Y-58881982D02*
X76707143Y-58839125D01*
X76321429Y-58539125D02*
X76407143Y-58581982D01*
X76407143Y-58581982D02*
X76578571Y-58581982D01*
X76578571Y-58581982D02*
X76664286Y-58539125D01*
X76664286Y-58539125D02*
X76707143Y-58496267D01*
X76707143Y-58496267D02*
X76750000Y-58410553D01*
X76750000Y-58410553D02*
X76750000Y-58153410D01*
X76750000Y-58153410D02*
X76707143Y-58067696D01*
X76707143Y-58067696D02*
X76664286Y-58024839D01*
X76664286Y-58024839D02*
X76578571Y-57981982D01*
X76578571Y-57981982D02*
X76407143Y-57981982D01*
X76407143Y-57981982D02*
X76321429Y-58024839D01*
X75207143Y-58239125D02*
X74521429Y-58239125D01*
X73535714Y-57981982D02*
X73192857Y-57981982D01*
X73407143Y-57681982D02*
X73407143Y-58453410D01*
X73407143Y-58453410D02*
X73364286Y-58539125D01*
X73364286Y-58539125D02*
X73278571Y-58581982D01*
X73278571Y-58581982D02*
X73192857Y-58581982D01*
X72892857Y-58581982D02*
X72892857Y-57681982D01*
X72507143Y-58581982D02*
X72507143Y-58110553D01*
X72507143Y-58110553D02*
X72550000Y-58024839D01*
X72550000Y-58024839D02*
X72635714Y-57981982D01*
X72635714Y-57981982D02*
X72764285Y-57981982D01*
X72764285Y-57981982D02*
X72850000Y-58024839D01*
X72850000Y-58024839D02*
X72892857Y-58067696D01*
X71735714Y-58539125D02*
X71821428Y-58581982D01*
X71821428Y-58581982D02*
X71992857Y-58581982D01*
X71992857Y-58581982D02*
X72078571Y-58539125D01*
X72078571Y-58539125D02*
X72121428Y-58453410D01*
X72121428Y-58453410D02*
X72121428Y-58110553D01*
X72121428Y-58110553D02*
X72078571Y-58024839D01*
X72078571Y-58024839D02*
X71992857Y-57981982D01*
X71992857Y-57981982D02*
X71821428Y-57981982D01*
X71821428Y-57981982D02*
X71735714Y-58024839D01*
X71735714Y-58024839D02*
X71692857Y-58110553D01*
X71692857Y-58110553D02*
X71692857Y-58196267D01*
X71692857Y-58196267D02*
X72121428Y-58281982D01*
X70621428Y-58581982D02*
X70621428Y-57681982D01*
X70621428Y-57681982D02*
X70107142Y-58581982D01*
X70107142Y-58581982D02*
X70107142Y-57681982D01*
X69292857Y-58581982D02*
X69292857Y-58110553D01*
X69292857Y-58110553D02*
X69335714Y-58024839D01*
X69335714Y-58024839D02*
X69421428Y-57981982D01*
X69421428Y-57981982D02*
X69592857Y-57981982D01*
X69592857Y-57981982D02*
X69678571Y-58024839D01*
X69292857Y-58539125D02*
X69378571Y-58581982D01*
X69378571Y-58581982D02*
X69592857Y-58581982D01*
X69592857Y-58581982D02*
X69678571Y-58539125D01*
X69678571Y-58539125D02*
X69721428Y-58453410D01*
X69721428Y-58453410D02*
X69721428Y-58367696D01*
X69721428Y-58367696D02*
X69678571Y-58281982D01*
X69678571Y-58281982D02*
X69592857Y-58239125D01*
X69592857Y-58239125D02*
X69378571Y-58239125D01*
X69378571Y-58239125D02*
X69292857Y-58196267D01*
X68864285Y-58581982D02*
X68864285Y-57981982D01*
X68864285Y-58153410D02*
X68821428Y-58067696D01*
X68821428Y-58067696D02*
X68778571Y-58024839D01*
X68778571Y-58024839D02*
X68692856Y-57981982D01*
X68692856Y-57981982D02*
X68607142Y-57981982D01*
X67921428Y-58539125D02*
X68007142Y-58581982D01*
X68007142Y-58581982D02*
X68178570Y-58581982D01*
X68178570Y-58581982D02*
X68264285Y-58539125D01*
X68264285Y-58539125D02*
X68307142Y-58496267D01*
X68307142Y-58496267D02*
X68349999Y-58410553D01*
X68349999Y-58410553D02*
X68349999Y-58153410D01*
X68349999Y-58153410D02*
X68307142Y-58067696D01*
X68307142Y-58067696D02*
X68264285Y-58024839D01*
X68264285Y-58024839D02*
X68178570Y-57981982D01*
X68178570Y-57981982D02*
X68007142Y-57981982D01*
X68007142Y-57981982D02*
X67921428Y-58024839D01*
X67407141Y-58581982D02*
X67492856Y-58539125D01*
X67492856Y-58539125D02*
X67535713Y-58496267D01*
X67535713Y-58496267D02*
X67578570Y-58410553D01*
X67578570Y-58410553D02*
X67578570Y-58153410D01*
X67578570Y-58153410D02*
X67535713Y-58067696D01*
X67535713Y-58067696D02*
X67492856Y-58024839D01*
X67492856Y-58024839D02*
X67407141Y-57981982D01*
X67407141Y-57981982D02*
X67278570Y-57981982D01*
X67278570Y-57981982D02*
X67192856Y-58024839D01*
X67192856Y-58024839D02*
X67149999Y-58067696D01*
X67149999Y-58067696D02*
X67107141Y-58153410D01*
X67107141Y-58153410D02*
X67107141Y-58410553D01*
X67107141Y-58410553D02*
X67149999Y-58496267D01*
X67149999Y-58496267D02*
X67192856Y-58539125D01*
X67192856Y-58539125D02*
X67278570Y-58581982D01*
X67278570Y-58581982D02*
X67407141Y-58581982D01*
X66592855Y-58581982D02*
X66678570Y-58539125D01*
X66678570Y-58539125D02*
X66721427Y-58453410D01*
X66721427Y-58453410D02*
X66721427Y-57681982D01*
X65907141Y-58539125D02*
X65992855Y-58581982D01*
X65992855Y-58581982D02*
X66164284Y-58581982D01*
X66164284Y-58581982D02*
X66249998Y-58539125D01*
X66249998Y-58539125D02*
X66292855Y-58453410D01*
X66292855Y-58453410D02*
X66292855Y-58110553D01*
X66292855Y-58110553D02*
X66249998Y-58024839D01*
X66249998Y-58024839D02*
X66164284Y-57981982D01*
X66164284Y-57981982D02*
X65992855Y-57981982D01*
X65992855Y-57981982D02*
X65907141Y-58024839D01*
X65907141Y-58024839D02*
X65864284Y-58110553D01*
X65864284Y-58110553D02*
X65864284Y-58196267D01*
X65864284Y-58196267D02*
X66292855Y-58281982D01*
X65478569Y-57981982D02*
X65478569Y-58881982D01*
X65478569Y-58024839D02*
X65392855Y-57981982D01*
X65392855Y-57981982D02*
X65221426Y-57981982D01*
X65221426Y-57981982D02*
X65135712Y-58024839D01*
X65135712Y-58024839D02*
X65092855Y-58067696D01*
X65092855Y-58067696D02*
X65049997Y-58153410D01*
X65049997Y-58153410D02*
X65049997Y-58410553D01*
X65049997Y-58410553D02*
X65092855Y-58496267D01*
X65092855Y-58496267D02*
X65135712Y-58539125D01*
X65135712Y-58539125D02*
X65221426Y-58581982D01*
X65221426Y-58581982D02*
X65392855Y-58581982D01*
X65392855Y-58581982D02*
X65478569Y-58539125D01*
X64707140Y-58539125D02*
X64621426Y-58581982D01*
X64621426Y-58581982D02*
X64449997Y-58581982D01*
X64449997Y-58581982D02*
X64364283Y-58539125D01*
X64364283Y-58539125D02*
X64321426Y-58453410D01*
X64321426Y-58453410D02*
X64321426Y-58410553D01*
X64321426Y-58410553D02*
X64364283Y-58324839D01*
X64364283Y-58324839D02*
X64449997Y-58281982D01*
X64449997Y-58281982D02*
X64578569Y-58281982D01*
X64578569Y-58281982D02*
X64664283Y-58239125D01*
X64664283Y-58239125D02*
X64707140Y-58153410D01*
X64707140Y-58153410D02*
X64707140Y-58110553D01*
X64707140Y-58110553D02*
X64664283Y-58024839D01*
X64664283Y-58024839D02*
X64578569Y-57981982D01*
X64578569Y-57981982D02*
X64449997Y-57981982D01*
X64449997Y-57981982D02*
X64364283Y-58024839D01*
X64021426Y-57981982D02*
X63807140Y-58581982D01*
X63592855Y-57981982D02*
X63807140Y-58581982D01*
X63807140Y-58581982D02*
X63892855Y-58796267D01*
X63892855Y-58796267D02*
X63935712Y-58839125D01*
X63935712Y-58839125D02*
X64021426Y-58881982D01*
X62178570Y-58539125D02*
X62264284Y-58581982D01*
X62264284Y-58581982D02*
X62435712Y-58581982D01*
X62435712Y-58581982D02*
X62521427Y-58539125D01*
X62521427Y-58539125D02*
X62564284Y-58496267D01*
X62564284Y-58496267D02*
X62607141Y-58410553D01*
X62607141Y-58410553D02*
X62607141Y-58153410D01*
X62607141Y-58153410D02*
X62564284Y-58067696D01*
X62564284Y-58067696D02*
X62521427Y-58024839D01*
X62521427Y-58024839D02*
X62435712Y-57981982D01*
X62435712Y-57981982D02*
X62264284Y-57981982D01*
X62264284Y-57981982D02*
X62178570Y-58024839D01*
X61792855Y-58581982D02*
X61792855Y-57981982D01*
X61792855Y-58153410D02*
X61749998Y-58067696D01*
X61749998Y-58067696D02*
X61707141Y-58024839D01*
X61707141Y-58024839D02*
X61621426Y-57981982D01*
X61621426Y-57981982D02*
X61535712Y-57981982D01*
X60892855Y-58539125D02*
X60978569Y-58581982D01*
X60978569Y-58581982D02*
X61149998Y-58581982D01*
X61149998Y-58581982D02*
X61235712Y-58539125D01*
X61235712Y-58539125D02*
X61278569Y-58453410D01*
X61278569Y-58453410D02*
X61278569Y-58110553D01*
X61278569Y-58110553D02*
X61235712Y-58024839D01*
X61235712Y-58024839D02*
X61149998Y-57981982D01*
X61149998Y-57981982D02*
X60978569Y-57981982D01*
X60978569Y-57981982D02*
X60892855Y-58024839D01*
X60892855Y-58024839D02*
X60849998Y-58110553D01*
X60849998Y-58110553D02*
X60849998Y-58196267D01*
X60849998Y-58196267D02*
X61278569Y-58281982D01*
X60549997Y-57981982D02*
X60378569Y-58581982D01*
X60378569Y-58581982D02*
X60207140Y-58153410D01*
X60207140Y-58153410D02*
X60035711Y-58581982D01*
X60035711Y-58581982D02*
X59864283Y-57981982D01*
X59521426Y-58496267D02*
X59478569Y-58539125D01*
X59478569Y-58539125D02*
X59521426Y-58581982D01*
X59521426Y-58581982D02*
X59564283Y-58539125D01*
X59564283Y-58539125D02*
X59521426Y-58496267D01*
X59521426Y-58496267D02*
X59521426Y-58581982D01*
X113821430Y-54235132D02*
X113821430Y-53335132D01*
X113821430Y-53763703D02*
X113307144Y-53763703D01*
X113307144Y-54235132D02*
X113307144Y-53335132D01*
X112492859Y-53635132D02*
X112492859Y-54235132D01*
X112878573Y-53635132D02*
X112878573Y-54106560D01*
X112878573Y-54106560D02*
X112835716Y-54192275D01*
X112835716Y-54192275D02*
X112750001Y-54235132D01*
X112750001Y-54235132D02*
X112621430Y-54235132D01*
X112621430Y-54235132D02*
X112535716Y-54192275D01*
X112535716Y-54192275D02*
X112492859Y-54149417D01*
X111678573Y-53635132D02*
X111678573Y-54363703D01*
X111678573Y-54363703D02*
X111721430Y-54449417D01*
X111721430Y-54449417D02*
X111764287Y-54492275D01*
X111764287Y-54492275D02*
X111850001Y-54535132D01*
X111850001Y-54535132D02*
X111978573Y-54535132D01*
X111978573Y-54535132D02*
X112064287Y-54492275D01*
X111678573Y-54192275D02*
X111764287Y-54235132D01*
X111764287Y-54235132D02*
X111935715Y-54235132D01*
X111935715Y-54235132D02*
X112021430Y-54192275D01*
X112021430Y-54192275D02*
X112064287Y-54149417D01*
X112064287Y-54149417D02*
X112107144Y-54063703D01*
X112107144Y-54063703D02*
X112107144Y-53806560D01*
X112107144Y-53806560D02*
X112064287Y-53720846D01*
X112064287Y-53720846D02*
X112021430Y-53677989D01*
X112021430Y-53677989D02*
X111935715Y-53635132D01*
X111935715Y-53635132D02*
X111764287Y-53635132D01*
X111764287Y-53635132D02*
X111678573Y-53677989D01*
X110907144Y-54192275D02*
X110992858Y-54235132D01*
X110992858Y-54235132D02*
X111164287Y-54235132D01*
X111164287Y-54235132D02*
X111250001Y-54192275D01*
X111250001Y-54192275D02*
X111292858Y-54106560D01*
X111292858Y-54106560D02*
X111292858Y-53763703D01*
X111292858Y-53763703D02*
X111250001Y-53677989D01*
X111250001Y-53677989D02*
X111164287Y-53635132D01*
X111164287Y-53635132D02*
X110992858Y-53635132D01*
X110992858Y-53635132D02*
X110907144Y-53677989D01*
X110907144Y-53677989D02*
X110864287Y-53763703D01*
X110864287Y-53763703D02*
X110864287Y-53849417D01*
X110864287Y-53849417D02*
X111292858Y-53935132D01*
X109921429Y-53635132D02*
X109578572Y-53635132D01*
X109792858Y-53335132D02*
X109792858Y-54106560D01*
X109792858Y-54106560D02*
X109750001Y-54192275D01*
X109750001Y-54192275D02*
X109664286Y-54235132D01*
X109664286Y-54235132D02*
X109578572Y-54235132D01*
X109278572Y-54235132D02*
X109278572Y-53335132D01*
X108892858Y-54235132D02*
X108892858Y-53763703D01*
X108892858Y-53763703D02*
X108935715Y-53677989D01*
X108935715Y-53677989D02*
X109021429Y-53635132D01*
X109021429Y-53635132D02*
X109150000Y-53635132D01*
X109150000Y-53635132D02*
X109235715Y-53677989D01*
X109235715Y-53677989D02*
X109278572Y-53720846D01*
X108078572Y-54235132D02*
X108078572Y-53763703D01*
X108078572Y-53763703D02*
X108121429Y-53677989D01*
X108121429Y-53677989D02*
X108207143Y-53635132D01*
X108207143Y-53635132D02*
X108378572Y-53635132D01*
X108378572Y-53635132D02*
X108464286Y-53677989D01*
X108078572Y-54192275D02*
X108164286Y-54235132D01*
X108164286Y-54235132D02*
X108378572Y-54235132D01*
X108378572Y-54235132D02*
X108464286Y-54192275D01*
X108464286Y-54192275D02*
X108507143Y-54106560D01*
X108507143Y-54106560D02*
X108507143Y-54020846D01*
X108507143Y-54020846D02*
X108464286Y-53935132D01*
X108464286Y-53935132D02*
X108378572Y-53892275D01*
X108378572Y-53892275D02*
X108164286Y-53892275D01*
X108164286Y-53892275D02*
X108078572Y-53849417D01*
X107650000Y-53635132D02*
X107650000Y-54235132D01*
X107650000Y-53720846D02*
X107607143Y-53677989D01*
X107607143Y-53677989D02*
X107521428Y-53635132D01*
X107521428Y-53635132D02*
X107392857Y-53635132D01*
X107392857Y-53635132D02*
X107307143Y-53677989D01*
X107307143Y-53677989D02*
X107264286Y-53763703D01*
X107264286Y-53763703D02*
X107264286Y-54235132D01*
X106835714Y-54235132D02*
X106835714Y-53335132D01*
X106750000Y-53892275D02*
X106492857Y-54235132D01*
X106492857Y-53635132D02*
X106835714Y-53977989D01*
X106150000Y-54192275D02*
X106064286Y-54235132D01*
X106064286Y-54235132D02*
X105892857Y-54235132D01*
X105892857Y-54235132D02*
X105807143Y-54192275D01*
X105807143Y-54192275D02*
X105764286Y-54106560D01*
X105764286Y-54106560D02*
X105764286Y-54063703D01*
X105764286Y-54063703D02*
X105807143Y-53977989D01*
X105807143Y-53977989D02*
X105892857Y-53935132D01*
X105892857Y-53935132D02*
X106021429Y-53935132D01*
X106021429Y-53935132D02*
X106107143Y-53892275D01*
X106107143Y-53892275D02*
X106150000Y-53806560D01*
X106150000Y-53806560D02*
X106150000Y-53763703D01*
X106150000Y-53763703D02*
X106107143Y-53677989D01*
X106107143Y-53677989D02*
X106021429Y-53635132D01*
X106021429Y-53635132D02*
X105892857Y-53635132D01*
X105892857Y-53635132D02*
X105807143Y-53677989D01*
X104821429Y-53635132D02*
X104478572Y-53635132D01*
X104692858Y-53335132D02*
X104692858Y-54106560D01*
X104692858Y-54106560D02*
X104650001Y-54192275D01*
X104650001Y-54192275D02*
X104564286Y-54235132D01*
X104564286Y-54235132D02*
X104478572Y-54235132D01*
X104050000Y-54235132D02*
X104135715Y-54192275D01*
X104135715Y-54192275D02*
X104178572Y-54149417D01*
X104178572Y-54149417D02*
X104221429Y-54063703D01*
X104221429Y-54063703D02*
X104221429Y-53806560D01*
X104221429Y-53806560D02*
X104178572Y-53720846D01*
X104178572Y-53720846D02*
X104135715Y-53677989D01*
X104135715Y-53677989D02*
X104050000Y-53635132D01*
X104050000Y-53635132D02*
X103921429Y-53635132D01*
X103921429Y-53635132D02*
X103835715Y-53677989D01*
X103835715Y-53677989D02*
X103792858Y-53720846D01*
X103792858Y-53720846D02*
X103750000Y-53806560D01*
X103750000Y-53806560D02*
X103750000Y-54063703D01*
X103750000Y-54063703D02*
X103792858Y-54149417D01*
X103792858Y-54149417D02*
X103835715Y-54192275D01*
X103835715Y-54192275D02*
X103921429Y-54235132D01*
X103921429Y-54235132D02*
X104050000Y-54235132D01*
X102678572Y-54235132D02*
X102678572Y-53335132D01*
X102678572Y-53677989D02*
X102592858Y-53635132D01*
X102592858Y-53635132D02*
X102421429Y-53635132D01*
X102421429Y-53635132D02*
X102335715Y-53677989D01*
X102335715Y-53677989D02*
X102292858Y-53720846D01*
X102292858Y-53720846D02*
X102250000Y-53806560D01*
X102250000Y-53806560D02*
X102250000Y-54063703D01*
X102250000Y-54063703D02*
X102292858Y-54149417D01*
X102292858Y-54149417D02*
X102335715Y-54192275D01*
X102335715Y-54192275D02*
X102421429Y-54235132D01*
X102421429Y-54235132D02*
X102592858Y-54235132D01*
X102592858Y-54235132D02*
X102678572Y-54192275D01*
X101478572Y-54192275D02*
X101564286Y-54235132D01*
X101564286Y-54235132D02*
X101735714Y-54235132D01*
X101735714Y-54235132D02*
X101821429Y-54192275D01*
X101821429Y-54192275D02*
X101864286Y-54149417D01*
X101864286Y-54149417D02*
X101907143Y-54063703D01*
X101907143Y-54063703D02*
X101907143Y-53806560D01*
X101907143Y-53806560D02*
X101864286Y-53720846D01*
X101864286Y-53720846D02*
X101821429Y-53677989D01*
X101821429Y-53677989D02*
X101735714Y-53635132D01*
X101735714Y-53635132D02*
X101564286Y-53635132D01*
X101564286Y-53635132D02*
X101478572Y-53677989D01*
X100964285Y-54235132D02*
X101050000Y-54192275D01*
X101050000Y-54192275D02*
X101092857Y-54149417D01*
X101092857Y-54149417D02*
X101135714Y-54063703D01*
X101135714Y-54063703D02*
X101135714Y-53806560D01*
X101135714Y-53806560D02*
X101092857Y-53720846D01*
X101092857Y-53720846D02*
X101050000Y-53677989D01*
X101050000Y-53677989D02*
X100964285Y-53635132D01*
X100964285Y-53635132D02*
X100835714Y-53635132D01*
X100835714Y-53635132D02*
X100750000Y-53677989D01*
X100750000Y-53677989D02*
X100707143Y-53720846D01*
X100707143Y-53720846D02*
X100664285Y-53806560D01*
X100664285Y-53806560D02*
X100664285Y-54063703D01*
X100664285Y-54063703D02*
X100707143Y-54149417D01*
X100707143Y-54149417D02*
X100750000Y-54192275D01*
X100750000Y-54192275D02*
X100835714Y-54235132D01*
X100835714Y-54235132D02*
X100964285Y-54235132D01*
X100278571Y-54235132D02*
X100278571Y-53635132D01*
X100278571Y-53806560D02*
X100235714Y-53720846D01*
X100235714Y-53720846D02*
X100192857Y-53677989D01*
X100192857Y-53677989D02*
X100107142Y-53635132D01*
X100107142Y-53635132D02*
X100021428Y-53635132D01*
X99807142Y-53635132D02*
X99635714Y-54235132D01*
X99635714Y-54235132D02*
X99464285Y-53806560D01*
X99464285Y-53806560D02*
X99292856Y-54235132D01*
X99292856Y-54235132D02*
X99121428Y-53635132D01*
X98435714Y-54192275D02*
X98521428Y-54235132D01*
X98521428Y-54235132D02*
X98692857Y-54235132D01*
X98692857Y-54235132D02*
X98778571Y-54192275D01*
X98778571Y-54192275D02*
X98821428Y-54106560D01*
X98821428Y-54106560D02*
X98821428Y-53763703D01*
X98821428Y-53763703D02*
X98778571Y-53677989D01*
X98778571Y-53677989D02*
X98692857Y-53635132D01*
X98692857Y-53635132D02*
X98521428Y-53635132D01*
X98521428Y-53635132D02*
X98435714Y-53677989D01*
X98435714Y-53677989D02*
X98392857Y-53763703D01*
X98392857Y-53763703D02*
X98392857Y-53849417D01*
X98392857Y-53849417D02*
X98821428Y-53935132D01*
X98007142Y-53635132D02*
X98007142Y-54235132D01*
X98007142Y-53720846D02*
X97964285Y-53677989D01*
X97964285Y-53677989D02*
X97878570Y-53635132D01*
X97878570Y-53635132D02*
X97749999Y-53635132D01*
X97749999Y-53635132D02*
X97664285Y-53677989D01*
X97664285Y-53677989D02*
X97621428Y-53763703D01*
X97621428Y-53763703D02*
X97621428Y-54235132D01*
X97149999Y-54192275D02*
X97149999Y-54235132D01*
X97149999Y-54235132D02*
X97192856Y-54320846D01*
X97192856Y-54320846D02*
X97235713Y-54363703D01*
X96121428Y-54192275D02*
X95992857Y-54235132D01*
X95992857Y-54235132D02*
X95778571Y-54235132D01*
X95778571Y-54235132D02*
X95692857Y-54192275D01*
X95692857Y-54192275D02*
X95649999Y-54149417D01*
X95649999Y-54149417D02*
X95607142Y-54063703D01*
X95607142Y-54063703D02*
X95607142Y-53977989D01*
X95607142Y-53977989D02*
X95649999Y-53892275D01*
X95649999Y-53892275D02*
X95692857Y-53849417D01*
X95692857Y-53849417D02*
X95778571Y-53806560D01*
X95778571Y-53806560D02*
X95949999Y-53763703D01*
X95949999Y-53763703D02*
X96035714Y-53720846D01*
X96035714Y-53720846D02*
X96078571Y-53677989D01*
X96078571Y-53677989D02*
X96121428Y-53592275D01*
X96121428Y-53592275D02*
X96121428Y-53506560D01*
X96121428Y-53506560D02*
X96078571Y-53420846D01*
X96078571Y-53420846D02*
X96035714Y-53377989D01*
X96035714Y-53377989D02*
X95949999Y-53335132D01*
X95949999Y-53335132D02*
X95735714Y-53335132D01*
X95735714Y-53335132D02*
X95607142Y-53377989D01*
X95349999Y-53635132D02*
X95007142Y-53635132D01*
X95221428Y-53335132D02*
X95221428Y-54106560D01*
X95221428Y-54106560D02*
X95178571Y-54192275D01*
X95178571Y-54192275D02*
X95092856Y-54235132D01*
X95092856Y-54235132D02*
X95007142Y-54235132D01*
X94364285Y-54192275D02*
X94449999Y-54235132D01*
X94449999Y-54235132D02*
X94621428Y-54235132D01*
X94621428Y-54235132D02*
X94707142Y-54192275D01*
X94707142Y-54192275D02*
X94749999Y-54106560D01*
X94749999Y-54106560D02*
X94749999Y-53763703D01*
X94749999Y-53763703D02*
X94707142Y-53677989D01*
X94707142Y-53677989D02*
X94621428Y-53635132D01*
X94621428Y-53635132D02*
X94449999Y-53635132D01*
X94449999Y-53635132D02*
X94364285Y-53677989D01*
X94364285Y-53677989D02*
X94321428Y-53763703D01*
X94321428Y-53763703D02*
X94321428Y-53849417D01*
X94321428Y-53849417D02*
X94749999Y-53935132D01*
X93807141Y-54235132D02*
X93892856Y-54192275D01*
X93892856Y-54192275D02*
X93935713Y-54106560D01*
X93935713Y-54106560D02*
X93935713Y-53335132D01*
X93335712Y-54235132D02*
X93421427Y-54192275D01*
X93421427Y-54192275D02*
X93464284Y-54106560D01*
X93464284Y-54106560D02*
X93464284Y-53335132D01*
X92607141Y-54235132D02*
X92607141Y-53763703D01*
X92607141Y-53763703D02*
X92649998Y-53677989D01*
X92649998Y-53677989D02*
X92735712Y-53635132D01*
X92735712Y-53635132D02*
X92907141Y-53635132D01*
X92907141Y-53635132D02*
X92992855Y-53677989D01*
X92607141Y-54192275D02*
X92692855Y-54235132D01*
X92692855Y-54235132D02*
X92907141Y-54235132D01*
X92907141Y-54235132D02*
X92992855Y-54192275D01*
X92992855Y-54192275D02*
X93035712Y-54106560D01*
X93035712Y-54106560D02*
X93035712Y-54020846D01*
X93035712Y-54020846D02*
X92992855Y-53935132D01*
X92992855Y-53935132D02*
X92907141Y-53892275D01*
X92907141Y-53892275D02*
X92692855Y-53892275D01*
X92692855Y-53892275D02*
X92607141Y-53849417D01*
X92135712Y-54192275D02*
X92135712Y-54235132D01*
X92135712Y-54235132D02*
X92178569Y-54320846D01*
X92178569Y-54320846D02*
X92221426Y-54363703D01*
X113500000Y-55684082D02*
X113500000Y-55212653D01*
X113500000Y-55212653D02*
X113542857Y-55126939D01*
X113542857Y-55126939D02*
X113628571Y-55084082D01*
X113628571Y-55084082D02*
X113800000Y-55084082D01*
X113800000Y-55084082D02*
X113885714Y-55126939D01*
X113500000Y-55641225D02*
X113585714Y-55684082D01*
X113585714Y-55684082D02*
X113800000Y-55684082D01*
X113800000Y-55684082D02*
X113885714Y-55641225D01*
X113885714Y-55641225D02*
X113928571Y-55555510D01*
X113928571Y-55555510D02*
X113928571Y-55469796D01*
X113928571Y-55469796D02*
X113885714Y-55384082D01*
X113885714Y-55384082D02*
X113800000Y-55341225D01*
X113800000Y-55341225D02*
X113585714Y-55341225D01*
X113585714Y-55341225D02*
X113500000Y-55298367D01*
X113071428Y-55084082D02*
X113071428Y-55684082D01*
X113071428Y-55169796D02*
X113028571Y-55126939D01*
X113028571Y-55126939D02*
X112942856Y-55084082D01*
X112942856Y-55084082D02*
X112814285Y-55084082D01*
X112814285Y-55084082D02*
X112728571Y-55126939D01*
X112728571Y-55126939D02*
X112685714Y-55212653D01*
X112685714Y-55212653D02*
X112685714Y-55684082D01*
X111871428Y-55684082D02*
X111871428Y-54784082D01*
X111871428Y-55641225D02*
X111957142Y-55684082D01*
X111957142Y-55684082D02*
X112128570Y-55684082D01*
X112128570Y-55684082D02*
X112214285Y-55641225D01*
X112214285Y-55641225D02*
X112257142Y-55598367D01*
X112257142Y-55598367D02*
X112299999Y-55512653D01*
X112299999Y-55512653D02*
X112299999Y-55255510D01*
X112299999Y-55255510D02*
X112257142Y-55169796D01*
X112257142Y-55169796D02*
X112214285Y-55126939D01*
X112214285Y-55126939D02*
X112128570Y-55084082D01*
X112128570Y-55084082D02*
X111957142Y-55084082D01*
X111957142Y-55084082D02*
X111871428Y-55126939D01*
X110885713Y-55084082D02*
X110542856Y-55084082D01*
X110757142Y-54784082D02*
X110757142Y-55555510D01*
X110757142Y-55555510D02*
X110714285Y-55641225D01*
X110714285Y-55641225D02*
X110628570Y-55684082D01*
X110628570Y-55684082D02*
X110542856Y-55684082D01*
X110242856Y-55684082D02*
X110242856Y-54784082D01*
X109857142Y-55684082D02*
X109857142Y-55212653D01*
X109857142Y-55212653D02*
X109899999Y-55126939D01*
X109899999Y-55126939D02*
X109985713Y-55084082D01*
X109985713Y-55084082D02*
X110114284Y-55084082D01*
X110114284Y-55084082D02*
X110199999Y-55126939D01*
X110199999Y-55126939D02*
X110242856Y-55169796D01*
X109085713Y-55641225D02*
X109171427Y-55684082D01*
X109171427Y-55684082D02*
X109342856Y-55684082D01*
X109342856Y-55684082D02*
X109428570Y-55641225D01*
X109428570Y-55641225D02*
X109471427Y-55555510D01*
X109471427Y-55555510D02*
X109471427Y-55212653D01*
X109471427Y-55212653D02*
X109428570Y-55126939D01*
X109428570Y-55126939D02*
X109342856Y-55084082D01*
X109342856Y-55084082D02*
X109171427Y-55084082D01*
X109171427Y-55084082D02*
X109085713Y-55126939D01*
X109085713Y-55126939D02*
X109042856Y-55212653D01*
X109042856Y-55212653D02*
X109042856Y-55298367D01*
X109042856Y-55298367D02*
X109471427Y-55384082D01*
X107971427Y-55684082D02*
X107971427Y-54784082D01*
X107457141Y-55684082D02*
X107842855Y-55169796D01*
X107457141Y-54784082D02*
X107971427Y-55298367D01*
X107199998Y-54784082D02*
X106685713Y-54784082D01*
X106942855Y-55684082D02*
X106942855Y-54784082D01*
X106428570Y-55426939D02*
X105999999Y-55426939D01*
X106514284Y-55684082D02*
X106214284Y-54784082D01*
X106214284Y-54784082D02*
X105914284Y-55684082D01*
X105614284Y-55684082D02*
X105614284Y-54784082D01*
X105614284Y-54784082D02*
X105099998Y-55684082D01*
X105099998Y-55684082D02*
X105099998Y-54784082D01*
X104671427Y-55212653D02*
X104371427Y-55212653D01*
X104242855Y-55684082D02*
X104671427Y-55684082D01*
X104671427Y-55684082D02*
X104671427Y-54784082D01*
X104671427Y-54784082D02*
X104242855Y-54784082D01*
X103171427Y-55684082D02*
X103171427Y-54784082D01*
X102228570Y-55684082D02*
X102528570Y-55255510D01*
X102742856Y-55684082D02*
X102742856Y-54784082D01*
X102742856Y-54784082D02*
X102399999Y-54784082D01*
X102399999Y-54784082D02*
X102314284Y-54826939D01*
X102314284Y-54826939D02*
X102271427Y-54869796D01*
X102271427Y-54869796D02*
X102228570Y-54955510D01*
X102228570Y-54955510D02*
X102228570Y-55084082D01*
X102228570Y-55084082D02*
X102271427Y-55169796D01*
X102271427Y-55169796D02*
X102314284Y-55212653D01*
X102314284Y-55212653D02*
X102399999Y-55255510D01*
X102399999Y-55255510D02*
X102742856Y-55255510D01*
X101414284Y-55684082D02*
X101842856Y-55684082D01*
X101842856Y-55684082D02*
X101842856Y-54784082D01*
X100428571Y-55684082D02*
X100428571Y-54784082D01*
X100428571Y-54784082D02*
X100214285Y-54784082D01*
X100214285Y-54784082D02*
X100085714Y-54826939D01*
X100085714Y-54826939D02*
X99999999Y-54912653D01*
X99999999Y-54912653D02*
X99957142Y-54998367D01*
X99957142Y-54998367D02*
X99914285Y-55169796D01*
X99914285Y-55169796D02*
X99914285Y-55298367D01*
X99914285Y-55298367D02*
X99957142Y-55469796D01*
X99957142Y-55469796D02*
X99999999Y-55555510D01*
X99999999Y-55555510D02*
X100085714Y-55641225D01*
X100085714Y-55641225D02*
X100214285Y-55684082D01*
X100214285Y-55684082D02*
X100428571Y-55684082D01*
X99528571Y-55684082D02*
X99528571Y-55084082D01*
X99528571Y-54784082D02*
X99571428Y-54826939D01*
X99571428Y-54826939D02*
X99528571Y-54869796D01*
X99528571Y-54869796D02*
X99485714Y-54826939D01*
X99485714Y-54826939D02*
X99528571Y-54784082D01*
X99528571Y-54784082D02*
X99528571Y-54869796D01*
X99142857Y-55641225D02*
X99057143Y-55684082D01*
X99057143Y-55684082D02*
X98885714Y-55684082D01*
X98885714Y-55684082D02*
X98800000Y-55641225D01*
X98800000Y-55641225D02*
X98757143Y-55555510D01*
X98757143Y-55555510D02*
X98757143Y-55512653D01*
X98757143Y-55512653D02*
X98800000Y-55426939D01*
X98800000Y-55426939D02*
X98885714Y-55384082D01*
X98885714Y-55384082D02*
X99014286Y-55384082D01*
X99014286Y-55384082D02*
X99100000Y-55341225D01*
X99100000Y-55341225D02*
X99142857Y-55255510D01*
X99142857Y-55255510D02*
X99142857Y-55212653D01*
X99142857Y-55212653D02*
X99100000Y-55126939D01*
X99100000Y-55126939D02*
X99014286Y-55084082D01*
X99014286Y-55084082D02*
X98885714Y-55084082D01*
X98885714Y-55084082D02*
X98800000Y-55126939D01*
X97985715Y-55641225D02*
X98071429Y-55684082D01*
X98071429Y-55684082D02*
X98242857Y-55684082D01*
X98242857Y-55684082D02*
X98328572Y-55641225D01*
X98328572Y-55641225D02*
X98371429Y-55598367D01*
X98371429Y-55598367D02*
X98414286Y-55512653D01*
X98414286Y-55512653D02*
X98414286Y-55255510D01*
X98414286Y-55255510D02*
X98371429Y-55169796D01*
X98371429Y-55169796D02*
X98328572Y-55126939D01*
X98328572Y-55126939D02*
X98242857Y-55084082D01*
X98242857Y-55084082D02*
X98071429Y-55084082D01*
X98071429Y-55084082D02*
X97985715Y-55126939D01*
X97471428Y-55684082D02*
X97557143Y-55641225D01*
X97557143Y-55641225D02*
X97600000Y-55598367D01*
X97600000Y-55598367D02*
X97642857Y-55512653D01*
X97642857Y-55512653D02*
X97642857Y-55255510D01*
X97642857Y-55255510D02*
X97600000Y-55169796D01*
X97600000Y-55169796D02*
X97557143Y-55126939D01*
X97557143Y-55126939D02*
X97471428Y-55084082D01*
X97471428Y-55084082D02*
X97342857Y-55084082D01*
X97342857Y-55084082D02*
X97257143Y-55126939D01*
X97257143Y-55126939D02*
X97214286Y-55169796D01*
X97214286Y-55169796D02*
X97171428Y-55255510D01*
X97171428Y-55255510D02*
X97171428Y-55512653D01*
X97171428Y-55512653D02*
X97214286Y-55598367D01*
X97214286Y-55598367D02*
X97257143Y-55641225D01*
X97257143Y-55641225D02*
X97342857Y-55684082D01*
X97342857Y-55684082D02*
X97471428Y-55684082D01*
X96785714Y-55684082D02*
X96785714Y-55084082D01*
X96785714Y-55255510D02*
X96742857Y-55169796D01*
X96742857Y-55169796D02*
X96700000Y-55126939D01*
X96700000Y-55126939D02*
X96614285Y-55084082D01*
X96614285Y-55084082D02*
X96528571Y-55084082D01*
X95842857Y-55684082D02*
X95842857Y-54784082D01*
X95842857Y-55641225D02*
X95928571Y-55684082D01*
X95928571Y-55684082D02*
X96099999Y-55684082D01*
X96099999Y-55684082D02*
X96185714Y-55641225D01*
X96185714Y-55641225D02*
X96228571Y-55598367D01*
X96228571Y-55598367D02*
X96271428Y-55512653D01*
X96271428Y-55512653D02*
X96271428Y-55255510D01*
X96271428Y-55255510D02*
X96228571Y-55169796D01*
X96228571Y-55169796D02*
X96185714Y-55126939D01*
X96185714Y-55126939D02*
X96099999Y-55084082D01*
X96099999Y-55084082D02*
X95928571Y-55084082D01*
X95928571Y-55084082D02*
X95842857Y-55126939D01*
X94342857Y-55641225D02*
X94428571Y-55684082D01*
X94428571Y-55684082D02*
X94599999Y-55684082D01*
X94599999Y-55684082D02*
X94685714Y-55641225D01*
X94685714Y-55641225D02*
X94728571Y-55598367D01*
X94728571Y-55598367D02*
X94771428Y-55512653D01*
X94771428Y-55512653D02*
X94771428Y-55255510D01*
X94771428Y-55255510D02*
X94728571Y-55169796D01*
X94728571Y-55169796D02*
X94685714Y-55126939D01*
X94685714Y-55126939D02*
X94599999Y-55084082D01*
X94599999Y-55084082D02*
X94428571Y-55084082D01*
X94428571Y-55084082D02*
X94342857Y-55126939D01*
X93957142Y-55684082D02*
X93957142Y-55084082D01*
X93957142Y-55255510D02*
X93914285Y-55169796D01*
X93914285Y-55169796D02*
X93871428Y-55126939D01*
X93871428Y-55126939D02*
X93785713Y-55084082D01*
X93785713Y-55084082D02*
X93699999Y-55084082D01*
X93057142Y-55641225D02*
X93142856Y-55684082D01*
X93142856Y-55684082D02*
X93314285Y-55684082D01*
X93314285Y-55684082D02*
X93399999Y-55641225D01*
X93399999Y-55641225D02*
X93442856Y-55555510D01*
X93442856Y-55555510D02*
X93442856Y-55212653D01*
X93442856Y-55212653D02*
X93399999Y-55126939D01*
X93399999Y-55126939D02*
X93314285Y-55084082D01*
X93314285Y-55084082D02*
X93142856Y-55084082D01*
X93142856Y-55084082D02*
X93057142Y-55126939D01*
X93057142Y-55126939D02*
X93014285Y-55212653D01*
X93014285Y-55212653D02*
X93014285Y-55298367D01*
X93014285Y-55298367D02*
X93442856Y-55384082D01*
X92714284Y-55084082D02*
X92542856Y-55684082D01*
X92542856Y-55684082D02*
X92371427Y-55255510D01*
X92371427Y-55255510D02*
X92199998Y-55684082D01*
X92199998Y-55684082D02*
X92028570Y-55084082D01*
X113307143Y-56533032D02*
X112964286Y-56533032D01*
X113178572Y-57133032D02*
X113178572Y-56361603D01*
X113178572Y-56361603D02*
X113135715Y-56275889D01*
X113135715Y-56275889D02*
X113050000Y-56233032D01*
X113050000Y-56233032D02*
X112964286Y-56233032D01*
X112535714Y-57133032D02*
X112621429Y-57090175D01*
X112621429Y-57090175D02*
X112664286Y-57047317D01*
X112664286Y-57047317D02*
X112707143Y-56961603D01*
X112707143Y-56961603D02*
X112707143Y-56704460D01*
X112707143Y-56704460D02*
X112664286Y-56618746D01*
X112664286Y-56618746D02*
X112621429Y-56575889D01*
X112621429Y-56575889D02*
X112535714Y-56533032D01*
X112535714Y-56533032D02*
X112407143Y-56533032D01*
X112407143Y-56533032D02*
X112321429Y-56575889D01*
X112321429Y-56575889D02*
X112278572Y-56618746D01*
X112278572Y-56618746D02*
X112235714Y-56704460D01*
X112235714Y-56704460D02*
X112235714Y-56961603D01*
X112235714Y-56961603D02*
X112278572Y-57047317D01*
X112278572Y-57047317D02*
X112321429Y-57090175D01*
X112321429Y-57090175D02*
X112407143Y-57133032D01*
X112407143Y-57133032D02*
X112535714Y-57133032D01*
X111850000Y-57133032D02*
X111850000Y-56533032D01*
X111850000Y-56704460D02*
X111807143Y-56618746D01*
X111807143Y-56618746D02*
X111764286Y-56575889D01*
X111764286Y-56575889D02*
X111678571Y-56533032D01*
X111678571Y-56533032D02*
X111592857Y-56533032D01*
X110221429Y-57133032D02*
X110221429Y-56661603D01*
X110221429Y-56661603D02*
X110264286Y-56575889D01*
X110264286Y-56575889D02*
X110350000Y-56533032D01*
X110350000Y-56533032D02*
X110521429Y-56533032D01*
X110521429Y-56533032D02*
X110607143Y-56575889D01*
X110221429Y-57090175D02*
X110307143Y-57133032D01*
X110307143Y-57133032D02*
X110521429Y-57133032D01*
X110521429Y-57133032D02*
X110607143Y-57090175D01*
X110607143Y-57090175D02*
X110650000Y-57004460D01*
X110650000Y-57004460D02*
X110650000Y-56918746D01*
X110650000Y-56918746D02*
X110607143Y-56833032D01*
X110607143Y-56833032D02*
X110521429Y-56790175D01*
X110521429Y-56790175D02*
X110307143Y-56790175D01*
X110307143Y-56790175D02*
X110221429Y-56747317D01*
X109664285Y-57133032D02*
X109750000Y-57090175D01*
X109750000Y-57090175D02*
X109792857Y-57004460D01*
X109792857Y-57004460D02*
X109792857Y-56233032D01*
X109192856Y-57133032D02*
X109278571Y-57090175D01*
X109278571Y-57090175D02*
X109321428Y-57004460D01*
X109321428Y-57004460D02*
X109321428Y-56233032D01*
X108292856Y-56533032D02*
X107949999Y-56533032D01*
X108164285Y-56233032D02*
X108164285Y-57004460D01*
X108164285Y-57004460D02*
X108121428Y-57090175D01*
X108121428Y-57090175D02*
X108035713Y-57133032D01*
X108035713Y-57133032D02*
X107949999Y-57133032D01*
X107649999Y-57133032D02*
X107649999Y-56233032D01*
X107264285Y-57133032D02*
X107264285Y-56661603D01*
X107264285Y-56661603D02*
X107307142Y-56575889D01*
X107307142Y-56575889D02*
X107392856Y-56533032D01*
X107392856Y-56533032D02*
X107521427Y-56533032D01*
X107521427Y-56533032D02*
X107607142Y-56575889D01*
X107607142Y-56575889D02*
X107649999Y-56618746D01*
X106492856Y-57090175D02*
X106578570Y-57133032D01*
X106578570Y-57133032D02*
X106749999Y-57133032D01*
X106749999Y-57133032D02*
X106835713Y-57090175D01*
X106835713Y-57090175D02*
X106878570Y-57004460D01*
X106878570Y-57004460D02*
X106878570Y-56661603D01*
X106878570Y-56661603D02*
X106835713Y-56575889D01*
X106835713Y-56575889D02*
X106749999Y-56533032D01*
X106749999Y-56533032D02*
X106578570Y-56533032D01*
X106578570Y-56533032D02*
X106492856Y-56575889D01*
X106492856Y-56575889D02*
X106449999Y-56661603D01*
X106449999Y-56661603D02*
X106449999Y-56747317D01*
X106449999Y-56747317D02*
X106878570Y-56833032D01*
X105378570Y-57133032D02*
X105378570Y-56533032D01*
X105378570Y-56233032D02*
X105421427Y-56275889D01*
X105421427Y-56275889D02*
X105378570Y-56318746D01*
X105378570Y-56318746D02*
X105335713Y-56275889D01*
X105335713Y-56275889D02*
X105378570Y-56233032D01*
X105378570Y-56233032D02*
X105378570Y-56318746D01*
X104949999Y-56533032D02*
X104949999Y-57133032D01*
X104949999Y-56618746D02*
X104907142Y-56575889D01*
X104907142Y-56575889D02*
X104821427Y-56533032D01*
X104821427Y-56533032D02*
X104692856Y-56533032D01*
X104692856Y-56533032D02*
X104607142Y-56575889D01*
X104607142Y-56575889D02*
X104564285Y-56661603D01*
X104564285Y-56661603D02*
X104564285Y-57133032D01*
X104178570Y-57090175D02*
X104092856Y-57133032D01*
X104092856Y-57133032D02*
X103921427Y-57133032D01*
X103921427Y-57133032D02*
X103835713Y-57090175D01*
X103835713Y-57090175D02*
X103792856Y-57004460D01*
X103792856Y-57004460D02*
X103792856Y-56961603D01*
X103792856Y-56961603D02*
X103835713Y-56875889D01*
X103835713Y-56875889D02*
X103921427Y-56833032D01*
X103921427Y-56833032D02*
X104049999Y-56833032D01*
X104049999Y-56833032D02*
X104135713Y-56790175D01*
X104135713Y-56790175D02*
X104178570Y-56704460D01*
X104178570Y-56704460D02*
X104178570Y-56661603D01*
X104178570Y-56661603D02*
X104135713Y-56575889D01*
X104135713Y-56575889D02*
X104049999Y-56533032D01*
X104049999Y-56533032D02*
X103921427Y-56533032D01*
X103921427Y-56533032D02*
X103835713Y-56575889D01*
X103407142Y-56533032D02*
X103407142Y-57433032D01*
X103407142Y-56575889D02*
X103321428Y-56533032D01*
X103321428Y-56533032D02*
X103149999Y-56533032D01*
X103149999Y-56533032D02*
X103064285Y-56575889D01*
X103064285Y-56575889D02*
X103021428Y-56618746D01*
X103021428Y-56618746D02*
X102978570Y-56704460D01*
X102978570Y-56704460D02*
X102978570Y-56961603D01*
X102978570Y-56961603D02*
X103021428Y-57047317D01*
X103021428Y-57047317D02*
X103064285Y-57090175D01*
X103064285Y-57090175D02*
X103149999Y-57133032D01*
X103149999Y-57133032D02*
X103321428Y-57133032D01*
X103321428Y-57133032D02*
X103407142Y-57090175D01*
X102592856Y-57133032D02*
X102592856Y-56533032D01*
X102592856Y-56233032D02*
X102635713Y-56275889D01*
X102635713Y-56275889D02*
X102592856Y-56318746D01*
X102592856Y-56318746D02*
X102549999Y-56275889D01*
X102549999Y-56275889D02*
X102592856Y-56233032D01*
X102592856Y-56233032D02*
X102592856Y-56318746D01*
X102164285Y-57133032D02*
X102164285Y-56533032D01*
X102164285Y-56704460D02*
X102121428Y-56618746D01*
X102121428Y-56618746D02*
X102078571Y-56575889D01*
X102078571Y-56575889D02*
X101992856Y-56533032D01*
X101992856Y-56533032D02*
X101907142Y-56533032D01*
X101221428Y-57133032D02*
X101221428Y-56661603D01*
X101221428Y-56661603D02*
X101264285Y-56575889D01*
X101264285Y-56575889D02*
X101349999Y-56533032D01*
X101349999Y-56533032D02*
X101521428Y-56533032D01*
X101521428Y-56533032D02*
X101607142Y-56575889D01*
X101221428Y-57090175D02*
X101307142Y-57133032D01*
X101307142Y-57133032D02*
X101521428Y-57133032D01*
X101521428Y-57133032D02*
X101607142Y-57090175D01*
X101607142Y-57090175D02*
X101649999Y-57004460D01*
X101649999Y-57004460D02*
X101649999Y-56918746D01*
X101649999Y-56918746D02*
X101607142Y-56833032D01*
X101607142Y-56833032D02*
X101521428Y-56790175D01*
X101521428Y-56790175D02*
X101307142Y-56790175D01*
X101307142Y-56790175D02*
X101221428Y-56747317D01*
X100921427Y-56533032D02*
X100578570Y-56533032D01*
X100792856Y-56233032D02*
X100792856Y-57004460D01*
X100792856Y-57004460D02*
X100749999Y-57090175D01*
X100749999Y-57090175D02*
X100664284Y-57133032D01*
X100664284Y-57133032D02*
X100578570Y-57133032D01*
X100278570Y-57133032D02*
X100278570Y-56533032D01*
X100278570Y-56233032D02*
X100321427Y-56275889D01*
X100321427Y-56275889D02*
X100278570Y-56318746D01*
X100278570Y-56318746D02*
X100235713Y-56275889D01*
X100235713Y-56275889D02*
X100278570Y-56233032D01*
X100278570Y-56233032D02*
X100278570Y-56318746D01*
X99721427Y-57133032D02*
X99807142Y-57090175D01*
X99807142Y-57090175D02*
X99849999Y-57047317D01*
X99849999Y-57047317D02*
X99892856Y-56961603D01*
X99892856Y-56961603D02*
X99892856Y-56704460D01*
X99892856Y-56704460D02*
X99849999Y-56618746D01*
X99849999Y-56618746D02*
X99807142Y-56575889D01*
X99807142Y-56575889D02*
X99721427Y-56533032D01*
X99721427Y-56533032D02*
X99592856Y-56533032D01*
X99592856Y-56533032D02*
X99507142Y-56575889D01*
X99507142Y-56575889D02*
X99464285Y-56618746D01*
X99464285Y-56618746D02*
X99421427Y-56704460D01*
X99421427Y-56704460D02*
X99421427Y-56961603D01*
X99421427Y-56961603D02*
X99464285Y-57047317D01*
X99464285Y-57047317D02*
X99507142Y-57090175D01*
X99507142Y-57090175D02*
X99592856Y-57133032D01*
X99592856Y-57133032D02*
X99721427Y-57133032D01*
X99035713Y-56533032D02*
X99035713Y-57133032D01*
X99035713Y-56618746D02*
X98992856Y-56575889D01*
X98992856Y-56575889D02*
X98907141Y-56533032D01*
X98907141Y-56533032D02*
X98778570Y-56533032D01*
X98778570Y-56533032D02*
X98692856Y-56575889D01*
X98692856Y-56575889D02*
X98649999Y-56661603D01*
X98649999Y-56661603D02*
X98649999Y-57133032D01*
X98178570Y-57090175D02*
X98178570Y-57133032D01*
X98178570Y-57133032D02*
X98221427Y-57218746D01*
X98221427Y-57218746D02*
X98264284Y-57261603D01*
X96721428Y-57133032D02*
X96721428Y-56661603D01*
X96721428Y-56661603D02*
X96764285Y-56575889D01*
X96764285Y-56575889D02*
X96849999Y-56533032D01*
X96849999Y-56533032D02*
X97021428Y-56533032D01*
X97021428Y-56533032D02*
X97107142Y-56575889D01*
X96721428Y-57090175D02*
X96807142Y-57133032D01*
X96807142Y-57133032D02*
X97021428Y-57133032D01*
X97021428Y-57133032D02*
X97107142Y-57090175D01*
X97107142Y-57090175D02*
X97149999Y-57004460D01*
X97149999Y-57004460D02*
X97149999Y-56918746D01*
X97149999Y-56918746D02*
X97107142Y-56833032D01*
X97107142Y-56833032D02*
X97021428Y-56790175D01*
X97021428Y-56790175D02*
X96807142Y-56790175D01*
X96807142Y-56790175D02*
X96721428Y-56747317D01*
X95907142Y-57133032D02*
X95907142Y-56233032D01*
X95907142Y-57090175D02*
X95992856Y-57133032D01*
X95992856Y-57133032D02*
X96164284Y-57133032D01*
X96164284Y-57133032D02*
X96249999Y-57090175D01*
X96249999Y-57090175D02*
X96292856Y-57047317D01*
X96292856Y-57047317D02*
X96335713Y-56961603D01*
X96335713Y-56961603D02*
X96335713Y-56704460D01*
X96335713Y-56704460D02*
X96292856Y-56618746D01*
X96292856Y-56618746D02*
X96249999Y-56575889D01*
X96249999Y-56575889D02*
X96164284Y-56533032D01*
X96164284Y-56533032D02*
X95992856Y-56533032D01*
X95992856Y-56533032D02*
X95907142Y-56575889D01*
X95564284Y-56533032D02*
X95349998Y-57133032D01*
X95349998Y-57133032D02*
X95135713Y-56533032D01*
X94792856Y-57133032D02*
X94792856Y-56533032D01*
X94792856Y-56233032D02*
X94835713Y-56275889D01*
X94835713Y-56275889D02*
X94792856Y-56318746D01*
X94792856Y-56318746D02*
X94749999Y-56275889D01*
X94749999Y-56275889D02*
X94792856Y-56233032D01*
X94792856Y-56233032D02*
X94792856Y-56318746D01*
X93978571Y-57090175D02*
X94064285Y-57133032D01*
X94064285Y-57133032D02*
X94235713Y-57133032D01*
X94235713Y-57133032D02*
X94321428Y-57090175D01*
X94321428Y-57090175D02*
X94364285Y-57047317D01*
X94364285Y-57047317D02*
X94407142Y-56961603D01*
X94407142Y-56961603D02*
X94407142Y-56704460D01*
X94407142Y-56704460D02*
X94364285Y-56618746D01*
X94364285Y-56618746D02*
X94321428Y-56575889D01*
X94321428Y-56575889D02*
X94235713Y-56533032D01*
X94235713Y-56533032D02*
X94064285Y-56533032D01*
X94064285Y-56533032D02*
X93978571Y-56575889D01*
X93249999Y-57090175D02*
X93335713Y-57133032D01*
X93335713Y-57133032D02*
X93507142Y-57133032D01*
X93507142Y-57133032D02*
X93592856Y-57090175D01*
X93592856Y-57090175D02*
X93635713Y-57004460D01*
X93635713Y-57004460D02*
X93635713Y-56661603D01*
X93635713Y-56661603D02*
X93592856Y-56575889D01*
X93592856Y-56575889D02*
X93507142Y-56533032D01*
X93507142Y-56533032D02*
X93335713Y-56533032D01*
X93335713Y-56533032D02*
X93249999Y-56575889D01*
X93249999Y-56575889D02*
X93207142Y-56661603D01*
X93207142Y-56661603D02*
X93207142Y-56747317D01*
X93207142Y-56747317D02*
X93635713Y-56833032D01*
X92778570Y-57090175D02*
X92778570Y-57133032D01*
X92778570Y-57133032D02*
X92821427Y-57218746D01*
X92821427Y-57218746D02*
X92864284Y-57261603D01*
X108335715Y-58581982D02*
X108335715Y-58110553D01*
X108335715Y-58110553D02*
X108378572Y-58024839D01*
X108378572Y-58024839D02*
X108464286Y-57981982D01*
X108464286Y-57981982D02*
X108635715Y-57981982D01*
X108635715Y-57981982D02*
X108721429Y-58024839D01*
X108335715Y-58539125D02*
X108421429Y-58581982D01*
X108421429Y-58581982D02*
X108635715Y-58581982D01*
X108635715Y-58581982D02*
X108721429Y-58539125D01*
X108721429Y-58539125D02*
X108764286Y-58453410D01*
X108764286Y-58453410D02*
X108764286Y-58367696D01*
X108764286Y-58367696D02*
X108721429Y-58281982D01*
X108721429Y-58281982D02*
X108635715Y-58239125D01*
X108635715Y-58239125D02*
X108421429Y-58239125D01*
X108421429Y-58239125D02*
X108335715Y-58196267D01*
X107907143Y-57981982D02*
X107907143Y-58581982D01*
X107907143Y-58067696D02*
X107864286Y-58024839D01*
X107864286Y-58024839D02*
X107778571Y-57981982D01*
X107778571Y-57981982D02*
X107650000Y-57981982D01*
X107650000Y-57981982D02*
X107564286Y-58024839D01*
X107564286Y-58024839D02*
X107521429Y-58110553D01*
X107521429Y-58110553D02*
X107521429Y-58581982D01*
X106707143Y-58581982D02*
X106707143Y-57681982D01*
X106707143Y-58539125D02*
X106792857Y-58581982D01*
X106792857Y-58581982D02*
X106964285Y-58581982D01*
X106964285Y-58581982D02*
X107050000Y-58539125D01*
X107050000Y-58539125D02*
X107092857Y-58496267D01*
X107092857Y-58496267D02*
X107135714Y-58410553D01*
X107135714Y-58410553D02*
X107135714Y-58153410D01*
X107135714Y-58153410D02*
X107092857Y-58067696D01*
X107092857Y-58067696D02*
X107050000Y-58024839D01*
X107050000Y-58024839D02*
X106964285Y-57981982D01*
X106964285Y-57981982D02*
X106792857Y-57981982D01*
X106792857Y-57981982D02*
X106707143Y-58024839D01*
X105207143Y-58539125D02*
X105292857Y-58581982D01*
X105292857Y-58581982D02*
X105464285Y-58581982D01*
X105464285Y-58581982D02*
X105550000Y-58539125D01*
X105550000Y-58539125D02*
X105592857Y-58496267D01*
X105592857Y-58496267D02*
X105635714Y-58410553D01*
X105635714Y-58410553D02*
X105635714Y-58153410D01*
X105635714Y-58153410D02*
X105592857Y-58067696D01*
X105592857Y-58067696D02*
X105550000Y-58024839D01*
X105550000Y-58024839D02*
X105464285Y-57981982D01*
X105464285Y-57981982D02*
X105292857Y-57981982D01*
X105292857Y-57981982D02*
X105207143Y-58024839D01*
X104435714Y-58581982D02*
X104435714Y-58110553D01*
X104435714Y-58110553D02*
X104478571Y-58024839D01*
X104478571Y-58024839D02*
X104564285Y-57981982D01*
X104564285Y-57981982D02*
X104735714Y-57981982D01*
X104735714Y-57981982D02*
X104821428Y-58024839D01*
X104435714Y-58539125D02*
X104521428Y-58581982D01*
X104521428Y-58581982D02*
X104735714Y-58581982D01*
X104735714Y-58581982D02*
X104821428Y-58539125D01*
X104821428Y-58539125D02*
X104864285Y-58453410D01*
X104864285Y-58453410D02*
X104864285Y-58367696D01*
X104864285Y-58367696D02*
X104821428Y-58281982D01*
X104821428Y-58281982D02*
X104735714Y-58239125D01*
X104735714Y-58239125D02*
X104521428Y-58239125D01*
X104521428Y-58239125D02*
X104435714Y-58196267D01*
X104007142Y-58581982D02*
X104007142Y-57981982D01*
X104007142Y-58067696D02*
X103964285Y-58024839D01*
X103964285Y-58024839D02*
X103878570Y-57981982D01*
X103878570Y-57981982D02*
X103749999Y-57981982D01*
X103749999Y-57981982D02*
X103664285Y-58024839D01*
X103664285Y-58024839D02*
X103621428Y-58110553D01*
X103621428Y-58110553D02*
X103621428Y-58581982D01*
X103621428Y-58110553D02*
X103578570Y-58024839D01*
X103578570Y-58024839D02*
X103492856Y-57981982D01*
X103492856Y-57981982D02*
X103364285Y-57981982D01*
X103364285Y-57981982D02*
X103278570Y-58024839D01*
X103278570Y-58024839D02*
X103235713Y-58110553D01*
X103235713Y-58110553D02*
X103235713Y-58581982D01*
X102421428Y-58581982D02*
X102421428Y-58110553D01*
X102421428Y-58110553D02*
X102464285Y-58024839D01*
X102464285Y-58024839D02*
X102549999Y-57981982D01*
X102549999Y-57981982D02*
X102721428Y-57981982D01*
X102721428Y-57981982D02*
X102807142Y-58024839D01*
X102421428Y-58539125D02*
X102507142Y-58581982D01*
X102507142Y-58581982D02*
X102721428Y-58581982D01*
X102721428Y-58581982D02*
X102807142Y-58539125D01*
X102807142Y-58539125D02*
X102849999Y-58453410D01*
X102849999Y-58453410D02*
X102849999Y-58367696D01*
X102849999Y-58367696D02*
X102807142Y-58281982D01*
X102807142Y-58281982D02*
X102721428Y-58239125D01*
X102721428Y-58239125D02*
X102507142Y-58239125D01*
X102507142Y-58239125D02*
X102421428Y-58196267D01*
X101992856Y-58581982D02*
X101992856Y-57981982D01*
X101992856Y-58153410D02*
X101949999Y-58067696D01*
X101949999Y-58067696D02*
X101907142Y-58024839D01*
X101907142Y-58024839D02*
X101821427Y-57981982D01*
X101821427Y-57981982D02*
X101735713Y-57981982D01*
X101049999Y-58581982D02*
X101049999Y-58110553D01*
X101049999Y-58110553D02*
X101092856Y-58024839D01*
X101092856Y-58024839D02*
X101178570Y-57981982D01*
X101178570Y-57981982D02*
X101349999Y-57981982D01*
X101349999Y-57981982D02*
X101435713Y-58024839D01*
X101049999Y-58539125D02*
X101135713Y-58581982D01*
X101135713Y-58581982D02*
X101349999Y-58581982D01*
X101349999Y-58581982D02*
X101435713Y-58539125D01*
X101435713Y-58539125D02*
X101478570Y-58453410D01*
X101478570Y-58453410D02*
X101478570Y-58367696D01*
X101478570Y-58367696D02*
X101435713Y-58281982D01*
X101435713Y-58281982D02*
X101349999Y-58239125D01*
X101349999Y-58239125D02*
X101135713Y-58239125D01*
X101135713Y-58239125D02*
X101049999Y-58196267D01*
X100235713Y-58581982D02*
X100235713Y-57681982D01*
X100235713Y-58539125D02*
X100321427Y-58581982D01*
X100321427Y-58581982D02*
X100492855Y-58581982D01*
X100492855Y-58581982D02*
X100578570Y-58539125D01*
X100578570Y-58539125D02*
X100621427Y-58496267D01*
X100621427Y-58496267D02*
X100664284Y-58410553D01*
X100664284Y-58410553D02*
X100664284Y-58153410D01*
X100664284Y-58153410D02*
X100621427Y-58067696D01*
X100621427Y-58067696D02*
X100578570Y-58024839D01*
X100578570Y-58024839D02*
X100492855Y-57981982D01*
X100492855Y-57981982D02*
X100321427Y-57981982D01*
X100321427Y-57981982D02*
X100235713Y-58024839D01*
X99464284Y-58539125D02*
X99549998Y-58581982D01*
X99549998Y-58581982D02*
X99721427Y-58581982D01*
X99721427Y-58581982D02*
X99807141Y-58539125D01*
X99807141Y-58539125D02*
X99849998Y-58453410D01*
X99849998Y-58453410D02*
X99849998Y-58110553D01*
X99849998Y-58110553D02*
X99807141Y-58024839D01*
X99807141Y-58024839D02*
X99721427Y-57981982D01*
X99721427Y-57981982D02*
X99549998Y-57981982D01*
X99549998Y-57981982D02*
X99464284Y-58024839D01*
X99464284Y-58024839D02*
X99421427Y-58110553D01*
X99421427Y-58110553D02*
X99421427Y-58196267D01*
X99421427Y-58196267D02*
X99849998Y-58281982D01*
X99035712Y-58581982D02*
X99035712Y-57981982D01*
X99035712Y-58153410D02*
X98992855Y-58067696D01*
X98992855Y-58067696D02*
X98949998Y-58024839D01*
X98949998Y-58024839D02*
X98864283Y-57981982D01*
X98864283Y-57981982D02*
X98778569Y-57981982D01*
X98478569Y-58581982D02*
X98478569Y-57981982D01*
X98478569Y-57681982D02*
X98521426Y-57724839D01*
X98521426Y-57724839D02*
X98478569Y-57767696D01*
X98478569Y-57767696D02*
X98435712Y-57724839D01*
X98435712Y-57724839D02*
X98478569Y-57681982D01*
X98478569Y-57681982D02*
X98478569Y-57767696D01*
X97707141Y-58539125D02*
X97792855Y-58581982D01*
X97792855Y-58581982D02*
X97964284Y-58581982D01*
X97964284Y-58581982D02*
X98049998Y-58539125D01*
X98049998Y-58539125D02*
X98092855Y-58453410D01*
X98092855Y-58453410D02*
X98092855Y-58110553D01*
X98092855Y-58110553D02*
X98049998Y-58024839D01*
X98049998Y-58024839D02*
X97964284Y-57981982D01*
X97964284Y-57981982D02*
X97792855Y-57981982D01*
X97792855Y-57981982D02*
X97707141Y-58024839D01*
X97707141Y-58024839D02*
X97664284Y-58110553D01*
X97664284Y-58110553D02*
X97664284Y-58196267D01*
X97664284Y-58196267D02*
X98092855Y-58281982D01*
X97278569Y-58496267D02*
X97235712Y-58539125D01*
X97235712Y-58539125D02*
X97278569Y-58581982D01*
X97278569Y-58581982D02*
X97321426Y-58539125D01*
X97321426Y-58539125D02*
X97278569Y-58496267D01*
X97278569Y-58496267D02*
X97278569Y-58581982D01*
X97278569Y-58239125D02*
X97321426Y-57724839D01*
X97321426Y-57724839D02*
X97278569Y-57681982D01*
X97278569Y-57681982D02*
X97235712Y-57724839D01*
X97235712Y-57724839D02*
X97278569Y-58239125D01*
X97278569Y-58239125D02*
X97278569Y-57681982D01*
M02*
