%TF.GenerationSoftware,KiCad,Pcbnew,9.0.6*%
%TF.CreationDate,2026-02-24T20:34:45+00:00*%
%TF.ProjectId,Bus,4275732e-6b69-4636-9164-5f7063625858,rev?*%
%TF.SameCoordinates,Original*%
%TF.FileFunction,Copper,L2,Bot*%
%TF.FilePolarity,Positive*%
%FSLAX46Y46*%
G04 Gerber Fmt 4.6, Leading zero omitted, Abs format (unit mm)*
G04 Created by KiCad (PCBNEW 9.0.6) date 2026-02-24 20:34:45*
%MOMM*%
%LPD*%
G01*
G04 APERTURE LIST*
%TA.AperFunction,ComponentPad*%
%ADD10R,1.700000X1.700000*%
%TD*%
%TA.AperFunction,ComponentPad*%
%ADD11C,1.700000*%
%TD*%
%TA.AperFunction,ViaPad*%
%ADD12C,0.800000*%
%TD*%
%TA.AperFunction,ViaPad*%
%ADD13C,0.600000*%
%TD*%
%TA.AperFunction,Conductor*%
%ADD14C,1.000000*%
%TD*%
%TA.AperFunction,Conductor*%
%ADD15C,0.400000*%
%TD*%
%TA.AperFunction,Conductor*%
%ADD16C,0.500000*%
%TD*%
G04 APERTURE END LIST*
D10*
%TO.P,J1,1,Pin_1*%
%TO.N,+5V*%
X47540000Y-26960000D03*
D11*
%TO.P,J1,2,Pin_2*%
%TO.N,+3.3V*%
X47540000Y-29500000D03*
%TO.P,J1,3,Pin_3*%
%TO.N,GND*%
X45000000Y-26960000D03*
%TO.P,J1,4,Pin_4*%
X45000000Y-29500000D03*
%TO.P,J1,5,Pin_5*%
%TO.N,/A*%
X42460000Y-26960000D03*
%TO.P,J1,6,Pin_6*%
%TO.N,/B*%
X42460000Y-29500000D03*
%TD*%
D10*
%TO.P,J2,1,Pin_1*%
%TO.N,+5V*%
X48810000Y-24275000D03*
D11*
%TO.P,J2,2,Pin_2*%
%TO.N,+3.3V*%
X48810000Y-21735000D03*
%TO.P,J2,3,Pin_3*%
%TO.N,GND*%
X46270000Y-24275000D03*
%TO.P,J2,4,Pin_4*%
X46270000Y-21735000D03*
%TO.P,J2,5,Pin_5*%
%TO.N,/A*%
X43730000Y-24275000D03*
%TO.P,J2,6,Pin_6*%
%TO.N,/SCL*%
X43730000Y-21735000D03*
%TO.P,J2,7,Pin_7*%
%TO.N,/B*%
X41190000Y-24275000D03*
%TO.P,J2,8,Pin_8*%
%TO.N,/SDA*%
X41190000Y-21735000D03*
%TD*%
D12*
%TO.N,GND*%
X58000000Y-29000000D03*
X32000000Y-29000000D03*
X32000000Y-31000000D03*
X58000000Y-31000000D03*
D13*
%TO.N,+3.3V*%
X38400000Y-31337500D03*
X35800000Y-30100000D03*
%TD*%
D14*
%TO.N,+5V*%
X48810000Y-25440000D02*
X47540000Y-26710000D01*
X48810000Y-24275000D02*
X48810000Y-25440000D01*
D15*
%TO.N,/B*%
X41190000Y-24275000D02*
X41190000Y-27980000D01*
X41190000Y-27980000D02*
X42460000Y-29250000D01*
%TO.N,/A*%
X42460000Y-25545000D02*
X43730000Y-24275000D01*
X42460000Y-26710000D02*
X42460000Y-25545000D01*
D16*
%TO.N,+3.3V*%
X38400000Y-31337500D02*
X37037500Y-31337500D01*
D14*
X50012081Y-21735000D02*
X48810000Y-21735000D01*
X49500000Y-28000000D02*
X50638540Y-26861460D01*
X49500000Y-28000000D02*
X48250000Y-29250000D01*
D16*
X39837500Y-31337500D02*
X45452500Y-31337500D01*
X39837500Y-31337500D02*
X38400000Y-31337500D01*
D14*
X50638540Y-26861460D02*
X50638540Y-22361460D01*
X50638540Y-22361460D02*
X50012081Y-21735000D01*
D16*
X45452500Y-31337500D02*
X47540000Y-29250000D01*
X37037500Y-31337500D02*
X35800000Y-30100000D01*
D14*
X48250000Y-29250000D02*
X47540000Y-29250000D01*
%TD*%
%TA.AperFunction,Conductor*%
%TO.N,GND*%
G36*
X40868906Y-20520185D02*
G01*
X40914661Y-20572989D01*
X40924605Y-20642147D01*
X40895580Y-20705703D01*
X40849320Y-20739061D01*
X40692403Y-20804057D01*
X40520342Y-20919024D01*
X40374024Y-21065342D01*
X40259058Y-21237403D01*
X40179870Y-21428579D01*
X40179868Y-21428587D01*
X40139500Y-21631530D01*
X40139500Y-21838469D01*
X40179868Y-22041412D01*
X40179870Y-22041420D01*
X40259058Y-22232596D01*
X40374024Y-22404657D01*
X40520342Y-22550975D01*
X40520345Y-22550977D01*
X40692402Y-22665941D01*
X40883580Y-22745130D01*
X41086530Y-22785499D01*
X41086534Y-22785500D01*
X41086535Y-22785500D01*
X41293466Y-22785500D01*
X41293467Y-22785499D01*
X41496420Y-22745130D01*
X41687598Y-22665941D01*
X41859655Y-22550977D01*
X42005977Y-22404655D01*
X42120941Y-22232598D01*
X42200130Y-22041420D01*
X42240500Y-21838465D01*
X42240500Y-21631535D01*
X42200130Y-21428580D01*
X42120941Y-21237402D01*
X42005977Y-21065345D01*
X42005975Y-21065342D01*
X41859657Y-20919024D01*
X41687596Y-20804057D01*
X41530680Y-20739061D01*
X41476277Y-20695220D01*
X41454212Y-20628926D01*
X41471491Y-20561226D01*
X41522629Y-20513616D01*
X41578133Y-20500500D01*
X43341867Y-20500500D01*
X43408906Y-20520185D01*
X43454661Y-20572989D01*
X43464605Y-20642147D01*
X43435580Y-20705703D01*
X43389320Y-20739061D01*
X43232403Y-20804057D01*
X43060342Y-20919024D01*
X42914024Y-21065342D01*
X42799058Y-21237403D01*
X42719870Y-21428579D01*
X42719868Y-21428587D01*
X42679500Y-21631530D01*
X42679500Y-21838469D01*
X42719868Y-22041412D01*
X42719870Y-22041420D01*
X42799058Y-22232596D01*
X42914024Y-22404657D01*
X43060342Y-22550975D01*
X43060345Y-22550977D01*
X43232402Y-22665941D01*
X43423580Y-22745130D01*
X43626530Y-22785499D01*
X43626534Y-22785500D01*
X43626535Y-22785500D01*
X43833466Y-22785500D01*
X43833467Y-22785499D01*
X44036420Y-22745130D01*
X44227598Y-22665941D01*
X44399655Y-22550977D01*
X44399658Y-22550974D01*
X44414284Y-22536349D01*
X44545974Y-22404658D01*
X44545975Y-22404657D01*
X44545977Y-22404655D01*
X44660941Y-22232598D01*
X44740130Y-22041420D01*
X44780500Y-21838465D01*
X44780500Y-21631535D01*
X44740130Y-21428580D01*
X44660941Y-21237402D01*
X44545977Y-21065345D01*
X44545975Y-21065342D01*
X44399657Y-20919024D01*
X44227596Y-20804057D01*
X44070680Y-20739061D01*
X44016277Y-20695220D01*
X43994212Y-20628926D01*
X44011491Y-20561226D01*
X44062629Y-20513616D01*
X44118133Y-20500500D01*
X45753388Y-20500500D01*
X45820427Y-20520185D01*
X45866182Y-20572989D01*
X45876126Y-20642147D01*
X45847101Y-20705703D01*
X45809683Y-20734985D01*
X45693475Y-20794196D01*
X45693463Y-20794203D01*
X45687261Y-20798708D01*
X45687261Y-20798709D01*
X46140590Y-21252037D01*
X46077007Y-21269075D01*
X45962993Y-21334901D01*
X45869901Y-21427993D01*
X45804075Y-21542007D01*
X45787037Y-21605590D01*
X45333709Y-21152261D01*
X45333708Y-21152261D01*
X45329203Y-21158463D01*
X45329193Y-21158480D01*
X45250592Y-21312740D01*
X45197085Y-21477415D01*
X45170000Y-21648428D01*
X45170000Y-21821571D01*
X45197085Y-21992584D01*
X45250592Y-22157259D01*
X45329196Y-22311525D01*
X45333709Y-22317736D01*
X45333709Y-22317737D01*
X45787037Y-21864409D01*
X45804075Y-21927993D01*
X45869901Y-22042007D01*
X45962993Y-22135099D01*
X46077007Y-22200925D01*
X46140589Y-22217962D01*
X45687261Y-22671289D01*
X45687262Y-22671290D01*
X45693471Y-22675801D01*
X45847742Y-22754408D01*
X46012415Y-22807914D01*
X46183429Y-22835000D01*
X46356571Y-22835000D01*
X46527584Y-22807914D01*
X46692257Y-22754408D01*
X46846525Y-22675803D01*
X46852736Y-22671289D01*
X46852737Y-22671289D01*
X46399410Y-22217962D01*
X46462993Y-22200925D01*
X46577007Y-22135099D01*
X46670099Y-22042007D01*
X46735925Y-21927993D01*
X46752962Y-21864409D01*
X47206289Y-22317736D01*
X47210803Y-22311525D01*
X47289408Y-22157257D01*
X47342914Y-21992584D01*
X47370000Y-21821571D01*
X47370000Y-21648428D01*
X47342914Y-21477415D01*
X47289408Y-21312742D01*
X47210801Y-21158471D01*
X47206290Y-21152262D01*
X47206289Y-21152261D01*
X46752962Y-21605589D01*
X46735925Y-21542007D01*
X46670099Y-21427993D01*
X46577007Y-21334901D01*
X46462993Y-21269075D01*
X46399409Y-21252037D01*
X46852737Y-20798709D01*
X46846527Y-20794197D01*
X46730317Y-20734985D01*
X46679521Y-20687010D01*
X46662726Y-20619189D01*
X46685264Y-20553054D01*
X46739979Y-20509603D01*
X46786612Y-20500500D01*
X48421867Y-20500500D01*
X48488906Y-20520185D01*
X48534661Y-20572989D01*
X48544605Y-20642147D01*
X48515580Y-20705703D01*
X48469320Y-20739061D01*
X48312403Y-20804057D01*
X48140342Y-20919024D01*
X47994024Y-21065342D01*
X47879058Y-21237403D01*
X47799870Y-21428579D01*
X47799868Y-21428587D01*
X47759500Y-21631530D01*
X47759500Y-21838469D01*
X47799868Y-22041412D01*
X47799870Y-22041420D01*
X47879058Y-22232596D01*
X47994024Y-22404657D01*
X48140342Y-22550975D01*
X48140345Y-22550977D01*
X48312402Y-22665941D01*
X48503580Y-22745130D01*
X48706530Y-22785499D01*
X48706534Y-22785500D01*
X48706535Y-22785500D01*
X48913466Y-22785500D01*
X48913467Y-22785499D01*
X49116420Y-22745130D01*
X49307598Y-22665941D01*
X49479655Y-22550977D01*
X49558814Y-22471817D01*
X49585745Y-22457111D01*
X49611559Y-22440523D01*
X49617758Y-22439631D01*
X49620135Y-22438334D01*
X49646494Y-22435500D01*
X49670562Y-22435500D01*
X49737601Y-22455185D01*
X49758243Y-22471819D01*
X49901721Y-22615297D01*
X49935206Y-22676620D01*
X49938040Y-22702978D01*
X49938040Y-23137653D01*
X49918355Y-23204692D01*
X49865551Y-23250447D01*
X49796393Y-23260391D01*
X49745150Y-23240756D01*
X49742540Y-23239012D01*
X49738231Y-23236133D01*
X49738230Y-23236132D01*
X49738229Y-23236132D01*
X49738229Y-23236131D01*
X49679752Y-23224500D01*
X49679748Y-23224500D01*
X47940252Y-23224500D01*
X47940247Y-23224500D01*
X47881770Y-23236131D01*
X47881769Y-23236132D01*
X47815447Y-23280447D01*
X47771132Y-23346769D01*
X47771131Y-23346770D01*
X47759500Y-23405247D01*
X47759500Y-25144752D01*
X47771131Y-25203229D01*
X47771132Y-25203230D01*
X47822233Y-25279707D01*
X47821154Y-25280427D01*
X47848422Y-25330365D01*
X47843438Y-25400057D01*
X47814937Y-25444404D01*
X47386162Y-25873181D01*
X47324839Y-25906666D01*
X47298481Y-25909500D01*
X46670247Y-25909500D01*
X46611770Y-25921131D01*
X46611769Y-25921132D01*
X46545447Y-25965447D01*
X46501132Y-26031769D01*
X46501131Y-26031770D01*
X46489500Y-26090247D01*
X46489500Y-27829752D01*
X46501131Y-27888229D01*
X46501132Y-27888230D01*
X46545447Y-27954552D01*
X46611769Y-27998867D01*
X46611770Y-27998868D01*
X46670247Y-28010499D01*
X46670250Y-28010500D01*
X48199480Y-28010500D01*
X48266519Y-28030185D01*
X48312274Y-28082989D01*
X48322218Y-28152147D01*
X48293193Y-28215703D01*
X48287161Y-28222181D01*
X48027372Y-28481969D01*
X47966049Y-28515454D01*
X47896357Y-28510470D01*
X47892259Y-28508857D01*
X47846420Y-28489870D01*
X47846412Y-28489868D01*
X47643469Y-28449500D01*
X47643465Y-28449500D01*
X47436535Y-28449500D01*
X47436530Y-28449500D01*
X47233587Y-28489868D01*
X47233579Y-28489870D01*
X47042403Y-28569058D01*
X46870342Y-28684024D01*
X46724024Y-28830342D01*
X46609058Y-29002403D01*
X46529870Y-29193579D01*
X46529868Y-29193587D01*
X46489500Y-29396530D01*
X46489500Y-29609557D01*
X46487972Y-29609557D01*
X46482319Y-29635541D01*
X46476106Y-29668303D01*
X46474803Y-29670092D01*
X46474554Y-29671238D01*
X46453403Y-29699492D01*
X46281953Y-29870942D01*
X46220630Y-29904427D01*
X46150938Y-29899443D01*
X46095005Y-29857571D01*
X46070588Y-29792107D01*
X46073029Y-29762534D01*
X46072152Y-29762396D01*
X46100000Y-29586571D01*
X46100000Y-29413428D01*
X46072914Y-29242415D01*
X46019408Y-29077742D01*
X45940801Y-28923471D01*
X45936290Y-28917262D01*
X45936289Y-28917261D01*
X45482962Y-29370590D01*
X45465925Y-29307007D01*
X45400099Y-29192993D01*
X45307007Y-29099901D01*
X45192993Y-29034075D01*
X45129409Y-29017037D01*
X45582737Y-28563709D01*
X45576525Y-28559196D01*
X45422259Y-28480592D01*
X45257584Y-28427085D01*
X45086571Y-28400000D01*
X44913429Y-28400000D01*
X44742415Y-28427085D01*
X44577740Y-28480592D01*
X44423480Y-28559193D01*
X44423463Y-28559203D01*
X44417261Y-28563708D01*
X44417261Y-28563709D01*
X44870590Y-29017037D01*
X44807007Y-29034075D01*
X44692993Y-29099901D01*
X44599901Y-29192993D01*
X44534075Y-29307007D01*
X44517037Y-29370590D01*
X44063709Y-28917261D01*
X44063708Y-28917261D01*
X44059203Y-28923463D01*
X44059193Y-28923480D01*
X43980592Y-29077740D01*
X43927085Y-29242415D01*
X43900000Y-29413428D01*
X43900000Y-29586571D01*
X43927085Y-29757584D01*
X43980592Y-29922259D01*
X44059196Y-30076525D01*
X44063709Y-30082736D01*
X44063709Y-30082737D01*
X44517037Y-29629409D01*
X44534075Y-29692993D01*
X44599901Y-29807007D01*
X44692993Y-29900099D01*
X44807007Y-29965925D01*
X44870590Y-29982962D01*
X44417261Y-30436289D01*
X44417262Y-30436290D01*
X44423471Y-30440801D01*
X44577742Y-30519408D01*
X44742415Y-30572914D01*
X44913429Y-30600000D01*
X45086571Y-30600000D01*
X45262396Y-30572152D01*
X45262708Y-30574127D01*
X45324055Y-30577174D01*
X45380887Y-30617817D01*
X45406724Y-30682734D01*
X45393363Y-30751314D01*
X45370944Y-30781952D01*
X45302214Y-30850682D01*
X45240894Y-30884166D01*
X45214535Y-30887000D01*
X38653937Y-30887000D01*
X38601249Y-30872881D01*
X38600696Y-30874219D01*
X38593188Y-30871109D01*
X38593186Y-30871108D01*
X38465892Y-30837000D01*
X38334108Y-30837000D01*
X38206814Y-30871108D01*
X38199304Y-30874219D01*
X38198750Y-30872881D01*
X38146063Y-30887000D01*
X37275465Y-30887000D01*
X37208426Y-30867315D01*
X37187784Y-30850681D01*
X36298113Y-29961010D01*
X36270841Y-29913771D01*
X36269504Y-29914326D01*
X36266392Y-29906815D01*
X36266392Y-29906814D01*
X36200500Y-29792686D01*
X36107314Y-29699500D01*
X36050250Y-29666554D01*
X35993187Y-29633608D01*
X35929539Y-29616554D01*
X35865892Y-29599500D01*
X35734108Y-29599500D01*
X35606812Y-29633608D01*
X35492686Y-29699500D01*
X35492683Y-29699502D01*
X35399502Y-29792683D01*
X35399500Y-29792686D01*
X35333608Y-29906812D01*
X35319086Y-29961010D01*
X35299500Y-30034108D01*
X35299500Y-30165892D01*
X35300509Y-30169657D01*
X35333608Y-30293187D01*
X35346765Y-30315975D01*
X35399500Y-30407314D01*
X35492686Y-30500500D01*
X35606814Y-30566392D01*
X35606816Y-30566392D01*
X35614326Y-30569504D01*
X35613771Y-30570841D01*
X35661010Y-30598113D01*
X36760886Y-31697989D01*
X36760887Y-31697990D01*
X36760889Y-31697991D01*
X36820193Y-31732229D01*
X36820196Y-31732232D01*
X36854437Y-31752000D01*
X36863614Y-31757299D01*
X36978191Y-31788000D01*
X38146063Y-31788000D01*
X38198750Y-31802118D01*
X38199304Y-31800781D01*
X38206807Y-31803888D01*
X38206814Y-31803892D01*
X38334108Y-31838000D01*
X38334110Y-31838000D01*
X38465890Y-31838000D01*
X38465892Y-31838000D01*
X38593186Y-31803892D01*
X38593194Y-31803887D01*
X38600696Y-31800781D01*
X38601249Y-31802118D01*
X38653937Y-31788000D01*
X45511808Y-31788000D01*
X45511809Y-31788000D01*
X45602173Y-31763786D01*
X45626387Y-31757299D01*
X45729114Y-31697989D01*
X46951120Y-30475982D01*
X47012441Y-30442499D01*
X47082133Y-30447483D01*
X47086233Y-30449096D01*
X47233580Y-30510130D01*
X47436530Y-30550499D01*
X47436534Y-30550500D01*
X47436535Y-30550500D01*
X47643466Y-30550500D01*
X47643467Y-30550499D01*
X47846420Y-30510130D01*
X48037598Y-30430941D01*
X48209655Y-30315977D01*
X48355977Y-30169655D01*
X48470941Y-29997598D01*
X48491735Y-29947395D01*
X48535573Y-29892994D01*
X48558842Y-29880288D01*
X48581811Y-29870775D01*
X48696543Y-29794114D01*
X50044114Y-28446543D01*
X51182654Y-27308003D01*
X51259315Y-27193271D01*
X51312120Y-27065788D01*
X51339040Y-26930454D01*
X51339040Y-26792466D01*
X51339040Y-22292467D01*
X51337667Y-22285563D01*
X51336384Y-22279111D01*
X51336384Y-22279110D01*
X51312122Y-22157138D01*
X51312121Y-22157132D01*
X51274327Y-22065892D01*
X51259315Y-22029649D01*
X51195476Y-21934108D01*
X51182655Y-21914919D01*
X51182654Y-21914918D01*
X51085082Y-21817346D01*
X50936910Y-21669174D01*
X50458625Y-21190887D01*
X50456269Y-21189313D01*
X50343889Y-21114223D01*
X50269216Y-21083292D01*
X50216415Y-21061421D01*
X50216408Y-21061419D01*
X50081077Y-21034500D01*
X50081075Y-21034500D01*
X50081074Y-21034500D01*
X49646494Y-21034500D01*
X49579455Y-21014815D01*
X49558817Y-20998185D01*
X49479655Y-20919023D01*
X49393332Y-20861344D01*
X49307596Y-20804057D01*
X49150680Y-20739061D01*
X49096277Y-20695220D01*
X49074212Y-20628926D01*
X49091491Y-20561226D01*
X49142629Y-20513616D01*
X49198133Y-20500500D01*
X54132843Y-20500500D01*
X54199882Y-20520185D01*
X54245637Y-20572989D01*
X54255581Y-20642147D01*
X54226556Y-20705703D01*
X54211508Y-20720353D01*
X54079130Y-20828992D01*
X53828992Y-21079130D01*
X53604568Y-21352592D01*
X53604558Y-21352606D01*
X53408028Y-21646734D01*
X53408017Y-21646752D01*
X53241264Y-21958723D01*
X53241262Y-21958728D01*
X53105882Y-22285563D01*
X53003188Y-22624104D01*
X53003185Y-22624115D01*
X52934176Y-22971053D01*
X52934173Y-22971070D01*
X52908067Y-23236133D01*
X52899500Y-23323119D01*
X52899500Y-23676881D01*
X52909164Y-23775000D01*
X52934173Y-24028929D01*
X52934176Y-24028946D01*
X53003185Y-24375884D01*
X53003188Y-24375895D01*
X53105882Y-24714436D01*
X53241262Y-25041271D01*
X53241264Y-25041276D01*
X53408017Y-25353247D01*
X53408028Y-25353265D01*
X53604558Y-25647393D01*
X53604568Y-25647407D01*
X53828992Y-25920869D01*
X54079130Y-26171007D01*
X54079135Y-26171011D01*
X54079136Y-26171012D01*
X54352598Y-26395436D01*
X54646741Y-26591976D01*
X54646750Y-26591981D01*
X54646752Y-26591982D01*
X54958723Y-26758735D01*
X54958725Y-26758735D01*
X54958731Y-26758739D01*
X55285565Y-26894118D01*
X55624095Y-26996809D01*
X55624101Y-26996810D01*
X55624104Y-26996811D01*
X55624115Y-26996814D01*
X55841674Y-27040088D01*
X55971060Y-27065825D01*
X56323119Y-27100500D01*
X56323122Y-27100500D01*
X56676878Y-27100500D01*
X56676881Y-27100500D01*
X57028940Y-27065825D01*
X57200679Y-27031663D01*
X57375884Y-26996814D01*
X57375895Y-26996811D01*
X57375895Y-26996810D01*
X57375905Y-26996809D01*
X57714435Y-26894118D01*
X58041269Y-26758739D01*
X58353259Y-26591976D01*
X58647402Y-26395436D01*
X58920864Y-26171012D01*
X59171012Y-25920864D01*
X59279647Y-25788490D01*
X59337392Y-25749157D01*
X59407237Y-25747286D01*
X59467005Y-25783473D01*
X59497721Y-25846229D01*
X59499500Y-25867156D01*
X59499500Y-30995572D01*
X59499184Y-31004418D01*
X59499184Y-31004419D01*
X59484869Y-31204557D01*
X59482351Y-31222068D01*
X59440646Y-31413787D01*
X59435662Y-31430763D01*
X59367090Y-31614609D01*
X59359740Y-31630701D01*
X59265711Y-31802904D01*
X59256146Y-31817789D01*
X59138558Y-31974867D01*
X59126972Y-31988237D01*
X58988237Y-32126972D01*
X58974867Y-32138558D01*
X58817789Y-32256146D01*
X58802904Y-32265711D01*
X58630701Y-32359740D01*
X58614609Y-32367090D01*
X58430763Y-32435662D01*
X58413787Y-32440646D01*
X58222068Y-32482351D01*
X58204557Y-32484869D01*
X58023779Y-32497799D01*
X58004417Y-32499184D01*
X57995572Y-32499500D01*
X32004428Y-32499500D01*
X31995582Y-32499184D01*
X31973622Y-32497613D01*
X31795442Y-32484869D01*
X31777931Y-32482351D01*
X31586212Y-32440646D01*
X31569236Y-32435662D01*
X31385390Y-32367090D01*
X31369298Y-32359740D01*
X31197095Y-32265711D01*
X31182210Y-32256146D01*
X31025132Y-32138558D01*
X31011762Y-32126972D01*
X30873027Y-31988237D01*
X30861441Y-31974867D01*
X30758983Y-31838000D01*
X30743849Y-31817784D01*
X30734288Y-31802904D01*
X30640259Y-31630701D01*
X30632909Y-31614609D01*
X30572091Y-31451551D01*
X30564334Y-31430755D01*
X30559355Y-31413797D01*
X30517647Y-31222063D01*
X30515130Y-31204556D01*
X30500816Y-31004418D01*
X30500500Y-30995572D01*
X30500500Y-25867156D01*
X30520185Y-25800117D01*
X30572989Y-25754362D01*
X30642147Y-25744418D01*
X30705703Y-25773443D01*
X30720349Y-25788487D01*
X30816777Y-25905985D01*
X30828993Y-25920870D01*
X31079130Y-26171007D01*
X31079135Y-26171011D01*
X31079136Y-26171012D01*
X31352598Y-26395436D01*
X31646741Y-26591976D01*
X31646750Y-26591981D01*
X31646752Y-26591982D01*
X31958723Y-26758735D01*
X31958725Y-26758735D01*
X31958731Y-26758739D01*
X32285565Y-26894118D01*
X32624095Y-26996809D01*
X32624101Y-26996810D01*
X32624104Y-26996811D01*
X32624115Y-26996814D01*
X32841674Y-27040088D01*
X32971060Y-27065825D01*
X33323119Y-27100500D01*
X33323122Y-27100500D01*
X33676878Y-27100500D01*
X33676881Y-27100500D01*
X34028940Y-27065825D01*
X34200679Y-27031663D01*
X34375884Y-26996814D01*
X34375895Y-26996811D01*
X34375895Y-26996810D01*
X34375905Y-26996809D01*
X34714435Y-26894118D01*
X35041269Y-26758739D01*
X35353259Y-26591976D01*
X35647402Y-26395436D01*
X35920864Y-26171012D01*
X36171012Y-25920864D01*
X36395436Y-25647402D01*
X36591976Y-25353259D01*
X36758739Y-25041269D01*
X36894118Y-24714435D01*
X36996809Y-24375905D01*
X36996811Y-24375895D01*
X36996814Y-24375884D01*
X37037462Y-24171530D01*
X40139500Y-24171530D01*
X40139500Y-24378469D01*
X40179868Y-24581412D01*
X40179870Y-24581420D01*
X40259058Y-24772596D01*
X40374024Y-24944657D01*
X40520342Y-25090975D01*
X40520345Y-25090977D01*
X40692402Y-25205941D01*
X40705316Y-25211290D01*
X40712952Y-25214453D01*
X40767356Y-25258293D01*
X40789421Y-25324587D01*
X40789500Y-25329014D01*
X40789500Y-27927273D01*
X40789500Y-28032727D01*
X40802967Y-28082989D01*
X40816793Y-28134589D01*
X40843156Y-28180250D01*
X40869520Y-28225913D01*
X40869522Y-28225915D01*
X41504766Y-28861159D01*
X41538251Y-28922482D01*
X41533267Y-28992174D01*
X41531226Y-28996706D01*
X41531390Y-28996774D01*
X41449870Y-29193579D01*
X41449868Y-29193587D01*
X41409500Y-29396530D01*
X41409500Y-29603469D01*
X41449868Y-29806412D01*
X41449870Y-29806420D01*
X41529058Y-29997596D01*
X41644024Y-30169657D01*
X41790342Y-30315975D01*
X41790345Y-30315977D01*
X41962402Y-30430941D01*
X42153580Y-30510130D01*
X42356530Y-30550499D01*
X42356534Y-30550500D01*
X42356535Y-30550500D01*
X42563466Y-30550500D01*
X42563467Y-30550499D01*
X42766420Y-30510130D01*
X42957598Y-30430941D01*
X43129655Y-30315977D01*
X43275977Y-30169655D01*
X43390941Y-29997598D01*
X43470130Y-29806420D01*
X43510500Y-29603465D01*
X43510500Y-29396535D01*
X43470130Y-29193580D01*
X43390941Y-29002402D01*
X43275977Y-28830345D01*
X43275975Y-28830342D01*
X43129657Y-28684024D01*
X43043626Y-28626541D01*
X42957598Y-28569059D01*
X42816152Y-28510470D01*
X42766420Y-28489870D01*
X42766412Y-28489868D01*
X42563469Y-28449500D01*
X42563465Y-28449500D01*
X42356535Y-28449500D01*
X42356534Y-28449500D01*
X42312569Y-28458244D01*
X42242978Y-28452015D01*
X42200700Y-28424307D01*
X41899492Y-28123099D01*
X41866007Y-28061776D01*
X41870991Y-27992084D01*
X41912863Y-27936151D01*
X41978327Y-27911734D01*
X42034624Y-27920856D01*
X42153580Y-27970130D01*
X42298052Y-27998867D01*
X42356530Y-28010499D01*
X42356534Y-28010500D01*
X42356535Y-28010500D01*
X42563466Y-28010500D01*
X42563467Y-28010499D01*
X42766420Y-27970130D01*
X42957598Y-27890941D01*
X43129655Y-27775977D01*
X43129658Y-27775974D01*
X43144284Y-27761349D01*
X43275974Y-27629658D01*
X43275975Y-27629657D01*
X43275977Y-27629655D01*
X43390941Y-27457598D01*
X43470130Y-27266420D01*
X43510500Y-27063465D01*
X43510500Y-26873428D01*
X43900000Y-26873428D01*
X43900000Y-27046571D01*
X43927085Y-27217584D01*
X43980592Y-27382259D01*
X44059196Y-27536525D01*
X44063709Y-27542736D01*
X44063709Y-27542737D01*
X44517037Y-27089409D01*
X44534075Y-27152993D01*
X44599901Y-27267007D01*
X44692993Y-27360099D01*
X44807007Y-27425925D01*
X44870589Y-27442962D01*
X44417261Y-27896289D01*
X44417262Y-27896290D01*
X44423471Y-27900801D01*
X44577742Y-27979408D01*
X44742415Y-28032914D01*
X44913429Y-28060000D01*
X45086571Y-28060000D01*
X45257584Y-28032914D01*
X45422257Y-27979408D01*
X45576525Y-27900803D01*
X45582736Y-27896289D01*
X45582737Y-27896289D01*
X45129410Y-27442962D01*
X45192993Y-27425925D01*
X45307007Y-27360099D01*
X45400099Y-27267007D01*
X45465925Y-27152993D01*
X45482962Y-27089409D01*
X45936289Y-27542736D01*
X45940803Y-27536525D01*
X46019408Y-27382257D01*
X46072914Y-27217584D01*
X46100000Y-27046571D01*
X46100000Y-26873428D01*
X46072914Y-26702415D01*
X46019408Y-26537742D01*
X45940801Y-26383471D01*
X45936290Y-26377262D01*
X45936289Y-26377261D01*
X45482962Y-26830589D01*
X45465925Y-26767007D01*
X45400099Y-26652993D01*
X45307007Y-26559901D01*
X45192993Y-26494075D01*
X45129409Y-26477037D01*
X45582737Y-26023709D01*
X45576525Y-26019196D01*
X45422259Y-25940592D01*
X45257584Y-25887085D01*
X45086571Y-25860000D01*
X44913429Y-25860000D01*
X44742415Y-25887085D01*
X44577740Y-25940592D01*
X44423480Y-26019193D01*
X44423463Y-26019203D01*
X44417261Y-26023708D01*
X44417261Y-26023709D01*
X44870590Y-26477037D01*
X44807007Y-26494075D01*
X44692993Y-26559901D01*
X44599901Y-26652993D01*
X44534075Y-26767007D01*
X44517037Y-26830590D01*
X44063709Y-26377261D01*
X44063708Y-26377261D01*
X44059203Y-26383463D01*
X44059193Y-26383480D01*
X43980592Y-26537740D01*
X43927085Y-26702415D01*
X43900000Y-26873428D01*
X43510500Y-26873428D01*
X43510500Y-26856535D01*
X43470130Y-26653580D01*
X43390941Y-26462402D01*
X43275977Y-26290345D01*
X43275975Y-26290342D01*
X43129655Y-26144022D01*
X42957604Y-26029062D01*
X42957599Y-26029060D01*
X42957598Y-26029059D01*
X42937045Y-26020545D01*
X42921480Y-26008002D01*
X42903297Y-25999698D01*
X42894832Y-25986527D01*
X42882643Y-25976704D01*
X42876330Y-25957736D01*
X42865523Y-25940920D01*
X42861560Y-25913357D01*
X42860579Y-25910410D01*
X42860500Y-25905985D01*
X42860500Y-25762254D01*
X42880185Y-25695215D01*
X42896815Y-25674577D01*
X43267896Y-25303495D01*
X43329217Y-25270012D01*
X43398908Y-25274996D01*
X43403027Y-25276617D01*
X43423575Y-25285128D01*
X43423580Y-25285130D01*
X43568052Y-25313867D01*
X43626530Y-25325499D01*
X43626534Y-25325500D01*
X43626535Y-25325500D01*
X43833466Y-25325500D01*
X43833467Y-25325499D01*
X44036420Y-25285130D01*
X44227598Y-25205941D01*
X44399655Y-25090977D01*
X44399658Y-25090974D01*
X44414284Y-25076349D01*
X44545974Y-24944658D01*
X44545975Y-24944657D01*
X44545977Y-24944655D01*
X44660941Y-24772598D01*
X44740130Y-24581420D01*
X44780500Y-24378465D01*
X44780500Y-24188428D01*
X45170000Y-24188428D01*
X45170000Y-24361571D01*
X45197085Y-24532584D01*
X45250592Y-24697259D01*
X45329196Y-24851525D01*
X45333709Y-24857736D01*
X45333709Y-24857737D01*
X45787037Y-24404409D01*
X45804075Y-24467993D01*
X45869901Y-24582007D01*
X45962993Y-24675099D01*
X46077007Y-24740925D01*
X46140589Y-24757962D01*
X45687261Y-25211289D01*
X45687262Y-25211290D01*
X45693471Y-25215801D01*
X45847742Y-25294408D01*
X46012415Y-25347914D01*
X46183429Y-25375000D01*
X46356571Y-25375000D01*
X46527584Y-25347914D01*
X46692257Y-25294408D01*
X46846525Y-25215803D01*
X46852736Y-25211289D01*
X46852737Y-25211289D01*
X46399410Y-24757962D01*
X46462993Y-24740925D01*
X46577007Y-24675099D01*
X46670099Y-24582007D01*
X46735925Y-24467993D01*
X46752962Y-24404409D01*
X47206289Y-24857736D01*
X47210803Y-24851525D01*
X47289408Y-24697257D01*
X47342914Y-24532584D01*
X47370000Y-24361571D01*
X47370000Y-24188428D01*
X47342914Y-24017415D01*
X47289408Y-23852742D01*
X47210801Y-23698471D01*
X47206290Y-23692262D01*
X47206289Y-23692261D01*
X46752962Y-24145589D01*
X46735925Y-24082007D01*
X46670099Y-23967993D01*
X46577007Y-23874901D01*
X46462993Y-23809075D01*
X46399409Y-23792037D01*
X46852737Y-23338709D01*
X46846525Y-23334196D01*
X46692259Y-23255592D01*
X46527584Y-23202085D01*
X46356571Y-23175000D01*
X46183429Y-23175000D01*
X46012415Y-23202085D01*
X45847740Y-23255592D01*
X45693480Y-23334193D01*
X45693463Y-23334203D01*
X45687261Y-23338708D01*
X45687261Y-23338709D01*
X46140590Y-23792037D01*
X46077007Y-23809075D01*
X45962993Y-23874901D01*
X45869901Y-23967993D01*
X45804075Y-24082007D01*
X45787037Y-24145590D01*
X45333709Y-23692261D01*
X45333708Y-23692261D01*
X45329203Y-23698463D01*
X45329193Y-23698480D01*
X45250592Y-23852740D01*
X45197085Y-24017415D01*
X45170000Y-24188428D01*
X44780500Y-24188428D01*
X44780500Y-24171535D01*
X44740130Y-23968580D01*
X44660941Y-23777402D01*
X44545977Y-23605345D01*
X44545975Y-23605342D01*
X44399657Y-23459024D01*
X44231655Y-23346770D01*
X44227598Y-23344059D01*
X44036420Y-23264870D01*
X44036412Y-23264868D01*
X43833469Y-23224500D01*
X43833465Y-23224500D01*
X43626535Y-23224500D01*
X43626530Y-23224500D01*
X43423587Y-23264868D01*
X43423579Y-23264870D01*
X43232403Y-23344058D01*
X43060342Y-23459024D01*
X42914024Y-23605342D01*
X42799058Y-23777403D01*
X42719870Y-23968579D01*
X42719868Y-23968587D01*
X42679500Y-24171530D01*
X42679500Y-24378469D01*
X42719868Y-24581412D01*
X42719870Y-24581420D01*
X42728382Y-24601969D01*
X42735851Y-24671438D01*
X42704576Y-24733917D01*
X42701502Y-24737103D01*
X42139522Y-25299084D01*
X42139518Y-25299090D01*
X42086792Y-25390412D01*
X42086793Y-25390413D01*
X42059500Y-25492273D01*
X42059500Y-25905985D01*
X42039815Y-25973024D01*
X41987011Y-26018779D01*
X41982954Y-26020546D01*
X41962402Y-26029059D01*
X41962395Y-26029062D01*
X41785280Y-26147407D01*
X41784058Y-26145578D01*
X41728845Y-26169022D01*
X41659978Y-26157225D01*
X41608422Y-26110069D01*
X41590500Y-26045855D01*
X41590500Y-25329014D01*
X41610185Y-25261975D01*
X41662989Y-25216220D01*
X41667048Y-25214453D01*
X41687598Y-25205941D01*
X41859655Y-25090977D01*
X42005977Y-24944655D01*
X42120941Y-24772598D01*
X42200130Y-24581420D01*
X42240500Y-24378465D01*
X42240500Y-24171535D01*
X42200130Y-23968580D01*
X42120941Y-23777402D01*
X42005977Y-23605345D01*
X42005975Y-23605342D01*
X41859657Y-23459024D01*
X41691655Y-23346770D01*
X41687598Y-23344059D01*
X41496420Y-23264870D01*
X41496412Y-23264868D01*
X41293469Y-23224500D01*
X41293465Y-23224500D01*
X41086535Y-23224500D01*
X41086530Y-23224500D01*
X40883587Y-23264868D01*
X40883579Y-23264870D01*
X40692403Y-23344058D01*
X40520342Y-23459024D01*
X40374024Y-23605342D01*
X40259058Y-23777403D01*
X40179870Y-23968579D01*
X40179868Y-23968587D01*
X40139500Y-24171530D01*
X37037462Y-24171530D01*
X37043485Y-24141252D01*
X37055269Y-24082007D01*
X37065825Y-24028940D01*
X37100500Y-23676881D01*
X37100500Y-23323119D01*
X37065825Y-22971060D01*
X37028915Y-22785500D01*
X36996814Y-22624115D01*
X36996811Y-22624104D01*
X36996810Y-22624101D01*
X36996809Y-22624095D01*
X36894118Y-22285565D01*
X36758739Y-21958731D01*
X36735320Y-21914918D01*
X36591982Y-21646752D01*
X36591981Y-21646750D01*
X36591976Y-21646741D01*
X36395436Y-21352598D01*
X36171012Y-21079136D01*
X36171011Y-21079135D01*
X36171007Y-21079130D01*
X35920869Y-20828992D01*
X35788492Y-20720353D01*
X35749158Y-20662608D01*
X35747287Y-20592763D01*
X35783475Y-20532995D01*
X35846230Y-20502279D01*
X35867157Y-20500500D01*
X40801867Y-20500500D01*
X40868906Y-20520185D01*
G37*
%TD.AperFunction*%
%TD*%
M02*
