%TF.GenerationSoftware,KiCad,Pcbnew,9.0.6*%
%TF.CreationDate,2026-02-24T20:34:45+00:00*%
%TF.ProjectId,Bus,4275732e-6b69-4636-9164-5f7063625858,rev?*%
%TF.SameCoordinates,Original*%
%TF.FileFunction,Copper,L1,Top*%
%TF.FilePolarity,Positive*%
%FSLAX46Y46*%
G04 Gerber Fmt 4.6, Leading zero omitted, Abs format (unit mm)*
G04 Created by KiCad (PCBNEW 9.0.6) date 2026-02-24 20:34:45*
%MOMM*%
%LPD*%
G01*
G04 APERTURE LIST*
G04 Aperture macros list*
%AMRoundRect*
0 Rectangle with rounded corners*
0 $1 Rounding radius*
0 $2 $3 $4 $5 $6 $7 $8 $9 X,Y pos of 4 corners*
0 Add a 4 corners polygon primitive as box body*
4,1,4,$2,$3,$4,$5,$6,$7,$8,$9,$2,$3,0*
0 Add four circle primitives for the rounded corners*
1,1,$1+$1,$2,$3*
1,1,$1+$1,$4,$5*
1,1,$1+$1,$6,$7*
1,1,$1+$1,$8,$9*
0 Add four rect primitives between the rounded corners*
20,1,$1+$1,$2,$3,$4,$5,0*
20,1,$1+$1,$4,$5,$6,$7,0*
20,1,$1+$1,$6,$7,$8,$9,0*
20,1,$1+$1,$8,$9,$2,$3,0*%
G04 Aperture macros list end*
%TA.AperFunction,SMDPad,CuDef*%
%ADD10RoundRect,0.200000X0.275000X-0.200000X0.275000X0.200000X-0.275000X0.200000X-0.275000X-0.200000X0*%
%TD*%
%TA.AperFunction,SMDPad,CuDef*%
%ADD11RoundRect,0.225000X-0.225000X-0.250000X0.225000X-0.250000X0.225000X0.250000X-0.225000X0.250000X0*%
%TD*%
%TA.AperFunction,SMDPad,CuDef*%
%ADD12RoundRect,0.150000X-0.150000X0.512500X-0.150000X-0.512500X0.150000X-0.512500X0.150000X0.512500X0*%
%TD*%
%TA.AperFunction,SMDPad,CuDef*%
%ADD13RoundRect,0.200000X-0.275000X0.200000X-0.275000X-0.200000X0.275000X-0.200000X0.275000X0.200000X0*%
%TD*%
%TA.AperFunction,ComponentPad*%
%ADD14R,1.700000X1.700000*%
%TD*%
%TA.AperFunction,ComponentPad*%
%ADD15C,1.700000*%
%TD*%
%TA.AperFunction,ViaPad*%
%ADD16C,0.800000*%
%TD*%
%TA.AperFunction,ViaPad*%
%ADD17C,0.600000*%
%TD*%
%TA.AperFunction,Conductor*%
%ADD18C,0.300000*%
%TD*%
%TA.AperFunction,Conductor*%
%ADD19C,0.400000*%
%TD*%
%TA.AperFunction,Conductor*%
%ADD20C,0.250000*%
%TD*%
%TA.AperFunction,Conductor*%
%ADD21C,0.500000*%
%TD*%
G04 APERTURE END LIST*
D10*
%TO.P,R31,1*%
%TO.N,+3.3V*%
X33200000Y-29500000D03*
%TO.P,R31,2*%
%TO.N,/SDA*%
X33200000Y-27850000D03*
%TD*%
D11*
%TO.P,C1,1*%
%TO.N,+3.3V*%
X35025000Y-32025000D03*
%TO.P,C1,2*%
%TO.N,GND*%
X36575000Y-32025000D03*
%TD*%
D12*
%TO.P,U1,1,SCL*%
%TO.N,/SCL*%
X36750000Y-27887500D03*
%TO.P,U1,2,GND*%
%TO.N,GND*%
X35800000Y-27887500D03*
%TO.P,U1,3,SDA*%
%TO.N,/SDA*%
X34850000Y-27887500D03*
%TO.P,U1,4,VCC*%
%TO.N,+3.3V*%
X34850000Y-30162500D03*
%TO.P,U1,5,WP*%
%TO.N,GND*%
X36750000Y-30162500D03*
%TD*%
D13*
%TO.P,R1,1*%
%TO.N,/A*%
X39900000Y-27875000D03*
%TO.P,R1,2*%
%TO.N,/B*%
X39900000Y-29525000D03*
%TD*%
D10*
%TO.P,R30,1*%
%TO.N,+3.3V*%
X38400000Y-29525000D03*
%TO.P,R30,2*%
%TO.N,/SCL*%
X38400000Y-27875000D03*
%TD*%
D14*
%TO.P,J1,1,Pin_1*%
%TO.N,+5V*%
X47540000Y-26960000D03*
D15*
%TO.P,J1,2,Pin_2*%
%TO.N,+3.3V*%
X47540000Y-29500000D03*
%TO.P,J1,3,Pin_3*%
%TO.N,GND*%
X45000000Y-26960000D03*
%TO.P,J1,4,Pin_4*%
X45000000Y-29500000D03*
%TO.P,J1,5,Pin_5*%
%TO.N,/A*%
X42460000Y-26960000D03*
%TO.P,J1,6,Pin_6*%
%TO.N,/B*%
X42460000Y-29500000D03*
%TD*%
D14*
%TO.P,J2,1,Pin_1*%
%TO.N,+5V*%
X48810000Y-24275000D03*
D15*
%TO.P,J2,2,Pin_2*%
%TO.N,+3.3V*%
X48810000Y-21735000D03*
%TO.P,J2,3,Pin_3*%
%TO.N,GND*%
X46270000Y-24275000D03*
%TO.P,J2,4,Pin_4*%
X46270000Y-21735000D03*
%TO.P,J2,5,Pin_5*%
%TO.N,/A*%
X43730000Y-24275000D03*
%TO.P,J2,6,Pin_6*%
%TO.N,/SCL*%
X43730000Y-21735000D03*
%TO.P,J2,7,Pin_7*%
%TO.N,/B*%
X41190000Y-24275000D03*
%TO.P,J2,8,Pin_8*%
%TO.N,/SDA*%
X41190000Y-21735000D03*
%TD*%
D16*
%TO.N,GND*%
X58000000Y-29000000D03*
X32000000Y-29000000D03*
X32000000Y-31000000D03*
X58000000Y-31000000D03*
D17*
%TO.N,+3.3V*%
X38400000Y-31337500D03*
X35800000Y-30100000D03*
%TD*%
D18*
%TO.N,/B*%
X42435000Y-29525000D02*
X42460000Y-29500000D01*
X39900000Y-29525000D02*
X42435000Y-29525000D01*
%TO.N,/A*%
X39900000Y-27875000D02*
X41545000Y-27875000D01*
X41545000Y-27875000D02*
X42460000Y-26960000D01*
D19*
%TO.N,/SDA*%
X33200000Y-27850000D02*
X34812500Y-27850000D01*
D20*
X40534360Y-21735000D02*
X41190000Y-21735000D01*
X34850000Y-27887500D02*
X34850000Y-27419360D01*
D19*
X34812500Y-27850000D02*
X34850000Y-27887500D01*
D20*
X34850000Y-27419360D02*
X40534360Y-21735000D01*
D19*
%TO.N,/SCL*%
X36762500Y-27875000D02*
X36750000Y-27887500D01*
D20*
X40250000Y-23000000D02*
X42465000Y-23000000D01*
X36750000Y-26250000D02*
X36750000Y-27887500D01*
D19*
X38400000Y-27875000D02*
X36762500Y-27875000D01*
D20*
X40250000Y-23000000D02*
X40000000Y-23000000D01*
X42465000Y-23000000D02*
X43730000Y-21735000D01*
X40000000Y-23000000D02*
X36750000Y-26250000D01*
D19*
%TO.N,+3.3V*%
X34850000Y-30162500D02*
X34850000Y-31850000D01*
X34187500Y-29500000D02*
X34850000Y-30162500D01*
D21*
X34912500Y-30100000D02*
X34850000Y-30162500D01*
D19*
X34850000Y-31850000D02*
X35025000Y-32025000D01*
D21*
X35800000Y-30100000D02*
X34912500Y-30100000D01*
D19*
X38400000Y-29525000D02*
X38400000Y-31337500D01*
X33200000Y-29500000D02*
X34187500Y-29500000D01*
%TD*%
%TA.AperFunction,Conductor*%
%TO.N,GND*%
G36*
X45820427Y-20520185D02*
G01*
X45866182Y-20572989D01*
X45876126Y-20642147D01*
X45847101Y-20705703D01*
X45809683Y-20734985D01*
X45693475Y-20794196D01*
X45693463Y-20794203D01*
X45687261Y-20798708D01*
X45687261Y-20798709D01*
X46140590Y-21252037D01*
X46077007Y-21269075D01*
X45962993Y-21334901D01*
X45869901Y-21427993D01*
X45804075Y-21542007D01*
X45787037Y-21605590D01*
X45333709Y-21152261D01*
X45333708Y-21152261D01*
X45329203Y-21158463D01*
X45329193Y-21158480D01*
X45250592Y-21312740D01*
X45197085Y-21477415D01*
X45170000Y-21648428D01*
X45170000Y-21821571D01*
X45197085Y-21992584D01*
X45250592Y-22157259D01*
X45329196Y-22311525D01*
X45333709Y-22317736D01*
X45333709Y-22317737D01*
X45787037Y-21864409D01*
X45804075Y-21927993D01*
X45869901Y-22042007D01*
X45962993Y-22135099D01*
X46077007Y-22200925D01*
X46140589Y-22217962D01*
X45687261Y-22671289D01*
X45687262Y-22671290D01*
X45693471Y-22675801D01*
X45847742Y-22754408D01*
X46012415Y-22807914D01*
X46183429Y-22835000D01*
X46356571Y-22835000D01*
X46527584Y-22807914D01*
X46692257Y-22754408D01*
X46846525Y-22675803D01*
X46852736Y-22671289D01*
X46852737Y-22671289D01*
X46399410Y-22217962D01*
X46462993Y-22200925D01*
X46577007Y-22135099D01*
X46670099Y-22042007D01*
X46735925Y-21927993D01*
X46752962Y-21864409D01*
X47206289Y-22317736D01*
X47210803Y-22311525D01*
X47289408Y-22157257D01*
X47342914Y-21992584D01*
X47370000Y-21821571D01*
X47370000Y-21648428D01*
X47342914Y-21477415D01*
X47289408Y-21312742D01*
X47210801Y-21158471D01*
X47206290Y-21152262D01*
X47206289Y-21152261D01*
X46752962Y-21605589D01*
X46735925Y-21542007D01*
X46670099Y-21427993D01*
X46577007Y-21334901D01*
X46462993Y-21269075D01*
X46399409Y-21252037D01*
X46852737Y-20798709D01*
X46846527Y-20794197D01*
X46730317Y-20734985D01*
X46679521Y-20687010D01*
X46662726Y-20619189D01*
X46685264Y-20553054D01*
X46739979Y-20509603D01*
X46786612Y-20500500D01*
X48421867Y-20500500D01*
X48488906Y-20520185D01*
X48534661Y-20572989D01*
X48544605Y-20642147D01*
X48515580Y-20705703D01*
X48469320Y-20739061D01*
X48312403Y-20804057D01*
X48140342Y-20919024D01*
X47994024Y-21065342D01*
X47879058Y-21237403D01*
X47799870Y-21428579D01*
X47799868Y-21428587D01*
X47759500Y-21631530D01*
X47759500Y-21838469D01*
X47799868Y-22041412D01*
X47799870Y-22041420D01*
X47879058Y-22232596D01*
X47994024Y-22404657D01*
X48140342Y-22550975D01*
X48140345Y-22550977D01*
X48312402Y-22665941D01*
X48503580Y-22745130D01*
X48706530Y-22785499D01*
X48706534Y-22785500D01*
X48706535Y-22785500D01*
X48913466Y-22785500D01*
X48913467Y-22785499D01*
X49116420Y-22745130D01*
X49307598Y-22665941D01*
X49479655Y-22550977D01*
X49625977Y-22404655D01*
X49740941Y-22232598D01*
X49820130Y-22041420D01*
X49860500Y-21838465D01*
X49860500Y-21631535D01*
X49820130Y-21428580D01*
X49740941Y-21237402D01*
X49625977Y-21065345D01*
X49625975Y-21065342D01*
X49479657Y-20919024D01*
X49307596Y-20804057D01*
X49150680Y-20739061D01*
X49096277Y-20695220D01*
X49074212Y-20628926D01*
X49091491Y-20561226D01*
X49142629Y-20513616D01*
X49198133Y-20500500D01*
X54132843Y-20500500D01*
X54199882Y-20520185D01*
X54245637Y-20572989D01*
X54255581Y-20642147D01*
X54226556Y-20705703D01*
X54211508Y-20720353D01*
X54079130Y-20828992D01*
X53828992Y-21079130D01*
X53604568Y-21352592D01*
X53604558Y-21352606D01*
X53408028Y-21646734D01*
X53408017Y-21646752D01*
X53241264Y-21958723D01*
X53241262Y-21958728D01*
X53105882Y-22285563D01*
X53003188Y-22624104D01*
X53003185Y-22624115D01*
X52934176Y-22971053D01*
X52934173Y-22971070D01*
X52908067Y-23236133D01*
X52899500Y-23323119D01*
X52899500Y-23676881D01*
X52909164Y-23775000D01*
X52934173Y-24028929D01*
X52934176Y-24028946D01*
X53003185Y-24375884D01*
X53003188Y-24375895D01*
X53105882Y-24714436D01*
X53241262Y-25041271D01*
X53241264Y-25041276D01*
X53408017Y-25353247D01*
X53408028Y-25353265D01*
X53604558Y-25647393D01*
X53604568Y-25647407D01*
X53828992Y-25920869D01*
X54079130Y-26171007D01*
X54079135Y-26171011D01*
X54079136Y-26171012D01*
X54352598Y-26395436D01*
X54646741Y-26591976D01*
X54646750Y-26591981D01*
X54646752Y-26591982D01*
X54958723Y-26758735D01*
X54958725Y-26758735D01*
X54958731Y-26758739D01*
X55285565Y-26894118D01*
X55624095Y-26996809D01*
X55624101Y-26996810D01*
X55624104Y-26996811D01*
X55624115Y-26996814D01*
X55813212Y-27034427D01*
X55971060Y-27065825D01*
X56323119Y-27100500D01*
X56323122Y-27100500D01*
X56676878Y-27100500D01*
X56676881Y-27100500D01*
X57028940Y-27065825D01*
X57214790Y-27028857D01*
X57375884Y-26996814D01*
X57375895Y-26996811D01*
X57375895Y-26996810D01*
X57375905Y-26996809D01*
X57714435Y-26894118D01*
X58041269Y-26758739D01*
X58353259Y-26591976D01*
X58647402Y-26395436D01*
X58920864Y-26171012D01*
X59171012Y-25920864D01*
X59279647Y-25788490D01*
X59337392Y-25749157D01*
X59407237Y-25747286D01*
X59467005Y-25783473D01*
X59497721Y-25846229D01*
X59499500Y-25867156D01*
X59499500Y-30995572D01*
X59499184Y-31004418D01*
X59499184Y-31004419D01*
X59484869Y-31204557D01*
X59482351Y-31222068D01*
X59440646Y-31413787D01*
X59435662Y-31430763D01*
X59367090Y-31614609D01*
X59359740Y-31630701D01*
X59265711Y-31802904D01*
X59256146Y-31817789D01*
X59138558Y-31974867D01*
X59126972Y-31988237D01*
X58988237Y-32126972D01*
X58974867Y-32138558D01*
X58817789Y-32256146D01*
X58802904Y-32265711D01*
X58630701Y-32359740D01*
X58614609Y-32367090D01*
X58430763Y-32435662D01*
X58413787Y-32440646D01*
X58222068Y-32482351D01*
X58204557Y-32484869D01*
X58023779Y-32497799D01*
X58004417Y-32499184D01*
X57995572Y-32499500D01*
X37393794Y-32499500D01*
X37326755Y-32479815D01*
X37281000Y-32427011D01*
X37270505Y-32362245D01*
X37274998Y-32320446D01*
X37275000Y-32320427D01*
X37275000Y-32275000D01*
X36699000Y-32275000D01*
X36631961Y-32255315D01*
X36586206Y-32202511D01*
X36575000Y-32151000D01*
X36575000Y-32025000D01*
X36449000Y-32025000D01*
X36381961Y-32005315D01*
X36336206Y-31952511D01*
X36325000Y-31901000D01*
X36325000Y-31775000D01*
X36825000Y-31775000D01*
X37274999Y-31775000D01*
X37274999Y-31729566D01*
X37274998Y-31729560D01*
X37268918Y-31672992D01*
X37221186Y-31545018D01*
X37221184Y-31545015D01*
X37139329Y-31435670D01*
X37029984Y-31353815D01*
X37029983Y-31353814D01*
X36902010Y-31306083D01*
X36845428Y-31300000D01*
X36825000Y-31300000D01*
X36825000Y-31775000D01*
X36325000Y-31775000D01*
X36325000Y-31299999D01*
X36304579Y-31300000D01*
X36304560Y-31300001D01*
X36247993Y-31306081D01*
X36120018Y-31353813D01*
X36120015Y-31353815D01*
X36010670Y-31435670D01*
X35928815Y-31545015D01*
X35928811Y-31545022D01*
X35892427Y-31642571D01*
X35850556Y-31698505D01*
X35785091Y-31722921D01*
X35716818Y-31708069D01*
X35667413Y-31658663D01*
X35662693Y-31647714D01*
X35659719Y-31641878D01*
X35659719Y-31641874D01*
X35598528Y-31521780D01*
X35598526Y-31521778D01*
X35598523Y-31521774D01*
X35503225Y-31426476D01*
X35503221Y-31426473D01*
X35503220Y-31426472D01*
X35383126Y-31365281D01*
X35383125Y-31365280D01*
X35383122Y-31365279D01*
X35355100Y-31360841D01*
X35291966Y-31330910D01*
X35255035Y-31271598D01*
X35250500Y-31238368D01*
X35250500Y-30971543D01*
X35270185Y-30904504D01*
X35286818Y-30883862D01*
X35289198Y-30881483D01*
X35340573Y-30776393D01*
X35350500Y-30708260D01*
X35350500Y-30674500D01*
X35353050Y-30665814D01*
X35351762Y-30656853D01*
X35362740Y-30632812D01*
X35370185Y-30607461D01*
X35377025Y-30601533D01*
X35380787Y-30593297D01*
X35403021Y-30579007D01*
X35422989Y-30561706D01*
X35433503Y-30559418D01*
X35439565Y-30555523D01*
X35474500Y-30550500D01*
X35546063Y-30550500D01*
X35598750Y-30564618D01*
X35599304Y-30563281D01*
X35606807Y-30566388D01*
X35606814Y-30566392D01*
X35734108Y-30600500D01*
X35734110Y-30600500D01*
X35865890Y-30600500D01*
X35865892Y-30600500D01*
X35993186Y-30566392D01*
X36013997Y-30554376D01*
X36081895Y-30537901D01*
X36147923Y-30560750D01*
X36191116Y-30615670D01*
X36200000Y-30661758D01*
X36200000Y-30706478D01*
X36214835Y-30800149D01*
X36214837Y-30800155D01*
X36272356Y-30913041D01*
X36272363Y-30913050D01*
X36361949Y-31002636D01*
X36361954Y-31002639D01*
X36474854Y-31060165D01*
X36499998Y-31064147D01*
X36500000Y-31064146D01*
X37000000Y-31064146D01*
X37000001Y-31064147D01*
X37025145Y-31060165D01*
X37138045Y-31002639D01*
X37138050Y-31002636D01*
X37227636Y-30913050D01*
X37227639Y-30913046D01*
X37285166Y-30800144D01*
X37300000Y-30706486D01*
X37300000Y-30412500D01*
X37000000Y-30412500D01*
X37000000Y-31064146D01*
X36500000Y-31064146D01*
X36500000Y-29912500D01*
X37000000Y-29912500D01*
X37299999Y-29912500D01*
X37299999Y-29618520D01*
X37285164Y-29524850D01*
X37285162Y-29524844D01*
X37227643Y-29411958D01*
X37227636Y-29411949D01*
X37138050Y-29322363D01*
X37138046Y-29322360D01*
X37081356Y-29293475D01*
X37724500Y-29293475D01*
X37724500Y-29756517D01*
X37730229Y-29792686D01*
X37739354Y-29850304D01*
X37796950Y-29963342D01*
X37796952Y-29963344D01*
X37796954Y-29963347D01*
X37886652Y-30053045D01*
X37886654Y-30053046D01*
X37886658Y-30053050D01*
X37931796Y-30076049D01*
X37982591Y-30124023D01*
X37999500Y-30186533D01*
X37999500Y-30996960D01*
X37982887Y-31058960D01*
X37933609Y-31144310D01*
X37933609Y-31144311D01*
X37933608Y-31144313D01*
X37933608Y-31144314D01*
X37899500Y-31271608D01*
X37899500Y-31403392D01*
X37905685Y-31426476D01*
X37933608Y-31530687D01*
X37946014Y-31552174D01*
X37999500Y-31644814D01*
X38092686Y-31738000D01*
X38206814Y-31803892D01*
X38334108Y-31838000D01*
X38334110Y-31838000D01*
X38465890Y-31838000D01*
X38465892Y-31838000D01*
X38593186Y-31803892D01*
X38707314Y-31738000D01*
X38800500Y-31644814D01*
X38866392Y-31530686D01*
X38900500Y-31403392D01*
X38900500Y-31271608D01*
X38866392Y-31144314D01*
X38820107Y-31064147D01*
X38817113Y-31058960D01*
X38800500Y-30996960D01*
X38800500Y-30186533D01*
X38820185Y-30119494D01*
X38868203Y-30076049D01*
X38913342Y-30053050D01*
X39003050Y-29963342D01*
X39039516Y-29891771D01*
X39087489Y-29840978D01*
X39155310Y-29824183D01*
X39221445Y-29846720D01*
X39260482Y-29891771D01*
X39291195Y-29952047D01*
X39296951Y-29963343D01*
X39296954Y-29963347D01*
X39386652Y-30053045D01*
X39386654Y-30053046D01*
X39386658Y-30053050D01*
X39499500Y-30110546D01*
X39499698Y-30110647D01*
X39593475Y-30125499D01*
X39593481Y-30125500D01*
X40206518Y-30125499D01*
X40300304Y-30110646D01*
X40413342Y-30053050D01*
X40503050Y-29963342D01*
X40513311Y-29943204D01*
X40561286Y-29892409D01*
X40623795Y-29875500D01*
X41395630Y-29875500D01*
X41462669Y-29895185D01*
X41508424Y-29947989D01*
X41510191Y-29952047D01*
X41529058Y-29997596D01*
X41644024Y-30169657D01*
X41790342Y-30315975D01*
X41790345Y-30315977D01*
X41962402Y-30430941D01*
X42153580Y-30510130D01*
X42356530Y-30550499D01*
X42356534Y-30550500D01*
X42356535Y-30550500D01*
X42563466Y-30550500D01*
X42563467Y-30550499D01*
X42766420Y-30510130D01*
X42957598Y-30430941D01*
X43129655Y-30315977D01*
X43129658Y-30315974D01*
X43144284Y-30301349D01*
X43275974Y-30169658D01*
X43275975Y-30169657D01*
X43275977Y-30169655D01*
X43390941Y-29997598D01*
X43470130Y-29806420D01*
X43510500Y-29603465D01*
X43510500Y-29413428D01*
X43900000Y-29413428D01*
X43900000Y-29586571D01*
X43927085Y-29757584D01*
X43980592Y-29922259D01*
X44059196Y-30076525D01*
X44063709Y-30082736D01*
X44063709Y-30082737D01*
X44517037Y-29629409D01*
X44534075Y-29692993D01*
X44599901Y-29807007D01*
X44692993Y-29900099D01*
X44807007Y-29965925D01*
X44870589Y-29982962D01*
X44417261Y-30436289D01*
X44417262Y-30436290D01*
X44423471Y-30440801D01*
X44577742Y-30519408D01*
X44742415Y-30572914D01*
X44913429Y-30600000D01*
X45086571Y-30600000D01*
X45257584Y-30572914D01*
X45422257Y-30519408D01*
X45576525Y-30440803D01*
X45582736Y-30436289D01*
X45582737Y-30436289D01*
X45129410Y-29982962D01*
X45192993Y-29965925D01*
X45307007Y-29900099D01*
X45400099Y-29807007D01*
X45465925Y-29692993D01*
X45482962Y-29629409D01*
X45936289Y-30082736D01*
X45940803Y-30076525D01*
X46019408Y-29922257D01*
X46072914Y-29757584D01*
X46100000Y-29586571D01*
X46100000Y-29413430D01*
X46099431Y-29409837D01*
X46099431Y-29409835D01*
X46097324Y-29396530D01*
X46489500Y-29396530D01*
X46489500Y-29603469D01*
X46529868Y-29806412D01*
X46529870Y-29806420D01*
X46609058Y-29997596D01*
X46724024Y-30169657D01*
X46870342Y-30315975D01*
X46870345Y-30315977D01*
X47042402Y-30430941D01*
X47233580Y-30510130D01*
X47436530Y-30550499D01*
X47436534Y-30550500D01*
X47436535Y-30550500D01*
X47643466Y-30550500D01*
X47643467Y-30550499D01*
X47846420Y-30510130D01*
X48037598Y-30430941D01*
X48209655Y-30315977D01*
X48355977Y-30169655D01*
X48470941Y-29997598D01*
X48550130Y-29806420D01*
X48590500Y-29603465D01*
X48590500Y-29396535D01*
X48550130Y-29193580D01*
X48470941Y-29002402D01*
X48355977Y-28830345D01*
X48355975Y-28830342D01*
X48209657Y-28684024D01*
X48093607Y-28606483D01*
X48037598Y-28569059D01*
X47846420Y-28489870D01*
X47846412Y-28489868D01*
X47643469Y-28449500D01*
X47643465Y-28449500D01*
X47436535Y-28449500D01*
X47436530Y-28449500D01*
X47233587Y-28489868D01*
X47233579Y-28489870D01*
X47042403Y-28569058D01*
X46870342Y-28684024D01*
X46724024Y-28830342D01*
X46609058Y-29002403D01*
X46529870Y-29193579D01*
X46529868Y-29193587D01*
X46489500Y-29396530D01*
X46097324Y-29396530D01*
X46072914Y-29242415D01*
X46019408Y-29077742D01*
X45940801Y-28923471D01*
X45936290Y-28917262D01*
X45936289Y-28917261D01*
X45482962Y-29370589D01*
X45465925Y-29307007D01*
X45400099Y-29192993D01*
X45307007Y-29099901D01*
X45192993Y-29034075D01*
X45129409Y-29017037D01*
X45582737Y-28563709D01*
X45576525Y-28559196D01*
X45422259Y-28480592D01*
X45257584Y-28427085D01*
X45086571Y-28400000D01*
X44913429Y-28400000D01*
X44742415Y-28427085D01*
X44577740Y-28480592D01*
X44423480Y-28559193D01*
X44423463Y-28559203D01*
X44417261Y-28563708D01*
X44417261Y-28563709D01*
X44870590Y-29017037D01*
X44807007Y-29034075D01*
X44692993Y-29099901D01*
X44599901Y-29192993D01*
X44534075Y-29307007D01*
X44517037Y-29370590D01*
X44063709Y-28917261D01*
X44063708Y-28917261D01*
X44059203Y-28923463D01*
X44059193Y-28923480D01*
X43980592Y-29077740D01*
X43927085Y-29242415D01*
X43900000Y-29413428D01*
X43510500Y-29413428D01*
X43510500Y-29396535D01*
X43470130Y-29193580D01*
X43390941Y-29002402D01*
X43275977Y-28830345D01*
X43275975Y-28830342D01*
X43129657Y-28684024D01*
X43013607Y-28606483D01*
X42957598Y-28569059D01*
X42766420Y-28489870D01*
X42766412Y-28489868D01*
X42563469Y-28449500D01*
X42563465Y-28449500D01*
X42356535Y-28449500D01*
X42356530Y-28449500D01*
X42153587Y-28489868D01*
X42153579Y-28489870D01*
X41962403Y-28569058D01*
X41790342Y-28684024D01*
X41644024Y-28830342D01*
X41529057Y-29002403D01*
X41489480Y-29097953D01*
X41445639Y-29152356D01*
X41379345Y-29174421D01*
X41374919Y-29174500D01*
X40623795Y-29174500D01*
X40556756Y-29154815D01*
X40513311Y-29106796D01*
X40508805Y-29097953D01*
X40503050Y-29086658D01*
X40503047Y-29086655D01*
X40503045Y-29086652D01*
X40413347Y-28996954D01*
X40413344Y-28996952D01*
X40413342Y-28996950D01*
X40336517Y-28957805D01*
X40300301Y-28939352D01*
X40206524Y-28924500D01*
X39593482Y-28924500D01*
X39512519Y-28937323D01*
X39499696Y-28939354D01*
X39386658Y-28996950D01*
X39386657Y-28996951D01*
X39386652Y-28996954D01*
X39296954Y-29086652D01*
X39296949Y-29086659D01*
X39260483Y-29158226D01*
X39212508Y-29209022D01*
X39144687Y-29225816D01*
X39078552Y-29203278D01*
X39039516Y-29158226D01*
X39003050Y-29086658D01*
X39003047Y-29086655D01*
X39003045Y-29086652D01*
X38913347Y-28996954D01*
X38913344Y-28996952D01*
X38913342Y-28996950D01*
X38836517Y-28957805D01*
X38800301Y-28939352D01*
X38706524Y-28924500D01*
X38093482Y-28924500D01*
X38012519Y-28937323D01*
X37999696Y-28939354D01*
X37886658Y-28996950D01*
X37886657Y-28996951D01*
X37886652Y-28996954D01*
X37796954Y-29086652D01*
X37796951Y-29086657D01*
X37796950Y-29086658D01*
X37786689Y-29106796D01*
X37739352Y-29199698D01*
X37724500Y-29293475D01*
X37081356Y-29293475D01*
X37025143Y-29264833D01*
X37000000Y-29260851D01*
X37000000Y-29912500D01*
X36500000Y-29912500D01*
X36500000Y-29260851D01*
X36474856Y-29264833D01*
X36361953Y-29322360D01*
X36361949Y-29322363D01*
X36272363Y-29411949D01*
X36272360Y-29411953D01*
X36214833Y-29524855D01*
X36208706Y-29563544D01*
X36178776Y-29626678D01*
X36119464Y-29663609D01*
X36049602Y-29662611D01*
X36024234Y-29651533D01*
X35993187Y-29633608D01*
X35929539Y-29616554D01*
X35865892Y-29599500D01*
X35734108Y-29599500D01*
X35606814Y-29633608D01*
X35599304Y-29636719D01*
X35598750Y-29635381D01*
X35592575Y-29637036D01*
X35580998Y-29644477D01*
X35546063Y-29649500D01*
X35462515Y-29649500D01*
X35395476Y-29629815D01*
X35349721Y-29577011D01*
X35344009Y-29557623D01*
X35343416Y-29557807D01*
X35340574Y-29548609D01*
X35316811Y-29500001D01*
X35289198Y-29443517D01*
X35289196Y-29443515D01*
X35289196Y-29443514D01*
X35206485Y-29360803D01*
X35101391Y-29309426D01*
X35033261Y-29299500D01*
X35033260Y-29299500D01*
X34666740Y-29299500D01*
X34629370Y-29304944D01*
X34560195Y-29295131D01*
X34523814Y-29269921D01*
X34433415Y-29179522D01*
X34433413Y-29179520D01*
X34376128Y-29146446D01*
X34342089Y-29126793D01*
X34291157Y-29113146D01*
X34240227Y-29099500D01*
X34240226Y-29099500D01*
X33892255Y-29099500D01*
X33825216Y-29079815D01*
X33804574Y-29063181D01*
X33713347Y-28971954D01*
X33713344Y-28971952D01*
X33713342Y-28971950D01*
X33618215Y-28923480D01*
X33600301Y-28914352D01*
X33506524Y-28899500D01*
X32893482Y-28899500D01*
X32812519Y-28912323D01*
X32799696Y-28914354D01*
X32686658Y-28971950D01*
X32686657Y-28971951D01*
X32686652Y-28971954D01*
X32596954Y-29061652D01*
X32596951Y-29061657D01*
X32539352Y-29174698D01*
X32524500Y-29268475D01*
X32524500Y-29731517D01*
X32528460Y-29756517D01*
X32539354Y-29825304D01*
X32596950Y-29938342D01*
X32596952Y-29938344D01*
X32596954Y-29938347D01*
X32686652Y-30028045D01*
X32686654Y-30028046D01*
X32686658Y-30028050D01*
X32793985Y-30082736D01*
X32799698Y-30085647D01*
X32893475Y-30100499D01*
X32893481Y-30100500D01*
X33506518Y-30100499D01*
X33600304Y-30085646D01*
X33713342Y-30028050D01*
X33743796Y-29997596D01*
X33804574Y-29936819D01*
X33831501Y-29922115D01*
X33857320Y-29905523D01*
X33863520Y-29904631D01*
X33865897Y-29903334D01*
X33892255Y-29900500D01*
X33970245Y-29900500D01*
X34037284Y-29920185D01*
X34057926Y-29936819D01*
X34313181Y-30192074D01*
X34346666Y-30253397D01*
X34349500Y-30279755D01*
X34349500Y-30708260D01*
X34359426Y-30776391D01*
X34410801Y-30881482D01*
X34410802Y-30881483D01*
X34413178Y-30883859D01*
X34415391Y-30887911D01*
X34416773Y-30889847D01*
X34416539Y-30890013D01*
X34446665Y-30945179D01*
X34449500Y-30971543D01*
X34449500Y-31495880D01*
X34435985Y-31552174D01*
X34390279Y-31641876D01*
X34374500Y-31741506D01*
X34374500Y-32308488D01*
X34382041Y-32356103D01*
X34373085Y-32425397D01*
X34328088Y-32478848D01*
X34261337Y-32499487D01*
X34259567Y-32499500D01*
X32004428Y-32499500D01*
X31995582Y-32499184D01*
X31973622Y-32497613D01*
X31795442Y-32484869D01*
X31777931Y-32482351D01*
X31586212Y-32440646D01*
X31569236Y-32435662D01*
X31385390Y-32367090D01*
X31369298Y-32359740D01*
X31197095Y-32265711D01*
X31182210Y-32256146D01*
X31025132Y-32138558D01*
X31011762Y-32126972D01*
X30873027Y-31988237D01*
X30861441Y-31974867D01*
X30743849Y-31817784D01*
X30734288Y-31802904D01*
X30640259Y-31630701D01*
X30632909Y-31614609D01*
X30606953Y-31545018D01*
X30564334Y-31430755D01*
X30559355Y-31413797D01*
X30517647Y-31222063D01*
X30515130Y-31204556D01*
X30510821Y-31144314D01*
X30500816Y-31004418D01*
X30500500Y-30995572D01*
X30500500Y-25867156D01*
X30520185Y-25800117D01*
X30572989Y-25754362D01*
X30642147Y-25744418D01*
X30705703Y-25773443D01*
X30720349Y-25788487D01*
X30819662Y-25909500D01*
X30828993Y-25920870D01*
X31079130Y-26171007D01*
X31079135Y-26171011D01*
X31079136Y-26171012D01*
X31352598Y-26395436D01*
X31646741Y-26591976D01*
X31646750Y-26591981D01*
X31646752Y-26591982D01*
X31958723Y-26758735D01*
X31958725Y-26758735D01*
X31958731Y-26758739D01*
X32285565Y-26894118D01*
X32624095Y-26996809D01*
X32624101Y-26996810D01*
X32624104Y-26996811D01*
X32624115Y-26996814D01*
X32777698Y-27027363D01*
X32839609Y-27059747D01*
X32874183Y-27120463D01*
X32870444Y-27190233D01*
X32829578Y-27246905D01*
X32807676Y-27258519D01*
X32808392Y-27259924D01*
X32799698Y-27264353D01*
X32799696Y-27264354D01*
X32686658Y-27321950D01*
X32686657Y-27321951D01*
X32686652Y-27321954D01*
X32596954Y-27411652D01*
X32596951Y-27411657D01*
X32596950Y-27411658D01*
X32590503Y-27424311D01*
X32539352Y-27524698D01*
X32524500Y-27618475D01*
X32524500Y-28081517D01*
X32528460Y-28106518D01*
X32539354Y-28175304D01*
X32596950Y-28288342D01*
X32596952Y-28288344D01*
X32596954Y-28288347D01*
X32686652Y-28378045D01*
X32686654Y-28378046D01*
X32686658Y-28378050D01*
X32795013Y-28433260D01*
X32799698Y-28435647D01*
X32893475Y-28450499D01*
X32893481Y-28450500D01*
X33506518Y-28450499D01*
X33600304Y-28435646D01*
X33713342Y-28378050D01*
X33758931Y-28332461D01*
X33804574Y-28286819D01*
X33865897Y-28253334D01*
X33892255Y-28250500D01*
X34225500Y-28250500D01*
X34292539Y-28270185D01*
X34338294Y-28322989D01*
X34349500Y-28374500D01*
X34349500Y-28433260D01*
X34359426Y-28501391D01*
X34410803Y-28606485D01*
X34493514Y-28689196D01*
X34493515Y-28689196D01*
X34493517Y-28689198D01*
X34598607Y-28740573D01*
X34632673Y-28745536D01*
X34666739Y-28750500D01*
X34666740Y-28750500D01*
X35033261Y-28750500D01*
X35055971Y-28747191D01*
X35101393Y-28740573D01*
X35206483Y-28689198D01*
X35206486Y-28689195D01*
X35214847Y-28683227D01*
X35216541Y-28685600D01*
X35263619Y-28659884D01*
X35333312Y-28664857D01*
X35377678Y-28693365D01*
X35411949Y-28727636D01*
X35411954Y-28727639D01*
X35524854Y-28785165D01*
X35549998Y-28789147D01*
X35550000Y-28789146D01*
X35550000Y-28011500D01*
X35569685Y-27944461D01*
X35622489Y-27898706D01*
X35674000Y-27887500D01*
X35926000Y-27887500D01*
X35993039Y-27907185D01*
X36038794Y-27959989D01*
X36050000Y-28011500D01*
X36050000Y-28789146D01*
X36050001Y-28789147D01*
X36075145Y-28785165D01*
X36188045Y-28727639D01*
X36188049Y-28727637D01*
X36222320Y-28693366D01*
X36283642Y-28659880D01*
X36353334Y-28664864D01*
X36384132Y-28684656D01*
X36385153Y-28683227D01*
X36393513Y-28689195D01*
X36393514Y-28689195D01*
X36393517Y-28689198D01*
X36498607Y-28740573D01*
X36532673Y-28745536D01*
X36566739Y-28750500D01*
X36566740Y-28750500D01*
X36933261Y-28750500D01*
X36955971Y-28747191D01*
X37001393Y-28740573D01*
X37106483Y-28689198D01*
X37189198Y-28606483D01*
X37240573Y-28501393D01*
X37250500Y-28433260D01*
X37250500Y-28399500D01*
X37270185Y-28332461D01*
X37322989Y-28286706D01*
X37374500Y-28275500D01*
X37707745Y-28275500D01*
X37774784Y-28295185D01*
X37795426Y-28311819D01*
X37886652Y-28403045D01*
X37886654Y-28403046D01*
X37886658Y-28403050D01*
X37999694Y-28460645D01*
X37999698Y-28460647D01*
X38093475Y-28475499D01*
X38093481Y-28475500D01*
X38706518Y-28475499D01*
X38800304Y-28460646D01*
X38913342Y-28403050D01*
X39003050Y-28313342D01*
X39039516Y-28241771D01*
X39087489Y-28190978D01*
X39155310Y-28174183D01*
X39221445Y-28196720D01*
X39260482Y-28241771D01*
X39287699Y-28295185D01*
X39296951Y-28313343D01*
X39296954Y-28313347D01*
X39386652Y-28403045D01*
X39386654Y-28403046D01*
X39386658Y-28403050D01*
X39499694Y-28460645D01*
X39499698Y-28460647D01*
X39593475Y-28475499D01*
X39593481Y-28475500D01*
X40206518Y-28475499D01*
X40300304Y-28460646D01*
X40413342Y-28403050D01*
X40503050Y-28313342D01*
X40513311Y-28293204D01*
X40561286Y-28242409D01*
X40623795Y-28225500D01*
X41591142Y-28225500D01*
X41591144Y-28225500D01*
X41680288Y-28201614D01*
X41698987Y-28190818D01*
X41760212Y-28155470D01*
X41947895Y-27967785D01*
X42009218Y-27934301D01*
X42078909Y-27939285D01*
X42082994Y-27940891D01*
X42153580Y-27970130D01*
X42298052Y-27998867D01*
X42356530Y-28010499D01*
X42356534Y-28010500D01*
X42356535Y-28010500D01*
X42563466Y-28010500D01*
X42563467Y-28010499D01*
X42766420Y-27970130D01*
X42957598Y-27890941D01*
X43129655Y-27775977D01*
X43129658Y-27775974D01*
X43144284Y-27761349D01*
X43275974Y-27629658D01*
X43275975Y-27629657D01*
X43275977Y-27629655D01*
X43390941Y-27457598D01*
X43470130Y-27266420D01*
X43510500Y-27063465D01*
X43510500Y-26873428D01*
X43900000Y-26873428D01*
X43900000Y-27046571D01*
X43927085Y-27217584D01*
X43980592Y-27382259D01*
X44059196Y-27536525D01*
X44063709Y-27542736D01*
X44063709Y-27542737D01*
X44517037Y-27089409D01*
X44534075Y-27152993D01*
X44599901Y-27267007D01*
X44692993Y-27360099D01*
X44807007Y-27425925D01*
X44870589Y-27442962D01*
X44417261Y-27896289D01*
X44417262Y-27896290D01*
X44423471Y-27900801D01*
X44577742Y-27979408D01*
X44742415Y-28032914D01*
X44913429Y-28060000D01*
X45086571Y-28060000D01*
X45257584Y-28032914D01*
X45422257Y-27979408D01*
X45576525Y-27900803D01*
X45582736Y-27896289D01*
X45582737Y-27896289D01*
X45129410Y-27442962D01*
X45192993Y-27425925D01*
X45307007Y-27360099D01*
X45400099Y-27267007D01*
X45465925Y-27152993D01*
X45482962Y-27089409D01*
X45936289Y-27542736D01*
X45940803Y-27536525D01*
X46019408Y-27382257D01*
X46072914Y-27217584D01*
X46100000Y-27046571D01*
X46100000Y-26873428D01*
X46072914Y-26702415D01*
X46019408Y-26537742D01*
X45940801Y-26383471D01*
X45936290Y-26377262D01*
X45936289Y-26377261D01*
X45482962Y-26830589D01*
X45465925Y-26767007D01*
X45400099Y-26652993D01*
X45307007Y-26559901D01*
X45192993Y-26494075D01*
X45129409Y-26477037D01*
X45516199Y-26090247D01*
X46489500Y-26090247D01*
X46489500Y-27829752D01*
X46501131Y-27888229D01*
X46501132Y-27888230D01*
X46545447Y-27954552D01*
X46611769Y-27998867D01*
X46611770Y-27998868D01*
X46670247Y-28010499D01*
X46670250Y-28010500D01*
X46670252Y-28010500D01*
X48409750Y-28010500D01*
X48409751Y-28010499D01*
X48424568Y-28007552D01*
X48468229Y-27998868D01*
X48468229Y-27998867D01*
X48468231Y-27998867D01*
X48534552Y-27954552D01*
X48578867Y-27888231D01*
X48578867Y-27888229D01*
X48578868Y-27888229D01*
X48590499Y-27829752D01*
X48590500Y-27829750D01*
X48590500Y-26090249D01*
X48590499Y-26090247D01*
X48578868Y-26031770D01*
X48578867Y-26031769D01*
X48534552Y-25965447D01*
X48468230Y-25921132D01*
X48468229Y-25921131D01*
X48409752Y-25909500D01*
X48409748Y-25909500D01*
X46670252Y-25909500D01*
X46670247Y-25909500D01*
X46611770Y-25921131D01*
X46611769Y-25921132D01*
X46545447Y-25965447D01*
X46501132Y-26031769D01*
X46501131Y-26031770D01*
X46489500Y-26090247D01*
X45516199Y-26090247D01*
X45582737Y-26023709D01*
X45576525Y-26019196D01*
X45422259Y-25940592D01*
X45257584Y-25887085D01*
X45086571Y-25860000D01*
X44913429Y-25860000D01*
X44742415Y-25887085D01*
X44577740Y-25940592D01*
X44423480Y-26019193D01*
X44423463Y-26019203D01*
X44417261Y-26023708D01*
X44417261Y-26023709D01*
X44870590Y-26477037D01*
X44807007Y-26494075D01*
X44692993Y-26559901D01*
X44599901Y-26652993D01*
X44534075Y-26767007D01*
X44517037Y-26830590D01*
X44063709Y-26377261D01*
X44063708Y-26377261D01*
X44059203Y-26383463D01*
X44059193Y-26383480D01*
X43980592Y-26537740D01*
X43927085Y-26702415D01*
X43900000Y-26873428D01*
X43510500Y-26873428D01*
X43510500Y-26856535D01*
X43470130Y-26653580D01*
X43390941Y-26462402D01*
X43275977Y-26290345D01*
X43275975Y-26290342D01*
X43129657Y-26144024D01*
X42961655Y-26031770D01*
X42957598Y-26029059D01*
X42766420Y-25949870D01*
X42766412Y-25949868D01*
X42563469Y-25909500D01*
X42563465Y-25909500D01*
X42356535Y-25909500D01*
X42356530Y-25909500D01*
X42153587Y-25949868D01*
X42153579Y-25949870D01*
X41962403Y-26029058D01*
X41790342Y-26144024D01*
X41644024Y-26290342D01*
X41529058Y-26462403D01*
X41449870Y-26653579D01*
X41449868Y-26653587D01*
X41409500Y-26856530D01*
X41409500Y-27063469D01*
X41449868Y-27266412D01*
X41449871Y-27266424D01*
X41479092Y-27336970D01*
X41481228Y-27356840D01*
X41488215Y-27375568D01*
X41484887Y-27390870D01*
X41486561Y-27406439D01*
X41477614Y-27424311D01*
X41473367Y-27443842D01*
X41456671Y-27466147D01*
X41455285Y-27468918D01*
X41452218Y-27472098D01*
X41436142Y-27488176D01*
X41374821Y-27521665D01*
X41348455Y-27524500D01*
X40623795Y-27524500D01*
X40556756Y-27504815D01*
X40513311Y-27456796D01*
X40503826Y-27438181D01*
X40503050Y-27436658D01*
X40503047Y-27436655D01*
X40503045Y-27436652D01*
X40413347Y-27346954D01*
X40413344Y-27346952D01*
X40413342Y-27346950D01*
X40336517Y-27307805D01*
X40300301Y-27289352D01*
X40206524Y-27274500D01*
X39593482Y-27274500D01*
X39512519Y-27287323D01*
X39499696Y-27289354D01*
X39386658Y-27346950D01*
X39386657Y-27346951D01*
X39386652Y-27346954D01*
X39296954Y-27436652D01*
X39296949Y-27436659D01*
X39260483Y-27508226D01*
X39212508Y-27559022D01*
X39144687Y-27575816D01*
X39078552Y-27553278D01*
X39039516Y-27508226D01*
X39003050Y-27436658D01*
X39003047Y-27436655D01*
X39003045Y-27436652D01*
X38913347Y-27346954D01*
X38913344Y-27346952D01*
X38913342Y-27346950D01*
X38836517Y-27307805D01*
X38800301Y-27289352D01*
X38706524Y-27274500D01*
X38093482Y-27274500D01*
X38012519Y-27287323D01*
X37999696Y-27289354D01*
X37886658Y-27346950D01*
X37886657Y-27346951D01*
X37886652Y-27346954D01*
X37795426Y-27438181D01*
X37734103Y-27471666D01*
X37707745Y-27474500D01*
X37374500Y-27474500D01*
X37307461Y-27454815D01*
X37261706Y-27402011D01*
X37250500Y-27350500D01*
X37250500Y-27341739D01*
X37242867Y-27289352D01*
X37240573Y-27273607D01*
X37189198Y-27168517D01*
X37189196Y-27168515D01*
X37189196Y-27168514D01*
X37111819Y-27091137D01*
X37078334Y-27029814D01*
X37075500Y-27003456D01*
X37075500Y-26436189D01*
X37095185Y-26369150D01*
X37111819Y-26348508D01*
X40098508Y-23361819D01*
X40125435Y-23347115D01*
X40151254Y-23330523D01*
X40157454Y-23329631D01*
X40159831Y-23328334D01*
X40186189Y-23325500D01*
X40207147Y-23325500D01*
X40354505Y-23325500D01*
X40421544Y-23345185D01*
X40467299Y-23397989D01*
X40477243Y-23467147D01*
X40448218Y-23530703D01*
X40442186Y-23537181D01*
X40374025Y-23605341D01*
X40374024Y-23605342D01*
X40259058Y-23777403D01*
X40179870Y-23968579D01*
X40179868Y-23968587D01*
X40139500Y-24171530D01*
X40139500Y-24378469D01*
X40179868Y-24581412D01*
X40179870Y-24581420D01*
X40259058Y-24772596D01*
X40374024Y-24944657D01*
X40520342Y-25090975D01*
X40520345Y-25090977D01*
X40692402Y-25205941D01*
X40883580Y-25285130D01*
X41028052Y-25313867D01*
X41086530Y-25325499D01*
X41086534Y-25325500D01*
X41086535Y-25325500D01*
X41293466Y-25325500D01*
X41293467Y-25325499D01*
X41496420Y-25285130D01*
X41687598Y-25205941D01*
X41859655Y-25090977D01*
X42005977Y-24944655D01*
X42120941Y-24772598D01*
X42200130Y-24581420D01*
X42240500Y-24378465D01*
X42240500Y-24171535D01*
X42240499Y-24171530D01*
X42679500Y-24171530D01*
X42679500Y-24378469D01*
X42719868Y-24581412D01*
X42719870Y-24581420D01*
X42799058Y-24772596D01*
X42914024Y-24944657D01*
X43060342Y-25090975D01*
X43060345Y-25090977D01*
X43232402Y-25205941D01*
X43423580Y-25285130D01*
X43568052Y-25313867D01*
X43626530Y-25325499D01*
X43626534Y-25325500D01*
X43626535Y-25325500D01*
X43833466Y-25325500D01*
X43833467Y-25325499D01*
X44036420Y-25285130D01*
X44227598Y-25205941D01*
X44399655Y-25090977D01*
X44399658Y-25090974D01*
X44414284Y-25076349D01*
X44545974Y-24944658D01*
X44545975Y-24944657D01*
X44545977Y-24944655D01*
X44660941Y-24772598D01*
X44740130Y-24581420D01*
X44780500Y-24378465D01*
X44780500Y-24188428D01*
X45170000Y-24188428D01*
X45170000Y-24361571D01*
X45197085Y-24532584D01*
X45250592Y-24697259D01*
X45329196Y-24851525D01*
X45333709Y-24857736D01*
X45333709Y-24857737D01*
X45787037Y-24404409D01*
X45804075Y-24467993D01*
X45869901Y-24582007D01*
X45962993Y-24675099D01*
X46077007Y-24740925D01*
X46140589Y-24757962D01*
X45687261Y-25211289D01*
X45687262Y-25211290D01*
X45693471Y-25215801D01*
X45847742Y-25294408D01*
X46012415Y-25347914D01*
X46183429Y-25375000D01*
X46356571Y-25375000D01*
X46527584Y-25347914D01*
X46692257Y-25294408D01*
X46846525Y-25215803D01*
X46852736Y-25211289D01*
X46852737Y-25211289D01*
X46399410Y-24757962D01*
X46462993Y-24740925D01*
X46577007Y-24675099D01*
X46670099Y-24582007D01*
X46735925Y-24467993D01*
X46752962Y-24404409D01*
X47206289Y-24857736D01*
X47210803Y-24851525D01*
X47289408Y-24697257D01*
X47342914Y-24532584D01*
X47370000Y-24361571D01*
X47370000Y-24188428D01*
X47342914Y-24017415D01*
X47289408Y-23852742D01*
X47210801Y-23698471D01*
X47206290Y-23692262D01*
X47206289Y-23692261D01*
X46752962Y-24145589D01*
X46735925Y-24082007D01*
X46670099Y-23967993D01*
X46577007Y-23874901D01*
X46462993Y-23809075D01*
X46399409Y-23792037D01*
X46786199Y-23405247D01*
X47759500Y-23405247D01*
X47759500Y-25144752D01*
X47771131Y-25203229D01*
X47771132Y-25203230D01*
X47815447Y-25269552D01*
X47881769Y-25313867D01*
X47881770Y-25313868D01*
X47940247Y-25325499D01*
X47940250Y-25325500D01*
X47940252Y-25325500D01*
X49679750Y-25325500D01*
X49679751Y-25325499D01*
X49694568Y-25322552D01*
X49738229Y-25313868D01*
X49738229Y-25313867D01*
X49738231Y-25313867D01*
X49804552Y-25269552D01*
X49848867Y-25203231D01*
X49848867Y-25203229D01*
X49848868Y-25203229D01*
X49860499Y-25144752D01*
X49860500Y-25144750D01*
X49860500Y-23405249D01*
X49860499Y-23405247D01*
X49848868Y-23346770D01*
X49848867Y-23346769D01*
X49804552Y-23280447D01*
X49738230Y-23236132D01*
X49738229Y-23236131D01*
X49679752Y-23224500D01*
X49679748Y-23224500D01*
X47940252Y-23224500D01*
X47940247Y-23224500D01*
X47881770Y-23236131D01*
X47881769Y-23236132D01*
X47815447Y-23280447D01*
X47771132Y-23346769D01*
X47771131Y-23346770D01*
X47759500Y-23405247D01*
X46786199Y-23405247D01*
X46852737Y-23338709D01*
X46846525Y-23334196D01*
X46692259Y-23255592D01*
X46527584Y-23202085D01*
X46356571Y-23175000D01*
X46183429Y-23175000D01*
X46012415Y-23202085D01*
X45847740Y-23255592D01*
X45693480Y-23334193D01*
X45693463Y-23334203D01*
X45687261Y-23338708D01*
X45687261Y-23338709D01*
X46140590Y-23792037D01*
X46077007Y-23809075D01*
X45962993Y-23874901D01*
X45869901Y-23967993D01*
X45804075Y-24082007D01*
X45787037Y-24145590D01*
X45333709Y-23692261D01*
X45333708Y-23692261D01*
X45329203Y-23698463D01*
X45329193Y-23698480D01*
X45250592Y-23852740D01*
X45197085Y-24017415D01*
X45170000Y-24188428D01*
X44780500Y-24188428D01*
X44780500Y-24171535D01*
X44740130Y-23968580D01*
X44660941Y-23777402D01*
X44545977Y-23605345D01*
X44545975Y-23605342D01*
X44399657Y-23459024D01*
X44313626Y-23401541D01*
X44227598Y-23344059D01*
X44194919Y-23330523D01*
X44036420Y-23264870D01*
X44036412Y-23264868D01*
X43833469Y-23224500D01*
X43833465Y-23224500D01*
X43626535Y-23224500D01*
X43626530Y-23224500D01*
X43423587Y-23264868D01*
X43423579Y-23264870D01*
X43232403Y-23344058D01*
X43060342Y-23459024D01*
X42914024Y-23605342D01*
X42799058Y-23777403D01*
X42719870Y-23968579D01*
X42719868Y-23968587D01*
X42679500Y-24171530D01*
X42240499Y-24171530D01*
X42200130Y-23968580D01*
X42120941Y-23777402D01*
X42005977Y-23605345D01*
X42005975Y-23605342D01*
X41937814Y-23537181D01*
X41904329Y-23475858D01*
X41909313Y-23406166D01*
X41951185Y-23350233D01*
X42016649Y-23325816D01*
X42025495Y-23325500D01*
X42507851Y-23325500D01*
X42507853Y-23325500D01*
X42590639Y-23303318D01*
X42664862Y-23260465D01*
X43192895Y-22732430D01*
X43254218Y-22698946D01*
X43323909Y-22703930D01*
X43328023Y-22705549D01*
X43423580Y-22745130D01*
X43626530Y-22785499D01*
X43626534Y-22785500D01*
X43626535Y-22785500D01*
X43833466Y-22785500D01*
X43833467Y-22785499D01*
X44036420Y-22745130D01*
X44227598Y-22665941D01*
X44399655Y-22550977D01*
X44399658Y-22550974D01*
X44414284Y-22536349D01*
X44545974Y-22404658D01*
X44545975Y-22404657D01*
X44545977Y-22404655D01*
X44660941Y-22232598D01*
X44740130Y-22041420D01*
X44780500Y-21838465D01*
X44780500Y-21631535D01*
X44740130Y-21428580D01*
X44660941Y-21237402D01*
X44545977Y-21065345D01*
X44545975Y-21065342D01*
X44399657Y-20919024D01*
X44227596Y-20804057D01*
X44070680Y-20739061D01*
X44016277Y-20695220D01*
X43994212Y-20628926D01*
X44011491Y-20561226D01*
X44062629Y-20513616D01*
X44118133Y-20500500D01*
X45753388Y-20500500D01*
X45820427Y-20520185D01*
G37*
%TD.AperFunction*%
%TD*%
M02*
