%TF.GenerationSoftware,KiCad,Pcbnew,(5.1.9)-1*%
%TF.CreationDate,2021-06-12T20:34:52+01:00*%
%TF.ProjectId,ModulePullUpDown,4d6f6475-6c65-4507-956c-6c5570446f77,rev?*%
%TF.SameCoordinates,Original*%
%TF.FileFunction,Legend,Top*%
%TF.FilePolarity,Positive*%
%FSLAX46Y46*%
G04 Gerber Fmt 4.6, Leading zero omitted, Abs format (unit mm)*
G04 Created by KiCad (PCBNEW (5.1.9)-1) date 2021-06-12 20:34:52*
%MOMM*%
%LPD*%
G01*
G04 APERTURE LIST*
%ADD10C,0.120000*%
%ADD11C,0.150000*%
%ADD12C,0.100000*%
%ADD13C,3.200000*%
%ADD14R,1.700000X1.700000*%
%ADD15O,1.700000X1.700000*%
%ADD16R,0.800000X0.900000*%
%ADD17R,0.900000X0.800000*%
G04 APERTURE END LIST*
D10*
X20400000Y-71400000D02*
X20400000Y-70700000D01*
X21100000Y-71400000D02*
X20400000Y-71400000D01*
D11*
X39666666Y-45702380D02*
X40333333Y-45702380D01*
X39904761Y-46702380D01*
X40190476Y-36202380D02*
X40000000Y-36202380D01*
X39904761Y-36250000D01*
X39857142Y-36297619D01*
X39761904Y-36440476D01*
X39714285Y-36630952D01*
X39714285Y-37011904D01*
X39761904Y-37107142D01*
X39809523Y-37154761D01*
X39904761Y-37202380D01*
X40095238Y-37202380D01*
X40190476Y-37154761D01*
X40238095Y-37107142D01*
X40285714Y-37011904D01*
X40285714Y-36773809D01*
X40238095Y-36678571D01*
X40190476Y-36630952D01*
X40095238Y-36583333D01*
X39904761Y-36583333D01*
X39809523Y-36630952D01*
X39761904Y-36678571D01*
X39714285Y-36773809D01*
X30988095Y-55202380D02*
X30511904Y-55202380D01*
X30464285Y-55678571D01*
X30511904Y-55630952D01*
X30607142Y-55583333D01*
X30845238Y-55583333D01*
X30940476Y-55630952D01*
X30988095Y-55678571D01*
X31035714Y-55773809D01*
X31035714Y-56011904D01*
X30988095Y-56107142D01*
X30940476Y-56154761D01*
X30845238Y-56202380D01*
X30607142Y-56202380D01*
X30511904Y-56154761D01*
X30464285Y-56107142D01*
X30940476Y-46035714D02*
X30940476Y-46702380D01*
X30702380Y-45654761D02*
X30464285Y-46369047D01*
X31083333Y-46369047D01*
X30416666Y-36202380D02*
X31035714Y-36202380D01*
X30702380Y-36583333D01*
X30845238Y-36583333D01*
X30940476Y-36630952D01*
X30988095Y-36678571D01*
X31035714Y-36773809D01*
X31035714Y-37011904D01*
X30988095Y-37107142D01*
X30940476Y-37154761D01*
X30845238Y-37202380D01*
X30559523Y-37202380D01*
X30464285Y-37154761D01*
X30416666Y-37107142D01*
X21214285Y-55297619D02*
X21261904Y-55250000D01*
X21357142Y-55202380D01*
X21595238Y-55202380D01*
X21690476Y-55250000D01*
X21738095Y-55297619D01*
X21785714Y-55392857D01*
X21785714Y-55488095D01*
X21738095Y-55630952D01*
X21166666Y-56202380D01*
X21785714Y-56202380D01*
X21785714Y-46702380D02*
X21214285Y-46702380D01*
X21500000Y-46702380D02*
X21500000Y-45702380D01*
X21404761Y-45845238D01*
X21309523Y-45940476D01*
X21214285Y-45988095D01*
X21452380Y-36202380D02*
X21547619Y-36202380D01*
X21642857Y-36250000D01*
X21690476Y-36297619D01*
X21738095Y-36392857D01*
X21785714Y-36583333D01*
X21785714Y-36821428D01*
X21738095Y-37011904D01*
X21690476Y-37107142D01*
X21642857Y-37154761D01*
X21547619Y-37202380D01*
X21452380Y-37202380D01*
X21357142Y-37154761D01*
X21309523Y-37107142D01*
X21261904Y-37011904D01*
X21214285Y-36821428D01*
X21214285Y-36583333D01*
X21261904Y-36392857D01*
X21309523Y-36297619D01*
X21357142Y-36250000D01*
X21452380Y-36202380D01*
D10*
%TO.C,J1*%
X45220000Y-69100000D02*
X45220000Y-63900000D01*
X27380000Y-69100000D02*
X45220000Y-69100000D01*
X24780000Y-63900000D02*
X45220000Y-63900000D01*
X27380000Y-69100000D02*
X27380000Y-66500000D01*
X27380000Y-66500000D02*
X24780000Y-66500000D01*
X24780000Y-66500000D02*
X24780000Y-63900000D01*
X26110000Y-69100000D02*
X24780000Y-69100000D01*
X24780000Y-69100000D02*
X24780000Y-67770000D01*
X35000000Y-71000000D02*
X20750000Y-71000000D01*
X20750000Y-71000000D02*
X20750000Y-62000000D01*
X20750000Y-62000000D02*
X49250000Y-62000000D01*
X49250000Y-62000000D02*
X49250000Y-71000000D01*
X49250000Y-71000000D02*
X35000000Y-71000000D01*
X32500000Y-71000000D02*
X32500000Y-70500000D01*
X32500000Y-70500000D02*
X37500000Y-70500000D01*
X37500000Y-70500000D02*
X37500000Y-71000000D01*
%TO.C,R38*%
X36921000Y-59151064D02*
X36921000Y-58696936D01*
X38391000Y-59151064D02*
X38391000Y-58696936D01*
%TO.C,R33*%
X34721000Y-59138564D02*
X34721000Y-58684436D01*
X36191000Y-59138564D02*
X36191000Y-58684436D01*
%TO.C,R28*%
X32521000Y-59138564D02*
X32521000Y-58684436D01*
X33991000Y-59138564D02*
X33991000Y-58684436D01*
%TO.C,R23*%
X30321000Y-59138564D02*
X30321000Y-58684436D01*
X31791000Y-59138564D02*
X31791000Y-58684436D01*
%TO.C,R18*%
X28121000Y-59163564D02*
X28121000Y-58709436D01*
X29591000Y-59163564D02*
X29591000Y-58709436D01*
%TO.C,R13*%
X25921000Y-59163564D02*
X25921000Y-58709436D01*
X27391000Y-59163564D02*
X27391000Y-58709436D01*
%TO.C,R8*%
X23721000Y-59163564D02*
X23721000Y-58709436D01*
X25191000Y-59163564D02*
X25191000Y-58709436D01*
%TO.C,R3*%
X21521000Y-59163564D02*
X21521000Y-58709436D01*
X22991000Y-59163564D02*
X22991000Y-58709436D01*
%TO.C,U1*%
X45856000Y-60784000D02*
X47806000Y-60784000D01*
X45856000Y-60784000D02*
X43906000Y-60784000D01*
X45856000Y-50664000D02*
X47806000Y-50664000D01*
X45856000Y-50664000D02*
X42406000Y-50664000D01*
%TO.C,R40*%
X42172936Y-42835000D02*
X42627064Y-42835000D01*
X42172936Y-41365000D02*
X42627064Y-41365000D01*
%TO.C,R39*%
X42172936Y-40585000D02*
X42627064Y-40585000D01*
X42172936Y-39115000D02*
X42627064Y-39115000D01*
%TO.C,R37*%
X45922936Y-42835000D02*
X46377064Y-42835000D01*
X45922936Y-41365000D02*
X46377064Y-41365000D01*
%TO.C,R36*%
X45922936Y-40585000D02*
X46377064Y-40585000D01*
X45922936Y-39115000D02*
X46377064Y-39115000D01*
%TO.C,R35*%
X42172936Y-33385000D02*
X42627064Y-33385000D01*
X42172936Y-31915000D02*
X42627064Y-31915000D01*
%TO.C,R34*%
X42172936Y-31135000D02*
X42627064Y-31135000D01*
X42172936Y-29665000D02*
X42627064Y-29665000D01*
%TO.C,R32*%
X45922936Y-33385000D02*
X46377064Y-33385000D01*
X45922936Y-31915000D02*
X46377064Y-31915000D01*
%TO.C,R31*%
X45922936Y-31135000D02*
X46377064Y-31135000D01*
X45922936Y-29665000D02*
X46377064Y-29665000D01*
%TO.C,R30*%
X32922936Y-52285000D02*
X33377064Y-52285000D01*
X32922936Y-50815000D02*
X33377064Y-50815000D01*
%TO.C,R29*%
X32922936Y-50035000D02*
X33377064Y-50035000D01*
X32922936Y-48565000D02*
X33377064Y-48565000D01*
%TO.C,R27*%
X36672936Y-52285000D02*
X37127064Y-52285000D01*
X36672936Y-50815000D02*
X37127064Y-50815000D01*
%TO.C,R26*%
X36672936Y-50035000D02*
X37127064Y-50035000D01*
X36672936Y-48565000D02*
X37127064Y-48565000D01*
%TO.C,R25*%
X32922936Y-42835000D02*
X33377064Y-42835000D01*
X32922936Y-41365000D02*
X33377064Y-41365000D01*
%TO.C,R24*%
X32922936Y-40585000D02*
X33377064Y-40585000D01*
X32922936Y-39115000D02*
X33377064Y-39115000D01*
%TO.C,R22*%
X36672936Y-42835000D02*
X37127064Y-42835000D01*
X36672936Y-41365000D02*
X37127064Y-41365000D01*
%TO.C,R21*%
X36672936Y-40585000D02*
X37127064Y-40585000D01*
X36672936Y-39115000D02*
X37127064Y-39115000D01*
%TO.C,R20*%
X32922936Y-33385000D02*
X33377064Y-33385000D01*
X32922936Y-31915000D02*
X33377064Y-31915000D01*
%TO.C,R19*%
X32922936Y-31135000D02*
X33377064Y-31135000D01*
X32922936Y-29665000D02*
X33377064Y-29665000D01*
%TO.C,R17*%
X36672936Y-33385000D02*
X37127064Y-33385000D01*
X36672936Y-31915000D02*
X37127064Y-31915000D01*
%TO.C,R16*%
X36672936Y-31135000D02*
X37127064Y-31135000D01*
X36672936Y-29665000D02*
X37127064Y-29665000D01*
%TO.C,R15*%
X23772936Y-52285000D02*
X24227064Y-52285000D01*
X23772936Y-50815000D02*
X24227064Y-50815000D01*
%TO.C,R14*%
X23772936Y-50035000D02*
X24227064Y-50035000D01*
X23772936Y-48565000D02*
X24227064Y-48565000D01*
%TO.C,R12*%
X27522936Y-52285000D02*
X27977064Y-52285000D01*
X27522936Y-50815000D02*
X27977064Y-50815000D01*
%TO.C,R11*%
X27522936Y-50035000D02*
X27977064Y-50035000D01*
X27522936Y-48565000D02*
X27977064Y-48565000D01*
%TO.C,R10*%
X23772936Y-42835000D02*
X24227064Y-42835000D01*
X23772936Y-41365000D02*
X24227064Y-41365000D01*
%TO.C,R9*%
X23772936Y-40585000D02*
X24227064Y-40585000D01*
X23772936Y-39115000D02*
X24227064Y-39115000D01*
%TO.C,R7*%
X27522936Y-42835000D02*
X27977064Y-42835000D01*
X27522936Y-41365000D02*
X27977064Y-41365000D01*
%TO.C,R6*%
X27522936Y-40585000D02*
X27977064Y-40585000D01*
X27522936Y-39115000D02*
X27977064Y-39115000D01*
%TO.C,Q16*%
X40820000Y-45860000D02*
X40820000Y-44400000D01*
X43980000Y-45860000D02*
X43980000Y-43700000D01*
X43980000Y-45860000D02*
X43050000Y-45860000D01*
X40820000Y-45860000D02*
X41750000Y-45860000D01*
%TO.C,Q15*%
X46910000Y-46680000D02*
X45450000Y-46680000D01*
X46910000Y-43520000D02*
X44750000Y-43520000D01*
X46910000Y-43520000D02*
X46910000Y-44450000D01*
X46910000Y-46680000D02*
X46910000Y-45750000D01*
%TO.C,Q14*%
X40820000Y-36410000D02*
X40820000Y-34950000D01*
X43980000Y-36410000D02*
X43980000Y-34250000D01*
X43980000Y-36410000D02*
X43050000Y-36410000D01*
X40820000Y-36410000D02*
X41750000Y-36410000D01*
%TO.C,Q13*%
X46910000Y-37230000D02*
X45450000Y-37230000D01*
X46910000Y-34070000D02*
X44750000Y-34070000D01*
X46910000Y-34070000D02*
X46910000Y-35000000D01*
X46910000Y-37230000D02*
X46910000Y-36300000D01*
%TO.C,Q12*%
X31570000Y-55310000D02*
X31570000Y-53850000D01*
X34730000Y-55310000D02*
X34730000Y-53150000D01*
X34730000Y-55310000D02*
X33800000Y-55310000D01*
X31570000Y-55310000D02*
X32500000Y-55310000D01*
%TO.C,Q11*%
X37660000Y-56130000D02*
X36200000Y-56130000D01*
X37660000Y-52970000D02*
X35500000Y-52970000D01*
X37660000Y-52970000D02*
X37660000Y-53900000D01*
X37660000Y-56130000D02*
X37660000Y-55200000D01*
%TO.C,Q10*%
X31570000Y-45860000D02*
X31570000Y-44400000D01*
X34730000Y-45860000D02*
X34730000Y-43700000D01*
X34730000Y-45860000D02*
X33800000Y-45860000D01*
X31570000Y-45860000D02*
X32500000Y-45860000D01*
%TO.C,Q9*%
X37660000Y-46680000D02*
X36200000Y-46680000D01*
X37660000Y-43520000D02*
X35500000Y-43520000D01*
X37660000Y-43520000D02*
X37660000Y-44450000D01*
X37660000Y-46680000D02*
X37660000Y-45750000D01*
%TO.C,Q8*%
X31570000Y-36410000D02*
X31570000Y-34950000D01*
X34730000Y-36410000D02*
X34730000Y-34250000D01*
X34730000Y-36410000D02*
X33800000Y-36410000D01*
X31570000Y-36410000D02*
X32500000Y-36410000D01*
%TO.C,Q7*%
X37660000Y-37230000D02*
X36200000Y-37230000D01*
X37660000Y-34070000D02*
X35500000Y-34070000D01*
X37660000Y-34070000D02*
X37660000Y-35000000D01*
X37660000Y-37230000D02*
X37660000Y-36300000D01*
%TO.C,Q6*%
X22420000Y-55310000D02*
X22420000Y-53850000D01*
X25580000Y-55310000D02*
X25580000Y-53150000D01*
X25580000Y-55310000D02*
X24650000Y-55310000D01*
X22420000Y-55310000D02*
X23350000Y-55310000D01*
%TO.C,Q5*%
X28510000Y-56130000D02*
X27050000Y-56130000D01*
X28510000Y-52970000D02*
X26350000Y-52970000D01*
X28510000Y-52970000D02*
X28510000Y-53900000D01*
X28510000Y-56130000D02*
X28510000Y-55200000D01*
%TO.C,Q4*%
X22420000Y-45860000D02*
X22420000Y-44400000D01*
X25580000Y-45860000D02*
X25580000Y-43700000D01*
X25580000Y-45860000D02*
X24650000Y-45860000D01*
X22420000Y-45860000D02*
X23350000Y-45860000D01*
%TO.C,Q3*%
X28510000Y-46680000D02*
X27050000Y-46680000D01*
X28510000Y-43520000D02*
X26350000Y-43520000D01*
X28510000Y-43520000D02*
X28510000Y-44450000D01*
X28510000Y-46680000D02*
X28510000Y-45750000D01*
%TO.C,R5*%
X23772936Y-33385000D02*
X24227064Y-33385000D01*
X23772936Y-31915000D02*
X24227064Y-31915000D01*
%TO.C,R4*%
X23772936Y-31135000D02*
X24227064Y-31135000D01*
X23772936Y-29665000D02*
X24227064Y-29665000D01*
%TO.C,R2*%
X27522936Y-33385000D02*
X27977064Y-33385000D01*
X27522936Y-31915000D02*
X27977064Y-31915000D01*
%TO.C,R1*%
X27522936Y-31135000D02*
X27977064Y-31135000D01*
X27522936Y-29665000D02*
X27977064Y-29665000D01*
%TO.C,Q2*%
X22420000Y-36410000D02*
X22420000Y-34950000D01*
X25580000Y-36410000D02*
X25580000Y-34250000D01*
X25580000Y-36410000D02*
X24650000Y-36410000D01*
X22420000Y-36410000D02*
X23350000Y-36410000D01*
%TO.C,Q1*%
X28510000Y-37230000D02*
X27050000Y-37230000D01*
X28510000Y-34070000D02*
X26350000Y-34070000D01*
X28510000Y-34070000D02*
X28510000Y-35000000D01*
X28510000Y-37230000D02*
X28510000Y-36300000D01*
%TO.C,J1*%
D11*
X20916666Y-60452380D02*
X20916666Y-61166666D01*
X20869047Y-61309523D01*
X20773809Y-61404761D01*
X20630952Y-61452380D01*
X20535714Y-61452380D01*
X21916666Y-61452380D02*
X21345238Y-61452380D01*
X21630952Y-61452380D02*
X21630952Y-60452380D01*
X21535714Y-60595238D01*
X21440476Y-60690476D01*
X21345238Y-60738095D01*
%TO.C,R38*%
D12*
X38434571Y-61150190D02*
X38267904Y-60912095D01*
X38148857Y-61150190D02*
X38148857Y-60650190D01*
X38339333Y-60650190D01*
X38386952Y-60674000D01*
X38410761Y-60697809D01*
X38434571Y-60745428D01*
X38434571Y-60816857D01*
X38410761Y-60864476D01*
X38386952Y-60888285D01*
X38339333Y-60912095D01*
X38148857Y-60912095D01*
X38601238Y-60650190D02*
X38910761Y-60650190D01*
X38744095Y-60840666D01*
X38815523Y-60840666D01*
X38863142Y-60864476D01*
X38886952Y-60888285D01*
X38910761Y-60935904D01*
X38910761Y-61054952D01*
X38886952Y-61102571D01*
X38863142Y-61126380D01*
X38815523Y-61150190D01*
X38672666Y-61150190D01*
X38625047Y-61126380D01*
X38601238Y-61102571D01*
X39196476Y-60864476D02*
X39148857Y-60840666D01*
X39125047Y-60816857D01*
X39101238Y-60769238D01*
X39101238Y-60745428D01*
X39125047Y-60697809D01*
X39148857Y-60674000D01*
X39196476Y-60650190D01*
X39291714Y-60650190D01*
X39339333Y-60674000D01*
X39363142Y-60697809D01*
X39386952Y-60745428D01*
X39386952Y-60769238D01*
X39363142Y-60816857D01*
X39339333Y-60840666D01*
X39291714Y-60864476D01*
X39196476Y-60864476D01*
X39148857Y-60888285D01*
X39125047Y-60912095D01*
X39101238Y-60959714D01*
X39101238Y-61054952D01*
X39125047Y-61102571D01*
X39148857Y-61126380D01*
X39196476Y-61150190D01*
X39291714Y-61150190D01*
X39339333Y-61126380D01*
X39363142Y-61102571D01*
X39386952Y-61054952D01*
X39386952Y-60959714D01*
X39363142Y-60912095D01*
X39339333Y-60888285D01*
X39291714Y-60864476D01*
%TO.C,R33*%
X36234571Y-61150190D02*
X36067904Y-60912095D01*
X35948857Y-61150190D02*
X35948857Y-60650190D01*
X36139333Y-60650190D01*
X36186952Y-60674000D01*
X36210761Y-60697809D01*
X36234571Y-60745428D01*
X36234571Y-60816857D01*
X36210761Y-60864476D01*
X36186952Y-60888285D01*
X36139333Y-60912095D01*
X35948857Y-60912095D01*
X36401238Y-60650190D02*
X36710761Y-60650190D01*
X36544095Y-60840666D01*
X36615523Y-60840666D01*
X36663142Y-60864476D01*
X36686952Y-60888285D01*
X36710761Y-60935904D01*
X36710761Y-61054952D01*
X36686952Y-61102571D01*
X36663142Y-61126380D01*
X36615523Y-61150190D01*
X36472666Y-61150190D01*
X36425047Y-61126380D01*
X36401238Y-61102571D01*
X36877428Y-60650190D02*
X37186952Y-60650190D01*
X37020285Y-60840666D01*
X37091714Y-60840666D01*
X37139333Y-60864476D01*
X37163142Y-60888285D01*
X37186952Y-60935904D01*
X37186952Y-61054952D01*
X37163142Y-61102571D01*
X37139333Y-61126380D01*
X37091714Y-61150190D01*
X36948857Y-61150190D01*
X36901238Y-61126380D01*
X36877428Y-61102571D01*
%TO.C,R28*%
X34034571Y-61150190D02*
X33867904Y-60912095D01*
X33748857Y-61150190D02*
X33748857Y-60650190D01*
X33939333Y-60650190D01*
X33986952Y-60674000D01*
X34010761Y-60697809D01*
X34034571Y-60745428D01*
X34034571Y-60816857D01*
X34010761Y-60864476D01*
X33986952Y-60888285D01*
X33939333Y-60912095D01*
X33748857Y-60912095D01*
X34225047Y-60697809D02*
X34248857Y-60674000D01*
X34296476Y-60650190D01*
X34415523Y-60650190D01*
X34463142Y-60674000D01*
X34486952Y-60697809D01*
X34510761Y-60745428D01*
X34510761Y-60793047D01*
X34486952Y-60864476D01*
X34201238Y-61150190D01*
X34510761Y-61150190D01*
X34796476Y-60864476D02*
X34748857Y-60840666D01*
X34725047Y-60816857D01*
X34701238Y-60769238D01*
X34701238Y-60745428D01*
X34725047Y-60697809D01*
X34748857Y-60674000D01*
X34796476Y-60650190D01*
X34891714Y-60650190D01*
X34939333Y-60674000D01*
X34963142Y-60697809D01*
X34986952Y-60745428D01*
X34986952Y-60769238D01*
X34963142Y-60816857D01*
X34939333Y-60840666D01*
X34891714Y-60864476D01*
X34796476Y-60864476D01*
X34748857Y-60888285D01*
X34725047Y-60912095D01*
X34701238Y-60959714D01*
X34701238Y-61054952D01*
X34725047Y-61102571D01*
X34748857Y-61126380D01*
X34796476Y-61150190D01*
X34891714Y-61150190D01*
X34939333Y-61126380D01*
X34963142Y-61102571D01*
X34986952Y-61054952D01*
X34986952Y-60959714D01*
X34963142Y-60912095D01*
X34939333Y-60888285D01*
X34891714Y-60864476D01*
%TO.C,R23*%
X31834571Y-61150190D02*
X31667904Y-60912095D01*
X31548857Y-61150190D02*
X31548857Y-60650190D01*
X31739333Y-60650190D01*
X31786952Y-60674000D01*
X31810761Y-60697809D01*
X31834571Y-60745428D01*
X31834571Y-60816857D01*
X31810761Y-60864476D01*
X31786952Y-60888285D01*
X31739333Y-60912095D01*
X31548857Y-60912095D01*
X32025047Y-60697809D02*
X32048857Y-60674000D01*
X32096476Y-60650190D01*
X32215523Y-60650190D01*
X32263142Y-60674000D01*
X32286952Y-60697809D01*
X32310761Y-60745428D01*
X32310761Y-60793047D01*
X32286952Y-60864476D01*
X32001238Y-61150190D01*
X32310761Y-61150190D01*
X32477428Y-60650190D02*
X32786952Y-60650190D01*
X32620285Y-60840666D01*
X32691714Y-60840666D01*
X32739333Y-60864476D01*
X32763142Y-60888285D01*
X32786952Y-60935904D01*
X32786952Y-61054952D01*
X32763142Y-61102571D01*
X32739333Y-61126380D01*
X32691714Y-61150190D01*
X32548857Y-61150190D01*
X32501238Y-61126380D01*
X32477428Y-61102571D01*
%TO.C,R18*%
X29634571Y-61150190D02*
X29467904Y-60912095D01*
X29348857Y-61150190D02*
X29348857Y-60650190D01*
X29539333Y-60650190D01*
X29586952Y-60674000D01*
X29610761Y-60697809D01*
X29634571Y-60745428D01*
X29634571Y-60816857D01*
X29610761Y-60864476D01*
X29586952Y-60888285D01*
X29539333Y-60912095D01*
X29348857Y-60912095D01*
X30110761Y-61150190D02*
X29825047Y-61150190D01*
X29967904Y-61150190D02*
X29967904Y-60650190D01*
X29920285Y-60721619D01*
X29872666Y-60769238D01*
X29825047Y-60793047D01*
X30396476Y-60864476D02*
X30348857Y-60840666D01*
X30325047Y-60816857D01*
X30301238Y-60769238D01*
X30301238Y-60745428D01*
X30325047Y-60697809D01*
X30348857Y-60674000D01*
X30396476Y-60650190D01*
X30491714Y-60650190D01*
X30539333Y-60674000D01*
X30563142Y-60697809D01*
X30586952Y-60745428D01*
X30586952Y-60769238D01*
X30563142Y-60816857D01*
X30539333Y-60840666D01*
X30491714Y-60864476D01*
X30396476Y-60864476D01*
X30348857Y-60888285D01*
X30325047Y-60912095D01*
X30301238Y-60959714D01*
X30301238Y-61054952D01*
X30325047Y-61102571D01*
X30348857Y-61126380D01*
X30396476Y-61150190D01*
X30491714Y-61150190D01*
X30539333Y-61126380D01*
X30563142Y-61102571D01*
X30586952Y-61054952D01*
X30586952Y-60959714D01*
X30563142Y-60912095D01*
X30539333Y-60888285D01*
X30491714Y-60864476D01*
%TO.C,R13*%
X27434571Y-61150190D02*
X27267904Y-60912095D01*
X27148857Y-61150190D02*
X27148857Y-60650190D01*
X27339333Y-60650190D01*
X27386952Y-60674000D01*
X27410761Y-60697809D01*
X27434571Y-60745428D01*
X27434571Y-60816857D01*
X27410761Y-60864476D01*
X27386952Y-60888285D01*
X27339333Y-60912095D01*
X27148857Y-60912095D01*
X27910761Y-61150190D02*
X27625047Y-61150190D01*
X27767904Y-61150190D02*
X27767904Y-60650190D01*
X27720285Y-60721619D01*
X27672666Y-60769238D01*
X27625047Y-60793047D01*
X28077428Y-60650190D02*
X28386952Y-60650190D01*
X28220285Y-60840666D01*
X28291714Y-60840666D01*
X28339333Y-60864476D01*
X28363142Y-60888285D01*
X28386952Y-60935904D01*
X28386952Y-61054952D01*
X28363142Y-61102571D01*
X28339333Y-61126380D01*
X28291714Y-61150190D01*
X28148857Y-61150190D01*
X28101238Y-61126380D01*
X28077428Y-61102571D01*
%TO.C,R8*%
X25272666Y-61150190D02*
X25106000Y-60912095D01*
X24986952Y-61150190D02*
X24986952Y-60650190D01*
X25177428Y-60650190D01*
X25225047Y-60674000D01*
X25248857Y-60697809D01*
X25272666Y-60745428D01*
X25272666Y-60816857D01*
X25248857Y-60864476D01*
X25225047Y-60888285D01*
X25177428Y-60912095D01*
X24986952Y-60912095D01*
X25558380Y-60864476D02*
X25510761Y-60840666D01*
X25486952Y-60816857D01*
X25463142Y-60769238D01*
X25463142Y-60745428D01*
X25486952Y-60697809D01*
X25510761Y-60674000D01*
X25558380Y-60650190D01*
X25653619Y-60650190D01*
X25701238Y-60674000D01*
X25725047Y-60697809D01*
X25748857Y-60745428D01*
X25748857Y-60769238D01*
X25725047Y-60816857D01*
X25701238Y-60840666D01*
X25653619Y-60864476D01*
X25558380Y-60864476D01*
X25510761Y-60888285D01*
X25486952Y-60912095D01*
X25463142Y-60959714D01*
X25463142Y-61054952D01*
X25486952Y-61102571D01*
X25510761Y-61126380D01*
X25558380Y-61150190D01*
X25653619Y-61150190D01*
X25701238Y-61126380D01*
X25725047Y-61102571D01*
X25748857Y-61054952D01*
X25748857Y-60959714D01*
X25725047Y-60912095D01*
X25701238Y-60888285D01*
X25653619Y-60864476D01*
%TO.C,R3*%
X23247666Y-61150190D02*
X23081000Y-60912095D01*
X22961952Y-61150190D02*
X22961952Y-60650190D01*
X23152428Y-60650190D01*
X23200047Y-60674000D01*
X23223857Y-60697809D01*
X23247666Y-60745428D01*
X23247666Y-60816857D01*
X23223857Y-60864476D01*
X23200047Y-60888285D01*
X23152428Y-60912095D01*
X22961952Y-60912095D01*
X23414333Y-60650190D02*
X23723857Y-60650190D01*
X23557190Y-60840666D01*
X23628619Y-60840666D01*
X23676238Y-60864476D01*
X23700047Y-60888285D01*
X23723857Y-60935904D01*
X23723857Y-61054952D01*
X23700047Y-61102571D01*
X23676238Y-61126380D01*
X23628619Y-61150190D01*
X23485761Y-61150190D01*
X23438142Y-61126380D01*
X23414333Y-61102571D01*
%TO.C,U1*%
D11*
X45094095Y-49276380D02*
X45094095Y-50085904D01*
X45141714Y-50181142D01*
X45189333Y-50228761D01*
X45284571Y-50276380D01*
X45475047Y-50276380D01*
X45570285Y-50228761D01*
X45617904Y-50181142D01*
X45665523Y-50085904D01*
X45665523Y-49276380D01*
X46665523Y-50276380D02*
X46094095Y-50276380D01*
X46379809Y-50276380D02*
X46379809Y-49276380D01*
X46284571Y-49419238D01*
X46189333Y-49514476D01*
X46094095Y-49562095D01*
%TO.C,R40*%
D12*
X39678571Y-41726190D02*
X39511904Y-41488095D01*
X39392857Y-41726190D02*
X39392857Y-41226190D01*
X39583333Y-41226190D01*
X39630952Y-41250000D01*
X39654761Y-41273809D01*
X39678571Y-41321428D01*
X39678571Y-41392857D01*
X39654761Y-41440476D01*
X39630952Y-41464285D01*
X39583333Y-41488095D01*
X39392857Y-41488095D01*
X40107142Y-41392857D02*
X40107142Y-41726190D01*
X39988095Y-41202380D02*
X39869047Y-41559523D01*
X40178571Y-41559523D01*
X40464285Y-41226190D02*
X40511904Y-41226190D01*
X40559523Y-41250000D01*
X40583333Y-41273809D01*
X40607142Y-41321428D01*
X40630952Y-41416666D01*
X40630952Y-41535714D01*
X40607142Y-41630952D01*
X40583333Y-41678571D01*
X40559523Y-41702380D01*
X40511904Y-41726190D01*
X40464285Y-41726190D01*
X40416666Y-41702380D01*
X40392857Y-41678571D01*
X40369047Y-41630952D01*
X40345238Y-41535714D01*
X40345238Y-41416666D01*
X40369047Y-41321428D01*
X40392857Y-41273809D01*
X40416666Y-41250000D01*
X40464285Y-41226190D01*
%TO.C,R39*%
X39678571Y-39476190D02*
X39511904Y-39238095D01*
X39392857Y-39476190D02*
X39392857Y-38976190D01*
X39583333Y-38976190D01*
X39630952Y-39000000D01*
X39654761Y-39023809D01*
X39678571Y-39071428D01*
X39678571Y-39142857D01*
X39654761Y-39190476D01*
X39630952Y-39214285D01*
X39583333Y-39238095D01*
X39392857Y-39238095D01*
X39845238Y-38976190D02*
X40154761Y-38976190D01*
X39988095Y-39166666D01*
X40059523Y-39166666D01*
X40107142Y-39190476D01*
X40130952Y-39214285D01*
X40154761Y-39261904D01*
X40154761Y-39380952D01*
X40130952Y-39428571D01*
X40107142Y-39452380D01*
X40059523Y-39476190D01*
X39916666Y-39476190D01*
X39869047Y-39452380D01*
X39845238Y-39428571D01*
X40392857Y-39476190D02*
X40488095Y-39476190D01*
X40535714Y-39452380D01*
X40559523Y-39428571D01*
X40607142Y-39357142D01*
X40630952Y-39261904D01*
X40630952Y-39071428D01*
X40607142Y-39023809D01*
X40583333Y-39000000D01*
X40535714Y-38976190D01*
X40440476Y-38976190D01*
X40392857Y-39000000D01*
X40369047Y-39023809D01*
X40345238Y-39071428D01*
X40345238Y-39190476D01*
X40369047Y-39238095D01*
X40392857Y-39261904D01*
X40440476Y-39285714D01*
X40535714Y-39285714D01*
X40583333Y-39261904D01*
X40607142Y-39238095D01*
X40630952Y-39190476D01*
%TO.C,R37*%
X48178571Y-42976190D02*
X48011904Y-42738095D01*
X47892857Y-42976190D02*
X47892857Y-42476190D01*
X48083333Y-42476190D01*
X48130952Y-42500000D01*
X48154761Y-42523809D01*
X48178571Y-42571428D01*
X48178571Y-42642857D01*
X48154761Y-42690476D01*
X48130952Y-42714285D01*
X48083333Y-42738095D01*
X47892857Y-42738095D01*
X48345238Y-42476190D02*
X48654761Y-42476190D01*
X48488095Y-42666666D01*
X48559523Y-42666666D01*
X48607142Y-42690476D01*
X48630952Y-42714285D01*
X48654761Y-42761904D01*
X48654761Y-42880952D01*
X48630952Y-42928571D01*
X48607142Y-42952380D01*
X48559523Y-42976190D01*
X48416666Y-42976190D01*
X48369047Y-42952380D01*
X48345238Y-42928571D01*
X48821428Y-42476190D02*
X49154761Y-42476190D01*
X48940476Y-42976190D01*
%TO.C,R36*%
X48178571Y-40726190D02*
X48011904Y-40488095D01*
X47892857Y-40726190D02*
X47892857Y-40226190D01*
X48083333Y-40226190D01*
X48130952Y-40250000D01*
X48154761Y-40273809D01*
X48178571Y-40321428D01*
X48178571Y-40392857D01*
X48154761Y-40440476D01*
X48130952Y-40464285D01*
X48083333Y-40488095D01*
X47892857Y-40488095D01*
X48345238Y-40226190D02*
X48654761Y-40226190D01*
X48488095Y-40416666D01*
X48559523Y-40416666D01*
X48607142Y-40440476D01*
X48630952Y-40464285D01*
X48654761Y-40511904D01*
X48654761Y-40630952D01*
X48630952Y-40678571D01*
X48607142Y-40702380D01*
X48559523Y-40726190D01*
X48416666Y-40726190D01*
X48369047Y-40702380D01*
X48345238Y-40678571D01*
X49083333Y-40226190D02*
X48988095Y-40226190D01*
X48940476Y-40250000D01*
X48916666Y-40273809D01*
X48869047Y-40345238D01*
X48845238Y-40440476D01*
X48845238Y-40630952D01*
X48869047Y-40678571D01*
X48892857Y-40702380D01*
X48940476Y-40726190D01*
X49035714Y-40726190D01*
X49083333Y-40702380D01*
X49107142Y-40678571D01*
X49130952Y-40630952D01*
X49130952Y-40511904D01*
X49107142Y-40464285D01*
X49083333Y-40440476D01*
X49035714Y-40416666D01*
X48940476Y-40416666D01*
X48892857Y-40440476D01*
X48869047Y-40464285D01*
X48845238Y-40511904D01*
%TO.C,R35*%
X39678571Y-32226190D02*
X39511904Y-31988095D01*
X39392857Y-32226190D02*
X39392857Y-31726190D01*
X39583333Y-31726190D01*
X39630952Y-31750000D01*
X39654761Y-31773809D01*
X39678571Y-31821428D01*
X39678571Y-31892857D01*
X39654761Y-31940476D01*
X39630952Y-31964285D01*
X39583333Y-31988095D01*
X39392857Y-31988095D01*
X39845238Y-31726190D02*
X40154761Y-31726190D01*
X39988095Y-31916666D01*
X40059523Y-31916666D01*
X40107142Y-31940476D01*
X40130952Y-31964285D01*
X40154761Y-32011904D01*
X40154761Y-32130952D01*
X40130952Y-32178571D01*
X40107142Y-32202380D01*
X40059523Y-32226190D01*
X39916666Y-32226190D01*
X39869047Y-32202380D01*
X39845238Y-32178571D01*
X40607142Y-31726190D02*
X40369047Y-31726190D01*
X40345238Y-31964285D01*
X40369047Y-31940476D01*
X40416666Y-31916666D01*
X40535714Y-31916666D01*
X40583333Y-31940476D01*
X40607142Y-31964285D01*
X40630952Y-32011904D01*
X40630952Y-32130952D01*
X40607142Y-32178571D01*
X40583333Y-32202380D01*
X40535714Y-32226190D01*
X40416666Y-32226190D01*
X40369047Y-32202380D01*
X40345238Y-32178571D01*
%TO.C,R34*%
X39678571Y-29976190D02*
X39511904Y-29738095D01*
X39392857Y-29976190D02*
X39392857Y-29476190D01*
X39583333Y-29476190D01*
X39630952Y-29500000D01*
X39654761Y-29523809D01*
X39678571Y-29571428D01*
X39678571Y-29642857D01*
X39654761Y-29690476D01*
X39630952Y-29714285D01*
X39583333Y-29738095D01*
X39392857Y-29738095D01*
X39845238Y-29476190D02*
X40154761Y-29476190D01*
X39988095Y-29666666D01*
X40059523Y-29666666D01*
X40107142Y-29690476D01*
X40130952Y-29714285D01*
X40154761Y-29761904D01*
X40154761Y-29880952D01*
X40130952Y-29928571D01*
X40107142Y-29952380D01*
X40059523Y-29976190D01*
X39916666Y-29976190D01*
X39869047Y-29952380D01*
X39845238Y-29928571D01*
X40583333Y-29642857D02*
X40583333Y-29976190D01*
X40464285Y-29452380D02*
X40345238Y-29809523D01*
X40654761Y-29809523D01*
%TO.C,R32*%
X48178571Y-33476190D02*
X48011904Y-33238095D01*
X47892857Y-33476190D02*
X47892857Y-32976190D01*
X48083333Y-32976190D01*
X48130952Y-33000000D01*
X48154761Y-33023809D01*
X48178571Y-33071428D01*
X48178571Y-33142857D01*
X48154761Y-33190476D01*
X48130952Y-33214285D01*
X48083333Y-33238095D01*
X47892857Y-33238095D01*
X48345238Y-32976190D02*
X48654761Y-32976190D01*
X48488095Y-33166666D01*
X48559523Y-33166666D01*
X48607142Y-33190476D01*
X48630952Y-33214285D01*
X48654761Y-33261904D01*
X48654761Y-33380952D01*
X48630952Y-33428571D01*
X48607142Y-33452380D01*
X48559523Y-33476190D01*
X48416666Y-33476190D01*
X48369047Y-33452380D01*
X48345238Y-33428571D01*
X48845238Y-33023809D02*
X48869047Y-33000000D01*
X48916666Y-32976190D01*
X49035714Y-32976190D01*
X49083333Y-33000000D01*
X49107142Y-33023809D01*
X49130952Y-33071428D01*
X49130952Y-33119047D01*
X49107142Y-33190476D01*
X48821428Y-33476190D01*
X49130952Y-33476190D01*
%TO.C,R31*%
X48178571Y-31226190D02*
X48011904Y-30988095D01*
X47892857Y-31226190D02*
X47892857Y-30726190D01*
X48083333Y-30726190D01*
X48130952Y-30750000D01*
X48154761Y-30773809D01*
X48178571Y-30821428D01*
X48178571Y-30892857D01*
X48154761Y-30940476D01*
X48130952Y-30964285D01*
X48083333Y-30988095D01*
X47892857Y-30988095D01*
X48345238Y-30726190D02*
X48654761Y-30726190D01*
X48488095Y-30916666D01*
X48559523Y-30916666D01*
X48607142Y-30940476D01*
X48630952Y-30964285D01*
X48654761Y-31011904D01*
X48654761Y-31130952D01*
X48630952Y-31178571D01*
X48607142Y-31202380D01*
X48559523Y-31226190D01*
X48416666Y-31226190D01*
X48369047Y-31202380D01*
X48345238Y-31178571D01*
X49130952Y-31226190D02*
X48845238Y-31226190D01*
X48988095Y-31226190D02*
X48988095Y-30726190D01*
X48940476Y-30797619D01*
X48892857Y-30845238D01*
X48845238Y-30869047D01*
%TO.C,R30*%
X30428571Y-51226190D02*
X30261904Y-50988095D01*
X30142857Y-51226190D02*
X30142857Y-50726190D01*
X30333333Y-50726190D01*
X30380952Y-50750000D01*
X30404761Y-50773809D01*
X30428571Y-50821428D01*
X30428571Y-50892857D01*
X30404761Y-50940476D01*
X30380952Y-50964285D01*
X30333333Y-50988095D01*
X30142857Y-50988095D01*
X30595238Y-50726190D02*
X30904761Y-50726190D01*
X30738095Y-50916666D01*
X30809523Y-50916666D01*
X30857142Y-50940476D01*
X30880952Y-50964285D01*
X30904761Y-51011904D01*
X30904761Y-51130952D01*
X30880952Y-51178571D01*
X30857142Y-51202380D01*
X30809523Y-51226190D01*
X30666666Y-51226190D01*
X30619047Y-51202380D01*
X30595238Y-51178571D01*
X31214285Y-50726190D02*
X31261904Y-50726190D01*
X31309523Y-50750000D01*
X31333333Y-50773809D01*
X31357142Y-50821428D01*
X31380952Y-50916666D01*
X31380952Y-51035714D01*
X31357142Y-51130952D01*
X31333333Y-51178571D01*
X31309523Y-51202380D01*
X31261904Y-51226190D01*
X31214285Y-51226190D01*
X31166666Y-51202380D01*
X31142857Y-51178571D01*
X31119047Y-51130952D01*
X31095238Y-51035714D01*
X31095238Y-50916666D01*
X31119047Y-50821428D01*
X31142857Y-50773809D01*
X31166666Y-50750000D01*
X31214285Y-50726190D01*
%TO.C,R29*%
X30428571Y-48976190D02*
X30261904Y-48738095D01*
X30142857Y-48976190D02*
X30142857Y-48476190D01*
X30333333Y-48476190D01*
X30380952Y-48500000D01*
X30404761Y-48523809D01*
X30428571Y-48571428D01*
X30428571Y-48642857D01*
X30404761Y-48690476D01*
X30380952Y-48714285D01*
X30333333Y-48738095D01*
X30142857Y-48738095D01*
X30619047Y-48523809D02*
X30642857Y-48500000D01*
X30690476Y-48476190D01*
X30809523Y-48476190D01*
X30857142Y-48500000D01*
X30880952Y-48523809D01*
X30904761Y-48571428D01*
X30904761Y-48619047D01*
X30880952Y-48690476D01*
X30595238Y-48976190D01*
X30904761Y-48976190D01*
X31142857Y-48976190D02*
X31238095Y-48976190D01*
X31285714Y-48952380D01*
X31309523Y-48928571D01*
X31357142Y-48857142D01*
X31380952Y-48761904D01*
X31380952Y-48571428D01*
X31357142Y-48523809D01*
X31333333Y-48500000D01*
X31285714Y-48476190D01*
X31190476Y-48476190D01*
X31142857Y-48500000D01*
X31119047Y-48523809D01*
X31095238Y-48571428D01*
X31095238Y-48690476D01*
X31119047Y-48738095D01*
X31142857Y-48761904D01*
X31190476Y-48785714D01*
X31285714Y-48785714D01*
X31333333Y-48761904D01*
X31357142Y-48738095D01*
X31380952Y-48690476D01*
%TO.C,R27*%
X39178571Y-52476190D02*
X39011904Y-52238095D01*
X38892857Y-52476190D02*
X38892857Y-51976190D01*
X39083333Y-51976190D01*
X39130952Y-52000000D01*
X39154761Y-52023809D01*
X39178571Y-52071428D01*
X39178571Y-52142857D01*
X39154761Y-52190476D01*
X39130952Y-52214285D01*
X39083333Y-52238095D01*
X38892857Y-52238095D01*
X39369047Y-52023809D02*
X39392857Y-52000000D01*
X39440476Y-51976190D01*
X39559523Y-51976190D01*
X39607142Y-52000000D01*
X39630952Y-52023809D01*
X39654761Y-52071428D01*
X39654761Y-52119047D01*
X39630952Y-52190476D01*
X39345238Y-52476190D01*
X39654761Y-52476190D01*
X39821428Y-51976190D02*
X40154761Y-51976190D01*
X39940476Y-52476190D01*
%TO.C,R26*%
X39178571Y-50226190D02*
X39011904Y-49988095D01*
X38892857Y-50226190D02*
X38892857Y-49726190D01*
X39083333Y-49726190D01*
X39130952Y-49750000D01*
X39154761Y-49773809D01*
X39178571Y-49821428D01*
X39178571Y-49892857D01*
X39154761Y-49940476D01*
X39130952Y-49964285D01*
X39083333Y-49988095D01*
X38892857Y-49988095D01*
X39369047Y-49773809D02*
X39392857Y-49750000D01*
X39440476Y-49726190D01*
X39559523Y-49726190D01*
X39607142Y-49750000D01*
X39630952Y-49773809D01*
X39654761Y-49821428D01*
X39654761Y-49869047D01*
X39630952Y-49940476D01*
X39345238Y-50226190D01*
X39654761Y-50226190D01*
X40083333Y-49726190D02*
X39988095Y-49726190D01*
X39940476Y-49750000D01*
X39916666Y-49773809D01*
X39869047Y-49845238D01*
X39845238Y-49940476D01*
X39845238Y-50130952D01*
X39869047Y-50178571D01*
X39892857Y-50202380D01*
X39940476Y-50226190D01*
X40035714Y-50226190D01*
X40083333Y-50202380D01*
X40107142Y-50178571D01*
X40130952Y-50130952D01*
X40130952Y-50011904D01*
X40107142Y-49964285D01*
X40083333Y-49940476D01*
X40035714Y-49916666D01*
X39940476Y-49916666D01*
X39892857Y-49940476D01*
X39869047Y-49964285D01*
X39845238Y-50011904D01*
%TO.C,R25*%
X30428571Y-41726190D02*
X30261904Y-41488095D01*
X30142857Y-41726190D02*
X30142857Y-41226190D01*
X30333333Y-41226190D01*
X30380952Y-41250000D01*
X30404761Y-41273809D01*
X30428571Y-41321428D01*
X30428571Y-41392857D01*
X30404761Y-41440476D01*
X30380952Y-41464285D01*
X30333333Y-41488095D01*
X30142857Y-41488095D01*
X30619047Y-41273809D02*
X30642857Y-41250000D01*
X30690476Y-41226190D01*
X30809523Y-41226190D01*
X30857142Y-41250000D01*
X30880952Y-41273809D01*
X30904761Y-41321428D01*
X30904761Y-41369047D01*
X30880952Y-41440476D01*
X30595238Y-41726190D01*
X30904761Y-41726190D01*
X31357142Y-41226190D02*
X31119047Y-41226190D01*
X31095238Y-41464285D01*
X31119047Y-41440476D01*
X31166666Y-41416666D01*
X31285714Y-41416666D01*
X31333333Y-41440476D01*
X31357142Y-41464285D01*
X31380952Y-41511904D01*
X31380952Y-41630952D01*
X31357142Y-41678571D01*
X31333333Y-41702380D01*
X31285714Y-41726190D01*
X31166666Y-41726190D01*
X31119047Y-41702380D01*
X31095238Y-41678571D01*
%TO.C,R24*%
X30428571Y-39476190D02*
X30261904Y-39238095D01*
X30142857Y-39476190D02*
X30142857Y-38976190D01*
X30333333Y-38976190D01*
X30380952Y-39000000D01*
X30404761Y-39023809D01*
X30428571Y-39071428D01*
X30428571Y-39142857D01*
X30404761Y-39190476D01*
X30380952Y-39214285D01*
X30333333Y-39238095D01*
X30142857Y-39238095D01*
X30619047Y-39023809D02*
X30642857Y-39000000D01*
X30690476Y-38976190D01*
X30809523Y-38976190D01*
X30857142Y-39000000D01*
X30880952Y-39023809D01*
X30904761Y-39071428D01*
X30904761Y-39119047D01*
X30880952Y-39190476D01*
X30595238Y-39476190D01*
X30904761Y-39476190D01*
X31333333Y-39142857D02*
X31333333Y-39476190D01*
X31214285Y-38952380D02*
X31095238Y-39309523D01*
X31404761Y-39309523D01*
%TO.C,R22*%
X38928571Y-42976190D02*
X38761904Y-42738095D01*
X38642857Y-42976190D02*
X38642857Y-42476190D01*
X38833333Y-42476190D01*
X38880952Y-42500000D01*
X38904761Y-42523809D01*
X38928571Y-42571428D01*
X38928571Y-42642857D01*
X38904761Y-42690476D01*
X38880952Y-42714285D01*
X38833333Y-42738095D01*
X38642857Y-42738095D01*
X39119047Y-42523809D02*
X39142857Y-42500000D01*
X39190476Y-42476190D01*
X39309523Y-42476190D01*
X39357142Y-42500000D01*
X39380952Y-42523809D01*
X39404761Y-42571428D01*
X39404761Y-42619047D01*
X39380952Y-42690476D01*
X39095238Y-42976190D01*
X39404761Y-42976190D01*
X39595238Y-42523809D02*
X39619047Y-42500000D01*
X39666666Y-42476190D01*
X39785714Y-42476190D01*
X39833333Y-42500000D01*
X39857142Y-42523809D01*
X39880952Y-42571428D01*
X39880952Y-42619047D01*
X39857142Y-42690476D01*
X39571428Y-42976190D01*
X39880952Y-42976190D01*
%TO.C,R21*%
X38928571Y-40726190D02*
X38761904Y-40488095D01*
X38642857Y-40726190D02*
X38642857Y-40226190D01*
X38833333Y-40226190D01*
X38880952Y-40250000D01*
X38904761Y-40273809D01*
X38928571Y-40321428D01*
X38928571Y-40392857D01*
X38904761Y-40440476D01*
X38880952Y-40464285D01*
X38833333Y-40488095D01*
X38642857Y-40488095D01*
X39119047Y-40273809D02*
X39142857Y-40250000D01*
X39190476Y-40226190D01*
X39309523Y-40226190D01*
X39357142Y-40250000D01*
X39380952Y-40273809D01*
X39404761Y-40321428D01*
X39404761Y-40369047D01*
X39380952Y-40440476D01*
X39095238Y-40726190D01*
X39404761Y-40726190D01*
X39880952Y-40726190D02*
X39595238Y-40726190D01*
X39738095Y-40726190D02*
X39738095Y-40226190D01*
X39690476Y-40297619D01*
X39642857Y-40345238D01*
X39595238Y-40369047D01*
%TO.C,R20*%
X30428571Y-32226190D02*
X30261904Y-31988095D01*
X30142857Y-32226190D02*
X30142857Y-31726190D01*
X30333333Y-31726190D01*
X30380952Y-31750000D01*
X30404761Y-31773809D01*
X30428571Y-31821428D01*
X30428571Y-31892857D01*
X30404761Y-31940476D01*
X30380952Y-31964285D01*
X30333333Y-31988095D01*
X30142857Y-31988095D01*
X30619047Y-31773809D02*
X30642857Y-31750000D01*
X30690476Y-31726190D01*
X30809523Y-31726190D01*
X30857142Y-31750000D01*
X30880952Y-31773809D01*
X30904761Y-31821428D01*
X30904761Y-31869047D01*
X30880952Y-31940476D01*
X30595238Y-32226190D01*
X30904761Y-32226190D01*
X31214285Y-31726190D02*
X31261904Y-31726190D01*
X31309523Y-31750000D01*
X31333333Y-31773809D01*
X31357142Y-31821428D01*
X31380952Y-31916666D01*
X31380952Y-32035714D01*
X31357142Y-32130952D01*
X31333333Y-32178571D01*
X31309523Y-32202380D01*
X31261904Y-32226190D01*
X31214285Y-32226190D01*
X31166666Y-32202380D01*
X31142857Y-32178571D01*
X31119047Y-32130952D01*
X31095238Y-32035714D01*
X31095238Y-31916666D01*
X31119047Y-31821428D01*
X31142857Y-31773809D01*
X31166666Y-31750000D01*
X31214285Y-31726190D01*
%TO.C,R19*%
X30428571Y-29976190D02*
X30261904Y-29738095D01*
X30142857Y-29976190D02*
X30142857Y-29476190D01*
X30333333Y-29476190D01*
X30380952Y-29500000D01*
X30404761Y-29523809D01*
X30428571Y-29571428D01*
X30428571Y-29642857D01*
X30404761Y-29690476D01*
X30380952Y-29714285D01*
X30333333Y-29738095D01*
X30142857Y-29738095D01*
X30904761Y-29976190D02*
X30619047Y-29976190D01*
X30761904Y-29976190D02*
X30761904Y-29476190D01*
X30714285Y-29547619D01*
X30666666Y-29595238D01*
X30619047Y-29619047D01*
X31142857Y-29976190D02*
X31238095Y-29976190D01*
X31285714Y-29952380D01*
X31309523Y-29928571D01*
X31357142Y-29857142D01*
X31380952Y-29761904D01*
X31380952Y-29571428D01*
X31357142Y-29523809D01*
X31333333Y-29500000D01*
X31285714Y-29476190D01*
X31190476Y-29476190D01*
X31142857Y-29500000D01*
X31119047Y-29523809D01*
X31095238Y-29571428D01*
X31095238Y-29690476D01*
X31119047Y-29738095D01*
X31142857Y-29761904D01*
X31190476Y-29785714D01*
X31285714Y-29785714D01*
X31333333Y-29761904D01*
X31357142Y-29738095D01*
X31380952Y-29690476D01*
%TO.C,R17*%
X38928571Y-33476190D02*
X38761904Y-33238095D01*
X38642857Y-33476190D02*
X38642857Y-32976190D01*
X38833333Y-32976190D01*
X38880952Y-33000000D01*
X38904761Y-33023809D01*
X38928571Y-33071428D01*
X38928571Y-33142857D01*
X38904761Y-33190476D01*
X38880952Y-33214285D01*
X38833333Y-33238095D01*
X38642857Y-33238095D01*
X39404761Y-33476190D02*
X39119047Y-33476190D01*
X39261904Y-33476190D02*
X39261904Y-32976190D01*
X39214285Y-33047619D01*
X39166666Y-33095238D01*
X39119047Y-33119047D01*
X39571428Y-32976190D02*
X39904761Y-32976190D01*
X39690476Y-33476190D01*
%TO.C,R16*%
X38928571Y-31226190D02*
X38761904Y-30988095D01*
X38642857Y-31226190D02*
X38642857Y-30726190D01*
X38833333Y-30726190D01*
X38880952Y-30750000D01*
X38904761Y-30773809D01*
X38928571Y-30821428D01*
X38928571Y-30892857D01*
X38904761Y-30940476D01*
X38880952Y-30964285D01*
X38833333Y-30988095D01*
X38642857Y-30988095D01*
X39404761Y-31226190D02*
X39119047Y-31226190D01*
X39261904Y-31226190D02*
X39261904Y-30726190D01*
X39214285Y-30797619D01*
X39166666Y-30845238D01*
X39119047Y-30869047D01*
X39833333Y-30726190D02*
X39738095Y-30726190D01*
X39690476Y-30750000D01*
X39666666Y-30773809D01*
X39619047Y-30845238D01*
X39595238Y-30940476D01*
X39595238Y-31130952D01*
X39619047Y-31178571D01*
X39642857Y-31202380D01*
X39690476Y-31226190D01*
X39785714Y-31226190D01*
X39833333Y-31202380D01*
X39857142Y-31178571D01*
X39880952Y-31130952D01*
X39880952Y-31011904D01*
X39857142Y-30964285D01*
X39833333Y-30940476D01*
X39785714Y-30916666D01*
X39690476Y-30916666D01*
X39642857Y-30940476D01*
X39619047Y-30964285D01*
X39595238Y-31011904D01*
%TO.C,R15*%
X21178571Y-51226190D02*
X21011904Y-50988095D01*
X20892857Y-51226190D02*
X20892857Y-50726190D01*
X21083333Y-50726190D01*
X21130952Y-50750000D01*
X21154761Y-50773809D01*
X21178571Y-50821428D01*
X21178571Y-50892857D01*
X21154761Y-50940476D01*
X21130952Y-50964285D01*
X21083333Y-50988095D01*
X20892857Y-50988095D01*
X21654761Y-51226190D02*
X21369047Y-51226190D01*
X21511904Y-51226190D02*
X21511904Y-50726190D01*
X21464285Y-50797619D01*
X21416666Y-50845238D01*
X21369047Y-50869047D01*
X22107142Y-50726190D02*
X21869047Y-50726190D01*
X21845238Y-50964285D01*
X21869047Y-50940476D01*
X21916666Y-50916666D01*
X22035714Y-50916666D01*
X22083333Y-50940476D01*
X22107142Y-50964285D01*
X22130952Y-51011904D01*
X22130952Y-51130952D01*
X22107142Y-51178571D01*
X22083333Y-51202380D01*
X22035714Y-51226190D01*
X21916666Y-51226190D01*
X21869047Y-51202380D01*
X21845238Y-51178571D01*
%TO.C,R14*%
X21178571Y-48976190D02*
X21011904Y-48738095D01*
X20892857Y-48976190D02*
X20892857Y-48476190D01*
X21083333Y-48476190D01*
X21130952Y-48500000D01*
X21154761Y-48523809D01*
X21178571Y-48571428D01*
X21178571Y-48642857D01*
X21154761Y-48690476D01*
X21130952Y-48714285D01*
X21083333Y-48738095D01*
X20892857Y-48738095D01*
X21654761Y-48976190D02*
X21369047Y-48976190D01*
X21511904Y-48976190D02*
X21511904Y-48476190D01*
X21464285Y-48547619D01*
X21416666Y-48595238D01*
X21369047Y-48619047D01*
X22083333Y-48642857D02*
X22083333Y-48976190D01*
X21964285Y-48452380D02*
X21845238Y-48809523D01*
X22154761Y-48809523D01*
%TO.C,R12*%
X29928571Y-52476190D02*
X29761904Y-52238095D01*
X29642857Y-52476190D02*
X29642857Y-51976190D01*
X29833333Y-51976190D01*
X29880952Y-52000000D01*
X29904761Y-52023809D01*
X29928571Y-52071428D01*
X29928571Y-52142857D01*
X29904761Y-52190476D01*
X29880952Y-52214285D01*
X29833333Y-52238095D01*
X29642857Y-52238095D01*
X30404761Y-52476190D02*
X30119047Y-52476190D01*
X30261904Y-52476190D02*
X30261904Y-51976190D01*
X30214285Y-52047619D01*
X30166666Y-52095238D01*
X30119047Y-52119047D01*
X30595238Y-52023809D02*
X30619047Y-52000000D01*
X30666666Y-51976190D01*
X30785714Y-51976190D01*
X30833333Y-52000000D01*
X30857142Y-52023809D01*
X30880952Y-52071428D01*
X30880952Y-52119047D01*
X30857142Y-52190476D01*
X30571428Y-52476190D01*
X30880952Y-52476190D01*
%TO.C,R11*%
X29678571Y-50226190D02*
X29511904Y-49988095D01*
X29392857Y-50226190D02*
X29392857Y-49726190D01*
X29583333Y-49726190D01*
X29630952Y-49750000D01*
X29654761Y-49773809D01*
X29678571Y-49821428D01*
X29678571Y-49892857D01*
X29654761Y-49940476D01*
X29630952Y-49964285D01*
X29583333Y-49988095D01*
X29392857Y-49988095D01*
X30154761Y-50226190D02*
X29869047Y-50226190D01*
X30011904Y-50226190D02*
X30011904Y-49726190D01*
X29964285Y-49797619D01*
X29916666Y-49845238D01*
X29869047Y-49869047D01*
X30630952Y-50226190D02*
X30345238Y-50226190D01*
X30488095Y-50226190D02*
X30488095Y-49726190D01*
X30440476Y-49797619D01*
X30392857Y-49845238D01*
X30345238Y-49869047D01*
%TO.C,R10*%
X21428571Y-41726190D02*
X21261904Y-41488095D01*
X21142857Y-41726190D02*
X21142857Y-41226190D01*
X21333333Y-41226190D01*
X21380952Y-41250000D01*
X21404761Y-41273809D01*
X21428571Y-41321428D01*
X21428571Y-41392857D01*
X21404761Y-41440476D01*
X21380952Y-41464285D01*
X21333333Y-41488095D01*
X21142857Y-41488095D01*
X21904761Y-41726190D02*
X21619047Y-41726190D01*
X21761904Y-41726190D02*
X21761904Y-41226190D01*
X21714285Y-41297619D01*
X21666666Y-41345238D01*
X21619047Y-41369047D01*
X22214285Y-41226190D02*
X22261904Y-41226190D01*
X22309523Y-41250000D01*
X22333333Y-41273809D01*
X22357142Y-41321428D01*
X22380952Y-41416666D01*
X22380952Y-41535714D01*
X22357142Y-41630952D01*
X22333333Y-41678571D01*
X22309523Y-41702380D01*
X22261904Y-41726190D01*
X22214285Y-41726190D01*
X22166666Y-41702380D01*
X22142857Y-41678571D01*
X22119047Y-41630952D01*
X22095238Y-41535714D01*
X22095238Y-41416666D01*
X22119047Y-41321428D01*
X22142857Y-41273809D01*
X22166666Y-41250000D01*
X22214285Y-41226190D01*
%TO.C,R9*%
X21666666Y-39476190D02*
X21500000Y-39238095D01*
X21380952Y-39476190D02*
X21380952Y-38976190D01*
X21571428Y-38976190D01*
X21619047Y-39000000D01*
X21642857Y-39023809D01*
X21666666Y-39071428D01*
X21666666Y-39142857D01*
X21642857Y-39190476D01*
X21619047Y-39214285D01*
X21571428Y-39238095D01*
X21380952Y-39238095D01*
X21904761Y-39476190D02*
X22000000Y-39476190D01*
X22047619Y-39452380D01*
X22071428Y-39428571D01*
X22119047Y-39357142D01*
X22142857Y-39261904D01*
X22142857Y-39071428D01*
X22119047Y-39023809D01*
X22095238Y-39000000D01*
X22047619Y-38976190D01*
X21952380Y-38976190D01*
X21904761Y-39000000D01*
X21880952Y-39023809D01*
X21857142Y-39071428D01*
X21857142Y-39190476D01*
X21880952Y-39238095D01*
X21904761Y-39261904D01*
X21952380Y-39285714D01*
X22047619Y-39285714D01*
X22095238Y-39261904D01*
X22119047Y-39238095D01*
X22142857Y-39190476D01*
%TO.C,R7*%
X29916666Y-42976190D02*
X29750000Y-42738095D01*
X29630952Y-42976190D02*
X29630952Y-42476190D01*
X29821428Y-42476190D01*
X29869047Y-42500000D01*
X29892857Y-42523809D01*
X29916666Y-42571428D01*
X29916666Y-42642857D01*
X29892857Y-42690476D01*
X29869047Y-42714285D01*
X29821428Y-42738095D01*
X29630952Y-42738095D01*
X30083333Y-42476190D02*
X30416666Y-42476190D01*
X30202380Y-42976190D01*
%TO.C,R6*%
X29916666Y-40726190D02*
X29750000Y-40488095D01*
X29630952Y-40726190D02*
X29630952Y-40226190D01*
X29821428Y-40226190D01*
X29869047Y-40250000D01*
X29892857Y-40273809D01*
X29916666Y-40321428D01*
X29916666Y-40392857D01*
X29892857Y-40440476D01*
X29869047Y-40464285D01*
X29821428Y-40488095D01*
X29630952Y-40488095D01*
X30345238Y-40226190D02*
X30250000Y-40226190D01*
X30202380Y-40250000D01*
X30178571Y-40273809D01*
X30130952Y-40345238D01*
X30107142Y-40440476D01*
X30107142Y-40630952D01*
X30130952Y-40678571D01*
X30154761Y-40702380D01*
X30202380Y-40726190D01*
X30297619Y-40726190D01*
X30345238Y-40702380D01*
X30369047Y-40678571D01*
X30392857Y-40630952D01*
X30392857Y-40511904D01*
X30369047Y-40464285D01*
X30345238Y-40440476D01*
X30297619Y-40416666D01*
X30202380Y-40416666D01*
X30154761Y-40440476D01*
X30130952Y-40464285D01*
X30107142Y-40511904D01*
%TO.C,Q16*%
X39714285Y-44023809D02*
X39666666Y-44000000D01*
X39619047Y-43952380D01*
X39547619Y-43880952D01*
X39500000Y-43857142D01*
X39452380Y-43857142D01*
X39476190Y-43976190D02*
X39428571Y-43952380D01*
X39380952Y-43904761D01*
X39357142Y-43809523D01*
X39357142Y-43642857D01*
X39380952Y-43547619D01*
X39428571Y-43500000D01*
X39476190Y-43476190D01*
X39571428Y-43476190D01*
X39619047Y-43500000D01*
X39666666Y-43547619D01*
X39690476Y-43642857D01*
X39690476Y-43809523D01*
X39666666Y-43904761D01*
X39619047Y-43952380D01*
X39571428Y-43976190D01*
X39476190Y-43976190D01*
X40166666Y-43976190D02*
X39880952Y-43976190D01*
X40023809Y-43976190D02*
X40023809Y-43476190D01*
X39976190Y-43547619D01*
X39928571Y-43595238D01*
X39880952Y-43619047D01*
X40595238Y-43476190D02*
X40500000Y-43476190D01*
X40452380Y-43500000D01*
X40428571Y-43523809D01*
X40380952Y-43595238D01*
X40357142Y-43690476D01*
X40357142Y-43880952D01*
X40380952Y-43928571D01*
X40404761Y-43952380D01*
X40452380Y-43976190D01*
X40547619Y-43976190D01*
X40595238Y-43952380D01*
X40619047Y-43928571D01*
X40642857Y-43880952D01*
X40642857Y-43761904D01*
X40619047Y-43714285D01*
X40595238Y-43690476D01*
X40547619Y-43666666D01*
X40452380Y-43666666D01*
X40404761Y-43690476D01*
X40380952Y-43714285D01*
X40357142Y-43761904D01*
%TO.C,Q15*%
X47464285Y-46773809D02*
X47416666Y-46750000D01*
X47369047Y-46702380D01*
X47297619Y-46630952D01*
X47250000Y-46607142D01*
X47202380Y-46607142D01*
X47226190Y-46726190D02*
X47178571Y-46702380D01*
X47130952Y-46654761D01*
X47107142Y-46559523D01*
X47107142Y-46392857D01*
X47130952Y-46297619D01*
X47178571Y-46250000D01*
X47226190Y-46226190D01*
X47321428Y-46226190D01*
X47369047Y-46250000D01*
X47416666Y-46297619D01*
X47440476Y-46392857D01*
X47440476Y-46559523D01*
X47416666Y-46654761D01*
X47369047Y-46702380D01*
X47321428Y-46726190D01*
X47226190Y-46726190D01*
X47916666Y-46726190D02*
X47630952Y-46726190D01*
X47773809Y-46726190D02*
X47773809Y-46226190D01*
X47726190Y-46297619D01*
X47678571Y-46345238D01*
X47630952Y-46369047D01*
X48369047Y-46226190D02*
X48130952Y-46226190D01*
X48107142Y-46464285D01*
X48130952Y-46440476D01*
X48178571Y-46416666D01*
X48297619Y-46416666D01*
X48345238Y-46440476D01*
X48369047Y-46464285D01*
X48392857Y-46511904D01*
X48392857Y-46630952D01*
X48369047Y-46678571D01*
X48345238Y-46702380D01*
X48297619Y-46726190D01*
X48178571Y-46726190D01*
X48130952Y-46702380D01*
X48107142Y-46678571D01*
%TO.C,Q14*%
X39714285Y-34523809D02*
X39666666Y-34500000D01*
X39619047Y-34452380D01*
X39547619Y-34380952D01*
X39500000Y-34357142D01*
X39452380Y-34357142D01*
X39476190Y-34476190D02*
X39428571Y-34452380D01*
X39380952Y-34404761D01*
X39357142Y-34309523D01*
X39357142Y-34142857D01*
X39380952Y-34047619D01*
X39428571Y-34000000D01*
X39476190Y-33976190D01*
X39571428Y-33976190D01*
X39619047Y-34000000D01*
X39666666Y-34047619D01*
X39690476Y-34142857D01*
X39690476Y-34309523D01*
X39666666Y-34404761D01*
X39619047Y-34452380D01*
X39571428Y-34476190D01*
X39476190Y-34476190D01*
X40166666Y-34476190D02*
X39880952Y-34476190D01*
X40023809Y-34476190D02*
X40023809Y-33976190D01*
X39976190Y-34047619D01*
X39928571Y-34095238D01*
X39880952Y-34119047D01*
X40595238Y-34142857D02*
X40595238Y-34476190D01*
X40476190Y-33952380D02*
X40357142Y-34309523D01*
X40666666Y-34309523D01*
%TO.C,Q13*%
X47464285Y-37273809D02*
X47416666Y-37250000D01*
X47369047Y-37202380D01*
X47297619Y-37130952D01*
X47250000Y-37107142D01*
X47202380Y-37107142D01*
X47226190Y-37226190D02*
X47178571Y-37202380D01*
X47130952Y-37154761D01*
X47107142Y-37059523D01*
X47107142Y-36892857D01*
X47130952Y-36797619D01*
X47178571Y-36750000D01*
X47226190Y-36726190D01*
X47321428Y-36726190D01*
X47369047Y-36750000D01*
X47416666Y-36797619D01*
X47440476Y-36892857D01*
X47440476Y-37059523D01*
X47416666Y-37154761D01*
X47369047Y-37202380D01*
X47321428Y-37226190D01*
X47226190Y-37226190D01*
X47916666Y-37226190D02*
X47630952Y-37226190D01*
X47773809Y-37226190D02*
X47773809Y-36726190D01*
X47726190Y-36797619D01*
X47678571Y-36845238D01*
X47630952Y-36869047D01*
X48083333Y-36726190D02*
X48392857Y-36726190D01*
X48226190Y-36916666D01*
X48297619Y-36916666D01*
X48345238Y-36940476D01*
X48369047Y-36964285D01*
X48392857Y-37011904D01*
X48392857Y-37130952D01*
X48369047Y-37178571D01*
X48345238Y-37202380D01*
X48297619Y-37226190D01*
X48154761Y-37226190D01*
X48107142Y-37202380D01*
X48083333Y-37178571D01*
%TO.C,Q12*%
X30464285Y-53523809D02*
X30416666Y-53500000D01*
X30369047Y-53452380D01*
X30297619Y-53380952D01*
X30250000Y-53357142D01*
X30202380Y-53357142D01*
X30226190Y-53476190D02*
X30178571Y-53452380D01*
X30130952Y-53404761D01*
X30107142Y-53309523D01*
X30107142Y-53142857D01*
X30130952Y-53047619D01*
X30178571Y-53000000D01*
X30226190Y-52976190D01*
X30321428Y-52976190D01*
X30369047Y-53000000D01*
X30416666Y-53047619D01*
X30440476Y-53142857D01*
X30440476Y-53309523D01*
X30416666Y-53404761D01*
X30369047Y-53452380D01*
X30321428Y-53476190D01*
X30226190Y-53476190D01*
X30916666Y-53476190D02*
X30630952Y-53476190D01*
X30773809Y-53476190D02*
X30773809Y-52976190D01*
X30726190Y-53047619D01*
X30678571Y-53095238D01*
X30630952Y-53119047D01*
X31107142Y-53023809D02*
X31130952Y-53000000D01*
X31178571Y-52976190D01*
X31297619Y-52976190D01*
X31345238Y-53000000D01*
X31369047Y-53023809D01*
X31392857Y-53071428D01*
X31392857Y-53119047D01*
X31369047Y-53190476D01*
X31083333Y-53476190D01*
X31392857Y-53476190D01*
%TO.C,Q11*%
X38214285Y-56023809D02*
X38166666Y-56000000D01*
X38119047Y-55952380D01*
X38047619Y-55880952D01*
X38000000Y-55857142D01*
X37952380Y-55857142D01*
X37976190Y-55976190D02*
X37928571Y-55952380D01*
X37880952Y-55904761D01*
X37857142Y-55809523D01*
X37857142Y-55642857D01*
X37880952Y-55547619D01*
X37928571Y-55500000D01*
X37976190Y-55476190D01*
X38071428Y-55476190D01*
X38119047Y-55500000D01*
X38166666Y-55547619D01*
X38190476Y-55642857D01*
X38190476Y-55809523D01*
X38166666Y-55904761D01*
X38119047Y-55952380D01*
X38071428Y-55976190D01*
X37976190Y-55976190D01*
X38666666Y-55976190D02*
X38380952Y-55976190D01*
X38523809Y-55976190D02*
X38523809Y-55476190D01*
X38476190Y-55547619D01*
X38428571Y-55595238D01*
X38380952Y-55619047D01*
X39142857Y-55976190D02*
X38857142Y-55976190D01*
X39000000Y-55976190D02*
X39000000Y-55476190D01*
X38952380Y-55547619D01*
X38904761Y-55595238D01*
X38857142Y-55619047D01*
%TO.C,Q10*%
X30464285Y-44023809D02*
X30416666Y-44000000D01*
X30369047Y-43952380D01*
X30297619Y-43880952D01*
X30250000Y-43857142D01*
X30202380Y-43857142D01*
X30226190Y-43976190D02*
X30178571Y-43952380D01*
X30130952Y-43904761D01*
X30107142Y-43809523D01*
X30107142Y-43642857D01*
X30130952Y-43547619D01*
X30178571Y-43500000D01*
X30226190Y-43476190D01*
X30321428Y-43476190D01*
X30369047Y-43500000D01*
X30416666Y-43547619D01*
X30440476Y-43642857D01*
X30440476Y-43809523D01*
X30416666Y-43904761D01*
X30369047Y-43952380D01*
X30321428Y-43976190D01*
X30226190Y-43976190D01*
X30916666Y-43976190D02*
X30630952Y-43976190D01*
X30773809Y-43976190D02*
X30773809Y-43476190D01*
X30726190Y-43547619D01*
X30678571Y-43595238D01*
X30630952Y-43619047D01*
X31226190Y-43476190D02*
X31273809Y-43476190D01*
X31321428Y-43500000D01*
X31345238Y-43523809D01*
X31369047Y-43571428D01*
X31392857Y-43666666D01*
X31392857Y-43785714D01*
X31369047Y-43880952D01*
X31345238Y-43928571D01*
X31321428Y-43952380D01*
X31273809Y-43976190D01*
X31226190Y-43976190D01*
X31178571Y-43952380D01*
X31154761Y-43928571D01*
X31130952Y-43880952D01*
X31107142Y-43785714D01*
X31107142Y-43666666D01*
X31130952Y-43571428D01*
X31154761Y-43523809D01*
X31178571Y-43500000D01*
X31226190Y-43476190D01*
%TO.C,Q9*%
X38202380Y-46773809D02*
X38154761Y-46750000D01*
X38107142Y-46702380D01*
X38035714Y-46630952D01*
X37988095Y-46607142D01*
X37940476Y-46607142D01*
X37964285Y-46726190D02*
X37916666Y-46702380D01*
X37869047Y-46654761D01*
X37845238Y-46559523D01*
X37845238Y-46392857D01*
X37869047Y-46297619D01*
X37916666Y-46250000D01*
X37964285Y-46226190D01*
X38059523Y-46226190D01*
X38107142Y-46250000D01*
X38154761Y-46297619D01*
X38178571Y-46392857D01*
X38178571Y-46559523D01*
X38154761Y-46654761D01*
X38107142Y-46702380D01*
X38059523Y-46726190D01*
X37964285Y-46726190D01*
X38416666Y-46726190D02*
X38511904Y-46726190D01*
X38559523Y-46702380D01*
X38583333Y-46678571D01*
X38630952Y-46607142D01*
X38654761Y-46511904D01*
X38654761Y-46321428D01*
X38630952Y-46273809D01*
X38607142Y-46250000D01*
X38559523Y-46226190D01*
X38464285Y-46226190D01*
X38416666Y-46250000D01*
X38392857Y-46273809D01*
X38369047Y-46321428D01*
X38369047Y-46440476D01*
X38392857Y-46488095D01*
X38416666Y-46511904D01*
X38464285Y-46535714D01*
X38559523Y-46535714D01*
X38607142Y-46511904D01*
X38630952Y-46488095D01*
X38654761Y-46440476D01*
%TO.C,Q8*%
X30702380Y-34523809D02*
X30654761Y-34500000D01*
X30607142Y-34452380D01*
X30535714Y-34380952D01*
X30488095Y-34357142D01*
X30440476Y-34357142D01*
X30464285Y-34476190D02*
X30416666Y-34452380D01*
X30369047Y-34404761D01*
X30345238Y-34309523D01*
X30345238Y-34142857D01*
X30369047Y-34047619D01*
X30416666Y-34000000D01*
X30464285Y-33976190D01*
X30559523Y-33976190D01*
X30607142Y-34000000D01*
X30654761Y-34047619D01*
X30678571Y-34142857D01*
X30678571Y-34309523D01*
X30654761Y-34404761D01*
X30607142Y-34452380D01*
X30559523Y-34476190D01*
X30464285Y-34476190D01*
X30964285Y-34190476D02*
X30916666Y-34166666D01*
X30892857Y-34142857D01*
X30869047Y-34095238D01*
X30869047Y-34071428D01*
X30892857Y-34023809D01*
X30916666Y-34000000D01*
X30964285Y-33976190D01*
X31059523Y-33976190D01*
X31107142Y-34000000D01*
X31130952Y-34023809D01*
X31154761Y-34071428D01*
X31154761Y-34095238D01*
X31130952Y-34142857D01*
X31107142Y-34166666D01*
X31059523Y-34190476D01*
X30964285Y-34190476D01*
X30916666Y-34214285D01*
X30892857Y-34238095D01*
X30869047Y-34285714D01*
X30869047Y-34380952D01*
X30892857Y-34428571D01*
X30916666Y-34452380D01*
X30964285Y-34476190D01*
X31059523Y-34476190D01*
X31107142Y-34452380D01*
X31130952Y-34428571D01*
X31154761Y-34380952D01*
X31154761Y-34285714D01*
X31130952Y-34238095D01*
X31107142Y-34214285D01*
X31059523Y-34190476D01*
%TO.C,Q7*%
X38202380Y-37273809D02*
X38154761Y-37250000D01*
X38107142Y-37202380D01*
X38035714Y-37130952D01*
X37988095Y-37107142D01*
X37940476Y-37107142D01*
X37964285Y-37226190D02*
X37916666Y-37202380D01*
X37869047Y-37154761D01*
X37845238Y-37059523D01*
X37845238Y-36892857D01*
X37869047Y-36797619D01*
X37916666Y-36750000D01*
X37964285Y-36726190D01*
X38059523Y-36726190D01*
X38107142Y-36750000D01*
X38154761Y-36797619D01*
X38178571Y-36892857D01*
X38178571Y-37059523D01*
X38154761Y-37154761D01*
X38107142Y-37202380D01*
X38059523Y-37226190D01*
X37964285Y-37226190D01*
X38345238Y-36726190D02*
X38678571Y-36726190D01*
X38464285Y-37226190D01*
%TO.C,Q6*%
X21702380Y-53523809D02*
X21654761Y-53500000D01*
X21607142Y-53452380D01*
X21535714Y-53380952D01*
X21488095Y-53357142D01*
X21440476Y-53357142D01*
X21464285Y-53476190D02*
X21416666Y-53452380D01*
X21369047Y-53404761D01*
X21345238Y-53309523D01*
X21345238Y-53142857D01*
X21369047Y-53047619D01*
X21416666Y-53000000D01*
X21464285Y-52976190D01*
X21559523Y-52976190D01*
X21607142Y-53000000D01*
X21654761Y-53047619D01*
X21678571Y-53142857D01*
X21678571Y-53309523D01*
X21654761Y-53404761D01*
X21607142Y-53452380D01*
X21559523Y-53476190D01*
X21464285Y-53476190D01*
X22107142Y-52976190D02*
X22011904Y-52976190D01*
X21964285Y-53000000D01*
X21940476Y-53023809D01*
X21892857Y-53095238D01*
X21869047Y-53190476D01*
X21869047Y-53380952D01*
X21892857Y-53428571D01*
X21916666Y-53452380D01*
X21964285Y-53476190D01*
X22059523Y-53476190D01*
X22107142Y-53452380D01*
X22130952Y-53428571D01*
X22154761Y-53380952D01*
X22154761Y-53261904D01*
X22130952Y-53214285D01*
X22107142Y-53190476D01*
X22059523Y-53166666D01*
X21964285Y-53166666D01*
X21916666Y-53190476D01*
X21892857Y-53214285D01*
X21869047Y-53261904D01*
%TO.C,Q5*%
X29202380Y-56023809D02*
X29154761Y-56000000D01*
X29107142Y-55952380D01*
X29035714Y-55880952D01*
X28988095Y-55857142D01*
X28940476Y-55857142D01*
X28964285Y-55976190D02*
X28916666Y-55952380D01*
X28869047Y-55904761D01*
X28845238Y-55809523D01*
X28845238Y-55642857D01*
X28869047Y-55547619D01*
X28916666Y-55500000D01*
X28964285Y-55476190D01*
X29059523Y-55476190D01*
X29107142Y-55500000D01*
X29154761Y-55547619D01*
X29178571Y-55642857D01*
X29178571Y-55809523D01*
X29154761Y-55904761D01*
X29107142Y-55952380D01*
X29059523Y-55976190D01*
X28964285Y-55976190D01*
X29630952Y-55476190D02*
X29392857Y-55476190D01*
X29369047Y-55714285D01*
X29392857Y-55690476D01*
X29440476Y-55666666D01*
X29559523Y-55666666D01*
X29607142Y-55690476D01*
X29630952Y-55714285D01*
X29654761Y-55761904D01*
X29654761Y-55880952D01*
X29630952Y-55928571D01*
X29607142Y-55952380D01*
X29559523Y-55976190D01*
X29440476Y-55976190D01*
X29392857Y-55952380D01*
X29369047Y-55928571D01*
%TO.C,Q4*%
X21702380Y-44023809D02*
X21654761Y-44000000D01*
X21607142Y-43952380D01*
X21535714Y-43880952D01*
X21488095Y-43857142D01*
X21440476Y-43857142D01*
X21464285Y-43976190D02*
X21416666Y-43952380D01*
X21369047Y-43904761D01*
X21345238Y-43809523D01*
X21345238Y-43642857D01*
X21369047Y-43547619D01*
X21416666Y-43500000D01*
X21464285Y-43476190D01*
X21559523Y-43476190D01*
X21607142Y-43500000D01*
X21654761Y-43547619D01*
X21678571Y-43642857D01*
X21678571Y-43809523D01*
X21654761Y-43904761D01*
X21607142Y-43952380D01*
X21559523Y-43976190D01*
X21464285Y-43976190D01*
X22107142Y-43642857D02*
X22107142Y-43976190D01*
X21988095Y-43452380D02*
X21869047Y-43809523D01*
X22178571Y-43809523D01*
%TO.C,Q3*%
X29202380Y-46773809D02*
X29154761Y-46750000D01*
X29107142Y-46702380D01*
X29035714Y-46630952D01*
X28988095Y-46607142D01*
X28940476Y-46607142D01*
X28964285Y-46726190D02*
X28916666Y-46702380D01*
X28869047Y-46654761D01*
X28845238Y-46559523D01*
X28845238Y-46392857D01*
X28869047Y-46297619D01*
X28916666Y-46250000D01*
X28964285Y-46226190D01*
X29059523Y-46226190D01*
X29107142Y-46250000D01*
X29154761Y-46297619D01*
X29178571Y-46392857D01*
X29178571Y-46559523D01*
X29154761Y-46654761D01*
X29107142Y-46702380D01*
X29059523Y-46726190D01*
X28964285Y-46726190D01*
X29345238Y-46226190D02*
X29654761Y-46226190D01*
X29488095Y-46416666D01*
X29559523Y-46416666D01*
X29607142Y-46440476D01*
X29630952Y-46464285D01*
X29654761Y-46511904D01*
X29654761Y-46630952D01*
X29630952Y-46678571D01*
X29607142Y-46702380D01*
X29559523Y-46726190D01*
X29416666Y-46726190D01*
X29369047Y-46702380D01*
X29345238Y-46678571D01*
%TO.C,R5*%
X21666666Y-32226190D02*
X21500000Y-31988095D01*
X21380952Y-32226190D02*
X21380952Y-31726190D01*
X21571428Y-31726190D01*
X21619047Y-31750000D01*
X21642857Y-31773809D01*
X21666666Y-31821428D01*
X21666666Y-31892857D01*
X21642857Y-31940476D01*
X21619047Y-31964285D01*
X21571428Y-31988095D01*
X21380952Y-31988095D01*
X22119047Y-31726190D02*
X21880952Y-31726190D01*
X21857142Y-31964285D01*
X21880952Y-31940476D01*
X21928571Y-31916666D01*
X22047619Y-31916666D01*
X22095238Y-31940476D01*
X22119047Y-31964285D01*
X22142857Y-32011904D01*
X22142857Y-32130952D01*
X22119047Y-32178571D01*
X22095238Y-32202380D01*
X22047619Y-32226190D01*
X21928571Y-32226190D01*
X21880952Y-32202380D01*
X21857142Y-32178571D01*
%TO.C,R4*%
X21666666Y-29976190D02*
X21500000Y-29738095D01*
X21380952Y-29976190D02*
X21380952Y-29476190D01*
X21571428Y-29476190D01*
X21619047Y-29500000D01*
X21642857Y-29523809D01*
X21666666Y-29571428D01*
X21666666Y-29642857D01*
X21642857Y-29690476D01*
X21619047Y-29714285D01*
X21571428Y-29738095D01*
X21380952Y-29738095D01*
X22095238Y-29642857D02*
X22095238Y-29976190D01*
X21976190Y-29452380D02*
X21857142Y-29809523D01*
X22166666Y-29809523D01*
%TO.C,R2*%
X29916666Y-33476190D02*
X29750000Y-33238095D01*
X29630952Y-33476190D02*
X29630952Y-32976190D01*
X29821428Y-32976190D01*
X29869047Y-33000000D01*
X29892857Y-33023809D01*
X29916666Y-33071428D01*
X29916666Y-33142857D01*
X29892857Y-33190476D01*
X29869047Y-33214285D01*
X29821428Y-33238095D01*
X29630952Y-33238095D01*
X30107142Y-33023809D02*
X30130952Y-33000000D01*
X30178571Y-32976190D01*
X30297619Y-32976190D01*
X30345238Y-33000000D01*
X30369047Y-33023809D01*
X30392857Y-33071428D01*
X30392857Y-33119047D01*
X30369047Y-33190476D01*
X30083333Y-33476190D01*
X30392857Y-33476190D01*
%TO.C,R1*%
X29916666Y-31226190D02*
X29750000Y-30988095D01*
X29630952Y-31226190D02*
X29630952Y-30726190D01*
X29821428Y-30726190D01*
X29869047Y-30750000D01*
X29892857Y-30773809D01*
X29916666Y-30821428D01*
X29916666Y-30892857D01*
X29892857Y-30940476D01*
X29869047Y-30964285D01*
X29821428Y-30988095D01*
X29630952Y-30988095D01*
X30392857Y-31226190D02*
X30107142Y-31226190D01*
X30250000Y-31226190D02*
X30250000Y-30726190D01*
X30202380Y-30797619D01*
X30154761Y-30845238D01*
X30107142Y-30869047D01*
%TO.C,Q2*%
X21702380Y-34523809D02*
X21654761Y-34500000D01*
X21607142Y-34452380D01*
X21535714Y-34380952D01*
X21488095Y-34357142D01*
X21440476Y-34357142D01*
X21464285Y-34476190D02*
X21416666Y-34452380D01*
X21369047Y-34404761D01*
X21345238Y-34309523D01*
X21345238Y-34142857D01*
X21369047Y-34047619D01*
X21416666Y-34000000D01*
X21464285Y-33976190D01*
X21559523Y-33976190D01*
X21607142Y-34000000D01*
X21654761Y-34047619D01*
X21678571Y-34142857D01*
X21678571Y-34309523D01*
X21654761Y-34404761D01*
X21607142Y-34452380D01*
X21559523Y-34476190D01*
X21464285Y-34476190D01*
X21869047Y-34023809D02*
X21892857Y-34000000D01*
X21940476Y-33976190D01*
X22059523Y-33976190D01*
X22107142Y-34000000D01*
X22130952Y-34023809D01*
X22154761Y-34071428D01*
X22154761Y-34119047D01*
X22130952Y-34190476D01*
X21845238Y-34476190D01*
X22154761Y-34476190D01*
%TO.C,Q1*%
X29202380Y-37273809D02*
X29154761Y-37250000D01*
X29107142Y-37202380D01*
X29035714Y-37130952D01*
X28988095Y-37107142D01*
X28940476Y-37107142D01*
X28964285Y-37226190D02*
X28916666Y-37202380D01*
X28869047Y-37154761D01*
X28845238Y-37059523D01*
X28845238Y-36892857D01*
X28869047Y-36797619D01*
X28916666Y-36750000D01*
X28964285Y-36726190D01*
X29059523Y-36726190D01*
X29107142Y-36750000D01*
X29154761Y-36797619D01*
X29178571Y-36892857D01*
X29178571Y-37059523D01*
X29154761Y-37154761D01*
X29107142Y-37202380D01*
X29059523Y-37226190D01*
X28964285Y-37226190D01*
X29654761Y-37226190D02*
X29369047Y-37226190D01*
X29511904Y-37226190D02*
X29511904Y-36726190D01*
X29464285Y-36797619D01*
X29416666Y-36845238D01*
X29369047Y-36869047D01*
%TD*%
%LPC*%
D13*
%TO.C,REF\u002A\u002A*%
X35000000Y-75500000D03*
%TD*%
D14*
%TO.C,J1*%
X26110000Y-67770000D03*
D15*
X26110000Y-65230000D03*
X28650000Y-67770000D03*
X28650000Y-65230000D03*
X31190000Y-67770000D03*
X31190000Y-65230000D03*
X33730000Y-67770000D03*
X33730000Y-65230000D03*
X36270000Y-67770000D03*
X36270000Y-65230000D03*
X38810000Y-67770000D03*
X38810000Y-65230000D03*
X41350000Y-67770000D03*
X41350000Y-65230000D03*
X43890000Y-67770000D03*
X43890000Y-65230000D03*
%TD*%
%TO.C,R38*%
G36*
G01*
X38106002Y-60349000D02*
X37205998Y-60349000D01*
G75*
G02*
X36956000Y-60099002I0J249998D01*
G01*
X36956000Y-59573998D01*
G75*
G02*
X37205998Y-59324000I249998J0D01*
G01*
X38106002Y-59324000D01*
G75*
G02*
X38356000Y-59573998I0J-249998D01*
G01*
X38356000Y-60099002D01*
G75*
G02*
X38106002Y-60349000I-249998J0D01*
G01*
G37*
G36*
G01*
X38106002Y-58524000D02*
X37205998Y-58524000D01*
G75*
G02*
X36956000Y-58274002I0J249998D01*
G01*
X36956000Y-57748998D01*
G75*
G02*
X37205998Y-57499000I249998J0D01*
G01*
X38106002Y-57499000D01*
G75*
G02*
X38356000Y-57748998I0J-249998D01*
G01*
X38356000Y-58274002D01*
G75*
G02*
X38106002Y-58524000I-249998J0D01*
G01*
G37*
%TD*%
%TO.C,R33*%
G36*
G01*
X35906002Y-60336500D02*
X35005998Y-60336500D01*
G75*
G02*
X34756000Y-60086502I0J249998D01*
G01*
X34756000Y-59561498D01*
G75*
G02*
X35005998Y-59311500I249998J0D01*
G01*
X35906002Y-59311500D01*
G75*
G02*
X36156000Y-59561498I0J-249998D01*
G01*
X36156000Y-60086502D01*
G75*
G02*
X35906002Y-60336500I-249998J0D01*
G01*
G37*
G36*
G01*
X35906002Y-58511500D02*
X35005998Y-58511500D01*
G75*
G02*
X34756000Y-58261502I0J249998D01*
G01*
X34756000Y-57736498D01*
G75*
G02*
X35005998Y-57486500I249998J0D01*
G01*
X35906002Y-57486500D01*
G75*
G02*
X36156000Y-57736498I0J-249998D01*
G01*
X36156000Y-58261502D01*
G75*
G02*
X35906002Y-58511500I-249998J0D01*
G01*
G37*
%TD*%
%TO.C,R28*%
G36*
G01*
X33706002Y-60336500D02*
X32805998Y-60336500D01*
G75*
G02*
X32556000Y-60086502I0J249998D01*
G01*
X32556000Y-59561498D01*
G75*
G02*
X32805998Y-59311500I249998J0D01*
G01*
X33706002Y-59311500D01*
G75*
G02*
X33956000Y-59561498I0J-249998D01*
G01*
X33956000Y-60086502D01*
G75*
G02*
X33706002Y-60336500I-249998J0D01*
G01*
G37*
G36*
G01*
X33706002Y-58511500D02*
X32805998Y-58511500D01*
G75*
G02*
X32556000Y-58261502I0J249998D01*
G01*
X32556000Y-57736498D01*
G75*
G02*
X32805998Y-57486500I249998J0D01*
G01*
X33706002Y-57486500D01*
G75*
G02*
X33956000Y-57736498I0J-249998D01*
G01*
X33956000Y-58261502D01*
G75*
G02*
X33706002Y-58511500I-249998J0D01*
G01*
G37*
%TD*%
%TO.C,R23*%
G36*
G01*
X31506002Y-60336500D02*
X30605998Y-60336500D01*
G75*
G02*
X30356000Y-60086502I0J249998D01*
G01*
X30356000Y-59561498D01*
G75*
G02*
X30605998Y-59311500I249998J0D01*
G01*
X31506002Y-59311500D01*
G75*
G02*
X31756000Y-59561498I0J-249998D01*
G01*
X31756000Y-60086502D01*
G75*
G02*
X31506002Y-60336500I-249998J0D01*
G01*
G37*
G36*
G01*
X31506002Y-58511500D02*
X30605998Y-58511500D01*
G75*
G02*
X30356000Y-58261502I0J249998D01*
G01*
X30356000Y-57736498D01*
G75*
G02*
X30605998Y-57486500I249998J0D01*
G01*
X31506002Y-57486500D01*
G75*
G02*
X31756000Y-57736498I0J-249998D01*
G01*
X31756000Y-58261502D01*
G75*
G02*
X31506002Y-58511500I-249998J0D01*
G01*
G37*
%TD*%
%TO.C,R18*%
G36*
G01*
X29306002Y-60361500D02*
X28405998Y-60361500D01*
G75*
G02*
X28156000Y-60111502I0J249998D01*
G01*
X28156000Y-59586498D01*
G75*
G02*
X28405998Y-59336500I249998J0D01*
G01*
X29306002Y-59336500D01*
G75*
G02*
X29556000Y-59586498I0J-249998D01*
G01*
X29556000Y-60111502D01*
G75*
G02*
X29306002Y-60361500I-249998J0D01*
G01*
G37*
G36*
G01*
X29306002Y-58536500D02*
X28405998Y-58536500D01*
G75*
G02*
X28156000Y-58286502I0J249998D01*
G01*
X28156000Y-57761498D01*
G75*
G02*
X28405998Y-57511500I249998J0D01*
G01*
X29306002Y-57511500D01*
G75*
G02*
X29556000Y-57761498I0J-249998D01*
G01*
X29556000Y-58286502D01*
G75*
G02*
X29306002Y-58536500I-249998J0D01*
G01*
G37*
%TD*%
%TO.C,R13*%
G36*
G01*
X27106002Y-60361500D02*
X26205998Y-60361500D01*
G75*
G02*
X25956000Y-60111502I0J249998D01*
G01*
X25956000Y-59586498D01*
G75*
G02*
X26205998Y-59336500I249998J0D01*
G01*
X27106002Y-59336500D01*
G75*
G02*
X27356000Y-59586498I0J-249998D01*
G01*
X27356000Y-60111502D01*
G75*
G02*
X27106002Y-60361500I-249998J0D01*
G01*
G37*
G36*
G01*
X27106002Y-58536500D02*
X26205998Y-58536500D01*
G75*
G02*
X25956000Y-58286502I0J249998D01*
G01*
X25956000Y-57761498D01*
G75*
G02*
X26205998Y-57511500I249998J0D01*
G01*
X27106002Y-57511500D01*
G75*
G02*
X27356000Y-57761498I0J-249998D01*
G01*
X27356000Y-58286502D01*
G75*
G02*
X27106002Y-58536500I-249998J0D01*
G01*
G37*
%TD*%
%TO.C,R8*%
G36*
G01*
X24906002Y-60361500D02*
X24005998Y-60361500D01*
G75*
G02*
X23756000Y-60111502I0J249998D01*
G01*
X23756000Y-59586498D01*
G75*
G02*
X24005998Y-59336500I249998J0D01*
G01*
X24906002Y-59336500D01*
G75*
G02*
X25156000Y-59586498I0J-249998D01*
G01*
X25156000Y-60111502D01*
G75*
G02*
X24906002Y-60361500I-249998J0D01*
G01*
G37*
G36*
G01*
X24906002Y-58536500D02*
X24005998Y-58536500D01*
G75*
G02*
X23756000Y-58286502I0J249998D01*
G01*
X23756000Y-57761498D01*
G75*
G02*
X24005998Y-57511500I249998J0D01*
G01*
X24906002Y-57511500D01*
G75*
G02*
X25156000Y-57761498I0J-249998D01*
G01*
X25156000Y-58286502D01*
G75*
G02*
X24906002Y-58536500I-249998J0D01*
G01*
G37*
%TD*%
%TO.C,R3*%
G36*
G01*
X22706002Y-60361500D02*
X21805998Y-60361500D01*
G75*
G02*
X21556000Y-60111502I0J249998D01*
G01*
X21556000Y-59586498D01*
G75*
G02*
X21805998Y-59336500I249998J0D01*
G01*
X22706002Y-59336500D01*
G75*
G02*
X22956000Y-59586498I0J-249998D01*
G01*
X22956000Y-60111502D01*
G75*
G02*
X22706002Y-60361500I-249998J0D01*
G01*
G37*
G36*
G01*
X22706002Y-58536500D02*
X21805998Y-58536500D01*
G75*
G02*
X21556000Y-58286502I0J249998D01*
G01*
X21556000Y-57761498D01*
G75*
G02*
X21805998Y-57511500I249998J0D01*
G01*
X22706002Y-57511500D01*
G75*
G02*
X22956000Y-57761498I0J-249998D01*
G01*
X22956000Y-58286502D01*
G75*
G02*
X22706002Y-58536500I-249998J0D01*
G01*
G37*
%TD*%
%TO.C,U1*%
G36*
G01*
X47356000Y-51429000D02*
X47356000Y-51129000D01*
G75*
G02*
X47506000Y-50979000I150000J0D01*
G01*
X49156000Y-50979000D01*
G75*
G02*
X49306000Y-51129000I0J-150000D01*
G01*
X49306000Y-51429000D01*
G75*
G02*
X49156000Y-51579000I-150000J0D01*
G01*
X47506000Y-51579000D01*
G75*
G02*
X47356000Y-51429000I0J150000D01*
G01*
G37*
G36*
G01*
X47356000Y-52699000D02*
X47356000Y-52399000D01*
G75*
G02*
X47506000Y-52249000I150000J0D01*
G01*
X49156000Y-52249000D01*
G75*
G02*
X49306000Y-52399000I0J-150000D01*
G01*
X49306000Y-52699000D01*
G75*
G02*
X49156000Y-52849000I-150000J0D01*
G01*
X47506000Y-52849000D01*
G75*
G02*
X47356000Y-52699000I0J150000D01*
G01*
G37*
G36*
G01*
X47356000Y-53969000D02*
X47356000Y-53669000D01*
G75*
G02*
X47506000Y-53519000I150000J0D01*
G01*
X49156000Y-53519000D01*
G75*
G02*
X49306000Y-53669000I0J-150000D01*
G01*
X49306000Y-53969000D01*
G75*
G02*
X49156000Y-54119000I-150000J0D01*
G01*
X47506000Y-54119000D01*
G75*
G02*
X47356000Y-53969000I0J150000D01*
G01*
G37*
G36*
G01*
X47356000Y-55239000D02*
X47356000Y-54939000D01*
G75*
G02*
X47506000Y-54789000I150000J0D01*
G01*
X49156000Y-54789000D01*
G75*
G02*
X49306000Y-54939000I0J-150000D01*
G01*
X49306000Y-55239000D01*
G75*
G02*
X49156000Y-55389000I-150000J0D01*
G01*
X47506000Y-55389000D01*
G75*
G02*
X47356000Y-55239000I0J150000D01*
G01*
G37*
G36*
G01*
X47356000Y-56509000D02*
X47356000Y-56209000D01*
G75*
G02*
X47506000Y-56059000I150000J0D01*
G01*
X49156000Y-56059000D01*
G75*
G02*
X49306000Y-56209000I0J-150000D01*
G01*
X49306000Y-56509000D01*
G75*
G02*
X49156000Y-56659000I-150000J0D01*
G01*
X47506000Y-56659000D01*
G75*
G02*
X47356000Y-56509000I0J150000D01*
G01*
G37*
G36*
G01*
X47356000Y-57779000D02*
X47356000Y-57479000D01*
G75*
G02*
X47506000Y-57329000I150000J0D01*
G01*
X49156000Y-57329000D01*
G75*
G02*
X49306000Y-57479000I0J-150000D01*
G01*
X49306000Y-57779000D01*
G75*
G02*
X49156000Y-57929000I-150000J0D01*
G01*
X47506000Y-57929000D01*
G75*
G02*
X47356000Y-57779000I0J150000D01*
G01*
G37*
G36*
G01*
X47356000Y-59049000D02*
X47356000Y-58749000D01*
G75*
G02*
X47506000Y-58599000I150000J0D01*
G01*
X49156000Y-58599000D01*
G75*
G02*
X49306000Y-58749000I0J-150000D01*
G01*
X49306000Y-59049000D01*
G75*
G02*
X49156000Y-59199000I-150000J0D01*
G01*
X47506000Y-59199000D01*
G75*
G02*
X47356000Y-59049000I0J150000D01*
G01*
G37*
G36*
G01*
X47356000Y-60319000D02*
X47356000Y-60019000D01*
G75*
G02*
X47506000Y-59869000I150000J0D01*
G01*
X49156000Y-59869000D01*
G75*
G02*
X49306000Y-60019000I0J-150000D01*
G01*
X49306000Y-60319000D01*
G75*
G02*
X49156000Y-60469000I-150000J0D01*
G01*
X47506000Y-60469000D01*
G75*
G02*
X47356000Y-60319000I0J150000D01*
G01*
G37*
G36*
G01*
X42406000Y-60319000D02*
X42406000Y-60019000D01*
G75*
G02*
X42556000Y-59869000I150000J0D01*
G01*
X44206000Y-59869000D01*
G75*
G02*
X44356000Y-60019000I0J-150000D01*
G01*
X44356000Y-60319000D01*
G75*
G02*
X44206000Y-60469000I-150000J0D01*
G01*
X42556000Y-60469000D01*
G75*
G02*
X42406000Y-60319000I0J150000D01*
G01*
G37*
G36*
G01*
X42406000Y-59049000D02*
X42406000Y-58749000D01*
G75*
G02*
X42556000Y-58599000I150000J0D01*
G01*
X44206000Y-58599000D01*
G75*
G02*
X44356000Y-58749000I0J-150000D01*
G01*
X44356000Y-59049000D01*
G75*
G02*
X44206000Y-59199000I-150000J0D01*
G01*
X42556000Y-59199000D01*
G75*
G02*
X42406000Y-59049000I0J150000D01*
G01*
G37*
G36*
G01*
X42406000Y-57779000D02*
X42406000Y-57479000D01*
G75*
G02*
X42556000Y-57329000I150000J0D01*
G01*
X44206000Y-57329000D01*
G75*
G02*
X44356000Y-57479000I0J-150000D01*
G01*
X44356000Y-57779000D01*
G75*
G02*
X44206000Y-57929000I-150000J0D01*
G01*
X42556000Y-57929000D01*
G75*
G02*
X42406000Y-57779000I0J150000D01*
G01*
G37*
G36*
G01*
X42406000Y-56509000D02*
X42406000Y-56209000D01*
G75*
G02*
X42556000Y-56059000I150000J0D01*
G01*
X44206000Y-56059000D01*
G75*
G02*
X44356000Y-56209000I0J-150000D01*
G01*
X44356000Y-56509000D01*
G75*
G02*
X44206000Y-56659000I-150000J0D01*
G01*
X42556000Y-56659000D01*
G75*
G02*
X42406000Y-56509000I0J150000D01*
G01*
G37*
G36*
G01*
X42406000Y-55239000D02*
X42406000Y-54939000D01*
G75*
G02*
X42556000Y-54789000I150000J0D01*
G01*
X44206000Y-54789000D01*
G75*
G02*
X44356000Y-54939000I0J-150000D01*
G01*
X44356000Y-55239000D01*
G75*
G02*
X44206000Y-55389000I-150000J0D01*
G01*
X42556000Y-55389000D01*
G75*
G02*
X42406000Y-55239000I0J150000D01*
G01*
G37*
G36*
G01*
X42406000Y-53969000D02*
X42406000Y-53669000D01*
G75*
G02*
X42556000Y-53519000I150000J0D01*
G01*
X44206000Y-53519000D01*
G75*
G02*
X44356000Y-53669000I0J-150000D01*
G01*
X44356000Y-53969000D01*
G75*
G02*
X44206000Y-54119000I-150000J0D01*
G01*
X42556000Y-54119000D01*
G75*
G02*
X42406000Y-53969000I0J150000D01*
G01*
G37*
G36*
G01*
X42406000Y-52699000D02*
X42406000Y-52399000D01*
G75*
G02*
X42556000Y-52249000I150000J0D01*
G01*
X44206000Y-52249000D01*
G75*
G02*
X44356000Y-52399000I0J-150000D01*
G01*
X44356000Y-52699000D01*
G75*
G02*
X44206000Y-52849000I-150000J0D01*
G01*
X42556000Y-52849000D01*
G75*
G02*
X42406000Y-52699000I0J150000D01*
G01*
G37*
G36*
G01*
X42406000Y-51429000D02*
X42406000Y-51129000D01*
G75*
G02*
X42556000Y-50979000I150000J0D01*
G01*
X44206000Y-50979000D01*
G75*
G02*
X44356000Y-51129000I0J-150000D01*
G01*
X44356000Y-51429000D01*
G75*
G02*
X44206000Y-51579000I-150000J0D01*
G01*
X42556000Y-51579000D01*
G75*
G02*
X42406000Y-51429000I0J150000D01*
G01*
G37*
%TD*%
%TO.C,R40*%
G36*
G01*
X42800000Y-42550002D02*
X42800000Y-41649998D01*
G75*
G02*
X43049998Y-41400000I249998J0D01*
G01*
X43575002Y-41400000D01*
G75*
G02*
X43825000Y-41649998I0J-249998D01*
G01*
X43825000Y-42550002D01*
G75*
G02*
X43575002Y-42800000I-249998J0D01*
G01*
X43049998Y-42800000D01*
G75*
G02*
X42800000Y-42550002I0J249998D01*
G01*
G37*
G36*
G01*
X40975000Y-42550002D02*
X40975000Y-41649998D01*
G75*
G02*
X41224998Y-41400000I249998J0D01*
G01*
X41750002Y-41400000D01*
G75*
G02*
X42000000Y-41649998I0J-249998D01*
G01*
X42000000Y-42550002D01*
G75*
G02*
X41750002Y-42800000I-249998J0D01*
G01*
X41224998Y-42800000D01*
G75*
G02*
X40975000Y-42550002I0J249998D01*
G01*
G37*
%TD*%
%TO.C,R39*%
G36*
G01*
X42800000Y-40300002D02*
X42800000Y-39399998D01*
G75*
G02*
X43049998Y-39150000I249998J0D01*
G01*
X43575002Y-39150000D01*
G75*
G02*
X43825000Y-39399998I0J-249998D01*
G01*
X43825000Y-40300002D01*
G75*
G02*
X43575002Y-40550000I-249998J0D01*
G01*
X43049998Y-40550000D01*
G75*
G02*
X42800000Y-40300002I0J249998D01*
G01*
G37*
G36*
G01*
X40975000Y-40300002D02*
X40975000Y-39399998D01*
G75*
G02*
X41224998Y-39150000I249998J0D01*
G01*
X41750002Y-39150000D01*
G75*
G02*
X42000000Y-39399998I0J-249998D01*
G01*
X42000000Y-40300002D01*
G75*
G02*
X41750002Y-40550000I-249998J0D01*
G01*
X41224998Y-40550000D01*
G75*
G02*
X40975000Y-40300002I0J249998D01*
G01*
G37*
%TD*%
%TO.C,R37*%
G36*
G01*
X46550000Y-42550002D02*
X46550000Y-41649998D01*
G75*
G02*
X46799998Y-41400000I249998J0D01*
G01*
X47325002Y-41400000D01*
G75*
G02*
X47575000Y-41649998I0J-249998D01*
G01*
X47575000Y-42550002D01*
G75*
G02*
X47325002Y-42800000I-249998J0D01*
G01*
X46799998Y-42800000D01*
G75*
G02*
X46550000Y-42550002I0J249998D01*
G01*
G37*
G36*
G01*
X44725000Y-42550002D02*
X44725000Y-41649998D01*
G75*
G02*
X44974998Y-41400000I249998J0D01*
G01*
X45500002Y-41400000D01*
G75*
G02*
X45750000Y-41649998I0J-249998D01*
G01*
X45750000Y-42550002D01*
G75*
G02*
X45500002Y-42800000I-249998J0D01*
G01*
X44974998Y-42800000D01*
G75*
G02*
X44725000Y-42550002I0J249998D01*
G01*
G37*
%TD*%
%TO.C,R36*%
G36*
G01*
X46550000Y-40300002D02*
X46550000Y-39399998D01*
G75*
G02*
X46799998Y-39150000I249998J0D01*
G01*
X47325002Y-39150000D01*
G75*
G02*
X47575000Y-39399998I0J-249998D01*
G01*
X47575000Y-40300002D01*
G75*
G02*
X47325002Y-40550000I-249998J0D01*
G01*
X46799998Y-40550000D01*
G75*
G02*
X46550000Y-40300002I0J249998D01*
G01*
G37*
G36*
G01*
X44725000Y-40300002D02*
X44725000Y-39399998D01*
G75*
G02*
X44974998Y-39150000I249998J0D01*
G01*
X45500002Y-39150000D01*
G75*
G02*
X45750000Y-39399998I0J-249998D01*
G01*
X45750000Y-40300002D01*
G75*
G02*
X45500002Y-40550000I-249998J0D01*
G01*
X44974998Y-40550000D01*
G75*
G02*
X44725000Y-40300002I0J249998D01*
G01*
G37*
%TD*%
%TO.C,R35*%
G36*
G01*
X42800000Y-33100002D02*
X42800000Y-32199998D01*
G75*
G02*
X43049998Y-31950000I249998J0D01*
G01*
X43575002Y-31950000D01*
G75*
G02*
X43825000Y-32199998I0J-249998D01*
G01*
X43825000Y-33100002D01*
G75*
G02*
X43575002Y-33350000I-249998J0D01*
G01*
X43049998Y-33350000D01*
G75*
G02*
X42800000Y-33100002I0J249998D01*
G01*
G37*
G36*
G01*
X40975000Y-33100002D02*
X40975000Y-32199998D01*
G75*
G02*
X41224998Y-31950000I249998J0D01*
G01*
X41750002Y-31950000D01*
G75*
G02*
X42000000Y-32199998I0J-249998D01*
G01*
X42000000Y-33100002D01*
G75*
G02*
X41750002Y-33350000I-249998J0D01*
G01*
X41224998Y-33350000D01*
G75*
G02*
X40975000Y-33100002I0J249998D01*
G01*
G37*
%TD*%
%TO.C,R34*%
G36*
G01*
X42800000Y-30850002D02*
X42800000Y-29949998D01*
G75*
G02*
X43049998Y-29700000I249998J0D01*
G01*
X43575002Y-29700000D01*
G75*
G02*
X43825000Y-29949998I0J-249998D01*
G01*
X43825000Y-30850002D01*
G75*
G02*
X43575002Y-31100000I-249998J0D01*
G01*
X43049998Y-31100000D01*
G75*
G02*
X42800000Y-30850002I0J249998D01*
G01*
G37*
G36*
G01*
X40975000Y-30850002D02*
X40975000Y-29949998D01*
G75*
G02*
X41224998Y-29700000I249998J0D01*
G01*
X41750002Y-29700000D01*
G75*
G02*
X42000000Y-29949998I0J-249998D01*
G01*
X42000000Y-30850002D01*
G75*
G02*
X41750002Y-31100000I-249998J0D01*
G01*
X41224998Y-31100000D01*
G75*
G02*
X40975000Y-30850002I0J249998D01*
G01*
G37*
%TD*%
%TO.C,R32*%
G36*
G01*
X46550000Y-33100002D02*
X46550000Y-32199998D01*
G75*
G02*
X46799998Y-31950000I249998J0D01*
G01*
X47325002Y-31950000D01*
G75*
G02*
X47575000Y-32199998I0J-249998D01*
G01*
X47575000Y-33100002D01*
G75*
G02*
X47325002Y-33350000I-249998J0D01*
G01*
X46799998Y-33350000D01*
G75*
G02*
X46550000Y-33100002I0J249998D01*
G01*
G37*
G36*
G01*
X44725000Y-33100002D02*
X44725000Y-32199998D01*
G75*
G02*
X44974998Y-31950000I249998J0D01*
G01*
X45500002Y-31950000D01*
G75*
G02*
X45750000Y-32199998I0J-249998D01*
G01*
X45750000Y-33100002D01*
G75*
G02*
X45500002Y-33350000I-249998J0D01*
G01*
X44974998Y-33350000D01*
G75*
G02*
X44725000Y-33100002I0J249998D01*
G01*
G37*
%TD*%
%TO.C,R31*%
G36*
G01*
X46550000Y-30850002D02*
X46550000Y-29949998D01*
G75*
G02*
X46799998Y-29700000I249998J0D01*
G01*
X47325002Y-29700000D01*
G75*
G02*
X47575000Y-29949998I0J-249998D01*
G01*
X47575000Y-30850002D01*
G75*
G02*
X47325002Y-31100000I-249998J0D01*
G01*
X46799998Y-31100000D01*
G75*
G02*
X46550000Y-30850002I0J249998D01*
G01*
G37*
G36*
G01*
X44725000Y-30850002D02*
X44725000Y-29949998D01*
G75*
G02*
X44974998Y-29700000I249998J0D01*
G01*
X45500002Y-29700000D01*
G75*
G02*
X45750000Y-29949998I0J-249998D01*
G01*
X45750000Y-30850002D01*
G75*
G02*
X45500002Y-31100000I-249998J0D01*
G01*
X44974998Y-31100000D01*
G75*
G02*
X44725000Y-30850002I0J249998D01*
G01*
G37*
%TD*%
%TO.C,R30*%
G36*
G01*
X33550000Y-52000002D02*
X33550000Y-51099998D01*
G75*
G02*
X33799998Y-50850000I249998J0D01*
G01*
X34325002Y-50850000D01*
G75*
G02*
X34575000Y-51099998I0J-249998D01*
G01*
X34575000Y-52000002D01*
G75*
G02*
X34325002Y-52250000I-249998J0D01*
G01*
X33799998Y-52250000D01*
G75*
G02*
X33550000Y-52000002I0J249998D01*
G01*
G37*
G36*
G01*
X31725000Y-52000002D02*
X31725000Y-51099998D01*
G75*
G02*
X31974998Y-50850000I249998J0D01*
G01*
X32500002Y-50850000D01*
G75*
G02*
X32750000Y-51099998I0J-249998D01*
G01*
X32750000Y-52000002D01*
G75*
G02*
X32500002Y-52250000I-249998J0D01*
G01*
X31974998Y-52250000D01*
G75*
G02*
X31725000Y-52000002I0J249998D01*
G01*
G37*
%TD*%
%TO.C,R29*%
G36*
G01*
X33550000Y-49750002D02*
X33550000Y-48849998D01*
G75*
G02*
X33799998Y-48600000I249998J0D01*
G01*
X34325002Y-48600000D01*
G75*
G02*
X34575000Y-48849998I0J-249998D01*
G01*
X34575000Y-49750002D01*
G75*
G02*
X34325002Y-50000000I-249998J0D01*
G01*
X33799998Y-50000000D01*
G75*
G02*
X33550000Y-49750002I0J249998D01*
G01*
G37*
G36*
G01*
X31725000Y-49750002D02*
X31725000Y-48849998D01*
G75*
G02*
X31974998Y-48600000I249998J0D01*
G01*
X32500002Y-48600000D01*
G75*
G02*
X32750000Y-48849998I0J-249998D01*
G01*
X32750000Y-49750002D01*
G75*
G02*
X32500002Y-50000000I-249998J0D01*
G01*
X31974998Y-50000000D01*
G75*
G02*
X31725000Y-49750002I0J249998D01*
G01*
G37*
%TD*%
%TO.C,R27*%
G36*
G01*
X37300000Y-52000002D02*
X37300000Y-51099998D01*
G75*
G02*
X37549998Y-50850000I249998J0D01*
G01*
X38075002Y-50850000D01*
G75*
G02*
X38325000Y-51099998I0J-249998D01*
G01*
X38325000Y-52000002D01*
G75*
G02*
X38075002Y-52250000I-249998J0D01*
G01*
X37549998Y-52250000D01*
G75*
G02*
X37300000Y-52000002I0J249998D01*
G01*
G37*
G36*
G01*
X35475000Y-52000002D02*
X35475000Y-51099998D01*
G75*
G02*
X35724998Y-50850000I249998J0D01*
G01*
X36250002Y-50850000D01*
G75*
G02*
X36500000Y-51099998I0J-249998D01*
G01*
X36500000Y-52000002D01*
G75*
G02*
X36250002Y-52250000I-249998J0D01*
G01*
X35724998Y-52250000D01*
G75*
G02*
X35475000Y-52000002I0J249998D01*
G01*
G37*
%TD*%
%TO.C,R26*%
G36*
G01*
X37300000Y-49750002D02*
X37300000Y-48849998D01*
G75*
G02*
X37549998Y-48600000I249998J0D01*
G01*
X38075002Y-48600000D01*
G75*
G02*
X38325000Y-48849998I0J-249998D01*
G01*
X38325000Y-49750002D01*
G75*
G02*
X38075002Y-50000000I-249998J0D01*
G01*
X37549998Y-50000000D01*
G75*
G02*
X37300000Y-49750002I0J249998D01*
G01*
G37*
G36*
G01*
X35475000Y-49750002D02*
X35475000Y-48849998D01*
G75*
G02*
X35724998Y-48600000I249998J0D01*
G01*
X36250002Y-48600000D01*
G75*
G02*
X36500000Y-48849998I0J-249998D01*
G01*
X36500000Y-49750002D01*
G75*
G02*
X36250002Y-50000000I-249998J0D01*
G01*
X35724998Y-50000000D01*
G75*
G02*
X35475000Y-49750002I0J249998D01*
G01*
G37*
%TD*%
%TO.C,R25*%
G36*
G01*
X33550000Y-42550002D02*
X33550000Y-41649998D01*
G75*
G02*
X33799998Y-41400000I249998J0D01*
G01*
X34325002Y-41400000D01*
G75*
G02*
X34575000Y-41649998I0J-249998D01*
G01*
X34575000Y-42550002D01*
G75*
G02*
X34325002Y-42800000I-249998J0D01*
G01*
X33799998Y-42800000D01*
G75*
G02*
X33550000Y-42550002I0J249998D01*
G01*
G37*
G36*
G01*
X31725000Y-42550002D02*
X31725000Y-41649998D01*
G75*
G02*
X31974998Y-41400000I249998J0D01*
G01*
X32500002Y-41400000D01*
G75*
G02*
X32750000Y-41649998I0J-249998D01*
G01*
X32750000Y-42550002D01*
G75*
G02*
X32500002Y-42800000I-249998J0D01*
G01*
X31974998Y-42800000D01*
G75*
G02*
X31725000Y-42550002I0J249998D01*
G01*
G37*
%TD*%
%TO.C,R24*%
G36*
G01*
X33550000Y-40300002D02*
X33550000Y-39399998D01*
G75*
G02*
X33799998Y-39150000I249998J0D01*
G01*
X34325002Y-39150000D01*
G75*
G02*
X34575000Y-39399998I0J-249998D01*
G01*
X34575000Y-40300002D01*
G75*
G02*
X34325002Y-40550000I-249998J0D01*
G01*
X33799998Y-40550000D01*
G75*
G02*
X33550000Y-40300002I0J249998D01*
G01*
G37*
G36*
G01*
X31725000Y-40300002D02*
X31725000Y-39399998D01*
G75*
G02*
X31974998Y-39150000I249998J0D01*
G01*
X32500002Y-39150000D01*
G75*
G02*
X32750000Y-39399998I0J-249998D01*
G01*
X32750000Y-40300002D01*
G75*
G02*
X32500002Y-40550000I-249998J0D01*
G01*
X31974998Y-40550000D01*
G75*
G02*
X31725000Y-40300002I0J249998D01*
G01*
G37*
%TD*%
%TO.C,R22*%
G36*
G01*
X37300000Y-42550002D02*
X37300000Y-41649998D01*
G75*
G02*
X37549998Y-41400000I249998J0D01*
G01*
X38075002Y-41400000D01*
G75*
G02*
X38325000Y-41649998I0J-249998D01*
G01*
X38325000Y-42550002D01*
G75*
G02*
X38075002Y-42800000I-249998J0D01*
G01*
X37549998Y-42800000D01*
G75*
G02*
X37300000Y-42550002I0J249998D01*
G01*
G37*
G36*
G01*
X35475000Y-42550002D02*
X35475000Y-41649998D01*
G75*
G02*
X35724998Y-41400000I249998J0D01*
G01*
X36250002Y-41400000D01*
G75*
G02*
X36500000Y-41649998I0J-249998D01*
G01*
X36500000Y-42550002D01*
G75*
G02*
X36250002Y-42800000I-249998J0D01*
G01*
X35724998Y-42800000D01*
G75*
G02*
X35475000Y-42550002I0J249998D01*
G01*
G37*
%TD*%
%TO.C,R21*%
G36*
G01*
X37300000Y-40300002D02*
X37300000Y-39399998D01*
G75*
G02*
X37549998Y-39150000I249998J0D01*
G01*
X38075002Y-39150000D01*
G75*
G02*
X38325000Y-39399998I0J-249998D01*
G01*
X38325000Y-40300002D01*
G75*
G02*
X38075002Y-40550000I-249998J0D01*
G01*
X37549998Y-40550000D01*
G75*
G02*
X37300000Y-40300002I0J249998D01*
G01*
G37*
G36*
G01*
X35475000Y-40300002D02*
X35475000Y-39399998D01*
G75*
G02*
X35724998Y-39150000I249998J0D01*
G01*
X36250002Y-39150000D01*
G75*
G02*
X36500000Y-39399998I0J-249998D01*
G01*
X36500000Y-40300002D01*
G75*
G02*
X36250002Y-40550000I-249998J0D01*
G01*
X35724998Y-40550000D01*
G75*
G02*
X35475000Y-40300002I0J249998D01*
G01*
G37*
%TD*%
%TO.C,R20*%
G36*
G01*
X33550000Y-33100002D02*
X33550000Y-32199998D01*
G75*
G02*
X33799998Y-31950000I249998J0D01*
G01*
X34325002Y-31950000D01*
G75*
G02*
X34575000Y-32199998I0J-249998D01*
G01*
X34575000Y-33100002D01*
G75*
G02*
X34325002Y-33350000I-249998J0D01*
G01*
X33799998Y-33350000D01*
G75*
G02*
X33550000Y-33100002I0J249998D01*
G01*
G37*
G36*
G01*
X31725000Y-33100002D02*
X31725000Y-32199998D01*
G75*
G02*
X31974998Y-31950000I249998J0D01*
G01*
X32500002Y-31950000D01*
G75*
G02*
X32750000Y-32199998I0J-249998D01*
G01*
X32750000Y-33100002D01*
G75*
G02*
X32500002Y-33350000I-249998J0D01*
G01*
X31974998Y-33350000D01*
G75*
G02*
X31725000Y-33100002I0J249998D01*
G01*
G37*
%TD*%
%TO.C,R19*%
G36*
G01*
X33550000Y-30850002D02*
X33550000Y-29949998D01*
G75*
G02*
X33799998Y-29700000I249998J0D01*
G01*
X34325002Y-29700000D01*
G75*
G02*
X34575000Y-29949998I0J-249998D01*
G01*
X34575000Y-30850002D01*
G75*
G02*
X34325002Y-31100000I-249998J0D01*
G01*
X33799998Y-31100000D01*
G75*
G02*
X33550000Y-30850002I0J249998D01*
G01*
G37*
G36*
G01*
X31725000Y-30850002D02*
X31725000Y-29949998D01*
G75*
G02*
X31974998Y-29700000I249998J0D01*
G01*
X32500002Y-29700000D01*
G75*
G02*
X32750000Y-29949998I0J-249998D01*
G01*
X32750000Y-30850002D01*
G75*
G02*
X32500002Y-31100000I-249998J0D01*
G01*
X31974998Y-31100000D01*
G75*
G02*
X31725000Y-30850002I0J249998D01*
G01*
G37*
%TD*%
%TO.C,R17*%
G36*
G01*
X37300000Y-33100002D02*
X37300000Y-32199998D01*
G75*
G02*
X37549998Y-31950000I249998J0D01*
G01*
X38075002Y-31950000D01*
G75*
G02*
X38325000Y-32199998I0J-249998D01*
G01*
X38325000Y-33100002D01*
G75*
G02*
X38075002Y-33350000I-249998J0D01*
G01*
X37549998Y-33350000D01*
G75*
G02*
X37300000Y-33100002I0J249998D01*
G01*
G37*
G36*
G01*
X35475000Y-33100002D02*
X35475000Y-32199998D01*
G75*
G02*
X35724998Y-31950000I249998J0D01*
G01*
X36250002Y-31950000D01*
G75*
G02*
X36500000Y-32199998I0J-249998D01*
G01*
X36500000Y-33100002D01*
G75*
G02*
X36250002Y-33350000I-249998J0D01*
G01*
X35724998Y-33350000D01*
G75*
G02*
X35475000Y-33100002I0J249998D01*
G01*
G37*
%TD*%
%TO.C,R16*%
G36*
G01*
X37300000Y-30850002D02*
X37300000Y-29949998D01*
G75*
G02*
X37549998Y-29700000I249998J0D01*
G01*
X38075002Y-29700000D01*
G75*
G02*
X38325000Y-29949998I0J-249998D01*
G01*
X38325000Y-30850002D01*
G75*
G02*
X38075002Y-31100000I-249998J0D01*
G01*
X37549998Y-31100000D01*
G75*
G02*
X37300000Y-30850002I0J249998D01*
G01*
G37*
G36*
G01*
X35475000Y-30850002D02*
X35475000Y-29949998D01*
G75*
G02*
X35724998Y-29700000I249998J0D01*
G01*
X36250002Y-29700000D01*
G75*
G02*
X36500000Y-29949998I0J-249998D01*
G01*
X36500000Y-30850002D01*
G75*
G02*
X36250002Y-31100000I-249998J0D01*
G01*
X35724998Y-31100000D01*
G75*
G02*
X35475000Y-30850002I0J249998D01*
G01*
G37*
%TD*%
%TO.C,R15*%
G36*
G01*
X24400000Y-52000002D02*
X24400000Y-51099998D01*
G75*
G02*
X24649998Y-50850000I249998J0D01*
G01*
X25175002Y-50850000D01*
G75*
G02*
X25425000Y-51099998I0J-249998D01*
G01*
X25425000Y-52000002D01*
G75*
G02*
X25175002Y-52250000I-249998J0D01*
G01*
X24649998Y-52250000D01*
G75*
G02*
X24400000Y-52000002I0J249998D01*
G01*
G37*
G36*
G01*
X22575000Y-52000002D02*
X22575000Y-51099998D01*
G75*
G02*
X22824998Y-50850000I249998J0D01*
G01*
X23350002Y-50850000D01*
G75*
G02*
X23600000Y-51099998I0J-249998D01*
G01*
X23600000Y-52000002D01*
G75*
G02*
X23350002Y-52250000I-249998J0D01*
G01*
X22824998Y-52250000D01*
G75*
G02*
X22575000Y-52000002I0J249998D01*
G01*
G37*
%TD*%
%TO.C,R14*%
G36*
G01*
X24400000Y-49750002D02*
X24400000Y-48849998D01*
G75*
G02*
X24649998Y-48600000I249998J0D01*
G01*
X25175002Y-48600000D01*
G75*
G02*
X25425000Y-48849998I0J-249998D01*
G01*
X25425000Y-49750002D01*
G75*
G02*
X25175002Y-50000000I-249998J0D01*
G01*
X24649998Y-50000000D01*
G75*
G02*
X24400000Y-49750002I0J249998D01*
G01*
G37*
G36*
G01*
X22575000Y-49750002D02*
X22575000Y-48849998D01*
G75*
G02*
X22824998Y-48600000I249998J0D01*
G01*
X23350002Y-48600000D01*
G75*
G02*
X23600000Y-48849998I0J-249998D01*
G01*
X23600000Y-49750002D01*
G75*
G02*
X23350002Y-50000000I-249998J0D01*
G01*
X22824998Y-50000000D01*
G75*
G02*
X22575000Y-49750002I0J249998D01*
G01*
G37*
%TD*%
%TO.C,R12*%
G36*
G01*
X28150000Y-52000002D02*
X28150000Y-51099998D01*
G75*
G02*
X28399998Y-50850000I249998J0D01*
G01*
X28925002Y-50850000D01*
G75*
G02*
X29175000Y-51099998I0J-249998D01*
G01*
X29175000Y-52000002D01*
G75*
G02*
X28925002Y-52250000I-249998J0D01*
G01*
X28399998Y-52250000D01*
G75*
G02*
X28150000Y-52000002I0J249998D01*
G01*
G37*
G36*
G01*
X26325000Y-52000002D02*
X26325000Y-51099998D01*
G75*
G02*
X26574998Y-50850000I249998J0D01*
G01*
X27100002Y-50850000D01*
G75*
G02*
X27350000Y-51099998I0J-249998D01*
G01*
X27350000Y-52000002D01*
G75*
G02*
X27100002Y-52250000I-249998J0D01*
G01*
X26574998Y-52250000D01*
G75*
G02*
X26325000Y-52000002I0J249998D01*
G01*
G37*
%TD*%
%TO.C,R11*%
G36*
G01*
X28150000Y-49750002D02*
X28150000Y-48849998D01*
G75*
G02*
X28399998Y-48600000I249998J0D01*
G01*
X28925002Y-48600000D01*
G75*
G02*
X29175000Y-48849998I0J-249998D01*
G01*
X29175000Y-49750002D01*
G75*
G02*
X28925002Y-50000000I-249998J0D01*
G01*
X28399998Y-50000000D01*
G75*
G02*
X28150000Y-49750002I0J249998D01*
G01*
G37*
G36*
G01*
X26325000Y-49750002D02*
X26325000Y-48849998D01*
G75*
G02*
X26574998Y-48600000I249998J0D01*
G01*
X27100002Y-48600000D01*
G75*
G02*
X27350000Y-48849998I0J-249998D01*
G01*
X27350000Y-49750002D01*
G75*
G02*
X27100002Y-50000000I-249998J0D01*
G01*
X26574998Y-50000000D01*
G75*
G02*
X26325000Y-49750002I0J249998D01*
G01*
G37*
%TD*%
%TO.C,R10*%
G36*
G01*
X24400000Y-42550002D02*
X24400000Y-41649998D01*
G75*
G02*
X24649998Y-41400000I249998J0D01*
G01*
X25175002Y-41400000D01*
G75*
G02*
X25425000Y-41649998I0J-249998D01*
G01*
X25425000Y-42550002D01*
G75*
G02*
X25175002Y-42800000I-249998J0D01*
G01*
X24649998Y-42800000D01*
G75*
G02*
X24400000Y-42550002I0J249998D01*
G01*
G37*
G36*
G01*
X22575000Y-42550002D02*
X22575000Y-41649998D01*
G75*
G02*
X22824998Y-41400000I249998J0D01*
G01*
X23350002Y-41400000D01*
G75*
G02*
X23600000Y-41649998I0J-249998D01*
G01*
X23600000Y-42550002D01*
G75*
G02*
X23350002Y-42800000I-249998J0D01*
G01*
X22824998Y-42800000D01*
G75*
G02*
X22575000Y-42550002I0J249998D01*
G01*
G37*
%TD*%
%TO.C,R9*%
G36*
G01*
X24400000Y-40300002D02*
X24400000Y-39399998D01*
G75*
G02*
X24649998Y-39150000I249998J0D01*
G01*
X25175002Y-39150000D01*
G75*
G02*
X25425000Y-39399998I0J-249998D01*
G01*
X25425000Y-40300002D01*
G75*
G02*
X25175002Y-40550000I-249998J0D01*
G01*
X24649998Y-40550000D01*
G75*
G02*
X24400000Y-40300002I0J249998D01*
G01*
G37*
G36*
G01*
X22575000Y-40300002D02*
X22575000Y-39399998D01*
G75*
G02*
X22824998Y-39150000I249998J0D01*
G01*
X23350002Y-39150000D01*
G75*
G02*
X23600000Y-39399998I0J-249998D01*
G01*
X23600000Y-40300002D01*
G75*
G02*
X23350002Y-40550000I-249998J0D01*
G01*
X22824998Y-40550000D01*
G75*
G02*
X22575000Y-40300002I0J249998D01*
G01*
G37*
%TD*%
%TO.C,R7*%
G36*
G01*
X28150000Y-42550002D02*
X28150000Y-41649998D01*
G75*
G02*
X28399998Y-41400000I249998J0D01*
G01*
X28925002Y-41400000D01*
G75*
G02*
X29175000Y-41649998I0J-249998D01*
G01*
X29175000Y-42550002D01*
G75*
G02*
X28925002Y-42800000I-249998J0D01*
G01*
X28399998Y-42800000D01*
G75*
G02*
X28150000Y-42550002I0J249998D01*
G01*
G37*
G36*
G01*
X26325000Y-42550002D02*
X26325000Y-41649998D01*
G75*
G02*
X26574998Y-41400000I249998J0D01*
G01*
X27100002Y-41400000D01*
G75*
G02*
X27350000Y-41649998I0J-249998D01*
G01*
X27350000Y-42550002D01*
G75*
G02*
X27100002Y-42800000I-249998J0D01*
G01*
X26574998Y-42800000D01*
G75*
G02*
X26325000Y-42550002I0J249998D01*
G01*
G37*
%TD*%
%TO.C,R6*%
G36*
G01*
X28150000Y-40300002D02*
X28150000Y-39399998D01*
G75*
G02*
X28399998Y-39150000I249998J0D01*
G01*
X28925002Y-39150000D01*
G75*
G02*
X29175000Y-39399998I0J-249998D01*
G01*
X29175000Y-40300002D01*
G75*
G02*
X28925002Y-40550000I-249998J0D01*
G01*
X28399998Y-40550000D01*
G75*
G02*
X28150000Y-40300002I0J249998D01*
G01*
G37*
G36*
G01*
X26325000Y-40300002D02*
X26325000Y-39399998D01*
G75*
G02*
X26574998Y-39150000I249998J0D01*
G01*
X27100002Y-39150000D01*
G75*
G02*
X27350000Y-39399998I0J-249998D01*
G01*
X27350000Y-40300002D01*
G75*
G02*
X27100002Y-40550000I-249998J0D01*
G01*
X26574998Y-40550000D01*
G75*
G02*
X26325000Y-40300002I0J249998D01*
G01*
G37*
%TD*%
D16*
%TO.C,Q16*%
X42400000Y-46100000D03*
X41450000Y-44100000D03*
X43350000Y-44100000D03*
%TD*%
D17*
%TO.C,Q15*%
X47150000Y-45100000D03*
X45150000Y-46050000D03*
X45150000Y-44150000D03*
%TD*%
D16*
%TO.C,Q14*%
X42400000Y-36650000D03*
X41450000Y-34650000D03*
X43350000Y-34650000D03*
%TD*%
D17*
%TO.C,Q13*%
X47150000Y-35650000D03*
X45150000Y-36600000D03*
X45150000Y-34700000D03*
%TD*%
D16*
%TO.C,Q12*%
X33150000Y-55550000D03*
X32200000Y-53550000D03*
X34100000Y-53550000D03*
%TD*%
D17*
%TO.C,Q11*%
X37900000Y-54550000D03*
X35900000Y-55500000D03*
X35900000Y-53600000D03*
%TD*%
D16*
%TO.C,Q10*%
X33150000Y-46100000D03*
X32200000Y-44100000D03*
X34100000Y-44100000D03*
%TD*%
D17*
%TO.C,Q9*%
X37900000Y-45100000D03*
X35900000Y-46050000D03*
X35900000Y-44150000D03*
%TD*%
D16*
%TO.C,Q8*%
X33150000Y-36650000D03*
X32200000Y-34650000D03*
X34100000Y-34650000D03*
%TD*%
D17*
%TO.C,Q7*%
X37900000Y-35650000D03*
X35900000Y-36600000D03*
X35900000Y-34700000D03*
%TD*%
D16*
%TO.C,Q6*%
X24000000Y-55550000D03*
X23050000Y-53550000D03*
X24950000Y-53550000D03*
%TD*%
D17*
%TO.C,Q5*%
X28750000Y-54550000D03*
X26750000Y-55500000D03*
X26750000Y-53600000D03*
%TD*%
D16*
%TO.C,Q4*%
X24000000Y-46100000D03*
X23050000Y-44100000D03*
X24950000Y-44100000D03*
%TD*%
D17*
%TO.C,Q3*%
X28750000Y-45100000D03*
X26750000Y-46050000D03*
X26750000Y-44150000D03*
%TD*%
%TO.C,R5*%
G36*
G01*
X24400000Y-33100002D02*
X24400000Y-32199998D01*
G75*
G02*
X24649998Y-31950000I249998J0D01*
G01*
X25175002Y-31950000D01*
G75*
G02*
X25425000Y-32199998I0J-249998D01*
G01*
X25425000Y-33100002D01*
G75*
G02*
X25175002Y-33350000I-249998J0D01*
G01*
X24649998Y-33350000D01*
G75*
G02*
X24400000Y-33100002I0J249998D01*
G01*
G37*
G36*
G01*
X22575000Y-33100002D02*
X22575000Y-32199998D01*
G75*
G02*
X22824998Y-31950000I249998J0D01*
G01*
X23350002Y-31950000D01*
G75*
G02*
X23600000Y-32199998I0J-249998D01*
G01*
X23600000Y-33100002D01*
G75*
G02*
X23350002Y-33350000I-249998J0D01*
G01*
X22824998Y-33350000D01*
G75*
G02*
X22575000Y-33100002I0J249998D01*
G01*
G37*
%TD*%
%TO.C,R4*%
G36*
G01*
X24400000Y-30850002D02*
X24400000Y-29949998D01*
G75*
G02*
X24649998Y-29700000I249998J0D01*
G01*
X25175002Y-29700000D01*
G75*
G02*
X25425000Y-29949998I0J-249998D01*
G01*
X25425000Y-30850002D01*
G75*
G02*
X25175002Y-31100000I-249998J0D01*
G01*
X24649998Y-31100000D01*
G75*
G02*
X24400000Y-30850002I0J249998D01*
G01*
G37*
G36*
G01*
X22575000Y-30850002D02*
X22575000Y-29949998D01*
G75*
G02*
X22824998Y-29700000I249998J0D01*
G01*
X23350002Y-29700000D01*
G75*
G02*
X23600000Y-29949998I0J-249998D01*
G01*
X23600000Y-30850002D01*
G75*
G02*
X23350002Y-31100000I-249998J0D01*
G01*
X22824998Y-31100000D01*
G75*
G02*
X22575000Y-30850002I0J249998D01*
G01*
G37*
%TD*%
%TO.C,R2*%
G36*
G01*
X28150000Y-33100002D02*
X28150000Y-32199998D01*
G75*
G02*
X28399998Y-31950000I249998J0D01*
G01*
X28925002Y-31950000D01*
G75*
G02*
X29175000Y-32199998I0J-249998D01*
G01*
X29175000Y-33100002D01*
G75*
G02*
X28925002Y-33350000I-249998J0D01*
G01*
X28399998Y-33350000D01*
G75*
G02*
X28150000Y-33100002I0J249998D01*
G01*
G37*
G36*
G01*
X26325000Y-33100002D02*
X26325000Y-32199998D01*
G75*
G02*
X26574998Y-31950000I249998J0D01*
G01*
X27100002Y-31950000D01*
G75*
G02*
X27350000Y-32199998I0J-249998D01*
G01*
X27350000Y-33100002D01*
G75*
G02*
X27100002Y-33350000I-249998J0D01*
G01*
X26574998Y-33350000D01*
G75*
G02*
X26325000Y-33100002I0J249998D01*
G01*
G37*
%TD*%
%TO.C,R1*%
G36*
G01*
X28150000Y-30850002D02*
X28150000Y-29949998D01*
G75*
G02*
X28399998Y-29700000I249998J0D01*
G01*
X28925002Y-29700000D01*
G75*
G02*
X29175000Y-29949998I0J-249998D01*
G01*
X29175000Y-30850002D01*
G75*
G02*
X28925002Y-31100000I-249998J0D01*
G01*
X28399998Y-31100000D01*
G75*
G02*
X28150000Y-30850002I0J249998D01*
G01*
G37*
G36*
G01*
X26325000Y-30850002D02*
X26325000Y-29949998D01*
G75*
G02*
X26574998Y-29700000I249998J0D01*
G01*
X27100002Y-29700000D01*
G75*
G02*
X27350000Y-29949998I0J-249998D01*
G01*
X27350000Y-30850002D01*
G75*
G02*
X27100002Y-31100000I-249998J0D01*
G01*
X26574998Y-31100000D01*
G75*
G02*
X26325000Y-30850002I0J249998D01*
G01*
G37*
%TD*%
D16*
%TO.C,Q2*%
X24000000Y-36650000D03*
X23050000Y-34650000D03*
X24950000Y-34650000D03*
%TD*%
D17*
%TO.C,Q1*%
X28750000Y-35650000D03*
X26750000Y-36600000D03*
X26750000Y-34700000D03*
%TD*%
D14*
%TO.C,J2*%
X43890000Y-26770000D03*
D15*
X43890000Y-24230000D03*
X41350000Y-26770000D03*
X41350000Y-24230000D03*
X38810000Y-26770000D03*
X38810000Y-24230000D03*
X36270000Y-26770000D03*
X36270000Y-24230000D03*
X33730000Y-26770000D03*
X33730000Y-24230000D03*
X31190000Y-26770000D03*
X31190000Y-24230000D03*
X28650000Y-26770000D03*
X28650000Y-24230000D03*
X26110000Y-26770000D03*
X26110000Y-24230000D03*
%TD*%
M02*
