%TF.GenerationSoftware,KiCad,Pcbnew,9.0.6*%
%TF.CreationDate,2026-02-24T20:48:19+00:00*%
%TF.ProjectId,Timer,54696d65-722e-46b6-9963-61645f706362,rev?*%
%TF.SameCoordinates,Original*%
%TF.FileFunction,Profile,NP*%
%FSLAX46Y46*%
G04 Gerber Fmt 4.6, Leading zero omitted, Abs format (unit mm)*
G04 Created by KiCad (PCBNEW 9.0.6) date 2026-02-24 20:48:19*
%MOMM*%
%LPD*%
G01*
G04 APERTURE LIST*
%TA.AperFunction,Profile*%
%ADD10C,0.050000*%
%TD*%
%TA.AperFunction,Profile*%
%ADD11C,0.010000*%
%TD*%
G04 APERTURE END LIST*
D10*
X134000384Y-92000000D02*
X134000384Y-22000000D01*
X20000384Y-22000000D02*
X20000384Y-92000000D01*
X132000384Y-20000000D02*
G75*
G02*
X134000400Y-22000000I16J-2000000D01*
G01*
X132000384Y-20000000D02*
X22000384Y-20000000D01*
X134000384Y-92000000D02*
G75*
G02*
X132000384Y-93999984I-1999984J0D01*
G01*
X22000384Y-94000000D02*
G75*
G02*
X20000400Y-92000000I16J2000000D01*
G01*
X22000384Y-94000000D02*
X132000384Y-94000000D01*
X20000384Y-22000000D02*
G75*
G02*
X22000384Y-19999984I2000016J0D01*
G01*
D11*
%TO.C,D23*%
X75500385Y-81049999D02*
X75500384Y-83949999D01*
X75750384Y-84199999D02*
X78250383Y-84200000D01*
X75750385Y-80799999D02*
X78250384Y-80800000D01*
X78500384Y-81050000D02*
X78500383Y-83950000D01*
X75500384Y-81049998D02*
G75*
G02*
X75750385Y-80799999I250001J-2D01*
G01*
X75750383Y-84200000D02*
G75*
G02*
X75500384Y-83949999I1J250000D01*
G01*
X78250385Y-80799999D02*
G75*
G02*
X78500384Y-81050000I-2J-250001D01*
G01*
X78500384Y-83950001D02*
G75*
G02*
X78250383Y-84200000I-250000J1D01*
G01*
%TO.C,D41*%
X127000384Y-49450000D02*
X127000385Y-46550000D01*
X129750383Y-49700001D02*
X127250384Y-49700000D01*
X129750384Y-46300001D02*
X127250385Y-46300000D01*
X130000383Y-49450001D02*
X130000384Y-46550001D01*
X127000384Y-46549999D02*
G75*
G02*
X127250385Y-46300000I250000J-1D01*
G01*
X127250383Y-49700001D02*
G75*
G02*
X127000384Y-49450000I2J250001D01*
G01*
X129750385Y-46300000D02*
G75*
G02*
X130000384Y-46550001I-1J-250000D01*
G01*
X130000384Y-49450002D02*
G75*
G02*
X129750383Y-49700001I-250001J2D01*
G01*
%TO.C,D38*%
X111750385Y-38549999D02*
X111750384Y-41449999D01*
X112000384Y-41699999D02*
X114500383Y-41700000D01*
X112000385Y-38299999D02*
X114500384Y-38300000D01*
X114750384Y-38550000D02*
X114750383Y-41450000D01*
X111750384Y-38549998D02*
G75*
G02*
X112000385Y-38299999I250001J-2D01*
G01*
X112000383Y-41700000D02*
G75*
G02*
X111750384Y-41449999I1J250000D01*
G01*
X114500385Y-38299999D02*
G75*
G02*
X114750384Y-38550000I-2J-250001D01*
G01*
X114750384Y-41450001D02*
G75*
G02*
X114500383Y-41700000I-250000J1D01*
G01*
%TO.C,D44*%
X111750384Y-76450000D02*
X111750385Y-73550000D01*
X114500383Y-76700001D02*
X112000384Y-76700000D01*
X114500384Y-73300001D02*
X112000385Y-73300000D01*
X114750383Y-76450001D02*
X114750384Y-73550001D01*
X111750384Y-73549999D02*
G75*
G02*
X112000385Y-73300000I250000J-1D01*
G01*
X112000383Y-76700001D02*
G75*
G02*
X111750384Y-76450000I2J250001D01*
G01*
X114500385Y-73300000D02*
G75*
G02*
X114750384Y-73550001I-1J-250000D01*
G01*
X114750384Y-76450002D02*
G75*
G02*
X114500383Y-76700001I-250001J2D01*
G01*
%TO.C,D46*%
X127000001Y-73549999D02*
X127000000Y-76449999D01*
X127250000Y-76699999D02*
X129749999Y-76700000D01*
X127250001Y-73299999D02*
X129750000Y-73300000D01*
X130000000Y-73550000D02*
X129999999Y-76450000D01*
X127000000Y-73549998D02*
G75*
G02*
X127250001Y-73299999I250001J-2D01*
G01*
X127249999Y-76700000D02*
G75*
G02*
X127000000Y-76449999I1J250000D01*
G01*
X129750001Y-73299999D02*
G75*
G02*
X130000000Y-73550000I-2J-250001D01*
G01*
X130000000Y-76450001D02*
G75*
G02*
X129749999Y-76700000I-250000J1D01*
G01*
%TO.C,D22*%
X65250385Y-65549999D02*
X65250384Y-68449999D01*
X65500384Y-68699999D02*
X68000383Y-68700000D01*
X65500385Y-65299999D02*
X68000384Y-65300000D01*
X68250384Y-65550000D02*
X68250383Y-68450000D01*
X65250384Y-65549998D02*
G75*
G02*
X65500385Y-65299999I250001J-2D01*
G01*
X65500383Y-68700000D02*
G75*
G02*
X65250384Y-68449999I1J250000D01*
G01*
X68000385Y-65299999D02*
G75*
G02*
X68250384Y-65550000I-2J-250001D01*
G01*
X68250384Y-68450001D02*
G75*
G02*
X68000383Y-68700000I-250000J1D01*
G01*
%TO.C,D7*%
X24000000Y-67450000D02*
X24000001Y-64550000D01*
X26749999Y-67700001D02*
X24250000Y-67700000D01*
X26750000Y-64300001D02*
X24250001Y-64300000D01*
X26999999Y-67450001D02*
X27000000Y-64550001D01*
X24000000Y-64549999D02*
G75*
G02*
X24250001Y-64300000I250000J-1D01*
G01*
X24249999Y-67700001D02*
G75*
G02*
X24000000Y-67450000I2J250001D01*
G01*
X26750001Y-64300000D02*
G75*
G02*
X27000000Y-64550001I-1J-250000D01*
G01*
X27000000Y-67450002D02*
G75*
G02*
X26749999Y-67700001I-250001J2D01*
G01*
%TO.C,D30*%
X101000384Y-49450000D02*
X101000385Y-46550000D01*
X103750383Y-49700001D02*
X101250384Y-49700000D01*
X103750384Y-46300001D02*
X101250385Y-46300000D01*
X104000383Y-49450001D02*
X104000384Y-46550001D01*
X101000384Y-46549999D02*
G75*
G02*
X101250385Y-46300000I250000J-1D01*
G01*
X101250383Y-49700001D02*
G75*
G02*
X101000384Y-49450000I2J250001D01*
G01*
X103750385Y-46300000D02*
G75*
G02*
X104000384Y-46550001I-1J-250000D01*
G01*
X104000384Y-49450002D02*
G75*
G02*
X103750383Y-49700001I-250001J2D01*
G01*
%TO.C,D43*%
X111800000Y-68450000D02*
X111800001Y-65550000D01*
X114549999Y-68700001D02*
X112050000Y-68700000D01*
X114550000Y-65300001D02*
X112050001Y-65300000D01*
X114799999Y-68450001D02*
X114800000Y-65550001D01*
X111800000Y-65549999D02*
G75*
G02*
X112050001Y-65300000I250000J-1D01*
G01*
X112049999Y-68700001D02*
G75*
G02*
X111800000Y-68450000I2J250001D01*
G01*
X114550001Y-65300000D02*
G75*
G02*
X114800000Y-65550001I-1J-250000D01*
G01*
X114800000Y-68450002D02*
G75*
G02*
X114549999Y-68700001I-250001J2D01*
G01*
%TO.C,D20*%
X57300385Y-81500000D02*
X57300384Y-83999999D01*
X60450384Y-84250000D02*
X57550384Y-84249999D01*
X60450385Y-81250001D02*
X57550385Y-81250000D01*
X60700385Y-81500001D02*
X60700384Y-84000000D01*
X57300384Y-81499999D02*
G75*
G02*
X57550385Y-81250000I250000J-1D01*
G01*
X57550383Y-84250000D02*
G75*
G02*
X57300384Y-83999999I1J250000D01*
G01*
X60450386Y-81250000D02*
G75*
G02*
X60700385Y-81500001I-2J-250001D01*
G01*
X60700385Y-84000001D02*
G75*
G02*
X60450384Y-84250000I-250001J2D01*
G01*
%TO.C,D14*%
X57300385Y-29750000D02*
X57300384Y-32249999D01*
X60450384Y-32500000D02*
X57550384Y-32499999D01*
X60450385Y-29500001D02*
X57550385Y-29500000D01*
X60700385Y-29750001D02*
X60700384Y-32250000D01*
X57300384Y-29749999D02*
G75*
G02*
X57550385Y-29500000I250000J-1D01*
G01*
X57550383Y-32500000D02*
G75*
G02*
X57300384Y-32249999I1J250000D01*
G01*
X60450386Y-29500000D02*
G75*
G02*
X60700385Y-29750001I-2J-250001D01*
G01*
X60700385Y-32250001D02*
G75*
G02*
X60450384Y-32500000I-250001J2D01*
G01*
%TO.C,D17*%
X57300383Y-58249999D02*
X57300384Y-55750000D01*
X57550383Y-58499999D02*
X60450383Y-58500000D01*
X57550384Y-55500000D02*
X60450384Y-55500001D01*
X60700383Y-58250000D02*
X60700384Y-55750001D01*
X57300383Y-55749999D02*
G75*
G02*
X57550384Y-55500000I250001J-2D01*
G01*
X57550382Y-58500000D02*
G75*
G02*
X57300383Y-58249999I2J250001D01*
G01*
X60450385Y-55500000D02*
G75*
G02*
X60700384Y-55750001I-1J-250000D01*
G01*
X60700384Y-58250001D02*
G75*
G02*
X60450383Y-58500000I-250000J1D01*
G01*
%TO.C,D16*%
X65250384Y-49450000D02*
X65250385Y-46550000D01*
X68000383Y-49700001D02*
X65500384Y-49700000D01*
X68000384Y-46300001D02*
X65500385Y-46300000D01*
X68250383Y-49450001D02*
X68250384Y-46550001D01*
X65250384Y-46549999D02*
G75*
G02*
X65500385Y-46300000I250000J-1D01*
G01*
X65500383Y-49700001D02*
G75*
G02*
X65250384Y-49450000I2J250001D01*
G01*
X68000385Y-46300000D02*
G75*
G02*
X68250384Y-46550001I-1J-250000D01*
G01*
X68250384Y-49450002D02*
G75*
G02*
X68000383Y-49700001I-250001J2D01*
G01*
%TO.C,D39*%
X119300385Y-29750000D02*
X119300384Y-32249999D01*
X122450384Y-32500000D02*
X119550384Y-32499999D01*
X122450385Y-29500001D02*
X119550385Y-29500000D01*
X122700385Y-29750001D02*
X122700384Y-32250000D01*
X119300384Y-29749999D02*
G75*
G02*
X119550385Y-29500000I250000J-1D01*
G01*
X119550383Y-32500000D02*
G75*
G02*
X119300384Y-32249999I1J250000D01*
G01*
X122450386Y-29500000D02*
G75*
G02*
X122700385Y-29750001I-2J-250001D01*
G01*
X122700385Y-32250001D02*
G75*
G02*
X122450384Y-32500000I-250001J2D01*
G01*
%TO.C,D45*%
X119300385Y-81500000D02*
X119300384Y-83999999D01*
X122450384Y-84250000D02*
X119550384Y-84249999D01*
X122450385Y-81250001D02*
X119550385Y-81250000D01*
X122700385Y-81500001D02*
X122700384Y-84000000D01*
X119300384Y-81499999D02*
G75*
G02*
X119550385Y-81250000I250000J-1D01*
G01*
X119550383Y-84250000D02*
G75*
G02*
X119300384Y-83999999I1J250000D01*
G01*
X122450386Y-81250000D02*
G75*
G02*
X122700385Y-81500001I-2J-250001D01*
G01*
X122700385Y-84000001D02*
G75*
G02*
X122450384Y-84250000I-250001J2D01*
G01*
%TO.C,D9*%
X31550385Y-81500000D02*
X31550384Y-83999999D01*
X34700384Y-84250000D02*
X31800384Y-84249999D01*
X34700385Y-81250001D02*
X31800385Y-81250000D01*
X34950385Y-81500001D02*
X34950384Y-84000000D01*
X31550384Y-81499999D02*
G75*
G02*
X31800385Y-81250000I250000J-1D01*
G01*
X31800383Y-84250000D02*
G75*
G02*
X31550384Y-83999999I1J250000D01*
G01*
X34700386Y-81250000D02*
G75*
G02*
X34950385Y-81500001I-2J-250001D01*
G01*
X34950385Y-84000001D02*
G75*
G02*
X34700384Y-84250000I-250001J2D01*
G01*
%TO.C,D8*%
X24000384Y-75450000D02*
X24000385Y-72550000D01*
X26750383Y-75700001D02*
X24250384Y-75700000D01*
X26750384Y-72300001D02*
X24250385Y-72300000D01*
X27000383Y-75450001D02*
X27000384Y-72550001D01*
X24000384Y-72549999D02*
G75*
G02*
X24250385Y-72300000I250000J-1D01*
G01*
X24250383Y-75700001D02*
G75*
G02*
X24000384Y-75450000I2J250001D01*
G01*
X26750385Y-72300000D02*
G75*
G02*
X27000384Y-72550001I-1J-250000D01*
G01*
X27000384Y-75450002D02*
G75*
G02*
X26750383Y-75700001I-250001J2D01*
G01*
%TO.C,D15*%
X65250000Y-41450000D02*
X65250001Y-38550000D01*
X67999999Y-41700001D02*
X65500000Y-41700000D01*
X68000000Y-38300001D02*
X65500001Y-38300000D01*
X68249999Y-41450001D02*
X68250000Y-38550001D01*
X65250000Y-38549999D02*
G75*
G02*
X65500001Y-38300000I250000J-1D01*
G01*
X65499999Y-41700001D02*
G75*
G02*
X65250000Y-41450000I2J250001D01*
G01*
X68000001Y-38300000D02*
G75*
G02*
X68250000Y-38550001I-1J-250000D01*
G01*
X68250000Y-41450002D02*
G75*
G02*
X67999999Y-41700001I-250001J2D01*
G01*
%TO.C,D33*%
X85750384Y-76450000D02*
X85750385Y-73550000D01*
X88500383Y-76700001D02*
X86000384Y-76700000D01*
X88500384Y-73300001D02*
X86000385Y-73300000D01*
X88750383Y-76450001D02*
X88750384Y-73550001D01*
X85750384Y-73549999D02*
G75*
G02*
X86000385Y-73300000I250000J-1D01*
G01*
X86000383Y-76700001D02*
G75*
G02*
X85750384Y-76450000I2J250001D01*
G01*
X88500385Y-73300000D02*
G75*
G02*
X88750384Y-73550001I-1J-250000D01*
G01*
X88750384Y-76450002D02*
G75*
G02*
X88500383Y-76700001I-250001J2D01*
G01*
%TO.C,D10*%
X39250001Y-73549999D02*
X39250000Y-76449999D01*
X39500000Y-76699999D02*
X41999999Y-76700000D01*
X39500001Y-73299999D02*
X42000000Y-73300000D01*
X42250000Y-73550000D02*
X42249999Y-76450000D01*
X39250000Y-73549998D02*
G75*
G02*
X39500001Y-73299999I250001J-2D01*
G01*
X39499999Y-76700000D02*
G75*
G02*
X39250000Y-76449999I1J250000D01*
G01*
X42000001Y-73299999D02*
G75*
G02*
X42250000Y-73550000I-2J-250001D01*
G01*
X42250000Y-76450001D02*
G75*
G02*
X41999999Y-76700000I-250000J1D01*
G01*
%TO.C,D35*%
X101000001Y-73549999D02*
X101000000Y-76449999D01*
X101250000Y-76699999D02*
X103749999Y-76700000D01*
X101250001Y-73299999D02*
X103750000Y-73300000D01*
X104000000Y-73550000D02*
X103999999Y-76450000D01*
X101000000Y-73549998D02*
G75*
G02*
X101250001Y-73299999I250001J-2D01*
G01*
X101249999Y-76700000D02*
G75*
G02*
X101000000Y-76449999I1J250000D01*
G01*
X103750001Y-73299999D02*
G75*
G02*
X104000000Y-73550000I-2J-250001D01*
G01*
X104000000Y-76450001D02*
G75*
G02*
X103749999Y-76700000I-250000J1D01*
G01*
%TO.C,D27*%
X85750385Y-38549999D02*
X85750384Y-41449999D01*
X86000384Y-41699999D02*
X88500383Y-41700000D01*
X86000385Y-38299999D02*
X88500384Y-38300000D01*
X88750384Y-38550000D02*
X88750383Y-41450000D01*
X85750384Y-38549998D02*
G75*
G02*
X86000385Y-38299999I250001J-2D01*
G01*
X86000383Y-41700000D02*
G75*
G02*
X85750384Y-41449999I1J250000D01*
G01*
X88500385Y-38299999D02*
G75*
G02*
X88750384Y-38550000I-2J-250001D01*
G01*
X88750384Y-41450001D02*
G75*
G02*
X88500383Y-41700000I-250000J1D01*
G01*
%TO.C,D34*%
X93300385Y-81500000D02*
X93300384Y-83999999D01*
X96450384Y-84250000D02*
X93550384Y-84249999D01*
X96450385Y-81250001D02*
X93550385Y-81250000D01*
X96700385Y-81500001D02*
X96700384Y-84000000D01*
X93300384Y-81499999D02*
G75*
G02*
X93550385Y-81250000I250000J-1D01*
G01*
X93550383Y-84250000D02*
G75*
G02*
X93300384Y-83999999I1J250000D01*
G01*
X96450386Y-81250000D02*
G75*
G02*
X96700385Y-81500001I-2J-250001D01*
G01*
X96700385Y-84000001D02*
G75*
G02*
X96450384Y-84250000I-250001J2D01*
G01*
%TO.C,D19*%
X50000384Y-76450000D02*
X50000385Y-73550000D01*
X52750383Y-76700001D02*
X50250384Y-76700000D01*
X52750384Y-73300001D02*
X50250385Y-73300000D01*
X53000383Y-76450001D02*
X53000384Y-73550001D01*
X50000384Y-73549999D02*
G75*
G02*
X50250385Y-73300000I250000J-1D01*
G01*
X50250383Y-76700001D02*
G75*
G02*
X50000384Y-76450000I2J250001D01*
G01*
X52750385Y-73300000D02*
G75*
G02*
X53000384Y-73550001I-1J-250000D01*
G01*
X53000384Y-76450002D02*
G75*
G02*
X52750383Y-76700001I-250001J2D01*
G01*
%TO.C,D32*%
X85750000Y-68450000D02*
X85750001Y-65550000D01*
X88499999Y-68700001D02*
X86000000Y-68700000D01*
X88500000Y-65300001D02*
X86000001Y-65300000D01*
X88749999Y-68450001D02*
X88750000Y-65550001D01*
X85750000Y-65549999D02*
G75*
G02*
X86000001Y-65300000I250000J-1D01*
G01*
X85999999Y-68700001D02*
G75*
G02*
X85750000Y-68450000I2J250001D01*
G01*
X88500001Y-65300000D02*
G75*
G02*
X88750000Y-65550001I-1J-250000D01*
G01*
X88750000Y-68450002D02*
G75*
G02*
X88499999Y-68700001I-250001J2D01*
G01*
%TO.C,D4*%
X39250000Y-40950000D02*
X39250001Y-38050000D01*
X41999999Y-41200001D02*
X39500000Y-41200000D01*
X42000000Y-37800001D02*
X39500001Y-37800000D01*
X42249999Y-40950001D02*
X42250000Y-38050001D01*
X39250000Y-38049999D02*
G75*
G02*
X39500001Y-37800000I250000J-1D01*
G01*
X39499999Y-41200001D02*
G75*
G02*
X39250000Y-40950000I2J250001D01*
G01*
X42000001Y-37800000D02*
G75*
G02*
X42250000Y-38050001I-1J-250000D01*
G01*
X42250000Y-40950002D02*
G75*
G02*
X41999999Y-41200001I-250001J2D01*
G01*
%TO.C,D21*%
X65250001Y-73549999D02*
X65250000Y-76449999D01*
X65500000Y-76699999D02*
X67999999Y-76700000D01*
X65500001Y-73299999D02*
X68000000Y-73300000D01*
X68250000Y-73550000D02*
X68249999Y-76450000D01*
X65250000Y-73549998D02*
G75*
G02*
X65500001Y-73299999I250001J-2D01*
G01*
X65499999Y-76700000D02*
G75*
G02*
X65250000Y-76449999I1J250000D01*
G01*
X68000001Y-73299999D02*
G75*
G02*
X68250000Y-73550000I-2J-250001D01*
G01*
X68250000Y-76450001D02*
G75*
G02*
X67999999Y-76700000I-250000J1D01*
G01*
%TO.C,D6*%
X31550383Y-58249999D02*
X31550384Y-55750000D01*
X31800383Y-58499999D02*
X34700383Y-58500000D01*
X31800384Y-55500000D02*
X34700384Y-55500001D01*
X34950383Y-58250000D02*
X34950384Y-55750001D01*
X31550383Y-55749999D02*
G75*
G02*
X31800384Y-55500000I250001J-2D01*
G01*
X31800382Y-58500000D02*
G75*
G02*
X31550383Y-58249999I2J250001D01*
G01*
X34700385Y-55500000D02*
G75*
G02*
X34950384Y-55750001I-1J-250000D01*
G01*
X34950384Y-58250001D02*
G75*
G02*
X34700383Y-58500000I-250000J1D01*
G01*
%TO.C,D29*%
X101000000Y-41450000D02*
X101000001Y-38550000D01*
X103749999Y-41700001D02*
X101250000Y-41700000D01*
X103750000Y-38300001D02*
X101250001Y-38300000D01*
X103999999Y-41450001D02*
X104000000Y-38550001D01*
X101000000Y-38549999D02*
G75*
G02*
X101250001Y-38300000I250000J-1D01*
G01*
X101249999Y-41700001D02*
G75*
G02*
X101000000Y-41450000I2J250001D01*
G01*
X103750001Y-38300000D02*
G75*
G02*
X104000000Y-38550001I-1J-250000D01*
G01*
X104000000Y-41450002D02*
G75*
G02*
X103749999Y-41700001I-250001J2D01*
G01*
%TO.C,D26*%
X85750001Y-46549999D02*
X85750000Y-49449999D01*
X86000000Y-49699999D02*
X88499999Y-49700000D01*
X86000001Y-46299999D02*
X88500000Y-46300000D01*
X88750000Y-46550000D02*
X88749999Y-49450000D01*
X85750000Y-46549998D02*
G75*
G02*
X86000001Y-46299999I250001J-2D01*
G01*
X85999999Y-49700000D02*
G75*
G02*
X85750000Y-49449999I1J250000D01*
G01*
X88500001Y-46299999D02*
G75*
G02*
X88750000Y-46550000I-2J-250001D01*
G01*
X88750000Y-49450001D02*
G75*
G02*
X88499999Y-49700000I-250000J1D01*
G01*
%TO.C,D36*%
X101000385Y-65549999D02*
X101000384Y-68449999D01*
X101250384Y-68699999D02*
X103750383Y-68700000D01*
X101250385Y-65299999D02*
X103750384Y-65300000D01*
X104000384Y-65550000D02*
X104000383Y-68450000D01*
X101000384Y-65549998D02*
G75*
G02*
X101250385Y-65299999I250001J-2D01*
G01*
X101250383Y-68700000D02*
G75*
G02*
X101000384Y-68449999I1J250000D01*
G01*
X103750385Y-65299999D02*
G75*
G02*
X104000384Y-65550000I-2J-250001D01*
G01*
X104000384Y-68450001D02*
G75*
G02*
X103750383Y-68700000I-250000J1D01*
G01*
%TO.C,D1*%
X24000001Y-46049999D02*
X24000000Y-48949999D01*
X24250000Y-49199999D02*
X26749999Y-49200000D01*
X24250001Y-45799999D02*
X26750000Y-45800000D01*
X27000000Y-46050000D02*
X26999999Y-48950000D01*
X24000000Y-46049998D02*
G75*
G02*
X24250001Y-45799999I250001J-2D01*
G01*
X24249999Y-49200000D02*
G75*
G02*
X24000000Y-48949999I1J250000D01*
G01*
X26750001Y-45799999D02*
G75*
G02*
X27000000Y-46050000I-2J-250001D01*
G01*
X27000000Y-48950001D02*
G75*
G02*
X26749999Y-49200000I-250000J1D01*
G01*
%TO.C,D31*%
X93300383Y-58249999D02*
X93300384Y-55750000D01*
X93550383Y-58499999D02*
X96450383Y-58500000D01*
X93550384Y-55500000D02*
X96450384Y-55500001D01*
X96700383Y-58250000D02*
X96700384Y-55750001D01*
X93300383Y-55749999D02*
G75*
G02*
X93550384Y-55500000I250001J-2D01*
G01*
X93550382Y-58500000D02*
G75*
G02*
X93300383Y-58249999I2J250001D01*
G01*
X96450385Y-55500000D02*
G75*
G02*
X96700384Y-55750001I-1J-250000D01*
G01*
X96700384Y-58250001D02*
G75*
G02*
X96450383Y-58500000I-250000J1D01*
G01*
%TO.C,D42*%
X119300383Y-58249999D02*
X119300384Y-55750000D01*
X119550383Y-58499999D02*
X122450383Y-58500000D01*
X119550384Y-55500000D02*
X122450384Y-55500001D01*
X122700383Y-58250000D02*
X122700384Y-55750001D01*
X119300383Y-55749999D02*
G75*
G02*
X119550384Y-55500000I250001J-2D01*
G01*
X119550382Y-58500000D02*
G75*
G02*
X119300383Y-58249999I2J250001D01*
G01*
X122450385Y-55500000D02*
G75*
G02*
X122700384Y-55750001I-1J-250000D01*
G01*
X122700384Y-58250001D02*
G75*
G02*
X122450383Y-58500000I-250000J1D01*
G01*
%TO.C,D40*%
X127000000Y-41450000D02*
X127000001Y-38550000D01*
X129749999Y-41700001D02*
X127250000Y-41700000D01*
X129750000Y-38300001D02*
X127250001Y-38300000D01*
X129999999Y-41450001D02*
X130000000Y-38550001D01*
X127000000Y-38549999D02*
G75*
G02*
X127250001Y-38300000I250000J-1D01*
G01*
X127249999Y-41700001D02*
G75*
G02*
X127000000Y-41450000I2J250001D01*
G01*
X129750001Y-38300000D02*
G75*
G02*
X130000000Y-38550001I-1J-250000D01*
G01*
X130000000Y-41450002D02*
G75*
G02*
X129749999Y-41700001I-250001J2D01*
G01*
%TO.C,D37*%
X111750001Y-46549999D02*
X111750000Y-49449999D01*
X112000000Y-49699999D02*
X114499999Y-49700000D01*
X112000001Y-46299999D02*
X114500000Y-46300000D01*
X114750000Y-46550000D02*
X114749999Y-49450000D01*
X111750000Y-46549998D02*
G75*
G02*
X112000001Y-46299999I250001J-2D01*
G01*
X111999999Y-49700000D02*
G75*
G02*
X111750000Y-49449999I1J250000D01*
G01*
X114500001Y-46299999D02*
G75*
G02*
X114750000Y-46550000I-2J-250001D01*
G01*
X114750000Y-49450001D02*
G75*
G02*
X114499999Y-49700000I-250000J1D01*
G01*
%TO.C,D3*%
X31550385Y-29750000D02*
X31550384Y-32249999D01*
X34700384Y-32500000D02*
X31800384Y-32499999D01*
X34700385Y-29500001D02*
X31800385Y-29500000D01*
X34950385Y-29750001D02*
X34950384Y-32250000D01*
X31550384Y-29749999D02*
G75*
G02*
X31800385Y-29500000I250000J-1D01*
G01*
X31800383Y-32500000D02*
G75*
G02*
X31550384Y-32249999I1J250000D01*
G01*
X34700386Y-29500000D02*
G75*
G02*
X34950385Y-29750001I-2J-250001D01*
G01*
X34950385Y-32250001D02*
G75*
G02*
X34700384Y-32500000I-250001J2D01*
G01*
%TO.C,D24*%
X75500385Y-66799999D02*
X75500384Y-69699999D01*
X75750384Y-69949999D02*
X78250383Y-69950000D01*
X75750385Y-66549999D02*
X78250384Y-66550000D01*
X78500384Y-66800000D02*
X78500383Y-69700000D01*
X75500384Y-66799998D02*
G75*
G02*
X75750385Y-66549999I250001J-2D01*
G01*
X75750383Y-69950000D02*
G75*
G02*
X75500384Y-69699999I1J250000D01*
G01*
X78250385Y-66549999D02*
G75*
G02*
X78500384Y-66800000I-2J-250001D01*
G01*
X78500384Y-69700001D02*
G75*
G02*
X78250383Y-69950000I-250000J1D01*
G01*
%TO.C,D2*%
X24000001Y-38049999D02*
X24000000Y-40949999D01*
X24250000Y-41199999D02*
X26749999Y-41200000D01*
X24250001Y-37799999D02*
X26750000Y-37800000D01*
X27000000Y-38050000D02*
X26999999Y-40950000D01*
X24000000Y-38049998D02*
G75*
G02*
X24250001Y-37799999I250001J-2D01*
G01*
X24249999Y-41200000D02*
G75*
G02*
X24000000Y-40949999I1J250000D01*
G01*
X26750001Y-37799999D02*
G75*
G02*
X27000000Y-38050000I-2J-250001D01*
G01*
X27000000Y-40950001D02*
G75*
G02*
X26749999Y-41200000I-250000J1D01*
G01*
%TO.C,D28*%
X93300385Y-29750000D02*
X93300384Y-32249999D01*
X96450384Y-32500000D02*
X93550384Y-32499999D01*
X96450385Y-29500001D02*
X93550385Y-29500000D01*
X96700385Y-29750001D02*
X96700384Y-32250000D01*
X93300384Y-29749999D02*
G75*
G02*
X93550385Y-29500000I250000J-1D01*
G01*
X93550383Y-32500000D02*
G75*
G02*
X93300384Y-32249999I1J250000D01*
G01*
X96450386Y-29500000D02*
G75*
G02*
X96700385Y-29750001I-2J-250001D01*
G01*
X96700385Y-32250001D02*
G75*
G02*
X96450384Y-32500000I-250001J2D01*
G01*
%TO.C,D25*%
X75500385Y-44049999D02*
X75500384Y-46949999D01*
X75750384Y-47199999D02*
X78250383Y-47200000D01*
X75750385Y-43799999D02*
X78250384Y-43800000D01*
X78500384Y-44050000D02*
X78500383Y-46950000D01*
X75500384Y-44049998D02*
G75*
G02*
X75750385Y-43799999I250001J-2D01*
G01*
X75750383Y-47200000D02*
G75*
G02*
X75500384Y-46949999I1J250000D01*
G01*
X78250385Y-43799999D02*
G75*
G02*
X78500384Y-44050000I-2J-250001D01*
G01*
X78500384Y-46950001D02*
G75*
G02*
X78250383Y-47200000I-250000J1D01*
G01*
%TO.C,D12*%
X50000001Y-46549999D02*
X50000000Y-49449999D01*
X50250000Y-49699999D02*
X52749999Y-49700000D01*
X50250001Y-46299999D02*
X52750000Y-46300000D01*
X53000000Y-46550000D02*
X52999999Y-49450000D01*
X50000000Y-46549998D02*
G75*
G02*
X50250001Y-46299999I250001J-2D01*
G01*
X50249999Y-49700000D02*
G75*
G02*
X50000000Y-49449999I1J250000D01*
G01*
X52750001Y-46299999D02*
G75*
G02*
X53000000Y-46550000I-2J-250001D01*
G01*
X53000000Y-49450001D02*
G75*
G02*
X52749999Y-49700000I-250000J1D01*
G01*
%TO.C,D13*%
X50000385Y-38549999D02*
X50000384Y-41449999D01*
X50250384Y-41699999D02*
X52750383Y-41700000D01*
X50250385Y-38299999D02*
X52750384Y-38300000D01*
X53000384Y-38550000D02*
X53000383Y-41450000D01*
X50000384Y-38549998D02*
G75*
G02*
X50250385Y-38299999I250001J-2D01*
G01*
X50250383Y-41700000D02*
G75*
G02*
X50000384Y-41449999I1J250000D01*
G01*
X52750385Y-38299999D02*
G75*
G02*
X53000384Y-38550000I-2J-250001D01*
G01*
X53000384Y-41450001D02*
G75*
G02*
X52750383Y-41700000I-250000J1D01*
G01*
%TO.C,D47*%
X127000385Y-65549999D02*
X127000384Y-68449999D01*
X127250384Y-68699999D02*
X129750383Y-68700000D01*
X127250385Y-65299999D02*
X129750384Y-65300000D01*
X130000384Y-65550000D02*
X130000383Y-68450000D01*
X127000384Y-65549998D02*
G75*
G02*
X127250385Y-65299999I250001J-2D01*
G01*
X127250383Y-68700000D02*
G75*
G02*
X127000384Y-68449999I1J250000D01*
G01*
X129750385Y-65299999D02*
G75*
G02*
X130000384Y-65550000I-2J-250001D01*
G01*
X130000384Y-68450001D02*
G75*
G02*
X129750383Y-68700000I-250000J1D01*
G01*
%TO.C,D5*%
X39250000Y-48950000D02*
X39250001Y-46050000D01*
X41999999Y-49200001D02*
X39500000Y-49200000D01*
X42000000Y-45800001D02*
X39500001Y-45800000D01*
X42249999Y-48950001D02*
X42250000Y-46050001D01*
X39250000Y-46049999D02*
G75*
G02*
X39500001Y-45800000I250000J-1D01*
G01*
X39499999Y-49200001D02*
G75*
G02*
X39250000Y-48950000I2J250001D01*
G01*
X42000001Y-45800000D02*
G75*
G02*
X42250000Y-46050001I-1J-250000D01*
G01*
X42250000Y-48950002D02*
G75*
G02*
X41999999Y-49200001I-250001J2D01*
G01*
%TO.C,D11*%
X39250385Y-65549999D02*
X39250384Y-68449999D01*
X39500384Y-68699999D02*
X42000383Y-68700000D01*
X39500385Y-65299999D02*
X42000384Y-65300000D01*
X42250384Y-65550000D02*
X42250383Y-68450000D01*
X39250384Y-65549998D02*
G75*
G02*
X39500385Y-65299999I250001J-2D01*
G01*
X39500383Y-68700000D02*
G75*
G02*
X39250384Y-68449999I1J250000D01*
G01*
X42000385Y-65299999D02*
G75*
G02*
X42250384Y-65550000I-2J-250001D01*
G01*
X42250384Y-68450001D02*
G75*
G02*
X42000383Y-68700000I-250000J1D01*
G01*
%TO.C,D18*%
X50000000Y-68450000D02*
X50000001Y-65550000D01*
X52749999Y-68700001D02*
X50250000Y-68700000D01*
X52750000Y-65300001D02*
X50250001Y-65300000D01*
X52999999Y-68450001D02*
X53000000Y-65550001D01*
X50000000Y-65549999D02*
G75*
G02*
X50250001Y-65300000I250000J-1D01*
G01*
X50249999Y-68700001D02*
G75*
G02*
X50000000Y-68450000I2J250001D01*
G01*
X52750001Y-65300000D02*
G75*
G02*
X53000000Y-65550001I-1J-250000D01*
G01*
X53000000Y-68450002D02*
G75*
G02*
X52749999Y-68700001I-250001J2D01*
G01*
%TD*%
M02*
