M48
; DRILL file {KiCad 9.0.6} date 2026-02-24T20:48:21+0000
; FORMAT={-:-/ absolute / metric / decimal}
; #@! TF.CreationDate,2026-02-24T20:48:21+00:00
; #@! TF.GenerationSoftware,Kicad,Pcbnew,9.0.6
; #@! TF.FileFunction,Plated,1,2,PTH
FMAT,2
METRIC
; #@! TA.AperFunction,Plated,PTH,ViaDrill
T1C0.300
; #@! TA.AperFunction,Plated,PTH,ViaDrill
T2C0.400
%
G90
G05
T1
X23.5Y-69.5
X23.5Y-77.5
X27.5Y-36.0
X27.5Y-44.0
X29.75Y-55.0
X36.75Y-33.0
X36.75Y-84.75
X42.75Y-63.5
X42.75Y-71.5
X49.5Y-70.5
X49.5Y-78.5
X53.5Y-36.5
X53.5Y-44.5
X55.5Y-55.0
X62.5Y-33.0
X62.5Y-84.75
X64.75Y-43.5
X64.75Y-51.5
X68.75Y-63.5
X68.75Y-71.5
X79.0Y-42.0
X79.0Y-64.75
X79.0Y-79.0
X85.25Y-70.5
X85.25Y-78.5
X89.25Y-36.5
X89.25Y-44.5
X91.5Y-55.0
X98.5Y-33.0
X98.5Y-84.75
X100.5Y-43.5
X100.5Y-51.5
X104.5Y-63.5
X104.5Y-71.5
X111.25Y-70.5
X111.25Y-78.5
X115.25Y-36.5
X115.25Y-44.5
X117.5Y-55.0
X124.5Y-33.0
X124.5Y-84.75
X126.5Y-43.5
X126.5Y-51.5
X130.5Y-63.5
X130.5Y-71.5
T2
X24.7Y-35.65
X24.7Y-62.25
X26.3Y-51.3
X26.3Y-77.75
X29.45Y-31.8
X29.5Y-83.55
X29.525Y-57.8
X36.975Y-81.95
X37.05Y-30.2
X37.05Y-56.2
X38.75Y-43.0
X38.75Y-51.25
X39.95Y-35.65
X39.95Y-63.25
X41.55Y-51.3
X41.55Y-78.75
X46.25Y-21.0
X48.25Y-29.0
X50.7Y-36.25
X50.7Y-63.2
X52.3Y-51.75
X52.3Y-78.8
X55.25Y-31.8
X55.25Y-57.8
X55.25Y-83.55
X62.75Y-30.2
X62.75Y-56.2
X62.75Y-81.95
X65.95Y-36.225
X65.95Y-63.225
X67.55Y-51.775
X67.55Y-78.75
X76.2Y-41.75
X76.2Y-64.5
X76.2Y-78.725
X77.8Y-49.2
X77.8Y-72.0
X77.8Y-86.25
X86.45Y-36.25
X86.45Y-63.25
X88.05Y-51.75
X88.05Y-78.75
X91.25Y-31.8
X91.25Y-57.8
X91.25Y-83.55
X98.75Y-30.2
X98.75Y-56.2
X98.75Y-81.95
X101.7Y-36.2
X101.7Y-63.25
X103.3Y-51.8
X103.3Y-78.75
X112.45Y-36.25
X112.5Y-63.2
X114.05Y-51.75
X114.05Y-78.8
X117.2Y-83.55
X117.25Y-31.8
X117.25Y-57.8
X124.75Y-30.2
X124.75Y-56.2
X124.75Y-81.95
X127.7Y-36.25
X129.3Y-51.75
X129.3Y-78.8
M30
