%TF.GenerationSoftware,KiCad,Pcbnew,9.0.6*%
%TF.CreationDate,2026-02-24T21:10:43+00:00*%
%TF.ProjectId,Widget,57696467-6574-42e6-9b69-6361645f7063,rev?*%
%TF.SameCoordinates,Original*%
%TF.FileFunction,Profile,NP*%
%FSLAX46Y46*%
G04 Gerber Fmt 4.6, Leading zero omitted, Abs format (unit mm)*
G04 Created by KiCad (PCBNEW 9.0.6) date 2026-02-24 21:10:43*
%MOMM*%
%LPD*%
G01*
G04 APERTURE LIST*
%TA.AperFunction,Profile*%
%ADD10C,0.050000*%
%TD*%
G04 APERTURE END LIST*
D10*
X78000000Y-35000000D02*
G75*
G02*
X81000000Y-38000000I0J-3000000D01*
G01*
X68500000Y-29000000D02*
G75*
G02*
X71500000Y-32000000I0J-3000000D01*
G01*
X81000000Y-54000000D02*
X81000000Y-38000000D01*
X56500000Y-25000000D02*
X44500000Y-25000000D01*
X20000000Y-38000000D02*
G75*
G02*
X23000000Y-35000000I3000000J0D01*
G01*
X81000000Y-54000000D02*
G75*
G02*
X80000000Y-55000000I-1000000J0D01*
G01*
X40500000Y-29000000D02*
X32500000Y-29000000D01*
X74500000Y-35000000D02*
X78000000Y-35000000D01*
X29500000Y-32000000D02*
G75*
G02*
X32500000Y-29000000I3000000J0D01*
G01*
X29500000Y-32000000D02*
G75*
G02*
X26500000Y-35000000I-3000000J0D01*
G01*
X21000000Y-55000000D02*
G75*
G02*
X20000000Y-54000000I0J1000000D01*
G01*
X43500000Y-26000000D02*
G75*
G02*
X44500000Y-25000000I1000000J0D01*
G01*
X74500000Y-35000000D02*
G75*
G02*
X71500000Y-32000000I0J3000000D01*
G01*
X21000000Y-55000000D02*
X80000000Y-55000000D01*
X20000000Y-38000000D02*
X20000000Y-54000000D01*
X56500000Y-25000000D02*
G75*
G02*
X57500000Y-26000000I0J-1000000D01*
G01*
X43500000Y-26000000D02*
G75*
G02*
X40500000Y-29000000I-3000000J0D01*
G01*
X26500000Y-35000000D02*
X23000000Y-35000000D01*
X60500000Y-29000000D02*
X68500000Y-29000000D01*
X60500000Y-29000000D02*
G75*
G02*
X57500000Y-26000000I0J3000000D01*
G01*
M02*
