%TF.GenerationSoftware,KiCad,Pcbnew,9.0.6*%
%TF.CreationDate,2026-02-24T21:10:42+00:00*%
%TF.ProjectId,Widget,57696467-6574-42e6-9b69-6361645f7063,rev?*%
%TF.SameCoordinates,Original*%
%TF.FileFunction,Copper,L1,Top*%
%TF.FilePolarity,Positive*%
%FSLAX46Y46*%
G04 Gerber Fmt 4.6, Leading zero omitted, Abs format (unit mm)*
G04 Created by KiCad (PCBNEW 9.0.6) date 2026-02-24 21:10:42*
%MOMM*%
%LPD*%
G01*
G04 APERTURE LIST*
G04 Aperture macros list*
%AMRoundRect*
0 Rectangle with rounded corners*
0 $1 Rounding radius*
0 $2 $3 $4 $5 $6 $7 $8 $9 X,Y pos of 4 corners*
0 Add a 4 corners polygon primitive as box body*
4,1,4,$2,$3,$4,$5,$6,$7,$8,$9,$2,$3,0*
0 Add four circle primitives for the rounded corners*
1,1,$1+$1,$2,$3*
1,1,$1+$1,$4,$5*
1,1,$1+$1,$6,$7*
1,1,$1+$1,$8,$9*
0 Add four rect primitives between the rounded corners*
20,1,$1+$1,$2,$3,$4,$5,0*
20,1,$1+$1,$4,$5,$6,$7,0*
20,1,$1+$1,$6,$7,$8,$9,0*
20,1,$1+$1,$8,$9,$2,$3,0*%
%AMFreePoly0*
4,1,25,-1.000000,0.700000,-0.992031,0.768685,-0.947499,0.869541,-0.869541,0.947499,-0.768685,0.992031,-0.700000,1.000000,0.700000,1.000000,0.768685,0.992031,0.869541,0.947499,0.947499,0.869541,0.992031,0.768685,1.000000,0.700000,1.000000,-0.700000,0.992031,-0.768685,0.947499,-0.869541,0.869541,-0.947499,0.768685,-0.992031,0.700000,-1.000000,-0.700000,-1.000000,-0.768685,-0.992031,
-0.869541,-0.947499,-0.947499,-0.869541,-0.992031,-0.768685,-1.000000,-0.700000,-1.000000,0.700000,-1.000000,0.700000,$1*%
G04 Aperture macros list end*
%TA.AperFunction,SMDPad,CuDef*%
%ADD10RoundRect,0.200000X0.200000X0.275000X-0.200000X0.275000X-0.200000X-0.275000X0.200000X-0.275000X0*%
%TD*%
%TA.AperFunction,SMDPad,CuDef*%
%ADD11RoundRect,0.250000X-0.325000X-0.650000X0.325000X-0.650000X0.325000X0.650000X-0.325000X0.650000X0*%
%TD*%
%TA.AperFunction,ComponentPad*%
%ADD12FreePoly0,270.000000*%
%TD*%
%TA.AperFunction,SMDPad,CuDef*%
%ADD13RoundRect,0.200000X-0.275000X0.200000X-0.275000X-0.200000X0.275000X-0.200000X0.275000X0.200000X0*%
%TD*%
%TA.AperFunction,SMDPad,CuDef*%
%ADD14RoundRect,0.150000X-0.150000X0.587500X-0.150000X-0.587500X0.150000X-0.587500X0.150000X0.587500X0*%
%TD*%
%TA.AperFunction,SMDPad,CuDef*%
%ADD15RoundRect,0.200000X0.275000X-0.200000X0.275000X0.200000X-0.275000X0.200000X-0.275000X-0.200000X0*%
%TD*%
%TA.AperFunction,ComponentPad*%
%ADD16R,1.700000X1.700000*%
%TD*%
%TA.AperFunction,ComponentPad*%
%ADD17C,1.700000*%
%TD*%
%TA.AperFunction,SMDPad,CuDef*%
%ADD18RoundRect,0.150000X-0.650000X-0.150000X0.650000X-0.150000X0.650000X0.150000X-0.650000X0.150000X0*%
%TD*%
%TA.AperFunction,SMDPad,CuDef*%
%ADD19RoundRect,0.225000X-0.250000X0.225000X-0.250000X-0.225000X0.250000X-0.225000X0.250000X0.225000X0*%
%TD*%
%TA.AperFunction,ConnectorPad*%
%ADD20C,0.787400*%
%TD*%
%TA.AperFunction,SMDPad,CuDef*%
%ADD21RoundRect,0.150000X-0.587500X-0.150000X0.587500X-0.150000X0.587500X0.150000X-0.587500X0.150000X0*%
%TD*%
%TA.AperFunction,SMDPad,CuDef*%
%ADD22RoundRect,0.100000X0.850000X0.100000X-0.850000X0.100000X-0.850000X-0.100000X0.850000X-0.100000X0*%
%TD*%
%TA.AperFunction,SMDPad,CuDef*%
%ADD23RoundRect,0.050000X0.100000X-0.285000X0.100000X0.285000X-0.100000X0.285000X-0.100000X-0.285000X0*%
%TD*%
%TA.AperFunction,SMDPad,CuDef*%
%ADD24RoundRect,0.250000X0.325000X0.650000X-0.325000X0.650000X-0.325000X-0.650000X0.325000X-0.650000X0*%
%TD*%
%TA.AperFunction,ViaPad*%
%ADD25C,0.600000*%
%TD*%
%TA.AperFunction,ViaPad*%
%ADD26C,0.800000*%
%TD*%
%TA.AperFunction,Conductor*%
%ADD27C,0.300000*%
%TD*%
%TA.AperFunction,Conductor*%
%ADD28C,0.600000*%
%TD*%
%TA.AperFunction,Conductor*%
%ADD29C,0.500000*%
%TD*%
%TA.AperFunction,Conductor*%
%ADD30C,0.400000*%
%TD*%
%TA.AperFunction,Conductor*%
%ADD31C,1.000000*%
%TD*%
G04 APERTURE END LIST*
D10*
%TO.P,R29,1*%
%TO.N,/GPIO11*%
X76875000Y-45150000D03*
%TO.P,R29,2*%
%TO.N,Net-(Q7-D)*%
X75225000Y-45150000D03*
%TD*%
D11*
%TO.P,C4,1*%
%TO.N,+3.3V*%
X57050000Y-30700000D03*
%TO.P,C4,2*%
%TO.N,GND*%
X60000000Y-30700000D03*
%TD*%
D12*
%TO.P,J19,1,Pin_1*%
%TO.N,+3.3V*%
X45000000Y-52750000D03*
%TD*%
D10*
%TO.P,R18,1*%
%TO.N,/IN_GPIO10*%
X66775000Y-40150000D03*
%TO.P,R18,2*%
%TO.N,Net-(Q5-G)*%
X65125000Y-40150000D03*
%TD*%
D13*
%TO.P,R21,1*%
%TO.N,+5V*%
X61750000Y-37025000D03*
%TO.P,R21,2*%
%TO.N,Net-(Q5-S)*%
X61750000Y-38675000D03*
%TD*%
D12*
%TO.P,J26,1,Pin_1*%
%TO.N,GND*%
X71250000Y-52750000D03*
%TD*%
%TO.P,J6,1,Pin_1*%
%TO.N,/GPIO8*%
X60000000Y-49500000D03*
%TD*%
%TO.P,J11,1,Pin_1*%
%TO.N,/SDA*%
X41250000Y-49500000D03*
%TD*%
D10*
%TO.P,R4,1*%
%TO.N,/IN_GPIO0*%
X27675000Y-40150000D03*
%TO.P,R4,2*%
%TO.N,Net-(Q1-G)*%
X26025000Y-40150000D03*
%TD*%
D12*
%TO.P,J9,1,Pin_1*%
%TO.N,/GPIO5*%
X48750000Y-49500000D03*
%TD*%
D14*
%TO.P,D4,1*%
%TO.N,Net-(Q7-D)*%
X73700000Y-44312500D03*
%TO.P,D4,2*%
%TO.N,Net-(Q7-S)*%
X71800000Y-44312500D03*
%TO.P,D4,3*%
%TO.N,GND*%
X72750000Y-46187500D03*
%TD*%
D12*
%TO.P,J14,1,Pin_1*%
%TO.N,/GPIO0*%
X30000000Y-49500000D03*
%TD*%
D13*
%TO.P,R10,1*%
%TO.N,GND*%
X37150000Y-37025000D03*
%TO.P,R10,2*%
%TO.N,/IN_GPIO1*%
X37150000Y-38675000D03*
%TD*%
D14*
%TO.P,D1,1*%
%TO.N,Net-(Q1-D)*%
X24600000Y-44312500D03*
%TO.P,D1,2*%
%TO.N,Net-(Q1-S)*%
X22700000Y-44312500D03*
%TO.P,D1,3*%
%TO.N,GND*%
X23650000Y-46187500D03*
%TD*%
D12*
%TO.P,J4,1,Pin_1*%
%TO.N,/GPIO10*%
X67500000Y-49500000D03*
%TD*%
D15*
%TO.P,R20,1*%
%TO.N,Net-(Q5-D)*%
X68250000Y-41375000D03*
%TO.P,R20,2*%
%TO.N,/IN_GPIO10*%
X68250000Y-39725000D03*
%TD*%
D16*
%TO.P,J1,1,Pin_1*%
%TO.N,+3.3V*%
X46690000Y-29775000D03*
D17*
%TO.P,J1,2,Pin_2*%
%TO.N,+5V*%
X46690000Y-27235000D03*
%TO.P,J1,3,Pin_3*%
%TO.N,GND*%
X49230000Y-29775000D03*
%TO.P,J1,4,Pin_4*%
X49230000Y-27235000D03*
%TO.P,J1,5,Pin_5*%
%TO.N,/SCL*%
X51770000Y-29775000D03*
%TO.P,J1,6,Pin_6*%
%TO.N,/A*%
X51770000Y-27235000D03*
%TO.P,J1,7,Pin_7*%
%TO.N,/SDA*%
X54310000Y-29775000D03*
%TO.P,J1,8,Pin_8*%
%TO.N,/B*%
X54310000Y-27235000D03*
%TD*%
D15*
%TO.P,R27,1*%
%TO.N,Net-(Q7-D)*%
X78250000Y-41375000D03*
%TO.P,R27,2*%
%TO.N,/IN_GPIO11*%
X78250000Y-39725000D03*
%TD*%
D18*
%TO.P,U4,1,CH1*%
%TO.N,/A*%
X49389000Y-32832000D03*
%TO.P,U4,2,VN*%
%TO.N,GND*%
X49389000Y-33782000D03*
%TO.P,U4,3,CH2*%
%TO.N,/SCL*%
X49389000Y-34732000D03*
%TO.P,U4,4,CH3*%
%TO.N,/SDA*%
X51689000Y-34732000D03*
%TO.P,U4,5,VP*%
%TO.N,+3.3V*%
X51689000Y-33782000D03*
%TO.P,U4,6,CH4*%
%TO.N,/B*%
X51689000Y-32832000D03*
%TD*%
D10*
%TO.P,R22,1*%
%TO.N,/GPIO10*%
X66875000Y-45150000D03*
%TO.P,R22,2*%
%TO.N,Net-(Q5-D)*%
X65225000Y-45150000D03*
%TD*%
D14*
%TO.P,D3,1*%
%TO.N,Net-(Q5-D)*%
X63700000Y-44312500D03*
%TO.P,D3,2*%
%TO.N,Net-(Q5-S)*%
X61800000Y-44312500D03*
%TO.P,D3,3*%
%TO.N,GND*%
X62750000Y-46187500D03*
%TD*%
D12*
%TO.P,J15,1,Pin_1*%
%TO.N,+5V*%
X30000000Y-52750000D03*
%TD*%
D13*
%TO.P,R7,1*%
%TO.N,+5V*%
X22650000Y-37025000D03*
%TO.P,R7,2*%
%TO.N,Net-(Q1-S)*%
X22650000Y-38675000D03*
%TD*%
D19*
%TO.P,C2,1*%
%TO.N,+3.3V*%
X55400000Y-33950000D03*
%TO.P,C2,2*%
%TO.N,GND*%
X55400000Y-35500000D03*
%TD*%
D12*
%TO.P,J13,1,Pin_1*%
%TO.N,/GPIO1*%
X33750000Y-49500000D03*
%TD*%
D13*
%TO.P,R3,1*%
%TO.N,GND*%
X27150000Y-37025000D03*
%TO.P,R3,2*%
%TO.N,/IN_GPIO0*%
X27150000Y-38675000D03*
%TD*%
D12*
%TO.P,J21,1,Pin_1*%
%TO.N,+5V*%
X52500000Y-52750000D03*
%TD*%
D20*
%TO.P,J2,1,Pin_1*%
%TO.N,~{MCLR}*%
X43885000Y-43770000D03*
%TO.P,J2,2,Pin_2*%
%TO.N,+3.3V*%
X42615000Y-43770000D03*
%TO.P,J2,3,Pin_3*%
%TO.N,GND*%
X43885000Y-42500000D03*
%TO.P,J2,4,Pin_4*%
%TO.N,ICSPDAT*%
X42615000Y-42500000D03*
%TO.P,J2,5,Pin_5*%
%TO.N,ICSPCLK*%
X43885000Y-41230000D03*
%TO.P,J2,6,Pin_6*%
%TO.N,unconnected-(J2-Pin_6-Pad6)*%
X42615000Y-41230000D03*
%TD*%
D14*
%TO.P,Q1,1,G*%
%TO.N,Net-(Q1-G)*%
X24600000Y-40412500D03*
%TO.P,Q1,2,S*%
%TO.N,Net-(Q1-S)*%
X22700000Y-40412500D03*
%TO.P,Q1,3,D*%
%TO.N,Net-(Q1-D)*%
X23650000Y-42287500D03*
%TD*%
D12*
%TO.P,J20,1,Pin_1*%
%TO.N,GND*%
X48750000Y-52750000D03*
%TD*%
%TO.P,J23,1,Pin_1*%
%TO.N,GND*%
X60000000Y-52750000D03*
%TD*%
D21*
%TO.P,Q8,1,G*%
%TO.N,Net-(Q7-G)*%
X75512500Y-41700000D03*
%TO.P,Q8,2,S*%
%TO.N,GND*%
X75512500Y-43600000D03*
%TO.P,Q8,3,D*%
%TO.N,Net-(Q7-D)*%
X77387500Y-42650000D03*
%TD*%
%TO.P,Q4,1,G*%
%TO.N,Net-(Q3-G)*%
X36412500Y-41700000D03*
%TO.P,Q4,2,S*%
%TO.N,GND*%
X36412500Y-43600000D03*
%TO.P,Q4,3,D*%
%TO.N,Net-(Q3-D)*%
X38287500Y-42650000D03*
%TD*%
D19*
%TO.P,C1,1*%
%TO.N,+3.3V*%
X54000000Y-44475000D03*
%TO.P,C1,2*%
%TO.N,GND*%
X54000000Y-46025000D03*
%TD*%
D13*
%TO.P,R24,1*%
%TO.N,GND*%
X76250000Y-37025000D03*
%TO.P,R24,2*%
%TO.N,/IN_GPIO11*%
X76250000Y-38675000D03*
%TD*%
D12*
%TO.P,J24,1,Pin_1*%
%TO.N,+5V*%
X63750000Y-52750000D03*
%TD*%
D19*
%TO.P,C3,1*%
%TO.N,~{MCLR}*%
X52500000Y-44475000D03*
%TO.P,C3,2*%
%TO.N,GND*%
X52500000Y-46025000D03*
%TD*%
D21*
%TO.P,Q6,1,G*%
%TO.N,Net-(Q5-G)*%
X65512500Y-41700000D03*
%TO.P,Q6,2,S*%
%TO.N,GND*%
X65512500Y-43600000D03*
%TO.P,Q6,3,D*%
%TO.N,Net-(Q5-D)*%
X67387500Y-42650000D03*
%TD*%
D13*
%TO.P,R30,1*%
%TO.N,+3.3V*%
X47600000Y-32957000D03*
%TO.P,R30,2*%
%TO.N,/SCL*%
X47600000Y-34607000D03*
%TD*%
D12*
%TO.P,J3,1,Pin_1*%
%TO.N,/GPIO11*%
X71250000Y-49500000D03*
%TD*%
%TO.P,J5,1,Pin_1*%
%TO.N,/GPIO9*%
X63750000Y-49500000D03*
%TD*%
%TO.P,J10,1,Pin_1*%
%TO.N,/GPIO4*%
X45000000Y-49500000D03*
%TD*%
D13*
%TO.P,R12,1*%
%TO.N,+3.3V*%
X34150000Y-37025000D03*
%TO.P,R12,2*%
%TO.N,Net-(Q3-S)*%
X34150000Y-38675000D03*
%TD*%
D15*
%TO.P,R6,1*%
%TO.N,Net-(Q1-D)*%
X29150000Y-41375000D03*
%TO.P,R6,2*%
%TO.N,/IN_GPIO0*%
X29150000Y-39725000D03*
%TD*%
%TO.P,R16,1*%
%TO.N,/IN_GPIO10*%
X64750000Y-38675000D03*
%TO.P,R16,2*%
%TO.N,+3.3V*%
X64750000Y-37025000D03*
%TD*%
D14*
%TO.P,Q3,1,G*%
%TO.N,Net-(Q3-G)*%
X34600000Y-40412500D03*
%TO.P,Q3,2,S*%
%TO.N,Net-(Q3-S)*%
X32700000Y-40412500D03*
%TO.P,Q3,3,D*%
%TO.N,Net-(Q3-D)*%
X33650000Y-42287500D03*
%TD*%
%TO.P,Q5,1,G*%
%TO.N,Net-(Q5-G)*%
X63700000Y-40412500D03*
%TO.P,Q5,2,S*%
%TO.N,Net-(Q5-S)*%
X61800000Y-40412500D03*
%TO.P,Q5,3,D*%
%TO.N,Net-(Q5-D)*%
X62750000Y-42287500D03*
%TD*%
D15*
%TO.P,R9,1*%
%TO.N,/IN_GPIO1*%
X35650000Y-38675000D03*
%TO.P,R9,2*%
%TO.N,+3.3V*%
X35650000Y-37025000D03*
%TD*%
D13*
%TO.P,R5,1*%
%TO.N,+3.3V*%
X24150000Y-37025000D03*
%TO.P,R5,2*%
%TO.N,Net-(Q1-S)*%
X24150000Y-38675000D03*
%TD*%
%TO.P,R19,1*%
%TO.N,+3.3V*%
X63250000Y-37025000D03*
%TO.P,R19,2*%
%TO.N,Net-(Q5-S)*%
X63250000Y-38675000D03*
%TD*%
D10*
%TO.P,R25,1*%
%TO.N,/IN_GPIO11*%
X76775000Y-40150000D03*
%TO.P,R25,2*%
%TO.N,Net-(Q7-G)*%
X75125000Y-40150000D03*
%TD*%
D15*
%TO.P,R23,1*%
%TO.N,/IN_GPIO11*%
X74750000Y-38675000D03*
%TO.P,R23,2*%
%TO.N,+3.3V*%
X74750000Y-37025000D03*
%TD*%
D12*
%TO.P,J8,1,Pin_1*%
%TO.N,/GPIO6*%
X52500000Y-49500000D03*
%TD*%
%TO.P,J16,1,Pin_1*%
%TO.N,+3.3V*%
X33750000Y-52750000D03*
%TD*%
D10*
%TO.P,R8,1*%
%TO.N,/GPIO0*%
X27775000Y-45150000D03*
%TO.P,R8,2*%
%TO.N,Net-(Q1-D)*%
X26125000Y-45150000D03*
%TD*%
D12*
%TO.P,J12,1,Pin_1*%
%TO.N,/SCL*%
X37500000Y-49500000D03*
%TD*%
D10*
%TO.P,R15,1*%
%TO.N,/GPIO1*%
X37775000Y-45150000D03*
%TO.P,R15,2*%
%TO.N,Net-(Q3-D)*%
X36125000Y-45150000D03*
%TD*%
D15*
%TO.P,R1,1*%
%TO.N,+3.3V*%
X51000000Y-46075000D03*
%TO.P,R1,2*%
%TO.N,~{MCLR}*%
X51000000Y-44425000D03*
%TD*%
D14*
%TO.P,Q7,1,G*%
%TO.N,Net-(Q7-G)*%
X73700000Y-40412500D03*
%TO.P,Q7,2,S*%
%TO.N,Net-(Q7-S)*%
X71800000Y-40412500D03*
%TO.P,Q7,3,D*%
%TO.N,Net-(Q7-D)*%
X72750000Y-42287500D03*
%TD*%
D13*
%TO.P,R17,1*%
%TO.N,GND*%
X66250000Y-37025000D03*
%TO.P,R17,2*%
%TO.N,/IN_GPIO10*%
X66250000Y-38675000D03*
%TD*%
D21*
%TO.P,Q2,1,G*%
%TO.N,Net-(Q1-G)*%
X26412500Y-41700000D03*
%TO.P,Q2,2,S*%
%TO.N,GND*%
X26412500Y-43600000D03*
%TO.P,Q2,3,D*%
%TO.N,Net-(Q1-D)*%
X28287500Y-42650000D03*
%TD*%
D12*
%TO.P,J18,1,Pin_1*%
%TO.N,+5V*%
X41250000Y-52750000D03*
%TD*%
D13*
%TO.P,R28,1*%
%TO.N,+5V*%
X71750000Y-37025000D03*
%TO.P,R28,2*%
%TO.N,Net-(Q7-S)*%
X71750000Y-38675000D03*
%TD*%
D15*
%TO.P,R13,1*%
%TO.N,Net-(Q3-D)*%
X39150000Y-41375000D03*
%TO.P,R13,2*%
%TO.N,/IN_GPIO1*%
X39150000Y-39725000D03*
%TD*%
D12*
%TO.P,J25,1,Pin_1*%
%TO.N,+3.3V*%
X67500000Y-52750000D03*
%TD*%
%TO.P,J17,1,Pin_1*%
%TO.N,GND*%
X37500000Y-52750000D03*
%TD*%
%TO.P,J22,1,Pin_1*%
%TO.N,+3.3V*%
X56250000Y-52750000D03*
%TD*%
D13*
%TO.P,R26,1*%
%TO.N,+3.3V*%
X73250000Y-37025000D03*
%TO.P,R26,2*%
%TO.N,Net-(Q7-S)*%
X73250000Y-38675000D03*
%TD*%
D14*
%TO.P,D2,1*%
%TO.N,Net-(Q3-D)*%
X34600000Y-44312500D03*
%TO.P,D2,2*%
%TO.N,Net-(Q3-S)*%
X32700000Y-44312500D03*
%TO.P,D2,3*%
%TO.N,GND*%
X33650000Y-46187500D03*
%TD*%
D22*
%TO.P,U2,1,VDD*%
%TO.N,+3.3V*%
X54000000Y-42675000D03*
%TO.P,U2,2,RA5*%
%TO.N,/GPIO7*%
X54000000Y-42025000D03*
%TO.P,U2,3,RA4*%
%TO.N,/GPIO8*%
X54000000Y-41375000D03*
%TO.P,U2,4,~{MCLR/RA3}*%
%TO.N,~{MCLR}*%
X54000000Y-40725000D03*
%TO.P,U2,5,RC5*%
%TO.N,/GPIO9*%
X54000000Y-40075000D03*
%TO.P,U2,6,RC4*%
%TO.N,/IN_GPIO10*%
X54000000Y-39425000D03*
%TO.P,U2,7,RC3*%
%TO.N,/IN_GPIO11*%
X54000000Y-38775000D03*
%TO.P,U2,8,RC6*%
%TO.N,BUS-TX*%
X54000000Y-38125000D03*
%TO.P,U2,9,RC7*%
%TO.N,BUS-DE*%
X54000000Y-37475000D03*
%TO.P,U2,10,RB7*%
%TO.N,BUS-RX*%
X54000000Y-36825000D03*
%TO.P,U2,11,RB6*%
%TO.N,/IN_GPIO0*%
X47000000Y-36825000D03*
%TO.P,U2,12,RB5*%
%TO.N,/IN_GPIO1*%
X47000000Y-37475000D03*
%TO.P,U2,13,RB4*%
%TO.N,/SCL*%
X47000000Y-38125000D03*
%TO.P,U2,14,RC2*%
%TO.N,/SDA*%
X47000000Y-38775000D03*
%TO.P,U2,15,RC1*%
%TO.N,/GPIO6*%
X47000000Y-39425000D03*
%TO.P,U2,16,RC0*%
%TO.N,/GPIO5*%
X47000000Y-40075000D03*
%TO.P,U2,17,RA2*%
%TO.N,/GPIO4*%
X47000000Y-40725000D03*
%TO.P,U2,18,ISCPCLK/RA1*%
%TO.N,ICSPCLK*%
X47000000Y-41375000D03*
%TO.P,U2,19,ICSPDAT/RA0*%
%TO.N,ICSPDAT*%
X47000000Y-42025000D03*
%TO.P,U2,20,VSS*%
%TO.N,GND*%
X47000000Y-42675000D03*
%TD*%
D10*
%TO.P,R11,1*%
%TO.N,/IN_GPIO1*%
X37675000Y-40150000D03*
%TO.P,R11,2*%
%TO.N,Net-(Q3-G)*%
X36025000Y-40150000D03*
%TD*%
D15*
%TO.P,R2,1*%
%TO.N,/IN_GPIO0*%
X25650000Y-38675000D03*
%TO.P,R2,2*%
%TO.N,+3.3V*%
X25650000Y-37025000D03*
%TD*%
D23*
%TO.P,U1,1,RO*%
%TO.N,BUS-RX*%
X56850000Y-35490000D03*
%TO.P,U1,2,~{RE}*%
%TO.N,GND*%
X57350000Y-35490000D03*
%TO.P,U1,3,DE*%
%TO.N,BUS-DE*%
X57850000Y-35490000D03*
%TO.P,U1,4,DI*%
%TO.N,BUS-TX*%
X58350000Y-35490000D03*
%TO.P,U1,5,GND*%
%TO.N,GND*%
X58350000Y-34010000D03*
%TO.P,U1,6,A*%
%TO.N,/A*%
X57850000Y-34010000D03*
%TO.P,U1,7,B*%
%TO.N,/B*%
X57350000Y-34010000D03*
%TO.P,U1,8,VCC*%
%TO.N,+3.3V*%
X56850000Y-34010000D03*
%TD*%
D13*
%TO.P,R14,1*%
%TO.N,+5V*%
X32650000Y-37025000D03*
%TO.P,R14,2*%
%TO.N,Net-(Q3-S)*%
X32650000Y-38675000D03*
%TD*%
%TO.P,R31,1*%
%TO.N,+3.3V*%
X53467000Y-32957000D03*
%TO.P,R31,2*%
%TO.N,/SDA*%
X53467000Y-34607000D03*
%TD*%
D12*
%TO.P,J7,1,Pin_1*%
%TO.N,/GPIO7*%
X56250000Y-49500000D03*
%TD*%
D24*
%TO.P,C12,1*%
%TO.N,+5V*%
X43975000Y-30700000D03*
%TO.P,C12,2*%
%TO.N,GND*%
X41025000Y-30700000D03*
%TD*%
D25*
%TO.N,GND*%
X42835000Y-34440000D03*
X65695000Y-47140000D03*
X76600000Y-43600000D03*
X66600000Y-43600000D03*
X37755000Y-31900000D03*
X47915000Y-31900000D03*
X55535000Y-31900000D03*
X62750000Y-45050000D03*
X54600000Y-36000000D03*
X58500000Y-33300000D03*
X66250000Y-37750000D03*
X37150000Y-37750000D03*
D26*
X39700000Y-30700000D03*
D25*
X50455000Y-49680000D03*
X54975000Y-46025000D03*
X27150000Y-37750000D03*
X78395000Y-44600000D03*
X27500000Y-43600000D03*
X22515000Y-47140000D03*
X33650000Y-45050000D03*
X73315000Y-49680000D03*
D26*
X61300000Y-30700000D03*
D25*
X50455000Y-39520000D03*
X27595000Y-49680000D03*
X42835000Y-47140000D03*
X70775000Y-42060000D03*
X58075000Y-49680000D03*
X35215000Y-47140000D03*
X44750000Y-42675000D03*
X60615000Y-34440000D03*
X55535000Y-44600000D03*
X72750000Y-45050000D03*
X23650000Y-45050000D03*
X37500000Y-43600000D03*
X76250000Y-37750000D03*
X60615000Y-42060000D03*
X30135000Y-44600000D03*
X46700000Y-33800000D03*
%TO.N,+5V*%
X32650000Y-37750000D03*
X22650000Y-37750000D03*
X71750000Y-37750000D03*
X61750000Y-37750000D03*
%TO.N,~{MCLR}*%
X44750000Y-43750000D03*
X52500000Y-43250000D03*
%TO.N,ICSPDAT*%
X45233100Y-41955013D03*
X41750000Y-42500000D03*
%TO.N,/B*%
X57200000Y-32900000D03*
%TO.N,/SCL*%
X49389000Y-35560000D03*
%TO.N,/A*%
X57850000Y-32300000D03*
%TO.N,/SDA*%
X51689000Y-35560000D03*
%TO.N,/GPIO10*%
X66850000Y-45950000D03*
%TO.N,/GPIO9*%
X58500000Y-40750000D03*
%TO.N,/GPIO8*%
X57750000Y-41750000D03*
%TO.N,/GPIO7*%
X57000000Y-42500000D03*
%TO.N,/GPIO1*%
X37750000Y-45950000D03*
%TO.N,/GPIO0*%
X27750000Y-45950000D03*
%TO.N,/IN_GPIO0*%
X45000000Y-36500000D03*
X29150000Y-38850000D03*
%TO.N,/IN_GPIO1*%
X39150000Y-38850000D03*
X44500000Y-37250000D03*
%TO.N,/IN_GPIO10*%
X58500000Y-38750000D03*
X68250000Y-38850000D03*
%TO.N,/GPIO11*%
X76850000Y-45950000D03*
%TO.N,/IN_GPIO11*%
X78250000Y-38850000D03*
X58247017Y-37991051D03*
%TD*%
D27*
%TO.N,GND*%
X57500000Y-34800000D02*
X58200000Y-34800000D01*
D28*
X65512500Y-43600000D02*
X66600000Y-43600000D01*
D27*
X58350000Y-33450000D02*
X58500000Y-33300000D01*
D28*
X36412500Y-43600000D02*
X37500000Y-43600000D01*
X62750000Y-46187500D02*
X62750000Y-45050000D01*
D27*
X58350000Y-34650000D02*
X58350000Y-34010000D01*
D29*
X60000000Y-30700000D02*
X61300000Y-30700000D01*
D27*
X57350000Y-34950000D02*
X57500000Y-34800000D01*
D29*
X41025000Y-30700000D02*
X39700000Y-30700000D01*
D28*
X27150000Y-37025000D02*
X27150000Y-37750000D01*
D27*
X55100000Y-35500000D02*
X54600000Y-36000000D01*
D30*
X44060000Y-42675000D02*
X43885000Y-42500000D01*
D28*
X75512500Y-43600000D02*
X76600000Y-43600000D01*
X37150000Y-37025000D02*
X37150000Y-37750000D01*
D30*
X44750000Y-42675000D02*
X44060000Y-42675000D01*
D29*
X52500000Y-46025000D02*
X54000000Y-46025000D01*
D28*
X33650000Y-46187500D02*
X33650000Y-45050000D01*
X76250000Y-37025000D02*
X76250000Y-37750000D01*
X72750000Y-46187500D02*
X72750000Y-45050000D01*
D27*
X57350000Y-35490000D02*
X57350000Y-34950000D01*
D30*
X47000000Y-42675000D02*
X44750000Y-42675000D01*
D27*
X58200000Y-34800000D02*
X58350000Y-34650000D01*
D28*
X66250000Y-37025000D02*
X66250000Y-37750000D01*
X26412500Y-43600000D02*
X27500000Y-43600000D01*
D30*
X49389000Y-33782000D02*
X46718000Y-33782000D01*
D28*
X23650000Y-46187500D02*
X23650000Y-45050000D01*
D30*
X46718000Y-33782000D02*
X46700000Y-33800000D01*
D29*
X54000000Y-46025000D02*
X54975000Y-46025000D01*
D27*
X55400000Y-35500000D02*
X55100000Y-35500000D01*
X58350000Y-34010000D02*
X58350000Y-33450000D01*
D28*
%TO.N,+5V*%
X32650000Y-37025000D02*
X32650000Y-37750000D01*
D31*
X45340000Y-27235000D02*
X43975000Y-28600000D01*
D28*
X71750000Y-37025000D02*
X71750000Y-37750000D01*
D31*
X43975000Y-30700000D02*
X43975000Y-28600000D01*
D28*
X61750000Y-37025000D02*
X61750000Y-37750000D01*
D31*
X46690000Y-27235000D02*
X45340000Y-27235000D01*
D28*
X22650000Y-37025000D02*
X22650000Y-37750000D01*
D30*
%TO.N,~{MCLR}*%
X44750000Y-43750000D02*
X43905000Y-43750000D01*
X52500000Y-41213708D02*
X52500000Y-43250000D01*
X54000000Y-40725000D02*
X52988708Y-40725000D01*
D29*
X51000000Y-44425000D02*
X52450000Y-44425000D01*
X52450000Y-44425000D02*
X52500000Y-44475000D01*
D30*
X52500000Y-43250000D02*
X52500000Y-44475000D01*
X52988708Y-40725000D02*
X52500000Y-41213708D01*
X43905000Y-43750000D02*
X43885000Y-43770000D01*
%TO.N,ICSPDAT*%
X41750000Y-42500000D02*
X42615000Y-42500000D01*
X45303087Y-42025000D02*
X45233100Y-41955013D01*
X47000000Y-42025000D02*
X45303087Y-42025000D01*
%TO.N,ICSPCLK*%
X43885000Y-41230000D02*
X45480000Y-41230000D01*
X45480000Y-41230000D02*
X45625000Y-41375000D01*
X45625000Y-41375000D02*
X47000000Y-41375000D01*
D27*
%TO.N,/B*%
X57350000Y-34010000D02*
X57350000Y-33300000D01*
X57350000Y-33050000D02*
X57200000Y-32900000D01*
D30*
X53021000Y-28524000D02*
X54310000Y-27235000D01*
D27*
X57350000Y-33300000D02*
X57350000Y-33050000D01*
D30*
X51689000Y-32832000D02*
X53021000Y-31500000D01*
X53021000Y-31500000D02*
X53021000Y-28524000D01*
%TO.N,/SCL*%
X41125000Y-38125000D02*
X40250000Y-39000000D01*
X47725000Y-34732000D02*
X47600000Y-34607000D01*
X37500000Y-48250000D02*
X37500000Y-49500000D01*
X51483636Y-29775000D02*
X51770000Y-29775000D01*
X49389000Y-35560000D02*
X49389000Y-37361000D01*
X38000000Y-47750000D02*
X37500000Y-48250000D01*
X49389000Y-34732000D02*
X49389000Y-35560000D01*
X39500000Y-47750000D02*
X38000000Y-47750000D01*
X40250000Y-39000000D02*
X40250000Y-47000000D01*
X48625000Y-38125000D02*
X47000000Y-38125000D01*
X49389000Y-34732000D02*
X47725000Y-34732000D01*
X49389000Y-37361000D02*
X48625000Y-38125000D01*
X40250000Y-47000000D02*
X39500000Y-47750000D01*
X47000000Y-38125000D02*
X41125000Y-38125000D01*
%TO.N,/A*%
X50481000Y-31740000D02*
X50481000Y-28524000D01*
X49389000Y-32832000D02*
X50481000Y-31740000D01*
D27*
X57850000Y-34010000D02*
X57850000Y-32300000D01*
D30*
X50481000Y-28524000D02*
X51770000Y-27235000D01*
%TO.N,/SDA*%
X51689000Y-34732000D02*
X51689000Y-35560000D01*
X50375000Y-37375000D02*
X51450000Y-36300000D01*
X53342000Y-34732000D02*
X53467000Y-34607000D01*
X41475000Y-38775000D02*
X47000000Y-38775000D01*
X51689000Y-35560000D02*
X51689000Y-36061000D01*
X41250000Y-49500000D02*
X41250000Y-48000000D01*
X41000000Y-39250000D02*
X41475000Y-38775000D01*
X51689000Y-36061000D02*
X51450000Y-36300000D01*
X47000000Y-38775000D02*
X48975000Y-38775000D01*
X41250000Y-48000000D02*
X41000000Y-47750000D01*
X41000000Y-47750000D02*
X41000000Y-39250000D01*
X48975000Y-38775000D02*
X50375000Y-37375000D01*
X51689000Y-34732000D02*
X53342000Y-34732000D01*
D27*
%TO.N,BUS-DE*%
X57850000Y-36650000D02*
X57850000Y-35490000D01*
X54000000Y-37475000D02*
X57025000Y-37475000D01*
X57025000Y-37475000D02*
X57850000Y-36650000D01*
%TO.N,BUS-TX*%
X58351000Y-36899000D02*
X58351000Y-35490000D01*
X54000000Y-38125000D02*
X57125000Y-38125000D01*
X57125000Y-38125000D02*
X58351000Y-36899000D01*
%TO.N,BUS-RX*%
X54000000Y-36825000D02*
X56275000Y-36825000D01*
X56275000Y-36825000D02*
X56850000Y-36250000D01*
X56850000Y-36250000D02*
X56850000Y-35490000D01*
D28*
%TO.N,Net-(Q1-S)*%
X22700000Y-38725000D02*
X22650000Y-38675000D01*
X22700000Y-40412500D02*
X22700000Y-38725000D01*
X22700000Y-40412500D02*
X22700000Y-44312500D01*
X22650000Y-38675000D02*
X24150000Y-38675000D01*
%TO.N,Net-(Q1-D)*%
X25287500Y-44312500D02*
X26125000Y-45150000D01*
X24600000Y-44312500D02*
X24600000Y-42650000D01*
X24600000Y-44312500D02*
X25287500Y-44312500D01*
X28287500Y-42650000D02*
X28287500Y-42237500D01*
X24012500Y-42650000D02*
X23650000Y-42287500D01*
X24600000Y-42650000D02*
X24012500Y-42650000D01*
X28287500Y-42650000D02*
X24600000Y-42650000D01*
X28287500Y-42237500D02*
X29150000Y-41375000D01*
%TO.N,Net-(Q3-S)*%
X32650000Y-38675000D02*
X34150000Y-38675000D01*
X32700000Y-40412500D02*
X32700000Y-38725000D01*
X32700000Y-40412500D02*
X32700000Y-44312500D01*
X32700000Y-38725000D02*
X32650000Y-38675000D01*
%TO.N,Net-(Q3-D)*%
X34012500Y-42650000D02*
X33650000Y-42287500D01*
X34600000Y-44312500D02*
X35287500Y-44312500D01*
X38287500Y-42650000D02*
X38287500Y-42237500D01*
X38287500Y-42650000D02*
X34600000Y-42650000D01*
X38287500Y-42237500D02*
X39150000Y-41375000D01*
X34600000Y-44312500D02*
X34600000Y-42650000D01*
X34600000Y-42650000D02*
X34012500Y-42650000D01*
X35287500Y-44312500D02*
X36125000Y-45150000D01*
%TO.N,Net-(Q5-D)*%
X67387500Y-42650000D02*
X63700000Y-42650000D01*
X63700000Y-44312500D02*
X64387500Y-44312500D01*
X67387500Y-42237500D02*
X68250000Y-41375000D01*
X63700000Y-42650000D02*
X63112500Y-42650000D01*
X63112500Y-42650000D02*
X62750000Y-42287500D01*
X67387500Y-42650000D02*
X67387500Y-42237500D01*
X64387500Y-44312500D02*
X65225000Y-45150000D01*
X63700000Y-44312500D02*
X63700000Y-42650000D01*
%TO.N,Net-(Q5-S)*%
X61800000Y-38725000D02*
X61750000Y-38675000D01*
X61800000Y-40412500D02*
X61800000Y-38725000D01*
X61800000Y-40412500D02*
X61800000Y-44312500D01*
X61750000Y-38675000D02*
X63250000Y-38675000D01*
%TO.N,Net-(Q7-S)*%
X71800000Y-40412500D02*
X71800000Y-38725000D01*
X71800000Y-40412500D02*
X71800000Y-44312500D01*
X71800000Y-38725000D02*
X71750000Y-38675000D01*
X71750000Y-38675000D02*
X73250000Y-38675000D01*
%TO.N,Net-(Q7-D)*%
X77387500Y-42650000D02*
X73700000Y-42650000D01*
X73700000Y-44312500D02*
X73700000Y-42650000D01*
X73112500Y-42650000D02*
X72750000Y-42287500D01*
X73700000Y-42650000D02*
X73112500Y-42650000D01*
X73700000Y-44312500D02*
X74387500Y-44312500D01*
X74387500Y-44312500D02*
X75225000Y-45150000D01*
X77387500Y-42650000D02*
X77387500Y-42237500D01*
X77387500Y-42237500D02*
X78250000Y-41375000D01*
%TO.N,Net-(Q1-G)*%
X26025000Y-41312500D02*
X26412500Y-41700000D01*
X24862500Y-40150000D02*
X24600000Y-40412500D01*
X26025000Y-40150000D02*
X24862500Y-40150000D01*
X26025000Y-40150000D02*
X26025000Y-41312500D01*
%TO.N,Net-(Q3-G)*%
X36025000Y-40150000D02*
X34862500Y-40150000D01*
X36025000Y-41312500D02*
X36412500Y-41700000D01*
X34862500Y-40150000D02*
X34600000Y-40412500D01*
X36025000Y-40150000D02*
X36025000Y-41312500D01*
%TO.N,Net-(Q5-G)*%
X65125000Y-41312500D02*
X65512500Y-41700000D01*
X65125000Y-40150000D02*
X63962500Y-40150000D01*
X65125000Y-40150000D02*
X65125000Y-41312500D01*
X63962500Y-40150000D02*
X63700000Y-40412500D01*
%TO.N,Net-(Q7-G)*%
X75125000Y-40150000D02*
X75125000Y-41312500D01*
X75125000Y-40150000D02*
X73962500Y-40150000D01*
X75125000Y-41312500D02*
X75512500Y-41700000D01*
X73962500Y-40150000D02*
X73700000Y-40412500D01*
%TO.N,+3.3V*%
X63250000Y-37025000D02*
X64750000Y-37025000D01*
X24150000Y-37025000D02*
X25650000Y-37025000D01*
X34150000Y-37025000D02*
X35650000Y-37025000D01*
D30*
X54000000Y-44475000D02*
X54000000Y-42675000D01*
D28*
X73250000Y-37025000D02*
X74750000Y-37025000D01*
D30*
%TO.N,/GPIO5*%
X48750000Y-48000000D02*
X48750000Y-49500000D01*
X48107996Y-40075000D02*
X49250000Y-41217004D01*
X49250000Y-41217004D02*
X49250000Y-47500000D01*
X49250000Y-47500000D02*
X48750000Y-48000000D01*
X47000000Y-40075000D02*
X48107996Y-40075000D01*
X48879000Y-49371000D02*
X48750000Y-49500000D01*
%TO.N,/GPIO4*%
X48500000Y-43250000D02*
X48500000Y-45000000D01*
X48011292Y-40725000D02*
X48500000Y-41213708D01*
X48500000Y-41213708D02*
X48500000Y-43250000D01*
X45000000Y-48500000D02*
X45500000Y-48000000D01*
X45500000Y-48000000D02*
X47750000Y-48000000D01*
X47000000Y-40725000D02*
X48011292Y-40725000D01*
X48500000Y-47250000D02*
X48500000Y-45000000D01*
X47750000Y-48000000D02*
X48500000Y-47250000D01*
X45000000Y-49500000D02*
X45000000Y-48500000D01*
D28*
%TO.N,/GPIO10*%
X66875000Y-45925000D02*
X66850000Y-45950000D01*
X66875000Y-45150000D02*
X66875000Y-45925000D01*
D30*
%TO.N,/GPIO9*%
X54000000Y-40075000D02*
X57825000Y-40075000D01*
X57825000Y-40075000D02*
X58500000Y-40750000D01*
%TO.N,/GPIO8*%
X57375000Y-41375000D02*
X57750000Y-41750000D01*
X54000000Y-41375000D02*
X57375000Y-41375000D01*
%TO.N,/GPIO7*%
X54000000Y-42025000D02*
X56525000Y-42025000D01*
X56525000Y-42025000D02*
X57000000Y-42500000D01*
%TO.N,/GPIO6*%
X48204700Y-39425000D02*
X47000000Y-39425000D01*
X50250000Y-48000000D02*
X50000000Y-47750000D01*
X52500000Y-49500000D02*
X52500000Y-48500000D01*
X50000000Y-47750000D02*
X50000000Y-41220300D01*
X52500000Y-48500000D02*
X52000000Y-48000000D01*
X52000000Y-48000000D02*
X50250000Y-48000000D01*
X50000000Y-41220300D02*
X48204700Y-39425000D01*
D28*
%TO.N,/GPIO1*%
X37775000Y-45925000D02*
X37750000Y-45950000D01*
X37775000Y-45150000D02*
X37775000Y-45925000D01*
%TO.N,/GPIO0*%
X27775000Y-45150000D02*
X27775000Y-45925000D01*
X27775000Y-45925000D02*
X27750000Y-45950000D01*
%TO.N,/IN_GPIO0*%
X29150000Y-39725000D02*
X29150000Y-38850000D01*
X28725000Y-40150000D02*
X29150000Y-39725000D01*
X27675000Y-40150000D02*
X27675000Y-39200000D01*
X27675000Y-39200000D02*
X27150000Y-38675000D01*
D30*
X45325000Y-36825000D02*
X45000000Y-36500000D01*
D28*
X27675000Y-40150000D02*
X28725000Y-40150000D01*
D30*
X47000000Y-36825000D02*
X45325000Y-36825000D01*
D28*
X25650000Y-38675000D02*
X27150000Y-38675000D01*
D30*
%TO.N,/IN_GPIO1*%
X47000000Y-37475000D02*
X44725000Y-37475000D01*
D28*
X37675000Y-39200000D02*
X37150000Y-38675000D01*
X39150000Y-39725000D02*
X39150000Y-38850000D01*
D30*
X44725000Y-37475000D02*
X44500000Y-37250000D01*
D28*
X35650000Y-38675000D02*
X37150000Y-38675000D01*
X37675000Y-40150000D02*
X38725000Y-40150000D01*
X37675000Y-40150000D02*
X37675000Y-39200000D01*
X38725000Y-40150000D02*
X39150000Y-39725000D01*
%TO.N,/IN_GPIO10*%
X66775000Y-39200000D02*
X66250000Y-38675000D01*
X64750000Y-38675000D02*
X66250000Y-38675000D01*
X66775000Y-40150000D02*
X66775000Y-39200000D01*
D30*
X57825000Y-39425000D02*
X58500000Y-38750000D01*
D28*
X68250000Y-39725000D02*
X68250000Y-38850000D01*
D30*
X54000000Y-39425000D02*
X57825000Y-39425000D01*
D28*
X67825000Y-40150000D02*
X68250000Y-39725000D01*
X66775000Y-40150000D02*
X67825000Y-40150000D01*
%TO.N,/GPIO11*%
X76875000Y-45150000D02*
X76875000Y-45925000D01*
X76875000Y-45925000D02*
X76850000Y-45950000D01*
%TO.N,/IN_GPIO11*%
X76775000Y-40150000D02*
X77825000Y-40150000D01*
X78250000Y-39725000D02*
X78250000Y-38850000D01*
D30*
X58247017Y-37991051D02*
X58247017Y-38002983D01*
D28*
X76775000Y-40150000D02*
X76775000Y-39200000D01*
D30*
X54000000Y-38775000D02*
X57475000Y-38775000D01*
D28*
X76775000Y-39200000D02*
X76250000Y-38675000D01*
X74750000Y-38675000D02*
X76250000Y-38675000D01*
D30*
X58247017Y-38002983D02*
X57475000Y-38775000D01*
D28*
X77825000Y-40150000D02*
X78250000Y-39725000D01*
%TD*%
%TA.AperFunction,Conductor*%
%TO.N,+3.3V*%
G36*
X56506922Y-25501280D02*
G01*
X56597266Y-25511459D01*
X56624331Y-25517636D01*
X56703540Y-25545352D01*
X56728553Y-25557398D01*
X56799606Y-25602043D01*
X56821313Y-25619355D01*
X56880644Y-25678686D01*
X56897957Y-25700395D01*
X56942600Y-25771444D01*
X56954648Y-25796462D01*
X56982362Y-25875666D01*
X56988540Y-25902735D01*
X56998720Y-25993076D01*
X56999500Y-26006961D01*
X56999500Y-26171965D01*
X57033210Y-26514249D01*
X57100308Y-26851572D01*
X57200150Y-27180706D01*
X57258515Y-27321611D01*
X57329381Y-27492698D01*
X57331770Y-27498464D01*
X57331772Y-27498469D01*
X57493893Y-27801775D01*
X57493897Y-27801782D01*
X57493900Y-27801787D01*
X57676063Y-28074414D01*
X57684975Y-28087751D01*
X57684985Y-28087765D01*
X57903176Y-28353632D01*
X58146367Y-28596823D01*
X58146372Y-28596827D01*
X58146373Y-28596828D01*
X58412240Y-28815019D01*
X58698213Y-29006100D01*
X58698222Y-29006105D01*
X58698224Y-29006106D01*
X59001530Y-29168227D01*
X59001532Y-29168227D01*
X59001538Y-29168231D01*
X59319295Y-29299850D01*
X59483509Y-29349663D01*
X59541945Y-29387960D01*
X59570401Y-29451772D01*
X59559841Y-29520839D01*
X59513617Y-29573232D01*
X59490845Y-29584505D01*
X59432670Y-29606203D01*
X59432664Y-29606206D01*
X59317455Y-29692452D01*
X59317452Y-29692455D01*
X59231206Y-29807664D01*
X59231202Y-29807671D01*
X59180908Y-29942517D01*
X59174825Y-29999104D01*
X59174501Y-30002123D01*
X59174500Y-30002135D01*
X59174500Y-31397870D01*
X59174501Y-31397876D01*
X59180908Y-31457483D01*
X59231202Y-31592328D01*
X59231206Y-31592335D01*
X59317452Y-31707544D01*
X59317455Y-31707547D01*
X59432664Y-31793793D01*
X59432671Y-31793797D01*
X59447447Y-31799308D01*
X59567517Y-31844091D01*
X59627127Y-31850500D01*
X60372872Y-31850499D01*
X60432483Y-31844091D01*
X60567331Y-31793796D01*
X60682546Y-31707546D01*
X60768796Y-31592331D01*
X60819091Y-31457483D01*
X60825500Y-31397873D01*
X60825500Y-31393130D01*
X60845185Y-31326091D01*
X60897989Y-31280336D01*
X60967147Y-31270392D01*
X60996951Y-31278568D01*
X61110256Y-31325501D01*
X61110260Y-31325501D01*
X61110261Y-31325502D01*
X61235928Y-31350500D01*
X61235931Y-31350500D01*
X61364071Y-31350500D01*
X61448615Y-31333682D01*
X61489744Y-31325501D01*
X61608127Y-31276465D01*
X61714669Y-31205276D01*
X61805276Y-31114669D01*
X61876465Y-31008127D01*
X61925501Y-30889744D01*
X61944373Y-30794871D01*
X61950500Y-30764071D01*
X61950500Y-30635928D01*
X61925502Y-30510261D01*
X61925501Y-30510260D01*
X61925501Y-30510256D01*
X61876465Y-30391873D01*
X61876464Y-30391872D01*
X61876461Y-30391866D01*
X61805276Y-30285331D01*
X61805273Y-30285327D01*
X61714672Y-30194726D01*
X61714668Y-30194723D01*
X61608133Y-30123538D01*
X61608124Y-30123533D01*
X61489744Y-30074499D01*
X61489738Y-30074497D01*
X61364071Y-30049500D01*
X61364069Y-30049500D01*
X61235931Y-30049500D01*
X61235929Y-30049500D01*
X61110261Y-30074497D01*
X61110255Y-30074499D01*
X60996952Y-30121431D01*
X60927482Y-30128900D01*
X60865003Y-30097625D01*
X60829351Y-30037536D01*
X60825499Y-30006870D01*
X60825499Y-30002129D01*
X60825498Y-30002123D01*
X60825497Y-30002116D01*
X60819091Y-29942517D01*
X60807798Y-29912240D01*
X60768797Y-29807671D01*
X60768793Y-29807664D01*
X60687305Y-29698811D01*
X60662887Y-29633347D01*
X60677738Y-29565074D01*
X60727143Y-29515668D01*
X60786571Y-29500500D01*
X65632843Y-29500500D01*
X65699882Y-29520185D01*
X65745637Y-29572989D01*
X65755581Y-29642147D01*
X65726556Y-29705703D01*
X65711508Y-29720353D01*
X65579130Y-29828992D01*
X65328992Y-30079130D01*
X65104568Y-30352592D01*
X65104558Y-30352606D01*
X64908028Y-30646734D01*
X64908017Y-30646752D01*
X64741264Y-30958723D01*
X64741262Y-30958728D01*
X64605882Y-31285563D01*
X64503188Y-31624104D01*
X64503185Y-31624115D01*
X64434176Y-31971053D01*
X64434173Y-31971070D01*
X64414951Y-32166244D01*
X64399500Y-32323119D01*
X64399500Y-32676881D01*
X64409606Y-32779489D01*
X64434173Y-33028929D01*
X64434176Y-33028946D01*
X64503185Y-33375884D01*
X64503188Y-33375895D01*
X64605882Y-33714436D01*
X64678396Y-33889500D01*
X64741044Y-34040746D01*
X64741262Y-34041271D01*
X64741264Y-34041276D01*
X64908017Y-34353247D01*
X64908028Y-34353265D01*
X65104558Y-34647393D01*
X65104568Y-34647407D01*
X65328992Y-34920869D01*
X65579130Y-35171007D01*
X65579135Y-35171011D01*
X65579136Y-35171012D01*
X65852598Y-35395436D01*
X66146741Y-35591976D01*
X66146750Y-35591981D01*
X66146752Y-35591982D01*
X66458723Y-35758735D01*
X66458725Y-35758735D01*
X66458731Y-35758739D01*
X66785565Y-35894118D01*
X67124095Y-35996809D01*
X67124101Y-35996810D01*
X67124104Y-35996811D01*
X67124115Y-35996814D01*
X67341674Y-36040088D01*
X67471060Y-36065825D01*
X67823119Y-36100500D01*
X67823122Y-36100500D01*
X68176878Y-36100500D01*
X68176881Y-36100500D01*
X68528940Y-36065825D01*
X68700679Y-36031663D01*
X68875884Y-35996814D01*
X68875895Y-35996811D01*
X68875895Y-35996810D01*
X68875905Y-35996809D01*
X69214435Y-35894118D01*
X69541269Y-35758739D01*
X69853259Y-35591976D01*
X70147402Y-35395436D01*
X70420864Y-35171012D01*
X70671012Y-34920864D01*
X70895436Y-34647402D01*
X71091976Y-34353259D01*
X71258739Y-34041269D01*
X71321190Y-33890498D01*
X71365030Y-33836097D01*
X71431324Y-33814032D01*
X71499023Y-33831311D01*
X71538851Y-33869061D01*
X71684978Y-34087756D01*
X71684985Y-34087765D01*
X71903176Y-34353632D01*
X72146367Y-34596823D01*
X72146372Y-34596827D01*
X72146373Y-34596828D01*
X72412240Y-34815019D01*
X72698213Y-35006100D01*
X72698222Y-35006105D01*
X72698224Y-35006106D01*
X73001530Y-35168227D01*
X73001532Y-35168227D01*
X73001538Y-35168231D01*
X73319295Y-35299850D01*
X73648422Y-35399690D01*
X73985750Y-35466789D01*
X74328031Y-35500500D01*
X74434108Y-35500500D01*
X77934108Y-35500500D01*
X77996249Y-35500500D01*
X78003736Y-35500726D01*
X78293796Y-35518271D01*
X78308659Y-35520076D01*
X78590798Y-35571780D01*
X78605335Y-35575363D01*
X78879172Y-35660695D01*
X78893163Y-35666000D01*
X79154743Y-35783727D01*
X79167989Y-35790680D01*
X79413465Y-35939075D01*
X79425776Y-35947573D01*
X79620060Y-36099784D01*
X79651573Y-36124473D01*
X79662781Y-36134403D01*
X79865596Y-36337218D01*
X79875526Y-36348426D01*
X79895267Y-36373623D01*
X79996509Y-36502850D01*
X80052422Y-36574217D01*
X80060926Y-36586537D01*
X80140151Y-36717591D01*
X80209316Y-36832004D01*
X80216275Y-36845263D01*
X80333997Y-37106831D01*
X80339306Y-37120832D01*
X80424635Y-37394663D01*
X80428219Y-37409201D01*
X80479923Y-37691340D01*
X80481728Y-37706205D01*
X80499274Y-37996263D01*
X80499500Y-38003750D01*
X80499500Y-49132843D01*
X80479815Y-49199882D01*
X80427011Y-49245637D01*
X80357853Y-49255581D01*
X80294297Y-49226556D01*
X80279647Y-49211508D01*
X80171007Y-49079130D01*
X79920869Y-48828992D01*
X79647407Y-48604568D01*
X79647406Y-48604567D01*
X79647402Y-48604564D01*
X79353259Y-48408024D01*
X79353254Y-48408021D01*
X79353247Y-48408017D01*
X79041276Y-48241264D01*
X79041271Y-48241262D01*
X78983308Y-48217253D01*
X78884410Y-48176288D01*
X78714436Y-48105882D01*
X78375895Y-48003188D01*
X78375884Y-48003185D01*
X78028946Y-47934176D01*
X78028929Y-47934173D01*
X77762700Y-47907952D01*
X77676881Y-47899500D01*
X77323119Y-47899500D01*
X77243748Y-47907317D01*
X76971070Y-47934173D01*
X76971053Y-47934176D01*
X76624115Y-48003185D01*
X76624104Y-48003188D01*
X76285563Y-48105882D01*
X75958728Y-48241262D01*
X75958723Y-48241264D01*
X75646752Y-48408017D01*
X75646734Y-48408028D01*
X75352606Y-48604558D01*
X75352592Y-48604568D01*
X75079130Y-48828992D01*
X74828992Y-49079130D01*
X74604568Y-49352592D01*
X74604558Y-49352606D01*
X74408028Y-49646734D01*
X74408017Y-49646752D01*
X74241264Y-49958723D01*
X74241262Y-49958728D01*
X74105882Y-50285563D01*
X74003188Y-50624104D01*
X74003185Y-50624115D01*
X73934176Y-50971053D01*
X73934173Y-50971070D01*
X73899500Y-51323122D01*
X73899500Y-51676877D01*
X73934173Y-52028929D01*
X73934176Y-52028946D01*
X74003185Y-52375884D01*
X74003188Y-52375895D01*
X74105882Y-52714436D01*
X74241262Y-53041271D01*
X74241264Y-53041276D01*
X74408017Y-53353247D01*
X74408028Y-53353265D01*
X74604558Y-53647393D01*
X74604568Y-53647407D01*
X74828992Y-53920869D01*
X75079130Y-54171007D01*
X75211508Y-54279647D01*
X75250842Y-54337392D01*
X75252713Y-54407237D01*
X75216525Y-54467005D01*
X75153770Y-54497721D01*
X75132843Y-54499500D01*
X25867157Y-54499500D01*
X25800118Y-54479815D01*
X25754363Y-54427011D01*
X25744419Y-54357853D01*
X25773444Y-54294297D01*
X25788492Y-54279647D01*
X25824220Y-54250324D01*
X25920864Y-54171012D01*
X26171012Y-53920864D01*
X26395436Y-53647402D01*
X26591976Y-53353259D01*
X26758739Y-53041269D01*
X26894118Y-52714435D01*
X26996809Y-52375905D01*
X26996811Y-52375895D01*
X26996814Y-52375884D01*
X27033611Y-52190889D01*
X27065825Y-52028940D01*
X27067996Y-52006898D01*
X28749500Y-52006898D01*
X28749500Y-53493102D01*
X28755126Y-53539954D01*
X28760122Y-53581561D01*
X28815639Y-53722343D01*
X28907077Y-53842922D01*
X29027656Y-53934360D01*
X29027657Y-53934360D01*
X29027658Y-53934361D01*
X29168436Y-53989877D01*
X29256898Y-54000500D01*
X29256903Y-54000500D01*
X30743097Y-54000500D01*
X30743102Y-54000500D01*
X30831564Y-53989877D01*
X30972342Y-53934361D01*
X31092922Y-53842922D01*
X31184361Y-53722342D01*
X31239877Y-53581564D01*
X31250500Y-53493102D01*
X31250500Y-52006946D01*
X32500000Y-52006946D01*
X32500000Y-52500000D01*
X33201518Y-52500000D01*
X33190889Y-52518409D01*
X33150000Y-52671009D01*
X33150000Y-52828991D01*
X33190889Y-52981591D01*
X33201518Y-53000000D01*
X32500000Y-53000000D01*
X32500000Y-53493053D01*
X32510613Y-53581443D01*
X32566079Y-53722095D01*
X32657435Y-53842564D01*
X32777904Y-53933920D01*
X32918556Y-53989386D01*
X33006946Y-54000000D01*
X33500000Y-54000000D01*
X33500000Y-53298482D01*
X33518409Y-53309111D01*
X33671009Y-53350000D01*
X33828991Y-53350000D01*
X33981591Y-53309111D01*
X34000000Y-53298482D01*
X34000000Y-54000000D01*
X34493054Y-54000000D01*
X34581443Y-53989386D01*
X34722095Y-53933920D01*
X34842564Y-53842564D01*
X34933920Y-53722095D01*
X34989386Y-53581443D01*
X35000000Y-53493053D01*
X35000000Y-53000000D01*
X34298482Y-53000000D01*
X34309111Y-52981591D01*
X34350000Y-52828991D01*
X34350000Y-52671009D01*
X34309111Y-52518409D01*
X34298482Y-52500000D01*
X35000000Y-52500000D01*
X35000000Y-52006949D01*
X34999999Y-52006943D01*
X34999994Y-52006898D01*
X36249500Y-52006898D01*
X36249500Y-53493102D01*
X36255126Y-53539954D01*
X36260122Y-53581561D01*
X36315639Y-53722343D01*
X36407077Y-53842922D01*
X36527656Y-53934360D01*
X36527657Y-53934360D01*
X36527658Y-53934361D01*
X36668436Y-53989877D01*
X36756898Y-54000500D01*
X36756903Y-54000500D01*
X38243097Y-54000500D01*
X38243102Y-54000500D01*
X38331564Y-53989877D01*
X38472342Y-53934361D01*
X38592922Y-53842922D01*
X38684361Y-53722342D01*
X38739877Y-53581564D01*
X38750500Y-53493102D01*
X38750500Y-52006898D01*
X39999500Y-52006898D01*
X39999500Y-53493102D01*
X40005126Y-53539954D01*
X40010122Y-53581561D01*
X40065639Y-53722343D01*
X40157077Y-53842922D01*
X40277656Y-53934360D01*
X40277657Y-53934360D01*
X40277658Y-53934361D01*
X40418436Y-53989877D01*
X40506898Y-54000500D01*
X40506903Y-54000500D01*
X41993097Y-54000500D01*
X41993102Y-54000500D01*
X42081564Y-53989877D01*
X42222342Y-53934361D01*
X42342922Y-53842922D01*
X42434361Y-53722342D01*
X42489877Y-53581564D01*
X42500500Y-53493102D01*
X42500500Y-52006946D01*
X43750000Y-52006946D01*
X43750000Y-52500000D01*
X44451518Y-52500000D01*
X44440889Y-52518409D01*
X44400000Y-52671009D01*
X44400000Y-52828991D01*
X44440889Y-52981591D01*
X44451518Y-53000000D01*
X43750000Y-53000000D01*
X43750000Y-53493053D01*
X43760613Y-53581443D01*
X43816079Y-53722095D01*
X43907435Y-53842564D01*
X44027904Y-53933920D01*
X44168556Y-53989386D01*
X44256946Y-54000000D01*
X44750000Y-54000000D01*
X44750000Y-53298482D01*
X44768409Y-53309111D01*
X44921009Y-53350000D01*
X45078991Y-53350000D01*
X45231591Y-53309111D01*
X45250000Y-53298482D01*
X45250000Y-54000000D01*
X45743054Y-54000000D01*
X45831443Y-53989386D01*
X45972095Y-53933920D01*
X46092564Y-53842564D01*
X46183920Y-53722095D01*
X46239386Y-53581443D01*
X46250000Y-53493053D01*
X46250000Y-53000000D01*
X45548482Y-53000000D01*
X45559111Y-52981591D01*
X45600000Y-52828991D01*
X45600000Y-52671009D01*
X45559111Y-52518409D01*
X45548482Y-52500000D01*
X46250000Y-52500000D01*
X46250000Y-52006949D01*
X46249999Y-52006943D01*
X46249994Y-52006898D01*
X47499500Y-52006898D01*
X47499500Y-53493102D01*
X47505126Y-53539954D01*
X47510122Y-53581561D01*
X47565639Y-53722343D01*
X47657077Y-53842922D01*
X47777656Y-53934360D01*
X47777657Y-53934360D01*
X47777658Y-53934361D01*
X47918436Y-53989877D01*
X48006898Y-54000500D01*
X48006903Y-54000500D01*
X49493097Y-54000500D01*
X49493102Y-54000500D01*
X49581564Y-53989877D01*
X49722342Y-53934361D01*
X49842922Y-53842922D01*
X49934361Y-53722342D01*
X49989877Y-53581564D01*
X50000500Y-53493102D01*
X50000500Y-52006898D01*
X51249500Y-52006898D01*
X51249500Y-53493102D01*
X51255126Y-53539954D01*
X51260122Y-53581561D01*
X51315639Y-53722343D01*
X51407077Y-53842922D01*
X51527656Y-53934360D01*
X51527657Y-53934360D01*
X51527658Y-53934361D01*
X51668436Y-53989877D01*
X51756898Y-54000500D01*
X51756903Y-54000500D01*
X53243097Y-54000500D01*
X53243102Y-54000500D01*
X53331564Y-53989877D01*
X53472342Y-53934361D01*
X53592922Y-53842922D01*
X53684361Y-53722342D01*
X53739877Y-53581564D01*
X53750500Y-53493102D01*
X53750500Y-52006946D01*
X55000000Y-52006946D01*
X55000000Y-52500000D01*
X55701518Y-52500000D01*
X55690889Y-52518409D01*
X55650000Y-52671009D01*
X55650000Y-52828991D01*
X55690889Y-52981591D01*
X55701518Y-53000000D01*
X55000000Y-53000000D01*
X55000000Y-53493053D01*
X55010613Y-53581443D01*
X55066079Y-53722095D01*
X55157435Y-53842564D01*
X55277904Y-53933920D01*
X55418556Y-53989386D01*
X55506946Y-54000000D01*
X56000000Y-54000000D01*
X56000000Y-53298482D01*
X56018409Y-53309111D01*
X56171009Y-53350000D01*
X56328991Y-53350000D01*
X56481591Y-53309111D01*
X56500000Y-53298482D01*
X56500000Y-54000000D01*
X56993054Y-54000000D01*
X57081443Y-53989386D01*
X57222095Y-53933920D01*
X57342564Y-53842564D01*
X57433920Y-53722095D01*
X57489386Y-53581443D01*
X57500000Y-53493053D01*
X57500000Y-53000000D01*
X56798482Y-53000000D01*
X56809111Y-52981591D01*
X56850000Y-52828991D01*
X56850000Y-52671009D01*
X56809111Y-52518409D01*
X56798482Y-52500000D01*
X57500000Y-52500000D01*
X57500000Y-52006949D01*
X57499999Y-52006943D01*
X57499994Y-52006898D01*
X58749500Y-52006898D01*
X58749500Y-53493102D01*
X58755126Y-53539954D01*
X58760122Y-53581561D01*
X58815639Y-53722343D01*
X58907077Y-53842922D01*
X59027656Y-53934360D01*
X59027657Y-53934360D01*
X59027658Y-53934361D01*
X59168436Y-53989877D01*
X59256898Y-54000500D01*
X59256903Y-54000500D01*
X60743097Y-54000500D01*
X60743102Y-54000500D01*
X60831564Y-53989877D01*
X60972342Y-53934361D01*
X61092922Y-53842922D01*
X61184361Y-53722342D01*
X61239877Y-53581564D01*
X61250500Y-53493102D01*
X61250500Y-52006898D01*
X62499500Y-52006898D01*
X62499500Y-53493102D01*
X62505126Y-53539954D01*
X62510122Y-53581561D01*
X62565639Y-53722343D01*
X62657077Y-53842922D01*
X62777656Y-53934360D01*
X62777657Y-53934360D01*
X62777658Y-53934361D01*
X62918436Y-53989877D01*
X63006898Y-54000500D01*
X63006903Y-54000500D01*
X64493097Y-54000500D01*
X64493102Y-54000500D01*
X64581564Y-53989877D01*
X64722342Y-53934361D01*
X64842922Y-53842922D01*
X64934361Y-53722342D01*
X64989877Y-53581564D01*
X65000500Y-53493102D01*
X65000500Y-52006946D01*
X66250000Y-52006946D01*
X66250000Y-52500000D01*
X66951518Y-52500000D01*
X66940889Y-52518409D01*
X66900000Y-52671009D01*
X66900000Y-52828991D01*
X66940889Y-52981591D01*
X66951518Y-53000000D01*
X66250000Y-53000000D01*
X66250000Y-53493053D01*
X66260613Y-53581443D01*
X66316079Y-53722095D01*
X66407435Y-53842564D01*
X66527904Y-53933920D01*
X66668556Y-53989386D01*
X66756946Y-54000000D01*
X67250000Y-54000000D01*
X67250000Y-53298482D01*
X67268409Y-53309111D01*
X67421009Y-53350000D01*
X67578991Y-53350000D01*
X67731591Y-53309111D01*
X67750000Y-53298482D01*
X67750000Y-54000000D01*
X68243054Y-54000000D01*
X68331443Y-53989386D01*
X68472095Y-53933920D01*
X68592564Y-53842564D01*
X68683920Y-53722095D01*
X68739386Y-53581443D01*
X68750000Y-53493053D01*
X68750000Y-53000000D01*
X68048482Y-53000000D01*
X68059111Y-52981591D01*
X68100000Y-52828991D01*
X68100000Y-52671009D01*
X68059111Y-52518409D01*
X68048482Y-52500000D01*
X68750000Y-52500000D01*
X68750000Y-52006949D01*
X68749999Y-52006943D01*
X68749994Y-52006898D01*
X69999500Y-52006898D01*
X69999500Y-53493102D01*
X70005126Y-53539954D01*
X70010122Y-53581561D01*
X70065639Y-53722343D01*
X70157077Y-53842922D01*
X70277656Y-53934360D01*
X70277657Y-53934360D01*
X70277658Y-53934361D01*
X70418436Y-53989877D01*
X70506898Y-54000500D01*
X70506903Y-54000500D01*
X71993097Y-54000500D01*
X71993102Y-54000500D01*
X72081564Y-53989877D01*
X72222342Y-53934361D01*
X72342922Y-53842922D01*
X72434361Y-53722342D01*
X72489877Y-53581564D01*
X72500500Y-53493102D01*
X72500500Y-52006898D01*
X72489877Y-51918436D01*
X72434361Y-51777658D01*
X72434360Y-51777657D01*
X72434360Y-51777656D01*
X72342922Y-51657077D01*
X72222343Y-51565639D01*
X72126192Y-51527722D01*
X72081564Y-51510123D01*
X72081563Y-51510122D01*
X72081561Y-51510122D01*
X72035926Y-51504642D01*
X71993102Y-51499500D01*
X70506898Y-51499500D01*
X70467853Y-51504188D01*
X70418438Y-51510122D01*
X70277656Y-51565639D01*
X70157077Y-51657077D01*
X70065639Y-51777656D01*
X70010122Y-51918438D01*
X70004188Y-51967853D01*
X69999500Y-52006898D01*
X68749994Y-52006898D01*
X68739386Y-51918556D01*
X68683920Y-51777904D01*
X68592564Y-51657435D01*
X68472095Y-51566079D01*
X68331443Y-51510613D01*
X68243054Y-51500000D01*
X67750000Y-51500000D01*
X67750000Y-52201517D01*
X67731591Y-52190889D01*
X67578991Y-52150000D01*
X67421009Y-52150000D01*
X67268409Y-52190889D01*
X67250000Y-52201517D01*
X67250000Y-51500000D01*
X66756946Y-51500000D01*
X66668556Y-51510613D01*
X66527904Y-51566079D01*
X66407435Y-51657435D01*
X66316079Y-51777904D01*
X66260613Y-51918556D01*
X66250000Y-52006946D01*
X65000500Y-52006946D01*
X65000500Y-52006898D01*
X64989877Y-51918436D01*
X64934361Y-51777658D01*
X64934360Y-51777657D01*
X64934360Y-51777656D01*
X64842922Y-51657077D01*
X64722343Y-51565639D01*
X64626192Y-51527722D01*
X64581564Y-51510123D01*
X64581563Y-51510122D01*
X64581561Y-51510122D01*
X64535926Y-51504642D01*
X64493102Y-51499500D01*
X63006898Y-51499500D01*
X62967853Y-51504188D01*
X62918438Y-51510122D01*
X62777656Y-51565639D01*
X62657077Y-51657077D01*
X62565639Y-51777656D01*
X62510122Y-51918438D01*
X62504188Y-51967853D01*
X62499500Y-52006898D01*
X61250500Y-52006898D01*
X61239877Y-51918436D01*
X61184361Y-51777658D01*
X61184360Y-51777657D01*
X61184360Y-51777656D01*
X61092922Y-51657077D01*
X60972343Y-51565639D01*
X60876192Y-51527722D01*
X60831564Y-51510123D01*
X60831563Y-51510122D01*
X60831561Y-51510122D01*
X60785926Y-51504642D01*
X60743102Y-51499500D01*
X59256898Y-51499500D01*
X59217853Y-51504188D01*
X59168438Y-51510122D01*
X59027656Y-51565639D01*
X58907077Y-51657077D01*
X58815639Y-51777656D01*
X58760122Y-51918438D01*
X58754188Y-51967853D01*
X58749500Y-52006898D01*
X57499994Y-52006898D01*
X57489386Y-51918556D01*
X57433920Y-51777904D01*
X57342564Y-51657435D01*
X57222095Y-51566079D01*
X57081443Y-51510613D01*
X56993054Y-51500000D01*
X56500000Y-51500000D01*
X56500000Y-52201517D01*
X56481591Y-52190889D01*
X56328991Y-52150000D01*
X56171009Y-52150000D01*
X56018409Y-52190889D01*
X56000000Y-52201517D01*
X56000000Y-51500000D01*
X55506946Y-51500000D01*
X55418556Y-51510613D01*
X55277904Y-51566079D01*
X55157435Y-51657435D01*
X55066079Y-51777904D01*
X55010613Y-51918556D01*
X55000000Y-52006946D01*
X53750500Y-52006946D01*
X53750500Y-52006898D01*
X53739877Y-51918436D01*
X53684361Y-51777658D01*
X53684360Y-51777657D01*
X53684360Y-51777656D01*
X53592922Y-51657077D01*
X53472343Y-51565639D01*
X53376192Y-51527722D01*
X53331564Y-51510123D01*
X53331563Y-51510122D01*
X53331561Y-51510122D01*
X53285926Y-51504642D01*
X53243102Y-51499500D01*
X51756898Y-51499500D01*
X51717853Y-51504188D01*
X51668438Y-51510122D01*
X51527656Y-51565639D01*
X51407077Y-51657077D01*
X51315639Y-51777656D01*
X51260122Y-51918438D01*
X51254188Y-51967853D01*
X51249500Y-52006898D01*
X50000500Y-52006898D01*
X49989877Y-51918436D01*
X49934361Y-51777658D01*
X49934360Y-51777657D01*
X49934360Y-51777656D01*
X49842922Y-51657077D01*
X49722343Y-51565639D01*
X49626192Y-51527722D01*
X49581564Y-51510123D01*
X49581563Y-51510122D01*
X49581561Y-51510122D01*
X49535926Y-51504642D01*
X49493102Y-51499500D01*
X48006898Y-51499500D01*
X47967853Y-51504188D01*
X47918438Y-51510122D01*
X47777656Y-51565639D01*
X47657077Y-51657077D01*
X47565639Y-51777656D01*
X47510122Y-51918438D01*
X47504188Y-51967853D01*
X47499500Y-52006898D01*
X46249994Y-52006898D01*
X46239386Y-51918556D01*
X46183920Y-51777904D01*
X46092564Y-51657435D01*
X45972095Y-51566079D01*
X45831443Y-51510613D01*
X45743054Y-51500000D01*
X45250000Y-51500000D01*
X45250000Y-52201517D01*
X45231591Y-52190889D01*
X45078991Y-52150000D01*
X44921009Y-52150000D01*
X44768409Y-52190889D01*
X44750000Y-52201517D01*
X44750000Y-51500000D01*
X44256946Y-51500000D01*
X44168556Y-51510613D01*
X44027904Y-51566079D01*
X43907435Y-51657435D01*
X43816079Y-51777904D01*
X43760613Y-51918556D01*
X43750000Y-52006946D01*
X42500500Y-52006946D01*
X42500500Y-52006898D01*
X42489877Y-51918436D01*
X42434361Y-51777658D01*
X42434360Y-51777657D01*
X42434360Y-51777656D01*
X42342922Y-51657077D01*
X42222343Y-51565639D01*
X42126192Y-51527722D01*
X42081564Y-51510123D01*
X42081563Y-51510122D01*
X42081561Y-51510122D01*
X42035926Y-51504642D01*
X41993102Y-51499500D01*
X40506898Y-51499500D01*
X40467853Y-51504188D01*
X40418438Y-51510122D01*
X40277656Y-51565639D01*
X40157077Y-51657077D01*
X40065639Y-51777656D01*
X40010122Y-51918438D01*
X40004188Y-51967853D01*
X39999500Y-52006898D01*
X38750500Y-52006898D01*
X38739877Y-51918436D01*
X38684361Y-51777658D01*
X38684360Y-51777657D01*
X38684360Y-51777656D01*
X38592922Y-51657077D01*
X38472343Y-51565639D01*
X38376192Y-51527722D01*
X38331564Y-51510123D01*
X38331563Y-51510122D01*
X38331561Y-51510122D01*
X38285926Y-51504642D01*
X38243102Y-51499500D01*
X36756898Y-51499500D01*
X36717853Y-51504188D01*
X36668438Y-51510122D01*
X36527656Y-51565639D01*
X36407077Y-51657077D01*
X36315639Y-51777656D01*
X36260122Y-51918438D01*
X36254188Y-51967853D01*
X36249500Y-52006898D01*
X34999994Y-52006898D01*
X34989386Y-51918556D01*
X34933920Y-51777904D01*
X34842564Y-51657435D01*
X34722095Y-51566079D01*
X34581443Y-51510613D01*
X34493054Y-51500000D01*
X34000000Y-51500000D01*
X34000000Y-52201517D01*
X33981591Y-52190889D01*
X33828991Y-52150000D01*
X33671009Y-52150000D01*
X33518409Y-52190889D01*
X33500000Y-52201517D01*
X33500000Y-51500000D01*
X33006946Y-51500000D01*
X32918556Y-51510613D01*
X32777904Y-51566079D01*
X32657435Y-51657435D01*
X32566079Y-51777904D01*
X32510613Y-51918556D01*
X32500000Y-52006946D01*
X31250500Y-52006946D01*
X31250500Y-52006898D01*
X31239877Y-51918436D01*
X31184361Y-51777658D01*
X31184360Y-51777657D01*
X31184360Y-51777656D01*
X31092922Y-51657077D01*
X30972343Y-51565639D01*
X30876192Y-51527722D01*
X30831564Y-51510123D01*
X30831563Y-51510122D01*
X30831561Y-51510122D01*
X30785926Y-51504642D01*
X30743102Y-51499500D01*
X29256898Y-51499500D01*
X29217853Y-51504188D01*
X29168438Y-51510122D01*
X29027656Y-51565639D01*
X28907077Y-51657077D01*
X28815639Y-51777656D01*
X28760122Y-51918438D01*
X28754188Y-51967853D01*
X28749500Y-52006898D01*
X27067996Y-52006898D01*
X27100500Y-51676881D01*
X27100500Y-51323119D01*
X27065825Y-50971060D01*
X27008797Y-50684360D01*
X26996814Y-50624115D01*
X26996811Y-50624104D01*
X26996810Y-50624101D01*
X26996809Y-50624095D01*
X26894118Y-50285565D01*
X26758739Y-49958731D01*
X26755176Y-49952065D01*
X26597917Y-49657855D01*
X26597916Y-49657854D01*
X26591976Y-49646741D01*
X26565773Y-49607525D01*
X27044500Y-49607525D01*
X27044500Y-49752475D01*
X27082016Y-49892485D01*
X27082017Y-49892488D01*
X27154488Y-50018011D01*
X27154490Y-50018013D01*
X27154491Y-50018015D01*
X27256985Y-50120509D01*
X27256986Y-50120510D01*
X27256988Y-50120511D01*
X27382511Y-50192982D01*
X27382512Y-50192982D01*
X27382515Y-50192984D01*
X27522525Y-50230500D01*
X27522528Y-50230500D01*
X27667472Y-50230500D01*
X27667475Y-50230500D01*
X27807485Y-50192984D01*
X27933015Y-50120509D01*
X28035509Y-50018015D01*
X28107984Y-49892485D01*
X28145500Y-49752475D01*
X28145500Y-49607525D01*
X28107984Y-49467515D01*
X28056422Y-49378208D01*
X28035511Y-49341988D01*
X28035506Y-49341982D01*
X27933017Y-49239493D01*
X27933011Y-49239488D01*
X27807488Y-49167017D01*
X27807489Y-49167017D01*
X27796006Y-49163940D01*
X27667475Y-49129500D01*
X27522525Y-49129500D01*
X27393993Y-49163940D01*
X27382511Y-49167017D01*
X27256988Y-49239488D01*
X27256982Y-49239493D01*
X27154493Y-49341982D01*
X27154488Y-49341988D01*
X27082017Y-49467511D01*
X27082016Y-49467515D01*
X27044500Y-49607525D01*
X26565773Y-49607525D01*
X26395436Y-49352598D01*
X26171012Y-49079136D01*
X26171011Y-49079135D01*
X26171007Y-49079130D01*
X25920869Y-48828992D01*
X25833022Y-48756898D01*
X28749500Y-48756898D01*
X28749500Y-50243102D01*
X28754599Y-50285563D01*
X28760122Y-50331561D01*
X28815639Y-50472343D01*
X28907077Y-50592922D01*
X29027656Y-50684360D01*
X29027657Y-50684360D01*
X29027658Y-50684361D01*
X29168436Y-50739877D01*
X29256898Y-50750500D01*
X29256903Y-50750500D01*
X30743097Y-50750500D01*
X30743102Y-50750500D01*
X30831564Y-50739877D01*
X30972342Y-50684361D01*
X31092922Y-50592922D01*
X31184361Y-50472342D01*
X31239877Y-50331564D01*
X31250500Y-50243102D01*
X31250500Y-48756898D01*
X32499500Y-48756898D01*
X32499500Y-50243102D01*
X32504599Y-50285563D01*
X32510122Y-50331561D01*
X32565639Y-50472343D01*
X32657077Y-50592922D01*
X32777656Y-50684360D01*
X32777657Y-50684360D01*
X32777658Y-50684361D01*
X32918436Y-50739877D01*
X33006898Y-50750500D01*
X33006903Y-50750500D01*
X34493097Y-50750500D01*
X34493102Y-50750500D01*
X34581564Y-50739877D01*
X34722342Y-50684361D01*
X34842922Y-50592922D01*
X34934361Y-50472342D01*
X34989877Y-50331564D01*
X35000500Y-50243102D01*
X35000500Y-48756898D01*
X34989877Y-48668436D01*
X34934361Y-48527658D01*
X34934360Y-48527657D01*
X34934360Y-48527656D01*
X34842922Y-48407077D01*
X34722343Y-48315639D01*
X34581561Y-48260122D01*
X34535926Y-48254642D01*
X34493102Y-48249500D01*
X33006898Y-48249500D01*
X32967853Y-48254188D01*
X32918438Y-48260122D01*
X32777656Y-48315639D01*
X32657077Y-48407077D01*
X32565639Y-48527656D01*
X32510122Y-48668438D01*
X32504188Y-48717853D01*
X32499500Y-48756898D01*
X31250500Y-48756898D01*
X31239877Y-48668436D01*
X31184361Y-48527658D01*
X31184360Y-48527657D01*
X31184360Y-48527656D01*
X31092922Y-48407077D01*
X30972343Y-48315639D01*
X30831561Y-48260122D01*
X30785926Y-48254642D01*
X30743102Y-48249500D01*
X29256898Y-48249500D01*
X29217853Y-48254188D01*
X29168438Y-48260122D01*
X29027656Y-48315639D01*
X28907077Y-48407077D01*
X28815639Y-48527656D01*
X28760122Y-48668438D01*
X28754188Y-48717853D01*
X28749500Y-48756898D01*
X25833022Y-48756898D01*
X25647407Y-48604568D01*
X25647406Y-48604567D01*
X25647402Y-48604564D01*
X25353259Y-48408024D01*
X25353254Y-48408021D01*
X25353247Y-48408017D01*
X25041276Y-48241264D01*
X25041271Y-48241262D01*
X24983308Y-48217253D01*
X24884410Y-48176288D01*
X24714436Y-48105882D01*
X24375895Y-48003188D01*
X24375884Y-48003185D01*
X24028946Y-47934176D01*
X24028929Y-47934173D01*
X23762700Y-47907952D01*
X23676881Y-47899500D01*
X23323119Y-47899500D01*
X23243748Y-47907317D01*
X22971070Y-47934173D01*
X22971053Y-47934176D01*
X22624115Y-48003185D01*
X22624104Y-48003188D01*
X22285563Y-48105882D01*
X21958728Y-48241262D01*
X21958723Y-48241264D01*
X21646752Y-48408017D01*
X21646734Y-48408028D01*
X21352606Y-48604558D01*
X21352592Y-48604568D01*
X21079130Y-48828992D01*
X20828992Y-49079130D01*
X20720353Y-49211508D01*
X20662608Y-49250842D01*
X20592763Y-49252713D01*
X20532995Y-49216525D01*
X20502279Y-49153770D01*
X20500500Y-49132843D01*
X20500500Y-38003750D01*
X20500726Y-37996263D01*
X20505425Y-37918576D01*
X20518271Y-37706201D01*
X20520076Y-37691340D01*
X20522816Y-37676392D01*
X20571780Y-37409197D01*
X20575364Y-37394663D01*
X20660696Y-37120822D01*
X20665998Y-37106841D01*
X20783731Y-36845249D01*
X20790676Y-36832016D01*
X20827725Y-36770730D01*
X21924500Y-36770730D01*
X21924500Y-37279269D01*
X21927353Y-37309699D01*
X21927353Y-37309701D01*
X21972206Y-37437880D01*
X21972207Y-37437882D01*
X21999459Y-37474808D01*
X22052851Y-37547151D01*
X22059421Y-37553721D01*
X22057590Y-37555551D01*
X22091377Y-37600033D01*
X22099500Y-37644176D01*
X22099500Y-37677525D01*
X22099500Y-37822475D01*
X22125251Y-37918578D01*
X22137017Y-37962489D01*
X22140128Y-37969999D01*
X22137123Y-37971243D01*
X22150000Y-38024380D01*
X22127131Y-38090401D01*
X22099776Y-38118217D01*
X22052850Y-38152850D01*
X21972207Y-38262117D01*
X21972206Y-38262119D01*
X21927353Y-38390298D01*
X21927353Y-38390300D01*
X21924500Y-38420730D01*
X21924500Y-38929269D01*
X21927353Y-38959699D01*
X21927353Y-38959701D01*
X21969430Y-39079947D01*
X21972207Y-39087882D01*
X22052850Y-39197150D01*
X22099134Y-39231309D01*
X22141384Y-39286954D01*
X22149500Y-39331078D01*
X22149500Y-44931517D01*
X22155047Y-44966540D01*
X22164354Y-45025304D01*
X22221950Y-45138342D01*
X22221952Y-45138344D01*
X22221954Y-45138347D01*
X22311652Y-45228045D01*
X22311654Y-45228046D01*
X22311658Y-45228050D01*
X22409739Y-45278025D01*
X22424698Y-45285647D01*
X22518475Y-45300499D01*
X22518481Y-45300500D01*
X22881518Y-45300499D01*
X22881523Y-45300499D01*
X22956103Y-45288687D01*
X23025396Y-45297642D01*
X23078848Y-45342638D01*
X23099487Y-45409390D01*
X23099500Y-45411160D01*
X23099500Y-46646614D01*
X23079815Y-46713653D01*
X23027011Y-46759408D01*
X22957853Y-46769352D01*
X22894297Y-46740327D01*
X22887819Y-46734295D01*
X22853017Y-46699493D01*
X22853011Y-46699488D01*
X22727488Y-46627017D01*
X22727489Y-46627017D01*
X22716006Y-46623940D01*
X22587475Y-46589500D01*
X22442525Y-46589500D01*
X22313993Y-46623940D01*
X22302511Y-46627017D01*
X22176988Y-46699488D01*
X22176982Y-46699493D01*
X22074493Y-46801982D01*
X22074488Y-46801988D01*
X22002017Y-46927511D01*
X22002016Y-46927515D01*
X21964500Y-47067525D01*
X21964500Y-47212475D01*
X22002016Y-47352485D01*
X22002017Y-47352488D01*
X22074488Y-47478011D01*
X22074490Y-47478013D01*
X22074491Y-47478015D01*
X22176985Y-47580509D01*
X22176986Y-47580510D01*
X22176988Y-47580511D01*
X22302511Y-47652982D01*
X22302512Y-47652982D01*
X22302515Y-47652984D01*
X22442525Y-47690500D01*
X22442528Y-47690500D01*
X22587472Y-47690500D01*
X22587475Y-47690500D01*
X22727485Y-47652984D01*
X22853015Y-47580509D01*
X22955509Y-47478015D01*
X23027984Y-47352485D01*
X23065500Y-47212475D01*
X23065500Y-47203896D01*
X23085185Y-47136857D01*
X23137989Y-47091102D01*
X23207147Y-47081158D01*
X23252483Y-47099559D01*
X23252963Y-47098619D01*
X23261656Y-47103048D01*
X23261658Y-47103050D01*
X23328008Y-47136857D01*
X23374698Y-47160647D01*
X23468475Y-47175499D01*
X23468481Y-47175500D01*
X23831518Y-47175499D01*
X23925304Y-47160646D01*
X24038342Y-47103050D01*
X24128050Y-47013342D01*
X24185646Y-46900304D01*
X24185646Y-46900302D01*
X24185647Y-46900301D01*
X24200500Y-46806524D01*
X24200500Y-45411160D01*
X24220185Y-45344121D01*
X24272989Y-45298366D01*
X24342147Y-45288422D01*
X24343837Y-45288677D01*
X24418481Y-45300500D01*
X24781518Y-45300499D01*
X24875304Y-45285646D01*
X24988342Y-45228050D01*
X25078050Y-45138342D01*
X25087236Y-45120311D01*
X25106550Y-45099860D01*
X25123410Y-45077340D01*
X25130216Y-45074801D01*
X25135206Y-45069518D01*
X25162515Y-45062754D01*
X25188874Y-45052923D01*
X25195974Y-45054467D01*
X25203027Y-45052721D01*
X25229656Y-45061794D01*
X25257147Y-45067775D01*
X25265451Y-45073991D01*
X25269162Y-45075256D01*
X25285401Y-45088926D01*
X25438181Y-45241706D01*
X25471666Y-45303029D01*
X25474500Y-45329387D01*
X25474500Y-45479269D01*
X25477353Y-45509699D01*
X25477353Y-45509701D01*
X25515704Y-45619298D01*
X25522207Y-45637882D01*
X25602850Y-45747150D01*
X25712118Y-45827793D01*
X25754845Y-45842744D01*
X25840299Y-45872646D01*
X25870730Y-45875500D01*
X25870734Y-45875500D01*
X26379270Y-45875500D01*
X26409699Y-45872646D01*
X26409701Y-45872646D01*
X26473790Y-45850219D01*
X26537882Y-45827793D01*
X26647150Y-45747150D01*
X26727793Y-45637882D01*
X26769225Y-45519477D01*
X26772646Y-45509701D01*
X26772646Y-45509699D01*
X26775500Y-45479269D01*
X26775500Y-44820730D01*
X27124500Y-44820730D01*
X27124500Y-45479269D01*
X27127353Y-45509699D01*
X27127353Y-45509701D01*
X27165704Y-45619298D01*
X27172207Y-45637882D01*
X27200270Y-45675906D01*
X27207726Y-45696320D01*
X27219477Y-45714604D01*
X27222769Y-45737504D01*
X27224241Y-45741533D01*
X27224500Y-45749539D01*
X27224500Y-45767898D01*
X27220275Y-45799991D01*
X27199500Y-45877525D01*
X27199500Y-46022474D01*
X27221501Y-46104586D01*
X27237014Y-46162480D01*
X27237016Y-46162485D01*
X27309490Y-46288015D01*
X27411985Y-46390510D01*
X27537515Y-46462984D01*
X27677525Y-46500500D01*
X27677526Y-46500500D01*
X27677528Y-46500500D01*
X27822472Y-46500500D01*
X27822474Y-46500500D01*
X27822475Y-46500500D01*
X27962485Y-46462984D01*
X28088015Y-46390510D01*
X28215510Y-46263015D01*
X28287984Y-46137485D01*
X28290779Y-46127052D01*
X28296800Y-46104586D01*
X28307304Y-46065380D01*
X28325500Y-45997475D01*
X28325500Y-45749539D01*
X28345185Y-45682500D01*
X28349722Y-45675916D01*
X28377793Y-45637882D01*
X28419225Y-45519477D01*
X28422646Y-45509701D01*
X28422646Y-45509699D01*
X28425500Y-45479269D01*
X28425500Y-44820730D01*
X28422646Y-44790300D01*
X28422646Y-44790298D01*
X28381416Y-44672472D01*
X28377793Y-44662118D01*
X28298053Y-44554073D01*
X28297151Y-44552851D01*
X28277627Y-44538442D01*
X28262835Y-44527525D01*
X29584500Y-44527525D01*
X29584500Y-44672475D01*
X29616072Y-44790301D01*
X29622017Y-44812488D01*
X29694488Y-44938011D01*
X29694490Y-44938013D01*
X29694491Y-44938015D01*
X29796985Y-45040509D01*
X29796986Y-45040510D01*
X29796988Y-45040511D01*
X29922511Y-45112982D01*
X29922512Y-45112982D01*
X29922515Y-45112984D01*
X30062525Y-45150500D01*
X30062528Y-45150500D01*
X30207472Y-45150500D01*
X30207475Y-45150500D01*
X30347485Y-45112984D01*
X30473015Y-45040509D01*
X30575509Y-44938015D01*
X30647984Y-44812485D01*
X30685500Y-44672475D01*
X30685500Y-44527525D01*
X30647984Y-44387515D01*
X30621061Y-44340884D01*
X30575511Y-44261988D01*
X30575506Y-44261982D01*
X30473017Y-44159493D01*
X30473011Y-44159488D01*
X30347488Y-44087017D01*
X30347489Y-44087017D01*
X30336006Y-44083940D01*
X30207475Y-44049500D01*
X30062525Y-44049500D01*
X29933993Y-44083940D01*
X29922511Y-44087017D01*
X29796988Y-44159488D01*
X29796982Y-44159493D01*
X29694493Y-44261982D01*
X29694488Y-44261988D01*
X29622017Y-44387511D01*
X29621628Y-44388962D01*
X29584500Y-44527525D01*
X28262835Y-44527525D01*
X28187882Y-44472207D01*
X28187880Y-44472206D01*
X28059700Y-44427353D01*
X28029270Y-44424500D01*
X28029266Y-44424500D01*
X27520734Y-44424500D01*
X27520730Y-44424500D01*
X27490300Y-44427353D01*
X27490298Y-44427353D01*
X27362119Y-44472206D01*
X27362117Y-44472207D01*
X27252850Y-44552850D01*
X27172207Y-44662117D01*
X27172206Y-44662119D01*
X27127353Y-44790298D01*
X27127353Y-44790300D01*
X27124500Y-44820730D01*
X26775500Y-44820730D01*
X26772646Y-44790300D01*
X26772646Y-44790298D01*
X26731416Y-44672472D01*
X26727793Y-44662118D01*
X26647150Y-44552850D01*
X26537882Y-44472207D01*
X26537880Y-44472206D01*
X26409700Y-44427353D01*
X26379270Y-44424500D01*
X26379266Y-44424500D01*
X26229387Y-44424500D01*
X26199946Y-44415855D01*
X26169960Y-44409332D01*
X26164944Y-44405577D01*
X26162348Y-44404815D01*
X26141706Y-44388181D01*
X26115705Y-44362180D01*
X26082220Y-44300857D01*
X26087204Y-44231165D01*
X26129076Y-44175232D01*
X26194540Y-44150815D01*
X26203386Y-44150499D01*
X26325583Y-44150499D01*
X26325591Y-44150500D01*
X26340025Y-44150500D01*
X27572472Y-44150500D01*
X27572475Y-44150500D01*
X27712485Y-44112984D01*
X27838015Y-44040509D01*
X27940509Y-43938015D01*
X28012984Y-43812485D01*
X28050500Y-43672475D01*
X28050500Y-43527525D01*
X28012984Y-43387515D01*
X28012982Y-43387512D01*
X28012982Y-43387510D01*
X28012981Y-43387507D01*
X28012397Y-43386496D01*
X28012163Y-43385534D01*
X28009872Y-43380001D01*
X28010734Y-43379643D01*
X27995927Y-43318595D01*
X28018781Y-43252569D01*
X28073704Y-43209381D01*
X28119786Y-43200500D01*
X28374409Y-43200500D01*
X28374417Y-43200499D01*
X28906517Y-43200499D01*
X28906518Y-43200499D01*
X29000304Y-43185646D01*
X29113342Y-43128050D01*
X29203050Y-43038342D01*
X29260646Y-42925304D01*
X29260646Y-42925302D01*
X29260647Y-42925301D01*
X29275499Y-42831524D01*
X29275500Y-42831519D01*
X29275499Y-42468482D01*
X29260646Y-42374696D01*
X29203050Y-42261658D01*
X29203048Y-42261656D01*
X29203046Y-42261652D01*
X29197471Y-42253978D01*
X29186018Y-42221877D01*
X29174107Y-42189940D01*
X29174302Y-42189039D01*
X29173993Y-42188171D01*
X29181719Y-42154948D01*
X29188960Y-42121667D01*
X29189684Y-42120698D01*
X29189820Y-42120118D01*
X29210109Y-42093415D01*
X29241708Y-42061817D01*
X29303032Y-42028333D01*
X29329388Y-42025500D01*
X29479270Y-42025500D01*
X29509699Y-42022646D01*
X29509701Y-42022646D01*
X29575512Y-41999617D01*
X29637882Y-41977793D01*
X29747150Y-41897150D01*
X29827793Y-41787882D01*
X29857041Y-41704295D01*
X29872646Y-41659701D01*
X29872646Y-41659699D01*
X29875500Y-41629269D01*
X29875500Y-41120730D01*
X29872646Y-41090300D01*
X29872646Y-41090298D01*
X29827921Y-40962485D01*
X29827793Y-40962118D01*
X29747150Y-40852850D01*
X29637882Y-40772207D01*
X29637880Y-40772206D01*
X29509700Y-40727353D01*
X29479270Y-40724500D01*
X29479266Y-40724500D01*
X29228387Y-40724500D01*
X29207141Y-40718261D01*
X29185053Y-40716682D01*
X29174269Y-40708609D01*
X29161348Y-40704815D01*
X29146848Y-40688081D01*
X29129120Y-40674810D01*
X29124412Y-40662189D01*
X29115593Y-40652011D01*
X29112441Y-40630093D01*
X29104703Y-40609346D01*
X29107565Y-40596185D01*
X29105649Y-40582853D01*
X29114848Y-40562709D01*
X29119555Y-40541073D01*
X29132823Y-40523347D01*
X29134674Y-40519297D01*
X29140706Y-40512819D01*
X29241706Y-40411819D01*
X29303029Y-40378334D01*
X29329387Y-40375500D01*
X29479270Y-40375500D01*
X29509699Y-40372646D01*
X29509701Y-40372646D01*
X29587161Y-40345541D01*
X29637882Y-40327793D01*
X29747150Y-40247150D01*
X29827793Y-40137882D01*
X29864332Y-40033459D01*
X29872646Y-40009701D01*
X29872646Y-40009699D01*
X29875500Y-39979269D01*
X29875500Y-39470730D01*
X29872646Y-39440300D01*
X29872646Y-39440298D01*
X29834903Y-39332438D01*
X29827793Y-39312118D01*
X29747150Y-39202850D01*
X29747148Y-39202849D01*
X29747148Y-39202848D01*
X29740580Y-39196280D01*
X29742407Y-39194452D01*
X29708614Y-39149940D01*
X29700500Y-39105823D01*
X29700500Y-38777527D01*
X29700500Y-38777525D01*
X29662984Y-38637515D01*
X29605246Y-38537511D01*
X29590511Y-38511988D01*
X29590506Y-38511982D01*
X29488017Y-38409493D01*
X29488011Y-38409488D01*
X29362488Y-38337017D01*
X29362489Y-38337017D01*
X29351006Y-38333940D01*
X29222475Y-38299500D01*
X29077525Y-38299500D01*
X28948993Y-38333940D01*
X28937511Y-38337017D01*
X28811988Y-38409488D01*
X28811982Y-38409493D01*
X28709493Y-38511982D01*
X28709488Y-38511988D01*
X28637017Y-38637511D01*
X28637016Y-38637515D01*
X28599500Y-38777525D01*
X28599500Y-38777527D01*
X28599500Y-39105823D01*
X28579815Y-39172862D01*
X28577367Y-39176528D01*
X28565658Y-39193396D01*
X28552850Y-39202850D01*
X28472207Y-39312118D01*
X28460974Y-39344217D01*
X28451367Y-39358060D01*
X28436755Y-39369838D01*
X28425818Y-39385087D01*
X28410118Y-39391309D01*
X28396970Y-39401909D01*
X28378310Y-39403917D01*
X28360865Y-39410833D01*
X28344292Y-39407580D01*
X28327502Y-39409388D01*
X28310720Y-39400990D01*
X28292304Y-39397376D01*
X28280119Y-39385678D01*
X28265018Y-39378122D01*
X28255439Y-39361984D01*
X28241902Y-39348988D01*
X28237168Y-39331201D01*
X28229356Y-39318039D01*
X28229864Y-39303754D01*
X28225500Y-39287355D01*
X28225500Y-39127527D01*
X28225500Y-39127525D01*
X28187984Y-38987515D01*
X28173533Y-38962485D01*
X28115510Y-38861985D01*
X27911819Y-38658294D01*
X27878334Y-38596971D01*
X27875500Y-38570613D01*
X27875500Y-38420730D01*
X27872646Y-38390300D01*
X27872646Y-38390298D01*
X27827793Y-38262119D01*
X27827792Y-38262117D01*
X27747150Y-38152850D01*
X27700221Y-38118215D01*
X27657972Y-38062569D01*
X27652513Y-37992912D01*
X27661102Y-37970497D01*
X27659875Y-37969989D01*
X27662978Y-37962493D01*
X27662984Y-37962485D01*
X27700500Y-37822475D01*
X27700500Y-37677525D01*
X27700500Y-37644176D01*
X27720185Y-37577137D01*
X27741383Y-37554525D01*
X27740579Y-37553721D01*
X27747146Y-37547152D01*
X27747150Y-37547150D01*
X27827793Y-37437882D01*
X27850219Y-37373790D01*
X27872646Y-37309701D01*
X27872646Y-37309699D01*
X27875500Y-37279269D01*
X27875500Y-36770730D01*
X31924500Y-36770730D01*
X31924500Y-37279269D01*
X31927353Y-37309699D01*
X31927353Y-37309701D01*
X31972206Y-37437880D01*
X31972207Y-37437882D01*
X31999459Y-37474808D01*
X32052851Y-37547151D01*
X32059421Y-37553721D01*
X32057590Y-37555551D01*
X32091377Y-37600033D01*
X32099500Y-37644176D01*
X32099500Y-37677525D01*
X32099500Y-37822475D01*
X32125251Y-37918578D01*
X32137017Y-37962489D01*
X32140128Y-37969999D01*
X32137123Y-37971243D01*
X32150000Y-38024380D01*
X32127131Y-38090401D01*
X32099776Y-38118217D01*
X32052850Y-38152850D01*
X31972207Y-38262117D01*
X31972206Y-38262119D01*
X31927353Y-38390298D01*
X31927353Y-38390300D01*
X31924500Y-38420730D01*
X31924500Y-38929269D01*
X31927353Y-38959699D01*
X31927353Y-38959701D01*
X31969430Y-39079947D01*
X31972207Y-39087882D01*
X32052850Y-39197150D01*
X32099134Y-39231309D01*
X32141384Y-39286954D01*
X32149500Y-39331078D01*
X32149500Y-44931517D01*
X32155047Y-44966540D01*
X32164354Y-45025304D01*
X32221950Y-45138342D01*
X32221952Y-45138344D01*
X32221954Y-45138347D01*
X32311652Y-45228045D01*
X32311654Y-45228046D01*
X32311658Y-45228050D01*
X32409739Y-45278025D01*
X32424698Y-45285647D01*
X32518475Y-45300499D01*
X32518481Y-45300500D01*
X32881518Y-45300499D01*
X32881523Y-45300499D01*
X32956103Y-45288687D01*
X33025396Y-45297642D01*
X33078848Y-45342638D01*
X33099487Y-45409390D01*
X33099500Y-45411160D01*
X33099500Y-46806517D01*
X33100590Y-46813397D01*
X33114354Y-46900304D01*
X33171950Y-47013342D01*
X33171952Y-47013344D01*
X33171954Y-47013347D01*
X33261652Y-47103045D01*
X33261654Y-47103046D01*
X33261658Y-47103050D01*
X33374694Y-47160645D01*
X33374698Y-47160647D01*
X33468475Y-47175499D01*
X33468481Y-47175500D01*
X33831518Y-47175499D01*
X33925304Y-47160646D01*
X34038342Y-47103050D01*
X34073867Y-47067525D01*
X34664500Y-47067525D01*
X34664500Y-47212475D01*
X34702016Y-47352485D01*
X34702017Y-47352488D01*
X34774488Y-47478011D01*
X34774490Y-47478013D01*
X34774491Y-47478015D01*
X34876985Y-47580509D01*
X34876986Y-47580510D01*
X34876988Y-47580511D01*
X35002511Y-47652982D01*
X35002512Y-47652982D01*
X35002515Y-47652984D01*
X35142525Y-47690500D01*
X35142528Y-47690500D01*
X35287472Y-47690500D01*
X35287475Y-47690500D01*
X35427485Y-47652984D01*
X35553015Y-47580509D01*
X35655509Y-47478015D01*
X35727984Y-47352485D01*
X35765500Y-47212475D01*
X35765500Y-47067525D01*
X35727984Y-46927515D01*
X35655509Y-46801985D01*
X35553015Y-46699491D01*
X35553013Y-46699490D01*
X35553011Y-46699488D01*
X35427488Y-46627017D01*
X35427489Y-46627017D01*
X35416006Y-46623940D01*
X35287475Y-46589500D01*
X35142525Y-46589500D01*
X35013993Y-46623940D01*
X35002511Y-46627017D01*
X34876988Y-46699488D01*
X34876982Y-46699493D01*
X34774493Y-46801982D01*
X34774488Y-46801988D01*
X34702017Y-46927511D01*
X34702016Y-46927515D01*
X34664500Y-47067525D01*
X34073867Y-47067525D01*
X34128050Y-47013342D01*
X34185646Y-46900304D01*
X34185646Y-46900302D01*
X34185647Y-46900301D01*
X34200500Y-46806524D01*
X34200500Y-45411160D01*
X34220185Y-45344121D01*
X34272989Y-45298366D01*
X34342147Y-45288422D01*
X34343837Y-45288677D01*
X34418481Y-45300500D01*
X34781518Y-45300499D01*
X34875304Y-45285646D01*
X34988342Y-45228050D01*
X35078050Y-45138342D01*
X35087236Y-45120311D01*
X35106550Y-45099860D01*
X35123410Y-45077340D01*
X35130216Y-45074801D01*
X35135206Y-45069518D01*
X35162515Y-45062754D01*
X35188874Y-45052923D01*
X35195974Y-45054467D01*
X35203027Y-45052721D01*
X35229656Y-45061794D01*
X35257147Y-45067775D01*
X35265451Y-45073991D01*
X35269162Y-45075256D01*
X35285401Y-45088926D01*
X35438181Y-45241706D01*
X35471666Y-45303029D01*
X35474500Y-45329387D01*
X35474500Y-45479269D01*
X35477353Y-45509699D01*
X35477353Y-45509701D01*
X35515704Y-45619298D01*
X35522207Y-45637882D01*
X35602850Y-45747150D01*
X35712118Y-45827793D01*
X35754845Y-45842744D01*
X35840299Y-45872646D01*
X35870730Y-45875500D01*
X35870734Y-45875500D01*
X36379270Y-45875500D01*
X36409699Y-45872646D01*
X36409701Y-45872646D01*
X36473790Y-45850219D01*
X36537882Y-45827793D01*
X36647150Y-45747150D01*
X36727793Y-45637882D01*
X36769225Y-45519477D01*
X36772646Y-45509701D01*
X36772646Y-45509699D01*
X36775500Y-45479269D01*
X36775500Y-44820730D01*
X37124500Y-44820730D01*
X37124500Y-45479269D01*
X37127353Y-45509699D01*
X37127353Y-45509701D01*
X37165704Y-45619298D01*
X37172207Y-45637882D01*
X37200270Y-45675906D01*
X37207726Y-45696320D01*
X37219477Y-45714604D01*
X37222769Y-45737504D01*
X37224241Y-45741533D01*
X37224500Y-45749539D01*
X37224500Y-45767898D01*
X37220275Y-45799991D01*
X37199500Y-45877525D01*
X37199500Y-46022474D01*
X37221501Y-46104586D01*
X37237014Y-46162480D01*
X37237016Y-46162485D01*
X37309490Y-46288015D01*
X37411985Y-46390510D01*
X37537515Y-46462984D01*
X37677525Y-46500500D01*
X37677526Y-46500500D01*
X37677528Y-46500500D01*
X37822472Y-46500500D01*
X37822474Y-46500500D01*
X37822475Y-46500500D01*
X37962485Y-46462984D01*
X38088015Y-46390510D01*
X38215510Y-46263015D01*
X38287984Y-46137485D01*
X38290779Y-46127052D01*
X38296800Y-46104586D01*
X38307304Y-46065380D01*
X38325500Y-45997475D01*
X38325500Y-45749539D01*
X38345185Y-45682500D01*
X38349722Y-45675916D01*
X38377793Y-45637882D01*
X38419225Y-45519477D01*
X38422646Y-45509701D01*
X38422646Y-45509699D01*
X38425500Y-45479269D01*
X38425500Y-44820730D01*
X38422646Y-44790300D01*
X38422646Y-44790298D01*
X38381416Y-44672472D01*
X38377793Y-44662118D01*
X38297150Y-44552850D01*
X38187882Y-44472207D01*
X38187880Y-44472206D01*
X38059700Y-44427353D01*
X38029270Y-44424500D01*
X38029266Y-44424500D01*
X37520734Y-44424500D01*
X37520730Y-44424500D01*
X37490300Y-44427353D01*
X37490298Y-44427353D01*
X37362119Y-44472206D01*
X37362117Y-44472207D01*
X37252850Y-44552850D01*
X37172207Y-44662117D01*
X37172206Y-44662119D01*
X37127353Y-44790298D01*
X37127353Y-44790300D01*
X37124500Y-44820730D01*
X36775500Y-44820730D01*
X36772646Y-44790300D01*
X36772646Y-44790298D01*
X36731416Y-44672472D01*
X36727793Y-44662118D01*
X36647150Y-44552850D01*
X36537882Y-44472207D01*
X36537880Y-44472206D01*
X36409700Y-44427353D01*
X36379270Y-44424500D01*
X36379266Y-44424500D01*
X36229387Y-44424500D01*
X36199946Y-44415855D01*
X36169960Y-44409332D01*
X36164944Y-44405577D01*
X36162348Y-44404815D01*
X36141706Y-44388181D01*
X36115705Y-44362180D01*
X36082220Y-44300857D01*
X36087204Y-44231165D01*
X36129076Y-44175232D01*
X36194540Y-44150815D01*
X36203386Y-44150499D01*
X36325583Y-44150499D01*
X36325591Y-44150500D01*
X36340025Y-44150500D01*
X37572472Y-44150500D01*
X37572475Y-44150500D01*
X37712485Y-44112984D01*
X37838015Y-44040509D01*
X37940509Y-43938015D01*
X38012984Y-43812485D01*
X38050500Y-43672475D01*
X38050500Y-43527525D01*
X38012984Y-43387515D01*
X38012982Y-43387512D01*
X38012982Y-43387510D01*
X38012981Y-43387507D01*
X38012397Y-43386496D01*
X38012163Y-43385534D01*
X38009872Y-43380001D01*
X38010734Y-43379643D01*
X37995927Y-43318595D01*
X38018781Y-43252569D01*
X38073704Y-43209381D01*
X38119786Y-43200500D01*
X38374409Y-43200500D01*
X38374417Y-43200499D01*
X38906517Y-43200499D01*
X38906518Y-43200499D01*
X39000304Y-43185646D01*
X39113342Y-43128050D01*
X39203050Y-43038342D01*
X39260646Y-42925304D01*
X39260646Y-42925302D01*
X39260647Y-42925301D01*
X39275499Y-42831524D01*
X39275500Y-42831519D01*
X39275499Y-42468482D01*
X39260646Y-42374696D01*
X39203050Y-42261658D01*
X39203048Y-42261656D01*
X39203046Y-42261652D01*
X39197471Y-42253978D01*
X39186018Y-42221877D01*
X39174107Y-42189940D01*
X39174302Y-42189039D01*
X39173993Y-42188171D01*
X39181719Y-42154948D01*
X39188960Y-42121667D01*
X39189684Y-42120698D01*
X39189820Y-42120118D01*
X39210109Y-42093415D01*
X39241708Y-42061817D01*
X39303032Y-42028333D01*
X39329388Y-42025500D01*
X39479270Y-42025500D01*
X39503612Y-42023216D01*
X39509699Y-42022646D01*
X39634547Y-41978959D01*
X39704323Y-41975397D01*
X39764951Y-42010126D01*
X39797178Y-42072119D01*
X39799500Y-42096001D01*
X39799500Y-46762035D01*
X39779815Y-46829074D01*
X39763181Y-46849716D01*
X39349716Y-47263181D01*
X39288393Y-47296666D01*
X39262035Y-47299500D01*
X37940691Y-47299500D01*
X37850325Y-47323713D01*
X37850324Y-47323712D01*
X37826115Y-47330200D01*
X37826106Y-47330204D01*
X37723392Y-47389505D01*
X37723384Y-47389511D01*
X37139513Y-47973383D01*
X37139509Y-47973389D01*
X37080201Y-48076112D01*
X37080200Y-48076117D01*
X37058369Y-48157593D01*
X37022004Y-48217253D01*
X36959158Y-48247783D01*
X36938594Y-48249500D01*
X36756898Y-48249500D01*
X36717853Y-48254188D01*
X36668438Y-48260122D01*
X36527656Y-48315639D01*
X36407077Y-48407077D01*
X36315639Y-48527656D01*
X36260122Y-48668438D01*
X36254188Y-48717853D01*
X36249500Y-48756898D01*
X36249500Y-50243102D01*
X36254599Y-50285563D01*
X36260122Y-50331561D01*
X36315639Y-50472343D01*
X36407077Y-50592922D01*
X36527656Y-50684360D01*
X36527657Y-50684360D01*
X36527658Y-50684361D01*
X36668436Y-50739877D01*
X36756898Y-50750500D01*
X36756903Y-50750500D01*
X38243097Y-50750500D01*
X38243102Y-50750500D01*
X38331564Y-50739877D01*
X38472342Y-50684361D01*
X38592922Y-50592922D01*
X38684361Y-50472342D01*
X38739877Y-50331564D01*
X38750500Y-50243102D01*
X38750500Y-48756898D01*
X38739877Y-48668436D01*
X38684361Y-48527658D01*
X38684360Y-48527657D01*
X38684360Y-48527656D01*
X38587797Y-48400319D01*
X38590450Y-48398307D01*
X38564541Y-48350858D01*
X38569525Y-48281166D01*
X38611397Y-48225233D01*
X38676861Y-48200816D01*
X38685707Y-48200500D01*
X39559308Y-48200500D01*
X39559309Y-48200500D01*
X39630580Y-48181401D01*
X39649666Y-48176288D01*
X39649667Y-48176287D01*
X39649673Y-48176286D01*
X39673887Y-48169799D01*
X39776614Y-48110489D01*
X40337819Y-47549284D01*
X40399142Y-47515799D01*
X40468834Y-47520783D01*
X40524767Y-47562655D01*
X40549184Y-47628119D01*
X40549500Y-47636965D01*
X40549500Y-47809309D01*
X40563214Y-47860489D01*
X40580201Y-47923887D01*
X40639511Y-48026614D01*
X40639513Y-48026616D01*
X40650716Y-48037819D01*
X40684201Y-48099142D01*
X40679217Y-48168834D01*
X40637345Y-48224767D01*
X40571881Y-48249184D01*
X40563035Y-48249500D01*
X40506898Y-48249500D01*
X40467853Y-48254188D01*
X40418438Y-48260122D01*
X40277656Y-48315639D01*
X40157077Y-48407077D01*
X40065639Y-48527656D01*
X40010122Y-48668438D01*
X40004188Y-48717853D01*
X39999500Y-48756898D01*
X39999500Y-50243102D01*
X40004599Y-50285563D01*
X40010122Y-50331561D01*
X40065639Y-50472343D01*
X40157077Y-50592922D01*
X40277656Y-50684360D01*
X40277657Y-50684360D01*
X40277658Y-50684361D01*
X40418436Y-50739877D01*
X40506898Y-50750500D01*
X40506903Y-50750500D01*
X41993097Y-50750500D01*
X41993102Y-50750500D01*
X42081564Y-50739877D01*
X42222342Y-50684361D01*
X42342922Y-50592922D01*
X42434361Y-50472342D01*
X42489877Y-50331564D01*
X42500500Y-50243102D01*
X42500500Y-48756898D01*
X42489877Y-48668436D01*
X42434361Y-48527658D01*
X42434360Y-48527657D01*
X42434360Y-48527656D01*
X42342922Y-48407077D01*
X42222343Y-48315639D01*
X42081561Y-48260122D01*
X42035926Y-48254642D01*
X41993102Y-48249500D01*
X41993097Y-48249500D01*
X41824500Y-48249500D01*
X41757461Y-48229815D01*
X41711706Y-48177011D01*
X41700500Y-48125500D01*
X41700500Y-47940693D01*
X41700500Y-47940691D01*
X41669799Y-47826114D01*
X41669797Y-47826110D01*
X41641219Y-47776611D01*
X41610493Y-47723392D01*
X41610487Y-47723384D01*
X41486819Y-47599716D01*
X41453334Y-47538393D01*
X41450500Y-47512035D01*
X41450500Y-47067525D01*
X42284500Y-47067525D01*
X42284500Y-47212475D01*
X42322016Y-47352485D01*
X42322017Y-47352488D01*
X42394488Y-47478011D01*
X42394490Y-47478013D01*
X42394491Y-47478015D01*
X42496985Y-47580509D01*
X42496986Y-47580510D01*
X42496988Y-47580511D01*
X42622511Y-47652982D01*
X42622512Y-47652982D01*
X42622515Y-47652984D01*
X42762525Y-47690500D01*
X42762528Y-47690500D01*
X42907472Y-47690500D01*
X42907475Y-47690500D01*
X43047485Y-47652984D01*
X43173015Y-47580509D01*
X43275509Y-47478015D01*
X43347984Y-47352485D01*
X43385500Y-47212475D01*
X43385500Y-47067525D01*
X43347984Y-46927515D01*
X43275509Y-46801985D01*
X43173015Y-46699491D01*
X43173013Y-46699490D01*
X43173011Y-46699488D01*
X43047488Y-46627017D01*
X43047489Y-46627017D01*
X43036006Y-46623940D01*
X42907475Y-46589500D01*
X42762525Y-46589500D01*
X42633993Y-46623940D01*
X42622511Y-46627017D01*
X42496988Y-46699488D01*
X42496982Y-46699493D01*
X42394493Y-46801982D01*
X42394488Y-46801988D01*
X42322017Y-46927511D01*
X42322016Y-46927515D01*
X42284500Y-47067525D01*
X41450500Y-47067525D01*
X41450500Y-43706598D01*
X41971300Y-43706598D01*
X41971300Y-43833403D01*
X41996035Y-43957757D01*
X41996038Y-43957765D01*
X42018778Y-44012665D01*
X42261445Y-43769999D01*
X42018779Y-43527333D01*
X41996037Y-43582239D01*
X41996036Y-43582242D01*
X41971300Y-43706598D01*
X41450500Y-43706598D01*
X41450500Y-43151268D01*
X41470185Y-43084229D01*
X41522989Y-43038474D01*
X41592147Y-43028530D01*
X41606580Y-43031490D01*
X41677525Y-43050500D01*
X41677528Y-43050500D01*
X41822472Y-43050500D01*
X41822475Y-43050500D01*
X41962485Y-43012984D01*
X41962487Y-43012982D01*
X41962489Y-43012982D01*
X41962490Y-43012981D01*
X42017557Y-42981188D01*
X42041405Y-42967418D01*
X42109304Y-42950945D01*
X42175332Y-42973797D01*
X42175819Y-42974145D01*
X42183976Y-42980013D01*
X42204346Y-43000383D01*
X42309857Y-43070883D01*
X42310882Y-43071307D01*
X42317701Y-43076213D01*
X42337905Y-43102161D01*
X42358984Y-43127383D01*
X42359261Y-43129589D01*
X42360626Y-43131342D01*
X42363593Y-43164087D01*
X42363730Y-43165176D01*
X42578681Y-43380127D01*
X42612166Y-43441450D01*
X42615000Y-43467808D01*
X42615000Y-43770000D01*
X42704095Y-43859095D01*
X42737580Y-43920418D01*
X42732596Y-43990110D01*
X42704095Y-44034457D01*
X42372332Y-44366219D01*
X42427238Y-44388962D01*
X42427247Y-44388965D01*
X42551596Y-44413699D01*
X42552045Y-44413744D01*
X42552264Y-44413832D01*
X42557575Y-44414889D01*
X42557374Y-44415895D01*
X42616833Y-44439903D01*
X42657193Y-44496936D01*
X42660312Y-44566736D01*
X42642997Y-44606037D01*
X42589082Y-44686726D01*
X42589078Y-44686733D01*
X42532861Y-44822455D01*
X42532858Y-44822465D01*
X42504200Y-44966540D01*
X42504200Y-45113459D01*
X42532858Y-45257534D01*
X42532861Y-45257544D01*
X42589078Y-45393266D01*
X42589083Y-45393275D01*
X42670698Y-45515419D01*
X42670701Y-45515423D01*
X42774576Y-45619298D01*
X42774580Y-45619301D01*
X42896724Y-45700916D01*
X42896730Y-45700919D01*
X42896731Y-45700920D01*
X43032458Y-45757140D01*
X43168622Y-45784224D01*
X43176540Y-45785799D01*
X43176544Y-45785800D01*
X43176545Y-45785800D01*
X43323456Y-45785800D01*
X43323457Y-45785799D01*
X43467542Y-45757140D01*
X43603269Y-45700920D01*
X43725420Y-45619301D01*
X43829301Y-45515420D01*
X43910920Y-45393269D01*
X43967140Y-45257542D01*
X43995800Y-45113455D01*
X43995800Y-44966545D01*
X43967140Y-44822458D01*
X43910920Y-44686731D01*
X43910917Y-44686726D01*
X43910916Y-44686724D01*
X43857319Y-44606511D01*
X43836441Y-44539834D01*
X43854925Y-44472453D01*
X43906904Y-44425763D01*
X43942557Y-44415813D01*
X43942473Y-44415389D01*
X43948057Y-44414278D01*
X43948284Y-44414215D01*
X43948434Y-44414200D01*
X43948448Y-44414200D01*
X43948462Y-44414197D01*
X43948464Y-44414197D01*
X43991799Y-44405577D01*
X44072906Y-44389444D01*
X44190143Y-44340883D01*
X44295654Y-44270383D01*
X44321592Y-44244444D01*
X44382913Y-44210960D01*
X44452605Y-44215944D01*
X44471268Y-44224736D01*
X44537515Y-44262984D01*
X44677525Y-44300500D01*
X44677528Y-44300500D01*
X44822472Y-44300500D01*
X44822475Y-44300500D01*
X44962485Y-44262984D01*
X45088015Y-44190509D01*
X45190509Y-44088015D01*
X45262984Y-43962485D01*
X45300500Y-43822475D01*
X45300500Y-43677525D01*
X45262984Y-43537515D01*
X45257217Y-43527527D01*
X45190511Y-43411988D01*
X45190506Y-43411982D01*
X45115705Y-43337181D01*
X45082220Y-43275858D01*
X45087204Y-43206166D01*
X45129076Y-43150233D01*
X45194540Y-43125816D01*
X45203386Y-43125500D01*
X47883258Y-43125500D01*
X47883260Y-43125500D01*
X47907622Y-43121950D01*
X47976797Y-43131762D01*
X48029688Y-43177416D01*
X48049500Y-43244418D01*
X48049500Y-47012035D01*
X48029815Y-47079074D01*
X48013181Y-47099716D01*
X47599716Y-47513181D01*
X47538393Y-47546666D01*
X47512035Y-47549500D01*
X45440691Y-47549500D01*
X45350325Y-47573713D01*
X45350324Y-47573712D01*
X45326115Y-47580200D01*
X45326106Y-47580204D01*
X45223392Y-47639505D01*
X45223384Y-47639511D01*
X44649716Y-48213181D01*
X44588393Y-48246666D01*
X44562035Y-48249500D01*
X44256898Y-48249500D01*
X44217853Y-48254188D01*
X44168438Y-48260122D01*
X44027656Y-48315639D01*
X43907077Y-48407077D01*
X43815639Y-48527656D01*
X43760122Y-48668438D01*
X43754188Y-48717853D01*
X43749500Y-48756898D01*
X43749500Y-50243102D01*
X43754599Y-50285563D01*
X43760122Y-50331561D01*
X43815639Y-50472343D01*
X43907077Y-50592922D01*
X44027656Y-50684360D01*
X44027657Y-50684360D01*
X44027658Y-50684361D01*
X44168436Y-50739877D01*
X44256898Y-50750500D01*
X44256903Y-50750500D01*
X45743097Y-50750500D01*
X45743102Y-50750500D01*
X45831564Y-50739877D01*
X45972342Y-50684361D01*
X46092922Y-50592922D01*
X46184361Y-50472342D01*
X46239877Y-50331564D01*
X46250500Y-50243102D01*
X46250500Y-48756898D01*
X46239877Y-48668436D01*
X46220771Y-48619989D01*
X46214491Y-48550403D01*
X46246828Y-48488467D01*
X46307517Y-48453846D01*
X46336127Y-48450500D01*
X47413873Y-48450500D01*
X47480912Y-48470185D01*
X47526667Y-48522989D01*
X47536611Y-48592147D01*
X47529228Y-48619990D01*
X47510122Y-48668438D01*
X47504188Y-48717853D01*
X47499500Y-48756898D01*
X47499500Y-50243102D01*
X47504599Y-50285563D01*
X47510122Y-50331561D01*
X47565639Y-50472343D01*
X47657077Y-50592922D01*
X47777656Y-50684360D01*
X47777657Y-50684360D01*
X47777658Y-50684361D01*
X47918436Y-50739877D01*
X48006898Y-50750500D01*
X48006903Y-50750500D01*
X49493097Y-50750500D01*
X49493102Y-50750500D01*
X49581564Y-50739877D01*
X49722342Y-50684361D01*
X49842922Y-50592922D01*
X49934361Y-50472342D01*
X49989877Y-50331564D01*
X49999418Y-50252108D01*
X50026954Y-50187898D01*
X50084836Y-50148764D01*
X50154687Y-50147136D01*
X50184530Y-50159506D01*
X50242515Y-50192984D01*
X50382525Y-50230500D01*
X50382528Y-50230500D01*
X50527472Y-50230500D01*
X50527475Y-50230500D01*
X50667485Y-50192984D01*
X50793015Y-50120509D01*
X50895509Y-50018015D01*
X50967984Y-49892485D01*
X51005500Y-49752475D01*
X51005500Y-49607525D01*
X50967984Y-49467515D01*
X50916422Y-49378208D01*
X50895511Y-49341988D01*
X50895506Y-49341982D01*
X50793017Y-49239493D01*
X50793011Y-49239488D01*
X50667488Y-49167017D01*
X50667489Y-49167017D01*
X50656006Y-49163940D01*
X50527475Y-49129500D01*
X50382525Y-49129500D01*
X50253993Y-49163940D01*
X50242511Y-49167017D01*
X50186500Y-49199356D01*
X50118600Y-49215829D01*
X50052573Y-49192977D01*
X50009383Y-49138056D01*
X50000500Y-49091969D01*
X50000500Y-48756903D01*
X50000500Y-48756898D01*
X49989877Y-48668436D01*
X49960345Y-48593550D01*
X49959163Y-48580451D01*
X49953418Y-48568624D01*
X49956083Y-48546329D01*
X49954065Y-48523965D01*
X49960151Y-48512306D01*
X49961713Y-48499249D01*
X49976009Y-48481933D01*
X49986402Y-48462029D01*
X49997824Y-48455513D01*
X50006198Y-48445371D01*
X50027588Y-48438533D01*
X50047091Y-48427408D01*
X50061729Y-48427619D01*
X50072751Y-48424097D01*
X50107788Y-48428286D01*
X50190691Y-48450500D01*
X51163873Y-48450500D01*
X51230912Y-48470185D01*
X51276667Y-48522989D01*
X51286611Y-48592147D01*
X51279228Y-48619990D01*
X51260122Y-48668438D01*
X51254188Y-48717853D01*
X51249500Y-48756898D01*
X51249500Y-50243102D01*
X51254599Y-50285563D01*
X51260122Y-50331561D01*
X51315639Y-50472343D01*
X51407077Y-50592922D01*
X51527656Y-50684360D01*
X51527657Y-50684360D01*
X51527658Y-50684361D01*
X51668436Y-50739877D01*
X51756898Y-50750500D01*
X51756903Y-50750500D01*
X53243097Y-50750500D01*
X53243102Y-50750500D01*
X53331564Y-50739877D01*
X53472342Y-50684361D01*
X53592922Y-50592922D01*
X53684361Y-50472342D01*
X53739877Y-50331564D01*
X53750500Y-50243102D01*
X53750500Y-48756898D01*
X54999500Y-48756898D01*
X54999500Y-50243102D01*
X55004599Y-50285563D01*
X55010122Y-50331561D01*
X55065639Y-50472343D01*
X55157077Y-50592922D01*
X55277656Y-50684360D01*
X55277657Y-50684360D01*
X55277658Y-50684361D01*
X55418436Y-50739877D01*
X55506898Y-50750500D01*
X55506903Y-50750500D01*
X56993097Y-50750500D01*
X56993102Y-50750500D01*
X57081564Y-50739877D01*
X57222342Y-50684361D01*
X57342922Y-50592922D01*
X57434361Y-50472342D01*
X57489877Y-50331564D01*
X57500500Y-50243102D01*
X57500500Y-50183386D01*
X57520185Y-50116347D01*
X57572989Y-50070592D01*
X57642147Y-50060648D01*
X57705703Y-50089673D01*
X57712181Y-50095705D01*
X57736985Y-50120509D01*
X57736986Y-50120510D01*
X57736988Y-50120511D01*
X57862511Y-50192982D01*
X57862512Y-50192982D01*
X57862515Y-50192984D01*
X58002525Y-50230500D01*
X58002528Y-50230500D01*
X58147472Y-50230500D01*
X58147475Y-50230500D01*
X58287485Y-50192984D01*
X58413015Y-50120509D01*
X58515509Y-50018015D01*
X58518112Y-50013505D01*
X58568677Y-49965290D01*
X58637284Y-49952065D01*
X58702149Y-49978031D01*
X58742679Y-50034945D01*
X58749500Y-50075504D01*
X58749500Y-50243102D01*
X58754599Y-50285563D01*
X58760122Y-50331561D01*
X58815639Y-50472343D01*
X58907077Y-50592922D01*
X59027656Y-50684360D01*
X59027657Y-50684360D01*
X59027658Y-50684361D01*
X59168436Y-50739877D01*
X59256898Y-50750500D01*
X59256903Y-50750500D01*
X60743097Y-50750500D01*
X60743102Y-50750500D01*
X60831564Y-50739877D01*
X60972342Y-50684361D01*
X61092922Y-50592922D01*
X61184361Y-50472342D01*
X61239877Y-50331564D01*
X61250500Y-50243102D01*
X61250500Y-48756898D01*
X62499500Y-48756898D01*
X62499500Y-50243102D01*
X62504599Y-50285563D01*
X62510122Y-50331561D01*
X62565639Y-50472343D01*
X62657077Y-50592922D01*
X62777656Y-50684360D01*
X62777657Y-50684360D01*
X62777658Y-50684361D01*
X62918436Y-50739877D01*
X63006898Y-50750500D01*
X63006903Y-50750500D01*
X64493097Y-50750500D01*
X64493102Y-50750500D01*
X64581564Y-50739877D01*
X64722342Y-50684361D01*
X64842922Y-50592922D01*
X64934361Y-50472342D01*
X64989877Y-50331564D01*
X65000500Y-50243102D01*
X65000500Y-48756898D01*
X66249500Y-48756898D01*
X66249500Y-50243102D01*
X66254599Y-50285563D01*
X66260122Y-50331561D01*
X66315639Y-50472343D01*
X66407077Y-50592922D01*
X66527656Y-50684360D01*
X66527657Y-50684360D01*
X66527658Y-50684361D01*
X66668436Y-50739877D01*
X66756898Y-50750500D01*
X66756903Y-50750500D01*
X68243097Y-50750500D01*
X68243102Y-50750500D01*
X68331564Y-50739877D01*
X68472342Y-50684361D01*
X68592922Y-50592922D01*
X68684361Y-50472342D01*
X68739877Y-50331564D01*
X68750500Y-50243102D01*
X68750500Y-48756898D01*
X69999500Y-48756898D01*
X69999500Y-50243102D01*
X70004599Y-50285563D01*
X70010122Y-50331561D01*
X70065639Y-50472343D01*
X70157077Y-50592922D01*
X70277656Y-50684360D01*
X70277657Y-50684360D01*
X70277658Y-50684361D01*
X70418436Y-50739877D01*
X70506898Y-50750500D01*
X70506903Y-50750500D01*
X71993097Y-50750500D01*
X71993102Y-50750500D01*
X72081564Y-50739877D01*
X72222342Y-50684361D01*
X72342922Y-50592922D01*
X72434361Y-50472342D01*
X72489877Y-50331564D01*
X72500500Y-50243102D01*
X72500500Y-49607525D01*
X72764500Y-49607525D01*
X72764500Y-49752475D01*
X72802016Y-49892485D01*
X72802017Y-49892488D01*
X72874488Y-50018011D01*
X72874490Y-50018013D01*
X72874491Y-50018015D01*
X72976985Y-50120509D01*
X72976986Y-50120510D01*
X72976988Y-50120511D01*
X73102511Y-50192982D01*
X73102512Y-50192982D01*
X73102515Y-50192984D01*
X73242525Y-50230500D01*
X73242528Y-50230500D01*
X73387472Y-50230500D01*
X73387475Y-50230500D01*
X73527485Y-50192984D01*
X73653015Y-50120509D01*
X73755509Y-50018015D01*
X73827984Y-49892485D01*
X73865500Y-49752475D01*
X73865500Y-49607525D01*
X73827984Y-49467515D01*
X73776422Y-49378208D01*
X73755511Y-49341988D01*
X73755506Y-49341982D01*
X73653017Y-49239493D01*
X73653011Y-49239488D01*
X73527488Y-49167017D01*
X73527489Y-49167017D01*
X73516006Y-49163940D01*
X73387475Y-49129500D01*
X73242525Y-49129500D01*
X73113993Y-49163940D01*
X73102511Y-49167017D01*
X72976988Y-49239488D01*
X72976982Y-49239493D01*
X72874493Y-49341982D01*
X72874488Y-49341988D01*
X72802017Y-49467511D01*
X72802016Y-49467515D01*
X72764500Y-49607525D01*
X72500500Y-49607525D01*
X72500500Y-48756898D01*
X72489877Y-48668436D01*
X72434361Y-48527658D01*
X72434360Y-48527657D01*
X72434360Y-48527656D01*
X72342922Y-48407077D01*
X72222343Y-48315639D01*
X72081561Y-48260122D01*
X72035926Y-48254642D01*
X71993102Y-48249500D01*
X70506898Y-48249500D01*
X70467853Y-48254188D01*
X70418438Y-48260122D01*
X70277656Y-48315639D01*
X70157077Y-48407077D01*
X70065639Y-48527656D01*
X70010122Y-48668438D01*
X70004188Y-48717853D01*
X69999500Y-48756898D01*
X68750500Y-48756898D01*
X68739877Y-48668436D01*
X68684361Y-48527658D01*
X68684360Y-48527657D01*
X68684360Y-48527656D01*
X68592922Y-48407077D01*
X68472343Y-48315639D01*
X68331561Y-48260122D01*
X68285926Y-48254642D01*
X68243102Y-48249500D01*
X66756898Y-48249500D01*
X66717853Y-48254188D01*
X66668438Y-48260122D01*
X66527656Y-48315639D01*
X66407077Y-48407077D01*
X66315639Y-48527656D01*
X66260122Y-48668438D01*
X66254188Y-48717853D01*
X66249500Y-48756898D01*
X65000500Y-48756898D01*
X64989877Y-48668436D01*
X64934361Y-48527658D01*
X64934360Y-48527657D01*
X64934360Y-48527656D01*
X64842922Y-48407077D01*
X64722343Y-48315639D01*
X64581561Y-48260122D01*
X64535926Y-48254642D01*
X64493102Y-48249500D01*
X63006898Y-48249500D01*
X62967853Y-48254188D01*
X62918438Y-48260122D01*
X62777656Y-48315639D01*
X62657077Y-48407077D01*
X62565639Y-48527656D01*
X62510122Y-48668438D01*
X62504188Y-48717853D01*
X62499500Y-48756898D01*
X61250500Y-48756898D01*
X61239877Y-48668436D01*
X61184361Y-48527658D01*
X61184360Y-48527657D01*
X61184360Y-48527656D01*
X61092922Y-48407077D01*
X60972343Y-48315639D01*
X60831561Y-48260122D01*
X60785926Y-48254642D01*
X60743102Y-48249500D01*
X59256898Y-48249500D01*
X59217853Y-48254188D01*
X59168438Y-48260122D01*
X59027656Y-48315639D01*
X58907077Y-48407077D01*
X58815639Y-48527656D01*
X58760122Y-48668438D01*
X58754188Y-48717853D01*
X58749500Y-48756898D01*
X58749500Y-48756903D01*
X58749500Y-49284495D01*
X58729815Y-49351534D01*
X58677011Y-49397289D01*
X58607853Y-49407233D01*
X58544297Y-49378208D01*
X58518114Y-49346496D01*
X58515513Y-49341991D01*
X58515510Y-49341988D01*
X58515509Y-49341985D01*
X58413015Y-49239491D01*
X58413013Y-49239490D01*
X58413011Y-49239488D01*
X58287488Y-49167017D01*
X58287489Y-49167017D01*
X58276006Y-49163940D01*
X58147475Y-49129500D01*
X58002525Y-49129500D01*
X57873993Y-49163940D01*
X57862511Y-49167017D01*
X57736988Y-49239488D01*
X57736982Y-49239493D01*
X57712181Y-49264295D01*
X57650858Y-49297780D01*
X57581166Y-49292796D01*
X57525233Y-49250924D01*
X57500816Y-49185460D01*
X57500500Y-49176614D01*
X57500500Y-48756903D01*
X57500500Y-48756898D01*
X57489877Y-48668436D01*
X57434361Y-48527658D01*
X57434360Y-48527657D01*
X57434360Y-48527656D01*
X57342922Y-48407077D01*
X57222343Y-48315639D01*
X57081561Y-48260122D01*
X57035926Y-48254642D01*
X56993102Y-48249500D01*
X55506898Y-48249500D01*
X55467853Y-48254188D01*
X55418438Y-48260122D01*
X55277656Y-48315639D01*
X55157077Y-48407077D01*
X55065639Y-48527656D01*
X55010122Y-48668438D01*
X55004188Y-48717853D01*
X54999500Y-48756898D01*
X53750500Y-48756898D01*
X53739877Y-48668436D01*
X53684361Y-48527658D01*
X53684360Y-48527657D01*
X53684360Y-48527656D01*
X53592922Y-48407077D01*
X53472343Y-48315639D01*
X53331561Y-48260122D01*
X53285926Y-48254642D01*
X53243102Y-48249500D01*
X53243097Y-48249500D01*
X52937966Y-48249500D01*
X52870927Y-48229815D01*
X52850285Y-48213181D01*
X52276616Y-47639513D01*
X52276614Y-47639511D01*
X52207688Y-47599716D01*
X52173888Y-47580201D01*
X52161780Y-47576957D01*
X52149673Y-47573713D01*
X52149670Y-47573712D01*
X52108404Y-47562655D01*
X52059309Y-47549500D01*
X52059308Y-47549500D01*
X50574500Y-47549500D01*
X50507461Y-47529815D01*
X50461706Y-47477011D01*
X50450500Y-47425500D01*
X50450500Y-46830463D01*
X50470185Y-46763424D01*
X50522989Y-46717669D01*
X50592147Y-46707725D01*
X50615457Y-46713422D01*
X50640398Y-46722149D01*
X50670778Y-46724998D01*
X50670806Y-46724999D01*
X50749999Y-46724998D01*
X50750000Y-46724998D01*
X50750000Y-45425000D01*
X50749999Y-45424999D01*
X50670804Y-45425000D01*
X50640392Y-45427852D01*
X50640388Y-45427852D01*
X50615452Y-45436578D01*
X50586021Y-45438079D01*
X50556853Y-45442274D01*
X50551524Y-45439840D01*
X50545674Y-45440139D01*
X50520104Y-45425491D01*
X50493297Y-45413249D01*
X50490129Y-45408320D01*
X50485047Y-45405409D01*
X50471455Y-45379262D01*
X50455523Y-45354471D01*
X50454358Y-45346373D01*
X50452821Y-45343415D01*
X50450500Y-45319536D01*
X50450500Y-45180993D01*
X50470185Y-45113954D01*
X50522989Y-45068199D01*
X50592147Y-45058255D01*
X50615458Y-45063953D01*
X50640300Y-45072646D01*
X50670730Y-45075500D01*
X50670734Y-45075500D01*
X51329270Y-45075500D01*
X51359699Y-45072646D01*
X51359701Y-45072646D01*
X51423790Y-45050219D01*
X51487882Y-45027793D01*
X51495861Y-45021904D01*
X51593655Y-44949730D01*
X51614067Y-44942274D01*
X51632353Y-44930523D01*
X51655257Y-44927229D01*
X51659284Y-44925759D01*
X51667288Y-44925500D01*
X51762764Y-44925500D01*
X51829803Y-44945185D01*
X51862029Y-44975188D01*
X51910313Y-45039687D01*
X52019774Y-45121628D01*
X52052458Y-45133818D01*
X52108390Y-45175687D01*
X52132808Y-45241151D01*
X52117957Y-45309424D01*
X52068552Y-45358830D01*
X52052461Y-45366179D01*
X52019774Y-45378371D01*
X51910313Y-45460313D01*
X51828369Y-45569777D01*
X51828255Y-45569987D01*
X51828086Y-45570155D01*
X51823057Y-45576874D01*
X51822090Y-45576150D01*
X51778847Y-45619390D01*
X51710573Y-45634238D01*
X51645110Y-45609817D01*
X51619655Y-45584187D01*
X51596791Y-45553207D01*
X51487645Y-45472653D01*
X51359602Y-45427850D01*
X51329207Y-45425000D01*
X51250000Y-45425000D01*
X51250000Y-46724999D01*
X51329196Y-46724999D01*
X51359606Y-46722148D01*
X51487645Y-46677346D01*
X51596791Y-46596792D01*
X51656015Y-46516546D01*
X51711662Y-46474295D01*
X51781318Y-46468836D01*
X51842868Y-46501903D01*
X51855053Y-46515868D01*
X51910313Y-46589687D01*
X52019774Y-46671628D01*
X52147886Y-46719412D01*
X52204515Y-46725500D01*
X52795484Y-46725499D01*
X52852114Y-46719412D01*
X52980226Y-46671628D01*
X52980229Y-46671626D01*
X53089681Y-46589692D01*
X53089683Y-46589689D01*
X53089687Y-46589687D01*
X53100541Y-46575188D01*
X53104196Y-46572451D01*
X53106094Y-46568297D01*
X53131910Y-46551705D01*
X53156476Y-46533317D01*
X53162104Y-46532301D01*
X53164872Y-46530523D01*
X53199807Y-46525500D01*
X53300193Y-46525500D01*
X53367232Y-46545185D01*
X53399459Y-46575188D01*
X53410312Y-46589686D01*
X53410318Y-46589692D01*
X53519769Y-46671625D01*
X53519770Y-46671625D01*
X53519774Y-46671628D01*
X53647886Y-46719412D01*
X53704515Y-46725500D01*
X54295484Y-46725499D01*
X54352114Y-46719412D01*
X54480226Y-46671628D01*
X54480229Y-46671626D01*
X54589681Y-46589692D01*
X54589683Y-46589689D01*
X54589687Y-46589687D01*
X54600541Y-46575188D01*
X54604196Y-46572451D01*
X54606094Y-46568297D01*
X54631910Y-46551705D01*
X54656476Y-46533317D01*
X54662104Y-46532301D01*
X54664872Y-46530523D01*
X54699807Y-46525500D01*
X54707711Y-46525500D01*
X54755162Y-46534938D01*
X54762513Y-46537983D01*
X54762515Y-46537984D01*
X54902525Y-46575500D01*
X54902528Y-46575500D01*
X55047472Y-46575500D01*
X55047475Y-46575500D01*
X55187485Y-46537984D01*
X55313015Y-46465509D01*
X55415509Y-46363015D01*
X55487984Y-46237485D01*
X55525500Y-46097475D01*
X55525500Y-45952525D01*
X55487984Y-45812515D01*
X55480753Y-45799991D01*
X55415511Y-45686988D01*
X55415506Y-45686982D01*
X55313017Y-45584493D01*
X55313011Y-45584488D01*
X55187488Y-45512017D01*
X55187489Y-45512017D01*
X55176006Y-45508940D01*
X55047475Y-45474500D01*
X54902525Y-45474500D01*
X54818519Y-45497009D01*
X54762513Y-45512016D01*
X54755162Y-45515062D01*
X54746985Y-45516688D01*
X54742646Y-45519477D01*
X54707711Y-45524500D01*
X54699807Y-45524500D01*
X54632768Y-45504815D01*
X54600541Y-45474812D01*
X54589687Y-45460313D01*
X54589681Y-45460307D01*
X54480229Y-45378373D01*
X54480227Y-45378372D01*
X54446826Y-45365914D01*
X54390893Y-45324042D01*
X54366477Y-45258577D01*
X54381330Y-45190304D01*
X54430736Y-45140900D01*
X54446830Y-45133550D01*
X54479983Y-45121185D01*
X54479984Y-45121184D01*
X54589329Y-45039329D01*
X54671184Y-44929984D01*
X54671185Y-44929983D01*
X54718916Y-44802010D01*
X54724999Y-44745428D01*
X54725000Y-44745427D01*
X54725000Y-44725000D01*
X54124000Y-44725000D01*
X54115314Y-44722449D01*
X54106353Y-44723738D01*
X54082312Y-44712759D01*
X54056961Y-44705315D01*
X54051033Y-44698474D01*
X54042797Y-44694713D01*
X54028507Y-44672478D01*
X54011206Y-44652511D01*
X54008918Y-44641996D01*
X54005023Y-44635935D01*
X54000000Y-44601000D01*
X54000000Y-44527525D01*
X54984500Y-44527525D01*
X54984500Y-44672475D01*
X55016072Y-44790301D01*
X55022017Y-44812488D01*
X55094488Y-44938011D01*
X55094490Y-44938013D01*
X55094491Y-44938015D01*
X55196985Y-45040509D01*
X55196986Y-45040510D01*
X55196988Y-45040511D01*
X55322511Y-45112982D01*
X55322512Y-45112982D01*
X55322515Y-45112984D01*
X55462525Y-45150500D01*
X55462528Y-45150500D01*
X55607472Y-45150500D01*
X55607475Y-45150500D01*
X55747485Y-45112984D01*
X55873015Y-45040509D01*
X55975509Y-44938015D01*
X56047984Y-44812485D01*
X56085500Y-44672475D01*
X56085500Y-44527525D01*
X56047984Y-44387515D01*
X56021061Y-44340884D01*
X55975511Y-44261988D01*
X55975506Y-44261982D01*
X55873017Y-44159493D01*
X55873011Y-44159488D01*
X55747488Y-44087017D01*
X55747489Y-44087017D01*
X55736006Y-44083940D01*
X55607475Y-44049500D01*
X55462525Y-44049500D01*
X55333993Y-44083940D01*
X55322511Y-44087017D01*
X55196988Y-44159488D01*
X55196982Y-44159493D01*
X55094493Y-44261982D01*
X55094488Y-44261988D01*
X55022017Y-44387511D01*
X55021628Y-44388962D01*
X54984500Y-44527525D01*
X54000000Y-44527525D01*
X54000000Y-44475000D01*
X53874000Y-44475000D01*
X53806961Y-44455315D01*
X53761206Y-44402511D01*
X53750000Y-44351000D01*
X53750000Y-44225000D01*
X54250000Y-44225000D01*
X54724999Y-44225000D01*
X54724999Y-44204566D01*
X54724998Y-44204560D01*
X54718918Y-44147992D01*
X54671186Y-44020018D01*
X54671184Y-44020015D01*
X54589329Y-43910670D01*
X54479984Y-43828815D01*
X54479983Y-43828814D01*
X54352010Y-43781083D01*
X54295428Y-43775000D01*
X54250000Y-43775000D01*
X54250000Y-44225000D01*
X53750000Y-44225000D01*
X53750000Y-43775000D01*
X53704567Y-43775000D01*
X53704558Y-43775001D01*
X53647992Y-43781081D01*
X53520018Y-43828813D01*
X53520015Y-43828815D01*
X53410670Y-43910670D01*
X53349579Y-43992278D01*
X53293645Y-44034149D01*
X53223953Y-44039133D01*
X53163107Y-44006122D01*
X53156560Y-43999645D01*
X53089687Y-43910313D01*
X52993361Y-43838204D01*
X52987295Y-43832204D01*
X52974348Y-43808796D01*
X52958318Y-43787382D01*
X52956291Y-43776149D01*
X52953478Y-43771063D01*
X52953986Y-43763372D01*
X52950500Y-43744049D01*
X52950500Y-43603935D01*
X52967112Y-43541936D01*
X53012984Y-43462485D01*
X53050500Y-43322475D01*
X53050500Y-43248999D01*
X53070185Y-43181960D01*
X53122989Y-43136205D01*
X53174500Y-43124999D01*
X53799999Y-43124999D01*
X54200000Y-43124999D01*
X54883218Y-43124999D01*
X54951249Y-43115087D01*
X55056191Y-43063784D01*
X55138787Y-42981188D01*
X55190088Y-42876249D01*
X55190270Y-42875000D01*
X54200000Y-42875000D01*
X54200000Y-43124999D01*
X53799999Y-43124999D01*
X53800000Y-43124998D01*
X53800000Y-42799000D01*
X53819685Y-42731961D01*
X53872489Y-42686206D01*
X53924000Y-42675000D01*
X54000000Y-42675000D01*
X54000000Y-42599500D01*
X54019685Y-42532461D01*
X54072489Y-42486706D01*
X54124000Y-42475500D01*
X56287035Y-42475500D01*
X56316475Y-42484144D01*
X56346462Y-42490668D01*
X56351477Y-42494422D01*
X56354074Y-42495185D01*
X56374716Y-42511819D01*
X56431176Y-42568279D01*
X56463269Y-42623865D01*
X56487015Y-42712483D01*
X56487017Y-42712488D01*
X56559488Y-42838011D01*
X56559490Y-42838013D01*
X56559491Y-42838015D01*
X56661985Y-42940509D01*
X56661986Y-42940510D01*
X56661988Y-42940511D01*
X56787511Y-43012982D01*
X56787512Y-43012982D01*
X56787515Y-43012984D01*
X56927525Y-43050500D01*
X56927528Y-43050500D01*
X57072472Y-43050500D01*
X57072475Y-43050500D01*
X57212485Y-43012984D01*
X57338015Y-42940509D01*
X57440509Y-42838015D01*
X57512984Y-42712485D01*
X57550500Y-42572475D01*
X57550500Y-42427525D01*
X57550500Y-42424500D01*
X57570185Y-42357461D01*
X57622989Y-42311706D01*
X57674500Y-42300500D01*
X57822472Y-42300500D01*
X57822475Y-42300500D01*
X57962485Y-42262984D01*
X58088015Y-42190509D01*
X58190509Y-42088015D01*
X58248527Y-41987525D01*
X60064500Y-41987525D01*
X60064500Y-42132475D01*
X60099115Y-42261658D01*
X60102017Y-42272488D01*
X60174488Y-42398011D01*
X60174490Y-42398013D01*
X60174491Y-42398015D01*
X60276985Y-42500509D01*
X60276986Y-42500510D01*
X60276988Y-42500511D01*
X60402511Y-42572982D01*
X60402512Y-42572982D01*
X60402515Y-42572984D01*
X60542525Y-42610500D01*
X60542528Y-42610500D01*
X60687472Y-42610500D01*
X60687475Y-42610500D01*
X60827485Y-42572984D01*
X60953015Y-42500509D01*
X61037819Y-42415705D01*
X61099142Y-42382220D01*
X61168834Y-42387204D01*
X61224767Y-42429076D01*
X61249184Y-42494540D01*
X61249500Y-42503386D01*
X61249500Y-44931517D01*
X61255047Y-44966540D01*
X61264354Y-45025304D01*
X61321950Y-45138342D01*
X61321952Y-45138344D01*
X61321954Y-45138347D01*
X61411652Y-45228045D01*
X61411654Y-45228046D01*
X61411658Y-45228050D01*
X61509739Y-45278025D01*
X61524698Y-45285647D01*
X61618475Y-45300499D01*
X61618481Y-45300500D01*
X61981518Y-45300499D01*
X61981523Y-45300499D01*
X62056103Y-45288687D01*
X62125396Y-45297642D01*
X62178848Y-45342638D01*
X62199487Y-45409390D01*
X62199500Y-45411160D01*
X62199500Y-46806517D01*
X62200590Y-46813397D01*
X62214354Y-46900304D01*
X62271950Y-47013342D01*
X62271952Y-47013344D01*
X62271954Y-47013347D01*
X62361652Y-47103045D01*
X62361654Y-47103046D01*
X62361658Y-47103050D01*
X62474694Y-47160645D01*
X62474698Y-47160647D01*
X62568475Y-47175499D01*
X62568481Y-47175500D01*
X62931518Y-47175499D01*
X63025304Y-47160646D01*
X63138342Y-47103050D01*
X63173867Y-47067525D01*
X65144500Y-47067525D01*
X65144500Y-47212475D01*
X65182016Y-47352485D01*
X65182017Y-47352488D01*
X65254488Y-47478011D01*
X65254490Y-47478013D01*
X65254491Y-47478015D01*
X65356985Y-47580509D01*
X65356986Y-47580510D01*
X65356988Y-47580511D01*
X65482511Y-47652982D01*
X65482512Y-47652982D01*
X65482515Y-47652984D01*
X65622525Y-47690500D01*
X65622528Y-47690500D01*
X65767472Y-47690500D01*
X65767475Y-47690500D01*
X65907485Y-47652984D01*
X66033015Y-47580509D01*
X66135509Y-47478015D01*
X66207984Y-47352485D01*
X66245500Y-47212475D01*
X66245500Y-47067525D01*
X66207984Y-46927515D01*
X66135509Y-46801985D01*
X66033015Y-46699491D01*
X66033013Y-46699490D01*
X66033011Y-46699488D01*
X65907488Y-46627017D01*
X65907489Y-46627017D01*
X65896006Y-46623940D01*
X65767475Y-46589500D01*
X65622525Y-46589500D01*
X65493993Y-46623940D01*
X65482511Y-46627017D01*
X65356988Y-46699488D01*
X65356982Y-46699493D01*
X65254493Y-46801982D01*
X65254488Y-46801988D01*
X65182017Y-46927511D01*
X65182016Y-46927515D01*
X65144500Y-47067525D01*
X63173867Y-47067525D01*
X63228050Y-47013342D01*
X63285646Y-46900304D01*
X63285646Y-46900302D01*
X63285647Y-46900301D01*
X63300500Y-46806524D01*
X63300500Y-45411160D01*
X63320185Y-45344121D01*
X63372989Y-45298366D01*
X63442147Y-45288422D01*
X63443837Y-45288677D01*
X63518481Y-45300500D01*
X63881518Y-45300499D01*
X63975304Y-45285646D01*
X64088342Y-45228050D01*
X64178050Y-45138342D01*
X64187236Y-45120311D01*
X64206550Y-45099860D01*
X64223410Y-45077340D01*
X64230216Y-45074801D01*
X64235206Y-45069518D01*
X64262515Y-45062754D01*
X64288874Y-45052923D01*
X64295974Y-45054467D01*
X64303027Y-45052721D01*
X64329656Y-45061794D01*
X64357147Y-45067775D01*
X64365451Y-45073991D01*
X64369162Y-45075256D01*
X64385401Y-45088926D01*
X64538181Y-45241706D01*
X64571666Y-45303029D01*
X64574500Y-45329387D01*
X64574500Y-45479269D01*
X64577353Y-45509699D01*
X64577353Y-45509701D01*
X64615704Y-45619298D01*
X64622207Y-45637882D01*
X64702850Y-45747150D01*
X64812118Y-45827793D01*
X64854845Y-45842744D01*
X64940299Y-45872646D01*
X64970730Y-45875500D01*
X64970734Y-45875500D01*
X65479270Y-45875500D01*
X65509699Y-45872646D01*
X65509701Y-45872646D01*
X65573790Y-45850219D01*
X65637882Y-45827793D01*
X65747150Y-45747150D01*
X65827793Y-45637882D01*
X65869225Y-45519477D01*
X65872646Y-45509701D01*
X65872646Y-45509699D01*
X65875500Y-45479269D01*
X65875500Y-44820730D01*
X66224500Y-44820730D01*
X66224500Y-45479269D01*
X66227353Y-45509699D01*
X66227353Y-45509701D01*
X66265704Y-45619298D01*
X66272207Y-45637882D01*
X66300270Y-45675906D01*
X66307726Y-45696320D01*
X66319477Y-45714604D01*
X66322769Y-45737504D01*
X66324241Y-45741533D01*
X66324500Y-45749539D01*
X66324500Y-45767898D01*
X66320275Y-45799991D01*
X66299500Y-45877525D01*
X66299500Y-46022474D01*
X66321501Y-46104586D01*
X66337014Y-46162480D01*
X66337016Y-46162485D01*
X66409490Y-46288015D01*
X66511985Y-46390510D01*
X66637515Y-46462984D01*
X66777525Y-46500500D01*
X66777526Y-46500500D01*
X66777528Y-46500500D01*
X66922472Y-46500500D01*
X66922474Y-46500500D01*
X66922475Y-46500500D01*
X67062485Y-46462984D01*
X67188015Y-46390510D01*
X67315510Y-46263015D01*
X67387984Y-46137485D01*
X67390779Y-46127052D01*
X67396800Y-46104586D01*
X67407304Y-46065380D01*
X67425500Y-45997475D01*
X67425500Y-45749539D01*
X67445185Y-45682500D01*
X67449722Y-45675916D01*
X67477793Y-45637882D01*
X67519225Y-45519477D01*
X67522646Y-45509701D01*
X67522646Y-45509699D01*
X67525500Y-45479269D01*
X67525500Y-44820730D01*
X67522646Y-44790300D01*
X67522646Y-44790298D01*
X67481416Y-44672472D01*
X67477793Y-44662118D01*
X67397150Y-44552850D01*
X67287882Y-44472207D01*
X67287880Y-44472206D01*
X67159700Y-44427353D01*
X67129270Y-44424500D01*
X67129266Y-44424500D01*
X66620734Y-44424500D01*
X66620730Y-44424500D01*
X66590300Y-44427353D01*
X66590298Y-44427353D01*
X66462119Y-44472206D01*
X66462117Y-44472207D01*
X66352850Y-44552850D01*
X66272207Y-44662117D01*
X66272206Y-44662119D01*
X66227353Y-44790298D01*
X66227353Y-44790300D01*
X66224500Y-44820730D01*
X65875500Y-44820730D01*
X65872646Y-44790300D01*
X65872646Y-44790298D01*
X65831416Y-44672472D01*
X65827793Y-44662118D01*
X65747150Y-44552850D01*
X65637882Y-44472207D01*
X65637880Y-44472206D01*
X65509700Y-44427353D01*
X65479270Y-44424500D01*
X65479266Y-44424500D01*
X65329387Y-44424500D01*
X65299946Y-44415855D01*
X65269960Y-44409332D01*
X65264944Y-44405577D01*
X65262348Y-44404815D01*
X65241706Y-44388181D01*
X65215705Y-44362180D01*
X65182220Y-44300857D01*
X65187204Y-44231165D01*
X65229076Y-44175232D01*
X65294540Y-44150815D01*
X65303386Y-44150499D01*
X65425583Y-44150499D01*
X65425591Y-44150500D01*
X65440025Y-44150500D01*
X66672472Y-44150500D01*
X66672475Y-44150500D01*
X66812485Y-44112984D01*
X66938015Y-44040509D01*
X67040509Y-43938015D01*
X67112984Y-43812485D01*
X67150500Y-43672475D01*
X67150500Y-43527525D01*
X67112984Y-43387515D01*
X67112982Y-43387512D01*
X67112982Y-43387510D01*
X67112981Y-43387507D01*
X67112397Y-43386496D01*
X67112163Y-43385534D01*
X67109872Y-43380001D01*
X67110734Y-43379643D01*
X67095927Y-43318595D01*
X67118781Y-43252569D01*
X67173704Y-43209381D01*
X67219786Y-43200500D01*
X67474409Y-43200500D01*
X67474417Y-43200499D01*
X68006517Y-43200499D01*
X68006518Y-43200499D01*
X68100304Y-43185646D01*
X68213342Y-43128050D01*
X68303050Y-43038342D01*
X68360646Y-42925304D01*
X68360646Y-42925302D01*
X68360647Y-42925301D01*
X68375499Y-42831524D01*
X68375500Y-42831519D01*
X68375499Y-42468482D01*
X68360646Y-42374696D01*
X68303050Y-42261658D01*
X68303048Y-42261656D01*
X68303046Y-42261652D01*
X68297471Y-42253978D01*
X68286018Y-42221877D01*
X68274107Y-42189940D01*
X68274302Y-42189039D01*
X68273993Y-42188171D01*
X68281719Y-42154948D01*
X68288960Y-42121667D01*
X68289684Y-42120698D01*
X68289820Y-42120118D01*
X68310109Y-42093415D01*
X68341708Y-42061817D01*
X68403032Y-42028333D01*
X68429388Y-42025500D01*
X68579270Y-42025500D01*
X68609699Y-42022646D01*
X68609701Y-42022646D01*
X68675512Y-41999617D01*
X68710069Y-41987525D01*
X70224500Y-41987525D01*
X70224500Y-42132475D01*
X70259115Y-42261658D01*
X70262017Y-42272488D01*
X70334488Y-42398011D01*
X70334490Y-42398013D01*
X70334491Y-42398015D01*
X70436985Y-42500509D01*
X70436986Y-42500510D01*
X70436988Y-42500511D01*
X70562511Y-42572982D01*
X70562512Y-42572982D01*
X70562515Y-42572984D01*
X70702525Y-42610500D01*
X70702528Y-42610500D01*
X70847472Y-42610500D01*
X70847475Y-42610500D01*
X70987485Y-42572984D01*
X70987487Y-42572982D01*
X70987489Y-42572982D01*
X70987490Y-42572981D01*
X71063499Y-42529096D01*
X71131399Y-42512623D01*
X71197426Y-42535475D01*
X71240617Y-42590395D01*
X71249500Y-42636483D01*
X71249500Y-44931517D01*
X71255047Y-44966540D01*
X71264354Y-45025304D01*
X71321950Y-45138342D01*
X71321952Y-45138344D01*
X71321954Y-45138347D01*
X71411652Y-45228045D01*
X71411654Y-45228046D01*
X71411658Y-45228050D01*
X71509739Y-45278025D01*
X71524698Y-45285647D01*
X71618475Y-45300499D01*
X71618481Y-45300500D01*
X71981518Y-45300499D01*
X71981523Y-45300499D01*
X72056103Y-45288687D01*
X72125396Y-45297642D01*
X72178848Y-45342638D01*
X72199487Y-45409390D01*
X72199500Y-45411160D01*
X72199500Y-46806517D01*
X72200590Y-46813397D01*
X72214354Y-46900304D01*
X72271950Y-47013342D01*
X72271952Y-47013344D01*
X72271954Y-47013347D01*
X72361652Y-47103045D01*
X72361654Y-47103046D01*
X72361658Y-47103050D01*
X72474694Y-47160645D01*
X72474698Y-47160647D01*
X72568475Y-47175499D01*
X72568481Y-47175500D01*
X72931518Y-47175499D01*
X73025304Y-47160646D01*
X73138342Y-47103050D01*
X73228050Y-47013342D01*
X73285646Y-46900304D01*
X73285646Y-46900302D01*
X73285647Y-46900301D01*
X73300500Y-46806524D01*
X73300500Y-45411160D01*
X73320185Y-45344121D01*
X73372989Y-45298366D01*
X73442147Y-45288422D01*
X73443837Y-45288677D01*
X73518481Y-45300500D01*
X73881518Y-45300499D01*
X73975304Y-45285646D01*
X74088342Y-45228050D01*
X74178050Y-45138342D01*
X74187236Y-45120311D01*
X74206550Y-45099860D01*
X74223410Y-45077340D01*
X74230216Y-45074801D01*
X74235206Y-45069518D01*
X74262515Y-45062754D01*
X74288874Y-45052923D01*
X74295974Y-45054467D01*
X74303027Y-45052721D01*
X74329656Y-45061794D01*
X74357147Y-45067775D01*
X74365451Y-45073991D01*
X74369162Y-45075256D01*
X74385401Y-45088926D01*
X74538181Y-45241706D01*
X74571666Y-45303029D01*
X74574500Y-45329387D01*
X74574500Y-45479269D01*
X74577353Y-45509699D01*
X74577353Y-45509701D01*
X74615704Y-45619298D01*
X74622207Y-45637882D01*
X74702850Y-45747150D01*
X74812118Y-45827793D01*
X74854845Y-45842744D01*
X74940299Y-45872646D01*
X74970730Y-45875500D01*
X74970734Y-45875500D01*
X75479270Y-45875500D01*
X75509699Y-45872646D01*
X75509701Y-45872646D01*
X75573790Y-45850219D01*
X75637882Y-45827793D01*
X75747150Y-45747150D01*
X75827793Y-45637882D01*
X75869225Y-45519477D01*
X75872646Y-45509701D01*
X75872646Y-45509699D01*
X75875500Y-45479269D01*
X75875500Y-44820730D01*
X76224500Y-44820730D01*
X76224500Y-45479269D01*
X76227353Y-45509699D01*
X76227353Y-45509701D01*
X76265704Y-45619298D01*
X76272207Y-45637882D01*
X76300270Y-45675906D01*
X76307726Y-45696320D01*
X76319477Y-45714604D01*
X76322769Y-45737504D01*
X76324241Y-45741533D01*
X76324500Y-45749539D01*
X76324500Y-45767898D01*
X76320275Y-45799991D01*
X76299500Y-45877525D01*
X76299500Y-46022474D01*
X76321501Y-46104586D01*
X76337014Y-46162480D01*
X76337016Y-46162485D01*
X76409490Y-46288015D01*
X76511985Y-46390510D01*
X76637515Y-46462984D01*
X76777525Y-46500500D01*
X76777526Y-46500500D01*
X76777528Y-46500500D01*
X76922472Y-46500500D01*
X76922474Y-46500500D01*
X76922475Y-46500500D01*
X77062485Y-46462984D01*
X77188015Y-46390510D01*
X77315510Y-46263015D01*
X77387984Y-46137485D01*
X77390779Y-46127052D01*
X77396800Y-46104586D01*
X77407304Y-46065380D01*
X77425500Y-45997475D01*
X77425500Y-45749539D01*
X77445185Y-45682500D01*
X77449722Y-45675916D01*
X77477793Y-45637882D01*
X77519225Y-45519477D01*
X77522646Y-45509701D01*
X77522646Y-45509699D01*
X77525500Y-45479269D01*
X77525500Y-44820730D01*
X77522646Y-44790300D01*
X77522646Y-44790298D01*
X77481416Y-44672472D01*
X77477793Y-44662118D01*
X77398053Y-44554073D01*
X77397151Y-44552851D01*
X77377627Y-44538442D01*
X77362835Y-44527525D01*
X77844500Y-44527525D01*
X77844500Y-44672475D01*
X77876072Y-44790301D01*
X77882017Y-44812488D01*
X77954488Y-44938011D01*
X77954490Y-44938013D01*
X77954491Y-44938015D01*
X78056985Y-45040509D01*
X78056986Y-45040510D01*
X78056988Y-45040511D01*
X78182511Y-45112982D01*
X78182512Y-45112982D01*
X78182515Y-45112984D01*
X78322525Y-45150500D01*
X78322528Y-45150500D01*
X78467472Y-45150500D01*
X78467475Y-45150500D01*
X78607485Y-45112984D01*
X78733015Y-45040509D01*
X78835509Y-44938015D01*
X78907984Y-44812485D01*
X78945500Y-44672475D01*
X78945500Y-44527525D01*
X78907984Y-44387515D01*
X78881061Y-44340884D01*
X78835511Y-44261988D01*
X78835506Y-44261982D01*
X78733017Y-44159493D01*
X78733011Y-44159488D01*
X78607488Y-44087017D01*
X78607489Y-44087017D01*
X78596006Y-44083940D01*
X78467475Y-44049500D01*
X78322525Y-44049500D01*
X78193993Y-44083940D01*
X78182511Y-44087017D01*
X78056988Y-44159488D01*
X78056982Y-44159493D01*
X77954493Y-44261982D01*
X77954488Y-44261988D01*
X77882017Y-44387511D01*
X77881628Y-44388962D01*
X77844500Y-44527525D01*
X77362835Y-44527525D01*
X77287882Y-44472207D01*
X77287880Y-44472206D01*
X77159700Y-44427353D01*
X77129270Y-44424500D01*
X77129266Y-44424500D01*
X76620734Y-44424500D01*
X76620730Y-44424500D01*
X76590300Y-44427353D01*
X76590298Y-44427353D01*
X76462119Y-44472206D01*
X76462117Y-44472207D01*
X76352850Y-44552850D01*
X76272207Y-44662117D01*
X76272206Y-44662119D01*
X76227353Y-44790298D01*
X76227353Y-44790300D01*
X76224500Y-44820730D01*
X75875500Y-44820730D01*
X75872646Y-44790300D01*
X75872646Y-44790298D01*
X75831416Y-44672472D01*
X75827793Y-44662118D01*
X75747150Y-44552850D01*
X75637882Y-44472207D01*
X75637880Y-44472206D01*
X75509700Y-44427353D01*
X75479270Y-44424500D01*
X75479266Y-44424500D01*
X75329387Y-44424500D01*
X75299946Y-44415855D01*
X75269960Y-44409332D01*
X75264944Y-44405577D01*
X75262348Y-44404815D01*
X75241706Y-44388181D01*
X75215705Y-44362180D01*
X75182220Y-44300857D01*
X75187204Y-44231165D01*
X75229076Y-44175232D01*
X75294540Y-44150815D01*
X75303386Y-44150499D01*
X75425583Y-44150499D01*
X75425591Y-44150500D01*
X75440025Y-44150500D01*
X76672472Y-44150500D01*
X76672475Y-44150500D01*
X76812485Y-44112984D01*
X76938015Y-44040509D01*
X77040509Y-43938015D01*
X77112984Y-43812485D01*
X77150500Y-43672475D01*
X77150500Y-43527525D01*
X77112984Y-43387515D01*
X77112982Y-43387512D01*
X77112982Y-43387510D01*
X77112981Y-43387507D01*
X77112397Y-43386496D01*
X77112163Y-43385534D01*
X77109872Y-43380001D01*
X77110734Y-43379643D01*
X77095927Y-43318595D01*
X77118781Y-43252569D01*
X77173704Y-43209381D01*
X77219786Y-43200500D01*
X77474409Y-43200500D01*
X77474417Y-43200499D01*
X78006517Y-43200499D01*
X78006518Y-43200499D01*
X78100304Y-43185646D01*
X78213342Y-43128050D01*
X78303050Y-43038342D01*
X78360646Y-42925304D01*
X78360646Y-42925302D01*
X78360647Y-42925301D01*
X78375499Y-42831524D01*
X78375500Y-42831519D01*
X78375499Y-42468482D01*
X78360646Y-42374696D01*
X78303050Y-42261658D01*
X78303048Y-42261656D01*
X78303046Y-42261652D01*
X78297471Y-42253978D01*
X78286018Y-42221877D01*
X78274107Y-42189940D01*
X78274302Y-42189039D01*
X78273993Y-42188171D01*
X78281719Y-42154948D01*
X78288960Y-42121667D01*
X78289684Y-42120698D01*
X78289820Y-42120118D01*
X78310109Y-42093415D01*
X78341708Y-42061817D01*
X78403032Y-42028333D01*
X78429388Y-42025500D01*
X78579270Y-42025500D01*
X78609699Y-42022646D01*
X78609701Y-42022646D01*
X78675512Y-41999617D01*
X78737882Y-41977793D01*
X78847150Y-41897150D01*
X78927793Y-41787882D01*
X78957041Y-41704295D01*
X78972646Y-41659701D01*
X78972646Y-41659699D01*
X78975500Y-41629269D01*
X78975500Y-41120730D01*
X78972646Y-41090300D01*
X78972646Y-41090298D01*
X78927921Y-40962485D01*
X78927793Y-40962118D01*
X78847150Y-40852850D01*
X78737882Y-40772207D01*
X78737880Y-40772206D01*
X78609700Y-40727353D01*
X78579270Y-40724500D01*
X78579266Y-40724500D01*
X78328387Y-40724500D01*
X78307141Y-40718261D01*
X78285053Y-40716682D01*
X78274269Y-40708609D01*
X78261348Y-40704815D01*
X78246848Y-40688081D01*
X78229120Y-40674810D01*
X78224412Y-40662189D01*
X78215593Y-40652011D01*
X78212441Y-40630093D01*
X78204703Y-40609346D01*
X78207565Y-40596185D01*
X78205649Y-40582853D01*
X78214848Y-40562709D01*
X78219555Y-40541073D01*
X78232823Y-40523347D01*
X78234674Y-40519297D01*
X78240706Y-40512819D01*
X78341706Y-40411819D01*
X78403029Y-40378334D01*
X78429387Y-40375500D01*
X78579270Y-40375500D01*
X78609699Y-40372646D01*
X78609701Y-40372646D01*
X78687161Y-40345541D01*
X78737882Y-40327793D01*
X78847150Y-40247150D01*
X78927793Y-40137882D01*
X78964332Y-40033459D01*
X78972646Y-40009701D01*
X78972646Y-40009699D01*
X78975500Y-39979269D01*
X78975500Y-39470730D01*
X78972646Y-39440300D01*
X78972646Y-39440298D01*
X78934903Y-39332438D01*
X78927793Y-39312118D01*
X78847150Y-39202850D01*
X78847148Y-39202849D01*
X78847148Y-39202848D01*
X78840580Y-39196280D01*
X78842407Y-39194452D01*
X78808614Y-39149940D01*
X78800500Y-39105823D01*
X78800500Y-38777527D01*
X78800500Y-38777525D01*
X78762984Y-38637515D01*
X78705246Y-38537511D01*
X78690511Y-38511988D01*
X78690506Y-38511982D01*
X78588017Y-38409493D01*
X78588011Y-38409488D01*
X78462488Y-38337017D01*
X78462489Y-38337017D01*
X78451006Y-38333940D01*
X78322475Y-38299500D01*
X78177525Y-38299500D01*
X78048993Y-38333940D01*
X78037511Y-38337017D01*
X77911988Y-38409488D01*
X77911982Y-38409493D01*
X77809493Y-38511982D01*
X77809488Y-38511988D01*
X77737017Y-38637511D01*
X77737016Y-38637515D01*
X77699500Y-38777525D01*
X77699500Y-38777527D01*
X77699500Y-39105823D01*
X77679815Y-39172862D01*
X77677367Y-39176528D01*
X77665658Y-39193396D01*
X77652850Y-39202850D01*
X77572207Y-39312118D01*
X77560974Y-39344217D01*
X77551367Y-39358060D01*
X77536755Y-39369838D01*
X77525818Y-39385087D01*
X77510118Y-39391309D01*
X77496970Y-39401909D01*
X77478310Y-39403917D01*
X77460865Y-39410833D01*
X77444292Y-39407580D01*
X77427502Y-39409388D01*
X77410720Y-39400990D01*
X77392304Y-39397376D01*
X77380119Y-39385678D01*
X77365018Y-39378122D01*
X77355439Y-39361984D01*
X77341902Y-39348988D01*
X77337168Y-39331201D01*
X77329356Y-39318039D01*
X77329864Y-39303754D01*
X77325500Y-39287355D01*
X77325500Y-39127527D01*
X77325500Y-39127525D01*
X77287984Y-38987515D01*
X77273533Y-38962485D01*
X77215510Y-38861985D01*
X77011819Y-38658294D01*
X76978334Y-38596971D01*
X76975500Y-38570613D01*
X76975500Y-38420730D01*
X76972646Y-38390300D01*
X76972646Y-38390298D01*
X76927793Y-38262119D01*
X76927792Y-38262117D01*
X76847150Y-38152850D01*
X76800221Y-38118215D01*
X76757972Y-38062569D01*
X76752513Y-37992912D01*
X76761102Y-37970497D01*
X76759875Y-37969989D01*
X76762978Y-37962493D01*
X76762984Y-37962485D01*
X76800500Y-37822475D01*
X76800500Y-37677525D01*
X76800500Y-37644176D01*
X76820185Y-37577137D01*
X76841383Y-37554525D01*
X76840579Y-37553721D01*
X76847146Y-37547152D01*
X76847150Y-37547150D01*
X76927793Y-37437882D01*
X76950219Y-37373790D01*
X76972646Y-37309701D01*
X76972646Y-37309699D01*
X76975500Y-37279269D01*
X76975500Y-36770730D01*
X76972646Y-36740300D01*
X76972646Y-36740298D01*
X76935998Y-36635566D01*
X76927793Y-36612118D01*
X76847150Y-36502850D01*
X76737882Y-36422207D01*
X76737880Y-36422206D01*
X76609700Y-36377353D01*
X76579270Y-36374500D01*
X76579266Y-36374500D01*
X75920734Y-36374500D01*
X75920730Y-36374500D01*
X75890300Y-36377353D01*
X75890298Y-36377353D01*
X75762119Y-36422206D01*
X75762117Y-36422207D01*
X75652850Y-36502850D01*
X75599459Y-36575192D01*
X75543811Y-36617443D01*
X75474155Y-36622901D01*
X75412606Y-36589833D01*
X75399919Y-36575192D01*
X75346792Y-36503207D01*
X75237645Y-36422653D01*
X75109602Y-36377850D01*
X75079207Y-36375000D01*
X75000000Y-36375000D01*
X75000000Y-37674999D01*
X75079196Y-37674999D01*
X75109606Y-37672148D01*
X75237645Y-37627346D01*
X75346793Y-37546791D01*
X75399919Y-37474808D01*
X75419992Y-37459566D01*
X75437327Y-37441264D01*
X75447347Y-37438797D01*
X75455566Y-37432557D01*
X75480694Y-37430587D01*
X75505171Y-37424562D01*
X75514934Y-37427904D01*
X75525222Y-37427098D01*
X75547426Y-37439027D01*
X75571275Y-37447191D01*
X75581777Y-37457481D01*
X75586772Y-37460165D01*
X75596900Y-37471461D01*
X75598212Y-37473118D01*
X75652850Y-37547150D01*
X75662443Y-37554230D01*
X75672711Y-37567196D01*
X75679851Y-37584858D01*
X75691377Y-37600033D01*
X75695881Y-37624510D01*
X75698898Y-37631973D01*
X75698064Y-37636376D01*
X75699500Y-37644176D01*
X75699500Y-37677525D01*
X75699500Y-37822475D01*
X75737016Y-37962484D01*
X75738603Y-37968406D01*
X75736940Y-38038256D01*
X75697778Y-38096119D01*
X75633549Y-38123623D01*
X75618828Y-38124500D01*
X75349540Y-38124500D01*
X75282501Y-38104815D01*
X75275907Y-38100270D01*
X75237886Y-38072209D01*
X75237880Y-38072206D01*
X75109700Y-38027353D01*
X75079270Y-38024500D01*
X75079266Y-38024500D01*
X74420734Y-38024500D01*
X74420730Y-38024500D01*
X74390300Y-38027353D01*
X74390298Y-38027353D01*
X74262119Y-38072206D01*
X74262117Y-38072207D01*
X74152850Y-38152850D01*
X74099770Y-38224771D01*
X74044122Y-38267022D01*
X73974466Y-38272480D01*
X73912917Y-38239412D01*
X73900230Y-38224771D01*
X73870645Y-38184685D01*
X73847150Y-38152850D01*
X73737882Y-38072207D01*
X73737880Y-38072206D01*
X73609700Y-38027353D01*
X73579270Y-38024500D01*
X73579266Y-38024500D01*
X72920734Y-38024500D01*
X72920730Y-38024500D01*
X72890300Y-38027353D01*
X72890298Y-38027353D01*
X72762119Y-38072206D01*
X72762113Y-38072209D01*
X72724093Y-38100270D01*
X72658464Y-38124241D01*
X72650460Y-38124500D01*
X72381172Y-38124500D01*
X72314133Y-38104815D01*
X72268378Y-38052011D01*
X72258434Y-37982853D01*
X72261397Y-37968406D01*
X72262984Y-37962484D01*
X72300500Y-37822475D01*
X72300500Y-37677525D01*
X72300500Y-37644176D01*
X72320185Y-37577137D01*
X72327288Y-37567196D01*
X72337553Y-37554232D01*
X72347150Y-37547150D01*
X72401814Y-37473082D01*
X72403098Y-37471461D01*
X72429974Y-37452458D01*
X72456186Y-37432557D01*
X72458364Y-37432386D01*
X72460148Y-37431125D01*
X72493033Y-37429669D01*
X72525842Y-37427098D01*
X72527766Y-37428131D01*
X72529950Y-37428035D01*
X72558411Y-37444595D01*
X72587392Y-37460165D01*
X72589652Y-37462773D01*
X72590341Y-37463174D01*
X72590832Y-37464135D01*
X72600080Y-37474807D01*
X72653207Y-37546792D01*
X72762354Y-37627346D01*
X72890397Y-37672149D01*
X72920778Y-37674998D01*
X72920806Y-37674999D01*
X73500000Y-37674999D01*
X73579196Y-37674999D01*
X73609606Y-37672148D01*
X73737645Y-37627346D01*
X73846793Y-37546791D01*
X73900230Y-37474387D01*
X73955877Y-37432136D01*
X74025533Y-37426677D01*
X74087083Y-37459744D01*
X74099770Y-37474387D01*
X74153206Y-37546791D01*
X74262354Y-37627346D01*
X74390397Y-37672149D01*
X74420778Y-37674998D01*
X74420806Y-37674999D01*
X74499999Y-37674998D01*
X74500000Y-37674998D01*
X74500000Y-37275000D01*
X73500000Y-37275000D01*
X73500000Y-37674999D01*
X72920806Y-37674999D01*
X72999999Y-37674998D01*
X73000000Y-37674998D01*
X73000000Y-36375000D01*
X73500000Y-36375000D01*
X73500000Y-36775000D01*
X74500000Y-36775000D01*
X74500000Y-36375000D01*
X74499999Y-36374999D01*
X74420804Y-36375000D01*
X74390393Y-36377851D01*
X74262354Y-36422653D01*
X74153207Y-36503207D01*
X74099770Y-36575613D01*
X74044122Y-36617864D01*
X73974466Y-36623322D01*
X73912917Y-36590254D01*
X73900230Y-36575613D01*
X73846792Y-36503207D01*
X73737645Y-36422653D01*
X73609602Y-36377850D01*
X73579207Y-36375000D01*
X73500000Y-36375000D01*
X73000000Y-36375000D01*
X72999999Y-36374999D01*
X72920804Y-36375000D01*
X72890393Y-36377851D01*
X72762354Y-36422653D01*
X72653207Y-36503208D01*
X72600079Y-36575193D01*
X72544432Y-36617443D01*
X72474775Y-36622900D01*
X72413226Y-36589833D01*
X72400540Y-36575191D01*
X72347151Y-36502851D01*
X72337750Y-36495913D01*
X72237882Y-36422207D01*
X72237880Y-36422206D01*
X72109700Y-36377353D01*
X72079270Y-36374500D01*
X72079266Y-36374500D01*
X71420734Y-36374500D01*
X71420730Y-36374500D01*
X71390300Y-36377353D01*
X71390298Y-36377353D01*
X71262119Y-36422206D01*
X71262117Y-36422207D01*
X71152850Y-36502850D01*
X71072207Y-36612117D01*
X71072206Y-36612119D01*
X71027353Y-36740298D01*
X71027353Y-36740300D01*
X71024500Y-36770730D01*
X71024500Y-37279269D01*
X71027353Y-37309699D01*
X71027353Y-37309701D01*
X71072206Y-37437880D01*
X71072207Y-37437882D01*
X71099459Y-37474808D01*
X71152851Y-37547151D01*
X71159421Y-37553721D01*
X71157590Y-37555551D01*
X71191377Y-37600033D01*
X71199500Y-37644176D01*
X71199500Y-37677525D01*
X71199500Y-37822475D01*
X71225251Y-37918578D01*
X71237017Y-37962489D01*
X71240128Y-37969999D01*
X71237123Y-37971243D01*
X71250000Y-38024380D01*
X71227131Y-38090401D01*
X71199776Y-38118217D01*
X71152850Y-38152850D01*
X71072207Y-38262117D01*
X71072206Y-38262119D01*
X71027353Y-38390298D01*
X71027353Y-38390300D01*
X71024500Y-38420730D01*
X71024500Y-38929269D01*
X71027353Y-38959699D01*
X71027353Y-38959701D01*
X71069430Y-39079947D01*
X71072207Y-39087882D01*
X71152850Y-39197150D01*
X71199134Y-39231309D01*
X71241384Y-39286954D01*
X71249500Y-39331078D01*
X71249500Y-41483516D01*
X71229815Y-41550555D01*
X71177011Y-41596310D01*
X71107853Y-41606254D01*
X71063500Y-41590903D01*
X70987488Y-41547017D01*
X70987489Y-41547017D01*
X70952027Y-41537515D01*
X70847475Y-41509500D01*
X70702525Y-41509500D01*
X70597973Y-41537515D01*
X70562511Y-41547017D01*
X70436988Y-41619488D01*
X70436982Y-41619493D01*
X70334493Y-41721982D01*
X70334488Y-41721988D01*
X70262017Y-41847511D01*
X70262016Y-41847515D01*
X70224500Y-41987525D01*
X68710069Y-41987525D01*
X68737882Y-41977793D01*
X68847150Y-41897150D01*
X68927793Y-41787882D01*
X68957041Y-41704295D01*
X68972646Y-41659701D01*
X68972646Y-41659699D01*
X68975500Y-41629269D01*
X68975500Y-41120730D01*
X68972646Y-41090300D01*
X68972646Y-41090298D01*
X68927921Y-40962485D01*
X68927793Y-40962118D01*
X68847150Y-40852850D01*
X68737882Y-40772207D01*
X68737880Y-40772206D01*
X68609700Y-40727353D01*
X68579270Y-40724500D01*
X68579266Y-40724500D01*
X68328387Y-40724500D01*
X68307141Y-40718261D01*
X68285053Y-40716682D01*
X68274269Y-40708609D01*
X68261348Y-40704815D01*
X68246848Y-40688081D01*
X68229120Y-40674810D01*
X68224412Y-40662189D01*
X68215593Y-40652011D01*
X68212441Y-40630093D01*
X68204703Y-40609346D01*
X68207565Y-40596185D01*
X68205649Y-40582853D01*
X68214848Y-40562709D01*
X68219555Y-40541073D01*
X68232823Y-40523347D01*
X68234674Y-40519297D01*
X68240706Y-40512819D01*
X68341706Y-40411819D01*
X68403029Y-40378334D01*
X68429387Y-40375500D01*
X68579270Y-40375500D01*
X68609699Y-40372646D01*
X68609701Y-40372646D01*
X68687161Y-40345541D01*
X68737882Y-40327793D01*
X68847150Y-40247150D01*
X68927793Y-40137882D01*
X68964332Y-40033459D01*
X68972646Y-40009701D01*
X68972646Y-40009699D01*
X68975500Y-39979269D01*
X68975500Y-39470730D01*
X68972646Y-39440300D01*
X68972646Y-39440298D01*
X68934903Y-39332438D01*
X68927793Y-39312118D01*
X68847150Y-39202850D01*
X68847148Y-39202849D01*
X68847148Y-39202848D01*
X68840580Y-39196280D01*
X68842407Y-39194452D01*
X68808614Y-39149940D01*
X68800500Y-39105823D01*
X68800500Y-38777527D01*
X68800500Y-38777525D01*
X68762984Y-38637515D01*
X68705246Y-38537511D01*
X68690511Y-38511988D01*
X68690506Y-38511982D01*
X68588017Y-38409493D01*
X68588011Y-38409488D01*
X68462488Y-38337017D01*
X68462489Y-38337017D01*
X68451006Y-38333940D01*
X68322475Y-38299500D01*
X68177525Y-38299500D01*
X68048993Y-38333940D01*
X68037511Y-38337017D01*
X67911988Y-38409488D01*
X67911982Y-38409493D01*
X67809493Y-38511982D01*
X67809488Y-38511988D01*
X67737017Y-38637511D01*
X67737016Y-38637515D01*
X67699500Y-38777525D01*
X67699500Y-38777527D01*
X67699500Y-39105823D01*
X67679815Y-39172862D01*
X67677367Y-39176528D01*
X67665658Y-39193396D01*
X67652850Y-39202850D01*
X67572207Y-39312118D01*
X67560974Y-39344217D01*
X67551367Y-39358060D01*
X67536755Y-39369838D01*
X67525818Y-39385087D01*
X67510118Y-39391309D01*
X67496970Y-39401909D01*
X67478310Y-39403917D01*
X67460865Y-39410833D01*
X67444292Y-39407580D01*
X67427502Y-39409388D01*
X67410720Y-39400990D01*
X67392304Y-39397376D01*
X67380119Y-39385678D01*
X67365018Y-39378122D01*
X67355439Y-39361984D01*
X67341902Y-39348988D01*
X67337168Y-39331201D01*
X67329356Y-39318039D01*
X67329864Y-39303754D01*
X67325500Y-39287355D01*
X67325500Y-39127527D01*
X67325500Y-39127525D01*
X67287984Y-38987515D01*
X67273533Y-38962485D01*
X67215510Y-38861985D01*
X67011819Y-38658294D01*
X66978334Y-38596971D01*
X66975500Y-38570613D01*
X66975500Y-38420730D01*
X66972646Y-38390300D01*
X66972646Y-38390298D01*
X66927793Y-38262119D01*
X66927792Y-38262117D01*
X66847150Y-38152850D01*
X66800221Y-38118215D01*
X66757972Y-38062569D01*
X66752513Y-37992912D01*
X66761102Y-37970497D01*
X66759875Y-37969989D01*
X66762978Y-37962493D01*
X66762984Y-37962485D01*
X66800500Y-37822475D01*
X66800500Y-37677525D01*
X66800500Y-37644176D01*
X66820185Y-37577137D01*
X66841383Y-37554525D01*
X66840579Y-37553721D01*
X66847146Y-37547152D01*
X66847150Y-37547150D01*
X66927793Y-37437882D01*
X66950219Y-37373790D01*
X66972646Y-37309701D01*
X66972646Y-37309699D01*
X66975500Y-37279269D01*
X66975500Y-36770730D01*
X66972646Y-36740300D01*
X66972646Y-36740298D01*
X66935998Y-36635566D01*
X66927793Y-36612118D01*
X66847150Y-36502850D01*
X66737882Y-36422207D01*
X66737880Y-36422206D01*
X66609700Y-36377353D01*
X66579270Y-36374500D01*
X66579266Y-36374500D01*
X65920734Y-36374500D01*
X65920730Y-36374500D01*
X65890300Y-36377353D01*
X65890298Y-36377353D01*
X65762119Y-36422206D01*
X65762117Y-36422207D01*
X65652850Y-36502850D01*
X65599459Y-36575192D01*
X65543811Y-36617443D01*
X65474155Y-36622901D01*
X65412606Y-36589833D01*
X65399919Y-36575192D01*
X65346792Y-36503207D01*
X65237645Y-36422653D01*
X65109602Y-36377850D01*
X65079207Y-36375000D01*
X65000000Y-36375000D01*
X65000000Y-37674999D01*
X65079196Y-37674999D01*
X65109606Y-37672148D01*
X65237645Y-37627346D01*
X65346793Y-37546791D01*
X65399919Y-37474808D01*
X65419992Y-37459566D01*
X65437327Y-37441264D01*
X65447347Y-37438797D01*
X65455566Y-37432557D01*
X65480694Y-37430587D01*
X65505171Y-37424562D01*
X65514934Y-37427904D01*
X65525222Y-37427098D01*
X65547426Y-37439027D01*
X65571275Y-37447191D01*
X65581777Y-37457481D01*
X65586772Y-37460165D01*
X65596900Y-37471461D01*
X65598212Y-37473118D01*
X65652850Y-37547150D01*
X65662443Y-37554230D01*
X65672711Y-37567196D01*
X65679851Y-37584858D01*
X65691377Y-37600033D01*
X65695881Y-37624510D01*
X65698898Y-37631973D01*
X65698064Y-37636376D01*
X65699500Y-37644176D01*
X65699500Y-37677525D01*
X65699500Y-37822475D01*
X65737016Y-37962484D01*
X65738603Y-37968406D01*
X65736940Y-38038256D01*
X65697778Y-38096119D01*
X65633549Y-38123623D01*
X65618828Y-38124500D01*
X65349540Y-38124500D01*
X65282501Y-38104815D01*
X65275907Y-38100270D01*
X65237886Y-38072209D01*
X65237880Y-38072206D01*
X65109700Y-38027353D01*
X65079270Y-38024500D01*
X65079266Y-38024500D01*
X64420734Y-38024500D01*
X64420730Y-38024500D01*
X64390300Y-38027353D01*
X64390298Y-38027353D01*
X64262119Y-38072206D01*
X64262117Y-38072207D01*
X64152850Y-38152850D01*
X64099770Y-38224771D01*
X64044122Y-38267022D01*
X63974466Y-38272480D01*
X63912917Y-38239412D01*
X63900230Y-38224771D01*
X63870645Y-38184685D01*
X63847150Y-38152850D01*
X63737882Y-38072207D01*
X63737880Y-38072206D01*
X63609700Y-38027353D01*
X63579270Y-38024500D01*
X63579266Y-38024500D01*
X62920734Y-38024500D01*
X62920730Y-38024500D01*
X62890300Y-38027353D01*
X62890298Y-38027353D01*
X62762119Y-38072206D01*
X62762113Y-38072209D01*
X62724093Y-38100270D01*
X62658464Y-38124241D01*
X62650460Y-38124500D01*
X62381172Y-38124500D01*
X62314133Y-38104815D01*
X62268378Y-38052011D01*
X62258434Y-37982853D01*
X62261397Y-37968406D01*
X62262984Y-37962484D01*
X62300500Y-37822475D01*
X62300500Y-37677525D01*
X62300500Y-37644176D01*
X62320185Y-37577137D01*
X62327288Y-37567196D01*
X62337553Y-37554232D01*
X62347150Y-37547150D01*
X62401814Y-37473082D01*
X62403098Y-37471461D01*
X62429974Y-37452458D01*
X62456186Y-37432557D01*
X62458364Y-37432386D01*
X62460148Y-37431125D01*
X62493033Y-37429669D01*
X62525842Y-37427098D01*
X62527766Y-37428131D01*
X62529950Y-37428035D01*
X62558411Y-37444595D01*
X62587392Y-37460165D01*
X62589652Y-37462773D01*
X62590341Y-37463174D01*
X62590832Y-37464135D01*
X62600080Y-37474807D01*
X62653207Y-37546792D01*
X62762354Y-37627346D01*
X62890397Y-37672149D01*
X62920778Y-37674998D01*
X62920806Y-37674999D01*
X63500000Y-37674999D01*
X63579196Y-37674999D01*
X63609606Y-37672148D01*
X63737645Y-37627346D01*
X63846793Y-37546791D01*
X63900230Y-37474387D01*
X63955877Y-37432136D01*
X64025533Y-37426677D01*
X64087083Y-37459744D01*
X64099770Y-37474387D01*
X64153206Y-37546791D01*
X64262354Y-37627346D01*
X64390397Y-37672149D01*
X64420778Y-37674998D01*
X64420806Y-37674999D01*
X64499999Y-37674998D01*
X64500000Y-37674998D01*
X64500000Y-37275000D01*
X63500000Y-37275000D01*
X63500000Y-37674999D01*
X62920806Y-37674999D01*
X62999999Y-37674998D01*
X63000000Y-37674998D01*
X63000000Y-36375000D01*
X63500000Y-36375000D01*
X63500000Y-36775000D01*
X64500000Y-36775000D01*
X64500000Y-36375000D01*
X64499999Y-36374999D01*
X64420804Y-36375000D01*
X64390393Y-36377851D01*
X64262354Y-36422653D01*
X64153207Y-36503207D01*
X64099770Y-36575613D01*
X64044122Y-36617864D01*
X63974466Y-36623322D01*
X63912917Y-36590254D01*
X63900230Y-36575613D01*
X63846792Y-36503207D01*
X63737645Y-36422653D01*
X63609602Y-36377850D01*
X63579207Y-36375000D01*
X63500000Y-36375000D01*
X63000000Y-36375000D01*
X62999999Y-36374999D01*
X62920804Y-36375000D01*
X62890393Y-36377851D01*
X62762354Y-36422653D01*
X62653207Y-36503208D01*
X62600079Y-36575193D01*
X62544432Y-36617443D01*
X62474775Y-36622900D01*
X62413226Y-36589833D01*
X62400540Y-36575191D01*
X62347151Y-36502851D01*
X62337750Y-36495913D01*
X62237882Y-36422207D01*
X62237880Y-36422206D01*
X62109700Y-36377353D01*
X62079270Y-36374500D01*
X62079266Y-36374500D01*
X61420734Y-36374500D01*
X61420730Y-36374500D01*
X61390300Y-36377353D01*
X61390298Y-36377353D01*
X61262119Y-36422206D01*
X61262117Y-36422207D01*
X61152850Y-36502850D01*
X61072207Y-36612117D01*
X61072206Y-36612119D01*
X61027353Y-36740298D01*
X61027353Y-36740300D01*
X61024500Y-36770730D01*
X61024500Y-37279269D01*
X61027353Y-37309699D01*
X61027353Y-37309701D01*
X61072206Y-37437880D01*
X61072207Y-37437882D01*
X61099459Y-37474808D01*
X61152851Y-37547151D01*
X61159421Y-37553721D01*
X61157590Y-37555551D01*
X61191377Y-37600033D01*
X61199500Y-37644176D01*
X61199500Y-37677525D01*
X61199500Y-37822475D01*
X61225251Y-37918578D01*
X61237017Y-37962489D01*
X61240128Y-37969999D01*
X61237123Y-37971243D01*
X61250000Y-38024380D01*
X61227131Y-38090401D01*
X61199776Y-38118217D01*
X61152850Y-38152850D01*
X61072207Y-38262117D01*
X61072206Y-38262119D01*
X61027353Y-38390298D01*
X61027353Y-38390300D01*
X61024500Y-38420730D01*
X61024500Y-38929269D01*
X61027353Y-38959699D01*
X61027353Y-38959701D01*
X61069430Y-39079947D01*
X61072207Y-39087882D01*
X61152850Y-39197150D01*
X61199134Y-39231309D01*
X61241384Y-39286954D01*
X61249500Y-39331078D01*
X61249500Y-41616614D01*
X61229815Y-41683653D01*
X61177011Y-41729408D01*
X61107853Y-41739352D01*
X61044297Y-41710327D01*
X61037819Y-41704295D01*
X60953017Y-41619493D01*
X60953011Y-41619488D01*
X60827488Y-41547017D01*
X60827489Y-41547017D01*
X60792027Y-41537515D01*
X60687475Y-41509500D01*
X60542525Y-41509500D01*
X60437973Y-41537515D01*
X60402511Y-41547017D01*
X60276988Y-41619488D01*
X60276982Y-41619493D01*
X60174493Y-41721982D01*
X60174488Y-41721988D01*
X60102017Y-41847511D01*
X60102016Y-41847515D01*
X60064500Y-41987525D01*
X58248527Y-41987525D01*
X58262984Y-41962485D01*
X58300500Y-41822475D01*
X58300500Y-41677525D01*
X58262984Y-41537515D01*
X58220666Y-41464219D01*
X58204194Y-41396321D01*
X58227046Y-41330294D01*
X58281967Y-41287103D01*
X58351520Y-41280461D01*
X58360110Y-41282436D01*
X58427525Y-41300500D01*
X58427529Y-41300500D01*
X58572472Y-41300500D01*
X58572475Y-41300500D01*
X58712485Y-41262984D01*
X58838015Y-41190509D01*
X58940509Y-41088015D01*
X59012984Y-40962485D01*
X59050500Y-40822475D01*
X59050500Y-40677525D01*
X59012984Y-40537515D01*
X59008982Y-40530584D01*
X58940511Y-40411988D01*
X58940506Y-40411982D01*
X58838017Y-40309493D01*
X58838011Y-40309488D01*
X58712488Y-40237017D01*
X58712483Y-40237015D01*
X58623865Y-40213269D01*
X58568279Y-40181176D01*
X58224783Y-39837680D01*
X58191298Y-39776357D01*
X58196282Y-39706665D01*
X58224779Y-39662323D01*
X58568281Y-39318820D01*
X58623864Y-39286729D01*
X58712485Y-39262984D01*
X58838015Y-39190509D01*
X58940509Y-39088015D01*
X59012984Y-38962485D01*
X59050500Y-38822475D01*
X59050500Y-38677525D01*
X59012984Y-38537515D01*
X58998244Y-38511985D01*
X58940511Y-38411988D01*
X58940506Y-38411982D01*
X58838016Y-38309492D01*
X58838008Y-38309486D01*
X58828264Y-38303860D01*
X58780050Y-38253292D01*
X58766829Y-38184685D01*
X58770490Y-38164388D01*
X58797517Y-38063526D01*
X58797517Y-37918576D01*
X58760001Y-37778566D01*
X58751887Y-37764513D01*
X58687528Y-37653039D01*
X58687523Y-37653033D01*
X58585034Y-37550544D01*
X58585032Y-37550542D01*
X58522627Y-37514512D01*
X58474412Y-37463946D01*
X58461189Y-37395339D01*
X58487157Y-37330474D01*
X58496935Y-37319456D01*
X58671480Y-37144913D01*
X58724207Y-37053588D01*
X58751500Y-36951727D01*
X58751500Y-36846273D01*
X58751500Y-35437273D01*
X58751500Y-35436817D01*
X58750499Y-35421543D01*
X58750499Y-35160143D01*
X58750499Y-35160136D01*
X58750497Y-35160117D01*
X58747586Y-35135012D01*
X58747585Y-35135010D01*
X58747585Y-35135009D01*
X58702206Y-35032235D01*
X58699475Y-35029504D01*
X58696095Y-35023314D01*
X58695712Y-35022755D01*
X58695768Y-35022716D01*
X58665990Y-34968181D01*
X58670974Y-34898489D01*
X58679766Y-34879828D01*
X58717185Y-34815019D01*
X58723206Y-34804590D01*
X58724693Y-34799042D01*
X58750500Y-34702727D01*
X58750500Y-34597273D01*
X58750500Y-34367525D01*
X60064500Y-34367525D01*
X60064500Y-34512475D01*
X60101463Y-34650421D01*
X60102017Y-34652488D01*
X60174488Y-34778011D01*
X60174490Y-34778013D01*
X60174491Y-34778015D01*
X60276985Y-34880509D01*
X60276986Y-34880510D01*
X60276988Y-34880511D01*
X60402511Y-34952982D01*
X60402512Y-34952982D01*
X60402515Y-34952984D01*
X60542525Y-34990500D01*
X60542528Y-34990500D01*
X60687472Y-34990500D01*
X60687475Y-34990500D01*
X60827485Y-34952984D01*
X60953015Y-34880509D01*
X61055509Y-34778015D01*
X61127984Y-34652485D01*
X61165500Y-34512475D01*
X61165500Y-34367525D01*
X61127984Y-34227515D01*
X61123892Y-34220428D01*
X61055511Y-34101988D01*
X61055506Y-34101982D01*
X60953017Y-33999493D01*
X60953011Y-33999488D01*
X60827488Y-33927017D01*
X60827489Y-33927017D01*
X60804690Y-33920908D01*
X60687475Y-33889500D01*
X60542525Y-33889500D01*
X60425310Y-33920908D01*
X60402511Y-33927017D01*
X60276988Y-33999488D01*
X60276982Y-33999493D01*
X60174493Y-34101982D01*
X60174488Y-34101988D01*
X60102017Y-34227511D01*
X60102016Y-34227515D01*
X60064500Y-34367525D01*
X58750500Y-34367525D01*
X58750500Y-33957273D01*
X58750500Y-33862627D01*
X58770185Y-33795588D01*
X58812501Y-33755239D01*
X58838015Y-33740509D01*
X58940509Y-33638015D01*
X59012984Y-33512485D01*
X59050500Y-33372475D01*
X59050500Y-33227525D01*
X59012984Y-33087515D01*
X59010377Y-33083000D01*
X58940511Y-32961988D01*
X58940506Y-32961982D01*
X58838017Y-32859493D01*
X58838011Y-32859488D01*
X58712488Y-32787017D01*
X58712489Y-32787017D01*
X58684394Y-32779489D01*
X58572475Y-32749500D01*
X58440918Y-32749500D01*
X58373879Y-32729815D01*
X58328124Y-32677011D01*
X58318180Y-32607853D01*
X58333531Y-32563500D01*
X58362982Y-32512488D01*
X58362981Y-32512488D01*
X58362984Y-32512485D01*
X58400500Y-32372475D01*
X58400500Y-32227525D01*
X58362984Y-32087515D01*
X58333242Y-32036001D01*
X58290511Y-31961988D01*
X58290506Y-31961982D01*
X58188017Y-31859493D01*
X58188011Y-31859488D01*
X58062488Y-31787017D01*
X58062489Y-31787017D01*
X58051006Y-31783940D01*
X57922475Y-31749500D01*
X57922472Y-31749500D01*
X57921690Y-31749397D01*
X57921078Y-31749126D01*
X57914624Y-31747397D01*
X57914893Y-31746390D01*
X57857794Y-31721129D01*
X57819324Y-31662804D01*
X57818494Y-31592939D01*
X57821696Y-31583124D01*
X57868597Y-31457376D01*
X57868598Y-31457372D01*
X57874999Y-31397844D01*
X57875000Y-31397827D01*
X57875000Y-30950000D01*
X57300000Y-30950000D01*
X57300000Y-31850000D01*
X57316889Y-31866889D01*
X57326410Y-31869685D01*
X57372165Y-31922489D01*
X57382109Y-31991647D01*
X57366758Y-32035999D01*
X57337016Y-32087515D01*
X57321743Y-32144515D01*
X57299499Y-32227528D01*
X57298439Y-32235585D01*
X57296609Y-32235344D01*
X57279815Y-32292539D01*
X57227011Y-32338294D01*
X57175500Y-32349500D01*
X57127525Y-32349500D01*
X56998993Y-32383940D01*
X56987511Y-32387017D01*
X56861988Y-32459488D01*
X56861982Y-32459493D01*
X56759493Y-32561982D01*
X56759488Y-32561988D01*
X56687017Y-32687511D01*
X56687016Y-32687515D01*
X56649500Y-32827525D01*
X56649500Y-32972475D01*
X56683593Y-33099709D01*
X56687017Y-33112488D01*
X56762989Y-33244074D01*
X56779462Y-33311974D01*
X56756610Y-33378001D01*
X56701689Y-33421191D01*
X56688161Y-33425723D01*
X56680129Y-33427908D01*
X56577521Y-33473213D01*
X56551433Y-33499300D01*
X56551433Y-33499301D01*
X56868385Y-33816253D01*
X56872723Y-33824198D01*
X56879972Y-33829625D01*
X56889206Y-33854384D01*
X56901870Y-33877576D01*
X56901224Y-33886606D01*
X56904388Y-33895090D01*
X56898771Y-33920908D01*
X56896886Y-33947268D01*
X56891066Y-33956323D01*
X56889535Y-33963362D01*
X56868384Y-33991616D01*
X56849999Y-34009999D01*
X56868384Y-34028384D01*
X56901869Y-34089707D01*
X56896885Y-34159399D01*
X56868384Y-34203746D01*
X56551433Y-34520697D01*
X56551433Y-34520698D01*
X56577520Y-34546785D01*
X56577525Y-34546788D01*
X56680123Y-34592089D01*
X56705206Y-34594999D01*
X56877725Y-34594999D01*
X56909080Y-34604205D01*
X56940759Y-34612215D01*
X56942424Y-34613995D01*
X56944765Y-34614683D01*
X56966164Y-34639379D01*
X56988484Y-34663244D01*
X56988922Y-34665643D01*
X56990520Y-34667487D01*
X56995171Y-34699837D01*
X57001045Y-34731976D01*
X57000176Y-34734647D01*
X57000464Y-34736645D01*
X56992394Y-34766193D01*
X56989244Y-34773846D01*
X56976793Y-34795412D01*
X56970123Y-34820304D01*
X56967082Y-34827694D01*
X56950018Y-34848967D01*
X56935822Y-34872256D01*
X56928474Y-34875825D01*
X56923364Y-34882196D01*
X56897507Y-34890866D01*
X56872974Y-34902784D01*
X56858325Y-34904006D01*
X56857120Y-34904411D01*
X56856216Y-34904182D01*
X56852415Y-34904500D01*
X56705142Y-34904500D01*
X56705119Y-34904502D01*
X56680011Y-34907414D01*
X56680008Y-34907415D01*
X56577235Y-34952793D01*
X56497794Y-35032234D01*
X56452415Y-35135006D01*
X56452415Y-35135008D01*
X56449500Y-35160131D01*
X56449500Y-36032745D01*
X56429815Y-36099784D01*
X56413181Y-36120426D01*
X56145426Y-36388181D01*
X56084103Y-36421666D01*
X56057745Y-36424500D01*
X55822510Y-36424500D01*
X55755471Y-36404815D01*
X55709716Y-36352011D01*
X55699772Y-36282853D01*
X55728797Y-36219297D01*
X55779175Y-36184319D01*
X55806886Y-36173982D01*
X55880226Y-36146628D01*
X55989687Y-36064687D01*
X56071628Y-35955226D01*
X56119412Y-35827114D01*
X56123329Y-35790683D01*
X56125499Y-35770501D01*
X56125499Y-35770494D01*
X56125500Y-35770485D01*
X56125499Y-35229516D01*
X56119412Y-35172886D01*
X56118711Y-35171007D01*
X56099814Y-35120342D01*
X56071628Y-35044774D01*
X55989687Y-34935313D01*
X55880226Y-34853372D01*
X55868416Y-34848967D01*
X55846826Y-34840914D01*
X55790893Y-34799042D01*
X55766477Y-34733577D01*
X55781330Y-34665304D01*
X55830736Y-34615900D01*
X55846830Y-34608550D01*
X55879983Y-34596185D01*
X55879984Y-34596184D01*
X55989329Y-34514329D01*
X56071184Y-34404984D01*
X56071185Y-34404983D01*
X56118916Y-34277010D01*
X56124999Y-34220428D01*
X56125000Y-34220427D01*
X56125000Y-34200000D01*
X54675001Y-34200000D01*
X54675001Y-34220439D01*
X54681081Y-34277007D01*
X54728813Y-34404981D01*
X54728815Y-34404984D01*
X54810670Y-34514329D01*
X54920015Y-34596184D01*
X54920020Y-34596187D01*
X54953170Y-34608551D01*
X55009104Y-34650421D01*
X55033522Y-34715885D01*
X55018671Y-34784158D01*
X54969266Y-34833564D01*
X54953174Y-34840914D01*
X54919772Y-34853372D01*
X54810313Y-34935313D01*
X54728373Y-35044771D01*
X54728372Y-35044774D01*
X54685346Y-35160131D01*
X54680587Y-35172889D01*
X54674500Y-35229498D01*
X54674500Y-35307744D01*
X54665856Y-35337179D01*
X54659334Y-35367168D01*
X54655577Y-35372186D01*
X54654815Y-35374783D01*
X54638184Y-35395423D01*
X54620429Y-35413179D01*
X54559107Y-35446665D01*
X54532745Y-35449500D01*
X54527525Y-35449500D01*
X54398993Y-35483940D01*
X54387511Y-35487017D01*
X54261988Y-35559488D01*
X54261982Y-35559493D01*
X54159493Y-35661982D01*
X54159488Y-35661988D01*
X54087017Y-35787511D01*
X54087016Y-35787515D01*
X54049500Y-35927525D01*
X54049500Y-36072475D01*
X54087016Y-36212485D01*
X54088603Y-36218406D01*
X54086940Y-36288256D01*
X54047778Y-36346119D01*
X53983549Y-36373623D01*
X53968828Y-36374500D01*
X53116739Y-36374500D01*
X53048608Y-36384426D01*
X52943514Y-36435803D01*
X52860803Y-36518514D01*
X52809426Y-36623608D01*
X52799500Y-36691739D01*
X52799500Y-36958260D01*
X52809426Y-37026392D01*
X52809426Y-37026393D01*
X52843230Y-37095541D01*
X52854988Y-37164414D01*
X52843230Y-37204459D01*
X52809426Y-37273606D01*
X52809426Y-37273607D01*
X52799500Y-37341739D01*
X52799500Y-37608260D01*
X52809426Y-37676392D01*
X52809426Y-37676393D01*
X52843230Y-37745541D01*
X52854988Y-37814414D01*
X52843230Y-37854459D01*
X52809426Y-37923606D01*
X52809426Y-37923607D01*
X52799500Y-37991739D01*
X52799500Y-38258260D01*
X52809426Y-38326392D01*
X52809426Y-38326393D01*
X52843230Y-38395541D01*
X52854988Y-38464414D01*
X52843230Y-38504459D01*
X52809426Y-38573606D01*
X52809426Y-38573607D01*
X52799500Y-38641739D01*
X52799500Y-38908260D01*
X52809426Y-38976392D01*
X52809426Y-38976393D01*
X52843230Y-39045541D01*
X52854988Y-39114414D01*
X52843230Y-39154459D01*
X52809426Y-39223606D01*
X52809426Y-39223607D01*
X52799500Y-39291739D01*
X52799500Y-39558260D01*
X52809426Y-39626392D01*
X52809426Y-39626393D01*
X52843230Y-39695541D01*
X52854988Y-39764414D01*
X52843230Y-39804459D01*
X52809426Y-39873606D01*
X52809426Y-39873607D01*
X52799500Y-39941739D01*
X52799500Y-39941740D01*
X52799500Y-40208260D01*
X52800230Y-40213269D01*
X52801593Y-40222623D01*
X52791778Y-40291800D01*
X52746122Y-40344689D01*
X52740889Y-40347886D01*
X52712095Y-40364510D01*
X52712092Y-40364512D01*
X52139513Y-40937091D01*
X52139511Y-40937094D01*
X52080200Y-41039821D01*
X52080199Y-41039824D01*
X52073712Y-41064032D01*
X52073713Y-41064033D01*
X52049500Y-41154399D01*
X52049500Y-42896063D01*
X52032887Y-42958062D01*
X51987019Y-43037508D01*
X51987016Y-43037513D01*
X51978075Y-43070883D01*
X51949500Y-43177525D01*
X51949500Y-43322475D01*
X51987016Y-43462485D01*
X52032887Y-43541936D01*
X52037037Y-43557423D01*
X52044477Y-43569000D01*
X52049500Y-43603935D01*
X52049500Y-43744049D01*
X52029815Y-43811088D01*
X51999810Y-43843316D01*
X51924399Y-43899767D01*
X51858938Y-43924184D01*
X51850091Y-43924500D01*
X51667288Y-43924500D01*
X51600249Y-43904815D01*
X51593655Y-43900270D01*
X51487886Y-43822209D01*
X51487880Y-43822206D01*
X51359700Y-43777353D01*
X51329270Y-43774500D01*
X51329266Y-43774500D01*
X50670734Y-43774500D01*
X50670730Y-43774500D01*
X50640301Y-43777353D01*
X50615454Y-43786048D01*
X50545675Y-43789609D01*
X50485048Y-43754880D01*
X50452821Y-43692887D01*
X50450500Y-43669006D01*
X50450500Y-41160993D01*
X50450500Y-41160991D01*
X50419799Y-41046414D01*
X50415995Y-41039826D01*
X50415994Y-41039821D01*
X50415993Y-41039822D01*
X50360490Y-40943686D01*
X48864328Y-39447525D01*
X49904500Y-39447525D01*
X49904500Y-39592475D01*
X49937138Y-39714280D01*
X49942017Y-39732488D01*
X50014488Y-39858011D01*
X50014490Y-39858013D01*
X50014491Y-39858015D01*
X50116985Y-39960509D01*
X50116986Y-39960510D01*
X50116988Y-39960511D01*
X50242511Y-40032982D01*
X50242512Y-40032982D01*
X50242515Y-40032984D01*
X50382525Y-40070500D01*
X50382528Y-40070500D01*
X50527472Y-40070500D01*
X50527475Y-40070500D01*
X50667485Y-40032984D01*
X50793015Y-39960509D01*
X50895509Y-39858015D01*
X50967984Y-39732485D01*
X51005500Y-39592475D01*
X51005500Y-39447525D01*
X50967984Y-39307515D01*
X50959202Y-39292305D01*
X50895511Y-39181988D01*
X50895506Y-39181982D01*
X50793017Y-39079493D01*
X50793011Y-39079488D01*
X50667488Y-39007017D01*
X50667489Y-39007017D01*
X50656006Y-39003940D01*
X50527475Y-38969500D01*
X50382525Y-38969500D01*
X50253993Y-39003940D01*
X50242511Y-39007017D01*
X50116988Y-39079488D01*
X50116982Y-39079493D01*
X50014493Y-39181982D01*
X50014488Y-39181988D01*
X49942017Y-39307511D01*
X49942016Y-39307515D01*
X49904500Y-39447525D01*
X48864328Y-39447525D01*
X48853983Y-39437180D01*
X48820499Y-39375858D01*
X48825483Y-39306166D01*
X48867355Y-39250233D01*
X48932819Y-39225816D01*
X48941665Y-39225500D01*
X49034307Y-39225500D01*
X49034309Y-39225500D01*
X49114352Y-39204052D01*
X49131268Y-39199520D01*
X49131269Y-39199519D01*
X49148887Y-39194799D01*
X49251614Y-39135489D01*
X50735489Y-37651614D01*
X50794048Y-37593055D01*
X50794060Y-37593042D01*
X51810490Y-36576614D01*
X51810490Y-36576612D01*
X51820691Y-36566412D01*
X51820694Y-36566407D01*
X52049489Y-36337614D01*
X52108799Y-36234887D01*
X52118013Y-36200499D01*
X52139500Y-36120309D01*
X52139500Y-35913935D01*
X52156112Y-35851936D01*
X52201984Y-35772485D01*
X52239500Y-35632475D01*
X52239500Y-35487525D01*
X52226388Y-35438591D01*
X52228051Y-35368743D01*
X52267213Y-35310880D01*
X52331442Y-35283376D01*
X52346163Y-35282499D01*
X52370517Y-35282499D01*
X52370518Y-35282499D01*
X52464304Y-35267646D01*
X52577342Y-35210050D01*
X52577347Y-35210045D01*
X52582671Y-35206179D01*
X52602713Y-35199028D01*
X52620617Y-35187523D01*
X52644650Y-35184067D01*
X52648478Y-35182702D01*
X52655552Y-35182500D01*
X52901334Y-35182500D01*
X52968373Y-35202185D01*
X52974957Y-35206722D01*
X52979118Y-35209793D01*
X53021845Y-35224744D01*
X53107299Y-35254646D01*
X53137730Y-35257500D01*
X53137734Y-35257500D01*
X53796270Y-35257500D01*
X53826699Y-35254646D01*
X53826701Y-35254646D01*
X53898511Y-35229518D01*
X53954882Y-35209793D01*
X54064150Y-35129150D01*
X54144793Y-35019882D01*
X54182011Y-34913519D01*
X54189646Y-34891701D01*
X54189646Y-34891699D01*
X54192500Y-34861269D01*
X54192500Y-34352730D01*
X54189646Y-34322300D01*
X54189646Y-34322298D01*
X54153273Y-34218353D01*
X54146105Y-34197867D01*
X56450000Y-34197867D01*
X56637868Y-34009999D01*
X56450000Y-33822131D01*
X56450000Y-34197867D01*
X54146105Y-34197867D01*
X54144793Y-34194118D01*
X54064150Y-34084850D01*
X53954882Y-34004207D01*
X53954880Y-34004206D01*
X53826700Y-33959353D01*
X53796270Y-33956500D01*
X53796266Y-33956500D01*
X53137734Y-33956500D01*
X53137730Y-33956500D01*
X53107300Y-33959353D01*
X53107298Y-33959353D01*
X52979119Y-34004206D01*
X52979118Y-34004207D01*
X52903541Y-34059985D01*
X52837912Y-34083955D01*
X52769742Y-34068639D01*
X52735618Y-34040746D01*
X52728148Y-34032000D01*
X51813000Y-34032000D01*
X51745961Y-34012315D01*
X51700206Y-33959511D01*
X51689000Y-33908000D01*
X51689000Y-33679571D01*
X54675000Y-33679571D01*
X54675000Y-33700000D01*
X55150000Y-33700000D01*
X55650000Y-33700000D01*
X56124999Y-33700000D01*
X56124999Y-33679566D01*
X56124998Y-33679560D01*
X56118918Y-33622992D01*
X56071186Y-33495018D01*
X56071184Y-33495015D01*
X55989329Y-33385670D01*
X55879984Y-33303815D01*
X55879983Y-33303814D01*
X55752010Y-33256083D01*
X55695428Y-33250000D01*
X55650000Y-33250000D01*
X55650000Y-33700000D01*
X55150000Y-33700000D01*
X55150000Y-33250000D01*
X55104567Y-33250000D01*
X55104558Y-33250001D01*
X55047992Y-33256081D01*
X54920018Y-33303813D01*
X54920015Y-33303815D01*
X54810670Y-33385670D01*
X54728815Y-33495015D01*
X54728814Y-33495016D01*
X54681083Y-33622989D01*
X54675000Y-33679571D01*
X51689000Y-33679571D01*
X51689000Y-33656000D01*
X51708685Y-33588961D01*
X51761489Y-33543206D01*
X51813000Y-33532000D01*
X52728148Y-33532000D01*
X52735942Y-33522874D01*
X52794448Y-33484680D01*
X52864316Y-33484180D01*
X52903867Y-33503634D01*
X52979354Y-33559346D01*
X53107397Y-33604149D01*
X53137778Y-33606998D01*
X53137806Y-33606999D01*
X53717000Y-33606999D01*
X53796196Y-33606999D01*
X53826606Y-33604148D01*
X53954645Y-33559346D01*
X54063792Y-33478792D01*
X54144346Y-33369645D01*
X54189149Y-33241604D01*
X54189149Y-33241600D01*
X54192000Y-33211206D01*
X54192000Y-33207000D01*
X53717000Y-33207000D01*
X53717000Y-33606999D01*
X53137806Y-33606999D01*
X53216999Y-33606998D01*
X53217000Y-33606998D01*
X53217000Y-32707000D01*
X53717000Y-32707000D01*
X54191999Y-32707000D01*
X54191999Y-32702803D01*
X54189148Y-32672393D01*
X54144346Y-32544354D01*
X54063792Y-32435207D01*
X53954645Y-32354653D01*
X53826602Y-32309850D01*
X53796207Y-32307000D01*
X53717000Y-32307000D01*
X53717000Y-32707000D01*
X53217000Y-32707000D01*
X53217000Y-32341070D01*
X53106292Y-32298866D01*
X53095921Y-32290985D01*
X53083424Y-32287316D01*
X53068638Y-32270252D01*
X53050662Y-32256592D01*
X53046198Y-32244355D01*
X53037669Y-32234512D01*
X53034455Y-32212165D01*
X53026718Y-32190953D01*
X53029578Y-32178245D01*
X53027725Y-32165354D01*
X53037104Y-32144814D01*
X53042063Y-32122789D01*
X53051337Y-32113646D01*
X53056749Y-32101798D01*
X53062747Y-32095354D01*
X53330578Y-31827525D01*
X54984500Y-31827525D01*
X54984500Y-31972475D01*
X55022016Y-32112485D01*
X55022017Y-32112488D01*
X55094488Y-32238011D01*
X55094490Y-32238013D01*
X55094491Y-32238015D01*
X55196985Y-32340509D01*
X55196986Y-32340510D01*
X55196988Y-32340511D01*
X55322511Y-32412982D01*
X55322512Y-32412982D01*
X55322515Y-32412984D01*
X55462525Y-32450500D01*
X55462528Y-32450500D01*
X55607472Y-32450500D01*
X55607475Y-32450500D01*
X55747485Y-32412984D01*
X55873015Y-32340509D01*
X55975509Y-32238015D01*
X56047984Y-32112485D01*
X56085500Y-31972475D01*
X56085500Y-31827525D01*
X56047984Y-31687515D01*
X56040115Y-31673886D01*
X55975511Y-31561988D01*
X55975506Y-31561982D01*
X55873017Y-31459493D01*
X55873011Y-31459488D01*
X55766241Y-31397844D01*
X56225000Y-31397844D01*
X56231401Y-31457372D01*
X56231403Y-31457379D01*
X56281645Y-31592086D01*
X56281649Y-31592093D01*
X56367809Y-31707187D01*
X56367812Y-31707190D01*
X56482906Y-31793350D01*
X56482913Y-31793354D01*
X56617620Y-31843596D01*
X56617627Y-31843598D01*
X56677155Y-31849999D01*
X56677172Y-31850000D01*
X56800000Y-31850000D01*
X56800000Y-30950000D01*
X56225000Y-30950000D01*
X56225000Y-31397844D01*
X55766241Y-31397844D01*
X55747488Y-31387017D01*
X55747489Y-31387017D01*
X55736006Y-31383940D01*
X55607475Y-31349500D01*
X55462525Y-31349500D01*
X55333993Y-31383940D01*
X55322511Y-31387017D01*
X55196988Y-31459488D01*
X55196982Y-31459493D01*
X55094493Y-31561982D01*
X55094488Y-31561988D01*
X55022017Y-31687511D01*
X55022016Y-31687515D01*
X54984500Y-31827525D01*
X53330578Y-31827525D01*
X53381489Y-31776614D01*
X53421365Y-31707546D01*
X53440799Y-31673886D01*
X53471500Y-31559309D01*
X53471500Y-30769450D01*
X53491185Y-30702411D01*
X53543989Y-30656656D01*
X53613147Y-30646712D01*
X53668386Y-30669133D01*
X53733207Y-30716229D01*
X53733209Y-30716230D01*
X53733212Y-30716232D01*
X53887555Y-30794873D01*
X54052299Y-30848402D01*
X54223389Y-30875500D01*
X54223390Y-30875500D01*
X54396610Y-30875500D01*
X54396611Y-30875500D01*
X54567701Y-30848402D01*
X54732445Y-30794873D01*
X54886788Y-30716232D01*
X55026928Y-30614414D01*
X55149414Y-30491928D01*
X55251232Y-30351788D01*
X55329873Y-30197445D01*
X55383402Y-30032701D01*
X55388240Y-30002155D01*
X56225000Y-30002155D01*
X56225000Y-30450000D01*
X56800000Y-30450000D01*
X57300000Y-30450000D01*
X57875000Y-30450000D01*
X57875000Y-30002172D01*
X57874999Y-30002155D01*
X57868598Y-29942627D01*
X57868596Y-29942620D01*
X57818354Y-29807913D01*
X57818350Y-29807906D01*
X57732190Y-29692812D01*
X57732187Y-29692809D01*
X57617093Y-29606649D01*
X57617086Y-29606645D01*
X57482379Y-29556403D01*
X57482372Y-29556401D01*
X57422844Y-29550000D01*
X57300000Y-29550000D01*
X57300000Y-30450000D01*
X56800000Y-30450000D01*
X56800000Y-29550000D01*
X56677155Y-29550000D01*
X56617627Y-29556401D01*
X56617620Y-29556403D01*
X56482913Y-29606645D01*
X56482906Y-29606649D01*
X56367812Y-29692809D01*
X56367809Y-29692812D01*
X56281649Y-29807906D01*
X56281645Y-29807913D01*
X56231403Y-29942620D01*
X56231401Y-29942627D01*
X56225000Y-30002155D01*
X55388240Y-30002155D01*
X55397670Y-29942620D01*
X55410500Y-29861611D01*
X55410500Y-29688389D01*
X55401782Y-29633347D01*
X55383402Y-29517299D01*
X55329873Y-29352555D01*
X55251232Y-29198212D01*
X55149414Y-29058072D01*
X55026928Y-28935586D01*
X54886788Y-28833768D01*
X54782339Y-28780549D01*
X54732447Y-28755128D01*
X54732446Y-28755127D01*
X54732445Y-28755127D01*
X54567701Y-28701598D01*
X54567699Y-28701597D01*
X54567698Y-28701597D01*
X54436271Y-28680781D01*
X54396611Y-28674500D01*
X54223389Y-28674500D01*
X54183728Y-28680781D01*
X54052302Y-28701597D01*
X53887552Y-28755128D01*
X53733208Y-28833770D01*
X53668385Y-28880867D01*
X53656525Y-28885098D01*
X53647011Y-28893343D01*
X53624244Y-28896616D01*
X53602579Y-28904347D01*
X53590314Y-28901495D01*
X53577853Y-28903287D01*
X53556930Y-28893732D01*
X53534525Y-28888522D01*
X53525749Y-28879492D01*
X53514297Y-28874262D01*
X53501861Y-28854912D01*
X53485830Y-28838416D01*
X53482425Y-28824668D01*
X53476523Y-28815484D01*
X53471500Y-28780549D01*
X53471500Y-28761964D01*
X53491185Y-28694925D01*
X53507815Y-28674287D01*
X53863770Y-28318331D01*
X53925091Y-28284848D01*
X53989764Y-28288082D01*
X54052299Y-28308402D01*
X54223389Y-28335500D01*
X54223390Y-28335500D01*
X54396610Y-28335500D01*
X54396611Y-28335500D01*
X54567701Y-28308402D01*
X54732445Y-28254873D01*
X54886788Y-28176232D01*
X55026928Y-28074414D01*
X55149414Y-27951928D01*
X55251232Y-27811788D01*
X55329873Y-27657445D01*
X55383402Y-27492701D01*
X55410500Y-27321611D01*
X55410500Y-27148389D01*
X55383402Y-26977299D01*
X55329873Y-26812555D01*
X55251232Y-26658212D01*
X55149414Y-26518072D01*
X55026928Y-26395586D01*
X54886788Y-26293768D01*
X54732445Y-26215127D01*
X54567701Y-26161598D01*
X54567699Y-26161597D01*
X54567698Y-26161597D01*
X54436271Y-26140781D01*
X54396611Y-26134500D01*
X54223389Y-26134500D01*
X54183728Y-26140781D01*
X54052302Y-26161597D01*
X53887552Y-26215128D01*
X53733211Y-26293768D01*
X53653256Y-26351859D01*
X53593072Y-26395586D01*
X53593070Y-26395588D01*
X53593069Y-26395588D01*
X53470588Y-26518069D01*
X53470588Y-26518070D01*
X53470586Y-26518072D01*
X53449946Y-26546481D01*
X53368768Y-26658211D01*
X53290128Y-26812552D01*
X53236597Y-26977302D01*
X53209500Y-27148389D01*
X53209500Y-27321610D01*
X53236597Y-27492698D01*
X53236598Y-27492702D01*
X53256915Y-27555232D01*
X53258910Y-27625073D01*
X53226665Y-27681230D01*
X52803048Y-28104847D01*
X52802917Y-28104979D01*
X52660511Y-28247386D01*
X52657822Y-28252042D01*
X52657821Y-28252044D01*
X52601200Y-28350113D01*
X52601199Y-28350116D01*
X52594712Y-28374324D01*
X52594713Y-28374325D01*
X52570500Y-28464691D01*
X52570500Y-28752940D01*
X52550815Y-28819979D01*
X52498011Y-28865734D01*
X52428853Y-28875678D01*
X52373615Y-28853259D01*
X52346787Y-28833767D01*
X52192447Y-28755128D01*
X52192446Y-28755127D01*
X52192445Y-28755127D01*
X52027701Y-28701598D01*
X52027699Y-28701597D01*
X52027698Y-28701597D01*
X51896271Y-28680781D01*
X51856611Y-28674500D01*
X51683389Y-28674500D01*
X51643728Y-28680781D01*
X51512302Y-28701597D01*
X51347552Y-28755128D01*
X51193208Y-28833770D01*
X51128385Y-28880867D01*
X51116525Y-28885098D01*
X51107011Y-28893343D01*
X51084244Y-28896616D01*
X51062579Y-28904347D01*
X51050314Y-28901495D01*
X51037853Y-28903287D01*
X51016930Y-28893732D01*
X50994525Y-28888522D01*
X50985749Y-28879492D01*
X50974297Y-28874262D01*
X50961861Y-28854912D01*
X50945830Y-28838416D01*
X50942425Y-28824668D01*
X50936523Y-28815484D01*
X50931500Y-28780549D01*
X50931500Y-28761964D01*
X50951185Y-28694925D01*
X50967815Y-28674287D01*
X51323770Y-28318331D01*
X51385091Y-28284848D01*
X51449764Y-28288082D01*
X51512299Y-28308402D01*
X51683389Y-28335500D01*
X51683390Y-28335500D01*
X51856610Y-28335500D01*
X51856611Y-28335500D01*
X52027701Y-28308402D01*
X52192445Y-28254873D01*
X52346788Y-28176232D01*
X52486928Y-28074414D01*
X52609414Y-27951928D01*
X52711232Y-27811788D01*
X52789873Y-27657445D01*
X52843402Y-27492701D01*
X52870500Y-27321611D01*
X52870500Y-27148389D01*
X52843402Y-26977299D01*
X52789873Y-26812555D01*
X52711232Y-26658212D01*
X52609414Y-26518072D01*
X52486928Y-26395586D01*
X52346788Y-26293768D01*
X52192445Y-26215127D01*
X52027701Y-26161598D01*
X52027699Y-26161597D01*
X52027698Y-26161597D01*
X51896271Y-26140781D01*
X51856611Y-26134500D01*
X51683389Y-26134500D01*
X51643728Y-26140781D01*
X51512302Y-26161597D01*
X51347552Y-26215128D01*
X51193211Y-26293768D01*
X51113256Y-26351859D01*
X51053072Y-26395586D01*
X51053070Y-26395588D01*
X51053069Y-26395588D01*
X50930588Y-26518069D01*
X50930588Y-26518070D01*
X50930586Y-26518072D01*
X50909946Y-26546481D01*
X50828768Y-26658211D01*
X50750128Y-26812552D01*
X50696597Y-26977302D01*
X50669500Y-27148389D01*
X50669500Y-27321610D01*
X50696597Y-27492698D01*
X50696598Y-27492702D01*
X50716915Y-27555232D01*
X50718910Y-27625073D01*
X50686665Y-27681230D01*
X50263048Y-28104847D01*
X50262917Y-28104979D01*
X50120511Y-28247386D01*
X50117822Y-28252042D01*
X50117821Y-28252044D01*
X50061200Y-28350113D01*
X50061199Y-28350116D01*
X50054712Y-28374324D01*
X50054713Y-28374325D01*
X50030500Y-28464691D01*
X50030500Y-28752940D01*
X50010815Y-28819979D01*
X49958011Y-28865734D01*
X49888853Y-28875678D01*
X49833615Y-28853259D01*
X49806787Y-28833767D01*
X49652447Y-28755128D01*
X49652446Y-28755127D01*
X49652445Y-28755127D01*
X49487701Y-28701598D01*
X49487699Y-28701597D01*
X49487698Y-28701597D01*
X49356271Y-28680781D01*
X49316611Y-28674500D01*
X49143389Y-28674500D01*
X49103728Y-28680781D01*
X48972302Y-28701597D01*
X48807552Y-28755128D01*
X48653211Y-28833768D01*
X48577850Y-28888522D01*
X48513072Y-28935586D01*
X48513070Y-28935588D01*
X48513069Y-28935588D01*
X48390588Y-29058069D01*
X48390588Y-29058070D01*
X48390586Y-29058072D01*
X48346859Y-29118256D01*
X48288768Y-29198211D01*
X48210128Y-29352552D01*
X48156597Y-29517302D01*
X48129500Y-29688389D01*
X48129500Y-29861610D01*
X48152506Y-30006870D01*
X48156598Y-30032701D01*
X48210127Y-30197445D01*
X48288768Y-30351788D01*
X48390586Y-30491928D01*
X48513072Y-30614414D01*
X48653212Y-30716232D01*
X48807555Y-30794873D01*
X48972299Y-30848402D01*
X49143389Y-30875500D01*
X49143390Y-30875500D01*
X49316610Y-30875500D01*
X49316611Y-30875500D01*
X49487701Y-30848402D01*
X49652445Y-30794873D01*
X49806788Y-30716232D01*
X49833614Y-30696741D01*
X49899419Y-30673261D01*
X49967473Y-30689086D01*
X50016169Y-30739191D01*
X50030500Y-30797059D01*
X50030500Y-31502034D01*
X50010815Y-31569073D01*
X49994181Y-31589715D01*
X49338714Y-32245181D01*
X49277391Y-32278666D01*
X49251033Y-32281500D01*
X48707482Y-32281500D01*
X48613696Y-32296354D01*
X48573170Y-32317003D01*
X48504501Y-32329898D01*
X48439761Y-32303621D01*
X48399505Y-32246514D01*
X48396513Y-32176708D01*
X48409491Y-32144515D01*
X48427984Y-32112485D01*
X48465500Y-31972475D01*
X48465500Y-31827525D01*
X48427984Y-31687515D01*
X48420115Y-31673886D01*
X48355511Y-31561988D01*
X48355506Y-31561982D01*
X48253017Y-31459493D01*
X48253011Y-31459488D01*
X48127488Y-31387017D01*
X48127489Y-31387017D01*
X48116006Y-31383940D01*
X47987475Y-31349500D01*
X47842525Y-31349500D01*
X47713993Y-31383940D01*
X47702511Y-31387017D01*
X47576988Y-31459488D01*
X47576982Y-31459493D01*
X47474493Y-31561982D01*
X47474488Y-31561988D01*
X47402017Y-31687511D01*
X47402016Y-31687515D01*
X47364500Y-31827525D01*
X47364500Y-31972475D01*
X47402016Y-32112485D01*
X47402017Y-32112487D01*
X47406931Y-32120998D01*
X47423405Y-32188897D01*
X47400554Y-32254925D01*
X47345634Y-32298117D01*
X47299549Y-32307000D01*
X47270804Y-32307000D01*
X47240393Y-32309851D01*
X47112354Y-32354653D01*
X47003207Y-32435207D01*
X46922653Y-32544354D01*
X46877850Y-32672395D01*
X46877850Y-32672399D01*
X46875000Y-32702793D01*
X46875000Y-32707000D01*
X47476000Y-32707000D01*
X47543039Y-32726685D01*
X47588794Y-32779489D01*
X47600000Y-32831000D01*
X47600000Y-33083000D01*
X47580315Y-33150039D01*
X47527511Y-33195794D01*
X47476000Y-33207000D01*
X46875000Y-33207000D01*
X46868756Y-33213244D01*
X46807433Y-33246729D01*
X46780602Y-33247858D01*
X46780602Y-33249500D01*
X46772475Y-33249500D01*
X46627525Y-33249500D01*
X46498993Y-33283940D01*
X46487511Y-33287017D01*
X46361988Y-33359488D01*
X46361982Y-33359493D01*
X46259493Y-33461982D01*
X46259488Y-33461988D01*
X46187017Y-33587511D01*
X46183541Y-33600482D01*
X46149500Y-33727525D01*
X46149500Y-33872475D01*
X46187016Y-34012485D01*
X46187017Y-34012488D01*
X46259488Y-34138011D01*
X46259490Y-34138013D01*
X46259491Y-34138015D01*
X46361985Y-34240509D01*
X46361986Y-34240510D01*
X46361988Y-34240511D01*
X46487511Y-34312982D01*
X46487512Y-34312982D01*
X46487515Y-34312984D01*
X46627525Y-34350500D01*
X46627528Y-34350500D01*
X46750500Y-34350500D01*
X46817539Y-34370185D01*
X46863294Y-34422989D01*
X46874500Y-34474500D01*
X46874500Y-34861269D01*
X46877353Y-34891699D01*
X46877353Y-34891701D01*
X46922206Y-35019880D01*
X46922207Y-35019882D01*
X47002850Y-35129150D01*
X47112118Y-35209793D01*
X47154845Y-35224744D01*
X47240299Y-35254646D01*
X47270730Y-35257500D01*
X47270734Y-35257500D01*
X47929270Y-35257500D01*
X47959699Y-35254646D01*
X47959701Y-35254646D01*
X48031511Y-35229518D01*
X48087882Y-35209793D01*
X48092034Y-35206728D01*
X48157662Y-35182759D01*
X48165666Y-35182500D01*
X48422448Y-35182500D01*
X48489487Y-35202185D01*
X48495329Y-35206179D01*
X48500653Y-35210046D01*
X48500655Y-35210047D01*
X48500658Y-35210050D01*
X48613694Y-35267645D01*
X48613698Y-35267647D01*
X48707474Y-35282499D01*
X48707475Y-35282499D01*
X48707481Y-35282500D01*
X48731835Y-35282499D01*
X48798872Y-35302181D01*
X48844629Y-35354984D01*
X48854574Y-35424142D01*
X48851611Y-35438591D01*
X48838500Y-35487523D01*
X48838500Y-35487525D01*
X48838500Y-35632475D01*
X48876016Y-35772485D01*
X48921887Y-35851936D01*
X48938500Y-35913935D01*
X48938500Y-37123035D01*
X48918815Y-37190074D01*
X48902181Y-37210716D01*
X48474716Y-37638181D01*
X48447788Y-37652884D01*
X48421970Y-37669477D01*
X48415769Y-37670368D01*
X48413393Y-37671666D01*
X48387035Y-37674500D01*
X48324500Y-37674500D01*
X48257461Y-37654815D01*
X48211706Y-37602011D01*
X48200500Y-37550500D01*
X48200500Y-37341739D01*
X48191398Y-37279269D01*
X48190573Y-37273607D01*
X48156768Y-37204458D01*
X48145010Y-37135587D01*
X48156769Y-37095540D01*
X48156935Y-37095201D01*
X48190573Y-37026393D01*
X48200500Y-36958260D01*
X48200500Y-36691740D01*
X48190573Y-36623607D01*
X48139198Y-36518517D01*
X48139196Y-36518515D01*
X48139196Y-36518514D01*
X48056485Y-36435803D01*
X47951391Y-36384426D01*
X47883261Y-36374500D01*
X47883260Y-36374500D01*
X47059309Y-36374500D01*
X45631440Y-36374500D01*
X45564401Y-36354815D01*
X45518646Y-36302011D01*
X45516126Y-36295004D01*
X45516092Y-36295019D01*
X45512982Y-36287511D01*
X45440511Y-36161988D01*
X45440506Y-36161982D01*
X45338017Y-36059493D01*
X45338011Y-36059488D01*
X45212488Y-35987017D01*
X45212489Y-35987017D01*
X45201006Y-35983940D01*
X45072475Y-35949500D01*
X44927525Y-35949500D01*
X44798993Y-35983940D01*
X44787511Y-35987017D01*
X44661988Y-36059488D01*
X44661982Y-36059493D01*
X44559493Y-36161982D01*
X44559488Y-36161988D01*
X44487017Y-36287511D01*
X44487016Y-36287515D01*
X44449500Y-36427525D01*
X44449500Y-36427527D01*
X44449500Y-36572474D01*
X44450561Y-36580532D01*
X44447326Y-36580957D01*
X44446030Y-36635566D01*
X44406870Y-36693431D01*
X44360010Y-36717590D01*
X44306580Y-36731907D01*
X44287511Y-36737017D01*
X44161988Y-36809488D01*
X44161982Y-36809493D01*
X44059493Y-36911982D01*
X44059488Y-36911988D01*
X43987017Y-37037511D01*
X43987016Y-37037515D01*
X43949500Y-37177525D01*
X43949500Y-37322475D01*
X43987016Y-37462485D01*
X43987017Y-37462488D01*
X44002035Y-37488500D01*
X44018508Y-37556401D01*
X43995655Y-37622427D01*
X43940734Y-37665618D01*
X43894648Y-37674500D01*
X41065691Y-37674500D01*
X40980701Y-37697273D01*
X40980700Y-37697273D01*
X40951114Y-37705199D01*
X40848386Y-37764511D01*
X40848383Y-37764513D01*
X39883764Y-38729133D01*
X39882133Y-38727502D01*
X39835277Y-38761697D01*
X39765530Y-38765832D01*
X39704619Y-38731603D01*
X39673588Y-38677090D01*
X39662984Y-38637515D01*
X39605246Y-38537511D01*
X39590511Y-38511988D01*
X39590506Y-38511982D01*
X39488017Y-38409493D01*
X39488011Y-38409488D01*
X39362488Y-38337017D01*
X39362489Y-38337017D01*
X39351006Y-38333940D01*
X39222475Y-38299500D01*
X39077525Y-38299500D01*
X38948993Y-38333940D01*
X38937511Y-38337017D01*
X38811988Y-38409488D01*
X38811982Y-38409493D01*
X38709493Y-38511982D01*
X38709488Y-38511988D01*
X38637017Y-38637511D01*
X38637016Y-38637515D01*
X38599500Y-38777525D01*
X38599500Y-38777527D01*
X38599500Y-39105823D01*
X38579815Y-39172862D01*
X38577367Y-39176528D01*
X38565658Y-39193396D01*
X38552850Y-39202850D01*
X38472207Y-39312118D01*
X38460974Y-39344217D01*
X38451367Y-39358060D01*
X38436755Y-39369838D01*
X38425818Y-39385087D01*
X38410118Y-39391309D01*
X38396970Y-39401909D01*
X38378310Y-39403917D01*
X38360865Y-39410833D01*
X38344292Y-39407580D01*
X38327502Y-39409388D01*
X38310720Y-39400990D01*
X38292304Y-39397376D01*
X38280119Y-39385678D01*
X38265018Y-39378122D01*
X38255439Y-39361984D01*
X38241902Y-39348988D01*
X38237168Y-39331201D01*
X38229356Y-39318039D01*
X38229864Y-39303754D01*
X38225500Y-39287355D01*
X38225500Y-39127527D01*
X38225500Y-39127525D01*
X38187984Y-38987515D01*
X38173533Y-38962485D01*
X38115510Y-38861985D01*
X37911819Y-38658294D01*
X37878334Y-38596971D01*
X37875500Y-38570613D01*
X37875500Y-38420730D01*
X37872646Y-38390300D01*
X37872646Y-38390298D01*
X37827793Y-38262119D01*
X37827792Y-38262117D01*
X37747150Y-38152850D01*
X37700221Y-38118215D01*
X37657972Y-38062569D01*
X37652513Y-37992912D01*
X37661102Y-37970497D01*
X37659875Y-37969989D01*
X37662978Y-37962493D01*
X37662984Y-37962485D01*
X37700500Y-37822475D01*
X37700500Y-37677525D01*
X37700500Y-37644176D01*
X37720185Y-37577137D01*
X37741383Y-37554525D01*
X37740579Y-37553721D01*
X37747146Y-37547152D01*
X37747150Y-37547150D01*
X37827793Y-37437882D01*
X37850219Y-37373790D01*
X37872646Y-37309701D01*
X37872646Y-37309699D01*
X37875500Y-37279269D01*
X37875500Y-36770730D01*
X37872646Y-36740300D01*
X37872646Y-36740298D01*
X37835998Y-36635566D01*
X37827793Y-36612118D01*
X37747150Y-36502850D01*
X37637882Y-36422207D01*
X37637880Y-36422206D01*
X37509700Y-36377353D01*
X37479270Y-36374500D01*
X37479266Y-36374500D01*
X36820734Y-36374500D01*
X36820730Y-36374500D01*
X36790300Y-36377353D01*
X36790298Y-36377353D01*
X36662119Y-36422206D01*
X36662117Y-36422207D01*
X36552850Y-36502850D01*
X36499459Y-36575192D01*
X36443811Y-36617443D01*
X36374155Y-36622901D01*
X36312606Y-36589833D01*
X36299919Y-36575192D01*
X36246792Y-36503207D01*
X36137645Y-36422653D01*
X36009602Y-36377850D01*
X35979207Y-36375000D01*
X35900000Y-36375000D01*
X35900000Y-37674999D01*
X35979196Y-37674999D01*
X36009606Y-37672148D01*
X36137645Y-37627346D01*
X36246793Y-37546791D01*
X36299919Y-37474808D01*
X36319992Y-37459566D01*
X36337327Y-37441264D01*
X36347347Y-37438797D01*
X36355566Y-37432557D01*
X36380694Y-37430587D01*
X36405171Y-37424562D01*
X36414934Y-37427904D01*
X36425222Y-37427098D01*
X36447426Y-37439027D01*
X36471275Y-37447191D01*
X36481777Y-37457481D01*
X36486772Y-37460165D01*
X36496900Y-37471461D01*
X36498212Y-37473118D01*
X36552850Y-37547150D01*
X36562443Y-37554230D01*
X36572711Y-37567196D01*
X36579851Y-37584858D01*
X36591377Y-37600033D01*
X36595881Y-37624510D01*
X36598898Y-37631973D01*
X36598064Y-37636376D01*
X36599500Y-37644176D01*
X36599500Y-37677525D01*
X36599500Y-37822475D01*
X36637016Y-37962484D01*
X36638603Y-37968406D01*
X36636940Y-38038256D01*
X36597778Y-38096119D01*
X36533549Y-38123623D01*
X36518828Y-38124500D01*
X36249540Y-38124500D01*
X36182501Y-38104815D01*
X36175907Y-38100270D01*
X36137886Y-38072209D01*
X36137880Y-38072206D01*
X36009700Y-38027353D01*
X35979270Y-38024500D01*
X35979266Y-38024500D01*
X35320734Y-38024500D01*
X35320730Y-38024500D01*
X35290300Y-38027353D01*
X35290298Y-38027353D01*
X35162119Y-38072206D01*
X35162117Y-38072207D01*
X35052850Y-38152850D01*
X34999770Y-38224771D01*
X34944122Y-38267022D01*
X34874466Y-38272480D01*
X34812917Y-38239412D01*
X34800230Y-38224771D01*
X34770645Y-38184685D01*
X34747150Y-38152850D01*
X34637882Y-38072207D01*
X34637880Y-38072206D01*
X34509700Y-38027353D01*
X34479270Y-38024500D01*
X34479266Y-38024500D01*
X33820734Y-38024500D01*
X33820730Y-38024500D01*
X33790300Y-38027353D01*
X33790298Y-38027353D01*
X33662119Y-38072206D01*
X33662113Y-38072209D01*
X33624093Y-38100270D01*
X33558464Y-38124241D01*
X33550460Y-38124500D01*
X33281172Y-38124500D01*
X33214133Y-38104815D01*
X33168378Y-38052011D01*
X33158434Y-37982853D01*
X33161397Y-37968406D01*
X33162984Y-37962484D01*
X33200500Y-37822475D01*
X33200500Y-37677525D01*
X33200500Y-37644176D01*
X33220185Y-37577137D01*
X33227288Y-37567196D01*
X33237553Y-37554232D01*
X33247150Y-37547150D01*
X33301814Y-37473082D01*
X33303098Y-37471461D01*
X33329974Y-37452458D01*
X33356186Y-37432557D01*
X33358364Y-37432386D01*
X33360148Y-37431125D01*
X33393033Y-37429669D01*
X33425842Y-37427098D01*
X33427766Y-37428131D01*
X33429950Y-37428035D01*
X33458411Y-37444595D01*
X33487392Y-37460165D01*
X33489652Y-37462773D01*
X33490341Y-37463174D01*
X33490832Y-37464135D01*
X33500080Y-37474807D01*
X33553207Y-37546792D01*
X33662354Y-37627346D01*
X33790397Y-37672149D01*
X33820778Y-37674998D01*
X33820806Y-37674999D01*
X34400000Y-37674999D01*
X34479196Y-37674999D01*
X34509606Y-37672148D01*
X34637645Y-37627346D01*
X34746793Y-37546791D01*
X34800230Y-37474387D01*
X34855877Y-37432136D01*
X34925533Y-37426677D01*
X34987083Y-37459744D01*
X34999770Y-37474387D01*
X35053206Y-37546791D01*
X35162354Y-37627346D01*
X35290397Y-37672149D01*
X35320778Y-37674998D01*
X35320806Y-37674999D01*
X35399999Y-37674998D01*
X35400000Y-37674998D01*
X35400000Y-37275000D01*
X34400000Y-37275000D01*
X34400000Y-37674999D01*
X33820806Y-37674999D01*
X33899999Y-37674998D01*
X33900000Y-37674998D01*
X33900000Y-36375000D01*
X34400000Y-36375000D01*
X34400000Y-36775000D01*
X35400000Y-36775000D01*
X35400000Y-36375000D01*
X35399999Y-36374999D01*
X35320804Y-36375000D01*
X35290393Y-36377851D01*
X35162354Y-36422653D01*
X35053207Y-36503207D01*
X34999770Y-36575613D01*
X34944122Y-36617864D01*
X34874466Y-36623322D01*
X34812917Y-36590254D01*
X34800230Y-36575613D01*
X34746792Y-36503207D01*
X34637645Y-36422653D01*
X34509602Y-36377850D01*
X34479207Y-36375000D01*
X34400000Y-36375000D01*
X33900000Y-36375000D01*
X33899999Y-36374999D01*
X33820804Y-36375000D01*
X33790393Y-36377851D01*
X33662354Y-36422653D01*
X33553207Y-36503208D01*
X33500079Y-36575193D01*
X33444432Y-36617443D01*
X33374775Y-36622900D01*
X33313226Y-36589833D01*
X33300540Y-36575191D01*
X33247151Y-36502851D01*
X33237750Y-36495913D01*
X33137882Y-36422207D01*
X33137880Y-36422206D01*
X33009700Y-36377353D01*
X32979270Y-36374500D01*
X32979266Y-36374500D01*
X32320734Y-36374500D01*
X32320730Y-36374500D01*
X32290300Y-36377353D01*
X32290298Y-36377353D01*
X32162119Y-36422206D01*
X32162117Y-36422207D01*
X32052850Y-36502850D01*
X31972207Y-36612117D01*
X31972206Y-36612119D01*
X31927353Y-36740298D01*
X31927353Y-36740300D01*
X31924500Y-36770730D01*
X27875500Y-36770730D01*
X27872646Y-36740300D01*
X27872646Y-36740298D01*
X27835998Y-36635566D01*
X27827793Y-36612118D01*
X27747150Y-36502850D01*
X27637882Y-36422207D01*
X27637880Y-36422206D01*
X27509700Y-36377353D01*
X27479270Y-36374500D01*
X27479266Y-36374500D01*
X26820734Y-36374500D01*
X26820730Y-36374500D01*
X26790300Y-36377353D01*
X26790298Y-36377353D01*
X26662119Y-36422206D01*
X26662117Y-36422207D01*
X26552850Y-36502850D01*
X26499459Y-36575192D01*
X26443811Y-36617443D01*
X26374155Y-36622901D01*
X26312606Y-36589833D01*
X26299919Y-36575192D01*
X26246792Y-36503207D01*
X26137645Y-36422653D01*
X26009602Y-36377850D01*
X25979207Y-36375000D01*
X25900000Y-36375000D01*
X25900000Y-37674999D01*
X25979196Y-37674999D01*
X26009606Y-37672148D01*
X26137645Y-37627346D01*
X26246793Y-37546791D01*
X26299919Y-37474808D01*
X26319992Y-37459566D01*
X26337327Y-37441264D01*
X26347347Y-37438797D01*
X26355566Y-37432557D01*
X26380694Y-37430587D01*
X26405171Y-37424562D01*
X26414934Y-37427904D01*
X26425222Y-37427098D01*
X26447426Y-37439027D01*
X26471275Y-37447191D01*
X26481777Y-37457481D01*
X26486772Y-37460165D01*
X26496900Y-37471461D01*
X26498212Y-37473118D01*
X26552850Y-37547150D01*
X26562443Y-37554230D01*
X26572711Y-37567196D01*
X26579851Y-37584858D01*
X26591377Y-37600033D01*
X26595881Y-37624510D01*
X26598898Y-37631973D01*
X26598064Y-37636376D01*
X26599500Y-37644176D01*
X26599500Y-37677525D01*
X26599500Y-37822475D01*
X26637016Y-37962484D01*
X26638603Y-37968406D01*
X26636940Y-38038256D01*
X26597778Y-38096119D01*
X26533549Y-38123623D01*
X26518828Y-38124500D01*
X26249540Y-38124500D01*
X26182501Y-38104815D01*
X26175907Y-38100270D01*
X26137886Y-38072209D01*
X26137880Y-38072206D01*
X26009700Y-38027353D01*
X25979270Y-38024500D01*
X25979266Y-38024500D01*
X25320734Y-38024500D01*
X25320730Y-38024500D01*
X25290300Y-38027353D01*
X25290298Y-38027353D01*
X25162119Y-38072206D01*
X25162117Y-38072207D01*
X25052850Y-38152850D01*
X24999770Y-38224771D01*
X24944122Y-38267022D01*
X24874466Y-38272480D01*
X24812917Y-38239412D01*
X24800230Y-38224771D01*
X24770645Y-38184685D01*
X24747150Y-38152850D01*
X24637882Y-38072207D01*
X24637880Y-38072206D01*
X24509700Y-38027353D01*
X24479270Y-38024500D01*
X24479266Y-38024500D01*
X23820734Y-38024500D01*
X23820730Y-38024500D01*
X23790300Y-38027353D01*
X23790298Y-38027353D01*
X23662119Y-38072206D01*
X23662113Y-38072209D01*
X23624093Y-38100270D01*
X23558464Y-38124241D01*
X23550460Y-38124500D01*
X23281172Y-38124500D01*
X23214133Y-38104815D01*
X23168378Y-38052011D01*
X23158434Y-37982853D01*
X23161397Y-37968406D01*
X23162984Y-37962484D01*
X23200500Y-37822475D01*
X23200500Y-37677525D01*
X23200500Y-37644176D01*
X23220185Y-37577137D01*
X23227288Y-37567196D01*
X23237553Y-37554232D01*
X23247150Y-37547150D01*
X23301814Y-37473082D01*
X23303098Y-37471461D01*
X23329974Y-37452458D01*
X23356186Y-37432557D01*
X23358364Y-37432386D01*
X23360148Y-37431125D01*
X23393033Y-37429669D01*
X23425842Y-37427098D01*
X23427766Y-37428131D01*
X23429950Y-37428035D01*
X23458411Y-37444595D01*
X23487392Y-37460165D01*
X23489652Y-37462773D01*
X23490341Y-37463174D01*
X23490832Y-37464135D01*
X23500080Y-37474807D01*
X23553207Y-37546792D01*
X23662354Y-37627346D01*
X23790397Y-37672149D01*
X23820778Y-37674998D01*
X23820806Y-37674999D01*
X24400000Y-37674999D01*
X24479196Y-37674999D01*
X24509606Y-37672148D01*
X24637645Y-37627346D01*
X24746793Y-37546791D01*
X24800230Y-37474387D01*
X24855877Y-37432136D01*
X24925533Y-37426677D01*
X24987083Y-37459744D01*
X24999770Y-37474387D01*
X25053206Y-37546791D01*
X25162354Y-37627346D01*
X25290397Y-37672149D01*
X25320778Y-37674998D01*
X25320806Y-37674999D01*
X25399999Y-37674998D01*
X25400000Y-37674998D01*
X25400000Y-37275000D01*
X24400000Y-37275000D01*
X24400000Y-37674999D01*
X23820806Y-37674999D01*
X23899999Y-37674998D01*
X23900000Y-37674998D01*
X23900000Y-36375000D01*
X24400000Y-36375000D01*
X24400000Y-36775000D01*
X25400000Y-36775000D01*
X25400000Y-36375000D01*
X25399999Y-36374999D01*
X25320804Y-36375000D01*
X25290393Y-36377851D01*
X25162354Y-36422653D01*
X25053207Y-36503207D01*
X24999770Y-36575613D01*
X24944122Y-36617864D01*
X24874466Y-36623322D01*
X24812917Y-36590254D01*
X24800230Y-36575613D01*
X24746792Y-36503207D01*
X24637645Y-36422653D01*
X24509602Y-36377850D01*
X24479207Y-36375000D01*
X24400000Y-36375000D01*
X23900000Y-36375000D01*
X23899999Y-36374999D01*
X23820804Y-36375000D01*
X23790393Y-36377851D01*
X23662354Y-36422653D01*
X23553207Y-36503208D01*
X23500079Y-36575193D01*
X23444432Y-36617443D01*
X23374775Y-36622900D01*
X23313226Y-36589833D01*
X23300540Y-36575191D01*
X23247151Y-36502851D01*
X23237750Y-36495913D01*
X23137882Y-36422207D01*
X23137880Y-36422206D01*
X23009700Y-36377353D01*
X22979270Y-36374500D01*
X22979266Y-36374500D01*
X22320734Y-36374500D01*
X22320730Y-36374500D01*
X22290300Y-36377353D01*
X22290298Y-36377353D01*
X22162119Y-36422206D01*
X22162117Y-36422207D01*
X22052850Y-36502850D01*
X21972207Y-36612117D01*
X21972206Y-36612119D01*
X21927353Y-36740298D01*
X21927353Y-36740300D01*
X21924500Y-36770730D01*
X20827725Y-36770730D01*
X20939080Y-36586526D01*
X20947567Y-36574230D01*
X21124480Y-36348417D01*
X21134395Y-36337226D01*
X21337226Y-36134395D01*
X21348417Y-36124480D01*
X21574230Y-35947567D01*
X21586526Y-35939080D01*
X21832016Y-35790676D01*
X21845249Y-35783731D01*
X22106841Y-35665998D01*
X22120822Y-35660696D01*
X22394668Y-35575362D01*
X22409197Y-35571780D01*
X22691344Y-35520075D01*
X22706201Y-35518271D01*
X22996264Y-35500726D01*
X23003751Y-35500500D01*
X26671966Y-35500500D01*
X26671969Y-35500500D01*
X27014250Y-35466789D01*
X27351578Y-35399690D01*
X27680705Y-35299850D01*
X27998462Y-35168231D01*
X28301787Y-35006100D01*
X28587760Y-34815019D01*
X28853627Y-34596828D01*
X29096828Y-34353627D01*
X29315019Y-34087760D01*
X29461149Y-33869059D01*
X29514758Y-33824257D01*
X29584083Y-33815550D01*
X29647111Y-33845704D01*
X29678810Y-33890500D01*
X29706469Y-33957273D01*
X29741044Y-34040746D01*
X29741262Y-34041271D01*
X29741264Y-34041276D01*
X29908017Y-34353247D01*
X29908028Y-34353265D01*
X30104558Y-34647393D01*
X30104568Y-34647407D01*
X30328992Y-34920869D01*
X30579130Y-35171007D01*
X30579135Y-35171011D01*
X30579136Y-35171012D01*
X30852598Y-35395436D01*
X31146741Y-35591976D01*
X31146750Y-35591981D01*
X31146752Y-35591982D01*
X31458723Y-35758735D01*
X31458725Y-35758735D01*
X31458731Y-35758739D01*
X31785565Y-35894118D01*
X32124095Y-35996809D01*
X32124101Y-35996810D01*
X32124104Y-35996811D01*
X32124115Y-35996814D01*
X32341674Y-36040088D01*
X32471060Y-36065825D01*
X32823119Y-36100500D01*
X32823122Y-36100500D01*
X33176878Y-36100500D01*
X33176881Y-36100500D01*
X33528940Y-36065825D01*
X33700679Y-36031663D01*
X33875884Y-35996814D01*
X33875895Y-35996811D01*
X33875895Y-35996810D01*
X33875905Y-35996809D01*
X34214435Y-35894118D01*
X34541269Y-35758739D01*
X34853259Y-35591976D01*
X35147402Y-35395436D01*
X35420864Y-35171012D01*
X35671012Y-34920864D01*
X35895436Y-34647402D01*
X36082444Y-34367525D01*
X42284500Y-34367525D01*
X42284500Y-34512475D01*
X42321463Y-34650421D01*
X42322017Y-34652488D01*
X42394488Y-34778011D01*
X42394490Y-34778013D01*
X42394491Y-34778015D01*
X42496985Y-34880509D01*
X42496986Y-34880510D01*
X42496988Y-34880511D01*
X42622511Y-34952982D01*
X42622512Y-34952982D01*
X42622515Y-34952984D01*
X42762525Y-34990500D01*
X42762528Y-34990500D01*
X42907472Y-34990500D01*
X42907475Y-34990500D01*
X43047485Y-34952984D01*
X43173015Y-34880509D01*
X43275509Y-34778015D01*
X43347984Y-34652485D01*
X43385500Y-34512475D01*
X43385500Y-34367525D01*
X43347984Y-34227515D01*
X43343892Y-34220428D01*
X43275511Y-34101988D01*
X43275506Y-34101982D01*
X43173017Y-33999493D01*
X43173011Y-33999488D01*
X43047488Y-33927017D01*
X43047489Y-33927017D01*
X43024690Y-33920908D01*
X42907475Y-33889500D01*
X42762525Y-33889500D01*
X42645310Y-33920908D01*
X42622511Y-33927017D01*
X42496988Y-33999488D01*
X42496982Y-33999493D01*
X42394493Y-34101982D01*
X42394488Y-34101988D01*
X42322017Y-34227511D01*
X42322016Y-34227515D01*
X42284500Y-34367525D01*
X36082444Y-34367525D01*
X36091976Y-34353259D01*
X36258739Y-34041269D01*
X36394118Y-33714435D01*
X36496809Y-33375905D01*
X36496811Y-33375895D01*
X36496814Y-33375884D01*
X36549206Y-33112488D01*
X36565825Y-33028940D01*
X36600500Y-32676881D01*
X36600500Y-32323119D01*
X36565825Y-31971060D01*
X36553992Y-31911573D01*
X36540470Y-31843589D01*
X36537275Y-31827525D01*
X37204500Y-31827525D01*
X37204500Y-31972475D01*
X37242016Y-32112485D01*
X37242017Y-32112488D01*
X37314488Y-32238011D01*
X37314490Y-32238013D01*
X37314491Y-32238015D01*
X37416985Y-32340509D01*
X37416986Y-32340510D01*
X37416988Y-32340511D01*
X37542511Y-32412982D01*
X37542512Y-32412982D01*
X37542515Y-32412984D01*
X37682525Y-32450500D01*
X37682528Y-32450500D01*
X37827472Y-32450500D01*
X37827475Y-32450500D01*
X37967485Y-32412984D01*
X38093015Y-32340509D01*
X38195509Y-32238015D01*
X38267984Y-32112485D01*
X38305500Y-31972475D01*
X38305500Y-31827525D01*
X38267984Y-31687515D01*
X38260115Y-31673886D01*
X38195511Y-31561988D01*
X38195506Y-31561982D01*
X38093017Y-31459493D01*
X38093011Y-31459488D01*
X37967488Y-31387017D01*
X37967489Y-31387017D01*
X37956006Y-31383940D01*
X37827475Y-31349500D01*
X37682525Y-31349500D01*
X37553993Y-31383940D01*
X37542511Y-31387017D01*
X37416988Y-31459488D01*
X37416982Y-31459493D01*
X37314493Y-31561982D01*
X37314488Y-31561988D01*
X37242017Y-31687511D01*
X37242016Y-31687515D01*
X37204500Y-31827525D01*
X36537275Y-31827525D01*
X36496814Y-31624116D01*
X36496811Y-31624104D01*
X36496810Y-31624101D01*
X36496809Y-31624095D01*
X36394118Y-31285565D01*
X36258739Y-30958731D01*
X36221864Y-30889744D01*
X36091982Y-30646752D01*
X36091981Y-30646750D01*
X36091976Y-30646741D01*
X35895436Y-30352598D01*
X35671012Y-30079136D01*
X35671011Y-30079135D01*
X35671007Y-30079130D01*
X35420869Y-29828992D01*
X35288492Y-29720353D01*
X35249158Y-29662608D01*
X35247287Y-29592763D01*
X35283475Y-29532995D01*
X35346230Y-29502279D01*
X35367157Y-29500500D01*
X40238429Y-29500500D01*
X40305468Y-29520185D01*
X40351223Y-29572989D01*
X40361167Y-29642147D01*
X40337695Y-29698811D01*
X40256206Y-29807664D01*
X40256202Y-29807671D01*
X40205908Y-29942517D01*
X40199825Y-29999104D01*
X40199501Y-30002123D01*
X40199500Y-30002135D01*
X40199500Y-30019418D01*
X40179815Y-30086457D01*
X40127011Y-30132212D01*
X40057853Y-30142156D01*
X40014054Y-30125373D01*
X40013502Y-30126408D01*
X40008124Y-30123533D01*
X39889744Y-30074499D01*
X39889738Y-30074497D01*
X39764071Y-30049500D01*
X39764069Y-30049500D01*
X39635931Y-30049500D01*
X39635929Y-30049500D01*
X39510261Y-30074497D01*
X39510255Y-30074499D01*
X39391875Y-30123533D01*
X39391866Y-30123538D01*
X39285331Y-30194723D01*
X39285327Y-30194726D01*
X39194726Y-30285327D01*
X39194723Y-30285331D01*
X39123538Y-30391866D01*
X39123533Y-30391875D01*
X39074499Y-30510255D01*
X39074497Y-30510261D01*
X39049500Y-30635928D01*
X39049500Y-30635931D01*
X39049500Y-30764069D01*
X39049500Y-30764071D01*
X39049499Y-30764071D01*
X39074497Y-30889738D01*
X39074499Y-30889744D01*
X39123533Y-31008124D01*
X39123538Y-31008133D01*
X39194723Y-31114668D01*
X39194726Y-31114672D01*
X39285327Y-31205273D01*
X39285331Y-31205276D01*
X39391866Y-31276461D01*
X39391872Y-31276464D01*
X39391873Y-31276465D01*
X39510256Y-31325501D01*
X39510260Y-31325501D01*
X39510261Y-31325502D01*
X39635928Y-31350500D01*
X39635931Y-31350500D01*
X39764071Y-31350500D01*
X39848615Y-31333682D01*
X39889744Y-31325501D01*
X40008127Y-31276465D01*
X40008131Y-31276461D01*
X40013502Y-31273592D01*
X40014294Y-31275074D01*
X40073280Y-31256601D01*
X40140662Y-31275082D01*
X40187355Y-31327058D01*
X40199501Y-31380581D01*
X40199501Y-31397876D01*
X40205908Y-31457483D01*
X40256202Y-31592328D01*
X40256206Y-31592335D01*
X40342452Y-31707544D01*
X40342455Y-31707547D01*
X40457664Y-31793793D01*
X40457671Y-31793797D01*
X40472447Y-31799308D01*
X40592517Y-31844091D01*
X40652127Y-31850500D01*
X41397872Y-31850499D01*
X41457483Y-31844091D01*
X41592331Y-31793796D01*
X41707546Y-31707546D01*
X41793796Y-31592331D01*
X41844091Y-31457483D01*
X41850500Y-31397873D01*
X41850499Y-30002128D01*
X41844091Y-29942517D01*
X41832798Y-29912240D01*
X41793797Y-29807671D01*
X41793793Y-29807664D01*
X41707547Y-29692455D01*
X41707544Y-29692452D01*
X41592335Y-29606206D01*
X41592328Y-29606202D01*
X41522942Y-29580323D01*
X41467008Y-29538452D01*
X41442591Y-29472987D01*
X41457443Y-29404714D01*
X41506848Y-29355309D01*
X41530270Y-29345484D01*
X41680705Y-29299850D01*
X41998462Y-29168231D01*
X42301787Y-29006100D01*
X42587760Y-28815019D01*
X42853627Y-28596828D01*
X42925137Y-28525318D01*
X43012819Y-28437637D01*
X43074142Y-28404152D01*
X43143834Y-28409136D01*
X43199767Y-28451008D01*
X43224184Y-28516472D01*
X43224500Y-28525318D01*
X43224500Y-29742513D01*
X43209333Y-29801939D01*
X43206203Y-29807670D01*
X43155908Y-29942517D01*
X43149825Y-29999104D01*
X43149501Y-30002123D01*
X43149500Y-30002135D01*
X43149500Y-31397870D01*
X43149501Y-31397876D01*
X43155908Y-31457483D01*
X43206202Y-31592328D01*
X43206206Y-31592335D01*
X43292452Y-31707544D01*
X43292455Y-31707547D01*
X43407664Y-31793793D01*
X43407671Y-31793797D01*
X43422447Y-31799308D01*
X43542517Y-31844091D01*
X43602127Y-31850500D01*
X44347872Y-31850499D01*
X44407483Y-31844091D01*
X44542331Y-31793796D01*
X44657546Y-31707546D01*
X44743796Y-31592331D01*
X44794091Y-31457483D01*
X44800500Y-31397873D01*
X44800499Y-30002128D01*
X44794091Y-29942517D01*
X44743796Y-29807669D01*
X44737249Y-29798924D01*
X44731206Y-29779697D01*
X44730902Y-29763680D01*
X44725500Y-29742513D01*
X44725500Y-28962229D01*
X44743664Y-28900371D01*
X45590000Y-28900371D01*
X45590000Y-29525000D01*
X46256988Y-29525000D01*
X46224075Y-29582007D01*
X46190000Y-29709174D01*
X46190000Y-29840826D01*
X46224075Y-29967993D01*
X46256988Y-30025000D01*
X45590000Y-30025000D01*
X45590000Y-30649628D01*
X45604503Y-30722540D01*
X45604505Y-30722544D01*
X45659760Y-30805239D01*
X45742455Y-30860494D01*
X45742459Y-30860496D01*
X45815371Y-30874999D01*
X45815374Y-30875000D01*
X46440000Y-30875000D01*
X46440000Y-30208012D01*
X46497007Y-30240925D01*
X46624174Y-30275000D01*
X46755826Y-30275000D01*
X46882993Y-30240925D01*
X46940000Y-30208012D01*
X46940000Y-30875000D01*
X47564626Y-30875000D01*
X47564628Y-30874999D01*
X47637540Y-30860496D01*
X47637544Y-30860494D01*
X47720239Y-30805239D01*
X47775494Y-30722544D01*
X47775496Y-30722540D01*
X47789999Y-30649628D01*
X47790000Y-30649626D01*
X47790000Y-30025000D01*
X47123012Y-30025000D01*
X47155925Y-29967993D01*
X47190000Y-29840826D01*
X47190000Y-29709174D01*
X47155925Y-29582007D01*
X47123012Y-29525000D01*
X47790000Y-29525000D01*
X47790000Y-28900373D01*
X47789999Y-28900371D01*
X47775496Y-28827459D01*
X47775494Y-28827455D01*
X47720239Y-28744760D01*
X47637544Y-28689505D01*
X47637540Y-28689503D01*
X47564627Y-28675000D01*
X46940000Y-28675000D01*
X46940000Y-29341988D01*
X46882993Y-29309075D01*
X46755826Y-29275000D01*
X46624174Y-29275000D01*
X46497007Y-29309075D01*
X46440000Y-29341988D01*
X46440000Y-28675000D01*
X45815373Y-28675000D01*
X45742459Y-28689503D01*
X45742455Y-28689505D01*
X45659760Y-28744760D01*
X45604505Y-28827455D01*
X45604503Y-28827459D01*
X45590000Y-28900371D01*
X44743664Y-28900371D01*
X44745185Y-28895190D01*
X44761819Y-28874548D01*
X45614548Y-28021819D01*
X45641475Y-28007115D01*
X45667294Y-27990523D01*
X45673494Y-27989631D01*
X45675871Y-27988334D01*
X45702229Y-27985500D01*
X45832796Y-27985500D01*
X45899835Y-28005185D01*
X45920477Y-28021819D01*
X45973072Y-28074414D01*
X46113212Y-28176232D01*
X46267555Y-28254873D01*
X46432299Y-28308402D01*
X46603389Y-28335500D01*
X46603390Y-28335500D01*
X46776610Y-28335500D01*
X46776611Y-28335500D01*
X46947701Y-28308402D01*
X47112445Y-28254873D01*
X47266788Y-28176232D01*
X47406928Y-28074414D01*
X47529414Y-27951928D01*
X47631232Y-27811788D01*
X47709873Y-27657445D01*
X47763402Y-27492701D01*
X47790500Y-27321611D01*
X47790500Y-27148389D01*
X48129500Y-27148389D01*
X48129500Y-27321610D01*
X48156597Y-27492697D01*
X48156597Y-27492699D01*
X48156598Y-27492701D01*
X48210127Y-27657445D01*
X48288768Y-27811788D01*
X48390586Y-27951928D01*
X48513072Y-28074414D01*
X48653212Y-28176232D01*
X48807555Y-28254873D01*
X48972299Y-28308402D01*
X49143389Y-28335500D01*
X49143390Y-28335500D01*
X49316610Y-28335500D01*
X49316611Y-28335500D01*
X49487701Y-28308402D01*
X49652445Y-28254873D01*
X49806788Y-28176232D01*
X49946928Y-28074414D01*
X50069414Y-27951928D01*
X50171232Y-27811788D01*
X50249873Y-27657445D01*
X50303402Y-27492701D01*
X50330500Y-27321611D01*
X50330500Y-27148389D01*
X50303402Y-26977299D01*
X50249873Y-26812555D01*
X50171232Y-26658212D01*
X50069414Y-26518072D01*
X49946928Y-26395586D01*
X49806788Y-26293768D01*
X49652445Y-26215127D01*
X49487701Y-26161598D01*
X49487699Y-26161597D01*
X49487698Y-26161597D01*
X49356271Y-26140781D01*
X49316611Y-26134500D01*
X49143389Y-26134500D01*
X49103728Y-26140781D01*
X48972302Y-26161597D01*
X48807552Y-26215128D01*
X48653211Y-26293768D01*
X48573256Y-26351859D01*
X48513072Y-26395586D01*
X48513070Y-26395588D01*
X48513069Y-26395588D01*
X48390588Y-26518069D01*
X48390588Y-26518070D01*
X48390586Y-26518072D01*
X48369946Y-26546481D01*
X48288768Y-26658211D01*
X48210128Y-26812552D01*
X48156597Y-26977302D01*
X48129500Y-27148389D01*
X47790500Y-27148389D01*
X47763402Y-26977299D01*
X47709873Y-26812555D01*
X47631232Y-26658212D01*
X47529414Y-26518072D01*
X47406928Y-26395586D01*
X47266788Y-26293768D01*
X47112445Y-26215127D01*
X46947701Y-26161598D01*
X46947699Y-26161597D01*
X46947698Y-26161597D01*
X46816271Y-26140781D01*
X46776611Y-26134500D01*
X46603389Y-26134500D01*
X46563728Y-26140781D01*
X46432302Y-26161597D01*
X46267552Y-26215128D01*
X46113211Y-26293768D01*
X46033256Y-26351859D01*
X45973072Y-26395586D01*
X45973070Y-26395588D01*
X45973069Y-26395588D01*
X45920477Y-26448181D01*
X45859154Y-26481666D01*
X45832796Y-26484500D01*
X45266076Y-26484500D01*
X45237242Y-26490234D01*
X45237243Y-26490235D01*
X45121093Y-26513339D01*
X45121083Y-26513342D01*
X45041081Y-26546479D01*
X45041082Y-26546480D01*
X44984506Y-26569915D01*
X44942220Y-26598170D01*
X44861582Y-26652049D01*
X43860946Y-27652685D01*
X43799623Y-27686170D01*
X43729931Y-27681186D01*
X43673998Y-27639314D01*
X43649581Y-27573850D01*
X43663909Y-27506546D01*
X43668231Y-27498462D01*
X43799850Y-27180705D01*
X43899690Y-26851578D01*
X43966789Y-26514250D01*
X44000500Y-26171969D01*
X44000500Y-26006961D01*
X44001280Y-25993077D01*
X44001280Y-25993076D01*
X44011460Y-25902729D01*
X44017635Y-25875670D01*
X44045353Y-25796456D01*
X44057396Y-25771450D01*
X44102046Y-25700389D01*
X44119351Y-25678690D01*
X44178690Y-25619351D01*
X44200389Y-25602046D01*
X44271450Y-25557396D01*
X44296456Y-25545353D01*
X44375670Y-25517635D01*
X44402733Y-25511459D01*
X44465419Y-25504396D01*
X44493079Y-25501280D01*
X44506962Y-25500500D01*
X44565892Y-25500500D01*
X56434108Y-25500500D01*
X56493038Y-25500500D01*
X56506922Y-25501280D01*
G37*
%TD.AperFunction*%
%TD*%
M02*
