%TF.GenerationSoftware,KiCad,Pcbnew,9.0.6*%
%TF.CreationDate,2026-02-24T21:10:43+00:00*%
%TF.ProjectId,Widget,57696467-6574-42e6-9b69-6361645f7063,rev?*%
%TF.SameCoordinates,Original*%
%TF.FileFunction,Copper,L4,Bot*%
%TF.FilePolarity,Positive*%
%FSLAX46Y46*%
G04 Gerber Fmt 4.6, Leading zero omitted, Abs format (unit mm)*
G04 Created by KiCad (PCBNEW 9.0.6) date 2026-02-24 21:10:43*
%MOMM*%
%LPD*%
G01*
G04 APERTURE LIST*
G04 Aperture macros list*
%AMFreePoly0*
4,1,25,-1.000000,0.700000,-0.992031,0.768685,-0.947499,0.869541,-0.869541,0.947499,-0.768685,0.992031,-0.700000,1.000000,0.700000,1.000000,0.768685,0.992031,0.869541,0.947499,0.947499,0.869541,0.992031,0.768685,1.000000,0.700000,1.000000,-0.700000,0.992031,-0.768685,0.947499,-0.869541,0.869541,-0.947499,0.768685,-0.992031,0.700000,-1.000000,-0.700000,-1.000000,-0.768685,-0.992031,
-0.869541,-0.947499,-0.947499,-0.869541,-0.992031,-0.768685,-1.000000,-0.700000,-1.000000,0.700000,-1.000000,0.700000,$1*%
G04 Aperture macros list end*
%TA.AperFunction,ComponentPad*%
%ADD10FreePoly0,270.000000*%
%TD*%
%TA.AperFunction,ComponentPad*%
%ADD11R,1.700000X1.700000*%
%TD*%
%TA.AperFunction,ComponentPad*%
%ADD12C,1.700000*%
%TD*%
%TA.AperFunction,ViaPad*%
%ADD13C,0.600000*%
%TD*%
%TA.AperFunction,ViaPad*%
%ADD14C,0.800000*%
%TD*%
%TA.AperFunction,Conductor*%
%ADD15C,0.400000*%
%TD*%
%TA.AperFunction,Conductor*%
%ADD16C,0.300000*%
%TD*%
G04 APERTURE END LIST*
D10*
%TO.P,J19,1,Pin_1*%
%TO.N,+3.3V*%
X45000000Y-52750000D03*
%TD*%
%TO.P,J26,1,Pin_1*%
%TO.N,GND*%
X71250000Y-52750000D03*
%TD*%
%TO.P,J6,1,Pin_1*%
%TO.N,/GPIO8*%
X60000000Y-49500000D03*
%TD*%
%TO.P,J11,1,Pin_1*%
%TO.N,/SDA*%
X41250000Y-49500000D03*
%TD*%
%TO.P,J9,1,Pin_1*%
%TO.N,/GPIO5*%
X48750000Y-49500000D03*
%TD*%
%TO.P,J14,1,Pin_1*%
%TO.N,/GPIO0*%
X30000000Y-49500000D03*
%TD*%
%TO.P,J4,1,Pin_1*%
%TO.N,/GPIO10*%
X67500000Y-49500000D03*
%TD*%
D11*
%TO.P,J1,1,Pin_1*%
%TO.N,+3.3V*%
X46690000Y-29775000D03*
D12*
%TO.P,J1,2,Pin_2*%
%TO.N,+5V*%
X46690000Y-27235000D03*
%TO.P,J1,3,Pin_3*%
%TO.N,GND*%
X49230000Y-29775000D03*
%TO.P,J1,4,Pin_4*%
X49230000Y-27235000D03*
%TO.P,J1,5,Pin_5*%
%TO.N,/SCL*%
X51770000Y-29775000D03*
%TO.P,J1,6,Pin_6*%
%TO.N,/A*%
X51770000Y-27235000D03*
%TO.P,J1,7,Pin_7*%
%TO.N,/SDA*%
X54310000Y-29775000D03*
%TO.P,J1,8,Pin_8*%
%TO.N,/B*%
X54310000Y-27235000D03*
%TD*%
D10*
%TO.P,J15,1,Pin_1*%
%TO.N,+5V*%
X30000000Y-52750000D03*
%TD*%
%TO.P,J13,1,Pin_1*%
%TO.N,/GPIO1*%
X33750000Y-49500000D03*
%TD*%
%TO.P,J21,1,Pin_1*%
%TO.N,+5V*%
X52500000Y-52750000D03*
%TD*%
%TO.P,J20,1,Pin_1*%
%TO.N,GND*%
X48750000Y-52750000D03*
%TD*%
%TO.P,J23,1,Pin_1*%
%TO.N,GND*%
X60000000Y-52750000D03*
%TD*%
%TO.P,J24,1,Pin_1*%
%TO.N,+5V*%
X63750000Y-52750000D03*
%TD*%
%TO.P,J3,1,Pin_1*%
%TO.N,/GPIO11*%
X71250000Y-49500000D03*
%TD*%
%TO.P,J5,1,Pin_1*%
%TO.N,/GPIO9*%
X63750000Y-49500000D03*
%TD*%
%TO.P,J10,1,Pin_1*%
%TO.N,/GPIO4*%
X45000000Y-49500000D03*
%TD*%
%TO.P,J8,1,Pin_1*%
%TO.N,/GPIO6*%
X52500000Y-49500000D03*
%TD*%
%TO.P,J16,1,Pin_1*%
%TO.N,+3.3V*%
X33750000Y-52750000D03*
%TD*%
%TO.P,J12,1,Pin_1*%
%TO.N,/SCL*%
X37500000Y-49500000D03*
%TD*%
%TO.P,J18,1,Pin_1*%
%TO.N,+5V*%
X41250000Y-52750000D03*
%TD*%
%TO.P,J25,1,Pin_1*%
%TO.N,+3.3V*%
X67500000Y-52750000D03*
%TD*%
%TO.P,J17,1,Pin_1*%
%TO.N,GND*%
X37500000Y-52750000D03*
%TD*%
%TO.P,J22,1,Pin_1*%
%TO.N,+3.3V*%
X56250000Y-52750000D03*
%TD*%
%TO.P,J7,1,Pin_1*%
%TO.N,/GPIO7*%
X56250000Y-49500000D03*
%TD*%
D13*
%TO.N,GND*%
X42835000Y-34440000D03*
X65695000Y-47140000D03*
X76600000Y-43600000D03*
X66600000Y-43600000D03*
X37755000Y-31900000D03*
X47915000Y-31900000D03*
X55535000Y-31900000D03*
X62750000Y-45050000D03*
X54600000Y-36000000D03*
X58500000Y-33300000D03*
X66250000Y-37750000D03*
X37150000Y-37750000D03*
D14*
X39700000Y-30700000D03*
D13*
X50455000Y-49680000D03*
X54975000Y-46025000D03*
X27150000Y-37750000D03*
X78395000Y-44600000D03*
X27500000Y-43600000D03*
X22515000Y-47140000D03*
X33650000Y-45050000D03*
X73315000Y-49680000D03*
D14*
X61300000Y-30700000D03*
D13*
X50455000Y-39520000D03*
X27595000Y-49680000D03*
X42835000Y-47140000D03*
X70775000Y-42060000D03*
X58075000Y-49680000D03*
X35215000Y-47140000D03*
X44750000Y-42675000D03*
X60615000Y-34440000D03*
X55535000Y-44600000D03*
X72750000Y-45050000D03*
X23650000Y-45050000D03*
X37500000Y-43600000D03*
X76250000Y-37750000D03*
X60615000Y-42060000D03*
X30135000Y-44600000D03*
X46700000Y-33800000D03*
%TO.N,+5V*%
X32650000Y-37750000D03*
X22650000Y-37750000D03*
X71750000Y-37750000D03*
X61750000Y-37750000D03*
%TO.N,~{MCLR}*%
X44750000Y-43750000D03*
X52500000Y-43250000D03*
%TO.N,ICSPDAT*%
X45233100Y-41955013D03*
X41750000Y-42500000D03*
%TO.N,/B*%
X57200000Y-32900000D03*
%TO.N,/SCL*%
X49389000Y-35560000D03*
%TO.N,/A*%
X57850000Y-32300000D03*
%TO.N,/SDA*%
X51689000Y-35560000D03*
%TO.N,/GPIO10*%
X66850000Y-45950000D03*
%TO.N,/GPIO9*%
X58500000Y-40750000D03*
%TO.N,/GPIO8*%
X57750000Y-41750000D03*
%TO.N,/GPIO7*%
X57000000Y-42500000D03*
%TO.N,/GPIO1*%
X37750000Y-45950000D03*
%TO.N,/GPIO0*%
X27750000Y-45950000D03*
%TO.N,/IN_GPIO0*%
X45000000Y-36500000D03*
X29150000Y-38850000D03*
%TO.N,/IN_GPIO1*%
X39150000Y-38850000D03*
X44500000Y-37250000D03*
%TO.N,/IN_GPIO10*%
X58500000Y-38750000D03*
X68250000Y-38850000D03*
%TO.N,/GPIO11*%
X76850000Y-45950000D03*
%TO.N,/IN_GPIO11*%
X78250000Y-38850000D03*
X58247017Y-37991051D03*
%TD*%
D15*
%TO.N,~{MCLR}*%
X44750000Y-43750000D02*
X52000000Y-43750000D01*
X52000000Y-43750000D02*
X52500000Y-43250000D01*
%TO.N,ICSPDAT*%
X42294987Y-41955013D02*
X41750000Y-42500000D01*
X45233100Y-41955013D02*
X42294987Y-41955013D01*
D16*
%TO.N,/B*%
X55435000Y-27235000D02*
X54310000Y-27235000D01*
X57200000Y-29000000D02*
X55435000Y-27235000D01*
X57200000Y-32900000D02*
X57200000Y-29000000D01*
D15*
%TO.N,/SCL*%
X51770000Y-33066000D02*
X49389000Y-35447000D01*
X51770000Y-29775000D02*
X51770000Y-33066000D01*
X49389000Y-35447000D02*
X49389000Y-35560000D01*
D16*
%TO.N,/A*%
X55528209Y-25900000D02*
X57850000Y-28221791D01*
X57850000Y-28221791D02*
X57850000Y-32300000D01*
X53105000Y-25900000D02*
X55528209Y-25900000D01*
X51770000Y-27235000D02*
X53105000Y-25900000D01*
D15*
%TO.N,/SDA*%
X52578000Y-33401000D02*
X52578000Y-31507000D01*
X52578000Y-31507000D02*
X54310000Y-29775000D01*
X51689000Y-34290000D02*
X52578000Y-33401000D01*
X51689000Y-35560000D02*
X51689000Y-34290000D01*
%TO.N,/GPIO10*%
X66850000Y-48850000D02*
X67500000Y-49500000D01*
X66850000Y-45950000D02*
X66850000Y-48850000D01*
%TO.N,/GPIO9*%
X58500000Y-46750000D02*
X58500000Y-40750000D01*
X63250000Y-48000000D02*
X60500000Y-48000000D01*
X63750000Y-49500000D02*
X63750000Y-48500000D01*
X59750000Y-47250000D02*
X59000000Y-47250000D01*
X60500000Y-48000000D02*
X59750000Y-47250000D01*
X63750000Y-48500000D02*
X63250000Y-48000000D01*
X59000000Y-47250000D02*
X58500000Y-46750000D01*
%TO.N,/GPIO8*%
X60000000Y-48500000D02*
X59500000Y-48000000D01*
X59500000Y-48000000D02*
X58750000Y-48000000D01*
X57750000Y-47000000D02*
X57750000Y-41750000D01*
X58750000Y-48000000D02*
X57750000Y-47000000D01*
X60000000Y-49500000D02*
X60000000Y-48500000D01*
%TO.N,/GPIO7*%
X57000000Y-47750000D02*
X57000000Y-42500000D01*
X56250000Y-48500000D02*
X57000000Y-47750000D01*
X56250000Y-49500000D02*
X56250000Y-48500000D01*
%TO.N,/GPIO1*%
X37750000Y-47250000D02*
X37000000Y-48000000D01*
X37000000Y-48000000D02*
X34250000Y-48000000D01*
X37750000Y-45950000D02*
X37750000Y-47250000D01*
X34250000Y-48000000D02*
X33750000Y-48500000D01*
X33750000Y-48500000D02*
X33750000Y-49500000D01*
%TO.N,/GPIO0*%
X27750000Y-47250000D02*
X27750000Y-45950000D01*
X30000000Y-48500000D02*
X29500000Y-48000000D01*
X30000000Y-49500000D02*
X30000000Y-48500000D01*
X29500000Y-48000000D02*
X28500000Y-48000000D01*
X28500000Y-48000000D02*
X27750000Y-47250000D01*
%TO.N,/IN_GPIO0*%
X30250000Y-36500000D02*
X45000000Y-36500000D01*
X29150000Y-37600000D02*
X30250000Y-36500000D01*
X29150000Y-38850000D02*
X29150000Y-37600000D01*
%TO.N,/IN_GPIO1*%
X40750000Y-37250000D02*
X39150000Y-38850000D01*
X44500000Y-37250000D02*
X40750000Y-37250000D01*
%TO.N,/IN_GPIO10*%
X68250000Y-37750000D02*
X68250000Y-38850000D01*
X67500000Y-37000000D02*
X68250000Y-37750000D01*
X58500000Y-38750000D02*
X60250000Y-37000000D01*
X60250000Y-37000000D02*
X67500000Y-37000000D01*
%TO.N,/GPIO11*%
X71250000Y-48250000D02*
X71250000Y-49500000D01*
X76850000Y-47150000D02*
X76000000Y-48000000D01*
X71500000Y-48000000D02*
X71250000Y-48250000D01*
X76000000Y-48000000D02*
X71500000Y-48000000D01*
X76850000Y-45950000D02*
X76850000Y-47150000D01*
%TO.N,/IN_GPIO11*%
X78250000Y-37750000D02*
X76801000Y-36301000D01*
X59250000Y-37000000D02*
X59238068Y-37000000D01*
X78250000Y-38850000D02*
X78250000Y-37750000D01*
X76801000Y-36301000D02*
X59949000Y-36301000D01*
X59949000Y-36301000D02*
X59250000Y-37000000D01*
X59238068Y-37000000D02*
X58247017Y-37991051D01*
%TD*%
%TA.AperFunction,Conductor*%
%TO.N,+5V*%
G36*
X52705784Y-25520185D02*
G01*
X52751539Y-25572989D01*
X52761483Y-25642147D01*
X52732458Y-25705703D01*
X52726426Y-25712181D01*
X52269599Y-26169006D01*
X52208276Y-26202491D01*
X52143600Y-26199256D01*
X52027698Y-26161597D01*
X51896271Y-26140781D01*
X51856611Y-26134500D01*
X51683389Y-26134500D01*
X51643728Y-26140781D01*
X51512302Y-26161597D01*
X51347552Y-26215128D01*
X51193211Y-26293768D01*
X51125041Y-26343297D01*
X51053072Y-26395586D01*
X51053070Y-26395588D01*
X51053069Y-26395588D01*
X50930588Y-26518069D01*
X50930588Y-26518070D01*
X50930586Y-26518072D01*
X50886859Y-26578256D01*
X50828768Y-26658211D01*
X50750128Y-26812552D01*
X50750127Y-26812554D01*
X50750127Y-26812555D01*
X50734128Y-26861793D01*
X50696597Y-26977302D01*
X50675965Y-27107569D01*
X50669500Y-27148389D01*
X50669500Y-27321611D01*
X50696598Y-27492701D01*
X50750127Y-27657445D01*
X50828768Y-27811788D01*
X50930586Y-27951928D01*
X51053072Y-28074414D01*
X51193212Y-28176232D01*
X51347555Y-28254873D01*
X51512299Y-28308402D01*
X51683389Y-28335500D01*
X51683390Y-28335500D01*
X51856610Y-28335500D01*
X51856611Y-28335500D01*
X52027701Y-28308402D01*
X52192445Y-28254873D01*
X52346788Y-28176232D01*
X52486928Y-28074414D01*
X52609414Y-27951928D01*
X52711232Y-27811788D01*
X52789873Y-27657445D01*
X52843402Y-27492701D01*
X52870500Y-27321611D01*
X52870500Y-27148389D01*
X52843402Y-26977299D01*
X52805741Y-26861393D01*
X52803747Y-26791558D01*
X52835990Y-26735401D01*
X53234574Y-26336819D01*
X53261501Y-26322115D01*
X53287320Y-26305523D01*
X53293520Y-26304631D01*
X53295897Y-26303334D01*
X53322255Y-26300500D01*
X53388796Y-26300500D01*
X53455835Y-26320185D01*
X53501590Y-26372989D01*
X53511534Y-26442147D01*
X53482509Y-26505703D01*
X53476477Y-26512181D01*
X53470588Y-26518069D01*
X53470588Y-26518070D01*
X53470586Y-26518072D01*
X53426859Y-26578256D01*
X53368768Y-26658211D01*
X53290128Y-26812552D01*
X53290127Y-26812554D01*
X53290127Y-26812555D01*
X53274128Y-26861793D01*
X53236597Y-26977302D01*
X53215965Y-27107569D01*
X53209500Y-27148389D01*
X53209500Y-27321611D01*
X53236598Y-27492701D01*
X53290127Y-27657445D01*
X53368768Y-27811788D01*
X53470586Y-27951928D01*
X53593072Y-28074414D01*
X53733212Y-28176232D01*
X53887555Y-28254873D01*
X54052299Y-28308402D01*
X54223389Y-28335500D01*
X54223390Y-28335500D01*
X54396610Y-28335500D01*
X54396611Y-28335500D01*
X54567701Y-28308402D01*
X54732445Y-28254873D01*
X54886788Y-28176232D01*
X55026928Y-28074414D01*
X55149414Y-27951928D01*
X55247601Y-27816785D01*
X55302928Y-27774121D01*
X55372542Y-27768142D01*
X55434337Y-27800747D01*
X55435598Y-27801991D01*
X56763181Y-29129574D01*
X56796666Y-29190897D01*
X56799500Y-29217255D01*
X56799500Y-32470614D01*
X56779815Y-32537653D01*
X56763181Y-32558295D01*
X56759493Y-32561982D01*
X56759488Y-32561988D01*
X56687017Y-32687511D01*
X56687016Y-32687515D01*
X56649500Y-32827525D01*
X56649500Y-32972475D01*
X56687016Y-33112485D01*
X56687017Y-33112488D01*
X56759488Y-33238011D01*
X56759490Y-33238013D01*
X56759491Y-33238015D01*
X56861985Y-33340509D01*
X56861986Y-33340510D01*
X56861988Y-33340511D01*
X56987511Y-33412982D01*
X56987512Y-33412982D01*
X56987515Y-33412984D01*
X57127525Y-33450500D01*
X57127528Y-33450500D01*
X57272472Y-33450500D01*
X57272475Y-33450500D01*
X57412485Y-33412984D01*
X57538015Y-33340509D01*
X57640509Y-33238015D01*
X57712984Y-33112485D01*
X57750500Y-32972475D01*
X57750500Y-32972471D01*
X57751561Y-32964415D01*
X57752874Y-32964587D01*
X57751762Y-32956853D01*
X57762740Y-32932812D01*
X57770185Y-32907461D01*
X57777025Y-32901533D01*
X57780787Y-32893297D01*
X57803021Y-32879007D01*
X57822989Y-32861706D01*
X57833503Y-32859418D01*
X57839565Y-32855523D01*
X57874500Y-32850500D01*
X57909082Y-32850500D01*
X57976121Y-32870185D01*
X58021876Y-32922989D01*
X58031820Y-32992147D01*
X58016469Y-33036500D01*
X57987017Y-33087511D01*
X57987016Y-33087515D01*
X57949500Y-33227525D01*
X57949500Y-33372475D01*
X57987016Y-33512485D01*
X57987017Y-33512488D01*
X58059488Y-33638011D01*
X58059490Y-33638013D01*
X58059491Y-33638015D01*
X58161985Y-33740509D01*
X58161986Y-33740510D01*
X58161988Y-33740511D01*
X58287511Y-33812982D01*
X58287512Y-33812982D01*
X58287515Y-33812984D01*
X58427525Y-33850500D01*
X58427528Y-33850500D01*
X58572472Y-33850500D01*
X58572475Y-33850500D01*
X58712485Y-33812984D01*
X58838015Y-33740509D01*
X58940509Y-33638015D01*
X59012984Y-33512485D01*
X59050500Y-33372475D01*
X59050500Y-33227525D01*
X59012984Y-33087515D01*
X58983530Y-33036500D01*
X58940511Y-32961988D01*
X58940506Y-32961982D01*
X58838017Y-32859493D01*
X58838011Y-32859488D01*
X58712488Y-32787017D01*
X58712489Y-32787017D01*
X58701006Y-32783940D01*
X58572475Y-32749500D01*
X58440918Y-32749500D01*
X58373879Y-32729815D01*
X58328124Y-32677011D01*
X58318180Y-32607853D01*
X58333531Y-32563500D01*
X58362982Y-32512488D01*
X58362981Y-32512488D01*
X58362984Y-32512485D01*
X58400500Y-32372475D01*
X58400500Y-32227525D01*
X58362984Y-32087515D01*
X58296565Y-31972475D01*
X58290511Y-31961988D01*
X58290506Y-31961982D01*
X58286819Y-31958295D01*
X58253334Y-31896972D01*
X58250500Y-31870614D01*
X58250500Y-30764071D01*
X60649499Y-30764071D01*
X60674497Y-30889738D01*
X60674499Y-30889744D01*
X60723533Y-31008124D01*
X60723538Y-31008133D01*
X60794723Y-31114668D01*
X60794726Y-31114672D01*
X60885327Y-31205273D01*
X60885331Y-31205276D01*
X60991866Y-31276461D01*
X60991872Y-31276464D01*
X60991873Y-31276465D01*
X61110256Y-31325501D01*
X61110260Y-31325501D01*
X61110261Y-31325502D01*
X61235928Y-31350500D01*
X61235931Y-31350500D01*
X61364071Y-31350500D01*
X61448615Y-31333682D01*
X61489744Y-31325501D01*
X61608127Y-31276465D01*
X61714669Y-31205276D01*
X61805276Y-31114669D01*
X61876465Y-31008127D01*
X61925501Y-30889744D01*
X61933725Y-30848402D01*
X61950500Y-30764071D01*
X61950500Y-30635928D01*
X61925502Y-30510261D01*
X61925501Y-30510260D01*
X61925501Y-30510256D01*
X61876465Y-30391873D01*
X61876464Y-30391872D01*
X61876461Y-30391866D01*
X61805276Y-30285331D01*
X61805273Y-30285327D01*
X61714672Y-30194726D01*
X61714668Y-30194723D01*
X61608133Y-30123538D01*
X61608124Y-30123533D01*
X61489744Y-30074499D01*
X61489738Y-30074497D01*
X61364071Y-30049500D01*
X61364069Y-30049500D01*
X61235931Y-30049500D01*
X61235929Y-30049500D01*
X61110261Y-30074497D01*
X61110255Y-30074499D01*
X60991875Y-30123533D01*
X60991866Y-30123538D01*
X60885331Y-30194723D01*
X60885327Y-30194726D01*
X60794726Y-30285327D01*
X60794723Y-30285331D01*
X60723538Y-30391866D01*
X60723533Y-30391875D01*
X60674499Y-30510255D01*
X60674497Y-30510261D01*
X60649500Y-30635928D01*
X60649500Y-30635931D01*
X60649500Y-30764069D01*
X60649500Y-30764071D01*
X60649499Y-30764071D01*
X58250500Y-30764071D01*
X58250500Y-28938935D01*
X58270185Y-28871896D01*
X58322989Y-28826141D01*
X58392147Y-28816197D01*
X58443389Y-28835832D01*
X58698213Y-29006100D01*
X58698222Y-29006105D01*
X58698224Y-29006106D01*
X59001530Y-29168227D01*
X59001532Y-29168227D01*
X59001538Y-29168231D01*
X59319295Y-29299850D01*
X59648422Y-29399690D01*
X59985750Y-29466789D01*
X60328031Y-29500500D01*
X60434108Y-29500500D01*
X65632843Y-29500500D01*
X65699882Y-29520185D01*
X65745637Y-29572989D01*
X65755581Y-29642147D01*
X65726556Y-29705703D01*
X65711508Y-29720353D01*
X65579130Y-29828992D01*
X65328992Y-30079130D01*
X65104568Y-30352592D01*
X65104558Y-30352606D01*
X64908028Y-30646734D01*
X64908017Y-30646752D01*
X64741264Y-30958723D01*
X64741262Y-30958728D01*
X64605882Y-31285563D01*
X64503188Y-31624104D01*
X64503185Y-31624115D01*
X64434176Y-31971053D01*
X64434173Y-31971070D01*
X64420245Y-32112488D01*
X64399500Y-32323119D01*
X64399500Y-32676881D01*
X64409923Y-32782707D01*
X64434173Y-33028929D01*
X64434176Y-33028946D01*
X64503185Y-33375884D01*
X64503188Y-33375895D01*
X64605882Y-33714436D01*
X64741262Y-34041271D01*
X64741264Y-34041276D01*
X64908017Y-34353247D01*
X64908028Y-34353265D01*
X65104558Y-34647393D01*
X65104568Y-34647407D01*
X65328992Y-34920869D01*
X65579130Y-35171007D01*
X65579135Y-35171011D01*
X65579136Y-35171012D01*
X65852598Y-35395436D01*
X66146741Y-35591976D01*
X66146750Y-35591981D01*
X66146752Y-35591982D01*
X66193823Y-35617142D01*
X66243667Y-35666104D01*
X66259128Y-35734242D01*
X66235296Y-35799922D01*
X66179739Y-35842290D01*
X66135370Y-35850500D01*
X59889691Y-35850500D01*
X59775114Y-35881201D01*
X59745990Y-35898016D01*
X59745989Y-35898015D01*
X59672389Y-35940508D01*
X59672384Y-35940512D01*
X59001231Y-36611664D01*
X58975554Y-36631368D01*
X58961456Y-36639507D01*
X58961450Y-36639512D01*
X58178736Y-37422227D01*
X58123150Y-37454320D01*
X58034535Y-37478065D01*
X58034528Y-37478068D01*
X57909005Y-37550539D01*
X57908999Y-37550544D01*
X57806510Y-37653033D01*
X57806505Y-37653039D01*
X57734034Y-37778562D01*
X57734033Y-37778566D01*
X57696517Y-37918576D01*
X57696517Y-38063526D01*
X57730543Y-38190511D01*
X57734034Y-38203539D01*
X57806505Y-38329062D01*
X57806507Y-38329064D01*
X57806508Y-38329066D01*
X57909002Y-38431560D01*
X57909003Y-38431561D01*
X57909005Y-38431562D01*
X57918748Y-38437187D01*
X57966965Y-38487753D01*
X57980189Y-38556360D01*
X57976525Y-38576664D01*
X57949500Y-38677525D01*
X57949500Y-38822475D01*
X57987016Y-38962485D01*
X57987017Y-38962488D01*
X58059488Y-39088011D01*
X58059490Y-39088013D01*
X58059491Y-39088015D01*
X58161985Y-39190509D01*
X58161986Y-39190510D01*
X58161988Y-39190511D01*
X58287511Y-39262982D01*
X58287512Y-39262982D01*
X58287515Y-39262984D01*
X58427525Y-39300500D01*
X58427528Y-39300500D01*
X58572472Y-39300500D01*
X58572475Y-39300500D01*
X58712485Y-39262984D01*
X58838015Y-39190509D01*
X58940509Y-39088015D01*
X59012984Y-38962485D01*
X59036729Y-38873864D01*
X59068820Y-38818281D01*
X60400285Y-37486819D01*
X60461608Y-37453334D01*
X60487966Y-37450500D01*
X65598732Y-37450500D01*
X65665771Y-37470185D01*
X65711526Y-37522989D01*
X65721470Y-37592147D01*
X65718509Y-37606580D01*
X65699500Y-37677525D01*
X65699500Y-37822475D01*
X65730081Y-37936603D01*
X65737017Y-37962488D01*
X65809488Y-38088011D01*
X65809490Y-38088013D01*
X65809491Y-38088015D01*
X65911985Y-38190509D01*
X65911986Y-38190510D01*
X65911988Y-38190511D01*
X66037511Y-38262982D01*
X66037512Y-38262982D01*
X66037515Y-38262984D01*
X66177525Y-38300500D01*
X66177528Y-38300500D01*
X66322472Y-38300500D01*
X66322475Y-38300500D01*
X66462485Y-38262984D01*
X66588015Y-38190509D01*
X66690509Y-38088015D01*
X66762984Y-37962485D01*
X66800500Y-37822475D01*
X66800500Y-37677525D01*
X66781493Y-37606590D01*
X66783156Y-37536744D01*
X66822318Y-37478882D01*
X66886546Y-37451377D01*
X66901268Y-37450500D01*
X67262035Y-37450500D01*
X67329074Y-37470185D01*
X67349716Y-37486819D01*
X67763181Y-37900284D01*
X67796666Y-37961607D01*
X67799500Y-37987965D01*
X67799500Y-38496063D01*
X67782887Y-38558062D01*
X67737019Y-38637508D01*
X67737016Y-38637513D01*
X67718258Y-38707520D01*
X67699500Y-38777525D01*
X67699500Y-38922475D01*
X67737016Y-39062485D01*
X67737017Y-39062488D01*
X67809488Y-39188011D01*
X67809490Y-39188013D01*
X67809491Y-39188015D01*
X67911985Y-39290509D01*
X67911986Y-39290510D01*
X67911988Y-39290511D01*
X68037511Y-39362982D01*
X68037512Y-39362982D01*
X68037515Y-39362984D01*
X68177525Y-39400500D01*
X68177528Y-39400500D01*
X68322472Y-39400500D01*
X68322475Y-39400500D01*
X68462485Y-39362984D01*
X68588015Y-39290509D01*
X68690509Y-39188015D01*
X68762984Y-39062485D01*
X68800500Y-38922475D01*
X68800500Y-38777525D01*
X68762984Y-38637515D01*
X68727855Y-38576669D01*
X68717113Y-38558062D01*
X68700500Y-38496063D01*
X68700500Y-37692065D01*
X68700500Y-37690691D01*
X68696972Y-37677525D01*
X75699500Y-37677525D01*
X75699500Y-37822475D01*
X75730081Y-37936603D01*
X75737017Y-37962488D01*
X75809488Y-38088011D01*
X75809490Y-38088013D01*
X75809491Y-38088015D01*
X75911985Y-38190509D01*
X75911986Y-38190510D01*
X75911988Y-38190511D01*
X76037511Y-38262982D01*
X76037512Y-38262982D01*
X76037515Y-38262984D01*
X76177525Y-38300500D01*
X76177528Y-38300500D01*
X76322472Y-38300500D01*
X76322475Y-38300500D01*
X76462485Y-38262984D01*
X76588015Y-38190509D01*
X76690509Y-38088015D01*
X76762984Y-37962485D01*
X76800500Y-37822475D01*
X76800500Y-37677525D01*
X76762984Y-37537515D01*
X76754597Y-37522989D01*
X76690511Y-37411988D01*
X76690506Y-37411982D01*
X76588017Y-37309493D01*
X76588011Y-37309488D01*
X76462488Y-37237017D01*
X76462489Y-37237017D01*
X76451006Y-37233940D01*
X76322475Y-37199500D01*
X76177525Y-37199500D01*
X76048993Y-37233940D01*
X76037511Y-37237017D01*
X75911988Y-37309488D01*
X75911982Y-37309493D01*
X75809493Y-37411982D01*
X75809488Y-37411988D01*
X75737017Y-37537511D01*
X75737016Y-37537515D01*
X75699500Y-37677525D01*
X68696972Y-37677525D01*
X68674970Y-37595413D01*
X68669799Y-37576113D01*
X68610489Y-37473386D01*
X68100284Y-36963181D01*
X68066799Y-36901858D01*
X68071783Y-36832166D01*
X68113655Y-36776233D01*
X68179119Y-36751816D01*
X68187965Y-36751500D01*
X76563035Y-36751500D01*
X76630074Y-36771185D01*
X76650716Y-36787819D01*
X77763181Y-37900284D01*
X77796666Y-37961607D01*
X77799500Y-37987965D01*
X77799500Y-38496063D01*
X77782887Y-38558062D01*
X77737019Y-38637508D01*
X77737016Y-38637513D01*
X77718258Y-38707520D01*
X77699500Y-38777525D01*
X77699500Y-38922475D01*
X77737016Y-39062485D01*
X77737017Y-39062488D01*
X77809488Y-39188011D01*
X77809490Y-39188013D01*
X77809491Y-39188015D01*
X77911985Y-39290509D01*
X77911986Y-39290510D01*
X77911988Y-39290511D01*
X78037511Y-39362982D01*
X78037512Y-39362982D01*
X78037515Y-39362984D01*
X78177525Y-39400500D01*
X78177528Y-39400500D01*
X78322472Y-39400500D01*
X78322475Y-39400500D01*
X78462485Y-39362984D01*
X78588015Y-39290509D01*
X78690509Y-39188015D01*
X78762984Y-39062485D01*
X78800500Y-38922475D01*
X78800500Y-38777525D01*
X78762984Y-38637515D01*
X78727855Y-38576669D01*
X78717113Y-38558062D01*
X78700500Y-38496063D01*
X78700500Y-37690693D01*
X78700500Y-37690691D01*
X78669799Y-37576114D01*
X78628214Y-37504087D01*
X78610489Y-37473386D01*
X77077614Y-35940511D01*
X77021049Y-35907853D01*
X76974888Y-35881201D01*
X76962780Y-35877957D01*
X76950673Y-35874713D01*
X76950670Y-35874712D01*
X76912478Y-35864478D01*
X76860309Y-35850500D01*
X76860308Y-35850500D01*
X69864630Y-35850500D01*
X69797591Y-35830815D01*
X69751836Y-35778011D01*
X69741892Y-35708853D01*
X69770917Y-35645297D01*
X69806177Y-35617142D01*
X69807854Y-35616245D01*
X69853259Y-35591976D01*
X70147402Y-35395436D01*
X70420864Y-35171012D01*
X70671012Y-34920864D01*
X70895436Y-34647402D01*
X71091976Y-34353259D01*
X71258739Y-34041269D01*
X71321190Y-33890498D01*
X71365030Y-33836097D01*
X71431324Y-33814032D01*
X71499023Y-33831311D01*
X71538851Y-33869061D01*
X71684978Y-34087756D01*
X71684985Y-34087765D01*
X71903176Y-34353632D01*
X72146367Y-34596823D01*
X72146372Y-34596827D01*
X72146373Y-34596828D01*
X72412240Y-34815019D01*
X72698213Y-35006100D01*
X72698222Y-35006105D01*
X72698224Y-35006106D01*
X73001530Y-35168227D01*
X73001532Y-35168227D01*
X73001538Y-35168231D01*
X73319295Y-35299850D01*
X73648422Y-35399690D01*
X73985750Y-35466789D01*
X74328031Y-35500500D01*
X74434108Y-35500500D01*
X77934108Y-35500500D01*
X77996249Y-35500500D01*
X78003736Y-35500726D01*
X78293796Y-35518271D01*
X78308659Y-35520076D01*
X78590798Y-35571780D01*
X78605335Y-35575363D01*
X78879172Y-35660695D01*
X78893163Y-35666000D01*
X79154743Y-35783727D01*
X79167989Y-35790680D01*
X79413465Y-35939075D01*
X79425776Y-35947573D01*
X79585852Y-36072984D01*
X79651573Y-36124473D01*
X79662781Y-36134403D01*
X79865596Y-36337218D01*
X79875526Y-36348426D01*
X79995481Y-36501538D01*
X80052422Y-36574217D01*
X80060926Y-36586537D01*
X80092949Y-36639510D01*
X80209316Y-36832004D01*
X80216275Y-36845263D01*
X80333997Y-37106831D01*
X80339306Y-37120832D01*
X80424635Y-37394663D01*
X80428219Y-37409201D01*
X80479923Y-37691340D01*
X80481728Y-37706205D01*
X80499274Y-37996263D01*
X80499500Y-38003750D01*
X80499500Y-49132843D01*
X80479815Y-49199882D01*
X80427011Y-49245637D01*
X80357853Y-49255581D01*
X80294297Y-49226556D01*
X80279647Y-49211508D01*
X80171007Y-49079130D01*
X79920869Y-48828992D01*
X79647407Y-48604568D01*
X79647406Y-48604567D01*
X79647402Y-48604564D01*
X79353259Y-48408024D01*
X79353254Y-48408021D01*
X79353247Y-48408017D01*
X79041276Y-48241264D01*
X79041271Y-48241262D01*
X78983308Y-48217253D01*
X78886156Y-48177011D01*
X78714436Y-48105882D01*
X78375895Y-48003188D01*
X78375884Y-48003185D01*
X78028946Y-47934176D01*
X78028929Y-47934173D01*
X77762700Y-47907952D01*
X77676881Y-47899500D01*
X77323119Y-47899500D01*
X77205624Y-47911072D01*
X77018521Y-47929500D01*
X76949875Y-47916481D01*
X76899165Y-47868416D01*
X76882490Y-47800565D01*
X76905146Y-47734471D01*
X76918686Y-47718416D01*
X77210490Y-47426613D01*
X77269799Y-47323886D01*
X77276333Y-47299501D01*
X77300500Y-47209309D01*
X77300500Y-46303935D01*
X77317112Y-46241936D01*
X77362984Y-46162485D01*
X77400500Y-46022475D01*
X77400500Y-45877525D01*
X77362984Y-45737515D01*
X77341856Y-45700921D01*
X77290511Y-45611988D01*
X77290506Y-45611982D01*
X77188017Y-45509493D01*
X77188011Y-45509488D01*
X77062488Y-45437017D01*
X77062489Y-45437017D01*
X77051006Y-45433940D01*
X76922475Y-45399500D01*
X76777525Y-45399500D01*
X76648993Y-45433940D01*
X76637511Y-45437017D01*
X76511988Y-45509488D01*
X76511982Y-45509493D01*
X76409493Y-45611982D01*
X76409488Y-45611988D01*
X76337017Y-45737511D01*
X76337016Y-45737515D01*
X76299500Y-45877525D01*
X76299500Y-46022475D01*
X76337016Y-46162485D01*
X76382887Y-46241936D01*
X76399500Y-46303935D01*
X76399500Y-46912035D01*
X76379815Y-46979074D01*
X76363181Y-46999716D01*
X75849716Y-47513181D01*
X75788393Y-47546666D01*
X75762035Y-47549500D01*
X71440691Y-47549500D01*
X71371944Y-47567920D01*
X71326112Y-47580201D01*
X71326107Y-47580204D01*
X71282695Y-47605267D01*
X71282696Y-47605268D01*
X71223389Y-47639508D01*
X71223383Y-47639513D01*
X70889513Y-47973383D01*
X70889509Y-47973389D01*
X70830201Y-48076112D01*
X70830200Y-48076117D01*
X70808369Y-48157593D01*
X70772004Y-48217253D01*
X70709158Y-48247783D01*
X70688594Y-48249500D01*
X70506898Y-48249500D01*
X70467853Y-48254188D01*
X70418438Y-48260122D01*
X70277656Y-48315639D01*
X70157077Y-48407077D01*
X70065639Y-48527656D01*
X70010122Y-48668438D01*
X70004188Y-48717853D01*
X69999500Y-48756898D01*
X69999500Y-50243102D01*
X70004599Y-50285563D01*
X70010122Y-50331561D01*
X70065639Y-50472343D01*
X70157077Y-50592922D01*
X70277656Y-50684360D01*
X70277657Y-50684360D01*
X70277658Y-50684361D01*
X70418436Y-50739877D01*
X70506898Y-50750500D01*
X70506903Y-50750500D01*
X71993097Y-50750500D01*
X71993102Y-50750500D01*
X72081564Y-50739877D01*
X72222342Y-50684361D01*
X72342922Y-50592922D01*
X72434361Y-50472342D01*
X72489877Y-50331564D01*
X72500500Y-50243102D01*
X72500500Y-49607525D01*
X72764500Y-49607525D01*
X72764500Y-49752475D01*
X72802016Y-49892485D01*
X72802017Y-49892488D01*
X72874488Y-50018011D01*
X72874490Y-50018013D01*
X72874491Y-50018015D01*
X72976985Y-50120509D01*
X72976986Y-50120510D01*
X72976988Y-50120511D01*
X73102511Y-50192982D01*
X73102512Y-50192982D01*
X73102515Y-50192984D01*
X73242525Y-50230500D01*
X73242528Y-50230500D01*
X73387472Y-50230500D01*
X73387475Y-50230500D01*
X73527485Y-50192984D01*
X73653015Y-50120509D01*
X73755509Y-50018015D01*
X73827984Y-49892485D01*
X73865500Y-49752475D01*
X73865500Y-49607525D01*
X73827984Y-49467515D01*
X73776422Y-49378208D01*
X73755511Y-49341988D01*
X73755506Y-49341982D01*
X73653017Y-49239493D01*
X73653011Y-49239488D01*
X73527488Y-49167017D01*
X73527489Y-49167017D01*
X73516006Y-49163940D01*
X73387475Y-49129500D01*
X73242525Y-49129500D01*
X73113993Y-49163940D01*
X73102511Y-49167017D01*
X72976988Y-49239488D01*
X72976982Y-49239493D01*
X72874493Y-49341982D01*
X72874488Y-49341988D01*
X72802017Y-49467511D01*
X72802016Y-49467515D01*
X72764500Y-49607525D01*
X72500500Y-49607525D01*
X72500500Y-48756898D01*
X72489877Y-48668436D01*
X72470771Y-48619989D01*
X72464491Y-48550403D01*
X72496828Y-48488467D01*
X72557517Y-48453846D01*
X72586127Y-48450500D01*
X75193769Y-48450500D01*
X75260808Y-48470185D01*
X75306563Y-48522989D01*
X75316507Y-48592147D01*
X75287482Y-48655703D01*
X75272434Y-48670353D01*
X75079130Y-48828992D01*
X74828992Y-49079130D01*
X74604568Y-49352592D01*
X74604558Y-49352606D01*
X74408028Y-49646734D01*
X74408017Y-49646752D01*
X74241264Y-49958723D01*
X74241262Y-49958728D01*
X74105882Y-50285563D01*
X74003188Y-50624104D01*
X74003185Y-50624115D01*
X73934176Y-50971053D01*
X73934173Y-50971070D01*
X73899500Y-51323122D01*
X73899500Y-51676877D01*
X73934173Y-52028929D01*
X73934176Y-52028946D01*
X74003185Y-52375884D01*
X74003188Y-52375895D01*
X74105882Y-52714436D01*
X74241262Y-53041271D01*
X74241264Y-53041276D01*
X74408017Y-53353247D01*
X74408028Y-53353265D01*
X74604558Y-53647393D01*
X74604568Y-53647407D01*
X74828992Y-53920869D01*
X75079130Y-54171007D01*
X75211508Y-54279647D01*
X75250842Y-54337392D01*
X75252713Y-54407237D01*
X75216525Y-54467005D01*
X75153770Y-54497721D01*
X75132843Y-54499500D01*
X25867157Y-54499500D01*
X25800118Y-54479815D01*
X25754363Y-54427011D01*
X25744419Y-54357853D01*
X25773444Y-54294297D01*
X25788492Y-54279647D01*
X25824220Y-54250324D01*
X25920864Y-54171012D01*
X26171012Y-53920864D01*
X26395436Y-53647402D01*
X26591976Y-53353259D01*
X26758739Y-53041269D01*
X26894118Y-52714435D01*
X26996809Y-52375905D01*
X26996811Y-52375895D01*
X26996814Y-52375884D01*
X27033611Y-52190889D01*
X27065825Y-52028940D01*
X27067992Y-52006946D01*
X28750000Y-52006946D01*
X28750000Y-52500000D01*
X29451518Y-52500000D01*
X29440889Y-52518409D01*
X29400000Y-52671009D01*
X29400000Y-52828991D01*
X29440889Y-52981591D01*
X29451518Y-53000000D01*
X28750000Y-53000000D01*
X28750000Y-53493053D01*
X28760613Y-53581443D01*
X28816079Y-53722095D01*
X28907435Y-53842564D01*
X29027904Y-53933920D01*
X29168556Y-53989386D01*
X29256946Y-54000000D01*
X29750000Y-54000000D01*
X29750000Y-53298482D01*
X29768409Y-53309111D01*
X29921009Y-53350000D01*
X30078991Y-53350000D01*
X30231591Y-53309111D01*
X30250000Y-53298482D01*
X30250000Y-54000000D01*
X30743054Y-54000000D01*
X30831443Y-53989386D01*
X30972095Y-53933920D01*
X31092564Y-53842564D01*
X31183920Y-53722095D01*
X31239386Y-53581443D01*
X31250000Y-53493053D01*
X31250000Y-53000000D01*
X30548482Y-53000000D01*
X30559111Y-52981591D01*
X30600000Y-52828991D01*
X30600000Y-52671009D01*
X30559111Y-52518409D01*
X30548482Y-52500000D01*
X31250000Y-52500000D01*
X31250000Y-52006949D01*
X31249999Y-52006943D01*
X31249994Y-52006898D01*
X32499500Y-52006898D01*
X32499500Y-53493102D01*
X32505126Y-53539954D01*
X32510122Y-53581561D01*
X32565639Y-53722343D01*
X32657077Y-53842922D01*
X32777656Y-53934360D01*
X32777657Y-53934360D01*
X32777658Y-53934361D01*
X32918436Y-53989877D01*
X33006898Y-54000500D01*
X33006903Y-54000500D01*
X34493097Y-54000500D01*
X34493102Y-54000500D01*
X34581564Y-53989877D01*
X34722342Y-53934361D01*
X34842922Y-53842922D01*
X34934361Y-53722342D01*
X34989877Y-53581564D01*
X35000500Y-53493102D01*
X35000500Y-52006898D01*
X36249500Y-52006898D01*
X36249500Y-53493102D01*
X36255126Y-53539954D01*
X36260122Y-53581561D01*
X36315639Y-53722343D01*
X36407077Y-53842922D01*
X36527656Y-53934360D01*
X36527657Y-53934360D01*
X36527658Y-53934361D01*
X36668436Y-53989877D01*
X36756898Y-54000500D01*
X36756903Y-54000500D01*
X38243097Y-54000500D01*
X38243102Y-54000500D01*
X38331564Y-53989877D01*
X38472342Y-53934361D01*
X38592922Y-53842922D01*
X38684361Y-53722342D01*
X38739877Y-53581564D01*
X38750500Y-53493102D01*
X38750500Y-52006946D01*
X40000000Y-52006946D01*
X40000000Y-52500000D01*
X40701518Y-52500000D01*
X40690889Y-52518409D01*
X40650000Y-52671009D01*
X40650000Y-52828991D01*
X40690889Y-52981591D01*
X40701518Y-53000000D01*
X40000000Y-53000000D01*
X40000000Y-53493053D01*
X40010613Y-53581443D01*
X40066079Y-53722095D01*
X40157435Y-53842564D01*
X40277904Y-53933920D01*
X40418556Y-53989386D01*
X40506946Y-54000000D01*
X41000000Y-54000000D01*
X41000000Y-53298482D01*
X41018409Y-53309111D01*
X41171009Y-53350000D01*
X41328991Y-53350000D01*
X41481591Y-53309111D01*
X41500000Y-53298482D01*
X41500000Y-54000000D01*
X41993054Y-54000000D01*
X42081443Y-53989386D01*
X42222095Y-53933920D01*
X42342564Y-53842564D01*
X42433920Y-53722095D01*
X42489386Y-53581443D01*
X42500000Y-53493053D01*
X42500000Y-53000000D01*
X41798482Y-53000000D01*
X41809111Y-52981591D01*
X41850000Y-52828991D01*
X41850000Y-52671009D01*
X41809111Y-52518409D01*
X41798482Y-52500000D01*
X42500000Y-52500000D01*
X42500000Y-52006949D01*
X42499999Y-52006943D01*
X42499994Y-52006898D01*
X43749500Y-52006898D01*
X43749500Y-53493102D01*
X43755126Y-53539954D01*
X43760122Y-53581561D01*
X43815639Y-53722343D01*
X43907077Y-53842922D01*
X44027656Y-53934360D01*
X44027657Y-53934360D01*
X44027658Y-53934361D01*
X44168436Y-53989877D01*
X44256898Y-54000500D01*
X44256903Y-54000500D01*
X45743097Y-54000500D01*
X45743102Y-54000500D01*
X45831564Y-53989877D01*
X45972342Y-53934361D01*
X46092922Y-53842922D01*
X46184361Y-53722342D01*
X46239877Y-53581564D01*
X46250500Y-53493102D01*
X46250500Y-52006898D01*
X47499500Y-52006898D01*
X47499500Y-53493102D01*
X47505126Y-53539954D01*
X47510122Y-53581561D01*
X47565639Y-53722343D01*
X47657077Y-53842922D01*
X47777656Y-53934360D01*
X47777657Y-53934360D01*
X47777658Y-53934361D01*
X47918436Y-53989877D01*
X48006898Y-54000500D01*
X48006903Y-54000500D01*
X49493097Y-54000500D01*
X49493102Y-54000500D01*
X49581564Y-53989877D01*
X49722342Y-53934361D01*
X49842922Y-53842922D01*
X49934361Y-53722342D01*
X49989877Y-53581564D01*
X50000500Y-53493102D01*
X50000500Y-52006946D01*
X51250000Y-52006946D01*
X51250000Y-52500000D01*
X51951518Y-52500000D01*
X51940889Y-52518409D01*
X51900000Y-52671009D01*
X51900000Y-52828991D01*
X51940889Y-52981591D01*
X51951518Y-53000000D01*
X51250000Y-53000000D01*
X51250000Y-53493053D01*
X51260613Y-53581443D01*
X51316079Y-53722095D01*
X51407435Y-53842564D01*
X51527904Y-53933920D01*
X51668556Y-53989386D01*
X51756946Y-54000000D01*
X52250000Y-54000000D01*
X52250000Y-53298482D01*
X52268409Y-53309111D01*
X52421009Y-53350000D01*
X52578991Y-53350000D01*
X52731591Y-53309111D01*
X52750000Y-53298482D01*
X52750000Y-54000000D01*
X53243054Y-54000000D01*
X53331443Y-53989386D01*
X53472095Y-53933920D01*
X53592564Y-53842564D01*
X53683920Y-53722095D01*
X53739386Y-53581443D01*
X53750000Y-53493053D01*
X53750000Y-53000000D01*
X53048482Y-53000000D01*
X53059111Y-52981591D01*
X53100000Y-52828991D01*
X53100000Y-52671009D01*
X53059111Y-52518409D01*
X53048482Y-52500000D01*
X53750000Y-52500000D01*
X53750000Y-52006949D01*
X53749999Y-52006943D01*
X53749994Y-52006898D01*
X54999500Y-52006898D01*
X54999500Y-53493102D01*
X55005126Y-53539954D01*
X55010122Y-53581561D01*
X55065639Y-53722343D01*
X55157077Y-53842922D01*
X55277656Y-53934360D01*
X55277657Y-53934360D01*
X55277658Y-53934361D01*
X55418436Y-53989877D01*
X55506898Y-54000500D01*
X55506903Y-54000500D01*
X56993097Y-54000500D01*
X56993102Y-54000500D01*
X57081564Y-53989877D01*
X57222342Y-53934361D01*
X57342922Y-53842922D01*
X57434361Y-53722342D01*
X57489877Y-53581564D01*
X57500500Y-53493102D01*
X57500500Y-52006898D01*
X58749500Y-52006898D01*
X58749500Y-53493102D01*
X58755126Y-53539954D01*
X58760122Y-53581561D01*
X58815639Y-53722343D01*
X58907077Y-53842922D01*
X59027656Y-53934360D01*
X59027657Y-53934360D01*
X59027658Y-53934361D01*
X59168436Y-53989877D01*
X59256898Y-54000500D01*
X59256903Y-54000500D01*
X60743097Y-54000500D01*
X60743102Y-54000500D01*
X60831564Y-53989877D01*
X60972342Y-53934361D01*
X61092922Y-53842922D01*
X61184361Y-53722342D01*
X61239877Y-53581564D01*
X61250500Y-53493102D01*
X61250500Y-52006946D01*
X62500000Y-52006946D01*
X62500000Y-52500000D01*
X63201518Y-52500000D01*
X63190889Y-52518409D01*
X63150000Y-52671009D01*
X63150000Y-52828991D01*
X63190889Y-52981591D01*
X63201518Y-53000000D01*
X62500000Y-53000000D01*
X62500000Y-53493053D01*
X62510613Y-53581443D01*
X62566079Y-53722095D01*
X62657435Y-53842564D01*
X62777904Y-53933920D01*
X62918556Y-53989386D01*
X63006946Y-54000000D01*
X63500000Y-54000000D01*
X63500000Y-53298482D01*
X63518409Y-53309111D01*
X63671009Y-53350000D01*
X63828991Y-53350000D01*
X63981591Y-53309111D01*
X64000000Y-53298482D01*
X64000000Y-54000000D01*
X64493054Y-54000000D01*
X64581443Y-53989386D01*
X64722095Y-53933920D01*
X64842564Y-53842564D01*
X64933920Y-53722095D01*
X64989386Y-53581443D01*
X65000000Y-53493053D01*
X65000000Y-53000000D01*
X64298482Y-53000000D01*
X64309111Y-52981591D01*
X64350000Y-52828991D01*
X64350000Y-52671009D01*
X64309111Y-52518409D01*
X64298482Y-52500000D01*
X65000000Y-52500000D01*
X65000000Y-52006949D01*
X64999999Y-52006943D01*
X64999994Y-52006898D01*
X66249500Y-52006898D01*
X66249500Y-53493102D01*
X66255126Y-53539954D01*
X66260122Y-53581561D01*
X66315639Y-53722343D01*
X66407077Y-53842922D01*
X66527656Y-53934360D01*
X66527657Y-53934360D01*
X66527658Y-53934361D01*
X66668436Y-53989877D01*
X66756898Y-54000500D01*
X66756903Y-54000500D01*
X68243097Y-54000500D01*
X68243102Y-54000500D01*
X68331564Y-53989877D01*
X68472342Y-53934361D01*
X68592922Y-53842922D01*
X68684361Y-53722342D01*
X68739877Y-53581564D01*
X68750500Y-53493102D01*
X68750500Y-52006898D01*
X69999500Y-52006898D01*
X69999500Y-53493102D01*
X70005126Y-53539954D01*
X70010122Y-53581561D01*
X70065639Y-53722343D01*
X70157077Y-53842922D01*
X70277656Y-53934360D01*
X70277657Y-53934360D01*
X70277658Y-53934361D01*
X70418436Y-53989877D01*
X70506898Y-54000500D01*
X70506903Y-54000500D01*
X71993097Y-54000500D01*
X71993102Y-54000500D01*
X72081564Y-53989877D01*
X72222342Y-53934361D01*
X72342922Y-53842922D01*
X72434361Y-53722342D01*
X72489877Y-53581564D01*
X72500500Y-53493102D01*
X72500500Y-52006898D01*
X72489877Y-51918436D01*
X72434361Y-51777658D01*
X72434360Y-51777657D01*
X72434360Y-51777656D01*
X72342922Y-51657077D01*
X72222343Y-51565639D01*
X72126192Y-51527722D01*
X72081564Y-51510123D01*
X72081563Y-51510122D01*
X72081561Y-51510122D01*
X72035926Y-51504642D01*
X71993102Y-51499500D01*
X70506898Y-51499500D01*
X70467853Y-51504188D01*
X70418438Y-51510122D01*
X70277656Y-51565639D01*
X70157077Y-51657077D01*
X70065639Y-51777656D01*
X70010122Y-51918438D01*
X70004188Y-51967853D01*
X69999500Y-52006898D01*
X68750500Y-52006898D01*
X68739877Y-51918436D01*
X68684361Y-51777658D01*
X68684360Y-51777657D01*
X68684360Y-51777656D01*
X68592922Y-51657077D01*
X68472343Y-51565639D01*
X68376192Y-51527722D01*
X68331564Y-51510123D01*
X68331563Y-51510122D01*
X68331561Y-51510122D01*
X68285926Y-51504642D01*
X68243102Y-51499500D01*
X66756898Y-51499500D01*
X66717853Y-51504188D01*
X66668438Y-51510122D01*
X66527656Y-51565639D01*
X66407077Y-51657077D01*
X66315639Y-51777656D01*
X66260122Y-51918438D01*
X66254188Y-51967853D01*
X66249500Y-52006898D01*
X64999994Y-52006898D01*
X64989386Y-51918556D01*
X64933920Y-51777904D01*
X64842564Y-51657435D01*
X64722095Y-51566079D01*
X64581443Y-51510613D01*
X64493054Y-51500000D01*
X64000000Y-51500000D01*
X64000000Y-52201517D01*
X63981591Y-52190889D01*
X63828991Y-52150000D01*
X63671009Y-52150000D01*
X63518409Y-52190889D01*
X63500000Y-52201517D01*
X63500000Y-51500000D01*
X63006946Y-51500000D01*
X62918556Y-51510613D01*
X62777904Y-51566079D01*
X62657435Y-51657435D01*
X62566079Y-51777904D01*
X62510613Y-51918556D01*
X62500000Y-52006946D01*
X61250500Y-52006946D01*
X61250500Y-52006898D01*
X61239877Y-51918436D01*
X61184361Y-51777658D01*
X61184360Y-51777657D01*
X61184360Y-51777656D01*
X61092922Y-51657077D01*
X60972343Y-51565639D01*
X60876192Y-51527722D01*
X60831564Y-51510123D01*
X60831563Y-51510122D01*
X60831561Y-51510122D01*
X60785926Y-51504642D01*
X60743102Y-51499500D01*
X59256898Y-51499500D01*
X59217853Y-51504188D01*
X59168438Y-51510122D01*
X59027656Y-51565639D01*
X58907077Y-51657077D01*
X58815639Y-51777656D01*
X58760122Y-51918438D01*
X58754188Y-51967853D01*
X58749500Y-52006898D01*
X57500500Y-52006898D01*
X57489877Y-51918436D01*
X57434361Y-51777658D01*
X57434360Y-51777657D01*
X57434360Y-51777656D01*
X57342922Y-51657077D01*
X57222343Y-51565639D01*
X57126192Y-51527722D01*
X57081564Y-51510123D01*
X57081563Y-51510122D01*
X57081561Y-51510122D01*
X57035926Y-51504642D01*
X56993102Y-51499500D01*
X55506898Y-51499500D01*
X55467853Y-51504188D01*
X55418438Y-51510122D01*
X55277656Y-51565639D01*
X55157077Y-51657077D01*
X55065639Y-51777656D01*
X55010122Y-51918438D01*
X55004188Y-51967853D01*
X54999500Y-52006898D01*
X53749994Y-52006898D01*
X53739386Y-51918556D01*
X53683920Y-51777904D01*
X53592564Y-51657435D01*
X53472095Y-51566079D01*
X53331443Y-51510613D01*
X53243054Y-51500000D01*
X52750000Y-51500000D01*
X52750000Y-52201517D01*
X52731591Y-52190889D01*
X52578991Y-52150000D01*
X52421009Y-52150000D01*
X52268409Y-52190889D01*
X52250000Y-52201517D01*
X52250000Y-51500000D01*
X51756946Y-51500000D01*
X51668556Y-51510613D01*
X51527904Y-51566079D01*
X51407435Y-51657435D01*
X51316079Y-51777904D01*
X51260613Y-51918556D01*
X51250000Y-52006946D01*
X50000500Y-52006946D01*
X50000500Y-52006898D01*
X49989877Y-51918436D01*
X49934361Y-51777658D01*
X49934360Y-51777657D01*
X49934360Y-51777656D01*
X49842922Y-51657077D01*
X49722343Y-51565639D01*
X49626192Y-51527722D01*
X49581564Y-51510123D01*
X49581563Y-51510122D01*
X49581561Y-51510122D01*
X49535926Y-51504642D01*
X49493102Y-51499500D01*
X48006898Y-51499500D01*
X47967853Y-51504188D01*
X47918438Y-51510122D01*
X47777656Y-51565639D01*
X47657077Y-51657077D01*
X47565639Y-51777656D01*
X47510122Y-51918438D01*
X47504188Y-51967853D01*
X47499500Y-52006898D01*
X46250500Y-52006898D01*
X46239877Y-51918436D01*
X46184361Y-51777658D01*
X46184360Y-51777657D01*
X46184360Y-51777656D01*
X46092922Y-51657077D01*
X45972343Y-51565639D01*
X45876192Y-51527722D01*
X45831564Y-51510123D01*
X45831563Y-51510122D01*
X45831561Y-51510122D01*
X45785926Y-51504642D01*
X45743102Y-51499500D01*
X44256898Y-51499500D01*
X44217853Y-51504188D01*
X44168438Y-51510122D01*
X44027656Y-51565639D01*
X43907077Y-51657077D01*
X43815639Y-51777656D01*
X43760122Y-51918438D01*
X43754188Y-51967853D01*
X43749500Y-52006898D01*
X42499994Y-52006898D01*
X42489386Y-51918556D01*
X42433920Y-51777904D01*
X42342564Y-51657435D01*
X42222095Y-51566079D01*
X42081443Y-51510613D01*
X41993054Y-51500000D01*
X41500000Y-51500000D01*
X41500000Y-52201517D01*
X41481591Y-52190889D01*
X41328991Y-52150000D01*
X41171009Y-52150000D01*
X41018409Y-52190889D01*
X41000000Y-52201517D01*
X41000000Y-51500000D01*
X40506946Y-51500000D01*
X40418556Y-51510613D01*
X40277904Y-51566079D01*
X40157435Y-51657435D01*
X40066079Y-51777904D01*
X40010613Y-51918556D01*
X40000000Y-52006946D01*
X38750500Y-52006946D01*
X38750500Y-52006898D01*
X38739877Y-51918436D01*
X38684361Y-51777658D01*
X38684360Y-51777657D01*
X38684360Y-51777656D01*
X38592922Y-51657077D01*
X38472343Y-51565639D01*
X38376192Y-51527722D01*
X38331564Y-51510123D01*
X38331563Y-51510122D01*
X38331561Y-51510122D01*
X38285926Y-51504642D01*
X38243102Y-51499500D01*
X36756898Y-51499500D01*
X36717853Y-51504188D01*
X36668438Y-51510122D01*
X36527656Y-51565639D01*
X36407077Y-51657077D01*
X36315639Y-51777656D01*
X36260122Y-51918438D01*
X36254188Y-51967853D01*
X36249500Y-52006898D01*
X35000500Y-52006898D01*
X34989877Y-51918436D01*
X34934361Y-51777658D01*
X34934360Y-51777657D01*
X34934360Y-51777656D01*
X34842922Y-51657077D01*
X34722343Y-51565639D01*
X34626192Y-51527722D01*
X34581564Y-51510123D01*
X34581563Y-51510122D01*
X34581561Y-51510122D01*
X34535926Y-51504642D01*
X34493102Y-51499500D01*
X33006898Y-51499500D01*
X32967853Y-51504188D01*
X32918438Y-51510122D01*
X32777656Y-51565639D01*
X32657077Y-51657077D01*
X32565639Y-51777656D01*
X32510122Y-51918438D01*
X32504188Y-51967853D01*
X32499500Y-52006898D01*
X31249994Y-52006898D01*
X31239386Y-51918556D01*
X31183920Y-51777904D01*
X31092564Y-51657435D01*
X30972095Y-51566079D01*
X30831443Y-51510613D01*
X30743054Y-51500000D01*
X30250000Y-51500000D01*
X30250000Y-52201517D01*
X30231591Y-52190889D01*
X30078991Y-52150000D01*
X29921009Y-52150000D01*
X29768409Y-52190889D01*
X29750000Y-52201517D01*
X29750000Y-51500000D01*
X29256946Y-51500000D01*
X29168556Y-51510613D01*
X29027904Y-51566079D01*
X28907435Y-51657435D01*
X28816079Y-51777904D01*
X28760613Y-51918556D01*
X28750000Y-52006946D01*
X27067992Y-52006946D01*
X27067992Y-52006943D01*
X27069554Y-51991081D01*
X27069554Y-51991080D01*
X27100500Y-51676877D01*
X27100500Y-51323122D01*
X27065826Y-50971070D01*
X27065825Y-50971069D01*
X27065825Y-50971060D01*
X27008797Y-50684360D01*
X26996814Y-50624115D01*
X26996811Y-50624104D01*
X26996810Y-50624101D01*
X26996809Y-50624095D01*
X26894118Y-50285565D01*
X26758739Y-49958731D01*
X26755176Y-49952065D01*
X26597917Y-49657855D01*
X26597916Y-49657854D01*
X26591976Y-49646741D01*
X26565773Y-49607525D01*
X27044500Y-49607525D01*
X27044500Y-49752475D01*
X27082016Y-49892485D01*
X27082017Y-49892488D01*
X27154488Y-50018011D01*
X27154490Y-50018013D01*
X27154491Y-50018015D01*
X27256985Y-50120509D01*
X27256986Y-50120510D01*
X27256988Y-50120511D01*
X27382511Y-50192982D01*
X27382512Y-50192982D01*
X27382515Y-50192984D01*
X27522525Y-50230500D01*
X27522528Y-50230500D01*
X27667472Y-50230500D01*
X27667475Y-50230500D01*
X27807485Y-50192984D01*
X27933015Y-50120509D01*
X28035509Y-50018015D01*
X28107984Y-49892485D01*
X28145500Y-49752475D01*
X28145500Y-49607525D01*
X28107984Y-49467515D01*
X28056422Y-49378208D01*
X28035511Y-49341988D01*
X28035506Y-49341982D01*
X27933017Y-49239493D01*
X27933011Y-49239488D01*
X27807488Y-49167017D01*
X27807489Y-49167017D01*
X27796006Y-49163940D01*
X27667475Y-49129500D01*
X27522525Y-49129500D01*
X27393993Y-49163940D01*
X27382511Y-49167017D01*
X27256988Y-49239488D01*
X27256982Y-49239493D01*
X27154493Y-49341982D01*
X27154488Y-49341988D01*
X27082017Y-49467511D01*
X27082016Y-49467515D01*
X27044500Y-49607525D01*
X26565773Y-49607525D01*
X26395436Y-49352598D01*
X26171012Y-49079136D01*
X26171011Y-49079135D01*
X26171007Y-49079130D01*
X25920869Y-48828992D01*
X25647407Y-48604568D01*
X25647406Y-48604567D01*
X25647402Y-48604564D01*
X25353259Y-48408024D01*
X25353254Y-48408021D01*
X25353247Y-48408017D01*
X25041276Y-48241264D01*
X25041271Y-48241262D01*
X24983308Y-48217253D01*
X24886156Y-48177011D01*
X24714436Y-48105882D01*
X24375895Y-48003188D01*
X24375884Y-48003185D01*
X24028946Y-47934176D01*
X24028929Y-47934173D01*
X23762700Y-47907952D01*
X23676881Y-47899500D01*
X23323119Y-47899500D01*
X23243748Y-47907317D01*
X22971070Y-47934173D01*
X22971053Y-47934176D01*
X22624115Y-48003185D01*
X22624104Y-48003188D01*
X22285563Y-48105882D01*
X21958728Y-48241262D01*
X21958723Y-48241264D01*
X21646752Y-48408017D01*
X21646734Y-48408028D01*
X21352606Y-48604558D01*
X21352592Y-48604568D01*
X21079130Y-48828992D01*
X20828992Y-49079130D01*
X20720353Y-49211508D01*
X20662608Y-49250842D01*
X20592763Y-49252713D01*
X20532995Y-49216525D01*
X20502279Y-49153770D01*
X20500500Y-49132843D01*
X20500500Y-47067525D01*
X21964500Y-47067525D01*
X21964500Y-47212475D01*
X22002016Y-47352485D01*
X22002017Y-47352488D01*
X22074488Y-47478011D01*
X22074490Y-47478013D01*
X22074491Y-47478015D01*
X22176985Y-47580509D01*
X22176986Y-47580510D01*
X22176988Y-47580511D01*
X22302511Y-47652982D01*
X22302512Y-47652982D01*
X22302515Y-47652984D01*
X22442525Y-47690500D01*
X22442528Y-47690500D01*
X22587472Y-47690500D01*
X22587475Y-47690500D01*
X22727485Y-47652984D01*
X22853015Y-47580509D01*
X22955509Y-47478015D01*
X23027984Y-47352485D01*
X23065500Y-47212475D01*
X23065500Y-47067525D01*
X23027984Y-46927515D01*
X23006422Y-46890169D01*
X22955511Y-46801988D01*
X22955506Y-46801982D01*
X22853017Y-46699493D01*
X22853011Y-46699488D01*
X22727488Y-46627017D01*
X22727489Y-46627017D01*
X22716006Y-46623940D01*
X22587475Y-46589500D01*
X22442525Y-46589500D01*
X22313993Y-46623940D01*
X22302511Y-46627017D01*
X22176988Y-46699488D01*
X22176982Y-46699493D01*
X22074493Y-46801982D01*
X22074488Y-46801988D01*
X22002017Y-46927511D01*
X22002016Y-46927515D01*
X21964500Y-47067525D01*
X20500500Y-47067525D01*
X20500500Y-45877525D01*
X27199500Y-45877525D01*
X27199500Y-46022475D01*
X27237016Y-46162485D01*
X27282887Y-46241936D01*
X27299500Y-46303935D01*
X27299500Y-47309309D01*
X27313214Y-47360489D01*
X27330201Y-47423887D01*
X27389511Y-47526614D01*
X28223386Y-48360489D01*
X28326113Y-48419799D01*
X28350321Y-48426284D01*
X28350324Y-48426286D01*
X28350325Y-48426286D01*
X28380447Y-48434357D01*
X28440691Y-48450500D01*
X28663873Y-48450500D01*
X28730912Y-48470185D01*
X28776667Y-48522989D01*
X28786611Y-48592147D01*
X28779228Y-48619990D01*
X28760122Y-48668438D01*
X28754188Y-48717853D01*
X28749500Y-48756898D01*
X28749500Y-50243102D01*
X28754599Y-50285563D01*
X28760122Y-50331561D01*
X28815639Y-50472343D01*
X28907077Y-50592922D01*
X29027656Y-50684360D01*
X29027657Y-50684360D01*
X29027658Y-50684361D01*
X29168436Y-50739877D01*
X29256898Y-50750500D01*
X29256903Y-50750500D01*
X30743097Y-50750500D01*
X30743102Y-50750500D01*
X30831564Y-50739877D01*
X30972342Y-50684361D01*
X31092922Y-50592922D01*
X31184361Y-50472342D01*
X31239877Y-50331564D01*
X31250500Y-50243102D01*
X31250500Y-48756898D01*
X32499500Y-48756898D01*
X32499500Y-50243102D01*
X32504599Y-50285563D01*
X32510122Y-50331561D01*
X32565639Y-50472343D01*
X32657077Y-50592922D01*
X32777656Y-50684360D01*
X32777657Y-50684360D01*
X32777658Y-50684361D01*
X32918436Y-50739877D01*
X33006898Y-50750500D01*
X33006903Y-50750500D01*
X34493097Y-50750500D01*
X34493102Y-50750500D01*
X34581564Y-50739877D01*
X34722342Y-50684361D01*
X34842922Y-50592922D01*
X34934361Y-50472342D01*
X34989877Y-50331564D01*
X35000500Y-50243102D01*
X35000500Y-48756898D01*
X34989877Y-48668436D01*
X34970771Y-48619989D01*
X34964491Y-48550403D01*
X34996828Y-48488467D01*
X35057517Y-48453846D01*
X35086127Y-48450500D01*
X36163873Y-48450500D01*
X36230912Y-48470185D01*
X36276667Y-48522989D01*
X36286611Y-48592147D01*
X36279228Y-48619990D01*
X36260122Y-48668438D01*
X36254188Y-48717853D01*
X36249500Y-48756898D01*
X36249500Y-50243102D01*
X36254599Y-50285563D01*
X36260122Y-50331561D01*
X36315639Y-50472343D01*
X36407077Y-50592922D01*
X36527656Y-50684360D01*
X36527657Y-50684360D01*
X36527658Y-50684361D01*
X36668436Y-50739877D01*
X36756898Y-50750500D01*
X36756903Y-50750500D01*
X38243097Y-50750500D01*
X38243102Y-50750500D01*
X38331564Y-50739877D01*
X38472342Y-50684361D01*
X38592922Y-50592922D01*
X38684361Y-50472342D01*
X38739877Y-50331564D01*
X38750500Y-50243102D01*
X38750500Y-48756898D01*
X39999500Y-48756898D01*
X39999500Y-50243102D01*
X40004599Y-50285563D01*
X40010122Y-50331561D01*
X40065639Y-50472343D01*
X40157077Y-50592922D01*
X40277656Y-50684360D01*
X40277657Y-50684360D01*
X40277658Y-50684361D01*
X40418436Y-50739877D01*
X40506898Y-50750500D01*
X40506903Y-50750500D01*
X41993097Y-50750500D01*
X41993102Y-50750500D01*
X42081564Y-50739877D01*
X42222342Y-50684361D01*
X42342922Y-50592922D01*
X42434361Y-50472342D01*
X42489877Y-50331564D01*
X42500500Y-50243102D01*
X42500500Y-48756898D01*
X43749500Y-48756898D01*
X43749500Y-50243102D01*
X43754599Y-50285563D01*
X43760122Y-50331561D01*
X43815639Y-50472343D01*
X43907077Y-50592922D01*
X44027656Y-50684360D01*
X44027657Y-50684360D01*
X44027658Y-50684361D01*
X44168436Y-50739877D01*
X44256898Y-50750500D01*
X44256903Y-50750500D01*
X45743097Y-50750500D01*
X45743102Y-50750500D01*
X45831564Y-50739877D01*
X45972342Y-50684361D01*
X46092922Y-50592922D01*
X46184361Y-50472342D01*
X46239877Y-50331564D01*
X46250500Y-50243102D01*
X46250500Y-48756898D01*
X47499500Y-48756898D01*
X47499500Y-50243102D01*
X47504599Y-50285563D01*
X47510122Y-50331561D01*
X47565639Y-50472343D01*
X47657077Y-50592922D01*
X47777656Y-50684360D01*
X47777657Y-50684360D01*
X47777658Y-50684361D01*
X47918436Y-50739877D01*
X48006898Y-50750500D01*
X48006903Y-50750500D01*
X49493097Y-50750500D01*
X49493102Y-50750500D01*
X49581564Y-50739877D01*
X49722342Y-50684361D01*
X49842922Y-50592922D01*
X49934361Y-50472342D01*
X49989877Y-50331564D01*
X49999418Y-50252108D01*
X50026954Y-50187898D01*
X50084836Y-50148764D01*
X50154687Y-50147136D01*
X50184530Y-50159506D01*
X50242515Y-50192984D01*
X50382525Y-50230500D01*
X50382528Y-50230500D01*
X50527472Y-50230500D01*
X50527475Y-50230500D01*
X50667485Y-50192984D01*
X50793015Y-50120509D01*
X50895509Y-50018015D01*
X50967984Y-49892485D01*
X51005500Y-49752475D01*
X51005500Y-49607525D01*
X50967984Y-49467515D01*
X50916422Y-49378208D01*
X50895511Y-49341988D01*
X50895506Y-49341982D01*
X50793017Y-49239493D01*
X50793011Y-49239488D01*
X50667488Y-49167017D01*
X50667489Y-49167017D01*
X50656006Y-49163940D01*
X50527475Y-49129500D01*
X50382525Y-49129500D01*
X50253993Y-49163940D01*
X50242511Y-49167017D01*
X50186500Y-49199356D01*
X50118600Y-49215829D01*
X50052573Y-49192977D01*
X50009383Y-49138056D01*
X50000500Y-49091969D01*
X50000500Y-48756903D01*
X50000500Y-48756898D01*
X51249500Y-48756898D01*
X51249500Y-50243102D01*
X51254599Y-50285563D01*
X51260122Y-50331561D01*
X51315639Y-50472343D01*
X51407077Y-50592922D01*
X51527656Y-50684360D01*
X51527657Y-50684360D01*
X51527658Y-50684361D01*
X51668436Y-50739877D01*
X51756898Y-50750500D01*
X51756903Y-50750500D01*
X53243097Y-50750500D01*
X53243102Y-50750500D01*
X53331564Y-50739877D01*
X53472342Y-50684361D01*
X53592922Y-50592922D01*
X53684361Y-50472342D01*
X53739877Y-50331564D01*
X53750500Y-50243102D01*
X53750500Y-48756898D01*
X54999500Y-48756898D01*
X54999500Y-50243102D01*
X55004599Y-50285563D01*
X55010122Y-50331561D01*
X55065639Y-50472343D01*
X55157077Y-50592922D01*
X55277656Y-50684360D01*
X55277657Y-50684360D01*
X55277658Y-50684361D01*
X55418436Y-50739877D01*
X55506898Y-50750500D01*
X55506903Y-50750500D01*
X56993097Y-50750500D01*
X56993102Y-50750500D01*
X57081564Y-50739877D01*
X57222342Y-50684361D01*
X57342922Y-50592922D01*
X57434361Y-50472342D01*
X57489877Y-50331564D01*
X57500500Y-50243102D01*
X57500500Y-50183386D01*
X57520185Y-50116347D01*
X57572989Y-50070592D01*
X57642147Y-50060648D01*
X57705703Y-50089673D01*
X57712181Y-50095705D01*
X57736985Y-50120509D01*
X57736986Y-50120510D01*
X57736988Y-50120511D01*
X57862511Y-50192982D01*
X57862512Y-50192982D01*
X57862515Y-50192984D01*
X58002525Y-50230500D01*
X58002528Y-50230500D01*
X58147472Y-50230500D01*
X58147475Y-50230500D01*
X58287485Y-50192984D01*
X58413015Y-50120509D01*
X58515509Y-50018015D01*
X58518112Y-50013505D01*
X58568677Y-49965290D01*
X58637284Y-49952065D01*
X58702149Y-49978031D01*
X58742679Y-50034945D01*
X58749500Y-50075504D01*
X58749500Y-50243102D01*
X58754599Y-50285563D01*
X58760122Y-50331561D01*
X58815639Y-50472343D01*
X58907077Y-50592922D01*
X59027656Y-50684360D01*
X59027657Y-50684360D01*
X59027658Y-50684361D01*
X59168436Y-50739877D01*
X59256898Y-50750500D01*
X59256903Y-50750500D01*
X60743097Y-50750500D01*
X60743102Y-50750500D01*
X60831564Y-50739877D01*
X60972342Y-50684361D01*
X61092922Y-50592922D01*
X61184361Y-50472342D01*
X61239877Y-50331564D01*
X61250500Y-50243102D01*
X61250500Y-48756898D01*
X61239877Y-48668436D01*
X61220771Y-48619989D01*
X61214491Y-48550403D01*
X61246828Y-48488467D01*
X61307517Y-48453846D01*
X61336127Y-48450500D01*
X62413873Y-48450500D01*
X62480912Y-48470185D01*
X62526667Y-48522989D01*
X62536611Y-48592147D01*
X62529228Y-48619990D01*
X62510122Y-48668438D01*
X62504188Y-48717853D01*
X62499500Y-48756898D01*
X62499500Y-50243102D01*
X62504599Y-50285563D01*
X62510122Y-50331561D01*
X62565639Y-50472343D01*
X62657077Y-50592922D01*
X62777656Y-50684360D01*
X62777657Y-50684360D01*
X62777658Y-50684361D01*
X62918436Y-50739877D01*
X63006898Y-50750500D01*
X63006903Y-50750500D01*
X64493097Y-50750500D01*
X64493102Y-50750500D01*
X64581564Y-50739877D01*
X64722342Y-50684361D01*
X64842922Y-50592922D01*
X64934361Y-50472342D01*
X64989877Y-50331564D01*
X65000500Y-50243102D01*
X65000500Y-48756898D01*
X64989877Y-48668436D01*
X64934361Y-48527658D01*
X64934360Y-48527657D01*
X64934360Y-48527656D01*
X64842922Y-48407077D01*
X64722343Y-48315639D01*
X64581561Y-48260122D01*
X64535926Y-48254642D01*
X64493102Y-48249500D01*
X64493097Y-48249500D01*
X64187966Y-48249500D01*
X64120927Y-48229815D01*
X64100285Y-48213181D01*
X63526616Y-47639513D01*
X63526614Y-47639511D01*
X63424424Y-47580511D01*
X63423889Y-47580202D01*
X63423888Y-47580201D01*
X63423887Y-47580201D01*
X63385065Y-47569799D01*
X63385062Y-47569798D01*
X63353045Y-47561219D01*
X63309309Y-47549500D01*
X63309308Y-47549500D01*
X60737965Y-47549500D01*
X60670926Y-47529815D01*
X60650284Y-47513181D01*
X60204628Y-47067525D01*
X65144500Y-47067525D01*
X65144500Y-47212475D01*
X65182016Y-47352485D01*
X65182017Y-47352488D01*
X65254488Y-47478011D01*
X65254490Y-47478013D01*
X65254491Y-47478015D01*
X65356985Y-47580509D01*
X65356986Y-47580510D01*
X65356988Y-47580511D01*
X65482511Y-47652982D01*
X65482512Y-47652982D01*
X65482515Y-47652984D01*
X65622525Y-47690500D01*
X65622528Y-47690500D01*
X65767472Y-47690500D01*
X65767475Y-47690500D01*
X65907485Y-47652984D01*
X66033015Y-47580509D01*
X66135509Y-47478015D01*
X66168113Y-47421542D01*
X66218680Y-47373327D01*
X66287287Y-47360104D01*
X66352152Y-47386072D01*
X66392680Y-47442986D01*
X66399500Y-47483543D01*
X66399500Y-48375371D01*
X66379815Y-48442410D01*
X66374304Y-48450296D01*
X66315639Y-48527656D01*
X66260122Y-48668438D01*
X66254188Y-48717853D01*
X66249500Y-48756898D01*
X66249500Y-50243102D01*
X66254599Y-50285563D01*
X66260122Y-50331561D01*
X66315639Y-50472343D01*
X66407077Y-50592922D01*
X66527656Y-50684360D01*
X66527657Y-50684360D01*
X66527658Y-50684361D01*
X66668436Y-50739877D01*
X66756898Y-50750500D01*
X66756903Y-50750500D01*
X68243097Y-50750500D01*
X68243102Y-50750500D01*
X68331564Y-50739877D01*
X68472342Y-50684361D01*
X68592922Y-50592922D01*
X68684361Y-50472342D01*
X68739877Y-50331564D01*
X68750500Y-50243102D01*
X68750500Y-48756898D01*
X68739877Y-48668436D01*
X68684361Y-48527658D01*
X68684360Y-48527657D01*
X68684360Y-48527656D01*
X68592922Y-48407077D01*
X68472343Y-48315639D01*
X68331561Y-48260122D01*
X68285926Y-48254642D01*
X68243102Y-48249500D01*
X68243097Y-48249500D01*
X67424500Y-48249500D01*
X67357461Y-48229815D01*
X67311706Y-48177011D01*
X67300500Y-48125500D01*
X67300500Y-46303935D01*
X67317112Y-46241936D01*
X67362984Y-46162485D01*
X67400500Y-46022475D01*
X67400500Y-45877525D01*
X67362984Y-45737515D01*
X67341856Y-45700921D01*
X67290511Y-45611988D01*
X67290506Y-45611982D01*
X67188017Y-45509493D01*
X67188011Y-45509488D01*
X67062488Y-45437017D01*
X67062489Y-45437017D01*
X67051006Y-45433940D01*
X66922475Y-45399500D01*
X66777525Y-45399500D01*
X66648993Y-45433940D01*
X66637511Y-45437017D01*
X66511988Y-45509488D01*
X66511982Y-45509493D01*
X66409493Y-45611982D01*
X66409488Y-45611988D01*
X66337017Y-45737511D01*
X66337016Y-45737515D01*
X66299500Y-45877525D01*
X66299500Y-46022475D01*
X66337016Y-46162485D01*
X66382887Y-46241936D01*
X66399500Y-46303935D01*
X66399500Y-46796456D01*
X66379815Y-46863495D01*
X66327011Y-46909250D01*
X66257853Y-46919194D01*
X66194297Y-46890169D01*
X66168113Y-46858457D01*
X66151800Y-46830202D01*
X66135509Y-46801985D01*
X66033015Y-46699491D01*
X66033013Y-46699490D01*
X66033011Y-46699488D01*
X65907488Y-46627017D01*
X65907489Y-46627017D01*
X65896006Y-46623940D01*
X65767475Y-46589500D01*
X65622525Y-46589500D01*
X65493993Y-46623940D01*
X65482511Y-46627017D01*
X65356988Y-46699488D01*
X65356982Y-46699493D01*
X65254493Y-46801982D01*
X65254488Y-46801988D01*
X65182017Y-46927511D01*
X65182016Y-46927515D01*
X65144500Y-47067525D01*
X60204628Y-47067525D01*
X60026616Y-46889513D01*
X60026614Y-46889511D01*
X59923887Y-46830201D01*
X59884024Y-46819520D01*
X59884021Y-46819519D01*
X59852444Y-46811058D01*
X59809309Y-46799500D01*
X59809308Y-46799500D01*
X59237966Y-46799500D01*
X59208525Y-46790855D01*
X59178539Y-46784332D01*
X59173523Y-46780577D01*
X59170927Y-46779815D01*
X59150285Y-46763181D01*
X58986819Y-46599715D01*
X58953334Y-46538392D01*
X58950500Y-46512034D01*
X58950500Y-44977525D01*
X62199500Y-44977525D01*
X62199500Y-45122475D01*
X62235692Y-45257542D01*
X62237017Y-45262488D01*
X62309488Y-45388011D01*
X62309490Y-45388013D01*
X62309491Y-45388015D01*
X62411985Y-45490509D01*
X62411986Y-45490510D01*
X62411988Y-45490511D01*
X62537511Y-45562982D01*
X62537512Y-45562982D01*
X62537515Y-45562984D01*
X62677525Y-45600500D01*
X62677528Y-45600500D01*
X62822472Y-45600500D01*
X62822475Y-45600500D01*
X62962485Y-45562984D01*
X63088015Y-45490509D01*
X63190509Y-45388015D01*
X63262984Y-45262485D01*
X63300500Y-45122475D01*
X63300500Y-44977525D01*
X72199500Y-44977525D01*
X72199500Y-45122475D01*
X72235692Y-45257542D01*
X72237017Y-45262488D01*
X72309488Y-45388011D01*
X72309490Y-45388013D01*
X72309491Y-45388015D01*
X72411985Y-45490509D01*
X72411986Y-45490510D01*
X72411988Y-45490511D01*
X72537511Y-45562982D01*
X72537512Y-45562982D01*
X72537515Y-45562984D01*
X72677525Y-45600500D01*
X72677528Y-45600500D01*
X72822472Y-45600500D01*
X72822475Y-45600500D01*
X72962485Y-45562984D01*
X73088015Y-45490509D01*
X73190509Y-45388015D01*
X73262984Y-45262485D01*
X73300500Y-45122475D01*
X73300500Y-44977525D01*
X73262984Y-44837515D01*
X73190509Y-44711985D01*
X73088015Y-44609491D01*
X73088013Y-44609490D01*
X73088011Y-44609488D01*
X72962488Y-44537017D01*
X72962489Y-44537017D01*
X72951006Y-44533940D01*
X72927065Y-44527525D01*
X77844500Y-44527525D01*
X77844500Y-44672475D01*
X77855087Y-44711985D01*
X77882017Y-44812488D01*
X77954488Y-44938011D01*
X77954490Y-44938013D01*
X77954491Y-44938015D01*
X78056985Y-45040509D01*
X78056986Y-45040510D01*
X78056988Y-45040511D01*
X78182511Y-45112982D01*
X78182512Y-45112982D01*
X78182515Y-45112984D01*
X78322525Y-45150500D01*
X78322528Y-45150500D01*
X78467472Y-45150500D01*
X78467475Y-45150500D01*
X78607485Y-45112984D01*
X78733015Y-45040509D01*
X78835509Y-44938015D01*
X78907984Y-44812485D01*
X78945500Y-44672475D01*
X78945500Y-44527525D01*
X78907984Y-44387515D01*
X78870655Y-44322860D01*
X78835511Y-44261988D01*
X78835506Y-44261982D01*
X78733017Y-44159493D01*
X78733011Y-44159488D01*
X78607488Y-44087017D01*
X78607489Y-44087017D01*
X78596006Y-44083940D01*
X78467475Y-44049500D01*
X78322525Y-44049500D01*
X78193993Y-44083940D01*
X78182511Y-44087017D01*
X78056988Y-44159488D01*
X78056982Y-44159493D01*
X77954493Y-44261982D01*
X77954488Y-44261988D01*
X77882017Y-44387511D01*
X77882016Y-44387515D01*
X77844500Y-44527525D01*
X72927065Y-44527525D01*
X72822475Y-44499500D01*
X72677525Y-44499500D01*
X72548993Y-44533940D01*
X72537511Y-44537017D01*
X72411988Y-44609488D01*
X72411982Y-44609493D01*
X72309493Y-44711982D01*
X72309488Y-44711988D01*
X72237017Y-44837511D01*
X72237016Y-44837515D01*
X72199500Y-44977525D01*
X63300500Y-44977525D01*
X63262984Y-44837515D01*
X63190509Y-44711985D01*
X63088015Y-44609491D01*
X63088013Y-44609490D01*
X63088011Y-44609488D01*
X62962488Y-44537017D01*
X62962489Y-44537017D01*
X62951006Y-44533940D01*
X62822475Y-44499500D01*
X62677525Y-44499500D01*
X62548993Y-44533940D01*
X62537511Y-44537017D01*
X62411988Y-44609488D01*
X62411982Y-44609493D01*
X62309493Y-44711982D01*
X62309488Y-44711988D01*
X62237017Y-44837511D01*
X62237016Y-44837515D01*
X62199500Y-44977525D01*
X58950500Y-44977525D01*
X58950500Y-43527525D01*
X66049500Y-43527525D01*
X66049500Y-43672475D01*
X66082419Y-43795328D01*
X66087017Y-43812488D01*
X66159488Y-43938011D01*
X66159490Y-43938013D01*
X66159491Y-43938015D01*
X66261985Y-44040509D01*
X66261986Y-44040510D01*
X66261988Y-44040511D01*
X66387511Y-44112982D01*
X66387512Y-44112982D01*
X66387515Y-44112984D01*
X66527525Y-44150500D01*
X66527528Y-44150500D01*
X66672472Y-44150500D01*
X66672475Y-44150500D01*
X66812485Y-44112984D01*
X66938015Y-44040509D01*
X67040509Y-43938015D01*
X67112984Y-43812485D01*
X67150500Y-43672475D01*
X67150500Y-43527525D01*
X76049500Y-43527525D01*
X76049500Y-43672475D01*
X76082419Y-43795328D01*
X76087017Y-43812488D01*
X76159488Y-43938011D01*
X76159490Y-43938013D01*
X76159491Y-43938015D01*
X76261985Y-44040509D01*
X76261986Y-44040510D01*
X76261988Y-44040511D01*
X76387511Y-44112982D01*
X76387512Y-44112982D01*
X76387515Y-44112984D01*
X76527525Y-44150500D01*
X76527528Y-44150500D01*
X76672472Y-44150500D01*
X76672475Y-44150500D01*
X76812485Y-44112984D01*
X76938015Y-44040509D01*
X77040509Y-43938015D01*
X77112984Y-43812485D01*
X77150500Y-43672475D01*
X77150500Y-43527525D01*
X77112984Y-43387515D01*
X77075431Y-43322472D01*
X77040511Y-43261988D01*
X77040506Y-43261982D01*
X76938017Y-43159493D01*
X76938011Y-43159488D01*
X76812488Y-43087017D01*
X76812489Y-43087017D01*
X76801006Y-43083940D01*
X76672475Y-43049500D01*
X76527525Y-43049500D01*
X76398993Y-43083940D01*
X76387511Y-43087017D01*
X76261988Y-43159488D01*
X76261982Y-43159493D01*
X76159493Y-43261982D01*
X76159488Y-43261988D01*
X76087017Y-43387511D01*
X76087016Y-43387515D01*
X76049500Y-43527525D01*
X67150500Y-43527525D01*
X67112984Y-43387515D01*
X67075431Y-43322472D01*
X67040511Y-43261988D01*
X67040506Y-43261982D01*
X66938017Y-43159493D01*
X66938011Y-43159488D01*
X66812488Y-43087017D01*
X66812489Y-43087017D01*
X66801006Y-43083940D01*
X66672475Y-43049500D01*
X66527525Y-43049500D01*
X66398993Y-43083940D01*
X66387511Y-43087017D01*
X66261988Y-43159488D01*
X66261982Y-43159493D01*
X66159493Y-43261982D01*
X66159488Y-43261988D01*
X66087017Y-43387511D01*
X66087016Y-43387515D01*
X66049500Y-43527525D01*
X58950500Y-43527525D01*
X58950500Y-41987525D01*
X60064500Y-41987525D01*
X60064500Y-42132475D01*
X60102016Y-42272485D01*
X60102017Y-42272488D01*
X60174488Y-42398011D01*
X60174490Y-42398013D01*
X60174491Y-42398015D01*
X60276985Y-42500509D01*
X60276986Y-42500510D01*
X60276988Y-42500511D01*
X60402511Y-42572982D01*
X60402512Y-42572982D01*
X60402515Y-42572984D01*
X60542525Y-42610500D01*
X60542528Y-42610500D01*
X60687472Y-42610500D01*
X60687475Y-42610500D01*
X60827485Y-42572984D01*
X60953015Y-42500509D01*
X61055509Y-42398015D01*
X61127984Y-42272485D01*
X61165500Y-42132475D01*
X61165500Y-41987525D01*
X70224500Y-41987525D01*
X70224500Y-42132475D01*
X70262016Y-42272485D01*
X70262017Y-42272488D01*
X70334488Y-42398011D01*
X70334490Y-42398013D01*
X70334491Y-42398015D01*
X70436985Y-42500509D01*
X70436986Y-42500510D01*
X70436988Y-42500511D01*
X70562511Y-42572982D01*
X70562512Y-42572982D01*
X70562515Y-42572984D01*
X70702525Y-42610500D01*
X70702528Y-42610500D01*
X70847472Y-42610500D01*
X70847475Y-42610500D01*
X70987485Y-42572984D01*
X71113015Y-42500509D01*
X71215509Y-42398015D01*
X71287984Y-42272485D01*
X71325500Y-42132475D01*
X71325500Y-41987525D01*
X71287984Y-41847515D01*
X71227367Y-41742524D01*
X71215511Y-41721988D01*
X71215506Y-41721982D01*
X71113017Y-41619493D01*
X71113011Y-41619488D01*
X70987488Y-41547017D01*
X70987489Y-41547017D01*
X70952012Y-41537511D01*
X70847475Y-41509500D01*
X70702525Y-41509500D01*
X70597988Y-41537511D01*
X70562511Y-41547017D01*
X70436988Y-41619488D01*
X70436982Y-41619493D01*
X70334493Y-41721982D01*
X70334488Y-41721988D01*
X70262017Y-41847511D01*
X70262016Y-41847515D01*
X70224500Y-41987525D01*
X61165500Y-41987525D01*
X61127984Y-41847515D01*
X61067367Y-41742524D01*
X61055511Y-41721988D01*
X61055506Y-41721982D01*
X60953017Y-41619493D01*
X60953011Y-41619488D01*
X60827488Y-41547017D01*
X60827489Y-41547017D01*
X60792012Y-41537511D01*
X60687475Y-41509500D01*
X60542525Y-41509500D01*
X60437988Y-41537511D01*
X60402511Y-41547017D01*
X60276988Y-41619488D01*
X60276982Y-41619493D01*
X60174493Y-41721982D01*
X60174488Y-41721988D01*
X60102017Y-41847511D01*
X60102016Y-41847515D01*
X60064500Y-41987525D01*
X58950500Y-41987525D01*
X58950500Y-41103935D01*
X58967112Y-41041936D01*
X59012984Y-40962485D01*
X59050500Y-40822475D01*
X59050500Y-40677525D01*
X59012984Y-40537515D01*
X58954039Y-40435420D01*
X58940511Y-40411988D01*
X58940506Y-40411982D01*
X58838017Y-40309493D01*
X58838011Y-40309488D01*
X58712488Y-40237017D01*
X58712489Y-40237017D01*
X58701006Y-40233940D01*
X58572475Y-40199500D01*
X58427525Y-40199500D01*
X58298993Y-40233940D01*
X58287511Y-40237017D01*
X58161988Y-40309488D01*
X58161982Y-40309493D01*
X58059493Y-40411982D01*
X58059488Y-40411988D01*
X57987017Y-40537511D01*
X57987016Y-40537515D01*
X57949500Y-40677525D01*
X57949500Y-40822475D01*
X57987016Y-40962485D01*
X57987017Y-40962488D01*
X58029332Y-41035779D01*
X58045805Y-41103679D01*
X58022953Y-41169706D01*
X57968031Y-41212896D01*
X57898478Y-41219538D01*
X57889862Y-41217556D01*
X57822475Y-41199500D01*
X57677525Y-41199500D01*
X57548993Y-41233940D01*
X57537511Y-41237017D01*
X57411988Y-41309488D01*
X57411982Y-41309493D01*
X57309493Y-41411982D01*
X57309488Y-41411988D01*
X57237017Y-41537511D01*
X57237016Y-41537515D01*
X57199500Y-41677525D01*
X57199500Y-41677527D01*
X57199500Y-41825500D01*
X57179815Y-41892539D01*
X57127011Y-41938294D01*
X57075500Y-41949500D01*
X57072475Y-41949500D01*
X56927525Y-41949500D01*
X56798993Y-41983940D01*
X56787511Y-41987017D01*
X56661988Y-42059488D01*
X56661982Y-42059493D01*
X56559493Y-42161982D01*
X56559488Y-42161988D01*
X56487017Y-42287511D01*
X56487016Y-42287515D01*
X56449500Y-42427525D01*
X56449500Y-42572475D01*
X56487016Y-42712485D01*
X56532887Y-42791936D01*
X56549500Y-42853935D01*
X56549500Y-47512035D01*
X56529815Y-47579074D01*
X56513181Y-47599716D01*
X55899716Y-48213181D01*
X55838393Y-48246666D01*
X55812035Y-48249500D01*
X55506898Y-48249500D01*
X55467853Y-48254188D01*
X55418438Y-48260122D01*
X55277656Y-48315639D01*
X55157077Y-48407077D01*
X55065639Y-48527656D01*
X55010122Y-48668438D01*
X55004188Y-48717853D01*
X54999500Y-48756898D01*
X53750500Y-48756898D01*
X53739877Y-48668436D01*
X53684361Y-48527658D01*
X53684360Y-48527657D01*
X53684360Y-48527656D01*
X53592922Y-48407077D01*
X53472343Y-48315639D01*
X53331561Y-48260122D01*
X53285926Y-48254642D01*
X53243102Y-48249500D01*
X51756898Y-48249500D01*
X51717853Y-48254188D01*
X51668438Y-48260122D01*
X51527656Y-48315639D01*
X51407077Y-48407077D01*
X51315639Y-48527656D01*
X51260122Y-48668438D01*
X51254188Y-48717853D01*
X51249500Y-48756898D01*
X50000500Y-48756898D01*
X49989877Y-48668436D01*
X49934361Y-48527658D01*
X49934360Y-48527657D01*
X49934360Y-48527656D01*
X49842922Y-48407077D01*
X49722343Y-48315639D01*
X49581561Y-48260122D01*
X49535926Y-48254642D01*
X49493102Y-48249500D01*
X48006898Y-48249500D01*
X47967853Y-48254188D01*
X47918438Y-48260122D01*
X47777656Y-48315639D01*
X47657077Y-48407077D01*
X47565639Y-48527656D01*
X47510122Y-48668438D01*
X47504188Y-48717853D01*
X47499500Y-48756898D01*
X46250500Y-48756898D01*
X46239877Y-48668436D01*
X46184361Y-48527658D01*
X46184360Y-48527657D01*
X46184360Y-48527656D01*
X46092922Y-48407077D01*
X45972343Y-48315639D01*
X45831561Y-48260122D01*
X45785926Y-48254642D01*
X45743102Y-48249500D01*
X44256898Y-48249500D01*
X44217853Y-48254188D01*
X44168438Y-48260122D01*
X44027656Y-48315639D01*
X43907077Y-48407077D01*
X43815639Y-48527656D01*
X43760122Y-48668438D01*
X43754188Y-48717853D01*
X43749500Y-48756898D01*
X42500500Y-48756898D01*
X42489877Y-48668436D01*
X42434361Y-48527658D01*
X42434360Y-48527657D01*
X42434360Y-48527656D01*
X42342922Y-48407077D01*
X42222343Y-48315639D01*
X42081561Y-48260122D01*
X42035926Y-48254642D01*
X41993102Y-48249500D01*
X40506898Y-48249500D01*
X40467853Y-48254188D01*
X40418438Y-48260122D01*
X40277656Y-48315639D01*
X40157077Y-48407077D01*
X40065639Y-48527656D01*
X40010122Y-48668438D01*
X40004188Y-48717853D01*
X39999500Y-48756898D01*
X38750500Y-48756898D01*
X38739877Y-48668436D01*
X38684361Y-48527658D01*
X38684360Y-48527657D01*
X38684360Y-48527656D01*
X38592922Y-48407077D01*
X38472343Y-48315639D01*
X38331561Y-48260122D01*
X38285926Y-48254642D01*
X38243102Y-48249500D01*
X38243097Y-48249500D01*
X37686965Y-48249500D01*
X37619926Y-48229815D01*
X37574171Y-48177011D01*
X37564227Y-48107853D01*
X37593252Y-48044297D01*
X37599284Y-48037819D01*
X37836538Y-47800565D01*
X38110489Y-47526614D01*
X38169799Y-47423887D01*
X38186786Y-47360489D01*
X38200500Y-47309309D01*
X38200500Y-47067525D01*
X42284500Y-47067525D01*
X42284500Y-47212475D01*
X42322016Y-47352485D01*
X42322017Y-47352488D01*
X42394488Y-47478011D01*
X42394490Y-47478013D01*
X42394491Y-47478015D01*
X42496985Y-47580509D01*
X42496986Y-47580510D01*
X42496988Y-47580511D01*
X42622511Y-47652982D01*
X42622512Y-47652982D01*
X42622515Y-47652984D01*
X42762525Y-47690500D01*
X42762528Y-47690500D01*
X42907472Y-47690500D01*
X42907475Y-47690500D01*
X43047485Y-47652984D01*
X43173015Y-47580509D01*
X43275509Y-47478015D01*
X43347984Y-47352485D01*
X43385500Y-47212475D01*
X43385500Y-47067525D01*
X43347984Y-46927515D01*
X43326422Y-46890169D01*
X43275511Y-46801988D01*
X43275506Y-46801982D01*
X43173017Y-46699493D01*
X43173011Y-46699488D01*
X43047488Y-46627017D01*
X43047489Y-46627017D01*
X43036006Y-46623940D01*
X42907475Y-46589500D01*
X42762525Y-46589500D01*
X42633993Y-46623940D01*
X42622511Y-46627017D01*
X42496988Y-46699488D01*
X42496982Y-46699493D01*
X42394493Y-46801982D01*
X42394488Y-46801988D01*
X42322017Y-46927511D01*
X42322016Y-46927515D01*
X42284500Y-47067525D01*
X38200500Y-47067525D01*
X38200500Y-46303935D01*
X38217112Y-46241936D01*
X38262984Y-46162485D01*
X38300500Y-46022475D01*
X38300500Y-45952525D01*
X54424500Y-45952525D01*
X54424500Y-46097475D01*
X54441920Y-46162485D01*
X54462017Y-46237488D01*
X54534488Y-46363011D01*
X54534490Y-46363013D01*
X54534491Y-46363015D01*
X54636985Y-46465509D01*
X54636986Y-46465510D01*
X54636988Y-46465511D01*
X54762511Y-46537982D01*
X54762512Y-46537982D01*
X54762515Y-46537984D01*
X54902525Y-46575500D01*
X54902528Y-46575500D01*
X55047472Y-46575500D01*
X55047475Y-46575500D01*
X55187485Y-46537984D01*
X55313015Y-46465509D01*
X55415509Y-46363015D01*
X55487984Y-46237485D01*
X55525500Y-46097475D01*
X55525500Y-45952525D01*
X55487984Y-45812515D01*
X55472559Y-45785799D01*
X55415511Y-45686988D01*
X55415506Y-45686982D01*
X55313017Y-45584493D01*
X55313011Y-45584488D01*
X55187488Y-45512017D01*
X55187489Y-45512017D01*
X55176006Y-45508940D01*
X55047475Y-45474500D01*
X54902525Y-45474500D01*
X54773993Y-45508940D01*
X54762511Y-45512017D01*
X54636988Y-45584488D01*
X54636982Y-45584493D01*
X54534493Y-45686982D01*
X54534488Y-45686988D01*
X54462017Y-45812511D01*
X54462016Y-45812515D01*
X54424500Y-45952525D01*
X38300500Y-45952525D01*
X38300500Y-45877525D01*
X38262984Y-45737515D01*
X38241856Y-45700921D01*
X38190511Y-45611988D01*
X38190506Y-45611982D01*
X38088017Y-45509493D01*
X38088011Y-45509488D01*
X37962488Y-45437017D01*
X37962489Y-45437017D01*
X37951006Y-45433940D01*
X37822475Y-45399500D01*
X37677525Y-45399500D01*
X37548993Y-45433940D01*
X37537511Y-45437017D01*
X37411988Y-45509488D01*
X37411982Y-45509493D01*
X37309493Y-45611982D01*
X37309488Y-45611988D01*
X37237017Y-45737511D01*
X37237016Y-45737515D01*
X37199500Y-45877525D01*
X37199500Y-46022475D01*
X37237016Y-46162485D01*
X37282887Y-46241936D01*
X37299500Y-46303935D01*
X37299500Y-47012035D01*
X37279815Y-47079074D01*
X37263181Y-47099716D01*
X36849716Y-47513181D01*
X36788393Y-47546666D01*
X36762035Y-47549500D01*
X35829012Y-47549500D01*
X35761973Y-47529815D01*
X35716218Y-47477011D01*
X35706274Y-47407853D01*
X35721625Y-47363500D01*
X35727982Y-47352488D01*
X35727981Y-47352488D01*
X35727984Y-47352485D01*
X35765500Y-47212475D01*
X35765500Y-47067525D01*
X35727984Y-46927515D01*
X35706422Y-46890169D01*
X35655511Y-46801988D01*
X35655506Y-46801982D01*
X35553017Y-46699493D01*
X35553011Y-46699488D01*
X35427488Y-46627017D01*
X35427489Y-46627017D01*
X35416006Y-46623940D01*
X35287475Y-46589500D01*
X35142525Y-46589500D01*
X35013993Y-46623940D01*
X35002511Y-46627017D01*
X34876988Y-46699488D01*
X34876982Y-46699493D01*
X34774493Y-46801982D01*
X34774488Y-46801988D01*
X34702017Y-46927511D01*
X34702016Y-46927515D01*
X34664500Y-47067525D01*
X34664500Y-47212475D01*
X34702016Y-47352485D01*
X34702017Y-47352488D01*
X34708375Y-47363500D01*
X34724848Y-47431400D01*
X34701996Y-47497427D01*
X34647075Y-47540617D01*
X34600988Y-47549500D01*
X34190691Y-47549500D01*
X34114934Y-47569799D01*
X34114933Y-47569799D01*
X34076115Y-47580199D01*
X34076110Y-47580201D01*
X33973392Y-47639505D01*
X33973384Y-47639511D01*
X33399716Y-48213181D01*
X33338393Y-48246666D01*
X33312035Y-48249500D01*
X33006898Y-48249500D01*
X32967853Y-48254188D01*
X32918438Y-48260122D01*
X32777656Y-48315639D01*
X32657077Y-48407077D01*
X32565639Y-48527656D01*
X32510122Y-48668438D01*
X32504188Y-48717853D01*
X32499500Y-48756898D01*
X31250500Y-48756898D01*
X31239877Y-48668436D01*
X31184361Y-48527658D01*
X31184360Y-48527657D01*
X31184360Y-48527656D01*
X31092922Y-48407077D01*
X30972343Y-48315639D01*
X30831561Y-48260122D01*
X30785926Y-48254642D01*
X30743102Y-48249500D01*
X30743097Y-48249500D01*
X30437966Y-48249500D01*
X30370927Y-48229815D01*
X30350285Y-48213181D01*
X29776616Y-47639513D01*
X29776614Y-47639511D01*
X29674424Y-47580511D01*
X29673889Y-47580202D01*
X29673888Y-47580201D01*
X29673887Y-47580201D01*
X29635065Y-47569799D01*
X29635062Y-47569798D01*
X29603045Y-47561219D01*
X29559309Y-47549500D01*
X29559308Y-47549500D01*
X28737965Y-47549500D01*
X28670926Y-47529815D01*
X28650284Y-47513181D01*
X28236819Y-47099716D01*
X28203334Y-47038393D01*
X28200500Y-47012035D01*
X28200500Y-46303935D01*
X28217112Y-46241936D01*
X28262984Y-46162485D01*
X28300500Y-46022475D01*
X28300500Y-45877525D01*
X28262984Y-45737515D01*
X28241856Y-45700921D01*
X28190511Y-45611988D01*
X28190506Y-45611982D01*
X28088017Y-45509493D01*
X28088011Y-45509488D01*
X27962488Y-45437017D01*
X27962489Y-45437017D01*
X27951006Y-45433940D01*
X27822475Y-45399500D01*
X27677525Y-45399500D01*
X27548993Y-45433940D01*
X27537511Y-45437017D01*
X27411988Y-45509488D01*
X27411982Y-45509493D01*
X27309493Y-45611982D01*
X27309488Y-45611988D01*
X27237017Y-45737511D01*
X27237016Y-45737515D01*
X27199500Y-45877525D01*
X20500500Y-45877525D01*
X20500500Y-44977525D01*
X23099500Y-44977525D01*
X23099500Y-45122475D01*
X23135692Y-45257542D01*
X23137017Y-45262488D01*
X23209488Y-45388011D01*
X23209490Y-45388013D01*
X23209491Y-45388015D01*
X23311985Y-45490509D01*
X23311986Y-45490510D01*
X23311988Y-45490511D01*
X23437511Y-45562982D01*
X23437512Y-45562982D01*
X23437515Y-45562984D01*
X23577525Y-45600500D01*
X23577528Y-45600500D01*
X23722472Y-45600500D01*
X23722475Y-45600500D01*
X23862485Y-45562984D01*
X23988015Y-45490509D01*
X24090509Y-45388015D01*
X24162984Y-45262485D01*
X24200500Y-45122475D01*
X24200500Y-44977525D01*
X24162984Y-44837515D01*
X24090509Y-44711985D01*
X23988015Y-44609491D01*
X23988013Y-44609490D01*
X23988011Y-44609488D01*
X23862488Y-44537017D01*
X23862489Y-44537017D01*
X23851006Y-44533940D01*
X23827065Y-44527525D01*
X29584500Y-44527525D01*
X29584500Y-44672475D01*
X29595087Y-44711985D01*
X29622017Y-44812488D01*
X29694488Y-44938011D01*
X29694490Y-44938013D01*
X29694491Y-44938015D01*
X29796985Y-45040509D01*
X29796986Y-45040510D01*
X29796988Y-45040511D01*
X29922511Y-45112982D01*
X29922512Y-45112982D01*
X29922515Y-45112984D01*
X30062525Y-45150500D01*
X30062528Y-45150500D01*
X30207472Y-45150500D01*
X30207475Y-45150500D01*
X30347485Y-45112984D01*
X30473015Y-45040509D01*
X30535999Y-44977525D01*
X33099500Y-44977525D01*
X33099500Y-45122475D01*
X33135692Y-45257542D01*
X33137017Y-45262488D01*
X33209488Y-45388011D01*
X33209490Y-45388013D01*
X33209491Y-45388015D01*
X33311985Y-45490509D01*
X33311986Y-45490510D01*
X33311988Y-45490511D01*
X33437511Y-45562982D01*
X33437512Y-45562982D01*
X33437515Y-45562984D01*
X33577525Y-45600500D01*
X33577528Y-45600500D01*
X33722472Y-45600500D01*
X33722475Y-45600500D01*
X33862485Y-45562984D01*
X33988015Y-45490509D01*
X34090509Y-45388015D01*
X34162984Y-45262485D01*
X34200500Y-45122475D01*
X34200500Y-44977525D01*
X34197557Y-44966540D01*
X42504200Y-44966540D01*
X42504200Y-45113459D01*
X42532858Y-45257534D01*
X42532860Y-45257542D01*
X42534909Y-45262488D01*
X42589078Y-45393266D01*
X42589083Y-45393275D01*
X42670698Y-45515419D01*
X42670701Y-45515423D01*
X42774576Y-45619298D01*
X42774580Y-45619301D01*
X42896724Y-45700916D01*
X42896730Y-45700919D01*
X42896731Y-45700920D01*
X43032458Y-45757140D01*
X43176540Y-45785799D01*
X43176544Y-45785800D01*
X43176545Y-45785800D01*
X43323456Y-45785800D01*
X43323457Y-45785799D01*
X43467542Y-45757140D01*
X43603269Y-45700920D01*
X43725420Y-45619301D01*
X43829301Y-45515420D01*
X43910920Y-45393269D01*
X43967140Y-45257542D01*
X43995800Y-45113455D01*
X43995800Y-44966545D01*
X43967140Y-44822458D01*
X43910920Y-44686731D01*
X43829301Y-44564580D01*
X43829299Y-44564577D01*
X43792247Y-44527525D01*
X54984500Y-44527525D01*
X54984500Y-44672475D01*
X54995087Y-44711985D01*
X55022017Y-44812488D01*
X55094488Y-44938011D01*
X55094490Y-44938013D01*
X55094491Y-44938015D01*
X55196985Y-45040509D01*
X55196986Y-45040510D01*
X55196988Y-45040511D01*
X55322511Y-45112982D01*
X55322512Y-45112982D01*
X55322515Y-45112984D01*
X55462525Y-45150500D01*
X55462528Y-45150500D01*
X55607472Y-45150500D01*
X55607475Y-45150500D01*
X55747485Y-45112984D01*
X55873015Y-45040509D01*
X55975509Y-44938015D01*
X56047984Y-44812485D01*
X56085500Y-44672475D01*
X56085500Y-44527525D01*
X56047984Y-44387515D01*
X56010655Y-44322860D01*
X55975511Y-44261988D01*
X55975506Y-44261982D01*
X55873017Y-44159493D01*
X55873011Y-44159488D01*
X55747488Y-44087017D01*
X55747489Y-44087017D01*
X55736006Y-44083940D01*
X55607475Y-44049500D01*
X55462525Y-44049500D01*
X55333993Y-44083940D01*
X55322511Y-44087017D01*
X55196988Y-44159488D01*
X55196982Y-44159493D01*
X55094493Y-44261982D01*
X55094488Y-44261988D01*
X55022017Y-44387511D01*
X55022016Y-44387515D01*
X54984500Y-44527525D01*
X43792247Y-44527525D01*
X43725423Y-44460701D01*
X43725419Y-44460698D01*
X43603275Y-44379083D01*
X43603266Y-44379078D01*
X43467544Y-44322861D01*
X43467545Y-44322861D01*
X43467542Y-44322860D01*
X43467538Y-44322859D01*
X43467534Y-44322858D01*
X43323459Y-44294200D01*
X43323455Y-44294200D01*
X43176545Y-44294200D01*
X43176540Y-44294200D01*
X43032465Y-44322858D01*
X43032455Y-44322861D01*
X42896733Y-44379078D01*
X42896724Y-44379083D01*
X42774580Y-44460698D01*
X42774576Y-44460701D01*
X42670701Y-44564576D01*
X42670698Y-44564580D01*
X42589083Y-44686724D01*
X42589078Y-44686733D01*
X42532861Y-44822455D01*
X42532858Y-44822465D01*
X42504200Y-44966540D01*
X34197557Y-44966540D01*
X34162984Y-44837515D01*
X34090509Y-44711985D01*
X33988015Y-44609491D01*
X33988013Y-44609490D01*
X33988011Y-44609488D01*
X33862488Y-44537017D01*
X33862489Y-44537017D01*
X33851006Y-44533940D01*
X33722475Y-44499500D01*
X33577525Y-44499500D01*
X33448993Y-44533940D01*
X33437511Y-44537017D01*
X33311988Y-44609488D01*
X33311982Y-44609493D01*
X33209493Y-44711982D01*
X33209488Y-44711988D01*
X33137017Y-44837511D01*
X33137016Y-44837515D01*
X33099500Y-44977525D01*
X30535999Y-44977525D01*
X30575509Y-44938015D01*
X30647984Y-44812485D01*
X30685500Y-44672475D01*
X30685500Y-44527525D01*
X30647984Y-44387515D01*
X30610655Y-44322860D01*
X30575511Y-44261988D01*
X30575506Y-44261982D01*
X30473017Y-44159493D01*
X30473011Y-44159488D01*
X30347488Y-44087017D01*
X30347489Y-44087017D01*
X30336006Y-44083940D01*
X30207475Y-44049500D01*
X30062525Y-44049500D01*
X29933993Y-44083940D01*
X29922511Y-44087017D01*
X29796988Y-44159488D01*
X29796982Y-44159493D01*
X29694493Y-44261982D01*
X29694488Y-44261988D01*
X29622017Y-44387511D01*
X29622016Y-44387515D01*
X29584500Y-44527525D01*
X23827065Y-44527525D01*
X23722475Y-44499500D01*
X23577525Y-44499500D01*
X23448993Y-44533940D01*
X23437511Y-44537017D01*
X23311988Y-44609488D01*
X23311982Y-44609493D01*
X23209493Y-44711982D01*
X23209488Y-44711988D01*
X23137017Y-44837511D01*
X23137016Y-44837515D01*
X23099500Y-44977525D01*
X20500500Y-44977525D01*
X20500500Y-43527525D01*
X26949500Y-43527525D01*
X26949500Y-43672475D01*
X26982419Y-43795328D01*
X26987017Y-43812488D01*
X27059488Y-43938011D01*
X27059490Y-43938013D01*
X27059491Y-43938015D01*
X27161985Y-44040509D01*
X27161986Y-44040510D01*
X27161988Y-44040511D01*
X27287511Y-44112982D01*
X27287512Y-44112982D01*
X27287515Y-44112984D01*
X27427525Y-44150500D01*
X27427528Y-44150500D01*
X27572472Y-44150500D01*
X27572475Y-44150500D01*
X27712485Y-44112984D01*
X27838015Y-44040509D01*
X27940509Y-43938015D01*
X28012984Y-43812485D01*
X28050500Y-43672475D01*
X28050500Y-43527525D01*
X36949500Y-43527525D01*
X36949500Y-43672475D01*
X36982419Y-43795328D01*
X36987017Y-43812488D01*
X37059488Y-43938011D01*
X37059490Y-43938013D01*
X37059491Y-43938015D01*
X37161985Y-44040509D01*
X37161986Y-44040510D01*
X37161988Y-44040511D01*
X37287511Y-44112982D01*
X37287512Y-44112982D01*
X37287515Y-44112984D01*
X37427525Y-44150500D01*
X37427528Y-44150500D01*
X37572472Y-44150500D01*
X37572475Y-44150500D01*
X37712485Y-44112984D01*
X37838015Y-44040509D01*
X37940509Y-43938015D01*
X38012984Y-43812485D01*
X38050500Y-43672475D01*
X38050500Y-43527525D01*
X38012984Y-43387515D01*
X37975431Y-43322472D01*
X37940511Y-43261988D01*
X37940506Y-43261982D01*
X37838017Y-43159493D01*
X37838011Y-43159488D01*
X37712488Y-43087017D01*
X37712489Y-43087017D01*
X37701006Y-43083940D01*
X37572475Y-43049500D01*
X37427525Y-43049500D01*
X37298993Y-43083940D01*
X37287511Y-43087017D01*
X37161988Y-43159488D01*
X37161982Y-43159493D01*
X37059493Y-43261982D01*
X37059488Y-43261988D01*
X36987017Y-43387511D01*
X36987016Y-43387515D01*
X36949500Y-43527525D01*
X28050500Y-43527525D01*
X28012984Y-43387515D01*
X27975431Y-43322472D01*
X27940511Y-43261988D01*
X27940506Y-43261982D01*
X27838017Y-43159493D01*
X27838011Y-43159488D01*
X27712488Y-43087017D01*
X27712489Y-43087017D01*
X27701006Y-43083940D01*
X27572475Y-43049500D01*
X27427525Y-43049500D01*
X27298993Y-43083940D01*
X27287511Y-43087017D01*
X27161988Y-43159488D01*
X27161982Y-43159493D01*
X27059493Y-43261982D01*
X27059488Y-43261988D01*
X26987017Y-43387511D01*
X26987016Y-43387515D01*
X26949500Y-43527525D01*
X20500500Y-43527525D01*
X20500500Y-42427525D01*
X41199500Y-42427525D01*
X41199500Y-42572475D01*
X41213271Y-42623867D01*
X41237017Y-42712488D01*
X41309488Y-42838011D01*
X41309490Y-42838013D01*
X41309491Y-42838015D01*
X41411985Y-42940509D01*
X41411986Y-42940510D01*
X41411988Y-42940511D01*
X41537511Y-43012982D01*
X41537512Y-43012982D01*
X41537515Y-43012984D01*
X41677525Y-43050500D01*
X41677528Y-43050500D01*
X41822472Y-43050500D01*
X41822475Y-43050500D01*
X41962485Y-43012984D01*
X42088015Y-42940509D01*
X42190509Y-42838015D01*
X42262984Y-42712485D01*
X42286729Y-42623864D01*
X42294745Y-42609980D01*
X42297671Y-42596532D01*
X42318815Y-42568286D01*
X42445272Y-42441830D01*
X42506595Y-42408347D01*
X42532952Y-42405513D01*
X44090690Y-42405513D01*
X44157729Y-42425198D01*
X44203484Y-42478002D01*
X44213428Y-42547160D01*
X44210468Y-42561592D01*
X44199500Y-42602525D01*
X44199500Y-42747475D01*
X44237016Y-42887485D01*
X44237017Y-42887488D01*
X44309488Y-43013011D01*
X44309493Y-43013017D01*
X44417732Y-43121256D01*
X44416377Y-43122610D01*
X44451385Y-43170557D01*
X44455537Y-43240303D01*
X44421322Y-43301222D01*
X44413322Y-43308153D01*
X44309493Y-43411982D01*
X44309488Y-43411988D01*
X44237017Y-43537511D01*
X44237016Y-43537515D01*
X44199500Y-43677525D01*
X44199500Y-43822475D01*
X44230460Y-43938017D01*
X44237017Y-43962488D01*
X44309488Y-44088011D01*
X44309490Y-44088013D01*
X44309491Y-44088015D01*
X44411985Y-44190509D01*
X44411986Y-44190510D01*
X44411988Y-44190511D01*
X44537511Y-44262982D01*
X44537512Y-44262982D01*
X44537515Y-44262984D01*
X44677525Y-44300500D01*
X44677528Y-44300500D01*
X44822472Y-44300500D01*
X44822475Y-44300500D01*
X44962485Y-44262984D01*
X45041936Y-44217112D01*
X45103936Y-44200500D01*
X52059308Y-44200500D01*
X52059309Y-44200500D01*
X52149673Y-44176286D01*
X52173887Y-44169799D01*
X52276614Y-44110489D01*
X52568282Y-43818820D01*
X52623865Y-43786729D01*
X52712485Y-43762984D01*
X52838015Y-43690509D01*
X52940509Y-43588015D01*
X53012984Y-43462485D01*
X53050500Y-43322475D01*
X53050500Y-43177525D01*
X53012984Y-43037515D01*
X52956977Y-42940509D01*
X52940511Y-42911988D01*
X52940506Y-42911982D01*
X52838017Y-42809493D01*
X52838011Y-42809488D01*
X52712488Y-42737017D01*
X52712489Y-42737017D01*
X52701006Y-42733940D01*
X52572475Y-42699500D01*
X52427525Y-42699500D01*
X52298993Y-42733940D01*
X52287511Y-42737017D01*
X52161988Y-42809488D01*
X52161982Y-42809493D01*
X52059493Y-42911982D01*
X52059488Y-42911988D01*
X51987017Y-43037511D01*
X51987015Y-43037516D01*
X51963269Y-43126132D01*
X51955252Y-43140016D01*
X51952328Y-43153462D01*
X51931177Y-43181716D01*
X51849715Y-43263180D01*
X51788393Y-43296666D01*
X51762033Y-43299500D01*
X45203386Y-43299500D01*
X45136347Y-43279815D01*
X45090592Y-43227011D01*
X45080648Y-43157853D01*
X45109673Y-43094297D01*
X45115705Y-43087819D01*
X45153024Y-43050500D01*
X45190509Y-43013015D01*
X45262984Y-42887485D01*
X45300500Y-42747475D01*
X45300500Y-42602525D01*
X45300500Y-42602020D01*
X45320185Y-42534981D01*
X45372989Y-42489226D01*
X45392398Y-42482248D01*
X45445585Y-42467997D01*
X45571115Y-42395522D01*
X45673609Y-42293028D01*
X45746084Y-42167498D01*
X45783600Y-42027488D01*
X45783600Y-41882538D01*
X45746084Y-41742528D01*
X45734223Y-41721985D01*
X45673611Y-41617001D01*
X45673606Y-41616995D01*
X45571117Y-41514506D01*
X45571111Y-41514501D01*
X45445588Y-41442030D01*
X45445589Y-41442030D01*
X45434106Y-41438953D01*
X45305575Y-41404513D01*
X45160625Y-41404513D01*
X45020615Y-41442029D01*
X44941163Y-41487900D01*
X44879164Y-41504513D01*
X42235678Y-41504513D01*
X42145312Y-41528726D01*
X42145311Y-41528725D01*
X42121103Y-41535212D01*
X42121100Y-41535213D01*
X42018373Y-41594524D01*
X42018370Y-41594526D01*
X41681719Y-41931176D01*
X41626133Y-41963269D01*
X41537518Y-41987014D01*
X41537511Y-41987017D01*
X41411988Y-42059488D01*
X41411982Y-42059493D01*
X41309493Y-42161982D01*
X41309488Y-42161988D01*
X41237017Y-42287511D01*
X41237016Y-42287515D01*
X41199500Y-42427525D01*
X20500500Y-42427525D01*
X20500500Y-39886540D01*
X41488200Y-39886540D01*
X41488200Y-40033459D01*
X41516858Y-40177534D01*
X41516861Y-40177544D01*
X41573078Y-40313266D01*
X41573083Y-40313275D01*
X41654698Y-40435419D01*
X41654701Y-40435423D01*
X41758576Y-40539298D01*
X41758580Y-40539301D01*
X41880724Y-40620916D01*
X41880730Y-40620919D01*
X41880731Y-40620920D01*
X42016458Y-40677140D01*
X42160540Y-40705799D01*
X42160544Y-40705800D01*
X42160545Y-40705800D01*
X42307456Y-40705800D01*
X42307457Y-40705799D01*
X42451542Y-40677140D01*
X42587269Y-40620920D01*
X42709420Y-40539301D01*
X42813301Y-40435420D01*
X42894920Y-40313269D01*
X42951140Y-40177542D01*
X42979800Y-40033455D01*
X42979800Y-39886545D01*
X42979799Y-39886540D01*
X43520200Y-39886540D01*
X43520200Y-40033459D01*
X43548858Y-40177534D01*
X43548861Y-40177544D01*
X43605078Y-40313266D01*
X43605083Y-40313275D01*
X43686698Y-40435419D01*
X43686701Y-40435423D01*
X43790576Y-40539298D01*
X43790580Y-40539301D01*
X43912724Y-40620916D01*
X43912730Y-40620919D01*
X43912731Y-40620920D01*
X44048458Y-40677140D01*
X44192540Y-40705799D01*
X44192544Y-40705800D01*
X44192545Y-40705800D01*
X44339456Y-40705800D01*
X44339457Y-40705799D01*
X44483542Y-40677140D01*
X44619269Y-40620920D01*
X44741420Y-40539301D01*
X44845301Y-40435420D01*
X44926920Y-40313269D01*
X44983140Y-40177542D01*
X45011800Y-40033455D01*
X45011800Y-39886545D01*
X44983140Y-39742458D01*
X44926920Y-39606731D01*
X44845301Y-39484580D01*
X44845299Y-39484577D01*
X44808247Y-39447525D01*
X49904500Y-39447525D01*
X49904500Y-39592475D01*
X49942016Y-39732485D01*
X49942017Y-39732488D01*
X50014488Y-39858011D01*
X50014490Y-39858013D01*
X50014491Y-39858015D01*
X50116985Y-39960509D01*
X50116986Y-39960510D01*
X50116988Y-39960511D01*
X50242511Y-40032982D01*
X50242512Y-40032982D01*
X50242515Y-40032984D01*
X50382525Y-40070500D01*
X50382528Y-40070500D01*
X50527472Y-40070500D01*
X50527475Y-40070500D01*
X50667485Y-40032984D01*
X50793015Y-39960509D01*
X50895509Y-39858015D01*
X50967984Y-39732485D01*
X51005500Y-39592475D01*
X51005500Y-39447525D01*
X50967984Y-39307515D01*
X50930655Y-39242860D01*
X50895511Y-39181988D01*
X50895506Y-39181982D01*
X50793017Y-39079493D01*
X50793011Y-39079488D01*
X50667488Y-39007017D01*
X50667489Y-39007017D01*
X50656006Y-39003940D01*
X50527475Y-38969500D01*
X50382525Y-38969500D01*
X50253993Y-39003940D01*
X50242511Y-39007017D01*
X50116988Y-39079488D01*
X50116982Y-39079493D01*
X50014493Y-39181982D01*
X50014488Y-39181988D01*
X49942017Y-39307511D01*
X49942016Y-39307515D01*
X49904500Y-39447525D01*
X44808247Y-39447525D01*
X44741423Y-39380701D01*
X44741419Y-39380698D01*
X44619275Y-39299083D01*
X44619266Y-39299078D01*
X44483544Y-39242861D01*
X44483545Y-39242861D01*
X44483542Y-39242860D01*
X44483538Y-39242859D01*
X44483534Y-39242858D01*
X44339459Y-39214200D01*
X44339455Y-39214200D01*
X44192545Y-39214200D01*
X44192540Y-39214200D01*
X44048465Y-39242858D01*
X44048455Y-39242861D01*
X43912733Y-39299078D01*
X43912724Y-39299083D01*
X43790580Y-39380698D01*
X43790576Y-39380701D01*
X43686701Y-39484576D01*
X43686698Y-39484580D01*
X43605083Y-39606724D01*
X43605078Y-39606733D01*
X43548861Y-39742455D01*
X43548858Y-39742465D01*
X43520200Y-39886540D01*
X42979799Y-39886540D01*
X42951140Y-39742458D01*
X42894920Y-39606731D01*
X42894919Y-39606730D01*
X42894916Y-39606724D01*
X42813301Y-39484580D01*
X42813298Y-39484576D01*
X42709423Y-39380701D01*
X42709419Y-39380698D01*
X42587275Y-39299083D01*
X42587266Y-39299078D01*
X42451544Y-39242861D01*
X42451545Y-39242861D01*
X42451542Y-39242860D01*
X42451538Y-39242859D01*
X42451534Y-39242858D01*
X42307459Y-39214200D01*
X42307455Y-39214200D01*
X42160545Y-39214200D01*
X42160540Y-39214200D01*
X42016465Y-39242858D01*
X42016455Y-39242861D01*
X41880733Y-39299078D01*
X41880724Y-39299083D01*
X41758580Y-39380698D01*
X41758576Y-39380701D01*
X41654701Y-39484576D01*
X41654698Y-39484580D01*
X41573083Y-39606724D01*
X41573078Y-39606733D01*
X41516861Y-39742455D01*
X41516858Y-39742465D01*
X41488200Y-39886540D01*
X20500500Y-39886540D01*
X20500500Y-38003750D01*
X20500726Y-37996263D01*
X20518271Y-37706205D01*
X20520076Y-37691341D01*
X20520228Y-37690511D01*
X20522608Y-37677525D01*
X26599500Y-37677525D01*
X26599500Y-37822475D01*
X26630081Y-37936603D01*
X26637017Y-37962488D01*
X26709488Y-38088011D01*
X26709490Y-38088013D01*
X26709491Y-38088015D01*
X26811985Y-38190509D01*
X26811986Y-38190510D01*
X26811988Y-38190511D01*
X26937511Y-38262982D01*
X26937512Y-38262982D01*
X26937515Y-38262984D01*
X27077525Y-38300500D01*
X27077528Y-38300500D01*
X27222472Y-38300500D01*
X27222475Y-38300500D01*
X27362485Y-38262984D01*
X27488015Y-38190509D01*
X27590509Y-38088015D01*
X27662984Y-37962485D01*
X27700500Y-37822475D01*
X27700500Y-37677525D01*
X27662984Y-37537515D01*
X27654597Y-37522989D01*
X27590511Y-37411988D01*
X27590506Y-37411982D01*
X27488017Y-37309493D01*
X27488011Y-37309488D01*
X27362488Y-37237017D01*
X27362489Y-37237017D01*
X27351006Y-37233940D01*
X27222475Y-37199500D01*
X27077525Y-37199500D01*
X26948993Y-37233940D01*
X26937511Y-37237017D01*
X26811988Y-37309488D01*
X26811982Y-37309493D01*
X26709493Y-37411982D01*
X26709488Y-37411988D01*
X26637017Y-37537511D01*
X26637016Y-37537515D01*
X26599500Y-37677525D01*
X20522608Y-37677525D01*
X20571780Y-37409197D01*
X20575364Y-37394663D01*
X20601906Y-37309488D01*
X20660696Y-37120822D01*
X20665998Y-37106841D01*
X20783731Y-36845249D01*
X20790676Y-36832016D01*
X20939080Y-36586526D01*
X20947567Y-36574230D01*
X21124480Y-36348417D01*
X21134395Y-36337226D01*
X21337226Y-36134395D01*
X21348417Y-36124480D01*
X21574230Y-35947567D01*
X21586526Y-35939080D01*
X21832016Y-35790676D01*
X21845249Y-35783731D01*
X22106841Y-35665998D01*
X22120822Y-35660696D01*
X22394668Y-35575362D01*
X22409197Y-35571780D01*
X22691344Y-35520075D01*
X22706201Y-35518271D01*
X22996264Y-35500726D01*
X23003751Y-35500500D01*
X26671966Y-35500500D01*
X26671969Y-35500500D01*
X27014250Y-35466789D01*
X27351578Y-35399690D01*
X27680705Y-35299850D01*
X27998462Y-35168231D01*
X28301787Y-35006100D01*
X28587760Y-34815019D01*
X28853627Y-34596828D01*
X29096828Y-34353627D01*
X29315019Y-34087760D01*
X29461149Y-33869059D01*
X29514758Y-33824257D01*
X29584083Y-33815550D01*
X29647111Y-33845704D01*
X29678810Y-33890500D01*
X29741262Y-34041271D01*
X29741264Y-34041276D01*
X29908017Y-34353247D01*
X29908028Y-34353265D01*
X30104558Y-34647393D01*
X30104568Y-34647407D01*
X30328992Y-34920869D01*
X30579130Y-35171007D01*
X30579135Y-35171011D01*
X30579136Y-35171012D01*
X30852598Y-35395436D01*
X31146741Y-35591976D01*
X31146750Y-35591981D01*
X31146752Y-35591982D01*
X31458723Y-35758735D01*
X31458725Y-35758735D01*
X31458731Y-35758739D01*
X31584755Y-35810939D01*
X31639157Y-35854780D01*
X31661222Y-35921074D01*
X31643943Y-35988773D01*
X31592806Y-36036384D01*
X31537301Y-36049500D01*
X30190691Y-36049500D01*
X30104947Y-36072475D01*
X30104946Y-36072475D01*
X30076114Y-36080199D01*
X29973386Y-36139511D01*
X29973383Y-36139513D01*
X28789513Y-37323383D01*
X28789511Y-37323386D01*
X28730200Y-37426113D01*
X28730199Y-37426116D01*
X28723712Y-37450324D01*
X28723713Y-37450325D01*
X28699500Y-37540691D01*
X28699500Y-38496063D01*
X28682887Y-38558062D01*
X28637019Y-38637508D01*
X28637016Y-38637513D01*
X28618258Y-38707520D01*
X28599500Y-38777525D01*
X28599500Y-38922475D01*
X28637016Y-39062485D01*
X28637017Y-39062488D01*
X28709488Y-39188011D01*
X28709490Y-39188013D01*
X28709491Y-39188015D01*
X28811985Y-39290509D01*
X28811986Y-39290510D01*
X28811988Y-39290511D01*
X28937511Y-39362982D01*
X28937512Y-39362982D01*
X28937515Y-39362984D01*
X29077525Y-39400500D01*
X29077528Y-39400500D01*
X29222472Y-39400500D01*
X29222475Y-39400500D01*
X29362485Y-39362984D01*
X29488015Y-39290509D01*
X29590509Y-39188015D01*
X29662984Y-39062485D01*
X29700500Y-38922475D01*
X29700500Y-38777525D01*
X29662984Y-38637515D01*
X29627855Y-38576669D01*
X29617113Y-38558062D01*
X29600500Y-38496063D01*
X29600500Y-37837965D01*
X29609144Y-37808524D01*
X29615668Y-37778538D01*
X29619422Y-37773522D01*
X29620185Y-37770926D01*
X29636819Y-37750284D01*
X29709578Y-37677525D01*
X36599500Y-37677525D01*
X36599500Y-37822475D01*
X36630081Y-37936603D01*
X36637017Y-37962488D01*
X36709488Y-38088011D01*
X36709490Y-38088013D01*
X36709491Y-38088015D01*
X36811985Y-38190509D01*
X36811986Y-38190510D01*
X36811988Y-38190511D01*
X36937511Y-38262982D01*
X36937512Y-38262982D01*
X36937515Y-38262984D01*
X37077525Y-38300500D01*
X37077528Y-38300500D01*
X37222472Y-38300500D01*
X37222475Y-38300500D01*
X37362485Y-38262984D01*
X37488015Y-38190509D01*
X37590509Y-38088015D01*
X37662984Y-37962485D01*
X37700500Y-37822475D01*
X37700500Y-37677525D01*
X37662984Y-37537515D01*
X37654597Y-37522989D01*
X37590511Y-37411988D01*
X37590506Y-37411982D01*
X37488017Y-37309493D01*
X37488011Y-37309488D01*
X37362488Y-37237017D01*
X37362489Y-37237017D01*
X37351006Y-37233940D01*
X37222475Y-37199500D01*
X37077525Y-37199500D01*
X36948993Y-37233940D01*
X36937511Y-37237017D01*
X36811988Y-37309488D01*
X36811982Y-37309493D01*
X36709493Y-37411982D01*
X36709488Y-37411988D01*
X36637017Y-37537511D01*
X36637016Y-37537515D01*
X36599500Y-37677525D01*
X29709578Y-37677525D01*
X30400284Y-36986819D01*
X30461607Y-36953334D01*
X30487965Y-36950500D01*
X40113034Y-36950500D01*
X40180073Y-36970185D01*
X40225828Y-37022989D01*
X40235772Y-37092147D01*
X40206747Y-37155703D01*
X40200715Y-37162181D01*
X39081719Y-38281176D01*
X39026133Y-38313269D01*
X38937518Y-38337014D01*
X38937511Y-38337017D01*
X38811988Y-38409488D01*
X38811982Y-38409493D01*
X38709493Y-38511982D01*
X38709488Y-38511988D01*
X38637017Y-38637511D01*
X38637016Y-38637515D01*
X38599500Y-38777525D01*
X38599500Y-38922475D01*
X38637016Y-39062485D01*
X38637017Y-39062488D01*
X38709488Y-39188011D01*
X38709490Y-39188013D01*
X38709491Y-39188015D01*
X38811985Y-39290509D01*
X38811986Y-39290510D01*
X38811988Y-39290511D01*
X38937511Y-39362982D01*
X38937512Y-39362982D01*
X38937515Y-39362984D01*
X39077525Y-39400500D01*
X39077528Y-39400500D01*
X39222472Y-39400500D01*
X39222475Y-39400500D01*
X39362485Y-39362984D01*
X39488015Y-39290509D01*
X39590509Y-39188015D01*
X39662984Y-39062485D01*
X39686729Y-38973864D01*
X39718820Y-38918281D01*
X40900285Y-37736819D01*
X40961608Y-37703334D01*
X40987966Y-37700500D01*
X44146064Y-37700500D01*
X44208063Y-37717112D01*
X44287515Y-37762984D01*
X44427525Y-37800500D01*
X44427528Y-37800500D01*
X44572472Y-37800500D01*
X44572475Y-37800500D01*
X44712485Y-37762984D01*
X44838015Y-37690509D01*
X44940509Y-37588015D01*
X45012984Y-37462485D01*
X45050500Y-37322475D01*
X45050500Y-37177525D01*
X45050499Y-37177524D01*
X45049439Y-37169468D01*
X45052684Y-37169040D01*
X45053946Y-37114506D01*
X45093069Y-37056617D01*
X45139985Y-37032410D01*
X45212485Y-37012984D01*
X45338015Y-36940509D01*
X45440509Y-36838015D01*
X45512984Y-36712485D01*
X45550500Y-36572475D01*
X45550500Y-36427525D01*
X45512984Y-36287515D01*
X45469665Y-36212485D01*
X45440511Y-36161988D01*
X45440506Y-36161982D01*
X45338017Y-36059493D01*
X45338011Y-36059488D01*
X45212488Y-35987017D01*
X45212489Y-35987017D01*
X45175146Y-35977011D01*
X45072475Y-35949500D01*
X44927525Y-35949500D01*
X44787515Y-35987016D01*
X44708063Y-36032887D01*
X44646064Y-36049500D01*
X34462699Y-36049500D01*
X34395660Y-36029815D01*
X34349905Y-35977011D01*
X34339961Y-35907853D01*
X34368986Y-35844297D01*
X34415244Y-35810939D01*
X34541269Y-35758739D01*
X34853259Y-35591976D01*
X35009581Y-35487525D01*
X48838500Y-35487525D01*
X48838500Y-35632475D01*
X48858966Y-35708853D01*
X48876017Y-35772488D01*
X48948488Y-35898011D01*
X48948490Y-35898014D01*
X48948491Y-35898015D01*
X49050985Y-36000509D01*
X49050986Y-36000510D01*
X49050988Y-36000511D01*
X49176511Y-36072982D01*
X49176512Y-36072982D01*
X49176515Y-36072984D01*
X49316525Y-36110500D01*
X49316528Y-36110500D01*
X49461472Y-36110500D01*
X49461475Y-36110500D01*
X49601485Y-36072984D01*
X49727015Y-36000509D01*
X49829509Y-35898015D01*
X49901984Y-35772485D01*
X49939500Y-35632475D01*
X49939500Y-35584965D01*
X49959185Y-35517926D01*
X49975819Y-35497284D01*
X51026819Y-34446284D01*
X51088142Y-34412799D01*
X51157834Y-34417783D01*
X51213767Y-34459655D01*
X51238184Y-34525119D01*
X51238500Y-34533965D01*
X51238500Y-35206063D01*
X51221887Y-35268062D01*
X51176019Y-35347508D01*
X51176016Y-35347513D01*
X51157258Y-35417520D01*
X51138500Y-35487525D01*
X51138500Y-35632475D01*
X51158966Y-35708853D01*
X51176017Y-35772488D01*
X51248488Y-35898011D01*
X51248490Y-35898014D01*
X51248491Y-35898015D01*
X51350985Y-36000509D01*
X51350986Y-36000510D01*
X51350988Y-36000511D01*
X51476511Y-36072982D01*
X51476512Y-36072982D01*
X51476515Y-36072984D01*
X51616525Y-36110500D01*
X51616528Y-36110500D01*
X51761472Y-36110500D01*
X51761475Y-36110500D01*
X51901485Y-36072984D01*
X52027015Y-36000509D01*
X52099999Y-35927525D01*
X54049500Y-35927525D01*
X54049500Y-36072475D01*
X54083192Y-36198213D01*
X54087017Y-36212488D01*
X54159488Y-36338011D01*
X54159490Y-36338013D01*
X54159491Y-36338015D01*
X54261985Y-36440509D01*
X54261986Y-36440510D01*
X54261988Y-36440511D01*
X54387511Y-36512982D01*
X54387512Y-36512982D01*
X54387515Y-36512984D01*
X54527525Y-36550500D01*
X54527528Y-36550500D01*
X54672472Y-36550500D01*
X54672475Y-36550500D01*
X54812485Y-36512984D01*
X54938015Y-36440509D01*
X55040509Y-36338015D01*
X55112984Y-36212485D01*
X55150500Y-36072475D01*
X55150500Y-35927525D01*
X55112984Y-35787515D01*
X55110795Y-35783724D01*
X55040511Y-35661988D01*
X55040506Y-35661982D01*
X54938017Y-35559493D01*
X54938011Y-35559488D01*
X54812488Y-35487017D01*
X54812489Y-35487017D01*
X54801006Y-35483940D01*
X54672475Y-35449500D01*
X54527525Y-35449500D01*
X54398993Y-35483940D01*
X54387511Y-35487017D01*
X54261988Y-35559488D01*
X54261982Y-35559493D01*
X54159493Y-35661982D01*
X54159488Y-35661988D01*
X54087017Y-35787511D01*
X54082583Y-35804055D01*
X54049500Y-35927525D01*
X52099999Y-35927525D01*
X52129509Y-35898015D01*
X52201984Y-35772485D01*
X52239500Y-35632475D01*
X52239500Y-35487525D01*
X52201984Y-35347515D01*
X52174465Y-35299850D01*
X52156113Y-35268062D01*
X52139500Y-35206063D01*
X52139500Y-34527965D01*
X52148144Y-34498524D01*
X52154668Y-34468538D01*
X52158422Y-34463522D01*
X52159185Y-34460926D01*
X52175819Y-34440284D01*
X52248578Y-34367525D01*
X60064500Y-34367525D01*
X60064500Y-34512475D01*
X60102016Y-34652485D01*
X60102017Y-34652488D01*
X60174488Y-34778011D01*
X60174490Y-34778013D01*
X60174491Y-34778015D01*
X60276985Y-34880509D01*
X60276986Y-34880510D01*
X60276988Y-34880511D01*
X60402511Y-34952982D01*
X60402512Y-34952982D01*
X60402515Y-34952984D01*
X60542525Y-34990500D01*
X60542528Y-34990500D01*
X60687472Y-34990500D01*
X60687475Y-34990500D01*
X60827485Y-34952984D01*
X60953015Y-34880509D01*
X61055509Y-34778015D01*
X61127984Y-34652485D01*
X61165500Y-34512475D01*
X61165500Y-34367525D01*
X61127984Y-34227515D01*
X61119717Y-34213197D01*
X61055511Y-34101988D01*
X61055506Y-34101982D01*
X60953017Y-33999493D01*
X60953011Y-33999488D01*
X60827488Y-33927017D01*
X60827489Y-33927017D01*
X60816006Y-33923940D01*
X60687475Y-33889500D01*
X60542525Y-33889500D01*
X60413993Y-33923940D01*
X60402511Y-33927017D01*
X60276988Y-33999488D01*
X60276982Y-33999493D01*
X60174493Y-34101982D01*
X60174488Y-34101988D01*
X60102017Y-34227511D01*
X60102016Y-34227515D01*
X60064500Y-34367525D01*
X52248578Y-34367525D01*
X52528352Y-34087751D01*
X52938490Y-33677614D01*
X52997799Y-33574887D01*
X53005562Y-33545913D01*
X53028500Y-33460309D01*
X53028500Y-31827525D01*
X54984500Y-31827525D01*
X54984500Y-31972475D01*
X55022016Y-32112485D01*
X55022017Y-32112488D01*
X55094488Y-32238011D01*
X55094490Y-32238013D01*
X55094491Y-32238015D01*
X55196985Y-32340509D01*
X55196986Y-32340510D01*
X55196988Y-32340511D01*
X55322511Y-32412982D01*
X55322512Y-32412982D01*
X55322515Y-32412984D01*
X55462525Y-32450500D01*
X55462528Y-32450500D01*
X55607472Y-32450500D01*
X55607475Y-32450500D01*
X55747485Y-32412984D01*
X55873015Y-32340509D01*
X55975509Y-32238015D01*
X56047984Y-32112485D01*
X56085500Y-31972475D01*
X56085500Y-31827525D01*
X56047984Y-31687515D01*
X56042447Y-31677925D01*
X55975511Y-31561988D01*
X55975506Y-31561982D01*
X55873017Y-31459493D01*
X55873011Y-31459488D01*
X55747488Y-31387017D01*
X55747489Y-31387017D01*
X55736006Y-31383940D01*
X55607475Y-31349500D01*
X55462525Y-31349500D01*
X55333993Y-31383940D01*
X55322511Y-31387017D01*
X55196988Y-31459488D01*
X55196982Y-31459493D01*
X55094493Y-31561982D01*
X55094488Y-31561988D01*
X55022017Y-31687511D01*
X55022016Y-31687515D01*
X54984500Y-31827525D01*
X53028500Y-31827525D01*
X53028500Y-31744964D01*
X53048185Y-31677925D01*
X53064815Y-31657287D01*
X53863770Y-30858331D01*
X53925091Y-30824848D01*
X53989764Y-30828082D01*
X54052299Y-30848402D01*
X54223389Y-30875500D01*
X54223390Y-30875500D01*
X54396610Y-30875500D01*
X54396611Y-30875500D01*
X54567701Y-30848402D01*
X54732445Y-30794873D01*
X54886788Y-30716232D01*
X55026928Y-30614414D01*
X55149414Y-30491928D01*
X55251232Y-30351788D01*
X55329873Y-30197445D01*
X55383402Y-30032701D01*
X55410500Y-29861611D01*
X55410500Y-29688389D01*
X55383402Y-29517299D01*
X55329873Y-29352555D01*
X55251232Y-29198212D01*
X55149414Y-29058072D01*
X55026928Y-28935586D01*
X54886788Y-28833768D01*
X54849991Y-28815019D01*
X54732447Y-28755128D01*
X54732446Y-28755127D01*
X54732445Y-28755127D01*
X54567701Y-28701598D01*
X54567699Y-28701597D01*
X54567698Y-28701597D01*
X54436271Y-28680781D01*
X54396611Y-28674500D01*
X54223389Y-28674500D01*
X54183728Y-28680781D01*
X54052302Y-28701597D01*
X53887552Y-28755128D01*
X53733211Y-28833768D01*
X53680733Y-28871896D01*
X53593072Y-28935586D01*
X53593070Y-28935588D01*
X53593069Y-28935588D01*
X53470588Y-29058069D01*
X53470588Y-29058070D01*
X53470586Y-29058072D01*
X53426859Y-29118256D01*
X53368768Y-29198211D01*
X53290128Y-29352552D01*
X53236597Y-29517302D01*
X53209500Y-29688389D01*
X53209500Y-29861610D01*
X53236597Y-30032698D01*
X53236598Y-30032702D01*
X53256915Y-30095232D01*
X53258910Y-30165073D01*
X53226665Y-30221230D01*
X52802755Y-30645141D01*
X52741432Y-30678626D01*
X52671741Y-30673642D01*
X52615807Y-30631771D01*
X52591390Y-30566306D01*
X52606242Y-30498033D01*
X52614749Y-30484584D01*
X52711232Y-30351788D01*
X52789873Y-30197445D01*
X52843402Y-30032701D01*
X52870500Y-29861611D01*
X52870500Y-29688389D01*
X52843402Y-29517299D01*
X52789873Y-29352555D01*
X52711232Y-29198212D01*
X52609414Y-29058072D01*
X52486928Y-28935586D01*
X52346788Y-28833768D01*
X52309991Y-28815019D01*
X52192447Y-28755128D01*
X52192446Y-28755127D01*
X52192445Y-28755127D01*
X52027701Y-28701598D01*
X52027699Y-28701597D01*
X52027698Y-28701597D01*
X51896271Y-28680781D01*
X51856611Y-28674500D01*
X51683389Y-28674500D01*
X51643728Y-28680781D01*
X51512302Y-28701597D01*
X51347552Y-28755128D01*
X51193211Y-28833768D01*
X51140733Y-28871896D01*
X51053072Y-28935586D01*
X51053070Y-28935588D01*
X51053069Y-28935588D01*
X50930588Y-29058069D01*
X50930588Y-29058070D01*
X50930586Y-29058072D01*
X50886859Y-29118256D01*
X50828768Y-29198211D01*
X50750128Y-29352552D01*
X50696597Y-29517302D01*
X50669500Y-29688389D01*
X50669500Y-29861610D01*
X50696597Y-30032697D01*
X50696597Y-30032699D01*
X50696598Y-30032701D01*
X50750127Y-30197445D01*
X50828768Y-30351788D01*
X50930586Y-30491928D01*
X51053072Y-30614414D01*
X51101606Y-30649676D01*
X51193207Y-30716229D01*
X51193211Y-30716231D01*
X51193212Y-30716232D01*
X51251795Y-30746081D01*
X51302590Y-30794053D01*
X51319500Y-30856565D01*
X51319500Y-32828034D01*
X51299815Y-32895073D01*
X51283181Y-32915715D01*
X49129772Y-35069123D01*
X49104093Y-35088828D01*
X49050985Y-35119491D01*
X48948488Y-35221988D01*
X48876017Y-35347511D01*
X48876016Y-35347515D01*
X48838500Y-35487525D01*
X35009581Y-35487525D01*
X35147402Y-35395436D01*
X35420864Y-35171012D01*
X35671012Y-34920864D01*
X35895436Y-34647402D01*
X36082444Y-34367525D01*
X42284500Y-34367525D01*
X42284500Y-34512475D01*
X42322016Y-34652485D01*
X42322017Y-34652488D01*
X42394488Y-34778011D01*
X42394490Y-34778013D01*
X42394491Y-34778015D01*
X42496985Y-34880509D01*
X42496986Y-34880510D01*
X42496988Y-34880511D01*
X42622511Y-34952982D01*
X42622512Y-34952982D01*
X42622515Y-34952984D01*
X42762525Y-34990500D01*
X42762528Y-34990500D01*
X42907472Y-34990500D01*
X42907475Y-34990500D01*
X43047485Y-34952984D01*
X43173015Y-34880509D01*
X43275509Y-34778015D01*
X43347984Y-34652485D01*
X43385500Y-34512475D01*
X43385500Y-34367525D01*
X43347984Y-34227515D01*
X43339717Y-34213197D01*
X43275511Y-34101988D01*
X43275506Y-34101982D01*
X43173017Y-33999493D01*
X43173011Y-33999488D01*
X43047488Y-33927017D01*
X43047489Y-33927017D01*
X43036006Y-33923940D01*
X42907475Y-33889500D01*
X42762525Y-33889500D01*
X42633993Y-33923940D01*
X42622511Y-33927017D01*
X42496988Y-33999488D01*
X42496982Y-33999493D01*
X42394493Y-34101982D01*
X42394488Y-34101988D01*
X42322017Y-34227511D01*
X42322016Y-34227515D01*
X42284500Y-34367525D01*
X36082444Y-34367525D01*
X36091976Y-34353259D01*
X36258739Y-34041269D01*
X36388696Y-33727525D01*
X46149500Y-33727525D01*
X46149500Y-33872475D01*
X46183534Y-33999491D01*
X46187017Y-34012488D01*
X46259488Y-34138011D01*
X46259490Y-34138013D01*
X46259491Y-34138015D01*
X46361985Y-34240509D01*
X46361986Y-34240510D01*
X46361988Y-34240511D01*
X46487511Y-34312982D01*
X46487512Y-34312982D01*
X46487515Y-34312984D01*
X46627525Y-34350500D01*
X46627528Y-34350500D01*
X46772472Y-34350500D01*
X46772475Y-34350500D01*
X46912485Y-34312984D01*
X47038015Y-34240509D01*
X47140509Y-34138015D01*
X47212984Y-34012485D01*
X47250500Y-33872475D01*
X47250500Y-33727525D01*
X47212984Y-33587515D01*
X47205694Y-33574889D01*
X47140511Y-33461988D01*
X47140506Y-33461982D01*
X47038017Y-33359493D01*
X47038011Y-33359488D01*
X46912488Y-33287017D01*
X46912489Y-33287017D01*
X46901006Y-33283940D01*
X46772475Y-33249500D01*
X46627525Y-33249500D01*
X46498993Y-33283940D01*
X46487511Y-33287017D01*
X46361988Y-33359488D01*
X46361982Y-33359493D01*
X46259493Y-33461982D01*
X46259488Y-33461988D01*
X46187017Y-33587511D01*
X46187016Y-33587515D01*
X46149500Y-33727525D01*
X36388696Y-33727525D01*
X36394118Y-33714435D01*
X36496809Y-33375905D01*
X36496811Y-33375895D01*
X36496814Y-33375884D01*
X36549206Y-33112488D01*
X36565825Y-33028940D01*
X36600500Y-32676881D01*
X36600500Y-32323119D01*
X36565825Y-31971060D01*
X36545845Y-31870614D01*
X36540470Y-31843589D01*
X36537275Y-31827525D01*
X37204500Y-31827525D01*
X37204500Y-31972475D01*
X37242016Y-32112485D01*
X37242017Y-32112488D01*
X37314488Y-32238011D01*
X37314490Y-32238013D01*
X37314491Y-32238015D01*
X37416985Y-32340509D01*
X37416986Y-32340510D01*
X37416988Y-32340511D01*
X37542511Y-32412982D01*
X37542512Y-32412982D01*
X37542515Y-32412984D01*
X37682525Y-32450500D01*
X37682528Y-32450500D01*
X37827472Y-32450500D01*
X37827475Y-32450500D01*
X37967485Y-32412984D01*
X38093015Y-32340509D01*
X38195509Y-32238015D01*
X38267984Y-32112485D01*
X38305500Y-31972475D01*
X38305500Y-31827525D01*
X47364500Y-31827525D01*
X47364500Y-31972475D01*
X47402016Y-32112485D01*
X47402017Y-32112488D01*
X47474488Y-32238011D01*
X47474490Y-32238013D01*
X47474491Y-32238015D01*
X47576985Y-32340509D01*
X47576986Y-32340510D01*
X47576988Y-32340511D01*
X47702511Y-32412982D01*
X47702512Y-32412982D01*
X47702515Y-32412984D01*
X47842525Y-32450500D01*
X47842528Y-32450500D01*
X47987472Y-32450500D01*
X47987475Y-32450500D01*
X48127485Y-32412984D01*
X48253015Y-32340509D01*
X48355509Y-32238015D01*
X48427984Y-32112485D01*
X48465500Y-31972475D01*
X48465500Y-31827525D01*
X48427984Y-31687515D01*
X48422447Y-31677925D01*
X48355511Y-31561988D01*
X48355506Y-31561982D01*
X48253017Y-31459493D01*
X48253011Y-31459488D01*
X48127488Y-31387017D01*
X48127489Y-31387017D01*
X48116006Y-31383940D01*
X47987475Y-31349500D01*
X47842525Y-31349500D01*
X47713993Y-31383940D01*
X47702511Y-31387017D01*
X47576988Y-31459488D01*
X47576982Y-31459493D01*
X47474493Y-31561982D01*
X47474488Y-31561988D01*
X47402017Y-31687511D01*
X47402016Y-31687515D01*
X47364500Y-31827525D01*
X38305500Y-31827525D01*
X38267984Y-31687515D01*
X38262447Y-31677925D01*
X38195511Y-31561988D01*
X38195506Y-31561982D01*
X38093017Y-31459493D01*
X38093011Y-31459488D01*
X37967488Y-31387017D01*
X37967489Y-31387017D01*
X37956006Y-31383940D01*
X37827475Y-31349500D01*
X37682525Y-31349500D01*
X37553993Y-31383940D01*
X37542511Y-31387017D01*
X37416988Y-31459488D01*
X37416982Y-31459493D01*
X37314493Y-31561982D01*
X37314488Y-31561988D01*
X37242017Y-31687511D01*
X37242016Y-31687515D01*
X37204500Y-31827525D01*
X36537275Y-31827525D01*
X36496814Y-31624116D01*
X36496811Y-31624104D01*
X36496810Y-31624101D01*
X36496809Y-31624095D01*
X36394118Y-31285565D01*
X36258739Y-30958731D01*
X36258735Y-30958723D01*
X36154691Y-30764071D01*
X39049499Y-30764071D01*
X39074497Y-30889738D01*
X39074499Y-30889744D01*
X39123533Y-31008124D01*
X39123538Y-31008133D01*
X39194723Y-31114668D01*
X39194726Y-31114672D01*
X39285327Y-31205273D01*
X39285331Y-31205276D01*
X39391866Y-31276461D01*
X39391872Y-31276464D01*
X39391873Y-31276465D01*
X39510256Y-31325501D01*
X39510260Y-31325501D01*
X39510261Y-31325502D01*
X39635928Y-31350500D01*
X39635931Y-31350500D01*
X39764071Y-31350500D01*
X39848615Y-31333682D01*
X39889744Y-31325501D01*
X40008127Y-31276465D01*
X40114669Y-31205276D01*
X40205276Y-31114669D01*
X40276465Y-31008127D01*
X40325501Y-30889744D01*
X40333725Y-30848402D01*
X40350500Y-30764071D01*
X40350500Y-30635928D01*
X40325502Y-30510261D01*
X40325501Y-30510260D01*
X40325501Y-30510256D01*
X40276465Y-30391873D01*
X40276464Y-30391872D01*
X40276461Y-30391866D01*
X40205276Y-30285331D01*
X40205273Y-30285327D01*
X40114672Y-30194726D01*
X40114668Y-30194723D01*
X40008133Y-30123538D01*
X40008124Y-30123533D01*
X39889744Y-30074499D01*
X39889738Y-30074497D01*
X39764071Y-30049500D01*
X39764069Y-30049500D01*
X39635931Y-30049500D01*
X39635929Y-30049500D01*
X39510261Y-30074497D01*
X39510255Y-30074499D01*
X39391875Y-30123533D01*
X39391866Y-30123538D01*
X39285331Y-30194723D01*
X39285327Y-30194726D01*
X39194726Y-30285327D01*
X39194723Y-30285331D01*
X39123538Y-30391866D01*
X39123533Y-30391875D01*
X39074499Y-30510255D01*
X39074497Y-30510261D01*
X39049500Y-30635928D01*
X39049500Y-30635931D01*
X39049500Y-30764069D01*
X39049500Y-30764071D01*
X39049499Y-30764071D01*
X36154691Y-30764071D01*
X36114187Y-30688294D01*
X36114186Y-30688293D01*
X36106355Y-30673642D01*
X36091976Y-30646741D01*
X35895436Y-30352598D01*
X35671012Y-30079136D01*
X35671011Y-30079135D01*
X35671007Y-30079130D01*
X35420869Y-29828992D01*
X35288492Y-29720353D01*
X35249158Y-29662608D01*
X35247287Y-29592763D01*
X35283475Y-29532995D01*
X35346230Y-29502279D01*
X35367157Y-29500500D01*
X40671966Y-29500500D01*
X40671969Y-29500500D01*
X41014250Y-29466789D01*
X41351578Y-29399690D01*
X41680705Y-29299850D01*
X41998462Y-29168231D01*
X42301787Y-29006100D01*
X42460097Y-28900321D01*
X45589500Y-28900321D01*
X45589500Y-30649678D01*
X45604032Y-30722735D01*
X45604033Y-30722739D01*
X45604034Y-30722740D01*
X45659399Y-30805601D01*
X45735673Y-30856565D01*
X45742260Y-30860966D01*
X45742264Y-30860967D01*
X45815321Y-30875499D01*
X45815324Y-30875500D01*
X45815326Y-30875500D01*
X47564676Y-30875500D01*
X47564677Y-30875499D01*
X47637740Y-30860966D01*
X47720601Y-30805601D01*
X47775966Y-30722740D01*
X47790500Y-30649674D01*
X47790500Y-29688389D01*
X48129500Y-29688389D01*
X48129500Y-29861610D01*
X48156597Y-30032697D01*
X48156597Y-30032699D01*
X48156598Y-30032701D01*
X48210127Y-30197445D01*
X48288768Y-30351788D01*
X48390586Y-30491928D01*
X48513072Y-30614414D01*
X48653212Y-30716232D01*
X48807555Y-30794873D01*
X48972299Y-30848402D01*
X49143389Y-30875500D01*
X49143390Y-30875500D01*
X49316610Y-30875500D01*
X49316611Y-30875500D01*
X49487701Y-30848402D01*
X49652445Y-30794873D01*
X49806788Y-30716232D01*
X49946928Y-30614414D01*
X50069414Y-30491928D01*
X50171232Y-30351788D01*
X50249873Y-30197445D01*
X50303402Y-30032701D01*
X50330500Y-29861611D01*
X50330500Y-29688389D01*
X50303402Y-29517299D01*
X50249873Y-29352555D01*
X50171232Y-29198212D01*
X50069414Y-29058072D01*
X49946928Y-28935586D01*
X49806788Y-28833768D01*
X49769991Y-28815019D01*
X49652447Y-28755128D01*
X49652446Y-28755127D01*
X49652445Y-28755127D01*
X49487701Y-28701598D01*
X49487699Y-28701597D01*
X49487698Y-28701597D01*
X49356271Y-28680781D01*
X49316611Y-28674500D01*
X49143389Y-28674500D01*
X49103728Y-28680781D01*
X48972302Y-28701597D01*
X48807552Y-28755128D01*
X48653211Y-28833768D01*
X48600733Y-28871896D01*
X48513072Y-28935586D01*
X48513070Y-28935588D01*
X48513069Y-28935588D01*
X48390588Y-29058069D01*
X48390588Y-29058070D01*
X48390586Y-29058072D01*
X48346859Y-29118256D01*
X48288768Y-29198211D01*
X48210128Y-29352552D01*
X48156597Y-29517302D01*
X48129500Y-29688389D01*
X47790500Y-29688389D01*
X47790500Y-28900326D01*
X47790500Y-28900323D01*
X47790499Y-28900321D01*
X47775967Y-28827264D01*
X47775966Y-28827260D01*
X47756669Y-28798380D01*
X47720601Y-28744399D01*
X47637740Y-28689034D01*
X47637739Y-28689033D01*
X47637735Y-28689032D01*
X47564677Y-28674500D01*
X47564674Y-28674500D01*
X45815326Y-28674500D01*
X45815323Y-28674500D01*
X45742264Y-28689032D01*
X45742260Y-28689033D01*
X45659399Y-28744399D01*
X45604033Y-28827260D01*
X45604032Y-28827264D01*
X45589500Y-28900321D01*
X42460097Y-28900321D01*
X42587760Y-28815019D01*
X42853627Y-28596828D01*
X43096828Y-28353627D01*
X43315019Y-28087760D01*
X43506100Y-27801787D01*
X43668231Y-27498462D01*
X43799850Y-27180705D01*
X43809641Y-27148428D01*
X45590000Y-27148428D01*
X45590000Y-27321571D01*
X45617085Y-27492584D01*
X45670592Y-27657259D01*
X45749196Y-27811525D01*
X45753709Y-27817736D01*
X45753709Y-27817737D01*
X46207037Y-27364408D01*
X46224075Y-27427993D01*
X46289901Y-27542007D01*
X46382993Y-27635099D01*
X46497007Y-27700925D01*
X46560589Y-27717962D01*
X46107261Y-28171289D01*
X46107262Y-28171290D01*
X46113471Y-28175801D01*
X46267742Y-28254408D01*
X46432415Y-28307914D01*
X46603429Y-28335000D01*
X46776571Y-28335000D01*
X46947584Y-28307914D01*
X47112257Y-28254408D01*
X47266525Y-28175803D01*
X47272736Y-28171289D01*
X47272737Y-28171289D01*
X46819410Y-27717962D01*
X46882993Y-27700925D01*
X46997007Y-27635099D01*
X47090099Y-27542007D01*
X47155925Y-27427993D01*
X47172962Y-27364409D01*
X47626289Y-27817736D01*
X47630803Y-27811525D01*
X47709408Y-27657257D01*
X47762914Y-27492584D01*
X47790000Y-27321571D01*
X47790000Y-27148428D01*
X47789994Y-27148389D01*
X48129500Y-27148389D01*
X48129500Y-27321611D01*
X48156598Y-27492701D01*
X48210127Y-27657445D01*
X48288768Y-27811788D01*
X48390586Y-27951928D01*
X48513072Y-28074414D01*
X48653212Y-28176232D01*
X48807555Y-28254873D01*
X48972299Y-28308402D01*
X49143389Y-28335500D01*
X49143390Y-28335500D01*
X49316610Y-28335500D01*
X49316611Y-28335500D01*
X49487701Y-28308402D01*
X49652445Y-28254873D01*
X49806788Y-28176232D01*
X49946928Y-28074414D01*
X50069414Y-27951928D01*
X50171232Y-27811788D01*
X50249873Y-27657445D01*
X50303402Y-27492701D01*
X50330500Y-27321611D01*
X50330500Y-27148389D01*
X50303402Y-26977299D01*
X50249873Y-26812555D01*
X50171232Y-26658212D01*
X50069414Y-26518072D01*
X49946928Y-26395586D01*
X49806788Y-26293768D01*
X49652445Y-26215127D01*
X49487701Y-26161598D01*
X49487699Y-26161597D01*
X49487698Y-26161597D01*
X49356271Y-26140781D01*
X49316611Y-26134500D01*
X49143389Y-26134500D01*
X49103728Y-26140781D01*
X48972302Y-26161597D01*
X48807552Y-26215128D01*
X48653211Y-26293768D01*
X48585041Y-26343297D01*
X48513072Y-26395586D01*
X48513070Y-26395588D01*
X48513069Y-26395588D01*
X48390588Y-26518069D01*
X48390588Y-26518070D01*
X48390586Y-26518072D01*
X48346859Y-26578256D01*
X48288768Y-26658211D01*
X48210128Y-26812552D01*
X48210127Y-26812554D01*
X48210127Y-26812555D01*
X48194128Y-26861793D01*
X48156597Y-26977302D01*
X48135965Y-27107569D01*
X48129500Y-27148389D01*
X47789994Y-27148389D01*
X47762914Y-26977415D01*
X47709408Y-26812742D01*
X47630801Y-26658471D01*
X47626290Y-26652262D01*
X47626289Y-26652261D01*
X47172962Y-27105589D01*
X47155925Y-27042007D01*
X47090099Y-26927993D01*
X46997007Y-26834901D01*
X46882993Y-26769075D01*
X46819409Y-26752037D01*
X47272737Y-26298709D01*
X47266525Y-26294196D01*
X47112259Y-26215592D01*
X46947584Y-26162085D01*
X46776571Y-26135000D01*
X46603429Y-26135000D01*
X46432415Y-26162085D01*
X46267740Y-26215592D01*
X46113480Y-26294193D01*
X46113463Y-26294203D01*
X46107261Y-26298708D01*
X46107261Y-26298709D01*
X46560590Y-26752037D01*
X46497007Y-26769075D01*
X46382993Y-26834901D01*
X46289901Y-26927993D01*
X46224075Y-27042007D01*
X46207037Y-27105590D01*
X45753709Y-26652261D01*
X45753708Y-26652261D01*
X45749203Y-26658463D01*
X45749193Y-26658480D01*
X45670592Y-26812740D01*
X45617085Y-26977415D01*
X45590000Y-27148428D01*
X43809641Y-27148428D01*
X43899690Y-26851578D01*
X43966789Y-26514250D01*
X44000500Y-26171969D01*
X44000500Y-26006961D01*
X44001280Y-25993077D01*
X44001280Y-25993076D01*
X44011460Y-25902729D01*
X44017635Y-25875670D01*
X44045353Y-25796456D01*
X44057396Y-25771450D01*
X44102046Y-25700389D01*
X44119351Y-25678690D01*
X44178690Y-25619351D01*
X44200389Y-25602046D01*
X44271450Y-25557396D01*
X44296456Y-25545353D01*
X44375670Y-25517635D01*
X44402733Y-25511459D01*
X44465419Y-25504396D01*
X44493079Y-25501280D01*
X44506962Y-25500500D01*
X44565892Y-25500500D01*
X52638745Y-25500500D01*
X52705784Y-25520185D01*
G37*
%TD.AperFunction*%
%TD*%
M02*
