%TF.GenerationSoftware,KiCad,Pcbnew,10.0.0*%
%TF.CreationDate,2026-03-29T12:23:08+01:00*%
%TF.ProjectId,Comms,436f6d6d-732e-46b6-9963-61645f706362,rev?*%
%TF.SameCoordinates,Original*%
%TF.FileFunction,Copper,L4,Bot*%
%TF.FilePolarity,Positive*%
%FSLAX46Y46*%
G04 Gerber Fmt 4.6, Leading zero omitted, Abs format (unit mm)*
G04 Created by KiCad (PCBNEW 10.0.0) date 2026-03-29 12:23:08*
%MOMM*%
%LPD*%
G01*
G04 APERTURE LIST*
%TA.AperFunction,ComponentPad*%
%ADD10R,1.700000X1.700000*%
%TD*%
%TA.AperFunction,ComponentPad*%
%ADD11O,1.700000X1.700000*%
%TD*%
%TA.AperFunction,ViaPad*%
%ADD12C,0.800000*%
%TD*%
%TA.AperFunction,ViaPad*%
%ADD13C,0.600000*%
%TD*%
%TA.AperFunction,Conductor*%
%ADD14C,0.300000*%
%TD*%
%TA.AperFunction,Conductor*%
%ADD15C,1.000000*%
%TD*%
G04 APERTURE END LIST*
D10*
%TO.P,J1,1,SPI-CIPO*%
%TO.N,SPI-CIPO*%
X26270000Y-53890000D03*
D11*
%TO.P,J1,2,I7*%
%TO.N,ESP32-EN*%
X23730000Y-53890000D03*
%TO.P,J1,3,SPI-CLK*%
%TO.N,SPI-CLK*%
X26270000Y-51350000D03*
%TO.P,J1,4,I6*%
%TO.N,~{ESP32-INT}*%
X23730000Y-51350000D03*
%TO.P,J1,5,SPI-COPI*%
%TO.N,SPI-COPI*%
X26270000Y-48810000D03*
%TO.P,J1,6,I5*%
%TO.N,~{ESP32-CS}*%
X23730000Y-48810000D03*
%TO.P,J1,7,SDA*%
%TO.N,unconnected-(J1-SDA-Pad7)*%
X26270000Y-46270000D03*
%TO.P,J1,8,I4*%
%TO.N,~{RTC-INT}*%
X23730000Y-46270000D03*
%TO.P,J1,9,SCL*%
%TO.N,unconnected-(J1-SCL-Pad9)*%
X26270000Y-43730000D03*
%TO.P,J1,10,I3*%
%TO.N,~{RTC-CS}*%
X23730000Y-43730000D03*
%TO.P,J1,11,GND*%
%TO.N,GND*%
X26270000Y-41190000D03*
%TO.P,J1,12,I2*%
%TO.N,BUS-TX*%
X23730000Y-41190000D03*
%TO.P,J1,13,5V*%
%TO.N,+5V*%
X26270000Y-38650000D03*
%TO.P,J1,14,I1*%
%TO.N,BUS-DE*%
X23730000Y-38650000D03*
%TO.P,J1,15,3V3*%
%TO.N,+3.3V*%
X26270000Y-36110000D03*
%TO.P,J1,16,I0*%
%TO.N,BUS-RX*%
X23730000Y-36110000D03*
%TD*%
D10*
%TO.P,J3,1,Pin_1*%
%TO.N,+5V*%
X40080000Y-23460000D03*
D11*
%TO.P,J3,2,Pin_2*%
%TO.N,+3.3V*%
X40080000Y-26000000D03*
%TO.P,J3,3,Pin_3*%
%TO.N,GND*%
X37540000Y-23460000D03*
%TO.P,J3,4,Pin_4*%
X37540000Y-26000000D03*
%TO.P,J3,5,Pin_5*%
%TO.N,A*%
X35000000Y-23460000D03*
%TO.P,J3,6,Pin_6*%
%TO.N,B*%
X35000000Y-26000000D03*
%TD*%
D10*
%TO.P,J4,1,Pin_1*%
%TO.N,+5V*%
X56500000Y-23460000D03*
D11*
%TO.P,J4,2,Pin_2*%
%TO.N,+3.3V*%
X56500000Y-26000000D03*
%TO.P,J4,3,Pin_3*%
%TO.N,GND*%
X53960000Y-23460000D03*
%TO.P,J4,4,Pin_4*%
X53960000Y-26000000D03*
%TO.P,J4,5,Pin_5*%
%TO.N,A*%
X51420000Y-23460000D03*
%TO.P,J4,6,Pin_6*%
%TO.N,B*%
X51420000Y-26000000D03*
%TD*%
D12*
%TO.N,GND*%
X44472000Y-59579800D03*
X54051200Y-49998800D03*
D13*
X29940000Y-39940000D03*
D12*
X54102000Y-67524800D03*
D13*
X42550000Y-41860000D03*
D12*
X56515000Y-47535000D03*
X46172000Y-59579800D03*
X46172000Y-61279800D03*
X53187600Y-60209600D03*
D13*
X59940000Y-44940000D03*
X39940000Y-34940000D03*
D12*
X64000000Y-37510000D03*
D13*
X49940000Y-54940000D03*
X31140000Y-33485000D03*
X39940000Y-64940000D03*
X24940000Y-29940000D03*
D12*
X53187600Y-62749600D03*
X50800000Y-46582500D03*
D13*
X49940000Y-39940000D03*
D12*
X35400000Y-32810000D03*
D13*
X62500000Y-53610000D03*
D12*
X44472000Y-61279800D03*
X44472000Y-57879800D03*
D13*
X44940000Y-24940000D03*
X54940000Y-29940000D03*
X48703750Y-47710000D03*
X32080000Y-36336717D03*
X24940000Y-59940000D03*
D12*
X46172000Y-57879800D03*
D13*
X57000000Y-64510000D03*
X64940000Y-34940000D03*
D12*
X42772000Y-57879800D03*
D13*
X59940000Y-59940000D03*
X30800000Y-30400000D03*
X62500000Y-55010000D03*
D12*
X42772000Y-59579800D03*
X42772000Y-61279800D03*
D13*
X34940000Y-54940000D03*
%TO.N,+3.3V*%
X29940000Y-54940000D03*
X44940000Y-29940000D03*
X40200000Y-46310000D03*
X34940000Y-39940000D03*
X35200000Y-50510000D03*
X54940000Y-34940000D03*
X64940000Y-39940000D03*
X30200000Y-46310000D03*
X49940000Y-44940000D03*
X64940000Y-59940000D03*
X59940000Y-24940000D03*
X30200000Y-50710000D03*
X29940000Y-24940000D03*
X44940000Y-54940000D03*
X34940000Y-64940000D03*
X59850000Y-62660000D03*
X59940000Y-49940000D03*
X49940000Y-64940000D03*
%TO.N,SPI-CLK*%
X44200000Y-48510000D03*
%TO.N,SPI-COPI*%
X42600000Y-48810000D03*
%TD*%
%TO.N,SPI-CLK*%
D14*
X44200000Y-48510000D02*
X43200000Y-49694000D01*
X43200000Y-49694000D02*
X27926000Y-49694000D01*
X27926000Y-49694000D02*
X26270000Y-51350000D01*
%TO.N,SPI-COPI*%
X26270000Y-48810000D02*
X42600000Y-48810000D01*
%TO.N,+5V*%
D15*
X56500000Y-23460000D02*
X56500000Y-22610000D01*
X40080000Y-23460000D02*
X41660000Y-23460000D01*
X26270000Y-38650000D02*
X41150000Y-38650000D01*
X42600000Y-22510000D02*
X42600000Y-25310000D01*
X42600000Y-24400000D02*
X41660000Y-23460000D01*
X42600000Y-37200000D02*
X42600000Y-25310000D01*
X41150000Y-38650000D02*
X42600000Y-37200000D01*
X42600000Y-25310000D02*
X42600000Y-24400000D01*
X55400000Y-21510000D02*
X43600000Y-21510000D01*
X43600000Y-21510000D02*
X42600000Y-22510000D01*
X56500000Y-22610000D02*
X55400000Y-21510000D01*
%TD*%
%TA.AperFunction,Conductor*%
%TO.N,+3.3V*%
G36*
X67003736Y-20500726D02*
G01*
X67293796Y-20518271D01*
X67308659Y-20520076D01*
X67590797Y-20571780D01*
X67605334Y-20575363D01*
X67879182Y-20660698D01*
X67893163Y-20666000D01*
X68154734Y-20783724D01*
X68167987Y-20790680D01*
X68413458Y-20939071D01*
X68425776Y-20947573D01*
X68651573Y-21124474D01*
X68662781Y-21134404D01*
X68865595Y-21337218D01*
X68875525Y-21348426D01*
X69052422Y-21574217D01*
X69060928Y-21586541D01*
X69209319Y-21832012D01*
X69216277Y-21845269D01*
X69327750Y-22092951D01*
X69333994Y-22106823D01*
X69339304Y-22120825D01*
X69424635Y-22394664D01*
X69428219Y-22409202D01*
X69479923Y-22691340D01*
X69481728Y-22706205D01*
X69499274Y-22996263D01*
X69499500Y-23003750D01*
X69499500Y-66996249D01*
X69499274Y-67003736D01*
X69481728Y-67293794D01*
X69479923Y-67308659D01*
X69428219Y-67590797D01*
X69424635Y-67605335D01*
X69339304Y-67879174D01*
X69333994Y-67893176D01*
X69216277Y-68154730D01*
X69209319Y-68167987D01*
X69060928Y-68413458D01*
X69052422Y-68425782D01*
X68875525Y-68651573D01*
X68865595Y-68662781D01*
X68662781Y-68865595D01*
X68651573Y-68875525D01*
X68425782Y-69052422D01*
X68413458Y-69060928D01*
X68167987Y-69209319D01*
X68154730Y-69216277D01*
X67893176Y-69333994D01*
X67879174Y-69339304D01*
X67605335Y-69424635D01*
X67590797Y-69428219D01*
X67308659Y-69479923D01*
X67293794Y-69481728D01*
X67003736Y-69499274D01*
X66996249Y-69499500D01*
X23003751Y-69499500D01*
X22996264Y-69499274D01*
X22706205Y-69481728D01*
X22691340Y-69479923D01*
X22409202Y-69428219D01*
X22394664Y-69424635D01*
X22120825Y-69339304D01*
X22106827Y-69333995D01*
X21954096Y-69265256D01*
X21845269Y-69216277D01*
X21832012Y-69209319D01*
X21586541Y-69060928D01*
X21574217Y-69052422D01*
X21348426Y-68875525D01*
X21337218Y-68865595D01*
X21134404Y-68662781D01*
X21124474Y-68651573D01*
X20947573Y-68425776D01*
X20939071Y-68413458D01*
X20790680Y-68167987D01*
X20783722Y-68154730D01*
X20781729Y-68150301D01*
X20666000Y-67893163D01*
X20660698Y-67879182D01*
X20575363Y-67605334D01*
X20571780Y-67590797D01*
X20524914Y-67335061D01*
X20520075Y-67308657D01*
X20518271Y-67293794D01*
X20512343Y-67195799D01*
X20500726Y-67003736D01*
X20500500Y-66996249D01*
X20500500Y-66378711D01*
X21649500Y-66378711D01*
X21649500Y-66621288D01*
X21681161Y-66861785D01*
X21743947Y-67096104D01*
X21836773Y-67320205D01*
X21836776Y-67320212D01*
X21958064Y-67530289D01*
X21958066Y-67530292D01*
X21958067Y-67530293D01*
X22105733Y-67722736D01*
X22105739Y-67722743D01*
X22277256Y-67894260D01*
X22277262Y-67894265D01*
X22469711Y-68041936D01*
X22679788Y-68163224D01*
X22903900Y-68256054D01*
X23138211Y-68318838D01*
X23318586Y-68342584D01*
X23378711Y-68350500D01*
X23378712Y-68350500D01*
X23621289Y-68350500D01*
X23669388Y-68344167D01*
X23861789Y-68318838D01*
X24096100Y-68256054D01*
X24320212Y-68163224D01*
X24530289Y-68041936D01*
X24722738Y-67894265D01*
X24894265Y-67722738D01*
X24996985Y-67588871D01*
X53451499Y-67588871D01*
X53476497Y-67714538D01*
X53476499Y-67714544D01*
X53525533Y-67832924D01*
X53525538Y-67832933D01*
X53596723Y-67939468D01*
X53596726Y-67939472D01*
X53687327Y-68030073D01*
X53687331Y-68030076D01*
X53793866Y-68101261D01*
X53793872Y-68101264D01*
X53793873Y-68101265D01*
X53912256Y-68150301D01*
X53912260Y-68150301D01*
X53912261Y-68150302D01*
X54037928Y-68175300D01*
X54037931Y-68175300D01*
X54166071Y-68175300D01*
X54250615Y-68158482D01*
X54291744Y-68150301D01*
X54410127Y-68101265D01*
X54516669Y-68030076D01*
X54607276Y-67939469D01*
X54678465Y-67832927D01*
X54727501Y-67714544D01*
X54750650Y-67598169D01*
X54752500Y-67588871D01*
X54752500Y-67460728D01*
X54727502Y-67335061D01*
X54727501Y-67335060D01*
X54727501Y-67335056D01*
X54678465Y-67216673D01*
X54678464Y-67216672D01*
X54678461Y-67216666D01*
X54607276Y-67110131D01*
X54607273Y-67110127D01*
X54516672Y-67019526D01*
X54516668Y-67019523D01*
X54410133Y-66948338D01*
X54410124Y-66948333D01*
X54291744Y-66899299D01*
X54291738Y-66899297D01*
X54166071Y-66874300D01*
X54166069Y-66874300D01*
X54037931Y-66874300D01*
X54037929Y-66874300D01*
X53912261Y-66899297D01*
X53912255Y-66899299D01*
X53793875Y-66948333D01*
X53793866Y-66948338D01*
X53687331Y-67019523D01*
X53687327Y-67019526D01*
X53596726Y-67110127D01*
X53596723Y-67110131D01*
X53525538Y-67216666D01*
X53525533Y-67216675D01*
X53476499Y-67335055D01*
X53476497Y-67335061D01*
X53451500Y-67460728D01*
X53451500Y-67460731D01*
X53451500Y-67588869D01*
X53451500Y-67588871D01*
X53451499Y-67588871D01*
X24996985Y-67588871D01*
X25041936Y-67530289D01*
X25163224Y-67320212D01*
X25256054Y-67096100D01*
X25318838Y-66861789D01*
X25350500Y-66621288D01*
X25350500Y-66378712D01*
X25350214Y-66376540D01*
X56738200Y-66376540D01*
X56738200Y-66523459D01*
X56766858Y-66667534D01*
X56766861Y-66667544D01*
X56823078Y-66803266D01*
X56823083Y-66803275D01*
X56904698Y-66925419D01*
X56904701Y-66925423D01*
X57008576Y-67029298D01*
X57008580Y-67029301D01*
X57130724Y-67110916D01*
X57130730Y-67110919D01*
X57130731Y-67110920D01*
X57266458Y-67167140D01*
X57410540Y-67195799D01*
X57410544Y-67195800D01*
X57410545Y-67195800D01*
X57557456Y-67195800D01*
X57557457Y-67195799D01*
X57701542Y-67167140D01*
X57837269Y-67110920D01*
X57959420Y-67029301D01*
X58063301Y-66925420D01*
X58144920Y-66803269D01*
X58201140Y-66667542D01*
X58229800Y-66523455D01*
X58229800Y-66376545D01*
X58229799Y-66376540D01*
X58770200Y-66376540D01*
X58770200Y-66523459D01*
X58798858Y-66667534D01*
X58798861Y-66667544D01*
X58855078Y-66803266D01*
X58855083Y-66803275D01*
X58936698Y-66925419D01*
X58936701Y-66925423D01*
X59040576Y-67029298D01*
X59040580Y-67029301D01*
X59162724Y-67110916D01*
X59162730Y-67110919D01*
X59162731Y-67110920D01*
X59298458Y-67167140D01*
X59442540Y-67195799D01*
X59442544Y-67195800D01*
X59442545Y-67195800D01*
X59589456Y-67195800D01*
X59589457Y-67195799D01*
X59733542Y-67167140D01*
X59869269Y-67110920D01*
X59991420Y-67029301D01*
X60095301Y-66925420D01*
X60176920Y-66803269D01*
X60233140Y-66667542D01*
X60261800Y-66523455D01*
X60261800Y-66378711D01*
X64649500Y-66378711D01*
X64649500Y-66621288D01*
X64681161Y-66861785D01*
X64743947Y-67096104D01*
X64836773Y-67320205D01*
X64836776Y-67320212D01*
X64958064Y-67530289D01*
X64958066Y-67530292D01*
X64958067Y-67530293D01*
X65105733Y-67722736D01*
X65105739Y-67722743D01*
X65277256Y-67894260D01*
X65277262Y-67894265D01*
X65469711Y-68041936D01*
X65679788Y-68163224D01*
X65903900Y-68256054D01*
X66138211Y-68318838D01*
X66318586Y-68342584D01*
X66378711Y-68350500D01*
X66378712Y-68350500D01*
X66621289Y-68350500D01*
X66669388Y-68344167D01*
X66861789Y-68318838D01*
X67096100Y-68256054D01*
X67320212Y-68163224D01*
X67530289Y-68041936D01*
X67722738Y-67894265D01*
X67894265Y-67722738D01*
X68041936Y-67530289D01*
X68163224Y-67320212D01*
X68256054Y-67096100D01*
X68318838Y-66861789D01*
X68350500Y-66621288D01*
X68350500Y-66378712D01*
X68318838Y-66138211D01*
X68256054Y-65903900D01*
X68163224Y-65679788D01*
X68041936Y-65469711D01*
X67973487Y-65380506D01*
X67894266Y-65277263D01*
X67894260Y-65277256D01*
X67722743Y-65105739D01*
X67722736Y-65105733D01*
X67530293Y-64958067D01*
X67530292Y-64958066D01*
X67530289Y-64958064D01*
X67320212Y-64836776D01*
X67320205Y-64836773D01*
X67096104Y-64743947D01*
X66861785Y-64681161D01*
X66621289Y-64649500D01*
X66621288Y-64649500D01*
X66378712Y-64649500D01*
X66378711Y-64649500D01*
X66138214Y-64681161D01*
X65903895Y-64743947D01*
X65679794Y-64836773D01*
X65679785Y-64836777D01*
X65469706Y-64958067D01*
X65277263Y-65105733D01*
X65277256Y-65105739D01*
X65105739Y-65277256D01*
X65105733Y-65277263D01*
X64958067Y-65469706D01*
X64836777Y-65679785D01*
X64836773Y-65679794D01*
X64743947Y-65903895D01*
X64681161Y-66138214D01*
X64649500Y-66378711D01*
X60261800Y-66378711D01*
X60261800Y-66376545D01*
X60233140Y-66232458D01*
X60176920Y-66096731D01*
X60176919Y-66096730D01*
X60176916Y-66096724D01*
X60095301Y-65974580D01*
X60095298Y-65974576D01*
X59991423Y-65870701D01*
X59991419Y-65870698D01*
X59869275Y-65789083D01*
X59869266Y-65789078D01*
X59733544Y-65732861D01*
X59733545Y-65732861D01*
X59733542Y-65732860D01*
X59733538Y-65732859D01*
X59733534Y-65732858D01*
X59589459Y-65704200D01*
X59589455Y-65704200D01*
X59442545Y-65704200D01*
X59442540Y-65704200D01*
X59298465Y-65732858D01*
X59298455Y-65732861D01*
X59162733Y-65789078D01*
X59162724Y-65789083D01*
X59040580Y-65870698D01*
X59040576Y-65870701D01*
X58936701Y-65974576D01*
X58936698Y-65974580D01*
X58855083Y-66096724D01*
X58855078Y-66096733D01*
X58798861Y-66232455D01*
X58798858Y-66232465D01*
X58770200Y-66376540D01*
X58229799Y-66376540D01*
X58201140Y-66232458D01*
X58144920Y-66096731D01*
X58144919Y-66096730D01*
X58144916Y-66096724D01*
X58063301Y-65974580D01*
X58063298Y-65974576D01*
X57959423Y-65870701D01*
X57959419Y-65870698D01*
X57837275Y-65789083D01*
X57837266Y-65789078D01*
X57701544Y-65732861D01*
X57701545Y-65732861D01*
X57701542Y-65732860D01*
X57701538Y-65732859D01*
X57701534Y-65732858D01*
X57557459Y-65704200D01*
X57557455Y-65704200D01*
X57410545Y-65704200D01*
X57410540Y-65704200D01*
X57266465Y-65732858D01*
X57266455Y-65732861D01*
X57130733Y-65789078D01*
X57130724Y-65789083D01*
X57008580Y-65870698D01*
X57008576Y-65870701D01*
X56904701Y-65974576D01*
X56904698Y-65974580D01*
X56823083Y-66096724D01*
X56823078Y-66096733D01*
X56766861Y-66232455D01*
X56766858Y-66232465D01*
X56738200Y-66376540D01*
X25350214Y-66376540D01*
X25318838Y-66138211D01*
X25256054Y-65903900D01*
X25163224Y-65679788D01*
X25041936Y-65469711D01*
X24973487Y-65380506D01*
X24894266Y-65277263D01*
X24894260Y-65277256D01*
X24722743Y-65105739D01*
X24722736Y-65105733D01*
X24626513Y-65031899D01*
X24530289Y-64958064D01*
X24373471Y-64867525D01*
X39389500Y-64867525D01*
X39389500Y-65012475D01*
X39427016Y-65152485D01*
X39427017Y-65152488D01*
X39499488Y-65278011D01*
X39499490Y-65278013D01*
X39499491Y-65278015D01*
X39601985Y-65380509D01*
X39601986Y-65380510D01*
X39601988Y-65380511D01*
X39727511Y-65452982D01*
X39727512Y-65452982D01*
X39727515Y-65452984D01*
X39867525Y-65490500D01*
X39867528Y-65490500D01*
X40012472Y-65490500D01*
X40012475Y-65490500D01*
X40152485Y-65452984D01*
X40278015Y-65380509D01*
X40380509Y-65278015D01*
X40452984Y-65152485D01*
X40490500Y-65012475D01*
X40490500Y-64867525D01*
X40452984Y-64727515D01*
X40426221Y-64681161D01*
X40380511Y-64601988D01*
X40380506Y-64601982D01*
X40278017Y-64499493D01*
X40278011Y-64499488D01*
X40170688Y-64437525D01*
X56449500Y-64437525D01*
X56449500Y-64582475D01*
X56487016Y-64722485D01*
X56487017Y-64722488D01*
X56559488Y-64848011D01*
X56559490Y-64848013D01*
X56559491Y-64848015D01*
X56661985Y-64950509D01*
X56661986Y-64950510D01*
X56661988Y-64950511D01*
X56787511Y-65022982D01*
X56787512Y-65022982D01*
X56787515Y-65022984D01*
X56927525Y-65060500D01*
X56927528Y-65060500D01*
X57072472Y-65060500D01*
X57072475Y-65060500D01*
X57212485Y-65022984D01*
X57338015Y-64950509D01*
X57440509Y-64848015D01*
X57512984Y-64722485D01*
X57550500Y-64582475D01*
X57550500Y-64437525D01*
X57512984Y-64297515D01*
X57440509Y-64171985D01*
X57338015Y-64069491D01*
X57338013Y-64069490D01*
X57338011Y-64069488D01*
X57212488Y-63997017D01*
X57212489Y-63997017D01*
X57201006Y-63993940D01*
X57072475Y-63959500D01*
X56927525Y-63959500D01*
X56798993Y-63993940D01*
X56787511Y-63997017D01*
X56661988Y-64069488D01*
X56661982Y-64069493D01*
X56559493Y-64171982D01*
X56559488Y-64171988D01*
X56487017Y-64297511D01*
X56487016Y-64297515D01*
X56449500Y-64437525D01*
X40170688Y-64437525D01*
X40152488Y-64427017D01*
X40152489Y-64427017D01*
X40141006Y-64423940D01*
X40012475Y-64389500D01*
X39867525Y-64389500D01*
X39738993Y-64423940D01*
X39727511Y-64427017D01*
X39601988Y-64499488D01*
X39601982Y-64499493D01*
X39499493Y-64601982D01*
X39499488Y-64601988D01*
X39427017Y-64727511D01*
X39427016Y-64727515D01*
X39389500Y-64867525D01*
X24373471Y-64867525D01*
X24320212Y-64836776D01*
X24320205Y-64836773D01*
X24096104Y-64743947D01*
X23861785Y-64681161D01*
X23621289Y-64649500D01*
X23621288Y-64649500D01*
X23378712Y-64649500D01*
X23378711Y-64649500D01*
X23138214Y-64681161D01*
X22903895Y-64743947D01*
X22679794Y-64836773D01*
X22679785Y-64836777D01*
X22469706Y-64958067D01*
X22277263Y-65105733D01*
X22277256Y-65105739D01*
X22105739Y-65277256D01*
X22105733Y-65277263D01*
X21958067Y-65469706D01*
X21836777Y-65679785D01*
X21836773Y-65679794D01*
X21743947Y-65903895D01*
X21681161Y-66138214D01*
X21649500Y-66378711D01*
X20500500Y-66378711D01*
X20500500Y-62813671D01*
X52537099Y-62813671D01*
X52562097Y-62939338D01*
X52562099Y-62939344D01*
X52611133Y-63057724D01*
X52611138Y-63057733D01*
X52682323Y-63164268D01*
X52682326Y-63164272D01*
X52772927Y-63254873D01*
X52772931Y-63254876D01*
X52879466Y-63326061D01*
X52879472Y-63326064D01*
X52879473Y-63326065D01*
X52997856Y-63375101D01*
X52997860Y-63375101D01*
X52997861Y-63375102D01*
X53123528Y-63400100D01*
X53123531Y-63400100D01*
X53251671Y-63400100D01*
X53336215Y-63383282D01*
X53377344Y-63375101D01*
X53495727Y-63326065D01*
X53602269Y-63254876D01*
X53692876Y-63164269D01*
X53764065Y-63057727D01*
X53813101Y-62939344D01*
X53838100Y-62813669D01*
X53838100Y-62685531D01*
X53838100Y-62685528D01*
X53813102Y-62559861D01*
X53813101Y-62559860D01*
X53813101Y-62559856D01*
X53764065Y-62441473D01*
X53764064Y-62441472D01*
X53764061Y-62441466D01*
X53692876Y-62334931D01*
X53692873Y-62334927D01*
X53602272Y-62244326D01*
X53602268Y-62244323D01*
X53495733Y-62173138D01*
X53495724Y-62173133D01*
X53377344Y-62124099D01*
X53377338Y-62124097D01*
X53251671Y-62099100D01*
X53251669Y-62099100D01*
X53123531Y-62099100D01*
X53123529Y-62099100D01*
X52997861Y-62124097D01*
X52997855Y-62124099D01*
X52879475Y-62173133D01*
X52879466Y-62173138D01*
X52772931Y-62244323D01*
X52772927Y-62244326D01*
X52682326Y-62334927D01*
X52682323Y-62334931D01*
X52611138Y-62441466D01*
X52611133Y-62441475D01*
X52562099Y-62559855D01*
X52562097Y-62559861D01*
X52537100Y-62685528D01*
X52537100Y-62685531D01*
X52537100Y-62813669D01*
X52537100Y-62813671D01*
X52537099Y-62813671D01*
X20500500Y-62813671D01*
X20500500Y-61343871D01*
X42121499Y-61343871D01*
X42146497Y-61469538D01*
X42146499Y-61469544D01*
X42195533Y-61587924D01*
X42195538Y-61587933D01*
X42266723Y-61694468D01*
X42266726Y-61694472D01*
X42357327Y-61785073D01*
X42357331Y-61785076D01*
X42463866Y-61856261D01*
X42463872Y-61856264D01*
X42463873Y-61856265D01*
X42582256Y-61905301D01*
X42582260Y-61905301D01*
X42582261Y-61905302D01*
X42707928Y-61930300D01*
X42707931Y-61930300D01*
X42836071Y-61930300D01*
X42920615Y-61913482D01*
X42961744Y-61905301D01*
X43080127Y-61856265D01*
X43186669Y-61785076D01*
X43277276Y-61694469D01*
X43348465Y-61587927D01*
X43397501Y-61469544D01*
X43422500Y-61343871D01*
X43821499Y-61343871D01*
X43846497Y-61469538D01*
X43846499Y-61469544D01*
X43895533Y-61587924D01*
X43895538Y-61587933D01*
X43966723Y-61694468D01*
X43966726Y-61694472D01*
X44057327Y-61785073D01*
X44057331Y-61785076D01*
X44163866Y-61856261D01*
X44163872Y-61856264D01*
X44163873Y-61856265D01*
X44282256Y-61905301D01*
X44282260Y-61905301D01*
X44282261Y-61905302D01*
X44407928Y-61930300D01*
X44407931Y-61930300D01*
X44536071Y-61930300D01*
X44620615Y-61913482D01*
X44661744Y-61905301D01*
X44780127Y-61856265D01*
X44886669Y-61785076D01*
X44977276Y-61694469D01*
X45048465Y-61587927D01*
X45097501Y-61469544D01*
X45122500Y-61343871D01*
X45521499Y-61343871D01*
X45546497Y-61469538D01*
X45546499Y-61469544D01*
X45595533Y-61587924D01*
X45595538Y-61587933D01*
X45666723Y-61694468D01*
X45666726Y-61694472D01*
X45757327Y-61785073D01*
X45757331Y-61785076D01*
X45863866Y-61856261D01*
X45863872Y-61856264D01*
X45863873Y-61856265D01*
X45982256Y-61905301D01*
X45982260Y-61905301D01*
X45982261Y-61905302D01*
X46107928Y-61930300D01*
X46107931Y-61930300D01*
X46236071Y-61930300D01*
X46320615Y-61913482D01*
X46361744Y-61905301D01*
X46480127Y-61856265D01*
X46586669Y-61785076D01*
X46677276Y-61694469D01*
X46748465Y-61587927D01*
X46797501Y-61469544D01*
X46822500Y-61343869D01*
X46822500Y-61296540D01*
X57754200Y-61296540D01*
X57754200Y-61443459D01*
X57759389Y-61469544D01*
X57782860Y-61587542D01*
X57783022Y-61587933D01*
X57839078Y-61723266D01*
X57839083Y-61723275D01*
X57920698Y-61845419D01*
X57920701Y-61845423D01*
X58024576Y-61949298D01*
X58024580Y-61949301D01*
X58146724Y-62030916D01*
X58146730Y-62030919D01*
X58146731Y-62030920D01*
X58282458Y-62087140D01*
X58426540Y-62115799D01*
X58426544Y-62115800D01*
X58426545Y-62115800D01*
X58573456Y-62115800D01*
X58573457Y-62115799D01*
X58717542Y-62087140D01*
X58853269Y-62030920D01*
X58975420Y-61949301D01*
X59079301Y-61845420D01*
X59160920Y-61723269D01*
X59217140Y-61587542D01*
X59245800Y-61443455D01*
X59245800Y-61296545D01*
X59217140Y-61152458D01*
X59160920Y-61016731D01*
X59160919Y-61016730D01*
X59160916Y-61016724D01*
X59079301Y-60894580D01*
X59079298Y-60894576D01*
X58975423Y-60790701D01*
X58975419Y-60790698D01*
X58853275Y-60709083D01*
X58853266Y-60709078D01*
X58717544Y-60652861D01*
X58717545Y-60652861D01*
X58717542Y-60652860D01*
X58717538Y-60652859D01*
X58717534Y-60652858D01*
X58573459Y-60624200D01*
X58573455Y-60624200D01*
X58426545Y-60624200D01*
X58426540Y-60624200D01*
X58282465Y-60652858D01*
X58282455Y-60652861D01*
X58146733Y-60709078D01*
X58146724Y-60709083D01*
X58024580Y-60790698D01*
X58024576Y-60790701D01*
X57920701Y-60894576D01*
X57920698Y-60894580D01*
X57839083Y-61016724D01*
X57839078Y-61016733D01*
X57782861Y-61152455D01*
X57782858Y-61152465D01*
X57754200Y-61296540D01*
X46822500Y-61296540D01*
X46822500Y-61215731D01*
X46822500Y-61215728D01*
X46797502Y-61090061D01*
X46797501Y-61090060D01*
X46797501Y-61090056D01*
X46748465Y-60971673D01*
X46748464Y-60971672D01*
X46748461Y-60971666D01*
X46677276Y-60865131D01*
X46677273Y-60865127D01*
X46586672Y-60774526D01*
X46586668Y-60774523D01*
X46480133Y-60703338D01*
X46480124Y-60703333D01*
X46361744Y-60654299D01*
X46361738Y-60654297D01*
X46236071Y-60629300D01*
X46236069Y-60629300D01*
X46107931Y-60629300D01*
X46107929Y-60629300D01*
X45982261Y-60654297D01*
X45982255Y-60654299D01*
X45863875Y-60703333D01*
X45863866Y-60703338D01*
X45757331Y-60774523D01*
X45757327Y-60774526D01*
X45666726Y-60865127D01*
X45666723Y-60865131D01*
X45595538Y-60971666D01*
X45595533Y-60971675D01*
X45546499Y-61090055D01*
X45546497Y-61090061D01*
X45521500Y-61215728D01*
X45521500Y-61215731D01*
X45521500Y-61343869D01*
X45521500Y-61343871D01*
X45521499Y-61343871D01*
X45122500Y-61343871D01*
X45122500Y-61343869D01*
X45122500Y-61215731D01*
X45122500Y-61215728D01*
X45097502Y-61090061D01*
X45097501Y-61090060D01*
X45097501Y-61090056D01*
X45048465Y-60971673D01*
X45048464Y-60971672D01*
X45048461Y-60971666D01*
X44977276Y-60865131D01*
X44977273Y-60865127D01*
X44886672Y-60774526D01*
X44886668Y-60774523D01*
X44780133Y-60703338D01*
X44780124Y-60703333D01*
X44661744Y-60654299D01*
X44661738Y-60654297D01*
X44536071Y-60629300D01*
X44536069Y-60629300D01*
X44407931Y-60629300D01*
X44407929Y-60629300D01*
X44282261Y-60654297D01*
X44282255Y-60654299D01*
X44163875Y-60703333D01*
X44163866Y-60703338D01*
X44057331Y-60774523D01*
X44057327Y-60774526D01*
X43966726Y-60865127D01*
X43966723Y-60865131D01*
X43895538Y-60971666D01*
X43895533Y-60971675D01*
X43846499Y-61090055D01*
X43846497Y-61090061D01*
X43821500Y-61215728D01*
X43821500Y-61215731D01*
X43821500Y-61343869D01*
X43821500Y-61343871D01*
X43821499Y-61343871D01*
X43422500Y-61343871D01*
X43422500Y-61343869D01*
X43422500Y-61215731D01*
X43422500Y-61215728D01*
X43397502Y-61090061D01*
X43397501Y-61090060D01*
X43397501Y-61090056D01*
X43348465Y-60971673D01*
X43348464Y-60971672D01*
X43348461Y-60971666D01*
X43277276Y-60865131D01*
X43277273Y-60865127D01*
X43186672Y-60774526D01*
X43186668Y-60774523D01*
X43080133Y-60703338D01*
X43080124Y-60703333D01*
X42961744Y-60654299D01*
X42961738Y-60654297D01*
X42836071Y-60629300D01*
X42836069Y-60629300D01*
X42707931Y-60629300D01*
X42707929Y-60629300D01*
X42582261Y-60654297D01*
X42582255Y-60654299D01*
X42463875Y-60703333D01*
X42463866Y-60703338D01*
X42357331Y-60774523D01*
X42357327Y-60774526D01*
X42266726Y-60865127D01*
X42266723Y-60865131D01*
X42195538Y-60971666D01*
X42195533Y-60971675D01*
X42146499Y-61090055D01*
X42146497Y-61090061D01*
X42121500Y-61215728D01*
X42121500Y-61215731D01*
X42121500Y-61343869D01*
X42121500Y-61343871D01*
X42121499Y-61343871D01*
X20500500Y-61343871D01*
X20500500Y-59867525D01*
X24389500Y-59867525D01*
X24389500Y-60012475D01*
X24408953Y-60085073D01*
X24427017Y-60152488D01*
X24499488Y-60278011D01*
X24499490Y-60278013D01*
X24499491Y-60278015D01*
X24601985Y-60380509D01*
X24601986Y-60380510D01*
X24601988Y-60380511D01*
X24727511Y-60452982D01*
X24727512Y-60452982D01*
X24727515Y-60452984D01*
X24867525Y-60490500D01*
X24867528Y-60490500D01*
X25012472Y-60490500D01*
X25012475Y-60490500D01*
X25152485Y-60452984D01*
X25278015Y-60380509D01*
X25380509Y-60278015D01*
X25383017Y-60273671D01*
X52537099Y-60273671D01*
X52562097Y-60399338D01*
X52562099Y-60399344D01*
X52611133Y-60517724D01*
X52611138Y-60517733D01*
X52682323Y-60624268D01*
X52682326Y-60624272D01*
X52772927Y-60714873D01*
X52772931Y-60714876D01*
X52879466Y-60786061D01*
X52879472Y-60786064D01*
X52879473Y-60786065D01*
X52997856Y-60835101D01*
X52997860Y-60835101D01*
X52997861Y-60835102D01*
X53123528Y-60860100D01*
X53123531Y-60860100D01*
X53251671Y-60860100D01*
X53336215Y-60843282D01*
X53377344Y-60835101D01*
X53495727Y-60786065D01*
X53602269Y-60714876D01*
X53692876Y-60624269D01*
X53764065Y-60517727D01*
X53813101Y-60399344D01*
X53837236Y-60278015D01*
X53838100Y-60273671D01*
X53838100Y-60145528D01*
X53813102Y-60019861D01*
X53813101Y-60019860D01*
X53813101Y-60019856D01*
X53810044Y-60012475D01*
X53766293Y-59906850D01*
X53766292Y-59906849D01*
X53764069Y-59901481D01*
X53764061Y-59901466D01*
X53741382Y-59867525D01*
X59389500Y-59867525D01*
X59389500Y-60012475D01*
X59408953Y-60085073D01*
X59427017Y-60152488D01*
X59499488Y-60278011D01*
X59499490Y-60278013D01*
X59499491Y-60278015D01*
X59601985Y-60380509D01*
X59601986Y-60380510D01*
X59601988Y-60380511D01*
X59727511Y-60452982D01*
X59727512Y-60452982D01*
X59727515Y-60452984D01*
X59867525Y-60490500D01*
X59867528Y-60490500D01*
X60012472Y-60490500D01*
X60012475Y-60490500D01*
X60152485Y-60452984D01*
X60278015Y-60380509D01*
X60380509Y-60278015D01*
X60452984Y-60152485D01*
X60490500Y-60012475D01*
X60490500Y-59867525D01*
X60452984Y-59727515D01*
X60398495Y-59633138D01*
X60380511Y-59601988D01*
X60380506Y-59601982D01*
X60278017Y-59499493D01*
X60278011Y-59499488D01*
X60152488Y-59427017D01*
X60152489Y-59427017D01*
X60141006Y-59423940D01*
X60012475Y-59389500D01*
X59867525Y-59389500D01*
X59738993Y-59423940D01*
X59727511Y-59427017D01*
X59601988Y-59499488D01*
X59601982Y-59499493D01*
X59499493Y-59601982D01*
X59499488Y-59601988D01*
X59427017Y-59727511D01*
X59427016Y-59727515D01*
X59389500Y-59867525D01*
X53741382Y-59867525D01*
X53692876Y-59794931D01*
X53692873Y-59794927D01*
X53602272Y-59704326D01*
X53602268Y-59704323D01*
X53495733Y-59633138D01*
X53495724Y-59633133D01*
X53377344Y-59584099D01*
X53377338Y-59584097D01*
X53251671Y-59559100D01*
X53251669Y-59559100D01*
X53123531Y-59559100D01*
X53123529Y-59559100D01*
X52997861Y-59584097D01*
X52997855Y-59584099D01*
X52879475Y-59633133D01*
X52879466Y-59633138D01*
X52772931Y-59704323D01*
X52772927Y-59704326D01*
X52682326Y-59794927D01*
X52682323Y-59794931D01*
X52611138Y-59901466D01*
X52611133Y-59901475D01*
X52562099Y-60019855D01*
X52562097Y-60019861D01*
X52537100Y-60145528D01*
X52537100Y-60145531D01*
X52537100Y-60273669D01*
X52537100Y-60273671D01*
X52537099Y-60273671D01*
X25383017Y-60273671D01*
X25452984Y-60152485D01*
X25490500Y-60012475D01*
X25490500Y-59867525D01*
X25452984Y-59727515D01*
X25404692Y-59643871D01*
X42121499Y-59643871D01*
X42146497Y-59769538D01*
X42146499Y-59769544D01*
X42195533Y-59887924D01*
X42195538Y-59887933D01*
X42266723Y-59994468D01*
X42266726Y-59994472D01*
X42357327Y-60085073D01*
X42357331Y-60085076D01*
X42463866Y-60156261D01*
X42463872Y-60156264D01*
X42463873Y-60156265D01*
X42582256Y-60205301D01*
X42582260Y-60205301D01*
X42582261Y-60205302D01*
X42707928Y-60230300D01*
X42707931Y-60230300D01*
X42836071Y-60230300D01*
X42920615Y-60213482D01*
X42961744Y-60205301D01*
X43080127Y-60156265D01*
X43186669Y-60085076D01*
X43277276Y-59994469D01*
X43348465Y-59887927D01*
X43397501Y-59769544D01*
X43410474Y-59704326D01*
X43422500Y-59643871D01*
X43821499Y-59643871D01*
X43846497Y-59769538D01*
X43846499Y-59769544D01*
X43895533Y-59887924D01*
X43895538Y-59887933D01*
X43966723Y-59994468D01*
X43966726Y-59994472D01*
X44057327Y-60085073D01*
X44057331Y-60085076D01*
X44163866Y-60156261D01*
X44163872Y-60156264D01*
X44163873Y-60156265D01*
X44282256Y-60205301D01*
X44282260Y-60205301D01*
X44282261Y-60205302D01*
X44407928Y-60230300D01*
X44407931Y-60230300D01*
X44536071Y-60230300D01*
X44620615Y-60213482D01*
X44661744Y-60205301D01*
X44780127Y-60156265D01*
X44886669Y-60085076D01*
X44977276Y-59994469D01*
X45048465Y-59887927D01*
X45097501Y-59769544D01*
X45110474Y-59704326D01*
X45122500Y-59643871D01*
X45521499Y-59643871D01*
X45546497Y-59769538D01*
X45546499Y-59769544D01*
X45595533Y-59887924D01*
X45595538Y-59887933D01*
X45666723Y-59994468D01*
X45666726Y-59994472D01*
X45757327Y-60085073D01*
X45757331Y-60085076D01*
X45863866Y-60156261D01*
X45863872Y-60156264D01*
X45863873Y-60156265D01*
X45982256Y-60205301D01*
X45982260Y-60205301D01*
X45982261Y-60205302D01*
X46107928Y-60230300D01*
X46107931Y-60230300D01*
X46236071Y-60230300D01*
X46320615Y-60213482D01*
X46361744Y-60205301D01*
X46480127Y-60156265D01*
X46586669Y-60085076D01*
X46586672Y-60085073D01*
X46619988Y-60051758D01*
X46677273Y-59994472D01*
X46677276Y-59994469D01*
X46748465Y-59887927D01*
X46797501Y-59769544D01*
X46810474Y-59704326D01*
X46822500Y-59643871D01*
X46822500Y-59515728D01*
X46797502Y-59390061D01*
X46797501Y-59390060D01*
X46797501Y-59390056D01*
X46748465Y-59271673D01*
X46748464Y-59271672D01*
X46748461Y-59271666D01*
X46677276Y-59165131D01*
X46677273Y-59165127D01*
X46586672Y-59074526D01*
X46586668Y-59074523D01*
X46480133Y-59003338D01*
X46480124Y-59003333D01*
X46361744Y-58954299D01*
X46361738Y-58954297D01*
X46236071Y-58929300D01*
X46236069Y-58929300D01*
X46107931Y-58929300D01*
X46107929Y-58929300D01*
X45982261Y-58954297D01*
X45982255Y-58954299D01*
X45863875Y-59003333D01*
X45863866Y-59003338D01*
X45757331Y-59074523D01*
X45757327Y-59074526D01*
X45666726Y-59165127D01*
X45666723Y-59165131D01*
X45595538Y-59271666D01*
X45595533Y-59271675D01*
X45546499Y-59390055D01*
X45546497Y-59390061D01*
X45521500Y-59515728D01*
X45521500Y-59515731D01*
X45521500Y-59643869D01*
X45521500Y-59643871D01*
X45521499Y-59643871D01*
X45122500Y-59643871D01*
X45122500Y-59515728D01*
X45097502Y-59390061D01*
X45097501Y-59390060D01*
X45097501Y-59390056D01*
X45048465Y-59271673D01*
X45048464Y-59271672D01*
X45048461Y-59271666D01*
X44977276Y-59165131D01*
X44977273Y-59165127D01*
X44886672Y-59074526D01*
X44886668Y-59074523D01*
X44780133Y-59003338D01*
X44780124Y-59003333D01*
X44661744Y-58954299D01*
X44661738Y-58954297D01*
X44536071Y-58929300D01*
X44536069Y-58929300D01*
X44407931Y-58929300D01*
X44407929Y-58929300D01*
X44282261Y-58954297D01*
X44282255Y-58954299D01*
X44163875Y-59003333D01*
X44163866Y-59003338D01*
X44057331Y-59074523D01*
X44057327Y-59074526D01*
X43966726Y-59165127D01*
X43966723Y-59165131D01*
X43895538Y-59271666D01*
X43895533Y-59271675D01*
X43846499Y-59390055D01*
X43846497Y-59390061D01*
X43821500Y-59515728D01*
X43821500Y-59515731D01*
X43821500Y-59643869D01*
X43821500Y-59643871D01*
X43821499Y-59643871D01*
X43422500Y-59643871D01*
X43422500Y-59515728D01*
X43397502Y-59390061D01*
X43397501Y-59390060D01*
X43397501Y-59390056D01*
X43348465Y-59271673D01*
X43348464Y-59271672D01*
X43348461Y-59271666D01*
X43277276Y-59165131D01*
X43277273Y-59165127D01*
X43186672Y-59074526D01*
X43186668Y-59074523D01*
X43080133Y-59003338D01*
X43080124Y-59003333D01*
X42961744Y-58954299D01*
X42961738Y-58954297D01*
X42836071Y-58929300D01*
X42836069Y-58929300D01*
X42707931Y-58929300D01*
X42707929Y-58929300D01*
X42582261Y-58954297D01*
X42582255Y-58954299D01*
X42463875Y-59003333D01*
X42463866Y-59003338D01*
X42357331Y-59074523D01*
X42357327Y-59074526D01*
X42266726Y-59165127D01*
X42266723Y-59165131D01*
X42195538Y-59271666D01*
X42195533Y-59271675D01*
X42146499Y-59390055D01*
X42146497Y-59390061D01*
X42121500Y-59515728D01*
X42121500Y-59515731D01*
X42121500Y-59643869D01*
X42121500Y-59643871D01*
X42121499Y-59643871D01*
X25404692Y-59643871D01*
X25398495Y-59633138D01*
X25380511Y-59601988D01*
X25380506Y-59601982D01*
X25278017Y-59499493D01*
X25278011Y-59499488D01*
X25152488Y-59427017D01*
X25152489Y-59427017D01*
X25141006Y-59423940D01*
X25012475Y-59389500D01*
X24867525Y-59389500D01*
X24738993Y-59423940D01*
X24727511Y-59427017D01*
X24601988Y-59499488D01*
X24601982Y-59499493D01*
X24499493Y-59601982D01*
X24499488Y-59601988D01*
X24427017Y-59727511D01*
X24427016Y-59727515D01*
X24389500Y-59867525D01*
X20500500Y-59867525D01*
X20500500Y-57943871D01*
X42121499Y-57943871D01*
X42146497Y-58069538D01*
X42146499Y-58069544D01*
X42195533Y-58187924D01*
X42195538Y-58187933D01*
X42266723Y-58294468D01*
X42266726Y-58294472D01*
X42357327Y-58385073D01*
X42357331Y-58385076D01*
X42463866Y-58456261D01*
X42463872Y-58456264D01*
X42463873Y-58456265D01*
X42582256Y-58505301D01*
X42582260Y-58505301D01*
X42582261Y-58505302D01*
X42707928Y-58530300D01*
X42707931Y-58530300D01*
X42836071Y-58530300D01*
X42920615Y-58513482D01*
X42961744Y-58505301D01*
X43080127Y-58456265D01*
X43186669Y-58385076D01*
X43277276Y-58294469D01*
X43348465Y-58187927D01*
X43397501Y-58069544D01*
X43422500Y-57943871D01*
X43821499Y-57943871D01*
X43846497Y-58069538D01*
X43846499Y-58069544D01*
X43895533Y-58187924D01*
X43895538Y-58187933D01*
X43966723Y-58294468D01*
X43966726Y-58294472D01*
X44057327Y-58385073D01*
X44057331Y-58385076D01*
X44163866Y-58456261D01*
X44163872Y-58456264D01*
X44163873Y-58456265D01*
X44282256Y-58505301D01*
X44282260Y-58505301D01*
X44282261Y-58505302D01*
X44407928Y-58530300D01*
X44407931Y-58530300D01*
X44536071Y-58530300D01*
X44620615Y-58513482D01*
X44661744Y-58505301D01*
X44780127Y-58456265D01*
X44886669Y-58385076D01*
X44977276Y-58294469D01*
X45048465Y-58187927D01*
X45097501Y-58069544D01*
X45122500Y-57943871D01*
X45521499Y-57943871D01*
X45546497Y-58069538D01*
X45546499Y-58069544D01*
X45595533Y-58187924D01*
X45595538Y-58187933D01*
X45666723Y-58294468D01*
X45666726Y-58294472D01*
X45757327Y-58385073D01*
X45757331Y-58385076D01*
X45863866Y-58456261D01*
X45863872Y-58456264D01*
X45863873Y-58456265D01*
X45982256Y-58505301D01*
X45982260Y-58505301D01*
X45982261Y-58505302D01*
X46107928Y-58530300D01*
X46107931Y-58530300D01*
X46236071Y-58530300D01*
X46320615Y-58513482D01*
X46361744Y-58505301D01*
X46480127Y-58456265D01*
X46586669Y-58385076D01*
X46677276Y-58294469D01*
X46748465Y-58187927D01*
X46797501Y-58069544D01*
X46822500Y-57943869D01*
X46822500Y-57815731D01*
X46822500Y-57815728D01*
X46797502Y-57690061D01*
X46797501Y-57690060D01*
X46797501Y-57690056D01*
X46748465Y-57571673D01*
X46748464Y-57571672D01*
X46748461Y-57571666D01*
X46677276Y-57465131D01*
X46677273Y-57465127D01*
X46586672Y-57374526D01*
X46586668Y-57374523D01*
X46480133Y-57303338D01*
X46480124Y-57303333D01*
X46361744Y-57254299D01*
X46361738Y-57254297D01*
X46236071Y-57229300D01*
X46236069Y-57229300D01*
X46107931Y-57229300D01*
X46107929Y-57229300D01*
X45982261Y-57254297D01*
X45982255Y-57254299D01*
X45863875Y-57303333D01*
X45863866Y-57303338D01*
X45757331Y-57374523D01*
X45757327Y-57374526D01*
X45666726Y-57465127D01*
X45666723Y-57465131D01*
X45595538Y-57571666D01*
X45595533Y-57571675D01*
X45546499Y-57690055D01*
X45546497Y-57690061D01*
X45521500Y-57815728D01*
X45521500Y-57815731D01*
X45521500Y-57943869D01*
X45521500Y-57943871D01*
X45521499Y-57943871D01*
X45122500Y-57943871D01*
X45122500Y-57943869D01*
X45122500Y-57815731D01*
X45122500Y-57815728D01*
X45097502Y-57690061D01*
X45097501Y-57690060D01*
X45097501Y-57690056D01*
X45048465Y-57571673D01*
X45048464Y-57571672D01*
X45048461Y-57571666D01*
X44977276Y-57465131D01*
X44977273Y-57465127D01*
X44886672Y-57374526D01*
X44886668Y-57374523D01*
X44780133Y-57303338D01*
X44780124Y-57303333D01*
X44661744Y-57254299D01*
X44661738Y-57254297D01*
X44536071Y-57229300D01*
X44536069Y-57229300D01*
X44407931Y-57229300D01*
X44407929Y-57229300D01*
X44282261Y-57254297D01*
X44282255Y-57254299D01*
X44163875Y-57303333D01*
X44163866Y-57303338D01*
X44057331Y-57374523D01*
X44057327Y-57374526D01*
X43966726Y-57465127D01*
X43966723Y-57465131D01*
X43895538Y-57571666D01*
X43895533Y-57571675D01*
X43846499Y-57690055D01*
X43846497Y-57690061D01*
X43821500Y-57815728D01*
X43821500Y-57815731D01*
X43821500Y-57943869D01*
X43821500Y-57943871D01*
X43821499Y-57943871D01*
X43422500Y-57943871D01*
X43422500Y-57943869D01*
X43422500Y-57815731D01*
X43422500Y-57815728D01*
X43397502Y-57690061D01*
X43397501Y-57690060D01*
X43397501Y-57690056D01*
X43348465Y-57571673D01*
X43348464Y-57571672D01*
X43348461Y-57571666D01*
X43277276Y-57465131D01*
X43277273Y-57465127D01*
X43186672Y-57374526D01*
X43186668Y-57374523D01*
X43080133Y-57303338D01*
X43080124Y-57303333D01*
X42961744Y-57254299D01*
X42961738Y-57254297D01*
X42836071Y-57229300D01*
X42836069Y-57229300D01*
X42707931Y-57229300D01*
X42707929Y-57229300D01*
X42582261Y-57254297D01*
X42582255Y-57254299D01*
X42463875Y-57303333D01*
X42463866Y-57303338D01*
X42357331Y-57374523D01*
X42357327Y-57374526D01*
X42266726Y-57465127D01*
X42266723Y-57465131D01*
X42195538Y-57571666D01*
X42195533Y-57571675D01*
X42146499Y-57690055D01*
X42146497Y-57690061D01*
X42121500Y-57815728D01*
X42121500Y-57815731D01*
X42121500Y-57943869D01*
X42121500Y-57943871D01*
X42121499Y-57943871D01*
X20500500Y-57943871D01*
X20500500Y-53803389D01*
X22629500Y-53803389D01*
X22629500Y-53976611D01*
X22656598Y-54147701D01*
X22710127Y-54312445D01*
X22788768Y-54466788D01*
X22890586Y-54606928D01*
X23013072Y-54729414D01*
X23153212Y-54831232D01*
X23307555Y-54909873D01*
X23472299Y-54963402D01*
X23643389Y-54990500D01*
X23643390Y-54990500D01*
X23816610Y-54990500D01*
X23816611Y-54990500D01*
X23987701Y-54963402D01*
X24152445Y-54909873D01*
X24306788Y-54831232D01*
X24446928Y-54729414D01*
X24569414Y-54606928D01*
X24671232Y-54466788D01*
X24749873Y-54312445D01*
X24803402Y-54147701D01*
X24830500Y-53976611D01*
X24830500Y-53803389D01*
X24803402Y-53632299D01*
X24749873Y-53467555D01*
X24671232Y-53313212D01*
X24569414Y-53173072D01*
X24446928Y-53050586D01*
X24398390Y-53015321D01*
X25169500Y-53015321D01*
X25169500Y-54764678D01*
X25184032Y-54837735D01*
X25184033Y-54837739D01*
X25184034Y-54837740D01*
X25239399Y-54920601D01*
X25322260Y-54975966D01*
X25322264Y-54975967D01*
X25395321Y-54990499D01*
X25395324Y-54990500D01*
X25395326Y-54990500D01*
X27144676Y-54990500D01*
X27144677Y-54990499D01*
X27217740Y-54975966D01*
X27300601Y-54920601D01*
X27336065Y-54867525D01*
X34389500Y-54867525D01*
X34389500Y-55012475D01*
X34408256Y-55082472D01*
X34427017Y-55152488D01*
X34499488Y-55278011D01*
X34499490Y-55278013D01*
X34499491Y-55278015D01*
X34601985Y-55380509D01*
X34601986Y-55380510D01*
X34601988Y-55380511D01*
X34727511Y-55452982D01*
X34727512Y-55452982D01*
X34727515Y-55452984D01*
X34867525Y-55490500D01*
X34867528Y-55490500D01*
X35012472Y-55490500D01*
X35012475Y-55490500D01*
X35152485Y-55452984D01*
X35278015Y-55380509D01*
X35380509Y-55278015D01*
X35452984Y-55152485D01*
X35490500Y-55012475D01*
X35490500Y-54867525D01*
X49389500Y-54867525D01*
X49389500Y-55012475D01*
X49408256Y-55082472D01*
X49427017Y-55152488D01*
X49499488Y-55278011D01*
X49499490Y-55278013D01*
X49499491Y-55278015D01*
X49601985Y-55380509D01*
X49601986Y-55380510D01*
X49601988Y-55380511D01*
X49727511Y-55452982D01*
X49727512Y-55452982D01*
X49727515Y-55452984D01*
X49867525Y-55490500D01*
X49867528Y-55490500D01*
X50012472Y-55490500D01*
X50012475Y-55490500D01*
X50152485Y-55452984D01*
X50278015Y-55380509D01*
X50380509Y-55278015D01*
X50452984Y-55152485D01*
X50490500Y-55012475D01*
X50490500Y-54937525D01*
X61949500Y-54937525D01*
X61949500Y-55082475D01*
X61987016Y-55222485D01*
X61987017Y-55222488D01*
X62059488Y-55348011D01*
X62059490Y-55348013D01*
X62059491Y-55348015D01*
X62161985Y-55450509D01*
X62161986Y-55450510D01*
X62161988Y-55450511D01*
X62287511Y-55522982D01*
X62287512Y-55522982D01*
X62287515Y-55522984D01*
X62427525Y-55560500D01*
X62427528Y-55560500D01*
X62572472Y-55560500D01*
X62572475Y-55560500D01*
X62712485Y-55522984D01*
X62838015Y-55450509D01*
X62940509Y-55348015D01*
X63012984Y-55222485D01*
X63050500Y-55082475D01*
X63050500Y-54937525D01*
X63012984Y-54797515D01*
X62994025Y-54764678D01*
X62940511Y-54671988D01*
X62940506Y-54671982D01*
X62838017Y-54569493D01*
X62838011Y-54569488D01*
X62712488Y-54497017D01*
X62712489Y-54497017D01*
X62701006Y-54493940D01*
X62572475Y-54459500D01*
X62427525Y-54459500D01*
X62298993Y-54493940D01*
X62287511Y-54497017D01*
X62161988Y-54569488D01*
X62161982Y-54569493D01*
X62059493Y-54671982D01*
X62059488Y-54671988D01*
X61987017Y-54797511D01*
X61987016Y-54797515D01*
X61949500Y-54937525D01*
X50490500Y-54937525D01*
X50490500Y-54867525D01*
X50452984Y-54727515D01*
X50420925Y-54671988D01*
X50380511Y-54601988D01*
X50380506Y-54601982D01*
X50278017Y-54499493D01*
X50278011Y-54499488D01*
X50152488Y-54427017D01*
X50152489Y-54427017D01*
X50141006Y-54423940D01*
X50012475Y-54389500D01*
X49867525Y-54389500D01*
X49738993Y-54423940D01*
X49727511Y-54427017D01*
X49601988Y-54499488D01*
X49601982Y-54499493D01*
X49499493Y-54601982D01*
X49499488Y-54601988D01*
X49427017Y-54727511D01*
X49427016Y-54727515D01*
X49389500Y-54867525D01*
X35490500Y-54867525D01*
X35452984Y-54727515D01*
X35420925Y-54671988D01*
X35380511Y-54601988D01*
X35380506Y-54601982D01*
X35278017Y-54499493D01*
X35278011Y-54499488D01*
X35152488Y-54427017D01*
X35152489Y-54427017D01*
X35141006Y-54423940D01*
X35012475Y-54389500D01*
X34867525Y-54389500D01*
X34738993Y-54423940D01*
X34727511Y-54427017D01*
X34601988Y-54499488D01*
X34601982Y-54499493D01*
X34499493Y-54601982D01*
X34499488Y-54601988D01*
X34427017Y-54727511D01*
X34427016Y-54727515D01*
X34389500Y-54867525D01*
X27336065Y-54867525D01*
X27355966Y-54837740D01*
X27355967Y-54837735D01*
X27356471Y-54835204D01*
X27356471Y-54835202D01*
X27370499Y-54764678D01*
X27370500Y-54764676D01*
X27370500Y-53537525D01*
X61949500Y-53537525D01*
X61949500Y-53682475D01*
X61981899Y-53803389D01*
X61987017Y-53822488D01*
X62059488Y-53948011D01*
X62059490Y-53948013D01*
X62059491Y-53948015D01*
X62161985Y-54050509D01*
X62161986Y-54050510D01*
X62161988Y-54050511D01*
X62287511Y-54122982D01*
X62287512Y-54122982D01*
X62287515Y-54122984D01*
X62427525Y-54160500D01*
X62427528Y-54160500D01*
X62572472Y-54160500D01*
X62572475Y-54160500D01*
X62712485Y-54122984D01*
X62838015Y-54050509D01*
X62940509Y-53948015D01*
X63012984Y-53822485D01*
X63050500Y-53682475D01*
X63050500Y-53537525D01*
X63012984Y-53397515D01*
X62964311Y-53313212D01*
X62940511Y-53271988D01*
X62940506Y-53271982D01*
X62838017Y-53169493D01*
X62838011Y-53169488D01*
X62712488Y-53097017D01*
X62712489Y-53097017D01*
X62701006Y-53093940D01*
X62572475Y-53059500D01*
X62427525Y-53059500D01*
X62298993Y-53093940D01*
X62287511Y-53097017D01*
X62161988Y-53169488D01*
X62161982Y-53169493D01*
X62059493Y-53271982D01*
X62059488Y-53271988D01*
X61987017Y-53397511D01*
X61987016Y-53397515D01*
X61949500Y-53537525D01*
X27370500Y-53537525D01*
X27370500Y-53015323D01*
X27370499Y-53015321D01*
X27355967Y-52942264D01*
X27355966Y-52942260D01*
X27300601Y-52859399D01*
X27217740Y-52804034D01*
X27217739Y-52804033D01*
X27217735Y-52804032D01*
X27144677Y-52789500D01*
X27144674Y-52789500D01*
X25395326Y-52789500D01*
X25395323Y-52789500D01*
X25322264Y-52804032D01*
X25322260Y-52804033D01*
X25239399Y-52859399D01*
X25184033Y-52942260D01*
X25184032Y-52942264D01*
X25169500Y-53015321D01*
X24398390Y-53015321D01*
X24306788Y-52948768D01*
X24152445Y-52870127D01*
X23987701Y-52816598D01*
X23987699Y-52816597D01*
X23987698Y-52816597D01*
X23856271Y-52795781D01*
X23816611Y-52789500D01*
X23643389Y-52789500D01*
X23603728Y-52795781D01*
X23472302Y-52816597D01*
X23307552Y-52870128D01*
X23153211Y-52948768D01*
X23073256Y-53006859D01*
X23013072Y-53050586D01*
X23013070Y-53050588D01*
X23013069Y-53050588D01*
X22890588Y-53173069D01*
X22890588Y-53173070D01*
X22890586Y-53173072D01*
X22846859Y-53233256D01*
X22788768Y-53313211D01*
X22710128Y-53467552D01*
X22656597Y-53632302D01*
X22648651Y-53682472D01*
X22629500Y-53803389D01*
X20500500Y-53803389D01*
X20500500Y-51263389D01*
X22629500Y-51263389D01*
X22629500Y-51436611D01*
X22656598Y-51607701D01*
X22710127Y-51772445D01*
X22788768Y-51926788D01*
X22890586Y-52066928D01*
X23013072Y-52189414D01*
X23153212Y-52291232D01*
X23307555Y-52369873D01*
X23472299Y-52423402D01*
X23643389Y-52450500D01*
X23643390Y-52450500D01*
X23816610Y-52450500D01*
X23816611Y-52450500D01*
X23987701Y-52423402D01*
X24152445Y-52369873D01*
X24306788Y-52291232D01*
X24446928Y-52189414D01*
X24569414Y-52066928D01*
X24671232Y-51926788D01*
X24749873Y-51772445D01*
X24803402Y-51607701D01*
X24830500Y-51436611D01*
X24830500Y-51263389D01*
X24803402Y-51092299D01*
X24749873Y-50927555D01*
X24671232Y-50773212D01*
X24569414Y-50633072D01*
X24446928Y-50510586D01*
X24306788Y-50408768D01*
X24152445Y-50330127D01*
X23987701Y-50276598D01*
X23987699Y-50276597D01*
X23987698Y-50276597D01*
X23856271Y-50255781D01*
X23816611Y-50249500D01*
X23643389Y-50249500D01*
X23603728Y-50255781D01*
X23472302Y-50276597D01*
X23307552Y-50330128D01*
X23153211Y-50408768D01*
X23073256Y-50466859D01*
X23013072Y-50510586D01*
X23013070Y-50510588D01*
X23013069Y-50510588D01*
X22890588Y-50633069D01*
X22890588Y-50633070D01*
X22890586Y-50633072D01*
X22878796Y-50649300D01*
X22788768Y-50773211D01*
X22710128Y-50927552D01*
X22710127Y-50927554D01*
X22710127Y-50927555D01*
X22683362Y-51009927D01*
X22656597Y-51092302D01*
X22656597Y-51092304D01*
X22629500Y-51263389D01*
X20500500Y-51263389D01*
X20500500Y-48723389D01*
X22629500Y-48723389D01*
X22629500Y-48896610D01*
X22649515Y-49022984D01*
X22656598Y-49067701D01*
X22710127Y-49232445D01*
X22788768Y-49386788D01*
X22890586Y-49526928D01*
X23013072Y-49649414D01*
X23153212Y-49751232D01*
X23307555Y-49829873D01*
X23472299Y-49883402D01*
X23643389Y-49910500D01*
X23643390Y-49910500D01*
X23816610Y-49910500D01*
X23816611Y-49910500D01*
X23987701Y-49883402D01*
X24152445Y-49829873D01*
X24306788Y-49751232D01*
X24446928Y-49649414D01*
X24569414Y-49526928D01*
X24671232Y-49386788D01*
X24749873Y-49232445D01*
X24803402Y-49067701D01*
X24830500Y-48896611D01*
X24830500Y-48723389D01*
X25169500Y-48723389D01*
X25169500Y-48896610D01*
X25189515Y-49022984D01*
X25196598Y-49067701D01*
X25250127Y-49232445D01*
X25328768Y-49386788D01*
X25430586Y-49526928D01*
X25553072Y-49649414D01*
X25693212Y-49751232D01*
X25847555Y-49829873D01*
X26012299Y-49883402D01*
X26183389Y-49910500D01*
X26183390Y-49910500D01*
X26356610Y-49910500D01*
X26356611Y-49910500D01*
X26527701Y-49883402D01*
X26692445Y-49829873D01*
X26846788Y-49751232D01*
X26986928Y-49649414D01*
X27109414Y-49526928D01*
X27211232Y-49386788D01*
X27266557Y-49278206D01*
X27314531Y-49227409D01*
X27382352Y-49210614D01*
X27399483Y-49212547D01*
X27488747Y-49228972D01*
X27517387Y-49213334D01*
X27587079Y-49218318D01*
X27643012Y-49260190D01*
X27667429Y-49325654D01*
X27652577Y-49393927D01*
X27631426Y-49422181D01*
X27605518Y-49448089D01*
X26769599Y-50284006D01*
X26708276Y-50317491D01*
X26643600Y-50314256D01*
X26527698Y-50276597D01*
X26396271Y-50255781D01*
X26356611Y-50249500D01*
X26183389Y-50249500D01*
X26143728Y-50255781D01*
X26012302Y-50276597D01*
X25847552Y-50330128D01*
X25693211Y-50408768D01*
X25613256Y-50466859D01*
X25553072Y-50510586D01*
X25553070Y-50510588D01*
X25553069Y-50510588D01*
X25430588Y-50633069D01*
X25430588Y-50633070D01*
X25430586Y-50633072D01*
X25418796Y-50649300D01*
X25328768Y-50773211D01*
X25250128Y-50927552D01*
X25250127Y-50927554D01*
X25250127Y-50927555D01*
X25223362Y-51009927D01*
X25196597Y-51092302D01*
X25196597Y-51092304D01*
X25169500Y-51263389D01*
X25169500Y-51436611D01*
X25196598Y-51607701D01*
X25250127Y-51772445D01*
X25328768Y-51926788D01*
X25430586Y-52066928D01*
X25553072Y-52189414D01*
X25693212Y-52291232D01*
X25847555Y-52369873D01*
X26012299Y-52423402D01*
X26183389Y-52450500D01*
X26183390Y-52450500D01*
X26356610Y-52450500D01*
X26356611Y-52450500D01*
X26527701Y-52423402D01*
X26692445Y-52369873D01*
X26846788Y-52291232D01*
X26986928Y-52189414D01*
X27109414Y-52066928D01*
X27211232Y-51926788D01*
X27289873Y-51772445D01*
X27343402Y-51607701D01*
X27370500Y-51436611D01*
X27370500Y-51263389D01*
X27343402Y-51092299D01*
X27305741Y-50976393D01*
X27303747Y-50906558D01*
X27335990Y-50850401D01*
X28055573Y-50130819D01*
X28116896Y-50097334D01*
X28143254Y-50094500D01*
X43164310Y-50094500D01*
X43181082Y-50097513D01*
X43216845Y-50094500D01*
X43252727Y-50094500D01*
X43258507Y-50092950D01*
X43280192Y-50089162D01*
X43286163Y-50088660D01*
X43315039Y-50078254D01*
X43324933Y-50075152D01*
X43354587Y-50067207D01*
X43362097Y-50062871D01*
X53400699Y-50062871D01*
X53425697Y-50188538D01*
X53425699Y-50188544D01*
X53474733Y-50306924D01*
X53474738Y-50306933D01*
X53545923Y-50413468D01*
X53545926Y-50413472D01*
X53636527Y-50504073D01*
X53636531Y-50504076D01*
X53743066Y-50575261D01*
X53743072Y-50575264D01*
X53743073Y-50575265D01*
X53861456Y-50624301D01*
X53861460Y-50624301D01*
X53861461Y-50624302D01*
X53987128Y-50649300D01*
X53987131Y-50649300D01*
X54115271Y-50649300D01*
X54199815Y-50632482D01*
X54240944Y-50624301D01*
X54359327Y-50575265D01*
X54465869Y-50504076D01*
X54556476Y-50413469D01*
X54627665Y-50306927D01*
X54676701Y-50188544D01*
X54694809Y-50097513D01*
X54701700Y-50062871D01*
X54701700Y-49934728D01*
X54676702Y-49809061D01*
X54676701Y-49809060D01*
X54676701Y-49809056D01*
X54627665Y-49690673D01*
X54627664Y-49690672D01*
X54627661Y-49690666D01*
X54556476Y-49584131D01*
X54556473Y-49584127D01*
X54465872Y-49493526D01*
X54465868Y-49493523D01*
X54359333Y-49422338D01*
X54359324Y-49422333D01*
X54240944Y-49373299D01*
X54240938Y-49373297D01*
X54115271Y-49348300D01*
X54115269Y-49348300D01*
X53987131Y-49348300D01*
X53987129Y-49348300D01*
X53861461Y-49373297D01*
X53861455Y-49373299D01*
X53743075Y-49422333D01*
X53743066Y-49422338D01*
X53636531Y-49493523D01*
X53636527Y-49493526D01*
X53545926Y-49584127D01*
X53545923Y-49584131D01*
X53474738Y-49690666D01*
X53474733Y-49690675D01*
X53425699Y-49809055D01*
X53425697Y-49809061D01*
X53400700Y-49934728D01*
X53400700Y-49934731D01*
X53400700Y-50062869D01*
X53400700Y-50062871D01*
X53400699Y-50062871D01*
X43362097Y-50062871D01*
X43369345Y-50058686D01*
X43385373Y-50052911D01*
X43414831Y-50032424D01*
X43445913Y-50014480D01*
X43457962Y-50002430D01*
X43471949Y-49992704D01*
X43495101Y-49965291D01*
X43520480Y-49939913D01*
X43523474Y-49934725D01*
X43536130Y-49916713D01*
X44230341Y-49094768D01*
X44288636Y-49056254D01*
X44292932Y-49055018D01*
X44412485Y-49022984D01*
X44538015Y-48950509D01*
X44640509Y-48848015D01*
X44712984Y-48722485D01*
X44750500Y-48582475D01*
X44750500Y-48437525D01*
X44712984Y-48297515D01*
X44712696Y-48297017D01*
X44640511Y-48171988D01*
X44640506Y-48171982D01*
X44538017Y-48069493D01*
X44538011Y-48069488D01*
X44412488Y-47997017D01*
X44412489Y-47997017D01*
X44401006Y-47993940D01*
X44272475Y-47959500D01*
X44127525Y-47959500D01*
X43998993Y-47993940D01*
X43987511Y-47997017D01*
X43861988Y-48069488D01*
X43861982Y-48069493D01*
X43759493Y-48171982D01*
X43759488Y-48171988D01*
X43687017Y-48297511D01*
X43687016Y-48297515D01*
X43649500Y-48437525D01*
X43649500Y-48437527D01*
X43649500Y-48495740D01*
X43629815Y-48562779D01*
X43620233Y-48575751D01*
X43369233Y-48872935D01*
X43310937Y-48911450D01*
X43241073Y-48912334D01*
X43181822Y-48875306D01*
X43151995Y-48812122D01*
X43150500Y-48792924D01*
X43150500Y-48737527D01*
X43150500Y-48737525D01*
X43112984Y-48597515D01*
X43086878Y-48552299D01*
X43040511Y-48471988D01*
X43040506Y-48471982D01*
X42938017Y-48369493D01*
X42938011Y-48369488D01*
X42812488Y-48297017D01*
X42812489Y-48297017D01*
X42801006Y-48293940D01*
X42672475Y-48259500D01*
X42527525Y-48259500D01*
X42398993Y-48293940D01*
X42387511Y-48297017D01*
X42261988Y-48369488D01*
X42261982Y-48369493D01*
X42258295Y-48373181D01*
X42196972Y-48406666D01*
X42170614Y-48409500D01*
X27377042Y-48409500D01*
X27310003Y-48389815D01*
X27266557Y-48341794D01*
X27211233Y-48233213D01*
X27176567Y-48185500D01*
X27109414Y-48093072D01*
X26986928Y-47970586D01*
X26846788Y-47868768D01*
X26692445Y-47790127D01*
X26527701Y-47736598D01*
X26356611Y-47709500D01*
X26183389Y-47709500D01*
X26143728Y-47715781D01*
X26012302Y-47736597D01*
X26012299Y-47736598D01*
X25871115Y-47782472D01*
X25847552Y-47790128D01*
X25693211Y-47868768D01*
X25619277Y-47922485D01*
X25553072Y-47970586D01*
X25553070Y-47970588D01*
X25553069Y-47970588D01*
X25430588Y-48093069D01*
X25430588Y-48093070D01*
X25430586Y-48093072D01*
X25417226Y-48111461D01*
X25328768Y-48233211D01*
X25250128Y-48387552D01*
X25196597Y-48552302D01*
X25169500Y-48723389D01*
X24830500Y-48723389D01*
X24803402Y-48552299D01*
X24749873Y-48387555D01*
X24671232Y-48233212D01*
X24569414Y-48093072D01*
X24446928Y-47970586D01*
X24306788Y-47868768D01*
X24152445Y-47790127D01*
X23987701Y-47736598D01*
X23987699Y-47736597D01*
X23987698Y-47736597D01*
X23856271Y-47715781D01*
X23816611Y-47709500D01*
X23643389Y-47709500D01*
X23603728Y-47715781D01*
X23472302Y-47736597D01*
X23472299Y-47736598D01*
X23331115Y-47782472D01*
X23307552Y-47790128D01*
X23153211Y-47868768D01*
X23079277Y-47922485D01*
X23013072Y-47970586D01*
X23013070Y-47970588D01*
X23013069Y-47970588D01*
X22890588Y-48093069D01*
X22890588Y-48093070D01*
X22890586Y-48093072D01*
X22877226Y-48111461D01*
X22788768Y-48233211D01*
X22710128Y-48387552D01*
X22656597Y-48552302D01*
X22629500Y-48723389D01*
X20500500Y-48723389D01*
X20500500Y-47637525D01*
X48153250Y-47637525D01*
X48153250Y-47782475D01*
X48190766Y-47922485D01*
X48190767Y-47922488D01*
X48263238Y-48048011D01*
X48263240Y-48048013D01*
X48263241Y-48048015D01*
X48365735Y-48150509D01*
X48365736Y-48150510D01*
X48365738Y-48150511D01*
X48491261Y-48222982D01*
X48491262Y-48222982D01*
X48491265Y-48222984D01*
X48631275Y-48260500D01*
X48631278Y-48260500D01*
X48776222Y-48260500D01*
X48776225Y-48260500D01*
X48916235Y-48222984D01*
X49041765Y-48150509D01*
X49144259Y-48048015D01*
X49216734Y-47922485D01*
X49254250Y-47782475D01*
X49254250Y-47637525D01*
X49243946Y-47599071D01*
X55864499Y-47599071D01*
X55889497Y-47724738D01*
X55889499Y-47724744D01*
X55938533Y-47843124D01*
X55938538Y-47843133D01*
X56009723Y-47949668D01*
X56009726Y-47949672D01*
X56100327Y-48040273D01*
X56100331Y-48040276D01*
X56206866Y-48111461D01*
X56206872Y-48111464D01*
X56206873Y-48111465D01*
X56325256Y-48160501D01*
X56325260Y-48160501D01*
X56325261Y-48160502D01*
X56450928Y-48185500D01*
X56450931Y-48185500D01*
X56579071Y-48185500D01*
X56663615Y-48168682D01*
X56704744Y-48160501D01*
X56823127Y-48111465D01*
X56929669Y-48040276D01*
X57020276Y-47949669D01*
X57091465Y-47843127D01*
X57140501Y-47724744D01*
X57157850Y-47637527D01*
X57165500Y-47599071D01*
X57165500Y-47470928D01*
X57140502Y-47345261D01*
X57140501Y-47345260D01*
X57140501Y-47345256D01*
X57091465Y-47226873D01*
X57091464Y-47226872D01*
X57091461Y-47226866D01*
X57020276Y-47120331D01*
X57020273Y-47120327D01*
X56929672Y-47029726D01*
X56929668Y-47029723D01*
X56823133Y-46958538D01*
X56823124Y-46958533D01*
X56704744Y-46909499D01*
X56704738Y-46909497D01*
X56579071Y-46884500D01*
X56579069Y-46884500D01*
X56450931Y-46884500D01*
X56450929Y-46884500D01*
X56325261Y-46909497D01*
X56325255Y-46909499D01*
X56206875Y-46958533D01*
X56206866Y-46958538D01*
X56100331Y-47029723D01*
X56100327Y-47029726D01*
X56009726Y-47120327D01*
X56009723Y-47120331D01*
X55938538Y-47226866D01*
X55938533Y-47226875D01*
X55889499Y-47345255D01*
X55889497Y-47345261D01*
X55864500Y-47470928D01*
X55864500Y-47470931D01*
X55864500Y-47599069D01*
X55864500Y-47599071D01*
X55864499Y-47599071D01*
X49243946Y-47599071D01*
X49216734Y-47497515D01*
X49144259Y-47371985D01*
X49041765Y-47269491D01*
X49041763Y-47269490D01*
X49041761Y-47269488D01*
X48916238Y-47197017D01*
X48916239Y-47197017D01*
X48904756Y-47193940D01*
X48776225Y-47159500D01*
X48631275Y-47159500D01*
X48502743Y-47193940D01*
X48491261Y-47197017D01*
X48365738Y-47269488D01*
X48365732Y-47269493D01*
X48263243Y-47371982D01*
X48263238Y-47371988D01*
X48190767Y-47497511D01*
X48190766Y-47497515D01*
X48153250Y-47637525D01*
X20500500Y-47637525D01*
X20500500Y-46183389D01*
X22629500Y-46183389D01*
X22629500Y-46356610D01*
X22656597Y-46527697D01*
X22656597Y-46527699D01*
X22656598Y-46527701D01*
X22710127Y-46692445D01*
X22788768Y-46846788D01*
X22890586Y-46986928D01*
X23013072Y-47109414D01*
X23153212Y-47211232D01*
X23307555Y-47289873D01*
X23472299Y-47343402D01*
X23643389Y-47370500D01*
X23643390Y-47370500D01*
X23816610Y-47370500D01*
X23816611Y-47370500D01*
X23987701Y-47343402D01*
X24152445Y-47289873D01*
X24306788Y-47211232D01*
X24446928Y-47109414D01*
X24569414Y-46986928D01*
X24671232Y-46846788D01*
X24749873Y-46692445D01*
X24803402Y-46527701D01*
X24830500Y-46356611D01*
X24830500Y-46183389D01*
X25169500Y-46183389D01*
X25169500Y-46356610D01*
X25196597Y-46527697D01*
X25196597Y-46527699D01*
X25196598Y-46527701D01*
X25250127Y-46692445D01*
X25328768Y-46846788D01*
X25430586Y-46986928D01*
X25553072Y-47109414D01*
X25693212Y-47211232D01*
X25847555Y-47289873D01*
X26012299Y-47343402D01*
X26183389Y-47370500D01*
X26183390Y-47370500D01*
X26356610Y-47370500D01*
X26356611Y-47370500D01*
X26527701Y-47343402D01*
X26692445Y-47289873D01*
X26846788Y-47211232D01*
X26986928Y-47109414D01*
X27109414Y-46986928D01*
X27211232Y-46846788D01*
X27289873Y-46692445D01*
X27304778Y-46646571D01*
X50149499Y-46646571D01*
X50174497Y-46772238D01*
X50174499Y-46772244D01*
X50223533Y-46890624D01*
X50223538Y-46890633D01*
X50294723Y-46997168D01*
X50294726Y-46997172D01*
X50385327Y-47087773D01*
X50385331Y-47087776D01*
X50491866Y-47158961D01*
X50491875Y-47158966D01*
X50518692Y-47170074D01*
X50610256Y-47208001D01*
X50610260Y-47208001D01*
X50610261Y-47208002D01*
X50735928Y-47233000D01*
X50735931Y-47233000D01*
X50864071Y-47233000D01*
X50973506Y-47211231D01*
X50989744Y-47208001D01*
X51108127Y-47158965D01*
X51214669Y-47087776D01*
X51305276Y-46997169D01*
X51376465Y-46890627D01*
X51425501Y-46772244D01*
X51441374Y-46692447D01*
X51450500Y-46646571D01*
X51450500Y-46518428D01*
X51425502Y-46392761D01*
X51425501Y-46392760D01*
X51425501Y-46392756D01*
X51376465Y-46274373D01*
X51376464Y-46274372D01*
X51376461Y-46274366D01*
X51305276Y-46167831D01*
X51305273Y-46167827D01*
X51214672Y-46077226D01*
X51214668Y-46077223D01*
X51108133Y-46006038D01*
X51108124Y-46006033D01*
X50989744Y-45956999D01*
X50989738Y-45956997D01*
X50864071Y-45932000D01*
X50864069Y-45932000D01*
X50735931Y-45932000D01*
X50735929Y-45932000D01*
X50610261Y-45956997D01*
X50610255Y-45956999D01*
X50491875Y-46006033D01*
X50491866Y-46006038D01*
X50385331Y-46077223D01*
X50385327Y-46077226D01*
X50294726Y-46167827D01*
X50294723Y-46167831D01*
X50223538Y-46274366D01*
X50223533Y-46274375D01*
X50174499Y-46392755D01*
X50174497Y-46392761D01*
X50149500Y-46518428D01*
X50149500Y-46518431D01*
X50149500Y-46646569D01*
X50149500Y-46646571D01*
X50149499Y-46646571D01*
X27304778Y-46646571D01*
X27343402Y-46527701D01*
X27370500Y-46356611D01*
X27370500Y-46183389D01*
X27343402Y-46012299D01*
X27289873Y-45847555D01*
X27211232Y-45693212D01*
X27109414Y-45553072D01*
X26986928Y-45430586D01*
X26846788Y-45328768D01*
X26692445Y-45250127D01*
X26527701Y-45196598D01*
X26527699Y-45196597D01*
X26527698Y-45196597D01*
X26396271Y-45175781D01*
X26356611Y-45169500D01*
X26183389Y-45169500D01*
X26143728Y-45175781D01*
X26012302Y-45196597D01*
X25847552Y-45250128D01*
X25693211Y-45328768D01*
X25622001Y-45380506D01*
X25553072Y-45430586D01*
X25553070Y-45430588D01*
X25553069Y-45430588D01*
X25430588Y-45553069D01*
X25430588Y-45553070D01*
X25430586Y-45553072D01*
X25386859Y-45613256D01*
X25328768Y-45693211D01*
X25250128Y-45847552D01*
X25196597Y-46012302D01*
X25169500Y-46183389D01*
X24830500Y-46183389D01*
X24803402Y-46012299D01*
X24749873Y-45847555D01*
X24671232Y-45693212D01*
X24569414Y-45553072D01*
X24446928Y-45430586D01*
X24306788Y-45328768D01*
X24152445Y-45250127D01*
X23987701Y-45196598D01*
X23987699Y-45196597D01*
X23987698Y-45196597D01*
X23856271Y-45175781D01*
X23816611Y-45169500D01*
X23643389Y-45169500D01*
X23603728Y-45175781D01*
X23472302Y-45196597D01*
X23307552Y-45250128D01*
X23153211Y-45328768D01*
X23082001Y-45380506D01*
X23013072Y-45430586D01*
X23013070Y-45430588D01*
X23013069Y-45430588D01*
X22890588Y-45553069D01*
X22890588Y-45553070D01*
X22890586Y-45553072D01*
X22846859Y-45613256D01*
X22788768Y-45693211D01*
X22710128Y-45847552D01*
X22656597Y-46012302D01*
X22629500Y-46183389D01*
X20500500Y-46183389D01*
X20500500Y-44867525D01*
X59389500Y-44867525D01*
X59389500Y-45012475D01*
X59427016Y-45152485D01*
X59427017Y-45152488D01*
X59499488Y-45278011D01*
X59499490Y-45278013D01*
X59499491Y-45278015D01*
X59601985Y-45380509D01*
X59601986Y-45380510D01*
X59601988Y-45380511D01*
X59727511Y-45452982D01*
X59727512Y-45452982D01*
X59727515Y-45452984D01*
X59867525Y-45490500D01*
X59867528Y-45490500D01*
X60012472Y-45490500D01*
X60012475Y-45490500D01*
X60152485Y-45452984D01*
X60278015Y-45380509D01*
X60380509Y-45278015D01*
X60452984Y-45152485D01*
X60490500Y-45012475D01*
X60490500Y-44867525D01*
X60452984Y-44727515D01*
X60420489Y-44671233D01*
X60380511Y-44601988D01*
X60380506Y-44601982D01*
X60278017Y-44499493D01*
X60278011Y-44499488D01*
X60152488Y-44427017D01*
X60152489Y-44427017D01*
X60141006Y-44423940D01*
X60012475Y-44389500D01*
X59867525Y-44389500D01*
X59738993Y-44423940D01*
X59727511Y-44427017D01*
X59601988Y-44499488D01*
X59601982Y-44499493D01*
X59499493Y-44601982D01*
X59499488Y-44601988D01*
X59427017Y-44727511D01*
X59427016Y-44727515D01*
X59389500Y-44867525D01*
X20500500Y-44867525D01*
X20500500Y-43643389D01*
X22629500Y-43643389D01*
X22629500Y-43816611D01*
X22656598Y-43987701D01*
X22710127Y-44152445D01*
X22788768Y-44306788D01*
X22890586Y-44446928D01*
X23013072Y-44569414D01*
X23153212Y-44671232D01*
X23307555Y-44749873D01*
X23472299Y-44803402D01*
X23643389Y-44830500D01*
X23643390Y-44830500D01*
X23816610Y-44830500D01*
X23816611Y-44830500D01*
X23987701Y-44803402D01*
X24152445Y-44749873D01*
X24306788Y-44671232D01*
X24446928Y-44569414D01*
X24569414Y-44446928D01*
X24671232Y-44306788D01*
X24749873Y-44152445D01*
X24803402Y-43987701D01*
X24830500Y-43816611D01*
X24830500Y-43643389D01*
X25169500Y-43643389D01*
X25169500Y-43816611D01*
X25196598Y-43987701D01*
X25250127Y-44152445D01*
X25328768Y-44306788D01*
X25430586Y-44446928D01*
X25553072Y-44569414D01*
X25693212Y-44671232D01*
X25847555Y-44749873D01*
X26012299Y-44803402D01*
X26183389Y-44830500D01*
X26183390Y-44830500D01*
X26356610Y-44830500D01*
X26356611Y-44830500D01*
X26527701Y-44803402D01*
X26692445Y-44749873D01*
X26692449Y-44749871D01*
X26694326Y-44748915D01*
X26694330Y-44748913D01*
X26846786Y-44671233D01*
X26846785Y-44671233D01*
X26846788Y-44671232D01*
X26986928Y-44569414D01*
X27109414Y-44446928D01*
X27211232Y-44306788D01*
X27289873Y-44152445D01*
X27343402Y-43987701D01*
X27370500Y-43816611D01*
X27370500Y-43643389D01*
X27343402Y-43472299D01*
X27289873Y-43307555D01*
X27211232Y-43153212D01*
X27109414Y-43013072D01*
X26986928Y-42890586D01*
X26846788Y-42788768D01*
X26692445Y-42710127D01*
X26527701Y-42656598D01*
X26527699Y-42656597D01*
X26527698Y-42656597D01*
X26396271Y-42635781D01*
X26356611Y-42629500D01*
X26183389Y-42629500D01*
X26143728Y-42635781D01*
X26012302Y-42656597D01*
X25847552Y-42710128D01*
X25693211Y-42788768D01*
X25613256Y-42846859D01*
X25553072Y-42890586D01*
X25553070Y-42890588D01*
X25553069Y-42890588D01*
X25430588Y-43013069D01*
X25430588Y-43013070D01*
X25430586Y-43013072D01*
X25386859Y-43073256D01*
X25328768Y-43153211D01*
X25250128Y-43307552D01*
X25196597Y-43472302D01*
X25169500Y-43643389D01*
X24830500Y-43643389D01*
X24803402Y-43472299D01*
X24749873Y-43307555D01*
X24671232Y-43153212D01*
X24569414Y-43013072D01*
X24446928Y-42890586D01*
X24306788Y-42788768D01*
X24152445Y-42710127D01*
X23987701Y-42656598D01*
X23987699Y-42656597D01*
X23987698Y-42656597D01*
X23856271Y-42635781D01*
X23816611Y-42629500D01*
X23643389Y-42629500D01*
X23603728Y-42635781D01*
X23472302Y-42656597D01*
X23307552Y-42710128D01*
X23153211Y-42788768D01*
X23073256Y-42846859D01*
X23013072Y-42890586D01*
X23013070Y-42890588D01*
X23013069Y-42890588D01*
X22890588Y-43013069D01*
X22890588Y-43013070D01*
X22890586Y-43013072D01*
X22846859Y-43073256D01*
X22788768Y-43153211D01*
X22710128Y-43307552D01*
X22656597Y-43472302D01*
X22629500Y-43643389D01*
X20500500Y-43643389D01*
X20500500Y-41103389D01*
X22629500Y-41103389D01*
X22629500Y-41276611D01*
X22656598Y-41447701D01*
X22710127Y-41612445D01*
X22788768Y-41766788D01*
X22890586Y-41906928D01*
X23013072Y-42029414D01*
X23153212Y-42131232D01*
X23307555Y-42209873D01*
X23472299Y-42263402D01*
X23643389Y-42290500D01*
X23643390Y-42290500D01*
X23816610Y-42290500D01*
X23816611Y-42290500D01*
X23987701Y-42263402D01*
X24152445Y-42209873D01*
X24306788Y-42131232D01*
X24446928Y-42029414D01*
X24569414Y-41906928D01*
X24671232Y-41766788D01*
X24749873Y-41612445D01*
X24803402Y-41447701D01*
X24830500Y-41276611D01*
X24830500Y-41103389D01*
X25169500Y-41103389D01*
X25169500Y-41276611D01*
X25196598Y-41447701D01*
X25250127Y-41612445D01*
X25328768Y-41766788D01*
X25430586Y-41906928D01*
X25553072Y-42029414D01*
X25693212Y-42131232D01*
X25847555Y-42209873D01*
X26012299Y-42263402D01*
X26183389Y-42290500D01*
X26183390Y-42290500D01*
X26356610Y-42290500D01*
X26356611Y-42290500D01*
X26527701Y-42263402D01*
X26692445Y-42209873D01*
X26846788Y-42131232D01*
X26986928Y-42029414D01*
X27109414Y-41906928D01*
X27196166Y-41787525D01*
X41999500Y-41787525D01*
X41999500Y-41932475D01*
X42025475Y-42029414D01*
X42037017Y-42072488D01*
X42109488Y-42198011D01*
X42109490Y-42198013D01*
X42109491Y-42198015D01*
X42211985Y-42300509D01*
X42211986Y-42300510D01*
X42211988Y-42300511D01*
X42337511Y-42372982D01*
X42337512Y-42372982D01*
X42337515Y-42372984D01*
X42477525Y-42410500D01*
X42477528Y-42410500D01*
X42622472Y-42410500D01*
X42622475Y-42410500D01*
X42762485Y-42372984D01*
X42888015Y-42300509D01*
X42990509Y-42198015D01*
X43062984Y-42072485D01*
X43100500Y-41932475D01*
X43100500Y-41787525D01*
X43062984Y-41647515D01*
X43042737Y-41612447D01*
X42990511Y-41521988D01*
X42990506Y-41521982D01*
X42888017Y-41419493D01*
X42888011Y-41419488D01*
X42762488Y-41347017D01*
X42762489Y-41347017D01*
X42751006Y-41343940D01*
X42622475Y-41309500D01*
X42477525Y-41309500D01*
X42348993Y-41343940D01*
X42337511Y-41347017D01*
X42211988Y-41419488D01*
X42211982Y-41419493D01*
X42109493Y-41521982D01*
X42109488Y-41521988D01*
X42037017Y-41647511D01*
X42037016Y-41647515D01*
X41999500Y-41787525D01*
X27196166Y-41787525D01*
X27211232Y-41766788D01*
X27289873Y-41612445D01*
X27343402Y-41447701D01*
X27370500Y-41276611D01*
X27370500Y-41103389D01*
X27343402Y-40932299D01*
X27289873Y-40767555D01*
X27211232Y-40613212D01*
X27109414Y-40473072D01*
X26986928Y-40350586D01*
X26846788Y-40248768D01*
X26692445Y-40170127D01*
X26527701Y-40116598D01*
X26527699Y-40116597D01*
X26527698Y-40116597D01*
X26396271Y-40095781D01*
X26356611Y-40089500D01*
X26183389Y-40089500D01*
X26143728Y-40095781D01*
X26012302Y-40116597D01*
X25847552Y-40170128D01*
X25693211Y-40248768D01*
X25652957Y-40278015D01*
X25553072Y-40350586D01*
X25553070Y-40350588D01*
X25553069Y-40350588D01*
X25430588Y-40473069D01*
X25430588Y-40473070D01*
X25430586Y-40473072D01*
X25417924Y-40490500D01*
X25328768Y-40613211D01*
X25250128Y-40767552D01*
X25196597Y-40932302D01*
X25169500Y-41103389D01*
X24830500Y-41103389D01*
X24803402Y-40932299D01*
X24749873Y-40767555D01*
X24671232Y-40613212D01*
X24569414Y-40473072D01*
X24446928Y-40350586D01*
X24306788Y-40248768D01*
X24152445Y-40170127D01*
X23987701Y-40116598D01*
X23987699Y-40116597D01*
X23987698Y-40116597D01*
X23856271Y-40095781D01*
X23816611Y-40089500D01*
X23643389Y-40089500D01*
X23603728Y-40095781D01*
X23472302Y-40116597D01*
X23307552Y-40170128D01*
X23153211Y-40248768D01*
X23112957Y-40278015D01*
X23013072Y-40350586D01*
X23013070Y-40350588D01*
X23013069Y-40350588D01*
X22890588Y-40473069D01*
X22890588Y-40473070D01*
X22890586Y-40473072D01*
X22877924Y-40490500D01*
X22788768Y-40613211D01*
X22710128Y-40767552D01*
X22656597Y-40932302D01*
X22629500Y-41103389D01*
X20500500Y-41103389D01*
X20500500Y-38563389D01*
X22629500Y-38563389D01*
X22629500Y-38736611D01*
X22656598Y-38907701D01*
X22710127Y-39072445D01*
X22788768Y-39226788D01*
X22890586Y-39366928D01*
X23013072Y-39489414D01*
X23153212Y-39591232D01*
X23307555Y-39669873D01*
X23472299Y-39723402D01*
X23643389Y-39750500D01*
X23643390Y-39750500D01*
X23816610Y-39750500D01*
X23816611Y-39750500D01*
X23987701Y-39723402D01*
X24152445Y-39669873D01*
X24306788Y-39591232D01*
X24446928Y-39489414D01*
X24569414Y-39366928D01*
X24671232Y-39226788D01*
X24749873Y-39072445D01*
X24803402Y-38907701D01*
X24830500Y-38736611D01*
X24830500Y-38563389D01*
X25169500Y-38563389D01*
X25169500Y-38736611D01*
X25196598Y-38907701D01*
X25250127Y-39072445D01*
X25328768Y-39226788D01*
X25430586Y-39366928D01*
X25553072Y-39489414D01*
X25693212Y-39591232D01*
X25847555Y-39669873D01*
X26012299Y-39723402D01*
X26183389Y-39750500D01*
X26183390Y-39750500D01*
X26356610Y-39750500D01*
X26356611Y-39750500D01*
X26527701Y-39723402D01*
X26692445Y-39669873D01*
X26846788Y-39591232D01*
X26986928Y-39489414D01*
X27039523Y-39436819D01*
X27100846Y-39403334D01*
X27127204Y-39400500D01*
X29402649Y-39400500D01*
X29469688Y-39420185D01*
X29515443Y-39472989D01*
X29525387Y-39542147D01*
X29503227Y-39594756D01*
X29503555Y-39594946D01*
X29502049Y-39597554D01*
X29501024Y-39599988D01*
X29499489Y-39601988D01*
X29427017Y-39727511D01*
X29427016Y-39727515D01*
X29389500Y-39867525D01*
X29389500Y-40012475D01*
X29410139Y-40089500D01*
X29427017Y-40152488D01*
X29499488Y-40278011D01*
X29499490Y-40278013D01*
X29499491Y-40278015D01*
X29601985Y-40380509D01*
X29601986Y-40380510D01*
X29601988Y-40380511D01*
X29727511Y-40452982D01*
X29727512Y-40452982D01*
X29727515Y-40452984D01*
X29867525Y-40490500D01*
X29867528Y-40490500D01*
X30012472Y-40490500D01*
X30012475Y-40490500D01*
X30152485Y-40452984D01*
X30278015Y-40380509D01*
X30380509Y-40278015D01*
X30452984Y-40152485D01*
X30490500Y-40012475D01*
X30490500Y-39867525D01*
X49389500Y-39867525D01*
X49389500Y-40012475D01*
X49410139Y-40089500D01*
X49427017Y-40152488D01*
X49499488Y-40278011D01*
X49499490Y-40278013D01*
X49499491Y-40278015D01*
X49601985Y-40380509D01*
X49601986Y-40380510D01*
X49601988Y-40380511D01*
X49727511Y-40452982D01*
X49727512Y-40452982D01*
X49727515Y-40452984D01*
X49867525Y-40490500D01*
X49867528Y-40490500D01*
X50012472Y-40490500D01*
X50012475Y-40490500D01*
X50152485Y-40452984D01*
X50278015Y-40380509D01*
X50380509Y-40278015D01*
X50452984Y-40152485D01*
X50490500Y-40012475D01*
X50490500Y-39867525D01*
X50452984Y-39727515D01*
X50450609Y-39723402D01*
X50380511Y-39601988D01*
X50380506Y-39601982D01*
X50278017Y-39499493D01*
X50278011Y-39499488D01*
X50152488Y-39427017D01*
X50152489Y-39427017D01*
X50141006Y-39423940D01*
X50012475Y-39389500D01*
X49867525Y-39389500D01*
X49738993Y-39423940D01*
X49727511Y-39427017D01*
X49601988Y-39499488D01*
X49601982Y-39499493D01*
X49499493Y-39601982D01*
X49499488Y-39601988D01*
X49427017Y-39727511D01*
X49427016Y-39727515D01*
X49389500Y-39867525D01*
X30490500Y-39867525D01*
X30452984Y-39727515D01*
X30450609Y-39723402D01*
X30419703Y-39669871D01*
X30380509Y-39601985D01*
X30380503Y-39601979D01*
X30378976Y-39599988D01*
X30378205Y-39597995D01*
X30376445Y-39594946D01*
X30376920Y-39594671D01*
X30353781Y-39534819D01*
X30367819Y-39466374D01*
X30416632Y-39416383D01*
X30477351Y-39400500D01*
X41223920Y-39400500D01*
X41321462Y-39381096D01*
X41368913Y-39371658D01*
X41505495Y-39315084D01*
X41554729Y-39282186D01*
X41628416Y-39232952D01*
X43182952Y-37678415D01*
X43217693Y-37626420D01*
X43252673Y-37574070D01*
X43256810Y-37567877D01*
X43265084Y-37555495D01*
X43288518Y-37498920D01*
X43310468Y-37445928D01*
X63349500Y-37445928D01*
X63349500Y-37574070D01*
X63374497Y-37699738D01*
X63374499Y-37699744D01*
X63423533Y-37818124D01*
X63423538Y-37818133D01*
X63494723Y-37924668D01*
X63494726Y-37924672D01*
X63585327Y-38015273D01*
X63585331Y-38015276D01*
X63691866Y-38086461D01*
X63691872Y-38086464D01*
X63691873Y-38086465D01*
X63810256Y-38135501D01*
X63810260Y-38135501D01*
X63810261Y-38135502D01*
X63935928Y-38160500D01*
X63935931Y-38160500D01*
X64064071Y-38160500D01*
X64148615Y-38143682D01*
X64189744Y-38135501D01*
X64308127Y-38086465D01*
X64414669Y-38015276D01*
X64505276Y-37924669D01*
X64576465Y-37818127D01*
X64625501Y-37699744D01*
X64650500Y-37574069D01*
X64650500Y-37445931D01*
X64650500Y-37445928D01*
X64625502Y-37320261D01*
X64625501Y-37320260D01*
X64625501Y-37320256D01*
X64587574Y-37228692D01*
X64576466Y-37201875D01*
X64576461Y-37201866D01*
X64505276Y-37095331D01*
X64505273Y-37095327D01*
X64414672Y-37004726D01*
X64414668Y-37004723D01*
X64308133Y-36933538D01*
X64308124Y-36933533D01*
X64189744Y-36884499D01*
X64189738Y-36884497D01*
X64064071Y-36859500D01*
X64064069Y-36859500D01*
X63935931Y-36859500D01*
X63935929Y-36859500D01*
X63810261Y-36884497D01*
X63810255Y-36884499D01*
X63691875Y-36933533D01*
X63691866Y-36933538D01*
X63585331Y-37004723D01*
X63585327Y-37004726D01*
X63494726Y-37095327D01*
X63494723Y-37095331D01*
X63423538Y-37201866D01*
X63423533Y-37201875D01*
X63374499Y-37320255D01*
X63374497Y-37320261D01*
X63349500Y-37445928D01*
X43310468Y-37445928D01*
X43321659Y-37418912D01*
X43350500Y-37273917D01*
X43350500Y-37126082D01*
X43350500Y-34867525D01*
X64389500Y-34867525D01*
X64389500Y-35012475D01*
X64413046Y-35100347D01*
X64427017Y-35152488D01*
X64499488Y-35278011D01*
X64499490Y-35278013D01*
X64499491Y-35278015D01*
X64601985Y-35380509D01*
X64601986Y-35380510D01*
X64601988Y-35380511D01*
X64727511Y-35452982D01*
X64727512Y-35452982D01*
X64727515Y-35452984D01*
X64867525Y-35490500D01*
X64867528Y-35490500D01*
X65012472Y-35490500D01*
X65012475Y-35490500D01*
X65152485Y-35452984D01*
X65278015Y-35380509D01*
X65380509Y-35278015D01*
X65452984Y-35152485D01*
X65490500Y-35012475D01*
X65490500Y-34867525D01*
X65452984Y-34727515D01*
X65380509Y-34601985D01*
X65278015Y-34499491D01*
X65278013Y-34499490D01*
X65278011Y-34499488D01*
X65152488Y-34427017D01*
X65152489Y-34427017D01*
X65141006Y-34423940D01*
X65012475Y-34389500D01*
X64867525Y-34389500D01*
X64738993Y-34423940D01*
X64727511Y-34427017D01*
X64601988Y-34499488D01*
X64601982Y-34499493D01*
X64499493Y-34601982D01*
X64499488Y-34601988D01*
X64427017Y-34727511D01*
X64427016Y-34727515D01*
X64389500Y-34867525D01*
X43350500Y-34867525D01*
X43350500Y-29867525D01*
X54389500Y-29867525D01*
X54389500Y-30012475D01*
X54427016Y-30152485D01*
X54427017Y-30152488D01*
X54499488Y-30278011D01*
X54499490Y-30278013D01*
X54499491Y-30278015D01*
X54601985Y-30380509D01*
X54601986Y-30380510D01*
X54601988Y-30380511D01*
X54727511Y-30452982D01*
X54727512Y-30452982D01*
X54727515Y-30452984D01*
X54867525Y-30490500D01*
X54867528Y-30490500D01*
X55012472Y-30490500D01*
X55012475Y-30490500D01*
X55152485Y-30452984D01*
X55278015Y-30380509D01*
X55380509Y-30278015D01*
X55452984Y-30152485D01*
X55490500Y-30012475D01*
X55490500Y-29867525D01*
X55452984Y-29727515D01*
X55380509Y-29601985D01*
X55278015Y-29499491D01*
X55278013Y-29499490D01*
X55278011Y-29499488D01*
X55152488Y-29427017D01*
X55152489Y-29427017D01*
X55141006Y-29423940D01*
X55012475Y-29389500D01*
X54867525Y-29389500D01*
X54738993Y-29423940D01*
X54727511Y-29427017D01*
X54601988Y-29499488D01*
X54601982Y-29499493D01*
X54499493Y-29601982D01*
X54499488Y-29601988D01*
X54427017Y-29727511D01*
X54427016Y-29727515D01*
X54389500Y-29867525D01*
X43350500Y-29867525D01*
X43350500Y-25913389D01*
X50319500Y-25913389D01*
X50319500Y-26086611D01*
X50346598Y-26257701D01*
X50400127Y-26422445D01*
X50478768Y-26576788D01*
X50580586Y-26716928D01*
X50703072Y-26839414D01*
X50843212Y-26941232D01*
X50997555Y-27019873D01*
X51162299Y-27073402D01*
X51333389Y-27100500D01*
X51333390Y-27100500D01*
X51506610Y-27100500D01*
X51506611Y-27100500D01*
X51677701Y-27073402D01*
X51842445Y-27019873D01*
X51996788Y-26941232D01*
X52136928Y-26839414D01*
X52259414Y-26716928D01*
X52361232Y-26576788D01*
X52439873Y-26422445D01*
X52493402Y-26257701D01*
X52520500Y-26086611D01*
X52520500Y-25913389D01*
X52859500Y-25913389D01*
X52859500Y-26086611D01*
X52886598Y-26257701D01*
X52940127Y-26422445D01*
X53018768Y-26576788D01*
X53120586Y-26716928D01*
X53243072Y-26839414D01*
X53383212Y-26941232D01*
X53537555Y-27019873D01*
X53702299Y-27073402D01*
X53873389Y-27100500D01*
X53873390Y-27100500D01*
X54046610Y-27100500D01*
X54046611Y-27100500D01*
X54217701Y-27073402D01*
X54382445Y-27019873D01*
X54536788Y-26941232D01*
X54676928Y-26839414D01*
X54799414Y-26716928D01*
X54901232Y-26576788D01*
X54979873Y-26422445D01*
X55033402Y-26257701D01*
X55060500Y-26086611D01*
X55060500Y-25913389D01*
X55034622Y-25750000D01*
X55479157Y-25750000D01*
X56066988Y-25750000D01*
X56034075Y-25807007D01*
X56000000Y-25934174D01*
X56000000Y-26065826D01*
X56034075Y-26192993D01*
X56066988Y-26250000D01*
X55479157Y-26250000D01*
X55490350Y-26306274D01*
X55490351Y-26306276D01*
X55569500Y-26497358D01*
X55569505Y-26497368D01*
X55684410Y-26669335D01*
X55684413Y-26669339D01*
X55830660Y-26815586D01*
X55830664Y-26815589D01*
X56002631Y-26930494D01*
X56002641Y-26930499D01*
X56193723Y-27009648D01*
X56193725Y-27009649D01*
X56250000Y-27020842D01*
X56250000Y-26433012D01*
X56307007Y-26465925D01*
X56434174Y-26500000D01*
X56565826Y-26500000D01*
X56692993Y-26465925D01*
X56750000Y-26433012D01*
X56750000Y-27020842D01*
X56806274Y-27009649D01*
X56806276Y-27009648D01*
X56997358Y-26930499D01*
X56997368Y-26930494D01*
X57169335Y-26815589D01*
X57169339Y-26815586D01*
X57315586Y-26669339D01*
X57315589Y-26669335D01*
X57430494Y-26497368D01*
X57430499Y-26497358D01*
X57509648Y-26306276D01*
X57509649Y-26306274D01*
X57520843Y-26250000D01*
X56933012Y-26250000D01*
X56965925Y-26192993D01*
X57000000Y-26065826D01*
X57000000Y-25934174D01*
X56965925Y-25807007D01*
X56933012Y-25750000D01*
X57520843Y-25750000D01*
X57509649Y-25693725D01*
X57509648Y-25693723D01*
X57430499Y-25502641D01*
X57430494Y-25502631D01*
X57315589Y-25330664D01*
X57315586Y-25330660D01*
X57169339Y-25184413D01*
X57169335Y-25184410D01*
X56997368Y-25069505D01*
X56997358Y-25069500D01*
X56806272Y-24990349D01*
X56806267Y-24990347D01*
X56750000Y-24979155D01*
X56750000Y-25566988D01*
X56692993Y-25534075D01*
X56565826Y-25500000D01*
X56434174Y-25500000D01*
X56307007Y-25534075D01*
X56250000Y-25566988D01*
X56250000Y-24979156D01*
X56249999Y-24979155D01*
X56193732Y-24990347D01*
X56193727Y-24990349D01*
X56002641Y-25069500D01*
X56002631Y-25069505D01*
X55830664Y-25184410D01*
X55830660Y-25184413D01*
X55684413Y-25330660D01*
X55684410Y-25330664D01*
X55569505Y-25502631D01*
X55569500Y-25502641D01*
X55490351Y-25693723D01*
X55490350Y-25693725D01*
X55479157Y-25750000D01*
X55034622Y-25750000D01*
X55033402Y-25742299D01*
X54979873Y-25577555D01*
X54901232Y-25423212D01*
X54799414Y-25283072D01*
X54676928Y-25160586D01*
X54536788Y-25058768D01*
X54382445Y-24980127D01*
X54217701Y-24926598D01*
X54217699Y-24926597D01*
X54217698Y-24926597D01*
X54086271Y-24905781D01*
X54046611Y-24899500D01*
X53873389Y-24899500D01*
X53833728Y-24905781D01*
X53702302Y-24926597D01*
X53702299Y-24926598D01*
X53540547Y-24979155D01*
X53537552Y-24980128D01*
X53383211Y-25058768D01*
X53303256Y-25116859D01*
X53243072Y-25160586D01*
X53243070Y-25160588D01*
X53243069Y-25160588D01*
X53120588Y-25283069D01*
X53120588Y-25283070D01*
X53120586Y-25283072D01*
X53086011Y-25330660D01*
X53018768Y-25423211D01*
X52940128Y-25577552D01*
X52886597Y-25742302D01*
X52876349Y-25807007D01*
X52859500Y-25913389D01*
X52520500Y-25913389D01*
X52493402Y-25742299D01*
X52439873Y-25577555D01*
X52361232Y-25423212D01*
X52259414Y-25283072D01*
X52136928Y-25160586D01*
X51996788Y-25058768D01*
X51842445Y-24980127D01*
X51677701Y-24926598D01*
X51677699Y-24926597D01*
X51677698Y-24926597D01*
X51546271Y-24905781D01*
X51506611Y-24899500D01*
X51333389Y-24899500D01*
X51293728Y-24905781D01*
X51162302Y-24926597D01*
X51162299Y-24926598D01*
X51000547Y-24979155D01*
X50997552Y-24980128D01*
X50843211Y-25058768D01*
X50763256Y-25116859D01*
X50703072Y-25160586D01*
X50703070Y-25160588D01*
X50703069Y-25160588D01*
X50580588Y-25283069D01*
X50580588Y-25283070D01*
X50580586Y-25283072D01*
X50546011Y-25330660D01*
X50478768Y-25423211D01*
X50400128Y-25577552D01*
X50346597Y-25742302D01*
X50336349Y-25807007D01*
X50319500Y-25913389D01*
X43350500Y-25913389D01*
X43350500Y-25236082D01*
X43350500Y-24867525D01*
X44389500Y-24867525D01*
X44389500Y-25012475D01*
X44427016Y-25152485D01*
X44427017Y-25152488D01*
X44499488Y-25278011D01*
X44499490Y-25278013D01*
X44499491Y-25278015D01*
X44601985Y-25380509D01*
X44601986Y-25380510D01*
X44601988Y-25380511D01*
X44727511Y-25452982D01*
X44727512Y-25452982D01*
X44727515Y-25452984D01*
X44867525Y-25490500D01*
X44867528Y-25490500D01*
X45012472Y-25490500D01*
X45012475Y-25490500D01*
X45152485Y-25452984D01*
X45278015Y-25380509D01*
X45380509Y-25278015D01*
X45452984Y-25152485D01*
X45490500Y-25012475D01*
X45490500Y-24867525D01*
X45452984Y-24727515D01*
X45380509Y-24601985D01*
X45278015Y-24499491D01*
X45278013Y-24499490D01*
X45278011Y-24499488D01*
X45152488Y-24427017D01*
X45152489Y-24427017D01*
X45141006Y-24423940D01*
X45012475Y-24389500D01*
X44867525Y-24389500D01*
X44738993Y-24423940D01*
X44727511Y-24427017D01*
X44601988Y-24499488D01*
X44601982Y-24499493D01*
X44499493Y-24601982D01*
X44499488Y-24601988D01*
X44427017Y-24727511D01*
X44427016Y-24727515D01*
X44389500Y-24867525D01*
X43350500Y-24867525D01*
X43350500Y-24326082D01*
X43350500Y-22872229D01*
X43370185Y-22805190D01*
X43386819Y-22784548D01*
X43874548Y-22296819D01*
X43935871Y-22263334D01*
X43962229Y-22260500D01*
X50833594Y-22260500D01*
X50900633Y-22280185D01*
X50946388Y-22332989D01*
X50956332Y-22402147D01*
X50927307Y-22465703D01*
X50889889Y-22494985D01*
X50843211Y-22518768D01*
X50821491Y-22534549D01*
X50703072Y-22620586D01*
X50703070Y-22620588D01*
X50703069Y-22620588D01*
X50580588Y-22743069D01*
X50580588Y-22743070D01*
X50580586Y-22743072D01*
X50550452Y-22784548D01*
X50478768Y-22883211D01*
X50400128Y-23037552D01*
X50346597Y-23202302D01*
X50319500Y-23373389D01*
X50319500Y-23546611D01*
X50346598Y-23717701D01*
X50400127Y-23882445D01*
X50478768Y-24036788D01*
X50580586Y-24176928D01*
X50703072Y-24299414D01*
X50843212Y-24401232D01*
X50997555Y-24479873D01*
X51162299Y-24533402D01*
X51333389Y-24560500D01*
X51333390Y-24560500D01*
X51506610Y-24560500D01*
X51506611Y-24560500D01*
X51677701Y-24533402D01*
X51842445Y-24479873D01*
X51996788Y-24401232D01*
X52136928Y-24299414D01*
X52259414Y-24176928D01*
X52361232Y-24036788D01*
X52439873Y-23882445D01*
X52493402Y-23717701D01*
X52520500Y-23546611D01*
X52520500Y-23373389D01*
X52493402Y-23202299D01*
X52439873Y-23037555D01*
X52361232Y-22883212D01*
X52259414Y-22743072D01*
X52136928Y-22620586D01*
X51996788Y-22518768D01*
X51950111Y-22494985D01*
X51899315Y-22447010D01*
X51882520Y-22379189D01*
X51905057Y-22313055D01*
X51959772Y-22269603D01*
X52006406Y-22260500D01*
X53373594Y-22260500D01*
X53440633Y-22280185D01*
X53486388Y-22332989D01*
X53496332Y-22402147D01*
X53467307Y-22465703D01*
X53429889Y-22494985D01*
X53383211Y-22518768D01*
X53361491Y-22534549D01*
X53243072Y-22620586D01*
X53243070Y-22620588D01*
X53243069Y-22620588D01*
X53120588Y-22743069D01*
X53120588Y-22743070D01*
X53120586Y-22743072D01*
X53090452Y-22784548D01*
X53018768Y-22883211D01*
X52940128Y-23037552D01*
X52886597Y-23202302D01*
X52859500Y-23373389D01*
X52859500Y-23546611D01*
X52886598Y-23717701D01*
X52940127Y-23882445D01*
X53018768Y-24036788D01*
X53120586Y-24176928D01*
X53243072Y-24299414D01*
X53383212Y-24401232D01*
X53537555Y-24479873D01*
X53702299Y-24533402D01*
X53873389Y-24560500D01*
X53873390Y-24560500D01*
X54046610Y-24560500D01*
X54046611Y-24560500D01*
X54217701Y-24533402D01*
X54382445Y-24479873D01*
X54536788Y-24401232D01*
X54676928Y-24299414D01*
X54799414Y-24176928D01*
X54901232Y-24036788D01*
X54979873Y-23882445D01*
X55033402Y-23717701D01*
X55060500Y-23546611D01*
X55060500Y-23373389D01*
X55033402Y-23202299D01*
X54979873Y-23037555D01*
X54901232Y-22883212D01*
X54799414Y-22743072D01*
X54676928Y-22620586D01*
X54536788Y-22518768D01*
X54490111Y-22494985D01*
X54439315Y-22447010D01*
X54422520Y-22379189D01*
X54445057Y-22313055D01*
X54499772Y-22269603D01*
X54546406Y-22260500D01*
X55037770Y-22260500D01*
X55104809Y-22280185D01*
X55125451Y-22296819D01*
X55363181Y-22534549D01*
X55396666Y-22595872D01*
X55399500Y-22622230D01*
X55399500Y-24334678D01*
X55414032Y-24407735D01*
X55414033Y-24407739D01*
X55426914Y-24427017D01*
X55469399Y-24490601D01*
X55552260Y-24545966D01*
X55552264Y-24545967D01*
X55625321Y-24560499D01*
X55625324Y-24560500D01*
X55625326Y-24560500D01*
X57374676Y-24560500D01*
X57374677Y-24560499D01*
X57447740Y-24545966D01*
X57530601Y-24490601D01*
X57585966Y-24407740D01*
X57600500Y-24334674D01*
X57600500Y-23378711D01*
X64649500Y-23378711D01*
X64649500Y-23621288D01*
X64681161Y-23861785D01*
X64743947Y-24096104D01*
X64828160Y-24299411D01*
X64836776Y-24320212D01*
X64958064Y-24530289D01*
X64958066Y-24530292D01*
X64958067Y-24530293D01*
X65105733Y-24722736D01*
X65105739Y-24722743D01*
X65277256Y-24894260D01*
X65277262Y-24894265D01*
X65469711Y-25041936D01*
X65679788Y-25163224D01*
X65903900Y-25256054D01*
X66138211Y-25318838D01*
X66318586Y-25342584D01*
X66378711Y-25350500D01*
X66378712Y-25350500D01*
X66621289Y-25350500D01*
X66669388Y-25344167D01*
X66861789Y-25318838D01*
X67096100Y-25256054D01*
X67320212Y-25163224D01*
X67530289Y-25041936D01*
X67722738Y-24894265D01*
X67894265Y-24722738D01*
X68041936Y-24530289D01*
X68163224Y-24320212D01*
X68256054Y-24096100D01*
X68318838Y-23861789D01*
X68350500Y-23621288D01*
X68350500Y-23378712D01*
X68350499Y-23378708D01*
X68342584Y-23318586D01*
X68318838Y-23138211D01*
X68256054Y-22903900D01*
X68163224Y-22679788D01*
X68041936Y-22469711D01*
X67921730Y-22313055D01*
X67894266Y-22277263D01*
X67894260Y-22277256D01*
X67722743Y-22105739D01*
X67722736Y-22105733D01*
X67530293Y-21958067D01*
X67530292Y-21958066D01*
X67530289Y-21958064D01*
X67320212Y-21836776D01*
X67308711Y-21832012D01*
X67096104Y-21743947D01*
X66861785Y-21681161D01*
X66621289Y-21649500D01*
X66621288Y-21649500D01*
X66378712Y-21649500D01*
X66378711Y-21649500D01*
X66138214Y-21681161D01*
X65903895Y-21743947D01*
X65679794Y-21836773D01*
X65679785Y-21836777D01*
X65469706Y-21958067D01*
X65277263Y-22105733D01*
X65277256Y-22105739D01*
X65105739Y-22277256D01*
X65105733Y-22277263D01*
X64958067Y-22469706D01*
X64836777Y-22679785D01*
X64836773Y-22679794D01*
X64743947Y-22903895D01*
X64681161Y-23138214D01*
X64649500Y-23378711D01*
X57600500Y-23378711D01*
X57600500Y-22585326D01*
X57600500Y-22585323D01*
X57600499Y-22585321D01*
X57585967Y-22512264D01*
X57585966Y-22512260D01*
X57557536Y-22469711D01*
X57530601Y-22429399D01*
X57447740Y-22374034D01*
X57447739Y-22374033D01*
X57447735Y-22374032D01*
X57374677Y-22359500D01*
X57374674Y-22359500D01*
X57291428Y-22359500D01*
X57224389Y-22339815D01*
X57184637Y-22298522D01*
X57180206Y-22291015D01*
X57165084Y-22254505D01*
X57112017Y-22175084D01*
X57093680Y-22147641D01*
X57082954Y-22131586D01*
X57082952Y-22131584D01*
X55878421Y-20927052D01*
X55878414Y-20927046D01*
X55804729Y-20877812D01*
X55804729Y-20877813D01*
X55755491Y-20844913D01*
X55618917Y-20788343D01*
X55618907Y-20788340D01*
X55473920Y-20759500D01*
X55473918Y-20759500D01*
X43526082Y-20759500D01*
X43526076Y-20759500D01*
X43497242Y-20765234D01*
X43497243Y-20765235D01*
X43381093Y-20788339D01*
X43381083Y-20788342D01*
X43301081Y-20821479D01*
X43301082Y-20821480D01*
X43244505Y-20844915D01*
X43162372Y-20899795D01*
X43121585Y-20927047D01*
X43121581Y-20927050D01*
X42017048Y-22031583D01*
X41996478Y-22062369D01*
X41976045Y-22092951D01*
X41934919Y-22154499D01*
X41934912Y-22154511D01*
X41878343Y-22291082D01*
X41878340Y-22291092D01*
X41849500Y-22436079D01*
X41849500Y-22585500D01*
X41829815Y-22652539D01*
X41777011Y-22698294D01*
X41725500Y-22709500D01*
X41304500Y-22709500D01*
X41237461Y-22689815D01*
X41191706Y-22637011D01*
X41181766Y-22591320D01*
X41181097Y-22591386D01*
X41180531Y-22585645D01*
X41180500Y-22585500D01*
X41180500Y-22585323D01*
X41180499Y-22585321D01*
X41165967Y-22512264D01*
X41165966Y-22512260D01*
X41137536Y-22469711D01*
X41110601Y-22429399D01*
X41027740Y-22374034D01*
X41027739Y-22374033D01*
X41027735Y-22374032D01*
X40954677Y-22359500D01*
X40954674Y-22359500D01*
X39205326Y-22359500D01*
X39205323Y-22359500D01*
X39132264Y-22374032D01*
X39132260Y-22374033D01*
X39049399Y-22429399D01*
X38994033Y-22512260D01*
X38994032Y-22512264D01*
X38979500Y-22585321D01*
X38979500Y-24334678D01*
X38994032Y-24407735D01*
X38994033Y-24407739D01*
X39006914Y-24427017D01*
X39049399Y-24490601D01*
X39132260Y-24545966D01*
X39132264Y-24545967D01*
X39205321Y-24560499D01*
X39205324Y-24560500D01*
X39205326Y-24560500D01*
X40954676Y-24560500D01*
X40954677Y-24560499D01*
X41027740Y-24545966D01*
X41110601Y-24490601D01*
X41165966Y-24407740D01*
X41180500Y-24334674D01*
X41180500Y-24334664D01*
X41181054Y-24329041D01*
X41207212Y-24264252D01*
X41264244Y-24223890D01*
X41334044Y-24220769D01*
X41392139Y-24253507D01*
X41813181Y-24674549D01*
X41846666Y-24735872D01*
X41849500Y-24762230D01*
X41849500Y-36837770D01*
X41829815Y-36904809D01*
X41813181Y-36925451D01*
X40875451Y-37863181D01*
X40814128Y-37896666D01*
X40787770Y-37899500D01*
X27127204Y-37899500D01*
X27060165Y-37879815D01*
X27039523Y-37863181D01*
X26986930Y-37810588D01*
X26986928Y-37810586D01*
X26846788Y-37708768D01*
X26692445Y-37630127D01*
X26527701Y-37576598D01*
X26527699Y-37576597D01*
X26527698Y-37576597D01*
X26394430Y-37555490D01*
X26356611Y-37549500D01*
X26183389Y-37549500D01*
X26145570Y-37555490D01*
X26012302Y-37576597D01*
X25847552Y-37630128D01*
X25693211Y-37708768D01*
X25613256Y-37766859D01*
X25553072Y-37810586D01*
X25553070Y-37810588D01*
X25553069Y-37810588D01*
X25430588Y-37933069D01*
X25430588Y-37933070D01*
X25430586Y-37933072D01*
X25386859Y-37993256D01*
X25328768Y-38073211D01*
X25250128Y-38227552D01*
X25196597Y-38392302D01*
X25169500Y-38563389D01*
X24830500Y-38563389D01*
X24803402Y-38392299D01*
X24749873Y-38227555D01*
X24671232Y-38073212D01*
X24569414Y-37933072D01*
X24446928Y-37810586D01*
X24306788Y-37708768D01*
X24152445Y-37630127D01*
X23987701Y-37576598D01*
X23987699Y-37576597D01*
X23987698Y-37576597D01*
X23854430Y-37555490D01*
X23816611Y-37549500D01*
X23643389Y-37549500D01*
X23605570Y-37555490D01*
X23472302Y-37576597D01*
X23307552Y-37630128D01*
X23153211Y-37708768D01*
X23073256Y-37766859D01*
X23013072Y-37810586D01*
X23013070Y-37810588D01*
X23013069Y-37810588D01*
X22890588Y-37933069D01*
X22890588Y-37933070D01*
X22890586Y-37933072D01*
X22846859Y-37993256D01*
X22788768Y-38073211D01*
X22710128Y-38227552D01*
X22656597Y-38392302D01*
X22629500Y-38563389D01*
X20500500Y-38563389D01*
X20500500Y-36023389D01*
X22629500Y-36023389D01*
X22629500Y-36196611D01*
X22656598Y-36367701D01*
X22710127Y-36532445D01*
X22788768Y-36686788D01*
X22890586Y-36826928D01*
X23013072Y-36949414D01*
X23153212Y-37051232D01*
X23307555Y-37129873D01*
X23472299Y-37183402D01*
X23643389Y-37210500D01*
X23643390Y-37210500D01*
X23816610Y-37210500D01*
X23816611Y-37210500D01*
X23987701Y-37183402D01*
X24152445Y-37129873D01*
X24306788Y-37051232D01*
X24446928Y-36949414D01*
X24569414Y-36826928D01*
X24671232Y-36686788D01*
X24749873Y-36532445D01*
X24803402Y-36367701D01*
X24830500Y-36196611D01*
X24830500Y-36023389D01*
X24804622Y-35860000D01*
X25249157Y-35860000D01*
X25836988Y-35860000D01*
X25804075Y-35917007D01*
X25770000Y-36044174D01*
X25770000Y-36175826D01*
X25804075Y-36302993D01*
X25836988Y-36360000D01*
X25249157Y-36360000D01*
X25260350Y-36416274D01*
X25260351Y-36416276D01*
X25339500Y-36607358D01*
X25339505Y-36607368D01*
X25454410Y-36779335D01*
X25454413Y-36779339D01*
X25600660Y-36925586D01*
X25600664Y-36925589D01*
X25772631Y-37040494D01*
X25772641Y-37040499D01*
X25963723Y-37119648D01*
X25963725Y-37119649D01*
X26020000Y-37130842D01*
X26020000Y-36543012D01*
X26077007Y-36575925D01*
X26204174Y-36610000D01*
X26335826Y-36610000D01*
X26462993Y-36575925D01*
X26520000Y-36543012D01*
X26520000Y-37130842D01*
X26576274Y-37119649D01*
X26576276Y-37119648D01*
X26767358Y-37040499D01*
X26767368Y-37040494D01*
X26939335Y-36925589D01*
X26939339Y-36925586D01*
X27085586Y-36779339D01*
X27085589Y-36779335D01*
X27200494Y-36607368D01*
X27200499Y-36607358D01*
X27279648Y-36416276D01*
X27279649Y-36416274D01*
X27290843Y-36360000D01*
X26703012Y-36360000D01*
X26735925Y-36302993D01*
X26746309Y-36264242D01*
X31529500Y-36264242D01*
X31529500Y-36409192D01*
X31567016Y-36549202D01*
X31567017Y-36549205D01*
X31639488Y-36674728D01*
X31639490Y-36674730D01*
X31639491Y-36674732D01*
X31741985Y-36777226D01*
X31741986Y-36777227D01*
X31741988Y-36777228D01*
X31867511Y-36849699D01*
X31867512Y-36849699D01*
X31867515Y-36849701D01*
X32007525Y-36887217D01*
X32007528Y-36887217D01*
X32152472Y-36887217D01*
X32152475Y-36887217D01*
X32292485Y-36849701D01*
X32418015Y-36777226D01*
X32520509Y-36674732D01*
X32592984Y-36549202D01*
X32630500Y-36409192D01*
X32630500Y-36264242D01*
X32592984Y-36124232D01*
X32546762Y-36044174D01*
X32520511Y-35998705D01*
X32520506Y-35998699D01*
X32418017Y-35896210D01*
X32418011Y-35896205D01*
X32292488Y-35823734D01*
X32292489Y-35823734D01*
X32281006Y-35820657D01*
X32152475Y-35786217D01*
X32007525Y-35786217D01*
X31878993Y-35820657D01*
X31867511Y-35823734D01*
X31741988Y-35896205D01*
X31741982Y-35896210D01*
X31639493Y-35998699D01*
X31639488Y-35998705D01*
X31567017Y-36124228D01*
X31567016Y-36124232D01*
X31529500Y-36264242D01*
X26746309Y-36264242D01*
X26770000Y-36175826D01*
X26770000Y-36044174D01*
X26735925Y-35917007D01*
X26703012Y-35860000D01*
X27290843Y-35860000D01*
X27279649Y-35803725D01*
X27279648Y-35803723D01*
X27200499Y-35612641D01*
X27200494Y-35612631D01*
X27085589Y-35440664D01*
X27085586Y-35440660D01*
X26939339Y-35294413D01*
X26939335Y-35294410D01*
X26767368Y-35179505D01*
X26767358Y-35179500D01*
X26576272Y-35100349D01*
X26576267Y-35100347D01*
X26520000Y-35089155D01*
X26520000Y-35676988D01*
X26462993Y-35644075D01*
X26335826Y-35610000D01*
X26204174Y-35610000D01*
X26077007Y-35644075D01*
X26020000Y-35676988D01*
X26020000Y-35089156D01*
X26019999Y-35089155D01*
X25963732Y-35100347D01*
X25963727Y-35100349D01*
X25772641Y-35179500D01*
X25772631Y-35179505D01*
X25600664Y-35294410D01*
X25600660Y-35294413D01*
X25454413Y-35440660D01*
X25454410Y-35440664D01*
X25339505Y-35612631D01*
X25339500Y-35612641D01*
X25260351Y-35803723D01*
X25260350Y-35803725D01*
X25249157Y-35860000D01*
X24804622Y-35860000D01*
X24803402Y-35852299D01*
X24749873Y-35687555D01*
X24671232Y-35533212D01*
X24569414Y-35393072D01*
X24446928Y-35270586D01*
X24306788Y-35168768D01*
X24152445Y-35090127D01*
X23987701Y-35036598D01*
X23987699Y-35036597D01*
X23987698Y-35036597D01*
X23835375Y-35012472D01*
X23816611Y-35009500D01*
X23643389Y-35009500D01*
X23624625Y-35012472D01*
X23472302Y-35036597D01*
X23472299Y-35036598D01*
X23310547Y-35089155D01*
X23307552Y-35090128D01*
X23153211Y-35168768D01*
X23073256Y-35226859D01*
X23013072Y-35270586D01*
X23013070Y-35270588D01*
X23013069Y-35270588D01*
X22890588Y-35393069D01*
X22890588Y-35393070D01*
X22890586Y-35393072D01*
X22856011Y-35440660D01*
X22788768Y-35533211D01*
X22710128Y-35687552D01*
X22656597Y-35852302D01*
X22629500Y-36023389D01*
X20500500Y-36023389D01*
X20500500Y-34867525D01*
X39389500Y-34867525D01*
X39389500Y-35012475D01*
X39413046Y-35100347D01*
X39427017Y-35152488D01*
X39499488Y-35278011D01*
X39499490Y-35278013D01*
X39499491Y-35278015D01*
X39601985Y-35380509D01*
X39601986Y-35380510D01*
X39601988Y-35380511D01*
X39727511Y-35452982D01*
X39727512Y-35452982D01*
X39727515Y-35452984D01*
X39867525Y-35490500D01*
X39867528Y-35490500D01*
X40012472Y-35490500D01*
X40012475Y-35490500D01*
X40152485Y-35452984D01*
X40278015Y-35380509D01*
X40380509Y-35278015D01*
X40452984Y-35152485D01*
X40490500Y-35012475D01*
X40490500Y-34867525D01*
X40452984Y-34727515D01*
X40380509Y-34601985D01*
X40278015Y-34499491D01*
X40278013Y-34499490D01*
X40278011Y-34499488D01*
X40152488Y-34427017D01*
X40152489Y-34427017D01*
X40141006Y-34423940D01*
X40012475Y-34389500D01*
X39867525Y-34389500D01*
X39738993Y-34423940D01*
X39727511Y-34427017D01*
X39601988Y-34499488D01*
X39601982Y-34499493D01*
X39499493Y-34601982D01*
X39499488Y-34601988D01*
X39427017Y-34727511D01*
X39427016Y-34727515D01*
X39389500Y-34867525D01*
X20500500Y-34867525D01*
X20500500Y-33412525D01*
X30589500Y-33412525D01*
X30589500Y-33557475D01*
X30627016Y-33697485D01*
X30627017Y-33697488D01*
X30699488Y-33823011D01*
X30699490Y-33823013D01*
X30699491Y-33823015D01*
X30801985Y-33925509D01*
X30801986Y-33925510D01*
X30801988Y-33925511D01*
X30927511Y-33997982D01*
X30927512Y-33997982D01*
X30927515Y-33997984D01*
X31067525Y-34035500D01*
X31067528Y-34035500D01*
X31212472Y-34035500D01*
X31212475Y-34035500D01*
X31352485Y-33997984D01*
X31478015Y-33925509D01*
X31580509Y-33823015D01*
X31652984Y-33697485D01*
X31690500Y-33557475D01*
X31690500Y-33412525D01*
X31652984Y-33272515D01*
X31625359Y-33224668D01*
X31580511Y-33146988D01*
X31580506Y-33146982D01*
X31478017Y-33044493D01*
X31478011Y-33044488D01*
X31352488Y-32972017D01*
X31352489Y-32972017D01*
X31341006Y-32968940D01*
X31212475Y-32934500D01*
X31067525Y-32934500D01*
X30938993Y-32968940D01*
X30927511Y-32972017D01*
X30801988Y-33044488D01*
X30801982Y-33044493D01*
X30699493Y-33146982D01*
X30699488Y-33146988D01*
X30627017Y-33272511D01*
X30627016Y-33272515D01*
X30589500Y-33412525D01*
X20500500Y-33412525D01*
X20500500Y-32874071D01*
X34749499Y-32874071D01*
X34774497Y-32999738D01*
X34774499Y-32999744D01*
X34823533Y-33118124D01*
X34823538Y-33118133D01*
X34894723Y-33224668D01*
X34894726Y-33224672D01*
X34985327Y-33315273D01*
X34985331Y-33315276D01*
X35091866Y-33386461D01*
X35091872Y-33386464D01*
X35091873Y-33386465D01*
X35210256Y-33435501D01*
X35210260Y-33435501D01*
X35210261Y-33435502D01*
X35335928Y-33460500D01*
X35335931Y-33460500D01*
X35464071Y-33460500D01*
X35548615Y-33443682D01*
X35589744Y-33435501D01*
X35708127Y-33386465D01*
X35814669Y-33315276D01*
X35905276Y-33224669D01*
X35976465Y-33118127D01*
X36025501Y-32999744D01*
X36050500Y-32874069D01*
X36050500Y-32745931D01*
X36050500Y-32745928D01*
X36025502Y-32620261D01*
X36025501Y-32620260D01*
X36025501Y-32620256D01*
X35976465Y-32501873D01*
X35976464Y-32501872D01*
X35976461Y-32501866D01*
X35905276Y-32395331D01*
X35905273Y-32395327D01*
X35814672Y-32304726D01*
X35814668Y-32304723D01*
X35708133Y-32233538D01*
X35708124Y-32233533D01*
X35589744Y-32184499D01*
X35589738Y-32184497D01*
X35464071Y-32159500D01*
X35464069Y-32159500D01*
X35335931Y-32159500D01*
X35335929Y-32159500D01*
X35210261Y-32184497D01*
X35210255Y-32184499D01*
X35091875Y-32233533D01*
X35091866Y-32233538D01*
X34985331Y-32304723D01*
X34985327Y-32304726D01*
X34894726Y-32395327D01*
X34894723Y-32395331D01*
X34823538Y-32501866D01*
X34823533Y-32501875D01*
X34774499Y-32620255D01*
X34774497Y-32620261D01*
X34749500Y-32745928D01*
X34749500Y-32745931D01*
X34749500Y-32874069D01*
X34749500Y-32874071D01*
X34749499Y-32874071D01*
X20500500Y-32874071D01*
X20500500Y-29867525D01*
X24389500Y-29867525D01*
X24389500Y-30012475D01*
X24427016Y-30152485D01*
X24427017Y-30152488D01*
X24499488Y-30278011D01*
X24499490Y-30278013D01*
X24499491Y-30278015D01*
X24601985Y-30380509D01*
X24601986Y-30380510D01*
X24601988Y-30380511D01*
X24727511Y-30452982D01*
X24727512Y-30452982D01*
X24727515Y-30452984D01*
X24867525Y-30490500D01*
X24867528Y-30490500D01*
X25012472Y-30490500D01*
X25012475Y-30490500D01*
X25152485Y-30452984D01*
X25278015Y-30380509D01*
X25330999Y-30327525D01*
X30249500Y-30327525D01*
X30249500Y-30472475D01*
X30287016Y-30612485D01*
X30287017Y-30612488D01*
X30359488Y-30738011D01*
X30359490Y-30738013D01*
X30359491Y-30738015D01*
X30461985Y-30840509D01*
X30461986Y-30840510D01*
X30461988Y-30840511D01*
X30587511Y-30912982D01*
X30587512Y-30912982D01*
X30587515Y-30912984D01*
X30727525Y-30950500D01*
X30727528Y-30950500D01*
X30872472Y-30950500D01*
X30872475Y-30950500D01*
X31012485Y-30912984D01*
X31138015Y-30840509D01*
X31240509Y-30738015D01*
X31312984Y-30612485D01*
X31350500Y-30472475D01*
X31350500Y-30327525D01*
X31312984Y-30187515D01*
X31292759Y-30152485D01*
X31240511Y-30061988D01*
X31240506Y-30061982D01*
X31138017Y-29959493D01*
X31138011Y-29959488D01*
X31012488Y-29887017D01*
X31012489Y-29887017D01*
X31001006Y-29883940D01*
X30872475Y-29849500D01*
X30727525Y-29849500D01*
X30598993Y-29883940D01*
X30587511Y-29887017D01*
X30461988Y-29959488D01*
X30461982Y-29959493D01*
X30359493Y-30061982D01*
X30359488Y-30061988D01*
X30287017Y-30187511D01*
X30287016Y-30187515D01*
X30249500Y-30327525D01*
X25330999Y-30327525D01*
X25380509Y-30278015D01*
X25452984Y-30152485D01*
X25490500Y-30012475D01*
X25490500Y-29867525D01*
X25452984Y-29727515D01*
X25380509Y-29601985D01*
X25278015Y-29499491D01*
X25278013Y-29499490D01*
X25278011Y-29499488D01*
X25152488Y-29427017D01*
X25152489Y-29427017D01*
X25141006Y-29423940D01*
X25012475Y-29389500D01*
X24867525Y-29389500D01*
X24738993Y-29423940D01*
X24727511Y-29427017D01*
X24601988Y-29499488D01*
X24601982Y-29499493D01*
X24499493Y-29601982D01*
X24499488Y-29601988D01*
X24427017Y-29727511D01*
X24427016Y-29727515D01*
X24389500Y-29867525D01*
X20500500Y-29867525D01*
X20500500Y-25913389D01*
X33899500Y-25913389D01*
X33899500Y-26086611D01*
X33926598Y-26257701D01*
X33980127Y-26422445D01*
X34058768Y-26576788D01*
X34160586Y-26716928D01*
X34283072Y-26839414D01*
X34423212Y-26941232D01*
X34577555Y-27019873D01*
X34742299Y-27073402D01*
X34913389Y-27100500D01*
X34913390Y-27100500D01*
X35086610Y-27100500D01*
X35086611Y-27100500D01*
X35257701Y-27073402D01*
X35422445Y-27019873D01*
X35576788Y-26941232D01*
X35716928Y-26839414D01*
X35839414Y-26716928D01*
X35941232Y-26576788D01*
X36019873Y-26422445D01*
X36073402Y-26257701D01*
X36100500Y-26086611D01*
X36100500Y-25913389D01*
X36439500Y-25913389D01*
X36439500Y-26086611D01*
X36466598Y-26257701D01*
X36520127Y-26422445D01*
X36598768Y-26576788D01*
X36700586Y-26716928D01*
X36823072Y-26839414D01*
X36963212Y-26941232D01*
X37117555Y-27019873D01*
X37282299Y-27073402D01*
X37453389Y-27100500D01*
X37453390Y-27100500D01*
X37626610Y-27100500D01*
X37626611Y-27100500D01*
X37797701Y-27073402D01*
X37962445Y-27019873D01*
X38116788Y-26941232D01*
X38256928Y-26839414D01*
X38379414Y-26716928D01*
X38481232Y-26576788D01*
X38559873Y-26422445D01*
X38613402Y-26257701D01*
X38640500Y-26086611D01*
X38640500Y-25913389D01*
X38614622Y-25750000D01*
X39059157Y-25750000D01*
X39646988Y-25750000D01*
X39614075Y-25807007D01*
X39580000Y-25934174D01*
X39580000Y-26065826D01*
X39614075Y-26192993D01*
X39646988Y-26250000D01*
X39059157Y-26250000D01*
X39070350Y-26306274D01*
X39070351Y-26306276D01*
X39149500Y-26497358D01*
X39149505Y-26497368D01*
X39264410Y-26669335D01*
X39264413Y-26669339D01*
X39410660Y-26815586D01*
X39410664Y-26815589D01*
X39582631Y-26930494D01*
X39582641Y-26930499D01*
X39773723Y-27009648D01*
X39773725Y-27009649D01*
X39830000Y-27020842D01*
X39830000Y-26433012D01*
X39887007Y-26465925D01*
X40014174Y-26500000D01*
X40145826Y-26500000D01*
X40272993Y-26465925D01*
X40330000Y-26433012D01*
X40330000Y-27020842D01*
X40386274Y-27009649D01*
X40386276Y-27009648D01*
X40577358Y-26930499D01*
X40577368Y-26930494D01*
X40749335Y-26815589D01*
X40749339Y-26815586D01*
X40895586Y-26669339D01*
X40895589Y-26669335D01*
X41010494Y-26497368D01*
X41010499Y-26497358D01*
X41089648Y-26306276D01*
X41089649Y-26306274D01*
X41100843Y-26250000D01*
X40513012Y-26250000D01*
X40545925Y-26192993D01*
X40580000Y-26065826D01*
X40580000Y-25934174D01*
X40545925Y-25807007D01*
X40513012Y-25750000D01*
X41100843Y-25750000D01*
X41089649Y-25693725D01*
X41089648Y-25693723D01*
X41010499Y-25502641D01*
X41010494Y-25502631D01*
X40895589Y-25330664D01*
X40895586Y-25330660D01*
X40749339Y-25184413D01*
X40749335Y-25184410D01*
X40577368Y-25069505D01*
X40577358Y-25069500D01*
X40386272Y-24990349D01*
X40386267Y-24990347D01*
X40330000Y-24979155D01*
X40330000Y-25566988D01*
X40272993Y-25534075D01*
X40145826Y-25500000D01*
X40014174Y-25500000D01*
X39887007Y-25534075D01*
X39830000Y-25566988D01*
X39830000Y-24979156D01*
X39829999Y-24979155D01*
X39773732Y-24990347D01*
X39773727Y-24990349D01*
X39582641Y-25069500D01*
X39582631Y-25069505D01*
X39410664Y-25184410D01*
X39410660Y-25184413D01*
X39264413Y-25330660D01*
X39264410Y-25330664D01*
X39149505Y-25502631D01*
X39149500Y-25502641D01*
X39070351Y-25693723D01*
X39070350Y-25693725D01*
X39059157Y-25750000D01*
X38614622Y-25750000D01*
X38613402Y-25742299D01*
X38559873Y-25577555D01*
X38481232Y-25423212D01*
X38379414Y-25283072D01*
X38256928Y-25160586D01*
X38116788Y-25058768D01*
X37962445Y-24980127D01*
X37797701Y-24926598D01*
X37797699Y-24926597D01*
X37797698Y-24926597D01*
X37666271Y-24905781D01*
X37626611Y-24899500D01*
X37453389Y-24899500D01*
X37413728Y-24905781D01*
X37282302Y-24926597D01*
X37282299Y-24926598D01*
X37120547Y-24979155D01*
X37117552Y-24980128D01*
X36963211Y-25058768D01*
X36883256Y-25116859D01*
X36823072Y-25160586D01*
X36823070Y-25160588D01*
X36823069Y-25160588D01*
X36700588Y-25283069D01*
X36700588Y-25283070D01*
X36700586Y-25283072D01*
X36666011Y-25330660D01*
X36598768Y-25423211D01*
X36520128Y-25577552D01*
X36466597Y-25742302D01*
X36456349Y-25807007D01*
X36439500Y-25913389D01*
X36100500Y-25913389D01*
X36073402Y-25742299D01*
X36019873Y-25577555D01*
X35941232Y-25423212D01*
X35839414Y-25283072D01*
X35716928Y-25160586D01*
X35576788Y-25058768D01*
X35422445Y-24980127D01*
X35257701Y-24926598D01*
X35257699Y-24926597D01*
X35257698Y-24926597D01*
X35126271Y-24905781D01*
X35086611Y-24899500D01*
X34913389Y-24899500D01*
X34873728Y-24905781D01*
X34742302Y-24926597D01*
X34742299Y-24926598D01*
X34580547Y-24979155D01*
X34577552Y-24980128D01*
X34423211Y-25058768D01*
X34343256Y-25116859D01*
X34283072Y-25160586D01*
X34283070Y-25160588D01*
X34283069Y-25160588D01*
X34160588Y-25283069D01*
X34160588Y-25283070D01*
X34160586Y-25283072D01*
X34126011Y-25330660D01*
X34058768Y-25423211D01*
X33980128Y-25577552D01*
X33926597Y-25742302D01*
X33916349Y-25807007D01*
X33899500Y-25913389D01*
X20500500Y-25913389D01*
X20500500Y-23378711D01*
X21649500Y-23378711D01*
X21649500Y-23621288D01*
X21681161Y-23861785D01*
X21743947Y-24096104D01*
X21828160Y-24299411D01*
X21836776Y-24320212D01*
X21958064Y-24530289D01*
X21958066Y-24530292D01*
X21958067Y-24530293D01*
X22105733Y-24722736D01*
X22105739Y-24722743D01*
X22277256Y-24894260D01*
X22277262Y-24894265D01*
X22469711Y-25041936D01*
X22679788Y-25163224D01*
X22903900Y-25256054D01*
X23138211Y-25318838D01*
X23318586Y-25342584D01*
X23378711Y-25350500D01*
X23378712Y-25350500D01*
X23621289Y-25350500D01*
X23669388Y-25344167D01*
X23861789Y-25318838D01*
X24096100Y-25256054D01*
X24320212Y-25163224D01*
X24530289Y-25041936D01*
X24722738Y-24894265D01*
X24894265Y-24722738D01*
X25041936Y-24530289D01*
X25163224Y-24320212D01*
X25256054Y-24096100D01*
X25318838Y-23861789D01*
X25350500Y-23621288D01*
X25350500Y-23378712D01*
X25349799Y-23373389D01*
X33899500Y-23373389D01*
X33899500Y-23546611D01*
X33926598Y-23717701D01*
X33980127Y-23882445D01*
X34058768Y-24036788D01*
X34160586Y-24176928D01*
X34283072Y-24299414D01*
X34423212Y-24401232D01*
X34577555Y-24479873D01*
X34742299Y-24533402D01*
X34913389Y-24560500D01*
X34913390Y-24560500D01*
X35086610Y-24560500D01*
X35086611Y-24560500D01*
X35257701Y-24533402D01*
X35422445Y-24479873D01*
X35576788Y-24401232D01*
X35716928Y-24299414D01*
X35839414Y-24176928D01*
X35941232Y-24036788D01*
X36019873Y-23882445D01*
X36073402Y-23717701D01*
X36100500Y-23546611D01*
X36100500Y-23373389D01*
X36439500Y-23373389D01*
X36439500Y-23546611D01*
X36466598Y-23717701D01*
X36520127Y-23882445D01*
X36598768Y-24036788D01*
X36700586Y-24176928D01*
X36823072Y-24299414D01*
X36963212Y-24401232D01*
X37117555Y-24479873D01*
X37282299Y-24533402D01*
X37453389Y-24560500D01*
X37453390Y-24560500D01*
X37626610Y-24560500D01*
X37626611Y-24560500D01*
X37797701Y-24533402D01*
X37962445Y-24479873D01*
X38116788Y-24401232D01*
X38256928Y-24299414D01*
X38379414Y-24176928D01*
X38481232Y-24036788D01*
X38559873Y-23882445D01*
X38613402Y-23717701D01*
X38640500Y-23546611D01*
X38640500Y-23373389D01*
X38613402Y-23202299D01*
X38559873Y-23037555D01*
X38481232Y-22883212D01*
X38379414Y-22743072D01*
X38256928Y-22620586D01*
X38116788Y-22518768D01*
X37962445Y-22440127D01*
X37797701Y-22386598D01*
X37797699Y-22386597D01*
X37797698Y-22386597D01*
X37666271Y-22365781D01*
X37626611Y-22359500D01*
X37453389Y-22359500D01*
X37413728Y-22365781D01*
X37282302Y-22386597D01*
X37117552Y-22440128D01*
X36963211Y-22518768D01*
X36941491Y-22534549D01*
X36823072Y-22620586D01*
X36823070Y-22620588D01*
X36823069Y-22620588D01*
X36700588Y-22743069D01*
X36700588Y-22743070D01*
X36700586Y-22743072D01*
X36670452Y-22784548D01*
X36598768Y-22883211D01*
X36520128Y-23037552D01*
X36466597Y-23202302D01*
X36439500Y-23373389D01*
X36100500Y-23373389D01*
X36073402Y-23202299D01*
X36019873Y-23037555D01*
X35941232Y-22883212D01*
X35839414Y-22743072D01*
X35716928Y-22620586D01*
X35576788Y-22518768D01*
X35422445Y-22440127D01*
X35257701Y-22386598D01*
X35257699Y-22386597D01*
X35257698Y-22386597D01*
X35126271Y-22365781D01*
X35086611Y-22359500D01*
X34913389Y-22359500D01*
X34873728Y-22365781D01*
X34742302Y-22386597D01*
X34577552Y-22440128D01*
X34423211Y-22518768D01*
X34401491Y-22534549D01*
X34283072Y-22620586D01*
X34283070Y-22620588D01*
X34283069Y-22620588D01*
X34160588Y-22743069D01*
X34160588Y-22743070D01*
X34160586Y-22743072D01*
X34130452Y-22784548D01*
X34058768Y-22883211D01*
X33980128Y-23037552D01*
X33926597Y-23202302D01*
X33899500Y-23373389D01*
X25349799Y-23373389D01*
X25318838Y-23138211D01*
X25256054Y-22903900D01*
X25163224Y-22679788D01*
X25041936Y-22469711D01*
X24921730Y-22313055D01*
X24894266Y-22277263D01*
X24894260Y-22277256D01*
X24722743Y-22105739D01*
X24722736Y-22105733D01*
X24530293Y-21958067D01*
X24530292Y-21958066D01*
X24530289Y-21958064D01*
X24320212Y-21836776D01*
X24308711Y-21832012D01*
X24096104Y-21743947D01*
X23861785Y-21681161D01*
X23621289Y-21649500D01*
X23621288Y-21649500D01*
X23378712Y-21649500D01*
X23378711Y-21649500D01*
X23138214Y-21681161D01*
X22903895Y-21743947D01*
X22679794Y-21836773D01*
X22679785Y-21836777D01*
X22469706Y-21958067D01*
X22277263Y-22105733D01*
X22277256Y-22105739D01*
X22105739Y-22277256D01*
X22105733Y-22277263D01*
X21958067Y-22469706D01*
X21836777Y-22679785D01*
X21836773Y-22679794D01*
X21743947Y-22903895D01*
X21681161Y-23138214D01*
X21649500Y-23378711D01*
X20500500Y-23378711D01*
X20500500Y-23003750D01*
X20500726Y-22996263D01*
X20518271Y-22706205D01*
X20520076Y-22691340D01*
X20520356Y-22689815D01*
X20571780Y-22409198D01*
X20575364Y-22394664D01*
X20660699Y-22120812D01*
X20665997Y-22106842D01*
X20783727Y-21845258D01*
X20790680Y-21832012D01*
X20881872Y-21681161D01*
X20939075Y-21586534D01*
X20947567Y-21574230D01*
X21124481Y-21348417D01*
X21134396Y-21337226D01*
X21337226Y-21134396D01*
X21348417Y-21124481D01*
X21574230Y-20947567D01*
X21586534Y-20939075D01*
X21832012Y-20790680D01*
X21845258Y-20783727D01*
X22106842Y-20665997D01*
X22120812Y-20660699D01*
X22394668Y-20575362D01*
X22409198Y-20571780D01*
X22691344Y-20520075D01*
X22706201Y-20518271D01*
X22996264Y-20500726D01*
X23003751Y-20500500D01*
X23065892Y-20500500D01*
X66934108Y-20500500D01*
X66996249Y-20500500D01*
X67003736Y-20500726D01*
G37*
%TD.AperFunction*%
%TD*%
M02*
