%TF.GenerationSoftware,KiCad,Pcbnew,10.0.0*%
%TF.CreationDate,2026-03-29T12:23:08+01:00*%
%TF.ProjectId,Comms,436f6d6d-732e-46b6-9963-61645f706362,rev?*%
%TF.SameCoordinates,Original*%
%TF.FileFunction,Paste,Top*%
%TF.FilePolarity,Positive*%
%FSLAX46Y46*%
G04 Gerber Fmt 4.6, Leading zero omitted, Abs format (unit mm)*
G04 Created by KiCad (PCBNEW 10.0.0) date 2026-03-29 12:23:08*
%MOMM*%
%LPD*%
G01*
G04 APERTURE LIST*
G04 Aperture macros list*
%AMRoundRect*
0 Rectangle with rounded corners*
0 $1 Rounding radius*
0 $2 $3 $4 $5 $6 $7 $8 $9 X,Y pos of 4 corners*
0 Add a 4 corners polygon primitive as box body*
4,1,4,$2,$3,$4,$5,$6,$7,$8,$9,$2,$3,0*
0 Add four circle primitives for the rounded corners*
1,1,$1+$1,$2,$3*
1,1,$1+$1,$4,$5*
1,1,$1+$1,$6,$7*
1,1,$1+$1,$8,$9*
0 Add four rect primitives between the rounded corners*
20,1,$1+$1,$2,$3,$4,$5,0*
20,1,$1+$1,$4,$5,$6,$7,0*
20,1,$1+$1,$6,$7,$8,$9,0*
20,1,$1+$1,$8,$9,$2,$3,0*%
G04 Aperture macros list end*
%ADD10RoundRect,0.087500X-0.087500X0.662500X-0.087500X-0.662500X0.087500X-0.662500X0.087500X0.662500X0*%
%ADD11RoundRect,0.250000X-0.325000X-0.650000X0.325000X-0.650000X0.325000X0.650000X-0.325000X0.650000X0*%
%ADD12RoundRect,0.150000X-0.150000X0.587500X-0.150000X-0.587500X0.150000X-0.587500X0.150000X0.587500X0*%
%ADD13RoundRect,0.200000X0.200000X0.275000X-0.200000X0.275000X-0.200000X-0.275000X0.200000X-0.275000X0*%
%ADD14RoundRect,0.200000X-0.275000X0.200000X-0.275000X-0.200000X0.275000X-0.200000X0.275000X0.200000X0*%
%ADD15RoundRect,0.225000X-0.225000X-0.250000X0.225000X-0.250000X0.225000X0.250000X-0.225000X0.250000X0*%
%ADD16RoundRect,0.225000X0.225000X0.250000X-0.225000X0.250000X-0.225000X-0.250000X0.225000X-0.250000X0*%
%ADD17RoundRect,0.200000X0.275000X-0.200000X0.275000X0.200000X-0.275000X0.200000X-0.275000X-0.200000X0*%
%ADD18RoundRect,0.150000X-0.150000X-0.400000X0.150000X-0.400000X0.150000X0.400000X-0.150000X0.400000X0*%
%ADD19RoundRect,0.225000X0.250000X-0.225000X0.250000X0.225000X-0.250000X0.225000X-0.250000X-0.225000X0*%
%ADD20RoundRect,0.050000X-0.285000X-0.100000X0.285000X-0.100000X0.285000X0.100000X-0.285000X0.100000X0*%
%ADD21R,3.050000X3.400000*%
%ADD22R,4.500000X2.400000*%
%ADD23RoundRect,0.150000X0.650000X0.350000X-0.650000X0.350000X-0.650000X-0.350000X0.650000X-0.350000X0*%
%ADD24R,0.900000X1.500000*%
%ADD25R,1.300000X1.300000*%
%ADD26R,1.500000X0.900000*%
G04 APERTURE END LIST*
D10*
%TO.C,U1*%
X44800000Y-43010000D03*
X44300000Y-43010000D03*
X43800000Y-43010000D03*
X43300000Y-43010000D03*
X42800000Y-43010000D03*
X42800000Y-47210000D03*
X43300000Y-47210000D03*
X43800000Y-47210000D03*
X44300000Y-47210000D03*
X44800000Y-47210000D03*
%TD*%
D11*
%TO.C,C3*%
X55040000Y-47535000D03*
X57990000Y-47535000D03*
%TD*%
D12*
%TO.C,D6*%
X36350000Y-32235000D03*
X34450000Y-32235000D03*
X35400000Y-34110000D03*
%TD*%
D13*
%TO.C,R3*%
X33225000Y-30400000D03*
X31575000Y-30400000D03*
%TD*%
D14*
%TO.C,R5*%
X61600000Y-51985000D03*
X61600000Y-53635000D03*
%TD*%
D15*
%TO.C,C1*%
X46146250Y-47710000D03*
X47696250Y-47710000D03*
%TD*%
D16*
%TO.C,C2*%
X32700000Y-34385000D03*
X31150000Y-34385000D03*
%TD*%
D17*
%TO.C,R4*%
X61600000Y-59635000D03*
X61600000Y-57985000D03*
%TD*%
D18*
%TO.C,Y1*%
X43850000Y-40760000D03*
X45250000Y-40760000D03*
%TD*%
D13*
%TO.C,R2*%
X36225000Y-30400000D03*
X34575000Y-30400000D03*
%TD*%
D19*
%TO.C,C5*%
X51752500Y-48132500D03*
X51752500Y-46582500D03*
%TD*%
%TO.C,C4*%
X53340000Y-48132500D03*
X53340000Y-46582500D03*
%TD*%
D13*
%TO.C,R1*%
X39225000Y-30400000D03*
X37575000Y-30400000D03*
%TD*%
D20*
%TO.C,U2*%
X31385000Y-35785000D03*
X31385000Y-36285000D03*
X31385000Y-36785000D03*
X31385000Y-37285000D03*
X32865000Y-37285000D03*
X32865000Y-36785000D03*
X32865000Y-36285000D03*
X32865000Y-35785000D03*
%TD*%
D19*
%TO.C,C6*%
X61600000Y-56585000D03*
X61600000Y-55035000D03*
%TD*%
D21*
%TO.C,BT1*%
X45800000Y-37510000D03*
D22*
X66900000Y-37510000D03*
%TD*%
D23*
%TO.C,SW1*%
X59700000Y-57410000D03*
X57300000Y-54910000D03*
X59700000Y-52410000D03*
%TD*%
D24*
%TO.C,U3*%
X53060000Y-50000000D03*
X51790000Y-50000000D03*
X50520000Y-50000000D03*
X49250000Y-50000000D03*
X47980000Y-50000000D03*
X46710000Y-50000000D03*
X45440000Y-50000000D03*
X44170000Y-50000000D03*
X42900000Y-50000000D03*
X41630000Y-50000000D03*
X40360000Y-50000000D03*
X39090000Y-50000000D03*
X37820000Y-50000000D03*
X36550000Y-50000000D03*
X36550000Y-67500000D03*
X37820000Y-67500000D03*
X39090000Y-67500000D03*
X40360000Y-67500000D03*
X41630000Y-67500000D03*
X42900000Y-67500000D03*
X44170000Y-67500000D03*
X45440000Y-67500000D03*
X46710000Y-67500000D03*
X47980000Y-67500000D03*
X49250000Y-67500000D03*
X50520000Y-67500000D03*
X51790000Y-67500000D03*
X53060000Y-67500000D03*
D25*
X46172000Y-57879800D03*
X44472000Y-57879800D03*
X42772000Y-57879800D03*
X46172000Y-59579800D03*
X44472000Y-59579800D03*
X42772000Y-59579800D03*
X46172000Y-61279800D03*
X44472000Y-61279800D03*
X42772000Y-61279800D03*
D26*
X54500000Y-62750000D03*
X54500000Y-61480000D03*
X54500000Y-60210000D03*
%TD*%
M02*
