M48
; DRILL file KiCad 10.0.3 date 2026-06-27T21:18:16
; FORMAT={-:-/ absolute / metric / decimal}
; #@! TF.CreationDate,2026-06-27T21:18:16+01:00
; #@! TF.GenerationSoftware,Kicad,Pcbnew,10.0.3
; #@! TF.FileFunction,Plated,1,4,PTH
FMAT,2
METRIC
; #@! TA.AperFunction,Plated,PTH,ViaDrill
T1C0.300
; #@! TA.AperFunction,Plated,PTH,ComponentDrill
T2C1.000
; #@! TA.AperFunction,Plated,PTH,ComponentDrill
T3C1.900
%
G90
G05
T1
X21.325Y-30.135
X21.325Y-32.675
X21.325Y-37.755
X21.325Y-40.295
X21.325Y-98.715
X21.325Y-106.335
X21.844Y-48.2
X23.865Y-42.835
X23.865Y-60.615
X23.865Y-68.235
X23.865Y-75.855
X23.865Y-83.475
X23.865Y-111.415
X26.405Y-30.135
X26.405Y-32.675
X26.405Y-37.755
X27.305Y-83.21
X27.94Y-82.448
X28.702Y-76.987
X28.945Y-37.755
X28.945Y-42.835
X28.945Y-58.075
X28.945Y-65.695
X28.945Y-73.315
X28.945Y-106.335
X29.21Y-50.038
X29.464Y-77.241
X29.8Y-98.8
X29.8Y-99.7
X29.8Y-100.6
X29.8Y-101.5
X29.8Y-102.362
X29.8Y-103.2
X30.226Y-82.448
X30.582Y-60.554
X31.485Y-35.215
X31.485Y-42.835
X31.485Y-47.915
X31.496Y-105.918
X31.55Y-54.86
X31.75Y-85.0
X31.75Y-90.1
X32.2Y-97.7
X32.893Y-111.379
X33.274Y-86.741
X34.025Y-40.295
X34.025Y-52.995
X34.025Y-60.615
X34.025Y-68.235
X34.025Y-93.635
X34.036Y-86.106
X34.163Y-111.379
X34.4Y-76.7
X34.4Y-77.5
X34.417Y-73.5
X34.417Y-74.3
X34.417Y-75.1
X35.1Y-47.15
X35.306Y-96.953
X35.433Y-101.854
X35.56Y-105.918
X35.688Y-60.347
X35.688Y-61.147
X35.688Y-61.947
X36.1Y-91.0
X36.565Y-30.135
X36.565Y-32.675
X36.565Y-37.755
X36.565Y-86.015
X36.587Y-60.347
X36.587Y-61.147
X36.587Y-61.947
X36.6Y-92.6
X36.703Y-91.694
X36.957Y-72.843
X37.05Y-59.06
X37.25Y-69.75
X37.8Y-68.399
X37.846Y-103.378
X38.025Y-50.038
X38.6Y-102.6
X38.8Y-69.75
X39.105Y-37.755
X39.105Y-73.315
X39.105Y-96.175
X39.129Y-91.965
X39.37Y-89.662
X39.37Y-103.378
X39.419Y-108.704
X39.419Y-107.704
X39.75Y-60.96
X39.75Y-69.75
X39.757Y-66.895
X39.85Y-53.16
X39.85Y-55.56
X39.878Y-88.138
X39.975Y-49.1
X40.005Y-85.979
X40.259Y-108.077
X40.386Y-107.188
X40.637Y-44.65
X40.64Y-110.998
X40.759Y-66.805
X41.097Y-90.43
X41.097Y-91.431
X41.148Y-80.899
X41.148Y-95.758
X41.275Y-85.979
X41.45Y-59.06
X41.645Y-30.135
X41.645Y-32.675
X41.645Y-40.295
X41.9Y-102.6
X41.91Y-72.771
X41.91Y-81.407
X41.925Y-51.308
X42.0Y-69.75
X42.291Y-74.295
X42.45Y-61.976
X42.672Y-95.758
X42.799Y-72.517
X43.815Y-109.474
X44.069Y-55.143
X44.185Y-40.295
X44.185Y-52.995
X44.185Y-65.695
X44.185Y-106.335
X44.831Y-93.218
X44.831Y-97.282
X44.958Y-102.183
X45.5Y-108.6
X45.593Y-72.7
X45.593Y-73.5
X45.593Y-75.057
X45.593Y-76.7
X45.593Y-77.5
X45.593Y-78.3
X45.72Y-87.503
X46.609Y-78.994
X46.675Y-111.45
X46.725Y-35.215
X46.725Y-42.835
X46.725Y-47.915
X46.725Y-58.075
X46.725Y-70.775
X46.725Y-80.935
X47.244Y-105.13
X47.498Y-87.503
X48.133Y-71.882
X48.7Y-93.218
X48.75Y-50.038
X49.022Y-85.0
X49.25Y-51.308
X49.265Y-32.675
X49.265Y-42.835
X49.265Y-63.155
X49.784Y-82.575
X49.975Y-111.325
X50.0Y-102.9
X50.1Y-101.4
X50.2Y-95.4
X50.2Y-96.5
X50.2Y-97.6
X50.2Y-98.7
X50.2Y-99.8
X50.546Y-77.241
X51.308Y-76.987
X51.308Y-94.488
X51.805Y-30.135
X51.805Y-37.755
X51.805Y-108.875
X52.05Y-68.875
X52.07Y-82.575
X52.5Y-72.5
X52.705Y-83.21
X54.345Y-30.135
X54.345Y-37.755
X54.345Y-42.835
X54.345Y-60.615
X54.345Y-68.235
X54.345Y-75.855
X54.345Y-83.475
X56.885Y-32.675
X56.885Y-42.835
X56.885Y-111.415
X57.785Y-53.467
T2
X23.675Y-29.5
X23.675Y-40.5
X24.13Y-47.92
X24.13Y-50.46
X24.13Y-53.0
X24.13Y-55.54
X24.13Y-58.08
X24.13Y-88.678
X24.13Y-91.218
X24.13Y-93.758
X24.13Y-96.298
X24.13Y-98.838
X24.13Y-101.378
X24.13Y-103.918
X24.13Y-106.458
X26.67Y-47.92
X26.67Y-50.46
X26.67Y-53.0
X26.67Y-55.54
X26.67Y-58.08
X26.67Y-88.678
X26.67Y-91.218
X26.67Y-93.758
X26.67Y-96.298
X26.67Y-98.838
X26.67Y-101.378
X26.67Y-103.918
X26.67Y-106.458
X50.0Y-29.5
X50.0Y-40.5
X53.34Y-47.92
X53.34Y-50.46
X53.34Y-53.0
X53.34Y-55.54
X53.34Y-58.08
X53.34Y-88.678
X53.34Y-91.218
X53.34Y-93.758
X53.34Y-96.298
X53.34Y-98.838
X53.34Y-101.378
X53.34Y-103.918
X53.34Y-106.458
X55.88Y-47.92
X55.88Y-50.46
X55.88Y-53.0
X55.88Y-55.54
X55.88Y-58.08
X55.88Y-88.678
X55.88Y-91.218
X55.88Y-93.758
X55.88Y-96.298
X55.88Y-98.838
X55.88Y-101.378
X55.88Y-103.918
X55.88Y-106.458
T3
X33.675Y-32.5
X33.675Y-37.5
X45.0Y-32.5
X45.0Y-37.5
M30
