%TF.GenerationSoftware,KiCad,Pcbnew,9.0.6*%
%TF.CreationDate,2026-02-24T16:19:26+00:00*%
%TF.ProjectId,Backplane,4261636b-706c-4616-9e65-2e6b69636164,rev?*%
%TF.SameCoordinates,Original*%
%TF.FileFunction,Copper,L4,Bot*%
%TF.FilePolarity,Positive*%
%FSLAX46Y46*%
G04 Gerber Fmt 4.6, Leading zero omitted, Abs format (unit mm)*
G04 Created by KiCad (PCBNEW 9.0.6) date 2026-02-24 16:19:26*
%MOMM*%
%LPD*%
G01*
G04 APERTURE LIST*
G04 Aperture macros list*
%AMRoundRect*
0 Rectangle with rounded corners*
0 $1 Rounding radius*
0 $2 $3 $4 $5 $6 $7 $8 $9 X,Y pos of 4 corners*
0 Add a 4 corners polygon primitive as box body*
4,1,4,$2,$3,$4,$5,$6,$7,$8,$9,$2,$3,0*
0 Add four circle primitives for the rounded corners*
1,1,$1+$1,$2,$3*
1,1,$1+$1,$4,$5*
1,1,$1+$1,$6,$7*
1,1,$1+$1,$8,$9*
0 Add four rect primitives between the rounded corners*
20,1,$1+$1,$2,$3,$4,$5,0*
20,1,$1+$1,$4,$5,$6,$7,0*
20,1,$1+$1,$6,$7,$8,$9,0*
20,1,$1+$1,$8,$9,$2,$3,0*%
G04 Aperture macros list end*
%TA.AperFunction,ComponentPad*%
%ADD10R,1.700000X1.700000*%
%TD*%
%TA.AperFunction,ComponentPad*%
%ADD11O,1.700000X1.700000*%
%TD*%
%TA.AperFunction,ComponentPad*%
%ADD12C,1.400000*%
%TD*%
%TA.AperFunction,ComponentPad*%
%ADD13RoundRect,0.770000X0.980000X-0.980000X0.980000X0.980000X-0.980000X0.980000X-0.980000X-0.980000X0*%
%TD*%
%TA.AperFunction,ComponentPad*%
%ADD14C,3.500000*%
%TD*%
%TA.AperFunction,ComponentPad*%
%ADD15RoundRect,0.770000X-0.980000X0.980000X-0.980000X-0.980000X0.980000X-0.980000X0.980000X0.980000X0*%
%TD*%
%TA.AperFunction,ViaPad*%
%ADD16C,0.600000*%
%TD*%
%TA.AperFunction,Conductor*%
%ADD17C,0.400000*%
%TD*%
G04 APERTURE END LIST*
D10*
%TO.P,J4,1,Pin_1*%
%TO.N,GND*%
X26670000Y-58080000D03*
D11*
%TO.P,J4,2,Pin_2*%
X24130000Y-58080000D03*
%TO.P,J4,3,Pin_3*%
%TO.N,B*%
X26670000Y-55540000D03*
%TO.P,J4,4,Pin_4*%
%TO.N,A*%
X24130000Y-55540000D03*
%TO.P,J4,5,Pin_5*%
%TO.N,GND*%
X26670000Y-53000000D03*
%TO.P,J4,6,Pin_6*%
X24130000Y-53000000D03*
%TO.P,J4,7,Pin_7*%
%TO.N,CANL*%
X26670000Y-50460000D03*
%TO.P,J4,8,Pin_8*%
%TO.N,CANH*%
X24130000Y-50460000D03*
%TO.P,J4,9,Pin_9*%
%TO.N,GND*%
X26670000Y-47920000D03*
%TO.P,J4,10,Pin_10*%
X24130000Y-47920000D03*
%TD*%
D10*
%TO.P,J2,1,Pin_1*%
%TO.N,FRONT-VDD*%
X26670000Y-106458000D03*
D11*
%TO.P,J2,2,Pin_2*%
%TO.N,GND*%
X24130000Y-106458000D03*
%TO.P,J2,3,Pin_3*%
%TO.N,FRONT-VDD*%
X26670000Y-103918000D03*
%TO.P,J2,4,Pin_4*%
%TO.N,GND*%
X24130000Y-103918000D03*
%TO.P,J2,5,Pin_5*%
%TO.N,FRONT-BOOT*%
X26670000Y-101378000D03*
%TO.P,J2,6,Pin_6*%
%TO.N,FRONT-UART-RX*%
X24130000Y-101378000D03*
%TO.P,J2,7,Pin_7*%
%TO.N,FRONT-UART-TX*%
X26670000Y-98838000D03*
%TO.P,J2,8,Pin_8*%
%TO.N,GND*%
X24130000Y-98838000D03*
%TO.P,J2,9,Pin_9*%
%TO.N,CANL*%
X26670000Y-96298000D03*
%TO.P,J2,10,Pin_10*%
%TO.N,CANH*%
X24130000Y-96298000D03*
%TO.P,J2,11,Pin_11*%
%TO.N,FRONT-MODULE-DETECT*%
X26670000Y-93758000D03*
%TO.P,J2,12,Pin_12*%
%TO.N,unconnected-(J2-Pin_12-Pad12)*%
X24130000Y-93758000D03*
%TO.P,J2,13,Pin_13*%
%TO.N,unconnected-(J2-Pin_13-Pad13)*%
X26670000Y-91218000D03*
%TO.P,J2,14,Pin_14*%
%TO.N,unconnected-(J2-Pin_14-Pad14)*%
X24130000Y-91218000D03*
%TO.P,J2,15,Pin_15*%
%TO.N,unconnected-(J2-Pin_15-Pad15)*%
X26670000Y-88678000D03*
%TO.P,J2,16,Pin_16*%
%TO.N,GND*%
X24130000Y-88678000D03*
%TD*%
D12*
%TO.P,J6,*%
%TO.N,*%
X23675000Y-40500000D03*
X23675000Y-29500000D03*
D13*
%TO.P,J6,1,Pin_1*%
%TO.N,GND*%
X33675000Y-32500000D03*
D14*
%TO.P,J6,2,Pin_2*%
%TO.N,VDD*%
X33675000Y-37500000D03*
%TD*%
D12*
%TO.P,J7,*%
%TO.N,*%
X50000000Y-29500000D03*
X50000000Y-40500000D03*
D15*
%TO.P,J7,1,Pin_1*%
%TO.N,GND*%
X45000000Y-32500000D03*
D14*
%TO.P,J7,2,Pin_2*%
%TO.N,VDD*%
X45000000Y-37500000D03*
%TD*%
D10*
%TO.P,J3,1,Pin_1*%
%TO.N,REAR-VDD*%
X53340000Y-88678000D03*
D11*
%TO.P,J3,2,Pin_2*%
%TO.N,GND*%
X55880000Y-88678000D03*
%TO.P,J3,3,Pin_3*%
%TO.N,REAR-VDD*%
X53340000Y-91218000D03*
%TO.P,J3,4,Pin_4*%
%TO.N,GND*%
X55880000Y-91218000D03*
%TO.P,J3,5,Pin_5*%
%TO.N,REAR-BOOT*%
X53340000Y-93758000D03*
%TO.P,J3,6,Pin_6*%
%TO.N,REAR-UART-RX*%
X55880000Y-93758000D03*
%TO.P,J3,7,Pin_7*%
%TO.N,REAR-UART-TX*%
X53340000Y-96298000D03*
%TO.P,J3,8,Pin_8*%
%TO.N,GND*%
X55880000Y-96298000D03*
%TO.P,J3,9,Pin_9*%
%TO.N,CANL*%
X53340000Y-98838000D03*
%TO.P,J3,10,Pin_10*%
%TO.N,CANH*%
X55880000Y-98838000D03*
%TO.P,J3,11,Pin_11*%
%TO.N,REAR-MODULE-DETECT*%
X53340000Y-101378000D03*
%TO.P,J3,12,Pin_12*%
%TO.N,unconnected-(J3-Pin_12-Pad12)*%
X55880000Y-101378000D03*
%TO.P,J3,13,Pin_13*%
%TO.N,unconnected-(J3-Pin_13-Pad13)*%
X53340000Y-103918000D03*
%TO.P,J3,14,Pin_14*%
%TO.N,unconnected-(J3-Pin_14-Pad14)*%
X55880000Y-103918000D03*
%TO.P,J3,15,Pin_15*%
%TO.N,unconnected-(J3-Pin_15-Pad15)*%
X53340000Y-106458000D03*
%TO.P,J3,16,Pin_16*%
%TO.N,GND*%
X55880000Y-106458000D03*
%TD*%
D10*
%TO.P,J5,1,Pin_1*%
%TO.N,GND*%
X53340000Y-47920000D03*
D11*
%TO.P,J5,2,Pin_2*%
X55880000Y-47920000D03*
%TO.P,J5,3,Pin_3*%
%TO.N,B*%
X53340000Y-50460000D03*
%TO.P,J5,4,Pin_4*%
%TO.N,A*%
X55880000Y-50460000D03*
%TO.P,J5,5,Pin_5*%
%TO.N,GND*%
X53340000Y-53000000D03*
%TO.P,J5,6,Pin_6*%
X55880000Y-53000000D03*
%TO.P,J5,7,Pin_7*%
%TO.N,CANL*%
X53340000Y-55540000D03*
%TO.P,J5,8,Pin_8*%
%TO.N,CANH*%
X55880000Y-55540000D03*
%TO.P,J5,9,Pin_9*%
%TO.N,GND*%
X53340000Y-58080000D03*
%TO.P,J5,10,Pin_10*%
X55880000Y-58080000D03*
%TD*%
D16*
%TO.N,VDD*%
X29800000Y-100600000D03*
X21325000Y-37755000D03*
X50200000Y-96500000D03*
X36565000Y-37755000D03*
X50200000Y-97600000D03*
X36565000Y-30135000D03*
X21325000Y-30135000D03*
X50200000Y-98700000D03*
X31485000Y-42835000D03*
X36587500Y-60347500D03*
X35687500Y-60347500D03*
X36587500Y-61947500D03*
X41645000Y-40295000D03*
X54345000Y-42835000D03*
X50200000Y-99800000D03*
X36587500Y-61147500D03*
X41645000Y-32675000D03*
X29800000Y-101500000D03*
X35687500Y-61947500D03*
X50200000Y-95400000D03*
X28945000Y-37755000D03*
X46725000Y-42835000D03*
X23865000Y-42835000D03*
X29800000Y-99700000D03*
X51805000Y-30135000D03*
X26405000Y-32675000D03*
X29800000Y-98800000D03*
X35687500Y-61147500D03*
X51805000Y-37755000D03*
X46725000Y-35215000D03*
X56885000Y-32675000D03*
X29800000Y-103200000D03*
X29800000Y-102362000D03*
%TO.N,GND*%
X54345000Y-65695000D03*
X44050000Y-54860000D03*
X34025000Y-93635000D03*
X44185000Y-86015000D03*
X39105000Y-63155000D03*
X51805000Y-60615000D03*
X50100000Y-101400000D03*
X26405000Y-75855000D03*
X39757126Y-66895000D03*
X39150000Y-59760000D03*
X40412500Y-82269500D03*
X46725000Y-111415000D03*
X44958000Y-102183000D03*
X39419281Y-107704055D03*
X44831000Y-97282000D03*
X39750000Y-60960000D03*
X39105000Y-73315000D03*
X35306000Y-81534000D03*
X26405000Y-83475000D03*
X28945000Y-47915000D03*
X37846000Y-103378000D03*
X26405000Y-60615000D03*
X37050000Y-59060000D03*
X39850000Y-53160000D03*
X46725000Y-47915000D03*
X50000000Y-102900000D03*
X44185000Y-52995000D03*
X39850000Y-55560000D03*
X29210000Y-45720000D03*
X28956000Y-72517000D03*
X39878000Y-88138000D03*
X26670000Y-45720000D03*
X40637500Y-44650000D03*
X54345000Y-73315000D03*
X44450000Y-81788000D03*
X46725000Y-58075000D03*
X40640000Y-110998000D03*
X41097470Y-91430662D03*
X35560000Y-105918000D03*
X49265000Y-68235000D03*
X39419254Y-108704027D03*
X35433000Y-101854000D03*
X42672000Y-95758000D03*
X40758985Y-66805000D03*
X35306000Y-96953000D03*
X39105000Y-96175000D03*
X27940000Y-45720000D03*
X37800000Y-68399000D03*
X41645000Y-78395000D03*
X50800000Y-45720000D03*
X39370000Y-89662000D03*
X52070000Y-45720000D03*
X46725000Y-80935000D03*
X31496000Y-105918000D03*
X31485000Y-63155000D03*
X51054000Y-73787000D03*
X39129489Y-91965177D03*
X41450000Y-59060000D03*
X41097037Y-90430216D03*
X44185000Y-106335000D03*
X44185000Y-65695000D03*
X54345000Y-80935000D03*
X32200000Y-97700000D03*
X39370000Y-103378000D03*
X35174000Y-48500000D03*
X41148000Y-95758000D03*
X44831000Y-93218000D03*
X53340000Y-45720000D03*
X26405000Y-68235000D03*
X39750000Y-69400000D03*
X34025000Y-68235000D03*
X31485000Y-52995000D03*
X48700000Y-93218000D03*
X43815000Y-109474000D03*
X47500000Y-85140800D03*
%TO.N,REAR-MODULE-DETECT*%
X51308000Y-94488000D03*
X46228000Y-75692000D03*
%TO.N,REAR-BOOT*%
X46228000Y-74422000D03*
%TO.N,CANH*%
X21844000Y-48200000D03*
X57785000Y-53467000D03*
%TO.N,REAR-UART-TX*%
X46228000Y-71882000D03*
%TO.N,REAR-UART-RX*%
X46228000Y-73152000D03*
%TO.N,FRONT-BOOT*%
X33782000Y-74422000D03*
%TO.N,FRONT-MODULE-DETECT*%
X33782000Y-70612000D03*
%TO.N,FRONT-UART-TX*%
X33782000Y-71882000D03*
%TO.N,FRONT-UART-RX*%
X33782000Y-73152000D03*
%TO.N,FRONT-EFUSE-EN*%
X31750000Y-90100000D03*
X33782000Y-76962000D03*
%TO.N,REAR-EFUSE-EN*%
X46228000Y-78232000D03*
X47244000Y-105130000D03*
%TO.N,FRONT-EFUSE-FLT*%
X32893000Y-111379000D03*
X33782000Y-75692000D03*
%TO.N,REAR-EFUSE-FLT*%
X46228000Y-79502000D03*
X47498000Y-87630000D03*
%TO.N,B*%
X38500000Y-50038000D03*
X48750000Y-50038000D03*
X29210000Y-50038000D03*
%TO.N,A*%
X49250000Y-51308000D03*
X41500000Y-51308000D03*
%TO.N,ICSPDAT*%
X38012524Y-80859475D03*
X40000000Y-85900000D03*
%TO.N,I2CDAT*%
X40259000Y-108077000D03*
X36100000Y-91000000D03*
%TO.N,I2CCLK*%
X40386000Y-107188000D03*
X36703000Y-91694000D03*
%TD*%
D17*
%TO.N,REAR-MODULE-DETECT*%
X49784000Y-77470000D02*
X48006000Y-75692000D01*
X51308000Y-88900000D02*
X49784000Y-87376000D01*
X51308000Y-94488000D02*
X51308000Y-88900000D01*
X49784000Y-87376000D02*
X49784000Y-77470000D01*
X48006000Y-75692000D02*
X46228000Y-75692000D01*
%TO.N,REAR-BOOT*%
X50546000Y-85344000D02*
X50546000Y-76962000D01*
X53340000Y-93758000D02*
X52070000Y-92488000D01*
X52070000Y-88646000D02*
X50546000Y-87122000D01*
X52070000Y-88695000D02*
X52070000Y-88646000D01*
X52070000Y-92488000D02*
X52070000Y-88695000D01*
X48006000Y-74422000D02*
X46228000Y-74422000D01*
X50546000Y-87122000D02*
X50546000Y-85344000D01*
X50546000Y-76962000D02*
X48006000Y-74422000D01*
%TO.N,CANH*%
X24130000Y-50460000D02*
X24104000Y-50460000D01*
X24104000Y-50460000D02*
X21844000Y-48200000D01*
X55880000Y-55372000D02*
X57785000Y-53467000D01*
X57785000Y-53467000D02*
X56134000Y-55118000D01*
X55880000Y-55540000D02*
X55880000Y-55372000D01*
X56134000Y-55118000D02*
X56040000Y-55118000D01*
%TO.N,REAR-UART-TX*%
X53340000Y-96298000D02*
X54629000Y-95009000D01*
X58166000Y-93900000D02*
X58166000Y-87066000D01*
X52070000Y-85870000D02*
X52070000Y-75946000D01*
X52070000Y-75946000D02*
X48006000Y-71882000D01*
X57400000Y-86300000D02*
X52500000Y-86300000D01*
X48006000Y-71882000D02*
X46228000Y-71882000D01*
X58166000Y-87066000D02*
X57400000Y-86300000D01*
X57057000Y-95009000D02*
X58166000Y-93900000D01*
X52500000Y-86300000D02*
X52070000Y-85870000D01*
X54629000Y-95009000D02*
X57057000Y-95009000D01*
%TO.N,REAR-UART-RX*%
X51308000Y-86200000D02*
X51308000Y-76454000D01*
X57404000Y-92234000D02*
X57404000Y-87404000D01*
X55880000Y-93758000D02*
X57404000Y-92234000D01*
X57404000Y-87404000D02*
X57000000Y-87000000D01*
X51308000Y-76454000D02*
X48006000Y-73152000D01*
X57000000Y-87000000D02*
X52108000Y-87000000D01*
X52108000Y-87000000D02*
X51308000Y-86200000D01*
X48006000Y-73152000D02*
X46228000Y-73152000D01*
%TO.N,FRONT-BOOT*%
X29464000Y-94162000D02*
X30226000Y-93400000D01*
X32258000Y-74422000D02*
X33782000Y-74422000D01*
X30226000Y-93400000D02*
X30226000Y-76454000D01*
X26670000Y-101378000D02*
X26822000Y-101378000D01*
X28700000Y-99500000D02*
X28700000Y-98800000D01*
X29464000Y-98036000D02*
X29464000Y-94162000D01*
X26822000Y-101378000D02*
X28700000Y-99500000D01*
X28700000Y-98800000D02*
X29464000Y-98036000D01*
X30226000Y-76454000D02*
X32258000Y-74422000D01*
%TO.N,FRONT-MODULE-DETECT*%
X27940000Y-74930000D02*
X32258000Y-70612000D01*
X32258000Y-70612000D02*
X33782000Y-70612000D01*
X26670000Y-93758000D02*
X27940000Y-92488000D01*
X27940000Y-92488000D02*
X27940000Y-74930000D01*
%TO.N,FRONT-UART-TX*%
X28702000Y-75438000D02*
X32258000Y-71882000D01*
X28702000Y-92800000D02*
X28702000Y-75438000D01*
X27940000Y-93562000D02*
X28702000Y-92800000D01*
X26670000Y-98838000D02*
X27940000Y-97568000D01*
X27940000Y-97568000D02*
X27940000Y-93562000D01*
X32258000Y-71882000D02*
X33782000Y-71882000D01*
%TO.N,FRONT-UART-RX*%
X33782000Y-73152000D02*
X32258000Y-73152000D01*
X28000000Y-99277182D02*
X27188182Y-100089000D01*
X25419000Y-100089000D02*
X24130000Y-101378000D01*
X27188182Y-100089000D02*
X25419000Y-100089000D01*
X29464000Y-75946000D02*
X29464000Y-93138000D01*
X29464000Y-93138000D02*
X28702000Y-93900000D01*
X28702000Y-97798000D02*
X28000000Y-98500000D01*
X28702000Y-93900000D02*
X28702000Y-97798000D01*
X28000000Y-98500000D02*
X28000000Y-99277182D01*
X32258000Y-73152000D02*
X29464000Y-75946000D01*
%TO.N,FRONT-EFUSE-EN*%
X31750000Y-77470000D02*
X32258000Y-76962000D01*
X31750000Y-90100000D02*
X31750000Y-77470000D01*
X32258000Y-76962000D02*
X33782000Y-76962000D01*
%TO.N,REAR-EFUSE-EN*%
X46228000Y-78232000D02*
X47752000Y-78232000D01*
X48000000Y-104374000D02*
X47244000Y-105130000D01*
X49022000Y-79502000D02*
X49022000Y-87376000D01*
X48000000Y-88906000D02*
X48000000Y-104374000D01*
X49022000Y-87376000D02*
X48006000Y-88392000D01*
X47752000Y-78232000D02*
X49022000Y-79502000D01*
X48006000Y-88900000D02*
X48000000Y-88906000D01*
X48006000Y-88392000D02*
X48006000Y-88900000D01*
%TO.N,FRONT-EFUSE-FLT*%
X32893000Y-97155000D02*
X32893000Y-111379000D01*
X32258000Y-75692000D02*
X33782000Y-75692000D01*
X30988000Y-76962000D02*
X32258000Y-75692000D01*
X30988000Y-95250000D02*
X32893000Y-97155000D01*
X30988000Y-95250000D02*
X30988000Y-76962000D01*
%TO.N,REAR-EFUSE-FLT*%
X48260000Y-80010000D02*
X47752000Y-79502000D01*
X47752000Y-79502000D02*
X46228000Y-79502000D01*
X48260000Y-86868000D02*
X48260000Y-80010000D01*
X47498000Y-87630000D02*
X48260000Y-86868000D01*
%TO.N,B*%
X51500000Y-50038000D02*
X51900000Y-50460000D01*
X29210000Y-50038000D02*
X38500000Y-50038000D01*
X38500000Y-50038000D02*
X38850000Y-50038000D01*
X41100000Y-50038000D02*
X43700000Y-50038000D01*
X51900000Y-50460000D02*
X53340000Y-50460000D01*
X38850000Y-50038000D02*
X39750000Y-50038000D01*
X43700000Y-50038000D02*
X48750000Y-50038000D01*
X48750000Y-50038000D02*
X51500000Y-50038000D01*
X39750000Y-50038000D02*
X41100000Y-50038000D01*
%TO.N,A*%
X51400000Y-51308000D02*
X51803000Y-51711000D01*
X27497000Y-51711000D02*
X27900000Y-51308000D01*
X41500000Y-51308000D02*
X43700000Y-51308000D01*
X25419000Y-54251000D02*
X25419000Y-52292529D01*
X24130000Y-55540000D02*
X25419000Y-54251000D01*
X27900000Y-51308000D02*
X41500000Y-51308000D01*
X54629000Y-51711000D02*
X55880000Y-50460000D01*
X51803000Y-51711000D02*
X54629000Y-51711000D01*
X49250000Y-51308000D02*
X51400000Y-51308000D01*
X26000530Y-51711000D02*
X27497000Y-51711000D01*
X43700000Y-51308000D02*
X49250000Y-51308000D01*
X25419000Y-52292529D02*
X26000530Y-51711000D01*
%TO.N,ICSPDAT*%
X40000000Y-85900000D02*
X40005000Y-82851951D01*
X40005000Y-82851951D02*
X38012524Y-80859475D01*
%TO.N,I2CDAT*%
X40640000Y-108077000D02*
X41148000Y-107389080D01*
X38100000Y-99568000D02*
X38100000Y-91600000D01*
X38100000Y-91600000D02*
X37500000Y-91000000D01*
X41148000Y-102616000D02*
X38100000Y-99568000D01*
X37500000Y-91000000D02*
X36100000Y-91000000D01*
X40259000Y-108077000D02*
X40640000Y-108077000D01*
X41148000Y-107389080D02*
X41148000Y-102616000D01*
%TO.N,I2CCLK*%
X37338000Y-92329000D02*
X36703000Y-91694000D01*
X40386000Y-107188000D02*
X40386000Y-103124000D01*
X40386000Y-103124000D02*
X37338000Y-100076000D01*
X37338000Y-100076000D02*
X37338000Y-92329000D01*
%TD*%
%TA.AperFunction,Conductor*%
%TO.N,VDD*%
G36*
X37187500Y-62460000D02*
G01*
X25487500Y-62460000D01*
X25487500Y-60549108D01*
X25904500Y-60549108D01*
X25904500Y-60680891D01*
X25938608Y-60808187D01*
X25971554Y-60865250D01*
X26004500Y-60922314D01*
X26097686Y-61015500D01*
X26211814Y-61081392D01*
X26339108Y-61115500D01*
X26339110Y-61115500D01*
X26470890Y-61115500D01*
X26470892Y-61115500D01*
X26598186Y-61081392D01*
X26712314Y-61015500D01*
X26805500Y-60922314D01*
X26871392Y-60808186D01*
X26905500Y-60680892D01*
X26905500Y-60549108D01*
X26871392Y-60421814D01*
X26805500Y-60307686D01*
X26712314Y-60214500D01*
X26655250Y-60181554D01*
X26598187Y-60148608D01*
X26534539Y-60131554D01*
X26470892Y-60114500D01*
X26339108Y-60114500D01*
X26211812Y-60148608D01*
X26097686Y-60214500D01*
X26097683Y-60214502D01*
X26004502Y-60307683D01*
X26004500Y-60307686D01*
X25938608Y-60421812D01*
X25904500Y-60549108D01*
X25487500Y-60549108D01*
X25487500Y-59847500D01*
X37187500Y-59847500D01*
X37187500Y-62460000D01*
G37*
%TD.AperFunction*%
%TD*%
%TA.AperFunction,Conductor*%
%TO.N,VDD*%
G36*
X59442539Y-28019685D02*
G01*
X59488294Y-28072489D01*
X59499500Y-28124000D01*
X59499500Y-111876000D01*
X59479815Y-111943039D01*
X59427011Y-111988794D01*
X59375500Y-112000000D01*
X48373773Y-112000000D01*
X48306734Y-111980315D01*
X48260979Y-111927511D01*
X48249773Y-111875961D01*
X48251641Y-106371389D01*
X52239500Y-106371389D01*
X52239500Y-106544611D01*
X52266598Y-106715701D01*
X52320127Y-106880445D01*
X52398768Y-107034788D01*
X52500586Y-107174928D01*
X52623072Y-107297414D01*
X52763212Y-107399232D01*
X52917555Y-107477873D01*
X53082299Y-107531402D01*
X53253389Y-107558500D01*
X53253390Y-107558500D01*
X53426610Y-107558500D01*
X53426611Y-107558500D01*
X53597701Y-107531402D01*
X53762445Y-107477873D01*
X53916788Y-107399232D01*
X54056928Y-107297414D01*
X54179414Y-107174928D01*
X54281232Y-107034788D01*
X54359873Y-106880445D01*
X54413402Y-106715701D01*
X54440500Y-106544611D01*
X54440500Y-106371389D01*
X54779500Y-106371389D01*
X54779500Y-106544611D01*
X54806598Y-106715701D01*
X54860127Y-106880445D01*
X54938768Y-107034788D01*
X55040586Y-107174928D01*
X55163072Y-107297414D01*
X55303212Y-107399232D01*
X55457555Y-107477873D01*
X55622299Y-107531402D01*
X55793389Y-107558500D01*
X55793390Y-107558500D01*
X55966610Y-107558500D01*
X55966611Y-107558500D01*
X56137701Y-107531402D01*
X56302445Y-107477873D01*
X56456788Y-107399232D01*
X56596928Y-107297414D01*
X56719414Y-107174928D01*
X56821232Y-107034788D01*
X56899873Y-106880445D01*
X56953402Y-106715701D01*
X56980500Y-106544611D01*
X56980500Y-106371389D01*
X56953402Y-106200299D01*
X56899873Y-106035555D01*
X56821232Y-105881212D01*
X56719414Y-105741072D01*
X56596928Y-105618586D01*
X56456788Y-105516768D01*
X56302445Y-105438127D01*
X56137701Y-105384598D01*
X56137699Y-105384597D01*
X56137698Y-105384597D01*
X56006271Y-105363781D01*
X55966611Y-105357500D01*
X55793389Y-105357500D01*
X55753728Y-105363781D01*
X55622302Y-105384597D01*
X55457552Y-105438128D01*
X55303211Y-105516768D01*
X55223256Y-105574859D01*
X55163072Y-105618586D01*
X55163070Y-105618588D01*
X55163069Y-105618588D01*
X55040588Y-105741069D01*
X55040588Y-105741070D01*
X55040586Y-105741072D01*
X54996859Y-105801256D01*
X54938768Y-105881211D01*
X54860128Y-106035552D01*
X54806597Y-106200302D01*
X54797774Y-106256011D01*
X54779500Y-106371389D01*
X54440500Y-106371389D01*
X54413402Y-106200299D01*
X54359873Y-106035555D01*
X54281232Y-105881212D01*
X54179414Y-105741072D01*
X54056928Y-105618586D01*
X53916788Y-105516768D01*
X53762445Y-105438127D01*
X53597701Y-105384598D01*
X53597699Y-105384597D01*
X53597698Y-105384597D01*
X53466271Y-105363781D01*
X53426611Y-105357500D01*
X53253389Y-105357500D01*
X53213728Y-105363781D01*
X53082302Y-105384597D01*
X52917552Y-105438128D01*
X52763211Y-105516768D01*
X52683256Y-105574859D01*
X52623072Y-105618586D01*
X52623070Y-105618588D01*
X52623069Y-105618588D01*
X52500588Y-105741069D01*
X52500588Y-105741070D01*
X52500586Y-105741072D01*
X52456859Y-105801256D01*
X52398768Y-105881211D01*
X52320128Y-106035552D01*
X52266597Y-106200302D01*
X52257774Y-106256011D01*
X52239500Y-106371389D01*
X48251641Y-106371389D01*
X48252044Y-105182976D01*
X48244995Y-105123288D01*
X48234205Y-105078309D01*
X48221805Y-105040134D01*
X48221805Y-105040133D01*
X48177871Y-104974381D01*
X48156993Y-104907703D01*
X48175478Y-104840323D01*
X48193283Y-104817819D01*
X48360489Y-104650614D01*
X48419798Y-104547887D01*
X48419799Y-104547886D01*
X48450500Y-104433309D01*
X48450500Y-103831389D01*
X52239500Y-103831389D01*
X52239500Y-104004611D01*
X52266598Y-104175701D01*
X52320127Y-104340445D01*
X52398768Y-104494788D01*
X52500586Y-104634928D01*
X52623072Y-104757414D01*
X52763212Y-104859232D01*
X52917555Y-104937873D01*
X53082299Y-104991402D01*
X53253389Y-105018500D01*
X53253390Y-105018500D01*
X53426610Y-105018500D01*
X53426611Y-105018500D01*
X53597701Y-104991402D01*
X53762445Y-104937873D01*
X53916788Y-104859232D01*
X54056928Y-104757414D01*
X54179414Y-104634928D01*
X54281232Y-104494788D01*
X54359873Y-104340445D01*
X54413402Y-104175701D01*
X54440500Y-104004611D01*
X54440500Y-103831389D01*
X54779500Y-103831389D01*
X54779500Y-104004611D01*
X54806598Y-104175701D01*
X54860127Y-104340445D01*
X54938768Y-104494788D01*
X55040586Y-104634928D01*
X55163072Y-104757414D01*
X55303212Y-104859232D01*
X55457555Y-104937873D01*
X55622299Y-104991402D01*
X55793389Y-105018500D01*
X55793390Y-105018500D01*
X55966610Y-105018500D01*
X55966611Y-105018500D01*
X56137701Y-104991402D01*
X56302445Y-104937873D01*
X56456788Y-104859232D01*
X56596928Y-104757414D01*
X56719414Y-104634928D01*
X56821232Y-104494788D01*
X56899873Y-104340445D01*
X56953402Y-104175701D01*
X56980500Y-104004611D01*
X56980500Y-103831389D01*
X56953402Y-103660299D01*
X56899873Y-103495555D01*
X56821232Y-103341212D01*
X56719414Y-103201072D01*
X56596928Y-103078586D01*
X56456788Y-102976768D01*
X56302445Y-102898127D01*
X56137701Y-102844598D01*
X56137699Y-102844597D01*
X56137698Y-102844597D01*
X56006271Y-102823781D01*
X55966611Y-102817500D01*
X55793389Y-102817500D01*
X55753728Y-102823781D01*
X55622302Y-102844597D01*
X55457552Y-102898128D01*
X55303211Y-102976768D01*
X55223256Y-103034859D01*
X55163072Y-103078586D01*
X55163070Y-103078588D01*
X55163069Y-103078588D01*
X55040588Y-103201069D01*
X55040588Y-103201070D01*
X55040586Y-103201072D01*
X55013748Y-103238011D01*
X54938768Y-103341211D01*
X54860128Y-103495552D01*
X54806597Y-103660302D01*
X54779500Y-103831389D01*
X54440500Y-103831389D01*
X54413402Y-103660299D01*
X54359873Y-103495555D01*
X54281232Y-103341212D01*
X54179414Y-103201072D01*
X54056928Y-103078586D01*
X53916788Y-102976768D01*
X53762445Y-102898127D01*
X53597701Y-102844598D01*
X53597699Y-102844597D01*
X53597698Y-102844597D01*
X53466271Y-102823781D01*
X53426611Y-102817500D01*
X53253389Y-102817500D01*
X53213728Y-102823781D01*
X53082302Y-102844597D01*
X52917552Y-102898128D01*
X52763211Y-102976768D01*
X52683256Y-103034859D01*
X52623072Y-103078586D01*
X52623070Y-103078588D01*
X52623069Y-103078588D01*
X52500588Y-103201069D01*
X52500588Y-103201070D01*
X52500586Y-103201072D01*
X52473748Y-103238011D01*
X52398768Y-103341211D01*
X52320128Y-103495552D01*
X52266597Y-103660302D01*
X52239500Y-103831389D01*
X48450500Y-103831389D01*
X48450500Y-102827525D01*
X49449500Y-102827525D01*
X49449500Y-102972475D01*
X49487016Y-103112485D01*
X49487017Y-103112488D01*
X49559488Y-103238011D01*
X49559490Y-103238013D01*
X49559491Y-103238015D01*
X49661985Y-103340509D01*
X49661986Y-103340510D01*
X49661988Y-103340511D01*
X49787511Y-103412982D01*
X49787512Y-103412982D01*
X49787515Y-103412984D01*
X49927525Y-103450500D01*
X49927528Y-103450500D01*
X50072472Y-103450500D01*
X50072475Y-103450500D01*
X50212485Y-103412984D01*
X50338015Y-103340509D01*
X50440509Y-103238015D01*
X50512984Y-103112485D01*
X50550500Y-102972475D01*
X50550500Y-102827525D01*
X50512984Y-102687515D01*
X50440509Y-102561985D01*
X50338015Y-102459491D01*
X50338013Y-102459490D01*
X50338011Y-102459488D01*
X50212488Y-102387017D01*
X50212489Y-102387017D01*
X50201006Y-102383940D01*
X50072475Y-102349500D01*
X49927525Y-102349500D01*
X49798993Y-102383940D01*
X49787511Y-102387017D01*
X49661988Y-102459488D01*
X49661982Y-102459493D01*
X49559493Y-102561982D01*
X49559488Y-102561988D01*
X49487017Y-102687511D01*
X49487016Y-102687515D01*
X49449500Y-102827525D01*
X48450500Y-102827525D01*
X48450500Y-101327525D01*
X49549500Y-101327525D01*
X49549500Y-101472475D01*
X49587016Y-101612485D01*
X49587017Y-101612488D01*
X49659488Y-101738011D01*
X49659490Y-101738013D01*
X49659491Y-101738015D01*
X49761985Y-101840509D01*
X49761986Y-101840510D01*
X49761988Y-101840511D01*
X49887511Y-101912982D01*
X49887512Y-101912982D01*
X49887515Y-101912984D01*
X50027525Y-101950500D01*
X50027528Y-101950500D01*
X50172472Y-101950500D01*
X50172475Y-101950500D01*
X50312485Y-101912984D01*
X50438015Y-101840509D01*
X50540509Y-101738015D01*
X50612984Y-101612485D01*
X50650500Y-101472475D01*
X50650500Y-101327525D01*
X50640817Y-101291389D01*
X52239500Y-101291389D01*
X52239500Y-101464611D01*
X52266598Y-101635701D01*
X52320127Y-101800445D01*
X52398768Y-101954788D01*
X52500586Y-102094928D01*
X52623072Y-102217414D01*
X52763212Y-102319232D01*
X52917555Y-102397873D01*
X53082299Y-102451402D01*
X53253389Y-102478500D01*
X53253390Y-102478500D01*
X53426610Y-102478500D01*
X53426611Y-102478500D01*
X53597701Y-102451402D01*
X53762445Y-102397873D01*
X53916788Y-102319232D01*
X54056928Y-102217414D01*
X54179414Y-102094928D01*
X54281232Y-101954788D01*
X54359873Y-101800445D01*
X54413402Y-101635701D01*
X54440500Y-101464611D01*
X54440500Y-101291389D01*
X54779500Y-101291389D01*
X54779500Y-101464611D01*
X54806598Y-101635701D01*
X54860127Y-101800445D01*
X54938768Y-101954788D01*
X55040586Y-102094928D01*
X55163072Y-102217414D01*
X55303212Y-102319232D01*
X55457555Y-102397873D01*
X55622299Y-102451402D01*
X55793389Y-102478500D01*
X55793390Y-102478500D01*
X55966610Y-102478500D01*
X55966611Y-102478500D01*
X56137701Y-102451402D01*
X56302445Y-102397873D01*
X56456788Y-102319232D01*
X56596928Y-102217414D01*
X56719414Y-102094928D01*
X56821232Y-101954788D01*
X56899873Y-101800445D01*
X56953402Y-101635701D01*
X56980500Y-101464611D01*
X56980500Y-101291389D01*
X56953402Y-101120299D01*
X56899873Y-100955555D01*
X56821232Y-100801212D01*
X56719414Y-100661072D01*
X56596928Y-100538586D01*
X56456788Y-100436768D01*
X56302445Y-100358127D01*
X56137701Y-100304598D01*
X56137699Y-100304597D01*
X56137698Y-100304597D01*
X56006271Y-100283781D01*
X55966611Y-100277500D01*
X55793389Y-100277500D01*
X55753728Y-100283781D01*
X55622302Y-100304597D01*
X55457552Y-100358128D01*
X55303211Y-100436768D01*
X55223256Y-100494859D01*
X55163072Y-100538586D01*
X55163070Y-100538588D01*
X55163069Y-100538588D01*
X55040588Y-100661069D01*
X55040588Y-100661070D01*
X55040586Y-100661072D01*
X55026001Y-100681147D01*
X54938768Y-100801211D01*
X54860128Y-100955552D01*
X54806597Y-101120302D01*
X54795952Y-101187515D01*
X54779500Y-101291389D01*
X54440500Y-101291389D01*
X54413402Y-101120299D01*
X54359873Y-100955555D01*
X54281232Y-100801212D01*
X54179414Y-100661072D01*
X54056928Y-100538586D01*
X53916788Y-100436768D01*
X53762445Y-100358127D01*
X53597701Y-100304598D01*
X53597699Y-100304597D01*
X53597698Y-100304597D01*
X53466271Y-100283781D01*
X53426611Y-100277500D01*
X53253389Y-100277500D01*
X53213728Y-100283781D01*
X53082302Y-100304597D01*
X52917552Y-100358128D01*
X52763211Y-100436768D01*
X52683256Y-100494859D01*
X52623072Y-100538586D01*
X52623070Y-100538588D01*
X52623069Y-100538588D01*
X52500588Y-100661069D01*
X52500588Y-100661070D01*
X52500586Y-100661072D01*
X52486001Y-100681147D01*
X52398768Y-100801211D01*
X52320128Y-100955552D01*
X52266597Y-101120302D01*
X52255952Y-101187515D01*
X52239500Y-101291389D01*
X50640817Y-101291389D01*
X50612984Y-101187515D01*
X50574178Y-101120302D01*
X50540511Y-101061988D01*
X50540506Y-101061982D01*
X50438017Y-100959493D01*
X50438011Y-100959488D01*
X50312488Y-100887017D01*
X50312489Y-100887017D01*
X50301006Y-100883940D01*
X50172475Y-100849500D01*
X50027525Y-100849500D01*
X49898993Y-100883940D01*
X49887511Y-100887017D01*
X49761988Y-100959488D01*
X49761982Y-100959493D01*
X49659493Y-101061982D01*
X49659488Y-101061988D01*
X49587017Y-101187511D01*
X49587016Y-101187515D01*
X49549500Y-101327525D01*
X48450500Y-101327525D01*
X48450500Y-98751389D01*
X52239500Y-98751389D01*
X52239500Y-98924610D01*
X52257453Y-99037965D01*
X52266598Y-99095701D01*
X52320127Y-99260445D01*
X52398768Y-99414788D01*
X52500586Y-99554928D01*
X52623072Y-99677414D01*
X52763212Y-99779232D01*
X52917555Y-99857873D01*
X53082299Y-99911402D01*
X53253389Y-99938500D01*
X53253390Y-99938500D01*
X53426610Y-99938500D01*
X53426611Y-99938500D01*
X53597701Y-99911402D01*
X53762445Y-99857873D01*
X53916788Y-99779232D01*
X54056928Y-99677414D01*
X54179414Y-99554928D01*
X54281232Y-99414788D01*
X54359873Y-99260445D01*
X54413402Y-99095701D01*
X54440500Y-98924611D01*
X54440500Y-98751389D01*
X54779500Y-98751389D01*
X54779500Y-98924610D01*
X54797453Y-99037965D01*
X54806598Y-99095701D01*
X54860127Y-99260445D01*
X54938768Y-99414788D01*
X55040586Y-99554928D01*
X55163072Y-99677414D01*
X55303212Y-99779232D01*
X55457555Y-99857873D01*
X55622299Y-99911402D01*
X55793389Y-99938500D01*
X55793390Y-99938500D01*
X55966610Y-99938500D01*
X55966611Y-99938500D01*
X56137701Y-99911402D01*
X56302445Y-99857873D01*
X56456788Y-99779232D01*
X56596928Y-99677414D01*
X56719414Y-99554928D01*
X56821232Y-99414788D01*
X56899873Y-99260445D01*
X56953402Y-99095701D01*
X56980500Y-98924611D01*
X56980500Y-98751389D01*
X56953402Y-98580299D01*
X56899873Y-98415555D01*
X56821232Y-98261212D01*
X56719414Y-98121072D01*
X56596928Y-97998586D01*
X56456788Y-97896768D01*
X56302445Y-97818127D01*
X56137701Y-97764598D01*
X56137699Y-97764597D01*
X56137698Y-97764597D01*
X56006271Y-97743781D01*
X55966611Y-97737500D01*
X55793389Y-97737500D01*
X55753728Y-97743781D01*
X55622302Y-97764597D01*
X55457552Y-97818128D01*
X55303211Y-97896768D01*
X55281579Y-97912485D01*
X55163072Y-97998586D01*
X55163070Y-97998588D01*
X55163069Y-97998588D01*
X55040588Y-98121069D01*
X55040588Y-98121070D01*
X55040586Y-98121072D01*
X55026463Y-98140511D01*
X54938768Y-98261211D01*
X54860128Y-98415552D01*
X54806597Y-98580302D01*
X54779500Y-98751389D01*
X54440500Y-98751389D01*
X54413402Y-98580299D01*
X54359873Y-98415555D01*
X54281232Y-98261212D01*
X54179414Y-98121072D01*
X54056928Y-97998586D01*
X53916788Y-97896768D01*
X53762445Y-97818127D01*
X53597701Y-97764598D01*
X53597699Y-97764597D01*
X53597698Y-97764597D01*
X53466271Y-97743781D01*
X53426611Y-97737500D01*
X53253389Y-97737500D01*
X53213728Y-97743781D01*
X53082302Y-97764597D01*
X52917552Y-97818128D01*
X52763211Y-97896768D01*
X52741579Y-97912485D01*
X52623072Y-97998586D01*
X52623070Y-97998588D01*
X52623069Y-97998588D01*
X52500588Y-98121069D01*
X52500588Y-98121070D01*
X52500586Y-98121072D01*
X52486463Y-98140511D01*
X52398768Y-98261211D01*
X52320128Y-98415552D01*
X52266597Y-98580302D01*
X52239500Y-98751389D01*
X48450500Y-98751389D01*
X48450500Y-95379500D01*
X48470185Y-95312461D01*
X48522989Y-95266706D01*
X48574500Y-95255500D01*
X49865287Y-95255500D01*
X49865293Y-95255500D01*
X49931424Y-95246793D01*
X49980924Y-95233529D01*
X50042546Y-95208004D01*
X50091293Y-95179858D01*
X50121198Y-95167471D01*
X50151975Y-95159225D01*
X50151979Y-95159224D01*
X50184068Y-95155000D01*
X50215934Y-95155000D01*
X50248023Y-95159224D01*
X50278797Y-95167469D01*
X50308701Y-95179857D01*
X50357445Y-95207999D01*
X50357447Y-95207999D01*
X50357456Y-95208005D01*
X50419076Y-95233529D01*
X50468576Y-95246793D01*
X50534707Y-95255500D01*
X50534713Y-95255500D01*
X50873176Y-95255500D01*
X50873179Y-95255500D01*
X50932823Y-95248441D01*
X50977768Y-95237651D01*
X51015900Y-95225261D01*
X51098790Y-95169876D01*
X51142055Y-95126611D01*
X51174281Y-95085732D01*
X51176709Y-95084007D01*
X51177947Y-95081297D01*
X51205012Y-95063903D01*
X51231242Y-95045272D01*
X51234977Y-95044646D01*
X51236725Y-95043523D01*
X51271660Y-95038500D01*
X51347341Y-95038500D01*
X51414380Y-95058185D01*
X51447659Y-95089615D01*
X51477915Y-95131259D01*
X51477921Y-95131267D01*
X51477923Y-95131270D01*
X51477926Y-95131273D01*
X51518697Y-95175378D01*
X51540442Y-95187555D01*
X51605672Y-95224085D01*
X51605675Y-95224086D01*
X51605678Y-95224088D01*
X51663869Y-95242995D01*
X51742821Y-95255500D01*
X52526796Y-95255500D01*
X52593835Y-95275185D01*
X52639590Y-95327989D01*
X52649534Y-95397147D01*
X52620509Y-95460703D01*
X52614477Y-95467181D01*
X52500588Y-95581069D01*
X52500588Y-95581070D01*
X52500586Y-95581072D01*
X52493679Y-95590579D01*
X52398768Y-95721211D01*
X52320128Y-95875552D01*
X52266597Y-96040302D01*
X52266597Y-96040304D01*
X52239500Y-96211389D01*
X52239500Y-96384611D01*
X52266598Y-96555701D01*
X52320127Y-96720445D01*
X52398768Y-96874788D01*
X52500586Y-97014928D01*
X52623072Y-97137414D01*
X52763212Y-97239232D01*
X52917555Y-97317873D01*
X53082299Y-97371402D01*
X53253389Y-97398500D01*
X53253390Y-97398500D01*
X53426610Y-97398500D01*
X53426611Y-97398500D01*
X53597701Y-97371402D01*
X53762445Y-97317873D01*
X53916788Y-97239232D01*
X54056928Y-97137414D01*
X54179414Y-97014928D01*
X54281232Y-96874788D01*
X54359873Y-96720445D01*
X54413402Y-96555701D01*
X54440500Y-96384611D01*
X54440500Y-96211389D01*
X54413402Y-96040299D01*
X54393082Y-95977764D01*
X54391087Y-95907927D01*
X54423331Y-95851770D01*
X54779284Y-95495819D01*
X54806211Y-95481115D01*
X54832030Y-95464523D01*
X54838230Y-95463631D01*
X54840607Y-95462334D01*
X54866965Y-95459500D01*
X54885549Y-95459500D01*
X54952588Y-95479185D01*
X54998343Y-95531989D01*
X55008287Y-95601147D01*
X54985867Y-95656385D01*
X54938770Y-95721208D01*
X54860128Y-95875552D01*
X54806597Y-96040302D01*
X54806597Y-96040304D01*
X54779500Y-96211389D01*
X54779500Y-96384611D01*
X54806598Y-96555701D01*
X54860127Y-96720445D01*
X54938768Y-96874788D01*
X55040586Y-97014928D01*
X55163072Y-97137414D01*
X55303212Y-97239232D01*
X55457555Y-97317873D01*
X55622299Y-97371402D01*
X55793389Y-97398500D01*
X55793390Y-97398500D01*
X55966610Y-97398500D01*
X55966611Y-97398500D01*
X56137701Y-97371402D01*
X56302445Y-97317873D01*
X56456788Y-97239232D01*
X56596928Y-97137414D01*
X56719414Y-97014928D01*
X56821232Y-96874788D01*
X56899873Y-96720445D01*
X56953402Y-96555701D01*
X56980500Y-96384611D01*
X56980500Y-96211389D01*
X56953402Y-96040299D01*
X56899873Y-95875555D01*
X56821232Y-95721212D01*
X56815833Y-95713782D01*
X56774133Y-95656385D01*
X56750653Y-95590579D01*
X56766478Y-95522525D01*
X56816584Y-95473830D01*
X56874451Y-95459500D01*
X57116308Y-95459500D01*
X57116309Y-95459500D01*
X57206673Y-95435286D01*
X57230887Y-95428799D01*
X57333614Y-95369489D01*
X58526490Y-94176614D01*
X58585799Y-94073887D01*
X58588761Y-94062831D01*
X58595142Y-94039021D01*
X58602959Y-94009844D01*
X58616500Y-93959309D01*
X58616500Y-87006691D01*
X58585799Y-86892114D01*
X58581825Y-86885231D01*
X58526490Y-86789386D01*
X57676614Y-85939511D01*
X57573887Y-85880201D01*
X57533087Y-85869269D01*
X57533084Y-85869268D01*
X57501903Y-85860913D01*
X57459309Y-85849500D01*
X57459308Y-85849500D01*
X55379500Y-85849500D01*
X55312461Y-85829815D01*
X55266706Y-85777011D01*
X55255500Y-85725500D01*
X55255500Y-59199270D01*
X55275185Y-59132231D01*
X55327989Y-59086476D01*
X55397147Y-59076532D01*
X55435796Y-59088786D01*
X55444302Y-59093120D01*
X55457550Y-59099871D01*
X55457552Y-59099871D01*
X55457555Y-59099873D01*
X55622299Y-59153402D01*
X55793389Y-59180500D01*
X55793390Y-59180500D01*
X55966610Y-59180500D01*
X55966611Y-59180500D01*
X56137701Y-59153402D01*
X56302445Y-59099873D01*
X56456788Y-59021232D01*
X56596928Y-58919414D01*
X56719414Y-58796928D01*
X56821232Y-58656788D01*
X56899873Y-58502445D01*
X56953402Y-58337701D01*
X56980500Y-58166611D01*
X56980500Y-57993389D01*
X56953402Y-57822299D01*
X56899873Y-57657555D01*
X56821232Y-57503212D01*
X56719414Y-57363072D01*
X56596928Y-57240586D01*
X56456788Y-57138768D01*
X56302445Y-57060127D01*
X56137701Y-57006598D01*
X56137699Y-57006597D01*
X56137698Y-57006597D01*
X56006271Y-56985781D01*
X55966611Y-56979500D01*
X55793389Y-56979500D01*
X55753728Y-56985781D01*
X55622302Y-57006597D01*
X55457549Y-57060129D01*
X55435794Y-57071214D01*
X55367125Y-57084110D01*
X55302385Y-57057833D01*
X55262128Y-57000727D01*
X55255500Y-56960729D01*
X55255500Y-56659270D01*
X55275185Y-56592231D01*
X55327989Y-56546476D01*
X55397147Y-56536532D01*
X55435796Y-56548786D01*
X55444302Y-56553120D01*
X55457550Y-56559871D01*
X55457552Y-56559871D01*
X55457555Y-56559873D01*
X55622299Y-56613402D01*
X55793389Y-56640500D01*
X55793390Y-56640500D01*
X55966610Y-56640500D01*
X55966611Y-56640500D01*
X56137701Y-56613402D01*
X56302445Y-56559873D01*
X56456788Y-56481232D01*
X56596928Y-56379414D01*
X56719414Y-56256928D01*
X56821232Y-56116788D01*
X56899873Y-55962445D01*
X56953402Y-55797701D01*
X56980500Y-55626611D01*
X56980500Y-55453389D01*
X56953402Y-55282299D01*
X56899873Y-55117555D01*
X56897458Y-55112815D01*
X56884562Y-55044146D01*
X56910838Y-54979405D01*
X56920253Y-54968848D01*
X57853282Y-54035820D01*
X57908865Y-54003729D01*
X57997485Y-53979984D01*
X58123015Y-53907509D01*
X58225509Y-53805015D01*
X58297984Y-53679485D01*
X58335500Y-53539475D01*
X58335500Y-53394525D01*
X58297984Y-53254515D01*
X58225509Y-53128985D01*
X58123015Y-53026491D01*
X58123013Y-53026490D01*
X58123011Y-53026488D01*
X57997488Y-52954017D01*
X57997489Y-52954017D01*
X57986006Y-52950940D01*
X57857475Y-52916500D01*
X57712525Y-52916500D01*
X57583993Y-52950940D01*
X57572511Y-52954017D01*
X57446988Y-53026488D01*
X57446982Y-53026493D01*
X57344493Y-53128982D01*
X57344488Y-53128988D01*
X57272017Y-53254511D01*
X57272015Y-53254516D01*
X57248269Y-53343133D01*
X57240251Y-53357018D01*
X57237327Y-53370464D01*
X57216176Y-53398718D01*
X57124272Y-53490622D01*
X57062949Y-53524107D01*
X56993257Y-53519123D01*
X56937324Y-53477251D01*
X56912907Y-53411787D01*
X56918659Y-53364626D01*
X56953402Y-53257701D01*
X56980500Y-53086611D01*
X56980500Y-52913389D01*
X56953402Y-52742299D01*
X56899873Y-52577555D01*
X56821232Y-52423212D01*
X56719414Y-52283072D01*
X56596928Y-52160586D01*
X56456788Y-52058768D01*
X56302445Y-51980127D01*
X56137701Y-51926598D01*
X56137699Y-51926597D01*
X56137698Y-51926597D01*
X56006271Y-51905781D01*
X55966611Y-51899500D01*
X55793389Y-51899500D01*
X55753728Y-51905781D01*
X55622302Y-51926597D01*
X55457552Y-51980128D01*
X55377136Y-52021101D01*
X55371730Y-52022116D01*
X55367424Y-52025533D01*
X55337767Y-52028493D01*
X55308467Y-52033996D01*
X55303371Y-52031927D01*
X55297900Y-52032474D01*
X55271350Y-52018931D01*
X55243727Y-52007719D01*
X55239260Y-52002561D01*
X55235660Y-52000725D01*
X55214818Y-51974341D01*
X55213723Y-51973076D01*
X55213651Y-51972953D01*
X55188512Y-51929411D01*
X55187371Y-51927883D01*
X55184627Y-51923177D01*
X55177019Y-51892396D01*
X55167755Y-51862092D01*
X55168700Y-51858735D01*
X55167863Y-51855348D01*
X55178103Y-51825342D01*
X55186694Y-51794838D01*
X55189879Y-51790840D01*
X55190431Y-51789224D01*
X55192431Y-51787636D01*
X55204062Y-51773039D01*
X55433770Y-51543331D01*
X55495091Y-51509848D01*
X55559764Y-51513082D01*
X55622299Y-51533402D01*
X55793389Y-51560500D01*
X55793390Y-51560500D01*
X55966610Y-51560500D01*
X55966611Y-51560500D01*
X56137701Y-51533402D01*
X56302445Y-51479873D01*
X56456788Y-51401232D01*
X56596928Y-51299414D01*
X56719414Y-51176928D01*
X56821232Y-51036788D01*
X56899873Y-50882445D01*
X56953402Y-50717701D01*
X56980500Y-50546611D01*
X56980500Y-50373389D01*
X56953402Y-50202299D01*
X56899873Y-50037555D01*
X56821232Y-49883212D01*
X56719414Y-49743072D01*
X56596928Y-49620586D01*
X56456788Y-49518768D01*
X56302445Y-49440127D01*
X56137701Y-49386598D01*
X56137699Y-49386597D01*
X56137698Y-49386597D01*
X56006271Y-49365781D01*
X55966611Y-49359500D01*
X55793389Y-49359500D01*
X55753728Y-49365781D01*
X55622302Y-49386597D01*
X55622299Y-49386598D01*
X55467878Y-49436773D01*
X55457549Y-49440129D01*
X55435794Y-49451214D01*
X55367125Y-49464110D01*
X55302385Y-49437833D01*
X55262128Y-49380727D01*
X55255500Y-49340729D01*
X55255500Y-49039270D01*
X55275185Y-48972231D01*
X55327989Y-48926476D01*
X55397147Y-48916532D01*
X55435796Y-48928786D01*
X55444302Y-48933120D01*
X55457550Y-48939871D01*
X55457552Y-48939871D01*
X55457555Y-48939873D01*
X55622299Y-48993402D01*
X55793389Y-49020500D01*
X55793390Y-49020500D01*
X55966610Y-49020500D01*
X55966611Y-49020500D01*
X56137701Y-48993402D01*
X56302445Y-48939873D01*
X56456788Y-48861232D01*
X56596928Y-48759414D01*
X56719414Y-48636928D01*
X56821232Y-48496788D01*
X56899873Y-48342445D01*
X56953402Y-48177701D01*
X56980500Y-48006611D01*
X56980500Y-47833389D01*
X56953402Y-47662299D01*
X56899873Y-47497555D01*
X56821232Y-47343212D01*
X56719414Y-47203072D01*
X56596928Y-47080586D01*
X56456788Y-46978768D01*
X56302445Y-46900127D01*
X56137701Y-46846598D01*
X56137699Y-46846597D01*
X56137698Y-46846597D01*
X56006271Y-46825781D01*
X55966611Y-46819500D01*
X55793389Y-46819500D01*
X55753728Y-46825781D01*
X55622302Y-46846597D01*
X55457549Y-46900129D01*
X55435794Y-46911214D01*
X55367125Y-46924110D01*
X55302385Y-46897833D01*
X55262128Y-46840727D01*
X55255500Y-46800729D01*
X55255500Y-44999007D01*
X55255499Y-44998992D01*
X55252355Y-44959035D01*
X55247510Y-44928442D01*
X55243595Y-44908761D01*
X55201859Y-44818227D01*
X55170363Y-44774876D01*
X55165905Y-44768740D01*
X55165899Y-44768732D01*
X55165897Y-44768730D01*
X55165895Y-44768727D01*
X55125124Y-44724622D01*
X55125121Y-44724620D01*
X55038148Y-44675914D01*
X55038139Y-44675910D01*
X54979953Y-44657005D01*
X54940476Y-44650752D01*
X54901000Y-44644500D01*
X54900999Y-44644500D01*
X41301094Y-44644500D01*
X41234055Y-44624815D01*
X41188300Y-44572011D01*
X41181321Y-44552601D01*
X41150484Y-44437515D01*
X41078009Y-44311985D01*
X40975515Y-44209491D01*
X40975513Y-44209490D01*
X40975511Y-44209488D01*
X40849988Y-44137017D01*
X40849989Y-44137017D01*
X40838506Y-44133940D01*
X40709975Y-44099500D01*
X40565025Y-44099500D01*
X40436493Y-44133940D01*
X40425011Y-44137017D01*
X40299488Y-44209488D01*
X40299482Y-44209493D01*
X40196993Y-44311982D01*
X40196988Y-44311988D01*
X40124517Y-44437511D01*
X40124516Y-44437515D01*
X40093679Y-44552595D01*
X40057316Y-44612254D01*
X39994469Y-44642783D01*
X39973906Y-44644500D01*
X25598992Y-44644500D01*
X25559047Y-44647644D01*
X25559043Y-44647644D01*
X25559035Y-44647645D01*
X25559032Y-44647645D01*
X25559026Y-44647646D01*
X25528446Y-44652488D01*
X25508762Y-44656404D01*
X25418228Y-44698140D01*
X25418223Y-44698143D01*
X25368740Y-44734094D01*
X25368732Y-44734100D01*
X25324622Y-44774876D01*
X25324620Y-44774878D01*
X25275914Y-44861851D01*
X25275910Y-44861860D01*
X25257005Y-44920046D01*
X25244500Y-44999000D01*
X25244500Y-47078602D01*
X25245287Y-47098653D01*
X25272347Y-47194605D01*
X25281777Y-47213112D01*
X25298256Y-47245455D01*
X25302352Y-47251093D01*
X25302356Y-47251100D01*
X25345240Y-47310126D01*
X25567590Y-47532476D01*
X25601075Y-47593799D01*
X25597841Y-47658473D01*
X25596597Y-47662299D01*
X25569500Y-47833389D01*
X25569500Y-48006610D01*
X25596597Y-48177698D01*
X25596598Y-48177701D01*
X25597839Y-48181520D01*
X25599836Y-48251361D01*
X25567591Y-48307521D01*
X25345242Y-48529871D01*
X25345240Y-48529873D01*
X25305287Y-48582656D01*
X25305284Y-48582660D01*
X25302980Y-48585705D01*
X25277070Y-48631977D01*
X25275171Y-48635890D01*
X25275157Y-48635917D01*
X25263951Y-48659022D01*
X25263946Y-48659037D01*
X25244500Y-48756802D01*
X25244500Y-48761921D01*
X25244897Y-48772013D01*
X25244500Y-48785524D01*
X25244500Y-49740062D01*
X25224815Y-49807101D01*
X25172011Y-49852856D01*
X25102853Y-49862800D01*
X25039297Y-49833775D01*
X25020182Y-49812948D01*
X25015934Y-49807101D01*
X24969414Y-49743072D01*
X24846928Y-49620586D01*
X24706788Y-49518768D01*
X24552445Y-49440127D01*
X24387701Y-49386598D01*
X24387699Y-49386597D01*
X24387698Y-49386597D01*
X24256271Y-49365781D01*
X24216611Y-49359500D01*
X24043389Y-49359500D01*
X23986359Y-49368532D01*
X23872297Y-49386598D01*
X23872294Y-49386598D01*
X23790143Y-49413291D01*
X23720301Y-49415286D01*
X23664144Y-49383041D01*
X22412822Y-48131719D01*
X22380728Y-48076131D01*
X22356984Y-47987515D01*
X22284509Y-47861985D01*
X22255913Y-47833389D01*
X23029500Y-47833389D01*
X23029500Y-48006610D01*
X23056597Y-48177697D01*
X23056597Y-48177699D01*
X23056598Y-48177701D01*
X23110127Y-48342445D01*
X23188768Y-48496788D01*
X23290586Y-48636928D01*
X23413072Y-48759414D01*
X23553212Y-48861232D01*
X23707555Y-48939873D01*
X23872299Y-48993402D01*
X24043389Y-49020500D01*
X24043390Y-49020500D01*
X24216610Y-49020500D01*
X24216611Y-49020500D01*
X24387701Y-48993402D01*
X24552445Y-48939873D01*
X24706788Y-48861232D01*
X24846928Y-48759414D01*
X24969414Y-48636928D01*
X25071232Y-48496788D01*
X25149873Y-48342445D01*
X25203402Y-48177701D01*
X25230500Y-48006611D01*
X25230500Y-47833389D01*
X25203402Y-47662299D01*
X25149873Y-47497555D01*
X25071232Y-47343212D01*
X24969414Y-47203072D01*
X24846928Y-47080586D01*
X24706788Y-46978768D01*
X24552445Y-46900127D01*
X24387701Y-46846598D01*
X24387699Y-46846597D01*
X24387698Y-46846597D01*
X24256271Y-46825781D01*
X24216611Y-46819500D01*
X24043389Y-46819500D01*
X24003728Y-46825781D01*
X23872302Y-46846597D01*
X23707552Y-46900128D01*
X23553211Y-46978768D01*
X23505501Y-47013432D01*
X23413072Y-47080586D01*
X23413070Y-47080588D01*
X23413069Y-47080588D01*
X23290588Y-47203069D01*
X23290588Y-47203070D01*
X23290586Y-47203072D01*
X23282948Y-47213585D01*
X23188768Y-47343211D01*
X23110128Y-47497552D01*
X23056597Y-47662302D01*
X23029500Y-47833389D01*
X22255913Y-47833389D01*
X22182015Y-47759491D01*
X22182013Y-47759490D01*
X22182011Y-47759488D01*
X22056488Y-47687017D01*
X22056489Y-47687017D01*
X22045006Y-47683940D01*
X21916475Y-47649500D01*
X21771525Y-47649500D01*
X21642993Y-47683940D01*
X21631511Y-47687017D01*
X21505988Y-47759488D01*
X21505982Y-47759493D01*
X21403493Y-47861982D01*
X21403488Y-47861988D01*
X21331017Y-47987511D01*
X21331016Y-47987515D01*
X21293500Y-48127525D01*
X21293500Y-48272475D01*
X21312250Y-48342449D01*
X21331017Y-48412488D01*
X21403488Y-48538011D01*
X21403490Y-48538013D01*
X21403491Y-48538015D01*
X21505985Y-48640509D01*
X21631515Y-48712984D01*
X21720132Y-48736728D01*
X21775719Y-48768822D01*
X23040288Y-50033392D01*
X23073773Y-50094715D01*
X23070539Y-50159388D01*
X23056598Y-50202297D01*
X23032703Y-50353164D01*
X23029500Y-50373389D01*
X23029500Y-50546611D01*
X23037349Y-50596169D01*
X23054659Y-50705463D01*
X23056598Y-50717701D01*
X23110127Y-50882445D01*
X23188768Y-51036788D01*
X23290586Y-51176928D01*
X23413072Y-51299414D01*
X23553212Y-51401232D01*
X23707555Y-51479873D01*
X23872299Y-51533402D01*
X24043389Y-51560500D01*
X24043390Y-51560500D01*
X24216610Y-51560500D01*
X24216611Y-51560500D01*
X24387701Y-51533402D01*
X24552445Y-51479873D01*
X24706788Y-51401232D01*
X24846928Y-51299414D01*
X24969414Y-51176928D01*
X25020182Y-51107051D01*
X25075512Y-51064386D01*
X25145125Y-51058407D01*
X25206920Y-51091013D01*
X25241277Y-51151851D01*
X25244500Y-51179937D01*
X25244500Y-51406134D01*
X25251557Y-51465763D01*
X25251560Y-51465776D01*
X25262347Y-51510711D01*
X25274733Y-51548835D01*
X25274734Y-51548837D01*
X25318676Y-51614606D01*
X25339551Y-51681283D01*
X25321064Y-51748663D01*
X25303252Y-51771173D01*
X25058513Y-52015912D01*
X25058511Y-52015915D01*
X25006000Y-52106866D01*
X24955432Y-52155081D01*
X24886825Y-52168303D01*
X24825728Y-52145183D01*
X24706788Y-52058768D01*
X24552445Y-51980127D01*
X24387701Y-51926598D01*
X24387699Y-51926597D01*
X24387698Y-51926597D01*
X24256271Y-51905781D01*
X24216611Y-51899500D01*
X24043389Y-51899500D01*
X24003728Y-51905781D01*
X23872302Y-51926597D01*
X23707552Y-51980128D01*
X23553211Y-52058768D01*
X23487011Y-52106866D01*
X23413072Y-52160586D01*
X23413070Y-52160588D01*
X23413069Y-52160588D01*
X23290588Y-52283069D01*
X23290588Y-52283070D01*
X23290586Y-52283072D01*
X23250047Y-52338869D01*
X23188768Y-52423211D01*
X23110128Y-52577552D01*
X23056597Y-52742302D01*
X23029500Y-52913389D01*
X23029500Y-53086610D01*
X23056093Y-53254516D01*
X23056598Y-53257701D01*
X23110127Y-53422445D01*
X23188768Y-53576788D01*
X23290586Y-53716928D01*
X23413072Y-53839414D01*
X23553212Y-53941232D01*
X23707555Y-54019873D01*
X23872299Y-54073402D01*
X24043389Y-54100500D01*
X24043390Y-54100500D01*
X24216610Y-54100500D01*
X24216611Y-54100500D01*
X24387701Y-54073402D01*
X24552445Y-54019873D01*
X24706788Y-53941232D01*
X24771614Y-53894132D01*
X24783473Y-53889901D01*
X24792989Y-53881656D01*
X24815754Y-53878382D01*
X24837420Y-53870652D01*
X24849684Y-53873503D01*
X24862147Y-53871712D01*
X24883070Y-53881267D01*
X24905474Y-53886477D01*
X24914249Y-53895506D01*
X24925703Y-53900737D01*
X24938138Y-53920087D01*
X24954169Y-53936582D01*
X24957573Y-53950328D01*
X24963477Y-53959515D01*
X24968500Y-53994450D01*
X24968500Y-54013034D01*
X24948815Y-54080073D01*
X24932181Y-54100715D01*
X24576230Y-54456665D01*
X24514907Y-54490150D01*
X24450232Y-54486915D01*
X24387702Y-54466598D01*
X24387698Y-54466597D01*
X24256271Y-54445781D01*
X24216611Y-54439500D01*
X24043389Y-54439500D01*
X24003728Y-54445781D01*
X23872302Y-54466597D01*
X23707552Y-54520128D01*
X23553211Y-54598768D01*
X23505501Y-54633432D01*
X23413072Y-54700586D01*
X23413070Y-54700588D01*
X23413069Y-54700588D01*
X23290588Y-54823069D01*
X23290588Y-54823070D01*
X23290586Y-54823072D01*
X23246859Y-54883256D01*
X23188768Y-54963211D01*
X23110128Y-55117552D01*
X23056597Y-55282302D01*
X23032703Y-55433164D01*
X23029500Y-55453389D01*
X23029500Y-55626611D01*
X23037349Y-55676169D01*
X23054659Y-55785463D01*
X23056598Y-55797701D01*
X23110127Y-55962445D01*
X23188768Y-56116788D01*
X23290586Y-56256928D01*
X23413072Y-56379414D01*
X23553212Y-56481232D01*
X23707555Y-56559873D01*
X23872299Y-56613402D01*
X24043389Y-56640500D01*
X24043390Y-56640500D01*
X24216610Y-56640500D01*
X24216611Y-56640500D01*
X24387701Y-56613402D01*
X24552445Y-56559873D01*
X24706788Y-56481232D01*
X24846928Y-56379414D01*
X24969414Y-56256928D01*
X25020182Y-56187051D01*
X25075512Y-56144386D01*
X25145125Y-56138407D01*
X25206920Y-56171013D01*
X25241277Y-56231851D01*
X25244500Y-56259937D01*
X25244500Y-56673111D01*
X25244559Y-56678655D01*
X25244649Y-56682828D01*
X25244649Y-56682838D01*
X25244650Y-56682842D01*
X25251316Y-56717652D01*
X25260698Y-56766641D01*
X25282079Y-56823969D01*
X25282085Y-56823982D01*
X25309536Y-56877387D01*
X25309540Y-56877392D01*
X25380276Y-56947626D01*
X25380281Y-56947630D01*
X25380283Y-56947632D01*
X25431278Y-56981443D01*
X25484889Y-57008519D01*
X25484897Y-57008520D01*
X25494179Y-57011500D01*
X25493103Y-57014851D01*
X25540260Y-57036985D01*
X25577419Y-57096154D01*
X25579702Y-57154037D01*
X25569500Y-57205327D01*
X25569500Y-58954673D01*
X25579875Y-59006834D01*
X25573647Y-59076425D01*
X25530783Y-59131602D01*
X25510171Y-59143634D01*
X25418225Y-59186022D01*
X25418223Y-59186023D01*
X25368740Y-59221974D01*
X25368732Y-59221980D01*
X25324622Y-59262756D01*
X25324620Y-59262758D01*
X25275914Y-59349731D01*
X25275910Y-59349740D01*
X25257005Y-59407926D01*
X25244500Y-59486880D01*
X25244500Y-59543007D01*
X25247644Y-59582952D01*
X25247646Y-59582973D01*
X25252488Y-59613553D01*
X25256404Y-59633237D01*
X25298140Y-59723771D01*
X25298143Y-59723776D01*
X25334094Y-59773259D01*
X25334100Y-59773267D01*
X25334102Y-59773270D01*
X25334105Y-59773273D01*
X25374876Y-59817378D01*
X25374878Y-59817379D01*
X25461851Y-59866085D01*
X25461854Y-59866086D01*
X25461857Y-59866088D01*
X25487500Y-59874419D01*
X25487500Y-62431705D01*
X25418228Y-62463640D01*
X25418223Y-62463643D01*
X25368740Y-62499594D01*
X25368732Y-62499600D01*
X25324622Y-62540376D01*
X25324620Y-62540378D01*
X25275914Y-62627351D01*
X25275910Y-62627360D01*
X25257005Y-62685546D01*
X25244500Y-62764500D01*
X25244500Y-87958062D01*
X25224815Y-88025101D01*
X25172011Y-88070856D01*
X25102853Y-88080800D01*
X25039297Y-88051775D01*
X25020182Y-88030948D01*
X24974934Y-87968670D01*
X24969414Y-87961072D01*
X24846928Y-87838586D01*
X24706788Y-87736768D01*
X24552445Y-87658127D01*
X24387701Y-87604598D01*
X24387699Y-87604597D01*
X24387698Y-87604597D01*
X24256271Y-87583781D01*
X24216611Y-87577500D01*
X24043389Y-87577500D01*
X24003728Y-87583781D01*
X23872302Y-87604597D01*
X23707552Y-87658128D01*
X23553211Y-87736768D01*
X23505501Y-87771432D01*
X23413072Y-87838586D01*
X23413070Y-87838588D01*
X23413069Y-87838588D01*
X23290588Y-87961069D01*
X23290588Y-87961070D01*
X23290586Y-87961072D01*
X23285066Y-87968670D01*
X23188768Y-88101211D01*
X23110128Y-88255552D01*
X23056597Y-88420302D01*
X23032703Y-88571164D01*
X23029500Y-88591389D01*
X23029500Y-88764611D01*
X23037349Y-88814169D01*
X23054659Y-88923463D01*
X23056598Y-88935701D01*
X23110127Y-89100445D01*
X23188768Y-89254788D01*
X23290586Y-89394928D01*
X23413072Y-89517414D01*
X23553212Y-89619232D01*
X23707555Y-89697873D01*
X23872299Y-89751402D01*
X24043389Y-89778500D01*
X24043390Y-89778500D01*
X24216610Y-89778500D01*
X24216611Y-89778500D01*
X24387701Y-89751402D01*
X24552445Y-89697873D01*
X24706788Y-89619232D01*
X24846928Y-89517414D01*
X24969414Y-89394928D01*
X25020182Y-89325051D01*
X25075512Y-89282386D01*
X25145125Y-89276407D01*
X25206920Y-89309013D01*
X25241277Y-89369851D01*
X25244500Y-89397937D01*
X25244500Y-90498062D01*
X25224815Y-90565101D01*
X25172011Y-90610856D01*
X25102853Y-90620800D01*
X25039297Y-90591775D01*
X25020182Y-90570948D01*
X24974934Y-90508670D01*
X24969414Y-90501072D01*
X24846928Y-90378586D01*
X24706788Y-90276768D01*
X24552445Y-90198127D01*
X24387701Y-90144598D01*
X24387699Y-90144597D01*
X24387698Y-90144597D01*
X24256271Y-90123781D01*
X24216611Y-90117500D01*
X24043389Y-90117500D01*
X24003728Y-90123781D01*
X23872302Y-90144597D01*
X23707552Y-90198128D01*
X23553211Y-90276768D01*
X23505501Y-90311432D01*
X23413072Y-90378586D01*
X23413070Y-90378588D01*
X23413069Y-90378588D01*
X23290588Y-90501069D01*
X23290588Y-90501070D01*
X23290586Y-90501072D01*
X23285066Y-90508670D01*
X23188768Y-90641211D01*
X23110128Y-90795552D01*
X23056597Y-90960302D01*
X23032703Y-91111164D01*
X23029500Y-91131389D01*
X23029500Y-91304611D01*
X23056598Y-91475701D01*
X23110127Y-91640445D01*
X23188768Y-91794788D01*
X23290586Y-91934928D01*
X23413072Y-92057414D01*
X23553212Y-92159232D01*
X23707555Y-92237873D01*
X23872299Y-92291402D01*
X24043389Y-92318500D01*
X24043390Y-92318500D01*
X24216610Y-92318500D01*
X24216611Y-92318500D01*
X24387701Y-92291402D01*
X24552445Y-92237873D01*
X24706788Y-92159232D01*
X24846928Y-92057414D01*
X24969414Y-91934928D01*
X25020182Y-91865051D01*
X25075512Y-91822386D01*
X25145125Y-91816407D01*
X25206920Y-91849013D01*
X25241277Y-91909851D01*
X25244500Y-91937937D01*
X25244500Y-93038062D01*
X25224815Y-93105101D01*
X25172011Y-93150856D01*
X25102853Y-93160800D01*
X25039297Y-93131775D01*
X25020182Y-93110948D01*
X25015934Y-93105101D01*
X24969414Y-93041072D01*
X24846928Y-92918586D01*
X24706788Y-92816768D01*
X24552445Y-92738127D01*
X24387701Y-92684598D01*
X24387699Y-92684597D01*
X24387698Y-92684597D01*
X24256271Y-92663781D01*
X24216611Y-92657500D01*
X24043389Y-92657500D01*
X24003728Y-92663781D01*
X23872302Y-92684597D01*
X23707552Y-92738128D01*
X23553211Y-92816768D01*
X23505501Y-92851432D01*
X23413072Y-92918586D01*
X23413070Y-92918588D01*
X23413069Y-92918588D01*
X23290588Y-93041069D01*
X23290588Y-93041070D01*
X23290586Y-93041072D01*
X23246859Y-93101256D01*
X23188768Y-93181211D01*
X23110128Y-93335552D01*
X23056597Y-93500302D01*
X23032703Y-93651164D01*
X23029500Y-93671389D01*
X23029500Y-93844611D01*
X23056598Y-94015701D01*
X23110127Y-94180445D01*
X23188768Y-94334788D01*
X23290586Y-94474928D01*
X23413072Y-94597414D01*
X23553212Y-94699232D01*
X23707555Y-94777873D01*
X23872299Y-94831402D01*
X24043389Y-94858500D01*
X24043390Y-94858500D01*
X24216610Y-94858500D01*
X24216611Y-94858500D01*
X24387701Y-94831402D01*
X24552445Y-94777873D01*
X24706788Y-94699232D01*
X24846928Y-94597414D01*
X24969414Y-94474928D01*
X25020182Y-94405051D01*
X25075512Y-94362386D01*
X25145125Y-94356407D01*
X25206920Y-94389013D01*
X25241277Y-94449851D01*
X25244500Y-94477937D01*
X25244500Y-94900916D01*
X25247661Y-94940989D01*
X25252529Y-94971639D01*
X25252533Y-94971662D01*
X25256481Y-94991443D01*
X25256482Y-94991446D01*
X25289959Y-95063903D01*
X25298294Y-95081942D01*
X25334199Y-95131273D01*
X25334304Y-95131417D01*
X25375105Y-95175479D01*
X25375108Y-95175482D01*
X25462129Y-95224120D01*
X25520336Y-95242978D01*
X25599300Y-95255416D01*
X25856995Y-95255197D01*
X25924049Y-95274825D01*
X25969849Y-95327590D01*
X25979851Y-95396740D01*
X25950880Y-95460320D01*
X25944780Y-95466878D01*
X25830585Y-95581073D01*
X25728768Y-95721211D01*
X25650128Y-95875552D01*
X25596597Y-96040302D01*
X25596597Y-96040304D01*
X25569500Y-96211389D01*
X25569500Y-96384611D01*
X25596598Y-96555701D01*
X25650127Y-96720445D01*
X25728768Y-96874788D01*
X25830586Y-97014928D01*
X25953072Y-97137414D01*
X26093212Y-97239232D01*
X26247555Y-97317873D01*
X26412299Y-97371402D01*
X26583389Y-97398500D01*
X26583390Y-97398500D01*
X26756610Y-97398500D01*
X26756611Y-97398500D01*
X26927701Y-97371402D01*
X27092445Y-97317873D01*
X27246788Y-97239232D01*
X27292614Y-97205936D01*
X27304475Y-97201704D01*
X27313989Y-97193461D01*
X27336753Y-97190187D01*
X27358420Y-97182457D01*
X27370684Y-97185308D01*
X27383147Y-97183517D01*
X27404070Y-97193072D01*
X27426474Y-97198282D01*
X27435248Y-97207311D01*
X27446703Y-97212542D01*
X27459140Y-97231894D01*
X27475169Y-97248388D01*
X27478573Y-97262133D01*
X27484477Y-97271320D01*
X27489500Y-97306255D01*
X27489500Y-97330034D01*
X27469815Y-97397073D01*
X27453181Y-97417715D01*
X27116230Y-97754665D01*
X27054907Y-97788150D01*
X26990232Y-97784915D01*
X26927702Y-97764598D01*
X26927698Y-97764597D01*
X26796271Y-97743781D01*
X26756611Y-97737500D01*
X26583389Y-97737500D01*
X26543728Y-97743781D01*
X26412302Y-97764597D01*
X26247552Y-97818128D01*
X26093211Y-97896768D01*
X26071579Y-97912485D01*
X25953072Y-97998586D01*
X25953070Y-97998588D01*
X25953069Y-97998588D01*
X25830588Y-98121069D01*
X25830588Y-98121070D01*
X25830586Y-98121072D01*
X25816463Y-98140511D01*
X25728768Y-98261211D01*
X25650128Y-98415552D01*
X25596597Y-98580302D01*
X25569500Y-98751389D01*
X25569500Y-98924610D01*
X25596597Y-99095697D01*
X25650128Y-99260447D01*
X25728767Y-99414787D01*
X25748259Y-99441615D01*
X25771738Y-99507422D01*
X25755912Y-99575475D01*
X25705806Y-99624170D01*
X25647940Y-99638500D01*
X25359691Y-99638500D01*
X25245114Y-99669200D01*
X25237245Y-99673744D01*
X25237188Y-99673776D01*
X25236998Y-99673887D01*
X25142386Y-99728511D01*
X25140801Y-99730095D01*
X25132043Y-99735213D01*
X25105399Y-99741823D01*
X25079791Y-99751720D01*
X25071973Y-99750115D01*
X25064230Y-99752037D01*
X25038241Y-99743193D01*
X25025234Y-99740523D01*
X25036006Y-99793683D01*
X25010657Y-99858793D01*
X25000142Y-99870754D01*
X24576230Y-100294665D01*
X24514907Y-100328150D01*
X24450232Y-100324915D01*
X24387702Y-100304598D01*
X24387698Y-100304597D01*
X24256271Y-100283781D01*
X24216611Y-100277500D01*
X24043389Y-100277500D01*
X24003728Y-100283781D01*
X23872302Y-100304597D01*
X23707552Y-100358128D01*
X23553211Y-100436768D01*
X23473256Y-100494859D01*
X23413072Y-100538586D01*
X23413070Y-100538588D01*
X23413069Y-100538588D01*
X23290588Y-100661069D01*
X23290588Y-100661070D01*
X23290586Y-100661072D01*
X23276001Y-100681147D01*
X23188768Y-100801211D01*
X23110128Y-100955552D01*
X23056597Y-101120302D01*
X23045952Y-101187515D01*
X23029500Y-101291389D01*
X23029500Y-101464611D01*
X23056598Y-101635701D01*
X23110127Y-101800445D01*
X23188768Y-101954788D01*
X23290586Y-102094928D01*
X23413072Y-102217414D01*
X23553212Y-102319232D01*
X23707555Y-102397873D01*
X23872299Y-102451402D01*
X24043389Y-102478500D01*
X24043390Y-102478500D01*
X24216610Y-102478500D01*
X24216611Y-102478500D01*
X24387701Y-102451402D01*
X24552445Y-102397873D01*
X24706788Y-102319232D01*
X24846928Y-102217414D01*
X24969414Y-102094928D01*
X25071232Y-101954788D01*
X25149873Y-101800445D01*
X25203402Y-101635701D01*
X25230500Y-101464611D01*
X25230500Y-101291389D01*
X25203402Y-101120299D01*
X25183082Y-101057764D01*
X25181087Y-100987927D01*
X25213331Y-100931770D01*
X25569284Y-100575819D01*
X25596211Y-100561115D01*
X25622030Y-100544523D01*
X25628230Y-100543631D01*
X25630607Y-100542334D01*
X25656965Y-100539500D01*
X25675549Y-100539500D01*
X25742588Y-100559185D01*
X25788343Y-100611989D01*
X25798287Y-100681147D01*
X25775867Y-100736385D01*
X25728770Y-100801208D01*
X25650128Y-100955552D01*
X25596597Y-101120302D01*
X25585952Y-101187515D01*
X25569500Y-101291389D01*
X25569500Y-101464611D01*
X25596598Y-101635701D01*
X25650127Y-101800445D01*
X25728768Y-101954788D01*
X25830586Y-102094928D01*
X25953072Y-102217414D01*
X26093212Y-102319232D01*
X26247555Y-102397873D01*
X26412299Y-102451402D01*
X26583389Y-102478500D01*
X26583390Y-102478500D01*
X26756610Y-102478500D01*
X26756611Y-102478500D01*
X26927701Y-102451402D01*
X27092445Y-102397873D01*
X27246788Y-102319232D01*
X27386928Y-102217414D01*
X27509414Y-102094928D01*
X27611232Y-101954788D01*
X27689873Y-101800445D01*
X27743402Y-101635701D01*
X27770500Y-101464611D01*
X27770500Y-101291389D01*
X27749648Y-101159737D01*
X27758602Y-101090447D01*
X27784437Y-101052664D01*
X29060489Y-99776614D01*
X29119799Y-99673887D01*
X29142678Y-99588500D01*
X29150500Y-99559309D01*
X29150500Y-99037965D01*
X29170185Y-98970926D01*
X29186819Y-98950284D01*
X29385714Y-98751389D01*
X29824489Y-98312614D01*
X29883799Y-98209887D01*
X29897571Y-98158489D01*
X29914500Y-98095309D01*
X29914500Y-95375657D01*
X29917035Y-95367022D01*
X29915747Y-95358115D01*
X29926726Y-95334019D01*
X29934185Y-95308618D01*
X29940985Y-95302725D01*
X29944718Y-95294534D01*
X29966982Y-95280199D01*
X29986989Y-95262863D01*
X29997449Y-95260582D01*
X30003464Y-95256710D01*
X30038389Y-95251657D01*
X30068832Y-95251631D01*
X30135886Y-95271258D01*
X30156617Y-95287949D01*
X30202688Y-95334019D01*
X30237832Y-95369163D01*
X30284997Y-95406344D01*
X30324407Y-95430495D01*
X30360131Y-95448698D01*
X30399241Y-95456477D01*
X30457904Y-95468147D01*
X30522163Y-95468147D01*
X30589202Y-95487832D01*
X30621101Y-95521283D01*
X30622561Y-95520163D01*
X30627512Y-95526615D01*
X32072562Y-96971666D01*
X32106047Y-97032989D01*
X32101063Y-97102681D01*
X32059191Y-97158614D01*
X32016977Y-97179121D01*
X31987514Y-97187016D01*
X31987511Y-97187017D01*
X31861988Y-97259488D01*
X31861982Y-97259493D01*
X31759493Y-97361982D01*
X31759488Y-97361988D01*
X31687017Y-97487511D01*
X31687016Y-97487515D01*
X31649500Y-97627525D01*
X31649500Y-97772475D01*
X31661733Y-97818127D01*
X31687017Y-97912488D01*
X31759488Y-98038011D01*
X31759490Y-98038013D01*
X31759491Y-98038015D01*
X31861985Y-98140509D01*
X31861986Y-98140510D01*
X31861988Y-98140511D01*
X31987511Y-98212982D01*
X31987512Y-98212982D01*
X31987515Y-98212984D01*
X32127525Y-98250500D01*
X32127528Y-98250500D01*
X32272473Y-98250500D01*
X32272475Y-98250500D01*
X32286406Y-98246767D01*
X32356254Y-98248428D01*
X32414117Y-98287589D01*
X32441623Y-98351817D01*
X32442500Y-98366541D01*
X32442500Y-111025063D01*
X32425887Y-111087062D01*
X32380019Y-111166508D01*
X32380016Y-111166513D01*
X32361258Y-111236520D01*
X32342500Y-111306525D01*
X32342500Y-111451475D01*
X32380016Y-111591485D01*
X32380017Y-111591488D01*
X32452488Y-111717011D01*
X32452493Y-111717017D01*
X32523795Y-111788319D01*
X32557280Y-111849642D01*
X32552296Y-111919334D01*
X32510424Y-111975267D01*
X32444960Y-111999684D01*
X32436114Y-112000000D01*
X20624500Y-112000000D01*
X20557461Y-111980315D01*
X20511706Y-111927511D01*
X20500500Y-111876000D01*
X20500500Y-106371389D01*
X23029500Y-106371389D01*
X23029500Y-106544611D01*
X23056598Y-106715701D01*
X23110127Y-106880445D01*
X23188768Y-107034788D01*
X23290586Y-107174928D01*
X23413072Y-107297414D01*
X23553212Y-107399232D01*
X23707555Y-107477873D01*
X23872299Y-107531402D01*
X24043389Y-107558500D01*
X24043390Y-107558500D01*
X24216610Y-107558500D01*
X24216611Y-107558500D01*
X24387701Y-107531402D01*
X24552445Y-107477873D01*
X24706788Y-107399232D01*
X24846928Y-107297414D01*
X24969414Y-107174928D01*
X25071232Y-107034788D01*
X25149873Y-106880445D01*
X25203402Y-106715701D01*
X25230500Y-106544611D01*
X25230500Y-106371389D01*
X25203402Y-106200299D01*
X25149873Y-106035555D01*
X25071232Y-105881212D01*
X24969414Y-105741072D01*
X24846928Y-105618586D01*
X24798390Y-105583321D01*
X25569500Y-105583321D01*
X25569500Y-107332678D01*
X25584032Y-107405735D01*
X25584033Y-107405739D01*
X25584034Y-107405740D01*
X25639399Y-107488601D01*
X25722260Y-107543966D01*
X25722264Y-107543967D01*
X25795321Y-107558499D01*
X25795324Y-107558500D01*
X25795326Y-107558500D01*
X27544676Y-107558500D01*
X27544677Y-107558499D01*
X27617740Y-107543966D01*
X27700601Y-107488601D01*
X27755966Y-107405740D01*
X27770500Y-107332674D01*
X27770500Y-105845525D01*
X30945500Y-105845525D01*
X30945500Y-105990475D01*
X30983016Y-106130485D01*
X30983017Y-106130488D01*
X31055488Y-106256011D01*
X31055490Y-106256013D01*
X31055491Y-106256015D01*
X31157985Y-106358509D01*
X31157986Y-106358510D01*
X31157988Y-106358511D01*
X31283511Y-106430982D01*
X31283512Y-106430982D01*
X31283515Y-106430984D01*
X31423525Y-106468500D01*
X31423528Y-106468500D01*
X31568472Y-106468500D01*
X31568475Y-106468500D01*
X31708485Y-106430984D01*
X31834015Y-106358509D01*
X31936509Y-106256015D01*
X32008984Y-106130485D01*
X32046500Y-105990475D01*
X32046500Y-105845525D01*
X32008984Y-105705515D01*
X31958795Y-105618586D01*
X31936511Y-105579988D01*
X31936506Y-105579982D01*
X31834017Y-105477493D01*
X31834011Y-105477488D01*
X31708488Y-105405017D01*
X31708489Y-105405017D01*
X31697006Y-105401940D01*
X31568475Y-105367500D01*
X31423525Y-105367500D01*
X31294993Y-105401940D01*
X31283511Y-105405017D01*
X31157988Y-105477488D01*
X31157982Y-105477493D01*
X31055493Y-105579982D01*
X31055488Y-105579988D01*
X30983017Y-105705511D01*
X30983016Y-105705515D01*
X30945500Y-105845525D01*
X27770500Y-105845525D01*
X27770500Y-105583326D01*
X27770500Y-105583323D01*
X27770499Y-105583321D01*
X27755967Y-105510264D01*
X27755966Y-105510260D01*
X27734072Y-105477493D01*
X27700601Y-105427399D01*
X27617740Y-105372034D01*
X27617739Y-105372033D01*
X27617735Y-105372032D01*
X27544677Y-105357500D01*
X27544674Y-105357500D01*
X25795326Y-105357500D01*
X25795323Y-105357500D01*
X25722264Y-105372032D01*
X25722260Y-105372033D01*
X25639399Y-105427399D01*
X25584033Y-105510260D01*
X25584032Y-105510264D01*
X25569500Y-105583321D01*
X24798390Y-105583321D01*
X24706788Y-105516768D01*
X24552445Y-105438127D01*
X24387701Y-105384598D01*
X24387699Y-105384597D01*
X24387698Y-105384597D01*
X24256271Y-105363781D01*
X24216611Y-105357500D01*
X24043389Y-105357500D01*
X24003728Y-105363781D01*
X23872302Y-105384597D01*
X23707552Y-105438128D01*
X23553211Y-105516768D01*
X23473256Y-105574859D01*
X23413072Y-105618586D01*
X23413070Y-105618588D01*
X23413069Y-105618588D01*
X23290588Y-105741069D01*
X23290588Y-105741070D01*
X23290586Y-105741072D01*
X23246859Y-105801256D01*
X23188768Y-105881211D01*
X23110128Y-106035552D01*
X23056597Y-106200302D01*
X23047774Y-106256011D01*
X23029500Y-106371389D01*
X20500500Y-106371389D01*
X20500500Y-103831389D01*
X23029500Y-103831389D01*
X23029500Y-104004611D01*
X23056598Y-104175701D01*
X23110127Y-104340445D01*
X23188768Y-104494788D01*
X23290586Y-104634928D01*
X23413072Y-104757414D01*
X23553212Y-104859232D01*
X23707555Y-104937873D01*
X23872299Y-104991402D01*
X24043389Y-105018500D01*
X24043390Y-105018500D01*
X24216610Y-105018500D01*
X24216611Y-105018500D01*
X24387701Y-104991402D01*
X24552445Y-104937873D01*
X24706788Y-104859232D01*
X24846928Y-104757414D01*
X24969414Y-104634928D01*
X25071232Y-104494788D01*
X25149873Y-104340445D01*
X25203402Y-104175701D01*
X25230500Y-104004611D01*
X25230500Y-103831389D01*
X25569500Y-103831389D01*
X25569500Y-104004611D01*
X25596598Y-104175701D01*
X25650127Y-104340445D01*
X25728768Y-104494788D01*
X25830586Y-104634928D01*
X25953072Y-104757414D01*
X26093212Y-104859232D01*
X26247555Y-104937873D01*
X26412299Y-104991402D01*
X26583389Y-105018500D01*
X26583390Y-105018500D01*
X26756610Y-105018500D01*
X26756611Y-105018500D01*
X26927701Y-104991402D01*
X27092445Y-104937873D01*
X27246788Y-104859232D01*
X27386928Y-104757414D01*
X27509414Y-104634928D01*
X27611232Y-104494788D01*
X27689873Y-104340445D01*
X27743402Y-104175701D01*
X27770500Y-104004611D01*
X27770500Y-103831389D01*
X27743402Y-103660299D01*
X27689873Y-103495555D01*
X27611232Y-103341212D01*
X27509414Y-103201072D01*
X27386928Y-103078586D01*
X27246788Y-102976768D01*
X27092445Y-102898127D01*
X26927701Y-102844598D01*
X26927699Y-102844597D01*
X26927698Y-102844597D01*
X26796271Y-102823781D01*
X26756611Y-102817500D01*
X26583389Y-102817500D01*
X26543728Y-102823781D01*
X26412302Y-102844597D01*
X26247552Y-102898128D01*
X26093211Y-102976768D01*
X26013256Y-103034859D01*
X25953072Y-103078586D01*
X25953070Y-103078588D01*
X25953069Y-103078588D01*
X25830588Y-103201069D01*
X25830588Y-103201070D01*
X25830586Y-103201072D01*
X25803748Y-103238011D01*
X25728768Y-103341211D01*
X25650128Y-103495552D01*
X25596597Y-103660302D01*
X25569500Y-103831389D01*
X25230500Y-103831389D01*
X25203402Y-103660299D01*
X25149873Y-103495555D01*
X25071232Y-103341212D01*
X24969414Y-103201072D01*
X24846928Y-103078586D01*
X24706788Y-102976768D01*
X24552445Y-102898127D01*
X24387701Y-102844598D01*
X24387699Y-102844597D01*
X24387698Y-102844597D01*
X24256271Y-102823781D01*
X24216611Y-102817500D01*
X24043389Y-102817500D01*
X24003728Y-102823781D01*
X23872302Y-102844597D01*
X23707552Y-102898128D01*
X23553211Y-102976768D01*
X23473256Y-103034859D01*
X23413072Y-103078586D01*
X23413070Y-103078588D01*
X23413069Y-103078588D01*
X23290588Y-103201069D01*
X23290588Y-103201070D01*
X23290586Y-103201072D01*
X23263748Y-103238011D01*
X23188768Y-103341211D01*
X23110128Y-103495552D01*
X23056597Y-103660302D01*
X23029500Y-103831389D01*
X20500500Y-103831389D01*
X20500500Y-98751389D01*
X23029500Y-98751389D01*
X23029500Y-98924610D01*
X23047453Y-99037965D01*
X23056598Y-99095701D01*
X23110127Y-99260445D01*
X23188768Y-99414788D01*
X23290586Y-99554928D01*
X23413072Y-99677414D01*
X23553212Y-99779232D01*
X23707555Y-99857873D01*
X23872299Y-99911402D01*
X24043389Y-99938500D01*
X24043390Y-99938500D01*
X24216610Y-99938500D01*
X24216611Y-99938500D01*
X24387701Y-99911402D01*
X24552445Y-99857873D01*
X24706788Y-99779232D01*
X24839578Y-99682753D01*
X24905381Y-99659275D01*
X24954186Y-99670623D01*
X24951858Y-99647518D01*
X24945707Y-99620762D01*
X24948405Y-99613229D01*
X24947608Y-99605314D01*
X24959872Y-99581217D01*
X24969170Y-99555263D01*
X24969413Y-99554929D01*
X24969414Y-99554928D01*
X25071232Y-99414788D01*
X25149873Y-99260445D01*
X25203402Y-99095701D01*
X25230500Y-98924611D01*
X25230500Y-98751389D01*
X25203402Y-98580299D01*
X25149873Y-98415555D01*
X25071232Y-98261212D01*
X24969414Y-98121072D01*
X24846928Y-97998586D01*
X24706788Y-97896768D01*
X24552445Y-97818127D01*
X24387701Y-97764598D01*
X24387699Y-97764597D01*
X24387698Y-97764597D01*
X24256271Y-97743781D01*
X24216611Y-97737500D01*
X24043389Y-97737500D01*
X24003728Y-97743781D01*
X23872302Y-97764597D01*
X23707552Y-97818128D01*
X23553211Y-97896768D01*
X23531579Y-97912485D01*
X23413072Y-97998586D01*
X23413070Y-97998588D01*
X23413069Y-97998588D01*
X23290588Y-98121069D01*
X23290588Y-98121070D01*
X23290586Y-98121072D01*
X23276463Y-98140511D01*
X23188768Y-98261211D01*
X23110128Y-98415552D01*
X23056597Y-98580302D01*
X23029500Y-98751389D01*
X20500500Y-98751389D01*
X20500500Y-96211389D01*
X23029500Y-96211389D01*
X23029500Y-96384611D01*
X23056598Y-96555701D01*
X23110127Y-96720445D01*
X23188768Y-96874788D01*
X23290586Y-97014928D01*
X23413072Y-97137414D01*
X23553212Y-97239232D01*
X23707555Y-97317873D01*
X23872299Y-97371402D01*
X24043389Y-97398500D01*
X24043390Y-97398500D01*
X24216610Y-97398500D01*
X24216611Y-97398500D01*
X24387701Y-97371402D01*
X24552445Y-97317873D01*
X24706788Y-97239232D01*
X24846928Y-97137414D01*
X24969414Y-97014928D01*
X25071232Y-96874788D01*
X25149873Y-96720445D01*
X25203402Y-96555701D01*
X25230500Y-96384611D01*
X25230500Y-96211389D01*
X25203402Y-96040299D01*
X25149873Y-95875555D01*
X25071232Y-95721212D01*
X24969414Y-95581072D01*
X24846928Y-95458586D01*
X24706788Y-95356768D01*
X24619830Y-95312461D01*
X24552447Y-95278128D01*
X24552446Y-95278127D01*
X24552445Y-95278127D01*
X24387701Y-95224598D01*
X24387699Y-95224597D01*
X24387698Y-95224597D01*
X24256271Y-95203781D01*
X24216611Y-95197500D01*
X24043389Y-95197500D01*
X24003728Y-95203781D01*
X23872302Y-95224597D01*
X23844812Y-95233529D01*
X23716610Y-95275185D01*
X23707552Y-95278128D01*
X23553211Y-95356768D01*
X23521924Y-95379500D01*
X23413072Y-95458586D01*
X23413070Y-95458588D01*
X23413069Y-95458588D01*
X23290588Y-95581069D01*
X23290588Y-95581070D01*
X23290586Y-95581072D01*
X23283679Y-95590579D01*
X23188768Y-95721211D01*
X23110128Y-95875552D01*
X23056597Y-96040302D01*
X23056597Y-96040304D01*
X23029500Y-96211389D01*
X20500500Y-96211389D01*
X20500500Y-57993389D01*
X23029500Y-57993389D01*
X23029500Y-58166611D01*
X23056598Y-58337701D01*
X23110127Y-58502445D01*
X23188768Y-58656788D01*
X23290586Y-58796928D01*
X23413072Y-58919414D01*
X23553212Y-59021232D01*
X23707555Y-59099873D01*
X23872299Y-59153402D01*
X24043389Y-59180500D01*
X24043390Y-59180500D01*
X24216610Y-59180500D01*
X24216611Y-59180500D01*
X24387701Y-59153402D01*
X24552445Y-59099873D01*
X24706788Y-59021232D01*
X24846928Y-58919414D01*
X24969414Y-58796928D01*
X25071232Y-58656788D01*
X25149873Y-58502445D01*
X25203402Y-58337701D01*
X25230500Y-58166611D01*
X25230500Y-57993389D01*
X25203402Y-57822299D01*
X25149873Y-57657555D01*
X25071232Y-57503212D01*
X24969414Y-57363072D01*
X24846928Y-57240586D01*
X24706788Y-57138768D01*
X24552445Y-57060127D01*
X24387701Y-57006598D01*
X24387699Y-57006597D01*
X24387698Y-57006597D01*
X24256271Y-56985781D01*
X24216611Y-56979500D01*
X24043389Y-56979500D01*
X24003728Y-56985781D01*
X23872302Y-57006597D01*
X23707552Y-57060128D01*
X23553211Y-57138768D01*
X23505501Y-57173432D01*
X23413072Y-57240586D01*
X23413070Y-57240588D01*
X23413069Y-57240588D01*
X23290588Y-57363069D01*
X23290588Y-57363070D01*
X23290586Y-57363072D01*
X23246859Y-57423256D01*
X23188768Y-57503211D01*
X23110128Y-57657552D01*
X23056597Y-57822302D01*
X23029500Y-57993389D01*
X20500500Y-57993389D01*
X20500500Y-40406379D01*
X22724500Y-40406379D01*
X22724500Y-40593620D01*
X22761025Y-40777243D01*
X22761027Y-40777251D01*
X22832676Y-40950228D01*
X22832681Y-40950237D01*
X22936697Y-41105907D01*
X22936700Y-41105911D01*
X23069088Y-41238299D01*
X23069092Y-41238302D01*
X23224762Y-41342318D01*
X23224768Y-41342321D01*
X23224769Y-41342322D01*
X23397749Y-41413973D01*
X23581379Y-41450499D01*
X23581383Y-41450500D01*
X23581384Y-41450500D01*
X23768617Y-41450500D01*
X23768618Y-41450499D01*
X23952251Y-41413973D01*
X24125231Y-41342322D01*
X24280908Y-41238302D01*
X24413302Y-41105908D01*
X24517322Y-40950231D01*
X24588973Y-40777251D01*
X24625500Y-40593616D01*
X24625500Y-40406384D01*
X24625499Y-40406379D01*
X49049500Y-40406379D01*
X49049500Y-40593620D01*
X49086025Y-40777243D01*
X49086027Y-40777251D01*
X49157676Y-40950228D01*
X49157681Y-40950237D01*
X49261697Y-41105907D01*
X49261700Y-41105911D01*
X49394088Y-41238299D01*
X49394092Y-41238302D01*
X49549762Y-41342318D01*
X49549768Y-41342321D01*
X49549769Y-41342322D01*
X49722749Y-41413973D01*
X49906379Y-41450499D01*
X49906383Y-41450500D01*
X49906384Y-41450500D01*
X50093617Y-41450500D01*
X50093618Y-41450499D01*
X50277251Y-41413973D01*
X50450231Y-41342322D01*
X50605908Y-41238302D01*
X50738302Y-41105908D01*
X50842322Y-40950231D01*
X50913973Y-40777251D01*
X50950500Y-40593616D01*
X50950500Y-40406384D01*
X50913973Y-40222749D01*
X50842322Y-40049769D01*
X50842321Y-40049768D01*
X50842318Y-40049762D01*
X50738302Y-39894092D01*
X50738299Y-39894088D01*
X50605911Y-39761700D01*
X50605907Y-39761697D01*
X50450237Y-39657681D01*
X50450228Y-39657676D01*
X50277251Y-39586027D01*
X50277243Y-39586025D01*
X50093620Y-39549500D01*
X50093616Y-39549500D01*
X49906384Y-39549500D01*
X49906379Y-39549500D01*
X49722756Y-39586025D01*
X49722748Y-39586027D01*
X49549771Y-39657676D01*
X49549762Y-39657681D01*
X49394092Y-39761697D01*
X49394088Y-39761700D01*
X49261700Y-39894088D01*
X49261697Y-39894092D01*
X49157681Y-40049762D01*
X49157676Y-40049771D01*
X49086027Y-40222748D01*
X49086025Y-40222756D01*
X49049500Y-40406379D01*
X24625499Y-40406379D01*
X24588973Y-40222749D01*
X24517322Y-40049769D01*
X24517321Y-40049768D01*
X24517318Y-40049762D01*
X24413302Y-39894092D01*
X24413299Y-39894088D01*
X24280911Y-39761700D01*
X24280907Y-39761697D01*
X24125237Y-39657681D01*
X24125228Y-39657676D01*
X23952251Y-39586027D01*
X23952243Y-39586025D01*
X23768620Y-39549500D01*
X23768616Y-39549500D01*
X23581384Y-39549500D01*
X23581379Y-39549500D01*
X23397756Y-39586025D01*
X23397748Y-39586027D01*
X23224771Y-39657676D01*
X23224762Y-39657681D01*
X23069092Y-39761697D01*
X23069088Y-39761700D01*
X22936700Y-39894088D01*
X22936697Y-39894092D01*
X22832681Y-40049762D01*
X22832676Y-40049771D01*
X22761027Y-40222748D01*
X22761025Y-40222756D01*
X22724500Y-40406379D01*
X20500500Y-40406379D01*
X20500500Y-37352533D01*
X31425000Y-37352533D01*
X31425000Y-37647466D01*
X31425001Y-37647483D01*
X31463496Y-37939884D01*
X31463499Y-37939897D01*
X31539835Y-38224790D01*
X31539838Y-38224800D01*
X31652704Y-38497281D01*
X31652709Y-38497292D01*
X31769066Y-38698826D01*
X32749774Y-37718118D01*
X32761508Y-37777105D01*
X32833121Y-37949994D01*
X32937087Y-38105590D01*
X33069410Y-38237913D01*
X33225006Y-38341879D01*
X33397895Y-38413492D01*
X33456880Y-38425224D01*
X32476172Y-39405932D01*
X32476172Y-39405933D01*
X32677707Y-39522290D01*
X32677718Y-39522295D01*
X32950199Y-39635161D01*
X32950209Y-39635164D01*
X33235102Y-39711500D01*
X33235115Y-39711503D01*
X33527516Y-39749998D01*
X33527534Y-39750000D01*
X33822466Y-39750000D01*
X33822483Y-39749998D01*
X34114884Y-39711503D01*
X34114897Y-39711500D01*
X34399790Y-39635164D01*
X34399800Y-39635161D01*
X34672281Y-39522295D01*
X34672292Y-39522290D01*
X34873826Y-39405933D01*
X34873826Y-39405932D01*
X33893119Y-38425224D01*
X33952105Y-38413492D01*
X34124994Y-38341879D01*
X34280590Y-38237913D01*
X34412913Y-38105590D01*
X34516879Y-37949994D01*
X34588492Y-37777105D01*
X34600225Y-37718119D01*
X35580932Y-38698826D01*
X35580933Y-38698826D01*
X35697290Y-38497292D01*
X35697295Y-38497281D01*
X35810161Y-38224800D01*
X35810164Y-38224790D01*
X35886500Y-37939897D01*
X35886503Y-37939884D01*
X35924998Y-37647483D01*
X35925000Y-37647466D01*
X35925000Y-37352533D01*
X42750000Y-37352533D01*
X42750000Y-37647466D01*
X42750001Y-37647483D01*
X42788496Y-37939884D01*
X42788499Y-37939897D01*
X42864835Y-38224790D01*
X42864838Y-38224800D01*
X42977704Y-38497281D01*
X42977709Y-38497292D01*
X43094066Y-38698826D01*
X44074774Y-37718118D01*
X44086508Y-37777105D01*
X44158121Y-37949994D01*
X44262087Y-38105590D01*
X44394410Y-38237913D01*
X44550006Y-38341879D01*
X44722895Y-38413492D01*
X44781880Y-38425224D01*
X43801172Y-39405932D01*
X43801172Y-39405933D01*
X44002707Y-39522290D01*
X44002718Y-39522295D01*
X44275199Y-39635161D01*
X44275209Y-39635164D01*
X44560102Y-39711500D01*
X44560115Y-39711503D01*
X44852516Y-39749998D01*
X44852534Y-39750000D01*
X45147466Y-39750000D01*
X45147483Y-39749998D01*
X45439884Y-39711503D01*
X45439897Y-39711500D01*
X45724790Y-39635164D01*
X45724800Y-39635161D01*
X45997281Y-39522295D01*
X45997292Y-39522290D01*
X46198826Y-39405933D01*
X46198826Y-39405932D01*
X45218119Y-38425224D01*
X45277105Y-38413492D01*
X45449994Y-38341879D01*
X45605590Y-38237913D01*
X45737913Y-38105590D01*
X45841879Y-37949994D01*
X45913492Y-37777105D01*
X45925225Y-37718119D01*
X46905932Y-38698826D01*
X46905933Y-38698826D01*
X47022290Y-38497292D01*
X47022295Y-38497281D01*
X47135161Y-38224800D01*
X47135164Y-38224790D01*
X47211500Y-37939897D01*
X47211503Y-37939884D01*
X47249998Y-37647483D01*
X47250000Y-37647466D01*
X47250000Y-37352533D01*
X47249998Y-37352516D01*
X47211503Y-37060115D01*
X47211500Y-37060102D01*
X47135164Y-36775209D01*
X47135161Y-36775199D01*
X47022295Y-36502718D01*
X47022290Y-36502707D01*
X46905932Y-36301172D01*
X45925224Y-37281879D01*
X45913492Y-37222895D01*
X45841879Y-37050006D01*
X45737913Y-36894410D01*
X45605590Y-36762087D01*
X45449994Y-36658121D01*
X45277105Y-36586508D01*
X45218118Y-36574774D01*
X46198826Y-35594066D01*
X46198826Y-35594065D01*
X45997292Y-35477709D01*
X45997281Y-35477704D01*
X45724800Y-35364838D01*
X45724790Y-35364835D01*
X45439897Y-35288499D01*
X45439884Y-35288496D01*
X45147483Y-35250001D01*
X45147466Y-35250000D01*
X44852534Y-35250000D01*
X44852516Y-35250001D01*
X44560115Y-35288496D01*
X44560102Y-35288499D01*
X44275209Y-35364835D01*
X44275199Y-35364838D01*
X44002721Y-35477702D01*
X44002712Y-35477707D01*
X43801173Y-35594066D01*
X44781881Y-36574774D01*
X44722895Y-36586508D01*
X44550006Y-36658121D01*
X44394410Y-36762087D01*
X44262087Y-36894410D01*
X44158121Y-37050006D01*
X44086508Y-37222895D01*
X44074774Y-37281881D01*
X43094066Y-36301173D01*
X42977707Y-36502712D01*
X42977702Y-36502721D01*
X42864838Y-36775199D01*
X42864835Y-36775209D01*
X42788499Y-37060102D01*
X42788496Y-37060115D01*
X42750001Y-37352516D01*
X42750000Y-37352533D01*
X35925000Y-37352533D01*
X35924998Y-37352516D01*
X35886503Y-37060115D01*
X35886500Y-37060102D01*
X35810164Y-36775209D01*
X35810161Y-36775199D01*
X35697295Y-36502718D01*
X35697290Y-36502707D01*
X35580932Y-36301172D01*
X34600224Y-37281879D01*
X34588492Y-37222895D01*
X34516879Y-37050006D01*
X34412913Y-36894410D01*
X34280590Y-36762087D01*
X34124994Y-36658121D01*
X33952105Y-36586508D01*
X33893118Y-36574774D01*
X34873826Y-35594066D01*
X34873826Y-35594065D01*
X34672292Y-35477709D01*
X34672281Y-35477704D01*
X34399800Y-35364838D01*
X34399790Y-35364835D01*
X34114897Y-35288499D01*
X34114884Y-35288496D01*
X33822483Y-35250001D01*
X33822466Y-35250000D01*
X33527534Y-35250000D01*
X33527516Y-35250001D01*
X33235115Y-35288496D01*
X33235102Y-35288499D01*
X32950209Y-35364835D01*
X32950199Y-35364838D01*
X32677721Y-35477702D01*
X32677712Y-35477707D01*
X32476173Y-35594066D01*
X33456881Y-36574774D01*
X33397895Y-36586508D01*
X33225006Y-36658121D01*
X33069410Y-36762087D01*
X32937087Y-36894410D01*
X32833121Y-37050006D01*
X32761508Y-37222895D01*
X32749774Y-37281881D01*
X31769066Y-36301173D01*
X31652707Y-36502712D01*
X31652702Y-36502721D01*
X31539838Y-36775199D01*
X31539835Y-36775209D01*
X31463499Y-37060102D01*
X31463496Y-37060115D01*
X31425001Y-37352516D01*
X31425000Y-37352533D01*
X20500500Y-37352533D01*
X20500500Y-31469868D01*
X31674500Y-31469868D01*
X31674500Y-33530130D01*
X31689265Y-33680051D01*
X31689266Y-33680053D01*
X31747619Y-33872418D01*
X31842379Y-34049703D01*
X31842381Y-34049706D01*
X31969905Y-34205094D01*
X32125293Y-34332618D01*
X32125297Y-34332621D01*
X32302582Y-34427381D01*
X32494947Y-34485734D01*
X32494946Y-34485734D01*
X32505539Y-34486777D01*
X32644865Y-34500500D01*
X34705134Y-34500499D01*
X34855053Y-34485734D01*
X35047418Y-34427381D01*
X35224703Y-34332621D01*
X35380094Y-34205094D01*
X35507621Y-34049703D01*
X35602381Y-33872418D01*
X35660734Y-33680053D01*
X35675500Y-33530135D01*
X35675499Y-31469868D01*
X42999500Y-31469868D01*
X42999500Y-33530130D01*
X43014265Y-33680051D01*
X43014266Y-33680053D01*
X43072619Y-33872418D01*
X43167379Y-34049703D01*
X43167381Y-34049706D01*
X43294905Y-34205094D01*
X43450293Y-34332618D01*
X43450297Y-34332621D01*
X43627582Y-34427381D01*
X43819947Y-34485734D01*
X43819946Y-34485734D01*
X43830539Y-34486777D01*
X43969865Y-34500500D01*
X46030134Y-34500499D01*
X46180053Y-34485734D01*
X46372418Y-34427381D01*
X46549703Y-34332621D01*
X46705094Y-34205094D01*
X46832621Y-34049703D01*
X46927381Y-33872418D01*
X46985734Y-33680053D01*
X47000500Y-33530135D01*
X47000499Y-31469866D01*
X46985734Y-31319947D01*
X46927381Y-31127582D01*
X46832621Y-30950297D01*
X46832618Y-30950293D01*
X46705094Y-30794905D01*
X46549706Y-30667381D01*
X46549704Y-30667380D01*
X46549703Y-30667379D01*
X46372418Y-30572619D01*
X46180053Y-30514266D01*
X46180050Y-30514265D01*
X46180053Y-30514265D01*
X46072503Y-30503672D01*
X46030135Y-30499500D01*
X46030131Y-30499500D01*
X43969869Y-30499500D01*
X43819948Y-30514265D01*
X43627582Y-30572619D01*
X43450293Y-30667381D01*
X43294905Y-30794905D01*
X43167381Y-30950293D01*
X43072619Y-31127582D01*
X43014265Y-31319948D01*
X42999500Y-31469868D01*
X35675499Y-31469868D01*
X35675499Y-31469866D01*
X35660734Y-31319947D01*
X35602381Y-31127582D01*
X35507621Y-30950297D01*
X35507618Y-30950293D01*
X35380094Y-30794905D01*
X35224706Y-30667381D01*
X35224704Y-30667380D01*
X35224703Y-30667379D01*
X35047418Y-30572619D01*
X34855053Y-30514266D01*
X34855050Y-30514265D01*
X34855053Y-30514265D01*
X34747503Y-30503672D01*
X34705135Y-30499500D01*
X34705131Y-30499500D01*
X32644869Y-30499500D01*
X32494948Y-30514265D01*
X32302582Y-30572619D01*
X32125293Y-30667381D01*
X31969905Y-30794905D01*
X31842381Y-30950293D01*
X31747619Y-31127582D01*
X31689265Y-31319948D01*
X31674500Y-31469868D01*
X20500500Y-31469868D01*
X20500500Y-29406379D01*
X22724500Y-29406379D01*
X22724500Y-29593620D01*
X22761025Y-29777243D01*
X22761027Y-29777251D01*
X22832676Y-29950228D01*
X22832681Y-29950237D01*
X22936697Y-30105907D01*
X22936700Y-30105911D01*
X23069088Y-30238299D01*
X23069092Y-30238302D01*
X23224762Y-30342318D01*
X23224768Y-30342321D01*
X23224769Y-30342322D01*
X23397749Y-30413973D01*
X23581379Y-30450499D01*
X23581383Y-30450500D01*
X23581384Y-30450500D01*
X23768617Y-30450500D01*
X23768618Y-30450499D01*
X23952251Y-30413973D01*
X24125231Y-30342322D01*
X24280908Y-30238302D01*
X24413302Y-30105908D01*
X24517322Y-29950231D01*
X24588973Y-29777251D01*
X24625500Y-29593616D01*
X24625500Y-29406384D01*
X24625499Y-29406379D01*
X49049500Y-29406379D01*
X49049500Y-29593620D01*
X49086025Y-29777243D01*
X49086027Y-29777251D01*
X49157676Y-29950228D01*
X49157681Y-29950237D01*
X49261697Y-30105907D01*
X49261700Y-30105911D01*
X49394088Y-30238299D01*
X49394092Y-30238302D01*
X49549762Y-30342318D01*
X49549768Y-30342321D01*
X49549769Y-30342322D01*
X49722749Y-30413973D01*
X49906379Y-30450499D01*
X49906383Y-30450500D01*
X49906384Y-30450500D01*
X50093617Y-30450500D01*
X50093618Y-30450499D01*
X50277251Y-30413973D01*
X50450231Y-30342322D01*
X50605908Y-30238302D01*
X50738302Y-30105908D01*
X50842322Y-29950231D01*
X50913973Y-29777251D01*
X50950500Y-29593616D01*
X50950500Y-29406384D01*
X50913973Y-29222749D01*
X50842322Y-29049769D01*
X50842321Y-29049768D01*
X50842318Y-29049762D01*
X50738302Y-28894092D01*
X50738299Y-28894088D01*
X50605911Y-28761700D01*
X50605907Y-28761697D01*
X50450237Y-28657681D01*
X50450228Y-28657676D01*
X50277251Y-28586027D01*
X50277243Y-28586025D01*
X50093620Y-28549500D01*
X50093616Y-28549500D01*
X49906384Y-28549500D01*
X49906379Y-28549500D01*
X49722756Y-28586025D01*
X49722748Y-28586027D01*
X49549771Y-28657676D01*
X49549762Y-28657681D01*
X49394092Y-28761697D01*
X49394088Y-28761700D01*
X49261700Y-28894088D01*
X49261697Y-28894092D01*
X49157681Y-29049762D01*
X49157676Y-29049771D01*
X49086027Y-29222748D01*
X49086025Y-29222756D01*
X49049500Y-29406379D01*
X24625499Y-29406379D01*
X24588973Y-29222749D01*
X24517322Y-29049769D01*
X24517321Y-29049768D01*
X24517318Y-29049762D01*
X24413302Y-28894092D01*
X24413299Y-28894088D01*
X24280911Y-28761700D01*
X24280907Y-28761697D01*
X24125237Y-28657681D01*
X24125228Y-28657676D01*
X23952251Y-28586027D01*
X23952243Y-28586025D01*
X23768620Y-28549500D01*
X23768616Y-28549500D01*
X23581384Y-28549500D01*
X23581379Y-28549500D01*
X23397756Y-28586025D01*
X23397748Y-28586027D01*
X23224771Y-28657676D01*
X23224762Y-28657681D01*
X23069092Y-28761697D01*
X23069088Y-28761700D01*
X22936700Y-28894088D01*
X22936697Y-28894092D01*
X22832681Y-29049762D01*
X22832676Y-29049771D01*
X22761027Y-29222748D01*
X22761025Y-29222756D01*
X22724500Y-29406379D01*
X20500500Y-29406379D01*
X20500500Y-28124000D01*
X20520185Y-28056961D01*
X20572989Y-28011206D01*
X20624500Y-28000000D01*
X59375500Y-28000000D01*
X59442539Y-28019685D01*
G37*
%TD.AperFunction*%
%TD*%
%TA.AperFunction,Conductor*%
%TO.N,GND*%
G36*
X41215658Y-51721763D02*
G01*
X41306814Y-51774392D01*
X41434108Y-51808500D01*
X41434110Y-51808500D01*
X41565890Y-51808500D01*
X41565892Y-51808500D01*
X41693186Y-51774392D01*
X41784341Y-51721763D01*
X41833840Y-51708500D01*
X43647273Y-51708500D01*
X48916160Y-51708500D01*
X48965658Y-51721763D01*
X49056814Y-51774392D01*
X49184108Y-51808500D01*
X49184110Y-51808500D01*
X49315890Y-51808500D01*
X49315892Y-51808500D01*
X49443186Y-51774392D01*
X49534341Y-51721763D01*
X49583840Y-51708500D01*
X51193099Y-51708500D01*
X51251290Y-51727407D01*
X51263102Y-51737496D01*
X51557086Y-52031479D01*
X51557091Y-52031483D01*
X51648408Y-52084205D01*
X51648406Y-52084205D01*
X51648410Y-52084206D01*
X51648412Y-52084207D01*
X51750273Y-52111500D01*
X51750275Y-52111500D01*
X52122543Y-52111500D01*
X52180734Y-52130407D01*
X52216698Y-52179907D01*
X52216698Y-52241093D01*
X52202636Y-52268690D01*
X52185379Y-52292442D01*
X52185376Y-52292446D01*
X52088904Y-52481784D01*
X52023241Y-52683877D01*
X52012768Y-52749999D01*
X52012769Y-52750000D01*
X52906988Y-52750000D01*
X52874075Y-52807007D01*
X52840000Y-52934174D01*
X52840000Y-53065826D01*
X52874075Y-53192993D01*
X52906988Y-53250000D01*
X52012769Y-53250000D01*
X52023241Y-53316122D01*
X52088904Y-53518215D01*
X52185375Y-53707552D01*
X52310277Y-53879464D01*
X52460535Y-54029722D01*
X52632447Y-54154624D01*
X52821784Y-54251095D01*
X53023878Y-54316759D01*
X53078176Y-54325359D01*
X53132692Y-54353136D01*
X53160470Y-54407653D01*
X53150899Y-54468085D01*
X53107634Y-54511350D01*
X53082003Y-54520238D01*
X53033581Y-54529869D01*
X52842402Y-54609058D01*
X52670348Y-54724020D01*
X52524020Y-54870348D01*
X52409058Y-55042402D01*
X52329869Y-55233581D01*
X52289500Y-55436532D01*
X52289500Y-55643467D01*
X52329869Y-55846418D01*
X52409058Y-56037597D01*
X52480066Y-56143868D01*
X52524023Y-56209655D01*
X52670345Y-56355977D01*
X52842402Y-56470941D01*
X53033580Y-56550130D01*
X53082003Y-56559762D01*
X53135386Y-56589657D01*
X53161003Y-56645221D01*
X53149067Y-56705231D01*
X53104138Y-56746765D01*
X53078177Y-56754640D01*
X53023877Y-56763241D01*
X52821784Y-56828904D01*
X52632446Y-56925376D01*
X52632442Y-56925378D01*
X52578282Y-56964728D01*
X53210591Y-57597037D01*
X53147007Y-57614075D01*
X53032993Y-57679901D01*
X52939901Y-57772993D01*
X52874075Y-57887007D01*
X52857037Y-57950591D01*
X52224728Y-57318282D01*
X52185378Y-57372442D01*
X52185376Y-57372446D01*
X52088904Y-57561784D01*
X52023240Y-57763878D01*
X51990000Y-57973749D01*
X51990000Y-58186250D01*
X52023240Y-58396121D01*
X52088904Y-58598215D01*
X52185376Y-58787553D01*
X52185380Y-58787559D01*
X52224728Y-58841716D01*
X52224729Y-58841716D01*
X52857037Y-58209407D01*
X52874075Y-58272993D01*
X52939901Y-58387007D01*
X53032993Y-58480099D01*
X53147007Y-58545925D01*
X53210589Y-58562962D01*
X52578282Y-59195269D01*
X52578282Y-59195270D01*
X52632440Y-59234619D01*
X52632446Y-59234623D01*
X52821784Y-59331095D01*
X53023878Y-59396759D01*
X53233750Y-59430000D01*
X53446250Y-59430000D01*
X53656121Y-59396759D01*
X53858215Y-59331095D01*
X54047556Y-59234620D01*
X54101716Y-59195270D01*
X53469408Y-58562962D01*
X53532993Y-58545925D01*
X53647007Y-58480099D01*
X53740099Y-58387007D01*
X53805925Y-58272993D01*
X53822962Y-58209408D01*
X54455270Y-58841716D01*
X54494620Y-58787556D01*
X54591095Y-58598215D01*
X54656759Y-58396121D01*
X54690000Y-58186250D01*
X54690000Y-57973749D01*
X54656759Y-57763878D01*
X54591095Y-57561784D01*
X54494623Y-57372446D01*
X54494619Y-57372440D01*
X54455270Y-57318282D01*
X54455269Y-57318282D01*
X53822962Y-57950589D01*
X53805925Y-57887007D01*
X53740099Y-57772993D01*
X53647007Y-57679901D01*
X53532993Y-57614075D01*
X53469407Y-57597037D01*
X54101716Y-56964729D01*
X54101716Y-56964728D01*
X54047559Y-56925380D01*
X54047553Y-56925376D01*
X53858215Y-56828904D01*
X53656122Y-56763241D01*
X53601822Y-56754640D01*
X53547306Y-56726862D01*
X53519529Y-56672345D01*
X53529101Y-56611913D01*
X53572366Y-56568649D01*
X53597993Y-56559762D01*
X53646420Y-56550130D01*
X53837598Y-56470941D01*
X54009655Y-56355977D01*
X54155977Y-56209655D01*
X54270941Y-56037598D01*
X54350130Y-55846420D01*
X54390500Y-55643465D01*
X54390500Y-55436535D01*
X54350130Y-55233580D01*
X54270941Y-55042402D01*
X54155977Y-54870345D01*
X54009655Y-54724023D01*
X54002449Y-54719208D01*
X53837597Y-54609058D01*
X53646418Y-54529869D01*
X53597996Y-54520238D01*
X53544612Y-54490341D01*
X53518996Y-54434776D01*
X53530933Y-54374766D01*
X53575863Y-54333234D01*
X53601823Y-54325359D01*
X53656121Y-54316759D01*
X53858215Y-54251095D01*
X54047552Y-54154624D01*
X54219464Y-54029722D01*
X54369722Y-53879464D01*
X54494624Y-53707552D01*
X54591095Y-53518215D01*
X54656758Y-53316122D01*
X54667231Y-53250000D01*
X53773012Y-53250000D01*
X53805925Y-53192993D01*
X53840000Y-53065826D01*
X53840000Y-52934174D01*
X53805925Y-52807007D01*
X53773012Y-52750000D01*
X54667231Y-52750000D01*
X54667231Y-52749999D01*
X54656758Y-52683877D01*
X54591095Y-52481784D01*
X54494623Y-52292446D01*
X54494620Y-52292442D01*
X54477364Y-52268690D01*
X54458457Y-52210499D01*
X54477365Y-52152308D01*
X54526865Y-52116345D01*
X54557457Y-52111500D01*
X54681725Y-52111500D01*
X54681727Y-52111500D01*
X54783588Y-52084207D01*
X54851499Y-52044997D01*
X54911347Y-52032276D01*
X54967243Y-52057162D01*
X54997836Y-52110150D01*
X55000000Y-52130734D01*
X55000000Y-54936130D01*
X54983316Y-54991130D01*
X54949059Y-55042399D01*
X54869869Y-55233581D01*
X54829500Y-55436532D01*
X54829500Y-55643467D01*
X54869869Y-55846418D01*
X54949060Y-56037601D01*
X54983315Y-56088867D01*
X55000000Y-56143868D01*
X55000000Y-85800500D01*
X54981093Y-85858691D01*
X54931593Y-85894655D01*
X54901000Y-85899500D01*
X52706901Y-85899500D01*
X52699303Y-85897031D01*
X52691414Y-85898281D01*
X52670758Y-85887756D01*
X52648710Y-85880593D01*
X52636897Y-85870504D01*
X52499496Y-85733103D01*
X52471719Y-85678586D01*
X52470500Y-85663099D01*
X52470500Y-75893274D01*
X52470500Y-75893273D01*
X52443207Y-75791413D01*
X52443207Y-75791412D01*
X52443207Y-75791411D01*
X52390483Y-75700091D01*
X52390481Y-75700089D01*
X52390480Y-75700087D01*
X48251913Y-71561520D01*
X48251910Y-71561518D01*
X48251908Y-71561516D01*
X48160591Y-71508794D01*
X48160593Y-71508794D01*
X48121070Y-71498204D01*
X48058727Y-71481500D01*
X48058725Y-71481500D01*
X46561840Y-71481500D01*
X46512341Y-71468236D01*
X46421186Y-71415608D01*
X46293892Y-71381500D01*
X46162108Y-71381500D01*
X46084200Y-71402375D01*
X46034809Y-71415609D01*
X45920690Y-71481496D01*
X45827496Y-71574690D01*
X45761609Y-71688809D01*
X45761608Y-71688814D01*
X45727500Y-71816108D01*
X45727500Y-71947892D01*
X45757579Y-72060151D01*
X45761609Y-72075190D01*
X45827496Y-72189309D01*
X45827498Y-72189311D01*
X45827500Y-72189314D01*
X45920686Y-72282500D01*
X45920688Y-72282501D01*
X45920690Y-72282503D01*
X46034810Y-72348390D01*
X46034808Y-72348390D01*
X46034812Y-72348391D01*
X46034814Y-72348392D01*
X46162108Y-72382500D01*
X46162110Y-72382500D01*
X46293890Y-72382500D01*
X46293892Y-72382500D01*
X46421186Y-72348392D01*
X46512341Y-72295763D01*
X46561840Y-72282500D01*
X47799099Y-72282500D01*
X47857290Y-72301407D01*
X47869103Y-72311496D01*
X48140843Y-72583236D01*
X48168620Y-72637753D01*
X48159049Y-72698185D01*
X48115784Y-72741450D01*
X48065216Y-72750140D01*
X48065216Y-72751500D01*
X46561840Y-72751500D01*
X46512341Y-72738236D01*
X46421186Y-72685608D01*
X46293892Y-72651500D01*
X46162108Y-72651500D01*
X46084200Y-72672375D01*
X46034809Y-72685609D01*
X45920690Y-72751496D01*
X45827496Y-72844690D01*
X45761609Y-72958809D01*
X45761608Y-72958814D01*
X45727500Y-73086108D01*
X45727500Y-73217892D01*
X45757579Y-73330151D01*
X45761609Y-73345190D01*
X45827496Y-73459309D01*
X45827498Y-73459311D01*
X45827500Y-73459314D01*
X45920686Y-73552500D01*
X45920688Y-73552501D01*
X45920690Y-73552503D01*
X46034810Y-73618390D01*
X46034808Y-73618390D01*
X46034812Y-73618391D01*
X46034814Y-73618392D01*
X46162108Y-73652500D01*
X46162110Y-73652500D01*
X46293890Y-73652500D01*
X46293892Y-73652500D01*
X46421186Y-73618392D01*
X46512341Y-73565763D01*
X46561840Y-73552500D01*
X47799099Y-73552500D01*
X47857290Y-73571407D01*
X47869103Y-73581496D01*
X48140843Y-73853236D01*
X48168620Y-73907753D01*
X48159049Y-73968185D01*
X48115784Y-74011450D01*
X48065216Y-74020140D01*
X48065216Y-74021500D01*
X46561840Y-74021500D01*
X46512341Y-74008236D01*
X46421186Y-73955608D01*
X46293892Y-73921500D01*
X46162108Y-73921500D01*
X46084200Y-73942375D01*
X46034809Y-73955609D01*
X45920690Y-74021496D01*
X45827496Y-74114690D01*
X45761609Y-74228809D01*
X45761608Y-74228814D01*
X45727500Y-74356108D01*
X45727500Y-74487892D01*
X45757579Y-74600151D01*
X45761609Y-74615190D01*
X45827496Y-74729309D01*
X45827498Y-74729311D01*
X45827500Y-74729314D01*
X45920686Y-74822500D01*
X45920688Y-74822501D01*
X45920690Y-74822503D01*
X46034810Y-74888390D01*
X46034808Y-74888390D01*
X46034812Y-74888391D01*
X46034814Y-74888392D01*
X46162108Y-74922500D01*
X46162110Y-74922500D01*
X46293890Y-74922500D01*
X46293892Y-74922500D01*
X46421186Y-74888392D01*
X46512341Y-74835763D01*
X46561840Y-74822500D01*
X47799099Y-74822500D01*
X47857290Y-74841407D01*
X47869103Y-74851496D01*
X48140843Y-75123236D01*
X48168620Y-75177753D01*
X48159049Y-75238185D01*
X48115784Y-75281450D01*
X48065216Y-75290140D01*
X48065216Y-75291500D01*
X46561840Y-75291500D01*
X46512341Y-75278236D01*
X46421186Y-75225608D01*
X46293892Y-75191500D01*
X46162108Y-75191500D01*
X46084200Y-75212375D01*
X46034809Y-75225609D01*
X45920690Y-75291496D01*
X45827496Y-75384690D01*
X45761609Y-75498809D01*
X45761608Y-75498814D01*
X45727500Y-75626108D01*
X45727500Y-75757892D01*
X45736482Y-75791412D01*
X45761609Y-75885190D01*
X45827496Y-75999309D01*
X45827498Y-75999311D01*
X45827500Y-75999314D01*
X45920686Y-76092500D01*
X45920688Y-76092501D01*
X45920690Y-76092503D01*
X46034810Y-76158390D01*
X46034808Y-76158390D01*
X46034812Y-76158391D01*
X46034814Y-76158392D01*
X46162108Y-76192500D01*
X46162110Y-76192500D01*
X46293890Y-76192500D01*
X46293892Y-76192500D01*
X46421186Y-76158392D01*
X46512341Y-76105763D01*
X46561840Y-76092500D01*
X47799099Y-76092500D01*
X47857290Y-76111407D01*
X47869103Y-76121496D01*
X49354504Y-77606896D01*
X49382281Y-77661413D01*
X49383500Y-77676900D01*
X49383500Y-79058100D01*
X49364593Y-79116291D01*
X49315093Y-79152255D01*
X49253907Y-79152255D01*
X49214498Y-79128105D01*
X47997913Y-77911520D01*
X47997910Y-77911518D01*
X47997908Y-77911516D01*
X47906591Y-77858794D01*
X47906593Y-77858794D01*
X47867070Y-77848204D01*
X47804727Y-77831500D01*
X47804725Y-77831500D01*
X46561840Y-77831500D01*
X46512341Y-77818236D01*
X46421186Y-77765608D01*
X46293892Y-77731500D01*
X46162108Y-77731500D01*
X46084200Y-77752375D01*
X46034809Y-77765609D01*
X45920690Y-77831496D01*
X45827496Y-77924690D01*
X45761609Y-78038809D01*
X45761608Y-78038814D01*
X45727500Y-78166108D01*
X45727500Y-78297892D01*
X45757579Y-78410151D01*
X45761609Y-78425190D01*
X45827496Y-78539309D01*
X45827498Y-78539311D01*
X45827500Y-78539314D01*
X45920686Y-78632500D01*
X45920688Y-78632501D01*
X45920690Y-78632503D01*
X46034810Y-78698390D01*
X46034808Y-78698390D01*
X46034812Y-78698391D01*
X46034814Y-78698392D01*
X46162108Y-78732500D01*
X46162110Y-78732500D01*
X46293890Y-78732500D01*
X46293892Y-78732500D01*
X46421186Y-78698392D01*
X46512341Y-78645763D01*
X46561840Y-78632500D01*
X47545099Y-78632500D01*
X47603290Y-78651407D01*
X47615103Y-78661496D01*
X47886843Y-78933236D01*
X47914620Y-78987753D01*
X47905049Y-79048185D01*
X47861784Y-79091450D01*
X47811216Y-79100140D01*
X47811216Y-79101500D01*
X46561840Y-79101500D01*
X46512341Y-79088236D01*
X46421186Y-79035608D01*
X46293892Y-79001500D01*
X46162108Y-79001500D01*
X46084200Y-79022375D01*
X46034809Y-79035609D01*
X45920690Y-79101496D01*
X45827496Y-79194690D01*
X45761609Y-79308809D01*
X45761608Y-79308814D01*
X45727500Y-79436108D01*
X45727500Y-79567892D01*
X45754295Y-79667893D01*
X45761609Y-79695190D01*
X45827496Y-79809309D01*
X45827498Y-79809311D01*
X45827500Y-79809314D01*
X45920686Y-79902500D01*
X45920688Y-79902501D01*
X45920690Y-79902503D01*
X46034810Y-79968390D01*
X46034808Y-79968390D01*
X46034812Y-79968391D01*
X46034814Y-79968392D01*
X46162108Y-80002500D01*
X46162110Y-80002500D01*
X46293890Y-80002500D01*
X46293892Y-80002500D01*
X46421186Y-79968392D01*
X46512341Y-79915763D01*
X46561840Y-79902500D01*
X47545099Y-79902500D01*
X47603290Y-79921407D01*
X47615103Y-79931496D01*
X47830504Y-80146897D01*
X47858281Y-80201414D01*
X47859500Y-80216901D01*
X47859500Y-86661099D01*
X47840593Y-86719290D01*
X47830503Y-86731103D01*
X47450862Y-87110743D01*
X47406483Y-87136365D01*
X47304814Y-87163608D01*
X47304812Y-87163608D01*
X47304808Y-87163610D01*
X47190690Y-87229496D01*
X47097496Y-87322690D01*
X47031609Y-87436809D01*
X47031608Y-87436814D01*
X46997500Y-87564108D01*
X46997500Y-87695892D01*
X47011936Y-87749769D01*
X47031609Y-87823190D01*
X47097496Y-87937309D01*
X47097498Y-87937311D01*
X47097500Y-87937314D01*
X47190686Y-88030500D01*
X47190688Y-88030501D01*
X47190690Y-88030503D01*
X47304810Y-88096390D01*
X47304808Y-88096390D01*
X47304812Y-88096391D01*
X47304814Y-88096392D01*
X47432108Y-88130500D01*
X47432110Y-88130500D01*
X47532421Y-88130500D01*
X47590612Y-88149407D01*
X47626576Y-88198907D01*
X47628047Y-88255121D01*
X47605500Y-88339273D01*
X47605500Y-88339274D01*
X47605500Y-88817846D01*
X47602127Y-88843466D01*
X47599500Y-88853268D01*
X47599500Y-104167099D01*
X47580593Y-104225290D01*
X47570503Y-104237103D01*
X47196863Y-104610742D01*
X47152484Y-104636364D01*
X47050814Y-104663607D01*
X47050810Y-104663609D01*
X46936690Y-104729496D01*
X46843496Y-104822690D01*
X46777609Y-104936809D01*
X46777608Y-104936814D01*
X46743500Y-105064108D01*
X46743500Y-105195892D01*
X46773579Y-105308151D01*
X46777609Y-105323190D01*
X46843496Y-105437309D01*
X46843498Y-105437311D01*
X46843500Y-105437314D01*
X46936686Y-105530500D01*
X46936688Y-105530501D01*
X46936690Y-105530503D01*
X47050810Y-105596390D01*
X47050808Y-105596390D01*
X47050812Y-105596391D01*
X47050814Y-105596392D01*
X47178108Y-105630500D01*
X47178110Y-105630500D01*
X47309890Y-105630500D01*
X47309892Y-105630500D01*
X47437186Y-105596392D01*
X47437188Y-105596390D01*
X47437190Y-105596390D01*
X47551309Y-105530503D01*
X47551309Y-105530502D01*
X47551314Y-105530500D01*
X47644500Y-105437314D01*
X47710392Y-105323186D01*
X47737633Y-105221514D01*
X47763253Y-105177138D01*
X47827542Y-105112849D01*
X47882057Y-105085074D01*
X47942489Y-105094645D01*
X47985754Y-105137910D01*
X47996544Y-105182889D01*
X47994266Y-111898597D01*
X47975339Y-111956781D01*
X47925827Y-111992728D01*
X47895240Y-111997563D01*
X33198631Y-111993772D01*
X33140446Y-111974850D01*
X33104495Y-111925340D01*
X33104510Y-111864155D01*
X33140487Y-111814664D01*
X33149148Y-111809040D01*
X33200314Y-111779500D01*
X33293500Y-111686314D01*
X33359392Y-111572186D01*
X33393500Y-111444892D01*
X33393500Y-111313108D01*
X33359392Y-111185814D01*
X33359390Y-111185811D01*
X33359390Y-111185809D01*
X33306764Y-111094659D01*
X33293500Y-111045159D01*
X33293500Y-97102274D01*
X33293500Y-97102273D01*
X33271364Y-97019658D01*
X33271364Y-97019657D01*
X33271364Y-97019656D01*
X33269183Y-97011522D01*
X33266207Y-97000412D01*
X33247295Y-96967655D01*
X33213483Y-96909091D01*
X33213482Y-96909090D01*
X33213481Y-96909089D01*
X33213480Y-96909087D01*
X31417496Y-95113103D01*
X31389719Y-95058586D01*
X31388500Y-95043099D01*
X31388500Y-90934108D01*
X35599500Y-90934108D01*
X35599500Y-91065892D01*
X35612533Y-91114532D01*
X35633609Y-91193190D01*
X35699496Y-91307309D01*
X35699498Y-91307311D01*
X35699500Y-91307314D01*
X35792686Y-91400500D01*
X35792688Y-91400501D01*
X35792690Y-91400503D01*
X35906810Y-91466390D01*
X35906808Y-91466390D01*
X35906812Y-91466391D01*
X35906814Y-91466392D01*
X36034108Y-91500500D01*
X36034110Y-91500500D01*
X36107673Y-91500500D01*
X36165864Y-91519407D01*
X36201828Y-91568907D01*
X36203210Y-91621657D01*
X36203347Y-91621676D01*
X36203233Y-91622539D01*
X36203300Y-91625118D01*
X36202500Y-91628108D01*
X36202500Y-91759892D01*
X36215096Y-91806901D01*
X36236609Y-91887190D01*
X36302496Y-92001309D01*
X36302498Y-92001311D01*
X36302500Y-92001314D01*
X36395686Y-92094500D01*
X36509814Y-92160392D01*
X36611483Y-92187633D01*
X36655863Y-92213255D01*
X36908504Y-92465896D01*
X36936281Y-92520413D01*
X36937500Y-92535900D01*
X36937500Y-100023273D01*
X36937500Y-100128727D01*
X36943200Y-100150000D01*
X36964794Y-100230592D01*
X37017516Y-100321908D01*
X37017518Y-100321910D01*
X37017520Y-100321913D01*
X39956505Y-103260898D01*
X39984281Y-103315413D01*
X39985500Y-103330900D01*
X39985500Y-106854159D01*
X39972236Y-106903659D01*
X39919609Y-106994809D01*
X39919608Y-106994814D01*
X39885500Y-107122108D01*
X39885500Y-107253892D01*
X39911711Y-107351712D01*
X39919609Y-107381190D01*
X39985496Y-107495309D01*
X39985498Y-107495311D01*
X39985500Y-107495314D01*
X39996761Y-107506575D01*
X40024537Y-107561090D01*
X40014966Y-107621522D01*
X39976258Y-107662313D01*
X39951687Y-107676499D01*
X39858496Y-107769690D01*
X39792609Y-107883809D01*
X39792608Y-107883814D01*
X39758500Y-108011108D01*
X39758500Y-108142892D01*
X39788579Y-108255151D01*
X39792609Y-108270190D01*
X39858496Y-108384309D01*
X39858498Y-108384311D01*
X39858500Y-108384314D01*
X39951686Y-108477500D01*
X39951688Y-108477501D01*
X39951690Y-108477503D01*
X40065810Y-108543390D01*
X40065808Y-108543390D01*
X40065812Y-108543391D01*
X40065814Y-108543392D01*
X40193108Y-108577500D01*
X40193110Y-108577500D01*
X40324890Y-108577500D01*
X40324892Y-108577500D01*
X40452186Y-108543392D01*
X40543341Y-108490763D01*
X40592840Y-108477500D01*
X40611877Y-108477500D01*
X40622990Y-108478126D01*
X40647441Y-108480888D01*
X40647441Y-108480887D01*
X40647443Y-108480888D01*
X40669962Y-108477500D01*
X40692727Y-108477500D01*
X40721877Y-108469689D01*
X40751723Y-108465199D01*
X40765810Y-108459057D01*
X40779744Y-108454183D01*
X40794587Y-108450207D01*
X40820725Y-108435115D01*
X40848390Y-108423055D01*
X40866193Y-108408864D01*
X40885913Y-108397480D01*
X40907254Y-108376138D01*
X40930854Y-108357329D01*
X40944378Y-108339014D01*
X40960480Y-108322913D01*
X40972788Y-108301592D01*
X40978884Y-108292286D01*
X40995204Y-108270186D01*
X41452378Y-107651094D01*
X41468480Y-107634993D01*
X41483571Y-107608853D01*
X41501498Y-107584578D01*
X41507113Y-107570280D01*
X41513527Y-107556967D01*
X41521207Y-107543667D01*
X41527575Y-107519896D01*
X41531053Y-107509333D01*
X41540052Y-107486425D01*
X41542118Y-107468130D01*
X41542608Y-107463791D01*
X41548500Y-107441807D01*
X41548500Y-107411632D01*
X41551888Y-107381637D01*
X41549601Y-107366441D01*
X41548500Y-107351712D01*
X41548500Y-102563274D01*
X41548500Y-102563273D01*
X41521207Y-102461413D01*
X41521207Y-102461412D01*
X41521207Y-102461411D01*
X41468483Y-102370091D01*
X41468482Y-102370090D01*
X41468481Y-102370089D01*
X41468480Y-102370087D01*
X38529496Y-99431103D01*
X38501719Y-99376586D01*
X38500500Y-99361099D01*
X38500500Y-91547275D01*
X38500499Y-91547269D01*
X38494377Y-91524420D01*
X38473207Y-91445412D01*
X38473205Y-91445409D01*
X38473205Y-91445407D01*
X38420483Y-91354091D01*
X38420481Y-91354089D01*
X38420480Y-91354087D01*
X37745913Y-90679520D01*
X37745910Y-90679518D01*
X37745908Y-90679516D01*
X37654591Y-90626794D01*
X37654593Y-90626794D01*
X37615070Y-90616204D01*
X37552727Y-90599500D01*
X37552725Y-90599500D01*
X36433840Y-90599500D01*
X36384341Y-90586236D01*
X36293186Y-90533608D01*
X36165892Y-90499500D01*
X36034108Y-90499500D01*
X35956200Y-90520375D01*
X35906809Y-90533609D01*
X35792690Y-90599496D01*
X35699496Y-90692690D01*
X35633609Y-90806809D01*
X35625327Y-90837720D01*
X35599500Y-90934108D01*
X31388500Y-90934108D01*
X31388500Y-90640689D01*
X31407407Y-90582498D01*
X31456907Y-90546534D01*
X31518093Y-90546534D01*
X31537001Y-90554953D01*
X31556814Y-90566392D01*
X31684108Y-90600500D01*
X31684110Y-90600500D01*
X31815890Y-90600500D01*
X31815892Y-90600500D01*
X31943186Y-90566392D01*
X31943188Y-90566390D01*
X31943190Y-90566390D01*
X32057309Y-90500503D01*
X32057309Y-90500502D01*
X32057314Y-90500500D01*
X32150500Y-90407314D01*
X32216392Y-90293186D01*
X32250500Y-90165892D01*
X32250500Y-90034108D01*
X32216392Y-89906814D01*
X32216390Y-89906811D01*
X32216390Y-89906809D01*
X32163764Y-89815659D01*
X32150500Y-89766159D01*
X32150500Y-85442542D01*
X36714200Y-85442542D01*
X36714200Y-85589457D01*
X36742860Y-85733541D01*
X36742860Y-85733543D01*
X36799078Y-85869266D01*
X36799078Y-85869267D01*
X36837516Y-85926793D01*
X36880699Y-85991420D01*
X36984580Y-86095301D01*
X37106731Y-86176920D01*
X37242458Y-86233140D01*
X37386545Y-86261800D01*
X37386547Y-86261800D01*
X37533453Y-86261800D01*
X37533455Y-86261800D01*
X37677542Y-86233140D01*
X37813269Y-86176920D01*
X37935420Y-86095301D01*
X38039301Y-85991420D01*
X38120920Y-85869269D01*
X38177140Y-85733542D01*
X38205800Y-85589455D01*
X38205800Y-85442545D01*
X38177140Y-85298458D01*
X38120921Y-85162733D01*
X38120921Y-85162732D01*
X38100585Y-85132298D01*
X38039301Y-85040580D01*
X37935420Y-84936699D01*
X37813269Y-84855080D01*
X37813268Y-84855079D01*
X37813266Y-84855078D01*
X37677542Y-84798860D01*
X37533457Y-84770200D01*
X37533455Y-84770200D01*
X37386545Y-84770200D01*
X37386542Y-84770200D01*
X37242458Y-84798860D01*
X37242456Y-84798860D01*
X37106733Y-84855078D01*
X37106732Y-84855078D01*
X36984580Y-84936699D01*
X36984576Y-84936702D01*
X36880702Y-85040576D01*
X36880699Y-85040580D01*
X36799078Y-85162732D01*
X36799078Y-85162733D01*
X36742860Y-85298456D01*
X36742860Y-85298458D01*
X36714200Y-85442542D01*
X32150500Y-85442542D01*
X32150500Y-83410542D01*
X36714200Y-83410542D01*
X36714200Y-83557457D01*
X36742860Y-83701541D01*
X36742860Y-83701543D01*
X36799078Y-83837266D01*
X36799078Y-83837267D01*
X36839749Y-83898134D01*
X36880699Y-83959420D01*
X36984580Y-84063301D01*
X37106731Y-84144920D01*
X37106732Y-84144920D01*
X37106733Y-84144921D01*
X37111108Y-84146733D01*
X37242458Y-84201140D01*
X37386545Y-84229800D01*
X37386547Y-84229800D01*
X37533453Y-84229800D01*
X37533455Y-84229800D01*
X37677542Y-84201140D01*
X37813269Y-84144920D01*
X37935420Y-84063301D01*
X38039301Y-83959420D01*
X38120920Y-83837269D01*
X38177140Y-83701542D01*
X38205800Y-83557455D01*
X38205800Y-83410545D01*
X38177140Y-83266458D01*
X38120921Y-83130733D01*
X38120921Y-83130732D01*
X38100585Y-83100298D01*
X38039301Y-83008580D01*
X37935420Y-82904699D01*
X37813269Y-82823080D01*
X37813268Y-82823079D01*
X37813266Y-82823078D01*
X37677542Y-82766860D01*
X37533457Y-82738200D01*
X37533455Y-82738200D01*
X37386545Y-82738200D01*
X37386542Y-82738200D01*
X37242458Y-82766860D01*
X37242456Y-82766860D01*
X37106733Y-82823078D01*
X37106732Y-82823078D01*
X36984580Y-82904699D01*
X36984576Y-82904702D01*
X36880702Y-83008576D01*
X36880699Y-83008580D01*
X36799078Y-83130732D01*
X36799078Y-83130733D01*
X36742860Y-83266456D01*
X36742860Y-83266458D01*
X36714200Y-83410542D01*
X32150500Y-83410542D01*
X32150500Y-80793583D01*
X37512024Y-80793583D01*
X37512024Y-80925367D01*
X37542103Y-81037626D01*
X37546133Y-81052665D01*
X37612020Y-81166784D01*
X37612022Y-81166786D01*
X37612024Y-81166789D01*
X37705210Y-81259975D01*
X37819338Y-81325867D01*
X37921006Y-81353108D01*
X37965387Y-81378731D01*
X39575163Y-82988506D01*
X39602940Y-83043023D01*
X39604159Y-83058672D01*
X39600047Y-85565372D01*
X39586784Y-85614710D01*
X39533608Y-85706812D01*
X39526446Y-85733542D01*
X39499500Y-85834108D01*
X39499500Y-85965892D01*
X39506341Y-85991423D01*
X39533609Y-86093190D01*
X39599496Y-86207309D01*
X39599498Y-86207311D01*
X39599500Y-86207314D01*
X39692686Y-86300500D01*
X39692688Y-86300501D01*
X39692690Y-86300503D01*
X39806810Y-86366390D01*
X39806808Y-86366390D01*
X39806812Y-86366391D01*
X39806814Y-86366392D01*
X39934108Y-86400500D01*
X39934110Y-86400500D01*
X40065890Y-86400500D01*
X40065892Y-86400500D01*
X40193186Y-86366392D01*
X40193188Y-86366390D01*
X40193190Y-86366390D01*
X40307309Y-86300503D01*
X40307309Y-86300502D01*
X40307314Y-86300500D01*
X40400500Y-86207314D01*
X40400503Y-86207309D01*
X40466390Y-86093190D01*
X40466390Y-86093188D01*
X40466392Y-86093186D01*
X40500500Y-85965892D01*
X40500500Y-85834108D01*
X40466392Y-85706814D01*
X40414310Y-85616605D01*
X40401046Y-85566945D01*
X40402917Y-84426542D01*
X41794200Y-84426542D01*
X41794200Y-84573457D01*
X41822860Y-84717541D01*
X41822860Y-84717543D01*
X41879078Y-84853266D01*
X41879078Y-84853267D01*
X41919749Y-84914134D01*
X41960699Y-84975420D01*
X42064580Y-85079301D01*
X42186731Y-85160920D01*
X42186732Y-85160920D01*
X42186733Y-85160921D01*
X42191108Y-85162733D01*
X42322458Y-85217140D01*
X42466545Y-85245800D01*
X42466547Y-85245800D01*
X42613453Y-85245800D01*
X42613455Y-85245800D01*
X42757542Y-85217140D01*
X42893269Y-85160920D01*
X43015420Y-85079301D01*
X43119301Y-84975420D01*
X43200920Y-84853269D01*
X43257140Y-84717542D01*
X43285800Y-84573455D01*
X43285800Y-84426545D01*
X43257140Y-84282458D01*
X43200921Y-84146733D01*
X43200921Y-84146732D01*
X43180585Y-84116298D01*
X43119301Y-84024580D01*
X43015420Y-83920699D01*
X42893269Y-83839080D01*
X42893268Y-83839079D01*
X42893266Y-83839078D01*
X42757542Y-83782860D01*
X42613457Y-83754200D01*
X42613455Y-83754200D01*
X42466545Y-83754200D01*
X42466542Y-83754200D01*
X42322458Y-83782860D01*
X42322456Y-83782860D01*
X42186733Y-83839078D01*
X42186732Y-83839078D01*
X42064580Y-83920699D01*
X42064576Y-83920702D01*
X41960702Y-84024576D01*
X41960699Y-84024580D01*
X41879078Y-84146732D01*
X41879078Y-84146733D01*
X41822860Y-84282456D01*
X41822860Y-84282458D01*
X41794200Y-84426542D01*
X40402917Y-84426542D01*
X40405413Y-82905004D01*
X40405501Y-82904678D01*
X40405501Y-82851697D01*
X40405586Y-82799881D01*
X40405584Y-82799877D01*
X40405585Y-82799864D01*
X40405501Y-82799224D01*
X40391891Y-82748433D01*
X40391900Y-82748262D01*
X40391849Y-82748276D01*
X40378460Y-82697977D01*
X40378455Y-82697969D01*
X40378209Y-82697371D01*
X40378207Y-82697364D01*
X40352036Y-82652035D01*
X40325883Y-82606564D01*
X40325649Y-82606329D01*
X40325484Y-82606043D01*
X40288655Y-82569213D01*
X40288663Y-82569204D01*
X40288540Y-82569099D01*
X40247507Y-82527931D01*
X40246393Y-82526952D01*
X38531780Y-80812338D01*
X38506157Y-80767957D01*
X38478916Y-80666289D01*
X38413024Y-80552161D01*
X38319838Y-80458975D01*
X38319835Y-80458973D01*
X38319833Y-80458971D01*
X38205713Y-80393084D01*
X38205715Y-80393084D01*
X38156323Y-80379850D01*
X38078416Y-80358975D01*
X37946632Y-80358975D01*
X37868724Y-80379850D01*
X37819333Y-80393084D01*
X37705214Y-80458971D01*
X37612020Y-80552165D01*
X37546133Y-80666284D01*
X37546132Y-80666289D01*
X37512024Y-80793583D01*
X32150500Y-80793583D01*
X32150500Y-77676901D01*
X32169407Y-77618710D01*
X32179496Y-77606897D01*
X32394897Y-77391496D01*
X32449414Y-77363719D01*
X32464901Y-77362500D01*
X33448160Y-77362500D01*
X33497658Y-77375763D01*
X33588814Y-77428392D01*
X33716108Y-77462500D01*
X33716110Y-77462500D01*
X33847890Y-77462500D01*
X33847892Y-77462500D01*
X33975186Y-77428392D01*
X33975188Y-77428390D01*
X33975190Y-77428390D01*
X34089309Y-77362503D01*
X34089309Y-77362502D01*
X34089314Y-77362500D01*
X34182500Y-77269314D01*
X34248392Y-77155186D01*
X34282500Y-77027892D01*
X34282500Y-76896108D01*
X34248392Y-76768814D01*
X34248390Y-76768811D01*
X34248390Y-76768809D01*
X34182503Y-76654690D01*
X34182501Y-76654688D01*
X34182500Y-76654686D01*
X34089314Y-76561500D01*
X34089311Y-76561498D01*
X34089309Y-76561496D01*
X33975189Y-76495609D01*
X33975191Y-76495609D01*
X33925799Y-76482375D01*
X33847892Y-76461500D01*
X33716108Y-76461500D01*
X33588814Y-76495608D01*
X33588813Y-76495608D01*
X33588811Y-76495609D01*
X33571067Y-76505854D01*
X33497658Y-76548236D01*
X33448160Y-76561500D01*
X32198784Y-76561500D01*
X32198784Y-76560042D01*
X32145915Y-76550239D01*
X32103801Y-76505854D01*
X32095819Y-76445192D01*
X32123157Y-76393236D01*
X32394898Y-76121496D01*
X32449414Y-76093719D01*
X32464901Y-76092500D01*
X33448160Y-76092500D01*
X33497658Y-76105763D01*
X33588814Y-76158392D01*
X33716108Y-76192500D01*
X33716110Y-76192500D01*
X33847890Y-76192500D01*
X33847892Y-76192500D01*
X33975186Y-76158392D01*
X33975188Y-76158390D01*
X33975190Y-76158390D01*
X34089309Y-76092503D01*
X34089309Y-76092502D01*
X34089314Y-76092500D01*
X34182500Y-75999314D01*
X34182503Y-75999309D01*
X34248390Y-75885190D01*
X34248390Y-75885188D01*
X34248392Y-75885186D01*
X34282500Y-75757892D01*
X34282500Y-75626108D01*
X34248392Y-75498814D01*
X34248390Y-75498811D01*
X34248390Y-75498809D01*
X34182503Y-75384690D01*
X34182501Y-75384688D01*
X34182500Y-75384686D01*
X34089314Y-75291500D01*
X34089311Y-75291498D01*
X34089309Y-75291496D01*
X33975189Y-75225609D01*
X33975191Y-75225609D01*
X33925799Y-75212375D01*
X33847892Y-75191500D01*
X33716108Y-75191500D01*
X33588814Y-75225608D01*
X33588813Y-75225608D01*
X33588811Y-75225609D01*
X33540750Y-75253357D01*
X33497658Y-75278236D01*
X33448160Y-75291500D01*
X32198784Y-75291500D01*
X32198784Y-75290042D01*
X32145915Y-75280239D01*
X32103801Y-75235854D01*
X32095819Y-75175192D01*
X32123157Y-75123236D01*
X32394898Y-74851496D01*
X32449414Y-74823719D01*
X32464901Y-74822500D01*
X33448160Y-74822500D01*
X33497658Y-74835763D01*
X33588814Y-74888392D01*
X33716108Y-74922500D01*
X33716110Y-74922500D01*
X33847890Y-74922500D01*
X33847892Y-74922500D01*
X33975186Y-74888392D01*
X33975188Y-74888390D01*
X33975190Y-74888390D01*
X34089309Y-74822503D01*
X34089309Y-74822502D01*
X34089314Y-74822500D01*
X34182500Y-74729314D01*
X34248392Y-74615186D01*
X34282500Y-74487892D01*
X34282500Y-74356108D01*
X34248392Y-74228814D01*
X34248390Y-74228811D01*
X34248390Y-74228809D01*
X34182503Y-74114690D01*
X34182501Y-74114688D01*
X34182500Y-74114686D01*
X34089314Y-74021500D01*
X34089311Y-74021498D01*
X34089309Y-74021496D01*
X33975189Y-73955609D01*
X33975191Y-73955609D01*
X33925799Y-73942375D01*
X33847892Y-73921500D01*
X33716108Y-73921500D01*
X33588814Y-73955608D01*
X33588813Y-73955608D01*
X33588811Y-73955609D01*
X33540750Y-73983357D01*
X33497658Y-74008236D01*
X33448160Y-74021500D01*
X32198784Y-74021500D01*
X32198784Y-74020042D01*
X32145912Y-74010238D01*
X32103799Y-73965852D01*
X32095818Y-73905189D01*
X32123156Y-73853236D01*
X32394897Y-73581496D01*
X32449413Y-73553719D01*
X32464900Y-73552500D01*
X33448160Y-73552500D01*
X33497658Y-73565763D01*
X33588814Y-73618392D01*
X33716108Y-73652500D01*
X33716110Y-73652500D01*
X33847890Y-73652500D01*
X33847892Y-73652500D01*
X33975186Y-73618392D01*
X33975188Y-73618390D01*
X33975190Y-73618390D01*
X34089309Y-73552503D01*
X34089309Y-73552502D01*
X34089314Y-73552500D01*
X34182500Y-73459314D01*
X34248392Y-73345186D01*
X34282500Y-73217892D01*
X34282500Y-73086108D01*
X34248392Y-72958814D01*
X34248390Y-72958811D01*
X34248390Y-72958809D01*
X34182503Y-72844690D01*
X34182501Y-72844688D01*
X34182500Y-72844686D01*
X34089314Y-72751500D01*
X34089311Y-72751498D01*
X34089309Y-72751496D01*
X33975189Y-72685609D01*
X33975191Y-72685609D01*
X33925799Y-72672375D01*
X33847892Y-72651500D01*
X33716108Y-72651500D01*
X33588814Y-72685608D01*
X33588813Y-72685608D01*
X33588811Y-72685609D01*
X33540750Y-72713357D01*
X33497658Y-72738236D01*
X33448160Y-72751500D01*
X32310731Y-72751500D01*
X32310727Y-72751499D01*
X32205273Y-72751499D01*
X32202718Y-72752183D01*
X32193753Y-72752237D01*
X32170215Y-72744744D01*
X32145918Y-72740240D01*
X32141527Y-72735612D01*
X32135450Y-72733678D01*
X32120808Y-72713777D01*
X32103803Y-72695855D01*
X32102970Y-72689531D01*
X32099191Y-72684394D01*
X32099043Y-72659685D01*
X32095820Y-72635193D01*
X32098862Y-72629411D01*
X32098825Y-72623210D01*
X32111200Y-72605960D01*
X32123158Y-72583235D01*
X32394898Y-72311496D01*
X32449414Y-72283719D01*
X32464901Y-72282500D01*
X33448160Y-72282500D01*
X33497658Y-72295763D01*
X33588814Y-72348392D01*
X33716108Y-72382500D01*
X33716110Y-72382500D01*
X33847890Y-72382500D01*
X33847892Y-72382500D01*
X33975186Y-72348392D01*
X33975188Y-72348390D01*
X33975190Y-72348390D01*
X34089309Y-72282503D01*
X34089309Y-72282502D01*
X34089314Y-72282500D01*
X34182500Y-72189314D01*
X34248392Y-72075186D01*
X34282500Y-71947892D01*
X34282500Y-71816108D01*
X34248392Y-71688814D01*
X34248390Y-71688811D01*
X34248390Y-71688809D01*
X34182503Y-71574690D01*
X34182501Y-71574688D01*
X34182500Y-71574686D01*
X34089314Y-71481500D01*
X34089311Y-71481498D01*
X34089309Y-71481496D01*
X33975189Y-71415609D01*
X33975191Y-71415609D01*
X33925799Y-71402375D01*
X33847892Y-71381500D01*
X33716108Y-71381500D01*
X33588814Y-71415608D01*
X33588813Y-71415608D01*
X33588811Y-71415609D01*
X33571067Y-71425854D01*
X33497658Y-71468236D01*
X33448160Y-71481500D01*
X32198784Y-71481500D01*
X32198784Y-71480042D01*
X32145915Y-71470239D01*
X32103801Y-71425854D01*
X32095819Y-71365192D01*
X32123157Y-71313236D01*
X32394898Y-71041496D01*
X32449414Y-71013719D01*
X32464901Y-71012500D01*
X33448160Y-71012500D01*
X33497658Y-71025763D01*
X33588814Y-71078392D01*
X33716108Y-71112500D01*
X33716110Y-71112500D01*
X33847890Y-71112500D01*
X33847892Y-71112500D01*
X33975186Y-71078392D01*
X33975188Y-71078390D01*
X33975190Y-71078390D01*
X34089309Y-71012503D01*
X34089309Y-71012502D01*
X34089314Y-71012500D01*
X34182500Y-70919314D01*
X34248392Y-70805186D01*
X34282500Y-70677892D01*
X34282500Y-70546108D01*
X34248392Y-70418814D01*
X34248390Y-70418811D01*
X34248390Y-70418809D01*
X34182503Y-70304690D01*
X34182501Y-70304688D01*
X34182500Y-70304686D01*
X34089314Y-70211500D01*
X34089311Y-70211498D01*
X34089309Y-70211496D01*
X33975189Y-70145609D01*
X33975191Y-70145609D01*
X33925799Y-70132375D01*
X33847892Y-70111500D01*
X33716108Y-70111500D01*
X33588814Y-70145608D01*
X33588813Y-70145608D01*
X33588811Y-70145609D01*
X33540750Y-70173357D01*
X33497658Y-70198236D01*
X33448160Y-70211500D01*
X32310727Y-70211500D01*
X32205273Y-70211500D01*
X32142929Y-70228204D01*
X32103407Y-70238794D01*
X32012091Y-70291516D01*
X27619516Y-74684091D01*
X27566793Y-74775411D01*
X27566792Y-74775411D01*
X27566793Y-74775412D01*
X27539500Y-74877273D01*
X27539500Y-87822861D01*
X27520593Y-87881052D01*
X27471093Y-87917016D01*
X27409907Y-87917016D01*
X27370498Y-87892866D01*
X27339655Y-87862023D01*
X27259182Y-87808253D01*
X27167597Y-87747058D01*
X26976418Y-87667869D01*
X26773467Y-87627500D01*
X26773465Y-87627500D01*
X26566535Y-87627500D01*
X26566532Y-87627500D01*
X26363581Y-87667869D01*
X26172402Y-87747058D01*
X26000348Y-87862020D01*
X25854020Y-88008348D01*
X25739058Y-88180402D01*
X25690464Y-88297720D01*
X25650727Y-88344245D01*
X25591232Y-88358529D01*
X25534705Y-88335114D01*
X25502735Y-88282945D01*
X25500000Y-88259834D01*
X25500000Y-62764500D01*
X25518907Y-62706309D01*
X25568407Y-62670345D01*
X25599000Y-62665500D01*
X37187499Y-62665500D01*
X37187500Y-62665500D01*
X37233228Y-62660348D01*
X37315627Y-62620666D01*
X37372649Y-62549163D01*
X37393000Y-62460000D01*
X37393000Y-59847500D01*
X37387848Y-59801772D01*
X37348166Y-59719373D01*
X37276663Y-59662351D01*
X37276662Y-59662350D01*
X37187500Y-59642000D01*
X25599000Y-59642000D01*
X25540809Y-59623093D01*
X25504845Y-59573593D01*
X25500000Y-59543000D01*
X25500000Y-59486880D01*
X25518907Y-59428689D01*
X25568407Y-59392725D01*
X25629593Y-59392725D01*
X25633597Y-59394122D01*
X25712622Y-59423596D01*
X25712629Y-59423598D01*
X25772176Y-59430000D01*
X27567825Y-59430000D01*
X27567824Y-59429999D01*
X27627374Y-59423598D01*
X27627378Y-59423597D01*
X27651169Y-59414722D01*
X26799410Y-58562962D01*
X26862993Y-58545925D01*
X26977007Y-58480099D01*
X27070099Y-58387007D01*
X27135925Y-58272993D01*
X27152962Y-58209409D01*
X28004722Y-59061169D01*
X28013597Y-59037378D01*
X28013598Y-59037374D01*
X28019999Y-58977824D01*
X28020000Y-58977824D01*
X28020000Y-57182175D01*
X28013598Y-57122624D01*
X28004721Y-57098829D01*
X27152962Y-57950588D01*
X27135925Y-57887007D01*
X27070099Y-57772993D01*
X26977007Y-57679901D01*
X26862993Y-57614075D01*
X26799409Y-57597037D01*
X27651169Y-56745277D01*
X27627373Y-56736401D01*
X27627375Y-56736401D01*
X27567824Y-56730000D01*
X27039881Y-56730000D01*
X26981690Y-56711093D01*
X26945726Y-56661593D01*
X26945726Y-56600407D01*
X26981690Y-56550907D01*
X27001992Y-56539537D01*
X27167598Y-56470941D01*
X27339655Y-56355977D01*
X27485977Y-56209655D01*
X27600941Y-56037598D01*
X27680130Y-55846420D01*
X27720500Y-55643465D01*
X27720500Y-55436535D01*
X27680130Y-55233580D01*
X27600941Y-55042402D01*
X27485977Y-54870345D01*
X27339655Y-54724023D01*
X27332449Y-54719208D01*
X27167597Y-54609058D01*
X26976418Y-54529869D01*
X26927996Y-54520238D01*
X26874612Y-54490341D01*
X26848996Y-54434776D01*
X26860933Y-54374766D01*
X26905863Y-54333234D01*
X26931823Y-54325359D01*
X26986121Y-54316759D01*
X27188215Y-54251095D01*
X27377552Y-54154624D01*
X27549464Y-54029722D01*
X27699722Y-53879464D01*
X27824624Y-53707552D01*
X27921095Y-53518215D01*
X27986758Y-53316122D01*
X27997231Y-53250000D01*
X27103012Y-53250000D01*
X27135925Y-53192993D01*
X27170000Y-53065826D01*
X27170000Y-52934174D01*
X27135925Y-52807007D01*
X27103012Y-52750000D01*
X27997231Y-52750000D01*
X27997231Y-52749999D01*
X27986758Y-52683877D01*
X27921095Y-52481784D01*
X27824624Y-52292448D01*
X27730121Y-52162376D01*
X27711214Y-52104185D01*
X27730121Y-52045994D01*
X27740211Y-52034181D01*
X27742910Y-52031481D01*
X27742913Y-52031480D01*
X27888554Y-51885838D01*
X28036898Y-51737496D01*
X28091414Y-51709719D01*
X28106901Y-51708500D01*
X41166160Y-51708500D01*
X41215658Y-51721763D01*
G37*
%TD.AperFunction*%
%TA.AperFunction,Conductor*%
G36*
X49447945Y-87613190D02*
G01*
X49473000Y-87631393D01*
X50878505Y-89036898D01*
X50906281Y-89091413D01*
X50907500Y-89106900D01*
X50907500Y-94154159D01*
X50894236Y-94203659D01*
X50841609Y-94294809D01*
X50838378Y-94306867D01*
X50807500Y-94422108D01*
X50807500Y-94553892D01*
X50837579Y-94666151D01*
X50841609Y-94681190D01*
X50907496Y-94795309D01*
X50907498Y-94795311D01*
X50907500Y-94795314D01*
X50943184Y-94830998D01*
X50970960Y-94885513D01*
X50961389Y-94945945D01*
X50918124Y-94989210D01*
X50873179Y-95000000D01*
X50534707Y-95000000D01*
X50485207Y-94986736D01*
X50393189Y-94933609D01*
X50393191Y-94933609D01*
X50343799Y-94920375D01*
X50265892Y-94899500D01*
X50134108Y-94899500D01*
X50056200Y-94920375D01*
X50006809Y-94933609D01*
X49914793Y-94986736D01*
X49865293Y-95000000D01*
X48499500Y-95000000D01*
X48441309Y-94981093D01*
X48405345Y-94931593D01*
X48400500Y-94901000D01*
X48400500Y-88988153D01*
X48403873Y-88962530D01*
X48406500Y-88952726D01*
X48406500Y-88598900D01*
X48425407Y-88540709D01*
X48435490Y-88528902D01*
X49332998Y-87631394D01*
X49387513Y-87603619D01*
X49447945Y-87613190D01*
G37*
%TD.AperFunction*%
%TA.AperFunction,Conductor*%
G36*
X26456425Y-60323373D02*
G01*
X26506277Y-60336730D01*
X26530153Y-60346620D01*
X26574845Y-60372423D01*
X26595349Y-60388155D01*
X26631842Y-60424648D01*
X26647574Y-60445152D01*
X26673379Y-60489847D01*
X26683269Y-60513723D01*
X26696626Y-60563570D01*
X26700000Y-60589194D01*
X26700000Y-60640804D01*
X26696626Y-60666428D01*
X26683269Y-60716275D01*
X26673379Y-60740151D01*
X26647574Y-60784846D01*
X26631843Y-60805349D01*
X26595350Y-60841842D01*
X26574846Y-60857574D01*
X26530151Y-60883379D01*
X26506275Y-60893269D01*
X26456428Y-60906626D01*
X26430804Y-60910000D01*
X26379197Y-60910000D01*
X26353575Y-60906627D01*
X26303720Y-60893268D01*
X26279847Y-60883380D01*
X26235151Y-60857574D01*
X26214650Y-60841844D01*
X26178155Y-60805349D01*
X26162424Y-60784846D01*
X26136619Y-60740151D01*
X26126730Y-60716276D01*
X26113373Y-60666425D01*
X26110000Y-60640803D01*
X26110000Y-60589194D01*
X26113373Y-60563573D01*
X26126729Y-60513723D01*
X26136620Y-60489844D01*
X26162426Y-60445147D01*
X26178145Y-60424660D01*
X26214656Y-60388148D01*
X26235145Y-60372427D01*
X26279848Y-60346617D01*
X26303722Y-60336729D01*
X26316880Y-60333204D01*
X26353575Y-60323373D01*
X26379195Y-60320000D01*
X26430803Y-60320000D01*
X26456425Y-60323373D01*
G37*
%TD.AperFunction*%
%TA.AperFunction,Conductor*%
G36*
X54959191Y-44918907D02*
G01*
X54995155Y-44968407D01*
X55000000Y-44999000D01*
X55000000Y-49856130D01*
X54983316Y-49911130D01*
X54949059Y-49962399D01*
X54869869Y-50153581D01*
X54829500Y-50356532D01*
X54829500Y-50563467D01*
X54869869Y-50766418D01*
X54884775Y-50802404D01*
X54889574Y-50863401D01*
X54863314Y-50910291D01*
X54492104Y-51281503D01*
X54437587Y-51309281D01*
X54422100Y-51310500D01*
X54214139Y-51310500D01*
X54155948Y-51291593D01*
X54119984Y-51242093D01*
X54119984Y-51180907D01*
X54144133Y-51141498D01*
X54155977Y-51129655D01*
X54270941Y-50957598D01*
X54350130Y-50766420D01*
X54390500Y-50563465D01*
X54390500Y-50356535D01*
X54350130Y-50153580D01*
X54270941Y-49962402D01*
X54155977Y-49790345D01*
X54009655Y-49644023D01*
X54009651Y-49644020D01*
X53837597Y-49529058D01*
X53741528Y-49489265D01*
X53671994Y-49460463D01*
X53625470Y-49420727D01*
X53611186Y-49361233D01*
X53634601Y-49304705D01*
X53686770Y-49272735D01*
X53709881Y-49270000D01*
X54237825Y-49270000D01*
X54237824Y-49269999D01*
X54297374Y-49263598D01*
X54297378Y-49263597D01*
X54321169Y-49254722D01*
X53469409Y-48402962D01*
X53532993Y-48385925D01*
X53647007Y-48320099D01*
X53740099Y-48227007D01*
X53805925Y-48112993D01*
X53822962Y-48049409D01*
X54674722Y-48901169D01*
X54683597Y-48877378D01*
X54683598Y-48877374D01*
X54689999Y-48817824D01*
X54690000Y-48817824D01*
X54690000Y-47022175D01*
X54683598Y-46962624D01*
X54674721Y-46938829D01*
X53822962Y-47790588D01*
X53805925Y-47727007D01*
X53740099Y-47612993D01*
X53647007Y-47519901D01*
X53532993Y-47454075D01*
X53469408Y-47437037D01*
X54321169Y-46585277D01*
X54297373Y-46576401D01*
X54297375Y-46576401D01*
X54237824Y-46570000D01*
X52442176Y-46570000D01*
X52382629Y-46576401D01*
X52382618Y-46576403D01*
X52358829Y-46585276D01*
X53210590Y-47437037D01*
X53147007Y-47454075D01*
X53032993Y-47519901D01*
X52939901Y-47612993D01*
X52874075Y-47727007D01*
X52857037Y-47790590D01*
X52005276Y-46938829D01*
X51996403Y-46962618D01*
X51996401Y-46962629D01*
X51990000Y-47022175D01*
X51990000Y-48817824D01*
X51989999Y-48817824D01*
X51996401Y-48877374D01*
X52005276Y-48901168D01*
X52857037Y-48049407D01*
X52874075Y-48112993D01*
X52939901Y-48227007D01*
X53032993Y-48320099D01*
X53147007Y-48385925D01*
X53210588Y-48402962D01*
X52358829Y-49254721D01*
X52382624Y-49263598D01*
X52442175Y-49269999D01*
X52442175Y-49270000D01*
X52970119Y-49270000D01*
X53028310Y-49288907D01*
X53064274Y-49338407D01*
X53064274Y-49399593D01*
X53028310Y-49449093D01*
X53008007Y-49460462D01*
X52958697Y-49480887D01*
X52842402Y-49529058D01*
X52670348Y-49644020D01*
X52524020Y-49790348D01*
X52409057Y-49962404D01*
X52394154Y-49998385D01*
X52376693Y-50018829D01*
X52360881Y-50040593D01*
X52357039Y-50041841D01*
X52354418Y-50044911D01*
X52302690Y-50059500D01*
X52114774Y-50059500D01*
X52056583Y-50040593D01*
X52042923Y-50028606D01*
X51831240Y-49805280D01*
X51824940Y-49796840D01*
X51824429Y-49797233D01*
X51820485Y-49792093D01*
X51820481Y-49792089D01*
X51820480Y-49792087D01*
X51786979Y-49758586D01*
X51754399Y-49724214D01*
X51749761Y-49721368D01*
X51745913Y-49717520D01*
X51706002Y-49694477D01*
X51706002Y-49694476D01*
X51704843Y-49693807D01*
X51664517Y-49669063D01*
X51659301Y-49667514D01*
X51654585Y-49664791D01*
X51610091Y-49652869D01*
X51610091Y-49652868D01*
X51608749Y-49652508D01*
X51563423Y-49639054D01*
X51557983Y-49638908D01*
X51552732Y-49637501D01*
X51552729Y-49637500D01*
X51552727Y-49637500D01*
X51552724Y-49637500D01*
X51506714Y-49637500D01*
X51504066Y-49637465D01*
X51496054Y-49637250D01*
X51458007Y-49636232D01*
X51458006Y-49636232D01*
X51458005Y-49636232D01*
X51451552Y-49636907D01*
X51451484Y-49636264D01*
X51441024Y-49637500D01*
X49083840Y-49637500D01*
X49034341Y-49624236D01*
X48943186Y-49571608D01*
X48815892Y-49537500D01*
X48684108Y-49537500D01*
X48556814Y-49571608D01*
X48556813Y-49571608D01*
X48556811Y-49571609D01*
X48508750Y-49599357D01*
X48465658Y-49624236D01*
X48416160Y-49637500D01*
X38833840Y-49637500D01*
X38784341Y-49624236D01*
X38693186Y-49571608D01*
X38565892Y-49537500D01*
X38434108Y-49537500D01*
X38306814Y-49571608D01*
X38306813Y-49571608D01*
X38306811Y-49571609D01*
X38258750Y-49599357D01*
X38215658Y-49624236D01*
X38166160Y-49637500D01*
X29543840Y-49637500D01*
X29494341Y-49624236D01*
X29403186Y-49571608D01*
X29275892Y-49537500D01*
X29144108Y-49537500D01*
X29066200Y-49558375D01*
X29016809Y-49571609D01*
X28902690Y-49637496D01*
X28809496Y-49730690D01*
X28743609Y-49844809D01*
X28743608Y-49844814D01*
X28709500Y-49972108D01*
X28709500Y-50103892D01*
X28719317Y-50140529D01*
X28743609Y-50231190D01*
X28809496Y-50345309D01*
X28809498Y-50345311D01*
X28809500Y-50345314D01*
X28902686Y-50438500D01*
X28902688Y-50438501D01*
X28902690Y-50438503D01*
X29016810Y-50504390D01*
X29016808Y-50504390D01*
X29016812Y-50504391D01*
X29016814Y-50504392D01*
X29144108Y-50538500D01*
X29144110Y-50538500D01*
X29275890Y-50538500D01*
X29275892Y-50538500D01*
X29403186Y-50504392D01*
X29494341Y-50451763D01*
X29543840Y-50438500D01*
X38166160Y-50438500D01*
X38215658Y-50451763D01*
X38306814Y-50504392D01*
X38434108Y-50538500D01*
X38434110Y-50538500D01*
X38565890Y-50538500D01*
X38565892Y-50538500D01*
X38693186Y-50504392D01*
X38784341Y-50451763D01*
X38833840Y-50438500D01*
X39697273Y-50438500D01*
X41047273Y-50438500D01*
X43647273Y-50438500D01*
X48416160Y-50438500D01*
X48465658Y-50451763D01*
X48556814Y-50504392D01*
X48684108Y-50538500D01*
X48684110Y-50538500D01*
X48815890Y-50538500D01*
X48815892Y-50538500D01*
X48943186Y-50504392D01*
X49034341Y-50451763D01*
X49083840Y-50438500D01*
X51285227Y-50438500D01*
X51343418Y-50457407D01*
X51357074Y-50469390D01*
X51576798Y-50701199D01*
X51579520Y-50705913D01*
X51613016Y-50739409D01*
X51613944Y-50740388D01*
X51613947Y-50740391D01*
X51639939Y-50767813D01*
X51666248Y-50823053D01*
X51657325Y-50871035D01*
X51685013Y-50843348D01*
X51745445Y-50833777D01*
X51755578Y-50835931D01*
X51789883Y-50845122D01*
X51792437Y-50845843D01*
X51836577Y-50858946D01*
X51837295Y-50858965D01*
X51842018Y-50859091D01*
X51847273Y-50860500D01*
X51894627Y-50860500D01*
X51941993Y-50861768D01*
X51941999Y-50861766D01*
X51948448Y-50861093D01*
X51948515Y-50861735D01*
X51958976Y-50860500D01*
X52302690Y-50860500D01*
X52360881Y-50879407D01*
X52394154Y-50921615D01*
X52409057Y-50957595D01*
X52409058Y-50957597D01*
X52409059Y-50957598D01*
X52524023Y-51129655D01*
X52535866Y-51141498D01*
X52563642Y-51196013D01*
X52554071Y-51256445D01*
X52510806Y-51299710D01*
X52465861Y-51310500D01*
X52009901Y-51310500D01*
X51951710Y-51291593D01*
X51939898Y-51281504D01*
X51659955Y-51001562D01*
X51632177Y-50947045D01*
X51640030Y-50897455D01*
X51610655Y-50925299D01*
X51549989Y-50933250D01*
X51542477Y-50931548D01*
X51452727Y-50907500D01*
X51452725Y-50907500D01*
X49583840Y-50907500D01*
X49534341Y-50894236D01*
X49449872Y-50845468D01*
X49443188Y-50841609D01*
X49443187Y-50841608D01*
X49443186Y-50841608D01*
X49315892Y-50807500D01*
X49184108Y-50807500D01*
X49056814Y-50841608D01*
X49056813Y-50841608D01*
X49056811Y-50841609D01*
X49013038Y-50866882D01*
X48965658Y-50894236D01*
X48916160Y-50907500D01*
X41833840Y-50907500D01*
X41784341Y-50894236D01*
X41699872Y-50845468D01*
X41693188Y-50841609D01*
X41693187Y-50841608D01*
X41693186Y-50841608D01*
X41565892Y-50807500D01*
X41434108Y-50807500D01*
X41306814Y-50841608D01*
X41306813Y-50841608D01*
X41306811Y-50841609D01*
X41263038Y-50866882D01*
X41215658Y-50894236D01*
X41166160Y-50907500D01*
X27847270Y-50907500D01*
X27787439Y-50923531D01*
X27726338Y-50920328D01*
X27678789Y-50881822D01*
X27662954Y-50822721D01*
X27670353Y-50790022D01*
X27680130Y-50766420D01*
X27720500Y-50563465D01*
X27720500Y-50356535D01*
X27680130Y-50153580D01*
X27600941Y-49962402D01*
X27485977Y-49790345D01*
X27339655Y-49644023D01*
X27339651Y-49644020D01*
X27167597Y-49529058D01*
X26976418Y-49449869D01*
X26927996Y-49440238D01*
X26874612Y-49410341D01*
X26848996Y-49354776D01*
X26860933Y-49294766D01*
X26905863Y-49253234D01*
X26931823Y-49245359D01*
X26986121Y-49236759D01*
X27188215Y-49171095D01*
X27377556Y-49074620D01*
X27431716Y-49035270D01*
X26799408Y-48402962D01*
X26862993Y-48385925D01*
X26977007Y-48320099D01*
X27070099Y-48227007D01*
X27135925Y-48112993D01*
X27152962Y-48049408D01*
X27785270Y-48681716D01*
X27824620Y-48627556D01*
X27921095Y-48438215D01*
X27986759Y-48236121D01*
X28020000Y-48026250D01*
X28020000Y-47813749D01*
X27986759Y-47603878D01*
X27921095Y-47401784D01*
X27824623Y-47212446D01*
X27824619Y-47212440D01*
X27785270Y-47158282D01*
X27785269Y-47158282D01*
X27152962Y-47790589D01*
X27135925Y-47727007D01*
X27070099Y-47612993D01*
X26977007Y-47519901D01*
X26862993Y-47454075D01*
X26799408Y-47437037D01*
X27286929Y-46949517D01*
X27431716Y-46804729D01*
X27431716Y-46804728D01*
X27377559Y-46765380D01*
X27377553Y-46765376D01*
X27259579Y-46705266D01*
X27188215Y-46668904D01*
X26986121Y-46603240D01*
X26776250Y-46570000D01*
X26563750Y-46570000D01*
X26353878Y-46603240D01*
X26151784Y-46668904D01*
X25962446Y-46765376D01*
X25962442Y-46765378D01*
X25908282Y-46804728D01*
X26540591Y-47437037D01*
X26477007Y-47454075D01*
X26362993Y-47519901D01*
X26269901Y-47612993D01*
X26204075Y-47727007D01*
X26187037Y-47790591D01*
X25525910Y-47129464D01*
X25500000Y-47078611D01*
X25500000Y-47059174D01*
X25500848Y-47052011D01*
X25500000Y-47052011D01*
X25500000Y-44999000D01*
X25518907Y-44940809D01*
X25568407Y-44904845D01*
X25599000Y-44900000D01*
X54901000Y-44900000D01*
X54959191Y-44918907D01*
G37*
%TD.AperFunction*%
%TA.AperFunction,Conductor*%
G36*
X26204075Y-48112993D02*
G01*
X26269901Y-48227007D01*
X26362993Y-48320099D01*
X26477007Y-48385925D01*
X26540589Y-48402962D01*
X25908282Y-49035269D01*
X25908282Y-49035270D01*
X25962440Y-49074619D01*
X25962446Y-49074623D01*
X26151784Y-49171095D01*
X26353878Y-49236759D01*
X26408176Y-49245359D01*
X26462692Y-49273136D01*
X26490470Y-49327653D01*
X26480899Y-49388085D01*
X26437634Y-49431350D01*
X26412003Y-49440238D01*
X26363581Y-49449869D01*
X26172402Y-49529058D01*
X26000348Y-49644020D01*
X25854020Y-49790348D01*
X25739058Y-49962402D01*
X25690464Y-50079720D01*
X25650727Y-50126245D01*
X25591232Y-50140529D01*
X25534705Y-50117114D01*
X25502735Y-50064945D01*
X25500000Y-50041834D01*
X25500000Y-48787987D01*
X25502055Y-48787987D01*
X25500000Y-48761916D01*
X25500000Y-48756807D01*
X25525910Y-48710535D01*
X26187036Y-48049407D01*
X26204075Y-48112993D01*
G37*
%TD.AperFunction*%
%TD*%
M02*
