%TF.GenerationSoftware,KiCad,Pcbnew,9.0.6*%
%TF.CreationDate,2026-02-24T16:19:26+00:00*%
%TF.ProjectId,Backplane,4261636b-706c-4616-9e65-2e6b69636164,rev?*%
%TF.SameCoordinates,Original*%
%TF.FileFunction,Soldermask,Top*%
%TF.FilePolarity,Negative*%
%FSLAX46Y46*%
G04 Gerber Fmt 4.6, Leading zero omitted, Abs format (unit mm)*
G04 Created by KiCad (PCBNEW 9.0.6) date 2026-02-24 16:19:26*
%MOMM*%
%LPD*%
G01*
G04 APERTURE LIST*
G04 Aperture macros list*
%AMRoundRect*
0 Rectangle with rounded corners*
0 $1 Rounding radius*
0 $2 $3 $4 $5 $6 $7 $8 $9 X,Y pos of 4 corners*
0 Add a 4 corners polygon primitive as box body*
4,1,4,$2,$3,$4,$5,$6,$7,$8,$9,$2,$3,0*
0 Add four circle primitives for the rounded corners*
1,1,$1+$1,$2,$3*
1,1,$1+$1,$4,$5*
1,1,$1+$1,$6,$7*
1,1,$1+$1,$8,$9*
0 Add four rect primitives between the rounded corners*
20,1,$1+$1,$2,$3,$4,$5,0*
20,1,$1+$1,$4,$5,$6,$7,0*
20,1,$1+$1,$6,$7,$8,$9,0*
20,1,$1+$1,$8,$9,$2,$3,0*%
%AMFreePoly0*
4,1,23,0.500000,-0.750000,0.000000,-0.750000,0.000000,-0.745722,-0.065263,-0.745722,-0.191342,-0.711940,-0.304381,-0.646677,-0.396677,-0.554381,-0.461940,-0.441342,-0.495722,-0.315263,-0.495722,-0.250000,-0.500000,-0.250000,-0.500000,0.250000,-0.495722,0.250000,-0.495722,0.315263,-0.461940,0.441342,-0.396677,0.554381,-0.304381,0.646677,-0.191342,0.711940,-0.065263,0.745722,0.000000,0.745722,
0.000000,0.750000,0.500000,0.750000,0.500000,-0.750000,0.500000,-0.750000,$1*%
%AMFreePoly1*
4,1,23,0.000000,0.745722,0.065263,0.745722,0.191342,0.711940,0.304381,0.646677,0.396677,0.554381,0.461940,0.441342,0.495722,0.315263,0.495722,0.250000,0.500000,0.250000,0.500000,-0.250000,0.495722,-0.250000,0.495722,-0.315263,0.461940,-0.441342,0.396677,-0.554381,0.304381,-0.646677,0.191342,-0.711940,0.065263,-0.745722,0.000000,-0.745722,0.000000,-0.750000,-0.500000,-0.750000,
-0.500000,0.750000,0.000000,0.750000,0.000000,0.745722,0.000000,0.745722,$1*%
G04 Aperture macros list end*
%ADD10R,1.700000X1.700000*%
%ADD11O,1.700000X1.700000*%
%ADD12RoundRect,0.225000X-0.225000X-0.250000X0.225000X-0.250000X0.225000X0.250000X-0.225000X0.250000X0*%
%ADD13RoundRect,0.150000X-0.650000X-0.150000X0.650000X-0.150000X0.650000X0.150000X-0.650000X0.150000X0*%
%ADD14RoundRect,0.225000X0.250000X-0.225000X0.250000X0.225000X-0.250000X0.225000X-0.250000X-0.225000X0*%
%ADD15RoundRect,0.200000X-0.275000X0.200000X-0.275000X-0.200000X0.275000X-0.200000X0.275000X0.200000X0*%
%ADD16RoundRect,0.150000X0.150000X-0.825000X0.150000X0.825000X-0.150000X0.825000X-0.150000X-0.825000X0*%
%ADD17R,3.000000X2.290000*%
%ADD18RoundRect,0.218750X-0.256250X0.218750X-0.256250X-0.218750X0.256250X-0.218750X0.256250X0.218750X0*%
%ADD19RoundRect,0.200000X0.200000X0.275000X-0.200000X0.275000X-0.200000X-0.275000X0.200000X-0.275000X0*%
%ADD20C,3.200000*%
%ADD21RoundRect,0.225000X-0.250000X0.225000X-0.250000X-0.225000X0.250000X-0.225000X0.250000X0.225000X0*%
%ADD22RoundRect,0.150000X-0.150000X0.825000X-0.150000X-0.825000X0.150000X-0.825000X0.150000X0.825000X0*%
%ADD23C,1.400000*%
%ADD24RoundRect,0.770000X0.980000X-0.980000X0.980000X0.980000X-0.980000X0.980000X-0.980000X-0.980000X0*%
%ADD25C,3.500000*%
%ADD26RoundRect,0.200000X-0.200000X-0.275000X0.200000X-0.275000X0.200000X0.275000X-0.200000X0.275000X0*%
%ADD27FreePoly0,90.000000*%
%ADD28FreePoly1,90.000000*%
%ADD29RoundRect,0.150000X0.875000X0.150000X-0.875000X0.150000X-0.875000X-0.150000X0.875000X-0.150000X0*%
%ADD30RoundRect,0.150000X-0.587500X-0.150000X0.587500X-0.150000X0.587500X0.150000X-0.587500X0.150000X0*%
%ADD31RoundRect,0.150000X0.587500X0.150000X-0.587500X0.150000X-0.587500X-0.150000X0.587500X-0.150000X0*%
%ADD32RoundRect,0.050000X-0.100000X0.285000X-0.100000X-0.285000X0.100000X-0.285000X0.100000X0.285000X0*%
%ADD33RoundRect,0.225000X0.225000X0.250000X-0.225000X0.250000X-0.225000X-0.250000X0.225000X-0.250000X0*%
%ADD34RoundRect,0.200000X0.275000X-0.200000X0.275000X0.200000X-0.275000X0.200000X-0.275000X-0.200000X0*%
%ADD35RoundRect,0.770000X-0.980000X0.980000X-0.980000X-0.980000X0.980000X-0.980000X0.980000X0.980000X0*%
%ADD36RoundRect,0.250000X-0.325000X-0.650000X0.325000X-0.650000X0.325000X0.650000X-0.325000X0.650000X0*%
%ADD37RoundRect,0.250000X0.850000X-0.375000X0.850000X0.375000X-0.850000X0.375000X-0.850000X-0.375000X0*%
%ADD38RoundRect,0.150000X0.650000X0.150000X-0.650000X0.150000X-0.650000X-0.150000X0.650000X-0.150000X0*%
%ADD39RoundRect,0.087500X-0.725000X-0.087500X0.725000X-0.087500X0.725000X0.087500X-0.725000X0.087500X0*%
%ADD40RoundRect,0.050000X0.100000X-0.285000X0.100000X0.285000X-0.100000X0.285000X-0.100000X-0.285000X0*%
%ADD41C,0.990600*%
%ADD42C,0.787400*%
%ADD43RoundRect,0.087500X0.725000X0.087500X-0.725000X0.087500X-0.725000X-0.087500X0.725000X-0.087500X0*%
G04 APERTURE END LIST*
%TO.C,JP6*%
G36*
X29350000Y-80300000D02*
G01*
X30850000Y-80300000D01*
X30850000Y-80000000D01*
X29350000Y-80000000D01*
X29350000Y-80300000D01*
G37*
%TO.C,JP5*%
G36*
X31950000Y-80300000D02*
G01*
X33450000Y-80300000D01*
X33450000Y-80000000D01*
X31950000Y-80000000D01*
X31950000Y-80300000D01*
G37*
%TD*%
D10*
%TO.C,J4*%
X26670000Y-58080000D03*
D11*
X24130000Y-58080000D03*
X26670000Y-55540000D03*
X24130000Y-55540000D03*
X26670000Y-53000000D03*
X24130000Y-53000000D03*
X26670000Y-50460000D03*
X24130000Y-50460000D03*
X26670000Y-47920000D03*
X24130000Y-47920000D03*
%TD*%
D12*
%TO.C,C9*%
X34277000Y-100838000D03*
X35827000Y-100838000D03*
%TD*%
D13*
%TO.C,U3*%
X30219000Y-71567000D03*
X30219000Y-72517000D03*
X30219000Y-73467000D03*
X32519000Y-73467000D03*
X32519000Y-72517000D03*
X32519000Y-71567000D03*
%TD*%
D10*
%TO.C,J2*%
X26670000Y-106458000D03*
D11*
X24130000Y-106458000D03*
X26670000Y-103918000D03*
X24130000Y-103918000D03*
X26670000Y-101378000D03*
X24130000Y-101378000D03*
X26670000Y-98838000D03*
X24130000Y-98838000D03*
X26670000Y-96298000D03*
X24130000Y-96298000D03*
X26670000Y-93758000D03*
X24130000Y-93758000D03*
X26670000Y-91218000D03*
X24130000Y-91218000D03*
X26670000Y-88678000D03*
X24130000Y-88678000D03*
%TD*%
D12*
%TO.C,C11*%
X38341000Y-110998000D03*
X39891000Y-110998000D03*
%TD*%
D14*
%TO.C,C7*%
X31200000Y-99275000D03*
X31200000Y-97725000D03*
%TD*%
D15*
%TO.C,R24*%
X44958000Y-101283000D03*
X44958000Y-102933000D03*
%TD*%
D16*
%TO.C,U6*%
X44831000Y-95693000D03*
X46101000Y-95693000D03*
X47371000Y-95693000D03*
X48641000Y-95693000D03*
X48641000Y-90743000D03*
X47371000Y-90743000D03*
X46101000Y-90743000D03*
X44831000Y-90743000D03*
D17*
X46736000Y-93218000D03*
%TD*%
D18*
%TO.C,D2*%
X44050000Y-58972500D03*
X44050000Y-60547500D03*
%TD*%
D19*
%TO.C,R18*%
X49085000Y-98298000D03*
X47435000Y-98298000D03*
%TD*%
D20*
%TO.C,H4*%
X56000000Y-24000000D03*
%TD*%
D14*
%TO.C,C10*%
X39370000Y-105677000D03*
X39370000Y-104127000D03*
%TD*%
D21*
%TO.C,C13*%
X41148000Y-93459000D03*
X41148000Y-95009000D03*
%TD*%
D22*
%TO.C,U4*%
X35433000Y-103443000D03*
X34163000Y-103443000D03*
X32893000Y-103443000D03*
X31623000Y-103443000D03*
X31623000Y-108393000D03*
X32893000Y-108393000D03*
X34163000Y-108393000D03*
X35433000Y-108393000D03*
D17*
X33528000Y-105918000D03*
%TD*%
D23*
%TO.C,J6*%
X23675000Y-40500000D03*
X23675000Y-29500000D03*
D24*
X33675000Y-32500000D03*
D25*
X33675000Y-37500000D03*
%TD*%
D15*
%TO.C,R4*%
X40550000Y-57435000D03*
X40550000Y-59085000D03*
%TD*%
D26*
%TO.C,R14*%
X34227000Y-99314000D03*
X35877000Y-99314000D03*
%TD*%
D19*
%TO.C,R16*%
X32617000Y-92660000D03*
X30967000Y-92660000D03*
%TD*%
D27*
%TO.C,JP6*%
X30100000Y-80800000D03*
D28*
X30100000Y-79500000D03*
%TD*%
D21*
%TO.C,C12*%
X49100000Y-99825000D03*
X49100000Y-101375000D03*
%TD*%
%TO.C,C15*%
X42672000Y-93459000D03*
X42672000Y-95009000D03*
%TD*%
D26*
%TO.C,R19*%
X47435000Y-107924000D03*
X49085000Y-107924000D03*
%TD*%
%TO.C,R11*%
X31179000Y-100838000D03*
X32829000Y-100838000D03*
%TD*%
%TO.C,R20*%
X47435000Y-88646000D03*
X49085000Y-88646000D03*
%TD*%
D29*
%TO.C,U1*%
X44650000Y-80772000D03*
X44650000Y-79502000D03*
X44650000Y-78232000D03*
X44650000Y-76962000D03*
X44650000Y-75692000D03*
X44650000Y-74422000D03*
X44650000Y-73152000D03*
X44650000Y-71882000D03*
X44650000Y-70612000D03*
X44650000Y-69342000D03*
X35350000Y-69342000D03*
X35350000Y-70612000D03*
X35350000Y-71882000D03*
X35350000Y-73152000D03*
X35350000Y-74422000D03*
X35350000Y-75692000D03*
X35350000Y-76962000D03*
X35350000Y-78232000D03*
X35350000Y-79502000D03*
X35350000Y-80772000D03*
%TD*%
D30*
%TO.C,D3*%
X39962500Y-43692000D03*
X39962500Y-45592000D03*
X41837500Y-44642000D03*
%TD*%
D18*
%TO.C,D1*%
X42450000Y-58972500D03*
X42450000Y-60547500D03*
%TD*%
D31*
%TO.C,Q2*%
X48689500Y-104810000D03*
X48689500Y-102910000D03*
X46814500Y-103860000D03*
%TD*%
D32*
%TO.C,U2*%
X39100000Y-57520000D03*
X38600000Y-57520000D03*
X38100000Y-57520000D03*
X37600000Y-57520000D03*
X37600000Y-59000000D03*
X38100000Y-59000000D03*
X38600000Y-59000000D03*
X39100000Y-59000000D03*
%TD*%
D33*
%TO.C,C14*%
X46000000Y-98298000D03*
X44450000Y-98298000D03*
%TD*%
D26*
%TO.C,R22*%
X44387000Y-88646000D03*
X46037000Y-88646000D03*
%TD*%
D19*
%TO.C,R8*%
X40825000Y-48500000D03*
X39175000Y-48500000D03*
%TD*%
D30*
%TO.C,Q1*%
X31362500Y-94250000D03*
X31362500Y-96150000D03*
X33237500Y-95200000D03*
%TD*%
D34*
%TO.C,R17*%
X35306000Y-97853000D03*
X35306000Y-96203000D03*
%TD*%
D33*
%TO.C,C16*%
X42177000Y-88138000D03*
X40627000Y-88138000D03*
%TD*%
D20*
%TO.C,H1*%
X24000000Y-116000000D03*
%TD*%
D23*
%TO.C,J7*%
X50000000Y-29500000D03*
X50000000Y-40500000D03*
D35*
X45000000Y-32500000D03*
D25*
X45000000Y-37500000D03*
%TD*%
D36*
%TO.C,C5*%
X37875000Y-53160000D03*
X40825000Y-53160000D03*
%TD*%
D15*
%TO.C,R27*%
X32700000Y-84750000D03*
X32700000Y-86400000D03*
%TD*%
D20*
%TO.C,H2*%
X24000000Y-24000000D03*
%TD*%
D15*
%TO.C,R26*%
X34300000Y-84750000D03*
X34300000Y-86400000D03*
%TD*%
D37*
%TO.C,L1*%
X35550000Y-57535000D03*
X35550000Y-55385000D03*
%TD*%
D36*
%TO.C,C4*%
X37875000Y-60960000D03*
X40825000Y-60960000D03*
%TD*%
D14*
%TO.C,C2*%
X44450000Y-84341000D03*
X44450000Y-82791000D03*
%TD*%
D38*
%TO.C,U9*%
X49791000Y-74737000D03*
X49791000Y-73787000D03*
X49791000Y-72837000D03*
X47491000Y-72837000D03*
X47491000Y-73787000D03*
X47491000Y-74737000D03*
%TD*%
D34*
%TO.C,R2*%
X42450000Y-57585000D03*
X42450000Y-55935000D03*
%TD*%
D15*
%TO.C,R1*%
X45974000Y-82741000D03*
X45974000Y-84391000D03*
%TD*%
D39*
%TO.C,U5*%
X38273500Y-107204000D03*
X38273500Y-107704000D03*
X38273500Y-108204000D03*
X38273500Y-108704000D03*
X38273500Y-109204000D03*
X42498500Y-109204000D03*
X42498500Y-108704000D03*
X42498500Y-108204000D03*
X42498500Y-107704000D03*
X42498500Y-107204000D03*
%TD*%
D40*
%TO.C,U8*%
X39250000Y-67590000D03*
X39750000Y-67590000D03*
X40250000Y-67590000D03*
X40750000Y-67590000D03*
X40750000Y-66110000D03*
X40250000Y-66110000D03*
X39750000Y-66110000D03*
X39250000Y-66110000D03*
%TD*%
D10*
%TO.C,J3*%
X53340000Y-88678000D03*
D11*
X55880000Y-88678000D03*
X53340000Y-91218000D03*
X55880000Y-91218000D03*
X53340000Y-93758000D03*
X55880000Y-93758000D03*
X53340000Y-96298000D03*
X55880000Y-96298000D03*
X53340000Y-98838000D03*
X55880000Y-98838000D03*
X53340000Y-101378000D03*
X55880000Y-101378000D03*
X53340000Y-103918000D03*
X55880000Y-103918000D03*
X53340000Y-106458000D03*
X55880000Y-106458000D03*
%TD*%
D19*
%TO.C,R15*%
X35877000Y-110490000D03*
X34227000Y-110490000D03*
%TD*%
%TO.C,R6*%
X43873000Y-48500000D03*
X42223000Y-48500000D03*
%TD*%
%TO.C,R13*%
X32829000Y-110490000D03*
X31179000Y-110490000D03*
%TD*%
D36*
%TO.C,C6*%
X37875000Y-55560000D03*
X40825000Y-55560000D03*
%TD*%
D41*
%TO.C,J1*%
X42540000Y-84500000D03*
X37460000Y-85516000D03*
X37460000Y-83484000D03*
D42*
X41270000Y-83865000D03*
X41270000Y-85135000D03*
X40000000Y-83865000D03*
X40000000Y-85135000D03*
X38730000Y-83865000D03*
X38730000Y-85135000D03*
%TD*%
D14*
%TO.C,C8*%
X37846000Y-105677000D03*
X37846000Y-104127000D03*
%TD*%
D19*
%TO.C,R21*%
X46037000Y-99822000D03*
X44387000Y-99822000D03*
%TD*%
%TO.C,R10*%
X37777000Y-48500000D03*
X36127000Y-48500000D03*
%TD*%
D15*
%TO.C,R3*%
X44050000Y-55935000D03*
X44050000Y-57585000D03*
%TD*%
D43*
%TO.C,U7*%
X42244500Y-91932000D03*
X42244500Y-91432000D03*
X42244500Y-90932000D03*
X42244500Y-90432000D03*
X42244500Y-89932000D03*
X38019500Y-89932000D03*
X38019500Y-90432000D03*
X38019500Y-90932000D03*
X38019500Y-91432000D03*
X38019500Y-91932000D03*
%TD*%
D27*
%TO.C,JP5*%
X32700000Y-80800000D03*
D28*
X32700000Y-79500000D03*
%TD*%
D26*
%TO.C,R28*%
X34300000Y-87975000D03*
X35950000Y-87975000D03*
%TD*%
D21*
%TO.C,C1*%
X47500000Y-82791000D03*
X47500000Y-84341000D03*
%TD*%
D19*
%TO.C,R12*%
X32617000Y-91136000D03*
X30967000Y-91136000D03*
%TD*%
%TO.C,R29*%
X32700000Y-87975000D03*
X31050000Y-87975000D03*
%TD*%
D20*
%TO.C,H3*%
X56000000Y-116000000D03*
%TD*%
D21*
%TO.C,C3*%
X37800000Y-66100000D03*
X37800000Y-67650000D03*
%TD*%
D10*
%TO.C,J5*%
X53340000Y-47920000D03*
D11*
X55880000Y-47920000D03*
X53340000Y-50460000D03*
X55880000Y-50460000D03*
X53340000Y-53000000D03*
X55880000Y-53000000D03*
X53340000Y-55540000D03*
X55880000Y-55540000D03*
X53340000Y-58080000D03*
X55880000Y-58080000D03*
%TD*%
D15*
%TO.C,R25*%
X38087500Y-43786000D03*
X38087500Y-45436000D03*
%TD*%
D26*
%TO.C,R23*%
X47435000Y-106400000D03*
X49085000Y-106400000D03*
%TD*%
M02*
