%TF.GenerationSoftware,KiCad,Pcbnew,9.0.6*%
%TF.CreationDate,2026-02-24T16:19:26+00:00*%
%TF.ProjectId,Backplane,4261636b-706c-4616-9e65-2e6b69636164,rev?*%
%TF.SameCoordinates,Original*%
%TF.FileFunction,Paste,Top*%
%TF.FilePolarity,Positive*%
%FSLAX46Y46*%
G04 Gerber Fmt 4.6, Leading zero omitted, Abs format (unit mm)*
G04 Created by KiCad (PCBNEW 9.0.6) date 2026-02-24 16:19:26*
%MOMM*%
%LPD*%
G01*
G04 APERTURE LIST*
G04 Aperture macros list*
%AMRoundRect*
0 Rectangle with rounded corners*
0 $1 Rounding radius*
0 $2 $3 $4 $5 $6 $7 $8 $9 X,Y pos of 4 corners*
0 Add a 4 corners polygon primitive as box body*
4,1,4,$2,$3,$4,$5,$6,$7,$8,$9,$2,$3,0*
0 Add four circle primitives for the rounded corners*
1,1,$1+$1,$2,$3*
1,1,$1+$1,$4,$5*
1,1,$1+$1,$6,$7*
1,1,$1+$1,$8,$9*
0 Add four rect primitives between the rounded corners*
20,1,$1+$1,$2,$3,$4,$5,0*
20,1,$1+$1,$4,$5,$6,$7,0*
20,1,$1+$1,$6,$7,$8,$9,0*
20,1,$1+$1,$8,$9,$2,$3,0*%
G04 Aperture macros list end*
%ADD10RoundRect,0.225000X-0.225000X-0.250000X0.225000X-0.250000X0.225000X0.250000X-0.225000X0.250000X0*%
%ADD11RoundRect,0.150000X-0.650000X-0.150000X0.650000X-0.150000X0.650000X0.150000X-0.650000X0.150000X0*%
%ADD12RoundRect,0.225000X0.250000X-0.225000X0.250000X0.225000X-0.250000X0.225000X-0.250000X-0.225000X0*%
%ADD13RoundRect,0.200000X-0.275000X0.200000X-0.275000X-0.200000X0.275000X-0.200000X0.275000X0.200000X0*%
%ADD14RoundRect,0.230000X0.375000X-0.230000X0.375000X0.230000X-0.375000X0.230000X-0.375000X-0.230000X0*%
%ADD15RoundRect,0.150000X0.150000X-0.825000X0.150000X0.825000X-0.150000X0.825000X-0.150000X-0.825000X0*%
%ADD16RoundRect,0.218750X-0.256250X0.218750X-0.256250X-0.218750X0.256250X-0.218750X0.256250X0.218750X0*%
%ADD17RoundRect,0.200000X0.200000X0.275000X-0.200000X0.275000X-0.200000X-0.275000X0.200000X-0.275000X0*%
%ADD18RoundRect,0.225000X-0.250000X0.225000X-0.250000X-0.225000X0.250000X-0.225000X0.250000X0.225000X0*%
%ADD19RoundRect,0.230000X-0.375000X0.230000X-0.375000X-0.230000X0.375000X-0.230000X0.375000X0.230000X0*%
%ADD20RoundRect,0.150000X-0.150000X0.825000X-0.150000X-0.825000X0.150000X-0.825000X0.150000X0.825000X0*%
%ADD21RoundRect,0.200000X-0.200000X-0.275000X0.200000X-0.275000X0.200000X0.275000X-0.200000X0.275000X0*%
%ADD22RoundRect,0.150000X0.875000X0.150000X-0.875000X0.150000X-0.875000X-0.150000X0.875000X-0.150000X0*%
%ADD23RoundRect,0.150000X-0.587500X-0.150000X0.587500X-0.150000X0.587500X0.150000X-0.587500X0.150000X0*%
%ADD24RoundRect,0.150000X0.587500X0.150000X-0.587500X0.150000X-0.587500X-0.150000X0.587500X-0.150000X0*%
%ADD25RoundRect,0.050000X-0.100000X0.285000X-0.100000X-0.285000X0.100000X-0.285000X0.100000X0.285000X0*%
%ADD26RoundRect,0.225000X0.225000X0.250000X-0.225000X0.250000X-0.225000X-0.250000X0.225000X-0.250000X0*%
%ADD27RoundRect,0.200000X0.275000X-0.200000X0.275000X0.200000X-0.275000X0.200000X-0.275000X-0.200000X0*%
%ADD28RoundRect,0.250000X-0.325000X-0.650000X0.325000X-0.650000X0.325000X0.650000X-0.325000X0.650000X0*%
%ADD29RoundRect,0.250000X0.850000X-0.375000X0.850000X0.375000X-0.850000X0.375000X-0.850000X-0.375000X0*%
%ADD30RoundRect,0.150000X0.650000X0.150000X-0.650000X0.150000X-0.650000X-0.150000X0.650000X-0.150000X0*%
%ADD31RoundRect,0.087500X-0.725000X-0.087500X0.725000X-0.087500X0.725000X0.087500X-0.725000X0.087500X0*%
%ADD32RoundRect,0.050000X0.100000X-0.285000X0.100000X0.285000X-0.100000X0.285000X-0.100000X-0.285000X0*%
%ADD33RoundRect,0.087500X0.725000X0.087500X-0.725000X0.087500X-0.725000X-0.087500X0.725000X-0.087500X0*%
G04 APERTURE END LIST*
D10*
%TO.C,C9*%
X34277000Y-100838000D03*
X35827000Y-100838000D03*
%TD*%
D11*
%TO.C,U3*%
X30219000Y-71567000D03*
X30219000Y-72517000D03*
X30219000Y-73467000D03*
X32519000Y-73467000D03*
X32519000Y-72517000D03*
X32519000Y-71567000D03*
%TD*%
D10*
%TO.C,C11*%
X38341000Y-110998000D03*
X39891000Y-110998000D03*
%TD*%
D12*
%TO.C,C7*%
X31200000Y-99275000D03*
X31200000Y-97725000D03*
%TD*%
D13*
%TO.C,R24*%
X44958000Y-101283000D03*
X44958000Y-102933000D03*
%TD*%
D14*
%TO.C,U6*%
X45986000Y-93788000D03*
X47486000Y-93788000D03*
X45986000Y-92648000D03*
X47486000Y-92648000D03*
D15*
X44831000Y-95693000D03*
X46101000Y-95693000D03*
X47371000Y-95693000D03*
X48641000Y-95693000D03*
X48641000Y-90743000D03*
X47371000Y-90743000D03*
X46101000Y-90743000D03*
X44831000Y-90743000D03*
%TD*%
D16*
%TO.C,D2*%
X44050000Y-58972500D03*
X44050000Y-60547500D03*
%TD*%
D17*
%TO.C,R18*%
X49085000Y-98298000D03*
X47435000Y-98298000D03*
%TD*%
D12*
%TO.C,C10*%
X39370000Y-105677000D03*
X39370000Y-104127000D03*
%TD*%
D18*
%TO.C,C13*%
X41148000Y-93459000D03*
X41148000Y-95009000D03*
%TD*%
D19*
%TO.C,U4*%
X34278000Y-105348000D03*
X32778000Y-105348000D03*
X34278000Y-106488000D03*
X32778000Y-106488000D03*
D20*
X35433000Y-103443000D03*
X34163000Y-103443000D03*
X32893000Y-103443000D03*
X31623000Y-103443000D03*
X31623000Y-108393000D03*
X32893000Y-108393000D03*
X34163000Y-108393000D03*
X35433000Y-108393000D03*
%TD*%
D13*
%TO.C,R4*%
X40550000Y-57435000D03*
X40550000Y-59085000D03*
%TD*%
D21*
%TO.C,R14*%
X34227000Y-99314000D03*
X35877000Y-99314000D03*
%TD*%
D17*
%TO.C,R16*%
X32617000Y-92660000D03*
X30967000Y-92660000D03*
%TD*%
D18*
%TO.C,C12*%
X49100000Y-99825000D03*
X49100000Y-101375000D03*
%TD*%
%TO.C,C15*%
X42672000Y-93459000D03*
X42672000Y-95009000D03*
%TD*%
D21*
%TO.C,R19*%
X47435000Y-107924000D03*
X49085000Y-107924000D03*
%TD*%
%TO.C,R11*%
X31179000Y-100838000D03*
X32829000Y-100838000D03*
%TD*%
%TO.C,R20*%
X47435000Y-88646000D03*
X49085000Y-88646000D03*
%TD*%
D22*
%TO.C,U1*%
X44650000Y-80772000D03*
X44650000Y-79502000D03*
X44650000Y-78232000D03*
X44650000Y-76962000D03*
X44650000Y-75692000D03*
X44650000Y-74422000D03*
X44650000Y-73152000D03*
X44650000Y-71882000D03*
X44650000Y-70612000D03*
X44650000Y-69342000D03*
X35350000Y-69342000D03*
X35350000Y-70612000D03*
X35350000Y-71882000D03*
X35350000Y-73152000D03*
X35350000Y-74422000D03*
X35350000Y-75692000D03*
X35350000Y-76962000D03*
X35350000Y-78232000D03*
X35350000Y-79502000D03*
X35350000Y-80772000D03*
%TD*%
D23*
%TO.C,D3*%
X39962500Y-43692000D03*
X39962500Y-45592000D03*
X41837500Y-44642000D03*
%TD*%
D16*
%TO.C,D1*%
X42450000Y-58972500D03*
X42450000Y-60547500D03*
%TD*%
D24*
%TO.C,Q2*%
X48689500Y-104810000D03*
X48689500Y-102910000D03*
X46814500Y-103860000D03*
%TD*%
D25*
%TO.C,U2*%
X39100000Y-57520000D03*
X38600000Y-57520000D03*
X38100000Y-57520000D03*
X37600000Y-57520000D03*
X37600000Y-59000000D03*
X38100000Y-59000000D03*
X38600000Y-59000000D03*
X39100000Y-59000000D03*
%TD*%
D26*
%TO.C,C14*%
X46000000Y-98298000D03*
X44450000Y-98298000D03*
%TD*%
D21*
%TO.C,R22*%
X44387000Y-88646000D03*
X46037000Y-88646000D03*
%TD*%
D17*
%TO.C,R8*%
X40825000Y-48500000D03*
X39175000Y-48500000D03*
%TD*%
D23*
%TO.C,Q1*%
X31362500Y-94250000D03*
X31362500Y-96150000D03*
X33237500Y-95200000D03*
%TD*%
D27*
%TO.C,R17*%
X35306000Y-97853000D03*
X35306000Y-96203000D03*
%TD*%
D26*
%TO.C,C16*%
X42177000Y-88138000D03*
X40627000Y-88138000D03*
%TD*%
D28*
%TO.C,C5*%
X37875000Y-53160000D03*
X40825000Y-53160000D03*
%TD*%
D13*
%TO.C,R27*%
X32700000Y-84750000D03*
X32700000Y-86400000D03*
%TD*%
%TO.C,R26*%
X34300000Y-84750000D03*
X34300000Y-86400000D03*
%TD*%
D29*
%TO.C,L1*%
X35550000Y-57535000D03*
X35550000Y-55385000D03*
%TD*%
D28*
%TO.C,C4*%
X37875000Y-60960000D03*
X40825000Y-60960000D03*
%TD*%
D12*
%TO.C,C2*%
X44450000Y-84341000D03*
X44450000Y-82791000D03*
%TD*%
D30*
%TO.C,U9*%
X49791000Y-74737000D03*
X49791000Y-73787000D03*
X49791000Y-72837000D03*
X47491000Y-72837000D03*
X47491000Y-73787000D03*
X47491000Y-74737000D03*
%TD*%
D27*
%TO.C,R2*%
X42450000Y-57585000D03*
X42450000Y-55935000D03*
%TD*%
D13*
%TO.C,R1*%
X45974000Y-82741000D03*
X45974000Y-84391000D03*
%TD*%
D31*
%TO.C,U5*%
X38273500Y-107204000D03*
X38273500Y-107704000D03*
X38273500Y-108204000D03*
X38273500Y-108704000D03*
X38273500Y-109204000D03*
X42498500Y-109204000D03*
X42498500Y-108704000D03*
X42498500Y-108204000D03*
X42498500Y-107704000D03*
X42498500Y-107204000D03*
%TD*%
D32*
%TO.C,U8*%
X39250000Y-67590000D03*
X39750000Y-67590000D03*
X40250000Y-67590000D03*
X40750000Y-67590000D03*
X40750000Y-66110000D03*
X40250000Y-66110000D03*
X39750000Y-66110000D03*
X39250000Y-66110000D03*
%TD*%
D17*
%TO.C,R15*%
X35877000Y-110490000D03*
X34227000Y-110490000D03*
%TD*%
%TO.C,R6*%
X43873000Y-48500000D03*
X42223000Y-48500000D03*
%TD*%
%TO.C,R13*%
X32829000Y-110490000D03*
X31179000Y-110490000D03*
%TD*%
D28*
%TO.C,C6*%
X37875000Y-55560000D03*
X40825000Y-55560000D03*
%TD*%
D12*
%TO.C,C8*%
X37846000Y-105677000D03*
X37846000Y-104127000D03*
%TD*%
D17*
%TO.C,R21*%
X46037000Y-99822000D03*
X44387000Y-99822000D03*
%TD*%
%TO.C,R10*%
X37777000Y-48500000D03*
X36127000Y-48500000D03*
%TD*%
D13*
%TO.C,R3*%
X44050000Y-55935000D03*
X44050000Y-57585000D03*
%TD*%
D33*
%TO.C,U7*%
X42244500Y-91932000D03*
X42244500Y-91432000D03*
X42244500Y-90932000D03*
X42244500Y-90432000D03*
X42244500Y-89932000D03*
X38019500Y-89932000D03*
X38019500Y-90432000D03*
X38019500Y-90932000D03*
X38019500Y-91432000D03*
X38019500Y-91932000D03*
%TD*%
D21*
%TO.C,R28*%
X34300000Y-87975000D03*
X35950000Y-87975000D03*
%TD*%
D18*
%TO.C,C1*%
X47500000Y-82791000D03*
X47500000Y-84341000D03*
%TD*%
D17*
%TO.C,R12*%
X32617000Y-91136000D03*
X30967000Y-91136000D03*
%TD*%
%TO.C,R29*%
X32700000Y-87975000D03*
X31050000Y-87975000D03*
%TD*%
D18*
%TO.C,C3*%
X37800000Y-66100000D03*
X37800000Y-67650000D03*
%TD*%
D13*
%TO.C,R25*%
X38087500Y-43786000D03*
X38087500Y-45436000D03*
%TD*%
D21*
%TO.C,R23*%
X47435000Y-106400000D03*
X49085000Y-106400000D03*
%TD*%
M02*
