M48
; DRILL file {KiCad 9.0.6} date 2026-02-24T16:19:38+0000
; FORMAT={-:-/ absolute / metric / decimal}
; #@! TF.CreationDate,2026-02-24T16:19:38+00:00
; #@! TF.GenerationSoftware,Kicad,Pcbnew,9.0.6
; #@! TF.FileFunction,Plated,1,4,PTH
FMAT,2
METRIC
; #@! TA.AperFunction,Plated,PTH,ViaDrill
T1C0.300
; #@! TA.AperFunction,Plated,PTH,ComponentDrill
T2C1.000
; #@! TA.AperFunction,Plated,PTH,ComponentDrill
T3C1.900
%
G90
G05
T1
X21.325Y-30.135
X21.325Y-37.755
X21.844Y-48.2
X23.865Y-42.835
X26.405Y-32.675
X26.405Y-60.615
X26.405Y-68.235
X26.405Y-75.855
X26.405Y-83.475
X26.67Y-45.72
X27.94Y-45.72
X28.945Y-37.755
X28.945Y-47.915
X28.956Y-72.517
X29.21Y-45.72
X29.21Y-50.038
X29.8Y-98.8
X29.8Y-99.7
X29.8Y-100.6
X29.8Y-101.5
X29.8Y-102.362
X29.8Y-103.2
X31.485Y-42.835
X31.485Y-52.995
X31.485Y-63.155
X31.496Y-105.918
X31.75Y-90.1
X32.2Y-97.7
X32.893Y-111.379
X33.782Y-70.612
X33.782Y-71.882
X33.782Y-73.152
X33.782Y-74.422
X33.782Y-75.692
X33.782Y-76.962
X34.025Y-68.235
X34.025Y-93.635
X35.174Y-48.5
X35.306Y-81.534
X35.306Y-96.953
X35.433Y-101.854
X35.56Y-105.918
X35.688Y-60.347
X35.688Y-61.147
X35.688Y-61.947
X36.1Y-91.0
X36.565Y-30.135
X36.565Y-37.755
X36.587Y-60.347
X36.587Y-61.147
X36.587Y-61.947
X36.703Y-91.694
X37.05Y-59.06
X37.8Y-68.399
X37.846Y-103.378
X38.013Y-80.859
X38.5Y-50.038
X39.105Y-63.155
X39.105Y-73.315
X39.105Y-96.175
X39.129Y-91.965
X39.15Y-59.76
X39.37Y-89.662
X39.37Y-103.378
X39.419Y-108.704
X39.419Y-107.704
X39.75Y-60.96
X39.75Y-69.4
X39.757Y-66.895
X39.85Y-53.16
X39.85Y-55.56
X39.878Y-88.138
X40.0Y-85.9
X40.259Y-108.077
X40.386Y-107.188
X40.413Y-82.269
X40.637Y-44.65
X40.64Y-110.998
X40.759Y-66.805
X41.097Y-90.43
X41.097Y-91.431
X41.148Y-95.758
X41.45Y-59.06
X41.5Y-51.308
X41.645Y-32.675
X41.645Y-40.295
X41.645Y-78.395
X42.672Y-95.758
X43.815Y-109.474
X44.05Y-54.86
X44.185Y-52.995
X44.185Y-65.695
X44.185Y-86.015
X44.185Y-106.335
X44.45Y-81.788
X44.831Y-93.218
X44.831Y-97.282
X44.958Y-102.183
X46.228Y-71.882
X46.228Y-73.152
X46.228Y-74.422
X46.228Y-75.692
X46.228Y-78.232
X46.228Y-79.502
X46.725Y-35.215
X46.725Y-42.835
X46.725Y-47.915
X46.725Y-58.075
X46.725Y-80.935
X46.725Y-111.415
X47.244Y-105.13
X47.498Y-87.63
X47.5Y-85.141
X48.7Y-93.218
X48.75Y-50.038
X49.25Y-51.308
X49.265Y-68.235
X50.0Y-102.9
X50.1Y-101.4
X50.2Y-95.4
X50.2Y-96.5
X50.2Y-97.6
X50.2Y-98.7
X50.2Y-99.8
X50.8Y-45.72
X51.054Y-73.787
X51.308Y-94.488
X51.805Y-30.135
X51.805Y-37.755
X51.805Y-60.615
X52.07Y-45.72
X53.34Y-45.72
X54.345Y-42.835
X54.345Y-65.695
X54.345Y-73.315
X54.345Y-80.935
X56.885Y-32.675
X57.785Y-53.467
T2
X23.675Y-29.5
X23.675Y-40.5
X24.13Y-47.92
X24.13Y-50.46
X24.13Y-53.0
X24.13Y-55.54
X24.13Y-58.08
X24.13Y-88.678
X24.13Y-91.218
X24.13Y-93.758
X24.13Y-96.298
X24.13Y-98.838
X24.13Y-101.378
X24.13Y-103.918
X24.13Y-106.458
X26.67Y-47.92
X26.67Y-50.46
X26.67Y-53.0
X26.67Y-55.54
X26.67Y-58.08
X26.67Y-88.678
X26.67Y-91.218
X26.67Y-93.758
X26.67Y-96.298
X26.67Y-98.838
X26.67Y-101.378
X26.67Y-103.918
X26.67Y-106.458
X50.0Y-29.5
X50.0Y-40.5
X53.34Y-47.92
X53.34Y-50.46
X53.34Y-53.0
X53.34Y-55.54
X53.34Y-58.08
X53.34Y-88.678
X53.34Y-91.218
X53.34Y-93.758
X53.34Y-96.298
X53.34Y-98.838
X53.34Y-101.378
X53.34Y-103.918
X53.34Y-106.458
X55.88Y-47.92
X55.88Y-50.46
X55.88Y-53.0
X55.88Y-55.54
X55.88Y-58.08
X55.88Y-88.678
X55.88Y-91.218
X55.88Y-93.758
X55.88Y-96.298
X55.88Y-98.838
X55.88Y-101.378
X55.88Y-103.918
X55.88Y-106.458
T3
X33.675Y-32.5
X33.675Y-37.5
X45.0Y-32.5
X45.0Y-37.5
M30
