%TF.GenerationSoftware,KiCad,Pcbnew,10.0.3*%
%TF.CreationDate,2026-06-27T21:19:45+01:00*%
%TF.ProjectId,Audio,41756469-6f2e-46b6-9963-61645f706362,rev?*%
%TF.SameCoordinates,Original*%
%TF.FileFunction,Legend,Top*%
%TF.FilePolarity,Positive*%
%FSLAX46Y46*%
G04 Gerber Fmt 4.6, Leading zero omitted, Abs format (unit mm)*
G04 Created by KiCad (PCBNEW 10.0.3) date 2026-06-27 21:19:45*
%MOMM*%
%LPD*%
G01*
G04 APERTURE LIST*
%ADD10C,0.100000*%
%ADD11C,0.150000*%
%ADD12C,0.120000*%
%ADD13C,0.000000*%
G04 APERTURE END LIST*
D10*
X76000000Y-47900000D02*
X79100000Y-47900000D01*
X79100000Y-47900000D02*
X79500000Y-47500000D01*
X81100000Y-45700000D02*
X86300000Y-45700000D01*
X84800000Y-42500000D02*
X85000000Y-42300000D01*
X85200000Y-62100000D02*
X86059420Y-61600000D01*
X85200000Y-67900000D02*
X85200000Y-62100000D01*
X86300000Y-45700000D02*
X86800000Y-45400000D01*
X86475000Y-42525000D02*
X86675000Y-42325000D01*
X88800000Y-40700000D02*
X87800000Y-39300000D01*
X91600000Y-40700000D02*
X88800000Y-40700000D01*
D11*
X108294779Y-49390875D02*
X108294779Y-48390875D01*
X108866207Y-49390875D02*
X108437636Y-48819446D01*
X108866207Y-48390875D02*
X108294779Y-48962303D01*
X109151922Y-48390875D02*
X109723350Y-48390875D01*
X109437636Y-49390875D02*
X109437636Y-48390875D01*
X110009065Y-49105160D02*
X110485255Y-49105160D01*
X109913827Y-49390875D02*
X110247160Y-48390875D01*
X110247160Y-48390875D02*
X110580493Y-49390875D01*
X110913827Y-49390875D02*
X110913827Y-48390875D01*
X110913827Y-48390875D02*
X111485255Y-49390875D01*
X111485255Y-49390875D02*
X111485255Y-48390875D01*
X111961446Y-48867065D02*
X112294779Y-48867065D01*
X112437636Y-49390875D02*
X111961446Y-49390875D01*
X111961446Y-49390875D02*
X111961446Y-48390875D01*
X111961446Y-48390875D02*
X112437636Y-48390875D01*
X113628113Y-49390875D02*
X113628113Y-48390875D01*
X114675731Y-49390875D02*
X114342398Y-48914684D01*
X114104303Y-49390875D02*
X114104303Y-48390875D01*
X114104303Y-48390875D02*
X114485255Y-48390875D01*
X114485255Y-48390875D02*
X114580493Y-48438494D01*
X114580493Y-48438494D02*
X114628112Y-48486113D01*
X114628112Y-48486113D02*
X114675731Y-48581351D01*
X114675731Y-48581351D02*
X114675731Y-48724208D01*
X114675731Y-48724208D02*
X114628112Y-48819446D01*
X114628112Y-48819446D02*
X114580493Y-48867065D01*
X114580493Y-48867065D02*
X114485255Y-48914684D01*
X114485255Y-48914684D02*
X114104303Y-48914684D01*
X115580493Y-49390875D02*
X115104303Y-49390875D01*
X115104303Y-49390875D02*
X115104303Y-48390875D01*
X108294779Y-51000819D02*
X108294779Y-50000819D01*
X108294779Y-50381771D02*
X108390017Y-50334152D01*
X108390017Y-50334152D02*
X108580493Y-50334152D01*
X108580493Y-50334152D02*
X108675731Y-50381771D01*
X108675731Y-50381771D02*
X108723350Y-50429390D01*
X108723350Y-50429390D02*
X108770969Y-50524628D01*
X108770969Y-50524628D02*
X108770969Y-50810342D01*
X108770969Y-50810342D02*
X108723350Y-50905580D01*
X108723350Y-50905580D02*
X108675731Y-50953200D01*
X108675731Y-50953200D02*
X108580493Y-51000819D01*
X108580493Y-51000819D02*
X108390017Y-51000819D01*
X108390017Y-51000819D02*
X108294779Y-50953200D01*
X109104303Y-50334152D02*
X109342398Y-51000819D01*
X109580493Y-50334152D02*
X109342398Y-51000819D01*
X109342398Y-51000819D02*
X109247160Y-51238914D01*
X109247160Y-51238914D02*
X109199541Y-51286533D01*
X109199541Y-51286533D02*
X109104303Y-51334152D01*
X110723351Y-51000819D02*
X110723351Y-50000819D01*
X110723351Y-50000819D02*
X111056684Y-50715104D01*
X111056684Y-50715104D02*
X111390017Y-50000819D01*
X111390017Y-50000819D02*
X111390017Y-51000819D01*
X112247160Y-50953200D02*
X112151922Y-51000819D01*
X112151922Y-51000819D02*
X111961446Y-51000819D01*
X111961446Y-51000819D02*
X111866208Y-50953200D01*
X111866208Y-50953200D02*
X111818589Y-50857961D01*
X111818589Y-50857961D02*
X111818589Y-50477009D01*
X111818589Y-50477009D02*
X111866208Y-50381771D01*
X111866208Y-50381771D02*
X111961446Y-50334152D01*
X111961446Y-50334152D02*
X112151922Y-50334152D01*
X112151922Y-50334152D02*
X112247160Y-50381771D01*
X112247160Y-50381771D02*
X112294779Y-50477009D01*
X112294779Y-50477009D02*
X112294779Y-50572247D01*
X112294779Y-50572247D02*
X111818589Y-50667485D01*
X112866208Y-51000819D02*
X112770970Y-50953200D01*
X112770970Y-50953200D02*
X112723351Y-50857961D01*
X112723351Y-50857961D02*
X112723351Y-50000819D01*
X113675732Y-51000819D02*
X113675732Y-50477009D01*
X113675732Y-50477009D02*
X113628113Y-50381771D01*
X113628113Y-50381771D02*
X113532875Y-50334152D01*
X113532875Y-50334152D02*
X113342399Y-50334152D01*
X113342399Y-50334152D02*
X113247161Y-50381771D01*
X113675732Y-50953200D02*
X113580494Y-51000819D01*
X113580494Y-51000819D02*
X113342399Y-51000819D01*
X113342399Y-51000819D02*
X113247161Y-50953200D01*
X113247161Y-50953200D02*
X113199542Y-50857961D01*
X113199542Y-50857961D02*
X113199542Y-50762723D01*
X113199542Y-50762723D02*
X113247161Y-50667485D01*
X113247161Y-50667485D02*
X113342399Y-50619866D01*
X113342399Y-50619866D02*
X113580494Y-50619866D01*
X113580494Y-50619866D02*
X113675732Y-50572247D01*
X114151923Y-51000819D02*
X114151923Y-50334152D01*
X114151923Y-50000819D02*
X114104304Y-50048438D01*
X114104304Y-50048438D02*
X114151923Y-50096057D01*
X114151923Y-50096057D02*
X114199542Y-50048438D01*
X114199542Y-50048438D02*
X114151923Y-50000819D01*
X114151923Y-50000819D02*
X114151923Y-50096057D01*
X114628113Y-51000819D02*
X114628113Y-50334152D01*
X114628113Y-50524628D02*
X114675732Y-50429390D01*
X114675732Y-50429390D02*
X114723351Y-50381771D01*
X114723351Y-50381771D02*
X114818589Y-50334152D01*
X114818589Y-50334152D02*
X114913827Y-50334152D01*
X108247160Y-52325048D02*
X108723350Y-52325048D01*
X108151922Y-52610763D02*
X108485255Y-51610763D01*
X108485255Y-51610763D02*
X108818588Y-52610763D01*
X109580493Y-51944096D02*
X109580493Y-52610763D01*
X109151922Y-51944096D02*
X109151922Y-52467905D01*
X109151922Y-52467905D02*
X109199541Y-52563144D01*
X109199541Y-52563144D02*
X109294779Y-52610763D01*
X109294779Y-52610763D02*
X109437636Y-52610763D01*
X109437636Y-52610763D02*
X109532874Y-52563144D01*
X109532874Y-52563144D02*
X109580493Y-52515524D01*
X110485255Y-52610763D02*
X110485255Y-51610763D01*
X110485255Y-52563144D02*
X110390017Y-52610763D01*
X110390017Y-52610763D02*
X110199541Y-52610763D01*
X110199541Y-52610763D02*
X110104303Y-52563144D01*
X110104303Y-52563144D02*
X110056684Y-52515524D01*
X110056684Y-52515524D02*
X110009065Y-52420286D01*
X110009065Y-52420286D02*
X110009065Y-52134572D01*
X110009065Y-52134572D02*
X110056684Y-52039334D01*
X110056684Y-52039334D02*
X110104303Y-51991715D01*
X110104303Y-51991715D02*
X110199541Y-51944096D01*
X110199541Y-51944096D02*
X110390017Y-51944096D01*
X110390017Y-51944096D02*
X110485255Y-51991715D01*
X110961446Y-52610763D02*
X110961446Y-51944096D01*
X110961446Y-51610763D02*
X110913827Y-51658382D01*
X110913827Y-51658382D02*
X110961446Y-51706001D01*
X110961446Y-51706001D02*
X111009065Y-51658382D01*
X111009065Y-51658382D02*
X110961446Y-51610763D01*
X110961446Y-51610763D02*
X110961446Y-51706001D01*
X111580493Y-52610763D02*
X111485255Y-52563144D01*
X111485255Y-52563144D02*
X111437636Y-52515524D01*
X111437636Y-52515524D02*
X111390017Y-52420286D01*
X111390017Y-52420286D02*
X111390017Y-52134572D01*
X111390017Y-52134572D02*
X111437636Y-52039334D01*
X111437636Y-52039334D02*
X111485255Y-51991715D01*
X111485255Y-51991715D02*
X111580493Y-51944096D01*
X111580493Y-51944096D02*
X111723350Y-51944096D01*
X111723350Y-51944096D02*
X111818588Y-51991715D01*
X111818588Y-51991715D02*
X111866207Y-52039334D01*
X111866207Y-52039334D02*
X111913826Y-52134572D01*
X111913826Y-52134572D02*
X111913826Y-52420286D01*
X111913826Y-52420286D02*
X111866207Y-52515524D01*
X111866207Y-52515524D02*
X111818588Y-52563144D01*
X111818588Y-52563144D02*
X111723350Y-52610763D01*
X111723350Y-52610763D02*
X111580493Y-52610763D01*
X113390017Y-52991715D02*
X113342398Y-52944096D01*
X113342398Y-52944096D02*
X113247160Y-52801239D01*
X113247160Y-52801239D02*
X113199541Y-52706001D01*
X113199541Y-52706001D02*
X113151922Y-52563144D01*
X113151922Y-52563144D02*
X113104303Y-52325048D01*
X113104303Y-52325048D02*
X113104303Y-52134572D01*
X113104303Y-52134572D02*
X113151922Y-51896477D01*
X113151922Y-51896477D02*
X113199541Y-51753620D01*
X113199541Y-51753620D02*
X113247160Y-51658382D01*
X113247160Y-51658382D02*
X113342398Y-51515524D01*
X113342398Y-51515524D02*
X113390017Y-51467905D01*
X114342398Y-52515524D02*
X114294779Y-52563144D01*
X114294779Y-52563144D02*
X114151922Y-52610763D01*
X114151922Y-52610763D02*
X114056684Y-52610763D01*
X114056684Y-52610763D02*
X113913827Y-52563144D01*
X113913827Y-52563144D02*
X113818589Y-52467905D01*
X113818589Y-52467905D02*
X113770970Y-52372667D01*
X113770970Y-52372667D02*
X113723351Y-52182191D01*
X113723351Y-52182191D02*
X113723351Y-52039334D01*
X113723351Y-52039334D02*
X113770970Y-51848858D01*
X113770970Y-51848858D02*
X113818589Y-51753620D01*
X113818589Y-51753620D02*
X113913827Y-51658382D01*
X113913827Y-51658382D02*
X114056684Y-51610763D01*
X114056684Y-51610763D02*
X114151922Y-51610763D01*
X114151922Y-51610763D02*
X114294779Y-51658382D01*
X114294779Y-51658382D02*
X114342398Y-51706001D01*
X114961446Y-51610763D02*
X115056684Y-51610763D01*
X115056684Y-51610763D02*
X115151922Y-51658382D01*
X115151922Y-51658382D02*
X115199541Y-51706001D01*
X115199541Y-51706001D02*
X115247160Y-51801239D01*
X115247160Y-51801239D02*
X115294779Y-51991715D01*
X115294779Y-51991715D02*
X115294779Y-52229810D01*
X115294779Y-52229810D02*
X115247160Y-52420286D01*
X115247160Y-52420286D02*
X115199541Y-52515524D01*
X115199541Y-52515524D02*
X115151922Y-52563144D01*
X115151922Y-52563144D02*
X115056684Y-52610763D01*
X115056684Y-52610763D02*
X114961446Y-52610763D01*
X114961446Y-52610763D02*
X114866208Y-52563144D01*
X114866208Y-52563144D02*
X114818589Y-52515524D01*
X114818589Y-52515524D02*
X114770970Y-52420286D01*
X114770970Y-52420286D02*
X114723351Y-52229810D01*
X114723351Y-52229810D02*
X114723351Y-51991715D01*
X114723351Y-51991715D02*
X114770970Y-51801239D01*
X114770970Y-51801239D02*
X114818589Y-51706001D01*
X114818589Y-51706001D02*
X114866208Y-51658382D01*
X114866208Y-51658382D02*
X114961446Y-51610763D01*
X116247160Y-52610763D02*
X115675732Y-52610763D01*
X115961446Y-52610763D02*
X115961446Y-51610763D01*
X115961446Y-51610763D02*
X115866208Y-51753620D01*
X115866208Y-51753620D02*
X115770970Y-51848858D01*
X115770970Y-51848858D02*
X115675732Y-51896477D01*
X116580494Y-52991715D02*
X116628113Y-52944096D01*
X116628113Y-52944096D02*
X116723351Y-52801239D01*
X116723351Y-52801239D02*
X116770970Y-52706001D01*
X116770970Y-52706001D02*
X116818589Y-52563144D01*
X116818589Y-52563144D02*
X116866208Y-52325048D01*
X116866208Y-52325048D02*
X116866208Y-52134572D01*
X116866208Y-52134572D02*
X116818589Y-51896477D01*
X116818589Y-51896477D02*
X116770970Y-51753620D01*
X116770970Y-51753620D02*
X116723351Y-51658382D01*
X116723351Y-51658382D02*
X116628113Y-51515524D01*
X116628113Y-51515524D02*
X116580494Y-51467905D01*
X111137819Y-35953506D02*
X111852104Y-35953506D01*
X111852104Y-35953506D02*
X111994961Y-36001125D01*
X111994961Y-36001125D02*
X112090200Y-36096363D01*
X112090200Y-36096363D02*
X112137819Y-36239220D01*
X112137819Y-36239220D02*
X112137819Y-36334458D01*
X111471152Y-35048744D02*
X112137819Y-35048744D01*
X111090200Y-35286839D02*
X111804485Y-35524934D01*
X111804485Y-35524934D02*
X111804485Y-34905887D01*
X114661905Y-44154104D02*
X115138095Y-44154104D01*
X114566667Y-44439819D02*
X114900000Y-43439819D01*
X114900000Y-43439819D02*
X115233333Y-44439819D01*
X115900000Y-43916009D02*
X116042857Y-43963628D01*
X116042857Y-43963628D02*
X116090476Y-44011247D01*
X116090476Y-44011247D02*
X116138095Y-44106485D01*
X116138095Y-44106485D02*
X116138095Y-44249342D01*
X116138095Y-44249342D02*
X116090476Y-44344580D01*
X116090476Y-44344580D02*
X116042857Y-44392200D01*
X116042857Y-44392200D02*
X115947619Y-44439819D01*
X115947619Y-44439819D02*
X115566667Y-44439819D01*
X115566667Y-44439819D02*
X115566667Y-43439819D01*
X115566667Y-43439819D02*
X115900000Y-43439819D01*
X115900000Y-43439819D02*
X115995238Y-43487438D01*
X115995238Y-43487438D02*
X116042857Y-43535057D01*
X116042857Y-43535057D02*
X116090476Y-43630295D01*
X116090476Y-43630295D02*
X116090476Y-43725533D01*
X116090476Y-43725533D02*
X116042857Y-43820771D01*
X116042857Y-43820771D02*
X115995238Y-43868390D01*
X115995238Y-43868390D02*
X115900000Y-43916009D01*
X115900000Y-43916009D02*
X115566667Y-43916009D01*
X82489819Y-36442857D02*
X82013628Y-36776190D01*
X82489819Y-37014285D02*
X81489819Y-37014285D01*
X81489819Y-37014285D02*
X81489819Y-36633333D01*
X81489819Y-36633333D02*
X81537438Y-36538095D01*
X81537438Y-36538095D02*
X81585057Y-36490476D01*
X81585057Y-36490476D02*
X81680295Y-36442857D01*
X81680295Y-36442857D02*
X81823152Y-36442857D01*
X81823152Y-36442857D02*
X81918390Y-36490476D01*
X81918390Y-36490476D02*
X81966009Y-36538095D01*
X81966009Y-36538095D02*
X82013628Y-36633333D01*
X82013628Y-36633333D02*
X82013628Y-37014285D01*
X82489819Y-35490476D02*
X82489819Y-36061904D01*
X82489819Y-35776190D02*
X81489819Y-35776190D01*
X81489819Y-35776190D02*
X81632676Y-35871428D01*
X81632676Y-35871428D02*
X81727914Y-35966666D01*
X81727914Y-35966666D02*
X81775533Y-36061904D01*
X81489819Y-34871428D02*
X81489819Y-34776190D01*
X81489819Y-34776190D02*
X81537438Y-34680952D01*
X81537438Y-34680952D02*
X81585057Y-34633333D01*
X81585057Y-34633333D02*
X81680295Y-34585714D01*
X81680295Y-34585714D02*
X81870771Y-34538095D01*
X81870771Y-34538095D02*
X82108866Y-34538095D01*
X82108866Y-34538095D02*
X82299342Y-34585714D01*
X82299342Y-34585714D02*
X82394580Y-34633333D01*
X82394580Y-34633333D02*
X82442200Y-34680952D01*
X82442200Y-34680952D02*
X82489819Y-34776190D01*
X82489819Y-34776190D02*
X82489819Y-34871428D01*
X82489819Y-34871428D02*
X82442200Y-34966666D01*
X82442200Y-34966666D02*
X82394580Y-35014285D01*
X82394580Y-35014285D02*
X82299342Y-35061904D01*
X82299342Y-35061904D02*
X82108866Y-35109523D01*
X82108866Y-35109523D02*
X81870771Y-35109523D01*
X81870771Y-35109523D02*
X81680295Y-35061904D01*
X81680295Y-35061904D02*
X81585057Y-35014285D01*
X81585057Y-35014285D02*
X81537438Y-34966666D01*
X81537438Y-34966666D02*
X81489819Y-34871428D01*
X71075707Y-65859819D02*
X70742374Y-65383628D01*
X70504279Y-65859819D02*
X70504279Y-64859819D01*
X70504279Y-64859819D02*
X70885231Y-64859819D01*
X70885231Y-64859819D02*
X70980469Y-64907438D01*
X70980469Y-64907438D02*
X71028088Y-64955057D01*
X71028088Y-64955057D02*
X71075707Y-65050295D01*
X71075707Y-65050295D02*
X71075707Y-65193152D01*
X71075707Y-65193152D02*
X71028088Y-65288390D01*
X71028088Y-65288390D02*
X70980469Y-65336009D01*
X70980469Y-65336009D02*
X70885231Y-65383628D01*
X70885231Y-65383628D02*
X70504279Y-65383628D01*
X71409041Y-64859819D02*
X72028088Y-64859819D01*
X72028088Y-64859819D02*
X71694755Y-65240771D01*
X71694755Y-65240771D02*
X71837612Y-65240771D01*
X71837612Y-65240771D02*
X71932850Y-65288390D01*
X71932850Y-65288390D02*
X71980469Y-65336009D01*
X71980469Y-65336009D02*
X72028088Y-65431247D01*
X72028088Y-65431247D02*
X72028088Y-65669342D01*
X72028088Y-65669342D02*
X71980469Y-65764580D01*
X71980469Y-65764580D02*
X71932850Y-65812200D01*
X71932850Y-65812200D02*
X71837612Y-65859819D01*
X71837612Y-65859819D02*
X71551898Y-65859819D01*
X71551898Y-65859819D02*
X71456660Y-65812200D01*
X71456660Y-65812200D02*
X71409041Y-65764580D01*
X76959580Y-49066666D02*
X77007200Y-49114285D01*
X77007200Y-49114285D02*
X77054819Y-49257142D01*
X77054819Y-49257142D02*
X77054819Y-49352380D01*
X77054819Y-49352380D02*
X77007200Y-49495237D01*
X77007200Y-49495237D02*
X76911961Y-49590475D01*
X76911961Y-49590475D02*
X76816723Y-49638094D01*
X76816723Y-49638094D02*
X76626247Y-49685713D01*
X76626247Y-49685713D02*
X76483390Y-49685713D01*
X76483390Y-49685713D02*
X76292914Y-49638094D01*
X76292914Y-49638094D02*
X76197676Y-49590475D01*
X76197676Y-49590475D02*
X76102438Y-49495237D01*
X76102438Y-49495237D02*
X76054819Y-49352380D01*
X76054819Y-49352380D02*
X76054819Y-49257142D01*
X76054819Y-49257142D02*
X76102438Y-49114285D01*
X76102438Y-49114285D02*
X76150057Y-49066666D01*
X76054819Y-48209523D02*
X76054819Y-48399999D01*
X76054819Y-48399999D02*
X76102438Y-48495237D01*
X76102438Y-48495237D02*
X76150057Y-48542856D01*
X76150057Y-48542856D02*
X76292914Y-48638094D01*
X76292914Y-48638094D02*
X76483390Y-48685713D01*
X76483390Y-48685713D02*
X76864342Y-48685713D01*
X76864342Y-48685713D02*
X76959580Y-48638094D01*
X76959580Y-48638094D02*
X77007200Y-48590475D01*
X77007200Y-48590475D02*
X77054819Y-48495237D01*
X77054819Y-48495237D02*
X77054819Y-48304761D01*
X77054819Y-48304761D02*
X77007200Y-48209523D01*
X77007200Y-48209523D02*
X76959580Y-48161904D01*
X76959580Y-48161904D02*
X76864342Y-48114285D01*
X76864342Y-48114285D02*
X76626247Y-48114285D01*
X76626247Y-48114285D02*
X76531009Y-48161904D01*
X76531009Y-48161904D02*
X76483390Y-48209523D01*
X76483390Y-48209523D02*
X76435771Y-48304761D01*
X76435771Y-48304761D02*
X76435771Y-48495237D01*
X76435771Y-48495237D02*
X76483390Y-48590475D01*
X76483390Y-48590475D02*
X76531009Y-48638094D01*
X76531009Y-48638094D02*
X76626247Y-48685713D01*
X106957142Y-39179580D02*
X106909523Y-39227200D01*
X106909523Y-39227200D02*
X106766666Y-39274819D01*
X106766666Y-39274819D02*
X106671428Y-39274819D01*
X106671428Y-39274819D02*
X106528571Y-39227200D01*
X106528571Y-39227200D02*
X106433333Y-39131961D01*
X106433333Y-39131961D02*
X106385714Y-39036723D01*
X106385714Y-39036723D02*
X106338095Y-38846247D01*
X106338095Y-38846247D02*
X106338095Y-38703390D01*
X106338095Y-38703390D02*
X106385714Y-38512914D01*
X106385714Y-38512914D02*
X106433333Y-38417676D01*
X106433333Y-38417676D02*
X106528571Y-38322438D01*
X106528571Y-38322438D02*
X106671428Y-38274819D01*
X106671428Y-38274819D02*
X106766666Y-38274819D01*
X106766666Y-38274819D02*
X106909523Y-38322438D01*
X106909523Y-38322438D02*
X106957142Y-38370057D01*
X107338095Y-38370057D02*
X107385714Y-38322438D01*
X107385714Y-38322438D02*
X107480952Y-38274819D01*
X107480952Y-38274819D02*
X107719047Y-38274819D01*
X107719047Y-38274819D02*
X107814285Y-38322438D01*
X107814285Y-38322438D02*
X107861904Y-38370057D01*
X107861904Y-38370057D02*
X107909523Y-38465295D01*
X107909523Y-38465295D02*
X107909523Y-38560533D01*
X107909523Y-38560533D02*
X107861904Y-38703390D01*
X107861904Y-38703390D02*
X107290476Y-39274819D01*
X107290476Y-39274819D02*
X107909523Y-39274819D01*
X108242857Y-38274819D02*
X108909523Y-38274819D01*
X108909523Y-38274819D02*
X108480952Y-39274819D01*
X95959580Y-43591792D02*
X96007200Y-43639411D01*
X96007200Y-43639411D02*
X96054819Y-43782268D01*
X96054819Y-43782268D02*
X96054819Y-43877506D01*
X96054819Y-43877506D02*
X96007200Y-44020363D01*
X96007200Y-44020363D02*
X95911961Y-44115601D01*
X95911961Y-44115601D02*
X95816723Y-44163220D01*
X95816723Y-44163220D02*
X95626247Y-44210839D01*
X95626247Y-44210839D02*
X95483390Y-44210839D01*
X95483390Y-44210839D02*
X95292914Y-44163220D01*
X95292914Y-44163220D02*
X95197676Y-44115601D01*
X95197676Y-44115601D02*
X95102438Y-44020363D01*
X95102438Y-44020363D02*
X95054819Y-43877506D01*
X95054819Y-43877506D02*
X95054819Y-43782268D01*
X95054819Y-43782268D02*
X95102438Y-43639411D01*
X95102438Y-43639411D02*
X95150057Y-43591792D01*
X95150057Y-43210839D02*
X95102438Y-43163220D01*
X95102438Y-43163220D02*
X95054819Y-43067982D01*
X95054819Y-43067982D02*
X95054819Y-42829887D01*
X95054819Y-42829887D02*
X95102438Y-42734649D01*
X95102438Y-42734649D02*
X95150057Y-42687030D01*
X95150057Y-42687030D02*
X95245295Y-42639411D01*
X95245295Y-42639411D02*
X95340533Y-42639411D01*
X95340533Y-42639411D02*
X95483390Y-42687030D01*
X95483390Y-42687030D02*
X96054819Y-43258458D01*
X96054819Y-43258458D02*
X96054819Y-42639411D01*
X95054819Y-42306077D02*
X95054819Y-41687030D01*
X95054819Y-41687030D02*
X95435771Y-42020363D01*
X95435771Y-42020363D02*
X95435771Y-41877506D01*
X95435771Y-41877506D02*
X95483390Y-41782268D01*
X95483390Y-41782268D02*
X95531009Y-41734649D01*
X95531009Y-41734649D02*
X95626247Y-41687030D01*
X95626247Y-41687030D02*
X95864342Y-41687030D01*
X95864342Y-41687030D02*
X95959580Y-41734649D01*
X95959580Y-41734649D02*
X96007200Y-41782268D01*
X96007200Y-41782268D02*
X96054819Y-41877506D01*
X96054819Y-41877506D02*
X96054819Y-42163220D01*
X96054819Y-42163220D02*
X96007200Y-42258458D01*
X96007200Y-42258458D02*
X95959580Y-42306077D01*
X106957142Y-63179580D02*
X106909523Y-63227200D01*
X106909523Y-63227200D02*
X106766666Y-63274819D01*
X106766666Y-63274819D02*
X106671428Y-63274819D01*
X106671428Y-63274819D02*
X106528571Y-63227200D01*
X106528571Y-63227200D02*
X106433333Y-63131961D01*
X106433333Y-63131961D02*
X106385714Y-63036723D01*
X106385714Y-63036723D02*
X106338095Y-62846247D01*
X106338095Y-62846247D02*
X106338095Y-62703390D01*
X106338095Y-62703390D02*
X106385714Y-62512914D01*
X106385714Y-62512914D02*
X106433333Y-62417676D01*
X106433333Y-62417676D02*
X106528571Y-62322438D01*
X106528571Y-62322438D02*
X106671428Y-62274819D01*
X106671428Y-62274819D02*
X106766666Y-62274819D01*
X106766666Y-62274819D02*
X106909523Y-62322438D01*
X106909523Y-62322438D02*
X106957142Y-62370057D01*
X107338095Y-62370057D02*
X107385714Y-62322438D01*
X107385714Y-62322438D02*
X107480952Y-62274819D01*
X107480952Y-62274819D02*
X107719047Y-62274819D01*
X107719047Y-62274819D02*
X107814285Y-62322438D01*
X107814285Y-62322438D02*
X107861904Y-62370057D01*
X107861904Y-62370057D02*
X107909523Y-62465295D01*
X107909523Y-62465295D02*
X107909523Y-62560533D01*
X107909523Y-62560533D02*
X107861904Y-62703390D01*
X107861904Y-62703390D02*
X107290476Y-63274819D01*
X107290476Y-63274819D02*
X107909523Y-63274819D01*
X108385714Y-63274819D02*
X108576190Y-63274819D01*
X108576190Y-63274819D02*
X108671428Y-63227200D01*
X108671428Y-63227200D02*
X108719047Y-63179580D01*
X108719047Y-63179580D02*
X108814285Y-63036723D01*
X108814285Y-63036723D02*
X108861904Y-62846247D01*
X108861904Y-62846247D02*
X108861904Y-62465295D01*
X108861904Y-62465295D02*
X108814285Y-62370057D01*
X108814285Y-62370057D02*
X108766666Y-62322438D01*
X108766666Y-62322438D02*
X108671428Y-62274819D01*
X108671428Y-62274819D02*
X108480952Y-62274819D01*
X108480952Y-62274819D02*
X108385714Y-62322438D01*
X108385714Y-62322438D02*
X108338095Y-62370057D01*
X108338095Y-62370057D02*
X108290476Y-62465295D01*
X108290476Y-62465295D02*
X108290476Y-62703390D01*
X108290476Y-62703390D02*
X108338095Y-62798628D01*
X108338095Y-62798628D02*
X108385714Y-62846247D01*
X108385714Y-62846247D02*
X108480952Y-62893866D01*
X108480952Y-62893866D02*
X108671428Y-62893866D01*
X108671428Y-62893866D02*
X108766666Y-62846247D01*
X108766666Y-62846247D02*
X108814285Y-62798628D01*
X108814285Y-62798628D02*
X108861904Y-62703390D01*
X89757142Y-41879580D02*
X89709523Y-41927200D01*
X89709523Y-41927200D02*
X89566666Y-41974819D01*
X89566666Y-41974819D02*
X89471428Y-41974819D01*
X89471428Y-41974819D02*
X89328571Y-41927200D01*
X89328571Y-41927200D02*
X89233333Y-41831961D01*
X89233333Y-41831961D02*
X89185714Y-41736723D01*
X89185714Y-41736723D02*
X89138095Y-41546247D01*
X89138095Y-41546247D02*
X89138095Y-41403390D01*
X89138095Y-41403390D02*
X89185714Y-41212914D01*
X89185714Y-41212914D02*
X89233333Y-41117676D01*
X89233333Y-41117676D02*
X89328571Y-41022438D01*
X89328571Y-41022438D02*
X89471428Y-40974819D01*
X89471428Y-40974819D02*
X89566666Y-40974819D01*
X89566666Y-40974819D02*
X89709523Y-41022438D01*
X89709523Y-41022438D02*
X89757142Y-41070057D01*
X90138095Y-41070057D02*
X90185714Y-41022438D01*
X90185714Y-41022438D02*
X90280952Y-40974819D01*
X90280952Y-40974819D02*
X90519047Y-40974819D01*
X90519047Y-40974819D02*
X90614285Y-41022438D01*
X90614285Y-41022438D02*
X90661904Y-41070057D01*
X90661904Y-41070057D02*
X90709523Y-41165295D01*
X90709523Y-41165295D02*
X90709523Y-41260533D01*
X90709523Y-41260533D02*
X90661904Y-41403390D01*
X90661904Y-41403390D02*
X90090476Y-41974819D01*
X90090476Y-41974819D02*
X90709523Y-41974819D01*
X91090476Y-41070057D02*
X91138095Y-41022438D01*
X91138095Y-41022438D02*
X91233333Y-40974819D01*
X91233333Y-40974819D02*
X91471428Y-40974819D01*
X91471428Y-40974819D02*
X91566666Y-41022438D01*
X91566666Y-41022438D02*
X91614285Y-41070057D01*
X91614285Y-41070057D02*
X91661904Y-41165295D01*
X91661904Y-41165295D02*
X91661904Y-41260533D01*
X91661904Y-41260533D02*
X91614285Y-41403390D01*
X91614285Y-41403390D02*
X91042857Y-41974819D01*
X91042857Y-41974819D02*
X91661904Y-41974819D01*
X100933333Y-62904819D02*
X100457143Y-62904819D01*
X100457143Y-62904819D02*
X100457143Y-61904819D01*
X101171429Y-61904819D02*
X101790476Y-61904819D01*
X101790476Y-61904819D02*
X101457143Y-62285771D01*
X101457143Y-62285771D02*
X101600000Y-62285771D01*
X101600000Y-62285771D02*
X101695238Y-62333390D01*
X101695238Y-62333390D02*
X101742857Y-62381009D01*
X101742857Y-62381009D02*
X101790476Y-62476247D01*
X101790476Y-62476247D02*
X101790476Y-62714342D01*
X101790476Y-62714342D02*
X101742857Y-62809580D01*
X101742857Y-62809580D02*
X101695238Y-62857200D01*
X101695238Y-62857200D02*
X101600000Y-62904819D01*
X101600000Y-62904819D02*
X101314286Y-62904819D01*
X101314286Y-62904819D02*
X101219048Y-62857200D01*
X101219048Y-62857200D02*
X101171429Y-62809580D01*
X100933333Y-72904819D02*
X100457143Y-72904819D01*
X100457143Y-72904819D02*
X100457143Y-71904819D01*
X101695238Y-72238152D02*
X101695238Y-72904819D01*
X101457143Y-71857200D02*
X101219048Y-72571485D01*
X101219048Y-72571485D02*
X101838095Y-72571485D01*
X83057142Y-67659580D02*
X83009523Y-67707200D01*
X83009523Y-67707200D02*
X82866666Y-67754819D01*
X82866666Y-67754819D02*
X82771428Y-67754819D01*
X82771428Y-67754819D02*
X82628571Y-67707200D01*
X82628571Y-67707200D02*
X82533333Y-67611961D01*
X82533333Y-67611961D02*
X82485714Y-67516723D01*
X82485714Y-67516723D02*
X82438095Y-67326247D01*
X82438095Y-67326247D02*
X82438095Y-67183390D01*
X82438095Y-67183390D02*
X82485714Y-66992914D01*
X82485714Y-66992914D02*
X82533333Y-66897676D01*
X82533333Y-66897676D02*
X82628571Y-66802438D01*
X82628571Y-66802438D02*
X82771428Y-66754819D01*
X82771428Y-66754819D02*
X82866666Y-66754819D01*
X82866666Y-66754819D02*
X83009523Y-66802438D01*
X83009523Y-66802438D02*
X83057142Y-66850057D01*
X84009523Y-67754819D02*
X83438095Y-67754819D01*
X83723809Y-67754819D02*
X83723809Y-66754819D01*
X83723809Y-66754819D02*
X83628571Y-66897676D01*
X83628571Y-66897676D02*
X83533333Y-66992914D01*
X83533333Y-66992914D02*
X83438095Y-67040533D01*
X84342857Y-66754819D02*
X85009523Y-66754819D01*
X85009523Y-66754819D02*
X84580952Y-67754819D01*
X92883207Y-43974580D02*
X92835588Y-44022200D01*
X92835588Y-44022200D02*
X92692731Y-44069819D01*
X92692731Y-44069819D02*
X92597493Y-44069819D01*
X92597493Y-44069819D02*
X92454636Y-44022200D01*
X92454636Y-44022200D02*
X92359398Y-43926961D01*
X92359398Y-43926961D02*
X92311779Y-43831723D01*
X92311779Y-43831723D02*
X92264160Y-43641247D01*
X92264160Y-43641247D02*
X92264160Y-43498390D01*
X92264160Y-43498390D02*
X92311779Y-43307914D01*
X92311779Y-43307914D02*
X92359398Y-43212676D01*
X92359398Y-43212676D02*
X92454636Y-43117438D01*
X92454636Y-43117438D02*
X92597493Y-43069819D01*
X92597493Y-43069819D02*
X92692731Y-43069819D01*
X92692731Y-43069819D02*
X92835588Y-43117438D01*
X92835588Y-43117438D02*
X92883207Y-43165057D01*
X93835588Y-44069819D02*
X93264160Y-44069819D01*
X93549874Y-44069819D02*
X93549874Y-43069819D01*
X93549874Y-43069819D02*
X93454636Y-43212676D01*
X93454636Y-43212676D02*
X93359398Y-43307914D01*
X93359398Y-43307914D02*
X93264160Y-43355533D01*
X94407017Y-43498390D02*
X94311779Y-43450771D01*
X94311779Y-43450771D02*
X94264160Y-43403152D01*
X94264160Y-43403152D02*
X94216541Y-43307914D01*
X94216541Y-43307914D02*
X94216541Y-43260295D01*
X94216541Y-43260295D02*
X94264160Y-43165057D01*
X94264160Y-43165057D02*
X94311779Y-43117438D01*
X94311779Y-43117438D02*
X94407017Y-43069819D01*
X94407017Y-43069819D02*
X94597493Y-43069819D01*
X94597493Y-43069819D02*
X94692731Y-43117438D01*
X94692731Y-43117438D02*
X94740350Y-43165057D01*
X94740350Y-43165057D02*
X94787969Y-43260295D01*
X94787969Y-43260295D02*
X94787969Y-43307914D01*
X94787969Y-43307914D02*
X94740350Y-43403152D01*
X94740350Y-43403152D02*
X94692731Y-43450771D01*
X94692731Y-43450771D02*
X94597493Y-43498390D01*
X94597493Y-43498390D02*
X94407017Y-43498390D01*
X94407017Y-43498390D02*
X94311779Y-43546009D01*
X94311779Y-43546009D02*
X94264160Y-43593628D01*
X94264160Y-43593628D02*
X94216541Y-43688866D01*
X94216541Y-43688866D02*
X94216541Y-43879342D01*
X94216541Y-43879342D02*
X94264160Y-43974580D01*
X94264160Y-43974580D02*
X94311779Y-44022200D01*
X94311779Y-44022200D02*
X94407017Y-44069819D01*
X94407017Y-44069819D02*
X94597493Y-44069819D01*
X94597493Y-44069819D02*
X94692731Y-44022200D01*
X94692731Y-44022200D02*
X94740350Y-43974580D01*
X94740350Y-43974580D02*
X94787969Y-43879342D01*
X94787969Y-43879342D02*
X94787969Y-43688866D01*
X94787969Y-43688866D02*
X94740350Y-43593628D01*
X94740350Y-43593628D02*
X94692731Y-43546009D01*
X94692731Y-43546009D02*
X94597493Y-43498390D01*
X74504819Y-30309292D02*
X74028628Y-30642625D01*
X74504819Y-30880720D02*
X73504819Y-30880720D01*
X73504819Y-30880720D02*
X73504819Y-30499768D01*
X73504819Y-30499768D02*
X73552438Y-30404530D01*
X73552438Y-30404530D02*
X73600057Y-30356911D01*
X73600057Y-30356911D02*
X73695295Y-30309292D01*
X73695295Y-30309292D02*
X73838152Y-30309292D01*
X73838152Y-30309292D02*
X73933390Y-30356911D01*
X73933390Y-30356911D02*
X73981009Y-30404530D01*
X73981009Y-30404530D02*
X74028628Y-30499768D01*
X74028628Y-30499768D02*
X74028628Y-30880720D01*
X74504819Y-29356911D02*
X74504819Y-29928339D01*
X74504819Y-29642625D02*
X73504819Y-29642625D01*
X73504819Y-29642625D02*
X73647676Y-29737863D01*
X73647676Y-29737863D02*
X73742914Y-29833101D01*
X73742914Y-29833101D02*
X73790533Y-29928339D01*
X73504819Y-28452149D02*
X73504819Y-28928339D01*
X73504819Y-28928339D02*
X73981009Y-28975958D01*
X73981009Y-28975958D02*
X73933390Y-28928339D01*
X73933390Y-28928339D02*
X73885771Y-28833101D01*
X73885771Y-28833101D02*
X73885771Y-28595006D01*
X73885771Y-28595006D02*
X73933390Y-28499768D01*
X73933390Y-28499768D02*
X73981009Y-28452149D01*
X73981009Y-28452149D02*
X74076247Y-28404530D01*
X74076247Y-28404530D02*
X74314342Y-28404530D01*
X74314342Y-28404530D02*
X74409580Y-28452149D01*
X74409580Y-28452149D02*
X74457200Y-28499768D01*
X74457200Y-28499768D02*
X74504819Y-28595006D01*
X74504819Y-28595006D02*
X74504819Y-28833101D01*
X74504819Y-28833101D02*
X74457200Y-28928339D01*
X74457200Y-28928339D02*
X74409580Y-28975958D01*
X111137819Y-59829506D02*
X111852104Y-59829506D01*
X111852104Y-59829506D02*
X111994961Y-59877125D01*
X111994961Y-59877125D02*
X112090200Y-59972363D01*
X112090200Y-59972363D02*
X112137819Y-60115220D01*
X112137819Y-60115220D02*
X112137819Y-60210458D01*
X111137819Y-58877125D02*
X111137819Y-59353315D01*
X111137819Y-59353315D02*
X111614009Y-59400934D01*
X111614009Y-59400934D02*
X111566390Y-59353315D01*
X111566390Y-59353315D02*
X111518771Y-59258077D01*
X111518771Y-59258077D02*
X111518771Y-59019982D01*
X111518771Y-59019982D02*
X111566390Y-58924744D01*
X111566390Y-58924744D02*
X111614009Y-58877125D01*
X111614009Y-58877125D02*
X111709247Y-58829506D01*
X111709247Y-58829506D02*
X111947342Y-58829506D01*
X111947342Y-58829506D02*
X112042580Y-58877125D01*
X112042580Y-58877125D02*
X112090200Y-58924744D01*
X112090200Y-58924744D02*
X112137819Y-59019982D01*
X112137819Y-59019982D02*
X112137819Y-59258077D01*
X112137819Y-59258077D02*
X112090200Y-59353315D01*
X112090200Y-59353315D02*
X112042580Y-59400934D01*
X115209523Y-57686580D02*
X115161904Y-57734200D01*
X115161904Y-57734200D02*
X115019047Y-57781819D01*
X115019047Y-57781819D02*
X114923809Y-57781819D01*
X114923809Y-57781819D02*
X114780952Y-57734200D01*
X114780952Y-57734200D02*
X114685714Y-57638961D01*
X114685714Y-57638961D02*
X114638095Y-57543723D01*
X114638095Y-57543723D02*
X114590476Y-57353247D01*
X114590476Y-57353247D02*
X114590476Y-57210390D01*
X114590476Y-57210390D02*
X114638095Y-57019914D01*
X114638095Y-57019914D02*
X114685714Y-56924676D01*
X114685714Y-56924676D02*
X114780952Y-56829438D01*
X114780952Y-56829438D02*
X114923809Y-56781819D01*
X114923809Y-56781819D02*
X115019047Y-56781819D01*
X115019047Y-56781819D02*
X115161904Y-56829438D01*
X115161904Y-56829438D02*
X115209523Y-56877057D01*
X115638095Y-57781819D02*
X115638095Y-56781819D01*
X115638095Y-56781819D02*
X115876190Y-56781819D01*
X115876190Y-56781819D02*
X116019047Y-56829438D01*
X116019047Y-56829438D02*
X116114285Y-56924676D01*
X116114285Y-56924676D02*
X116161904Y-57019914D01*
X116161904Y-57019914D02*
X116209523Y-57210390D01*
X116209523Y-57210390D02*
X116209523Y-57353247D01*
X116209523Y-57353247D02*
X116161904Y-57543723D01*
X116161904Y-57543723D02*
X116114285Y-57638961D01*
X116114285Y-57638961D02*
X116019047Y-57734200D01*
X116019047Y-57734200D02*
X115876190Y-57781819D01*
X115876190Y-57781819D02*
X115638095Y-57781819D01*
X80003445Y-31015057D02*
X79908207Y-30967438D01*
X79908207Y-30967438D02*
X79812969Y-30872200D01*
X79812969Y-30872200D02*
X79670112Y-30729342D01*
X79670112Y-30729342D02*
X79574874Y-30681723D01*
X79574874Y-30681723D02*
X79479636Y-30681723D01*
X79527255Y-30919819D02*
X79432017Y-30872200D01*
X79432017Y-30872200D02*
X79336779Y-30776961D01*
X79336779Y-30776961D02*
X79289160Y-30586485D01*
X79289160Y-30586485D02*
X79289160Y-30253152D01*
X79289160Y-30253152D02*
X79336779Y-30062676D01*
X79336779Y-30062676D02*
X79432017Y-29967438D01*
X79432017Y-29967438D02*
X79527255Y-29919819D01*
X79527255Y-29919819D02*
X79717731Y-29919819D01*
X79717731Y-29919819D02*
X79812969Y-29967438D01*
X79812969Y-29967438D02*
X79908207Y-30062676D01*
X79908207Y-30062676D02*
X79955826Y-30253152D01*
X79955826Y-30253152D02*
X79955826Y-30586485D01*
X79955826Y-30586485D02*
X79908207Y-30776961D01*
X79908207Y-30776961D02*
X79812969Y-30872200D01*
X79812969Y-30872200D02*
X79717731Y-30919819D01*
X79717731Y-30919819D02*
X79527255Y-30919819D01*
X80908207Y-30919819D02*
X80336779Y-30919819D01*
X80622493Y-30919819D02*
X80622493Y-29919819D01*
X80622493Y-29919819D02*
X80527255Y-30062676D01*
X80527255Y-30062676D02*
X80432017Y-30157914D01*
X80432017Y-30157914D02*
X80336779Y-30205533D01*
X71075707Y-60779819D02*
X70742374Y-60303628D01*
X70504279Y-60779819D02*
X70504279Y-59779819D01*
X70504279Y-59779819D02*
X70885231Y-59779819D01*
X70885231Y-59779819D02*
X70980469Y-59827438D01*
X70980469Y-59827438D02*
X71028088Y-59875057D01*
X71028088Y-59875057D02*
X71075707Y-59970295D01*
X71075707Y-59970295D02*
X71075707Y-60113152D01*
X71075707Y-60113152D02*
X71028088Y-60208390D01*
X71028088Y-60208390D02*
X70980469Y-60256009D01*
X70980469Y-60256009D02*
X70885231Y-60303628D01*
X70885231Y-60303628D02*
X70504279Y-60303628D01*
X71980469Y-59779819D02*
X71504279Y-59779819D01*
X71504279Y-59779819D02*
X71456660Y-60256009D01*
X71456660Y-60256009D02*
X71504279Y-60208390D01*
X71504279Y-60208390D02*
X71599517Y-60160771D01*
X71599517Y-60160771D02*
X71837612Y-60160771D01*
X71837612Y-60160771D02*
X71932850Y-60208390D01*
X71932850Y-60208390D02*
X71980469Y-60256009D01*
X71980469Y-60256009D02*
X72028088Y-60351247D01*
X72028088Y-60351247D02*
X72028088Y-60589342D01*
X72028088Y-60589342D02*
X71980469Y-60684580D01*
X71980469Y-60684580D02*
X71932850Y-60732200D01*
X71932850Y-60732200D02*
X71837612Y-60779819D01*
X71837612Y-60779819D02*
X71599517Y-60779819D01*
X71599517Y-60779819D02*
X71504279Y-60732200D01*
X71504279Y-60732200D02*
X71456660Y-60684580D01*
X85259580Y-31142857D02*
X85307200Y-31190476D01*
X85307200Y-31190476D02*
X85354819Y-31333333D01*
X85354819Y-31333333D02*
X85354819Y-31428571D01*
X85354819Y-31428571D02*
X85307200Y-31571428D01*
X85307200Y-31571428D02*
X85211961Y-31666666D01*
X85211961Y-31666666D02*
X85116723Y-31714285D01*
X85116723Y-31714285D02*
X84926247Y-31761904D01*
X84926247Y-31761904D02*
X84783390Y-31761904D01*
X84783390Y-31761904D02*
X84592914Y-31714285D01*
X84592914Y-31714285D02*
X84497676Y-31666666D01*
X84497676Y-31666666D02*
X84402438Y-31571428D01*
X84402438Y-31571428D02*
X84354819Y-31428571D01*
X84354819Y-31428571D02*
X84354819Y-31333333D01*
X84354819Y-31333333D02*
X84402438Y-31190476D01*
X84402438Y-31190476D02*
X84450057Y-31142857D01*
X85354819Y-30190476D02*
X85354819Y-30761904D01*
X85354819Y-30476190D02*
X84354819Y-30476190D01*
X84354819Y-30476190D02*
X84497676Y-30571428D01*
X84497676Y-30571428D02*
X84592914Y-30666666D01*
X84592914Y-30666666D02*
X84640533Y-30761904D01*
X84688152Y-29333333D02*
X85354819Y-29333333D01*
X84307200Y-29571428D02*
X85021485Y-29809523D01*
X85021485Y-29809523D02*
X85021485Y-29190476D01*
X71075707Y-48079819D02*
X70742374Y-47603628D01*
X70504279Y-48079819D02*
X70504279Y-47079819D01*
X70504279Y-47079819D02*
X70885231Y-47079819D01*
X70885231Y-47079819D02*
X70980469Y-47127438D01*
X70980469Y-47127438D02*
X71028088Y-47175057D01*
X71028088Y-47175057D02*
X71075707Y-47270295D01*
X71075707Y-47270295D02*
X71075707Y-47413152D01*
X71075707Y-47413152D02*
X71028088Y-47508390D01*
X71028088Y-47508390D02*
X70980469Y-47556009D01*
X70980469Y-47556009D02*
X70885231Y-47603628D01*
X70885231Y-47603628D02*
X70504279Y-47603628D01*
X71551898Y-48079819D02*
X71742374Y-48079819D01*
X71742374Y-48079819D02*
X71837612Y-48032200D01*
X71837612Y-48032200D02*
X71885231Y-47984580D01*
X71885231Y-47984580D02*
X71980469Y-47841723D01*
X71980469Y-47841723D02*
X72028088Y-47651247D01*
X72028088Y-47651247D02*
X72028088Y-47270295D01*
X72028088Y-47270295D02*
X71980469Y-47175057D01*
X71980469Y-47175057D02*
X71932850Y-47127438D01*
X71932850Y-47127438D02*
X71837612Y-47079819D01*
X71837612Y-47079819D02*
X71647136Y-47079819D01*
X71647136Y-47079819D02*
X71551898Y-47127438D01*
X71551898Y-47127438D02*
X71504279Y-47175057D01*
X71504279Y-47175057D02*
X71456660Y-47270295D01*
X71456660Y-47270295D02*
X71456660Y-47508390D01*
X71456660Y-47508390D02*
X71504279Y-47603628D01*
X71504279Y-47603628D02*
X71551898Y-47651247D01*
X71551898Y-47651247D02*
X71647136Y-47698866D01*
X71647136Y-47698866D02*
X71837612Y-47698866D01*
X71837612Y-47698866D02*
X71932850Y-47651247D01*
X71932850Y-47651247D02*
X71980469Y-47603628D01*
X71980469Y-47603628D02*
X72028088Y-47508390D01*
X76304819Y-30309292D02*
X75828628Y-30642625D01*
X76304819Y-30880720D02*
X75304819Y-30880720D01*
X75304819Y-30880720D02*
X75304819Y-30499768D01*
X75304819Y-30499768D02*
X75352438Y-30404530D01*
X75352438Y-30404530D02*
X75400057Y-30356911D01*
X75400057Y-30356911D02*
X75495295Y-30309292D01*
X75495295Y-30309292D02*
X75638152Y-30309292D01*
X75638152Y-30309292D02*
X75733390Y-30356911D01*
X75733390Y-30356911D02*
X75781009Y-30404530D01*
X75781009Y-30404530D02*
X75828628Y-30499768D01*
X75828628Y-30499768D02*
X75828628Y-30880720D01*
X76304819Y-29356911D02*
X76304819Y-29928339D01*
X76304819Y-29642625D02*
X75304819Y-29642625D01*
X75304819Y-29642625D02*
X75447676Y-29737863D01*
X75447676Y-29737863D02*
X75542914Y-29833101D01*
X75542914Y-29833101D02*
X75590533Y-29928339D01*
X75304819Y-28499768D02*
X75304819Y-28690244D01*
X75304819Y-28690244D02*
X75352438Y-28785482D01*
X75352438Y-28785482D02*
X75400057Y-28833101D01*
X75400057Y-28833101D02*
X75542914Y-28928339D01*
X75542914Y-28928339D02*
X75733390Y-28975958D01*
X75733390Y-28975958D02*
X76114342Y-28975958D01*
X76114342Y-28975958D02*
X76209580Y-28928339D01*
X76209580Y-28928339D02*
X76257200Y-28880720D01*
X76257200Y-28880720D02*
X76304819Y-28785482D01*
X76304819Y-28785482D02*
X76304819Y-28595006D01*
X76304819Y-28595006D02*
X76257200Y-28499768D01*
X76257200Y-28499768D02*
X76209580Y-28452149D01*
X76209580Y-28452149D02*
X76114342Y-28404530D01*
X76114342Y-28404530D02*
X75876247Y-28404530D01*
X75876247Y-28404530D02*
X75781009Y-28452149D01*
X75781009Y-28452149D02*
X75733390Y-28499768D01*
X75733390Y-28499768D02*
X75685771Y-28595006D01*
X75685771Y-28595006D02*
X75685771Y-28785482D01*
X75685771Y-28785482D02*
X75733390Y-28880720D01*
X75733390Y-28880720D02*
X75781009Y-28928339D01*
X75781009Y-28928339D02*
X75876247Y-28975958D01*
X65216666Y-38472319D02*
X65216666Y-39186604D01*
X65216666Y-39186604D02*
X65169047Y-39329461D01*
X65169047Y-39329461D02*
X65073809Y-39424700D01*
X65073809Y-39424700D02*
X64930952Y-39472319D01*
X64930952Y-39472319D02*
X64835714Y-39472319D01*
X65597619Y-38472319D02*
X66216666Y-38472319D01*
X66216666Y-38472319D02*
X65883333Y-38853271D01*
X65883333Y-38853271D02*
X66026190Y-38853271D01*
X66026190Y-38853271D02*
X66121428Y-38900890D01*
X66121428Y-38900890D02*
X66169047Y-38948509D01*
X66169047Y-38948509D02*
X66216666Y-39043747D01*
X66216666Y-39043747D02*
X66216666Y-39281842D01*
X66216666Y-39281842D02*
X66169047Y-39377080D01*
X66169047Y-39377080D02*
X66121428Y-39424700D01*
X66121428Y-39424700D02*
X66026190Y-39472319D01*
X66026190Y-39472319D02*
X65740476Y-39472319D01*
X65740476Y-39472319D02*
X65645238Y-39424700D01*
X65645238Y-39424700D02*
X65597619Y-39377080D01*
X70439700Y-27988928D02*
X70439700Y-26846071D01*
X70439700Y-38988928D02*
X70439700Y-37846071D01*
X71011128Y-38417499D02*
X69868271Y-38417499D01*
X83057142Y-66159580D02*
X83009523Y-66207200D01*
X83009523Y-66207200D02*
X82866666Y-66254819D01*
X82866666Y-66254819D02*
X82771428Y-66254819D01*
X82771428Y-66254819D02*
X82628571Y-66207200D01*
X82628571Y-66207200D02*
X82533333Y-66111961D01*
X82533333Y-66111961D02*
X82485714Y-66016723D01*
X82485714Y-66016723D02*
X82438095Y-65826247D01*
X82438095Y-65826247D02*
X82438095Y-65683390D01*
X82438095Y-65683390D02*
X82485714Y-65492914D01*
X82485714Y-65492914D02*
X82533333Y-65397676D01*
X82533333Y-65397676D02*
X82628571Y-65302438D01*
X82628571Y-65302438D02*
X82771428Y-65254819D01*
X82771428Y-65254819D02*
X82866666Y-65254819D01*
X82866666Y-65254819D02*
X83009523Y-65302438D01*
X83009523Y-65302438D02*
X83057142Y-65350057D01*
X84009523Y-66254819D02*
X83438095Y-66254819D01*
X83723809Y-66254819D02*
X83723809Y-65254819D01*
X83723809Y-65254819D02*
X83628571Y-65397676D01*
X83628571Y-65397676D02*
X83533333Y-65492914D01*
X83533333Y-65492914D02*
X83438095Y-65540533D01*
X84914285Y-65254819D02*
X84438095Y-65254819D01*
X84438095Y-65254819D02*
X84390476Y-65731009D01*
X84390476Y-65731009D02*
X84438095Y-65683390D01*
X84438095Y-65683390D02*
X84533333Y-65635771D01*
X84533333Y-65635771D02*
X84771428Y-65635771D01*
X84771428Y-65635771D02*
X84866666Y-65683390D01*
X84866666Y-65683390D02*
X84914285Y-65731009D01*
X84914285Y-65731009D02*
X84961904Y-65826247D01*
X84961904Y-65826247D02*
X84961904Y-66064342D01*
X84961904Y-66064342D02*
X84914285Y-66159580D01*
X84914285Y-66159580D02*
X84866666Y-66207200D01*
X84866666Y-66207200D02*
X84771428Y-66254819D01*
X84771428Y-66254819D02*
X84533333Y-66254819D01*
X84533333Y-66254819D02*
X84438095Y-66207200D01*
X84438095Y-66207200D02*
X84390476Y-66159580D01*
X83057142Y-64659580D02*
X83009523Y-64707200D01*
X83009523Y-64707200D02*
X82866666Y-64754819D01*
X82866666Y-64754819D02*
X82771428Y-64754819D01*
X82771428Y-64754819D02*
X82628571Y-64707200D01*
X82628571Y-64707200D02*
X82533333Y-64611961D01*
X82533333Y-64611961D02*
X82485714Y-64516723D01*
X82485714Y-64516723D02*
X82438095Y-64326247D01*
X82438095Y-64326247D02*
X82438095Y-64183390D01*
X82438095Y-64183390D02*
X82485714Y-63992914D01*
X82485714Y-63992914D02*
X82533333Y-63897676D01*
X82533333Y-63897676D02*
X82628571Y-63802438D01*
X82628571Y-63802438D02*
X82771428Y-63754819D01*
X82771428Y-63754819D02*
X82866666Y-63754819D01*
X82866666Y-63754819D02*
X83009523Y-63802438D01*
X83009523Y-63802438D02*
X83057142Y-63850057D01*
X84009523Y-64754819D02*
X83438095Y-64754819D01*
X83723809Y-64754819D02*
X83723809Y-63754819D01*
X83723809Y-63754819D02*
X83628571Y-63897676D01*
X83628571Y-63897676D02*
X83533333Y-63992914D01*
X83533333Y-63992914D02*
X83438095Y-64040533D01*
X84866666Y-63754819D02*
X84676190Y-63754819D01*
X84676190Y-63754819D02*
X84580952Y-63802438D01*
X84580952Y-63802438D02*
X84533333Y-63850057D01*
X84533333Y-63850057D02*
X84438095Y-63992914D01*
X84438095Y-63992914D02*
X84390476Y-64183390D01*
X84390476Y-64183390D02*
X84390476Y-64564342D01*
X84390476Y-64564342D02*
X84438095Y-64659580D01*
X84438095Y-64659580D02*
X84485714Y-64707200D01*
X84485714Y-64707200D02*
X84580952Y-64754819D01*
X84580952Y-64754819D02*
X84771428Y-64754819D01*
X84771428Y-64754819D02*
X84866666Y-64707200D01*
X84866666Y-64707200D02*
X84914285Y-64659580D01*
X84914285Y-64659580D02*
X84961904Y-64564342D01*
X84961904Y-64564342D02*
X84961904Y-64326247D01*
X84961904Y-64326247D02*
X84914285Y-64231009D01*
X84914285Y-64231009D02*
X84866666Y-64183390D01*
X84866666Y-64183390D02*
X84771428Y-64135771D01*
X84771428Y-64135771D02*
X84580952Y-64135771D01*
X84580952Y-64135771D02*
X84485714Y-64183390D01*
X84485714Y-64183390D02*
X84438095Y-64231009D01*
X84438095Y-64231009D02*
X84390476Y-64326247D01*
X89757142Y-60044580D02*
X89709523Y-60092200D01*
X89709523Y-60092200D02*
X89566666Y-60139819D01*
X89566666Y-60139819D02*
X89471428Y-60139819D01*
X89471428Y-60139819D02*
X89328571Y-60092200D01*
X89328571Y-60092200D02*
X89233333Y-59996961D01*
X89233333Y-59996961D02*
X89185714Y-59901723D01*
X89185714Y-59901723D02*
X89138095Y-59711247D01*
X89138095Y-59711247D02*
X89138095Y-59568390D01*
X89138095Y-59568390D02*
X89185714Y-59377914D01*
X89185714Y-59377914D02*
X89233333Y-59282676D01*
X89233333Y-59282676D02*
X89328571Y-59187438D01*
X89328571Y-59187438D02*
X89471428Y-59139819D01*
X89471428Y-59139819D02*
X89566666Y-59139819D01*
X89566666Y-59139819D02*
X89709523Y-59187438D01*
X89709523Y-59187438D02*
X89757142Y-59235057D01*
X90138095Y-59235057D02*
X90185714Y-59187438D01*
X90185714Y-59187438D02*
X90280952Y-59139819D01*
X90280952Y-59139819D02*
X90519047Y-59139819D01*
X90519047Y-59139819D02*
X90614285Y-59187438D01*
X90614285Y-59187438D02*
X90661904Y-59235057D01*
X90661904Y-59235057D02*
X90709523Y-59330295D01*
X90709523Y-59330295D02*
X90709523Y-59425533D01*
X90709523Y-59425533D02*
X90661904Y-59568390D01*
X90661904Y-59568390D02*
X90090476Y-60139819D01*
X90090476Y-60139819D02*
X90709523Y-60139819D01*
X91614285Y-59139819D02*
X91138095Y-59139819D01*
X91138095Y-59139819D02*
X91090476Y-59616009D01*
X91090476Y-59616009D02*
X91138095Y-59568390D01*
X91138095Y-59568390D02*
X91233333Y-59520771D01*
X91233333Y-59520771D02*
X91471428Y-59520771D01*
X91471428Y-59520771D02*
X91566666Y-59568390D01*
X91566666Y-59568390D02*
X91614285Y-59616009D01*
X91614285Y-59616009D02*
X91661904Y-59711247D01*
X91661904Y-59711247D02*
X91661904Y-59949342D01*
X91661904Y-59949342D02*
X91614285Y-60044580D01*
X91614285Y-60044580D02*
X91566666Y-60092200D01*
X91566666Y-60092200D02*
X91471428Y-60139819D01*
X91471428Y-60139819D02*
X91233333Y-60139819D01*
X91233333Y-60139819D02*
X91138095Y-60092200D01*
X91138095Y-60092200D02*
X91090476Y-60044580D01*
X86684580Y-44593922D02*
X86732200Y-44641541D01*
X86732200Y-44641541D02*
X86779819Y-44784398D01*
X86779819Y-44784398D02*
X86779819Y-44879636D01*
X86779819Y-44879636D02*
X86732200Y-45022493D01*
X86732200Y-45022493D02*
X86636961Y-45117731D01*
X86636961Y-45117731D02*
X86541723Y-45165350D01*
X86541723Y-45165350D02*
X86351247Y-45212969D01*
X86351247Y-45212969D02*
X86208390Y-45212969D01*
X86208390Y-45212969D02*
X86017914Y-45165350D01*
X86017914Y-45165350D02*
X85922676Y-45117731D01*
X85922676Y-45117731D02*
X85827438Y-45022493D01*
X85827438Y-45022493D02*
X85779819Y-44879636D01*
X85779819Y-44879636D02*
X85779819Y-44784398D01*
X85779819Y-44784398D02*
X85827438Y-44641541D01*
X85827438Y-44641541D02*
X85875057Y-44593922D01*
X86779819Y-43641541D02*
X86779819Y-44212969D01*
X86779819Y-43927255D02*
X85779819Y-43927255D01*
X85779819Y-43927255D02*
X85922676Y-44022493D01*
X85922676Y-44022493D02*
X86017914Y-44117731D01*
X86017914Y-44117731D02*
X86065533Y-44212969D01*
X85875057Y-43260588D02*
X85827438Y-43212969D01*
X85827438Y-43212969D02*
X85779819Y-43117731D01*
X85779819Y-43117731D02*
X85779819Y-42879636D01*
X85779819Y-42879636D02*
X85827438Y-42784398D01*
X85827438Y-42784398D02*
X85875057Y-42736779D01*
X85875057Y-42736779D02*
X85970295Y-42689160D01*
X85970295Y-42689160D02*
X86065533Y-42689160D01*
X86065533Y-42689160D02*
X86208390Y-42736779D01*
X86208390Y-42736779D02*
X86779819Y-43308207D01*
X86779819Y-43308207D02*
X86779819Y-42689160D01*
X106957142Y-59179580D02*
X106909523Y-59227200D01*
X106909523Y-59227200D02*
X106766666Y-59274819D01*
X106766666Y-59274819D02*
X106671428Y-59274819D01*
X106671428Y-59274819D02*
X106528571Y-59227200D01*
X106528571Y-59227200D02*
X106433333Y-59131961D01*
X106433333Y-59131961D02*
X106385714Y-59036723D01*
X106385714Y-59036723D02*
X106338095Y-58846247D01*
X106338095Y-58846247D02*
X106338095Y-58703390D01*
X106338095Y-58703390D02*
X106385714Y-58512914D01*
X106385714Y-58512914D02*
X106433333Y-58417676D01*
X106433333Y-58417676D02*
X106528571Y-58322438D01*
X106528571Y-58322438D02*
X106671428Y-58274819D01*
X106671428Y-58274819D02*
X106766666Y-58274819D01*
X106766666Y-58274819D02*
X106909523Y-58322438D01*
X106909523Y-58322438D02*
X106957142Y-58370057D01*
X107338095Y-58370057D02*
X107385714Y-58322438D01*
X107385714Y-58322438D02*
X107480952Y-58274819D01*
X107480952Y-58274819D02*
X107719047Y-58274819D01*
X107719047Y-58274819D02*
X107814285Y-58322438D01*
X107814285Y-58322438D02*
X107861904Y-58370057D01*
X107861904Y-58370057D02*
X107909523Y-58465295D01*
X107909523Y-58465295D02*
X107909523Y-58560533D01*
X107909523Y-58560533D02*
X107861904Y-58703390D01*
X107861904Y-58703390D02*
X107290476Y-59274819D01*
X107290476Y-59274819D02*
X107909523Y-59274819D01*
X108480952Y-58703390D02*
X108385714Y-58655771D01*
X108385714Y-58655771D02*
X108338095Y-58608152D01*
X108338095Y-58608152D02*
X108290476Y-58512914D01*
X108290476Y-58512914D02*
X108290476Y-58465295D01*
X108290476Y-58465295D02*
X108338095Y-58370057D01*
X108338095Y-58370057D02*
X108385714Y-58322438D01*
X108385714Y-58322438D02*
X108480952Y-58274819D01*
X108480952Y-58274819D02*
X108671428Y-58274819D01*
X108671428Y-58274819D02*
X108766666Y-58322438D01*
X108766666Y-58322438D02*
X108814285Y-58370057D01*
X108814285Y-58370057D02*
X108861904Y-58465295D01*
X108861904Y-58465295D02*
X108861904Y-58512914D01*
X108861904Y-58512914D02*
X108814285Y-58608152D01*
X108814285Y-58608152D02*
X108766666Y-58655771D01*
X108766666Y-58655771D02*
X108671428Y-58703390D01*
X108671428Y-58703390D02*
X108480952Y-58703390D01*
X108480952Y-58703390D02*
X108385714Y-58751009D01*
X108385714Y-58751009D02*
X108338095Y-58798628D01*
X108338095Y-58798628D02*
X108290476Y-58893866D01*
X108290476Y-58893866D02*
X108290476Y-59084342D01*
X108290476Y-59084342D02*
X108338095Y-59179580D01*
X108338095Y-59179580D02*
X108385714Y-59227200D01*
X108385714Y-59227200D02*
X108480952Y-59274819D01*
X108480952Y-59274819D02*
X108671428Y-59274819D01*
X108671428Y-59274819D02*
X108766666Y-59227200D01*
X108766666Y-59227200D02*
X108814285Y-59179580D01*
X108814285Y-59179580D02*
X108861904Y-59084342D01*
X108861904Y-59084342D02*
X108861904Y-58893866D01*
X108861904Y-58893866D02*
X108814285Y-58798628D01*
X108814285Y-58798628D02*
X108766666Y-58751009D01*
X108766666Y-58751009D02*
X108671428Y-58703390D01*
X71075707Y-53159819D02*
X70742374Y-52683628D01*
X70504279Y-53159819D02*
X70504279Y-52159819D01*
X70504279Y-52159819D02*
X70885231Y-52159819D01*
X70885231Y-52159819D02*
X70980469Y-52207438D01*
X70980469Y-52207438D02*
X71028088Y-52255057D01*
X71028088Y-52255057D02*
X71075707Y-52350295D01*
X71075707Y-52350295D02*
X71075707Y-52493152D01*
X71075707Y-52493152D02*
X71028088Y-52588390D01*
X71028088Y-52588390D02*
X70980469Y-52636009D01*
X70980469Y-52636009D02*
X70885231Y-52683628D01*
X70885231Y-52683628D02*
X70504279Y-52683628D01*
X71932850Y-52493152D02*
X71932850Y-53159819D01*
X71694755Y-52112200D02*
X71456660Y-52826485D01*
X71456660Y-52826485D02*
X72075707Y-52826485D01*
X85259580Y-44593922D02*
X85307200Y-44641541D01*
X85307200Y-44641541D02*
X85354819Y-44784398D01*
X85354819Y-44784398D02*
X85354819Y-44879636D01*
X85354819Y-44879636D02*
X85307200Y-45022493D01*
X85307200Y-45022493D02*
X85211961Y-45117731D01*
X85211961Y-45117731D02*
X85116723Y-45165350D01*
X85116723Y-45165350D02*
X84926247Y-45212969D01*
X84926247Y-45212969D02*
X84783390Y-45212969D01*
X84783390Y-45212969D02*
X84592914Y-45165350D01*
X84592914Y-45165350D02*
X84497676Y-45117731D01*
X84497676Y-45117731D02*
X84402438Y-45022493D01*
X84402438Y-45022493D02*
X84354819Y-44879636D01*
X84354819Y-44879636D02*
X84354819Y-44784398D01*
X84354819Y-44784398D02*
X84402438Y-44641541D01*
X84402438Y-44641541D02*
X84450057Y-44593922D01*
X85354819Y-43641541D02*
X85354819Y-44212969D01*
X85354819Y-43927255D02*
X84354819Y-43927255D01*
X84354819Y-43927255D02*
X84497676Y-44022493D01*
X84497676Y-44022493D02*
X84592914Y-44117731D01*
X84592914Y-44117731D02*
X84640533Y-44212969D01*
X84354819Y-43022493D02*
X84354819Y-42927255D01*
X84354819Y-42927255D02*
X84402438Y-42832017D01*
X84402438Y-42832017D02*
X84450057Y-42784398D01*
X84450057Y-42784398D02*
X84545295Y-42736779D01*
X84545295Y-42736779D02*
X84735771Y-42689160D01*
X84735771Y-42689160D02*
X84973866Y-42689160D01*
X84973866Y-42689160D02*
X85164342Y-42736779D01*
X85164342Y-42736779D02*
X85259580Y-42784398D01*
X85259580Y-42784398D02*
X85307200Y-42832017D01*
X85307200Y-42832017D02*
X85354819Y-42927255D01*
X85354819Y-42927255D02*
X85354819Y-43022493D01*
X85354819Y-43022493D02*
X85307200Y-43117731D01*
X85307200Y-43117731D02*
X85259580Y-43165350D01*
X85259580Y-43165350D02*
X85164342Y-43212969D01*
X85164342Y-43212969D02*
X84973866Y-43260588D01*
X84973866Y-43260588D02*
X84735771Y-43260588D01*
X84735771Y-43260588D02*
X84545295Y-43212969D01*
X84545295Y-43212969D02*
X84450057Y-43165350D01*
X84450057Y-43165350D02*
X84402438Y-43117731D01*
X84402438Y-43117731D02*
X84354819Y-43022493D01*
X71075707Y-50619819D02*
X70742374Y-50143628D01*
X70504279Y-50619819D02*
X70504279Y-49619819D01*
X70504279Y-49619819D02*
X70885231Y-49619819D01*
X70885231Y-49619819D02*
X70980469Y-49667438D01*
X70980469Y-49667438D02*
X71028088Y-49715057D01*
X71028088Y-49715057D02*
X71075707Y-49810295D01*
X71075707Y-49810295D02*
X71075707Y-49953152D01*
X71075707Y-49953152D02*
X71028088Y-50048390D01*
X71028088Y-50048390D02*
X70980469Y-50096009D01*
X70980469Y-50096009D02*
X70885231Y-50143628D01*
X70885231Y-50143628D02*
X70504279Y-50143628D01*
X72028088Y-50619819D02*
X71456660Y-50619819D01*
X71742374Y-50619819D02*
X71742374Y-49619819D01*
X71742374Y-49619819D02*
X71647136Y-49762676D01*
X71647136Y-49762676D02*
X71551898Y-49857914D01*
X71551898Y-49857914D02*
X71456660Y-49905533D01*
X72409041Y-49715057D02*
X72456660Y-49667438D01*
X72456660Y-49667438D02*
X72551898Y-49619819D01*
X72551898Y-49619819D02*
X72789993Y-49619819D01*
X72789993Y-49619819D02*
X72885231Y-49667438D01*
X72885231Y-49667438D02*
X72932850Y-49715057D01*
X72932850Y-49715057D02*
X72980469Y-49810295D01*
X72980469Y-49810295D02*
X72980469Y-49905533D01*
X72980469Y-49905533D02*
X72932850Y-50048390D01*
X72932850Y-50048390D02*
X72361422Y-50619819D01*
X72361422Y-50619819D02*
X72980469Y-50619819D01*
X95659580Y-71242857D02*
X95707200Y-71290476D01*
X95707200Y-71290476D02*
X95754819Y-71433333D01*
X95754819Y-71433333D02*
X95754819Y-71528571D01*
X95754819Y-71528571D02*
X95707200Y-71671428D01*
X95707200Y-71671428D02*
X95611961Y-71766666D01*
X95611961Y-71766666D02*
X95516723Y-71814285D01*
X95516723Y-71814285D02*
X95326247Y-71861904D01*
X95326247Y-71861904D02*
X95183390Y-71861904D01*
X95183390Y-71861904D02*
X94992914Y-71814285D01*
X94992914Y-71814285D02*
X94897676Y-71766666D01*
X94897676Y-71766666D02*
X94802438Y-71671428D01*
X94802438Y-71671428D02*
X94754819Y-71528571D01*
X94754819Y-71528571D02*
X94754819Y-71433333D01*
X94754819Y-71433333D02*
X94802438Y-71290476D01*
X94802438Y-71290476D02*
X94850057Y-71242857D01*
X94850057Y-70861904D02*
X94802438Y-70814285D01*
X94802438Y-70814285D02*
X94754819Y-70719047D01*
X94754819Y-70719047D02*
X94754819Y-70480952D01*
X94754819Y-70480952D02*
X94802438Y-70385714D01*
X94802438Y-70385714D02*
X94850057Y-70338095D01*
X94850057Y-70338095D02*
X94945295Y-70290476D01*
X94945295Y-70290476D02*
X95040533Y-70290476D01*
X95040533Y-70290476D02*
X95183390Y-70338095D01*
X95183390Y-70338095D02*
X95754819Y-70909523D01*
X95754819Y-70909523D02*
X95754819Y-70290476D01*
X95754819Y-69338095D02*
X95754819Y-69909523D01*
X95754819Y-69623809D02*
X94754819Y-69623809D01*
X94754819Y-69623809D02*
X94897676Y-69719047D01*
X94897676Y-69719047D02*
X94992914Y-69814285D01*
X94992914Y-69814285D02*
X95040533Y-69909523D01*
X55555839Y-69884819D02*
X55555839Y-70599104D01*
X55555839Y-70599104D02*
X55508220Y-70741961D01*
X55508220Y-70741961D02*
X55412982Y-70837200D01*
X55412982Y-70837200D02*
X55270125Y-70884819D01*
X55270125Y-70884819D02*
X55174887Y-70884819D01*
X55984411Y-69980057D02*
X56032030Y-69932438D01*
X56032030Y-69932438D02*
X56127268Y-69884819D01*
X56127268Y-69884819D02*
X56365363Y-69884819D01*
X56365363Y-69884819D02*
X56460601Y-69932438D01*
X56460601Y-69932438D02*
X56508220Y-69980057D01*
X56508220Y-69980057D02*
X56555839Y-70075295D01*
X56555839Y-70075295D02*
X56555839Y-70170533D01*
X56555839Y-70170533D02*
X56508220Y-70313390D01*
X56508220Y-70313390D02*
X55936792Y-70884819D01*
X55936792Y-70884819D02*
X56555839Y-70884819D01*
X106957142Y-35179580D02*
X106909523Y-35227200D01*
X106909523Y-35227200D02*
X106766666Y-35274819D01*
X106766666Y-35274819D02*
X106671428Y-35274819D01*
X106671428Y-35274819D02*
X106528571Y-35227200D01*
X106528571Y-35227200D02*
X106433333Y-35131961D01*
X106433333Y-35131961D02*
X106385714Y-35036723D01*
X106385714Y-35036723D02*
X106338095Y-34846247D01*
X106338095Y-34846247D02*
X106338095Y-34703390D01*
X106338095Y-34703390D02*
X106385714Y-34512914D01*
X106385714Y-34512914D02*
X106433333Y-34417676D01*
X106433333Y-34417676D02*
X106528571Y-34322438D01*
X106528571Y-34322438D02*
X106671428Y-34274819D01*
X106671428Y-34274819D02*
X106766666Y-34274819D01*
X106766666Y-34274819D02*
X106909523Y-34322438D01*
X106909523Y-34322438D02*
X106957142Y-34370057D01*
X107338095Y-34370057D02*
X107385714Y-34322438D01*
X107385714Y-34322438D02*
X107480952Y-34274819D01*
X107480952Y-34274819D02*
X107719047Y-34274819D01*
X107719047Y-34274819D02*
X107814285Y-34322438D01*
X107814285Y-34322438D02*
X107861904Y-34370057D01*
X107861904Y-34370057D02*
X107909523Y-34465295D01*
X107909523Y-34465295D02*
X107909523Y-34560533D01*
X107909523Y-34560533D02*
X107861904Y-34703390D01*
X107861904Y-34703390D02*
X107290476Y-35274819D01*
X107290476Y-35274819D02*
X107909523Y-35274819D01*
X108766666Y-34274819D02*
X108576190Y-34274819D01*
X108576190Y-34274819D02*
X108480952Y-34322438D01*
X108480952Y-34322438D02*
X108433333Y-34370057D01*
X108433333Y-34370057D02*
X108338095Y-34512914D01*
X108338095Y-34512914D02*
X108290476Y-34703390D01*
X108290476Y-34703390D02*
X108290476Y-35084342D01*
X108290476Y-35084342D02*
X108338095Y-35179580D01*
X108338095Y-35179580D02*
X108385714Y-35227200D01*
X108385714Y-35227200D02*
X108480952Y-35274819D01*
X108480952Y-35274819D02*
X108671428Y-35274819D01*
X108671428Y-35274819D02*
X108766666Y-35227200D01*
X108766666Y-35227200D02*
X108814285Y-35179580D01*
X108814285Y-35179580D02*
X108861904Y-35084342D01*
X108861904Y-35084342D02*
X108861904Y-34846247D01*
X108861904Y-34846247D02*
X108814285Y-34751009D01*
X108814285Y-34751009D02*
X108766666Y-34703390D01*
X108766666Y-34703390D02*
X108671428Y-34655771D01*
X108671428Y-34655771D02*
X108480952Y-34655771D01*
X108480952Y-34655771D02*
X108385714Y-34703390D01*
X108385714Y-34703390D02*
X108338095Y-34751009D01*
X108338095Y-34751009D02*
X108290476Y-34846247D01*
X100933333Y-38904819D02*
X100457143Y-38904819D01*
X100457143Y-38904819D02*
X100457143Y-37904819D01*
X101790476Y-38904819D02*
X101219048Y-38904819D01*
X101504762Y-38904819D02*
X101504762Y-37904819D01*
X101504762Y-37904819D02*
X101409524Y-38047676D01*
X101409524Y-38047676D02*
X101314286Y-38142914D01*
X101314286Y-38142914D02*
X101219048Y-38190533D01*
X78359580Y-49066666D02*
X78407200Y-49114285D01*
X78407200Y-49114285D02*
X78454819Y-49257142D01*
X78454819Y-49257142D02*
X78454819Y-49352380D01*
X78454819Y-49352380D02*
X78407200Y-49495237D01*
X78407200Y-49495237D02*
X78311961Y-49590475D01*
X78311961Y-49590475D02*
X78216723Y-49638094D01*
X78216723Y-49638094D02*
X78026247Y-49685713D01*
X78026247Y-49685713D02*
X77883390Y-49685713D01*
X77883390Y-49685713D02*
X77692914Y-49638094D01*
X77692914Y-49638094D02*
X77597676Y-49590475D01*
X77597676Y-49590475D02*
X77502438Y-49495237D01*
X77502438Y-49495237D02*
X77454819Y-49352380D01*
X77454819Y-49352380D02*
X77454819Y-49257142D01*
X77454819Y-49257142D02*
X77502438Y-49114285D01*
X77502438Y-49114285D02*
X77550057Y-49066666D01*
X77454819Y-48733332D02*
X77454819Y-48066666D01*
X77454819Y-48066666D02*
X78454819Y-48495237D01*
X71075707Y-55699819D02*
X70742374Y-55223628D01*
X70504279Y-55699819D02*
X70504279Y-54699819D01*
X70504279Y-54699819D02*
X70885231Y-54699819D01*
X70885231Y-54699819D02*
X70980469Y-54747438D01*
X70980469Y-54747438D02*
X71028088Y-54795057D01*
X71028088Y-54795057D02*
X71075707Y-54890295D01*
X71075707Y-54890295D02*
X71075707Y-55033152D01*
X71075707Y-55033152D02*
X71028088Y-55128390D01*
X71028088Y-55128390D02*
X70980469Y-55176009D01*
X70980469Y-55176009D02*
X70885231Y-55223628D01*
X70885231Y-55223628D02*
X70504279Y-55223628D01*
X71647136Y-55128390D02*
X71551898Y-55080771D01*
X71551898Y-55080771D02*
X71504279Y-55033152D01*
X71504279Y-55033152D02*
X71456660Y-54937914D01*
X71456660Y-54937914D02*
X71456660Y-54890295D01*
X71456660Y-54890295D02*
X71504279Y-54795057D01*
X71504279Y-54795057D02*
X71551898Y-54747438D01*
X71551898Y-54747438D02*
X71647136Y-54699819D01*
X71647136Y-54699819D02*
X71837612Y-54699819D01*
X71837612Y-54699819D02*
X71932850Y-54747438D01*
X71932850Y-54747438D02*
X71980469Y-54795057D01*
X71980469Y-54795057D02*
X72028088Y-54890295D01*
X72028088Y-54890295D02*
X72028088Y-54937914D01*
X72028088Y-54937914D02*
X71980469Y-55033152D01*
X71980469Y-55033152D02*
X71932850Y-55080771D01*
X71932850Y-55080771D02*
X71837612Y-55128390D01*
X71837612Y-55128390D02*
X71647136Y-55128390D01*
X71647136Y-55128390D02*
X71551898Y-55176009D01*
X71551898Y-55176009D02*
X71504279Y-55223628D01*
X71504279Y-55223628D02*
X71456660Y-55318866D01*
X71456660Y-55318866D02*
X71456660Y-55509342D01*
X71456660Y-55509342D02*
X71504279Y-55604580D01*
X71504279Y-55604580D02*
X71551898Y-55652200D01*
X71551898Y-55652200D02*
X71647136Y-55699819D01*
X71647136Y-55699819D02*
X71837612Y-55699819D01*
X71837612Y-55699819D02*
X71932850Y-55652200D01*
X71932850Y-55652200D02*
X71980469Y-55604580D01*
X71980469Y-55604580D02*
X72028088Y-55509342D01*
X72028088Y-55509342D02*
X72028088Y-55318866D01*
X72028088Y-55318866D02*
X71980469Y-55223628D01*
X71980469Y-55223628D02*
X71932850Y-55176009D01*
X71932850Y-55176009D02*
X71837612Y-55128390D01*
X89508207Y-40454819D02*
X89174874Y-39978628D01*
X88936779Y-40454819D02*
X88936779Y-39454819D01*
X88936779Y-39454819D02*
X89317731Y-39454819D01*
X89317731Y-39454819D02*
X89412969Y-39502438D01*
X89412969Y-39502438D02*
X89460588Y-39550057D01*
X89460588Y-39550057D02*
X89508207Y-39645295D01*
X89508207Y-39645295D02*
X89508207Y-39788152D01*
X89508207Y-39788152D02*
X89460588Y-39883390D01*
X89460588Y-39883390D02*
X89412969Y-39931009D01*
X89412969Y-39931009D02*
X89317731Y-39978628D01*
X89317731Y-39978628D02*
X88936779Y-39978628D01*
X90460588Y-40454819D02*
X89889160Y-40454819D01*
X90174874Y-40454819D02*
X90174874Y-39454819D01*
X90174874Y-39454819D02*
X90079636Y-39597676D01*
X90079636Y-39597676D02*
X89984398Y-39692914D01*
X89984398Y-39692914D02*
X89889160Y-39740533D01*
X91317731Y-39788152D02*
X91317731Y-40454819D01*
X91079636Y-39407200D02*
X90841541Y-40121485D01*
X90841541Y-40121485D02*
X91460588Y-40121485D01*
X83859580Y-36991792D02*
X83907200Y-37039411D01*
X83907200Y-37039411D02*
X83954819Y-37182268D01*
X83954819Y-37182268D02*
X83954819Y-37277506D01*
X83954819Y-37277506D02*
X83907200Y-37420363D01*
X83907200Y-37420363D02*
X83811961Y-37515601D01*
X83811961Y-37515601D02*
X83716723Y-37563220D01*
X83716723Y-37563220D02*
X83526247Y-37610839D01*
X83526247Y-37610839D02*
X83383390Y-37610839D01*
X83383390Y-37610839D02*
X83192914Y-37563220D01*
X83192914Y-37563220D02*
X83097676Y-37515601D01*
X83097676Y-37515601D02*
X83002438Y-37420363D01*
X83002438Y-37420363D02*
X82954819Y-37277506D01*
X82954819Y-37277506D02*
X82954819Y-37182268D01*
X82954819Y-37182268D02*
X83002438Y-37039411D01*
X83002438Y-37039411D02*
X83050057Y-36991792D01*
X83954819Y-36039411D02*
X83954819Y-36610839D01*
X83954819Y-36325125D02*
X82954819Y-36325125D01*
X82954819Y-36325125D02*
X83097676Y-36420363D01*
X83097676Y-36420363D02*
X83192914Y-36515601D01*
X83192914Y-36515601D02*
X83240533Y-36610839D01*
X83954819Y-35087030D02*
X83954819Y-35658458D01*
X83954819Y-35372744D02*
X82954819Y-35372744D01*
X82954819Y-35372744D02*
X83097676Y-35467982D01*
X83097676Y-35467982D02*
X83192914Y-35563220D01*
X83192914Y-35563220D02*
X83240533Y-35658458D01*
X85254819Y-36991792D02*
X84778628Y-37325125D01*
X85254819Y-37563220D02*
X84254819Y-37563220D01*
X84254819Y-37563220D02*
X84254819Y-37182268D01*
X84254819Y-37182268D02*
X84302438Y-37087030D01*
X84302438Y-37087030D02*
X84350057Y-37039411D01*
X84350057Y-37039411D02*
X84445295Y-36991792D01*
X84445295Y-36991792D02*
X84588152Y-36991792D01*
X84588152Y-36991792D02*
X84683390Y-37039411D01*
X84683390Y-37039411D02*
X84731009Y-37087030D01*
X84731009Y-37087030D02*
X84778628Y-37182268D01*
X84778628Y-37182268D02*
X84778628Y-37563220D01*
X85254819Y-36039411D02*
X85254819Y-36610839D01*
X85254819Y-36325125D02*
X84254819Y-36325125D01*
X84254819Y-36325125D02*
X84397676Y-36420363D01*
X84397676Y-36420363D02*
X84492914Y-36515601D01*
X84492914Y-36515601D02*
X84540533Y-36610839D01*
X84254819Y-35706077D02*
X84254819Y-35087030D01*
X84254819Y-35087030D02*
X84635771Y-35420363D01*
X84635771Y-35420363D02*
X84635771Y-35277506D01*
X84635771Y-35277506D02*
X84683390Y-35182268D01*
X84683390Y-35182268D02*
X84731009Y-35134649D01*
X84731009Y-35134649D02*
X84826247Y-35087030D01*
X84826247Y-35087030D02*
X85064342Y-35087030D01*
X85064342Y-35087030D02*
X85159580Y-35134649D01*
X85159580Y-35134649D02*
X85207200Y-35182268D01*
X85207200Y-35182268D02*
X85254819Y-35277506D01*
X85254819Y-35277506D02*
X85254819Y-35563220D01*
X85254819Y-35563220D02*
X85207200Y-35658458D01*
X85207200Y-35658458D02*
X85159580Y-35706077D01*
X100933333Y-48904819D02*
X100457143Y-48904819D01*
X100457143Y-48904819D02*
X100457143Y-47904819D01*
X101219048Y-48000057D02*
X101266667Y-47952438D01*
X101266667Y-47952438D02*
X101361905Y-47904819D01*
X101361905Y-47904819D02*
X101600000Y-47904819D01*
X101600000Y-47904819D02*
X101695238Y-47952438D01*
X101695238Y-47952438D02*
X101742857Y-48000057D01*
X101742857Y-48000057D02*
X101790476Y-48095295D01*
X101790476Y-48095295D02*
X101790476Y-48190533D01*
X101790476Y-48190533D02*
X101742857Y-48333390D01*
X101742857Y-48333390D02*
X101171429Y-48904819D01*
X101171429Y-48904819D02*
X101790476Y-48904819D01*
X81189819Y-36442857D02*
X80713628Y-36776190D01*
X81189819Y-37014285D02*
X80189819Y-37014285D01*
X80189819Y-37014285D02*
X80189819Y-36633333D01*
X80189819Y-36633333D02*
X80237438Y-36538095D01*
X80237438Y-36538095D02*
X80285057Y-36490476D01*
X80285057Y-36490476D02*
X80380295Y-36442857D01*
X80380295Y-36442857D02*
X80523152Y-36442857D01*
X80523152Y-36442857D02*
X80618390Y-36490476D01*
X80618390Y-36490476D02*
X80666009Y-36538095D01*
X80666009Y-36538095D02*
X80713628Y-36633333D01*
X80713628Y-36633333D02*
X80713628Y-37014285D01*
X81189819Y-35490476D02*
X81189819Y-36061904D01*
X81189819Y-35776190D02*
X80189819Y-35776190D01*
X80189819Y-35776190D02*
X80332676Y-35871428D01*
X80332676Y-35871428D02*
X80427914Y-35966666D01*
X80427914Y-35966666D02*
X80475533Y-36061904D01*
X81189819Y-34538095D02*
X81189819Y-35109523D01*
X81189819Y-34823809D02*
X80189819Y-34823809D01*
X80189819Y-34823809D02*
X80332676Y-34919047D01*
X80332676Y-34919047D02*
X80427914Y-35014285D01*
X80427914Y-35014285D02*
X80475533Y-35109523D01*
X95959580Y-58693922D02*
X96007200Y-58741541D01*
X96007200Y-58741541D02*
X96054819Y-58884398D01*
X96054819Y-58884398D02*
X96054819Y-58979636D01*
X96054819Y-58979636D02*
X96007200Y-59122493D01*
X96007200Y-59122493D02*
X95911961Y-59217731D01*
X95911961Y-59217731D02*
X95816723Y-59265350D01*
X95816723Y-59265350D02*
X95626247Y-59312969D01*
X95626247Y-59312969D02*
X95483390Y-59312969D01*
X95483390Y-59312969D02*
X95292914Y-59265350D01*
X95292914Y-59265350D02*
X95197676Y-59217731D01*
X95197676Y-59217731D02*
X95102438Y-59122493D01*
X95102438Y-59122493D02*
X95054819Y-58979636D01*
X95054819Y-58979636D02*
X95054819Y-58884398D01*
X95054819Y-58884398D02*
X95102438Y-58741541D01*
X95102438Y-58741541D02*
X95150057Y-58693922D01*
X95150057Y-58312969D02*
X95102438Y-58265350D01*
X95102438Y-58265350D02*
X95054819Y-58170112D01*
X95054819Y-58170112D02*
X95054819Y-57932017D01*
X95054819Y-57932017D02*
X95102438Y-57836779D01*
X95102438Y-57836779D02*
X95150057Y-57789160D01*
X95150057Y-57789160D02*
X95245295Y-57741541D01*
X95245295Y-57741541D02*
X95340533Y-57741541D01*
X95340533Y-57741541D02*
X95483390Y-57789160D01*
X95483390Y-57789160D02*
X96054819Y-58360588D01*
X96054819Y-58360588D02*
X96054819Y-57741541D01*
X95388152Y-56884398D02*
X96054819Y-56884398D01*
X95007200Y-57122493D02*
X95721485Y-57360588D01*
X95721485Y-57360588D02*
X95721485Y-56741541D01*
X81706077Y-45359580D02*
X81658458Y-45407200D01*
X81658458Y-45407200D02*
X81515601Y-45454819D01*
X81515601Y-45454819D02*
X81420363Y-45454819D01*
X81420363Y-45454819D02*
X81277506Y-45407200D01*
X81277506Y-45407200D02*
X81182268Y-45311961D01*
X81182268Y-45311961D02*
X81134649Y-45216723D01*
X81134649Y-45216723D02*
X81087030Y-45026247D01*
X81087030Y-45026247D02*
X81087030Y-44883390D01*
X81087030Y-44883390D02*
X81134649Y-44692914D01*
X81134649Y-44692914D02*
X81182268Y-44597676D01*
X81182268Y-44597676D02*
X81277506Y-44502438D01*
X81277506Y-44502438D02*
X81420363Y-44454819D01*
X81420363Y-44454819D02*
X81515601Y-44454819D01*
X81515601Y-44454819D02*
X81658458Y-44502438D01*
X81658458Y-44502438D02*
X81706077Y-44550057D01*
X82658458Y-45454819D02*
X82087030Y-45454819D01*
X82372744Y-45454819D02*
X82372744Y-44454819D01*
X82372744Y-44454819D02*
X82277506Y-44597676D01*
X82277506Y-44597676D02*
X82182268Y-44692914D01*
X82182268Y-44692914D02*
X82087030Y-44740533D01*
X83134649Y-45454819D02*
X83325125Y-45454819D01*
X83325125Y-45454819D02*
X83420363Y-45407200D01*
X83420363Y-45407200D02*
X83467982Y-45359580D01*
X83467982Y-45359580D02*
X83563220Y-45216723D01*
X83563220Y-45216723D02*
X83610839Y-45026247D01*
X83610839Y-45026247D02*
X83610839Y-44645295D01*
X83610839Y-44645295D02*
X83563220Y-44550057D01*
X83563220Y-44550057D02*
X83515601Y-44502438D01*
X83515601Y-44502438D02*
X83420363Y-44454819D01*
X83420363Y-44454819D02*
X83229887Y-44454819D01*
X83229887Y-44454819D02*
X83134649Y-44502438D01*
X83134649Y-44502438D02*
X83087030Y-44550057D01*
X83087030Y-44550057D02*
X83039411Y-44645295D01*
X83039411Y-44645295D02*
X83039411Y-44883390D01*
X83039411Y-44883390D02*
X83087030Y-44978628D01*
X83087030Y-44978628D02*
X83134649Y-45026247D01*
X83134649Y-45026247D02*
X83229887Y-45073866D01*
X83229887Y-45073866D02*
X83420363Y-45073866D01*
X83420363Y-45073866D02*
X83515601Y-45026247D01*
X83515601Y-45026247D02*
X83563220Y-44978628D01*
X83563220Y-44978628D02*
X83610839Y-44883390D01*
X80059580Y-38491792D02*
X80107200Y-38539411D01*
X80107200Y-38539411D02*
X80154819Y-38682268D01*
X80154819Y-38682268D02*
X80154819Y-38777506D01*
X80154819Y-38777506D02*
X80107200Y-38920363D01*
X80107200Y-38920363D02*
X80011961Y-39015601D01*
X80011961Y-39015601D02*
X79916723Y-39063220D01*
X79916723Y-39063220D02*
X79726247Y-39110839D01*
X79726247Y-39110839D02*
X79583390Y-39110839D01*
X79583390Y-39110839D02*
X79392914Y-39063220D01*
X79392914Y-39063220D02*
X79297676Y-39015601D01*
X79297676Y-39015601D02*
X79202438Y-38920363D01*
X79202438Y-38920363D02*
X79154819Y-38777506D01*
X79154819Y-38777506D02*
X79154819Y-38682268D01*
X79154819Y-38682268D02*
X79202438Y-38539411D01*
X79202438Y-38539411D02*
X79250057Y-38491792D01*
X79154819Y-37587030D02*
X79154819Y-38063220D01*
X79154819Y-38063220D02*
X79631009Y-38110839D01*
X79631009Y-38110839D02*
X79583390Y-38063220D01*
X79583390Y-38063220D02*
X79535771Y-37967982D01*
X79535771Y-37967982D02*
X79535771Y-37729887D01*
X79535771Y-37729887D02*
X79583390Y-37634649D01*
X79583390Y-37634649D02*
X79631009Y-37587030D01*
X79631009Y-37587030D02*
X79726247Y-37539411D01*
X79726247Y-37539411D02*
X79964342Y-37539411D01*
X79964342Y-37539411D02*
X80059580Y-37587030D01*
X80059580Y-37587030D02*
X80107200Y-37634649D01*
X80107200Y-37634649D02*
X80154819Y-37729887D01*
X80154819Y-37729887D02*
X80154819Y-37967982D01*
X80154819Y-37967982D02*
X80107200Y-38063220D01*
X80107200Y-38063220D02*
X80059580Y-38110839D01*
X81559580Y-38491792D02*
X81607200Y-38539411D01*
X81607200Y-38539411D02*
X81654819Y-38682268D01*
X81654819Y-38682268D02*
X81654819Y-38777506D01*
X81654819Y-38777506D02*
X81607200Y-38920363D01*
X81607200Y-38920363D02*
X81511961Y-39015601D01*
X81511961Y-39015601D02*
X81416723Y-39063220D01*
X81416723Y-39063220D02*
X81226247Y-39110839D01*
X81226247Y-39110839D02*
X81083390Y-39110839D01*
X81083390Y-39110839D02*
X80892914Y-39063220D01*
X80892914Y-39063220D02*
X80797676Y-39015601D01*
X80797676Y-39015601D02*
X80702438Y-38920363D01*
X80702438Y-38920363D02*
X80654819Y-38777506D01*
X80654819Y-38777506D02*
X80654819Y-38682268D01*
X80654819Y-38682268D02*
X80702438Y-38539411D01*
X80702438Y-38539411D02*
X80750057Y-38491792D01*
X81083390Y-37920363D02*
X81035771Y-38015601D01*
X81035771Y-38015601D02*
X80988152Y-38063220D01*
X80988152Y-38063220D02*
X80892914Y-38110839D01*
X80892914Y-38110839D02*
X80845295Y-38110839D01*
X80845295Y-38110839D02*
X80750057Y-38063220D01*
X80750057Y-38063220D02*
X80702438Y-38015601D01*
X80702438Y-38015601D02*
X80654819Y-37920363D01*
X80654819Y-37920363D02*
X80654819Y-37729887D01*
X80654819Y-37729887D02*
X80702438Y-37634649D01*
X80702438Y-37634649D02*
X80750057Y-37587030D01*
X80750057Y-37587030D02*
X80845295Y-37539411D01*
X80845295Y-37539411D02*
X80892914Y-37539411D01*
X80892914Y-37539411D02*
X80988152Y-37587030D01*
X80988152Y-37587030D02*
X81035771Y-37634649D01*
X81035771Y-37634649D02*
X81083390Y-37729887D01*
X81083390Y-37729887D02*
X81083390Y-37920363D01*
X81083390Y-37920363D02*
X81131009Y-38015601D01*
X81131009Y-38015601D02*
X81178628Y-38063220D01*
X81178628Y-38063220D02*
X81273866Y-38110839D01*
X81273866Y-38110839D02*
X81464342Y-38110839D01*
X81464342Y-38110839D02*
X81559580Y-38063220D01*
X81559580Y-38063220D02*
X81607200Y-38015601D01*
X81607200Y-38015601D02*
X81654819Y-37920363D01*
X81654819Y-37920363D02*
X81654819Y-37729887D01*
X81654819Y-37729887D02*
X81607200Y-37634649D01*
X81607200Y-37634649D02*
X81559580Y-37587030D01*
X81559580Y-37587030D02*
X81464342Y-37539411D01*
X81464342Y-37539411D02*
X81273866Y-37539411D01*
X81273866Y-37539411D02*
X81178628Y-37587030D01*
X81178628Y-37587030D02*
X81131009Y-37634649D01*
X81131009Y-37634649D02*
X81083390Y-37729887D01*
X73206077Y-38385057D02*
X73110839Y-38337438D01*
X73110839Y-38337438D02*
X73015601Y-38242200D01*
X73015601Y-38242200D02*
X72872744Y-38099342D01*
X72872744Y-38099342D02*
X72777506Y-38051723D01*
X72777506Y-38051723D02*
X72682268Y-38051723D01*
X72729887Y-38289819D02*
X72634649Y-38242200D01*
X72634649Y-38242200D02*
X72539411Y-38146961D01*
X72539411Y-38146961D02*
X72491792Y-37956485D01*
X72491792Y-37956485D02*
X72491792Y-37623152D01*
X72491792Y-37623152D02*
X72539411Y-37432676D01*
X72539411Y-37432676D02*
X72634649Y-37337438D01*
X72634649Y-37337438D02*
X72729887Y-37289819D01*
X72729887Y-37289819D02*
X72920363Y-37289819D01*
X72920363Y-37289819D02*
X73015601Y-37337438D01*
X73015601Y-37337438D02*
X73110839Y-37432676D01*
X73110839Y-37432676D02*
X73158458Y-37623152D01*
X73158458Y-37623152D02*
X73158458Y-37956485D01*
X73158458Y-37956485D02*
X73110839Y-38146961D01*
X73110839Y-38146961D02*
X73015601Y-38242200D01*
X73015601Y-38242200D02*
X72920363Y-38289819D01*
X72920363Y-38289819D02*
X72729887Y-38289819D01*
X73539411Y-37385057D02*
X73587030Y-37337438D01*
X73587030Y-37337438D02*
X73682268Y-37289819D01*
X73682268Y-37289819D02*
X73920363Y-37289819D01*
X73920363Y-37289819D02*
X74015601Y-37337438D01*
X74015601Y-37337438D02*
X74063220Y-37385057D01*
X74063220Y-37385057D02*
X74110839Y-37480295D01*
X74110839Y-37480295D02*
X74110839Y-37575533D01*
X74110839Y-37575533D02*
X74063220Y-37718390D01*
X74063220Y-37718390D02*
X73491792Y-38289819D01*
X73491792Y-38289819D02*
X74110839Y-38289819D01*
X92908207Y-57644580D02*
X92860588Y-57692200D01*
X92860588Y-57692200D02*
X92717731Y-57739819D01*
X92717731Y-57739819D02*
X92622493Y-57739819D01*
X92622493Y-57739819D02*
X92479636Y-57692200D01*
X92479636Y-57692200D02*
X92384398Y-57596961D01*
X92384398Y-57596961D02*
X92336779Y-57501723D01*
X92336779Y-57501723D02*
X92289160Y-57311247D01*
X92289160Y-57311247D02*
X92289160Y-57168390D01*
X92289160Y-57168390D02*
X92336779Y-56977914D01*
X92336779Y-56977914D02*
X92384398Y-56882676D01*
X92384398Y-56882676D02*
X92479636Y-56787438D01*
X92479636Y-56787438D02*
X92622493Y-56739819D01*
X92622493Y-56739819D02*
X92717731Y-56739819D01*
X92717731Y-56739819D02*
X92860588Y-56787438D01*
X92860588Y-56787438D02*
X92908207Y-56835057D01*
X93289160Y-56835057D02*
X93336779Y-56787438D01*
X93336779Y-56787438D02*
X93432017Y-56739819D01*
X93432017Y-56739819D02*
X93670112Y-56739819D01*
X93670112Y-56739819D02*
X93765350Y-56787438D01*
X93765350Y-56787438D02*
X93812969Y-56835057D01*
X93812969Y-56835057D02*
X93860588Y-56930295D01*
X93860588Y-56930295D02*
X93860588Y-57025533D01*
X93860588Y-57025533D02*
X93812969Y-57168390D01*
X93812969Y-57168390D02*
X93241541Y-57739819D01*
X93241541Y-57739819D02*
X93860588Y-57739819D01*
X94479636Y-56739819D02*
X94574874Y-56739819D01*
X94574874Y-56739819D02*
X94670112Y-56787438D01*
X94670112Y-56787438D02*
X94717731Y-56835057D01*
X94717731Y-56835057D02*
X94765350Y-56930295D01*
X94765350Y-56930295D02*
X94812969Y-57120771D01*
X94812969Y-57120771D02*
X94812969Y-57358866D01*
X94812969Y-57358866D02*
X94765350Y-57549342D01*
X94765350Y-57549342D02*
X94717731Y-57644580D01*
X94717731Y-57644580D02*
X94670112Y-57692200D01*
X94670112Y-57692200D02*
X94574874Y-57739819D01*
X94574874Y-57739819D02*
X94479636Y-57739819D01*
X94479636Y-57739819D02*
X94384398Y-57692200D01*
X94384398Y-57692200D02*
X94336779Y-57644580D01*
X94336779Y-57644580D02*
X94289160Y-57549342D01*
X94289160Y-57549342D02*
X94241541Y-57358866D01*
X94241541Y-57358866D02*
X94241541Y-57120771D01*
X94241541Y-57120771D02*
X94289160Y-56930295D01*
X94289160Y-56930295D02*
X94336779Y-56835057D01*
X94336779Y-56835057D02*
X94384398Y-56787438D01*
X94384398Y-56787438D02*
X94479636Y-56739819D01*
X75506077Y-44654819D02*
X75172744Y-44178628D01*
X74934649Y-44654819D02*
X74934649Y-43654819D01*
X74934649Y-43654819D02*
X75315601Y-43654819D01*
X75315601Y-43654819D02*
X75410839Y-43702438D01*
X75410839Y-43702438D02*
X75458458Y-43750057D01*
X75458458Y-43750057D02*
X75506077Y-43845295D01*
X75506077Y-43845295D02*
X75506077Y-43988152D01*
X75506077Y-43988152D02*
X75458458Y-44083390D01*
X75458458Y-44083390D02*
X75410839Y-44131009D01*
X75410839Y-44131009D02*
X75315601Y-44178628D01*
X75315601Y-44178628D02*
X74934649Y-44178628D01*
X76458458Y-44654819D02*
X75887030Y-44654819D01*
X76172744Y-44654819D02*
X76172744Y-43654819D01*
X76172744Y-43654819D02*
X76077506Y-43797676D01*
X76077506Y-43797676D02*
X75982268Y-43892914D01*
X75982268Y-43892914D02*
X75887030Y-43940533D01*
X76791792Y-43654819D02*
X77458458Y-43654819D01*
X77458458Y-43654819D02*
X77029887Y-44654819D01*
X83057142Y-63159580D02*
X83009523Y-63207200D01*
X83009523Y-63207200D02*
X82866666Y-63254819D01*
X82866666Y-63254819D02*
X82771428Y-63254819D01*
X82771428Y-63254819D02*
X82628571Y-63207200D01*
X82628571Y-63207200D02*
X82533333Y-63111961D01*
X82533333Y-63111961D02*
X82485714Y-63016723D01*
X82485714Y-63016723D02*
X82438095Y-62826247D01*
X82438095Y-62826247D02*
X82438095Y-62683390D01*
X82438095Y-62683390D02*
X82485714Y-62492914D01*
X82485714Y-62492914D02*
X82533333Y-62397676D01*
X82533333Y-62397676D02*
X82628571Y-62302438D01*
X82628571Y-62302438D02*
X82771428Y-62254819D01*
X82771428Y-62254819D02*
X82866666Y-62254819D01*
X82866666Y-62254819D02*
X83009523Y-62302438D01*
X83009523Y-62302438D02*
X83057142Y-62350057D01*
X84009523Y-63254819D02*
X83438095Y-63254819D01*
X83723809Y-63254819D02*
X83723809Y-62254819D01*
X83723809Y-62254819D02*
X83628571Y-62397676D01*
X83628571Y-62397676D02*
X83533333Y-62492914D01*
X83533333Y-62492914D02*
X83438095Y-62540533D01*
X84342857Y-62254819D02*
X84961904Y-62254819D01*
X84961904Y-62254819D02*
X84628571Y-62635771D01*
X84628571Y-62635771D02*
X84771428Y-62635771D01*
X84771428Y-62635771D02*
X84866666Y-62683390D01*
X84866666Y-62683390D02*
X84914285Y-62731009D01*
X84914285Y-62731009D02*
X84961904Y-62826247D01*
X84961904Y-62826247D02*
X84961904Y-63064342D01*
X84961904Y-63064342D02*
X84914285Y-63159580D01*
X84914285Y-63159580D02*
X84866666Y-63207200D01*
X84866666Y-63207200D02*
X84771428Y-63254819D01*
X84771428Y-63254819D02*
X84485714Y-63254819D01*
X84485714Y-63254819D02*
X84390476Y-63207200D01*
X84390476Y-63207200D02*
X84342857Y-63159580D01*
X83233333Y-43439580D02*
X83185714Y-43487200D01*
X83185714Y-43487200D02*
X83042857Y-43534819D01*
X83042857Y-43534819D02*
X82947619Y-43534819D01*
X82947619Y-43534819D02*
X82804762Y-43487200D01*
X82804762Y-43487200D02*
X82709524Y-43391961D01*
X82709524Y-43391961D02*
X82661905Y-43296723D01*
X82661905Y-43296723D02*
X82614286Y-43106247D01*
X82614286Y-43106247D02*
X82614286Y-42963390D01*
X82614286Y-42963390D02*
X82661905Y-42772914D01*
X82661905Y-42772914D02*
X82709524Y-42677676D01*
X82709524Y-42677676D02*
X82804762Y-42582438D01*
X82804762Y-42582438D02*
X82947619Y-42534819D01*
X82947619Y-42534819D02*
X83042857Y-42534819D01*
X83042857Y-42534819D02*
X83185714Y-42582438D01*
X83185714Y-42582438D02*
X83233333Y-42630057D01*
X83709524Y-43534819D02*
X83900000Y-43534819D01*
X83900000Y-43534819D02*
X83995238Y-43487200D01*
X83995238Y-43487200D02*
X84042857Y-43439580D01*
X84042857Y-43439580D02*
X84138095Y-43296723D01*
X84138095Y-43296723D02*
X84185714Y-43106247D01*
X84185714Y-43106247D02*
X84185714Y-42725295D01*
X84185714Y-42725295D02*
X84138095Y-42630057D01*
X84138095Y-42630057D02*
X84090476Y-42582438D01*
X84090476Y-42582438D02*
X83995238Y-42534819D01*
X83995238Y-42534819D02*
X83804762Y-42534819D01*
X83804762Y-42534819D02*
X83709524Y-42582438D01*
X83709524Y-42582438D02*
X83661905Y-42630057D01*
X83661905Y-42630057D02*
X83614286Y-42725295D01*
X83614286Y-42725295D02*
X83614286Y-42963390D01*
X83614286Y-42963390D02*
X83661905Y-43058628D01*
X83661905Y-43058628D02*
X83709524Y-43106247D01*
X83709524Y-43106247D02*
X83804762Y-43153866D01*
X83804762Y-43153866D02*
X83995238Y-43153866D01*
X83995238Y-43153866D02*
X84090476Y-43106247D01*
X84090476Y-43106247D02*
X84138095Y-43058628D01*
X84138095Y-43058628D02*
X84185714Y-42963390D01*
X94754819Y-51261904D02*
X95564342Y-51261904D01*
X95564342Y-51261904D02*
X95659580Y-51214285D01*
X95659580Y-51214285D02*
X95707200Y-51166666D01*
X95707200Y-51166666D02*
X95754819Y-51071428D01*
X95754819Y-51071428D02*
X95754819Y-50880952D01*
X95754819Y-50880952D02*
X95707200Y-50785714D01*
X95707200Y-50785714D02*
X95659580Y-50738095D01*
X95659580Y-50738095D02*
X95564342Y-50690476D01*
X95564342Y-50690476D02*
X94754819Y-50690476D01*
X94850057Y-50261904D02*
X94802438Y-50214285D01*
X94802438Y-50214285D02*
X94754819Y-50119047D01*
X94754819Y-50119047D02*
X94754819Y-49880952D01*
X94754819Y-49880952D02*
X94802438Y-49785714D01*
X94802438Y-49785714D02*
X94850057Y-49738095D01*
X94850057Y-49738095D02*
X94945295Y-49690476D01*
X94945295Y-49690476D02*
X95040533Y-49690476D01*
X95040533Y-49690476D02*
X95183390Y-49738095D01*
X95183390Y-49738095D02*
X95754819Y-50309523D01*
X95754819Y-50309523D02*
X95754819Y-49690476D01*
%TO.C,J4*%
D12*
X112740000Y-34415000D02*
X112740000Y-36740000D01*
X112740000Y-36740000D02*
X110350000Y-36740000D01*
X112740000Y-42585000D02*
X112740000Y-40260000D01*
X113590000Y-34415000D02*
X112740000Y-34415000D01*
X113590000Y-42585000D02*
X112740000Y-42585000D01*
X117110000Y-34415000D02*
X117960000Y-34415000D01*
X117960000Y-34415000D02*
X117960000Y-42585000D01*
X117960000Y-42585000D02*
X117110000Y-42585000D01*
%TO.C,R10*%
X78827500Y-35580242D02*
X78827500Y-36054758D01*
X79872500Y-35580242D02*
X79872500Y-36054758D01*
%TO.C,R3*%
X68817258Y-64882500D02*
X68342742Y-64882500D01*
X68817258Y-65927500D02*
X68342742Y-65927500D01*
%TO.C,C6*%
X78190000Y-46540580D02*
X78190000Y-46259420D01*
X79210000Y-46540580D02*
X79210000Y-46259420D01*
%TO.C,C27*%
X107338748Y-39765000D02*
X107861252Y-39765000D01*
X107338748Y-41235000D02*
X107861252Y-41235000D01*
%TO.C,C23*%
X95090000Y-46140580D02*
X95090000Y-45859420D01*
X96110000Y-46140580D02*
X96110000Y-45859420D01*
%TO.C,C29*%
X107338748Y-63765000D02*
X107861252Y-63765000D01*
X107338748Y-65235000D02*
X107861252Y-65235000D01*
%TO.C,C22*%
X90138748Y-42465000D02*
X90661252Y-42465000D01*
X90138748Y-43935000D02*
X90661252Y-43935000D01*
%TO.C,L3*%
X96990000Y-53390000D02*
X105210000Y-53390000D01*
X96990000Y-53490000D02*
X96990000Y-53390000D01*
X96990000Y-61610000D02*
X96990000Y-61510000D01*
X105210000Y-53390000D02*
X105210000Y-53490000D01*
X105210000Y-61510000D02*
X105210000Y-61610000D01*
X105210000Y-61610000D02*
X96990000Y-61610000D01*
%TO.C,L4*%
X96990000Y-63390000D02*
X105210000Y-63390000D01*
X96990000Y-63490000D02*
X96990000Y-63390000D01*
X96990000Y-71610000D02*
X96990000Y-71510000D01*
X105210000Y-63390000D02*
X105210000Y-63490000D01*
X105210000Y-71510000D02*
X105210000Y-71610000D01*
X105210000Y-71610000D02*
X96990000Y-71610000D01*
%TO.C,C17*%
X86059420Y-60290000D02*
X86340580Y-60290000D01*
X86059420Y-61310000D02*
X86340580Y-61310000D01*
%TO.C,C18*%
X91359420Y-44490000D02*
X91640580Y-44490000D01*
X91359420Y-45510000D02*
X91640580Y-45510000D01*
%TO.C,R15*%
X73527500Y-32480242D02*
X73527500Y-32954758D01*
X74572500Y-32480242D02*
X74572500Y-32954758D01*
%TO.C,J5*%
X112740000Y-58515000D02*
X112740000Y-60840000D01*
X112740000Y-60840000D02*
X110350000Y-60840000D01*
X112740000Y-66685000D02*
X112740000Y-64360000D01*
X113590000Y-58515000D02*
X112740000Y-58515000D01*
X113590000Y-66685000D02*
X112740000Y-66685000D01*
X117110000Y-58515000D02*
X117960000Y-58515000D01*
X117960000Y-58515000D02*
X117960000Y-66685000D01*
X117960000Y-66685000D02*
X117110000Y-66685000D01*
%TO.C,Q1*%
X76890000Y-31207500D02*
X77890000Y-31207500D01*
X76890000Y-33027500D02*
X76890000Y-31207500D01*
X76940000Y-33027500D02*
X76890000Y-33027500D01*
X78840000Y-33027500D02*
X78060000Y-33027500D01*
X79010000Y-31207500D02*
X80010000Y-31207500D01*
X80010000Y-31207500D02*
X80010000Y-33027500D01*
X80010000Y-33027500D02*
X79960000Y-33027500D01*
X78070000Y-33567500D02*
X78400000Y-33327500D01*
X78400000Y-33807500D01*
X78070000Y-33567500D01*
G36*
X78400000Y-33807500D02*
G01*
X78070000Y-33567500D01*
X78400000Y-33327500D01*
X78400000Y-33807500D01*
G37*
D13*
%TO.C,G\u002A\u002A\u002A*%
G36*
X104219398Y-50477494D02*
G01*
X104219398Y-50544618D01*
X104091861Y-50544618D01*
X103964324Y-50544618D01*
X103964324Y-50477494D01*
X103964324Y-50410369D01*
X104091861Y-50410369D01*
X104219398Y-50410369D01*
X104219398Y-50477494D01*
G37*
G36*
X104219398Y-50762774D02*
G01*
X104219398Y-50826542D01*
X104091861Y-50826542D01*
X103964324Y-50826542D01*
X103964324Y-50762774D01*
X103964324Y-50699005D01*
X104091861Y-50699005D01*
X104219398Y-50699005D01*
X104219398Y-50762774D01*
G37*
G36*
X104219398Y-51044698D02*
G01*
X104219398Y-51108466D01*
X104091861Y-51108466D01*
X103964324Y-51108466D01*
X103964324Y-51044698D01*
X103964324Y-50980929D01*
X104091861Y-50980929D01*
X104219398Y-50980929D01*
X104219398Y-51044698D01*
G37*
G36*
X104883933Y-50037827D02*
G01*
X104883933Y-50168720D01*
X104816809Y-50168720D01*
X104749684Y-50168720D01*
X104749684Y-50037827D01*
X104749684Y-49906933D01*
X104816809Y-49906933D01*
X104883933Y-49906933D01*
X104883933Y-50037827D01*
G37*
G36*
X104883933Y-51769645D02*
G01*
X104883933Y-51900538D01*
X104816809Y-51900538D01*
X104749684Y-51900538D01*
X104749684Y-51769645D01*
X104749684Y-51638751D01*
X104816809Y-51638751D01*
X104883933Y-51638751D01*
X104883933Y-51769645D01*
G37*
G36*
X105103767Y-51640187D02*
G01*
X105169213Y-51642108D01*
X105171036Y-51771323D01*
X105172860Y-51900538D01*
X105105590Y-51900538D01*
X105038320Y-51900538D01*
X105038320Y-51769402D01*
X105038320Y-51638265D01*
X105103767Y-51640187D01*
G37*
G36*
X105172570Y-50037827D02*
G01*
X105172570Y-50168720D01*
X105105445Y-50168720D01*
X105038320Y-50168720D01*
X105038320Y-50037827D01*
X105038320Y-49906933D01*
X105105445Y-49906933D01*
X105172570Y-49906933D01*
X105172570Y-50037827D01*
G37*
G36*
X105823680Y-50410962D02*
G01*
X105951217Y-50412428D01*
X105951217Y-50478523D01*
X105951217Y-50544618D01*
X105823680Y-50544618D01*
X105696143Y-50544618D01*
X105696143Y-50477057D01*
X105696143Y-50409495D01*
X105823680Y-50410962D01*
G37*
G36*
X105951217Y-50762774D02*
G01*
X105951217Y-50826542D01*
X105823680Y-50826542D01*
X105696143Y-50826542D01*
X105696143Y-50762774D01*
X105696143Y-50699005D01*
X105823680Y-50699005D01*
X105951217Y-50699005D01*
X105951217Y-50762774D01*
G37*
G36*
X105951217Y-51044698D02*
G01*
X105951217Y-51108466D01*
X105823680Y-51108466D01*
X105696143Y-51108466D01*
X105696143Y-51044698D01*
X105696143Y-50980929D01*
X105823680Y-50980929D01*
X105951217Y-50980929D01*
X105951217Y-51044698D01*
G37*
G36*
X105951217Y-51329509D02*
G01*
X105951217Y-51396166D01*
X105823680Y-51396166D01*
X105696143Y-51396166D01*
X105696143Y-51329509D01*
X105696143Y-51262853D01*
X105823680Y-51262853D01*
X105951217Y-51262853D01*
X105951217Y-51329509D01*
G37*
G36*
X104600635Y-51749507D02*
G01*
X104601074Y-51787903D01*
X104600981Y-51823135D01*
X104600401Y-51852309D01*
X104599377Y-51872528D01*
X104598652Y-51878722D01*
X104594689Y-51900538D01*
X104527723Y-51900538D01*
X104460758Y-51900538D01*
X104462581Y-51771323D01*
X104464404Y-51642108D01*
X104531528Y-51642108D01*
X104598653Y-51642108D01*
X104600635Y-51749507D01*
G37*
G36*
X104219398Y-51325782D02*
G01*
X104219398Y-51388712D01*
X104198422Y-51392907D01*
X104183379Y-51394419D01*
X104158232Y-51395407D01*
X104126292Y-51395882D01*
X104090870Y-51395855D01*
X104055276Y-51395337D01*
X104022821Y-51394339D01*
X103996815Y-51392872D01*
X103989496Y-51392213D01*
X103964324Y-51389580D01*
X103964324Y-51326216D01*
X103964324Y-51262853D01*
X104091861Y-51262853D01*
X104219398Y-51262853D01*
X104219398Y-51325782D01*
G37*
G36*
X105456964Y-51659496D02*
G01*
X105458945Y-51677129D01*
X105460282Y-51704635D01*
X105460974Y-51738478D01*
X105461022Y-51775121D01*
X105460426Y-51811026D01*
X105459188Y-51842659D01*
X105457307Y-51866481D01*
X105456937Y-51869395D01*
X105452669Y-51900538D01*
X105386312Y-51900538D01*
X105319954Y-51900538D01*
X105321777Y-51771323D01*
X105323600Y-51642108D01*
X105388161Y-51640197D01*
X105452722Y-51638287D01*
X105456964Y-51659496D01*
G37*
G36*
X104529850Y-49906938D02*
G01*
X104598653Y-49906943D01*
X104600534Y-49992522D01*
X104600930Y-50030306D01*
X104600582Y-50068122D01*
X104599574Y-50101330D01*
X104598175Y-50123411D01*
X104593934Y-50168720D01*
X104531966Y-50168720D01*
X104504334Y-50168264D01*
X104481998Y-50167041D01*
X104468204Y-50165271D01*
X104465522Y-50164245D01*
X104464118Y-50156424D01*
X104462894Y-50137348D01*
X104461925Y-50109187D01*
X104461285Y-50074110D01*
X104461048Y-50034287D01*
X104461047Y-50033352D01*
X104461047Y-49906933D01*
X104529850Y-49906938D01*
G37*
G36*
X105456830Y-49942174D02*
G01*
X105458080Y-49962082D01*
X105458532Y-49991698D01*
X105458190Y-50027329D01*
X105457055Y-50065282D01*
X105456723Y-50073067D01*
X105452409Y-50168720D01*
X105390801Y-50168720D01*
X105363253Y-50168261D01*
X105341005Y-50167032D01*
X105327317Y-50165254D01*
X105324719Y-50164245D01*
X105323315Y-50156424D01*
X105322091Y-50137348D01*
X105321121Y-50109187D01*
X105320481Y-50074110D01*
X105320244Y-50034287D01*
X105320244Y-50033352D01*
X105320244Y-49906933D01*
X105386434Y-49906933D01*
X105452624Y-49906933D01*
X105456830Y-49942174D01*
G37*
G36*
X104723075Y-50263303D02*
G01*
X104805208Y-50263499D01*
X104899296Y-50263812D01*
X104974608Y-50264080D01*
X105075881Y-50264427D01*
X105164594Y-50264744D01*
X105241613Y-50265091D01*
X105307801Y-50265526D01*
X105364025Y-50266108D01*
X105411148Y-50266897D01*
X105450036Y-50267950D01*
X105481554Y-50269328D01*
X105506566Y-50271090D01*
X105525938Y-50273293D01*
X105540534Y-50275998D01*
X105551220Y-50279263D01*
X105558859Y-50283148D01*
X105564318Y-50287710D01*
X105568460Y-50293010D01*
X105572151Y-50299106D01*
X105575652Y-50305076D01*
X105577942Y-50309187D01*
X105579947Y-50314100D01*
X105581686Y-50320683D01*
X105583178Y-50329802D01*
X105584442Y-50342325D01*
X105585496Y-50359118D01*
X105586361Y-50381048D01*
X105587054Y-50408982D01*
X105587594Y-50443788D01*
X105588001Y-50486333D01*
X105588293Y-50537482D01*
X105588489Y-50598104D01*
X105588608Y-50669065D01*
X105588669Y-50751233D01*
X105588691Y-50845474D01*
X105588693Y-50903736D01*
X105588687Y-51005041D01*
X105588655Y-51093790D01*
X105588579Y-51170850D01*
X105588438Y-51237091D01*
X105588213Y-51293381D01*
X105587884Y-51340589D01*
X105587431Y-51379582D01*
X105586836Y-51411229D01*
X105586077Y-51436399D01*
X105585137Y-51455960D01*
X105583994Y-51470781D01*
X105582630Y-51481730D01*
X105581025Y-51489675D01*
X105579159Y-51495486D01*
X105577012Y-51500030D01*
X105575146Y-51503228D01*
X105570828Y-51510468D01*
X105566694Y-51516816D01*
X105561883Y-51522329D01*
X105555534Y-51527064D01*
X105546786Y-51531079D01*
X105534777Y-51534432D01*
X105518647Y-51537179D01*
X105497533Y-51539377D01*
X105470575Y-51541085D01*
X105436910Y-51542360D01*
X105395679Y-51543259D01*
X105346020Y-51543839D01*
X105287070Y-51544158D01*
X105217970Y-51544273D01*
X105137858Y-51544241D01*
X105045872Y-51544121D01*
X104963020Y-51543998D01*
X104877825Y-51543838D01*
X104796324Y-51543608D01*
X104719540Y-51543315D01*
X104648497Y-51542966D01*
X104584218Y-51542569D01*
X104527726Y-51542132D01*
X104480043Y-51541662D01*
X104442194Y-51541166D01*
X104415200Y-51540652D01*
X104400086Y-51540128D01*
X104397279Y-51539858D01*
X104369954Y-51526700D01*
X104349133Y-51504386D01*
X104340243Y-51484441D01*
X104338797Y-51472129D01*
X104337568Y-51446717D01*
X104336555Y-51408165D01*
X104335759Y-51356433D01*
X104335179Y-51291480D01*
X104334814Y-51213267D01*
X104334665Y-51121754D01*
X104334731Y-51016901D01*
X104335011Y-50898667D01*
X104335041Y-50889046D01*
X104335376Y-50788273D01*
X104335706Y-50700058D01*
X104336051Y-50623535D01*
X104336433Y-50557837D01*
X104336873Y-50502099D01*
X104337391Y-50455454D01*
X104338008Y-50417035D01*
X104338745Y-50385976D01*
X104339622Y-50361410D01*
X104340661Y-50342471D01*
X104341883Y-50328294D01*
X104343307Y-50318010D01*
X104344956Y-50310754D01*
X104346850Y-50305659D01*
X104349009Y-50301860D01*
X104349158Y-50301638D01*
X104353796Y-50294798D01*
X104358406Y-50288794D01*
X104363843Y-50283576D01*
X104370963Y-50279092D01*
X104380623Y-50275290D01*
X104393679Y-50272119D01*
X104410986Y-50269528D01*
X104433400Y-50267465D01*
X104461778Y-50265879D01*
X104496975Y-50264718D01*
X104539847Y-50263932D01*
X104591251Y-50263468D01*
X104652041Y-50263276D01*
X104723075Y-50263303D01*
G37*
G36*
X107345956Y-48067716D02*
G01*
X107343003Y-48077612D01*
X107336500Y-48100261D01*
X107326498Y-48135485D01*
X107313046Y-48183103D01*
X107296197Y-48242935D01*
X107275999Y-48314802D01*
X107252505Y-48398525D01*
X107225764Y-48493923D01*
X107217302Y-48524129D01*
X107206287Y-48563775D01*
X107196744Y-48598741D01*
X107189192Y-48627078D01*
X107184148Y-48646834D01*
X107182130Y-48656060D01*
X107182146Y-48656485D01*
X107188908Y-48655891D01*
X107206755Y-48653322D01*
X107233547Y-48649112D01*
X107267146Y-48643596D01*
X107300768Y-48637906D01*
X107343009Y-48630792D01*
X107388351Y-48623373D01*
X107434879Y-48615939D01*
X107480682Y-48608781D01*
X107523846Y-48602190D01*
X107562458Y-48596454D01*
X107594606Y-48591865D01*
X107618375Y-48588711D01*
X107631854Y-48587285D01*
X107634184Y-48587338D01*
X107629103Y-48590944D01*
X107614048Y-48600284D01*
X107590665Y-48614370D01*
X107560599Y-48632215D01*
X107525498Y-48652829D01*
X107510003Y-48661870D01*
X107467715Y-48686517D01*
X107424506Y-48711735D01*
X107383447Y-48735730D01*
X107347605Y-48756708D01*
X107320049Y-48772877D01*
X107318259Y-48773930D01*
X107291472Y-48789391D01*
X107268775Y-48801937D01*
X107252729Y-48810188D01*
X107246100Y-48812800D01*
X107239104Y-48815842D01*
X107243670Y-48824741D01*
X107259453Y-48839159D01*
X107286103Y-48858760D01*
X107309066Y-48874103D01*
X107337204Y-48892599D01*
X107370587Y-48914898D01*
X107407443Y-48939780D01*
X107446004Y-48966026D01*
X107484497Y-48992417D01*
X107521154Y-49017733D01*
X107554203Y-49040756D01*
X107581874Y-49060265D01*
X107602397Y-49075042D01*
X107614001Y-49083868D01*
X107615329Y-49085028D01*
X107620867Y-49091588D01*
X107614905Y-49091710D01*
X107611972Y-49091063D01*
X107597055Y-49087858D01*
X107572001Y-49082760D01*
X107538735Y-49076138D01*
X107499179Y-49068363D01*
X107455257Y-49059805D01*
X107408892Y-49050832D01*
X107362006Y-49041814D01*
X107316523Y-49033122D01*
X107274365Y-49025125D01*
X107237456Y-49018193D01*
X107207719Y-49012695D01*
X107187077Y-49009001D01*
X107177452Y-49007481D01*
X107177127Y-49007462D01*
X107173736Y-49010508D01*
X107175133Y-49020707D01*
X107181758Y-49039649D01*
X107194051Y-49068923D01*
X107194325Y-49069552D01*
X107206721Y-49098289D01*
X107222488Y-49135417D01*
X107239926Y-49176897D01*
X107257331Y-49218690D01*
X107264169Y-49235238D01*
X107306866Y-49338833D01*
X107281829Y-49315662D01*
X107266520Y-49301431D01*
X107244640Y-49281012D01*
X107219406Y-49257410D01*
X107199671Y-49238917D01*
X107142426Y-49185641D01*
X107091177Y-49138791D01*
X107046469Y-49098832D01*
X107008845Y-49066231D01*
X106978848Y-49041454D01*
X106957021Y-49024967D01*
X106943909Y-49017236D01*
X106940785Y-49016802D01*
X106930128Y-49026670D01*
X106919568Y-49045716D01*
X106910773Y-49069786D01*
X106905413Y-49094724D01*
X106904535Y-49107004D01*
X106907072Y-49128761D01*
X106913843Y-49156319D01*
X106922061Y-49180241D01*
X106945860Y-49252684D01*
X106957473Y-49320444D01*
X106956874Y-49383243D01*
X106947466Y-49430116D01*
X106928733Y-49470442D01*
X106898576Y-49506755D01*
X106858695Y-49537860D01*
X106810792Y-49562563D01*
X106756567Y-49579671D01*
X106726581Y-49585149D01*
X106667814Y-49589470D01*
X106609749Y-49585330D01*
X106548496Y-49572284D01*
X106509358Y-49560253D01*
X106481082Y-49551005D01*
X106457890Y-49543940D01*
X106442465Y-49539841D01*
X106437483Y-49539254D01*
X106440763Y-49544914D01*
X106451370Y-49559032D01*
X106467918Y-49579854D01*
X106489020Y-49605626D01*
X106505435Y-49625285D01*
X106548309Y-49676679D01*
X106588827Y-49726075D01*
X106626143Y-49772379D01*
X106659408Y-49814498D01*
X106687775Y-49851338D01*
X106710396Y-49881807D01*
X106726424Y-49904810D01*
X106735009Y-49919255D01*
X106736249Y-49922965D01*
X106732694Y-49930261D01*
X106722677Y-49946453D01*
X106707523Y-49969501D01*
X106688560Y-49997367D01*
X106677284Y-50013583D01*
X106656447Y-50043418D01*
X106638226Y-50069664D01*
X106624073Y-50090218D01*
X106615439Y-50102977D01*
X106613618Y-50105822D01*
X106613969Y-50115731D01*
X106619756Y-50132470D01*
X106624672Y-50142741D01*
X106663174Y-50222973D01*
X106699966Y-50313351D01*
X106733843Y-50410607D01*
X106763598Y-50511470D01*
X106770516Y-50537906D01*
X106793616Y-50649140D01*
X106808781Y-50768825D01*
X106815950Y-50894537D01*
X106815060Y-51023852D01*
X106806048Y-51154348D01*
X106789511Y-51279634D01*
X106758269Y-51430134D01*
X106715107Y-51574479D01*
X106660075Y-51712595D01*
X106593222Y-51844406D01*
X106514597Y-51969839D01*
X106424251Y-52088818D01*
X106322233Y-52201269D01*
X106208592Y-52307117D01*
X106083378Y-52406287D01*
X106008273Y-52458843D01*
X105873851Y-52541049D01*
X105733918Y-52611273D01*
X105588103Y-52669657D01*
X105436038Y-52716340D01*
X105277352Y-52751462D01*
X105203188Y-52763605D01*
X105174548Y-52766800D01*
X105135460Y-52769746D01*
X105088901Y-52772350D01*
X105037847Y-52774515D01*
X104985274Y-52776147D01*
X104934158Y-52777151D01*
X104887477Y-52777430D01*
X104848205Y-52776889D01*
X104823521Y-52775761D01*
X104694823Y-52761245D01*
X104562402Y-52736103D01*
X104429193Y-52701252D01*
X104298132Y-52657605D01*
X104172157Y-52606079D01*
X104054202Y-52547590D01*
X104008554Y-52521639D01*
X103902089Y-52454119D01*
X103804618Y-52382483D01*
X103711929Y-52303452D01*
X103642126Y-52236461D01*
X103561992Y-52152312D01*
X103491176Y-52069588D01*
X103427687Y-51985428D01*
X103369533Y-51896972D01*
X103314721Y-51801359D01*
X103261262Y-51695727D01*
X103251743Y-51675670D01*
X103207492Y-51570353D01*
X103168926Y-51455298D01*
X103136882Y-51333284D01*
X103114014Y-51218063D01*
X103109606Y-51182953D01*
X103106091Y-51136908D01*
X103103471Y-51082388D01*
X103101747Y-51021853D01*
X103101451Y-50998923D01*
X103415184Y-50998923D01*
X103425679Y-51128540D01*
X103446724Y-51252468D01*
X103448284Y-51259497D01*
X103471414Y-51346013D01*
X103502531Y-51437662D01*
X103539933Y-51530283D01*
X103581915Y-51619720D01*
X103626773Y-51701814D01*
X103635300Y-51715945D01*
X103689297Y-51796376D01*
X103752992Y-51878276D01*
X103823571Y-51958244D01*
X103893843Y-52028764D01*
X103991189Y-52111907D01*
X104098434Y-52187749D01*
X104213681Y-52255396D01*
X104335030Y-52313953D01*
X104460584Y-52362526D01*
X104588445Y-52400221D01*
X104716714Y-52426143D01*
X104746328Y-52430380D01*
X104774659Y-52434124D01*
X104800293Y-52437540D01*
X104818317Y-52439971D01*
X104820165Y-52440225D01*
X104832622Y-52440954D01*
X104856256Y-52441444D01*
X104888822Y-52441684D01*
X104928073Y-52441662D01*
X104971764Y-52441365D01*
X104991333Y-52441150D01*
X105044609Y-52440303D01*
X105087461Y-52439061D01*
X105122888Y-52437184D01*
X105153890Y-52434432D01*
X105183466Y-52430566D01*
X105214615Y-52425346D01*
X105233530Y-52421807D01*
X105380011Y-52387877D01*
X105517920Y-52343820D01*
X105647820Y-52289344D01*
X105770276Y-52224158D01*
X105885854Y-52147968D01*
X105995119Y-52060483D01*
X106072503Y-51988040D01*
X106167380Y-51884669D01*
X106251580Y-51774209D01*
X106325989Y-51655401D01*
X106380910Y-51549626D01*
X106407346Y-51489211D01*
X106431087Y-51424200D01*
X106452718Y-51352586D01*
X106472823Y-51272361D01*
X106491986Y-51181518D01*
X106499469Y-51142028D01*
X106504823Y-51102786D01*
X106508699Y-51053254D01*
X106511099Y-50996486D01*
X106512024Y-50935536D01*
X106511475Y-50873458D01*
X106509454Y-50813306D01*
X106505962Y-50758132D01*
X106501002Y-50710992D01*
X106499248Y-50699005D01*
X106470293Y-50558685D01*
X106428719Y-50422531D01*
X106374881Y-50291261D01*
X106309137Y-50165597D01*
X106231842Y-50046260D01*
X106143353Y-49933969D01*
X106094191Y-49879818D01*
X105997085Y-49786976D01*
X105890412Y-49701918D01*
X105775906Y-49625626D01*
X105655299Y-49559078D01*
X105530326Y-49503257D01*
X105402719Y-49459142D01*
X105306819Y-49434436D01*
X105222757Y-49417743D01*
X105145229Y-49406415D01*
X105069023Y-49399968D01*
X104988931Y-49397920D01*
X104924208Y-49398948D01*
X104793405Y-49407202D01*
X104670631Y-49424264D01*
X104553266Y-49450770D01*
X104438689Y-49487353D01*
X104324281Y-49534647D01*
X104283167Y-49554155D01*
X104161791Y-49619566D01*
X104049853Y-49692664D01*
X103944678Y-49775348D01*
X103854681Y-49858450D01*
X103766789Y-49953934D01*
X103686748Y-50058106D01*
X103615539Y-50169182D01*
X103554143Y-50285375D01*
X103503540Y-50404901D01*
X103464709Y-50525976D01*
X103447049Y-50600680D01*
X103425864Y-50732519D01*
X103415244Y-50866091D01*
X103415184Y-50998923D01*
X103101451Y-50998923D01*
X103100920Y-50957763D01*
X103100989Y-50892578D01*
X103101957Y-50828759D01*
X103103825Y-50768765D01*
X103106592Y-50715056D01*
X103110260Y-50670093D01*
X103113806Y-50642312D01*
X103136739Y-50519368D01*
X103164886Y-50405909D01*
X103199261Y-50298668D01*
X103240875Y-50194380D01*
X103276169Y-50118717D01*
X103348278Y-49985495D01*
X103428164Y-49862594D01*
X103516680Y-49748838D01*
X103614677Y-49643049D01*
X103633132Y-49625009D01*
X103734309Y-49533106D01*
X103836190Y-49452214D01*
X103941948Y-49380149D01*
X104054760Y-49314727D01*
X104162342Y-49260938D01*
X104306330Y-49200788D01*
X104453988Y-49153489D01*
X104605610Y-49118965D01*
X104761491Y-49097139D01*
X104804128Y-49093429D01*
X104912737Y-49089378D01*
X105027557Y-49092800D01*
X105145234Y-49103249D01*
X105262410Y-49120279D01*
X105375730Y-49143444D01*
X105481839Y-49172298D01*
X105537332Y-49190945D01*
X105582291Y-49207264D01*
X105630820Y-49187516D01*
X105654165Y-49177972D01*
X105686426Y-49164722D01*
X105724116Y-49149203D01*
X105763749Y-49132849D01*
X105783866Y-49124533D01*
X105818775Y-49110220D01*
X105849389Y-49097907D01*
X105873549Y-49088445D01*
X105889094Y-49082682D01*
X105893794Y-49081299D01*
X105900733Y-49085412D01*
X105916536Y-49096981D01*
X105939770Y-49114850D01*
X105969000Y-49137862D01*
X106002792Y-49164861D01*
X106039712Y-49194691D01*
X106078326Y-49226195D01*
X106117199Y-49258219D01*
X106154897Y-49289605D01*
X106189987Y-49319197D01*
X106208220Y-49334776D01*
X106239753Y-49361767D01*
X106263256Y-49381300D01*
X106280866Y-49394684D01*
X106294717Y-49403231D01*
X106306947Y-49408250D01*
X106319691Y-49411053D01*
X106335085Y-49412949D01*
X106335757Y-49413021D01*
X106356525Y-49415519D01*
X106387331Y-49419561D01*
X106424938Y-49424706D01*
X106466107Y-49430514D01*
X106494927Y-49434682D01*
X106556879Y-49442885D01*
X106607772Y-49447549D01*
X106649510Y-49448628D01*
X106683995Y-49446075D01*
X106713132Y-49439846D01*
X106738823Y-49429895D01*
X106741131Y-49428765D01*
X106772211Y-49408265D01*
X106792878Y-49382414D01*
X106803268Y-49350414D01*
X106803522Y-49311464D01*
X106793776Y-49264763D01*
X106777559Y-49217935D01*
X106756131Y-49151737D01*
X106746477Y-49090026D01*
X106748619Y-49030800D01*
X106762577Y-48972060D01*
X106780583Y-48927607D01*
X106791142Y-48904621D01*
X106798745Y-48886956D01*
X106802155Y-48877531D01*
X106802159Y-48876732D01*
X106795848Y-48873217D01*
X106780462Y-48864830D01*
X106758746Y-48853064D01*
X106746645Y-48846528D01*
X106716451Y-48830061D01*
X106679704Y-48809736D01*
X106637679Y-48786283D01*
X106591651Y-48760429D01*
X106542893Y-48732905D01*
X106492682Y-48704438D01*
X106442292Y-48675757D01*
X106392999Y-48647593D01*
X106346076Y-48620673D01*
X106302799Y-48595726D01*
X106264444Y-48573482D01*
X106232283Y-48554668D01*
X106207594Y-48540015D01*
X106191650Y-48530251D01*
X106185727Y-48526104D01*
X106186153Y-48526082D01*
X106195339Y-48528390D01*
X106215652Y-48533205D01*
X106245130Y-48540072D01*
X106281805Y-48548533D01*
X106323713Y-48558132D01*
X106350609Y-48564262D01*
X106401950Y-48575951D01*
X106455970Y-48588272D01*
X106508936Y-48600371D01*
X106557115Y-48611396D01*
X106596774Y-48620492D01*
X106604130Y-48622183D01*
X106639068Y-48630131D01*
X106669449Y-48636873D01*
X106692836Y-48641881D01*
X106706789Y-48644628D01*
X106709451Y-48644988D01*
X106710687Y-48638995D01*
X106706678Y-48621535D01*
X106697682Y-48593386D01*
X106683957Y-48555326D01*
X106665761Y-48508135D01*
X106656087Y-48483889D01*
X106644332Y-48454664D01*
X106634208Y-48429431D01*
X106626905Y-48411161D01*
X106623810Y-48403339D01*
X106625639Y-48401747D01*
X106634512Y-48408444D01*
X106643262Y-48416764D01*
X106656181Y-48429610D01*
X106676436Y-48449565D01*
X106701734Y-48474381D01*
X106729786Y-48501808D01*
X106745224Y-48516865D01*
X106774592Y-48545223D01*
X106795802Y-48564942D01*
X106810093Y-48576973D01*
X106818702Y-48582266D01*
X106822867Y-48581774D01*
X106823838Y-48577268D01*
X106822924Y-48566704D01*
X106820395Y-48545209D01*
X106816576Y-48515134D01*
X106811789Y-48478833D01*
X106806355Y-48438659D01*
X106800599Y-48396964D01*
X106794843Y-48356100D01*
X106789410Y-48318421D01*
X106784621Y-48286280D01*
X106780801Y-48262028D01*
X106779730Y-48255709D01*
X106780041Y-48250873D01*
X106784119Y-48252504D01*
X106792579Y-48261377D01*
X106806038Y-48278267D01*
X106825112Y-48303949D01*
X106850417Y-48339198D01*
X106882571Y-48384789D01*
X106883842Y-48386602D01*
X106912159Y-48426611D01*
X106938259Y-48462764D01*
X106961089Y-48493663D01*
X106979599Y-48517907D01*
X106992736Y-48534098D01*
X106999450Y-48540836D01*
X106999819Y-48540945D01*
X107006680Y-48535759D01*
X107019066Y-48521758D01*
X107035027Y-48501274D01*
X107047586Y-48483889D01*
X107063238Y-48461638D01*
X107084940Y-48430890D01*
X107110962Y-48394091D01*
X107139575Y-48353686D01*
X107169049Y-48312118D01*
X107182915Y-48292583D01*
X107211826Y-48251856D01*
X107240371Y-48211621D01*
X107266908Y-48174198D01*
X107289793Y-48141902D01*
X107307384Y-48117051D01*
X107313787Y-48107990D01*
X107328720Y-48087357D01*
X107339816Y-48073026D01*
X107345610Y-48066833D01*
X107345956Y-48067716D01*
G37*
%TO.C,R5*%
D12*
X68817258Y-59802500D02*
X68342742Y-59802500D01*
X68817258Y-60847500D02*
X68342742Y-60847500D01*
%TO.C,C14*%
X85840000Y-29240000D02*
X88890000Y-29240000D01*
X85840000Y-36695563D02*
X85840000Y-29240000D01*
X86904437Y-37760000D02*
X85840000Y-36695563D01*
X86904437Y-37760000D02*
X88890000Y-37760000D01*
X91600000Y-38500000D02*
X92600000Y-38500000D01*
X92100000Y-39000000D02*
X92100000Y-38000000D01*
X93295563Y-37760000D02*
X91310000Y-37760000D01*
X93295563Y-37760000D02*
X94360000Y-36695563D01*
X94360000Y-29240000D02*
X91310000Y-29240000D01*
X94360000Y-36695563D02*
X94360000Y-29240000D01*
%TO.C,R9*%
X68817258Y-47102500D02*
X68342742Y-47102500D01*
X68817258Y-48147500D02*
X68342742Y-48147500D01*
%TO.C,R16*%
X75327500Y-32954758D02*
X75327500Y-32480242D01*
X76372500Y-32954758D02*
X76372500Y-32480242D01*
%TO.C,J3*%
X57115000Y-27857500D02*
X59215000Y-27857500D01*
X57115000Y-37977500D02*
X57115000Y-27857500D01*
X57115000Y-37977500D02*
X59215000Y-37977500D01*
X59215000Y-27857500D02*
X59215000Y-27267500D01*
X59215000Y-38567500D02*
X59215000Y-37977500D01*
X61435000Y-27857500D02*
X61435000Y-27267500D01*
X61435000Y-27857500D02*
X66335000Y-27857500D01*
X61435000Y-37977500D02*
X66335000Y-37977500D01*
X61435000Y-38567500D02*
X61435000Y-37977500D01*
X66335000Y-37977500D02*
X66335000Y-27857500D01*
X59215000Y-27267500D02*
G75*
G02*
X61435000Y-27267500I1110000J0D01*
G01*
X61435000Y-38567500D02*
G75*
G02*
X59215000Y-38567500I-1110000J0D01*
G01*
%TO.C,C15*%
X86059420Y-58790000D02*
X86340580Y-58790000D01*
X86059420Y-59810000D02*
X86340580Y-59810000D01*
%TO.C,C16*%
X86059420Y-57290000D02*
X86340580Y-57290000D01*
X86059420Y-58310000D02*
X86340580Y-58310000D01*
%TO.C,C25*%
X90138748Y-57265000D02*
X90661252Y-57265000D01*
X90138748Y-58735000D02*
X90661252Y-58735000D01*
%TO.C,C12*%
X86640000Y-41040580D02*
X86640000Y-40759420D01*
X87660000Y-41040580D02*
X87660000Y-40759420D01*
%TO.C,C28*%
X107338748Y-59765000D02*
X107861252Y-59765000D01*
X107338748Y-61235000D02*
X107861252Y-61235000D01*
%TO.C,R4*%
X68817258Y-52182500D02*
X68342742Y-52182500D01*
X68817258Y-53227500D02*
X68342742Y-53227500D01*
%TO.C,C10*%
X85140000Y-40759420D02*
X85140000Y-41040580D01*
X86160000Y-40759420D02*
X86160000Y-41040580D01*
%TO.C,R12*%
X68817258Y-49642500D02*
X68342742Y-49642500D01*
X68817258Y-50687500D02*
X68342742Y-50687500D01*
%TO.C,C21*%
X85840000Y-64304437D02*
X85840000Y-71760000D01*
X85840000Y-71760000D02*
X88890000Y-71760000D01*
X86904437Y-63240000D02*
X85840000Y-64304437D01*
X86904437Y-63240000D02*
X88890000Y-63240000D01*
X92310000Y-62000000D02*
X92310000Y-63000000D01*
X92810000Y-62500000D02*
X91810000Y-62500000D01*
X93295563Y-63240000D02*
X91310000Y-63240000D01*
X93295563Y-63240000D02*
X94360000Y-64304437D01*
X94360000Y-64304437D02*
X94360000Y-71760000D01*
X94360000Y-71760000D02*
X91310000Y-71760000D01*
%TO.C,J2*%
X57095000Y-42265000D02*
X66095000Y-42265000D01*
X57095000Y-54015000D02*
X57595000Y-54015000D01*
X57095000Y-56515000D02*
X57095000Y-42265000D01*
X57095000Y-70765000D02*
X57095000Y-56515000D01*
X57595000Y-54015000D02*
X57595000Y-59015000D01*
X57595000Y-59015000D02*
X57095000Y-59015000D01*
X58995000Y-46295000D02*
X60325000Y-46295000D01*
X58995000Y-47625000D02*
X58995000Y-46295000D01*
X58995000Y-48895000D02*
X58995000Y-66735000D01*
X58995000Y-48895000D02*
X61595000Y-48895000D01*
X58995000Y-66735000D02*
X64195000Y-66735000D01*
X61595000Y-46295000D02*
X64195000Y-46295000D01*
X61595000Y-48895000D02*
X61595000Y-46295000D01*
X64195000Y-46295000D02*
X64195000Y-66735000D01*
X66095000Y-42265000D02*
X66095000Y-70765000D01*
X66095000Y-70765000D02*
X57095000Y-70765000D01*
%TO.C,C26*%
X107338748Y-35765000D02*
X107861252Y-35765000D01*
X107338748Y-37235000D02*
X107861252Y-37235000D01*
%TO.C,L1*%
X96990000Y-29390000D02*
X105210000Y-29390000D01*
X96990000Y-29490000D02*
X96990000Y-29390000D01*
X96990000Y-37610000D02*
X96990000Y-37510000D01*
X105210000Y-29390000D02*
X105210000Y-29490000D01*
X105210000Y-37510000D02*
X105210000Y-37610000D01*
X105210000Y-37610000D02*
X96990000Y-37610000D01*
%TO.C,C7*%
X79700000Y-46540580D02*
X79700000Y-46259420D01*
X80720000Y-46540580D02*
X80720000Y-46259420D01*
%TO.C,R8*%
X68817258Y-54722500D02*
X68342742Y-54722500D01*
X68817258Y-55767500D02*
X68342742Y-55767500D01*
%TO.C,R14*%
X86162742Y-38127500D02*
X86637258Y-38127500D01*
X86162742Y-39172500D02*
X86637258Y-39172500D01*
%TO.C,C11*%
X82140000Y-39540580D02*
X82140000Y-39259420D01*
X83160000Y-39540580D02*
X83160000Y-39259420D01*
%TO.C,R13*%
X83627500Y-39637258D02*
X83627500Y-39162742D01*
X84672500Y-39637258D02*
X84672500Y-39162742D01*
%TO.C,L2*%
X96990000Y-39390000D02*
X105210000Y-39390000D01*
X96990000Y-39490000D02*
X96990000Y-39390000D01*
X96990000Y-47610000D02*
X96990000Y-47510000D01*
X105210000Y-39390000D02*
X105210000Y-39490000D01*
X105210000Y-47510000D02*
X105210000Y-47610000D01*
X105210000Y-47610000D02*
X96990000Y-47610000D01*
%TO.C,R11*%
X77027500Y-35580242D02*
X77027500Y-36054758D01*
X78072500Y-35580242D02*
X78072500Y-36054758D01*
%TO.C,C24*%
X95090000Y-54859420D02*
X95090000Y-55140580D01*
X96110000Y-54859420D02*
X96110000Y-55140580D01*
%TO.C,C19*%
X88440580Y-44490000D02*
X88159420Y-44490000D01*
X88440580Y-45510000D02*
X88159420Y-45510000D01*
%TO.C,C5*%
X79140000Y-41015580D02*
X79140000Y-40734420D01*
X80160000Y-41015580D02*
X80160000Y-40734420D01*
%TO.C,C8*%
X80640000Y-41015580D02*
X80640000Y-40734420D01*
X81660000Y-41015580D02*
X81660000Y-40734420D01*
%TO.C,Q2*%
X73390000Y-35557500D02*
X73440000Y-35557500D01*
X73390000Y-37077500D02*
X73390000Y-35557500D01*
X74390000Y-37077500D02*
X73390000Y-37077500D01*
X74560000Y-35557500D02*
X75340000Y-35557500D01*
X76460000Y-35557500D02*
X76510000Y-35557500D01*
X76510000Y-35557500D02*
X76510000Y-37077500D01*
X76510000Y-37077500D02*
X75510000Y-37077500D01*
X75330000Y-35017500D02*
X75000000Y-35257500D01*
X75000000Y-34777500D01*
X75330000Y-35017500D01*
G36*
X75330000Y-35017500D02*
G01*
X75000000Y-35257500D01*
X75000000Y-34777500D01*
X75330000Y-35017500D01*
G37*
%TO.C,C20*%
X91359420Y-55490000D02*
X91640580Y-55490000D01*
X91359420Y-56510000D02*
X91640580Y-56510000D01*
%TO.C,R17*%
X79687258Y-43627500D02*
X79212742Y-43627500D01*
X79687258Y-44672500D02*
X79212742Y-44672500D01*
%TO.C,C13*%
X86059420Y-55790000D02*
X86340580Y-55790000D01*
X86059420Y-56810000D02*
X86340580Y-56810000D01*
%TO.C,C9*%
X83540580Y-41140000D02*
X83259420Y-41140000D01*
X83540580Y-42160000D02*
X83259420Y-42160000D01*
%TO.C,U2*%
X81740000Y-47340000D02*
X81940000Y-47340000D01*
X81740000Y-53660000D02*
X81740000Y-47340000D01*
X81940000Y-53660000D02*
X81740000Y-53660000D01*
X94260000Y-47340000D02*
X94460000Y-47340000D01*
X94460000Y-47340000D02*
X94460000Y-53660000D01*
X94460000Y-53660000D02*
X94260000Y-53660000D01*
X94260000Y-46700000D02*
X94730000Y-46360000D01*
X94730000Y-47040000D01*
X94260000Y-46700000D01*
G36*
X94730000Y-47040000D02*
G01*
X94260000Y-46700000D01*
X94730000Y-46360000D01*
X94730000Y-47040000D01*
G37*
%TD*%
M02*
