%TF.GenerationSoftware,KiCad,Pcbnew,10.0.3*%
%TF.CreationDate,2026-06-27T21:19:45+01:00*%
%TF.ProjectId,Audio,41756469-6f2e-46b6-9963-61645f706362,rev?*%
%TF.SameCoordinates,Original*%
%TF.FileFunction,Paste,Top*%
%TF.FilePolarity,Positive*%
%FSLAX46Y46*%
G04 Gerber Fmt 4.6, Leading zero omitted, Abs format (unit mm)*
G04 Created by KiCad (PCBNEW 10.0.3) date 2026-06-27 21:19:45*
%MOMM*%
%LPD*%
G01*
G04 APERTURE LIST*
G04 Aperture macros list*
%AMRoundRect*
0 Rectangle with rounded corners*
0 $1 Rounding radius*
0 $2 $3 $4 $5 $6 $7 $8 $9 X,Y pos of 4 corners*
0 Add a 4 corners polygon primitive as box body*
4,1,4,$2,$3,$4,$5,$6,$7,$8,$9,$2,$3,0*
0 Add four circle primitives for the rounded corners*
1,1,$1+$1,$2,$3*
1,1,$1+$1,$4,$5*
1,1,$1+$1,$6,$7*
1,1,$1+$1,$8,$9*
0 Add four rect primitives between the rounded corners*
20,1,$1+$1,$2,$3,$4,$5,0*
20,1,$1+$1,$4,$5,$6,$7,0*
20,1,$1+$1,$6,$7,$8,$9,0*
20,1,$1+$1,$8,$9,$2,$3,0*%
G04 Aperture macros list end*
%ADD10RoundRect,0.250000X-2.500000X0.250000X-2.500000X-0.250000X2.500000X-0.250000X2.500000X0.250000X0*%
%ADD11RoundRect,0.250000X-1.250000X0.550000X-1.250000X-0.550000X1.250000X-0.550000X1.250000X0.550000X0*%
%ADD12RoundRect,0.200000X-0.275000X0.200000X-0.275000X-0.200000X0.275000X-0.200000X0.275000X0.200000X0*%
%ADD13RoundRect,0.200000X0.200000X0.275000X-0.200000X0.275000X-0.200000X-0.275000X0.200000X-0.275000X0*%
%ADD14RoundRect,0.225000X0.250000X-0.225000X0.250000X0.225000X-0.250000X0.225000X-0.250000X-0.225000X0*%
%ADD15RoundRect,0.250000X-0.250000X-0.475000X0.250000X-0.475000X0.250000X0.475000X-0.250000X0.475000X0*%
%ADD16RoundRect,0.249999X0.850001X3.500001X-0.850001X3.500001X-0.850001X-3.500001X0.850001X-3.500001X0*%
%ADD17RoundRect,0.225000X-0.225000X-0.250000X0.225000X-0.250000X0.225000X0.250000X-0.225000X0.250000X0*%
%ADD18RoundRect,0.150000X0.150000X-0.512500X0.150000X0.512500X-0.150000X0.512500X-0.150000X-0.512500X0*%
%ADD19RoundRect,0.250000X0.700000X-1.825000X0.700000X1.825000X-0.700000X1.825000X-0.700000X-1.825000X0*%
%ADD20RoundRect,0.200000X0.275000X-0.200000X0.275000X0.200000X-0.275000X0.200000X-0.275000X-0.200000X0*%
%ADD21RoundRect,0.225000X-0.250000X0.225000X-0.250000X-0.225000X0.250000X-0.225000X0.250000X0.225000X0*%
%ADD22RoundRect,0.250000X-0.700000X1.825000X-0.700000X-1.825000X0.700000X-1.825000X0.700000X1.825000X0*%
%ADD23RoundRect,0.200000X-0.200000X-0.275000X0.200000X-0.275000X0.200000X0.275000X-0.200000X0.275000X0*%
%ADD24RoundRect,0.225000X0.225000X0.250000X-0.225000X0.250000X-0.225000X-0.250000X0.225000X-0.250000X0*%
%ADD25RoundRect,0.150000X-0.150000X0.587500X-0.150000X-0.587500X0.150000X-0.587500X0.150000X0.587500X0*%
%ADD26RoundRect,0.075000X-0.075000X0.662500X-0.075000X-0.662500X0.075000X-0.662500X0.075000X0.662500X0*%
%ADD27R,6.400000X3.600000*%
G04 APERTURE END LIST*
D10*
%TO.C,J4*%
X113100000Y-37500000D03*
X113100000Y-39500000D03*
D11*
X115350000Y-35100000D03*
X115350000Y-41900000D03*
%TD*%
D12*
%TO.C,R10*%
X79350000Y-34992500D03*
X79350000Y-36642500D03*
%TD*%
D13*
%TO.C,R3*%
X69405000Y-65405000D03*
X67755000Y-65405000D03*
%TD*%
D14*
%TO.C,C6*%
X78700000Y-47175000D03*
X78700000Y-45625000D03*
%TD*%
D15*
%TO.C,C27*%
X106650000Y-40500000D03*
X108550000Y-40500000D03*
%TD*%
D14*
%TO.C,C23*%
X95600000Y-46775000D03*
X95600000Y-45225000D03*
%TD*%
D15*
%TO.C,C29*%
X106650000Y-64500000D03*
X108550000Y-64500000D03*
%TD*%
%TO.C,C22*%
X89450000Y-43200000D03*
X91350000Y-43200000D03*
%TD*%
D16*
%TO.C,L3*%
X104100000Y-57500000D03*
X98100000Y-57500000D03*
%TD*%
%TO.C,L4*%
X104100000Y-67500000D03*
X98100000Y-67500000D03*
%TD*%
D17*
%TO.C,C17*%
X85425000Y-60800000D03*
X86975000Y-60800000D03*
%TD*%
%TO.C,C18*%
X90725000Y-45000000D03*
X92275000Y-45000000D03*
%TD*%
D12*
%TO.C,R15*%
X74050000Y-31892500D03*
X74050000Y-33542500D03*
%TD*%
D10*
%TO.C,J5*%
X113100000Y-61600000D03*
X113100000Y-63600000D03*
D11*
X115350000Y-59200000D03*
X115350000Y-66000000D03*
%TD*%
D18*
%TO.C,Q1*%
X77500000Y-33255000D03*
X79400000Y-33255000D03*
X78450000Y-30980000D03*
%TD*%
D13*
%TO.C,R5*%
X69405000Y-60325000D03*
X67755000Y-60325000D03*
%TD*%
D19*
%TO.C,C14*%
X90100000Y-36975000D03*
X90100000Y-30025000D03*
%TD*%
D13*
%TO.C,R9*%
X69405000Y-47625000D03*
X67755000Y-47625000D03*
%TD*%
D20*
%TO.C,R16*%
X75850000Y-33542500D03*
X75850000Y-31892500D03*
%TD*%
D17*
%TO.C,C15*%
X85425000Y-59300000D03*
X86975000Y-59300000D03*
%TD*%
%TO.C,C16*%
X85425000Y-57800000D03*
X86975000Y-57800000D03*
%TD*%
D15*
%TO.C,C25*%
X89450000Y-58000000D03*
X91350000Y-58000000D03*
%TD*%
D14*
%TO.C,C12*%
X87150000Y-41675000D03*
X87150000Y-40125000D03*
%TD*%
D15*
%TO.C,C28*%
X106650000Y-60500000D03*
X108550000Y-60500000D03*
%TD*%
D13*
%TO.C,R4*%
X69405000Y-52705000D03*
X67755000Y-52705000D03*
%TD*%
D21*
%TO.C,C10*%
X85650000Y-40125000D03*
X85650000Y-41675000D03*
%TD*%
D13*
%TO.C,R12*%
X69405000Y-50165000D03*
X67755000Y-50165000D03*
%TD*%
D22*
%TO.C,C21*%
X90100000Y-64025000D03*
X90100000Y-70975000D03*
%TD*%
D15*
%TO.C,C26*%
X106650000Y-36500000D03*
X108550000Y-36500000D03*
%TD*%
D16*
%TO.C,L1*%
X104100000Y-33500000D03*
X98100000Y-33500000D03*
%TD*%
D14*
%TO.C,C7*%
X80210000Y-47175000D03*
X80210000Y-45625000D03*
%TD*%
D13*
%TO.C,R8*%
X69405000Y-55245000D03*
X67755000Y-55245000D03*
%TD*%
D23*
%TO.C,R14*%
X85575000Y-38650000D03*
X87225000Y-38650000D03*
%TD*%
D14*
%TO.C,C11*%
X82650000Y-40175000D03*
X82650000Y-38625000D03*
%TD*%
D20*
%TO.C,R13*%
X84150000Y-40225000D03*
X84150000Y-38575000D03*
%TD*%
D16*
%TO.C,L2*%
X104100000Y-43500000D03*
X98100000Y-43500000D03*
%TD*%
D12*
%TO.C,R11*%
X77550000Y-34992500D03*
X77550000Y-36642500D03*
%TD*%
D21*
%TO.C,C24*%
X95600000Y-54225000D03*
X95600000Y-55775000D03*
%TD*%
D24*
%TO.C,C19*%
X89075000Y-45000000D03*
X87525000Y-45000000D03*
%TD*%
D14*
%TO.C,C5*%
X79650000Y-41650000D03*
X79650000Y-40100000D03*
%TD*%
%TO.C,C8*%
X81150000Y-41650000D03*
X81150000Y-40100000D03*
%TD*%
D25*
%TO.C,Q2*%
X75900000Y-35380000D03*
X74000000Y-35380000D03*
X74950000Y-37255000D03*
%TD*%
D17*
%TO.C,C20*%
X90725000Y-56000000D03*
X92275000Y-56000000D03*
%TD*%
D13*
%TO.C,R17*%
X80275000Y-44150000D03*
X78625000Y-44150000D03*
%TD*%
D17*
%TO.C,C13*%
X85425000Y-56300000D03*
X86975000Y-56300000D03*
%TD*%
D24*
%TO.C,C9*%
X84175000Y-41650000D03*
X82625000Y-41650000D03*
%TD*%
D26*
%TO.C,U2*%
X93850000Y-46787500D03*
X93350000Y-46787500D03*
X92850000Y-46787500D03*
X92350000Y-46787500D03*
X91850000Y-46787500D03*
X91350000Y-46787500D03*
X90850000Y-46787500D03*
X90350000Y-46787500D03*
X89850000Y-46787500D03*
X89350000Y-46787500D03*
X88850000Y-46787500D03*
X88350000Y-46787500D03*
X87850000Y-46787500D03*
X87350000Y-46787500D03*
X86850000Y-46787500D03*
X86350000Y-46787500D03*
X85850000Y-46787500D03*
X85350000Y-46787500D03*
X84850000Y-46787500D03*
X84350000Y-46787500D03*
X83850000Y-46787500D03*
X83350000Y-46787500D03*
X82850000Y-46787500D03*
X82350000Y-46787500D03*
X82350000Y-54212500D03*
X82850000Y-54212500D03*
X83350000Y-54212500D03*
X83850000Y-54212500D03*
X84350000Y-54212500D03*
X84850000Y-54212500D03*
X85350000Y-54212500D03*
X85850000Y-54212500D03*
X86350000Y-54212500D03*
X86850000Y-54212500D03*
X87350000Y-54212500D03*
X87850000Y-54212500D03*
X88350000Y-54212500D03*
X88850000Y-54212500D03*
X89350000Y-54212500D03*
X89850000Y-54212500D03*
X90350000Y-54212500D03*
X90850000Y-54212500D03*
X91350000Y-54212500D03*
X91850000Y-54212500D03*
X92350000Y-54212500D03*
X92850000Y-54212500D03*
X93350000Y-54212500D03*
X93850000Y-54212500D03*
D27*
X88100000Y-50500000D03*
%TD*%
M02*
