%TF.GenerationSoftware,KiCad,Pcbnew,10.0.0*%
%TF.CreationDate,2026-03-29T14:24:51+01:00*%
%TF.ProjectId,Backplane,4261636b-706c-4616-9e65-2e6b69636164,rev?*%
%TF.SameCoordinates,Original*%
%TF.FileFunction,Copper,L4,Bot*%
%TF.FilePolarity,Positive*%
%FSLAX46Y46*%
G04 Gerber Fmt 4.6, Leading zero omitted, Abs format (unit mm)*
G04 Created by KiCad (PCBNEW 10.0.0) date 2026-03-29 14:24:51*
%MOMM*%
%LPD*%
G01*
G04 APERTURE LIST*
G04 Aperture macros list*
%AMRoundRect*
0 Rectangle with rounded corners*
0 $1 Rounding radius*
0 $2 $3 $4 $5 $6 $7 $8 $9 X,Y pos of 4 corners*
0 Add a 4 corners polygon primitive as box body*
4,1,4,$2,$3,$4,$5,$6,$7,$8,$9,$2,$3,0*
0 Add four circle primitives for the rounded corners*
1,1,$1+$1,$2,$3*
1,1,$1+$1,$4,$5*
1,1,$1+$1,$6,$7*
1,1,$1+$1,$8,$9*
0 Add four rect primitives between the rounded corners*
20,1,$1+$1,$2,$3,$4,$5,0*
20,1,$1+$1,$4,$5,$6,$7,0*
20,1,$1+$1,$6,$7,$8,$9,0*
20,1,$1+$1,$8,$9,$2,$3,0*%
G04 Aperture macros list end*
%TA.AperFunction,ComponentPad*%
%ADD10R,1.700000X1.700000*%
%TD*%
%TA.AperFunction,ComponentPad*%
%ADD11O,1.700000X1.700000*%
%TD*%
%TA.AperFunction,ComponentPad*%
%ADD12C,1.400000*%
%TD*%
%TA.AperFunction,ComponentPad*%
%ADD13RoundRect,0.770000X0.980000X-0.980000X0.980000X0.980000X-0.980000X0.980000X-0.980000X-0.980000X0*%
%TD*%
%TA.AperFunction,ComponentPad*%
%ADD14C,3.500000*%
%TD*%
%TA.AperFunction,ComponentPad*%
%ADD15RoundRect,0.770000X-0.980000X0.980000X-0.980000X-0.980000X0.980000X-0.980000X0.980000X0.980000X0*%
%TD*%
%TA.AperFunction,ViaPad*%
%ADD16C,0.600000*%
%TD*%
%TA.AperFunction,Conductor*%
%ADD17C,0.300000*%
%TD*%
%TA.AperFunction,Conductor*%
%ADD18C,0.400000*%
%TD*%
G04 APERTURE END LIST*
D10*
%TO.P,J4,1,Pin_1*%
%TO.N,GND*%
X26670000Y-58080000D03*
D11*
%TO.P,J4,2,Pin_2*%
X24130000Y-58080000D03*
%TO.P,J4,3,Pin_3*%
%TO.N,B*%
X26670000Y-55540000D03*
%TO.P,J4,4,Pin_4*%
%TO.N,A*%
X24130000Y-55540000D03*
%TO.P,J4,5,Pin_5*%
%TO.N,GND*%
X26670000Y-53000000D03*
%TO.P,J4,6,Pin_6*%
X24130000Y-53000000D03*
%TO.P,J4,7,Pin_7*%
%TO.N,CANL*%
X26670000Y-50460000D03*
%TO.P,J4,8,Pin_8*%
%TO.N,CANH*%
X24130000Y-50460000D03*
%TO.P,J4,9,Pin_9*%
%TO.N,GND*%
X26670000Y-47920000D03*
%TO.P,J4,10,Pin_10*%
X24130000Y-47920000D03*
%TD*%
D10*
%TO.P,J2,1,Pin_1*%
%TO.N,FRONT-VDD*%
X26670000Y-106458000D03*
D11*
%TO.P,J2,2,Pin_2*%
%TO.N,GND*%
X24130000Y-106458000D03*
%TO.P,J2,3,Pin_3*%
%TO.N,FRONT-VDD*%
X26670000Y-103918000D03*
%TO.P,J2,4,Pin_4*%
%TO.N,GND*%
X24130000Y-103918000D03*
%TO.P,J2,5,Pin_5*%
%TO.N,FRONT-BOOT*%
X26670000Y-101378000D03*
%TO.P,J2,6,Pin_6*%
%TO.N,FRONT-UART-RX*%
X24130000Y-101378000D03*
%TO.P,J2,7,Pin_7*%
%TO.N,FRONT-UART-TX*%
X26670000Y-98838000D03*
%TO.P,J2,8,Pin_8*%
%TO.N,GND*%
X24130000Y-98838000D03*
%TO.P,J2,9,Pin_9*%
%TO.N,CANL*%
X26670000Y-96298000D03*
%TO.P,J2,10,Pin_10*%
%TO.N,CANH*%
X24130000Y-96298000D03*
%TO.P,J2,11,Pin_11*%
%TO.N,FRONT-MODULE-DETECT*%
X26670000Y-93758000D03*
%TO.P,J2,12,Pin_12*%
%TO.N,unconnected-(J2-Pin_12-Pad12)*%
X24130000Y-93758000D03*
%TO.P,J2,13,Pin_13*%
%TO.N,unconnected-(J2-Pin_13-Pad13)*%
X26670000Y-91218000D03*
%TO.P,J2,14,Pin_14*%
%TO.N,unconnected-(J2-Pin_14-Pad14)*%
X24130000Y-91218000D03*
%TO.P,J2,15,Pin_15*%
%TO.N,unconnected-(J2-Pin_15-Pad15)*%
X26670000Y-88678000D03*
%TO.P,J2,16,Pin_16*%
%TO.N,GND*%
X24130000Y-88678000D03*
%TD*%
D12*
%TO.P,J6,*%
%TO.N,*%
X23675000Y-40500000D03*
X23675000Y-29500000D03*
D13*
%TO.P,J6,1,Pin_1*%
%TO.N,GND*%
X33675000Y-32500000D03*
D14*
%TO.P,J6,2,Pin_2*%
%TO.N,VDD*%
X33675000Y-37500000D03*
%TD*%
D12*
%TO.P,J7,*%
%TO.N,*%
X50000000Y-29500000D03*
X50000000Y-40500000D03*
D15*
%TO.P,J7,1,Pin_1*%
%TO.N,GND*%
X45000000Y-32500000D03*
D14*
%TO.P,J7,2,Pin_2*%
%TO.N,VDD*%
X45000000Y-37500000D03*
%TD*%
D10*
%TO.P,J3,1,Pin_1*%
%TO.N,REAR-VDD*%
X53340000Y-88678000D03*
D11*
%TO.P,J3,2,Pin_2*%
%TO.N,GND*%
X55880000Y-88678000D03*
%TO.P,J3,3,Pin_3*%
%TO.N,REAR-VDD*%
X53340000Y-91218000D03*
%TO.P,J3,4,Pin_4*%
%TO.N,GND*%
X55880000Y-91218000D03*
%TO.P,J3,5,Pin_5*%
%TO.N,REAR-BOOT*%
X53340000Y-93758000D03*
%TO.P,J3,6,Pin_6*%
%TO.N,REAR-UART-RX*%
X55880000Y-93758000D03*
%TO.P,J3,7,Pin_7*%
%TO.N,REAR-UART-TX*%
X53340000Y-96298000D03*
%TO.P,J3,8,Pin_8*%
%TO.N,GND*%
X55880000Y-96298000D03*
%TO.P,J3,9,Pin_9*%
%TO.N,CANL*%
X53340000Y-98838000D03*
%TO.P,J3,10,Pin_10*%
%TO.N,CANH*%
X55880000Y-98838000D03*
%TO.P,J3,11,Pin_11*%
%TO.N,REAR-MODULE-DETECT*%
X53340000Y-101378000D03*
%TO.P,J3,12,Pin_12*%
%TO.N,unconnected-(J3-Pin_12-Pad12)*%
X55880000Y-101378000D03*
%TO.P,J3,13,Pin_13*%
%TO.N,unconnected-(J3-Pin_13-Pad13)*%
X53340000Y-103918000D03*
%TO.P,J3,14,Pin_14*%
%TO.N,unconnected-(J3-Pin_14-Pad14)*%
X55880000Y-103918000D03*
%TO.P,J3,15,Pin_15*%
%TO.N,unconnected-(J3-Pin_15-Pad15)*%
X53340000Y-106458000D03*
%TO.P,J3,16,Pin_16*%
%TO.N,GND*%
X55880000Y-106458000D03*
%TD*%
D10*
%TO.P,J5,1,Pin_1*%
%TO.N,GND*%
X53340000Y-47920000D03*
D11*
%TO.P,J5,2,Pin_2*%
X55880000Y-47920000D03*
%TO.P,J5,3,Pin_3*%
%TO.N,B*%
X53340000Y-50460000D03*
%TO.P,J5,4,Pin_4*%
%TO.N,A*%
X55880000Y-50460000D03*
%TO.P,J5,5,Pin_5*%
%TO.N,GND*%
X53340000Y-53000000D03*
%TO.P,J5,6,Pin_6*%
X55880000Y-53000000D03*
%TO.P,J5,7,Pin_7*%
%TO.N,CANL*%
X53340000Y-55540000D03*
%TO.P,J5,8,Pin_8*%
%TO.N,CANH*%
X55880000Y-55540000D03*
%TO.P,J5,9,Pin_9*%
%TO.N,GND*%
X53340000Y-58080000D03*
%TO.P,J5,10,Pin_10*%
X55880000Y-58080000D03*
%TD*%
D16*
%TO.N,VDD*%
X29800000Y-100600000D03*
X21325000Y-37755000D03*
X50200000Y-96500000D03*
X36565000Y-37755000D03*
X50200000Y-97600000D03*
X36565000Y-30135000D03*
X21325000Y-30135000D03*
X50200000Y-98700000D03*
X31485000Y-42835000D03*
X36587500Y-60347500D03*
X35687500Y-60347500D03*
X36587500Y-61947500D03*
X41645000Y-40295000D03*
X54345000Y-42835000D03*
X50200000Y-99800000D03*
X36587500Y-61147500D03*
X41645000Y-32675000D03*
X29800000Y-101500000D03*
X35687500Y-61947500D03*
X50200000Y-95400000D03*
X28945000Y-37755000D03*
X30581600Y-60553600D03*
X46725000Y-42835000D03*
X23865000Y-42835000D03*
X29800000Y-99700000D03*
X51805000Y-30135000D03*
X26405000Y-32675000D03*
X29800000Y-98800000D03*
X49975000Y-111325000D03*
X35687500Y-61147500D03*
X51805000Y-37755000D03*
X46725000Y-35215000D03*
X56885000Y-32675000D03*
X29800000Y-103200000D03*
X29800000Y-102362000D03*
%TO.N,GND*%
X41925000Y-73475000D03*
X31550000Y-54860000D03*
X50100000Y-101400000D03*
X39757126Y-66895000D03*
X40412500Y-79294500D03*
X44958000Y-102183000D03*
X39419281Y-107704055D03*
X46675000Y-111450000D03*
X44831000Y-97282000D03*
X38025000Y-72175000D03*
X39750000Y-60960000D03*
X35100000Y-47150000D03*
X52705000Y-83210000D03*
X37846000Y-103378000D03*
X37050000Y-59060000D03*
X39850000Y-53160000D03*
X50000000Y-102900000D03*
X52050000Y-68875000D03*
X39850000Y-55560000D03*
X29210000Y-45720000D03*
X39878000Y-88138000D03*
X26670000Y-45720000D03*
X40637500Y-44650000D03*
X40640000Y-110998000D03*
X33500000Y-70025000D03*
X41097470Y-91430662D03*
X35560000Y-105918000D03*
X39419254Y-108704027D03*
X35433000Y-101854000D03*
X42672000Y-95758000D03*
X40758985Y-66805000D03*
X35306000Y-96953000D03*
X27305000Y-83210000D03*
X27940000Y-45720000D03*
X37800000Y-68399000D03*
X44069000Y-55143000D03*
X50800000Y-45720000D03*
X39370000Y-89662000D03*
X52070000Y-45720000D03*
X31496000Y-105918000D03*
X39129489Y-91965177D03*
X41450000Y-59060000D03*
X41097037Y-90430216D03*
X32200000Y-97700000D03*
X39370000Y-103378000D03*
X39975000Y-49100000D03*
X41148000Y-95758000D03*
X44831000Y-93218000D03*
X53340000Y-45720000D03*
X39750000Y-69400000D03*
X48700000Y-93218000D03*
X43815000Y-109474000D03*
X46000000Y-82025000D03*
%TO.N,REAR-MODULE-DETECT*%
X45825000Y-76075000D03*
X49784000Y-82575000D03*
X51308000Y-94488000D03*
%TO.N,REAR-BOOT*%
X45175000Y-75425000D03*
X50546000Y-77241000D03*
%TO.N,CANH*%
X21844000Y-48200000D03*
X57785000Y-53467000D03*
%TO.N,REAR-UART-TX*%
X45175000Y-74125000D03*
X52070000Y-82575000D03*
%TO.N,REAR-UART-RX*%
X45825000Y-74775000D03*
X51308000Y-76987000D03*
%TO.N,FRONT-BOOT*%
X30226000Y-82448000D03*
X35100000Y-74125000D03*
%TO.N,FRONT-MODULE-DETECT*%
X27940000Y-82448000D03*
X34450000Y-70875000D03*
%TO.N,FRONT-UART-TX*%
X28702000Y-76987000D03*
X35100000Y-71525000D03*
%TO.N,FRONT-UART-RX*%
X34450000Y-73475000D03*
X29464000Y-77241000D03*
%TO.N,FRONT-EFUSE-EN*%
X31750000Y-90100000D03*
X35100000Y-75425000D03*
X31750000Y-85275000D03*
%TO.N,REAR-EFUSE-EN*%
X49022000Y-85275000D03*
X47244000Y-105130000D03*
X45175000Y-76725000D03*
%TO.N,FRONT-EFUSE-FLT*%
X34450000Y-74775000D03*
X32893000Y-111379000D03*
%TO.N,REAR-EFUSE-FLT*%
X47498000Y-87630000D03*
X45825000Y-77375000D03*
%TO.N,B*%
X38025000Y-50038000D03*
X48750000Y-50038000D03*
X29210000Y-50038000D03*
%TO.N,A*%
X41925000Y-51308000D03*
X49250000Y-51308000D03*
%TO.N,ICSPDAT*%
X40000000Y-82925000D03*
X37700000Y-78025000D03*
%TO.N,I2CDAT*%
X40259000Y-108077000D03*
X35100000Y-76725000D03*
X36100000Y-91000000D03*
X33274000Y-86766000D03*
%TO.N,I2CCLK*%
X34450000Y-76075000D03*
X40386000Y-107188000D03*
X32512000Y-86258000D03*
X36703000Y-91694000D03*
%TO.N,/3V3_REF*%
X45500000Y-108600000D03*
X41900000Y-102600000D03*
X36600000Y-92600000D03*
X38600000Y-102600000D03*
%TD*%
%TO.N,REAR-MODULE-DETECT*%
D17*
X49784000Y-82575000D02*
X49784000Y-77470000D01*
X49784000Y-77470000D02*
X48389000Y-76075000D01*
X51308000Y-88900000D02*
X49784000Y-87376000D01*
X51308000Y-94488000D02*
X51308000Y-88900000D01*
X45825000Y-76075000D02*
X48389000Y-76075000D01*
X49784000Y-87376000D02*
X49784000Y-82575000D01*
%TO.N,REAR-BOOT*%
X50546000Y-77241000D02*
X50546000Y-76962000D01*
X50546000Y-76962000D02*
X49009000Y-75425000D01*
X50546000Y-85344000D02*
X50546000Y-77241000D01*
X53340000Y-93758000D02*
X52070000Y-92488000D01*
X52070000Y-88646000D02*
X50546000Y-87122000D01*
X52070000Y-88695000D02*
X52070000Y-88646000D01*
X52070000Y-92488000D02*
X52070000Y-88695000D01*
X45175000Y-75425000D02*
X49009000Y-75425000D01*
X50546000Y-87122000D02*
X50546000Y-85344000D01*
%TO.N,CANH*%
D18*
X24130000Y-50460000D02*
X24104000Y-50460000D01*
X24104000Y-50460000D02*
X21844000Y-48200000D01*
X55880000Y-55372000D02*
X57785000Y-53467000D01*
X57785000Y-53467000D02*
X56134000Y-55118000D01*
X55880000Y-55540000D02*
X55880000Y-55372000D01*
X56134000Y-55118000D02*
X56040000Y-55118000D01*
%TO.N,REAR-UART-TX*%
D17*
X57277000Y-94120000D02*
X56388000Y-95009000D01*
X54398000Y-86300000D02*
X55118000Y-87020000D01*
X57277000Y-87782000D02*
X57277000Y-94120000D01*
X52070000Y-82575000D02*
X52070000Y-85870000D01*
X52070000Y-75946000D02*
X52070000Y-82575000D01*
X45175000Y-74125000D02*
X50249000Y-74125000D01*
X52500000Y-86300000D02*
X54398000Y-86300000D01*
X52070000Y-85870000D02*
X52500000Y-86300000D01*
X50249000Y-74125000D02*
X52070000Y-75946000D01*
X56515000Y-87020000D02*
X57277000Y-87782000D01*
X55118000Y-87020000D02*
X56515000Y-87020000D01*
X56388000Y-95009000D02*
X54629000Y-95009000D01*
X54629000Y-95009000D02*
X53340000Y-96298000D01*
%TO.N,REAR-UART-RX*%
X52108000Y-87000000D02*
X53975000Y-87000000D01*
X53975000Y-87000000D02*
X54610000Y-87635000D01*
X54610000Y-92488000D02*
X55880000Y-93758000D01*
X51308000Y-76987000D02*
X51308000Y-76454000D01*
X49629000Y-74775000D02*
X45825000Y-74775000D01*
X54610000Y-87635000D02*
X54610000Y-92488000D01*
X51308000Y-76987000D02*
X51308000Y-86200000D01*
X51308000Y-86200000D02*
X52108000Y-87000000D01*
X51308000Y-76454000D02*
X49629000Y-74775000D01*
%TO.N,FRONT-BOOT*%
X32555000Y-74125000D02*
X35100000Y-74125000D01*
X29464000Y-94162000D02*
X30226000Y-93400000D01*
X30226000Y-81559000D02*
X30226000Y-76454000D01*
X31227500Y-75452500D02*
X32555000Y-74125000D01*
X30226000Y-93400000D02*
X30226000Y-81559000D01*
X26670000Y-101378000D02*
X26822000Y-101378000D01*
X28700000Y-99500000D02*
X28700000Y-98800000D01*
X30226000Y-76454000D02*
X31227500Y-75452500D01*
X29464000Y-98036000D02*
X29464000Y-94162000D01*
X26822000Y-101378000D02*
X28700000Y-99500000D01*
X28700000Y-98800000D02*
X29464000Y-98036000D01*
%TO.N,FRONT-MODULE-DETECT*%
X27940000Y-74930000D02*
X31995000Y-70875000D01*
X34450000Y-70875000D02*
X31995000Y-70875000D01*
X26670000Y-93758000D02*
X27940000Y-92488000D01*
X27940000Y-92488000D02*
X27940000Y-81559000D01*
X27940000Y-81559000D02*
X27940000Y-74930000D01*
%TO.N,FRONT-UART-TX*%
X27940000Y-93562000D02*
X27940000Y-97568000D01*
X28702000Y-76225000D02*
X28702000Y-92800000D01*
X32615000Y-71525000D02*
X28702000Y-75438000D01*
X28702000Y-75438000D02*
X28702000Y-76225000D01*
X28702000Y-92800000D02*
X27940000Y-93562000D01*
X35100000Y-71525000D02*
X32615000Y-71525000D01*
X27940000Y-97568000D02*
X26670000Y-98838000D01*
%TO.N,FRONT-UART-RX*%
X29464000Y-76225000D02*
X29464000Y-93138000D01*
X28000000Y-99277182D02*
X27188182Y-100089000D01*
X31935000Y-73475000D02*
X34450000Y-73475000D01*
X25419000Y-100089000D02*
X24130000Y-101378000D01*
X27188182Y-100089000D02*
X25419000Y-100089000D01*
X29464000Y-75946000D02*
X29464000Y-76225000D01*
X29464000Y-93138000D02*
X28702000Y-93900000D01*
X28702000Y-97798000D02*
X28000000Y-98500000D01*
X28702000Y-93900000D02*
X28702000Y-97798000D01*
X28000000Y-98500000D02*
X28000000Y-99277182D01*
X31935000Y-73475000D02*
X29464000Y-75946000D01*
%TO.N,FRONT-EFUSE-EN*%
X35100000Y-75425000D02*
X33800000Y-75425000D01*
X31750000Y-77470000D02*
X31750000Y-86775000D01*
X33800000Y-75425000D02*
X32263000Y-76962000D01*
X32263000Y-76962000D02*
X32258000Y-76962000D01*
X32258000Y-76962000D02*
X31750000Y-77470000D01*
X31750000Y-86775000D02*
X31750000Y-90100000D01*
%TO.N,REAR-EFUSE-EN*%
X45175000Y-76725000D02*
X47744000Y-76725000D01*
X48000000Y-104374000D02*
X47244000Y-105130000D01*
X49022000Y-79781000D02*
X49022000Y-86025000D01*
X48000000Y-88906000D02*
X48000000Y-104374000D01*
X49022000Y-87376000D02*
X48006000Y-88392000D01*
X49022000Y-78003000D02*
X47744000Y-76725000D01*
X49022000Y-86025000D02*
X49022000Y-87376000D01*
X48006000Y-88900000D02*
X48000000Y-88906000D01*
X48006000Y-88392000D02*
X48006000Y-88900000D01*
X49022000Y-79502000D02*
X49022000Y-78003000D01*
X49022000Y-79502000D02*
X49022000Y-79781000D01*
%TO.N,FRONT-EFUSE-FLT*%
X30988000Y-95250000D02*
X32893000Y-97155000D01*
X34450000Y-74775000D02*
X33175000Y-74775000D01*
X33175000Y-74775000D02*
X30988000Y-76962000D01*
X32893000Y-97155000D02*
X32893000Y-111379000D01*
X30988000Y-76962000D02*
X30988000Y-95250000D01*
%TO.N,REAR-EFUSE-FLT*%
X47110000Y-77375000D02*
X47117000Y-77368000D01*
X45825000Y-77375000D02*
X47110000Y-77375000D01*
X48260000Y-78511000D02*
X48260000Y-86868000D01*
X47117000Y-77368000D02*
X48260000Y-78511000D01*
X48260000Y-86868000D02*
X47498000Y-87630000D01*
%TO.N,B*%
D18*
X51500000Y-50038000D02*
X51900000Y-50460000D01*
X38025000Y-50038000D02*
X38500000Y-50038000D01*
X38500000Y-50038000D02*
X38850000Y-50038000D01*
X41100000Y-50038000D02*
X43700000Y-50038000D01*
X51900000Y-50460000D02*
X53340000Y-50460000D01*
X38850000Y-50038000D02*
X39750000Y-50038000D01*
X43700000Y-50038000D02*
X48750000Y-50038000D01*
X29210000Y-50038000D02*
X38025000Y-50038000D01*
X48750000Y-50038000D02*
X51500000Y-50038000D01*
X39750000Y-50038000D02*
X41100000Y-50038000D01*
%TO.N,A*%
X51400000Y-51308000D02*
X51803000Y-51711000D01*
X27497000Y-51711000D02*
X27900000Y-51308000D01*
X41925000Y-51308000D02*
X43700000Y-51308000D01*
X25419000Y-54251000D02*
X25419000Y-52292529D01*
X24130000Y-55540000D02*
X25419000Y-54251000D01*
X27900000Y-51308000D02*
X41500000Y-51308000D01*
X54629000Y-51711000D02*
X55880000Y-50460000D01*
X51803000Y-51711000D02*
X54629000Y-51711000D01*
X49250000Y-51308000D02*
X51400000Y-51308000D01*
X26000530Y-51711000D02*
X27497000Y-51711000D01*
X43700000Y-51308000D02*
X49250000Y-51308000D01*
X25419000Y-52292529D02*
X26000530Y-51711000D01*
X41500000Y-51308000D02*
X41925000Y-51308000D01*
%TO.N,ICSPDAT*%
D17*
X38153049Y-78025000D02*
X40005000Y-79876951D01*
X40000000Y-82925000D02*
X40005000Y-79876951D01*
X37700000Y-78025000D02*
X38153049Y-78025000D01*
%TO.N,I2CDAT*%
D18*
X40640000Y-108077000D02*
X41148000Y-107389080D01*
D17*
X35100000Y-76725000D02*
X34806000Y-76725000D01*
D18*
X38100000Y-99568000D02*
X38100000Y-91600000D01*
D17*
X33274000Y-86639000D02*
X33274000Y-86766000D01*
D18*
X38100000Y-91600000D02*
X37500000Y-91000000D01*
X41148000Y-102616000D02*
X38100000Y-99568000D01*
D17*
X33274000Y-78257000D02*
X33274000Y-86639000D01*
D18*
X37500000Y-91000000D02*
X36100000Y-91000000D01*
X40259000Y-108077000D02*
X40640000Y-108077000D01*
X41148000Y-107389080D02*
X41148000Y-102616000D01*
D17*
X34806000Y-76725000D02*
X33274000Y-78257000D01*
%TO.N,I2CCLK*%
D18*
X37338000Y-92329000D02*
X36703000Y-91694000D01*
X40386000Y-107188000D02*
X40386000Y-103124000D01*
X40386000Y-103124000D02*
X37338000Y-100076000D01*
D17*
X32512000Y-86258000D02*
X32512000Y-77876000D01*
X34313000Y-76075000D02*
X34450000Y-76075000D01*
X32512000Y-77876000D02*
X34313000Y-76075000D01*
D18*
X37338000Y-100076000D02*
X37338000Y-92329000D01*
%TO.N,/3V3_REF*%
X36600000Y-92600000D02*
X36600000Y-100500000D01*
X41900000Y-108100000D02*
X42400000Y-108600000D01*
X38700000Y-102600000D02*
X38600000Y-102600000D01*
X42400000Y-108600000D02*
X45500000Y-108600000D01*
X41900000Y-102600000D02*
X41900000Y-108100000D01*
X36600000Y-100500000D02*
X38700000Y-102600000D01*
%TD*%
%TA.AperFunction,Conductor*%
%TO.N,VDD*%
G36*
X37187500Y-62460000D02*
G01*
X25487500Y-62460000D01*
X25487500Y-59847500D01*
X37187500Y-59847500D01*
X37187500Y-62460000D01*
G37*
%TD.AperFunction*%
%TD*%
%TA.AperFunction,Conductor*%
%TO.N,VDD*%
G36*
X59392606Y-28005023D02*
G01*
X59407604Y-28009427D01*
X59466355Y-28047172D01*
X59467542Y-28048541D01*
X59487407Y-28092004D01*
X59490863Y-28090908D01*
X59493695Y-28099835D01*
X59495082Y-28108794D01*
X59496587Y-28112087D01*
X59496108Y-28115423D01*
X59499500Y-28137331D01*
X59499500Y-111858170D01*
X59494475Y-111893114D01*
X59490070Y-111908112D01*
X59452327Y-111966855D01*
X59450958Y-111968042D01*
X59396097Y-111995518D01*
X59388539Y-111997163D01*
X59362168Y-112000000D01*
X48373773Y-112000000D01*
X48306734Y-111980315D01*
X48260979Y-111927511D01*
X48249773Y-111875958D01*
X48249798Y-111803966D01*
X48251238Y-107558499D01*
X48251641Y-106371383D01*
X52239500Y-106371383D01*
X52239500Y-106371389D01*
X52239500Y-106544611D01*
X52266598Y-106715701D01*
X52320127Y-106880445D01*
X52398768Y-107034788D01*
X52500586Y-107174928D01*
X52623072Y-107297414D01*
X52763212Y-107399232D01*
X52917555Y-107477873D01*
X53082299Y-107531402D01*
X53253389Y-107558500D01*
X53253390Y-107558500D01*
X53426610Y-107558500D01*
X53426611Y-107558500D01*
X53597701Y-107531402D01*
X53762445Y-107477873D01*
X53916788Y-107399232D01*
X54056928Y-107297414D01*
X54179414Y-107174928D01*
X54281232Y-107034788D01*
X54359873Y-106880445D01*
X54413402Y-106715701D01*
X54440500Y-106544611D01*
X54440500Y-106371389D01*
X54440499Y-106371383D01*
X54779500Y-106371383D01*
X54779500Y-106371389D01*
X54779500Y-106544611D01*
X54806598Y-106715701D01*
X54860127Y-106880445D01*
X54938768Y-107034788D01*
X55040586Y-107174928D01*
X55163072Y-107297414D01*
X55303212Y-107399232D01*
X55457555Y-107477873D01*
X55622299Y-107531402D01*
X55793389Y-107558500D01*
X55793390Y-107558500D01*
X55966610Y-107558500D01*
X55966611Y-107558500D01*
X56137701Y-107531402D01*
X56302445Y-107477873D01*
X56456788Y-107399232D01*
X56596928Y-107297414D01*
X56719414Y-107174928D01*
X56821232Y-107034788D01*
X56899873Y-106880445D01*
X56953402Y-106715701D01*
X56980500Y-106544611D01*
X56980500Y-106371389D01*
X56953402Y-106200299D01*
X56899873Y-106035555D01*
X56821232Y-105881212D01*
X56719414Y-105741072D01*
X56596928Y-105618586D01*
X56456788Y-105516768D01*
X56302449Y-105438128D01*
X56151215Y-105388988D01*
X56151203Y-105388985D01*
X56137701Y-105384598D01*
X56137699Y-105384597D01*
X56137698Y-105384597D01*
X56123312Y-105382318D01*
X56123306Y-105382317D01*
X56029752Y-105367500D01*
X56006271Y-105363781D01*
X55990407Y-105361268D01*
X55966614Y-105357500D01*
X55966611Y-105357500D01*
X55793389Y-105357500D01*
X55793388Y-105357500D01*
X55753726Y-105363781D01*
X55753725Y-105363780D01*
X55622304Y-105384596D01*
X55457549Y-105438129D01*
X55303210Y-105516768D01*
X55229248Y-105570506D01*
X55174943Y-105609961D01*
X55167562Y-105614094D01*
X55036092Y-105745564D01*
X55031961Y-105752941D01*
X54996859Y-105801255D01*
X54996859Y-105801256D01*
X54938768Y-105881210D01*
X54860129Y-106035547D01*
X54806598Y-106200297D01*
X54806597Y-106200301D01*
X54797773Y-106256013D01*
X54779500Y-106371383D01*
X54440499Y-106371383D01*
X54413402Y-106200299D01*
X54359873Y-106035555D01*
X54281232Y-105881212D01*
X54179414Y-105741072D01*
X54056928Y-105618586D01*
X53916788Y-105516768D01*
X53762449Y-105438128D01*
X53611215Y-105388988D01*
X53611203Y-105388985D01*
X53597701Y-105384598D01*
X53597699Y-105384597D01*
X53597698Y-105384597D01*
X53583312Y-105382318D01*
X53583306Y-105382317D01*
X53489752Y-105367500D01*
X53466271Y-105363781D01*
X53450407Y-105361268D01*
X53426614Y-105357500D01*
X53426611Y-105357500D01*
X53253389Y-105357500D01*
X53253388Y-105357500D01*
X53213726Y-105363781D01*
X53213725Y-105363780D01*
X53082304Y-105384596D01*
X52917549Y-105438129D01*
X52763210Y-105516768D01*
X52689248Y-105570506D01*
X52634943Y-105609961D01*
X52627562Y-105614094D01*
X52496092Y-105745564D01*
X52491961Y-105752941D01*
X52456859Y-105801255D01*
X52456859Y-105801256D01*
X52398768Y-105881210D01*
X52320129Y-106035547D01*
X52266598Y-106200297D01*
X52266597Y-106200301D01*
X52257773Y-106256013D01*
X52239500Y-106371383D01*
X48251641Y-106371383D01*
X48251643Y-106366475D01*
X48252064Y-105123975D01*
X48252064Y-105123967D01*
X48250299Y-105093892D01*
X48247568Y-105070785D01*
X48247565Y-105070758D01*
X48242275Y-105041112D01*
X48240931Y-105035512D01*
X48215415Y-104970308D01*
X48189154Y-104923410D01*
X48177799Y-104907117D01*
X48155620Y-104840863D01*
X48172781Y-104773133D01*
X48191847Y-104748545D01*
X48320480Y-104619913D01*
X48373206Y-104528588D01*
X48373207Y-104528587D01*
X48400500Y-104426727D01*
X48400500Y-103831383D01*
X52239500Y-103831383D01*
X52239500Y-104004614D01*
X52263595Y-104156745D01*
X52266596Y-104175695D01*
X52266597Y-104175697D01*
X52266598Y-104175701D01*
X52320127Y-104340445D01*
X52398768Y-104494788D01*
X52500586Y-104634928D01*
X52623072Y-104757414D01*
X52763212Y-104859232D01*
X52917555Y-104937873D01*
X53082299Y-104991402D01*
X53253389Y-105018500D01*
X53253390Y-105018500D01*
X53426610Y-105018500D01*
X53426611Y-105018500D01*
X53597701Y-104991402D01*
X53762445Y-104937873D01*
X53916788Y-104859232D01*
X54056928Y-104757414D01*
X54179414Y-104634928D01*
X54281232Y-104494788D01*
X54359873Y-104340445D01*
X54413402Y-104175701D01*
X54440500Y-104004611D01*
X54440500Y-103831389D01*
X54440499Y-103831383D01*
X54779500Y-103831383D01*
X54779500Y-104004614D01*
X54803595Y-104156745D01*
X54806596Y-104175695D01*
X54806597Y-104175697D01*
X54806598Y-104175701D01*
X54860127Y-104340445D01*
X54938768Y-104494788D01*
X55040586Y-104634928D01*
X55163072Y-104757414D01*
X55303212Y-104859232D01*
X55457555Y-104937873D01*
X55622299Y-104991402D01*
X55793389Y-105018500D01*
X55793390Y-105018500D01*
X55966610Y-105018500D01*
X55966611Y-105018500D01*
X56137701Y-104991402D01*
X56302445Y-104937873D01*
X56456788Y-104859232D01*
X56596928Y-104757414D01*
X56719414Y-104634928D01*
X56821232Y-104494788D01*
X56899873Y-104340445D01*
X56953402Y-104175701D01*
X56980500Y-104004611D01*
X56980500Y-103831389D01*
X56953402Y-103660299D01*
X56899873Y-103495555D01*
X56821232Y-103341212D01*
X56719414Y-103201072D01*
X56596928Y-103078586D01*
X56456788Y-102976768D01*
X56302449Y-102898128D01*
X56151227Y-102848992D01*
X56151216Y-102848989D01*
X56137701Y-102844598D01*
X56137699Y-102844597D01*
X56137698Y-102844597D01*
X56123299Y-102842316D01*
X56123293Y-102842315D01*
X55969585Y-102817970D01*
X55969585Y-102817971D01*
X55966611Y-102817500D01*
X55793389Y-102817500D01*
X55790415Y-102817971D01*
X55790414Y-102817970D01*
X55622301Y-102844596D01*
X55457547Y-102898129D01*
X55303210Y-102976768D01*
X55223256Y-103034859D01*
X55223255Y-103034859D01*
X55174941Y-103069961D01*
X55167564Y-103074092D01*
X55036094Y-103205562D01*
X55031960Y-103212945D01*
X55014941Y-103236369D01*
X54938918Y-103341005D01*
X54938768Y-103341211D01*
X54938766Y-103341213D01*
X54938764Y-103341218D01*
X54860129Y-103495549D01*
X54806596Y-103660305D01*
X54779500Y-103831383D01*
X54440499Y-103831383D01*
X54413402Y-103660299D01*
X54359873Y-103495555D01*
X54281232Y-103341212D01*
X54179414Y-103201072D01*
X54056928Y-103078586D01*
X53916788Y-102976768D01*
X53762449Y-102898128D01*
X53611227Y-102848992D01*
X53611216Y-102848989D01*
X53597701Y-102844598D01*
X53597699Y-102844597D01*
X53597698Y-102844597D01*
X53583299Y-102842316D01*
X53583293Y-102842315D01*
X53429585Y-102817970D01*
X53429585Y-102817971D01*
X53426611Y-102817500D01*
X53253389Y-102817500D01*
X53250415Y-102817971D01*
X53250414Y-102817970D01*
X53082301Y-102844596D01*
X52917547Y-102898129D01*
X52763210Y-102976768D01*
X52683256Y-103034859D01*
X52683255Y-103034859D01*
X52634941Y-103069961D01*
X52627564Y-103074092D01*
X52496094Y-103205562D01*
X52491960Y-103212945D01*
X52474941Y-103236369D01*
X52398918Y-103341005D01*
X52398768Y-103341211D01*
X52398766Y-103341213D01*
X52398764Y-103341218D01*
X52320129Y-103495549D01*
X52266596Y-103660305D01*
X52239500Y-103831383D01*
X48400500Y-103831383D01*
X48400500Y-102827525D01*
X49449500Y-102827525D01*
X49449500Y-102972475D01*
X49450888Y-102977654D01*
X49487013Y-103112477D01*
X49487017Y-103112488D01*
X49487018Y-103112489D01*
X49557631Y-103234795D01*
X49559489Y-103238013D01*
X49661985Y-103340509D01*
X49662674Y-103341005D01*
X49665178Y-103342353D01*
X49784069Y-103410995D01*
X49787087Y-103412869D01*
X49787514Y-103412983D01*
X49787515Y-103412984D01*
X49927525Y-103450500D01*
X49927528Y-103450500D01*
X50072472Y-103450500D01*
X50072475Y-103450500D01*
X50212485Y-103412984D01*
X50338015Y-103340509D01*
X50440509Y-103238015D01*
X50512984Y-103112485D01*
X50550500Y-102972475D01*
X50550500Y-102827525D01*
X50512984Y-102687515D01*
X50512982Y-102687511D01*
X50512982Y-102687510D01*
X50512981Y-102687509D01*
X50476029Y-102623507D01*
X50476028Y-102623506D01*
X50440511Y-102561988D01*
X50440506Y-102561982D01*
X50440493Y-102561968D01*
X50338030Y-102459505D01*
X50338014Y-102459490D01*
X50338006Y-102459485D01*
X50284243Y-102428445D01*
X50255808Y-102398624D01*
X50201007Y-102383939D01*
X50201007Y-102383940D01*
X50136740Y-102366720D01*
X50072475Y-102349500D01*
X50072474Y-102349500D01*
X49927525Y-102349500D01*
X49798994Y-102383939D01*
X49798993Y-102383940D01*
X49791338Y-102385991D01*
X49787510Y-102387017D01*
X49661991Y-102459485D01*
X49661984Y-102459490D01*
X49661968Y-102459505D01*
X49559505Y-102561968D01*
X49559490Y-102561984D01*
X49559485Y-102561992D01*
X49488287Y-102685308D01*
X49488286Y-102685312D01*
X49487017Y-102687511D01*
X49487016Y-102687515D01*
X49449500Y-102827525D01*
X48400500Y-102827525D01*
X48400500Y-101327525D01*
X49549500Y-101327525D01*
X49549500Y-101472475D01*
X49550888Y-101477654D01*
X49587013Y-101612477D01*
X49587017Y-101612488D01*
X49587018Y-101612489D01*
X49657631Y-101734795D01*
X49659489Y-101738013D01*
X49761985Y-101840509D01*
X49762674Y-101841005D01*
X49765178Y-101842353D01*
X49884069Y-101910995D01*
X49887087Y-101912869D01*
X49887514Y-101912983D01*
X49887515Y-101912984D01*
X50027525Y-101950500D01*
X50027528Y-101950500D01*
X50172472Y-101950500D01*
X50172475Y-101950500D01*
X50312485Y-101912984D01*
X50438015Y-101840509D01*
X50540509Y-101738015D01*
X50612984Y-101612485D01*
X50650500Y-101472475D01*
X50650500Y-101327525D01*
X50640816Y-101291384D01*
X52239500Y-101291384D01*
X52239500Y-101464610D01*
X52262921Y-101612489D01*
X52266598Y-101635701D01*
X52320127Y-101800445D01*
X52398768Y-101954788D01*
X52500586Y-102094928D01*
X52623072Y-102217414D01*
X52763212Y-102319232D01*
X52917555Y-102397873D01*
X53082299Y-102451402D01*
X53253389Y-102478500D01*
X53253390Y-102478500D01*
X53426610Y-102478500D01*
X53426611Y-102478500D01*
X53597701Y-102451402D01*
X53762445Y-102397873D01*
X53916788Y-102319232D01*
X54056928Y-102217414D01*
X54179414Y-102094928D01*
X54281232Y-101954788D01*
X54359873Y-101800445D01*
X54413402Y-101635701D01*
X54440500Y-101464611D01*
X54440500Y-101291389D01*
X54440499Y-101291384D01*
X54779500Y-101291384D01*
X54779500Y-101464610D01*
X54802921Y-101612489D01*
X54806598Y-101635701D01*
X54860127Y-101800445D01*
X54938768Y-101954788D01*
X55040586Y-102094928D01*
X55163072Y-102217414D01*
X55303212Y-102319232D01*
X55457555Y-102397873D01*
X55622299Y-102451402D01*
X55793389Y-102478500D01*
X55793390Y-102478500D01*
X55966610Y-102478500D01*
X55966611Y-102478500D01*
X56137701Y-102451402D01*
X56302445Y-102397873D01*
X56456788Y-102319232D01*
X56596928Y-102217414D01*
X56719414Y-102094928D01*
X56821232Y-101954788D01*
X56899873Y-101800445D01*
X56953402Y-101635701D01*
X56980500Y-101464611D01*
X56980500Y-101291389D01*
X56953402Y-101120299D01*
X56899873Y-100955555D01*
X56821232Y-100801212D01*
X56719414Y-100661072D01*
X56596928Y-100538586D01*
X56456788Y-100436768D01*
X56456780Y-100436764D01*
X56302449Y-100358128D01*
X56151215Y-100308988D01*
X56151203Y-100308985D01*
X56137701Y-100304598D01*
X56137699Y-100304597D01*
X56137698Y-100304597D01*
X56123312Y-100302318D01*
X56123306Y-100302317D01*
X56033188Y-100288044D01*
X56006271Y-100283781D01*
X55990407Y-100281268D01*
X55966614Y-100277500D01*
X55966611Y-100277500D01*
X55793389Y-100277500D01*
X55793388Y-100277500D01*
X55753726Y-100283781D01*
X55753725Y-100283780D01*
X55622304Y-100304596D01*
X55457549Y-100358129D01*
X55303218Y-100436764D01*
X55303215Y-100436765D01*
X55303211Y-100436768D01*
X55230633Y-100489500D01*
X55214249Y-100501403D01*
X55174941Y-100529962D01*
X55167563Y-100534093D01*
X55036092Y-100665564D01*
X55031961Y-100672941D01*
X54996859Y-100721255D01*
X54996859Y-100721256D01*
X54938768Y-100801210D01*
X54860101Y-100955604D01*
X54859629Y-100956547D01*
X54858547Y-100960413D01*
X54833362Y-101037926D01*
X54833362Y-101037927D01*
X54806597Y-101120298D01*
X54806597Y-101120301D01*
X54795952Y-101187514D01*
X54795952Y-101187516D01*
X54779500Y-101291384D01*
X54440499Y-101291384D01*
X54413402Y-101120299D01*
X54359873Y-100955555D01*
X54281232Y-100801212D01*
X54179414Y-100661072D01*
X54056928Y-100538586D01*
X53916788Y-100436768D01*
X53916780Y-100436764D01*
X53762449Y-100358128D01*
X53611215Y-100308988D01*
X53611203Y-100308985D01*
X53597701Y-100304598D01*
X53597699Y-100304597D01*
X53597698Y-100304597D01*
X53583312Y-100302318D01*
X53583306Y-100302317D01*
X53493188Y-100288044D01*
X53466271Y-100283781D01*
X53450407Y-100281268D01*
X53426614Y-100277500D01*
X53426611Y-100277500D01*
X53253389Y-100277500D01*
X53253388Y-100277500D01*
X53213726Y-100283781D01*
X53213725Y-100283780D01*
X53082304Y-100304596D01*
X52917549Y-100358129D01*
X52763218Y-100436764D01*
X52763215Y-100436765D01*
X52763211Y-100436768D01*
X52690633Y-100489500D01*
X52674249Y-100501403D01*
X52634941Y-100529962D01*
X52627563Y-100534093D01*
X52496092Y-100665564D01*
X52491961Y-100672941D01*
X52456859Y-100721255D01*
X52456859Y-100721256D01*
X52398768Y-100801210D01*
X52320101Y-100955604D01*
X52319629Y-100956547D01*
X52318547Y-100960413D01*
X52293362Y-101037926D01*
X52293362Y-101037927D01*
X52266597Y-101120298D01*
X52266597Y-101120301D01*
X52255952Y-101187514D01*
X52255952Y-101187516D01*
X52239500Y-101291384D01*
X50640816Y-101291384D01*
X50612984Y-101187515D01*
X50574178Y-101120302D01*
X50553356Y-101084236D01*
X50540513Y-101061991D01*
X50540508Y-101061984D01*
X50540493Y-101061968D01*
X50438030Y-100959505D01*
X50438014Y-100959490D01*
X50438011Y-100959488D01*
X50388914Y-100931142D01*
X50312488Y-100887017D01*
X50312489Y-100887017D01*
X50280326Y-100878399D01*
X50269839Y-100875589D01*
X50269835Y-100875587D01*
X50194715Y-100855459D01*
X50172475Y-100849500D01*
X50172474Y-100849500D01*
X50027525Y-100849500D01*
X49919673Y-100878399D01*
X49919672Y-100878398D01*
X49887512Y-100887016D01*
X49887507Y-100887018D01*
X49761992Y-100959485D01*
X49761984Y-100959490D01*
X49761968Y-100959505D01*
X49659505Y-101061968D01*
X49659490Y-101061984D01*
X49659485Y-101061992D01*
X49588287Y-101185308D01*
X49588286Y-101185312D01*
X49587017Y-101187511D01*
X49587016Y-101187515D01*
X49549500Y-101327525D01*
X48400500Y-101327525D01*
X48400500Y-98751383D01*
X52239500Y-98751383D01*
X52239500Y-98751389D01*
X52239500Y-98924611D01*
X52246038Y-98965891D01*
X52266596Y-99095693D01*
X52266598Y-99095701D01*
X52320127Y-99260445D01*
X52398768Y-99414788D01*
X52500586Y-99554928D01*
X52623072Y-99677414D01*
X52763212Y-99779232D01*
X52917555Y-99857873D01*
X53082299Y-99911402D01*
X53253389Y-99938500D01*
X53253390Y-99938500D01*
X53426610Y-99938500D01*
X53426611Y-99938500D01*
X53597701Y-99911402D01*
X53762445Y-99857873D01*
X53916788Y-99779232D01*
X54056928Y-99677414D01*
X54179414Y-99554928D01*
X54281232Y-99414788D01*
X54359873Y-99260445D01*
X54413402Y-99095701D01*
X54440500Y-98924611D01*
X54440500Y-98751389D01*
X54440499Y-98751383D01*
X54779500Y-98751383D01*
X54779500Y-98751389D01*
X54779500Y-98924611D01*
X54786038Y-98965891D01*
X54806596Y-99095693D01*
X54806598Y-99095701D01*
X54860127Y-99260445D01*
X54938768Y-99414788D01*
X55040586Y-99554928D01*
X55163072Y-99677414D01*
X55303212Y-99779232D01*
X55457555Y-99857873D01*
X55622299Y-99911402D01*
X55793389Y-99938500D01*
X55793390Y-99938500D01*
X55966610Y-99938500D01*
X55966611Y-99938500D01*
X56137701Y-99911402D01*
X56302445Y-99857873D01*
X56456788Y-99779232D01*
X56596928Y-99677414D01*
X56719414Y-99554928D01*
X56821232Y-99414788D01*
X56899873Y-99260445D01*
X56953402Y-99095701D01*
X56980500Y-98924611D01*
X56980500Y-98751389D01*
X56953402Y-98580299D01*
X56899873Y-98415555D01*
X56821232Y-98261212D01*
X56719414Y-98121072D01*
X56596928Y-97998586D01*
X56456788Y-97896768D01*
X56456786Y-97896767D01*
X56302449Y-97818128D01*
X56151215Y-97768988D01*
X56151203Y-97768985D01*
X56137701Y-97764598D01*
X56137699Y-97764597D01*
X56137698Y-97764597D01*
X56123312Y-97762318D01*
X56123306Y-97762317D01*
X56033188Y-97748044D01*
X56006271Y-97743781D01*
X55990407Y-97741268D01*
X55966614Y-97737500D01*
X55966611Y-97737500D01*
X55793389Y-97737500D01*
X55793388Y-97737500D01*
X55753726Y-97743781D01*
X55753725Y-97743780D01*
X55622304Y-97764596D01*
X55457549Y-97818129D01*
X55303211Y-97896767D01*
X55281579Y-97912485D01*
X55174943Y-97989961D01*
X55167562Y-97994094D01*
X55036094Y-98125562D01*
X55031964Y-98132938D01*
X55026466Y-98140506D01*
X55026464Y-98140509D01*
X55026463Y-98140511D01*
X54938768Y-98261211D01*
X54938765Y-98261215D01*
X54938764Y-98261218D01*
X54860129Y-98415549D01*
X54806596Y-98580305D01*
X54779500Y-98751383D01*
X54440499Y-98751383D01*
X54413402Y-98580299D01*
X54359873Y-98415555D01*
X54281232Y-98261212D01*
X54179414Y-98121072D01*
X54056928Y-97998586D01*
X53916788Y-97896768D01*
X53916786Y-97896767D01*
X53762449Y-97818128D01*
X53611215Y-97768988D01*
X53611203Y-97768985D01*
X53597701Y-97764598D01*
X53597699Y-97764597D01*
X53597698Y-97764597D01*
X53583312Y-97762318D01*
X53583306Y-97762317D01*
X53493188Y-97748044D01*
X53466271Y-97743781D01*
X53450407Y-97741268D01*
X53426614Y-97737500D01*
X53426611Y-97737500D01*
X53253389Y-97737500D01*
X53253388Y-97737500D01*
X53213726Y-97743781D01*
X53213725Y-97743780D01*
X53082304Y-97764596D01*
X52917549Y-97818129D01*
X52763211Y-97896767D01*
X52741579Y-97912485D01*
X52634943Y-97989961D01*
X52627562Y-97994094D01*
X52496094Y-98125562D01*
X52491964Y-98132938D01*
X52486466Y-98140506D01*
X52486464Y-98140509D01*
X52486463Y-98140511D01*
X52398768Y-98261211D01*
X52398765Y-98261215D01*
X52398764Y-98261218D01*
X52320129Y-98415549D01*
X52266596Y-98580305D01*
X52239500Y-98751383D01*
X48400500Y-98751383D01*
X48400500Y-95379500D01*
X48420185Y-95312461D01*
X48472989Y-95266706D01*
X48524500Y-95255500D01*
X49852266Y-95255500D01*
X49881913Y-95253555D01*
X49885619Y-95253313D01*
X49885625Y-95253312D01*
X49885639Y-95253311D01*
X49911224Y-95249941D01*
X49911222Y-95249941D01*
X49911247Y-95249938D01*
X49944028Y-95243416D01*
X49968345Y-95236899D01*
X49999988Y-95226156D01*
X50023860Y-95216267D01*
X50053830Y-95201487D01*
X50091283Y-95179862D01*
X50115781Y-95169707D01*
X50118433Y-95168399D01*
X50118482Y-95168383D01*
X50120228Y-95167864D01*
X50121132Y-95167489D01*
X50122325Y-95167170D01*
X50122337Y-95167165D01*
X50124489Y-95166587D01*
X50124825Y-95166498D01*
X50124827Y-95166498D01*
X50124851Y-95166490D01*
X50151979Y-95159222D01*
X50184065Y-95155000D01*
X50215932Y-95155000D01*
X50248023Y-95159225D01*
X50277672Y-95167169D01*
X50277674Y-95167169D01*
X50277675Y-95167170D01*
X50278862Y-95167488D01*
X50281377Y-95168162D01*
X50281394Y-95168172D01*
X50319511Y-95185743D01*
X50322720Y-95187948D01*
X50322723Y-95187951D01*
X50327616Y-95190776D01*
X50327666Y-95190807D01*
X50346158Y-95201482D01*
X50346178Y-95201493D01*
X50376114Y-95216256D01*
X50376120Y-95216258D01*
X50376133Y-95216265D01*
X50400009Y-95226156D01*
X50431665Y-95236903D01*
X50455986Y-95243420D01*
X50488761Y-95249939D01*
X50514385Y-95253313D01*
X50514397Y-95253313D01*
X50514399Y-95253314D01*
X50547735Y-95255500D01*
X50547740Y-95255500D01*
X50861451Y-95255500D01*
X50861461Y-95255500D01*
X50891505Y-95253727D01*
X50914628Y-95250989D01*
X50944261Y-95245695D01*
X50949856Y-95244351D01*
X51015034Y-95218834D01*
X51061913Y-95192577D01*
X51102987Y-95163949D01*
X51164652Y-95085731D01*
X51221615Y-95045271D01*
X51262030Y-95038500D01*
X51380472Y-95038500D01*
X51380475Y-95038500D01*
X51520485Y-95000984D01*
X51646015Y-94928509D01*
X51748509Y-94826015D01*
X51820984Y-94700485D01*
X51858500Y-94560475D01*
X51858500Y-94415525D01*
X51820984Y-94275515D01*
X51820449Y-94274589D01*
X51748511Y-94149988D01*
X51748506Y-94149982D01*
X51745892Y-94147368D01*
X51739687Y-94136779D01*
X51739470Y-94135910D01*
X51737841Y-94133516D01*
X51723666Y-94107556D01*
X51708500Y-94048132D01*
X51708500Y-93010084D01*
X51713521Y-92975157D01*
X51716707Y-92964304D01*
X51754477Y-92905523D01*
X51818031Y-92876494D01*
X51887186Y-92886432D01*
X51894172Y-92889622D01*
X51930342Y-92914735D01*
X52261398Y-93245791D01*
X52282550Y-93274047D01*
X52290731Y-93289030D01*
X52305744Y-93354642D01*
X52305079Y-93367937D01*
X52299165Y-93400065D01*
X52266603Y-93500279D01*
X52266598Y-93500295D01*
X52266598Y-93500297D01*
X52266597Y-93500301D01*
X52266595Y-93500311D01*
X52257773Y-93556012D01*
X52239500Y-93671383D01*
X52239500Y-93671389D01*
X52239500Y-93844611D01*
X52266598Y-94015701D01*
X52320127Y-94180445D01*
X52398768Y-94334788D01*
X52500586Y-94474928D01*
X52623072Y-94597414D01*
X52763212Y-94699232D01*
X52917555Y-94777873D01*
X53082299Y-94831402D01*
X53253389Y-94858500D01*
X53253390Y-94858500D01*
X53426610Y-94858500D01*
X53426611Y-94858500D01*
X53597701Y-94831402D01*
X53762445Y-94777873D01*
X53916788Y-94699232D01*
X54056928Y-94597414D01*
X54179414Y-94474928D01*
X54281232Y-94334788D01*
X54359873Y-94180445D01*
X54413402Y-94015701D01*
X54440500Y-93844611D01*
X54440500Y-93671389D01*
X54413402Y-93500299D01*
X54359873Y-93335555D01*
X54281232Y-93181212D01*
X54179414Y-93041072D01*
X54056928Y-92918586D01*
X53916788Y-92816768D01*
X53762449Y-92738128D01*
X53611227Y-92688992D01*
X53611216Y-92688989D01*
X53597701Y-92684598D01*
X53597699Y-92684597D01*
X53597698Y-92684597D01*
X53583296Y-92682316D01*
X53583292Y-92682315D01*
X53460478Y-92662864D01*
X53460476Y-92662863D01*
X53446931Y-92660718D01*
X53426614Y-92657500D01*
X53426611Y-92657500D01*
X53253389Y-92657500D01*
X53253388Y-92657500D01*
X53221190Y-92662599D01*
X53221189Y-92662598D01*
X53082313Y-92684594D01*
X53082302Y-92684596D01*
X53082279Y-92684603D01*
X52983351Y-92716747D01*
X52948576Y-92722765D01*
X52931509Y-92723252D01*
X52866225Y-92706835D01*
X52854680Y-92700206D01*
X52828748Y-92680355D01*
X52519426Y-92371033D01*
X52498274Y-92342777D01*
X52485667Y-92319688D01*
X52470500Y-92260263D01*
X52470500Y-92207756D01*
X52475522Y-92172824D01*
X52479170Y-92160399D01*
X52516943Y-92101620D01*
X52580498Y-92072594D01*
X52644785Y-92080436D01*
X52653374Y-92083922D01*
X52679619Y-92098498D01*
X52763211Y-92159232D01*
X52763215Y-92159234D01*
X52763341Y-92159297D01*
X52917555Y-92237873D01*
X53082299Y-92291402D01*
X53253389Y-92318500D01*
X53253390Y-92318500D01*
X53426610Y-92318500D01*
X53426611Y-92318500D01*
X53597701Y-92291402D01*
X53762445Y-92237873D01*
X53916788Y-92159232D01*
X53998199Y-92100081D01*
X54029400Y-92083619D01*
X54041607Y-92079263D01*
X54111361Y-92075278D01*
X54172199Y-92109637D01*
X54203633Y-92166238D01*
X54205862Y-92175236D01*
X54209500Y-92205052D01*
X54209500Y-92540729D01*
X54236791Y-92642586D01*
X54254047Y-92672474D01*
X54289519Y-92733912D01*
X54801398Y-93245791D01*
X54822550Y-93274047D01*
X54830731Y-93289030D01*
X54845744Y-93354642D01*
X54845079Y-93367937D01*
X54839165Y-93400065D01*
X54806603Y-93500279D01*
X54806598Y-93500295D01*
X54806598Y-93500297D01*
X54806597Y-93500301D01*
X54806595Y-93500311D01*
X54797773Y-93556012D01*
X54779500Y-93671383D01*
X54779500Y-93844610D01*
X54806598Y-94015702D01*
X54806598Y-94015705D01*
X54857616Y-94172720D01*
X54860126Y-94180445D01*
X54938770Y-94334791D01*
X54984107Y-94397193D01*
X55000576Y-94428403D01*
X55004927Y-94440596D01*
X55008919Y-94510352D01*
X54974564Y-94571192D01*
X54917953Y-94602634D01*
X54908954Y-94604863D01*
X54879141Y-94608500D01*
X54576271Y-94608500D01*
X54474411Y-94635792D01*
X54474408Y-94635793D01*
X54383097Y-94688513D01*
X54383083Y-94688522D01*
X54383078Y-94688526D01*
X53852206Y-95219398D01*
X53823950Y-95240550D01*
X53808967Y-95248731D01*
X53743355Y-95263744D01*
X53738612Y-95263507D01*
X53730058Y-95263079D01*
X53697932Y-95257165D01*
X53597698Y-95224597D01*
X53466271Y-95203781D01*
X53450407Y-95201268D01*
X53426614Y-95197500D01*
X53426611Y-95197500D01*
X53253389Y-95197500D01*
X53253388Y-95197500D01*
X53213726Y-95203781D01*
X53213725Y-95203780D01*
X53082304Y-95224596D01*
X52917549Y-95278129D01*
X52763218Y-95356764D01*
X52763205Y-95356772D01*
X52697391Y-95404588D01*
X52697392Y-95404589D01*
X52642834Y-95444227D01*
X52642830Y-95444230D01*
X52623072Y-95458586D01*
X52623070Y-95458588D01*
X52623069Y-95458588D01*
X52500588Y-95581069D01*
X52500588Y-95581070D01*
X52500586Y-95581072D01*
X52486234Y-95600825D01*
X52486227Y-95600833D01*
X52470502Y-95622479D01*
X52470500Y-95622482D01*
X52398767Y-95721211D01*
X52320101Y-95875604D01*
X52319629Y-95876547D01*
X52318547Y-95880413D01*
X52293362Y-95957926D01*
X52293362Y-95957927D01*
X52266597Y-96040300D01*
X52239500Y-96211383D01*
X52239500Y-96384614D01*
X52259754Y-96512493D01*
X52266598Y-96555701D01*
X52320127Y-96720445D01*
X52398768Y-96874788D01*
X52500586Y-97014928D01*
X52623072Y-97137414D01*
X52763212Y-97239232D01*
X52917555Y-97317873D01*
X53082299Y-97371402D01*
X53253389Y-97398500D01*
X53253390Y-97398500D01*
X53426610Y-97398500D01*
X53426611Y-97398500D01*
X53597701Y-97371402D01*
X53762445Y-97317873D01*
X53916788Y-97239232D01*
X54056928Y-97137414D01*
X54179414Y-97014928D01*
X54281232Y-96874788D01*
X54359873Y-96720445D01*
X54413402Y-96555701D01*
X54440500Y-96384611D01*
X54440500Y-96211389D01*
X54413402Y-96040299D01*
X54381250Y-95941347D01*
X54375232Y-95906568D01*
X54374745Y-95889512D01*
X54391155Y-95824237D01*
X54397789Y-95812683D01*
X54417632Y-95786758D01*
X54745973Y-95458419D01*
X54774219Y-95437275D01*
X54797311Y-95424667D01*
X54856736Y-95409500D01*
X54904047Y-95409500D01*
X54938982Y-95414523D01*
X54951406Y-95418171D01*
X55010184Y-95455945D01*
X55039209Y-95519501D01*
X55031366Y-95583786D01*
X55027880Y-95592374D01*
X55013322Y-95618595D01*
X55010514Y-95622462D01*
X55010495Y-95622489D01*
X54938767Y-95721211D01*
X54860101Y-95875604D01*
X54859629Y-95876547D01*
X54858547Y-95880413D01*
X54833362Y-95957926D01*
X54833362Y-95957927D01*
X54806597Y-96040300D01*
X54779500Y-96211383D01*
X54779500Y-96384614D01*
X54799754Y-96512493D01*
X54806598Y-96555701D01*
X54860127Y-96720445D01*
X54938768Y-96874788D01*
X55040586Y-97014928D01*
X55163072Y-97137414D01*
X55303212Y-97239232D01*
X55457555Y-97317873D01*
X55622299Y-97371402D01*
X55793389Y-97398500D01*
X55793390Y-97398500D01*
X55966610Y-97398500D01*
X55966611Y-97398500D01*
X56137701Y-97371402D01*
X56302445Y-97317873D01*
X56456788Y-97239232D01*
X56596928Y-97137414D01*
X56719414Y-97014928D01*
X56821232Y-96874788D01*
X56899873Y-96720445D01*
X56953402Y-96555701D01*
X56980500Y-96384611D01*
X56980500Y-96211389D01*
X56953402Y-96040299D01*
X56899873Y-95875555D01*
X56821232Y-95721212D01*
X56719414Y-95581072D01*
X56651155Y-95512813D01*
X56630003Y-95484557D01*
X56622511Y-95470836D01*
X56607659Y-95402576D01*
X56607788Y-95400767D01*
X56627154Y-95342571D01*
X56631344Y-95336051D01*
X56647968Y-95315423D01*
X57597480Y-94365913D01*
X57650207Y-94274588D01*
X57677500Y-94172727D01*
X57677500Y-94067273D01*
X57677500Y-87847121D01*
X57677501Y-87847070D01*
X57677501Y-87729275D01*
X57677500Y-87729268D01*
X57670320Y-87702471D01*
X57670320Y-87702470D01*
X57650209Y-87627418D01*
X57650207Y-87627416D01*
X57650207Y-87627413D01*
X57625016Y-87583781D01*
X57618475Y-87572451D01*
X57612446Y-87562009D01*
X57599332Y-87539294D01*
X57597847Y-87536534D01*
X57597614Y-87536221D01*
X57517560Y-87456167D01*
X57517517Y-87456125D01*
X57140892Y-87079500D01*
X56760915Y-86699521D01*
X56715250Y-86673155D01*
X56715250Y-86673156D01*
X56669589Y-86646793D01*
X56618657Y-86633146D01*
X56618656Y-86633145D01*
X56567730Y-86619500D01*
X56567727Y-86619500D01*
X56567726Y-86619500D01*
X55353084Y-86619500D01*
X55318148Y-86614477D01*
X55292906Y-86607065D01*
X55240161Y-86575769D01*
X55192871Y-86528479D01*
X55159386Y-86467156D01*
X55164370Y-86397464D01*
X55180232Y-86367915D01*
X55198476Y-86342807D01*
X55234768Y-86271583D01*
X55238148Y-86261181D01*
X55247508Y-86222195D01*
X55252354Y-86191601D01*
X55255500Y-86151629D01*
X55255500Y-59199270D01*
X55275185Y-59132231D01*
X55327989Y-59086476D01*
X55397147Y-59076532D01*
X55435796Y-59088786D01*
X55444302Y-59093120D01*
X55457550Y-59099871D01*
X55457552Y-59099871D01*
X55457555Y-59099873D01*
X55622299Y-59153402D01*
X55793389Y-59180500D01*
X55793390Y-59180500D01*
X55966610Y-59180500D01*
X55966611Y-59180500D01*
X56137701Y-59153402D01*
X56302445Y-59099873D01*
X56456788Y-59021232D01*
X56596928Y-58919414D01*
X56719414Y-58796928D01*
X56821232Y-58656788D01*
X56899873Y-58502445D01*
X56953402Y-58337701D01*
X56980500Y-58166611D01*
X56980500Y-57993389D01*
X56953402Y-57822299D01*
X56899873Y-57657555D01*
X56821232Y-57503212D01*
X56719414Y-57363072D01*
X56596928Y-57240586D01*
X56456788Y-57138768D01*
X56302449Y-57060128D01*
X56151215Y-57010988D01*
X56151203Y-57010985D01*
X56137701Y-57006598D01*
X56137699Y-57006597D01*
X56137698Y-57006597D01*
X56123312Y-57004318D01*
X56123306Y-57004317D01*
X56033188Y-56990044D01*
X56006271Y-56985781D01*
X55990407Y-56983268D01*
X55966614Y-56979500D01*
X55966611Y-56979500D01*
X55793389Y-56979500D01*
X55793388Y-56979500D01*
X55753726Y-56985781D01*
X55753725Y-56985780D01*
X55622304Y-57006596D01*
X55457548Y-57060129D01*
X55435793Y-57071214D01*
X55367123Y-57084109D01*
X55302383Y-57057831D01*
X55262127Y-57000724D01*
X55255500Y-56960728D01*
X55255500Y-56659270D01*
X55275185Y-56592231D01*
X55327989Y-56546476D01*
X55397147Y-56536532D01*
X55435796Y-56548786D01*
X55444302Y-56553120D01*
X55457550Y-56559871D01*
X55457552Y-56559871D01*
X55457555Y-56559873D01*
X55622299Y-56613402D01*
X55793389Y-56640500D01*
X55793390Y-56640500D01*
X55966610Y-56640500D01*
X55966611Y-56640500D01*
X56137701Y-56613402D01*
X56302445Y-56559873D01*
X56456788Y-56481232D01*
X56596928Y-56379414D01*
X56719414Y-56256928D01*
X56821232Y-56116788D01*
X56899873Y-55962445D01*
X56953402Y-55797701D01*
X56980500Y-55626611D01*
X56980500Y-55453389D01*
X56953402Y-55282299D01*
X56899873Y-55117555D01*
X56898726Y-55114024D01*
X56894788Y-55098598D01*
X56893881Y-55093770D01*
X56891282Y-55079930D01*
X56898251Y-55010416D01*
X56902171Y-55000758D01*
X56929383Y-54959717D01*
X57841742Y-54047359D01*
X57867409Y-54027663D01*
X57894735Y-54011886D01*
X57924628Y-53999505D01*
X57997485Y-53979984D01*
X58123015Y-53907509D01*
X58225509Y-53805015D01*
X58297984Y-53679485D01*
X58335500Y-53539475D01*
X58335500Y-53394525D01*
X58297984Y-53254515D01*
X58297982Y-53254512D01*
X58297983Y-53254512D01*
X58285257Y-53232471D01*
X58285256Y-53232470D01*
X58225513Y-53128991D01*
X58225508Y-53128984D01*
X58225493Y-53128968D01*
X58123030Y-53026505D01*
X58123014Y-53026490D01*
X58123011Y-53026488D01*
X58073367Y-52997826D01*
X57997488Y-52954017D01*
X57997489Y-52954017D01*
X57973208Y-52947511D01*
X57962107Y-52944536D01*
X57962104Y-52944535D01*
X57888004Y-52924680D01*
X57857475Y-52916500D01*
X57857474Y-52916500D01*
X57712525Y-52916500D01*
X57596791Y-52947511D01*
X57596790Y-52947510D01*
X57572512Y-52954016D01*
X57572507Y-52954018D01*
X57446992Y-53026485D01*
X57446984Y-53026490D01*
X57446968Y-53026505D01*
X57344505Y-53128968D01*
X57344490Y-53128984D01*
X57344485Y-53128992D01*
X57272017Y-53254509D01*
X57272013Y-53254521D01*
X57260955Y-53295786D01*
X57252493Y-53327367D01*
X57240105Y-53357273D01*
X57224337Y-53384582D01*
X57204633Y-53410260D01*
X57136879Y-53478014D01*
X57108621Y-53499167D01*
X57099240Y-53504289D01*
X57030967Y-53519139D01*
X56965503Y-53494720D01*
X56923634Y-53438785D01*
X56916731Y-53380428D01*
X56917210Y-53376502D01*
X56922364Y-53353222D01*
X56953402Y-53257701D01*
X56980500Y-53086611D01*
X56980500Y-52913389D01*
X56953402Y-52742299D01*
X56899873Y-52577555D01*
X56821232Y-52423212D01*
X56719414Y-52283072D01*
X56596928Y-52160586D01*
X56456788Y-52058768D01*
X56456774Y-52058761D01*
X56302449Y-51980128D01*
X56151215Y-51930988D01*
X56151203Y-51930985D01*
X56137701Y-51926598D01*
X56137699Y-51926597D01*
X56137698Y-51926597D01*
X56123312Y-51924318D01*
X56123306Y-51924317D01*
X56033188Y-51910044D01*
X56006271Y-51905781D01*
X55990407Y-51903268D01*
X55966614Y-51899500D01*
X55966611Y-51899500D01*
X55793389Y-51899500D01*
X55793388Y-51899500D01*
X55753726Y-51905781D01*
X55753725Y-51905780D01*
X55622298Y-51926597D01*
X55622273Y-51926603D01*
X55621863Y-51926739D01*
X55460393Y-51979205D01*
X55460390Y-51979206D01*
X55457553Y-51980127D01*
X55376739Y-52021304D01*
X55308070Y-52034200D01*
X55243330Y-52007923D01*
X55232267Y-51994663D01*
X55231859Y-51994453D01*
X55228048Y-51989607D01*
X55211093Y-51969284D01*
X55208630Y-51964677D01*
X55208014Y-51963190D01*
X55206589Y-51960721D01*
X55206544Y-51960643D01*
X55205532Y-51958891D01*
X55191985Y-51942166D01*
X55165086Y-51877685D01*
X55177319Y-51808894D01*
X55200661Y-51776439D01*
X55421164Y-51555936D01*
X55449415Y-51534788D01*
X55464400Y-51526605D01*
X55530019Y-51511594D01*
X55543312Y-51512259D01*
X55575434Y-51518174D01*
X55601384Y-51526606D01*
X55622299Y-51533402D01*
X55793389Y-51560500D01*
X55793390Y-51560500D01*
X55966610Y-51560500D01*
X55966611Y-51560500D01*
X56137701Y-51533402D01*
X56302445Y-51479873D01*
X56456788Y-51401232D01*
X56596928Y-51299414D01*
X56719414Y-51176928D01*
X56821232Y-51036788D01*
X56899873Y-50882445D01*
X56953402Y-50717701D01*
X56980500Y-50546611D01*
X56980500Y-50373389D01*
X56953402Y-50202299D01*
X56899873Y-50037555D01*
X56821232Y-49883212D01*
X56719414Y-49743072D01*
X56596928Y-49620586D01*
X56456788Y-49518768D01*
X56302449Y-49440128D01*
X56151215Y-49390988D01*
X56151203Y-49390985D01*
X56137701Y-49386598D01*
X56137699Y-49386597D01*
X56137698Y-49386597D01*
X56123312Y-49384318D01*
X56123306Y-49384317D01*
X56023640Y-49368532D01*
X56006271Y-49365781D01*
X55990407Y-49363268D01*
X55966614Y-49359500D01*
X55966611Y-49359500D01*
X55793389Y-49359500D01*
X55793388Y-49359500D01*
X55753726Y-49365781D01*
X55753725Y-49365780D01*
X55622298Y-49386597D01*
X55622273Y-49386603D01*
X55621863Y-49386739D01*
X55467878Y-49436773D01*
X55467876Y-49436773D01*
X55457556Y-49440126D01*
X55457552Y-49440127D01*
X55435794Y-49451214D01*
X55367125Y-49464110D01*
X55302385Y-49437833D01*
X55262128Y-49380727D01*
X55255500Y-49340729D01*
X55255500Y-49039270D01*
X55275185Y-48972231D01*
X55327989Y-48926476D01*
X55397147Y-48916532D01*
X55435796Y-48928786D01*
X55444302Y-48933120D01*
X55457550Y-48939871D01*
X55457552Y-48939871D01*
X55457555Y-48939873D01*
X55622299Y-48993402D01*
X55793389Y-49020500D01*
X55793390Y-49020500D01*
X55966610Y-49020500D01*
X55966611Y-49020500D01*
X56137701Y-48993402D01*
X56302445Y-48939873D01*
X56456788Y-48861232D01*
X56596928Y-48759414D01*
X56719414Y-48636928D01*
X56821232Y-48496788D01*
X56899873Y-48342445D01*
X56953402Y-48177701D01*
X56980500Y-48006611D01*
X56980500Y-47833389D01*
X56953402Y-47662299D01*
X56899873Y-47497555D01*
X56821232Y-47343212D01*
X56719414Y-47203072D01*
X56596928Y-47080586D01*
X56456788Y-46978768D01*
X56302449Y-46900128D01*
X56151215Y-46850988D01*
X56151203Y-46850985D01*
X56137701Y-46846598D01*
X56137699Y-46846597D01*
X56137698Y-46846597D01*
X56123312Y-46844318D01*
X56123306Y-46844317D01*
X56033188Y-46830044D01*
X56006271Y-46825781D01*
X55990407Y-46823268D01*
X55966614Y-46819500D01*
X55966611Y-46819500D01*
X55793389Y-46819500D01*
X55793388Y-46819500D01*
X55753726Y-46825781D01*
X55753725Y-46825780D01*
X55622304Y-46846596D01*
X55457548Y-46900129D01*
X55435793Y-46911214D01*
X55367123Y-46924109D01*
X55302383Y-46897831D01*
X55262127Y-46840724D01*
X55255500Y-46800728D01*
X55255500Y-45007240D01*
X55242994Y-44928283D01*
X55242993Y-44928279D01*
X55224084Y-44870089D01*
X55187790Y-44798865D01*
X55187789Y-44798863D01*
X55187787Y-44798860D01*
X55184805Y-44794756D01*
X55184801Y-44794751D01*
X55184795Y-44794743D01*
X55158762Y-44764262D01*
X55158761Y-44764261D01*
X55158753Y-44764254D01*
X55128279Y-44738227D01*
X55128254Y-44738208D01*
X55078775Y-44702262D01*
X55078769Y-44702258D01*
X55078768Y-44702257D01*
X55078766Y-44702256D01*
X55007562Y-44665975D01*
X55007558Y-44665973D01*
X54994875Y-44661852D01*
X54955864Y-44652487D01*
X54925283Y-44647645D01*
X54925279Y-44647644D01*
X54925276Y-44647644D01*
X54921280Y-44647329D01*
X54885329Y-44644500D01*
X54885320Y-44644500D01*
X41301094Y-44644500D01*
X41234055Y-44624815D01*
X41188300Y-44572011D01*
X41181321Y-44552601D01*
X41150484Y-44437515D01*
X41078009Y-44311985D01*
X40975515Y-44209491D01*
X40975513Y-44209489D01*
X40974821Y-44208990D01*
X40972302Y-44207635D01*
X40921743Y-44178445D01*
X40893308Y-44148624D01*
X40838507Y-44133939D01*
X40838507Y-44133940D01*
X40774240Y-44116720D01*
X40709975Y-44099500D01*
X40709974Y-44099500D01*
X40565025Y-44099500D01*
X40436494Y-44133939D01*
X40436493Y-44133940D01*
X40428838Y-44135991D01*
X40425010Y-44137017D01*
X40299491Y-44209485D01*
X40299484Y-44209490D01*
X40299468Y-44209505D01*
X40197005Y-44311968D01*
X40196990Y-44311984D01*
X40196985Y-44311992D01*
X40124517Y-44437509D01*
X40124489Y-44437579D01*
X40124248Y-44438510D01*
X40093681Y-44552592D01*
X40057317Y-44612253D01*
X39994470Y-44642783D01*
X39973906Y-44644500D01*
X25607242Y-44644500D01*
X25528309Y-44656999D01*
X25528306Y-44656999D01*
X25528304Y-44657000D01*
X25528300Y-44657001D01*
X25528297Y-44657002D01*
X25470121Y-44675900D01*
X25470119Y-44675901D01*
X25398953Y-44712145D01*
X25397305Y-44713341D01*
X25395407Y-44714720D01*
X25395400Y-44714725D01*
X25394788Y-44715170D01*
X25394786Y-44715171D01*
X25338210Y-44771738D01*
X25338206Y-44771743D01*
X25302251Y-44821239D01*
X25265963Y-44892470D01*
X25261845Y-44905147D01*
X25252489Y-44944125D01*
X25247644Y-44974720D01*
X25244500Y-45014670D01*
X25244500Y-45014680D01*
X25244500Y-47013426D01*
X25244500Y-47013432D01*
X25244808Y-47025972D01*
X25245282Y-47035642D01*
X25245283Y-47035651D01*
X25246147Y-47039329D01*
X25246274Y-47039877D01*
X25249014Y-47051795D01*
X25250141Y-47090028D01*
X25260244Y-47146613D01*
X25284115Y-47217702D01*
X25289672Y-47228608D01*
X25290671Y-47232952D01*
X25297514Y-47241892D01*
X25312076Y-47265656D01*
X25312087Y-47265671D01*
X25330280Y-47290714D01*
X25356328Y-47321214D01*
X25567590Y-47532476D01*
X25601075Y-47593799D01*
X25597841Y-47658473D01*
X25596597Y-47662301D01*
X25581204Y-47759487D01*
X25581205Y-47759488D01*
X25569500Y-47833389D01*
X25569500Y-48006611D01*
X25580339Y-48075047D01*
X25596598Y-48177704D01*
X25596598Y-48177706D01*
X25597840Y-48181527D01*
X25599831Y-48251368D01*
X25567589Y-48307518D01*
X25354927Y-48520183D01*
X25354924Y-48520187D01*
X25331859Y-48546665D01*
X25331854Y-48546671D01*
X25331851Y-48546675D01*
X25315488Y-48568296D01*
X25315477Y-48568312D01*
X25306802Y-48581575D01*
X25306797Y-48581585D01*
X25296283Y-48597664D01*
X25291386Y-48606410D01*
X25264751Y-48676501D01*
X25264331Y-48678414D01*
X25264329Y-48678420D01*
X25252437Y-48732644D01*
X25247206Y-48808762D01*
X25245973Y-48819645D01*
X25244500Y-48828948D01*
X25244500Y-49740062D01*
X25224815Y-49807101D01*
X25172011Y-49852856D01*
X25102853Y-49862800D01*
X25039297Y-49833775D01*
X25020182Y-49812948D01*
X25015934Y-49807101D01*
X24969414Y-49743072D01*
X24846928Y-49620586D01*
X24706788Y-49518768D01*
X24552449Y-49440128D01*
X24401215Y-49390988D01*
X24401203Y-49390985D01*
X24387701Y-49386598D01*
X24387699Y-49386597D01*
X24387698Y-49386597D01*
X24373312Y-49384318D01*
X24373306Y-49384317D01*
X24273640Y-49368532D01*
X24256271Y-49365781D01*
X24240407Y-49363268D01*
X24216614Y-49359500D01*
X24216611Y-49359500D01*
X24043389Y-49359500D01*
X24043385Y-49359500D01*
X24003729Y-49365781D01*
X23986359Y-49368532D01*
X23881938Y-49385071D01*
X23881930Y-49385071D01*
X23881931Y-49385072D01*
X23872292Y-49386598D01*
X23807097Y-49407782D01*
X23772321Y-49413800D01*
X23755254Y-49414287D01*
X23689970Y-49397870D01*
X23678425Y-49391241D01*
X23652493Y-49371390D01*
X22424365Y-48143262D01*
X22404658Y-48117579D01*
X22388890Y-48090267D01*
X22376503Y-48060363D01*
X22362100Y-48006611D01*
X22362100Y-48006609D01*
X22356984Y-47987515D01*
X22356983Y-47987514D01*
X22284509Y-47861985D01*
X22255913Y-47833389D01*
X23029500Y-47833389D01*
X23029500Y-48006611D01*
X23040511Y-48076131D01*
X23047075Y-48117579D01*
X23056598Y-48177701D01*
X23110127Y-48342445D01*
X23188768Y-48496788D01*
X23290586Y-48636928D01*
X23413072Y-48759414D01*
X23553212Y-48861232D01*
X23707555Y-48939873D01*
X23872299Y-48993402D01*
X24043389Y-49020500D01*
X24043390Y-49020500D01*
X24216610Y-49020500D01*
X24216611Y-49020500D01*
X24387701Y-48993402D01*
X24552445Y-48939873D01*
X24706788Y-48861232D01*
X24846928Y-48759414D01*
X24969414Y-48636928D01*
X25071232Y-48496788D01*
X25149873Y-48342445D01*
X25203402Y-48177701D01*
X25230500Y-48006611D01*
X25230500Y-47833389D01*
X25203402Y-47662299D01*
X25149873Y-47497555D01*
X25081301Y-47362974D01*
X25079480Y-47353276D01*
X25071934Y-47344179D01*
X25071233Y-47343214D01*
X25071232Y-47343212D01*
X24969414Y-47203072D01*
X24846928Y-47080586D01*
X24706788Y-46978768D01*
X24552449Y-46900128D01*
X24401215Y-46850988D01*
X24401203Y-46850985D01*
X24387701Y-46846598D01*
X24387699Y-46846597D01*
X24387698Y-46846597D01*
X24373312Y-46844318D01*
X24373306Y-46844317D01*
X24283188Y-46830044D01*
X24256271Y-46825781D01*
X24240407Y-46823268D01*
X24216614Y-46819500D01*
X24216611Y-46819500D01*
X24043389Y-46819500D01*
X24043388Y-46819500D01*
X24003726Y-46825781D01*
X24003725Y-46825780D01*
X23872304Y-46846596D01*
X23707549Y-46900129D01*
X23553210Y-46978768D01*
X23473256Y-47036859D01*
X23473255Y-47036859D01*
X23424941Y-47071961D01*
X23417564Y-47076092D01*
X23286095Y-47207561D01*
X23281967Y-47214934D01*
X23276497Y-47222464D01*
X23276491Y-47222472D01*
X23188768Y-47343210D01*
X23110129Y-47497547D01*
X23056598Y-47662297D01*
X23056596Y-47662303D01*
X23041204Y-47759487D01*
X23041205Y-47759488D01*
X23029500Y-47833389D01*
X22255913Y-47833389D01*
X22182015Y-47759491D01*
X22182012Y-47759488D01*
X22181321Y-47758990D01*
X22178802Y-47757635D01*
X22128243Y-47728445D01*
X22099808Y-47698624D01*
X22045007Y-47683939D01*
X22045007Y-47683940D01*
X21964252Y-47662302D01*
X21916475Y-47649500D01*
X21916474Y-47649500D01*
X21771525Y-47649500D01*
X21642994Y-47683939D01*
X21642993Y-47683940D01*
X21635338Y-47685991D01*
X21631510Y-47687017D01*
X21505991Y-47759485D01*
X21505988Y-47759488D01*
X21505985Y-47759491D01*
X21505968Y-47759505D01*
X21403505Y-47861968D01*
X21403490Y-47861984D01*
X21403485Y-47861992D01*
X21331017Y-47987509D01*
X21330989Y-47987578D01*
X21330748Y-47988511D01*
X21293500Y-48127525D01*
X21293500Y-48272474D01*
X21331013Y-48412477D01*
X21331016Y-48412485D01*
X21331017Y-48412488D01*
X21376411Y-48491112D01*
X21401631Y-48534795D01*
X21403489Y-48538013D01*
X21505985Y-48640509D01*
X21506679Y-48641009D01*
X21509206Y-48642369D01*
X21538866Y-48659493D01*
X21631515Y-48712984D01*
X21704370Y-48732504D01*
X21734267Y-48744889D01*
X21761584Y-48760661D01*
X21787261Y-48780364D01*
X23027680Y-50020784D01*
X23048831Y-50049037D01*
X23057013Y-50064021D01*
X23072026Y-50129646D01*
X23071361Y-50142936D01*
X23065449Y-50175051D01*
X23056598Y-50202295D01*
X23029500Y-50373383D01*
X23029500Y-50546615D01*
X23054315Y-50703293D01*
X23054316Y-50703301D01*
X23056597Y-50717697D01*
X23056597Y-50717699D01*
X23056598Y-50717701D01*
X23060988Y-50731213D01*
X23060992Y-50731228D01*
X23109260Y-50879778D01*
X23110124Y-50882437D01*
X23110126Y-50882442D01*
X23110128Y-50882447D01*
X23110129Y-50882448D01*
X23124423Y-50910501D01*
X23124423Y-50910502D01*
X23188766Y-51036784D01*
X23188770Y-51036792D01*
X23222361Y-51083025D01*
X23290586Y-51176928D01*
X23413072Y-51299414D01*
X23553212Y-51401232D01*
X23707555Y-51479873D01*
X23872299Y-51533402D01*
X24043389Y-51560500D01*
X24043390Y-51560500D01*
X24216610Y-51560500D01*
X24216611Y-51560500D01*
X24387701Y-51533402D01*
X24552445Y-51479873D01*
X24706788Y-51401232D01*
X24846928Y-51299414D01*
X24969414Y-51176928D01*
X25071232Y-51036788D01*
X25149873Y-50882445D01*
X25203402Y-50717701D01*
X25230500Y-50546611D01*
X25230500Y-50440904D01*
X25250185Y-50373865D01*
X25302989Y-50328110D01*
X25372147Y-50318166D01*
X25404991Y-50327649D01*
X25414661Y-50331960D01*
X25445522Y-50352615D01*
X25487842Y-50364585D01*
X25495991Y-50368218D01*
X25516076Y-50385306D01*
X25538399Y-50399340D01*
X25542266Y-50407589D01*
X25549206Y-50413494D01*
X25556863Y-50438727D01*
X25568056Y-50462603D01*
X25569387Y-50479997D01*
X25569495Y-50480353D01*
X25569431Y-50480576D01*
X25569500Y-50481473D01*
X25569500Y-50546615D01*
X25594315Y-50703293D01*
X25594316Y-50703301D01*
X25596597Y-50717697D01*
X25596597Y-50717699D01*
X25596598Y-50717701D01*
X25600988Y-50731213D01*
X25600992Y-50731228D01*
X25649260Y-50879778D01*
X25650124Y-50882437D01*
X25650126Y-50882442D01*
X25650128Y-50882447D01*
X25650129Y-50882448D01*
X25664423Y-50910501D01*
X25664423Y-50910502D01*
X25728766Y-51036784D01*
X25728770Y-51036792D01*
X25762361Y-51083025D01*
X25796485Y-51129993D01*
X25812952Y-51161200D01*
X25817880Y-51175010D01*
X25821870Y-51244764D01*
X25789187Y-51303947D01*
X25780340Y-51312878D01*
X25754245Y-51332999D01*
X25723925Y-51350503D01*
X25723920Y-51350507D01*
X25723906Y-51350518D01*
X25058515Y-52015908D01*
X25058510Y-52015915D01*
X25047954Y-52034200D01*
X25026425Y-52071490D01*
X25024822Y-52074267D01*
X25014913Y-52091429D01*
X24993096Y-52119169D01*
X24982485Y-52129287D01*
X24920381Y-52161301D01*
X24853034Y-52155516D01*
X24851884Y-52155081D01*
X24841277Y-52151067D01*
X24812280Y-52135413D01*
X24706788Y-52058768D01*
X24706774Y-52058761D01*
X24552449Y-51980128D01*
X24401215Y-51930988D01*
X24401203Y-51930985D01*
X24387701Y-51926598D01*
X24387699Y-51926597D01*
X24387698Y-51926597D01*
X24373312Y-51924318D01*
X24373306Y-51924317D01*
X24283188Y-51910044D01*
X24256271Y-51905781D01*
X24240407Y-51903268D01*
X24216614Y-51899500D01*
X24216611Y-51899500D01*
X24043389Y-51899500D01*
X24043388Y-51899500D01*
X24003726Y-51905781D01*
X24003725Y-51905780D01*
X23872298Y-51926597D01*
X23872273Y-51926603D01*
X23871863Y-51926739D01*
X23710393Y-51979205D01*
X23710392Y-51979204D01*
X23707559Y-51980125D01*
X23707550Y-51980129D01*
X23553222Y-52058761D01*
X23553205Y-52058772D01*
X23487010Y-52106866D01*
X23432837Y-52146224D01*
X23432830Y-52146230D01*
X23413072Y-52160586D01*
X23413070Y-52160588D01*
X23413069Y-52160588D01*
X23290588Y-52283069D01*
X23290588Y-52283070D01*
X23290586Y-52283072D01*
X23283679Y-52292579D01*
X23276234Y-52302825D01*
X23276224Y-52302836D01*
X23188770Y-52423207D01*
X23110129Y-52577549D01*
X23056596Y-52742305D01*
X23029500Y-52913383D01*
X23029500Y-53086615D01*
X23056090Y-53254502D01*
X23056091Y-53254502D01*
X23056093Y-53254515D01*
X23056598Y-53257704D01*
X23101054Y-53394523D01*
X23110126Y-53422444D01*
X23148633Y-53498017D01*
X23188766Y-53576784D01*
X23188770Y-53576792D01*
X23231100Y-53635053D01*
X23290586Y-53716928D01*
X23413072Y-53839414D01*
X23553212Y-53941232D01*
X23707555Y-54019873D01*
X23872299Y-54073402D01*
X24043389Y-54100500D01*
X24043390Y-54100500D01*
X24216610Y-54100500D01*
X24216611Y-54100500D01*
X24387701Y-54073402D01*
X24552445Y-54019873D01*
X24706788Y-53941232D01*
X24757191Y-53904610D01*
X24799766Y-53884690D01*
X24812257Y-53881541D01*
X24812899Y-53884089D01*
X24829864Y-53877199D01*
X24898537Y-53890078D01*
X24949346Y-53938039D01*
X24962627Y-53970738D01*
X24962925Y-53971940D01*
X24961546Y-54036715D01*
X24956065Y-54055381D01*
X24924769Y-54108126D01*
X24588837Y-54444057D01*
X24560581Y-54465209D01*
X24545598Y-54473390D01*
X24479986Y-54488403D01*
X24475719Y-54488189D01*
X24466689Y-54487738D01*
X24434563Y-54481824D01*
X24387703Y-54466598D01*
X24387682Y-54466594D01*
X24256271Y-54445781D01*
X24236110Y-54442588D01*
X24216614Y-54439500D01*
X24216611Y-54439500D01*
X24043389Y-54439500D01*
X24043388Y-54439500D01*
X24003726Y-54445781D01*
X24003725Y-54445780D01*
X23872304Y-54466596D01*
X23707549Y-54520129D01*
X23553218Y-54598764D01*
X23553205Y-54598772D01*
X23486122Y-54647510D01*
X23486123Y-54647511D01*
X23432834Y-54686227D01*
X23432830Y-54686230D01*
X23413072Y-54700586D01*
X23413070Y-54700588D01*
X23413069Y-54700588D01*
X23290588Y-54823069D01*
X23290588Y-54823070D01*
X23290586Y-54823072D01*
X23290584Y-54823075D01*
X23276233Y-54842826D01*
X23276224Y-54842836D01*
X23188770Y-54963207D01*
X23110129Y-55117549D01*
X23056596Y-55282305D01*
X23029500Y-55453383D01*
X23029500Y-55626614D01*
X23052604Y-55772488D01*
X23056596Y-55797696D01*
X23056598Y-55797701D01*
X23110127Y-55962445D01*
X23188768Y-56116788D01*
X23290586Y-56256928D01*
X23413072Y-56379414D01*
X23553212Y-56481232D01*
X23707555Y-56559873D01*
X23872299Y-56613402D01*
X24043389Y-56640500D01*
X24043390Y-56640500D01*
X24216610Y-56640500D01*
X24216611Y-56640500D01*
X24387701Y-56613402D01*
X24552445Y-56559873D01*
X24706788Y-56481232D01*
X24846928Y-56379414D01*
X24969414Y-56256928D01*
X25071232Y-56116788D01*
X25149873Y-55962445D01*
X25203402Y-55797701D01*
X25230500Y-55626611D01*
X25230500Y-55453389D01*
X25203402Y-55282299D01*
X25188589Y-55236713D01*
X25182572Y-55201944D01*
X25182085Y-55184880D01*
X25198499Y-55119600D01*
X25205130Y-55108051D01*
X25224978Y-55082122D01*
X25637250Y-54669852D01*
X25698570Y-54636369D01*
X25766709Y-54641241D01*
X25760212Y-54609180D01*
X25756305Y-54589905D01*
X25777319Y-54535746D01*
X25775425Y-54534653D01*
X25785137Y-54517831D01*
X25818814Y-54459500D01*
X25838799Y-54424886D01*
X25869500Y-54310309D01*
X25869500Y-54039888D01*
X25874523Y-54004953D01*
X25878171Y-53992529D01*
X25915945Y-53933751D01*
X25979501Y-53904726D01*
X26043776Y-53912565D01*
X26052366Y-53916051D01*
X26078581Y-53930602D01*
X26079469Y-53931247D01*
X26079501Y-53931271D01*
X26079502Y-53931271D01*
X26093210Y-53941231D01*
X26093212Y-53941232D01*
X26093216Y-53941234D01*
X26093224Y-53941239D01*
X26093415Y-53941335D01*
X26247555Y-54019873D01*
X26412299Y-54073402D01*
X26412302Y-54073402D01*
X26412303Y-54073403D01*
X26478511Y-54083889D01*
X26546834Y-54094710D01*
X26578582Y-54109760D01*
X26581807Y-54110369D01*
X26583755Y-54112212D01*
X26609969Y-54124639D01*
X26628724Y-54154758D01*
X26632560Y-54158388D01*
X26633593Y-54162579D01*
X26646901Y-54183950D01*
X26646461Y-54214740D01*
X26649294Y-54226224D01*
X26646117Y-54238800D01*
X26645903Y-54253813D01*
X26644519Y-54258023D01*
X26640946Y-54268265D01*
X26635413Y-54278156D01*
X26612450Y-54333663D01*
X26610806Y-54354670D01*
X26605518Y-54369832D01*
X26594149Y-54385714D01*
X26587202Y-54403967D01*
X26574233Y-54413540D01*
X26564851Y-54426648D01*
X26546700Y-54433863D01*
X26530988Y-54445462D01*
X26507835Y-54451465D01*
X26412304Y-54466596D01*
X26247549Y-54520129D01*
X26093207Y-54598770D01*
X26045500Y-54633432D01*
X25964274Y-54692446D01*
X25964271Y-54692448D01*
X25960333Y-54695310D01*
X25952738Y-54700828D01*
X25907659Y-54716913D01*
X25886936Y-54724308D01*
X25886935Y-54724307D01*
X25886932Y-54724309D01*
X25846300Y-54714860D01*
X25835016Y-54712237D01*
X25848612Y-54748689D01*
X25833760Y-54816962D01*
X25825246Y-54830420D01*
X25728771Y-54963206D01*
X25727133Y-54966418D01*
X25725896Y-54968848D01*
X25650129Y-55117549D01*
X25596596Y-55282305D01*
X25569500Y-55453383D01*
X25569500Y-55626614D01*
X25592604Y-55772488D01*
X25596596Y-55797696D01*
X25596598Y-55797701D01*
X25650127Y-55962445D01*
X25728768Y-56116788D01*
X25830586Y-56256928D01*
X25953072Y-56379414D01*
X26093212Y-56481232D01*
X26247555Y-56559873D01*
X26412299Y-56613402D01*
X26583389Y-56640500D01*
X26583390Y-56640500D01*
X26593888Y-56640500D01*
X26660927Y-56660185D01*
X26706682Y-56712989D01*
X26709335Y-56719246D01*
X26710667Y-56722644D01*
X26724722Y-56765806D01*
X26743668Y-56806834D01*
X26745006Y-56810246D01*
X26747767Y-56841546D01*
X26752370Y-56872628D01*
X26750813Y-56876074D01*
X26751146Y-56879845D01*
X26736543Y-56907673D01*
X26723614Y-56936306D01*
X26720439Y-56938364D01*
X26718682Y-56941715D01*
X26691356Y-56957229D01*
X26664996Y-56974328D01*
X26659942Y-56975065D01*
X26657923Y-56976212D01*
X26653681Y-56975979D01*
X26629559Y-56979500D01*
X25795319Y-56979500D01*
X25722285Y-56994027D01*
X25722262Y-56994032D01*
X25722258Y-56994033D01*
X25639399Y-57049399D01*
X25584033Y-57132258D01*
X25584032Y-57132266D01*
X25584028Y-57132281D01*
X25569500Y-57205318D01*
X25569500Y-57205321D01*
X25569500Y-58954678D01*
X25569500Y-58954680D01*
X25569499Y-58954680D01*
X25581657Y-59015797D01*
X25575430Y-59085389D01*
X25532567Y-59140566D01*
X25498358Y-59157920D01*
X25465381Y-59168634D01*
X25410844Y-59193774D01*
X25337635Y-59261442D01*
X25301672Y-59310936D01*
X25265373Y-59382168D01*
X25261859Y-59392984D01*
X25261848Y-59393022D01*
X25252495Y-59431976D01*
X25247647Y-59462583D01*
X25247646Y-59462588D01*
X25244501Y-59502537D01*
X25244500Y-59502565D01*
X25244500Y-59543007D01*
X25247644Y-59582952D01*
X25247646Y-59582973D01*
X25252488Y-59613553D01*
X25256404Y-59633237D01*
X25298140Y-59723771D01*
X25298143Y-59723776D01*
X25334094Y-59773259D01*
X25334100Y-59773267D01*
X25334102Y-59773270D01*
X25334105Y-59773273D01*
X25374876Y-59817378D01*
X25374878Y-59817379D01*
X25374880Y-59817381D01*
X25424087Y-59844937D01*
X25472962Y-59894867D01*
X25487500Y-59953127D01*
X25487500Y-62352327D01*
X25467815Y-62419366D01*
X25422463Y-62458813D01*
X25423486Y-62460558D01*
X25418225Y-62463641D01*
X25368740Y-62499594D01*
X25368732Y-62499600D01*
X25324622Y-62540376D01*
X25324620Y-62540378D01*
X25275914Y-62627351D01*
X25275910Y-62627360D01*
X25257005Y-62685546D01*
X25244500Y-62764500D01*
X25244500Y-87958062D01*
X25224815Y-88025101D01*
X25172011Y-88070856D01*
X25102853Y-88080800D01*
X25039297Y-88051775D01*
X25020182Y-88030948D01*
X24973614Y-87966853D01*
X24969414Y-87961072D01*
X24846928Y-87838586D01*
X24706788Y-87736768D01*
X24706774Y-87736761D01*
X24552449Y-87658128D01*
X24401215Y-87608988D01*
X24401203Y-87608985D01*
X24387701Y-87604598D01*
X24387699Y-87604597D01*
X24387698Y-87604597D01*
X24373312Y-87602318D01*
X24373306Y-87602317D01*
X24283188Y-87588044D01*
X24256271Y-87583781D01*
X24239677Y-87581153D01*
X24216614Y-87577500D01*
X24216611Y-87577500D01*
X24043389Y-87577500D01*
X24043388Y-87577500D01*
X24003726Y-87583781D01*
X24003725Y-87583780D01*
X23872298Y-87604597D01*
X23872275Y-87604603D01*
X23871824Y-87604752D01*
X23807345Y-87625703D01*
X23717998Y-87654734D01*
X23717995Y-87654735D01*
X23707552Y-87658127D01*
X23553222Y-87736761D01*
X23553216Y-87736765D01*
X23553211Y-87736768D01*
X23515814Y-87763939D01*
X23515813Y-87763940D01*
X23432834Y-87824227D01*
X23432830Y-87824230D01*
X23413072Y-87838586D01*
X23413070Y-87838588D01*
X23413069Y-87838588D01*
X23290588Y-87961069D01*
X23290588Y-87961070D01*
X23290586Y-87961072D01*
X23276234Y-87980825D01*
X23276227Y-87980833D01*
X23260502Y-88002479D01*
X23260500Y-88002482D01*
X23188767Y-88101211D01*
X23110129Y-88255549D01*
X23056596Y-88420305D01*
X23056595Y-88420306D01*
X23038246Y-88536166D01*
X23037288Y-88542216D01*
X23034692Y-88558607D01*
X23029500Y-88591385D01*
X23029500Y-88591389D01*
X23029500Y-88764611D01*
X23056598Y-88935701D01*
X23110127Y-89100445D01*
X23188768Y-89254788D01*
X23290586Y-89394928D01*
X23413072Y-89517414D01*
X23553212Y-89619232D01*
X23707555Y-89697873D01*
X23872299Y-89751402D01*
X24043389Y-89778500D01*
X24043390Y-89778500D01*
X24216610Y-89778500D01*
X24216611Y-89778500D01*
X24387701Y-89751402D01*
X24552445Y-89697873D01*
X24706788Y-89619232D01*
X24846928Y-89517414D01*
X24969414Y-89394928D01*
X25071232Y-89254788D01*
X25149873Y-89100445D01*
X25203402Y-88935701D01*
X25230500Y-88764611D01*
X25230500Y-88658904D01*
X25250185Y-88591865D01*
X25302989Y-88546110D01*
X25372147Y-88536166D01*
X25404991Y-88545649D01*
X25414661Y-88549960D01*
X25445522Y-88570615D01*
X25487842Y-88582585D01*
X25495991Y-88586218D01*
X25516076Y-88603306D01*
X25538399Y-88617340D01*
X25542266Y-88625589D01*
X25549206Y-88631494D01*
X25556863Y-88656727D01*
X25568056Y-88680603D01*
X25569387Y-88697997D01*
X25569495Y-88698353D01*
X25569431Y-88698576D01*
X25569500Y-88699473D01*
X25569500Y-88764611D01*
X25596598Y-88935701D01*
X25650127Y-89100445D01*
X25728768Y-89254788D01*
X25830586Y-89394928D01*
X25953072Y-89517414D01*
X26093212Y-89619232D01*
X26247555Y-89697873D01*
X26412299Y-89751402D01*
X26583389Y-89778500D01*
X26583390Y-89778500D01*
X26756610Y-89778500D01*
X26756611Y-89778500D01*
X26927701Y-89751402D01*
X27092445Y-89697873D01*
X27246788Y-89619232D01*
X27328199Y-89560081D01*
X27359400Y-89543619D01*
X27371607Y-89539263D01*
X27441361Y-89535278D01*
X27502199Y-89569637D01*
X27533633Y-89626238D01*
X27535862Y-89635236D01*
X27539500Y-89665052D01*
X27539500Y-90228242D01*
X27534475Y-90263183D01*
X27530826Y-90275608D01*
X27493049Y-90334384D01*
X27429492Y-90363406D01*
X27365216Y-90355563D01*
X27356625Y-90352076D01*
X27330375Y-90337498D01*
X27315054Y-90326367D01*
X27284185Y-90303939D01*
X27246788Y-90276768D01*
X27215333Y-90260741D01*
X27092449Y-90198128D01*
X26941215Y-90148988D01*
X26941203Y-90148985D01*
X26927701Y-90144598D01*
X26927699Y-90144597D01*
X26927698Y-90144597D01*
X26913312Y-90142318D01*
X26913306Y-90142317D01*
X26823188Y-90128044D01*
X26796271Y-90123781D01*
X26780407Y-90121268D01*
X26756614Y-90117500D01*
X26756611Y-90117500D01*
X26583389Y-90117500D01*
X26583388Y-90117500D01*
X26543726Y-90123781D01*
X26543725Y-90123780D01*
X26412304Y-90144596D01*
X26247549Y-90198129D01*
X26093218Y-90276764D01*
X26093205Y-90276772D01*
X26043189Y-90313110D01*
X26043190Y-90313111D01*
X25972834Y-90364227D01*
X25972830Y-90364230D01*
X25953072Y-90378586D01*
X25953070Y-90378588D01*
X25953069Y-90378588D01*
X25830588Y-90501069D01*
X25830588Y-90501070D01*
X25830586Y-90501072D01*
X25816232Y-90520827D01*
X25816226Y-90520834D01*
X25801934Y-90540507D01*
X25801933Y-90540509D01*
X25728768Y-90641210D01*
X25650129Y-90795549D01*
X25596596Y-90960305D01*
X25569500Y-91131383D01*
X25569500Y-91304614D01*
X25592874Y-91452193D01*
X25596596Y-91475694D01*
X25596597Y-91475697D01*
X25596598Y-91475701D01*
X25650127Y-91640445D01*
X25728768Y-91794788D01*
X25830586Y-91934928D01*
X25953072Y-92057414D01*
X26093212Y-92159232D01*
X26247555Y-92237873D01*
X26412299Y-92291402D01*
X26583389Y-92318500D01*
X26583390Y-92318500D01*
X26756610Y-92318500D01*
X26756611Y-92318500D01*
X26927701Y-92291402D01*
X27092445Y-92237873D01*
X27246788Y-92159232D01*
X27328199Y-92100081D01*
X27359400Y-92083619D01*
X27371607Y-92079263D01*
X27441361Y-92075278D01*
X27502199Y-92109637D01*
X27533633Y-92166238D01*
X27535862Y-92175236D01*
X27539500Y-92205052D01*
X27539500Y-92252914D01*
X27534476Y-92287851D01*
X27527064Y-92313092D01*
X27495769Y-92365836D01*
X27182206Y-92679398D01*
X27153950Y-92700550D01*
X27138967Y-92708731D01*
X27073355Y-92723744D01*
X27068612Y-92723507D01*
X27060058Y-92723079D01*
X27027932Y-92717165D01*
X27001975Y-92708731D01*
X26927698Y-92684596D01*
X26790478Y-92662864D01*
X26790476Y-92662863D01*
X26776931Y-92660718D01*
X26756614Y-92657500D01*
X26756611Y-92657500D01*
X26583389Y-92657500D01*
X26583386Y-92657500D01*
X26563068Y-92660718D01*
X26549522Y-92662864D01*
X26549521Y-92662864D01*
X26412302Y-92684596D01*
X26412301Y-92684596D01*
X26247547Y-92738129D01*
X26093210Y-92816768D01*
X26020609Y-92869517D01*
X25964943Y-92909961D01*
X25957562Y-92914094D01*
X25826092Y-93045564D01*
X25821961Y-93052941D01*
X25786859Y-93101255D01*
X25786859Y-93101256D01*
X25728768Y-93181210D01*
X25650129Y-93335547D01*
X25596598Y-93500297D01*
X25596597Y-93500301D01*
X25587773Y-93556013D01*
X25569500Y-93671383D01*
X25569500Y-93671389D01*
X25569500Y-93844611D01*
X25596598Y-94015701D01*
X25650127Y-94180445D01*
X25728768Y-94334788D01*
X25830586Y-94474928D01*
X25953072Y-94597414D01*
X26093212Y-94699232D01*
X26247555Y-94777873D01*
X26412299Y-94831402D01*
X26583389Y-94858500D01*
X26583390Y-94858500D01*
X26756610Y-94858500D01*
X26756611Y-94858500D01*
X26927701Y-94831402D01*
X27092445Y-94777873D01*
X27246788Y-94699232D01*
X27328199Y-94640081D01*
X27359400Y-94623619D01*
X27371607Y-94619263D01*
X27441361Y-94615278D01*
X27502199Y-94649637D01*
X27533633Y-94706238D01*
X27535862Y-94715236D01*
X27539500Y-94745052D01*
X27539500Y-95308242D01*
X27534475Y-95343183D01*
X27530826Y-95355608D01*
X27493049Y-95414384D01*
X27429492Y-95443406D01*
X27365206Y-95435559D01*
X27356617Y-95432072D01*
X27330377Y-95417498D01*
X27246792Y-95356770D01*
X27092449Y-95278128D01*
X26941215Y-95228988D01*
X26941203Y-95228985D01*
X26927701Y-95224598D01*
X26927699Y-95224597D01*
X26927698Y-95224597D01*
X26913312Y-95222318D01*
X26913306Y-95222317D01*
X26823188Y-95208044D01*
X26796271Y-95203781D01*
X26780407Y-95201268D01*
X26756614Y-95197500D01*
X26756611Y-95197500D01*
X26583389Y-95197500D01*
X26583388Y-95197500D01*
X26543726Y-95203781D01*
X26543725Y-95203780D01*
X26412304Y-95224596D01*
X26247549Y-95278129D01*
X26093218Y-95356764D01*
X26093205Y-95356772D01*
X26027391Y-95404588D01*
X26027392Y-95404589D01*
X25972834Y-95444227D01*
X25972830Y-95444230D01*
X25953072Y-95458586D01*
X25953070Y-95458588D01*
X25953069Y-95458588D01*
X25830588Y-95581069D01*
X25830588Y-95581070D01*
X25830586Y-95581072D01*
X25816234Y-95600825D01*
X25816227Y-95600833D01*
X25800502Y-95622479D01*
X25800500Y-95622482D01*
X25728767Y-95721211D01*
X25650101Y-95875604D01*
X25649629Y-95876547D01*
X25648547Y-95880413D01*
X25623362Y-95957926D01*
X25623362Y-95957927D01*
X25596597Y-96040300D01*
X25569500Y-96211383D01*
X25569500Y-96384614D01*
X25589754Y-96512493D01*
X25596598Y-96555701D01*
X25650127Y-96720445D01*
X25728768Y-96874788D01*
X25830586Y-97014928D01*
X25953072Y-97137414D01*
X26093212Y-97239232D01*
X26247555Y-97317873D01*
X26412299Y-97371402D01*
X26583389Y-97398500D01*
X26583390Y-97398500D01*
X26756610Y-97398500D01*
X26756611Y-97398500D01*
X26927701Y-97371402D01*
X27092445Y-97317873D01*
X27246788Y-97239232D01*
X27328199Y-97180081D01*
X27359400Y-97163619D01*
X27371607Y-97159263D01*
X27441361Y-97155278D01*
X27502199Y-97189637D01*
X27533633Y-97246238D01*
X27535862Y-97255236D01*
X27539500Y-97285052D01*
X27539500Y-97332914D01*
X27534476Y-97367851D01*
X27527064Y-97393092D01*
X27495769Y-97445836D01*
X27182206Y-97759398D01*
X27153950Y-97780550D01*
X27138967Y-97788731D01*
X27073355Y-97803744D01*
X27068612Y-97803507D01*
X27060058Y-97803079D01*
X27027932Y-97797165D01*
X26927698Y-97764597D01*
X26796271Y-97743781D01*
X26780407Y-97741268D01*
X26756614Y-97737500D01*
X26756611Y-97737500D01*
X26583389Y-97737500D01*
X26583388Y-97737500D01*
X26543726Y-97743781D01*
X26543725Y-97743780D01*
X26412304Y-97764596D01*
X26247549Y-97818129D01*
X26093211Y-97896767D01*
X26071579Y-97912485D01*
X25964943Y-97989961D01*
X25957562Y-97994094D01*
X25826094Y-98125562D01*
X25821964Y-98132938D01*
X25816466Y-98140506D01*
X25816464Y-98140509D01*
X25816463Y-98140511D01*
X25728768Y-98261211D01*
X25728765Y-98261215D01*
X25728764Y-98261218D01*
X25650129Y-98415549D01*
X25596596Y-98580305D01*
X25569500Y-98751383D01*
X25569500Y-98751389D01*
X25569500Y-98924611D01*
X25576038Y-98965893D01*
X25596597Y-99095697D01*
X25650127Y-99260445D01*
X25650129Y-99260449D01*
X25728770Y-99414791D01*
X25774107Y-99477193D01*
X25790576Y-99508403D01*
X25794927Y-99520596D01*
X25798919Y-99590352D01*
X25764564Y-99651192D01*
X25707953Y-99682634D01*
X25698954Y-99684863D01*
X25669141Y-99688500D01*
X25366271Y-99688500D01*
X25264411Y-99715792D01*
X25264408Y-99715793D01*
X25173097Y-99768513D01*
X25173083Y-99768522D01*
X25173078Y-99768526D01*
X24642206Y-100299398D01*
X24613950Y-100320550D01*
X24598967Y-100328731D01*
X24533355Y-100343744D01*
X24528612Y-100343507D01*
X24520058Y-100343079D01*
X24487932Y-100337165D01*
X24387698Y-100304597D01*
X24256271Y-100283781D01*
X24240407Y-100281268D01*
X24216614Y-100277500D01*
X24216611Y-100277500D01*
X24043389Y-100277500D01*
X24043388Y-100277500D01*
X24003726Y-100283781D01*
X24003725Y-100283780D01*
X23872304Y-100304596D01*
X23707549Y-100358129D01*
X23553218Y-100436764D01*
X23553215Y-100436765D01*
X23553211Y-100436768D01*
X23480633Y-100489500D01*
X23464249Y-100501403D01*
X23424941Y-100529962D01*
X23417563Y-100534093D01*
X23286092Y-100665564D01*
X23281961Y-100672941D01*
X23246859Y-100721255D01*
X23246859Y-100721256D01*
X23188768Y-100801210D01*
X23110101Y-100955604D01*
X23109629Y-100956547D01*
X23108547Y-100960413D01*
X23083362Y-101037926D01*
X23083362Y-101037927D01*
X23056597Y-101120298D01*
X23056597Y-101120301D01*
X23045952Y-101187514D01*
X23045952Y-101187516D01*
X23029500Y-101291384D01*
X23029500Y-101464610D01*
X23052921Y-101612489D01*
X23056598Y-101635701D01*
X23110127Y-101800445D01*
X23188768Y-101954788D01*
X23290586Y-102094928D01*
X23413072Y-102217414D01*
X23553212Y-102319232D01*
X23707555Y-102397873D01*
X23872299Y-102451402D01*
X24043389Y-102478500D01*
X24043390Y-102478500D01*
X24216610Y-102478500D01*
X24216611Y-102478500D01*
X24387701Y-102451402D01*
X24552445Y-102397873D01*
X24706788Y-102319232D01*
X24846928Y-102217414D01*
X24969414Y-102094928D01*
X25071232Y-101954788D01*
X25149873Y-101800445D01*
X25203402Y-101635701D01*
X25230500Y-101464611D01*
X25230500Y-101291389D01*
X25203402Y-101120299D01*
X25171250Y-101021347D01*
X25165232Y-100986568D01*
X25164745Y-100969512D01*
X25181155Y-100904237D01*
X25187789Y-100892683D01*
X25207632Y-100866758D01*
X25535973Y-100538419D01*
X25564219Y-100517275D01*
X25587311Y-100504667D01*
X25646736Y-100489500D01*
X25694047Y-100489500D01*
X25728982Y-100494523D01*
X25741406Y-100498171D01*
X25800184Y-100535945D01*
X25829209Y-100599501D01*
X25821367Y-100663784D01*
X25817882Y-100672370D01*
X25803306Y-100698617D01*
X25769622Y-100744981D01*
X25769620Y-100744983D01*
X25728772Y-100801205D01*
X25728768Y-100801211D01*
X25728766Y-100801213D01*
X25728764Y-100801218D01*
X25650101Y-100955604D01*
X25649629Y-100956547D01*
X25648547Y-100960413D01*
X25623362Y-101037926D01*
X25623362Y-101037927D01*
X25596597Y-101120298D01*
X25596597Y-101120301D01*
X25585952Y-101187514D01*
X25585952Y-101187516D01*
X25569500Y-101291384D01*
X25569500Y-101464610D01*
X25592921Y-101612489D01*
X25596598Y-101635701D01*
X25650127Y-101800445D01*
X25728768Y-101954788D01*
X25830586Y-102094928D01*
X25953072Y-102217414D01*
X26093212Y-102319232D01*
X26247555Y-102397873D01*
X26412299Y-102451402D01*
X26583389Y-102478500D01*
X26583390Y-102478500D01*
X26756610Y-102478500D01*
X26756611Y-102478500D01*
X26927701Y-102451402D01*
X27092445Y-102397873D01*
X27246788Y-102319232D01*
X27386928Y-102217414D01*
X27509414Y-102094928D01*
X27611232Y-101954788D01*
X27689873Y-101800445D01*
X27743402Y-101635701D01*
X27770500Y-101464611D01*
X27770500Y-101291389D01*
X27770499Y-101291384D01*
X27744223Y-101125478D01*
X27742747Y-101109621D01*
X27742022Y-101084236D01*
X27758436Y-101018953D01*
X27765065Y-101007408D01*
X27784913Y-100981477D01*
X29020480Y-99745913D01*
X29073207Y-99654588D01*
X29100500Y-99552727D01*
X29100500Y-99447273D01*
X29100500Y-99035084D01*
X29105522Y-99000151D01*
X29112934Y-98974906D01*
X29144228Y-98922164D01*
X29315004Y-98751389D01*
X29784480Y-98281913D01*
X29837207Y-98190588D01*
X29864500Y-98088727D01*
X29864500Y-97983273D01*
X29864500Y-94397082D01*
X29869522Y-94362149D01*
X29876934Y-94336904D01*
X29908228Y-94284162D01*
X30363214Y-93829175D01*
X30391460Y-93808030D01*
X30401395Y-93802605D01*
X30469666Y-93787755D01*
X30535130Y-93812172D01*
X30577001Y-93868105D01*
X30579682Y-93875293D01*
X30587500Y-93918627D01*
X30587500Y-95197273D01*
X30587500Y-95302727D01*
X30593426Y-95324844D01*
X30614793Y-95404589D01*
X30634592Y-95438882D01*
X30667519Y-95495912D01*
X32115722Y-96944115D01*
X32136873Y-96972368D01*
X32143525Y-96984550D01*
X32158377Y-97052823D01*
X32133961Y-97118288D01*
X32133930Y-97118329D01*
X32132956Y-97119629D01*
X32087913Y-97156808D01*
X32083406Y-97158998D01*
X32061306Y-97167243D01*
X32032379Y-97174994D01*
X32032378Y-97174993D01*
X31987513Y-97187015D01*
X31987506Y-97187018D01*
X31861990Y-97259485D01*
X31861984Y-97259490D01*
X31861968Y-97259505D01*
X31759505Y-97361968D01*
X31759490Y-97361984D01*
X31759485Y-97361992D01*
X31687017Y-97487509D01*
X31686989Y-97487578D01*
X31686748Y-97488511D01*
X31649500Y-97627525D01*
X31649500Y-97772475D01*
X31665583Y-97832499D01*
X31665584Y-97832499D01*
X31687018Y-97912492D01*
X31757631Y-98034795D01*
X31759489Y-98038013D01*
X31861985Y-98140509D01*
X31862674Y-98141005D01*
X31865178Y-98142353D01*
X31984069Y-98210995D01*
X31987087Y-98212869D01*
X31987514Y-98212983D01*
X31987515Y-98212984D01*
X32127525Y-98250500D01*
X32127528Y-98250500D01*
X32272473Y-98250500D01*
X32272474Y-98250500D01*
X32272475Y-98250500D01*
X32319190Y-98237982D01*
X32354224Y-98233792D01*
X32368104Y-98234122D01*
X32434654Y-98255395D01*
X32479139Y-98309269D01*
X32482486Y-98317084D01*
X32492500Y-98365902D01*
X32492500Y-110931784D01*
X32487476Y-110966722D01*
X32479993Y-110992204D01*
X32455135Y-111036357D01*
X32455528Y-111036631D01*
X32454108Y-111038665D01*
X32454294Y-111038820D01*
X32452614Y-111040835D01*
X32452596Y-111040868D01*
X32452495Y-111040977D01*
X32452494Y-111040979D01*
X32452485Y-111040992D01*
X32380017Y-111166509D01*
X32379989Y-111166578D01*
X32379748Y-111167511D01*
X32342500Y-111306525D01*
X32342500Y-111451475D01*
X32358446Y-111510983D01*
X32358446Y-111510984D01*
X32380018Y-111591491D01*
X32452485Y-111717006D01*
X32452490Y-111717014D01*
X32452493Y-111717017D01*
X32511190Y-111775714D01*
X32532339Y-111803966D01*
X32537759Y-111813892D01*
X32552611Y-111882165D01*
X32528194Y-111947629D01*
X32472261Y-111989501D01*
X32465073Y-111992182D01*
X32421739Y-112000000D01*
X20642330Y-112000000D01*
X20607389Y-111994975D01*
X20592390Y-111990570D01*
X20533644Y-111952827D01*
X20532457Y-111951458D01*
X20504977Y-111896583D01*
X20503332Y-111889021D01*
X20500500Y-111862668D01*
X20500500Y-106371383D01*
X23029500Y-106371383D01*
X23029500Y-106371389D01*
X23029500Y-106544611D01*
X23056598Y-106715701D01*
X23110127Y-106880445D01*
X23188768Y-107034788D01*
X23290586Y-107174928D01*
X23413072Y-107297414D01*
X23553212Y-107399232D01*
X23707555Y-107477873D01*
X23872299Y-107531402D01*
X24043389Y-107558500D01*
X24043390Y-107558500D01*
X24216610Y-107558500D01*
X24216611Y-107558500D01*
X24387701Y-107531402D01*
X24552445Y-107477873D01*
X24706788Y-107399232D01*
X24798389Y-107332680D01*
X25569499Y-107332680D01*
X25584028Y-107405717D01*
X25584032Y-107405735D01*
X25584033Y-107405739D01*
X25587480Y-107411826D01*
X25590816Y-107415891D01*
X25639399Y-107488601D01*
X25722256Y-107543964D01*
X25722258Y-107543965D01*
X25722259Y-107543965D01*
X25722260Y-107543966D01*
X25722264Y-107543967D01*
X25722279Y-107543970D01*
X25722288Y-107543972D01*
X25767021Y-107552869D01*
X25787681Y-107556979D01*
X25790415Y-107557703D01*
X25795323Y-107558500D01*
X27544676Y-107558500D01*
X27548796Y-107558500D01*
X27556648Y-107556117D01*
X27617740Y-107543966D01*
X27700601Y-107488601D01*
X27755966Y-107405740D01*
X27770500Y-107332674D01*
X27770500Y-105845525D01*
X30945500Y-105845525D01*
X30945500Y-105990475D01*
X30946888Y-105995654D01*
X30983013Y-106130477D01*
X30983017Y-106130488D01*
X30983018Y-106130489D01*
X31053631Y-106252795D01*
X31055489Y-106256013D01*
X31157985Y-106358509D01*
X31158674Y-106359005D01*
X31161178Y-106360353D01*
X31280069Y-106428995D01*
X31283087Y-106430869D01*
X31283514Y-106430983D01*
X31283515Y-106430984D01*
X31423525Y-106468500D01*
X31423528Y-106468500D01*
X31568472Y-106468500D01*
X31568475Y-106468500D01*
X31708485Y-106430984D01*
X31834015Y-106358509D01*
X31936509Y-106256015D01*
X32008984Y-106130485D01*
X32046500Y-105990475D01*
X32046500Y-105845525D01*
X32008984Y-105705515D01*
X31972880Y-105642982D01*
X31972880Y-105642981D01*
X31936513Y-105579991D01*
X31936508Y-105579984D01*
X31936493Y-105579968D01*
X31834030Y-105477505D01*
X31834014Y-105477490D01*
X31834006Y-105477485D01*
X31780243Y-105446445D01*
X31751808Y-105416624D01*
X31697007Y-105401939D01*
X31697007Y-105401940D01*
X31623772Y-105382317D01*
X31568475Y-105367500D01*
X31568474Y-105367500D01*
X31423525Y-105367500D01*
X31294994Y-105401939D01*
X31294993Y-105401940D01*
X31287338Y-105403991D01*
X31283510Y-105405017D01*
X31157991Y-105477485D01*
X31157984Y-105477490D01*
X31157968Y-105477505D01*
X31055505Y-105579968D01*
X31055490Y-105579984D01*
X31055485Y-105579992D01*
X30984287Y-105703308D01*
X30984286Y-105703312D01*
X30983017Y-105705511D01*
X30983016Y-105705515D01*
X30945500Y-105845525D01*
X27770500Y-105845525D01*
X27770500Y-105583326D01*
X27770500Y-105583323D01*
X27770499Y-105583321D01*
X27755967Y-105510264D01*
X27755966Y-105510260D01*
X27734072Y-105477493D01*
X27713327Y-105446445D01*
X27700604Y-105427403D01*
X27700600Y-105427398D01*
X27627891Y-105378816D01*
X27623826Y-105375480D01*
X27617739Y-105372033D01*
X27617735Y-105372032D01*
X27617709Y-105372026D01*
X27544680Y-105357500D01*
X27544677Y-105357500D01*
X27544674Y-105357500D01*
X25795326Y-105357500D01*
X25795323Y-105357500D01*
X25795319Y-105357500D01*
X25722285Y-105372027D01*
X25722262Y-105372032D01*
X25722258Y-105372033D01*
X25639399Y-105427399D01*
X25584033Y-105510258D01*
X25584032Y-105510266D01*
X25584028Y-105510281D01*
X25569500Y-105583318D01*
X25569500Y-105583321D01*
X25569500Y-107332678D01*
X25569500Y-107332680D01*
X25569499Y-107332680D01*
X24798389Y-107332680D01*
X24846928Y-107297414D01*
X24969414Y-107174928D01*
X25071232Y-107034788D01*
X25149873Y-106880445D01*
X25203402Y-106715701D01*
X25230500Y-106544611D01*
X25230500Y-106371389D01*
X25203402Y-106200299D01*
X25149873Y-106035555D01*
X25071232Y-105881212D01*
X24969414Y-105741072D01*
X24846928Y-105618586D01*
X24706788Y-105516768D01*
X24552449Y-105438128D01*
X24401215Y-105388988D01*
X24401203Y-105388985D01*
X24387701Y-105384598D01*
X24387699Y-105384597D01*
X24387698Y-105384597D01*
X24373312Y-105382318D01*
X24373306Y-105382317D01*
X24279752Y-105367500D01*
X24256271Y-105363781D01*
X24240407Y-105361268D01*
X24216614Y-105357500D01*
X24216611Y-105357500D01*
X24043389Y-105357500D01*
X24043388Y-105357500D01*
X24003726Y-105363781D01*
X24003725Y-105363780D01*
X23872304Y-105384596D01*
X23707549Y-105438129D01*
X23553210Y-105516768D01*
X23479248Y-105570506D01*
X23424943Y-105609961D01*
X23417562Y-105614094D01*
X23286092Y-105745564D01*
X23281961Y-105752941D01*
X23246859Y-105801255D01*
X23246859Y-105801256D01*
X23188768Y-105881210D01*
X23110129Y-106035547D01*
X23056598Y-106200297D01*
X23056597Y-106200301D01*
X23047773Y-106256013D01*
X23029500Y-106371383D01*
X20500500Y-106371383D01*
X20500500Y-103831383D01*
X23029500Y-103831383D01*
X23029500Y-104004614D01*
X23053595Y-104156745D01*
X23056596Y-104175695D01*
X23056597Y-104175697D01*
X23056598Y-104175701D01*
X23110127Y-104340445D01*
X23188768Y-104494788D01*
X23290586Y-104634928D01*
X23413072Y-104757414D01*
X23553212Y-104859232D01*
X23707555Y-104937873D01*
X23872299Y-104991402D01*
X24043389Y-105018500D01*
X24043390Y-105018500D01*
X24216610Y-105018500D01*
X24216611Y-105018500D01*
X24387701Y-104991402D01*
X24552445Y-104937873D01*
X24706788Y-104859232D01*
X24846928Y-104757414D01*
X24969414Y-104634928D01*
X25071232Y-104494788D01*
X25149873Y-104340445D01*
X25203402Y-104175701D01*
X25230500Y-104004611D01*
X25230500Y-103831389D01*
X25230499Y-103831383D01*
X25569500Y-103831383D01*
X25569500Y-104004614D01*
X25593595Y-104156745D01*
X25596596Y-104175695D01*
X25596597Y-104175697D01*
X25596598Y-104175701D01*
X25650127Y-104340445D01*
X25728768Y-104494788D01*
X25830586Y-104634928D01*
X25953072Y-104757414D01*
X26093212Y-104859232D01*
X26247555Y-104937873D01*
X26412299Y-104991402D01*
X26583389Y-105018500D01*
X26583390Y-105018500D01*
X26756610Y-105018500D01*
X26756611Y-105018500D01*
X26927701Y-104991402D01*
X27092445Y-104937873D01*
X27246788Y-104859232D01*
X27386928Y-104757414D01*
X27509414Y-104634928D01*
X27611232Y-104494788D01*
X27689873Y-104340445D01*
X27743402Y-104175701D01*
X27770500Y-104004611D01*
X27770500Y-103831389D01*
X27743402Y-103660299D01*
X27689873Y-103495555D01*
X27611232Y-103341212D01*
X27509414Y-103201072D01*
X27386928Y-103078586D01*
X27246788Y-102976768D01*
X27092449Y-102898128D01*
X26941227Y-102848992D01*
X26941216Y-102848989D01*
X26927701Y-102844598D01*
X26927699Y-102844597D01*
X26927698Y-102844597D01*
X26913299Y-102842316D01*
X26913293Y-102842315D01*
X26759585Y-102817970D01*
X26759585Y-102817971D01*
X26756611Y-102817500D01*
X26583389Y-102817500D01*
X26580415Y-102817971D01*
X26580414Y-102817970D01*
X26412301Y-102844596D01*
X26247547Y-102898129D01*
X26093210Y-102976768D01*
X26013256Y-103034859D01*
X26013255Y-103034859D01*
X25964941Y-103069961D01*
X25957564Y-103074092D01*
X25826094Y-103205562D01*
X25821960Y-103212945D01*
X25804941Y-103236369D01*
X25728918Y-103341005D01*
X25728768Y-103341211D01*
X25728766Y-103341213D01*
X25728764Y-103341218D01*
X25650129Y-103495549D01*
X25596596Y-103660305D01*
X25569500Y-103831383D01*
X25230499Y-103831383D01*
X25203402Y-103660299D01*
X25149873Y-103495555D01*
X25071232Y-103341212D01*
X24969414Y-103201072D01*
X24846928Y-103078586D01*
X24706788Y-102976768D01*
X24552449Y-102898128D01*
X24401227Y-102848992D01*
X24401216Y-102848989D01*
X24387701Y-102844598D01*
X24387699Y-102844597D01*
X24387698Y-102844597D01*
X24373299Y-102842316D01*
X24373293Y-102842315D01*
X24219585Y-102817970D01*
X24219585Y-102817971D01*
X24216611Y-102817500D01*
X24043389Y-102817500D01*
X24040415Y-102817971D01*
X24040414Y-102817970D01*
X23872301Y-102844596D01*
X23707547Y-102898129D01*
X23553210Y-102976768D01*
X23473256Y-103034859D01*
X23473255Y-103034859D01*
X23424941Y-103069961D01*
X23417564Y-103074092D01*
X23286094Y-103205562D01*
X23281960Y-103212945D01*
X23264941Y-103236369D01*
X23188918Y-103341005D01*
X23188768Y-103341211D01*
X23188766Y-103341213D01*
X23188764Y-103341218D01*
X23110129Y-103495549D01*
X23056596Y-103660305D01*
X23029500Y-103831383D01*
X20500500Y-103831383D01*
X20500500Y-98751383D01*
X23029500Y-98751383D01*
X23029500Y-98751389D01*
X23029500Y-98924611D01*
X23036038Y-98965891D01*
X23056596Y-99095693D01*
X23056598Y-99095701D01*
X23110127Y-99260445D01*
X23188768Y-99414788D01*
X23290586Y-99554928D01*
X23413072Y-99677414D01*
X23553212Y-99779232D01*
X23707555Y-99857873D01*
X23872299Y-99911402D01*
X24043389Y-99938500D01*
X24043390Y-99938500D01*
X24216610Y-99938500D01*
X24216611Y-99938500D01*
X24387701Y-99911402D01*
X24552445Y-99857873D01*
X24706788Y-99779232D01*
X24846928Y-99677414D01*
X24969414Y-99554928D01*
X25071232Y-99414788D01*
X25149873Y-99260445D01*
X25203402Y-99095701D01*
X25230500Y-98924611D01*
X25230500Y-98751389D01*
X25203402Y-98580299D01*
X25149873Y-98415555D01*
X25071232Y-98261212D01*
X24969414Y-98121072D01*
X24846928Y-97998586D01*
X24706788Y-97896768D01*
X24706786Y-97896767D01*
X24552449Y-97818128D01*
X24401215Y-97768988D01*
X24401203Y-97768985D01*
X24387701Y-97764598D01*
X24387699Y-97764597D01*
X24387698Y-97764597D01*
X24373312Y-97762318D01*
X24373306Y-97762317D01*
X24283188Y-97748044D01*
X24256271Y-97743781D01*
X24240407Y-97741268D01*
X24216614Y-97737500D01*
X24216611Y-97737500D01*
X24043389Y-97737500D01*
X24043388Y-97737500D01*
X24003726Y-97743781D01*
X24003725Y-97743780D01*
X23872304Y-97764596D01*
X23707549Y-97818129D01*
X23553211Y-97896767D01*
X23531579Y-97912485D01*
X23424943Y-97989961D01*
X23417562Y-97994094D01*
X23286094Y-98125562D01*
X23281964Y-98132938D01*
X23276466Y-98140506D01*
X23276464Y-98140509D01*
X23276463Y-98140511D01*
X23188768Y-98261211D01*
X23188765Y-98261215D01*
X23188764Y-98261218D01*
X23110129Y-98415549D01*
X23056596Y-98580305D01*
X23029500Y-98751383D01*
X20500500Y-98751383D01*
X20500500Y-96211383D01*
X23029500Y-96211383D01*
X23029500Y-96384614D01*
X23049754Y-96512493D01*
X23056598Y-96555701D01*
X23110127Y-96720445D01*
X23188768Y-96874788D01*
X23290586Y-97014928D01*
X23413072Y-97137414D01*
X23553212Y-97239232D01*
X23707555Y-97317873D01*
X23872299Y-97371402D01*
X24043389Y-97398500D01*
X24043390Y-97398500D01*
X24216610Y-97398500D01*
X24216611Y-97398500D01*
X24387701Y-97371402D01*
X24552445Y-97317873D01*
X24706788Y-97239232D01*
X24846928Y-97137414D01*
X24969414Y-97014928D01*
X25071232Y-96874788D01*
X25149873Y-96720445D01*
X25203402Y-96555701D01*
X25230500Y-96384611D01*
X25230500Y-96211389D01*
X25203402Y-96040299D01*
X25149873Y-95875555D01*
X25071232Y-95721212D01*
X24969414Y-95581072D01*
X24846928Y-95458586D01*
X24706788Y-95356768D01*
X24666148Y-95336061D01*
X24552449Y-95278128D01*
X24401215Y-95228988D01*
X24401203Y-95228985D01*
X24387701Y-95224598D01*
X24387699Y-95224597D01*
X24387698Y-95224597D01*
X24373312Y-95222318D01*
X24373306Y-95222317D01*
X24283188Y-95208044D01*
X24256271Y-95203781D01*
X24240407Y-95201268D01*
X24216614Y-95197500D01*
X24216611Y-95197500D01*
X24043389Y-95197500D01*
X24043388Y-95197500D01*
X24003726Y-95203781D01*
X24003725Y-95203780D01*
X23872304Y-95224596D01*
X23707549Y-95278129D01*
X23553218Y-95356764D01*
X23553205Y-95356772D01*
X23487391Y-95404588D01*
X23487392Y-95404589D01*
X23432834Y-95444227D01*
X23432830Y-95444230D01*
X23413072Y-95458586D01*
X23413070Y-95458588D01*
X23413069Y-95458588D01*
X23290588Y-95581069D01*
X23290588Y-95581070D01*
X23290586Y-95581072D01*
X23276234Y-95600825D01*
X23276227Y-95600833D01*
X23260502Y-95622479D01*
X23260500Y-95622482D01*
X23188767Y-95721211D01*
X23110101Y-95875604D01*
X23109629Y-95876547D01*
X23108547Y-95880413D01*
X23083362Y-95957926D01*
X23083362Y-95957927D01*
X23056597Y-96040300D01*
X23029500Y-96211383D01*
X20500500Y-96211383D01*
X20500500Y-93671383D01*
X23029500Y-93671383D01*
X23029500Y-93671389D01*
X23029500Y-93844611D01*
X23056598Y-94015701D01*
X23110127Y-94180445D01*
X23188768Y-94334788D01*
X23290586Y-94474928D01*
X23413072Y-94597414D01*
X23553212Y-94699232D01*
X23707555Y-94777873D01*
X23872299Y-94831402D01*
X24043389Y-94858500D01*
X24043390Y-94858500D01*
X24216610Y-94858500D01*
X24216611Y-94858500D01*
X24387701Y-94831402D01*
X24552445Y-94777873D01*
X24706788Y-94699232D01*
X24846928Y-94597414D01*
X24969414Y-94474928D01*
X25071232Y-94334788D01*
X25149873Y-94180445D01*
X25203402Y-94015701D01*
X25230500Y-93844611D01*
X25230500Y-93671389D01*
X25203402Y-93500299D01*
X25149873Y-93335555D01*
X25071232Y-93181212D01*
X24969414Y-93041072D01*
X24846928Y-92918586D01*
X24706788Y-92816768D01*
X24552449Y-92738128D01*
X24401227Y-92688992D01*
X24401216Y-92688989D01*
X24387701Y-92684598D01*
X24387699Y-92684597D01*
X24387698Y-92684597D01*
X24373296Y-92682316D01*
X24373292Y-92682315D01*
X24250478Y-92662864D01*
X24250476Y-92662863D01*
X24236931Y-92660718D01*
X24216614Y-92657500D01*
X24216611Y-92657500D01*
X24043389Y-92657500D01*
X24043386Y-92657500D01*
X24023068Y-92660718D01*
X24009522Y-92662864D01*
X24009521Y-92662864D01*
X23872302Y-92684596D01*
X23872301Y-92684596D01*
X23707547Y-92738129D01*
X23553210Y-92816768D01*
X23480609Y-92869517D01*
X23424943Y-92909961D01*
X23417562Y-92914094D01*
X23286092Y-93045564D01*
X23281961Y-93052941D01*
X23246859Y-93101255D01*
X23246859Y-93101256D01*
X23188768Y-93181210D01*
X23110129Y-93335547D01*
X23056598Y-93500297D01*
X23056597Y-93500301D01*
X23047773Y-93556013D01*
X23029500Y-93671383D01*
X20500500Y-93671383D01*
X20500500Y-91131383D01*
X23029500Y-91131383D01*
X23029500Y-91304614D01*
X23052874Y-91452193D01*
X23056596Y-91475694D01*
X23056597Y-91475697D01*
X23056598Y-91475701D01*
X23110127Y-91640445D01*
X23188768Y-91794788D01*
X23290586Y-91934928D01*
X23413072Y-92057414D01*
X23553212Y-92159232D01*
X23707555Y-92237873D01*
X23872299Y-92291402D01*
X24043389Y-92318500D01*
X24043390Y-92318500D01*
X24216610Y-92318500D01*
X24216611Y-92318500D01*
X24387701Y-92291402D01*
X24552445Y-92237873D01*
X24706788Y-92159232D01*
X24846928Y-92057414D01*
X24969414Y-91934928D01*
X25071232Y-91794788D01*
X25149873Y-91640445D01*
X25203402Y-91475701D01*
X25230500Y-91304611D01*
X25230500Y-91131389D01*
X25203402Y-90960299D01*
X25149873Y-90795555D01*
X25071232Y-90641212D01*
X24969414Y-90501072D01*
X24846928Y-90378586D01*
X24706788Y-90276768D01*
X24675333Y-90260741D01*
X24552449Y-90198128D01*
X24401215Y-90148988D01*
X24401203Y-90148985D01*
X24387701Y-90144598D01*
X24387699Y-90144597D01*
X24387698Y-90144597D01*
X24373312Y-90142318D01*
X24373306Y-90142317D01*
X24283188Y-90128044D01*
X24256271Y-90123781D01*
X24240407Y-90121268D01*
X24216614Y-90117500D01*
X24216611Y-90117500D01*
X24043389Y-90117500D01*
X24043388Y-90117500D01*
X24003726Y-90123781D01*
X24003725Y-90123780D01*
X23872304Y-90144596D01*
X23707549Y-90198129D01*
X23553218Y-90276764D01*
X23553205Y-90276772D01*
X23503189Y-90313110D01*
X23503190Y-90313111D01*
X23432834Y-90364227D01*
X23432830Y-90364230D01*
X23413072Y-90378586D01*
X23413070Y-90378588D01*
X23413069Y-90378588D01*
X23290588Y-90501069D01*
X23290588Y-90501070D01*
X23290586Y-90501072D01*
X23276232Y-90520827D01*
X23276226Y-90520834D01*
X23261934Y-90540507D01*
X23261933Y-90540509D01*
X23188768Y-90641210D01*
X23110129Y-90795549D01*
X23056596Y-90960305D01*
X23029500Y-91131383D01*
X20500500Y-91131383D01*
X20500500Y-57993383D01*
X23029500Y-57993383D01*
X23029500Y-57993389D01*
X23029500Y-58166611D01*
X23056598Y-58337701D01*
X23110127Y-58502445D01*
X23188768Y-58656788D01*
X23290586Y-58796928D01*
X23413072Y-58919414D01*
X23553212Y-59021232D01*
X23707555Y-59099873D01*
X23872299Y-59153402D01*
X24043389Y-59180500D01*
X24043390Y-59180500D01*
X24216610Y-59180500D01*
X24216611Y-59180500D01*
X24387701Y-59153402D01*
X24552445Y-59099873D01*
X24706788Y-59021232D01*
X24846928Y-58919414D01*
X24969414Y-58796928D01*
X25071232Y-58656788D01*
X25149873Y-58502445D01*
X25203402Y-58337701D01*
X25230500Y-58166611D01*
X25230500Y-57993389D01*
X25203402Y-57822299D01*
X25149873Y-57657555D01*
X25071232Y-57503212D01*
X24969414Y-57363072D01*
X24846928Y-57240586D01*
X24706788Y-57138768D01*
X24552449Y-57060128D01*
X24401215Y-57010988D01*
X24401203Y-57010985D01*
X24387701Y-57006598D01*
X24387699Y-57006597D01*
X24387698Y-57006597D01*
X24373312Y-57004318D01*
X24373306Y-57004317D01*
X24283188Y-56990044D01*
X24256271Y-56985781D01*
X24240407Y-56983268D01*
X24216614Y-56979500D01*
X24216611Y-56979500D01*
X24043389Y-56979500D01*
X24043388Y-56979500D01*
X24003726Y-56985781D01*
X24003725Y-56985780D01*
X23872304Y-57006596D01*
X23707549Y-57060129D01*
X23553210Y-57138768D01*
X23473256Y-57196859D01*
X23473255Y-57196859D01*
X23424941Y-57231961D01*
X23417564Y-57236092D01*
X23286092Y-57367564D01*
X23281961Y-57374941D01*
X23246859Y-57423255D01*
X23246859Y-57423256D01*
X23188768Y-57503210D01*
X23110129Y-57657549D01*
X23056596Y-57822305D01*
X23029500Y-57993383D01*
X20500500Y-57993383D01*
X20500500Y-40593622D01*
X22724499Y-40593622D01*
X22761021Y-40777225D01*
X22761027Y-40777252D01*
X22832672Y-40950222D01*
X22832677Y-40950232D01*
X22936698Y-41105909D01*
X22936699Y-41105910D01*
X22936704Y-41105916D01*
X23069082Y-41238294D01*
X23069088Y-41238299D01*
X23069089Y-41238300D01*
X23224761Y-41342318D01*
X23224766Y-41342320D01*
X23224768Y-41342321D01*
X23224769Y-41342322D01*
X23397749Y-41413973D01*
X23569389Y-41448114D01*
X23578408Y-41449908D01*
X23580643Y-41450409D01*
X23581381Y-41450500D01*
X23768617Y-41450500D01*
X23772737Y-41450500D01*
X23780586Y-41448118D01*
X23952251Y-41413973D01*
X24125231Y-41342322D01*
X24280908Y-41238302D01*
X24413302Y-41105908D01*
X24517322Y-40950231D01*
X24588973Y-40777251D01*
X24625499Y-40593622D01*
X49049499Y-40593622D01*
X49086021Y-40777225D01*
X49086027Y-40777252D01*
X49157672Y-40950222D01*
X49157677Y-40950232D01*
X49261698Y-41105909D01*
X49261699Y-41105910D01*
X49261704Y-41105916D01*
X49394082Y-41238294D01*
X49394088Y-41238299D01*
X49394089Y-41238300D01*
X49549761Y-41342318D01*
X49549766Y-41342320D01*
X49549768Y-41342321D01*
X49549769Y-41342322D01*
X49722749Y-41413973D01*
X49894389Y-41448114D01*
X49903408Y-41449908D01*
X49905643Y-41450409D01*
X49906381Y-41450500D01*
X50093617Y-41450500D01*
X50097737Y-41450500D01*
X50105586Y-41448118D01*
X50277251Y-41413973D01*
X50450231Y-41342322D01*
X50605908Y-41238302D01*
X50738302Y-41105908D01*
X50842322Y-40950231D01*
X50913973Y-40777251D01*
X50950500Y-40593616D01*
X50950500Y-40406384D01*
X50913973Y-40222749D01*
X50842322Y-40049769D01*
X50842321Y-40049768D01*
X50842318Y-40049762D01*
X50842318Y-40049761D01*
X50738300Y-39894089D01*
X50738299Y-39894088D01*
X50738294Y-39894082D01*
X50605916Y-39761704D01*
X50605910Y-39761699D01*
X50605909Y-39761698D01*
X50450231Y-39657677D01*
X50450232Y-39657677D01*
X50450222Y-39657672D01*
X50277252Y-39586027D01*
X50277225Y-39586021D01*
X50093622Y-39549500D01*
X50093620Y-39549500D01*
X50093616Y-39549500D01*
X49906384Y-39549500D01*
X49906379Y-39549500D01*
X49906377Y-39549500D01*
X49722773Y-39586021D01*
X49722746Y-39586027D01*
X49549776Y-39657672D01*
X49549766Y-39657677D01*
X49394089Y-39761698D01*
X49394088Y-39761699D01*
X49394082Y-39761704D01*
X49261704Y-39894082D01*
X49261699Y-39894088D01*
X49261698Y-39894089D01*
X49157677Y-40049766D01*
X49157672Y-40049776D01*
X49086027Y-40222746D01*
X49086021Y-40222773D01*
X49049500Y-40406376D01*
X49049500Y-40406377D01*
X49049500Y-40406379D01*
X49049500Y-40593620D01*
X49049500Y-40593622D01*
X49049499Y-40593622D01*
X24625499Y-40593622D01*
X24625500Y-40593616D01*
X24625500Y-40406384D01*
X24625498Y-40406376D01*
X24607236Y-40314566D01*
X24588973Y-40222749D01*
X24517322Y-40049769D01*
X24517321Y-40049768D01*
X24517318Y-40049762D01*
X24517318Y-40049761D01*
X24413300Y-39894089D01*
X24413299Y-39894088D01*
X24413294Y-39894082D01*
X24280916Y-39761704D01*
X24280910Y-39761699D01*
X24280909Y-39761698D01*
X24125231Y-39657677D01*
X24125232Y-39657677D01*
X24125222Y-39657672D01*
X23952252Y-39586027D01*
X23952225Y-39586021D01*
X23768622Y-39549500D01*
X23768620Y-39549500D01*
X23768616Y-39549500D01*
X23581384Y-39549500D01*
X23581379Y-39549500D01*
X23581377Y-39549500D01*
X23397773Y-39586021D01*
X23397746Y-39586027D01*
X23224776Y-39657672D01*
X23224766Y-39657677D01*
X23069089Y-39761698D01*
X23069088Y-39761699D01*
X23069082Y-39761704D01*
X22936704Y-39894082D01*
X22936699Y-39894088D01*
X22936698Y-39894089D01*
X22832677Y-40049766D01*
X22832672Y-40049776D01*
X22761027Y-40222746D01*
X22761021Y-40222773D01*
X22724500Y-40406376D01*
X22724500Y-40406377D01*
X22724500Y-40406379D01*
X22724500Y-40593620D01*
X22724500Y-40593622D01*
X22724499Y-40593622D01*
X20500500Y-40593622D01*
X20500500Y-37352538D01*
X31425000Y-37352538D01*
X31425000Y-37647460D01*
X31425001Y-37647489D01*
X31463494Y-37939874D01*
X31463497Y-37939887D01*
X31463502Y-37939912D01*
X31539833Y-38224786D01*
X31539841Y-38224809D01*
X31652705Y-38497284D01*
X31652714Y-38497301D01*
X31769066Y-38698826D01*
X32609570Y-37858322D01*
X32670893Y-37824837D01*
X32740584Y-37829821D01*
X32796518Y-37871693D01*
X32811812Y-37898550D01*
X32833119Y-37949991D01*
X32833124Y-37950000D01*
X32937086Y-38105589D01*
X32937089Y-38105593D01*
X33069406Y-38237910D01*
X33069410Y-38237913D01*
X33224999Y-38341875D01*
X33225006Y-38341879D01*
X33276446Y-38363186D01*
X33330849Y-38407026D01*
X33352915Y-38473320D01*
X33335636Y-38541019D01*
X33316675Y-38565428D01*
X32476172Y-39405931D01*
X32476172Y-39405932D01*
X32476172Y-39405933D01*
X32677707Y-39522290D01*
X32677709Y-39522291D01*
X32677711Y-39522292D01*
X32677715Y-39522293D01*
X32677718Y-39522295D01*
X32950199Y-39635161D01*
X32950209Y-39635164D01*
X32950212Y-39635165D01*
X33235086Y-39711496D01*
X33235090Y-39711496D01*
X33235102Y-39711500D01*
X33235115Y-39711503D01*
X33527516Y-39749998D01*
X33527534Y-39750000D01*
X33822458Y-39750000D01*
X33822466Y-39750000D01*
X33822483Y-39749998D01*
X34114884Y-39711503D01*
X34114897Y-39711500D01*
X34399790Y-39635164D01*
X34399800Y-39635161D01*
X34672281Y-39522295D01*
X34672292Y-39522290D01*
X34873826Y-39405933D01*
X34873826Y-39405932D01*
X34033323Y-38565428D01*
X33999838Y-38504105D01*
X34004822Y-38434413D01*
X34046694Y-38378480D01*
X34073546Y-38363189D01*
X34124994Y-38341879D01*
X34280590Y-38237913D01*
X34412913Y-38105590D01*
X34516879Y-37949994D01*
X34516880Y-37949991D01*
X34516882Y-37949988D01*
X34538187Y-37898552D01*
X34582027Y-37844148D01*
X34648321Y-37822083D01*
X34716021Y-37839362D01*
X34740428Y-37858322D01*
X35580932Y-38698826D01*
X35580933Y-38698826D01*
X35697290Y-38497292D01*
X35697295Y-38497281D01*
X35810161Y-38224800D01*
X35810164Y-38224790D01*
X35886500Y-37939897D01*
X35886503Y-37939884D01*
X35924998Y-37647483D01*
X35925000Y-37647466D01*
X35925000Y-37352538D01*
X42750000Y-37352538D01*
X42750000Y-37647460D01*
X42750001Y-37647489D01*
X42788494Y-37939874D01*
X42788497Y-37939887D01*
X42788502Y-37939912D01*
X42864833Y-38224786D01*
X42864841Y-38224809D01*
X42977705Y-38497284D01*
X42977714Y-38497301D01*
X43094066Y-38698826D01*
X43934570Y-37858322D01*
X43995893Y-37824837D01*
X44065584Y-37829821D01*
X44121518Y-37871693D01*
X44136812Y-37898550D01*
X44158119Y-37949991D01*
X44158124Y-37950000D01*
X44262086Y-38105589D01*
X44262089Y-38105593D01*
X44394406Y-38237910D01*
X44394410Y-38237913D01*
X44549999Y-38341875D01*
X44550006Y-38341879D01*
X44601446Y-38363186D01*
X44655849Y-38407026D01*
X44677915Y-38473320D01*
X44660636Y-38541019D01*
X44641675Y-38565428D01*
X43801172Y-39405931D01*
X43801172Y-39405932D01*
X43801172Y-39405933D01*
X44002707Y-39522290D01*
X44002709Y-39522291D01*
X44002711Y-39522292D01*
X44002715Y-39522293D01*
X44002718Y-39522295D01*
X44275199Y-39635161D01*
X44275209Y-39635164D01*
X44275212Y-39635165D01*
X44560086Y-39711496D01*
X44560090Y-39711496D01*
X44560102Y-39711500D01*
X44560115Y-39711503D01*
X44852516Y-39749998D01*
X44852534Y-39750000D01*
X45147458Y-39750000D01*
X45147466Y-39750000D01*
X45147483Y-39749998D01*
X45439884Y-39711503D01*
X45439897Y-39711500D01*
X45724790Y-39635164D01*
X45724800Y-39635161D01*
X45997281Y-39522295D01*
X45997292Y-39522290D01*
X46198826Y-39405933D01*
X46198826Y-39405932D01*
X45358323Y-38565428D01*
X45324838Y-38504105D01*
X45329822Y-38434413D01*
X45371694Y-38378480D01*
X45398546Y-38363189D01*
X45449994Y-38341879D01*
X45605590Y-38237913D01*
X45737913Y-38105590D01*
X45841879Y-37949994D01*
X45841880Y-37949991D01*
X45841882Y-37949988D01*
X45863187Y-37898552D01*
X45907027Y-37844148D01*
X45973321Y-37822083D01*
X46041021Y-37839362D01*
X46065428Y-37858322D01*
X46905932Y-38698826D01*
X46905933Y-38698826D01*
X47022290Y-38497292D01*
X47022295Y-38497281D01*
X47135161Y-38224800D01*
X47135164Y-38224790D01*
X47211500Y-37939897D01*
X47211503Y-37939884D01*
X47249998Y-37647483D01*
X47250000Y-37647466D01*
X47250000Y-37352533D01*
X47249998Y-37352516D01*
X47211503Y-37060115D01*
X47211500Y-37060102D01*
X47208796Y-37050012D01*
X47135165Y-36775212D01*
X47135163Y-36775205D01*
X47135161Y-36775199D01*
X47129729Y-36762086D01*
X47071504Y-36621518D01*
X47022295Y-36502718D01*
X47022290Y-36502707D01*
X46905933Y-36301173D01*
X46905932Y-36301171D01*
X46905931Y-36301171D01*
X46065428Y-37141674D01*
X46004105Y-37175159D01*
X45934413Y-37170175D01*
X45878480Y-37128303D01*
X45863186Y-37101445D01*
X45841882Y-37050012D01*
X45841875Y-37049999D01*
X45737913Y-36894410D01*
X45737910Y-36894406D01*
X45605593Y-36762089D01*
X45605589Y-36762086D01*
X45450000Y-36658124D01*
X45449987Y-36658117D01*
X45398550Y-36636812D01*
X45344146Y-36592972D01*
X45322081Y-36526678D01*
X45339360Y-36458978D01*
X45358317Y-36434574D01*
X46198826Y-35594066D01*
X46198826Y-35594065D01*
X46198825Y-35594064D01*
X46133772Y-35556506D01*
X45997292Y-35477709D01*
X45997287Y-35477706D01*
X45724809Y-35364841D01*
X45724786Y-35364833D01*
X45439912Y-35288502D01*
X45439897Y-35288499D01*
X45439884Y-35288496D01*
X45439880Y-35288495D01*
X45439874Y-35288494D01*
X45147485Y-35250001D01*
X45147493Y-35250001D01*
X45147472Y-35250000D01*
X45147466Y-35250000D01*
X45147460Y-35250000D01*
X44852540Y-35250000D01*
X44852534Y-35250000D01*
X44852520Y-35250000D01*
X44852514Y-35250001D01*
X44852513Y-35250001D01*
X44560124Y-35288494D01*
X44560111Y-35288497D01*
X44560086Y-35288502D01*
X44275205Y-35364835D01*
X44275201Y-35364837D01*
X44002729Y-35477697D01*
X44002670Y-35477730D01*
X43801172Y-35594065D01*
X43801172Y-35594066D01*
X44641677Y-36434570D01*
X44675162Y-36495893D01*
X44670178Y-36565584D01*
X44628306Y-36621518D01*
X44601449Y-36636812D01*
X44550009Y-36658119D01*
X44549999Y-36658124D01*
X44394410Y-36762086D01*
X44394406Y-36762089D01*
X44262089Y-36894406D01*
X44262086Y-36894410D01*
X44158124Y-37049999D01*
X44158119Y-37050009D01*
X44136812Y-37101449D01*
X44092970Y-37155853D01*
X44026676Y-37177917D01*
X43958977Y-37160637D01*
X43934570Y-37141677D01*
X43094066Y-36301172D01*
X43094065Y-36301172D01*
X42977730Y-36502670D01*
X42977697Y-36502729D01*
X42864837Y-36775201D01*
X42864835Y-36775205D01*
X42788502Y-37060086D01*
X42788497Y-37060111D01*
X42788494Y-37060124D01*
X42750001Y-37352509D01*
X42750000Y-37352538D01*
X35925000Y-37352538D01*
X35925000Y-37352533D01*
X35924998Y-37352516D01*
X35886503Y-37060115D01*
X35886500Y-37060102D01*
X35883796Y-37050012D01*
X35810165Y-36775212D01*
X35810163Y-36775205D01*
X35810161Y-36775199D01*
X35804729Y-36762086D01*
X35746504Y-36621518D01*
X35697295Y-36502718D01*
X35697290Y-36502707D01*
X35580933Y-36301173D01*
X35580932Y-36301171D01*
X35580931Y-36301171D01*
X34740428Y-37141674D01*
X34679105Y-37175159D01*
X34609413Y-37170175D01*
X34553480Y-37128303D01*
X34538186Y-37101445D01*
X34516882Y-37050012D01*
X34516875Y-37049999D01*
X34412913Y-36894410D01*
X34412910Y-36894406D01*
X34280593Y-36762089D01*
X34280589Y-36762086D01*
X34125000Y-36658124D01*
X34124987Y-36658117D01*
X34073550Y-36636812D01*
X34019146Y-36592972D01*
X33997081Y-36526678D01*
X34014360Y-36458978D01*
X34033317Y-36434574D01*
X34873826Y-35594066D01*
X34873826Y-35594065D01*
X34873825Y-35594064D01*
X34808772Y-35556506D01*
X34672292Y-35477709D01*
X34672287Y-35477706D01*
X34399809Y-35364841D01*
X34399786Y-35364833D01*
X34114912Y-35288502D01*
X34114897Y-35288499D01*
X34114884Y-35288496D01*
X34114880Y-35288495D01*
X34114874Y-35288494D01*
X33822485Y-35250001D01*
X33822493Y-35250001D01*
X33822472Y-35250000D01*
X33822466Y-35250000D01*
X33822460Y-35250000D01*
X33527540Y-35250000D01*
X33527534Y-35250000D01*
X33527520Y-35250000D01*
X33527514Y-35250001D01*
X33527513Y-35250001D01*
X33235124Y-35288494D01*
X33235111Y-35288497D01*
X33235086Y-35288502D01*
X32950205Y-35364835D01*
X32950201Y-35364837D01*
X32677729Y-35477697D01*
X32677670Y-35477730D01*
X32476172Y-35594065D01*
X32476172Y-35594066D01*
X33316677Y-36434570D01*
X33350162Y-36495893D01*
X33345178Y-36565584D01*
X33303306Y-36621518D01*
X33276449Y-36636812D01*
X33225009Y-36658119D01*
X33224999Y-36658124D01*
X33069410Y-36762086D01*
X33069406Y-36762089D01*
X32937089Y-36894406D01*
X32937086Y-36894410D01*
X32833124Y-37049999D01*
X32833119Y-37050009D01*
X32811812Y-37101449D01*
X32767970Y-37155853D01*
X32701676Y-37177917D01*
X32633977Y-37160637D01*
X32609570Y-37141677D01*
X31769066Y-36301172D01*
X31769065Y-36301172D01*
X31652730Y-36502670D01*
X31652697Y-36502729D01*
X31539837Y-36775201D01*
X31539835Y-36775205D01*
X31463502Y-37060086D01*
X31463497Y-37060111D01*
X31463494Y-37060124D01*
X31425001Y-37352509D01*
X31425000Y-37352538D01*
X20500500Y-37352538D01*
X20500500Y-31469868D01*
X31674500Y-31469868D01*
X31674500Y-33530130D01*
X31686312Y-33650066D01*
X31689265Y-33680052D01*
X31691776Y-33688755D01*
X31692315Y-33690107D01*
X31736336Y-33835225D01*
X31747619Y-33872418D01*
X31836961Y-34039568D01*
X31842380Y-34049705D01*
X31842382Y-34049707D01*
X31969904Y-34205094D01*
X32078036Y-34293835D01*
X32125293Y-34332618D01*
X32125297Y-34332621D01*
X32302582Y-34427381D01*
X32494947Y-34485734D01*
X32494946Y-34485734D01*
X32505539Y-34486777D01*
X32644865Y-34500500D01*
X34705134Y-34500499D01*
X34855053Y-34485734D01*
X35047418Y-34427381D01*
X35224703Y-34332621D01*
X35380094Y-34205094D01*
X35507621Y-34049703D01*
X35602381Y-33872418D01*
X35660734Y-33680053D01*
X35675500Y-33530135D01*
X35675499Y-31469868D01*
X42999500Y-31469868D01*
X42999500Y-33530130D01*
X43011312Y-33650066D01*
X43014265Y-33680052D01*
X43016776Y-33688755D01*
X43017315Y-33690107D01*
X43061336Y-33835225D01*
X43072619Y-33872418D01*
X43161961Y-34039568D01*
X43167380Y-34049705D01*
X43167382Y-34049707D01*
X43294904Y-34205094D01*
X43403036Y-34293835D01*
X43450293Y-34332618D01*
X43450297Y-34332621D01*
X43627582Y-34427381D01*
X43819947Y-34485734D01*
X43819946Y-34485734D01*
X43830539Y-34486777D01*
X43969865Y-34500500D01*
X46030134Y-34500499D01*
X46180053Y-34485734D01*
X46372418Y-34427381D01*
X46549703Y-34332621D01*
X46705094Y-34205094D01*
X46832621Y-34049703D01*
X46927381Y-33872418D01*
X46985734Y-33680053D01*
X47000500Y-33530135D01*
X47000499Y-31469866D01*
X46985734Y-31319947D01*
X46927381Y-31127582D01*
X46832621Y-30950297D01*
X46832618Y-30950293D01*
X46793835Y-30903036D01*
X46705094Y-30794904D01*
X46554403Y-30671235D01*
X46554400Y-30671232D01*
X46549705Y-30667378D01*
X46548279Y-30666616D01*
X46548249Y-30666601D01*
X46372416Y-30572618D01*
X46272656Y-30542356D01*
X46238589Y-30520030D01*
X46103536Y-30506728D01*
X46072503Y-30503672D01*
X46072502Y-30503671D01*
X46034306Y-30499910D01*
X46030135Y-30499500D01*
X46030134Y-30499500D01*
X43969872Y-30499500D01*
X43969869Y-30499500D01*
X43879916Y-30508359D01*
X43819946Y-30514265D01*
X43627586Y-30572617D01*
X43450289Y-30667383D01*
X43294904Y-30794904D01*
X43167383Y-30950289D01*
X43072617Y-31127586D01*
X43014265Y-31319946D01*
X43014265Y-31319947D01*
X43014265Y-31319948D01*
X42999500Y-31469868D01*
X35675499Y-31469868D01*
X35675499Y-31469866D01*
X35660734Y-31319947D01*
X35602381Y-31127582D01*
X35507621Y-30950297D01*
X35507618Y-30950293D01*
X35468835Y-30903036D01*
X35380094Y-30794904D01*
X35229403Y-30671235D01*
X35229400Y-30671232D01*
X35224705Y-30667378D01*
X35223279Y-30666616D01*
X35223249Y-30666601D01*
X35047416Y-30572618D01*
X34947656Y-30542356D01*
X34913589Y-30520030D01*
X34778536Y-30506728D01*
X34747503Y-30503672D01*
X34747502Y-30503671D01*
X34709306Y-30499910D01*
X34705135Y-30499500D01*
X34705134Y-30499500D01*
X32644872Y-30499500D01*
X32644869Y-30499500D01*
X32554916Y-30508359D01*
X32494946Y-30514265D01*
X32302586Y-30572617D01*
X32125289Y-30667383D01*
X31969904Y-30794904D01*
X31842383Y-30950289D01*
X31747617Y-31127586D01*
X31689265Y-31319946D01*
X31689265Y-31319947D01*
X31689265Y-31319948D01*
X31674500Y-31469868D01*
X20500500Y-31469868D01*
X20500500Y-29593622D01*
X22724499Y-29593622D01*
X22761021Y-29777225D01*
X22761027Y-29777252D01*
X22832672Y-29950222D01*
X22832677Y-29950232D01*
X22936698Y-30105909D01*
X22936699Y-30105910D01*
X22936704Y-30105916D01*
X23069082Y-30238294D01*
X23069088Y-30238299D01*
X23069089Y-30238300D01*
X23224761Y-30342318D01*
X23224766Y-30342320D01*
X23224768Y-30342321D01*
X23224769Y-30342322D01*
X23397749Y-30413973D01*
X23569389Y-30448114D01*
X23578408Y-30449908D01*
X23580643Y-30450409D01*
X23581381Y-30450500D01*
X23768617Y-30450500D01*
X23772737Y-30450500D01*
X23780586Y-30448118D01*
X23952251Y-30413973D01*
X24125231Y-30342322D01*
X24280908Y-30238302D01*
X24413302Y-30105908D01*
X24517322Y-29950231D01*
X24588973Y-29777251D01*
X24625499Y-29593622D01*
X49049499Y-29593622D01*
X49086021Y-29777225D01*
X49086027Y-29777252D01*
X49157672Y-29950222D01*
X49157677Y-29950232D01*
X49261698Y-30105909D01*
X49261699Y-30105910D01*
X49261704Y-30105916D01*
X49394082Y-30238294D01*
X49394088Y-30238299D01*
X49394089Y-30238300D01*
X49549761Y-30342318D01*
X49549766Y-30342320D01*
X49549768Y-30342321D01*
X49549769Y-30342322D01*
X49722749Y-30413973D01*
X49894389Y-30448114D01*
X49903408Y-30449908D01*
X49905643Y-30450409D01*
X49906381Y-30450500D01*
X50093617Y-30450500D01*
X50097737Y-30450500D01*
X50105586Y-30448118D01*
X50277251Y-30413973D01*
X50450231Y-30342322D01*
X50605908Y-30238302D01*
X50738302Y-30105908D01*
X50842322Y-29950231D01*
X50913973Y-29777251D01*
X50950500Y-29593616D01*
X50950500Y-29406384D01*
X50913973Y-29222749D01*
X50842322Y-29049769D01*
X50842321Y-29049768D01*
X50842318Y-29049762D01*
X50842318Y-29049761D01*
X50738300Y-28894089D01*
X50738299Y-28894088D01*
X50738294Y-28894082D01*
X50605916Y-28761704D01*
X50605910Y-28761699D01*
X50605909Y-28761698D01*
X50450231Y-28657677D01*
X50450232Y-28657677D01*
X50450222Y-28657672D01*
X50277252Y-28586027D01*
X50277225Y-28586021D01*
X50093622Y-28549500D01*
X50093620Y-28549500D01*
X50093616Y-28549500D01*
X49906384Y-28549500D01*
X49906379Y-28549500D01*
X49906377Y-28549500D01*
X49722773Y-28586021D01*
X49722746Y-28586027D01*
X49549776Y-28657672D01*
X49549766Y-28657677D01*
X49394089Y-28761698D01*
X49394088Y-28761699D01*
X49394082Y-28761704D01*
X49261704Y-28894082D01*
X49261699Y-28894088D01*
X49261698Y-28894089D01*
X49157677Y-29049766D01*
X49157672Y-29049776D01*
X49086027Y-29222746D01*
X49086021Y-29222773D01*
X49049500Y-29406376D01*
X49049500Y-29406377D01*
X49049500Y-29406379D01*
X49049500Y-29593620D01*
X49049500Y-29593622D01*
X49049499Y-29593622D01*
X24625499Y-29593622D01*
X24625500Y-29593616D01*
X24625500Y-29406384D01*
X24625498Y-29406376D01*
X24607236Y-29314566D01*
X24588973Y-29222749D01*
X24517322Y-29049769D01*
X24517321Y-29049768D01*
X24517318Y-29049762D01*
X24517318Y-29049761D01*
X24413300Y-28894089D01*
X24413299Y-28894088D01*
X24413294Y-28894082D01*
X24280916Y-28761704D01*
X24280910Y-28761699D01*
X24280909Y-28761698D01*
X24125231Y-28657677D01*
X24125232Y-28657677D01*
X24125222Y-28657672D01*
X23952252Y-28586027D01*
X23952225Y-28586021D01*
X23768622Y-28549500D01*
X23768620Y-28549500D01*
X23768616Y-28549500D01*
X23581384Y-28549500D01*
X23581379Y-28549500D01*
X23581377Y-28549500D01*
X23397773Y-28586021D01*
X23397746Y-28586027D01*
X23224776Y-28657672D01*
X23224766Y-28657677D01*
X23069089Y-28761698D01*
X23069088Y-28761699D01*
X23069082Y-28761704D01*
X22936704Y-28894082D01*
X22936699Y-28894088D01*
X22936698Y-28894089D01*
X22832677Y-29049766D01*
X22832672Y-29049776D01*
X22761027Y-29222746D01*
X22761021Y-29222773D01*
X22724500Y-29406376D01*
X22724500Y-29406377D01*
X22724500Y-29406379D01*
X22724500Y-29593620D01*
X22724500Y-29593622D01*
X22724499Y-29593622D01*
X20500500Y-29593622D01*
X20500500Y-28141829D01*
X20505523Y-28106893D01*
X20509927Y-28091895D01*
X20547672Y-28033144D01*
X20549041Y-28031957D01*
X20603920Y-28004477D01*
X20611479Y-28002833D01*
X20637832Y-28000000D01*
X59357670Y-28000000D01*
X59392606Y-28005023D01*
G37*
%TD.AperFunction*%
%TD*%
%TA.AperFunction,Conductor*%
%TO.N,GND*%
G36*
X41603748Y-51711872D02*
G01*
X41609242Y-51713345D01*
X41628064Y-51718388D01*
X41651941Y-51728278D01*
X41731812Y-51774391D01*
X41731814Y-51774392D01*
X41859108Y-51808500D01*
X41859110Y-51808500D01*
X41990890Y-51808500D01*
X41990892Y-51808500D01*
X42118186Y-51774392D01*
X42198055Y-51728278D01*
X42221930Y-51718390D01*
X42246254Y-51711873D01*
X42271875Y-51708500D01*
X48903125Y-51708500D01*
X48928748Y-51711873D01*
X48953062Y-51718388D01*
X48953070Y-51718390D01*
X48976947Y-51728281D01*
X49056810Y-51774390D01*
X49056808Y-51774390D01*
X49056812Y-51774391D01*
X49056814Y-51774392D01*
X49184108Y-51808500D01*
X49184110Y-51808500D01*
X49315890Y-51808500D01*
X49315892Y-51808500D01*
X49443186Y-51774392D01*
X49523055Y-51728278D01*
X49546930Y-51718390D01*
X49571254Y-51711873D01*
X49596875Y-51708500D01*
X51177419Y-51708500D01*
X51208010Y-51713345D01*
X51220347Y-51717353D01*
X51231236Y-51720891D01*
X51270648Y-51745042D01*
X51552242Y-52026635D01*
X51557086Y-52031479D01*
X51557089Y-52031481D01*
X51557090Y-52031482D01*
X51557094Y-52031485D01*
X51589956Y-52050458D01*
X51589962Y-52050461D01*
X51648408Y-52084205D01*
X51648406Y-52084205D01*
X51648410Y-52084206D01*
X51648412Y-52084207D01*
X51750273Y-52111500D01*
X51750275Y-52111500D01*
X52106863Y-52111500D01*
X52137451Y-52116343D01*
X52148288Y-52119865D01*
X52197788Y-52155826D01*
X52216698Y-52214016D01*
X52216698Y-52217168D01*
X52197791Y-52275358D01*
X52185838Y-52291810D01*
X52185419Y-52292376D01*
X52185375Y-52292448D01*
X52088903Y-52481785D01*
X52023240Y-52683879D01*
X52012768Y-52749996D01*
X52012768Y-52749999D01*
X52012769Y-52750000D01*
X52760330Y-52750000D01*
X52818521Y-52768907D01*
X52854485Y-52818407D01*
X52855957Y-52874623D01*
X52840000Y-52934174D01*
X52840000Y-53065825D01*
X52855957Y-53125377D01*
X52852755Y-53186478D01*
X52814249Y-53234028D01*
X52760330Y-53250000D01*
X52012769Y-53250000D01*
X52023240Y-53316120D01*
X52088903Y-53518214D01*
X52088904Y-53518215D01*
X52185375Y-53707552D01*
X52310277Y-53879464D01*
X52460535Y-54029722D01*
X52632447Y-54154624D01*
X52821784Y-54251095D01*
X53023878Y-54316759D01*
X53023879Y-54316759D01*
X53023882Y-54316760D01*
X53062687Y-54322906D01*
X53098084Y-54335764D01*
X53098610Y-54336079D01*
X53099489Y-54336218D01*
X53099491Y-54336219D01*
X53100459Y-54337187D01*
X53105017Y-54339918D01*
X53104332Y-54341060D01*
X53142756Y-54379484D01*
X53152327Y-54439916D01*
X53124550Y-54494433D01*
X53124138Y-54494845D01*
X53073449Y-54521939D01*
X53054329Y-54525742D01*
X53033581Y-54529869D01*
X53033578Y-54529869D01*
X53033574Y-54529871D01*
X52842404Y-54609056D01*
X52670351Y-54724017D01*
X52524017Y-54870351D01*
X52409056Y-55042404D01*
X52329869Y-55233579D01*
X52329869Y-55233581D01*
X52289500Y-55436529D01*
X52289500Y-55643469D01*
X52329869Y-55846417D01*
X52329869Y-55846419D01*
X52409055Y-56037592D01*
X52409061Y-56037604D01*
X52468204Y-56126115D01*
X52480066Y-56143868D01*
X52524023Y-56209655D01*
X52670345Y-56355977D01*
X52842402Y-56470941D01*
X53033580Y-56550130D01*
X53066625Y-56556703D01*
X53101483Y-56570938D01*
X53101976Y-56571260D01*
X53102844Y-56571433D01*
X53103767Y-56572431D01*
X53108247Y-56575360D01*
X53107513Y-56576481D01*
X53144393Y-56616348D01*
X53151607Y-56677107D01*
X53121729Y-56730502D01*
X53121302Y-56730897D01*
X53069565Y-56756004D01*
X53052693Y-56758676D01*
X53023877Y-56763241D01*
X53023875Y-56763241D01*
X53023872Y-56763242D01*
X52821784Y-56828903D01*
X52632719Y-56925236D01*
X52632460Y-56925366D01*
X52632445Y-56925375D01*
X52578282Y-56964727D01*
X52578282Y-56964728D01*
X53106888Y-57493334D01*
X53134665Y-57547851D01*
X53125094Y-57608283D01*
X53086386Y-57649074D01*
X53032993Y-57679901D01*
X52939901Y-57772993D01*
X52909074Y-57826386D01*
X52863603Y-57867326D01*
X52802753Y-57873720D01*
X52753334Y-57846888D01*
X52224728Y-57318282D01*
X52224727Y-57318282D01*
X52185375Y-57372445D01*
X52185366Y-57372460D01*
X52185236Y-57372719D01*
X52088904Y-57561783D01*
X52023238Y-57763882D01*
X51990000Y-57973745D01*
X51990000Y-58186253D01*
X52023238Y-58396116D01*
X52071914Y-58545925D01*
X52088904Y-58598215D01*
X52185376Y-58787553D01*
X52185378Y-58787556D01*
X52185382Y-58787562D01*
X52185386Y-58787568D01*
X52224727Y-58841716D01*
X52224728Y-58841716D01*
X52224729Y-58841716D01*
X52753336Y-58313107D01*
X52807851Y-58285332D01*
X52868283Y-58294903D01*
X52909072Y-58333610D01*
X52939901Y-58387007D01*
X53032993Y-58480099D01*
X53069136Y-58500966D01*
X53086383Y-58510924D01*
X53127323Y-58556394D01*
X53133718Y-58617244D01*
X53106886Y-58666663D01*
X52578282Y-59195268D01*
X52578282Y-59195269D01*
X52578282Y-59195270D01*
X52632440Y-59234619D01*
X52632446Y-59234623D01*
X52821784Y-59331095D01*
X53023878Y-59396759D01*
X53023879Y-59396759D01*
X53023882Y-59396760D01*
X53233747Y-59430000D01*
X53446250Y-59430000D01*
X53446253Y-59430000D01*
X53656116Y-59396760D01*
X53656117Y-59396759D01*
X53656121Y-59396759D01*
X53858215Y-59331095D01*
X54047556Y-59234620D01*
X54101716Y-59195270D01*
X53573110Y-58666664D01*
X53545334Y-58612148D01*
X53554905Y-58551716D01*
X53593613Y-58510925D01*
X53647007Y-58480099D01*
X53740099Y-58387007D01*
X53770925Y-58333613D01*
X53816394Y-58292674D01*
X53877244Y-58286278D01*
X53926665Y-58313111D01*
X54455270Y-58841716D01*
X54494620Y-58787556D01*
X54591095Y-58598215D01*
X54656759Y-58396121D01*
X54686332Y-58209408D01*
X54690000Y-58186252D01*
X54690000Y-57973746D01*
X54656760Y-57763882D01*
X54619457Y-57649074D01*
X54591095Y-57561784D01*
X54494623Y-57372446D01*
X54494619Y-57372440D01*
X54494612Y-57372430D01*
X54455271Y-57318282D01*
X54455270Y-57318282D01*
X54455269Y-57318282D01*
X54455268Y-57318282D01*
X53926663Y-57846886D01*
X53872147Y-57874663D01*
X53811715Y-57865092D01*
X53770924Y-57826383D01*
X53740100Y-57772995D01*
X53740099Y-57772993D01*
X53647007Y-57679901D01*
X53593611Y-57649072D01*
X53552672Y-57603605D01*
X53546276Y-57542755D01*
X53573107Y-57493336D01*
X54101716Y-56964729D01*
X54101716Y-56964728D01*
X54101715Y-56964727D01*
X54101716Y-56964727D01*
X54047568Y-56925386D01*
X54047562Y-56925382D01*
X54047556Y-56925378D01*
X54047553Y-56925376D01*
X53858215Y-56828904D01*
X53858214Y-56828903D01*
X53858213Y-56828903D01*
X53656126Y-56763242D01*
X53656124Y-56763241D01*
X53656122Y-56763241D01*
X53617305Y-56757092D01*
X53581904Y-56744230D01*
X53581383Y-56743917D01*
X53580506Y-56743779D01*
X53580505Y-56743778D01*
X53579540Y-56742813D01*
X53574971Y-56740075D01*
X53575657Y-56738930D01*
X53537241Y-56700514D01*
X53527670Y-56640082D01*
X53555444Y-56585570D01*
X53555864Y-56585149D01*
X53606550Y-56558060D01*
X53646420Y-56550130D01*
X53837598Y-56470941D01*
X54009655Y-56355977D01*
X54155977Y-56209655D01*
X54270941Y-56037598D01*
X54350130Y-55846420D01*
X54390500Y-55643465D01*
X54390500Y-55436535D01*
X54350130Y-55233580D01*
X54270941Y-55042402D01*
X54155977Y-54870345D01*
X54009655Y-54724023D01*
X54002449Y-54719208D01*
X53837597Y-54609058D01*
X53837596Y-54609057D01*
X53837594Y-54609056D01*
X53646424Y-54529871D01*
X53646420Y-54529870D01*
X53646418Y-54529869D01*
X53613374Y-54523296D01*
X53578493Y-54509048D01*
X53578023Y-54508740D01*
X53577163Y-54508570D01*
X53576244Y-54507576D01*
X53571730Y-54504624D01*
X53572468Y-54503495D01*
X53535610Y-54463659D01*
X53528390Y-54402901D01*
X53558263Y-54349504D01*
X53558691Y-54349108D01*
X53610439Y-54323994D01*
X53656121Y-54316759D01*
X53858215Y-54251095D01*
X54047552Y-54154624D01*
X54219464Y-54029722D01*
X54369722Y-53879464D01*
X54494624Y-53707552D01*
X54591095Y-53518215D01*
X54656758Y-53316122D01*
X54667231Y-53250000D01*
X53919670Y-53250000D01*
X53861479Y-53231093D01*
X53825515Y-53181593D01*
X53824043Y-53125377D01*
X53840000Y-53065825D01*
X53840000Y-52934174D01*
X53824043Y-52874623D01*
X53827245Y-52813522D01*
X53865751Y-52765972D01*
X53919670Y-52750000D01*
X54667230Y-52750000D01*
X54667231Y-52750000D01*
X54667231Y-52749999D01*
X54656758Y-52683877D01*
X54591095Y-52481784D01*
X54494623Y-52292446D01*
X54494620Y-52292442D01*
X54494615Y-52292435D01*
X54494584Y-52292385D01*
X54494218Y-52291888D01*
X54486577Y-52281371D01*
X54472520Y-52253780D01*
X54468999Y-52242944D01*
X54468998Y-52181759D01*
X54504959Y-52132259D01*
X54507510Y-52130407D01*
X54507520Y-52130400D01*
X54565700Y-52111500D01*
X54681725Y-52111500D01*
X54681727Y-52111500D01*
X54783588Y-52084207D01*
X54837923Y-52052835D01*
X54866837Y-52041736D01*
X54877986Y-52039367D01*
X54938836Y-52045767D01*
X54984289Y-52086687D01*
X54985301Y-52088439D01*
X54986726Y-52090908D01*
X55000000Y-52140424D01*
X55000000Y-54921445D01*
X54995736Y-54950187D01*
X54987577Y-54977080D01*
X54975158Y-55003337D01*
X54949058Y-55042399D01*
X54949057Y-55042401D01*
X54869869Y-55233579D01*
X54869869Y-55233581D01*
X54829500Y-55436529D01*
X54829500Y-55643469D01*
X54869868Y-55846416D01*
X54949059Y-56037599D01*
X54975156Y-56076656D01*
X54987576Y-56102916D01*
X54995736Y-56129813D01*
X55000000Y-56158554D01*
X55000000Y-86151629D01*
X54995154Y-86182223D01*
X54991774Y-86192625D01*
X54955809Y-86242125D01*
X54897618Y-86261031D01*
X54845886Y-86246438D01*
X54840979Y-86243431D01*
X54822711Y-86229028D01*
X54613214Y-86019532D01*
X54613212Y-86019530D01*
X54533288Y-85973386D01*
X54444144Y-85949500D01*
X54444142Y-85949500D01*
X52701870Y-85949500D01*
X52671277Y-85944654D01*
X52648050Y-85937107D01*
X52608639Y-85912957D01*
X52460582Y-85764900D01*
X52442376Y-85739841D01*
X52431288Y-85718079D01*
X52420500Y-85673137D01*
X52420500Y-82989001D01*
X52425345Y-82958409D01*
X52432892Y-82935181D01*
X52457042Y-82895770D01*
X52470500Y-82882314D01*
X52481500Y-82863261D01*
X52536390Y-82768190D01*
X52536390Y-82768188D01*
X52536392Y-82768186D01*
X52570500Y-82640892D01*
X52570500Y-82509108D01*
X52536392Y-82381814D01*
X52536390Y-82381811D01*
X52536390Y-82381809D01*
X52536383Y-82381798D01*
X52536064Y-82381091D01*
X52534805Y-82379063D01*
X52470507Y-82267697D01*
X52470503Y-82267690D01*
X52470498Y-82267684D01*
X52460579Y-82257765D01*
X52442377Y-82232708D01*
X52431289Y-82210945D01*
X52420500Y-82166003D01*
X52420500Y-75899859D01*
X52420500Y-75899857D01*
X52418232Y-75891392D01*
X52396614Y-75810712D01*
X52376284Y-75775500D01*
X52350470Y-75730788D01*
X50464212Y-73844530D01*
X50384288Y-73798386D01*
X50295144Y-73774500D01*
X50295142Y-73774500D01*
X45589001Y-73774500D01*
X45558407Y-73769654D01*
X45535181Y-73762107D01*
X45495773Y-73737959D01*
X45482314Y-73724500D01*
X45482311Y-73724498D01*
X45482309Y-73724496D01*
X45457817Y-73710355D01*
X45425476Y-73691683D01*
X45404442Y-73668322D01*
X45318799Y-73645375D01*
X45318798Y-73645374D01*
X45261766Y-73630093D01*
X45240892Y-73624500D01*
X45240891Y-73624500D01*
X45109109Y-73624500D01*
X45109108Y-73624500D01*
X45070154Y-73634937D01*
X45031199Y-73645375D01*
X45031198Y-73645374D01*
X44981807Y-73658609D01*
X44981805Y-73658610D01*
X44867694Y-73724492D01*
X44774492Y-73817694D01*
X44708608Y-73931809D01*
X44708330Y-73932545D01*
X44707784Y-73934886D01*
X44674500Y-74059108D01*
X44674500Y-74190892D01*
X44704579Y-74303151D01*
X44708609Y-74318190D01*
X44774496Y-74432309D01*
X44774498Y-74432311D01*
X44774500Y-74432314D01*
X44867686Y-74525500D01*
X44867688Y-74525501D01*
X44867690Y-74525503D01*
X44868237Y-74525898D01*
X44870239Y-74526975D01*
X44914207Y-74552359D01*
X44925040Y-74558614D01*
X44946634Y-74582596D01*
X44980944Y-74591174D01*
X44982548Y-74591588D01*
X45109108Y-74625500D01*
X45109110Y-74625500D01*
X45209820Y-74625500D01*
X45240408Y-74630343D01*
X45253095Y-74634466D01*
X45302595Y-74670427D01*
X45302596Y-74670428D01*
X45305591Y-74674550D01*
X45324500Y-74732740D01*
X45324500Y-74809819D01*
X45319654Y-74840412D01*
X45315532Y-74853098D01*
X45279580Y-74902589D01*
X45275459Y-74905584D01*
X45217271Y-74924500D01*
X45109108Y-74924500D01*
X45070154Y-74934937D01*
X45031199Y-74945375D01*
X45031198Y-74945374D01*
X44981807Y-74958609D01*
X44981805Y-74958610D01*
X44867694Y-75024492D01*
X44774492Y-75117694D01*
X44708608Y-75231809D01*
X44708330Y-75232545D01*
X44707784Y-75234886D01*
X44691810Y-75294504D01*
X44674500Y-75359108D01*
X44674500Y-75490892D01*
X44699229Y-75583182D01*
X44699228Y-75583182D01*
X44708608Y-75618186D01*
X44708609Y-75618190D01*
X44774496Y-75732309D01*
X44774498Y-75732311D01*
X44774500Y-75732314D01*
X44867686Y-75825500D01*
X44867688Y-75825501D01*
X44867690Y-75825503D01*
X44868237Y-75825898D01*
X44870239Y-75826975D01*
X44914207Y-75852359D01*
X44925040Y-75858614D01*
X44946634Y-75882596D01*
X44980944Y-75891174D01*
X44982548Y-75891588D01*
X45109108Y-75925500D01*
X45109110Y-75925500D01*
X45209820Y-75925500D01*
X45240408Y-75930343D01*
X45253095Y-75934466D01*
X45302595Y-75970427D01*
X45302596Y-75970428D01*
X45305591Y-75974550D01*
X45324500Y-76032740D01*
X45324500Y-76109819D01*
X45319654Y-76140412D01*
X45315532Y-76153098D01*
X45279580Y-76202589D01*
X45275459Y-76205584D01*
X45217271Y-76224500D01*
X45109108Y-76224500D01*
X45070154Y-76234937D01*
X45031199Y-76245375D01*
X45031198Y-76245374D01*
X44981807Y-76258609D01*
X44981805Y-76258610D01*
X44867694Y-76324492D01*
X44774495Y-76417691D01*
X44708607Y-76531812D01*
X44697234Y-76574262D01*
X44674500Y-76659108D01*
X44674500Y-76790891D01*
X44684098Y-76826712D01*
X44708610Y-76918194D01*
X44774494Y-77032307D01*
X44774496Y-77032309D01*
X44774498Y-77032311D01*
X44774500Y-77032314D01*
X44867686Y-77125500D01*
X44867688Y-77125501D01*
X44867690Y-77125503D01*
X44868237Y-77125898D01*
X44870239Y-77126975D01*
X44914207Y-77152359D01*
X44925040Y-77158614D01*
X44946634Y-77182596D01*
X44980944Y-77191174D01*
X44982548Y-77191588D01*
X45109108Y-77225500D01*
X45109110Y-77225500D01*
X45209820Y-77225500D01*
X45240408Y-77230343D01*
X45253095Y-77234466D01*
X45302595Y-77270427D01*
X45302596Y-77270428D01*
X45305591Y-77274550D01*
X45324500Y-77332740D01*
X45324500Y-77440891D01*
X45348177Y-77529260D01*
X45358608Y-77568189D01*
X45358610Y-77568193D01*
X45424494Y-77682307D01*
X45424496Y-77682309D01*
X45424498Y-77682311D01*
X45424500Y-77682314D01*
X45517686Y-77775500D01*
X45517688Y-77775501D01*
X45517690Y-77775503D01*
X45518237Y-77775898D01*
X45520239Y-77776975D01*
X45523825Y-77779045D01*
X45575040Y-77808614D01*
X45596634Y-77832596D01*
X45630944Y-77841174D01*
X45632548Y-77841588D01*
X45759108Y-77875500D01*
X45759110Y-77875500D01*
X45890890Y-77875500D01*
X45890892Y-77875500D01*
X46018186Y-77841392D01*
X46018188Y-77841390D01*
X46018190Y-77841390D01*
X46126190Y-77779035D01*
X46129069Y-77777638D01*
X46129850Y-77777124D01*
X46134855Y-77774032D01*
X46136147Y-77773285D01*
X46141471Y-77766342D01*
X46142186Y-77765626D01*
X46167292Y-77747374D01*
X46178697Y-77741563D01*
X46189056Y-77736287D01*
X46233994Y-77725500D01*
X46922130Y-77725500D01*
X46952721Y-77730345D01*
X46965058Y-77734353D01*
X46975947Y-77737891D01*
X47015360Y-77762042D01*
X47869417Y-78616099D01*
X47887622Y-78641157D01*
X47898709Y-78662916D01*
X47909500Y-78707862D01*
X47909500Y-86666129D01*
X47904654Y-86696722D01*
X47897107Y-86719949D01*
X47872957Y-86759360D01*
X47542900Y-87089417D01*
X47517843Y-87107621D01*
X47496085Y-87118708D01*
X47451138Y-87129500D01*
X47432108Y-87129500D01*
X47393154Y-87139937D01*
X47354199Y-87150375D01*
X47354198Y-87150374D01*
X47304807Y-87163609D01*
X47304805Y-87163610D01*
X47190694Y-87229492D01*
X47097492Y-87322694D01*
X47031608Y-87436809D01*
X47031330Y-87437545D01*
X47030784Y-87439886D01*
X46997500Y-87564108D01*
X46997500Y-87695891D01*
X47011935Y-87749768D01*
X47011936Y-87749768D01*
X47011936Y-87749769D01*
X47031609Y-87823190D01*
X47031610Y-87823192D01*
X47031611Y-87823195D01*
X47097494Y-87937307D01*
X47097496Y-87937309D01*
X47097498Y-87937311D01*
X47097500Y-87937314D01*
X47190686Y-88030500D01*
X47190688Y-88030501D01*
X47190690Y-88030503D01*
X47191237Y-88030898D01*
X47193247Y-88031979D01*
X47248040Y-88063614D01*
X47269634Y-88087596D01*
X47303944Y-88096174D01*
X47305548Y-88096588D01*
X47432108Y-88130500D01*
X47432110Y-88130500D01*
X47531962Y-88130500D01*
X47537122Y-88130635D01*
X47570683Y-88132386D01*
X47570684Y-88132387D01*
X47586138Y-88133193D01*
X47643263Y-88155107D01*
X47676598Y-88206414D01*
X47676599Y-88206419D01*
X47677860Y-88211122D01*
X47677865Y-88262382D01*
X47655500Y-88345853D01*
X47655500Y-88817940D01*
X47654653Y-88830862D01*
X47652974Y-88843615D01*
X47650447Y-88856319D01*
X47649500Y-88859852D01*
X47649500Y-104172129D01*
X47644654Y-104202722D01*
X47637107Y-104225949D01*
X47612957Y-104265360D01*
X47288900Y-104589417D01*
X47263843Y-104607621D01*
X47242085Y-104618708D01*
X47197138Y-104629500D01*
X47178108Y-104629500D01*
X47139154Y-104639937D01*
X47100199Y-104650375D01*
X47100198Y-104650374D01*
X47050807Y-104663609D01*
X47050805Y-104663610D01*
X46936694Y-104729492D01*
X46843492Y-104822694D01*
X46777608Y-104936809D01*
X46777330Y-104937545D01*
X46776784Y-104939886D01*
X46746423Y-105053199D01*
X46743500Y-105064108D01*
X46743500Y-105195892D01*
X46773579Y-105308151D01*
X46777609Y-105323190D01*
X46843496Y-105437309D01*
X46843498Y-105437311D01*
X46843500Y-105437314D01*
X46936686Y-105530500D01*
X46936688Y-105530501D01*
X46936690Y-105530503D01*
X46937237Y-105530898D01*
X46939239Y-105531975D01*
X46983207Y-105557359D01*
X46994040Y-105563614D01*
X47015634Y-105587596D01*
X47049944Y-105596174D01*
X47051548Y-105596588D01*
X47178108Y-105630500D01*
X47178110Y-105630500D01*
X47309890Y-105630500D01*
X47309892Y-105630500D01*
X47437186Y-105596392D01*
X47437188Y-105596390D01*
X47437190Y-105596390D01*
X47545190Y-105534035D01*
X47548067Y-105532639D01*
X47548853Y-105532122D01*
X47553862Y-105529028D01*
X47555161Y-105528277D01*
X47560519Y-105521294D01*
X47644500Y-105437314D01*
X47710392Y-105323186D01*
X47744500Y-105195892D01*
X47744500Y-105181868D01*
X47749345Y-105151277D01*
X47756891Y-105128051D01*
X47781040Y-105088640D01*
X47816484Y-105053196D01*
X47841542Y-105034993D01*
X47851277Y-105030033D01*
X47911709Y-105020462D01*
X47966225Y-105048241D01*
X47992486Y-105095139D01*
X47993830Y-105100739D01*
X47996564Y-105123877D01*
X47994271Y-111882917D01*
X47989415Y-111913507D01*
X47985289Y-111926191D01*
X47949309Y-111975679D01*
X47949294Y-111975690D01*
X47945170Y-111978683D01*
X47886995Y-111997560D01*
X33214311Y-111993776D01*
X33183712Y-111988920D01*
X33175873Y-111986370D01*
X33126385Y-111950389D01*
X33107498Y-111892192D01*
X33126418Y-111834018D01*
X33128901Y-111830602D01*
X33159481Y-111803073D01*
X33200314Y-111779500D01*
X33293500Y-111686314D01*
X33359392Y-111572186D01*
X33393500Y-111444892D01*
X33393500Y-111313108D01*
X33359392Y-111185814D01*
X33359390Y-111185811D01*
X33359390Y-111185809D01*
X33359383Y-111185798D01*
X33359064Y-111185091D01*
X33357805Y-111183063D01*
X33293507Y-111071697D01*
X33293503Y-111071690D01*
X33293498Y-111071684D01*
X33283579Y-111061765D01*
X33265377Y-111036708D01*
X33254289Y-111014945D01*
X33243500Y-110970003D01*
X33243500Y-97108859D01*
X33243500Y-97108857D01*
X33240993Y-97099500D01*
X33219614Y-97019712D01*
X33208522Y-97000500D01*
X33208521Y-97000498D01*
X33208521Y-97000497D01*
X33188830Y-96966392D01*
X33173470Y-96939788D01*
X31378582Y-95144900D01*
X31360376Y-95119841D01*
X31349288Y-95098079D01*
X31338500Y-95053137D01*
X31338500Y-90934108D01*
X35599500Y-90934108D01*
X35599500Y-91065892D01*
X35612534Y-91114535D01*
X35633609Y-91193190D01*
X35633610Y-91193192D01*
X35633611Y-91193195D01*
X35699494Y-91307307D01*
X35699496Y-91307309D01*
X35699498Y-91307311D01*
X35699500Y-91307314D01*
X35792686Y-91400500D01*
X35792688Y-91400501D01*
X35792690Y-91400503D01*
X35793237Y-91400898D01*
X35795239Y-91401975D01*
X35825433Y-91419407D01*
X35850040Y-91433614D01*
X35871634Y-91457596D01*
X35905944Y-91466174D01*
X35907548Y-91466588D01*
X36034108Y-91500500D01*
X36034110Y-91500500D01*
X36091993Y-91500500D01*
X36122584Y-91505345D01*
X36134286Y-91509147D01*
X36183787Y-91545110D01*
X36202661Y-91600716D01*
X36203028Y-91614759D01*
X36202500Y-91624878D01*
X36202500Y-91628108D01*
X36202500Y-91759892D01*
X36210946Y-91791414D01*
X36215096Y-91806901D01*
X36236610Y-91887194D01*
X36302495Y-92001309D01*
X36302496Y-92001310D01*
X36322237Y-92021052D01*
X36340443Y-92046111D01*
X36346027Y-92057071D01*
X36355597Y-92117504D01*
X36329630Y-92170159D01*
X36322703Y-92177459D01*
X36300394Y-92195047D01*
X36292695Y-92199492D01*
X36292691Y-92199495D01*
X36199492Y-92292694D01*
X36133608Y-92406809D01*
X36133330Y-92407545D01*
X36132784Y-92409886D01*
X36099500Y-92534108D01*
X36099500Y-92665892D01*
X36119674Y-92741183D01*
X36133608Y-92793187D01*
X36179721Y-92873057D01*
X36189610Y-92896931D01*
X36196126Y-92921247D01*
X36199500Y-92946872D01*
X36199500Y-100552726D01*
X36201990Y-100562018D01*
X36201991Y-100562022D01*
X36226795Y-100654595D01*
X36279515Y-100745907D01*
X36279516Y-100745908D01*
X36279518Y-100745910D01*
X36279520Y-100745913D01*
X37633107Y-102099500D01*
X38059418Y-102525811D01*
X38077623Y-102550869D01*
X38088709Y-102572626D01*
X38099500Y-102617572D01*
X38099500Y-102665892D01*
X38100416Y-102669309D01*
X38100417Y-102669314D01*
X38133610Y-102793194D01*
X38199494Y-102907307D01*
X38199496Y-102907309D01*
X38199498Y-102907311D01*
X38199500Y-102907314D01*
X38292686Y-103000500D01*
X38292688Y-103000501D01*
X38292690Y-103000503D01*
X38293237Y-103000898D01*
X38295239Y-103001975D01*
X38339207Y-103027359D01*
X38350040Y-103033614D01*
X38371634Y-103057596D01*
X38405944Y-103066174D01*
X38407548Y-103066588D01*
X38534108Y-103100500D01*
X38534110Y-103100500D01*
X38665890Y-103100500D01*
X38665892Y-103100500D01*
X38793186Y-103066392D01*
X38793188Y-103066390D01*
X38793190Y-103066390D01*
X38901190Y-103004035D01*
X38904067Y-103002639D01*
X38904853Y-103002122D01*
X38909862Y-102999028D01*
X38911161Y-102998277D01*
X38916519Y-102991294D01*
X39000500Y-102907314D01*
X39013764Y-102884341D01*
X39066390Y-102793190D01*
X39066390Y-102793188D01*
X39066392Y-102793186D01*
X39100500Y-102665892D01*
X39100500Y-102659581D01*
X39105343Y-102628995D01*
X39108723Y-102618590D01*
X39144683Y-102569090D01*
X39202872Y-102550179D01*
X39254598Y-102564762D01*
X39259506Y-102567770D01*
X39277786Y-102582179D01*
X39945417Y-103249810D01*
X39963622Y-103274868D01*
X39974709Y-103296627D01*
X39985500Y-103341573D01*
X39985500Y-106841126D01*
X39982125Y-106866754D01*
X39975608Y-106891071D01*
X39965720Y-106914943D01*
X39919606Y-106994814D01*
X39919330Y-106995545D01*
X39918784Y-106997886D01*
X39885500Y-107122108D01*
X39885500Y-107253892D01*
X39915579Y-107366151D01*
X39919609Y-107381190D01*
X39985496Y-107495309D01*
X39985498Y-107495311D01*
X39985500Y-107495314D01*
X39987553Y-107497367D01*
X39988605Y-107499362D01*
X39989445Y-107500456D01*
X39989341Y-107500535D01*
X40003881Y-107520549D01*
X40008063Y-107528758D01*
X40009467Y-107531513D01*
X40011919Y-107547007D01*
X40013453Y-107550017D01*
X40012924Y-107553351D01*
X40019034Y-107591945D01*
X39993068Y-107644597D01*
X39986140Y-107651898D01*
X39963831Y-107669487D01*
X39951688Y-107676498D01*
X39858492Y-107769694D01*
X39792608Y-107883809D01*
X39792330Y-107884545D01*
X39791784Y-107886886D01*
X39768392Y-107974191D01*
X39758500Y-108011108D01*
X39758500Y-108142892D01*
X39761135Y-108152725D01*
X39768602Y-108180593D01*
X39792610Y-108270194D01*
X39858494Y-108384307D01*
X39858496Y-108384309D01*
X39858498Y-108384311D01*
X39858500Y-108384314D01*
X39951686Y-108477500D01*
X39951688Y-108477501D01*
X39951690Y-108477503D01*
X39952237Y-108477898D01*
X39954239Y-108478975D01*
X39968815Y-108487390D01*
X40009040Y-108510614D01*
X40030634Y-108534596D01*
X40064944Y-108543174D01*
X40066548Y-108543588D01*
X40193108Y-108577500D01*
X40193110Y-108577500D01*
X40324890Y-108577500D01*
X40324892Y-108577500D01*
X40452186Y-108543392D01*
X40532055Y-108497278D01*
X40555930Y-108487390D01*
X40580254Y-108480873D01*
X40605875Y-108477500D01*
X40609096Y-108477500D01*
X40614637Y-108477655D01*
X40620238Y-108477971D01*
X40625728Y-108478435D01*
X40647441Y-108480888D01*
X40647441Y-108480887D01*
X40647443Y-108480888D01*
X40647444Y-108480887D01*
X40660392Y-108482350D01*
X40660394Y-108482351D01*
X40660395Y-108482351D01*
X40667387Y-108483141D01*
X40679050Y-108478003D01*
X40689016Y-108477500D01*
X40692727Y-108477500D01*
X40716505Y-108471128D01*
X40727369Y-108468862D01*
X40751723Y-108465199D01*
X40762438Y-108460527D01*
X40769267Y-108457847D01*
X40776272Y-108455397D01*
X40783311Y-108453227D01*
X40794587Y-108450207D01*
X40815906Y-108437897D01*
X40825829Y-108432889D01*
X40848390Y-108423055D01*
X40860401Y-108413480D01*
X40872604Y-108405162D01*
X40885913Y-108397480D01*
X40907254Y-108376138D01*
X40930854Y-108357329D01*
X40944378Y-108339014D01*
X40960480Y-108322913D01*
X40971404Y-108303987D01*
X40974308Y-108299271D01*
X40977368Y-108294599D01*
X40980518Y-108290073D01*
X40995204Y-108270186D01*
X41311552Y-107841795D01*
X41333612Y-107820075D01*
X41340453Y-107815185D01*
X41398785Y-107796734D01*
X41456827Y-107816094D01*
X41492286Y-107865503D01*
X41494772Y-107873256D01*
X41499500Y-107903484D01*
X41499500Y-108152724D01*
X41499499Y-108152724D01*
X41504263Y-108170503D01*
X41512033Y-108199500D01*
X41526794Y-108254592D01*
X41579516Y-108345908D01*
X41579518Y-108345910D01*
X41579520Y-108345913D01*
X42079518Y-108845910D01*
X42079520Y-108845913D01*
X42154087Y-108920480D01*
X42199750Y-108946843D01*
X42245412Y-108973207D01*
X42347273Y-109000500D01*
X45153125Y-109000500D01*
X45178748Y-109003873D01*
X45203070Y-109010390D01*
X45226947Y-109020281D01*
X45306810Y-109066390D01*
X45306808Y-109066390D01*
X45306812Y-109066391D01*
X45306814Y-109066392D01*
X45434108Y-109100500D01*
X45434110Y-109100500D01*
X45565890Y-109100500D01*
X45565892Y-109100500D01*
X45693186Y-109066392D01*
X45693188Y-109066390D01*
X45693190Y-109066390D01*
X45801190Y-109004035D01*
X45804067Y-109002639D01*
X45804853Y-109002122D01*
X45809862Y-108999028D01*
X45811161Y-108998277D01*
X45816519Y-108991294D01*
X45900500Y-108907314D01*
X45966392Y-108793186D01*
X46000500Y-108665892D01*
X46000500Y-108534108D01*
X45966392Y-108406814D01*
X45966390Y-108406811D01*
X45966390Y-108406809D01*
X45966383Y-108406798D01*
X45966066Y-108406094D01*
X45964812Y-108404076D01*
X45900503Y-108292690D01*
X45900501Y-108292688D01*
X45900500Y-108292686D01*
X45807314Y-108199500D01*
X45807311Y-108199498D01*
X45807309Y-108199496D01*
X45801472Y-108196126D01*
X45750476Y-108166683D01*
X45729442Y-108143322D01*
X45643799Y-108120375D01*
X45643798Y-108120374D01*
X45586766Y-108105093D01*
X45565892Y-108099500D01*
X45565891Y-108099500D01*
X45434109Y-108099500D01*
X45434108Y-108099500D01*
X45410165Y-108105915D01*
X45318040Y-108130599D01*
X45318035Y-108130601D01*
X45306814Y-108133608D01*
X45306813Y-108133608D01*
X45306811Y-108133609D01*
X45273702Y-108152725D01*
X45271251Y-108154139D01*
X45271249Y-108154141D01*
X45226942Y-108179721D01*
X45203071Y-108189608D01*
X45178748Y-108196126D01*
X45153126Y-108199500D01*
X42622579Y-108199500D01*
X42591986Y-108194654D01*
X42568759Y-108187107D01*
X42529348Y-108162956D01*
X42340584Y-107974191D01*
X42322378Y-107949132D01*
X42311290Y-107927370D01*
X42300500Y-107882426D01*
X42300500Y-102946874D01*
X42303873Y-102921252D01*
X42307131Y-102909090D01*
X42310390Y-102896928D01*
X42320278Y-102873055D01*
X42366392Y-102793186D01*
X42400500Y-102665892D01*
X42400500Y-102534108D01*
X42366392Y-102406814D01*
X42366390Y-102406811D01*
X42366390Y-102406809D01*
X42366383Y-102406798D01*
X42366066Y-102406094D01*
X42364812Y-102404076D01*
X42300503Y-102292690D01*
X42300501Y-102292688D01*
X42300500Y-102292686D01*
X42207314Y-102199500D01*
X42207311Y-102199498D01*
X42207309Y-102199496D01*
X42204574Y-102197917D01*
X42150476Y-102166683D01*
X42129442Y-102143322D01*
X42043799Y-102120375D01*
X42043798Y-102120374D01*
X41986766Y-102105093D01*
X41965892Y-102099500D01*
X41965891Y-102099500D01*
X41834109Y-102099500D01*
X41834108Y-102099500D01*
X41795154Y-102109937D01*
X41756199Y-102120375D01*
X41756198Y-102120374D01*
X41706807Y-102133609D01*
X41706805Y-102133610D01*
X41595422Y-102197917D01*
X41595417Y-102197921D01*
X41592690Y-102199496D01*
X41592689Y-102199497D01*
X41592686Y-102199499D01*
X41592686Y-102199500D01*
X41580899Y-102211286D01*
X41580876Y-102211308D01*
X41526379Y-102265805D01*
X41501323Y-102284010D01*
X41489438Y-102290066D01*
X41429006Y-102299638D01*
X41428998Y-102299637D01*
X41423968Y-102298840D01*
X41369457Y-102271064D01*
X38540582Y-99442189D01*
X38522376Y-99417130D01*
X38511288Y-99395368D01*
X38500500Y-99350426D01*
X38500500Y-91547277D01*
X38500500Y-91547275D01*
X38500499Y-91547269D01*
X38494377Y-91524420D01*
X38473207Y-91445412D01*
X38473205Y-91445409D01*
X38473205Y-91445407D01*
X38473202Y-91445403D01*
X38472883Y-91444697D01*
X38471632Y-91442682D01*
X38420483Y-91354091D01*
X38420481Y-91354089D01*
X38420480Y-91354087D01*
X37745913Y-90679520D01*
X37745910Y-90679518D01*
X37745908Y-90679516D01*
X37711879Y-90659869D01*
X37690843Y-90636507D01*
X37654593Y-90626794D01*
X37615070Y-90616204D01*
X37615069Y-90616203D01*
X37569430Y-90603975D01*
X37552727Y-90599500D01*
X37552726Y-90599500D01*
X36446873Y-90599500D01*
X36421249Y-90596126D01*
X36396932Y-90589610D01*
X36373057Y-90579721D01*
X36293187Y-90533608D01*
X36233685Y-90517665D01*
X36165892Y-90499500D01*
X36165890Y-90499500D01*
X36034109Y-90499500D01*
X36034108Y-90499500D01*
X36022393Y-90502639D01*
X35966310Y-90517665D01*
X35966311Y-90517666D01*
X35906809Y-90533609D01*
X35906807Y-90533609D01*
X35906803Y-90533611D01*
X35792694Y-90599492D01*
X35699495Y-90692691D01*
X35633607Y-90806812D01*
X35633606Y-90806814D01*
X35625327Y-90837718D01*
X35625327Y-90837720D01*
X35599500Y-90934108D01*
X31338500Y-90934108D01*
X31338500Y-90627501D01*
X31343347Y-90596904D01*
X31346868Y-90586069D01*
X31382834Y-90536571D01*
X31441021Y-90517666D01*
X31445892Y-90517666D01*
X31495393Y-90530930D01*
X31556814Y-90566392D01*
X31684108Y-90600500D01*
X31684110Y-90600500D01*
X31815890Y-90600500D01*
X31815892Y-90600500D01*
X31943186Y-90566392D01*
X31943188Y-90566390D01*
X31943190Y-90566390D01*
X32051190Y-90504035D01*
X32054067Y-90502639D01*
X32054853Y-90502122D01*
X32059862Y-90499028D01*
X32061161Y-90498277D01*
X32066519Y-90491294D01*
X32150500Y-90407314D01*
X32197887Y-90325238D01*
X32216390Y-90293190D01*
X32216390Y-90293188D01*
X32216392Y-90293186D01*
X32250500Y-90165892D01*
X32250500Y-90034108D01*
X32216392Y-89906814D01*
X32216390Y-89906811D01*
X32216390Y-89906809D01*
X32216383Y-89906798D01*
X32216064Y-89906091D01*
X32214805Y-89904063D01*
X32150507Y-89792697D01*
X32150503Y-89792690D01*
X32150498Y-89792684D01*
X32140579Y-89782765D01*
X32122377Y-89757708D01*
X32111289Y-89735945D01*
X32100500Y-89691003D01*
X32100500Y-86785501D01*
X32105347Y-86754904D01*
X32108868Y-86744069D01*
X32144834Y-86694571D01*
X32203021Y-86675666D01*
X32207892Y-86675666D01*
X32257393Y-86688930D01*
X32318814Y-86724392D01*
X32446108Y-86758500D01*
X32446110Y-86758500D01*
X32577890Y-86758500D01*
X32577891Y-86758500D01*
X32577892Y-86758500D01*
X32633734Y-86743536D01*
X32664536Y-86740299D01*
X32676825Y-86740943D01*
X32733945Y-86762871D01*
X32766563Y-86811690D01*
X32781086Y-86860720D01*
X32781074Y-86860723D01*
X32781914Y-86863294D01*
X32807610Y-86959194D01*
X32873494Y-87073307D01*
X32873496Y-87073309D01*
X32873498Y-87073311D01*
X32873500Y-87073314D01*
X32966686Y-87166500D01*
X32966688Y-87166501D01*
X32966690Y-87166503D01*
X32967237Y-87166898D01*
X32969239Y-87167975D01*
X33013207Y-87193359D01*
X33024040Y-87199614D01*
X33045634Y-87223596D01*
X33079944Y-87232174D01*
X33081548Y-87232588D01*
X33208108Y-87266500D01*
X33208110Y-87266500D01*
X33339890Y-87266500D01*
X33339892Y-87266500D01*
X33467186Y-87232392D01*
X33467188Y-87232390D01*
X33467190Y-87232390D01*
X33575190Y-87170035D01*
X33578067Y-87168639D01*
X33578853Y-87168122D01*
X33583862Y-87165028D01*
X33585161Y-87164277D01*
X33590519Y-87157294D01*
X33674500Y-87073314D01*
X33721540Y-86991839D01*
X33740390Y-86959190D01*
X33740390Y-86959188D01*
X33740392Y-86959186D01*
X33774500Y-86831892D01*
X33774500Y-86700108D01*
X33740392Y-86572814D01*
X33740390Y-86572811D01*
X33740390Y-86572809D01*
X33740383Y-86572798D01*
X33740064Y-86572091D01*
X33738805Y-86570063D01*
X33674507Y-86458697D01*
X33674503Y-86458690D01*
X33674498Y-86458684D01*
X33664579Y-86448765D01*
X33646377Y-86423708D01*
X33635289Y-86401945D01*
X33624500Y-86357003D01*
X33624500Y-82467539D01*
X36714200Y-82467539D01*
X36714200Y-82614459D01*
X36739272Y-82740504D01*
X36742860Y-82758541D01*
X36742860Y-82758543D01*
X36797648Y-82890815D01*
X36798035Y-82891810D01*
X36798051Y-82892106D01*
X36798533Y-82893452D01*
X36824484Y-82932290D01*
X36824501Y-82932314D01*
X36880699Y-83016420D01*
X36984580Y-83120301D01*
X37106731Y-83201920D01*
X37242458Y-83258140D01*
X37386545Y-83286800D01*
X37386547Y-83286800D01*
X37533453Y-83286800D01*
X37533455Y-83286800D01*
X37677542Y-83258140D01*
X37813269Y-83201920D01*
X37935420Y-83120301D01*
X38039301Y-83016420D01*
X38120920Y-82894269D01*
X38177140Y-82758542D01*
X38205800Y-82614455D01*
X38205800Y-82467545D01*
X38177140Y-82323458D01*
X38161929Y-82286736D01*
X38148705Y-82254809D01*
X38125840Y-82199608D01*
X38125839Y-82199607D01*
X38120921Y-82187733D01*
X38120921Y-82187732D01*
X38089484Y-82140684D01*
X38039301Y-82065580D01*
X37935420Y-81961699D01*
X37814726Y-81881053D01*
X37813459Y-81880174D01*
X37813267Y-81880078D01*
X37677542Y-81823860D01*
X37533459Y-81795200D01*
X37533457Y-81795200D01*
X37533455Y-81795200D01*
X37386545Y-81795200D01*
X37386542Y-81795200D01*
X37386539Y-81795200D01*
X37260492Y-81820272D01*
X37260487Y-81820273D01*
X37242458Y-81823860D01*
X37242456Y-81823860D01*
X37110228Y-81878630D01*
X37109186Y-81879035D01*
X37108890Y-81879051D01*
X37107549Y-81879531D01*
X36984580Y-81961698D01*
X36880698Y-82065580D01*
X36798608Y-82188433D01*
X36797655Y-82191150D01*
X36797432Y-82191705D01*
X36742860Y-82323456D01*
X36742860Y-82323458D01*
X36741073Y-82332439D01*
X36741072Y-82332443D01*
X36714200Y-82467539D01*
X33624500Y-82467539D01*
X33624500Y-80435542D01*
X36714200Y-80435542D01*
X36714200Y-80582457D01*
X36742860Y-80726541D01*
X36742860Y-80726543D01*
X36797648Y-80858815D01*
X36798035Y-80859810D01*
X36798051Y-80860106D01*
X36798532Y-80861450D01*
X36799078Y-80862267D01*
X36839749Y-80923134D01*
X36880699Y-80984420D01*
X36984580Y-81088301D01*
X37063895Y-81141298D01*
X37107546Y-81170465D01*
X37111218Y-81171778D01*
X37242458Y-81226140D01*
X37386545Y-81254800D01*
X37386547Y-81254800D01*
X37533453Y-81254800D01*
X37533455Y-81254800D01*
X37677542Y-81226140D01*
X37813269Y-81169920D01*
X37935420Y-81088301D01*
X38039301Y-80984420D01*
X38120920Y-80862269D01*
X38177140Y-80726542D01*
X38205800Y-80582455D01*
X38205800Y-80435545D01*
X38177140Y-80291458D01*
X38120921Y-80155733D01*
X38120921Y-80155732D01*
X38058956Y-80062996D01*
X38048500Y-80047347D01*
X38039303Y-80033582D01*
X37935428Y-79929706D01*
X37935423Y-79929702D01*
X37935420Y-79929699D01*
X37814726Y-79849053D01*
X37813459Y-79848174D01*
X37813267Y-79848078D01*
X37677542Y-79791860D01*
X37533459Y-79763200D01*
X37533457Y-79763200D01*
X37533455Y-79763200D01*
X37386545Y-79763200D01*
X37386542Y-79763200D01*
X37386539Y-79763200D01*
X37260492Y-79788272D01*
X37260487Y-79788273D01*
X37242458Y-79791860D01*
X37242456Y-79791860D01*
X37110228Y-79846630D01*
X37109186Y-79847035D01*
X37108890Y-79847051D01*
X37107549Y-79847531D01*
X36984580Y-79929698D01*
X36880698Y-80033580D01*
X36798531Y-80156549D01*
X36797214Y-80160231D01*
X36743505Y-80289896D01*
X36743504Y-80289899D01*
X36742860Y-80291456D01*
X36742860Y-80291458D01*
X36714200Y-80435542D01*
X33624500Y-80435542D01*
X33624500Y-78458869D01*
X33629344Y-78428280D01*
X33630247Y-78425500D01*
X33636891Y-78405049D01*
X33661040Y-78365640D01*
X34067572Y-77959108D01*
X37199500Y-77959108D01*
X37199500Y-78090892D01*
X37214851Y-78148182D01*
X37233609Y-78218190D01*
X37233610Y-78218192D01*
X37233611Y-78218195D01*
X37299494Y-78332307D01*
X37299496Y-78332309D01*
X37299498Y-78332311D01*
X37299500Y-78332314D01*
X37392686Y-78425500D01*
X37392688Y-78425501D01*
X37392690Y-78425503D01*
X37393237Y-78425898D01*
X37395247Y-78426979D01*
X37450040Y-78458614D01*
X37471634Y-78482596D01*
X37505944Y-78491174D01*
X37507548Y-78491588D01*
X37634108Y-78525500D01*
X37634110Y-78525500D01*
X37765890Y-78525500D01*
X37765892Y-78525500D01*
X37893186Y-78491392D01*
X37893188Y-78491390D01*
X37893190Y-78491390D01*
X37960003Y-78452815D01*
X37988905Y-78441721D01*
X38001958Y-78438946D01*
X38017551Y-78440584D01*
X38019846Y-78440097D01*
X38021988Y-78441051D01*
X38062805Y-78445340D01*
X38072907Y-78449837D01*
X38102640Y-78470273D01*
X39614110Y-79981743D01*
X39632316Y-80006803D01*
X39643385Y-80028528D01*
X39654175Y-80073634D01*
X39650178Y-82510507D01*
X39645283Y-82541090D01*
X39637687Y-82564340D01*
X39613584Y-82603600D01*
X39599502Y-82617680D01*
X39599494Y-82617690D01*
X39533610Y-82731805D01*
X39533608Y-82731809D01*
X39514538Y-82802975D01*
X39514539Y-82802976D01*
X39499500Y-82859106D01*
X39499500Y-82990891D01*
X39506341Y-83016423D01*
X39533610Y-83118194D01*
X39599494Y-83232307D01*
X39599496Y-83232309D01*
X39599498Y-83232311D01*
X39599500Y-83232314D01*
X39692686Y-83325500D01*
X39692688Y-83325501D01*
X39692690Y-83325503D01*
X39693237Y-83325898D01*
X39695239Y-83326975D01*
X39739207Y-83352359D01*
X39750040Y-83358614D01*
X39771634Y-83382596D01*
X39805944Y-83391174D01*
X39807548Y-83391588D01*
X39934108Y-83425500D01*
X39934110Y-83425500D01*
X40065890Y-83425500D01*
X40065892Y-83425500D01*
X40193186Y-83391392D01*
X40193188Y-83391390D01*
X40193190Y-83391390D01*
X40301190Y-83329035D01*
X40304067Y-83327639D01*
X40304853Y-83327122D01*
X40309862Y-83324028D01*
X40311161Y-83323277D01*
X40316519Y-83316294D01*
X40400500Y-83232314D01*
X40400503Y-83232309D01*
X40466390Y-83118190D01*
X40466390Y-83118188D01*
X40466392Y-83118186D01*
X40500500Y-82990892D01*
X40500500Y-82859108D01*
X40466392Y-82731814D01*
X40466390Y-82731811D01*
X40466390Y-82731809D01*
X40466383Y-82731798D01*
X40466064Y-82731091D01*
X40464805Y-82729063D01*
X40400507Y-82617697D01*
X40400503Y-82617690D01*
X40400498Y-82617684D01*
X40397266Y-82614452D01*
X40391233Y-82608418D01*
X40373030Y-82583362D01*
X40361959Y-82561633D01*
X40351169Y-82516526D01*
X40351174Y-82513892D01*
X40351391Y-82381814D01*
X40352917Y-81451542D01*
X41794200Y-81451542D01*
X41794200Y-81598457D01*
X41822860Y-81742541D01*
X41822860Y-81742543D01*
X41877648Y-81874815D01*
X41878035Y-81875810D01*
X41878051Y-81876106D01*
X41878532Y-81877450D01*
X41879078Y-81878267D01*
X41919749Y-81939134D01*
X41960699Y-82000420D01*
X42064580Y-82104301D01*
X42150430Y-82161664D01*
X42187546Y-82186465D01*
X42191218Y-82187778D01*
X42322458Y-82242140D01*
X42466545Y-82270800D01*
X42466547Y-82270800D01*
X42613453Y-82270800D01*
X42613455Y-82270800D01*
X42757542Y-82242140D01*
X42893269Y-82185920D01*
X43015420Y-82104301D01*
X43119301Y-82000420D01*
X43200920Y-81878269D01*
X43257140Y-81742542D01*
X43285800Y-81598455D01*
X43285800Y-81451545D01*
X43257140Y-81307458D01*
X43200921Y-81171733D01*
X43200921Y-81171732D01*
X43180585Y-81141298D01*
X43119301Y-81049580D01*
X43015420Y-80945699D01*
X42894726Y-80865053D01*
X42893459Y-80864174D01*
X42893267Y-80864078D01*
X42757542Y-80807860D01*
X42613459Y-80779200D01*
X42613457Y-80779200D01*
X42613455Y-80779200D01*
X42466545Y-80779200D01*
X42466542Y-80779200D01*
X42466539Y-80779200D01*
X42340492Y-80804272D01*
X42340487Y-80804273D01*
X42322458Y-80807860D01*
X42322456Y-80807860D01*
X42190228Y-80862630D01*
X42189186Y-80863035D01*
X42188890Y-80863051D01*
X42187549Y-80863531D01*
X42064580Y-80945698D01*
X41960698Y-81049580D01*
X41878531Y-81172549D01*
X41877214Y-81176231D01*
X41823505Y-81305896D01*
X41823504Y-81305899D01*
X41822860Y-81307456D01*
X41822860Y-81307458D01*
X41794200Y-81451542D01*
X40352917Y-81451542D01*
X40355424Y-79923374D01*
X40355499Y-79923095D01*
X40355499Y-79877715D01*
X40355575Y-79831382D01*
X40355574Y-79831381D01*
X40355575Y-79831238D01*
X40355527Y-79830916D01*
X40355499Y-79830814D01*
X40355499Y-79830808D01*
X40355499Y-79830807D01*
X40345064Y-79791860D01*
X40343653Y-79786594D01*
X40343655Y-79786593D01*
X40343624Y-79786488D01*
X40331835Y-79742199D01*
X40331832Y-79742193D01*
X40331619Y-79741679D01*
X40331618Y-79741675D01*
X40331616Y-79741670D01*
X40331614Y-79741663D01*
X40320513Y-79722436D01*
X40308560Y-79701731D01*
X40308407Y-79701466D01*
X40286320Y-79663065D01*
X40285905Y-79662292D01*
X40285563Y-79661832D01*
X40252799Y-79629067D01*
X40252792Y-79629061D01*
X40252788Y-79629057D01*
X40220672Y-79596836D01*
X40220422Y-79596691D01*
X38368261Y-77744530D01*
X38288337Y-77698386D01*
X38199193Y-77674500D01*
X38199191Y-77674500D01*
X38114001Y-77674500D01*
X38083407Y-77669654D01*
X38060181Y-77662107D01*
X38020773Y-77637959D01*
X38007314Y-77624500D01*
X38007311Y-77624498D01*
X38007309Y-77624496D01*
X37976645Y-77606792D01*
X37950476Y-77591683D01*
X37929442Y-77568322D01*
X37843799Y-77545375D01*
X37843798Y-77545374D01*
X37783657Y-77529260D01*
X37765892Y-77524500D01*
X37765891Y-77524500D01*
X37634109Y-77524500D01*
X37634108Y-77524500D01*
X37595154Y-77534937D01*
X37556199Y-77545375D01*
X37556198Y-77545374D01*
X37506807Y-77558609D01*
X37506805Y-77558610D01*
X37392694Y-77624492D01*
X37299492Y-77717694D01*
X37233610Y-77831805D01*
X37233608Y-77831809D01*
X37223988Y-77867710D01*
X37223989Y-77867711D01*
X37223989Y-77867712D01*
X37199500Y-77959108D01*
X34067572Y-77959108D01*
X34798904Y-77227775D01*
X34823955Y-77209574D01*
X34840872Y-77200956D01*
X34891006Y-77190304D01*
X34895233Y-77190526D01*
X34915658Y-77193762D01*
X34941560Y-77200702D01*
X35034108Y-77225500D01*
X35034110Y-77225500D01*
X35165890Y-77225500D01*
X35165892Y-77225500D01*
X35293186Y-77191392D01*
X35293188Y-77191390D01*
X35293190Y-77191390D01*
X35401190Y-77129035D01*
X35404067Y-77127639D01*
X35404853Y-77127122D01*
X35409862Y-77124028D01*
X35411161Y-77123277D01*
X35416519Y-77116294D01*
X35500500Y-77032314D01*
X35512241Y-77011978D01*
X35566390Y-76918190D01*
X35566390Y-76918188D01*
X35566392Y-76918186D01*
X35600500Y-76790892D01*
X35600500Y-76659108D01*
X35566392Y-76531814D01*
X35566390Y-76531811D01*
X35566390Y-76531809D01*
X35566383Y-76531798D01*
X35566066Y-76531094D01*
X35564812Y-76529076D01*
X35500503Y-76417690D01*
X35500501Y-76417688D01*
X35500500Y-76417686D01*
X35407314Y-76324500D01*
X35407311Y-76324498D01*
X35407309Y-76324496D01*
X35407302Y-76324492D01*
X35350476Y-76291683D01*
X35329442Y-76268322D01*
X35243799Y-76245375D01*
X35243798Y-76245374D01*
X35186766Y-76230093D01*
X35165892Y-76224500D01*
X35165891Y-76224500D01*
X35065180Y-76224500D01*
X35034587Y-76219654D01*
X35021901Y-76215532D01*
X34972401Y-76179568D01*
X34972394Y-76179558D01*
X34969400Y-76175436D01*
X34950500Y-76117256D01*
X34950500Y-76040180D01*
X34955343Y-76009594D01*
X34959465Y-75996905D01*
X34995423Y-75947406D01*
X34996022Y-75946971D01*
X34999563Y-75944400D01*
X35057743Y-75925500D01*
X35165890Y-75925500D01*
X35165892Y-75925500D01*
X35293186Y-75891392D01*
X35293188Y-75891390D01*
X35293190Y-75891390D01*
X35401190Y-75829035D01*
X35404067Y-75827639D01*
X35404853Y-75827122D01*
X35409862Y-75824028D01*
X35411161Y-75823277D01*
X35416519Y-75816294D01*
X35500500Y-75732314D01*
X35566392Y-75618186D01*
X35600500Y-75490892D01*
X35600500Y-75359108D01*
X35566392Y-75231814D01*
X35566390Y-75231811D01*
X35566390Y-75231809D01*
X35566383Y-75231798D01*
X35566066Y-75231094D01*
X35564812Y-75229076D01*
X35500503Y-75117690D01*
X35500501Y-75117688D01*
X35500500Y-75117686D01*
X35407314Y-75024500D01*
X35407311Y-75024498D01*
X35407309Y-75024496D01*
X35407302Y-75024492D01*
X35350476Y-74991683D01*
X35329442Y-74968322D01*
X35243799Y-74945375D01*
X35243798Y-74945374D01*
X35186766Y-74930093D01*
X35165892Y-74924500D01*
X35165891Y-74924500D01*
X35065180Y-74924500D01*
X35034587Y-74919654D01*
X35021901Y-74915532D01*
X34972401Y-74879568D01*
X34972394Y-74879558D01*
X34969400Y-74875436D01*
X34950500Y-74817256D01*
X34950500Y-74740180D01*
X34955343Y-74709594D01*
X34959465Y-74696905D01*
X34995423Y-74647406D01*
X34996022Y-74646971D01*
X34999563Y-74644400D01*
X35057743Y-74625500D01*
X35165890Y-74625500D01*
X35165892Y-74625500D01*
X35293186Y-74591392D01*
X35293188Y-74591390D01*
X35293190Y-74591390D01*
X35401190Y-74529035D01*
X35404067Y-74527639D01*
X35404853Y-74527122D01*
X35409862Y-74524028D01*
X35411161Y-74523277D01*
X35416519Y-74516294D01*
X35500500Y-74432314D01*
X35566392Y-74318186D01*
X35600500Y-74190892D01*
X35600500Y-74059108D01*
X35566392Y-73931814D01*
X35566390Y-73931811D01*
X35566390Y-73931809D01*
X35566383Y-73931798D01*
X35566066Y-73931094D01*
X35564812Y-73929076D01*
X35500503Y-73817690D01*
X35500501Y-73817688D01*
X35500500Y-73817686D01*
X35407314Y-73724500D01*
X35407311Y-73724498D01*
X35407309Y-73724496D01*
X35407302Y-73724492D01*
X35350476Y-73691683D01*
X35329442Y-73668322D01*
X35243799Y-73645375D01*
X35243798Y-73645374D01*
X35186766Y-73630093D01*
X35165892Y-73624500D01*
X35165891Y-73624500D01*
X35065180Y-73624500D01*
X35034587Y-73619654D01*
X35021901Y-73615532D01*
X34972401Y-73579568D01*
X34972394Y-73579558D01*
X34969400Y-73575436D01*
X34950500Y-73517256D01*
X34950500Y-73409109D01*
X34950500Y-73409108D01*
X34916392Y-73281814D01*
X34916390Y-73281811D01*
X34916390Y-73281809D01*
X34916383Y-73281798D01*
X34916066Y-73281094D01*
X34914812Y-73279076D01*
X34850503Y-73167690D01*
X34850501Y-73167688D01*
X34850500Y-73167686D01*
X34757314Y-73074500D01*
X34757311Y-73074498D01*
X34757309Y-73074496D01*
X34725275Y-73056001D01*
X34700476Y-73041683D01*
X34679442Y-73018322D01*
X34593799Y-72995375D01*
X34593798Y-72995374D01*
X34536766Y-72980093D01*
X34515892Y-72974500D01*
X34515891Y-72974500D01*
X34384109Y-72974500D01*
X34384108Y-72974500D01*
X34345154Y-72984937D01*
X34306199Y-72995375D01*
X34306198Y-72995374D01*
X34256807Y-73008609D01*
X34256805Y-73008610D01*
X34145291Y-73072993D01*
X34145287Y-73072996D01*
X34142690Y-73074496D01*
X34142689Y-73074497D01*
X34142686Y-73074499D01*
X34142686Y-73074500D01*
X34132547Y-73084637D01*
X34129259Y-73087643D01*
X34117331Y-73093058D01*
X34107423Y-73102769D01*
X34085950Y-73113710D01*
X34041005Y-73124500D01*
X31888856Y-73124500D01*
X31829426Y-73140424D01*
X31799711Y-73148386D01*
X31729090Y-73189158D01*
X31708536Y-73198095D01*
X31697987Y-73201320D01*
X31697342Y-73199211D01*
X31646781Y-73203842D01*
X31594207Y-73172543D01*
X31570072Y-73116319D01*
X31583592Y-73056649D01*
X31583980Y-73055995D01*
X31599035Y-73036645D01*
X32720102Y-71915579D01*
X32745154Y-71897378D01*
X32766921Y-71886288D01*
X32811862Y-71875500D01*
X34685999Y-71875500D01*
X34716590Y-71880344D01*
X34739816Y-71887891D01*
X34779226Y-71912041D01*
X34792790Y-71925605D01*
X34793046Y-71925794D01*
X34795239Y-71926975D01*
X34839207Y-71952359D01*
X34850040Y-71958614D01*
X34871634Y-71982596D01*
X34905944Y-71991174D01*
X34907548Y-71991588D01*
X35034108Y-72025500D01*
X35034110Y-72025500D01*
X35165890Y-72025500D01*
X35165892Y-72025500D01*
X35293186Y-71991392D01*
X35293188Y-71991390D01*
X35293190Y-71991390D01*
X35401190Y-71929035D01*
X35404067Y-71927639D01*
X35404853Y-71927122D01*
X35409862Y-71924028D01*
X35411161Y-71923277D01*
X35416519Y-71916294D01*
X35500500Y-71832314D01*
X35566392Y-71718186D01*
X35600500Y-71590892D01*
X35600500Y-71459108D01*
X35566392Y-71331814D01*
X35566390Y-71331811D01*
X35566390Y-71331809D01*
X35566383Y-71331798D01*
X35566066Y-71331094D01*
X35564812Y-71329076D01*
X35500503Y-71217690D01*
X35500501Y-71217688D01*
X35500500Y-71217686D01*
X35407314Y-71124500D01*
X35407311Y-71124498D01*
X35407309Y-71124496D01*
X35350476Y-71091683D01*
X35329442Y-71068322D01*
X35243799Y-71045375D01*
X35243798Y-71045374D01*
X35186766Y-71030093D01*
X35165892Y-71024500D01*
X35165891Y-71024500D01*
X35065180Y-71024500D01*
X35034587Y-71019654D01*
X35021901Y-71015532D01*
X34972401Y-70979568D01*
X34972394Y-70979558D01*
X34969400Y-70975436D01*
X34950500Y-70917256D01*
X34950500Y-70809109D01*
X34950500Y-70809108D01*
X34916392Y-70681814D01*
X34916390Y-70681811D01*
X34916390Y-70681809D01*
X34916383Y-70681798D01*
X34916066Y-70681094D01*
X34914812Y-70679076D01*
X34850503Y-70567690D01*
X34850501Y-70567688D01*
X34850500Y-70567686D01*
X34757314Y-70474500D01*
X34757311Y-70474498D01*
X34757309Y-70474496D01*
X34754706Y-70472993D01*
X34700476Y-70441683D01*
X34679442Y-70418322D01*
X34593799Y-70395375D01*
X34593798Y-70395374D01*
X34536766Y-70380093D01*
X34515892Y-70374500D01*
X34515891Y-70374500D01*
X34384109Y-70374500D01*
X34384108Y-70374500D01*
X34345154Y-70384937D01*
X34306199Y-70395375D01*
X34306198Y-70395374D01*
X34256807Y-70408609D01*
X34256805Y-70408610D01*
X34145291Y-70472993D01*
X34145287Y-70472996D01*
X34142690Y-70474496D01*
X34142689Y-70474497D01*
X34142686Y-70474499D01*
X34142686Y-70474500D01*
X34132547Y-70484637D01*
X34129259Y-70487643D01*
X34117331Y-70493058D01*
X34107423Y-70502769D01*
X34085950Y-70513710D01*
X34041005Y-70524500D01*
X31948856Y-70524500D01*
X31859712Y-70548386D01*
X31779788Y-70594530D01*
X27659530Y-74714788D01*
X27613386Y-74794712D01*
X27589545Y-74883691D01*
X27589500Y-74883858D01*
X27589500Y-82033997D01*
X27584654Y-82064591D01*
X27577107Y-82087817D01*
X27552961Y-82127222D01*
X27539506Y-82140678D01*
X27539501Y-82140683D01*
X27539501Y-82140684D01*
X27539491Y-82140697D01*
X27473610Y-82254806D01*
X27473609Y-82254809D01*
X27465053Y-82286736D01*
X27465054Y-82286737D01*
X27439580Y-82381809D01*
X27439500Y-82382108D01*
X27439500Y-82513892D01*
X27446788Y-82541090D01*
X27463749Y-82604393D01*
X27463750Y-82604395D01*
X27466445Y-82614452D01*
X27473609Y-82641190D01*
X27539496Y-82755309D01*
X27539498Y-82755311D01*
X27539500Y-82755314D01*
X27549420Y-82765234D01*
X27567624Y-82790291D01*
X27578710Y-82812049D01*
X27589500Y-82856993D01*
X27589500Y-87857180D01*
X27584654Y-87887774D01*
X27581274Y-87898176D01*
X27545309Y-87947676D01*
X27487118Y-87966582D01*
X27435392Y-87951993D01*
X27430490Y-87948989D01*
X27412215Y-87934582D01*
X27339654Y-87862022D01*
X27339652Y-87862021D01*
X27339646Y-87862017D01*
X27167597Y-87747058D01*
X27167596Y-87747057D01*
X27167594Y-87747056D01*
X26976418Y-87667869D01*
X26773469Y-87627500D01*
X26773467Y-87627500D01*
X26773465Y-87627500D01*
X26566535Y-87627500D01*
X26566532Y-87627500D01*
X26566529Y-87627500D01*
X26363581Y-87667869D01*
X26363579Y-87667869D01*
X26172404Y-87747056D01*
X26000351Y-87862017D01*
X25854017Y-88008351D01*
X25739056Y-88180404D01*
X25696464Y-88283233D01*
X25677582Y-88309450D01*
X25674877Y-88315969D01*
X25671322Y-88318143D01*
X25669923Y-88320087D01*
X25663923Y-88325299D01*
X25662431Y-88323582D01*
X25622683Y-88347898D01*
X25561690Y-88343051D01*
X25515195Y-88303278D01*
X25514549Y-88302222D01*
X25500000Y-88250560D01*
X25500000Y-62764500D01*
X25518907Y-62706309D01*
X25568407Y-62670345D01*
X25599000Y-62665500D01*
X37187499Y-62665500D01*
X37187500Y-62665500D01*
X37233228Y-62660348D01*
X37315627Y-62620666D01*
X37372649Y-62549163D01*
X37393000Y-62460000D01*
X37393000Y-59847500D01*
X37387848Y-59801772D01*
X37348166Y-59719373D01*
X37276663Y-59662351D01*
X37276662Y-59662350D01*
X37187500Y-59642000D01*
X25599000Y-59642000D01*
X25540809Y-59623093D01*
X25504845Y-59573593D01*
X25500000Y-59543000D01*
X25500000Y-59502560D01*
X25504847Y-59471963D01*
X25508368Y-59461128D01*
X25544334Y-59411630D01*
X25602521Y-59392725D01*
X25611991Y-59392725D01*
X25646587Y-59398967D01*
X25712615Y-59423593D01*
X25712616Y-59423594D01*
X25712618Y-59423594D01*
X25712622Y-59423596D01*
X25712629Y-59423598D01*
X25772176Y-59430000D01*
X27567821Y-59430000D01*
X27567824Y-59430000D01*
X27627374Y-59423598D01*
X27651169Y-59414722D01*
X26903110Y-58666663D01*
X26875334Y-58612147D01*
X26884905Y-58551715D01*
X26923613Y-58510925D01*
X26977007Y-58480099D01*
X27070099Y-58387007D01*
X27100925Y-58333613D01*
X27146393Y-58292673D01*
X27207244Y-58286277D01*
X27256662Y-58313108D01*
X28004722Y-59061168D01*
X28013598Y-59037374D01*
X28020000Y-58977824D01*
X28020000Y-57182175D01*
X28013598Y-57122629D01*
X28013596Y-57122618D01*
X28004723Y-57098829D01*
X28004722Y-57098829D01*
X27256663Y-57846887D01*
X27202147Y-57874664D01*
X27141715Y-57865093D01*
X27100924Y-57826383D01*
X27070100Y-57772995D01*
X27070099Y-57772993D01*
X26977007Y-57679901D01*
X26923615Y-57649075D01*
X26923612Y-57649073D01*
X26882672Y-57603603D01*
X26876277Y-57542753D01*
X26903106Y-57493337D01*
X27651169Y-56745275D01*
X27651167Y-56745274D01*
X27651168Y-56745274D01*
X27627379Y-56736402D01*
X27627376Y-56736401D01*
X27576168Y-56730897D01*
X27567824Y-56730000D01*
X27567822Y-56730000D01*
X27055561Y-56730000D01*
X27024253Y-56722621D01*
X27017190Y-56722626D01*
X27013782Y-56720153D01*
X27011352Y-56719581D01*
X27004239Y-56716031D01*
X27005265Y-56713974D01*
X26967666Y-56686695D01*
X26948721Y-56628516D01*
X26967589Y-56570314D01*
X26968320Y-56569307D01*
X27010560Y-56535987D01*
X27167598Y-56470941D01*
X27339655Y-56355977D01*
X27485977Y-56209655D01*
X27600941Y-56037598D01*
X27680130Y-55846420D01*
X27720500Y-55643465D01*
X27720500Y-55436535D01*
X27680130Y-55233580D01*
X27600941Y-55042402D01*
X27485977Y-54870345D01*
X27339655Y-54724023D01*
X27332449Y-54719208D01*
X27167597Y-54609058D01*
X27167596Y-54609057D01*
X27167594Y-54609056D01*
X26976424Y-54529871D01*
X26976420Y-54529870D01*
X26976418Y-54529869D01*
X26943374Y-54523296D01*
X26908493Y-54509048D01*
X26908023Y-54508740D01*
X26907163Y-54508570D01*
X26906244Y-54507576D01*
X26901730Y-54504624D01*
X26902468Y-54503495D01*
X26865610Y-54463659D01*
X26858390Y-54402901D01*
X26888263Y-54349504D01*
X26888691Y-54349108D01*
X26940439Y-54323994D01*
X26986121Y-54316759D01*
X27188215Y-54251095D01*
X27377552Y-54154624D01*
X27549464Y-54029722D01*
X27699722Y-53879464D01*
X27824624Y-53707552D01*
X27921095Y-53518215D01*
X27986758Y-53316122D01*
X27997231Y-53250000D01*
X27249670Y-53250000D01*
X27191479Y-53231093D01*
X27155515Y-53181593D01*
X27154043Y-53125377D01*
X27170000Y-53065825D01*
X27170000Y-52934174D01*
X27154043Y-52874623D01*
X27157245Y-52813522D01*
X27195751Y-52765972D01*
X27249670Y-52750000D01*
X27997230Y-52750000D01*
X27997231Y-52750000D01*
X27997231Y-52749999D01*
X27986758Y-52683877D01*
X27921095Y-52481784D01*
X27824624Y-52292448D01*
X27824578Y-52292385D01*
X27765084Y-52210499D01*
X27739336Y-52175060D01*
X27725276Y-52147465D01*
X27721153Y-52134777D01*
X27721153Y-52073595D01*
X27721154Y-52073591D01*
X27723606Y-52066045D01*
X27747752Y-52026640D01*
X27888554Y-51885838D01*
X28025812Y-51748581D01*
X28050870Y-51730377D01*
X28072633Y-51719289D01*
X28117575Y-51708500D01*
X41578127Y-51708500D01*
X41603748Y-51711872D01*
G37*
%TD.AperFunction*%
%TA.AperFunction,Conductor*%
G36*
X49428365Y-87529380D02*
G01*
X49442647Y-87530950D01*
X49447741Y-87535581D01*
X49455559Y-87538083D01*
X49456153Y-87537056D01*
X49457348Y-87537746D01*
X49458686Y-87539084D01*
X49460675Y-87539721D01*
X49464152Y-87542202D01*
X49463174Y-87543572D01*
X49493580Y-87573979D01*
X49503530Y-87591212D01*
X50214540Y-88302222D01*
X50917418Y-89005100D01*
X50935623Y-89030158D01*
X50946709Y-89051915D01*
X50957500Y-89096861D01*
X50957500Y-94073997D01*
X50952654Y-94104591D01*
X50945107Y-94127817D01*
X50920961Y-94167222D01*
X50907506Y-94180678D01*
X50907501Y-94180683D01*
X50907497Y-94180689D01*
X50907491Y-94180697D01*
X50841608Y-94294809D01*
X50841330Y-94295545D01*
X50840784Y-94297886D01*
X50819706Y-94376554D01*
X50807500Y-94422108D01*
X50807500Y-94553892D01*
X50824595Y-94617691D01*
X50841609Y-94681190D01*
X50841610Y-94681192D01*
X50841611Y-94681195D01*
X50907495Y-94795309D01*
X50907495Y-94795310D01*
X50932098Y-94819913D01*
X50950304Y-94844972D01*
X50955267Y-94854713D01*
X50964837Y-94915145D01*
X50937058Y-94969661D01*
X50890179Y-94995918D01*
X50884584Y-94997262D01*
X50861461Y-95000000D01*
X50547740Y-95000000D01*
X50522116Y-94996626D01*
X50497795Y-94990109D01*
X50473919Y-94980218D01*
X50457959Y-94971004D01*
X50450475Y-94966683D01*
X50429441Y-94943321D01*
X50343799Y-94920375D01*
X50343798Y-94920374D01*
X50286766Y-94905093D01*
X50265892Y-94899500D01*
X50265891Y-94899500D01*
X50134109Y-94899500D01*
X50134108Y-94899500D01*
X50128510Y-94901000D01*
X50056199Y-94920374D01*
X50056200Y-94920375D01*
X50006804Y-94933610D01*
X49926077Y-94980219D01*
X49902205Y-94990108D01*
X49877888Y-94996625D01*
X49852260Y-95000000D01*
X48465180Y-95000000D01*
X48434587Y-94995154D01*
X48421901Y-94991032D01*
X48372401Y-94955068D01*
X48372394Y-94955058D01*
X48369400Y-94950936D01*
X48350500Y-94892756D01*
X48350500Y-88988056D01*
X48351346Y-88975140D01*
X48353027Y-88962371D01*
X48355550Y-88949686D01*
X48356500Y-88946143D01*
X48356500Y-88593869D01*
X48361344Y-88563280D01*
X48368891Y-88540049D01*
X48393040Y-88500640D01*
X49302470Y-87591212D01*
X49309426Y-87579162D01*
X49321905Y-87562072D01*
X49328694Y-87554604D01*
X49332341Y-87552521D01*
X49343739Y-87541119D01*
X49344962Y-87540230D01*
X49365646Y-87533504D01*
X49381828Y-87524264D01*
X49390970Y-87525269D01*
X49403149Y-87521309D01*
X49428365Y-87529380D01*
G37*
%TD.AperFunction*%
%TA.AperFunction,Conductor*%
G36*
X54915908Y-44904843D02*
G01*
X54928595Y-44908966D01*
X54978095Y-44944927D01*
X54978096Y-44944928D01*
X54981091Y-44949050D01*
X55000000Y-45007240D01*
X55000000Y-49841445D01*
X54995736Y-49870187D01*
X54987577Y-49897080D01*
X54975158Y-49923337D01*
X54949058Y-49962399D01*
X54949057Y-49962401D01*
X54869869Y-50153579D01*
X54869869Y-50153581D01*
X54829500Y-50356529D01*
X54829500Y-50563469D01*
X54869869Y-50766417D01*
X54869869Y-50766419D01*
X54878774Y-50787918D01*
X54886004Y-50818034D01*
X54887218Y-50833460D01*
X54874901Y-50889598D01*
X54870005Y-50898341D01*
X54853631Y-50919973D01*
X54503192Y-51270414D01*
X54478135Y-51288619D01*
X54456373Y-51299708D01*
X54411426Y-51310500D01*
X54229819Y-51310500D01*
X54199227Y-51305655D01*
X54199224Y-51305654D01*
X54188823Y-51302274D01*
X54139324Y-51266312D01*
X54120416Y-51208121D01*
X54135000Y-51156400D01*
X54138011Y-51151487D01*
X54152418Y-51133213D01*
X54155977Y-51129655D01*
X54270941Y-50957598D01*
X54350130Y-50766420D01*
X54390500Y-50563465D01*
X54390500Y-50356535D01*
X54350130Y-50153580D01*
X54270941Y-49962402D01*
X54155977Y-49790345D01*
X54009655Y-49644023D01*
X54009651Y-49644020D01*
X54002001Y-49638908D01*
X53837596Y-49529057D01*
X53741528Y-49489265D01*
X53710177Y-49476279D01*
X53686480Y-49466463D01*
X53660074Y-49450281D01*
X53653806Y-49444928D01*
X53621835Y-49392760D01*
X53626634Y-49331764D01*
X53666367Y-49285238D01*
X53666798Y-49284973D01*
X53667493Y-49284549D01*
X53719155Y-49270000D01*
X54237821Y-49270000D01*
X54237824Y-49270000D01*
X54297374Y-49263598D01*
X54321168Y-49254722D01*
X53573108Y-48506662D01*
X53545333Y-48452148D01*
X53554904Y-48391716D01*
X53593613Y-48350925D01*
X53647007Y-48320099D01*
X53740099Y-48227007D01*
X53770927Y-48173612D01*
X53816393Y-48132673D01*
X53877244Y-48126277D01*
X53926662Y-48153108D01*
X54674722Y-48901168D01*
X54683598Y-48877374D01*
X54690000Y-48817824D01*
X54690000Y-47022175D01*
X54683598Y-46962629D01*
X54683596Y-46962618D01*
X54674723Y-46938829D01*
X54674722Y-46938829D01*
X53926663Y-47686887D01*
X53872147Y-47714664D01*
X53811715Y-47705093D01*
X53770924Y-47666383D01*
X53740100Y-47612995D01*
X53740099Y-47612993D01*
X53647007Y-47519901D01*
X53631805Y-47511124D01*
X53593612Y-47489073D01*
X53552672Y-47443603D01*
X53546277Y-47382753D01*
X53573107Y-47333335D01*
X54321169Y-46585275D01*
X54321167Y-46585274D01*
X54321168Y-46585274D01*
X54297379Y-46576402D01*
X54297376Y-46576401D01*
X54249383Y-46571242D01*
X54237824Y-46570000D01*
X54237822Y-46570000D01*
X52442175Y-46570000D01*
X52382626Y-46576401D01*
X52358830Y-46585276D01*
X53106888Y-47333334D01*
X53134665Y-47387851D01*
X53125094Y-47448283D01*
X53086386Y-47489074D01*
X53032993Y-47519901D01*
X52939901Y-47612993D01*
X52909074Y-47666386D01*
X52863603Y-47707326D01*
X52802753Y-47713720D01*
X52753334Y-47686888D01*
X52005276Y-46938830D01*
X51996400Y-46962626D01*
X51990940Y-47013426D01*
X51990000Y-47022175D01*
X51990000Y-48817824D01*
X51989999Y-48817824D01*
X51996071Y-48874301D01*
X51996190Y-48876204D01*
X51996402Y-48877375D01*
X51996402Y-48877378D01*
X52005275Y-48901169D01*
X52753335Y-48153107D01*
X52807850Y-48125332D01*
X52868282Y-48134903D01*
X52909073Y-48173612D01*
X52939901Y-48227007D01*
X53032993Y-48320099D01*
X53032995Y-48320100D01*
X53086383Y-48350924D01*
X53127324Y-48396393D01*
X53133720Y-48457243D01*
X53106887Y-48506663D01*
X52358829Y-49254722D01*
X52358829Y-49254723D01*
X52382618Y-49263596D01*
X52382629Y-49263598D01*
X52442176Y-49270000D01*
X52954439Y-49270000D01*
X52985795Y-49277384D01*
X52992837Y-49277382D01*
X52996222Y-49279839D01*
X52998618Y-49280404D01*
X53005731Y-49283951D01*
X53004708Y-49286000D01*
X53042350Y-49313328D01*
X53061278Y-49371512D01*
X53042391Y-49429709D01*
X53041665Y-49430709D01*
X52999438Y-49464011D01*
X52958697Y-49480887D01*
X52842402Y-49529057D01*
X52670351Y-49644017D01*
X52524017Y-49790351D01*
X52409055Y-49962406D01*
X52400152Y-49983901D01*
X52383969Y-50010309D01*
X52373922Y-50022073D01*
X52325521Y-50053060D01*
X52315876Y-50055781D01*
X52288996Y-50059500D01*
X52130454Y-50059500D01*
X52099859Y-50054654D01*
X52077200Y-50047291D01*
X52035944Y-50021243D01*
X51835242Y-49809502D01*
X51834559Y-49808774D01*
X51830939Y-49804877D01*
X51824940Y-49796840D01*
X51824429Y-49797233D01*
X51820485Y-49792093D01*
X51820481Y-49792089D01*
X51820480Y-49792087D01*
X51787918Y-49759525D01*
X51786071Y-49757627D01*
X51754398Y-49724213D01*
X51753728Y-49723669D01*
X51749116Y-49720723D01*
X51745913Y-49717520D01*
X51727054Y-49706632D01*
X51726989Y-49706590D01*
X51705982Y-49694464D01*
X51703728Y-49693123D01*
X51664517Y-49669063D01*
X51664516Y-49669062D01*
X51664512Y-49669060D01*
X51664508Y-49669059D01*
X51659290Y-49667507D01*
X51654585Y-49664791D01*
X51610091Y-49652869D01*
X51610091Y-49652868D01*
X51609614Y-49652740D01*
X51609217Y-49652622D01*
X51607499Y-49652136D01*
X51563428Y-49639054D01*
X51563415Y-49639052D01*
X51557971Y-49638904D01*
X51552732Y-49637501D01*
X51552729Y-49637500D01*
X51552727Y-49637500D01*
X51552724Y-49637500D01*
X51506714Y-49637500D01*
X51505332Y-49637481D01*
X51505268Y-49637480D01*
X51504670Y-49637472D01*
X51503403Y-49637447D01*
X51501819Y-49637404D01*
X51496054Y-49637250D01*
X51484401Y-49636938D01*
X51474752Y-49633514D01*
X51446813Y-49636816D01*
X51435195Y-49637500D01*
X49096873Y-49637500D01*
X49071249Y-49634126D01*
X49046932Y-49627610D01*
X49023057Y-49617721D01*
X48943187Y-49571608D01*
X48893799Y-49558375D01*
X48815892Y-49537500D01*
X48815890Y-49537500D01*
X48684109Y-49537500D01*
X48684108Y-49537500D01*
X48655616Y-49545134D01*
X48568623Y-49568443D01*
X48568619Y-49568444D01*
X48556814Y-49571608D01*
X48556813Y-49571608D01*
X48556811Y-49571609D01*
X48508750Y-49599357D01*
X48506817Y-49600472D01*
X48506790Y-49600487D01*
X48476939Y-49617721D01*
X48453071Y-49627608D01*
X48428755Y-49634125D01*
X48403126Y-49637500D01*
X38371873Y-49637500D01*
X38346249Y-49634126D01*
X38321932Y-49627610D01*
X38298057Y-49617721D01*
X38218187Y-49571608D01*
X38168799Y-49558375D01*
X38090892Y-49537500D01*
X38090890Y-49537500D01*
X37959109Y-49537500D01*
X37959108Y-49537500D01*
X37930616Y-49545134D01*
X37843623Y-49568443D01*
X37843619Y-49568444D01*
X37831814Y-49571608D01*
X37831813Y-49571608D01*
X37831811Y-49571609D01*
X37783750Y-49599357D01*
X37781817Y-49600472D01*
X37781790Y-49600487D01*
X37751939Y-49617721D01*
X37728071Y-49627608D01*
X37703755Y-49634125D01*
X37678126Y-49637500D01*
X29556873Y-49637500D01*
X29531249Y-49634126D01*
X29506932Y-49627610D01*
X29483057Y-49617721D01*
X29403187Y-49571608D01*
X29353799Y-49558375D01*
X29275892Y-49537500D01*
X29275890Y-49537500D01*
X29144109Y-49537500D01*
X29144108Y-49537500D01*
X29105154Y-49547937D01*
X29066199Y-49558375D01*
X29066198Y-49558374D01*
X29016807Y-49571609D01*
X29016805Y-49571610D01*
X28902694Y-49637492D01*
X28809492Y-49730694D01*
X28743608Y-49844809D01*
X28743330Y-49845545D01*
X28742784Y-49847886D01*
X28722568Y-49923337D01*
X28709500Y-49972108D01*
X28709500Y-50103892D01*
X28719317Y-50140529D01*
X28743609Y-50231190D01*
X28743610Y-50231192D01*
X28743611Y-50231195D01*
X28809494Y-50345307D01*
X28809496Y-50345309D01*
X28809498Y-50345311D01*
X28809500Y-50345314D01*
X28902686Y-50438500D01*
X28902688Y-50438501D01*
X28902690Y-50438503D01*
X28903237Y-50438898D01*
X28905239Y-50439975D01*
X28925657Y-50451763D01*
X28960040Y-50471614D01*
X28981634Y-50495596D01*
X29015944Y-50504174D01*
X29017548Y-50504588D01*
X29144108Y-50538500D01*
X29144110Y-50538500D01*
X29275890Y-50538500D01*
X29275892Y-50538500D01*
X29403186Y-50504392D01*
X29483055Y-50458278D01*
X29506930Y-50448390D01*
X29531254Y-50441873D01*
X29556875Y-50438500D01*
X37678125Y-50438500D01*
X37703748Y-50441873D01*
X37728070Y-50448390D01*
X37751947Y-50458281D01*
X37831810Y-50504390D01*
X37831808Y-50504390D01*
X37831812Y-50504391D01*
X37831814Y-50504392D01*
X37959108Y-50538500D01*
X37959110Y-50538500D01*
X38090890Y-50538500D01*
X38090892Y-50538500D01*
X38218186Y-50504392D01*
X38298055Y-50458278D01*
X38321930Y-50448390D01*
X38346254Y-50441873D01*
X38371875Y-50438500D01*
X48403125Y-50438500D01*
X48428748Y-50441873D01*
X48453070Y-50448390D01*
X48476947Y-50458281D01*
X48556810Y-50504390D01*
X48556808Y-50504390D01*
X48556812Y-50504391D01*
X48556814Y-50504392D01*
X48684108Y-50538500D01*
X48684110Y-50538500D01*
X48815890Y-50538500D01*
X48815892Y-50538500D01*
X48943186Y-50504392D01*
X49023055Y-50458278D01*
X49046930Y-50448390D01*
X49071254Y-50441873D01*
X49096875Y-50438500D01*
X51269547Y-50438500D01*
X51300137Y-50443345D01*
X51322794Y-50450706D01*
X51364055Y-50476755D01*
X51446244Y-50563465D01*
X51576798Y-50701199D01*
X51579520Y-50705913D01*
X51613015Y-50739408D01*
X51613943Y-50740387D01*
X51613948Y-50740392D01*
X51629152Y-50756433D01*
X51646679Y-50781967D01*
X51650224Y-50789410D01*
X51658176Y-50850076D01*
X51628951Y-50903830D01*
X51573711Y-50930140D01*
X51573710Y-50930140D01*
X51568705Y-50930796D01*
X51530217Y-50928263D01*
X51519155Y-50925299D01*
X51452727Y-50907500D01*
X51452726Y-50907500D01*
X49596873Y-50907500D01*
X49571249Y-50904126D01*
X49546931Y-50897609D01*
X49523057Y-50887721D01*
X49454474Y-50848125D01*
X49449258Y-50844123D01*
X49437113Y-50839092D01*
X49430599Y-50838235D01*
X49355206Y-50818034D01*
X49315892Y-50807500D01*
X49315891Y-50807500D01*
X49184109Y-50807500D01*
X49184108Y-50807500D01*
X49164728Y-50812692D01*
X49068483Y-50838480D01*
X49068477Y-50838482D01*
X49056814Y-50841608D01*
X49056813Y-50841608D01*
X49056811Y-50841609D01*
X49013038Y-50866882D01*
X49010964Y-50868078D01*
X49010953Y-50868085D01*
X48976943Y-50887720D01*
X48953071Y-50897608D01*
X48928749Y-50904126D01*
X48903126Y-50907500D01*
X42271873Y-50907500D01*
X42246249Y-50904126D01*
X42221931Y-50897609D01*
X42198057Y-50887721D01*
X42129474Y-50848125D01*
X42124258Y-50844123D01*
X42112113Y-50839092D01*
X42105599Y-50838235D01*
X42030206Y-50818034D01*
X41990892Y-50807500D01*
X41990891Y-50807500D01*
X41859109Y-50807500D01*
X41859108Y-50807500D01*
X41839728Y-50812692D01*
X41743483Y-50838480D01*
X41743477Y-50838482D01*
X41731814Y-50841608D01*
X41731813Y-50841608D01*
X41731811Y-50841609D01*
X41688038Y-50866882D01*
X41685964Y-50868078D01*
X41685953Y-50868085D01*
X41651943Y-50887720D01*
X41628071Y-50897608D01*
X41603749Y-50904126D01*
X41578126Y-50907500D01*
X27847270Y-50907500D01*
X27812720Y-50916757D01*
X27802584Y-50919473D01*
X27771774Y-50922709D01*
X27768011Y-50922512D01*
X27760398Y-50922113D01*
X27703278Y-50900182D01*
X27669964Y-50848885D01*
X27669285Y-50846353D01*
X27668360Y-50798829D01*
X27668500Y-50798210D01*
X27673584Y-50782222D01*
X27680130Y-50766420D01*
X27720500Y-50563465D01*
X27720500Y-50356535D01*
X27680130Y-50153580D01*
X27600941Y-49962402D01*
X27485977Y-49790345D01*
X27339655Y-49644023D01*
X27339651Y-49644020D01*
X27332000Y-49638908D01*
X27167594Y-49529056D01*
X26976424Y-49449871D01*
X26976420Y-49449870D01*
X26976418Y-49449869D01*
X26943374Y-49443296D01*
X26908493Y-49429048D01*
X26908023Y-49428740D01*
X26907163Y-49428570D01*
X26906244Y-49427576D01*
X26901730Y-49424624D01*
X26902468Y-49423495D01*
X26865610Y-49383659D01*
X26858390Y-49322901D01*
X26888263Y-49269504D01*
X26888691Y-49269108D01*
X26940439Y-49243994D01*
X26986121Y-49236759D01*
X27188215Y-49171095D01*
X27377556Y-49074620D01*
X27431716Y-49035270D01*
X26903111Y-48506665D01*
X26875334Y-48452148D01*
X26884905Y-48391716D01*
X26923613Y-48350925D01*
X26977007Y-48320099D01*
X27070099Y-48227007D01*
X27100927Y-48173612D01*
X27146394Y-48132674D01*
X27207244Y-48126278D01*
X27256665Y-48153111D01*
X27785270Y-48681716D01*
X27824620Y-48627556D01*
X27921095Y-48438215D01*
X27986759Y-48236121D01*
X28016332Y-48049408D01*
X28020000Y-48026252D01*
X28020000Y-47813746D01*
X27986760Y-47603882D01*
X27959473Y-47519900D01*
X27921095Y-47401784D01*
X27824623Y-47212446D01*
X27824619Y-47212440D01*
X27824612Y-47212430D01*
X27785271Y-47158282D01*
X27785270Y-47158282D01*
X27785269Y-47158282D01*
X27785268Y-47158282D01*
X27256663Y-47686886D01*
X27202147Y-47714663D01*
X27141715Y-47705092D01*
X27100924Y-47666383D01*
X27070100Y-47612995D01*
X27070099Y-47612993D01*
X26977007Y-47519901D01*
X26977004Y-47519899D01*
X26923614Y-47489074D01*
X26882673Y-47443604D01*
X26876277Y-47382754D01*
X26903111Y-47333334D01*
X27078164Y-47158282D01*
X27286929Y-46949517D01*
X27431716Y-46804729D01*
X27431716Y-46804728D01*
X27431716Y-46804727D01*
X27377567Y-46765385D01*
X27377560Y-46765380D01*
X27377555Y-46765377D01*
X27377553Y-46765376D01*
X27259575Y-46705264D01*
X27259575Y-46705263D01*
X27188213Y-46668903D01*
X26986116Y-46603238D01*
X26776253Y-46570000D01*
X26776250Y-46570000D01*
X26563750Y-46570000D01*
X26563747Y-46570000D01*
X26353882Y-46603238D01*
X26151783Y-46668904D01*
X25962719Y-46765236D01*
X25962460Y-46765366D01*
X25962445Y-46765375D01*
X25908282Y-46804727D01*
X25908282Y-46804728D01*
X26436888Y-47333334D01*
X26464665Y-47387851D01*
X26455094Y-47448283D01*
X26416386Y-47489074D01*
X26362993Y-47519901D01*
X26269901Y-47612993D01*
X26239074Y-47666386D01*
X26193603Y-47707326D01*
X26132753Y-47713720D01*
X26083334Y-47686888D01*
X25536996Y-47140550D01*
X25518791Y-47115492D01*
X25511766Y-47101705D01*
X25501663Y-47045120D01*
X25503459Y-47029946D01*
X25500476Y-47023125D01*
X25500000Y-47013426D01*
X25500000Y-45014680D01*
X25504843Y-44984094D01*
X25508965Y-44971405D01*
X25544923Y-44921906D01*
X25545522Y-44921471D01*
X25549063Y-44918900D01*
X25607243Y-44900000D01*
X54885320Y-44900000D01*
X54915908Y-44904843D01*
G37*
%TD.AperFunction*%
%TA.AperFunction,Conductor*%
G36*
X26198282Y-48134902D02*
G01*
X26239073Y-48173612D01*
X26269901Y-48227007D01*
X26362993Y-48320099D01*
X26399136Y-48340966D01*
X26416383Y-48350924D01*
X26457323Y-48396394D01*
X26463718Y-48457244D01*
X26436886Y-48506663D01*
X25908282Y-49035268D01*
X25908282Y-49035269D01*
X25908282Y-49035270D01*
X25962440Y-49074619D01*
X25962446Y-49074623D01*
X26151784Y-49171095D01*
X26353878Y-49236759D01*
X26353879Y-49236759D01*
X26353882Y-49236760D01*
X26392687Y-49242906D01*
X26428084Y-49255764D01*
X26428610Y-49256079D01*
X26429489Y-49256218D01*
X26429491Y-49256219D01*
X26430459Y-49257187D01*
X26435017Y-49259918D01*
X26434332Y-49261060D01*
X26472756Y-49299484D01*
X26482327Y-49359916D01*
X26454550Y-49414433D01*
X26454138Y-49414845D01*
X26403449Y-49441939D01*
X26388423Y-49444928D01*
X26363581Y-49449869D01*
X26363578Y-49449869D01*
X26363574Y-49449871D01*
X26172404Y-49529056D01*
X26000351Y-49644017D01*
X25854017Y-49790351D01*
X25739056Y-49962404D01*
X25696464Y-50065233D01*
X25677582Y-50091450D01*
X25674877Y-50097969D01*
X25671322Y-50100143D01*
X25669923Y-50102087D01*
X25663923Y-50107299D01*
X25662431Y-50105582D01*
X25622683Y-50129898D01*
X25561690Y-50125051D01*
X25515195Y-50085278D01*
X25514549Y-50084222D01*
X25500000Y-50032560D01*
X25500000Y-48828955D01*
X25504252Y-48815866D01*
X25502007Y-48787378D01*
X25514320Y-48731233D01*
X25519217Y-48722487D01*
X25535590Y-48700853D01*
X26083335Y-48153107D01*
X26137850Y-48125331D01*
X26198282Y-48134902D01*
G37*
%TD.AperFunction*%
%TD*%
M02*
