<?xml version="1.0" encoding="UTF-8" standalone="no"?>
<svg
   width="210mm"
   height="297mm"
   viewBox="0 0 210 297"
   version="1.1"
   id="svg4136"
   inkscape:version="1.2.2 (732a01da63, 2022-12-09)"
   sodipodi:docname="Module-Aux.svg"
   xmlns:inkscape="http://www.inkscape.org/namespaces/inkscape"
   xmlns:sodipodi="http://sodipodi.sourceforge.net/DTD/sodipodi-0.dtd"
   xmlns="http://www.w3.org/2000/svg"
   xmlns:svg="http://www.w3.org/2000/svg"
   xmlns:rdf="http://www.w3.org/1999/02/22-rdf-syntax-ns#"
   xmlns:cc="http://creativecommons.org/ns#"
   xmlns:dc="http://purl.org/dc/elements/1.1/">
  <defs
     id="defs4130" />
  <sodipodi:namedview
     id="base"
     pagecolor="#ffffff"
     bordercolor="#666666"
     borderopacity="1.0"
     inkscape:pageopacity="0.0"
     inkscape:pageshadow="2"
     inkscape:zoom="2.8"
     inkscape:cx="110.35714"
     inkscape:cy="256.78571"
     inkscape:document-units="mm"
     inkscape:current-layer="layer1"
     inkscape:document-rotation="0"
     showgrid="true"
     inkscape:window-width="2560"
     inkscape:window-height="1369"
     inkscape:window-x="1912"
     inkscape:window-y="-8"
     inkscape:window-maximized="1"
     inkscape:showpageshadow="2"
     inkscape:pagecheckerboard="0"
     inkscape:deskcolor="#d1d1d1">
    <inkscape:grid
       type="xygrid"
       id="grid4744" />
  </sodipodi:namedview>
  <metadata
     id="metadata4133">
    <rdf:RDF>
      <cc:Work
         rdf:about="">
        <dc:format>image/svg+xml</dc:format>
        <dc:type
           rdf:resource="http://purl.org/dc/dcmitype/StillImage" />
      </cc:Work>
    </rdf:RDF>
  </metadata>
  <g
     inkscape:label="Layer 1"
     inkscape:groupmode="layer"
     id="layer1">
    <rect
       style="fill:none;stroke:#ff0000;stroke-width:0.102;stroke-miterlimit:4;stroke-dasharray:none;stroke-opacity:1"
       id="rect839"
       width="119.8979"
       height="119.89789"
       x="0.050999992"
       y="0.05099998"
       ry="5" />
    <rect
       style="fill:none;stroke:#ff0000;stroke-width:0.0509984;stroke-miterlimit:4;stroke-dasharray:none;stroke-opacity:1"
       id="rect839-1"
       width="44.949001"
       height="79.949005"
       x="12.525454"
       y="20.025515"
       ry="3.3340459" />
    <rect
       style="fill:none;stroke:#ff0000;stroke-width:0.00743114;stroke-miterlimit:4;stroke-dasharray:none;stroke-opacity:1"
       id="rect839-1-7"
       width="1.9925689"
       height="38.292568"
       x="25.503702"
       y="39.503716"
       ry="1.5968827" />
    <rect
       style="fill:none;stroke:#ff0000;stroke-width:0.00743114;stroke-miterlimit:4;stroke-dasharray:none;stroke-opacity:1"
       id="rect839-1-7-2"
       width="1.9925689"
       height="38.292568"
       x="29.727955"
       y="39.503716"
       ry="1.5968827" />
    <rect
       style="fill:none;stroke:#ff0000;stroke-width:0.00743114;stroke-miterlimit:4;stroke-dasharray:none;stroke-opacity:1"
       id="rect839-1-7-0"
       width="1.9925689"
       height="38.292568"
       x="33.952209"
       y="39.503716"
       ry="1.5968827" />
    <rect
       style="fill:none;stroke:#ff0000;stroke-width:0.00743114;stroke-miterlimit:4;stroke-dasharray:none;stroke-opacity:1"
       id="rect839-1-7-3"
       width="1.9925689"
       height="38.292568"
       x="38.17646"
       y="39.503716"
       ry="1.5968827" />
    <rect
       style="fill:none;stroke:#ff0000;stroke-width:0.00743114;stroke-miterlimit:4;stroke-dasharray:none;stroke-opacity:1"
       id="rect839-1-7-5"
       width="1.9925689"
       height="38.292568"
       x="42.400715"
       y="39.503716"
       ry="1.5968827" />
    <rect
       style="fill:none;stroke:#ff0000;stroke-width:0.0513133;stroke-miterlimit:4;stroke-dasharray:none;stroke-opacity:1"
       id="rect839-1-8"
       width="44.948978"
       height="79.948685"
       x="62.525459"
       y="20.025526"
       ry="3.3340328" />
    <rect
       style="fill:none;stroke:#00ff00;stroke-width:0.023;stroke-miterlimit:4;stroke-dasharray:none;stroke-opacity:1"
       id="rect839-1-8-8"
       width="18.976929"
       height="38.276932"
       x="25.511488"
       y="39.511501"
       ry="1.5962306" />
    <ellipse
       style="fill:none;stroke:#ff0000;stroke-width:0.065;stroke-miterlimit:4;stroke-dasharray:none;stroke-opacity:1"
       id="path861-8-9-2-73-3"
       cx="5.0000911"
       cy="5.000093"
       rx="1.6176471"
       ry="1.6176472" />
    <ellipse
       style="fill:none;stroke:#ff0000;stroke-width:0.065;stroke-miterlimit:4;stroke-dasharray:none;stroke-opacity:1"
       id="path861-8-9-2-73-3-8"
       cx="115.00009"
       cy="5.000093"
       rx="1.6176471"
       ry="1.6176472" />
    <ellipse
       style="fill:none;stroke:#ff0000;stroke-width:0.065;stroke-miterlimit:4;stroke-dasharray:none;stroke-opacity:1"
       id="path861-8-9-2-73-3-6"
       cx="5.0000911"
       cy="115.0001"
       rx="1.6176471"
       ry="1.6176472" />
    <ellipse
       style="fill:none;stroke:#ff0000;stroke-width:0.065;stroke-miterlimit:4;stroke-dasharray:none;stroke-opacity:1"
       id="path861-8-9-2-73-3-2"
       cx="115.00009"
       cy="115.0001"
       rx="1.6176471"
       ry="1.6176472" />
    <circle
       style="fill:none;stroke:#ff0000;stroke-width:0.0630247;stroke-miterlimit:4;stroke-dasharray:none;stroke-opacity:1"
       id="path861-8-9-2-73-3-1"
       cx="15"
       cy="15"
       r="1.5684876" />
    <circle
       style="fill:none;stroke:#ff0000;stroke-width:0.0630247;stroke-miterlimit:4;stroke-dasharray:none;stroke-opacity:1"
       id="path861-8-9-2-73-3-1-6"
       cx="105"
       cy="15"
       r="1.5684876" />
    <circle
       style="fill:none;stroke:#ff0000;stroke-width:0.0630247;stroke-miterlimit:4;stroke-dasharray:none;stroke-opacity:1"
       id="path861-8-9-2-73-3-1-7"
       cx="105"
       cy="105"
       r="1.5684876" />
    <ellipse
       style="fill:none;stroke:#ff0000;stroke-width:0.065;stroke-miterlimit:4;stroke-dasharray:none;stroke-opacity:1"
       id="path861-8-9-2-73-3-1-8"
       cx="15.050147"
       cy="105.05015"
       rx="1.6176471"
       ry="1.6176472" />
    <g
       id="g3487"
       transform="translate(-0.66317177,-13.77092)">
      <rect
         style="fill:none;stroke:#00ff00;stroke-width:0.0393523;stroke-miterlimit:4;stroke-dasharray:none;stroke-opacity:1"
         id="rect839-1-1"
         width="30.760649"
         height="69.560646"
         x="20.282801"
         y="40.790596"
         ry="2.9008291" />
      <g
         id="g3477"
         transform="translate(1.9129782,2.1707723)">
        <g
           id="g3469">
          <ellipse
             style="fill:none;stroke:#ff0000;stroke-width:0.065;stroke-miterlimit:4;stroke-dasharray:none;stroke-opacity:1"
             id="path861-8-9-2-73-3-1-8-9"
             cx="45.850147"
             cy="41.650146"
             rx="1.6176471"
             ry="1.6176472" />
          <ellipse
             style="fill:none;stroke:#ff0000;stroke-width:0.065;stroke-miterlimit:4;stroke-dasharray:none;stroke-opacity:1"
             id="path861-8-9-2-73-3-1-8-8"
             cx="21.650146"
             cy="41.650146"
             rx="1.6176471"
             ry="1.6176472" />
        </g>
        <g
           id="g3465"
           transform="translate(0,30.648766)">
          <ellipse
             style="fill:none;stroke:#ff0000;stroke-width:0.065;stroke-miterlimit:4;stroke-dasharray:none;stroke-opacity:1"
             id="path861-8-9-2-73-3-1-8-9-7"
             cx="45.850147"
             cy="74.501381"
             rx="1.6176471"
             ry="1.6176472" />
          <ellipse
             style="fill:none;stroke:#ff0000;stroke-width:0.065;stroke-miterlimit:4;stroke-dasharray:none;stroke-opacity:1"
             id="path861-8-9-2-73-3-1-8-8-4"
             cx="21.650146"
             cy="74.501381"
             rx="1.6176471"
             ry="1.6176472" />
        </g>
      </g>
    </g>
    <circle
       style="fill:none;stroke:#ff0000;stroke-width:0.098476;stroke-miterlimit:4;stroke-dasharray:none;stroke-opacity:1"
       id="path861-8-9-2-73-3-1-6-5"
       cx="95"
       cy="15"
       r="2.450762" />
    <circle
       style="fill:none;stroke:#ff0000;stroke-width:0.0488417;stroke-miterlimit:4;stroke-dasharray:none;stroke-opacity:1"
       id="path861-8-9-2-73-3-1-6-5-1"
       cx="84.999954"
       cy="59.868374"
       r="9.7255793" />
    <g
       aria-label="Speaker"
       id="text2886"
       style="font-size:6.25725px;font-family:'Special Elite';-inkscape-font-specification:'Special Elite, Normal';fill:#ff0000;stroke:#ff0000;stroke-width:0.197078">
      <path
         d="m 25.69351,23.888025 q 0,0.15582 -0.02139,0.30553 -0.01833,0.149709 -0.0275,0.30553 -0.02139,-0.02139 -0.04889,-0.03361 -0.02444,-0.01528 -0.05194,-0.01528 -0.03361,0 -0.06416,0.02139 -0.03055,0.02139 -0.03055,0.055 0,0.03666 0.03361,0.04888 0.03666,0.01222 0.07333,0.01222 0.03055,0 0.04277,-0.0031 0,0.03666 -0.02139,0.07638 -0.01833,0.03666 -0.04888,0.07333 -0.0275,0.03666 -0.06111,0.07027 -0.03055,0.03055 -0.055,0.055 -0.01833,0.01833 -0.03972,0.05194 -0.02139,0.03361 -0.04888,0.06722 -0.02444,0.03055 -0.05194,0.055 -0.0275,0.02139 -0.055,0.02139 -0.03055,0 -0.04888,-0.01528 -0.01833,-0.01833 -0.04277,-0.01833 -0.03361,0 -0.04277,0.03666 -0.0061,0.03361 -0.0061,0.06722 v 0.03666 q 0,0.01528 -0.06416,0.03972 -0.06416,0.02444 -0.15582,0.05499 -0.0886,0.0275 -0.186373,0.05805 -0.09471,0.0275 -0.158876,0.055 -0.125267,0.05194 -0.253589,0.08555 -0.128323,0.03361 -0.265811,0.03361 -0.100825,0 -0.195539,-0.0275 -0.09166,-0.02444 -0.186373,-0.055 -0.09166,-0.03361 -0.186374,-0.05805 -0.09166,-0.0275 -0.192483,-0.0275 -0.03972,0 -0.10388,0.01222 -0.06416,0.01222 -0.09777,0.03666 -0.01528,0.01222 -0.03055,0.04277 -0.01528,0.03361 -0.03666,0.03361 -0.01528,0 -0.04277,-0.01222 -0.0275,-0.01222 -0.03972,-0.01833 -0.07027,-0.03666 -0.119156,-0.09471 -0.04889,-0.06111 -0.08249,-0.131378 -0.03361,-0.07027 -0.04889,-0.146654 -0.01528,-0.07944 -0.01528,-0.152765 0,-0.05194 0.0092,-0.100825 0.01222,-0.05194 0.01222,-0.10388 0,-0.07333 -0.01833,-0.143599 -0.01528,-0.07027 -0.01528,-0.143599 0,-0.05194 0.01528,-0.10388 0.01833,-0.05194 0.01833,-0.10388 0,-0.03972 -0.01833,-0.07333 -0.01833,-0.03666 -0.01833,-0.07638 0,-0.0275 0.01833,-0.04583 0.02139,-0.01833 0.02139,-0.04277 0,-0.03666 -0.0031,-0.07333 -0.0031,-0.03666 -0.0031,-0.07333 0,-0.01833 0,-0.05194 0.0031,-0.03666 0.0092,-0.07027 0.0061,-0.03361 0.02139,-0.05805 0.01528,-0.02444 0.04277,-0.02444 0.055,0 0.109991,0.07027 0.05805,0.06722 0.10388,0.158875 0.04889,0.09166 0.07944,0.183318 0.03055,0.09166 0.03055,0.137489 0,0.01528 -0.01222,0.03055 -0.01222,0.01222 -0.03055,0.01222 0.01222,0.02139 0.0275,0.06416 0.01528,0.04277 0.01528,0.06722 0,0.03666 -0.01222,0.07027 -0.0092,0.03361 -0.0092,0.07027 0,0.03055 0.01222,0.05805 0.01528,0.0275 0.03055,0.05194 0.02444,0.03666 0.04277,0.055 0.01833,0.01833 0.03972,0.0275 0.02139,0.0061 0.04583,0.0092 0.0275,0.0031 0.07027,0.0061 0.06111,0.0886 0.137489,0.164986 0.07638,0.07638 0.164986,0.137488 0.137488,0.03055 0.271921,0.04888 0.134434,0.01833 0.271922,0.01833 0.113046,0 0.195539,-0.02444 0.08555,-0.02444 0.15582,-0.06416 0.07333,-0.03972 0.140544,-0.0886 0.06722,-0.05194 0.140544,-0.106935 0.05194,-0.03666 0.10999,-0.07027 0.05805,-0.03361 0.113046,-0.07027 0.055,-0.03666 0.10388,-0.07944 0.04888,-0.04583 0.08249,-0.10388 0.02139,-0.03666 0.0611,-0.07333 0.04278,-0.03972 0.04278,-0.08555 0,-0.01833 -0.0031,-0.0275 -0.01222,-0.09777 -0.01833,-0.189428 -0.0031,-0.09471 -0.0092,-0.192484 -0.0061,-0.09166 -0.03972,-0.137488 -0.03361,-0.04889 -0.08555,-0.07944 -0.04888,-0.03361 -0.106935,-0.06416 -0.05805,-0.03055 -0.113046,-0.08555 -0.05805,-0.05805 -0.131378,-0.07333 -0.07027,-0.01528 -0.146654,-0.01833 -0.07638,-0.0031 -0.152765,-0.0092 -0.07333,-0.0092 -0.137488,-0.05805 -0.01833,-0.01222 -0.03055,-0.01222 -0.0275,0 -0.055,0.01833 -0.02444,0.01528 -0.055,0.01528 -0.04583,0 -0.09471,-0.01222 -0.04583,-0.01222 -0.09166,-0.0275 -0.04583,-0.01528 -0.09166,-0.03055 -0.04583,-0.01528 -0.09166,-0.02139 -0.06111,-0.0092 -0.100825,-0.01222 -0.03666,-0.0031 -0.07027,-0.0092 -0.03055,-0.0092 -0.06722,-0.02444 -0.03666,-0.01833 -0.09166,-0.05499 -0.158876,-0.10388 -0.339138,-0.152765 -0.03361,-0.08555 -0.0886,-0.174152 -0.03361,-0.02139 -0.06722,-0.03972 -0.03055,-0.02139 -0.06111,-0.04583 -0.01833,-0.03055 -0.04888,-0.106936 -0.0275,-0.07638 -0.055,-0.16193 -0.0275,-0.0886 -0.04888,-0.164986 -0.01833,-0.07638 -0.01833,-0.109991 0,-0.07027 0.01528,-0.134433 0.01528,-0.06416 0.07027,-0.116102 0.0092,-0.0061 0.02139,-0.01528 0.01528,-0.01222 0.01528,-0.0275 0,-0.01528 -0.02444,-0.02139 -0.02139,-0.0092 -0.02139,-0.03361 0,-0.0031 0.0031,-0.0092 0.0031,-0.0092 0.0031,-0.01528 0.02139,-0.06722 0.06416,-0.128323 0.04277,-0.06111 0.09777,-0.116101 0.05499,-0.055 0.113046,-0.100825 0.06111,-0.04888 0.116101,-0.0886 0.03972,-0.0275 0.06722,-0.07027 0.03055,-0.04277 0.06416,-0.06111 0.02139,0 0.04277,0 0.02139,-0.0031 0.04277,-0.0031 0.02444,0 0.04277,0.0031 0.02139,0 0.04583,0 0.03361,-0.01222 0.04583,-0.0275 0.01222,-0.01833 0.02444,-0.03361 0.01222,-0.01528 0.03055,-0.02444 0.02139,-0.0092 0.07333,-0.0092 0.03361,0 0.06722,0.0031 0.03361,0 0.06722,0 0.116101,0 0.229147,-0.0031 0.116102,-0.0031 0.232203,-0.0031 0.08249,0 0.161931,0.0031 0.08249,0 0.164986,0.01222 0.055,0.0061 0.106935,0.02444 0.05194,0.01528 0.109991,0.01528 0.055,0 0.07638,-0.02139 0.02444,-0.02139 0.03666,-0.04583 0.01528,-0.02444 0.03361,-0.04583 0.01833,-0.02139 0.06416,-0.02139 0.06416,0 0.131378,0.03361 0.07027,0.03361 0.131378,0.055 l -0.0031,0.01222 q -0.0092,0.0275 -0.0092,0.06111 0,0.05194 0.01528,0.10388 0.01833,0.04888 0.03666,0.09777 0.01833,0.04888 0.03361,0.09777 0.01833,0.04888 0.01833,0.10388 0,0.03361 -0.0061,0.06416 -0.0061,0.0275 -0.0061,0.0611 0,0.06111 0.02444,0.0886 0.02444,0.02444 0.02444,0.04583 0,0.02444 -0.02139,0.04277 -0.02139,0.01528 -0.02139,0.04889 0,0.07944 0.0092,0.158875 0.0092,0.07638 0.0092,0.15582 0,0.0275 -0.0031,0.08249 0,0.055 -0.01222,0.109991 -0.0092,0.05194 -0.03361,0.09166 -0.02139,0.03972 -0.06416,0.03972 -0.04583,0 -0.0886,-0.03361 -0.04277,-0.03666 -0.07027,-0.07027 -0.03972,-0.04277 -0.05805,-0.09166 -0.01833,-0.05194 -0.03055,-0.106936 -0.01222,-0.05499 -0.0275,-0.106935 -0.01528,-0.055 -0.04583,-0.100825 -0.04889,-0.07027 -0.09471,-0.140544 -0.04278,-0.07333 -0.08555,-0.146654 -0.03361,-0.055 -0.05805,-0.07638 -0.02444,-0.02139 -0.05194,-0.0275 -0.0275,-0.0092 -0.06416,-0.0092 -0.03361,0 -0.08555,-0.0092 -0.05499,-0.0092 -0.109991,-0.0275 -0.05194,-0.01833 -0.106935,-0.03361 -0.05194,-0.01833 -0.106936,-0.03055 -0.055,-0.01528 -0.10999,-0.01528 -0.0886,0 -0.180263,0.0275 -0.09166,0.0275 -0.183318,0.07027 -0.09166,0.03972 -0.180262,0.08555 -0.0886,0.04277 -0.171097,0.07333 -0.07638,0.16193 -0.07638,0.348304 0,0.134433 0.03055,0.219981 0.03055,0.08555 0.08249,0.146654 0.05499,0.05805 0.122211,0.103881 0.07027,0.04583 0.146655,0.09777 0.07944,0.05194 0.15582,0.07027 0.07944,0.01528 0.171097,0.01528 0.05194,0 0.100824,-0.0031 0.05194,-0.0031 0.103881,-0.0031 0.05805,0 0.10999,0.01528 0.05194,0.01528 0.100825,0.03666 0.05194,0.01833 0.10388,0.03361 0.05194,0.01528 0.106936,0.01528 0.05194,0 0.09777,-0.0061 0.04889,-0.0061 0.09777,-0.0061 0.04277,0 0.07638,0.02139 0.03361,0.01833 0.06722,0.04583 0.03361,0.02444 0.06722,0.04583 0.03666,0.02139 0.07944,0.02444 0.06111,0.03055 0.100825,0.055 0.03972,0.02444 0.07027,0.05194 0.03361,0.0275 0.06111,0.06722 0.03055,0.03972 0.06722,0.09777 0.03361,0.05805 0.0886,0.100825 0.055,0.04277 0.0886,0.10388 0.01222,0.02139 0.01528,0.05194 0.0031,0.0275 0.0092,0.055 0.0061,0.02444 0.01833,0.04583 0.01528,0.01833 0.04583,0.02139 0.0031,0.03361 0.0031,0.06722 0.0031,0.03055 0.0031,0.06416 z"
         id="path4468" />
      <path
         d="m 29.378199,23.924689 q 0,0.131377 -0.0275,0.256645 -0.0275,0.125267 -0.04583,0.253589 -0.0061,0.04277 -0.0092,0.07944 0,0.03361 -0.0061,0.06722 -0.0061,0.03055 -0.02139,0.06416 -0.01528,0.03055 -0.04583,0.06416 -0.03972,0.04277 -0.055,0.09166 -0.01528,0.04583 -0.03055,0.09777 -0.01833,0.05194 -0.04277,0.07944 -0.02139,0.02444 -0.04888,0.04277 -0.02444,0.01833 -0.05499,0.03666 -0.0275,0.01528 -0.05805,0.04888 -0.01833,0.02139 -0.02444,0.04277 -0.0031,0.02139 -0.0061,0.04277 -0.0031,0.01833 -0.01528,0.03666 -0.0092,0.01833 -0.03972,0.03055 -0.04888,0.02139 -0.07027,0.04888 -0.02139,0.02444 -0.055,0.05805 -0.03361,0.03361 -0.0886,0.06416 -0.05194,0.03361 -0.113046,0.05805 -0.05805,0.02444 -0.119157,0.03972 -0.06111,0.01528 -0.106935,0.01528 -0.05805,0 -0.116101,-0.01222 -0.055,-0.01222 -0.113046,-0.01222 -0.03361,0 -0.05194,0.0092 -0.01528,0.01222 -0.0275,0.02444 -0.01222,0.01222 -0.0275,0.02139 -0.01222,0.01222 -0.03972,0.01222 -0.05194,0 -0.152764,-0.04277 -0.100825,-0.03972 -0.213871,-0.09166 -0.109991,-0.04889 -0.213871,-0.0886 -0.10388,-0.04277 -0.158876,-0.04277 -0.04888,0 -0.07944,0.03666 -0.0275,0.03361 -0.04583,0.08555 -0.01833,0.05499 -0.0275,0.116101 -0.0061,0.06416 -0.0092,0.119157 0,0.055 0,0.09166 0.0031,0.03666 0.0031,0.03666 0,0.03055 -0.01222,0.03972 -0.0092,0.0092 -0.0275,0.0092 -0.01222,0 -0.02444,-0.0031 -0.01222,0 -0.0275,-0.0031 0,0.03666 0.01222,0.07944 0.01528,0.04277 0.03361,0.0886 0.02139,0.04888 0.03972,0.09471 0.01833,0.04583 0.0275,0.08555 0.02139,0.09777 0.04277,0.140544 0.02444,0.04277 0.06111,0.05805 0.03666,0.01528 0.09166,0.01222 0.05499,0 0.140544,0.0092 0.03972,0.0061 0.08555,0.01528 0.04583,0.01222 0.08249,0.03361 0.03666,0.02444 0.06111,0.05805 0.02444,0.03361 0.02444,0.08249 0,0.100825 -0.06111,0.143599 -0.05805,0.04277 -0.149709,0.04277 -0.125267,0 -0.250535,-0.01833 -0.122211,-0.01833 -0.250534,-0.01833 -0.134433,0 -0.268866,0.01528 -0.131378,0.01528 -0.262756,0.01528 -0.03361,0 -0.09471,-0.01222 -0.05805,-0.01222 -0.119157,-0.03666 -0.05805,-0.02139 -0.10388,-0.05499 -0.04277,-0.03055 -0.04277,-0.07027 0,-0.0275 0.03055,-0.055 0.03361,-0.02444 0.07333,-0.04277 0.04277,-0.01833 0.08555,-0.03055 0.04277,-0.0092 0.06722,-0.0092 0.055,0 0.100825,-0.01833 0.04888,-0.01528 0.09471,-0.03361 0.04583,-0.01833 0.09166,-0.03666 0.04583,-0.01528 0.09777,-0.01528 0.0275,-0.116101 0.03361,-0.232202 0.0092,-0.116102 0.0092,-0.232203 0,-0.08249 -0.0031,-0.164986 0,-0.08249 0,-0.164986 0,-0.161931 0.02139,-0.320807 0.02444,-0.158875 0.02444,-0.323861 0,-0.100825 -0.0092,-0.20165 -0.0061,-0.100825 -0.01222,-0.201649 -0.0092,-0.01222 -0.02139,-0.07944 -0.01222,-0.07027 -0.02444,-0.152765 -0.0092,-0.08249 -0.01528,-0.15582 -0.0061,-0.07638 -0.0061,-0.100825 0,-0.03361 0.0092,-0.05805 0.01222,-0.0275 0.02444,-0.04583 0.01222,-0.02139 0.02139,-0.03666 0.01222,-0.01528 0.01222,-0.0275 0,-0.0031 -0.0092,-0.02139 -0.0092,-0.01833 -0.02139,-0.04583 -0.0092,-0.0275 -0.01833,-0.06111 -0.0092,-0.03361 -0.0092,-0.06722 0,-0.09777 0.02139,-0.19554 0.02444,-0.09777 0.02444,-0.195539 0,-0.131377 -0.09472,-0.229147 -0.04583,-0.04583 -0.07333,-0.07027 -0.0275,-0.02444 -0.05499,-0.03361 -0.0275,-0.01222 -0.06416,-0.01528 -0.03666,-0.0061 -0.100825,-0.01528 -0.03361,-0.0031 -0.09471,-0.01833 -0.05805,-0.01833 -0.116102,-0.04277 -0.05805,-0.02444 -0.10388,-0.05805 -0.04277,-0.03361 -0.04277,-0.07333 0,-0.05194 0.04889,-0.0886 0.04888,-0.03972 0.113046,-0.06111 0.06722,-0.02444 0.134433,-0.03361 0.06722,-0.01222 0.106935,-0.01222 0.04277,0 0.08555,0.0092 0.04277,0.0061 0.07333,0.03666 0.03361,-0.03361 0.08249,-0.04277 0.04889,-0.01222 0.09471,-0.01222 0.131378,0 0.20165,0.03972 0.07027,0.03972 0.10999,0.0886 0.04278,0.04583 0.06722,0.08555 0.0275,0.03972 0.06722,0.03972 0.02444,0 0.04583,-0.0092 0.02444,-0.0092 0.04889,-0.02139 0.06416,-0.03055 0.192484,-0.07333 0.128322,-0.04583 0.271921,-0.08555 0.143599,-0.04277 0.274977,-0.07027 0.131378,-0.0275 0.198594,-0.0275 0.03361,0 0.09471,0.01833 0.06416,0.01528 0.140544,0.04277 0.07638,0.02444 0.158876,0.06111 0.08249,0.03361 0.152765,0.07027 0.07027,0.03666 0.122211,0.07333 0.05194,0.03361 0.07027,0.06111 0.03361,0.055 0.07027,0.09471 0.03972,0.03972 0.10388,0.06111 0.01833,0.02444 0.02139,0.05194 0.0061,0.0275 0.0061,0.05805 v 0.05805 q 0,0.06111 0.02139,0.09472 0.02139,0.03361 0.04583,0.05805 0.02444,0.02139 0.04583,0.04277 0.02139,0.01833 0.02139,0.055 0,0.02139 -0.01222,0.03972 -0.01222,0.01528 -0.01222,0.03361 0,0.04583 0.02139,0.09471 0.02139,0.04583 0.04583,0.10388 0.02444,0.055 0.04583,0.119157 0.02139,0.06416 0.02139,0.140544 z m -1.399327,-1.301557 q 0,-0.01528 -0.01528,-0.03055 -0.01528,-0.01528 -0.03055,-0.01528 -0.03055,0 -0.03972,0.03361 -0.0061,0.03055 -0.0061,0.05499 0,-0.0061 0.0031,-0.0061 0.0061,0 0.0092,0.0031 l -0.01222,0.0061 q 0.02139,0 0.055,-0.0061 0.03666,-0.0092 0.03666,-0.03972 z m 1.038802,1.396271 q 0,-0.09166 -0.02444,-0.177207 -0.02444,-0.0886 -0.06111,-0.168042 -0.03666,-0.08249 -0.08249,-0.158875 -0.04583,-0.07638 -0.09166,-0.14971 -0.01222,-0.01833 -0.01528,-0.03972 -0.0031,-0.02444 -0.0031,-0.04583 0,-0.02444 -0.0061,-0.04583 -0.0031,-0.02444 -0.01833,-0.04277 -0.02444,-0.0275 -0.04583,-0.03055 -0.02139,-0.0061 -0.04278,-0.0092 -0.01833,-0.0031 -0.04277,-0.01528 -0.02139,-0.01222 -0.04277,-0.055 -0.01528,-0.0275 -0.06722,-0.06111 -0.04889,-0.03361 -0.109991,-0.06416 -0.05805,-0.03055 -0.116101,-0.04888 -0.055,-0.02139 -0.08555,-0.02139 -0.06111,0 -0.122212,0.0275 -0.05805,0.02444 -0.119156,0.02444 -0.04277,0 -0.07944,-0.01528 -0.03361,-0.01528 -0.06722,-0.03055 -0.03055,-0.01833 -0.06416,-0.03361 -0.03361,-0.01528 -0.07027,-0.01528 h -0.01528 q 0.0061,0.03055 0.0061,0.04889 0,0.0275 -0.01222,0.04583 -0.01222,0.01528 -0.03361,0.0275 -0.01833,0.01222 -0.04277,0.02444 -0.02139,0.0092 -0.03972,0.02139 -0.0275,0.03361 -0.03055,0.06722 0,0.03361 -0.03055,0.03361 -0.02139,0 -0.03361,-0.0061 0,0.02139 -0.01222,0.03055 -0.01222,0.0092 -0.0275,0.01528 -0.01528,0.0061 -0.03055,0.01528 -0.01528,0.0061 -0.01833,0.02444 -0.03972,0.0031 -0.07333,0.04888 -0.03361,0.04277 -0.05805,0.109991 -0.02444,0.06722 -0.04277,0.149709 -0.01833,0.08249 -0.03055,0.161931 -0.01222,0.07638 -0.01833,0.143599 -0.0061,0.06416 -0.0061,0.09777 0,0.10999 0.01222,0.219981 0.01528,0.106935 0.01528,0.216926 0,0.08249 -0.0061,0.164986 -0.0031,0.08249 -0.0092,0.168042 0.07638,0.08249 0.146654,0.164986 0.07027,0.08249 0.146654,0.149709 0.07944,0.06416 0.174152,0.109991 0.09471,0.04277 0.219982,0.04583 0.04889,0 0.09777,0.01222 0.04889,0.01222 0.09777,0.02444 0.04888,0.01222 0.09471,0.02444 0.04889,0.0092 0.09777,0.0092 0.04583,0 0.09777,-0.01833 0.05194,-0.02139 0.100825,-0.05194 0.05194,-0.03055 0.09777,-0.06416 0.04583,-0.03666 0.07638,-0.07027 0.02444,-0.0275 0.05805,-0.03972 0.03666,-0.01222 0.06111,-0.03666 0.01833,-0.01833 0.02444,-0.03972 0.0061,-0.02139 0.0092,-0.04277 0.0061,-0.02139 0.01528,-0.03972 0.0092,-0.02139 0.03666,-0.03666 0.05805,-0.03055 0.07333,-0.04277 0.01528,-0.01528 0.01528,-0.05194 v -0.05805 q 0,-0.03055 0.01528,-0.04277 0.01528,-0.01528 0.03361,-0.0275 0.01833,-0.01528 0.03361,-0.03666 0.01528,-0.02444 0.01528,-0.07944 0,-0.03972 -0.0061,-0.07638 -0.0061,-0.03972 -0.0061,-0.07944 0,-0.03972 0.01222,-0.07333 0.01528,-0.03361 0.03055,-0.06416 0.01833,-0.03055 0.03055,-0.05805 0.01528,-0.03055 0.01528,-0.06416 z"
         id="path4470" />
      <path
         d="m 32.769579,24.774061 q 0,0.08249 -0.0275,0.140544 -0.02444,0.05805 -0.06722,0.10388 -0.03972,0.04583 -0.09471,0.08555 -0.05194,0.03972 -0.106936,0.08555 -0.04277,0.03666 -0.07638,0.05499 -0.03361,0.01833 -0.06722,0.03055 -0.03055,0.01222 -0.06722,0.02444 -0.03361,0.01222 -0.07944,0.03361 -0.06111,0.03055 -0.10388,0.05805 -0.03972,0.02444 -0.08249,0.04583 -0.03972,0.02139 -0.0886,0.03361 -0.04888,0.01528 -0.122212,0.02444 -0.122211,0.01528 -0.247479,0.03666 -0.122212,0.02139 -0.244423,0.02139 -0.02444,0 -0.05194,-0.01222 -0.02444,-0.0092 -0.05805,-0.02139 -0.03361,-0.0092 -0.07638,-0.02139 -0.03972,-0.0092 -0.09777,-0.0092 -0.06111,0 -0.09777,-0.01833 -0.03666,-0.01833 -0.06722,-0.04277 -0.0275,-0.02444 -0.05805,-0.05194 -0.03055,-0.03055 -0.07944,-0.05194 -0.183318,-0.08249 -0.31164,-0.198594 -0.128323,-0.116102 -0.219981,-0.259701 -0.09166,-0.143599 -0.152765,-0.31164 -0.06111,-0.168041 -0.10388,-0.351359 -0.03361,-0.128323 -0.03361,-0.256645 0,-0.168042 0.07944,-0.311641 -0.03055,-0.08555 -0.03055,-0.164986 0,-0.05805 0.03361,-0.171096 0.03361,-0.116102 0.08555,-0.232203 0.055,-0.116101 0.116101,-0.20776 0.06416,-0.09472 0.119157,-0.116102 0.04277,-0.01528 0.05805,-0.02444 0.01833,-0.01222 0.01833,-0.06111 0,-0.03666 0.0275,-0.06111 0.03055,-0.02444 0.07027,-0.03972 0.04277,-0.01528 0.08249,-0.0275 0.04277,-0.01222 0.07027,-0.02444 0.113046,-0.055 0.213871,-0.09166 0.10388,-0.03972 0.204705,-0.06416 0.10388,-0.0275 0.213871,-0.03972 0.109991,-0.01222 0.235258,-0.01222 0.06722,0 0.131378,0.01833 0.06416,0.01833 0.122212,0.04888 0.06111,0.0275 0.119156,0.06416 0.05805,0.03361 0.113046,0.06722 h -0.0031 q 0.04583,0.0061 0.08555,0.0275 0.04277,0.01833 0.0886,0.02444 0.04277,0.05194 0.109991,0.100825 0.07027,0.04583 0.134433,0.09777 0.06722,0.05194 0.113046,0.113046 0.04888,0.05805 0.04888,0.134433 0,0.01222 -0.0031,0.02444 0,0.01222 -0.0031,0.0275 l 0.01222,-0.01528 q 0.01222,0.0092 0.02139,0.03055 0.01222,0.02139 0.02139,0.04888 0.0092,0.02444 0.01528,0.05194 0.0061,0.02444 0.0092,0.03972 0.02444,0.03972 0.06416,0.06416 0.04277,0.02444 0.06722,0.06722 -0.03055,0.03055 -0.03055,0.07944 0,0.05194 0.02139,0.10388 0.02139,0.04888 0.02139,0.100825 0,0.06111 -0.0061,0.119156 -0.0061,0.055 -0.0061,0.116101 0,0.04583 -0.03666,0.07027 -0.03361,0.02444 -0.07638,0.04277 -0.03972,0.01833 -0.07333,0.03666 -0.03361,0.01833 -0.03361,0.05194 0,0.02444 -0.03055,0.02444 -0.0275,-0.0031 -0.04583,-0.0031 -0.134433,0 -0.268867,-0.03361 -0.131377,-0.03361 -0.262755,-0.03361 -0.143599,0 -0.284143,0.02139 -0.140544,0.01833 -0.284143,0.01833 -0.106935,0 -0.21387,-0.0061 -0.10388,-0.0061 -0.210816,-0.0061 -0.0275,0 -0.10388,0.01222 -0.07638,0.0092 -0.161931,0.0275 -0.08249,0.01528 -0.158875,0.03972 -0.07638,0.02139 -0.106936,0.04277 -0.0031,0.01528 -0.0031,0.04277 0,0.143599 0.08249,0.296364 0.08555,0.152765 0.223037,0.278032 0.137488,0.125268 0.308585,0.207761 0.171096,0.08249 0.345248,0.08249 0.100825,0 0.198595,0.0092 0.100825,0.0061 0.195539,0.04277 0.08249,-0.03972 0.149709,-0.09166 0.07027,-0.05194 0.134434,-0.109991 0.06416,-0.05805 0.125267,-0.119157 0.06111,-0.06111 0.125267,-0.122211 0.01222,-0.01222 0.05805,-0.02139 0.04888,-0.01222 0.10388,-0.01833 0.05499,-0.0092 0.10388,-0.01222 0.05194,-0.0061 0.07027,-0.0061 0.07027,0 0.131378,0.02139 0.01833,0.07027 0.01833,0.137488 z m -0.458294,-1.24045 q 0,-0.04583 -0.01528,-0.0886 -0.01528,-0.04277 -0.02444,-0.0886 -0.01528,-0.08555 -0.01528,-0.164986 0,-0.08249 -0.02444,-0.164986 h -0.0031 q 0,0.01833 -0.01222,0.03666 -0.01222,0.01528 -0.03361,0.01528 -0.03666,0 -0.07027,-0.01833 -0.03361,-0.01833 -0.05805,-0.04583 -0.116102,-0.05194 -0.210816,-0.09777 -0.09166,-0.04583 -0.186373,-0.07944 -0.09166,-0.03666 -0.198594,-0.055 -0.103881,-0.02139 -0.241369,-0.02139 -0.01222,0 -0.02444,0.0031 -0.0092,0 -0.01833,0.0092 l 0.01528,0.03361 -0.02444,0.0061 q -0.08249,0.01528 -0.137488,0.03055 -0.05194,0.01222 -0.09472,0.03666 -0.04277,0.02444 -0.08555,0.06111 -0.03972,0.03361 -0.10388,0.0886 -0.03055,0.0275 -0.06722,0.04278 -0.03361,0.01222 -0.07027,0.02444 -0.03361,0.0092 -0.06722,0.02139 -0.03055,0.01222 -0.05194,0.03972 -0.02139,0.07638 -0.06416,0.149709 -0.03972,0.07027 -0.03972,0.14971 0,0.04583 0.03666,0.08249 0.03972,0.03361 0.09777,0.05805 0.06111,0.02444 0.131378,0.04277 0.07333,0.01833 0.143599,0.0275 0.07027,0.0092 0.128322,0.01528 0.06111,0.0031 0.09471,0.0031 0.116102,0 0.229148,-0.02139 0.113046,-0.02444 0.229147,-0.02444 0.119157,0 0.238313,0.01222 0.119157,0.0092 0.238314,0.0092 0.03055,0 0.09166,-0.0031 0.06111,-0.0031 0.119157,-0.01528 0.06111,-0.01528 0.10388,-0.03972 0.04583,-0.0275 0.04583,-0.07027 z"
         id="path4472" />
      <path
         d="m 36.545927,24.877942 q 0,0.05194 -0.01833,0.09777 -0.01833,0.04583 -0.03361,0.09471 -0.01222,0.04277 -0.01833,0.07027 -0.0031,0.0275 -0.01222,0.04889 -0.0092,0.01833 -0.03055,0.03666 -0.01833,0.01528 -0.06111,0.03666 -0.09166,0.04888 -0.195539,0.100825 -0.100825,0.04888 -0.204705,0.04888 -0.0886,0 -0.168041,-0.03972 -0.07638,-0.04277 -0.143599,-0.09166 -0.06416,-0.05194 -0.119157,-0.09471 -0.05194,-0.04278 -0.0886,-0.04278 -0.03972,0 -0.07027,0.02139 -0.0275,0.02139 -0.05805,0.04583 -0.0275,0.02444 -0.06416,0.04583 -0.03361,0.02139 -0.08555,0.02139 -0.04277,0 -0.0886,0.01528 -0.04583,0.01528 -0.09166,0.03666 -0.04583,0.01833 -0.09471,0.03972 -0.04583,0.01833 -0.08555,0.03055 -0.137488,0.03666 -0.278032,0.04277 -0.137488,0.0061 -0.278032,0.0061 -0.03666,0 -0.113046,-0.0031 -0.07638,0 -0.15582,-0.01528 -0.07638,-0.01222 -0.137488,-0.04277 -0.05805,-0.03055 -0.05805,-0.08555 0,-0.01222 0.0031,-0.02139 -0.02139,0.02444 -0.04888,0.03972 -0.0275,0.01528 -0.06111,0.01528 -0.04888,0 -0.119157,-0.06722 -0.07027,-0.06722 -0.134433,-0.155821 -0.06416,-0.0886 -0.109991,-0.174152 -0.04583,-0.0886 -0.04583,-0.131377 0,-0.03361 0.01833,-0.06111 0.02139,-0.0275 0.02139,-0.06111 0,-0.04277 -0.01222,-0.07944 -0.0092,-0.03972 -0.0092,-0.08249 0,-0.055 0.02139,-0.116101 0.02139,-0.06416 0.05194,-0.125268 0.03055,-0.06416 0.06416,-0.122211 0.03361,-0.06111 0.06111,-0.113046 0.03055,-0.06111 0.08555,-0.09777 0.055,-0.03666 0.116101,-0.06416 0.06111,-0.0275 0.122212,-0.055 0.06111,-0.0275 0.106936,-0.07333 0.04583,0.05194 0.119156,0.05194 0.07638,0 0.14971,-0.02139 0.07333,-0.02444 0.14971,-0.02444 0.06111,0 0.116101,0.01222 0.05805,0.01222 0.119157,0.01222 0.06722,0 0.09777,-0.01528 0.03361,-0.01833 0.08249,-0.06111 0.04888,-0.04277 0.122212,-0.06416 0.07638,-0.02444 0.15582,-0.03666 0.08249,-0.01528 0.161931,-0.03055 0.08249,-0.01528 0.146654,-0.04277 0.06416,-0.03055 0.10388,-0.07944 0.03972,-0.05194 0.03972,-0.140544 0,-0.09777 -0.05805,-0.204705 -0.055,-0.10999 -0.143599,-0.198594 -0.0886,-0.09166 -0.195539,-0.14971 -0.106936,-0.05805 -0.204705,-0.05805 -0.01222,0 -0.02444,0.0031 -0.01222,0.0031 -0.02139,0.0031 -0.07333,0.01222 -0.164986,0.01833 -0.09166,0.0031 -0.171097,0.0275 -0.07944,0.02139 -0.134433,0.07638 -0.055,0.05194 -0.055,0.155821 0,0.0611 0.0092,0.122211 0.01222,0.05805 0.01222,0.119157 0,0.09166 -0.04583,0.152765 -0.04277,0.06111 -0.113046,0.09777 -0.06722,0.03666 -0.14971,0.05194 -0.08249,0.01222 -0.158876,0.01222 -0.09166,0 -0.158875,-0.02444 -0.06722,-0.02444 -0.109991,-0.113046 -0.03361,-0.06416 -0.07333,-0.137488 -0.03666,-0.07638 -0.03666,-0.152765 0,-0.08249 0.0275,-0.152765 0.03055,-0.07333 0.06722,-0.140544 0.03666,-0.07027 0.07027,-0.137488 0.03666,-0.07027 0.05194,-0.14971 0.02139,-0.01222 0.05805,-0.02444 0.03972,-0.01222 0.08249,-0.02444 0.04583,-0.01222 0.08555,-0.02139 0.04277,-0.01222 0.07027,-0.02139 0.07333,-0.02139 0.140543,-0.04888 0.07027,-0.03055 0.140544,-0.055 0.07333,-0.02444 0.143599,-0.04277 0.07333,-0.01833 0.14971,-0.02139 l 0.09471,-0.0031 q 0.131378,0 0.268866,0.02444 0.137488,0.02139 0.268866,0.07027 0.131378,0.04889 0.247479,0.122212 0.119157,0.07027 0.210816,0.168041 0.06722,0.07333 0.109991,0.174152 0.04583,0.09777 0.07027,0.207761 0.0275,0.10999 0.03666,0.223036 0.01222,0.109991 0.01222,0.204705 0,0.128323 -0.0092,0.25359 -0.0061,0.122212 -0.0061,0.250534 0,0.122212 0.01222,0.244424 0.01528,0.119157 0.03361,0.241369 0.01833,0.119156 0.03055,0.241368 0.01528,0.119157 0.01528,0.238313 0.0061,0.07333 0.01833,0.09166 0.01528,0.01528 0.03055,0.01528 0.06722,0 0.106936,-0.03972 0.04277,-0.04277 0.07638,-0.09166 0.03361,-0.05194 0.07333,-0.09471 0.03972,-0.04277 0.100825,-0.04277 0.0275,0 0.055,0.0031 0.03055,0.0031 0.05499,0.01528 0.02444,0.0092 0.03972,0.03055 0.01528,0.01833 0.01528,0.05194 z m -1.005193,-0.76077 q 0,-0.01833 -0.0031,-0.06416 0,-0.04583 -0.0061,-0.09166 -0.0061,-0.04889 -0.02139,-0.08555 -0.01222,-0.03666 -0.03972,-0.03666 -0.0061,0 -0.01528,0.0061 -0.0092,0.0031 -0.01528,0.0031 -0.116102,0.06416 -0.198595,0.106936 -0.08249,0.03972 -0.164986,0.06722 -0.07944,0.02444 -0.171097,0.03361 -0.09166,0.0092 -0.229147,0.0092 -0.01833,0 -0.100825,0.01528 -0.08249,0.01528 -0.180262,0.03666 -0.09777,0.01833 -0.183318,0.03972 -0.08555,0.01833 -0.106936,0.02444 -0.03972,0.01528 -0.05805,0.03055 -0.01528,0.01528 -0.02444,0.03361 -0.0092,0.01833 -0.01833,0.03972 -0.0092,0.01833 -0.03361,0.03972 -0.03055,0.02444 -0.06722,0.03972 -0.03361,0.01528 -0.06416,0.04583 -0.04583,0.04583 -0.08555,0.122212 -0.03972,0.07333 -0.03972,0.140544 0,0.08249 0.04277,0.146654 0.04277,0.06416 0.113046,0.109991 0.07027,0.04583 0.158876,0.07944 0.0886,0.03361 0.177207,0.05194 0.09166,0.01833 0.174152,0.0275 0.08555,0.0092 0.146654,0.0092 0.07333,0 0.174152,-0.0092 0.100825,-0.01222 0.20165,-0.03361 0.100825,-0.02444 0.189429,-0.06416 0.0886,-0.03972 0.140543,-0.100825 0.02139,-0.02444 0.03055,-0.04277 0.0092,-0.02139 0.01833,-0.03972 0.01222,-0.02139 0.02444,-0.04277 0.01528,-0.02139 0.04583,-0.04583 0.07027,-0.05805 0.106935,-0.128322 0.03972,-0.07027 0.05805,-0.146655 0.01833,-0.07638 0.02139,-0.158875 0.0031,-0.08249 0.0031,-0.168042 z"
         id="path4474" />
      <path
         d="m 40.325331,25.296517 q 0,0.04277 -0.01528,0.06416 -0.01528,0.01833 -0.03666,0.03361 -0.01833,0.01528 -0.03361,0.03055 -0.01528,0.01528 -0.01528,0.04583 0,0.01833 0.0031,0.0275 -0.106936,0.0275 -0.238314,0.03666 -0.128322,0.0092 -0.238313,0.0092 -0.01528,0 -0.03972,-0.0092 -0.02139,-0.0061 -0.04277,-0.01833 -0.02139,-0.0092 -0.03666,-0.0275 -0.01222,-0.01528 -0.01222,-0.03361 -0.03666,0.01222 -0.08249,0.01833 -0.04277,0.0092 -0.08555,0.02139 -0.03972,0.01222 -0.07638,0.03361 -0.03666,0.02139 -0.06111,0.05805 -0.03972,-0.01222 -0.106936,-0.02139 -0.06416,-0.0092 -0.137488,-0.02139 -0.07333,-0.01222 -0.146654,-0.03055 -0.07333,-0.01528 -0.134434,-0.04277 -0.05805,-0.02444 -0.09777,-0.06111 -0.03666,-0.03666 -0.03666,-0.09166 0,-0.01528 0.0031,-0.05194 0.0031,-0.03972 0.01222,-0.07944 0.0092,-0.03972 0.02139,-0.07027 0.01528,-0.03055 0.03361,-0.03055 0.03055,0 0.05805,0.01222 0.03055,0.01222 0.06416,0.01222 l 0.03055,-0.0031 0.0031,-0.02444 q 0,-0.02444 -0.01528,-0.03666 -0.01222,-0.01528 -0.03361,-0.01833 -0.02139,-0.0061 -0.04277,-0.0061 -0.02139,0 -0.03972,0 0.03972,-0.03972 0.05194,-0.09472 0.01222,-0.05499 0.01222,-0.106935 0,-0.05499 -0.01528,-0.125267 -0.01222,-0.07333 -0.04277,-0.140544 -0.03055,-0.06722 -0.07638,-0.119157 -0.04277,-0.05194 -0.10388,-0.06722 -0.01833,-0.03972 -0.04277,-0.08249 -0.02444,-0.04583 -0.05805,-0.08249 -0.03055,-0.03666 -0.07333,-0.06111 -0.03972,-0.02444 -0.0886,-0.02444 -0.05499,0 -0.140544,0.05805 -0.08555,0.05805 -0.168041,0.134433 -0.07944,0.07333 -0.140544,0.143599 -0.05805,0.07027 -0.05805,0.09471 0,0.03361 0.0092,0.06416 0.0092,0.03055 0.0092,0.06416 0,0.05194 -0.02139,0.09471 -0.02139,0.04277 -0.05499,0.07638 0.0092,0.055 0.04583,0.08249 0.03666,0.0275 0.08555,0.04277 0.05194,0.01222 0.10388,0.01833 0.05194,0.0031 0.09471,0.01222 0.01833,0.01833 0.05194,0.04583 0.03666,0.0275 0.06722,0.06111 0.03361,0.03055 0.05805,0.06416 0.02444,0.03361 0.02444,0.06111 0,0.03055 -0.02444,0.03666 -0.02139,0.0061 -0.04888,0.0092 -0.0275,0.0031 -0.05194,0.01222 -0.02139,0.0092 -0.02139,0.03972 0,0.02139 0.0061,0.03666 -0.146654,0.0061 -0.287198,0.03055 -0.137488,0.02139 -0.278032,0.055 -0.05805,0.01528 -0.116101,0.01833 -0.05805,0.0031 -0.119157,0.0031 -0.05805,0 -0.119157,0.0031 -0.06111,0.0031 -0.119156,0.01528 -0.04277,0.0092 -0.08555,0.0092 -0.07027,0 -0.131377,-0.0275 -0.06111,-0.0275 -0.106936,-0.07638 -0.04583,-0.04888 -0.07333,-0.10999 -0.02444,-0.06111 -0.02444,-0.131378 0,-0.06722 0.03666,-0.125267 0.03972,-0.05805 0.119157,-0.05805 0.02444,0 0.03972,0.02444 0.01528,0.02139 0.03972,0.02139 0.01222,0 0.02139,-0.01222 0.0092,-0.01528 0.01833,-0.03361 0.01222,-0.01833 0.03055,-0.03361 0.01833,-0.01528 0.04583,-0.02139 0.08555,-0.01222 0.140544,-0.05805 0.05805,-0.04583 0.0886,-0.109991 0.03055,-0.06722 0.04277,-0.143599 0.01222,-0.07944 0.01222,-0.15582 0,-0.06111 -0.01528,-0.116101 -0.01222,-0.05805 -0.01222,-0.116101 0,-0.07944 0.0275,-0.161931 0.03055,-0.08555 0.03055,-0.189429 0,-0.143599 -0.01833,-0.281087 -0.01528,-0.140544 -0.01528,-0.284143 0,-0.106935 0.01222,-0.216926 0.01222,-0.109991 0.01222,-0.216926 0,-0.03972 -0.01222,-0.07333 -0.0092,-0.03666 -0.02139,-0.06722 -0.01222,-0.03361 -0.02444,-0.06111 -0.0092,-0.03055 -0.0092,-0.06111 0,-0.06111 0.02139,-0.122212 0.02139,-0.06111 0.02139,-0.122212 0,-0.07027 -0.02444,-0.134433 -0.02139,-0.06416 -0.02139,-0.134433 0,-0.05194 0.0092,-0.10388 0.01222,-0.05499 0.01222,-0.109991 0,-0.10999 -0.04889,-0.164986 -0.04583,-0.05499 -0.116101,-0.07944 -0.07027,-0.0275 -0.15582,-0.03361 -0.08249,-0.0061 -0.152765,-0.01833 -0.07027,-0.01528 -0.119157,-0.04888 -0.04583,-0.03361 -0.04583,-0.109991 0,-0.0886 0.03972,-0.143599 0.03972,-0.05805 0.100824,-0.0886 0.06111,-0.03055 0.134434,-0.03972 0.07333,-0.01222 0.143599,-0.01222 0.198594,0.04278 0.31164,0.07333 0.113046,0.03055 0.168041,0.05194 0.05805,0.02139 0.07027,0.03361 0.01528,0.01222 0.02139,0.02139 0.01833,0.055 0.03055,0.164986 0.01528,0.109991 0.02444,0.232203 0.0092,0.119156 0.01222,0.232202 0.0061,0.109991 0.0061,0.164986 0,0.08249 -0.02444,0.158876 -0.02444,0.07333 -0.02444,0.152765 0,0.08555 0.02139,0.164986 0.02444,0.07944 0.03055,0.164986 0.0031,0.055 0.0031,0.109991 0.0031,0.05194 0.0031,0.106935 0,0.07944 -0.0031,0.161931 0,0.08249 0,0.164986 0,0.116101 0.0061,0.229147 0.0061,0.113046 0.02444,0.226092 0.01528,0.0061 0.0275,0.0061 0.01222,0 0.0275,0 0.06111,0 0.100825,-0.03055 0.03972,-0.03361 0.07333,-0.07638 0.03361,-0.04277 0.07027,-0.08555 0.03666,-0.04583 0.09166,-0.07027 0.07333,-0.03055 0.122212,-0.0886 0.05194,-0.06111 0.09777,-0.125268 0.04583,-0.06416 0.09471,-0.119156 0.05194,-0.05805 0.125267,-0.0886 0.07638,-0.03055 0.07638,-0.109991 0,-0.04583 -0.01222,-0.0886 -0.01222,-0.04583 -0.03055,-0.0886 -0.01528,-0.04277 -0.0275,-0.08555 -0.01222,-0.04583 -0.01222,-0.09166 l 0.0031,-0.03361 0.02444,0.0031 h 0.0092 q 0.01222,0 0.02444,0 0.01222,-0.0031 0.01222,-0.01528 -0.01528,-0.02444 -0.01528,-0.05499 0,-0.04277 0.01833,-0.055 0.02139,-0.01222 0.05805,-0.01222 0.06722,0 0.128323,0.02444 0.06416,0.02444 0.131378,0.02444 0.04888,0 0.09166,-0.01222 0.04583,-0.01528 0.09166,-0.03055 0.04583,-0.01833 0.0886,-0.03055 0.04583,-0.01528 0.09471,-0.01528 0.08249,0 0.161931,0.02139 0.07944,0.02139 0.161931,0.02139 0.08555,0 0.168041,-0.02444 0.08249,-0.02444 0.171097,-0.02444 0.01528,0 0.04277,0.0092 0.0275,0.0092 0.05194,0.02444 0.0275,0.01528 0.04583,0.03361 0.02139,0.01833 0.02139,0.03666 -0.0061,0.02139 -0.02444,0.03055 -0.01833,0.0061 -0.01833,0.01833 0,0.01528 0.01528,0.03666 0.01528,0.01833 0.03361,0.04277 0.02139,0.02139 0.03666,0.04888 0.01528,0.02444 0.01528,0.05194 0,0.03972 -0.07333,0.07638 -0.07333,0.03666 -0.171096,0.06722 -0.09472,0.0275 -0.186373,0.04583 -0.09166,0.01528 -0.128323,0.01528 -0.06416,0 -0.09777,-0.02139 -0.03055,-0.02444 -0.0611,-0.02444 -0.04888,0 -0.125268,0.03972 -0.07638,0.03666 -0.164986,0.09777 -0.08555,0.06111 -0.174152,0.140544 -0.0886,0.07638 -0.161931,0.152765 -0.07027,0.07638 -0.119156,0.146654 -0.04583,0.07027 -0.04583,0.116102 -0.0031,0.04888 -0.01528,0.09471 -0.01222,0.04583 -0.01222,0.09471 0,0.04277 0.0275,0.07027 0.0275,0.0275 0.06416,0.05194 0.03666,0.02139 0.07333,0.04889 0.03972,0.0275 0.05805,0.06722 0.0275,0.06111 0.08249,0.140544 0.05499,0.07638 0.119156,0.164986 0.06722,0.08555 0.134433,0.174152 0.06722,0.0886 0.122212,0.174152 0.05805,0.08249 0.09166,0.158875 0.03666,0.07333 0.03666,0.128323 v 0.02139 q 0.152765,-0.03361 0.299419,-0.03361 0.100825,0 0.198594,0.01222 0.100825,0.0092 0.198595,0.02139 v 0.0275 0.01528 q 0,0.06111 0.02139,0.100825 0.02139,0.03666 0.04888,0.06722 0.0275,0.0275 0.04888,0.05499 0.02139,0.02444 0.02139,0.055 z"
         id="path4476" />
      <path
         d="m 43.5945,24.774061 q 0,0.08249 -0.0275,0.140544 -0.02444,0.05805 -0.06722,0.10388 -0.03972,0.04583 -0.09471,0.08555 -0.05194,0.03972 -0.106936,0.08555 -0.04277,0.03666 -0.07638,0.05499 -0.03361,0.01833 -0.06722,0.03055 -0.03055,0.01222 -0.06722,0.02444 -0.03361,0.01222 -0.07944,0.03361 -0.06111,0.03055 -0.10388,0.05805 -0.03972,0.02444 -0.08249,0.04583 -0.03972,0.02139 -0.0886,0.03361 -0.04888,0.01528 -0.122212,0.02444 -0.122212,0.01528 -0.247479,0.03666 -0.122212,0.02139 -0.244424,0.02139 -0.02444,0 -0.05194,-0.01222 -0.02444,-0.0092 -0.05805,-0.02139 -0.03361,-0.0092 -0.07638,-0.02139 -0.03972,-0.0092 -0.09777,-0.0092 -0.06111,0 -0.09777,-0.01833 -0.03666,-0.01833 -0.06722,-0.04277 -0.0275,-0.02444 -0.05805,-0.05194 -0.03055,-0.03055 -0.07944,-0.05194 -0.183318,-0.08249 -0.31164,-0.198594 -0.128323,-0.116102 -0.219982,-0.259701 -0.09166,-0.143599 -0.152765,-0.31164 -0.06111,-0.168041 -0.10388,-0.351359 -0.03361,-0.128323 -0.03361,-0.256645 0,-0.168042 0.07944,-0.311641 -0.03055,-0.08555 -0.03055,-0.164986 0,-0.05805 0.03361,-0.171096 0.03361,-0.116102 0.08555,-0.232203 0.055,-0.116101 0.116102,-0.20776 0.06416,-0.09472 0.119156,-0.116102 0.04277,-0.01528 0.05805,-0.02444 0.01833,-0.01222 0.01833,-0.06111 0,-0.03666 0.0275,-0.06111 0.03055,-0.02444 0.07027,-0.03972 0.04277,-0.01528 0.08249,-0.0275 0.04277,-0.01222 0.07027,-0.02444 0.113046,-0.055 0.213871,-0.09166 0.10388,-0.03972 0.204705,-0.06416 0.10388,-0.0275 0.213871,-0.03972 0.10999,-0.01222 0.235258,-0.01222 0.06722,0 0.131377,0.01833 0.06416,0.01833 0.122212,0.04888 0.06111,0.0275 0.119157,0.06416 0.05805,0.03361 0.113046,0.06722 h -0.0031 q 0.04583,0.0061 0.08555,0.0275 0.04277,0.01833 0.0886,0.02444 0.04277,0.05194 0.10999,0.100825 0.07027,0.04583 0.134433,0.09777 0.06722,0.05194 0.113046,0.113046 0.04888,0.05805 0.04888,0.134433 0,0.01222 -0.0031,0.02444 0,0.01222 -0.0031,0.0275 l 0.01222,-0.01528 q 0.01222,0.0092 0.02139,0.03055 0.01222,0.02139 0.02139,0.04888 0.0092,0.02444 0.01528,0.05194 0.0061,0.02444 0.0092,0.03972 0.02444,0.03972 0.06416,0.06416 0.04277,0.02444 0.06722,0.06722 -0.03055,0.03055 -0.03055,0.07944 0,0.05194 0.02139,0.10388 0.02139,0.04888 0.02139,0.100825 0,0.06111 -0.0061,0.119156 -0.0061,0.055 -0.0061,0.116101 0,0.04583 -0.03666,0.07027 -0.03361,0.02444 -0.07638,0.04277 -0.03972,0.01833 -0.07333,0.03666 -0.03361,0.01833 -0.03361,0.05194 0,0.02444 -0.03055,0.02444 -0.0275,-0.0031 -0.04583,-0.0031 -0.134433,0 -0.268866,-0.03361 -0.131378,-0.03361 -0.262755,-0.03361 -0.143599,0 -0.284143,0.02139 -0.140544,0.01833 -0.284143,0.01833 -0.106935,0 -0.213871,-0.0061 -0.10388,-0.0061 -0.210815,-0.0061 -0.0275,0 -0.10388,0.01222 -0.07638,0.0092 -0.161931,0.0275 -0.08249,0.01528 -0.158876,0.03972 -0.07638,0.02139 -0.106935,0.04277 -0.0031,0.01528 -0.0031,0.04277 0,0.143599 0.08249,0.296364 0.08555,0.152765 0.223036,0.278032 0.137489,0.125268 0.308585,0.207761 0.171097,0.08249 0.345249,0.08249 0.100825,0 0.198594,0.0092 0.100825,0.0061 0.19554,0.04277 0.08249,-0.03972 0.149709,-0.09166 0.07027,-0.05194 0.134433,-0.109991 0.06416,-0.05805 0.125267,-0.119157 0.06111,-0.06111 0.125268,-0.122211 0.01222,-0.01222 0.05805,-0.02139 0.04888,-0.01222 0.10388,-0.01833 0.055,-0.0092 0.103881,-0.01222 0.05194,-0.0061 0.07027,-0.0061 0.07027,0 0.131378,0.02139 0.01833,0.07027 0.01833,0.137488 z m -0.458295,-1.24045 q 0,-0.04583 -0.01528,-0.0886 -0.01528,-0.04277 -0.02444,-0.0886 -0.01528,-0.08555 -0.01528,-0.164986 0,-0.08249 -0.02444,-0.164986 h -0.0031 q 0,0.01833 -0.01222,0.03666 -0.01222,0.01528 -0.03361,0.01528 -0.03666,0 -0.07027,-0.01833 -0.03361,-0.01833 -0.05805,-0.04583 -0.116101,-0.05194 -0.210815,-0.09777 -0.09166,-0.04583 -0.186373,-0.07944 -0.09166,-0.03666 -0.198595,-0.055 -0.10388,-0.02139 -0.241368,-0.02139 -0.01222,0 -0.02444,0.0031 -0.0092,0 -0.01833,0.0092 l 0.01528,0.03361 -0.02444,0.0061 q -0.08249,0.01528 -0.137489,0.03055 -0.05194,0.01222 -0.09471,0.03666 -0.04277,0.02444 -0.08555,0.06111 -0.03972,0.03361 -0.10388,0.0886 -0.03055,0.0275 -0.06722,0.04278 -0.03361,0.01222 -0.07027,0.02444 -0.03361,0.0092 -0.06722,0.02139 -0.03055,0.01222 -0.05194,0.03972 -0.02139,0.07638 -0.06416,0.149709 -0.03972,0.07027 -0.03972,0.14971 0,0.04583 0.03666,0.08249 0.03972,0.03361 0.09777,0.05805 0.06111,0.02444 0.131377,0.04277 0.07333,0.01833 0.143599,0.0275 0.07027,0.0092 0.128323,0.01528 0.06111,0.0031 0.09471,0.0031 0.116101,0 0.229147,-0.02139 0.113046,-0.02444 0.229148,-0.02444 0.119156,0 0.238313,0.01222 0.119157,0.0092 0.238313,0.0092 0.03055,0 0.09166,-0.0031 0.06111,-0.0031 0.119157,-0.01528 0.06111,-0.01528 0.10388,-0.03972 0.04583,-0.0275 0.04583,-0.07027 z"
         id="path4478" />
      <path
         d="m 47.4014,23.182251 q 0,0.06111 -0.02444,0.10388 -0.02444,0.04277 -0.055,0.08249 -0.0275,0.03666 -0.05805,0.07638 -0.0275,0.03972 -0.03666,0.09471 -0.0275,-0.01222 -0.05805,-0.01528 -0.0275,-0.0031 -0.05805,-0.0031 -0.07333,0 -0.146655,0.01222 -0.07027,0.0092 -0.140543,0.0092 -0.08249,0 -0.137489,-0.04888 -0.05194,-0.05194 -0.08555,-0.125268 -0.03055,-0.07333 -0.04277,-0.15582 -0.01222,-0.08555 -0.01222,-0.152765 0,-0.08555 0.0275,-0.174152 -0.02444,-0.0092 -0.04277,-0.0092 -0.03972,0 -0.05805,0.02444 -0.01528,0.02444 -0.04583,0.02444 -0.0275,0 -0.04888,-0.01833 -0.02139,-0.02139 -0.05194,-0.02139 -0.04583,0 -0.116101,0.03055 -0.06722,0.0275 -0.131378,0.07333 -0.06416,0.04583 -0.113046,0.100824 -0.04583,0.05194 -0.04583,0.100825 -0.06416,0.0061 -0.122212,0.03666 -0.055,0.0275 -0.106936,0.06111 -0.03972,0.02444 -0.06722,0.07638 -0.0275,0.05194 -0.05194,0.113046 -0.02139,0.05805 -0.04583,0.119157 -0.02139,0.06111 -0.05194,0.100825 -0.05194,0.06722 -0.09166,0.137488 -0.03666,0.06722 -0.03666,0.152765 0,0.106935 0.03361,0.216926 0.03361,0.109991 0.03361,0.223037 0,0.07333 -0.01222,0.146654 -0.0092,0.07333 -0.0092,0.143599 0,0.08555 0.03055,0.137488 0.03055,0.05194 0.08249,0.08249 0.05194,0.0275 0.119157,0.03666 0.06722,0.0092 0.137488,0.0092 0.07638,0 0.146654,-0.0031 0.07333,-0.0061 0.134433,-0.0061 0.02139,0.02444 0.02444,0.04583 0.0031,0.02139 -0.0031,0.04583 -0.0031,0.02139 -0.01222,0.04583 -0.0061,0.02139 -0.0061,0.05194 0,0.01222 0.0061,0.03055 0.04583,0 0.07944,-0.02139 0.03361,-0.02139 0.04889,-0.06722 0.02139,0.0061 0.03666,0.01833 0.01833,0.01222 0.01833,0.03666 0,0.01833 -0.0092,0.03666 -0.0092,0.01528 -0.02139,0.03055 -0.01222,0.01528 -0.02139,0.03361 -0.0092,0.01528 -0.0092,0.03666 0,0.01222 0.0031,0.0275 0.0031,0.01222 0.0092,0.02139 -0.01528,0.02444 -0.04277,0.03361 -0.0275,0.0092 -0.05499,0.0092 -0.04889,0 -0.08249,-0.01528 -0.03055,-0.01528 -0.05805,-0.03361 -0.02444,-0.01833 -0.04583,-0.03361 -0.02139,-0.01528 -0.05194,-0.01528 -0.01222,0 -0.03666,0.0061 -0.02444,0.0061 -0.04889,0.01528 -0.02444,0.0092 -0.04277,0.02444 -0.01833,0.01222 -0.01833,0.02444 0,0.02444 0.01528,0.04277 0.01833,0.01833 0.01833,0.04277 0,0.02139 -0.01528,0.03361 -0.01528,0.01222 -0.03666,0.01528 -0.02139,0.0061 -0.04583,0.0061 -0.02139,0.0031 -0.03666,0.0031 -0.119157,0 -0.238314,-0.0275 -0.116101,-0.02444 -0.235258,-0.02444 -0.055,0 -0.10999,0.02444 -0.055,0.02444 -0.116102,0.02444 -0.03361,0 -0.05194,-0.01528 -0.01528,-0.01222 -0.0275,-0.03055 -0.01222,-0.01833 -0.0275,-0.03361 -0.01528,-0.01222 -0.04583,-0.01222 -0.05805,0 -0.116102,0.01222 -0.05499,0.01222 -0.113046,0.02444 -0.05499,0.01528 -0.113046,0.02444 -0.05499,0.01222 -0.113046,0.01222 -0.03055,0 -0.07333,-0.0092 -0.04277,-0.0061 -0.08249,-0.02444 -0.03972,-0.01833 -0.06722,-0.04583 -0.0275,-0.0275 -0.0275,-0.06722 0,-0.02444 0.0275,-0.06416 0.03055,-0.03972 0.06722,-0.07638 0.03666,-0.03972 0.07333,-0.06722 0.03666,-0.0275 0.05499,-0.0275 0.04888,0 0.09472,0.0031 0.04888,0.0031 0.100825,0.0031 0.08249,0 0.164986,-0.02444 0.08555,-0.0275 0.152765,-0.07638 0.07027,-0.04888 0.113046,-0.122212 0.04277,-0.07333 0.04277,-0.164986 0,-0.03972 -0.0061,-0.07638 -0.0061,-0.03972 -0.0061,-0.07944 0,-0.07944 0.01833,-0.158875 0.01833,-0.07944 0.01833,-0.158876 0,-0.106935 -0.02444,-0.216926 -0.02139,-0.113046 -0.02139,-0.226092 0,-0.100825 0.0031,-0.198594 0.0061,-0.100825 0.0061,-0.20165 0,-0.04583 -0.0031,-0.134433 -0.0031,-0.0886 -0.02139,-0.177207 -0.01528,-0.0886 -0.05194,-0.155821 -0.03361,-0.06722 -0.09471,-0.06722 -0.06722,0 -0.134433,0.01528 -0.06722,0.01528 -0.137489,0.01528 -0.05194,0 -0.122212,-0.0061 -0.07027,-0.0092 -0.134433,-0.03055 -0.06416,-0.02444 -0.10999,-0.06722 -0.04583,-0.04277 -0.04583,-0.113046 0,-0.07638 0.02139,-0.122212 0.02139,-0.04888 0.055,-0.07333 0.03666,-0.02444 0.08249,-0.03361 0.04888,-0.0092 0.10388,-0.0092 0.04888,0 0.100825,0.0031 0.05194,0.0031 0.100824,0.0031 0.09777,0 0.192484,-0.0092 0.09777,-0.01222 0.195539,-0.01222 0.06722,0 0.134433,0.0061 0.06722,0.0061 0.131378,0.0275 0.05805,0.01833 0.08555,0.07027 0.0275,0.04888 0.04889,0.100825 0.02444,0.05194 0.055,0.09471 0.03055,0.03972 0.09777,0.03972 0.03055,0 0.055,-0.01528 0.0275,-0.01833 0.05194,-0.03972 0.02444,-0.02139 0.04888,-0.03972 0.02444,-0.01833 0.05805,-0.02444 0.06722,-0.0092 0.122212,-0.04277 0.05805,-0.03361 0.113046,-0.06722 0.055,-0.03361 0.109991,-0.06111 0.05805,-0.0275 0.125267,-0.0275 0.03972,0 0.09777,-0.0092 0.06111,-0.0092 0.119157,-0.02444 0.06111,-0.01833 0.113046,-0.04277 0.055,-0.02444 0.08555,-0.055 0.08249,0.0061 0.192484,0.03972 0.113046,0.03361 0.213871,0.09166 0.10388,0.055 0.180262,0.131378 0.07638,0.07638 0.0886,0.171097 0.0092,0.05805 0.03361,0.10999 0.02444,0.05194 0.04888,0.10388 0.0275,0.04888 0.04888,0.103881 0.02139,0.05194 0.02139,0.10999 z"
         id="path4480" />
    </g>
    <g
       aria-label="Battery"
       id="text2886-1"
       style="font-size:6.25725px;font-family:'Special Elite';-inkscape-font-specification:'Special Elite, Normal';fill:#ff0000;stroke:#ff0000;stroke-width:0.197078">
      <path
         d="m 76.156387,24.233274 q 0,0.02139 0,0.05805 0.0031,0.03361 0,0.07027 0,0.03361 -0.0061,0.06416 -0.0031,0.0275 -0.01528,0.03972 -0.0275,0.0275 -0.05805,0.03666 -0.03055,0.0061 -0.06416,0.0092 -0.03055,0 -0.06416,0.0061 -0.03055,0.0031 -0.06111,0.02139 0.0061,0.03055 0.0275,0.03972 0.02444,0.0061 0.04888,0.01222 0.0275,0.0031 0.04583,0.01833 0.02139,0.01222 0.02139,0.05194 0,0.06416 -0.02139,0.106936 -0.01833,0.03972 -0.04583,0.07333 -0.0275,0.03055 -0.055,0.06416 -0.0275,0.03361 -0.04277,0.08555 -0.01833,0.05499 -0.04583,0.07944 -0.0275,0.02444 -0.06111,0.03972 -0.03055,0.01222 -0.06416,0.0275 -0.03361,0.01528 -0.06416,0.055 -0.03361,0.03666 -0.055,0.03666 -0.0092,0 -0.02139,-0.0031 -0.01222,-0.0031 -0.03055,-0.0031 -0.01528,0 -0.03055,0.01222 -0.01222,0.0092 -0.01222,0.02444 0,0.0061 0.0061,0.0061 0.0061,0 0.0031,0.0031 -0.03666,0.03361 -0.131378,0.07944 -0.09471,0.04277 -0.216926,0.08249 -0.122212,0.03666 -0.256645,0.06416 -0.131378,0.02444 -0.250535,0.02444 -0.20776,0 -0.412465,-0.01222 -0.20165,-0.0092 -0.412465,-0.0092 h -0.406355 q -0.0092,0 -0.0275,0.01833 -0.01528,0.01833 -0.03666,0.01833 -0.03361,0 -0.0886,-0.0092 -0.05194,-0.0092 -0.10388,-0.03055 -0.05194,-0.02139 -0.09166,-0.05194 -0.03666,-0.03361 -0.03666,-0.07638 0,-0.01528 0.0031,-0.02444 0.0031,-0.01222 0.0061,-0.0275 0.0275,-0.08555 0.07638,-0.128322 0.04888,-0.04583 0.10388,-0.07638 0.05805,-0.03361 0.116101,-0.06722 0.06111,-0.03361 0.106936,-0.09472 0.04888,-0.06111 0.07944,-0.164986 0.03055,-0.10388 0.03055,-0.278032 0,-0.158875 -0.02139,-0.314695 -0.01833,-0.155821 -0.01833,-0.314696 0.0031,-0.293309 0.01222,-0.580507 0.01222,-0.287198 0.01528,-0.580506 l 0.0031,-0.479682 q 0,-0.07638 -0.0061,-0.177207 -0.0031,-0.100825 -0.03055,-0.192484 -0.02444,-0.09471 -0.08249,-0.158875 -0.05499,-0.06722 -0.158875,-0.07638 -0.05194,-0.0031 -0.119157,-0.0275 -0.06722,-0.02444 -0.128323,-0.06416 -0.05805,-0.04277 -0.100824,-0.09471 -0.04278,-0.05194 -0.04278,-0.113046 0,-0.05194 0.03055,-0.08555 0.03055,-0.03666 0.07333,-0.05805 0.04277,-0.02444 0.09166,-0.03361 0.05194,-0.01222 0.09471,-0.01222 0.09777,0 0.192484,0.02139 0.09471,0.01833 0.195539,0.01833 0.125267,0 0.250534,-0.01222 0.128323,-0.01222 0.25359,-0.0275 0.125267,-0.01833 0.250534,-0.03055 0.128323,-0.01222 0.256645,-0.01222 0.106936,0 0.213871,0.0092 0.106935,0.0061 0.213871,0.01222 0.01833,0.02444 0.06416,0.03972 0.04583,0.01528 0.09777,0.0275 0.055,0.01222 0.106935,0.02139 0.05194,0.0061 0.07944,0.01222 0.07333,0.01528 0.125267,0.03361 0.05499,0.01528 0.09166,0.04583 0.03972,0.0275 0.06722,0.07333 0.03055,0.04583 0.055,0.119157 0.0031,0.0092 0.0275,0.0275 0.0275,0.01833 0.0611,0.03666 0.03361,0.01833 0.06416,0.03666 0.03055,0.01833 0.04277,0.03055 0.03972,0.03972 0.07944,0.122212 0.04277,0.07944 0.07638,0.171097 0.03361,0.09166 0.05499,0.180263 0.02139,0.0886 0.02139,0.143599 0,0.113046 -0.03361,0.226092 -0.03055,0.113046 -0.06416,0.219981 -0.02139,0.06416 -0.06416,0.122212 -0.03972,0.05805 -0.07944,0.119157 -0.03972,0.05805 -0.07027,0.119156 -0.0275,0.06111 -0.0275,0.128323 0,0.09471 0.03972,0.189428 0.03972,0.09471 0.09166,0.174152 0.02139,0.03666 0.04888,0.07027 0.03055,0.03361 0.05805,0.06722 0.03055,0.03055 0.055,0.06722 0.02444,0.03361 0.04277,0.07638 0.03972,0.09777 0.05194,0.204705 0.01222,0.10388 0.01222,0.20776 z m -0.577451,-1.866787 q 0,-0.03361 -0.0092,-0.07944 -0.0092,-0.04583 -0.02139,-0.09166 -0.01222,-0.04888 -0.02444,-0.09471 -0.01222,-0.04888 -0.01833,-0.08555 -0.0092,-0.04583 -0.0275,-0.07333 -0.01833,-0.03055 -0.04277,-0.04888 -0.02444,-0.02139 -0.055,-0.03972 -0.03055,-0.02139 -0.06111,-0.04889 -0.07638,-0.06722 -0.146654,-0.106935 -0.07027,-0.03972 -0.146655,-0.06111 -0.07638,-0.02139 -0.16193,-0.0275 -0.08555,-0.0092 -0.189429,-0.0092 -0.06722,0 -0.140544,0.0031 -0.07027,0.0031 -0.128322,0.01833 -0.01222,0.0061 -0.01528,0.01528 -0.0031,0.0092 -0.01528,0.01833 -0.0092,0.0092 -0.03666,0.01833 -0.0275,0.0061 -0.08555,0.0061 -0.0886,0 -0.146654,0.02444 -0.055,0.02444 -0.0886,0.07027 -0.03055,0.04277 -0.04277,0.106935 -0.01222,0.06111 -0.01528,0.140544 -0.0031,0.100825 -0.0061,0.20776 0,0.106936 -0.0092,0.213871 -0.0092,0.10388 -0.03361,0.204705 -0.02139,0.100825 -0.07027,0.195539 0.171096,0.04277 0.348304,0.06722 0.177207,0.02444 0.348304,0.02444 0.119156,0 0.238313,-0.0092 0.122212,-0.0092 0.238313,-0.03055 0.04277,-0.0092 0.113046,-0.03361 0.07333,-0.02444 0.140544,-0.06111 0.07027,-0.03666 0.122212,-0.08249 0.05499,-0.04583 0.06111,-0.09471 0.0061,-0.03666 0.02444,-0.06722 0.02139,-0.03055 0.04277,-0.05805 0.02444,-0.03055 0.04277,-0.06111 0.01833,-0.03055 0.01833,-0.07027 z m 0.100825,2.040939 q 0,-0.07944 -0.02139,-0.158876 -0.01833,-0.07944 -0.03055,-0.158875 -0.0092,-0.07333 -0.01833,-0.116102 -0.0061,-0.04277 -0.02444,-0.07333 -0.01528,-0.03361 -0.04583,-0.06416 -0.03055,-0.03055 -0.0886,-0.07944 -0.01528,-0.06722 -0.03361,-0.07944 -0.01528,-0.01222 -0.03361,-0.01222 -0.01528,0 -0.03361,0.0031 -0.01528,0 -0.03055,0 l -0.04277,-0.08555 q -0.05805,-0.03972 -0.10388,-0.06111 -0.04278,-0.02139 -0.113046,-0.0275 -0.06111,-0.0061 -0.122212,-0.02444 -0.05805,-0.01833 -0.122212,-0.01833 -0.0275,0 -0.04277,0.02139 -0.01528,0.02139 -0.02444,0.02139 -0.01833,0 -0.04277,-0.0061 -0.02444,-0.0092 -0.05194,-0.01528 -0.0275,-0.0092 -0.05805,-0.01528 -0.0275,-0.0092 -0.05194,-0.0092 -0.137488,0 -0.268866,0.03055 -0.128322,0.0275 -0.2597,0.06111 -0.02444,0.06416 -0.04888,0.140544 -0.02139,0.07638 -0.03972,0.15582 -0.01833,0.07944 -0.03055,0.158876 -0.01222,0.07638 -0.01222,0.143599 0,0.03361 0.0061,0.055 0.0061,0.01833 0.01528,0.03361 0.0092,0.01528 0.01528,0.03055 0.0061,0.01528 0.0061,0.03666 0,0.122212 -0.0275,0.241368 -0.02444,0.116102 -0.02444,0.238313 0,0.07944 0.02139,0.152765 0.02139,0.07333 0.07333,0.134433 0.06111,0 0.116102,0.02444 0.055,0.02139 0.116101,0.02139 0.04277,0 0.08249,-0.02139 0.04277,-0.02139 0.06722,-0.02139 0.02444,0 0.03666,0.02139 0.01528,0.02139 0.04888,0.02139 h 0.01222 q 0.0092,-0.01528 0.03361,-0.02444 0.02444,-0.01222 0.055,-0.01528 0.03361,-0.0061 0.07027,-0.0061 0.03666,-0.0031 0.07027,-0.0031 0.06416,0 0.09777,0.0031 0.03666,0.0031 0.08249,0.0031 0.128322,-0.0275 0.244424,-0.06722 0.09777,-0.03361 0.198594,-0.08555 0.10388,-0.05194 0.161931,-0.122212 0.03055,-0.03055 0.06722,-0.07638 0.03972,-0.04583 0.07027,-0.09471 0.03361,-0.05194 0.055,-0.10388 0.02444,-0.055 0.02444,-0.106935 z"
         id="path4483" />
      <path
         d="m 79.966344,24.96349 q 0,0.05194 -0.01833,0.09777 -0.01833,0.04583 -0.03361,0.09472 -0.01222,0.04277 -0.01833,0.07027 -0.0031,0.0275 -0.01222,0.04888 -0.0092,0.01833 -0.03055,0.03666 -0.01833,0.01528 -0.06111,0.03666 -0.09166,0.04888 -0.195539,0.100825 -0.100825,0.04888 -0.204705,0.04888 -0.0886,0 -0.168041,-0.03972 -0.07638,-0.04277 -0.143599,-0.09166 -0.06416,-0.05194 -0.119157,-0.09471 -0.05194,-0.04277 -0.0886,-0.04277 -0.03972,0 -0.07027,0.02139 -0.0275,0.02139 -0.05805,0.04583 -0.0275,0.02444 -0.06416,0.04583 -0.03361,0.02139 -0.08555,0.02139 -0.04277,0 -0.0886,0.01528 -0.04583,0.01528 -0.09166,0.03666 -0.04583,0.01833 -0.09472,0.03972 -0.04583,0.01833 -0.08555,0.03055 -0.137488,0.03666 -0.278032,0.04277 -0.137488,0.0061 -0.278032,0.0061 -0.03666,0 -0.113046,-0.0031 -0.07638,0 -0.15582,-0.01528 -0.07638,-0.01222 -0.137489,-0.04277 -0.05805,-0.03055 -0.05805,-0.08555 0,-0.01222 0.0031,-0.02139 -0.02139,0.02444 -0.04888,0.03972 -0.0275,0.01528 -0.06111,0.01528 -0.04888,0 -0.119156,-0.06722 -0.07027,-0.06722 -0.134434,-0.15582 -0.06416,-0.0886 -0.10999,-0.174152 -0.04583,-0.0886 -0.04583,-0.131378 0,-0.03361 0.01833,-0.06111 0.02139,-0.0275 0.02139,-0.06111 0,-0.04277 -0.01222,-0.07944 -0.0092,-0.03972 -0.0092,-0.08249 0,-0.055 0.02139,-0.116101 0.02139,-0.06416 0.05194,-0.125267 0.03055,-0.06416 0.06416,-0.122212 0.03361,-0.06111 0.06111,-0.113046 0.03055,-0.06111 0.08555,-0.09777 0.05499,-0.03666 0.116101,-0.06416 0.06111,-0.0275 0.122212,-0.05499 0.06111,-0.0275 0.106935,-0.07333 0.04583,0.05194 0.119157,0.05194 0.07638,0 0.14971,-0.02139 0.07333,-0.02444 0.149709,-0.02444 0.06111,0 0.116102,0.01222 0.05805,0.01222 0.119156,0.01222 0.06722,0 0.09777,-0.01528 0.03361,-0.01833 0.08249,-0.06111 0.04888,-0.04277 0.122212,-0.06416 0.07638,-0.02444 0.15582,-0.03666 0.08249,-0.01528 0.161931,-0.03055 0.08249,-0.01528 0.146654,-0.04277 0.06416,-0.03055 0.10388,-0.07944 0.03972,-0.05194 0.03972,-0.140543 0,-0.09777 -0.05805,-0.204705 -0.05499,-0.109991 -0.143599,-0.198595 -0.0886,-0.09166 -0.195539,-0.149709 -0.106935,-0.05805 -0.204705,-0.05805 -0.01222,0 -0.02444,0.0031 -0.01222,0.0031 -0.02139,0.0031 -0.07333,0.01222 -0.164986,0.01833 -0.09166,0.0031 -0.171097,0.0275 -0.07944,0.02139 -0.134433,0.07638 -0.05499,0.05194 -0.05499,0.15582 0,0.06111 0.0092,0.122212 0.01222,0.05805 0.01222,0.119156 0,0.09166 -0.04583,0.152765 -0.04277,0.06111 -0.113046,0.09777 -0.06722,0.03666 -0.149709,0.05194 -0.08249,0.01222 -0.158876,0.01222 -0.09166,0 -0.158875,-0.02444 -0.06722,-0.02444 -0.109991,-0.113046 -0.03361,-0.06416 -0.07333,-0.137489 -0.03666,-0.07638 -0.03666,-0.152765 0,-0.08249 0.0275,-0.152764 0.03055,-0.07333 0.06722,-0.140544 0.03666,-0.07027 0.07027,-0.137489 0.03666,-0.07027 0.05194,-0.149709 0.02139,-0.01222 0.05805,-0.02444 0.03972,-0.01222 0.08249,-0.02444 0.04583,-0.01222 0.08555,-0.02139 0.04277,-0.01222 0.07027,-0.02139 0.07333,-0.02139 0.140544,-0.04888 0.07027,-0.03055 0.140544,-0.05499 0.07333,-0.02444 0.143599,-0.04277 0.07333,-0.01833 0.149709,-0.02139 l 0.09471,-0.0031 q 0.131378,0 0.268867,0.02444 0.137488,0.02139 0.268866,0.07027 0.131378,0.04889 0.247479,0.122212 0.119157,0.07027 0.210815,0.168042 0.06722,0.07333 0.109991,0.174152 0.04583,0.09777 0.07027,0.20776 0.0275,0.109991 0.03666,0.223037 0.01222,0.10999 0.01222,0.204705 0,0.128322 -0.0092,0.253589 -0.0061,0.122212 -0.0061,0.250535 0,0.122212 0.01222,0.244424 0.01528,0.119156 0.03361,0.241368 0.01833,0.119157 0.03055,0.241369 0.01528,0.119156 0.01528,0.238313 0.0061,0.07333 0.01833,0.09166 0.01528,0.01528 0.03055,0.01528 0.06722,0 0.106935,-0.03972 0.04278,-0.04277 0.07638,-0.09166 0.03361,-0.05194 0.07333,-0.09471 0.03972,-0.04277 0.100825,-0.04277 0.0275,0 0.055,0.0031 0.03055,0.0031 0.055,0.01528 0.02444,0.0092 0.03972,0.03055 0.01528,0.01833 0.01528,0.05194 z m -1.005193,-0.760769 q 0,-0.01833 -0.0031,-0.06416 0,-0.04583 -0.0061,-0.09166 -0.0061,-0.04888 -0.02139,-0.08555 -0.01222,-0.03666 -0.03972,-0.03666 -0.0061,0 -0.01528,0.0061 -0.0092,0.0031 -0.01528,0.0031 -0.116101,0.06416 -0.198594,0.106935 -0.08249,0.03972 -0.164986,0.06722 -0.07944,0.02444 -0.171097,0.03361 -0.09166,0.0092 -0.229147,0.0092 -0.01833,0 -0.100825,0.01528 -0.08249,0.01528 -0.180263,0.03666 -0.09777,0.01833 -0.183318,0.03972 -0.08555,0.01833 -0.106935,0.02444 -0.03972,0.01528 -0.05805,0.03055 -0.01528,0.01528 -0.02444,0.03361 -0.0092,0.01833 -0.01833,0.03972 -0.0092,0.01833 -0.03361,0.03972 -0.03055,0.02444 -0.06722,0.03972 -0.03361,0.01528 -0.06416,0.04583 -0.04583,0.04583 -0.08555,0.122212 -0.03972,0.07333 -0.03972,0.140544 0,0.08249 0.04277,0.146654 0.04277,0.06416 0.113046,0.109991 0.07027,0.04583 0.158876,0.07944 0.0886,0.03361 0.177207,0.05194 0.09166,0.01833 0.174152,0.0275 0.08555,0.0092 0.146654,0.0092 0.07333,0 0.174152,-0.0092 0.100825,-0.01222 0.20165,-0.03361 0.100825,-0.02444 0.189428,-0.06416 0.0886,-0.03972 0.140544,-0.100825 0.02139,-0.02444 0.03055,-0.04277 0.0092,-0.02139 0.01833,-0.03972 0.01222,-0.02139 0.02444,-0.04277 0.01528,-0.02139 0.04583,-0.04583 0.07027,-0.05805 0.106936,-0.128322 0.03972,-0.07027 0.05805,-0.146654 0.01833,-0.07638 0.02139,-0.158876 0.0031,-0.08249 0.0031,-0.168041 z"
         id="path4485" />
      <path
         d="m 83.049139,24.413536 q 0,0.09777 -0.02139,0.186373 -0.02139,0.08555 -0.04889,0.171097 -0.0275,0.08249 -0.05805,0.171097 -0.0275,0.08555 -0.04277,0.177207 -0.0275,0.152765 -0.109991,0.25359 -0.08249,0.100825 -0.198595,0.158875 -0.116101,0.06111 -0.2597,0.0886 -0.140544,0.03055 -0.290253,0.04583 -0.14971,0.01528 -0.296364,0.02139 -0.143599,0.0061 -0.265811,0.02139 -0.04583,-0.03361 -0.07638,-0.07333 -0.03055,-0.03972 -0.05805,-0.07638 -0.0275,-0.03361 -0.06111,-0.05805 -0.03361,-0.02139 -0.0886,-0.02139 -0.01833,0 -0.03055,-0.04889 -0.0092,-0.05194 -0.01833,-0.113046 -0.0092,-0.06416 -0.02139,-0.113046 -0.0092,-0.05194 -0.0275,-0.05194 -0.07027,0 -0.113046,-0.03055 -0.03972,-0.03055 -0.06416,-0.07638 -0.02139,-0.04888 -0.03055,-0.106935 -0.0061,-0.05805 -0.0061,-0.113046 0,-0.04277 -0.01833,-0.07944 -0.01833,-0.03666 -0.03972,-0.07027 -0.02139,-0.03666 -0.03972,-0.07333 -0.01833,-0.03666 -0.01833,-0.07638 0,-0.04583 0.0031,-0.113046 0.0061,-0.07027 0.0092,-0.143599 0.0061,-0.07333 0.0092,-0.143599 0.0061,-0.07027 0.0061,-0.116101 0,-0.055 0.01222,-0.09166 0.01528,-0.03666 0.03361,-0.06416 0.01833,-0.0275 0.03055,-0.04889 0.01528,-0.02139 0.01528,-0.04888 0,-0.03666 -0.01833,-0.06111 -0.01528,-0.02444 -0.01528,-0.04888 0,-0.03361 0.02139,-0.06416 0.02139,-0.03361 0.03055,-0.06722 0.03361,-0.134433 0.03361,-0.265811 0,-0.0275 -0.0031,-0.05194 0,-0.0275 -0.0031,-0.05194 -0.07027,-0.05805 -0.15582,-0.07333 -0.08555,-0.01833 -0.171097,-0.02444 -0.08555,-0.0092 -0.164986,-0.02139 -0.07944,-0.01222 -0.134433,-0.06416 -0.04583,-0.04277 -0.08249,-0.09471 -0.03666,-0.055 -0.09777,-0.07333 -0.04277,-0.01528 -0.07333,-0.03972 -0.0275,-0.0275 -0.0275,-0.07638 0,-0.07333 0.04278,-0.109991 0.04583,-0.03972 0.106935,-0.0611 0.06111,-0.02444 0.125267,-0.03972 0.06722,-0.01833 0.113046,-0.05194 0.04583,-0.03361 0.109991,-0.03361 0.0275,0 0.05194,0.0031 0.0275,0 0.055,0 0.07638,0 0.125268,-0.02444 0.05194,-0.0275 0.07944,-0.07027 0.03055,-0.04583 0.03972,-0.10388 0.01222,-0.05805 0.01222,-0.125267 0,-0.09777 -0.01222,-0.189428 -0.01222,-0.09166 -0.01222,-0.189429 0,-0.113046 0.03055,-0.20776 0.03055,-0.09471 0.116101,-0.174152 0.01833,-0.01528 0.03972,-0.03972 0.02139,-0.02444 0.04583,-0.04583 0.02444,-0.02444 0.04888,-0.03972 0.0275,-0.01528 0.055,-0.01528 0.01833,0 0.03055,0.0092 0.01528,0.0061 0.03055,0.01833 0.06722,0.06722 0.08555,0.100825 0.02139,0.03055 0.02139,0.07333 0,0.02444 -0.0031,0.05499 0,0.0275 0,0.07333 0,0.09777 0.02444,0.192484 0.02444,0.09471 0.02444,0.161931 0,0.05805 -0.02444,0.113046 -0.02139,0.05194 -0.02139,0.109991 0,0.04277 0.01833,0.07944 0.02139,0.03361 0.04583,0.06722 0.0275,0.03361 0.04888,0.07027 0.02139,0.03361 0.02139,0.07944 0.03055,0.02139 0.137489,0.03972 0.106935,0.01528 0.238313,0.0275 0.131378,0.0092 0.265811,0.01528 0.134433,0.0061 0.223036,0.0061 0.07944,0 0.122212,0.01222 0.04278,0.01222 0.07027,0.0275 0.03055,0.01222 0.055,0.0275 0.02444,0.01528 0.06416,0.01833 0.04888,0.0061 0.08249,0.0275 0.03666,0.01833 0.03666,0.07638 0,0.07333 -0.03972,0.116101 -0.03666,0.04277 -0.09471,0.06416 -0.055,0.02139 -0.119156,0.0275 -0.06416,0.0031 -0.119157,0.0031 -0.0886,0 -0.177207,-0.0061 -0.0886,-0.0061 -0.177207,-0.0061 -0.146655,0 -0.265811,0.0275 -0.119157,0.0275 -0.207761,0.09166 -0.08555,0.06416 -0.134433,0.171096 -0.04583,0.10388 -0.04583,0.262756 0,0.15582 0.01833,0.30553 0.02139,0.149709 0.02139,0.305529 0,0.146655 0.0031,0.235258 0.0061,0.0886 0.03666,0.14971 0.03972,0.0886 0.06416,0.20165 0.02444,0.113046 0.06111,0.21387 0.03972,0.100825 0.106935,0.171097 0.07027,0.06722 0.204705,0.06722 0.04583,0 0.122212,-0.01222 0.07638,-0.01222 0.152765,-0.03666 0.07638,-0.0275 0.131378,-0.06722 0.055,-0.04277 0.055,-0.10388 0,-0.05194 -0.03055,-0.10388 -0.03055,-0.055 -0.03055,-0.116101 0,-0.04277 0.01833,-0.07333 0.02139,-0.03361 0.05194,-0.05805 0.03361,-0.0275 0.06722,-0.04583 0.03666,-0.02139 0.07027,-0.03666 0.055,-0.07027 0.131378,-0.116101 0.07944,-0.04888 0.168042,-0.04888 0.06111,0 0.116101,0.02139 0.05805,0.02139 0.106935,0.055 0.0092,0.055 0.0092,0.113046 z"
         id="path4487" />
      <path
         d="m 86.241925,24.413536 q 0,0.09777 -0.02139,0.186373 -0.02139,0.08555 -0.04888,0.171097 -0.0275,0.08249 -0.05805,0.171097 -0.0275,0.08555 -0.04277,0.177207 -0.0275,0.152765 -0.109991,0.25359 -0.08249,0.100825 -0.198594,0.158875 -0.116102,0.06111 -0.259701,0.0886 -0.140543,0.03055 -0.290253,0.04583 -0.14971,0.01528 -0.296364,0.02139 -0.143599,0.0061 -0.265811,0.02139 -0.04583,-0.03361 -0.07638,-0.07333 -0.03055,-0.03972 -0.05805,-0.07638 -0.0275,-0.03361 -0.06111,-0.05805 -0.03361,-0.02139 -0.0886,-0.02139 -0.01833,0 -0.03055,-0.04889 -0.0092,-0.05194 -0.01833,-0.113046 -0.0092,-0.06416 -0.02139,-0.113046 -0.0092,-0.05194 -0.0275,-0.05194 -0.07027,0 -0.113046,-0.03055 -0.03972,-0.03055 -0.06416,-0.07638 -0.02139,-0.04888 -0.03055,-0.106935 -0.0061,-0.05805 -0.0061,-0.113046 0,-0.04277 -0.01833,-0.07944 -0.01833,-0.03666 -0.03972,-0.07027 -0.02139,-0.03666 -0.03972,-0.07333 -0.01833,-0.03666 -0.01833,-0.07638 0,-0.04583 0.0031,-0.113046 0.0061,-0.07027 0.0092,-0.143599 0.0061,-0.07333 0.0092,-0.143599 0.0061,-0.07027 0.0061,-0.116101 0,-0.055 0.01222,-0.09166 0.01528,-0.03666 0.03361,-0.06416 0.01833,-0.0275 0.03055,-0.04889 0.01528,-0.02139 0.01528,-0.04888 0,-0.03666 -0.01833,-0.06111 -0.01528,-0.02444 -0.01528,-0.04888 0,-0.03361 0.02139,-0.06416 0.02139,-0.03361 0.03055,-0.06722 0.03361,-0.134433 0.03361,-0.265811 0,-0.0275 -0.0031,-0.05194 0,-0.0275 -0.0031,-0.05194 -0.07027,-0.05805 -0.15582,-0.07333 -0.08555,-0.01833 -0.171097,-0.02444 -0.08555,-0.0092 -0.164986,-0.02139 -0.07944,-0.01222 -0.134433,-0.06416 -0.04583,-0.04277 -0.08249,-0.09471 -0.03666,-0.055 -0.09777,-0.07333 -0.04277,-0.01528 -0.07333,-0.03972 -0.0275,-0.0275 -0.0275,-0.07638 0,-0.07333 0.04277,-0.109991 0.04583,-0.03972 0.106935,-0.0611 0.06111,-0.02444 0.125267,-0.03972 0.06722,-0.01833 0.113046,-0.05194 0.04583,-0.03361 0.109991,-0.03361 0.0275,0 0.05194,0.0031 0.0275,0 0.055,0 0.07638,0 0.125267,-0.02444 0.05194,-0.0275 0.07944,-0.07027 0.03055,-0.04583 0.03972,-0.10388 0.01222,-0.05805 0.01222,-0.125267 0,-0.09777 -0.01222,-0.189428 -0.01222,-0.09166 -0.01222,-0.189429 0,-0.113046 0.03055,-0.20776 0.03055,-0.09471 0.116101,-0.174152 0.01833,-0.01528 0.03972,-0.03972 0.02139,-0.02444 0.04583,-0.04583 0.02444,-0.02444 0.04888,-0.03972 0.0275,-0.01528 0.055,-0.01528 0.01833,0 0.03055,0.0092 0.01528,0.0061 0.03055,0.01833 0.06722,0.06722 0.08555,0.100825 0.02139,0.03055 0.02139,0.07333 0,0.02444 -0.0031,0.05499 0,0.0275 0,0.07333 0,0.09777 0.02444,0.192484 0.02444,0.09471 0.02444,0.161931 0,0.05805 -0.02444,0.113046 -0.02139,0.05194 -0.02139,0.109991 0,0.04277 0.01833,0.07944 0.02139,0.03361 0.04583,0.06722 0.0275,0.03361 0.04888,0.07027 0.02139,0.03361 0.02139,0.07944 0.03055,0.02139 0.137489,0.03972 0.106935,0.01528 0.238313,0.0275 0.131378,0.0092 0.265811,0.01528 0.134433,0.0061 0.223037,0.0061 0.07944,0 0.122212,0.01222 0.04277,0.01222 0.07027,0.0275 0.03055,0.01222 0.055,0.0275 0.02444,0.01528 0.06416,0.01833 0.04888,0.0061 0.08249,0.0275 0.03666,0.01833 0.03666,0.07638 0,0.07333 -0.03972,0.116101 -0.03666,0.04277 -0.09471,0.06416 -0.055,0.02139 -0.119157,0.0275 -0.06416,0.0031 -0.119157,0.0031 -0.0886,0 -0.177207,-0.0061 -0.0886,-0.0061 -0.177207,-0.0061 -0.146655,0 -0.265811,0.0275 -0.119157,0.0275 -0.20776,0.09166 -0.08555,0.06416 -0.134433,0.171096 -0.04583,0.10388 -0.04583,0.262756 0,0.15582 0.01833,0.30553 0.02139,0.149709 0.02139,0.305529 0,0.146655 0.0031,0.235258 0.0061,0.0886 0.03666,0.14971 0.03972,0.0886 0.06416,0.20165 0.02444,0.113046 0.06111,0.21387 0.03972,0.100825 0.106935,0.171097 0.07027,0.06722 0.204705,0.06722 0.04583,0 0.122212,-0.01222 0.07638,-0.01222 0.152765,-0.03666 0.07638,-0.0275 0.131378,-0.06722 0.05499,-0.04277 0.05499,-0.10388 0,-0.05194 -0.03055,-0.10388 -0.03055,-0.055 -0.03055,-0.116101 0,-0.04277 0.01833,-0.07333 0.02139,-0.03361 0.05194,-0.05805 0.03361,-0.0275 0.06722,-0.04583 0.03666,-0.02139 0.07027,-0.03666 0.055,-0.07027 0.131377,-0.116101 0.07944,-0.04888 0.168042,-0.04888 0.06111,0 0.116101,0.02139 0.05805,0.02139 0.106936,0.055 0.0092,0.055 0.0092,0.113046 z"
         id="path4489" />
      <path
         d="m 89.517205,24.85961 q 0,0.08249 -0.0275,0.140544 -0.02444,0.05805 -0.06722,0.10388 -0.03972,0.04583 -0.09471,0.08555 -0.05194,0.03972 -0.106935,0.08555 -0.04277,0.03666 -0.07638,0.055 -0.03361,0.01833 -0.06722,0.03055 -0.03055,0.01222 -0.06722,0.02444 -0.03361,0.01222 -0.07944,0.03361 -0.06111,0.03055 -0.103881,0.05805 -0.03972,0.02444 -0.08249,0.04583 -0.03972,0.02139 -0.0886,0.03361 -0.04888,0.01528 -0.122212,0.02444 -0.122212,0.01528 -0.247479,0.03666 -0.122212,0.02139 -0.244424,0.02139 -0.02444,0 -0.05194,-0.01222 -0.02444,-0.0092 -0.05805,-0.02139 -0.03361,-0.0092 -0.07638,-0.02139 -0.03972,-0.0092 -0.09777,-0.0092 -0.06111,0 -0.09777,-0.01833 -0.03666,-0.01833 -0.06722,-0.04277 -0.0275,-0.02444 -0.05805,-0.05194 -0.03055,-0.03055 -0.07944,-0.05194 -0.183318,-0.08249 -0.311641,-0.198594 -0.128322,-0.116101 -0.219981,-0.2597 -0.09166,-0.143599 -0.152765,-0.311641 -0.06111,-0.168041 -0.10388,-0.351359 -0.03361,-0.128322 -0.03361,-0.256645 0,-0.168041 0.07944,-0.31164 -0.03055,-0.08555 -0.03055,-0.164986 0,-0.05805 0.03361,-0.171097 0.03361,-0.116101 0.08555,-0.232203 0.05499,-0.116101 0.116101,-0.20776 0.06416,-0.09471 0.119157,-0.116101 0.04277,-0.01528 0.05805,-0.02444 0.01833,-0.01222 0.01833,-0.06111 0,-0.03666 0.0275,-0.06111 0.03055,-0.02444 0.07027,-0.03972 0.04277,-0.01528 0.08249,-0.0275 0.04277,-0.01222 0.07027,-0.02444 0.113046,-0.055 0.213871,-0.09166 0.10388,-0.03972 0.204705,-0.06416 0.10388,-0.0275 0.21387,-0.03972 0.109991,-0.01222 0.235258,-0.01222 0.06722,0 0.131378,0.01833 0.06416,0.01833 0.122212,0.04888 0.06111,0.0275 0.119157,0.06416 0.05805,0.03361 0.113046,0.06722 h -0.0031 q 0.04583,0.0061 0.08555,0.0275 0.04277,0.01833 0.0886,0.02444 0.04278,0.05194 0.109991,0.100825 0.07027,0.04583 0.134433,0.09777 0.06722,0.05194 0.113046,0.113046 0.04888,0.05805 0.04888,0.134433 0,0.01222 -0.0031,0.02444 0,0.01222 -0.0031,0.0275 l 0.01222,-0.01528 q 0.01222,0.0092 0.02139,0.03055 0.01222,0.02139 0.02139,0.04888 0.0092,0.02444 0.01528,0.05194 0.0061,0.02444 0.0092,0.03972 0.02444,0.03972 0.06416,0.06416 0.04277,0.02444 0.06722,0.06722 -0.03055,0.03055 -0.03055,0.07944 0,0.05194 0.02139,0.10388 0.02139,0.04889 0.02139,0.100825 0,0.06111 -0.0061,0.119157 -0.0061,0.05499 -0.0061,0.116101 0,0.04583 -0.03666,0.07027 -0.03361,0.02444 -0.07638,0.04277 -0.03972,0.01833 -0.07333,0.03666 -0.03361,0.01833 -0.03361,0.05194 0,0.02444 -0.03055,0.02444 -0.0275,-0.0031 -0.04583,-0.0031 -0.134433,0 -0.268866,-0.03361 -0.131378,-0.03361 -0.262756,-0.03361 -0.143599,0 -0.284142,0.02139 -0.140544,0.01833 -0.284143,0.01833 -0.106936,0 -0.213871,-0.0061 -0.10388,-0.0061 -0.210816,-0.0061 -0.0275,0 -0.10388,0.01222 -0.07638,0.0092 -0.16193,0.0275 -0.08249,0.01528 -0.158876,0.03972 -0.07638,0.02139 -0.106935,0.04277 -0.0031,0.01528 -0.0031,0.04277 0,0.143599 0.08249,0.296364 0.08555,0.152765 0.223037,0.278032 0.137488,0.125267 0.308585,0.20776 0.171097,0.08249 0.345249,0.08249 0.100825,0 0.198594,0.0092 0.100825,0.0061 0.195539,0.04277 0.08249,-0.03972 0.14971,-0.09166 0.07027,-0.05194 0.134433,-0.10999 0.06416,-0.05805 0.125267,-0.119157 0.06111,-0.06111 0.125267,-0.122212 0.01222,-0.01222 0.05805,-0.02139 0.04888,-0.01222 0.10388,-0.01833 0.055,-0.0092 0.10388,-0.01222 0.05194,-0.0061 0.07027,-0.0061 0.07027,0 0.131378,0.02139 0.01833,0.07027 0.01833,0.137489 z M 89.05891,23.619159 q 0,-0.04583 -0.01528,-0.0886 -0.01528,-0.04277 -0.02444,-0.0886 -0.01528,-0.08555 -0.01528,-0.164986 0,-0.08249 -0.02444,-0.164987 h -0.0031 q 0,0.01833 -0.01222,0.03666 -0.01222,0.01528 -0.03361,0.01528 -0.03666,0 -0.07027,-0.01833 -0.03361,-0.01833 -0.05805,-0.04583 -0.116101,-0.05194 -0.210816,-0.09777 -0.09166,-0.04583 -0.186373,-0.07944 -0.09166,-0.03666 -0.198594,-0.05499 -0.10388,-0.02139 -0.241369,-0.02139 -0.01222,0 -0.02444,0.0031 -0.0092,0 -0.01833,0.0092 l 0.01528,0.03361 -0.02444,0.0061 q -0.08249,0.01528 -0.137488,0.03055 -0.05194,0.01222 -0.09471,0.03666 -0.04277,0.02444 -0.08555,0.06111 -0.03972,0.03361 -0.10388,0.0886 -0.03055,0.0275 -0.06722,0.04277 -0.03361,0.01222 -0.07027,0.02444 -0.03361,0.0092 -0.06722,0.02139 -0.03055,0.01222 -0.05194,0.03972 -0.02139,0.07638 -0.06416,0.14971 -0.03972,0.07027 -0.03972,0.149709 0,0.04583 0.03666,0.08249 0.03972,0.03361 0.09777,0.05805 0.06111,0.02444 0.131378,0.04277 0.07333,0.01833 0.143599,0.0275 0.07027,0.0092 0.128323,0.01528 0.0611,0.0031 0.09471,0.0031 0.116101,0 0.229147,-0.02139 0.113046,-0.02444 0.229147,-0.02444 0.119157,0 0.238314,0.01222 0.119156,0.0092 0.238313,0.0092 0.03055,0 0.09166,-0.0031 0.06111,-0.0031 0.119156,-0.01528 0.06111,-0.01528 0.103881,-0.03972 0.04583,-0.0275 0.04583,-0.07027 z"
         id="path4491" />
      <path
         d="m 93.324107,23.2678 q 0,0.06111 -0.02444,0.10388 -0.02444,0.04277 -0.055,0.08249 -0.0275,0.03666 -0.05805,0.07638 -0.0275,0.03972 -0.03666,0.09472 -0.0275,-0.01222 -0.05805,-0.01528 -0.0275,-0.0031 -0.05805,-0.0031 -0.07333,0 -0.146654,0.01222 -0.07027,0.0092 -0.140544,0.0092 -0.08249,0 -0.137488,-0.04888 -0.05194,-0.05194 -0.08555,-0.125267 -0.03055,-0.07333 -0.04277,-0.15582 -0.01222,-0.08555 -0.01222,-0.152765 0,-0.08555 0.0275,-0.174152 -0.02444,-0.0092 -0.04277,-0.0092 -0.03972,0 -0.05805,0.02444 -0.01528,0.02444 -0.04583,0.02444 -0.0275,0 -0.04888,-0.01833 -0.02139,-0.02139 -0.05194,-0.02139 -0.04583,0 -0.116102,0.03055 -0.06722,0.0275 -0.131377,0.07333 -0.06416,0.04583 -0.113046,0.100825 -0.04583,0.05194 -0.04583,0.100825 -0.06416,0.0061 -0.122212,0.03666 -0.05499,0.0275 -0.106935,0.06111 -0.03972,0.02444 -0.06722,0.07638 -0.0275,0.05194 -0.05194,0.113046 -0.02139,0.05805 -0.04583,0.119156 -0.02139,0.06111 -0.05194,0.100825 -0.05194,0.06722 -0.09166,0.137488 -0.03666,0.06722 -0.03666,0.152765 0,0.106936 0.03361,0.216926 0.03361,0.109991 0.03361,0.223037 0,0.07333 -0.01222,0.146654 -0.0092,0.07333 -0.0092,0.143599 0,0.08555 0.03055,0.137489 0.03055,0.05194 0.08249,0.08249 0.05194,0.0275 0.119156,0.03666 0.06722,0.0092 0.137489,0.0092 0.07638,0 0.146654,-0.0031 0.07333,-0.0061 0.134433,-0.0061 0.02139,0.02444 0.02444,0.04583 0.0031,0.02139 -0.0031,0.04583 -0.0031,0.02139 -0.01222,0.04583 -0.0061,0.02139 -0.0061,0.05194 0,0.01222 0.0061,0.03055 0.04583,0 0.07944,-0.02139 0.03361,-0.02139 0.04888,-0.06722 0.02139,0.0061 0.03666,0.01833 0.01833,0.01222 0.01833,0.03666 0,0.01833 -0.0092,0.03666 -0.0092,0.01528 -0.02139,0.03055 -0.01222,0.01528 -0.02139,0.03361 -0.0092,0.01528 -0.0092,0.03666 0,0.01222 0.0031,0.0275 0.0031,0.01222 0.0092,0.02139 -0.01528,0.02444 -0.04277,0.03361 -0.0275,0.0092 -0.055,0.0092 -0.04888,0 -0.08249,-0.01528 -0.03055,-0.01528 -0.05805,-0.03361 -0.02444,-0.01833 -0.04583,-0.03361 -0.02139,-0.01528 -0.05194,-0.01528 -0.01222,0 -0.03666,0.0061 -0.02444,0.0061 -0.04889,0.01528 -0.02444,0.0092 -0.04277,0.02444 -0.01833,0.01222 -0.01833,0.02444 0,0.02444 0.01528,0.04277 0.01833,0.01833 0.01833,0.04277 0,0.02139 -0.01528,0.03361 -0.01528,0.01222 -0.03666,0.01528 -0.02139,0.0061 -0.04583,0.0061 -0.02139,0.0031 -0.03666,0.0031 -0.119156,0 -0.238313,-0.0275 -0.116101,-0.02444 -0.235258,-0.02444 -0.055,0 -0.109991,0.02444 -0.05499,0.02444 -0.116101,0.02444 -0.03361,0 -0.05194,-0.01528 -0.01528,-0.01222 -0.0275,-0.03055 -0.01222,-0.01833 -0.0275,-0.03361 -0.01528,-0.01222 -0.04583,-0.01222 -0.05805,0 -0.116101,0.01222 -0.055,0.01222 -0.113046,0.02444 -0.055,0.01528 -0.113046,0.02444 -0.055,0.01222 -0.113046,0.01222 -0.03055,0 -0.07333,-0.0092 -0.04277,-0.0061 -0.08249,-0.02444 -0.03972,-0.01833 -0.06722,-0.04583 -0.0275,-0.0275 -0.0275,-0.06722 0,-0.02444 0.0275,-0.06416 0.03055,-0.03972 0.06722,-0.07638 0.03666,-0.03972 0.07333,-0.06722 0.03666,-0.0275 0.05499,-0.0275 0.04889,0 0.09471,0.0031 0.04888,0.0031 0.100825,0.0031 0.08249,0 0.164986,-0.02444 0.08555,-0.0275 0.152765,-0.07638 0.07027,-0.04889 0.113046,-0.122212 0.04277,-0.07333 0.04277,-0.164986 0,-0.03972 -0.0061,-0.07638 -0.0061,-0.03972 -0.0061,-0.07944 0,-0.07944 0.01833,-0.158876 0.01833,-0.07944 0.01833,-0.158875 0,-0.106936 -0.02444,-0.216927 -0.02139,-0.113046 -0.02139,-0.226092 0,-0.100824 0.0031,-0.198594 0.0061,-0.100825 0.0061,-0.20165 0,-0.04583 -0.0031,-0.134433 -0.0031,-0.0886 -0.02139,-0.177207 -0.01528,-0.0886 -0.05194,-0.15582 -0.03361,-0.06722 -0.09472,-0.06722 -0.06722,0 -0.134433,0.01528 -0.06722,0.01528 -0.137488,0.01528 -0.05194,0 -0.122212,-0.0061 -0.07027,-0.0092 -0.134433,-0.03055 -0.06416,-0.02444 -0.109991,-0.06722 -0.04583,-0.04277 -0.04583,-0.113046 0,-0.07638 0.02139,-0.122212 0.02139,-0.04888 0.055,-0.07333 0.03666,-0.02444 0.08249,-0.03361 0.04888,-0.0092 0.10388,-0.0092 0.04888,0 0.100825,0.0031 0.05194,0.0031 0.100825,0.0031 0.09777,0 0.192484,-0.0092 0.09777,-0.01222 0.195539,-0.01222 0.06722,0 0.134433,0.0061 0.06722,0.0061 0.131378,0.0275 0.05805,0.01833 0.08555,0.07027 0.0275,0.04888 0.04888,0.100824 0.02444,0.05194 0.055,0.09471 0.03055,0.03972 0.09777,0.03972 0.03055,0 0.055,-0.01528 0.0275,-0.01833 0.05194,-0.03972 0.02444,-0.02139 0.04889,-0.03972 0.02444,-0.01833 0.05805,-0.02444 0.06722,-0.0092 0.122211,-0.04277 0.05805,-0.03361 0.113046,-0.06722 0.055,-0.03361 0.109991,-0.06111 0.05805,-0.0275 0.125267,-0.0275 0.03972,0 0.09777,-0.0092 0.06111,-0.0092 0.119157,-0.02444 0.0611,-0.01833 0.113046,-0.04277 0.055,-0.02444 0.08555,-0.05499 0.08249,0.0061 0.192484,0.03972 0.113046,0.03361 0.213871,0.09166 0.10388,0.055 0.180262,0.131378 0.07638,0.07638 0.0886,0.171097 0.0092,0.05805 0.03361,0.109991 0.02444,0.05194 0.04888,0.10388 0.0275,0.04888 0.04888,0.10388 0.02139,0.05194 0.02139,0.109991 z"
         id="path4493" />
      <path
         d="m 97.137118,22.711735 q 0,0.03666 -0.01833,0.07944 -0.01833,0.03972 -0.04888,0.07638 -0.0275,0.03361 -0.06416,0.06111 -0.03666,0.0275 -0.07027,0.03972 -0.055,0.01833 -0.137488,0.02444 -0.07944,0.0061 -0.15582,0.02139 -0.07333,0.01528 -0.128323,0.055 -0.05194,0.03666 -0.05194,0.119157 0,0.04888 -0.0061,0.06416 -0.0061,0.01222 -0.03055,0.01222 -0.0061,0 -0.01833,0 -0.0092,-0.0031 -0.02139,-0.0031 l -0.0275,0.01528 q -0.04277,0.10388 -0.05194,0.216926 -0.0061,0.113046 -0.03666,0.219981 -0.05805,0.0031 -0.09471,0.055 -0.03361,0.05194 -0.055,0.122211 -0.01833,0.06722 -0.03361,0.137489 -0.01222,0.07027 -0.0275,0.109991 -0.09471,0.229147 -0.195539,0.449128 -0.09777,0.219982 -0.210816,0.439963 -0.0092,0.01833 -0.02139,0.06111 -0.01222,0.03972 -0.0275,0.08249 -0.01528,0.03972 -0.03666,0.07027 -0.01833,0.03055 -0.04583,0.03055 -0.03666,-0.01528 -0.07027,-0.03666 -0.03361,-0.02444 -0.07027,-0.0275 -0.01222,0.0031 -0.01222,0.01528 0,0.03361 0.03055,0.055 0.03361,0.02139 0.07027,0.04277 0.03972,0.02139 0.07027,0.04277 0.03361,0.02139 0.03361,0.05194 0,0.0275 -0.02139,0.05805 -0.01833,0.03055 -0.04277,0.06416 -0.02444,0.03666 -0.04583,0.07638 -0.02139,0.03972 -0.02444,0.0886 -0.0061,0.06111 -0.03666,0.109991 -0.0275,0.04888 -0.06416,0.09471 -0.03361,0.04888 -0.06416,0.100825 -0.0275,0.05499 -0.03666,0.122212 -0.0061,0.05194 -0.02444,0.10388 -0.01528,0.05499 -0.04277,0.100825 -0.0275,0.04583 -0.06722,0.07944 -0.03972,0.03361 -0.09471,0.04277 -0.01528,0.09166 -0.07638,0.180262 -0.05805,0.0886 -0.143599,0.15582 -0.08555,0.07027 -0.183318,0.109991 -0.09777,0.04277 -0.192484,0.04277 -0.07638,0 -0.149709,-0.02139 -0.07027,-0.02139 -0.137489,-0.05499 -0.04583,-0.02139 -0.07333,-0.02444 -0.0275,-0.0031 -0.04888,-0.0061 -0.01833,-0.0031 -0.04277,-0.01833 -0.02139,-0.01528 -0.05805,-0.06111 -0.055,-0.07333 -0.119157,-0.137488 -0.06111,-0.06111 -0.125267,-0.122212 -0.03361,-0.03055 -0.04888,-0.07333 -0.01528,-0.04277 -0.0275,-0.08555 -0.01222,-0.04277 -0.03361,-0.08249 -0.01833,-0.03972 -0.06416,-0.06416 -0.01528,-0.01528 -0.01528,-0.055 0,-0.0275 0.02139,-0.113046 0.02139,-0.08555 0.055,-0.177208 0.03361,-0.0886 0.07333,-0.161931 0.04277,-0.07027 0.07944,-0.07027 0.02444,0 0.04583,0.0061 0.02139,0.0092 0.04583,0.0092 0.0611,0 0.119156,-0.03055 0.05805,-0.03055 0.122212,-0.03055 0.03972,0 0.05805,0.02139 0.02139,0.02139 0.03055,0.04889 0.0092,0.0275 0.01528,0.04888 0.0092,0.02139 0.03055,0.02139 0.01528,-0.0031 0.0275,-0.0092 0.03055,-0.01222 0.04888,-0.01222 0.03972,0 0.07333,0.01833 0.03361,0.02139 0.06111,0.05194 0.0275,0.03055 0.04888,0.06416 0.02444,0.03666 0.04277,0.06722 0.0092,0.01528 0.0275,0.03055 0.01833,0.01833 0.03666,0.03666 0.01833,0.01833 0.03055,0.03361 0.01222,0.01833 0.01222,0.03666 0,0.03361 -0.01833,0.06111 -0.01528,0.0275 -0.01528,0.055 0,0.03055 0.02444,0.04277 0.0275,0.01222 0.05194,0.01222 0.05805,0 0.113046,-0.04889 0.05805,-0.04583 0.109991,-0.122212 0.05194,-0.07638 0.09471,-0.171097 0.04583,-0.09166 0.07944,-0.186373 0.03361,-0.09166 0.05194,-0.174152 0.01833,-0.07944 0.01833,-0.128322 0,-0.05194 -0.02444,-0.143599 -0.02444,-0.09166 -0.06416,-0.20165 -0.03972,-0.109991 -0.0886,-0.232203 -0.04888,-0.122212 -0.09777,-0.235258 -0.04583,-0.113046 -0.08555,-0.20776 -0.03972,-0.09777 -0.06416,-0.158875 -0.04888,-0.116102 -0.0886,-0.238314 -0.03666,-0.122212 -0.08555,-0.238313 -0.0275,-0.06416 -0.07944,-0.146654 -0.04888,-0.08555 -0.100825,-0.174152 -0.04888,-0.09166 -0.0886,-0.177207 -0.03666,-0.0886 -0.03666,-0.155821 -0.02444,0 -0.055,-0.0092 -0.0275,-0.01222 -0.055,-0.02444 -0.0275,-0.01528 -0.05499,-0.02444 -0.02444,-0.01222 -0.04583,-0.01222 -0.06416,0 -0.131378,0.01833 -0.06722,0.01528 -0.134433,0.01528 -0.03666,0 -0.08555,-0.0061 -0.04888,-0.0092 -0.09471,-0.02444 -0.04277,-0.01833 -0.07638,-0.04889 -0.03055,-0.03055 -0.03055,-0.07638 0,-0.03361 0.0092,-0.07638 0.0092,-0.04277 0.02444,-0.07944 0.01833,-0.03972 0.04278,-0.06416 0.02444,-0.0275 0.055,-0.0275 0.04583,0 0.0886,0.03055 0.04277,0.0275 0.09166,0.0275 0.07027,0 0.137488,-0.0061 0.07027,-0.0061 0.140544,-0.0061 0.06111,0 0.119156,-0.03361 0.06111,-0.03361 0.113046,-0.06111 0.05805,-0.03055 0.164986,-0.03666 0.109991,-0.0092 0.219982,-0.0092 0.03972,0 0.125267,-0.0031 0.08555,-0.0061 0.171097,0.0061 0.0886,0.01222 0.152765,0.055 0.06722,0.03972 0.06722,0.128322 0,0.07638 -0.03361,0.128323 -0.03055,0.04889 -0.07944,0.08555 -0.04583,0.03666 -0.10388,0.06722 -0.055,0.0275 -0.10388,0.06111 -0.04583,0.03055 -0.07944,0.07333 -0.03055,0.04277 -0.03055,0.106935 0,0.100825 0.05805,0.216927 0.05805,0.113046 0.128322,0.226092 0.07027,0.10999 0.131378,0.210815 0.06111,0.100825 0.07027,0.174152 0.0031,0.03972 0.02139,0.113046 0.01833,0.07333 0.04888,0.146654 0.03361,0.07027 0.07638,0.125268 0.04583,0.05194 0.09777,0.05194 0.03666,0 0.06416,-0.03055 0.0275,-0.03055 0.04888,-0.07333 0.02139,-0.04278 0.03361,-0.08555 0.01528,-0.04583 0.02444,-0.07333 0.0275,-0.08555 0.04889,-0.171097 0.02444,-0.08555 0.07638,-0.158875 0.04277,-0.05499 0.06722,-0.113046 0.02444,-0.06111 0.05194,-0.125267 0.03055,-0.07638 0.06111,-0.119157 0.03361,-0.04277 0.05805,-0.08555 0.02444,-0.04277 0.03972,-0.10388 0.01833,-0.06111 0.01833,-0.177208 0,-0.07027 -0.03055,-0.10388 -0.03055,-0.03361 -0.07638,-0.05194 -0.04277,-0.01833 -0.09471,-0.03055 -0.05194,-0.01222 -0.09777,-0.03666 -0.04277,-0.0275 -0.07333,-0.07944 -0.03055,-0.05194 -0.03055,-0.146654 0,-0.07944 0.04889,-0.125268 0.04888,-0.04888 0.119157,-0.07027 0.07333,-0.02444 0.158875,-0.03055 0.08555,-0.0061 0.158876,-0.0061 h 0.106935 q 0.134433,0 0.262756,-0.01833 0.131377,-0.01833 0.262755,-0.01833 0.03972,0 0.116102,0.02139 0.07638,0.02139 0.152764,0.04889 0.07638,0.0275 0.128323,0.055 0.055,0.02444 0.05194,0.03361 0,-0.0031 0.01833,0.02444 0.02139,0.0275 0.02139,0.06416 z m -2.520621,3.571644 -0.04583,-0.0031 h -0.01833 q -0.05194,0 -0.08249,0.02444 -0.03055,0.0275 -0.03055,0.08249 l 0.0031,0.02444 q 0.0275,-0.0061 0.05805,-0.01222 0.03055,-0.0031 0.055,-0.01222 0.0275,-0.0092 0.04277,-0.0275 0.01833,-0.01833 0.01833,-0.05194 V 26.2956 Z"
         id="path4495" />
    </g>
  </g>
</svg>
