<?xml version="1.0" encoding="UTF-8" standalone="no"?>
<svg
   width="210mm"
   height="297mm"
   viewBox="0 0 210 297"
   version="1.1"
   id="svg4136"
   inkscape:version="1.2.2 (732a01da63, 2022-12-09)"
   sodipodi:docname="Module-RFID.svg"
   xmlns:inkscape="http://www.inkscape.org/namespaces/inkscape"
   xmlns:sodipodi="http://sodipodi.sourceforge.net/DTD/sodipodi-0.dtd"
   xmlns="http://www.w3.org/2000/svg"
   xmlns:svg="http://www.w3.org/2000/svg"
   xmlns:rdf="http://www.w3.org/1999/02/22-rdf-syntax-ns#"
   xmlns:cc="http://creativecommons.org/ns#"
   xmlns:dc="http://purl.org/dc/elements/1.1/">
  <defs
     id="defs4130" />
  <sodipodi:namedview
     id="base"
     pagecolor="#ffffff"
     bordercolor="#666666"
     borderopacity="1.0"
     inkscape:pageopacity="0.0"
     inkscape:pageshadow="2"
     inkscape:zoom="1.979899"
     inkscape:cx="227.53686"
     inkscape:cy="292.94424"
     inkscape:document-units="mm"
     inkscape:current-layer="layer1"
     inkscape:document-rotation="0"
     showgrid="true"
     inkscape:window-width="2560"
     inkscape:window-height="1369"
     inkscape:window-x="1912"
     inkscape:window-y="-8"
     inkscape:window-maximized="1"
     inkscape:showpageshadow="2"
     inkscape:pagecheckerboard="0"
     inkscape:deskcolor="#d1d1d1">
    <inkscape:grid
       type="xygrid"
       id="grid4744" />
  </sodipodi:namedview>
  <metadata
     id="metadata4133">
    <rdf:RDF>
      <cc:Work
         rdf:about="">
        <dc:format>image/svg+xml</dc:format>
        <dc:type
           rdf:resource="http://purl.org/dc/dcmitype/StillImage" />
      </cc:Work>
    </rdf:RDF>
  </metadata>
  <g
     inkscape:label="Layer 1"
     inkscape:groupmode="layer"
     id="layer1">
    <rect
       style="fill:none;stroke:#ff0000;stroke-width:0.102;stroke-miterlimit:4;stroke-dasharray:none;stroke-opacity:1"
       id="rect839"
       width="119.8979"
       height="119.89789"
       x="0.050999992"
       y="0.05099998"
       ry="5" />
    <rect
       style="fill:none;stroke:#ff0000;stroke-width:0.0373893;stroke-miterlimit:4;stroke-dasharray:none;stroke-opacity:1"
       id="rect839-1"
       width="57.421444"
       height="33.638874"
       x="31.28923"
       y="22.879047"
       ry="1.4028136" />
    <ellipse
       style="fill:none;stroke:#ff0000;stroke-width:0.065;stroke-miterlimit:4;stroke-dasharray:none;stroke-opacity:1"
       id="path861-8-9-2-73-3"
       cx="5.0000911"
       cy="5.000093"
       rx="1.6176471"
       ry="1.6176472" />
    <ellipse
       style="fill:none;stroke:#ff0000;stroke-width:0.065;stroke-miterlimit:4;stroke-dasharray:none;stroke-opacity:1"
       id="path861-8-9-2-73-3-8"
       cx="115.00009"
       cy="5.000093"
       rx="1.6176471"
       ry="1.6176472" />
    <ellipse
       style="fill:none;stroke:#ff0000;stroke-width:0.065;stroke-miterlimit:4;stroke-dasharray:none;stroke-opacity:1"
       id="path861-8-9-2-73-3-6"
       cx="5.0000911"
       cy="115.0001"
       rx="1.6176471"
       ry="1.6176472" />
    <ellipse
       style="fill:none;stroke:#ff0000;stroke-width:0.065;stroke-miterlimit:4;stroke-dasharray:none;stroke-opacity:1"
       id="path861-8-9-2-73-3-2"
       cx="115.00009"
       cy="115.0001"
       rx="1.6176471"
       ry="1.6176472" />
    <circle
       style="fill:none;stroke:#ff0000;stroke-width:0.0630247;stroke-miterlimit:4;stroke-dasharray:none;stroke-opacity:1"
       id="path861-8-9-2-73-3-1"
       cx="15"
       cy="15"
       r="1.5684876" />
    <circle
       style="fill:none;stroke:#ff0000;stroke-width:0.0630247;stroke-miterlimit:4;stroke-dasharray:none;stroke-opacity:1"
       id="path861-8-9-2-73-3-1-6"
       cx="105"
       cy="15"
       r="1.5684876" />
    <circle
       style="fill:none;stroke:#ff0000;stroke-width:0.0630247;stroke-miterlimit:4;stroke-dasharray:none;stroke-opacity:1"
       id="path861-8-9-2-73-3-1-7"
       cx="105"
       cy="105"
       r="1.5684876" />
    <ellipse
       style="fill:none;stroke:#ff0000;stroke-width:0.065;stroke-miterlimit:4;stroke-dasharray:none;stroke-opacity:1"
       id="path861-8-9-2-73-3-1-8"
       cx="15.050147"
       cy="105.05015"
       rx="1.6176471"
       ry="1.6176472" />
    <circle
       style="fill:none;stroke:#ff0000;stroke-width:0.098476;stroke-miterlimit:4;stroke-dasharray:none;stroke-opacity:1"
       id="path861-8-9-2-73-3-1-6-5"
       cx="95"
       cy="15"
       r="2.450762" />
    <rect
       style="fill:none;fill-rule:evenodd;stroke:#00ff00;stroke-width:0.0397466;stroke-miterlimit:4;stroke-dasharray:none;stroke-opacity:1"
       id="rect5984"
       width="79.960258"
       height="35.960255"
       x="20.019873"
       y="73.519875" />
    <g
       id="g514"
       transform="translate(-11.471242,-18.492667)">
      <g
         id="g480"
         transform="translate(31.07058,11.541005)">
        <ellipse
           style="fill:none;stroke:#ff0000;stroke-width:0.065;stroke-miterlimit:4;stroke-dasharray:none;stroke-opacity:1"
           id="path861-8-9-2-73-3-1-8-0"
           cx="21.650146"
           cy="46.650146"
           rx="1.6176471"
           ry="1.6176472" />
        <ellipse
           style="fill:none;stroke:#ff0000;stroke-width:0.065;stroke-miterlimit:4;stroke-dasharray:none;stroke-opacity:1"
           id="path861-8-9-2-73-3-1-8-0-3"
           cx="59.150146"
           cy="46.650146"
           rx="1.6176471"
           ry="1.6176472" />
      </g>
      <rect
         style="fill:none;fill-rule:evenodd;stroke:#00ff00;stroke-width:0.0311085;stroke-miterlimit:4;stroke-dasharray:none;stroke-opacity:1"
         id="rect5984-1"
         width="41.968891"
         height="41.968891"
         x="70.700348"
         y="-30.374523"
         transform="rotate(45)" />
    </g>
    <rect
       style="fill:none;fill-rule:evenodd;stroke:#ff0000;stroke-width:0.0226289;stroke-miterlimit:4;stroke-dasharray:none;stroke-opacity:1"
       id="rect5984-2"
       width="64.377365"
       height="14.477371"
       x="27.811314"
       y="84.261314" />
    <circle
       style="fill:none;stroke:#ff0000;stroke-width:0.0832947;stroke-miterlimit:4;stroke-dasharray:none;stroke-opacity:1"
       id="path6008"
       cx="22.5"
       cy="76"
       r="1.5583526" />
    <circle
       style="fill:none;stroke:#ff0000;stroke-width:0.0832947;stroke-miterlimit:4;stroke-dasharray:none;stroke-opacity:1"
       id="path6008-6"
       cx="97.5"
       cy="76"
       r="1.5583526" />
    <circle
       style="fill:none;stroke:#ff0000;stroke-width:0.0832947;stroke-miterlimit:4;stroke-dasharray:none;stroke-opacity:1"
       id="path6008-2"
       cx="22.5"
       cy="107"
       r="1.5583526" />
    <circle
       style="fill:none;stroke:#ff0000;stroke-width:0.0832947;stroke-miterlimit:4;stroke-dasharray:none;stroke-opacity:1"
       id="path6008-6-0"
       cx="97.5"
       cy="107"
       r="1.5583526" />
    <path
       d="M 70.071519,52.224395 C 69.860836,52.11734 69.59371,51.904459 69.477901,51.751334 69.362096,51.5982 69.222381,51.303898 69.167429,51.097321 c -0.05495,-0.206577 -0.07315,-0.487434 -0.04042,-0.624127 0.03272,-0.136693 0.230498,-0.65227 0.439501,-1.145725 0.209005,-0.493457 0.562578,-1.464173 0.785717,-2.157147 0.223135,-0.692973 0.507127,-1.740321 0.631091,-2.32744 0.123964,-0.58712 0.290843,-1.582403 0.37084,-2.211742 0.09151,-0.719871 0.145457,-1.805617 0.145457,-2.927472 0,-1.109317 -0.05402,-2.207953 -0.142947,-2.907111 -0.07862,-0.618141 -0.223718,-1.520895 -0.322445,-2.006122 -0.09872,-0.485226 -0.303125,-1.323576 -0.454227,-1.863 -0.151101,-0.539423 -0.540937,-1.642792 -0.866301,-2.451927 -0.438231,-1.089814 -0.590605,-1.577241 -0.587839,-1.880419 0.0023,-0.264905 0.07529,-0.525036 0.206586,-0.737487 0.11157,-0.180522 0.342372,-0.43464 0.512897,-0.564705 0.219112,-0.167125 0.450769,-0.248151 0.789879,-0.276273 0.263907,-0.02189 0.583006,-0.0139 0.709104,0.01775 0.126096,0.03165 0.385009,0.198248 0.575367,0.370223 0.25097,0.226736 0.459028,0.570545 0.756965,1.250844 0.225976,0.51599 0.568372,1.394947 0.760878,1.953238 0.192503,0.55829 0.489085,1.569198 0.659061,2.246461 0.169979,0.677262 0.39202,1.732917 0.493426,2.345899 0.101406,0.612981 0.225093,1.59598 0.274863,2.184442 0.04977,0.588463 0.09049,1.631647 0.09049,2.318186 0,0.686539 -0.04072,1.729722 -0.09049,2.318184 -0.04977,0.588462 -0.173114,1.571462 -0.274098,2.184444 -0.100982,0.612981 -0.336717,1.716349 -0.523853,2.451926 -0.187135,0.735578 -0.52896,1.859006 -0.759607,2.496507 -0.230651,0.637502 -0.58571,1.499168 -0.789023,1.9148 -0.250044,0.511178 -0.478295,0.841153 -0.705384,1.01976 -0.263512,0.207264 -0.445698,0.271121 -0.847028,0.296907 -0.395413,0.0254 -0.598133,-0.01128 -0.894368,-0.161801 z m -5.600055,-2.4035 c -0.15225,-0.04675 -0.459962,-0.280802 -0.683809,-0.520111 -0.321677,-0.343898 -0.420421,-0.52464 -0.471039,-0.8622 -0.05506,-0.367131 -0.02349,-0.522087 0.224786,-1.103727 0.158862,-0.372149 0.463458,-1.180218 0.676881,-1.795708 0.213424,-0.615491 0.488984,-1.618552 0.612358,-2.229024 0.123371,-0.610472 0.269313,-1.685039 0.324312,-2.387923 0.07404,-0.946266 0.0739,-1.594252 -6.6e-4,-2.496507 -0.0553,-0.670194 -0.199759,-1.710699 -0.321023,-2.312234 -0.121261,-0.601535 -0.345226,-1.483135 -0.497692,-1.959111 -0.152469,-0.475976 -0.42958,-1.216704 -0.615802,-1.646059 -0.186222,-0.429355 -0.366105,-0.905944 -0.39974,-1.059084 -0.03367,-0.153314 -0.01163,-0.455373 0.04909,-0.672174 0.06747,-0.240987 0.246007,-0.529502 0.460206,-0.743701 0.19248,-0.192481 0.492748,-0.397089 0.667263,-0.454684 0.174515,-0.05759 0.497624,-0.08439 0.718017,-0.05955 0.239917,0.02704 0.548738,0.148793 0.769585,0.303406 0.257276,0.180115 0.456607,0.434694 0.658879,0.841504 0.159506,0.320796 0.451956,1.013017 0.649892,1.538271 0.197932,0.525253 0.495299,1.485066 0.660809,2.132916 0.165512,0.647851 0.373725,1.639318 0.462699,2.203261 0.124749,0.790685 0.288518,1.302389 0.286409,2.986892 -0.0023,1.862622 -0.160271,2.583879 -0.334854,3.605607 -0.11261,0.659045 -0.337713,1.682166 -0.500229,2.273605 -0.162515,0.591439 -0.459733,1.496628 -0.660483,2.011533 -0.200746,0.514905 -0.475828,1.155482 -0.611289,1.423506 -0.156925,0.310487 -0.380913,0.581931 -0.617292,0.748064 -0.257559,0.181016 -0.502419,0.269537 -0.800784,0.289492 -0.236382,0.01581 -0.554352,-0.0095 -0.706599,-0.05626 z m -6.053615,-3.198178 c -0.147115,-0.037 -0.355729,-0.114687 -0.463588,-0.17264 -0.10786,-0.05795 -1.090859,-0.79587 -2.184444,-1.639813 -1.093584,-0.843943 -2.790782,-2.154161 -3.771554,-2.911595 -0.98077,-0.757435 -2.11035,-1.591261 -2.510177,-1.852948 -0.399828,-0.261687 -0.791022,-0.475794 -0.869319,-0.475794 -0.117347,0 -0.142237,0.113575 -0.141654,0.646416 3.71e-4,0.35553 0.100695,1.126993 0.222902,1.714363 0.122208,0.587372 0.222196,1.34706 0.222196,1.688199 0,0.44653 -0.05209,0.72785 -0.185975,1.004424 -0.102285,0.211294 -0.304776,0.468765 -0.449979,0.572159 -0.145203,0.103394 -0.415683,0.208333 -0.601066,0.233198 -0.235544,0.0316 -0.445845,-0.01029 -0.698254,-0.139058 -0.198657,-0.101348 -0.525232,-0.370625 -0.725723,-0.598395 -0.200491,-0.227769 -0.445117,-0.629517 -0.543614,-0.892772 -0.0985,-0.263256 -0.269147,-0.891055 -0.379223,-1.39511 -0.174028,-0.796902 -0.295429,-1.20421 -0.293831,-2.909848 0.0016,-1.695038 0.124695,-2.056893 0.298504,-2.865888 0.110624,-0.514905 0.301489,-1.156745 0.424144,-1.426313 0.122655,-0.269567 0.310966,-0.584328 0.418469,-0.699469 0.107503,-0.115141 0.303805,-0.265718 0.436225,-0.334616 0.132422,-0.0689 0.357526,-0.12527 0.500234,-0.12527 0.142708,0 0.4112,0.102967 0.59665,0.228817 0.18545,0.12585 1.404753,1.060559 2.709561,2.077131 1.304809,1.016571 3.335318,2.591822 4.512241,3.500556 1.176924,0.908733 2.267363,1.744815 2.423199,1.85796 0.155836,0.113145 0.341263,0.183489 0.41206,0.156322 0.07716,-0.02961 0.167183,-0.275507 0.224726,-0.613845 0.0528,-0.310448 0.11807,-0.79158 0.145042,-1.069184 0.02696,-0.277603 0.0073,-0.911733 -0.04378,-1.409175 -0.05105,-0.497444 -0.189089,-1.273374 -0.306758,-1.72429 -0.117669,-0.450917 -0.338465,-1.120713 -0.490662,-1.488436 -0.152197,-0.367724 -0.320377,-0.929438 -0.373732,-1.248254 -0.07264,-0.434043 -0.07026,-0.676661 0.0094,-0.965764 0.05855,-0.212354 0.236933,-0.528468 0.396398,-0.702476 0.24264,-0.264764 0.365229,-0.32361 0.751469,-0.360723 0.270688,-0.02601 0.57319,0.0019 0.73156,0.0675 0.148516,0.06152 0.469351,0.329938 0.712965,0.596491 0.243615,0.266554 0.58023,0.773963 0.748032,1.127577 0.167806,0.353613 0.445132,1.063221 0.616284,1.576905 0.171152,0.513686 0.385182,1.275014 0.475626,1.691841 0.128284,0.591225 0.259971,1.140169 0.259971,2.496507 0,1.357877 -0.131602,1.904612 -0.26025,2.496507 -0.0906,0.416827 -0.264164,1.074056 -0.385701,1.46051 -0.121538,0.386452 -0.360161,1.008059 -0.530276,1.381346 -0.170113,0.373289 -0.397414,0.773196 -0.505119,0.888683 -0.1077,0.115488 -0.297481,0.282853 -0.421731,0.371925 -0.124254,0.08907 -0.364986,0.182571 -0.534966,0.207777 -0.169979,0.02521 -0.429421,0.01556 -0.576536,-0.02144 z"
       id="path3055"
       style="fill:#ff0000;fill-opacity:1;stroke:#ff0000;stroke-width:0.0891606;stroke-opacity:1" />
  </g>
</svg>
