%TF.GenerationSoftware,KiCad,Pcbnew,9.0.6*%
%TF.CreationDate,2026-02-24T20:37:47+00:00*%
%TF.ProjectId,Audio,41756469-6f2e-46b6-9963-61645f706362,rev?*%
%TF.SameCoordinates,Original*%
%TF.FileFunction,Copper,L4,Bot*%
%TF.FilePolarity,Positive*%
%FSLAX46Y46*%
G04 Gerber Fmt 4.6, Leading zero omitted, Abs format (unit mm)*
G04 Created by KiCad (PCBNEW 9.0.6) date 2026-02-24 20:37:47*
%MOMM*%
%LPD*%
G01*
G04 APERTURE LIST*
G04 Aperture macros list*
%AMRoundRect*
0 Rectangle with rounded corners*
0 $1 Rounding radius*
0 $2 $3 $4 $5 $6 $7 $8 $9 X,Y pos of 4 corners*
0 Add a 4 corners polygon primitive as box body*
4,1,4,$2,$3,$4,$5,$6,$7,$8,$9,$2,$3,0*
0 Add four circle primitives for the rounded corners*
1,1,$1+$1,$2,$3*
1,1,$1+$1,$4,$5*
1,1,$1+$1,$6,$7*
1,1,$1+$1,$8,$9*
0 Add four rect primitives between the rounded corners*
20,1,$1+$1,$2,$3,$4,$5,0*
20,1,$1+$1,$4,$5,$6,$7,0*
20,1,$1+$1,$6,$7,$8,$9,0*
20,1,$1+$1,$8,$9,$2,$3,0*%
G04 Aperture macros list end*
%TA.AperFunction,ComponentPad*%
%ADD10C,1.400000*%
%TD*%
%TA.AperFunction,ComponentPad*%
%ADD11RoundRect,0.770000X0.980000X-0.980000X0.980000X0.980000X-0.980000X0.980000X-0.980000X-0.980000X0*%
%TD*%
%TA.AperFunction,ComponentPad*%
%ADD12C,3.500000*%
%TD*%
%TA.AperFunction,ComponentPad*%
%ADD13R,1.700000X1.700000*%
%TD*%
%TA.AperFunction,ComponentPad*%
%ADD14O,1.700000X1.700000*%
%TD*%
%TA.AperFunction,ViaPad*%
%ADD15C,0.600000*%
%TD*%
%TA.AperFunction,ViaPad*%
%ADD16C,0.800000*%
%TD*%
%TA.AperFunction,Conductor*%
%ADD17C,0.400000*%
%TD*%
%TA.AperFunction,Conductor*%
%ADD18C,0.300000*%
%TD*%
G04 APERTURE END LIST*
D10*
%TO.P,J3,*%
%TO.N,*%
X60325000Y-38417500D03*
X60325000Y-27417500D03*
D11*
%TO.P,J3,1,Pin_1*%
%TO.N,GND*%
X70325000Y-30417500D03*
D12*
%TO.P,J3,2,Pin_2*%
%TO.N,VBUS*%
X70325000Y-35417500D03*
%TD*%
D13*
%TO.P,J2,1,SPI-CIPO*%
%TO.N,HOST-SPI-CIPO*%
X45270000Y-61890000D03*
D14*
%TO.P,J2,2,I7*%
%TO.N,unconnected-(J2-I7-Pad2)*%
X42730000Y-61890000D03*
%TO.P,J2,3,SPI-CLK*%
%TO.N,HOST-SPI-CLK*%
X45270000Y-59350000D03*
%TO.P,J2,4,I6*%
%TO.N,unconnected-(J2-I6-Pad4)*%
X42730000Y-59350000D03*
%TO.P,J2,5,SPI-COPI*%
%TO.N,HOST-SPI-COPI*%
X45270000Y-56810000D03*
%TO.P,J2,6,I5*%
%TO.N,unconnected-(J2-I5-Pad6)*%
X42730000Y-56810000D03*
%TO.P,J2,7,SDA*%
%TO.N,unconnected-(J2-SDA-Pad7)*%
X45270000Y-54270000D03*
%TO.P,J2,8,I4*%
%TO.N,~{HOST-INT}*%
X42730000Y-54270000D03*
%TO.P,J2,9,SCL*%
%TO.N,unconnected-(J2-SCL-Pad9)*%
X45270000Y-51730000D03*
%TO.P,J2,10,I3*%
%TO.N,~{HOST-SPI-CS}*%
X42730000Y-51730000D03*
%TO.P,J2,11,GND*%
%TO.N,GND*%
X45270000Y-49190000D03*
%TO.P,J2,12,I2*%
%TO.N,ESP32-EN*%
X42730000Y-49190000D03*
%TO.P,J2,13,5V*%
%TO.N,unconnected-(J2-5V-Pad13)*%
X45270000Y-46650000D03*
%TO.P,J2,14,I1*%
%TO.N,unconnected-(J2-I1-Pad14)*%
X42730000Y-46650000D03*
%TO.P,J2,15,3V3*%
%TO.N,+3.3V*%
X45270000Y-44110000D03*
%TO.P,J2,16,I0*%
%TO.N,unconnected-(J2-I0-Pad16)*%
X42730000Y-44110000D03*
%TD*%
D15*
%TO.N,GND*%
X99935000Y-68655000D03*
X99935000Y-61035000D03*
X93950000Y-51150000D03*
X82250000Y-52450000D03*
X89775000Y-73735000D03*
X64375000Y-66115000D03*
X110095000Y-71195000D03*
X99935000Y-38175000D03*
X41515000Y-63575000D03*
X115175000Y-50875000D03*
X88500000Y-30500000D03*
X66555800Y-60150000D03*
X88500000Y-73000000D03*
X94855000Y-28015000D03*
X70358000Y-47752000D03*
X54215000Y-73735000D03*
X64855800Y-58450000D03*
X53300000Y-56550000D03*
X117715000Y-55955000D03*
X88500000Y-32100000D03*
X48425000Y-56550000D03*
X61835000Y-28015000D03*
X82250000Y-51150000D03*
X59295000Y-71195000D03*
X91700000Y-28100000D03*
X92650000Y-52450000D03*
X88500000Y-28900000D03*
X91700000Y-71400000D03*
X107555000Y-66115000D03*
X86150000Y-52450000D03*
X71995000Y-38175000D03*
X64855800Y-61850000D03*
X105015000Y-73735000D03*
X59295000Y-40715000D03*
X87450000Y-49850000D03*
X91700000Y-72200000D03*
X59295000Y-50875000D03*
X55850000Y-43100000D03*
X93950000Y-49850000D03*
X60200000Y-43050000D03*
X91700000Y-73000000D03*
X88750000Y-52450000D03*
X84850000Y-51150000D03*
X63155800Y-58450000D03*
X49135000Y-35635000D03*
X91700000Y-69800000D03*
X83550000Y-48550000D03*
X49135000Y-71195000D03*
X87450000Y-48550000D03*
X51675000Y-63575000D03*
X105015000Y-28015000D03*
X86150000Y-51150000D03*
X87235000Y-28015000D03*
X91700000Y-69000000D03*
X71995000Y-73735000D03*
X90050000Y-49850000D03*
X84695000Y-71195000D03*
X87450000Y-52450000D03*
X88500000Y-71400000D03*
X92650000Y-49850000D03*
X92315000Y-40715000D03*
X44055000Y-40715000D03*
X91700000Y-70600000D03*
X64375000Y-35635000D03*
X117715000Y-63575000D03*
X94855000Y-66115000D03*
X59295000Y-33095000D03*
X84850000Y-48550000D03*
X77724000Y-47244000D03*
X63155800Y-61850000D03*
X93950000Y-52450000D03*
X83550000Y-49850000D03*
X63155800Y-60150000D03*
X82250000Y-48550000D03*
X87235000Y-35635000D03*
X97395000Y-73735000D03*
X56755000Y-66115000D03*
X54215000Y-30555000D03*
X88750000Y-48550000D03*
X94855000Y-58495000D03*
X92650000Y-48550000D03*
X46595000Y-66115000D03*
X93950000Y-48550000D03*
X90050000Y-51150000D03*
X74535000Y-43255000D03*
X88500000Y-28100000D03*
X91350000Y-48550000D03*
X77075000Y-68655000D03*
X48500000Y-55250000D03*
X82155000Y-33095000D03*
X99935000Y-30555000D03*
X54215000Y-38175000D03*
X88500000Y-69800000D03*
X90050000Y-52450000D03*
X53300000Y-55250000D03*
X49135000Y-50875000D03*
X112635000Y-45795000D03*
X117715000Y-38175000D03*
X97395000Y-48335000D03*
X69455000Y-58495000D03*
X79615000Y-73735000D03*
X105015000Y-48335000D03*
X82250000Y-49850000D03*
X77075000Y-55955000D03*
X77724000Y-44196000D03*
X84850000Y-52450000D03*
X49135000Y-28015000D03*
X94855000Y-35635000D03*
X87235000Y-43255000D03*
X99935000Y-53415000D03*
X66915000Y-40715000D03*
X84695000Y-63575000D03*
X88500000Y-31300000D03*
X89775000Y-61035000D03*
X64855800Y-60150000D03*
X91700000Y-29700000D03*
X87450000Y-51150000D03*
X92650000Y-51150000D03*
X91350000Y-52450000D03*
X83550000Y-52450000D03*
X91700000Y-31300000D03*
X107555000Y-53415000D03*
X86150000Y-49850000D03*
X88500000Y-69000000D03*
X88750000Y-49850000D03*
X88750000Y-51150000D03*
X112635000Y-35635000D03*
X83550000Y-51150000D03*
X79615000Y-61035000D03*
X91350000Y-49850000D03*
X79615000Y-38175000D03*
X88500000Y-29700000D03*
X49135000Y-43255000D03*
X90050000Y-48550000D03*
X88500000Y-72200000D03*
X66915000Y-53415000D03*
X66555800Y-61850000D03*
X91700000Y-30500000D03*
X79615000Y-28015000D03*
X88500000Y-70600000D03*
X91350000Y-51150000D03*
X86150000Y-48550000D03*
X110095000Y-58495000D03*
X66555800Y-58450000D03*
X64375000Y-73735000D03*
X51025000Y-55250000D03*
X51025000Y-56550000D03*
X41515000Y-35635000D03*
X107555000Y-43255000D03*
X84850000Y-49850000D03*
X69455000Y-68655000D03*
X61835000Y-45795000D03*
X107555000Y-33095000D03*
X66915000Y-30555000D03*
X91700000Y-32100000D03*
X91700000Y-28900000D03*
X54215000Y-45795000D03*
X61835000Y-55955000D03*
X71995000Y-28015000D03*
X74535000Y-50875000D03*
X56755000Y-58495000D03*
%TO.N,+3.3V*%
X85425000Y-57050000D03*
X81150000Y-42550000D03*
X66421000Y-43053000D03*
X78390000Y-62484000D03*
X68600000Y-44600000D03*
X76866000Y-61722000D03*
D16*
X53340000Y-48006000D03*
D15*
%TO.N,BOOT0*%
X69469000Y-50419000D03*
X72009000Y-50419000D03*
%TO.N,PVDD*%
X74100000Y-40117500D03*
X91700000Y-65900000D03*
X88500000Y-65900000D03*
X75700000Y-39317500D03*
X74100000Y-40917500D03*
X74900000Y-40917500D03*
X88500000Y-37600000D03*
X91700000Y-35200000D03*
X74900000Y-40117500D03*
X91700000Y-63500000D03*
X91700000Y-65100000D03*
X91700000Y-36800000D03*
X88500000Y-38400000D03*
X88500000Y-36000000D03*
X91700000Y-37600000D03*
X91700000Y-64300000D03*
X74100000Y-39317500D03*
X75700000Y-40117500D03*
X88500000Y-65100000D03*
X75700000Y-40917500D03*
X88500000Y-39200000D03*
X88500000Y-36800000D03*
X88500000Y-61900000D03*
X88500000Y-64300000D03*
X88500000Y-35200000D03*
X88500000Y-63500000D03*
X74900000Y-39317500D03*
X88500000Y-62700000D03*
X91700000Y-36000000D03*
%TO.N,ESP32-PROG-TX*%
X73914000Y-55372000D03*
X70358000Y-55372000D03*
%TO.N,/SDIN*%
X56750000Y-62992000D03*
X74500000Y-63000000D03*
%TO.N,/AUDIO_PVDD_ON*%
X68750000Y-48768000D03*
X74041000Y-48768000D03*
%TD*%
D17*
%TO.N,BOOT0*%
X69469000Y-50419000D02*
X72009000Y-50419000D01*
%TO.N,ESP32-PROG-TX*%
X73914000Y-55372000D02*
X70358000Y-55372000D01*
D18*
%TO.N,/SDIN*%
X56750000Y-62992000D02*
X74500000Y-63000000D01*
D17*
%TO.N,/AUDIO_PVDD_ON*%
X68750000Y-48768000D02*
X74041000Y-48768000D01*
%TD*%
%TA.AperFunction,Conductor*%
%TO.N,GND*%
G36*
X112532240Y-26001127D02*
G01*
X112534196Y-26000576D01*
X112561161Y-26010524D01*
X112588500Y-26019407D01*
X112589694Y-26021050D01*
X112591600Y-26021754D01*
X112607562Y-26045643D01*
X112624464Y-26068907D01*
X112624464Y-26070939D01*
X112625592Y-26072628D01*
X112624464Y-26101338D01*
X112624464Y-26130093D01*
X112623269Y-26131736D01*
X112623190Y-26133766D01*
X112605399Y-26156332D01*
X112588500Y-26179593D01*
X112585339Y-26181795D01*
X112561070Y-26198012D01*
X112554385Y-26202479D01*
X112242957Y-26458061D01*
X111958061Y-26742957D01*
X111702477Y-27054387D01*
X111478639Y-27389381D01*
X111288731Y-27744677D01*
X111288718Y-27744704D01*
X111134539Y-28116925D01*
X111017590Y-28502453D01*
X110938989Y-28897609D01*
X110899500Y-29298547D01*
X110899500Y-29701452D01*
X110938989Y-30102390D01*
X111017590Y-30497546D01*
X111134539Y-30883074D01*
X111288718Y-31255295D01*
X111288731Y-31255322D01*
X111478639Y-31610618D01*
X111520177Y-31672783D01*
X111702476Y-31945611D01*
X111958066Y-32257048D01*
X112242952Y-32541934D01*
X112554389Y-32797524D01*
X112721884Y-32909441D01*
X112889381Y-33021360D01*
X113244677Y-33211268D01*
X113244696Y-33211278D01*
X113616917Y-33365457D01*
X113616919Y-33365457D01*
X113616925Y-33365460D01*
X114002453Y-33482409D01*
X114002457Y-33482409D01*
X114002458Y-33482410D01*
X114397606Y-33561010D01*
X114442155Y-33565397D01*
X114798547Y-33600500D01*
X114798555Y-33600500D01*
X115201453Y-33600500D01*
X115468744Y-33574173D01*
X115602394Y-33561010D01*
X115997542Y-33482410D01*
X115997543Y-33482409D01*
X115997546Y-33482409D01*
X116383074Y-33365460D01*
X116383076Y-33365458D01*
X116383083Y-33365457D01*
X116755304Y-33211278D01*
X116928930Y-33118473D01*
X117110618Y-33021360D01*
X117110621Y-33021358D01*
X117445611Y-32797524D01*
X117757048Y-32541934D01*
X118041934Y-32257048D01*
X118297524Y-31945611D01*
X118318185Y-31914688D01*
X118366234Y-31876810D01*
X118427372Y-31874408D01*
X118478246Y-31908400D01*
X118499424Y-31965804D01*
X118499500Y-31969691D01*
X118499500Y-69030308D01*
X118480593Y-69088499D01*
X118431093Y-69124463D01*
X118369907Y-69124463D01*
X118320407Y-69088499D01*
X118318185Y-69085310D01*
X118314385Y-69079623D01*
X118297524Y-69054389D01*
X118041934Y-68742952D01*
X117757048Y-68458066D01*
X117445611Y-68202476D01*
X117361863Y-68146517D01*
X117110618Y-67978639D01*
X116755322Y-67788731D01*
X116755310Y-67788725D01*
X116755304Y-67788722D01*
X116755299Y-67788719D01*
X116755295Y-67788718D01*
X116383074Y-67634539D01*
X115997546Y-67517590D01*
X115679682Y-67454363D01*
X115602394Y-67438990D01*
X115602392Y-67438989D01*
X115201453Y-67399500D01*
X115201445Y-67399500D01*
X114798555Y-67399500D01*
X114798547Y-67399500D01*
X114397609Y-67438989D01*
X114002453Y-67517590D01*
X113616925Y-67634539D01*
X113244704Y-67788718D01*
X113244677Y-67788731D01*
X112889381Y-67978639D01*
X112554387Y-68202477D01*
X112242957Y-68458061D01*
X111958061Y-68742957D01*
X111702477Y-69054387D01*
X111478639Y-69389381D01*
X111288731Y-69744677D01*
X111288718Y-69744704D01*
X111134539Y-70116925D01*
X111017590Y-70502453D01*
X110938989Y-70897609D01*
X110899500Y-71298547D01*
X110899500Y-71701452D01*
X110938989Y-72102390D01*
X111017590Y-72497546D01*
X111134539Y-72883074D01*
X111288718Y-73255295D01*
X111288731Y-73255322D01*
X111478639Y-73610618D01*
X111646517Y-73861863D01*
X111702476Y-73945611D01*
X111958066Y-74257048D01*
X112242952Y-74541934D01*
X112554389Y-74797524D01*
X112585311Y-74818185D01*
X112623190Y-74866234D01*
X112625592Y-74927372D01*
X112591600Y-74978246D01*
X112534196Y-74999424D01*
X112530309Y-74999500D01*
X45469691Y-74999500D01*
X45411500Y-74980593D01*
X45375536Y-74931093D01*
X45375536Y-74869907D01*
X45411500Y-74820407D01*
X45414660Y-74818204D01*
X45445611Y-74797524D01*
X45757048Y-74541934D01*
X46041934Y-74257048D01*
X46297524Y-73945611D01*
X46521358Y-73610621D01*
X46711278Y-73255304D01*
X46865457Y-72883083D01*
X46982410Y-72497542D01*
X47061010Y-72102394D01*
X47075370Y-71956594D01*
X47100500Y-71701452D01*
X47100500Y-71298547D01*
X47061010Y-70897609D01*
X47061010Y-70897606D01*
X46982410Y-70502458D01*
X46982409Y-70502457D01*
X46982409Y-70502453D01*
X46865460Y-70116925D01*
X46711281Y-69744704D01*
X46711278Y-69744696D01*
X46711268Y-69744677D01*
X46521360Y-69389381D01*
X46409441Y-69221884D01*
X46297524Y-69054389D01*
X46041934Y-68742952D01*
X45757048Y-68458066D01*
X45445611Y-68202476D01*
X45361863Y-68146517D01*
X45110618Y-67978639D01*
X44755322Y-67788731D01*
X44755310Y-67788725D01*
X44755304Y-67788722D01*
X44755299Y-67788719D01*
X44755295Y-67788718D01*
X44383074Y-67634539D01*
X43997546Y-67517590D01*
X43679682Y-67454363D01*
X43602394Y-67438990D01*
X43602392Y-67438989D01*
X43201453Y-67399500D01*
X43201445Y-67399500D01*
X42798555Y-67399500D01*
X42798547Y-67399500D01*
X42397609Y-67438989D01*
X42002453Y-67517590D01*
X41616925Y-67634539D01*
X41244704Y-67788718D01*
X41244677Y-67788731D01*
X40889381Y-67978639D01*
X40554387Y-68202477D01*
X40242957Y-68458061D01*
X39958061Y-68742957D01*
X39702477Y-69054387D01*
X39681815Y-69085310D01*
X39633765Y-69123189D01*
X39572626Y-69125591D01*
X39521753Y-69091597D01*
X39500576Y-69034194D01*
X39500500Y-69030308D01*
X39500500Y-61786532D01*
X41679500Y-61786532D01*
X41679500Y-61993467D01*
X41719869Y-62196418D01*
X41799058Y-62387597D01*
X41914020Y-62559651D01*
X41914023Y-62559655D01*
X42060345Y-62705977D01*
X42232402Y-62820941D01*
X42423580Y-62900130D01*
X42626535Y-62940500D01*
X42626536Y-62940500D01*
X42833464Y-62940500D01*
X42833465Y-62940500D01*
X43036420Y-62900130D01*
X43227598Y-62820941D01*
X43399655Y-62705977D01*
X43545977Y-62559655D01*
X43660941Y-62387598D01*
X43740130Y-62196420D01*
X43780500Y-61993465D01*
X43780500Y-61786535D01*
X43740130Y-61583580D01*
X43660941Y-61392402D01*
X43545977Y-61220345D01*
X43399655Y-61074023D01*
X43319182Y-61020253D01*
X44219500Y-61020253D01*
X44219500Y-62759746D01*
X44219501Y-62759758D01*
X44231132Y-62818227D01*
X44231134Y-62818233D01*
X44262128Y-62864618D01*
X44275448Y-62884552D01*
X44341769Y-62928867D01*
X44386231Y-62937711D01*
X44400241Y-62940498D01*
X44400246Y-62940498D01*
X44400252Y-62940500D01*
X44400253Y-62940500D01*
X46139747Y-62940500D01*
X46139748Y-62940500D01*
X46198231Y-62928867D01*
X46202360Y-62926108D01*
X56249500Y-62926108D01*
X56249500Y-63057892D01*
X56272826Y-63144947D01*
X56283609Y-63185190D01*
X56349496Y-63299309D01*
X56349498Y-63299311D01*
X56349500Y-63299314D01*
X56442686Y-63392500D01*
X56442688Y-63392501D01*
X56442690Y-63392503D01*
X56556810Y-63458390D01*
X56556808Y-63458390D01*
X56556812Y-63458391D01*
X56556814Y-63458392D01*
X56684108Y-63492500D01*
X56684110Y-63492500D01*
X56815890Y-63492500D01*
X56815892Y-63492500D01*
X56943186Y-63458392D01*
X56943188Y-63458390D01*
X56943190Y-63458390D01*
X57057310Y-63392503D01*
X57057311Y-63392501D01*
X57057314Y-63392500D01*
X57078138Y-63371675D01*
X57132653Y-63343897D01*
X57148180Y-63342678D01*
X74101545Y-63350320D01*
X74159726Y-63369254D01*
X74171496Y-63379310D01*
X74192686Y-63400500D01*
X74192688Y-63400501D01*
X74192690Y-63400503D01*
X74306810Y-63466390D01*
X74306808Y-63466390D01*
X74306812Y-63466391D01*
X74306814Y-63466392D01*
X74434108Y-63500500D01*
X74434110Y-63500500D01*
X74565890Y-63500500D01*
X74565892Y-63500500D01*
X74693186Y-63466392D01*
X74693188Y-63466390D01*
X74693190Y-63466390D01*
X74807309Y-63400503D01*
X74807309Y-63400502D01*
X74807314Y-63400500D01*
X74900500Y-63307314D01*
X74966392Y-63193186D01*
X75000500Y-63065892D01*
X75000500Y-62934108D01*
X74966392Y-62806814D01*
X74966390Y-62806811D01*
X74966390Y-62806809D01*
X74900503Y-62692690D01*
X74900501Y-62692688D01*
X74900500Y-62692686D01*
X74807314Y-62599500D01*
X74807311Y-62599498D01*
X74807309Y-62599496D01*
X74693189Y-62533609D01*
X74693191Y-62533609D01*
X74651724Y-62522498D01*
X74565892Y-62499500D01*
X74434108Y-62499500D01*
X74356200Y-62520375D01*
X74306809Y-62533609D01*
X74192685Y-62599499D01*
X74171860Y-62620325D01*
X74117343Y-62648101D01*
X74101813Y-62649320D01*
X57148454Y-62641678D01*
X57090272Y-62622744D01*
X57078501Y-62612687D01*
X57057314Y-62591500D01*
X57057311Y-62591498D01*
X57057309Y-62591496D01*
X56943189Y-62525609D01*
X56943191Y-62525609D01*
X56873045Y-62506814D01*
X56815892Y-62491500D01*
X56684108Y-62491500D01*
X56626955Y-62506814D01*
X56556809Y-62525609D01*
X56442690Y-62591496D01*
X56349496Y-62684690D01*
X56283609Y-62798809D01*
X56277679Y-62820941D01*
X56249500Y-62926108D01*
X46202360Y-62926108D01*
X46264552Y-62884552D01*
X46308867Y-62818231D01*
X46320500Y-62759748D01*
X46320500Y-62418108D01*
X77889500Y-62418108D01*
X77889500Y-62549892D01*
X77919579Y-62662151D01*
X77923609Y-62677190D01*
X77989496Y-62791309D01*
X77989498Y-62791311D01*
X77989500Y-62791314D01*
X78082686Y-62884500D01*
X78082688Y-62884501D01*
X78082690Y-62884503D01*
X78196810Y-62950390D01*
X78196808Y-62950390D01*
X78196812Y-62950391D01*
X78196814Y-62950392D01*
X78324108Y-62984500D01*
X78324110Y-62984500D01*
X78455890Y-62984500D01*
X78455892Y-62984500D01*
X78583186Y-62950392D01*
X78583188Y-62950390D01*
X78583190Y-62950390D01*
X78697309Y-62884503D01*
X78697309Y-62884502D01*
X78697314Y-62884500D01*
X78790500Y-62791314D01*
X78790503Y-62791309D01*
X78856390Y-62677190D01*
X78856390Y-62677188D01*
X78856392Y-62677186D01*
X78890500Y-62549892D01*
X78890500Y-62418108D01*
X78856392Y-62290814D01*
X78856390Y-62290811D01*
X78856390Y-62290809D01*
X78790503Y-62176690D01*
X78790501Y-62176688D01*
X78790500Y-62176686D01*
X78697314Y-62083500D01*
X78697311Y-62083498D01*
X78697309Y-62083496D01*
X78583189Y-62017609D01*
X78583191Y-62017609D01*
X78533799Y-62004375D01*
X78455892Y-61983500D01*
X78324108Y-61983500D01*
X78246200Y-62004375D01*
X78196809Y-62017609D01*
X78082690Y-62083496D01*
X77989496Y-62176690D01*
X77923609Y-62290809D01*
X77916997Y-62315487D01*
X77889500Y-62418108D01*
X46320500Y-62418108D01*
X46320500Y-61656108D01*
X76365500Y-61656108D01*
X76365500Y-61787892D01*
X76377884Y-61834109D01*
X76399609Y-61915190D01*
X76465496Y-62029309D01*
X76465498Y-62029311D01*
X76465500Y-62029314D01*
X76558686Y-62122500D01*
X76558688Y-62122501D01*
X76558690Y-62122503D01*
X76672810Y-62188390D01*
X76672808Y-62188390D01*
X76672812Y-62188391D01*
X76672814Y-62188392D01*
X76800108Y-62222500D01*
X76800110Y-62222500D01*
X76931890Y-62222500D01*
X76931892Y-62222500D01*
X77059186Y-62188392D01*
X77059188Y-62188390D01*
X77059190Y-62188390D01*
X77173309Y-62122503D01*
X77173309Y-62122502D01*
X77173314Y-62122500D01*
X77266500Y-62029314D01*
X77273258Y-62017609D01*
X77332390Y-61915190D01*
X77332390Y-61915188D01*
X77332392Y-61915186D01*
X77354117Y-61834108D01*
X87999500Y-61834108D01*
X87999500Y-61965892D01*
X88016494Y-62029314D01*
X88033609Y-62093190D01*
X88099496Y-62207309D01*
X88099501Y-62207315D01*
X88122183Y-62229998D01*
X88149959Y-62284515D01*
X88140387Y-62344947D01*
X88122183Y-62370002D01*
X88099501Y-62392684D01*
X88099496Y-62392690D01*
X88033609Y-62506809D01*
X88019449Y-62559655D01*
X87999500Y-62634108D01*
X87999500Y-62765892D01*
X88010464Y-62806809D01*
X88033609Y-62893190D01*
X88099496Y-63007309D01*
X88099501Y-63007315D01*
X88122183Y-63029998D01*
X88149959Y-63084515D01*
X88140387Y-63144947D01*
X88122183Y-63170002D01*
X88099501Y-63192684D01*
X88099496Y-63192690D01*
X88033609Y-63306809D01*
X88016877Y-63369254D01*
X87999500Y-63434108D01*
X87999500Y-63565892D01*
X88029579Y-63678151D01*
X88033609Y-63693190D01*
X88099496Y-63807309D01*
X88099501Y-63807315D01*
X88122183Y-63829998D01*
X88149959Y-63884515D01*
X88140387Y-63944947D01*
X88122183Y-63970002D01*
X88099501Y-63992684D01*
X88099496Y-63992690D01*
X88033609Y-64106809D01*
X88033608Y-64106814D01*
X87999500Y-64234108D01*
X87999500Y-64365892D01*
X88029579Y-64478151D01*
X88033609Y-64493190D01*
X88099496Y-64607309D01*
X88099501Y-64607315D01*
X88122183Y-64629998D01*
X88149959Y-64684515D01*
X88140387Y-64744947D01*
X88122183Y-64770002D01*
X88099501Y-64792684D01*
X88099496Y-64792690D01*
X88033609Y-64906809D01*
X88033608Y-64906814D01*
X87999500Y-65034108D01*
X87999500Y-65165892D01*
X88029579Y-65278151D01*
X88033609Y-65293190D01*
X88099496Y-65407309D01*
X88099501Y-65407315D01*
X88122183Y-65429998D01*
X88149959Y-65484515D01*
X88140387Y-65544947D01*
X88122183Y-65570002D01*
X88099501Y-65592684D01*
X88099496Y-65592690D01*
X88033609Y-65706809D01*
X88033608Y-65706814D01*
X87999500Y-65834108D01*
X87999500Y-65965892D01*
X88029579Y-66078151D01*
X88033609Y-66093190D01*
X88099496Y-66207309D01*
X88099498Y-66207311D01*
X88099500Y-66207314D01*
X88192686Y-66300500D01*
X88192688Y-66300501D01*
X88192690Y-66300503D01*
X88306810Y-66366390D01*
X88306808Y-66366390D01*
X88306812Y-66366391D01*
X88306814Y-66366392D01*
X88434108Y-66400500D01*
X88434110Y-66400500D01*
X88565890Y-66400500D01*
X88565892Y-66400500D01*
X88693186Y-66366392D01*
X88693188Y-66366390D01*
X88693190Y-66366390D01*
X88807309Y-66300503D01*
X88807309Y-66300502D01*
X88807314Y-66300500D01*
X88900500Y-66207314D01*
X88966392Y-66093186D01*
X89000500Y-65965892D01*
X89000500Y-65834108D01*
X88966392Y-65706814D01*
X88966390Y-65706811D01*
X88966390Y-65706809D01*
X88900503Y-65592690D01*
X88900501Y-65592688D01*
X88900500Y-65592686D01*
X88877815Y-65570001D01*
X88850040Y-65515487D01*
X88859611Y-65455055D01*
X88877816Y-65429998D01*
X88900500Y-65407314D01*
X88966392Y-65293186D01*
X89000500Y-65165892D01*
X89000500Y-65034108D01*
X88966392Y-64906814D01*
X88966390Y-64906811D01*
X88966390Y-64906809D01*
X88900503Y-64792690D01*
X88900501Y-64792688D01*
X88900500Y-64792686D01*
X88877815Y-64770001D01*
X88850040Y-64715487D01*
X88859611Y-64655055D01*
X88877816Y-64629998D01*
X88900500Y-64607314D01*
X88966392Y-64493186D01*
X89000500Y-64365892D01*
X89000500Y-64234108D01*
X88966392Y-64106814D01*
X88966390Y-64106811D01*
X88966390Y-64106809D01*
X88900503Y-63992690D01*
X88900501Y-63992688D01*
X88900500Y-63992686D01*
X88877815Y-63970001D01*
X88850040Y-63915487D01*
X88859611Y-63855055D01*
X88877816Y-63829998D01*
X88900500Y-63807314D01*
X88966392Y-63693186D01*
X89000500Y-63565892D01*
X89000500Y-63434108D01*
X91199500Y-63434108D01*
X91199500Y-63565892D01*
X91229579Y-63678151D01*
X91233609Y-63693190D01*
X91299496Y-63807309D01*
X91299501Y-63807315D01*
X91322183Y-63829998D01*
X91349959Y-63884515D01*
X91340387Y-63944947D01*
X91322183Y-63970002D01*
X91299501Y-63992684D01*
X91299496Y-63992690D01*
X91233609Y-64106809D01*
X91233608Y-64106814D01*
X91199500Y-64234108D01*
X91199500Y-64365892D01*
X91229579Y-64478151D01*
X91233609Y-64493190D01*
X91299496Y-64607309D01*
X91299501Y-64607315D01*
X91322183Y-64629998D01*
X91349959Y-64684515D01*
X91340387Y-64744947D01*
X91322183Y-64770002D01*
X91299501Y-64792684D01*
X91299496Y-64792690D01*
X91233609Y-64906809D01*
X91233608Y-64906814D01*
X91199500Y-65034108D01*
X91199500Y-65165892D01*
X91229579Y-65278151D01*
X91233609Y-65293190D01*
X91299496Y-65407309D01*
X91299501Y-65407315D01*
X91322183Y-65429998D01*
X91349959Y-65484515D01*
X91340387Y-65544947D01*
X91322183Y-65570002D01*
X91299501Y-65592684D01*
X91299496Y-65592690D01*
X91233609Y-65706809D01*
X91233608Y-65706814D01*
X91199500Y-65834108D01*
X91199500Y-65965892D01*
X91229579Y-66078151D01*
X91233609Y-66093190D01*
X91299496Y-66207309D01*
X91299498Y-66207311D01*
X91299500Y-66207314D01*
X91392686Y-66300500D01*
X91392688Y-66300501D01*
X91392690Y-66300503D01*
X91506810Y-66366390D01*
X91506808Y-66366390D01*
X91506812Y-66366391D01*
X91506814Y-66366392D01*
X91634108Y-66400500D01*
X91634110Y-66400500D01*
X91765890Y-66400500D01*
X91765892Y-66400500D01*
X91893186Y-66366392D01*
X91893188Y-66366390D01*
X91893190Y-66366390D01*
X92007309Y-66300503D01*
X92007309Y-66300502D01*
X92007314Y-66300500D01*
X92100500Y-66207314D01*
X92166392Y-66093186D01*
X92200500Y-65965892D01*
X92200500Y-65834108D01*
X92166392Y-65706814D01*
X92166390Y-65706811D01*
X92166390Y-65706809D01*
X92100503Y-65592690D01*
X92100501Y-65592688D01*
X92100500Y-65592686D01*
X92077815Y-65570001D01*
X92050040Y-65515487D01*
X92059611Y-65455055D01*
X92077816Y-65429998D01*
X92100500Y-65407314D01*
X92166392Y-65293186D01*
X92200500Y-65165892D01*
X92200500Y-65034108D01*
X92166392Y-64906814D01*
X92166390Y-64906811D01*
X92166390Y-64906809D01*
X92100503Y-64792690D01*
X92100501Y-64792688D01*
X92100500Y-64792686D01*
X92077815Y-64770001D01*
X92050040Y-64715487D01*
X92059611Y-64655055D01*
X92077816Y-64629998D01*
X92100500Y-64607314D01*
X92166392Y-64493186D01*
X92200500Y-64365892D01*
X92200500Y-64234108D01*
X92166392Y-64106814D01*
X92166390Y-64106811D01*
X92166390Y-64106809D01*
X92100503Y-63992690D01*
X92100501Y-63992688D01*
X92100500Y-63992686D01*
X92077815Y-63970001D01*
X92050040Y-63915487D01*
X92059611Y-63855055D01*
X92077816Y-63829998D01*
X92100500Y-63807314D01*
X92166392Y-63693186D01*
X92200500Y-63565892D01*
X92200500Y-63434108D01*
X92166392Y-63306814D01*
X92166390Y-63306811D01*
X92166390Y-63306809D01*
X92100503Y-63192690D01*
X92100501Y-63192688D01*
X92100500Y-63192686D01*
X92007314Y-63099500D01*
X92007311Y-63099498D01*
X92007309Y-63099496D01*
X91893189Y-63033609D01*
X91893191Y-63033609D01*
X91843799Y-63020375D01*
X91765892Y-62999500D01*
X91634108Y-62999500D01*
X91556200Y-63020375D01*
X91506809Y-63033609D01*
X91392690Y-63099496D01*
X91299496Y-63192690D01*
X91233609Y-63306809D01*
X91216877Y-63369254D01*
X91199500Y-63434108D01*
X89000500Y-63434108D01*
X88966392Y-63306814D01*
X88966390Y-63306811D01*
X88966390Y-63306809D01*
X88900503Y-63192690D01*
X88900501Y-63192688D01*
X88900500Y-63192686D01*
X88877815Y-63170001D01*
X88850040Y-63115487D01*
X88859611Y-63055055D01*
X88877816Y-63029998D01*
X88900500Y-63007314D01*
X88900503Y-63007309D01*
X88966390Y-62893190D01*
X88966390Y-62893188D01*
X88966392Y-62893186D01*
X89000500Y-62765892D01*
X89000500Y-62634108D01*
X88966392Y-62506814D01*
X88966390Y-62506811D01*
X88966390Y-62506809D01*
X88900503Y-62392690D01*
X88900501Y-62392688D01*
X88900500Y-62392686D01*
X88877815Y-62370001D01*
X88850040Y-62315487D01*
X88859611Y-62255055D01*
X88877816Y-62229998D01*
X88900500Y-62207314D01*
X88966392Y-62093186D01*
X89000500Y-61965892D01*
X89000500Y-61834108D01*
X88966392Y-61706814D01*
X88966390Y-61706811D01*
X88966390Y-61706809D01*
X88900503Y-61592690D01*
X88900501Y-61592688D01*
X88900500Y-61592686D01*
X88807314Y-61499500D01*
X88807311Y-61499498D01*
X88807309Y-61499496D01*
X88693189Y-61433609D01*
X88693191Y-61433609D01*
X88622567Y-61414686D01*
X88565892Y-61399500D01*
X88434108Y-61399500D01*
X88377433Y-61414686D01*
X88306809Y-61433609D01*
X88192690Y-61499496D01*
X88099496Y-61592690D01*
X88033609Y-61706809D01*
X88033608Y-61706814D01*
X87999500Y-61834108D01*
X77354117Y-61834108D01*
X77366500Y-61787892D01*
X77366500Y-61656108D01*
X77332392Y-61528814D01*
X77332390Y-61528811D01*
X77332390Y-61528809D01*
X77266503Y-61414690D01*
X77266501Y-61414688D01*
X77266500Y-61414686D01*
X77173314Y-61321500D01*
X77173311Y-61321498D01*
X77173309Y-61321496D01*
X77059189Y-61255609D01*
X77059191Y-61255609D01*
X77009799Y-61242375D01*
X76931892Y-61221500D01*
X76800108Y-61221500D01*
X76722200Y-61242375D01*
X76672809Y-61255609D01*
X76558690Y-61321496D01*
X76465496Y-61414690D01*
X76399609Y-61528809D01*
X76399608Y-61528814D01*
X76365500Y-61656108D01*
X46320500Y-61656108D01*
X46320500Y-61020252D01*
X46308867Y-60961769D01*
X46264552Y-60895448D01*
X46264548Y-60895445D01*
X46198233Y-60851134D01*
X46198231Y-60851133D01*
X46198228Y-60851132D01*
X46198227Y-60851132D01*
X46139758Y-60839501D01*
X46139748Y-60839500D01*
X44400252Y-60839500D01*
X44400251Y-60839500D01*
X44400241Y-60839501D01*
X44341772Y-60851132D01*
X44341766Y-60851134D01*
X44275451Y-60895445D01*
X44275445Y-60895451D01*
X44231134Y-60961766D01*
X44231132Y-60961772D01*
X44219501Y-61020241D01*
X44219500Y-61020253D01*
X43319182Y-61020253D01*
X43227597Y-60959058D01*
X43036418Y-60879869D01*
X42833467Y-60839500D01*
X42833465Y-60839500D01*
X42626535Y-60839500D01*
X42626532Y-60839500D01*
X42423581Y-60879869D01*
X42232402Y-60959058D01*
X42060348Y-61074020D01*
X41914020Y-61220348D01*
X41799058Y-61392402D01*
X41719869Y-61583581D01*
X41679500Y-61786532D01*
X39500500Y-61786532D01*
X39500500Y-59246532D01*
X41679500Y-59246532D01*
X41679500Y-59453467D01*
X41719869Y-59656418D01*
X41799058Y-59847597D01*
X41799059Y-59847598D01*
X41914023Y-60019655D01*
X42060345Y-60165977D01*
X42232402Y-60280941D01*
X42423580Y-60360130D01*
X42626535Y-60400500D01*
X42626536Y-60400500D01*
X42833464Y-60400500D01*
X42833465Y-60400500D01*
X43036420Y-60360130D01*
X43227598Y-60280941D01*
X43399655Y-60165977D01*
X43545977Y-60019655D01*
X43660941Y-59847598D01*
X43740130Y-59656420D01*
X43780500Y-59453465D01*
X43780500Y-59246535D01*
X43780499Y-59246532D01*
X44219500Y-59246532D01*
X44219500Y-59453467D01*
X44259869Y-59656418D01*
X44339058Y-59847597D01*
X44339059Y-59847598D01*
X44454023Y-60019655D01*
X44600345Y-60165977D01*
X44772402Y-60280941D01*
X44963580Y-60360130D01*
X45166535Y-60400500D01*
X45166536Y-60400500D01*
X45373464Y-60400500D01*
X45373465Y-60400500D01*
X45576420Y-60360130D01*
X45767598Y-60280941D01*
X45939655Y-60165977D01*
X46085977Y-60019655D01*
X46200941Y-59847598D01*
X46280130Y-59656420D01*
X46320500Y-59453465D01*
X46320500Y-59246535D01*
X46280130Y-59043580D01*
X46200941Y-58852402D01*
X46085977Y-58680345D01*
X45939655Y-58534023D01*
X45767598Y-58419059D01*
X45767599Y-58419059D01*
X45767597Y-58419058D01*
X45576418Y-58339869D01*
X45373467Y-58299500D01*
X45373465Y-58299500D01*
X45166535Y-58299500D01*
X45166532Y-58299500D01*
X44963581Y-58339869D01*
X44772402Y-58419058D01*
X44600348Y-58534020D01*
X44454020Y-58680348D01*
X44339058Y-58852402D01*
X44259869Y-59043581D01*
X44219500Y-59246532D01*
X43780499Y-59246532D01*
X43740130Y-59043580D01*
X43660941Y-58852402D01*
X43545977Y-58680345D01*
X43399655Y-58534023D01*
X43227598Y-58419059D01*
X43227599Y-58419059D01*
X43227597Y-58419058D01*
X43036418Y-58339869D01*
X42833467Y-58299500D01*
X42833465Y-58299500D01*
X42626535Y-58299500D01*
X42626532Y-58299500D01*
X42423581Y-58339869D01*
X42232402Y-58419058D01*
X42060348Y-58534020D01*
X41914020Y-58680348D01*
X41799058Y-58852402D01*
X41719869Y-59043581D01*
X41679500Y-59246532D01*
X39500500Y-59246532D01*
X39500500Y-56706532D01*
X41679500Y-56706532D01*
X41679500Y-56913467D01*
X41719869Y-57116418D01*
X41799058Y-57307597D01*
X41832278Y-57357314D01*
X41914023Y-57479655D01*
X42060345Y-57625977D01*
X42232402Y-57740941D01*
X42423580Y-57820130D01*
X42626535Y-57860500D01*
X42626536Y-57860500D01*
X42833464Y-57860500D01*
X42833465Y-57860500D01*
X43036420Y-57820130D01*
X43227598Y-57740941D01*
X43399655Y-57625977D01*
X43545977Y-57479655D01*
X43660941Y-57307598D01*
X43740130Y-57116420D01*
X43780500Y-56913465D01*
X43780500Y-56706535D01*
X43780499Y-56706532D01*
X44219500Y-56706532D01*
X44219500Y-56913467D01*
X44259869Y-57116418D01*
X44339058Y-57307597D01*
X44372278Y-57357314D01*
X44454023Y-57479655D01*
X44600345Y-57625977D01*
X44772402Y-57740941D01*
X44963580Y-57820130D01*
X45166535Y-57860500D01*
X45166536Y-57860500D01*
X45373464Y-57860500D01*
X45373465Y-57860500D01*
X45576420Y-57820130D01*
X45767598Y-57740941D01*
X45939655Y-57625977D01*
X46085977Y-57479655D01*
X46200941Y-57307598D01*
X46280130Y-57116420D01*
X46306448Y-56984108D01*
X84924500Y-56984108D01*
X84924500Y-57115892D01*
X84954579Y-57228151D01*
X84958609Y-57243190D01*
X85024496Y-57357309D01*
X85024498Y-57357311D01*
X85024500Y-57357314D01*
X85117686Y-57450500D01*
X85117688Y-57450501D01*
X85117690Y-57450503D01*
X85231810Y-57516390D01*
X85231808Y-57516390D01*
X85231812Y-57516391D01*
X85231814Y-57516392D01*
X85359108Y-57550500D01*
X85359110Y-57550500D01*
X85490890Y-57550500D01*
X85490892Y-57550500D01*
X85618186Y-57516392D01*
X85618188Y-57516390D01*
X85618190Y-57516390D01*
X85732309Y-57450503D01*
X85732309Y-57450502D01*
X85732314Y-57450500D01*
X85825500Y-57357314D01*
X85891392Y-57243186D01*
X85925500Y-57115892D01*
X85925500Y-56984108D01*
X85891392Y-56856814D01*
X85891390Y-56856811D01*
X85891390Y-56856809D01*
X85825503Y-56742690D01*
X85825501Y-56742688D01*
X85825500Y-56742686D01*
X85732314Y-56649500D01*
X85732311Y-56649498D01*
X85732309Y-56649496D01*
X85618189Y-56583609D01*
X85618191Y-56583609D01*
X85568799Y-56570375D01*
X85490892Y-56549500D01*
X85359108Y-56549500D01*
X85281200Y-56570375D01*
X85231809Y-56583609D01*
X85117690Y-56649496D01*
X85024496Y-56742690D01*
X84958609Y-56856809D01*
X84943428Y-56913467D01*
X84924500Y-56984108D01*
X46306448Y-56984108D01*
X46320500Y-56913465D01*
X46320500Y-56706535D01*
X46280130Y-56503580D01*
X46200941Y-56312402D01*
X46085977Y-56140345D01*
X45939655Y-55994023D01*
X45767598Y-55879059D01*
X45767599Y-55879059D01*
X45767597Y-55879058D01*
X45576418Y-55799869D01*
X45373467Y-55759500D01*
X45373465Y-55759500D01*
X45166535Y-55759500D01*
X45166532Y-55759500D01*
X44963581Y-55799869D01*
X44772402Y-55879058D01*
X44600348Y-55994020D01*
X44454020Y-56140348D01*
X44339058Y-56312402D01*
X44259869Y-56503581D01*
X44219500Y-56706532D01*
X43780499Y-56706532D01*
X43740130Y-56503580D01*
X43660941Y-56312402D01*
X43545977Y-56140345D01*
X43399655Y-55994023D01*
X43227598Y-55879059D01*
X43227599Y-55879059D01*
X43227597Y-55879058D01*
X43036418Y-55799869D01*
X42833467Y-55759500D01*
X42833465Y-55759500D01*
X42626535Y-55759500D01*
X42626532Y-55759500D01*
X42423581Y-55799869D01*
X42232402Y-55879058D01*
X42060348Y-55994020D01*
X41914020Y-56140348D01*
X41799058Y-56312402D01*
X41719869Y-56503581D01*
X41679500Y-56706532D01*
X39500500Y-56706532D01*
X39500500Y-54166532D01*
X41679500Y-54166532D01*
X41679500Y-54373467D01*
X41719869Y-54576418D01*
X41799058Y-54767597D01*
X41891274Y-54905609D01*
X41914023Y-54939655D01*
X42060345Y-55085977D01*
X42232402Y-55200941D01*
X42423580Y-55280130D01*
X42626535Y-55320500D01*
X42626536Y-55320500D01*
X42833464Y-55320500D01*
X42833465Y-55320500D01*
X43036420Y-55280130D01*
X43227598Y-55200941D01*
X43399655Y-55085977D01*
X43545977Y-54939655D01*
X43660941Y-54767598D01*
X43740130Y-54576420D01*
X43780500Y-54373465D01*
X43780500Y-54166535D01*
X43780499Y-54166532D01*
X44219500Y-54166532D01*
X44219500Y-54373467D01*
X44259869Y-54576418D01*
X44339058Y-54767597D01*
X44431274Y-54905609D01*
X44454023Y-54939655D01*
X44600345Y-55085977D01*
X44772402Y-55200941D01*
X44963580Y-55280130D01*
X45166535Y-55320500D01*
X45166536Y-55320500D01*
X45373464Y-55320500D01*
X45373465Y-55320500D01*
X45445819Y-55306108D01*
X69857500Y-55306108D01*
X69857500Y-55437892D01*
X69887579Y-55550151D01*
X69891609Y-55565190D01*
X69957496Y-55679309D01*
X69957498Y-55679311D01*
X69957500Y-55679314D01*
X70050686Y-55772500D01*
X70050688Y-55772501D01*
X70050690Y-55772503D01*
X70164810Y-55838390D01*
X70164808Y-55838390D01*
X70164812Y-55838391D01*
X70164814Y-55838392D01*
X70292108Y-55872500D01*
X70292110Y-55872500D01*
X70423890Y-55872500D01*
X70423892Y-55872500D01*
X70551186Y-55838392D01*
X70642341Y-55785763D01*
X70691840Y-55772500D01*
X73580160Y-55772500D01*
X73629658Y-55785763D01*
X73720814Y-55838392D01*
X73848108Y-55872500D01*
X73848110Y-55872500D01*
X73979890Y-55872500D01*
X73979892Y-55872500D01*
X74107186Y-55838392D01*
X74107188Y-55838390D01*
X74107190Y-55838390D01*
X74221309Y-55772503D01*
X74221309Y-55772502D01*
X74221314Y-55772500D01*
X74314500Y-55679314D01*
X74380392Y-55565186D01*
X74414500Y-55437892D01*
X74414500Y-55306108D01*
X74380392Y-55178814D01*
X74380390Y-55178811D01*
X74380390Y-55178809D01*
X74314503Y-55064690D01*
X74314501Y-55064688D01*
X74314500Y-55064686D01*
X74221314Y-54971500D01*
X74221311Y-54971498D01*
X74221309Y-54971496D01*
X74107189Y-54905609D01*
X74107191Y-54905609D01*
X74057799Y-54892375D01*
X73979892Y-54871500D01*
X73848108Y-54871500D01*
X73720814Y-54905608D01*
X73720813Y-54905608D01*
X73720811Y-54905609D01*
X73672750Y-54933357D01*
X73629658Y-54958236D01*
X73580160Y-54971500D01*
X70691840Y-54971500D01*
X70642341Y-54958236D01*
X70551186Y-54905608D01*
X70423892Y-54871500D01*
X70292108Y-54871500D01*
X70214200Y-54892375D01*
X70164809Y-54905609D01*
X70050690Y-54971496D01*
X69957496Y-55064690D01*
X69891609Y-55178809D01*
X69891608Y-55178814D01*
X69857500Y-55306108D01*
X45445819Y-55306108D01*
X45576420Y-55280130D01*
X45767598Y-55200941D01*
X45939655Y-55085977D01*
X46085977Y-54939655D01*
X46200941Y-54767598D01*
X46280130Y-54576420D01*
X46320500Y-54373465D01*
X46320500Y-54166535D01*
X46280130Y-53963580D01*
X46200941Y-53772402D01*
X46085977Y-53600345D01*
X45939655Y-53454023D01*
X45767598Y-53339059D01*
X45767599Y-53339059D01*
X45767597Y-53339058D01*
X45576418Y-53259869D01*
X45373467Y-53219500D01*
X45373465Y-53219500D01*
X45166535Y-53219500D01*
X45166532Y-53219500D01*
X44963581Y-53259869D01*
X44772402Y-53339058D01*
X44600348Y-53454020D01*
X44454020Y-53600348D01*
X44339058Y-53772402D01*
X44259869Y-53963581D01*
X44219500Y-54166532D01*
X43780499Y-54166532D01*
X43740130Y-53963580D01*
X43660941Y-53772402D01*
X43545977Y-53600345D01*
X43399655Y-53454023D01*
X43227598Y-53339059D01*
X43227599Y-53339059D01*
X43227597Y-53339058D01*
X43036418Y-53259869D01*
X42833467Y-53219500D01*
X42833465Y-53219500D01*
X42626535Y-53219500D01*
X42626532Y-53219500D01*
X42423581Y-53259869D01*
X42232402Y-53339058D01*
X42060348Y-53454020D01*
X41914020Y-53600348D01*
X41799058Y-53772402D01*
X41719869Y-53963581D01*
X41679500Y-54166532D01*
X39500500Y-54166532D01*
X39500500Y-51626532D01*
X41679500Y-51626532D01*
X41679500Y-51833467D01*
X41719869Y-52036418D01*
X41799058Y-52227597D01*
X41799059Y-52227598D01*
X41914023Y-52399655D01*
X42060345Y-52545977D01*
X42232402Y-52660941D01*
X42423580Y-52740130D01*
X42626535Y-52780500D01*
X42626536Y-52780500D01*
X42833464Y-52780500D01*
X42833465Y-52780500D01*
X43036420Y-52740130D01*
X43227598Y-52660941D01*
X43399655Y-52545977D01*
X43545977Y-52399655D01*
X43660941Y-52227598D01*
X43740130Y-52036420D01*
X43780500Y-51833465D01*
X43780500Y-51626535D01*
X43780499Y-51626532D01*
X44219500Y-51626532D01*
X44219500Y-51833467D01*
X44259869Y-52036418D01*
X44339058Y-52227597D01*
X44339059Y-52227598D01*
X44454023Y-52399655D01*
X44600345Y-52545977D01*
X44772402Y-52660941D01*
X44963580Y-52740130D01*
X45166535Y-52780500D01*
X45166536Y-52780500D01*
X45373464Y-52780500D01*
X45373465Y-52780500D01*
X45576420Y-52740130D01*
X45767598Y-52660941D01*
X45939655Y-52545977D01*
X46085977Y-52399655D01*
X46200941Y-52227598D01*
X46280130Y-52036420D01*
X46320500Y-51833465D01*
X46320500Y-51626535D01*
X46280130Y-51423580D01*
X46200941Y-51232402D01*
X46085977Y-51060345D01*
X45939655Y-50914023D01*
X45939651Y-50914020D01*
X45767597Y-50799058D01*
X45576418Y-50719869D01*
X45373467Y-50679500D01*
X45373465Y-50679500D01*
X45166535Y-50679500D01*
X45166532Y-50679500D01*
X44963581Y-50719869D01*
X44772402Y-50799058D01*
X44600348Y-50914020D01*
X44454020Y-51060348D01*
X44339058Y-51232402D01*
X44259869Y-51423581D01*
X44219500Y-51626532D01*
X43780499Y-51626532D01*
X43740130Y-51423580D01*
X43660941Y-51232402D01*
X43545977Y-51060345D01*
X43399655Y-50914023D01*
X43399651Y-50914020D01*
X43227597Y-50799058D01*
X43036418Y-50719869D01*
X42833467Y-50679500D01*
X42833465Y-50679500D01*
X42626535Y-50679500D01*
X42626532Y-50679500D01*
X42423581Y-50719869D01*
X42232402Y-50799058D01*
X42060348Y-50914020D01*
X41914020Y-51060348D01*
X41799058Y-51232402D01*
X41719869Y-51423581D01*
X41679500Y-51626532D01*
X39500500Y-51626532D01*
X39500500Y-50353108D01*
X68968500Y-50353108D01*
X68968500Y-50484892D01*
X68998579Y-50597151D01*
X69002609Y-50612190D01*
X69068496Y-50726309D01*
X69068498Y-50726311D01*
X69068500Y-50726314D01*
X69161686Y-50819500D01*
X69161688Y-50819501D01*
X69161690Y-50819503D01*
X69275810Y-50885390D01*
X69275808Y-50885390D01*
X69275812Y-50885391D01*
X69275814Y-50885392D01*
X69403108Y-50919500D01*
X69403110Y-50919500D01*
X69534890Y-50919500D01*
X69534892Y-50919500D01*
X69662186Y-50885392D01*
X69753341Y-50832763D01*
X69802840Y-50819500D01*
X71675160Y-50819500D01*
X71724658Y-50832763D01*
X71815814Y-50885392D01*
X71943108Y-50919500D01*
X71943110Y-50919500D01*
X72074890Y-50919500D01*
X72074892Y-50919500D01*
X72202186Y-50885392D01*
X72202188Y-50885390D01*
X72202190Y-50885390D01*
X72316309Y-50819503D01*
X72316309Y-50819502D01*
X72316314Y-50819500D01*
X72409500Y-50726314D01*
X72409503Y-50726309D01*
X72475390Y-50612190D01*
X72475390Y-50612188D01*
X72475392Y-50612186D01*
X72509500Y-50484892D01*
X72509500Y-50353108D01*
X72475392Y-50225814D01*
X72475390Y-50225811D01*
X72475390Y-50225809D01*
X72409503Y-50111690D01*
X72409501Y-50111688D01*
X72409500Y-50111686D01*
X72316314Y-50018500D01*
X72316311Y-50018498D01*
X72316309Y-50018496D01*
X72202189Y-49952609D01*
X72202191Y-49952609D01*
X72152799Y-49939375D01*
X72074892Y-49918500D01*
X71943108Y-49918500D01*
X71815814Y-49952608D01*
X71815813Y-49952608D01*
X71815811Y-49952609D01*
X71767750Y-49980357D01*
X71724658Y-50005236D01*
X71675160Y-50018500D01*
X69802840Y-50018500D01*
X69753341Y-50005236D01*
X69662186Y-49952608D01*
X69534892Y-49918500D01*
X69403108Y-49918500D01*
X69325200Y-49939375D01*
X69275809Y-49952609D01*
X69161690Y-50018496D01*
X69068496Y-50111690D01*
X69002609Y-50225809D01*
X68983539Y-50296978D01*
X68968500Y-50353108D01*
X39500500Y-50353108D01*
X39500500Y-49086532D01*
X41679500Y-49086532D01*
X41679500Y-49293467D01*
X41719869Y-49496418D01*
X41799058Y-49687597D01*
X41799059Y-49687598D01*
X41914023Y-49859655D01*
X42060345Y-50005977D01*
X42232402Y-50120941D01*
X42423580Y-50200130D01*
X42626535Y-50240500D01*
X42626536Y-50240500D01*
X42833464Y-50240500D01*
X42833465Y-50240500D01*
X43036420Y-50200130D01*
X43227598Y-50120941D01*
X43399655Y-50005977D01*
X43545977Y-49859655D01*
X43660941Y-49687598D01*
X43740130Y-49496420D01*
X43780500Y-49293465D01*
X43780500Y-49086535D01*
X43755567Y-48961190D01*
X43751352Y-48940000D01*
X44195886Y-48940000D01*
X44836988Y-48940000D01*
X44804075Y-48997007D01*
X44770000Y-49124174D01*
X44770000Y-49255826D01*
X44804075Y-49382993D01*
X44836988Y-49440000D01*
X44195886Y-49440000D01*
X44197086Y-49447586D01*
X44250588Y-49612248D01*
X44329195Y-49766524D01*
X44329197Y-49766528D01*
X44430962Y-49906596D01*
X44553403Y-50029037D01*
X44693471Y-50130802D01*
X44693475Y-50130804D01*
X44847751Y-50209411D01*
X45012413Y-50262913D01*
X45020000Y-50264114D01*
X45020000Y-49623012D01*
X45077007Y-49655925D01*
X45204174Y-49690000D01*
X45335826Y-49690000D01*
X45462993Y-49655925D01*
X45520000Y-49623012D01*
X45520000Y-50264114D01*
X45527586Y-50262913D01*
X45559745Y-50252464D01*
X45559746Y-50252463D01*
X45692246Y-50209412D01*
X45846524Y-50130804D01*
X45846528Y-50130802D01*
X45986596Y-50029037D01*
X46109037Y-49906596D01*
X46210802Y-49766528D01*
X46210804Y-49766524D01*
X46289411Y-49612248D01*
X46342913Y-49447586D01*
X46344114Y-49440000D01*
X45703012Y-49440000D01*
X45735925Y-49382993D01*
X45770000Y-49255826D01*
X45770000Y-49124174D01*
X45735925Y-48997007D01*
X45703012Y-48940000D01*
X46344114Y-48940000D01*
X46342913Y-48932413D01*
X46289411Y-48767751D01*
X46255964Y-48702108D01*
X68249500Y-48702108D01*
X68249500Y-48833892D01*
X68262814Y-48883580D01*
X68283609Y-48961190D01*
X68349496Y-49075309D01*
X68349498Y-49075311D01*
X68349500Y-49075314D01*
X68442686Y-49168500D01*
X68442688Y-49168501D01*
X68442690Y-49168503D01*
X68556810Y-49234390D01*
X68556808Y-49234390D01*
X68556812Y-49234391D01*
X68556814Y-49234392D01*
X68684108Y-49268500D01*
X68684110Y-49268500D01*
X68815890Y-49268500D01*
X68815892Y-49268500D01*
X68943186Y-49234392D01*
X69034341Y-49181763D01*
X69083840Y-49168500D01*
X73707160Y-49168500D01*
X73756658Y-49181763D01*
X73847814Y-49234392D01*
X73975108Y-49268500D01*
X73975110Y-49268500D01*
X74106890Y-49268500D01*
X74106892Y-49268500D01*
X74234186Y-49234392D01*
X74234188Y-49234390D01*
X74234190Y-49234390D01*
X74348309Y-49168503D01*
X74348309Y-49168502D01*
X74348314Y-49168500D01*
X74441500Y-49075314D01*
X74507392Y-48961186D01*
X74541500Y-48833892D01*
X74541500Y-48702108D01*
X74507392Y-48574814D01*
X74507390Y-48574811D01*
X74507390Y-48574809D01*
X74441503Y-48460690D01*
X74441501Y-48460688D01*
X74441500Y-48460686D01*
X74348314Y-48367500D01*
X74348311Y-48367498D01*
X74348309Y-48367496D01*
X74234189Y-48301609D01*
X74234191Y-48301609D01*
X74184799Y-48288375D01*
X74106892Y-48267500D01*
X73975108Y-48267500D01*
X73847814Y-48301608D01*
X73847813Y-48301608D01*
X73847811Y-48301609D01*
X73799750Y-48329357D01*
X73756658Y-48354236D01*
X73707160Y-48367500D01*
X69083840Y-48367500D01*
X69034341Y-48354236D01*
X68943186Y-48301608D01*
X68815892Y-48267500D01*
X68684108Y-48267500D01*
X68606200Y-48288375D01*
X68556809Y-48301609D01*
X68442690Y-48367496D01*
X68349496Y-48460690D01*
X68283609Y-48574809D01*
X68275118Y-48606500D01*
X68249500Y-48702108D01*
X46255964Y-48702108D01*
X46210804Y-48613475D01*
X46210802Y-48613471D01*
X46109037Y-48473403D01*
X45986596Y-48350962D01*
X45846528Y-48249197D01*
X45846524Y-48249195D01*
X45692248Y-48170588D01*
X45527586Y-48117086D01*
X45520000Y-48115884D01*
X45520000Y-48756988D01*
X45462993Y-48724075D01*
X45335826Y-48690000D01*
X45204174Y-48690000D01*
X45077007Y-48724075D01*
X45020000Y-48756988D01*
X45020000Y-48115884D01*
X45012413Y-48117086D01*
X44847751Y-48170588D01*
X44693475Y-48249195D01*
X44693471Y-48249197D01*
X44553403Y-48350962D01*
X44430962Y-48473403D01*
X44329197Y-48613471D01*
X44329195Y-48613475D01*
X44250588Y-48767751D01*
X44197086Y-48932413D01*
X44195886Y-48940000D01*
X43751352Y-48940000D01*
X43740130Y-48883581D01*
X43739886Y-48882993D01*
X43660941Y-48692402D01*
X43545977Y-48520345D01*
X43399655Y-48374023D01*
X43389887Y-48367496D01*
X43227597Y-48259058D01*
X43036418Y-48179869D01*
X42833467Y-48139500D01*
X42833465Y-48139500D01*
X42626535Y-48139500D01*
X42626532Y-48139500D01*
X42423581Y-48179869D01*
X42232402Y-48259058D01*
X42060348Y-48374020D01*
X41914020Y-48520348D01*
X41799058Y-48692402D01*
X41719869Y-48883581D01*
X41679500Y-49086532D01*
X39500500Y-49086532D01*
X39500500Y-47926943D01*
X52739500Y-47926943D01*
X52739500Y-48085057D01*
X52780423Y-48237784D01*
X52859480Y-48374716D01*
X52971284Y-48486520D01*
X53108216Y-48565577D01*
X53260943Y-48606500D01*
X53260945Y-48606500D01*
X53419055Y-48606500D01*
X53419057Y-48606500D01*
X53571784Y-48565577D01*
X53708716Y-48486520D01*
X53820520Y-48374716D01*
X53899577Y-48237784D01*
X53940500Y-48085057D01*
X53940500Y-47926943D01*
X53899577Y-47774216D01*
X53820520Y-47637284D01*
X53708716Y-47525480D01*
X53571784Y-47446423D01*
X53419057Y-47405500D01*
X53260943Y-47405500D01*
X53108216Y-47446423D01*
X52971284Y-47525480D01*
X52859480Y-47637284D01*
X52780423Y-47774216D01*
X52739500Y-47926943D01*
X39500500Y-47926943D01*
X39500500Y-46546532D01*
X41679500Y-46546532D01*
X41679500Y-46753467D01*
X41719869Y-46956418D01*
X41799058Y-47147597D01*
X41914020Y-47319651D01*
X41914023Y-47319655D01*
X42060345Y-47465977D01*
X42232402Y-47580941D01*
X42423580Y-47660130D01*
X42626535Y-47700500D01*
X42626536Y-47700500D01*
X42833464Y-47700500D01*
X42833465Y-47700500D01*
X43036420Y-47660130D01*
X43227598Y-47580941D01*
X43399655Y-47465977D01*
X43545977Y-47319655D01*
X43660941Y-47147598D01*
X43740130Y-46956420D01*
X43780500Y-46753465D01*
X43780500Y-46546535D01*
X43780499Y-46546532D01*
X44219500Y-46546532D01*
X44219500Y-46753467D01*
X44259869Y-46956418D01*
X44339058Y-47147597D01*
X44454020Y-47319651D01*
X44454023Y-47319655D01*
X44600345Y-47465977D01*
X44772402Y-47580941D01*
X44963580Y-47660130D01*
X45166535Y-47700500D01*
X45166536Y-47700500D01*
X45373464Y-47700500D01*
X45373465Y-47700500D01*
X45576420Y-47660130D01*
X45767598Y-47580941D01*
X45939655Y-47465977D01*
X46085977Y-47319655D01*
X46200941Y-47147598D01*
X46223746Y-47092542D01*
X71669200Y-47092542D01*
X71669200Y-47239457D01*
X71697860Y-47383541D01*
X71697860Y-47383543D01*
X71754078Y-47519266D01*
X71754078Y-47519267D01*
X71794749Y-47580134D01*
X71835699Y-47641420D01*
X71939580Y-47745301D01*
X72061731Y-47826920D01*
X72197458Y-47883140D01*
X72341545Y-47911800D01*
X72341547Y-47911800D01*
X72488453Y-47911800D01*
X72488455Y-47911800D01*
X72632542Y-47883140D01*
X72768269Y-47826920D01*
X72890420Y-47745301D01*
X72994301Y-47641420D01*
X73075920Y-47519269D01*
X73132140Y-47383542D01*
X73160800Y-47239455D01*
X73160800Y-47092545D01*
X73132140Y-46948458D01*
X73075921Y-46812733D01*
X73075921Y-46812732D01*
X73036321Y-46753467D01*
X72994301Y-46690580D01*
X72890420Y-46586699D01*
X72768269Y-46505080D01*
X72768268Y-46505079D01*
X72768266Y-46505078D01*
X72632542Y-46448860D01*
X72488457Y-46420200D01*
X72488455Y-46420200D01*
X72341545Y-46420200D01*
X72341542Y-46420200D01*
X72197458Y-46448860D01*
X72197456Y-46448860D01*
X72061733Y-46505078D01*
X72061732Y-46505078D01*
X71939580Y-46586699D01*
X71939576Y-46586702D01*
X71835702Y-46690576D01*
X71835699Y-46690580D01*
X71754078Y-46812732D01*
X71754078Y-46812733D01*
X71697860Y-46948456D01*
X71697860Y-46948458D01*
X71669200Y-47092542D01*
X46223746Y-47092542D01*
X46280130Y-46956420D01*
X46320500Y-46753465D01*
X46320500Y-46546535D01*
X46280130Y-46343580D01*
X46200941Y-46152402D01*
X46200940Y-46152400D01*
X46200939Y-46152398D01*
X46183759Y-46126686D01*
X46183756Y-46126683D01*
X46150253Y-46076542D01*
X66589200Y-46076542D01*
X66589200Y-46223457D01*
X66617860Y-46367541D01*
X66617860Y-46367543D01*
X66674078Y-46503266D01*
X66674078Y-46503267D01*
X66702990Y-46546536D01*
X66755699Y-46625420D01*
X66859580Y-46729301D01*
X66981731Y-46810920D01*
X66981732Y-46810920D01*
X66981733Y-46810921D01*
X66986108Y-46812733D01*
X67117458Y-46867140D01*
X67261545Y-46895800D01*
X67261547Y-46895800D01*
X67408453Y-46895800D01*
X67408455Y-46895800D01*
X67552542Y-46867140D01*
X67688269Y-46810920D01*
X67810420Y-46729301D01*
X67914301Y-46625420D01*
X67995920Y-46503269D01*
X68052140Y-46367542D01*
X68080800Y-46223455D01*
X68080800Y-46076545D01*
X68052140Y-45932458D01*
X67995921Y-45796733D01*
X67995921Y-45796732D01*
X67944020Y-45719058D01*
X67914301Y-45674580D01*
X67810420Y-45570699D01*
X67688269Y-45489080D01*
X67688268Y-45489079D01*
X67688266Y-45489078D01*
X67552542Y-45432860D01*
X67408457Y-45404200D01*
X67408455Y-45404200D01*
X67261545Y-45404200D01*
X67261542Y-45404200D01*
X67117458Y-45432860D01*
X67117456Y-45432860D01*
X66981733Y-45489078D01*
X66981732Y-45489078D01*
X66859580Y-45570699D01*
X66859576Y-45570702D01*
X66755702Y-45674576D01*
X66755699Y-45674580D01*
X66674078Y-45796732D01*
X66674078Y-45796733D01*
X66617860Y-45932456D01*
X66617860Y-45932458D01*
X66589200Y-46076542D01*
X46150253Y-46076542D01*
X46085979Y-45980348D01*
X46085977Y-45980345D01*
X45939655Y-45834023D01*
X45939651Y-45834020D01*
X45767597Y-45719058D01*
X45576418Y-45639869D01*
X45373467Y-45599500D01*
X45373465Y-45599500D01*
X45166535Y-45599500D01*
X45166532Y-45599500D01*
X44963581Y-45639869D01*
X44772402Y-45719058D01*
X44600348Y-45834020D01*
X44454020Y-45980348D01*
X44339058Y-46152402D01*
X44259869Y-46343581D01*
X44219500Y-46546532D01*
X43780499Y-46546532D01*
X43740130Y-46343580D01*
X43660941Y-46152402D01*
X43545977Y-45980345D01*
X43399655Y-45834023D01*
X43399651Y-45834020D01*
X43227597Y-45719058D01*
X43036418Y-45639869D01*
X42833467Y-45599500D01*
X42833465Y-45599500D01*
X42626535Y-45599500D01*
X42626532Y-45599500D01*
X42423581Y-45639869D01*
X42232402Y-45719058D01*
X42060348Y-45834020D01*
X41914020Y-45980348D01*
X41799058Y-46152402D01*
X41719869Y-46343581D01*
X41679500Y-46546532D01*
X39500500Y-46546532D01*
X39500500Y-44006532D01*
X41679500Y-44006532D01*
X41679500Y-44213467D01*
X41719869Y-44416418D01*
X41799058Y-44607597D01*
X41914020Y-44779651D01*
X41914023Y-44779655D01*
X42060345Y-44925977D01*
X42232402Y-45040941D01*
X42423580Y-45120130D01*
X42626535Y-45160500D01*
X42626536Y-45160500D01*
X42833464Y-45160500D01*
X42833465Y-45160500D01*
X43036420Y-45120130D01*
X43227598Y-45040941D01*
X43399655Y-44925977D01*
X43545977Y-44779655D01*
X43660941Y-44607598D01*
X43740130Y-44416420D01*
X43780500Y-44213465D01*
X43780500Y-44006535D01*
X43780499Y-44006532D01*
X44219500Y-44006532D01*
X44219500Y-44213467D01*
X44259869Y-44416418D01*
X44339058Y-44607597D01*
X44454020Y-44779651D01*
X44454023Y-44779655D01*
X44600345Y-44925977D01*
X44772402Y-45040941D01*
X44963580Y-45120130D01*
X45166535Y-45160500D01*
X45166536Y-45160500D01*
X45373464Y-45160500D01*
X45373465Y-45160500D01*
X45576420Y-45120130D01*
X45767598Y-45040941D01*
X45939655Y-44925977D01*
X46085977Y-44779655D01*
X46200941Y-44607598D01*
X46231382Y-44534108D01*
X68099500Y-44534108D01*
X68099500Y-44665892D01*
X68129579Y-44778151D01*
X68133609Y-44793190D01*
X68199496Y-44907309D01*
X68199498Y-44907311D01*
X68199500Y-44907314D01*
X68292686Y-45000500D01*
X68292688Y-45000501D01*
X68292690Y-45000503D01*
X68406810Y-45066390D01*
X68406808Y-45066390D01*
X68406812Y-45066391D01*
X68406814Y-45066392D01*
X68534108Y-45100500D01*
X68534110Y-45100500D01*
X68665890Y-45100500D01*
X68665892Y-45100500D01*
X68793186Y-45066392D01*
X68793188Y-45066390D01*
X68793190Y-45066390D01*
X68803319Y-45060542D01*
X71669200Y-45060542D01*
X71669200Y-45207457D01*
X71697860Y-45351541D01*
X71697860Y-45351543D01*
X71754078Y-45487266D01*
X71754078Y-45487267D01*
X71794749Y-45548134D01*
X71835699Y-45609420D01*
X71939580Y-45713301D01*
X72061731Y-45794920D01*
X72061732Y-45794920D01*
X72061733Y-45794921D01*
X72066108Y-45796733D01*
X72197458Y-45851140D01*
X72341545Y-45879800D01*
X72341547Y-45879800D01*
X72488453Y-45879800D01*
X72488455Y-45879800D01*
X72632542Y-45851140D01*
X72768269Y-45794920D01*
X72890420Y-45713301D01*
X72994301Y-45609420D01*
X73075920Y-45487269D01*
X73132140Y-45351542D01*
X73160800Y-45207455D01*
X73160800Y-45060545D01*
X73132140Y-44916458D01*
X73075921Y-44780733D01*
X73075921Y-44780732D01*
X73055585Y-44750298D01*
X72994301Y-44658580D01*
X72890420Y-44554699D01*
X72768269Y-44473080D01*
X72768268Y-44473079D01*
X72768266Y-44473078D01*
X72632542Y-44416860D01*
X72488457Y-44388200D01*
X72488455Y-44388200D01*
X72341545Y-44388200D01*
X72341542Y-44388200D01*
X72197458Y-44416860D01*
X72197456Y-44416860D01*
X72061733Y-44473078D01*
X72061732Y-44473078D01*
X71939580Y-44554699D01*
X71939576Y-44554702D01*
X71835702Y-44658576D01*
X71835699Y-44658580D01*
X71754078Y-44780732D01*
X71754078Y-44780733D01*
X71697860Y-44916456D01*
X71697860Y-44916458D01*
X71669200Y-45060542D01*
X68803319Y-45060542D01*
X68907309Y-45000503D01*
X68907309Y-45000502D01*
X68907314Y-45000500D01*
X69000500Y-44907314D01*
X69066392Y-44793186D01*
X69100500Y-44665892D01*
X69100500Y-44534108D01*
X69066392Y-44406814D01*
X69066390Y-44406811D01*
X69066390Y-44406809D01*
X69000503Y-44292690D01*
X69000501Y-44292688D01*
X69000500Y-44292686D01*
X68907314Y-44199500D01*
X68907311Y-44199498D01*
X68907309Y-44199496D01*
X68793189Y-44133609D01*
X68793191Y-44133609D01*
X68743799Y-44120375D01*
X68665892Y-44099500D01*
X68534108Y-44099500D01*
X68456200Y-44120375D01*
X68406809Y-44133609D01*
X68292690Y-44199496D01*
X68199496Y-44292690D01*
X68133609Y-44406809D01*
X68131034Y-44416420D01*
X68099500Y-44534108D01*
X46231382Y-44534108D01*
X46280130Y-44416420D01*
X46320500Y-44213465D01*
X46320500Y-44006535D01*
X46280130Y-43803580D01*
X46200941Y-43612402D01*
X46085977Y-43440345D01*
X45939655Y-43294023D01*
X45939651Y-43294020D01*
X45767597Y-43179058D01*
X45576418Y-43099869D01*
X45465049Y-43077717D01*
X45373467Y-43059500D01*
X45373465Y-43059500D01*
X45166535Y-43059500D01*
X45166532Y-43059500D01*
X44963581Y-43099869D01*
X44772402Y-43179058D01*
X44600348Y-43294020D01*
X44454020Y-43440348D01*
X44339058Y-43612402D01*
X44259869Y-43803581D01*
X44219500Y-44006532D01*
X43780499Y-44006532D01*
X43740130Y-43803580D01*
X43660941Y-43612402D01*
X43545977Y-43440345D01*
X43399655Y-43294023D01*
X43399651Y-43294020D01*
X43227597Y-43179058D01*
X43036418Y-43099869D01*
X42833467Y-43059500D01*
X42833465Y-43059500D01*
X42626535Y-43059500D01*
X42626532Y-43059500D01*
X42423581Y-43099869D01*
X42232402Y-43179058D01*
X42060348Y-43294020D01*
X41914020Y-43440348D01*
X41799058Y-43612402D01*
X41719869Y-43803581D01*
X41679500Y-44006532D01*
X39500500Y-44006532D01*
X39500500Y-42987108D01*
X65920500Y-42987108D01*
X65920500Y-43118892D01*
X65936622Y-43179059D01*
X65954609Y-43246190D01*
X66020496Y-43360309D01*
X66020498Y-43360311D01*
X66020500Y-43360314D01*
X66113686Y-43453500D01*
X66113688Y-43453501D01*
X66113690Y-43453503D01*
X66227810Y-43519390D01*
X66227808Y-43519390D01*
X66227812Y-43519391D01*
X66227814Y-43519392D01*
X66355108Y-43553500D01*
X66355110Y-43553500D01*
X66486890Y-43553500D01*
X66486892Y-43553500D01*
X66614186Y-43519392D01*
X66614188Y-43519390D01*
X66614190Y-43519390D01*
X66728309Y-43453503D01*
X66728309Y-43453502D01*
X66728314Y-43453500D01*
X66821500Y-43360314D01*
X66887392Y-43246186D01*
X66921500Y-43118892D01*
X66921500Y-42987108D01*
X66887392Y-42859814D01*
X66887390Y-42859811D01*
X66887390Y-42859809D01*
X66821503Y-42745690D01*
X66821501Y-42745688D01*
X66821500Y-42745686D01*
X66728314Y-42652500D01*
X66728311Y-42652498D01*
X66728309Y-42652496D01*
X66614189Y-42586609D01*
X66614191Y-42586609D01*
X66593991Y-42581196D01*
X66486892Y-42552500D01*
X66355108Y-42552500D01*
X66277682Y-42573246D01*
X66227809Y-42586609D01*
X66113690Y-42652496D01*
X66020496Y-42745690D01*
X65954609Y-42859809D01*
X65954608Y-42859814D01*
X65920500Y-42987108D01*
X39500500Y-42987108D01*
X39500500Y-42484108D01*
X80649500Y-42484108D01*
X80649500Y-42615892D01*
X80659308Y-42652496D01*
X80683609Y-42743190D01*
X80749496Y-42857309D01*
X80749498Y-42857311D01*
X80749500Y-42857314D01*
X80842686Y-42950500D01*
X80842688Y-42950501D01*
X80842690Y-42950503D01*
X80956810Y-43016390D01*
X80956808Y-43016390D01*
X80956812Y-43016391D01*
X80956814Y-43016392D01*
X81084108Y-43050500D01*
X81084110Y-43050500D01*
X81215890Y-43050500D01*
X81215892Y-43050500D01*
X81343186Y-43016392D01*
X81343188Y-43016390D01*
X81343190Y-43016390D01*
X81457309Y-42950503D01*
X81457309Y-42950502D01*
X81457314Y-42950500D01*
X81550500Y-42857314D01*
X81550503Y-42857309D01*
X81616390Y-42743190D01*
X81616390Y-42743188D01*
X81616392Y-42743186D01*
X81650500Y-42615892D01*
X81650500Y-42484108D01*
X81616392Y-42356814D01*
X81616390Y-42356811D01*
X81616390Y-42356809D01*
X81550503Y-42242690D01*
X81550501Y-42242688D01*
X81550500Y-42242686D01*
X81457314Y-42149500D01*
X81457311Y-42149498D01*
X81457309Y-42149496D01*
X81343189Y-42083609D01*
X81343191Y-42083609D01*
X81293799Y-42070375D01*
X81215892Y-42049500D01*
X81084108Y-42049500D01*
X81006200Y-42070375D01*
X80956809Y-42083609D01*
X80842690Y-42149496D01*
X80749496Y-42242690D01*
X80683609Y-42356809D01*
X80683608Y-42356814D01*
X80649500Y-42484108D01*
X39500500Y-42484108D01*
X39500500Y-38328806D01*
X59424500Y-38328806D01*
X59424500Y-38506193D01*
X59459106Y-38680165D01*
X59459106Y-38680167D01*
X59526985Y-38844044D01*
X59526985Y-38844045D01*
X59625535Y-38991534D01*
X59625536Y-38991535D01*
X59750965Y-39116964D01*
X59898453Y-39215513D01*
X60062334Y-39283394D01*
X60236309Y-39318000D01*
X60236310Y-39318000D01*
X60413690Y-39318000D01*
X60413691Y-39318000D01*
X60587666Y-39283394D01*
X60664405Y-39251608D01*
X73599500Y-39251608D01*
X73599500Y-39383392D01*
X73629579Y-39495651D01*
X73633609Y-39510690D01*
X73699496Y-39624809D01*
X73699501Y-39624815D01*
X73722183Y-39647498D01*
X73749959Y-39702015D01*
X73740387Y-39762447D01*
X73722183Y-39787502D01*
X73699501Y-39810184D01*
X73699496Y-39810190D01*
X73633609Y-39924309D01*
X73633608Y-39924314D01*
X73599500Y-40051608D01*
X73599500Y-40183392D01*
X73629579Y-40295651D01*
X73633609Y-40310690D01*
X73699496Y-40424809D01*
X73699501Y-40424815D01*
X73722183Y-40447498D01*
X73749959Y-40502015D01*
X73740387Y-40562447D01*
X73722183Y-40587502D01*
X73699501Y-40610184D01*
X73699496Y-40610190D01*
X73633609Y-40724309D01*
X73633608Y-40724314D01*
X73599500Y-40851608D01*
X73599500Y-40983392D01*
X73629579Y-41095651D01*
X73633609Y-41110690D01*
X73699496Y-41224809D01*
X73699498Y-41224811D01*
X73699500Y-41224814D01*
X73792686Y-41318000D01*
X73792688Y-41318001D01*
X73792690Y-41318003D01*
X73906810Y-41383890D01*
X73906808Y-41383890D01*
X73906812Y-41383891D01*
X73906814Y-41383892D01*
X74034108Y-41418000D01*
X74034110Y-41418000D01*
X74165890Y-41418000D01*
X74165892Y-41418000D01*
X74293186Y-41383892D01*
X74293188Y-41383890D01*
X74293190Y-41383890D01*
X74407309Y-41318003D01*
X74407309Y-41318002D01*
X74407314Y-41318000D01*
X74429998Y-41295315D01*
X74484513Y-41267540D01*
X74544945Y-41277111D01*
X74570000Y-41295314D01*
X74592686Y-41318000D01*
X74592688Y-41318001D01*
X74592690Y-41318003D01*
X74706810Y-41383890D01*
X74706808Y-41383890D01*
X74706812Y-41383891D01*
X74706814Y-41383892D01*
X74834108Y-41418000D01*
X74834110Y-41418000D01*
X74965890Y-41418000D01*
X74965892Y-41418000D01*
X75093186Y-41383892D01*
X75093188Y-41383890D01*
X75093190Y-41383890D01*
X75207309Y-41318003D01*
X75207309Y-41318002D01*
X75207314Y-41318000D01*
X75229998Y-41295315D01*
X75284513Y-41267540D01*
X75344945Y-41277111D01*
X75370000Y-41295314D01*
X75392686Y-41318000D01*
X75392688Y-41318001D01*
X75392690Y-41318003D01*
X75506810Y-41383890D01*
X75506808Y-41383890D01*
X75506812Y-41383891D01*
X75506814Y-41383892D01*
X75634108Y-41418000D01*
X75634110Y-41418000D01*
X75765890Y-41418000D01*
X75765892Y-41418000D01*
X75893186Y-41383892D01*
X75893188Y-41383890D01*
X75893190Y-41383890D01*
X76007309Y-41318003D01*
X76007309Y-41318002D01*
X76007314Y-41318000D01*
X76100500Y-41224814D01*
X76166392Y-41110686D01*
X76200500Y-40983392D01*
X76200500Y-40851608D01*
X76166392Y-40724314D01*
X76166390Y-40724311D01*
X76166390Y-40724309D01*
X76100503Y-40610190D01*
X76100501Y-40610188D01*
X76100500Y-40610186D01*
X76077815Y-40587501D01*
X76050040Y-40532987D01*
X76059611Y-40472555D01*
X76077816Y-40447498D01*
X76100500Y-40424814D01*
X76166392Y-40310686D01*
X76200500Y-40183392D01*
X76200500Y-40051608D01*
X76166392Y-39924314D01*
X76166390Y-39924311D01*
X76166390Y-39924309D01*
X76100503Y-39810190D01*
X76100501Y-39810188D01*
X76100500Y-39810186D01*
X76077815Y-39787501D01*
X76050040Y-39732987D01*
X76059611Y-39672555D01*
X76077816Y-39647498D01*
X76100500Y-39624814D01*
X76166392Y-39510686D01*
X76200500Y-39383392D01*
X76200500Y-39251608D01*
X76166392Y-39124314D01*
X76166390Y-39124311D01*
X76166390Y-39124309D01*
X76100503Y-39010190D01*
X76100501Y-39010188D01*
X76100500Y-39010186D01*
X76007314Y-38917000D01*
X76007311Y-38916998D01*
X76007309Y-38916996D01*
X75893189Y-38851109D01*
X75893191Y-38851109D01*
X75843799Y-38837875D01*
X75765892Y-38817000D01*
X75634108Y-38817000D01*
X75556200Y-38837875D01*
X75506809Y-38851109D01*
X75392690Y-38916996D01*
X75392684Y-38917001D01*
X75370002Y-38939683D01*
X75315485Y-38967459D01*
X75255053Y-38957887D01*
X75229998Y-38939683D01*
X75207315Y-38917001D01*
X75207309Y-38916996D01*
X75093189Y-38851109D01*
X75093191Y-38851109D01*
X75043799Y-38837875D01*
X74965892Y-38817000D01*
X74834108Y-38817000D01*
X74756200Y-38837875D01*
X74706809Y-38851109D01*
X74592690Y-38916996D01*
X74592684Y-38917001D01*
X74570002Y-38939683D01*
X74515485Y-38967459D01*
X74455053Y-38957887D01*
X74429998Y-38939683D01*
X74407315Y-38917001D01*
X74407309Y-38916996D01*
X74293189Y-38851109D01*
X74293191Y-38851109D01*
X74243799Y-38837875D01*
X74165892Y-38817000D01*
X74034108Y-38817000D01*
X73956200Y-38837875D01*
X73906809Y-38851109D01*
X73792690Y-38916996D01*
X73699496Y-39010190D01*
X73633609Y-39124309D01*
X73630983Y-39134109D01*
X73599500Y-39251608D01*
X60664405Y-39251608D01*
X60751547Y-39215513D01*
X60899035Y-39116964D01*
X61024464Y-38991535D01*
X61123013Y-38844047D01*
X61190894Y-38680166D01*
X61225500Y-38506191D01*
X61225500Y-38328809D01*
X61190894Y-38154834D01*
X61126969Y-38000503D01*
X61123014Y-37990955D01*
X61123014Y-37990954D01*
X61024464Y-37843465D01*
X60899034Y-37718035D01*
X60751544Y-37619485D01*
X60587666Y-37551606D01*
X60413693Y-37517000D01*
X60413691Y-37517000D01*
X60236309Y-37517000D01*
X60236306Y-37517000D01*
X60062334Y-37551606D01*
X60062332Y-37551606D01*
X59898455Y-37619485D01*
X59898454Y-37619485D01*
X59750965Y-37718035D01*
X59625535Y-37843465D01*
X59526985Y-37990954D01*
X59526985Y-37990955D01*
X59459106Y-38154832D01*
X59459106Y-38154834D01*
X59424500Y-38328806D01*
X39500500Y-38328806D01*
X39500500Y-35289656D01*
X68374500Y-35289656D01*
X68374500Y-35545343D01*
X68407873Y-35798832D01*
X68407873Y-35798837D01*
X68474050Y-36045814D01*
X68571892Y-36282027D01*
X68571894Y-36282031D01*
X68571896Y-36282035D01*
X68693515Y-36492684D01*
X68699741Y-36503468D01*
X68855384Y-36706306D01*
X68855386Y-36706308D01*
X68855390Y-36706313D01*
X69036187Y-36887110D01*
X69036191Y-36887113D01*
X69036193Y-36887115D01*
X69174433Y-36993190D01*
X69239035Y-37042761D01*
X69460465Y-37170604D01*
X69696687Y-37268450D01*
X69943660Y-37334626D01*
X70197157Y-37368000D01*
X70197158Y-37368000D01*
X70452842Y-37368000D01*
X70452843Y-37368000D01*
X70706340Y-37334626D01*
X70953313Y-37268450D01*
X71189535Y-37170604D01*
X71410965Y-37042761D01*
X71613813Y-36887110D01*
X71794610Y-36706313D01*
X71950261Y-36503465D01*
X72078104Y-36282035D01*
X72175950Y-36045813D01*
X72242126Y-35798840D01*
X72275500Y-35545343D01*
X72275500Y-35289657D01*
X72255021Y-35134108D01*
X87999500Y-35134108D01*
X87999500Y-35265892D01*
X88005868Y-35289657D01*
X88033609Y-35393190D01*
X88099496Y-35507309D01*
X88099501Y-35507315D01*
X88122183Y-35529998D01*
X88149959Y-35584515D01*
X88140387Y-35644947D01*
X88122183Y-35670002D01*
X88099501Y-35692684D01*
X88099496Y-35692690D01*
X88033609Y-35806809D01*
X88033608Y-35806814D01*
X87999500Y-35934108D01*
X87999500Y-36065892D01*
X88029579Y-36178151D01*
X88033609Y-36193190D01*
X88099496Y-36307309D01*
X88099501Y-36307315D01*
X88122183Y-36329998D01*
X88149959Y-36384515D01*
X88140387Y-36444947D01*
X88122183Y-36470002D01*
X88099501Y-36492684D01*
X88099496Y-36492690D01*
X88033609Y-36606809D01*
X88033608Y-36606814D01*
X87999500Y-36734108D01*
X87999500Y-36865892D01*
X88005187Y-36887115D01*
X88033609Y-36993190D01*
X88099496Y-37107309D01*
X88099501Y-37107315D01*
X88122183Y-37129998D01*
X88149959Y-37184515D01*
X88140387Y-37244947D01*
X88122183Y-37270002D01*
X88099501Y-37292684D01*
X88099496Y-37292690D01*
X88033609Y-37406809D01*
X88033608Y-37406814D01*
X87999500Y-37534108D01*
X87999500Y-37665892D01*
X88013472Y-37718035D01*
X88033609Y-37793190D01*
X88099496Y-37907309D01*
X88099501Y-37907315D01*
X88122183Y-37929998D01*
X88149959Y-37984515D01*
X88140387Y-38044947D01*
X88122183Y-38070002D01*
X88099501Y-38092684D01*
X88099496Y-38092690D01*
X88033609Y-38206809D01*
X88033608Y-38206814D01*
X87999500Y-38334108D01*
X87999500Y-38465892D01*
X88010298Y-38506191D01*
X88033609Y-38593190D01*
X88099496Y-38707309D01*
X88099501Y-38707315D01*
X88122183Y-38729998D01*
X88149959Y-38784515D01*
X88140387Y-38844947D01*
X88122183Y-38870002D01*
X88099501Y-38892684D01*
X88099496Y-38892690D01*
X88033609Y-39006809D01*
X88033608Y-39006814D01*
X87999500Y-39134108D01*
X87999500Y-39265892D01*
X88004190Y-39283394D01*
X88033609Y-39393190D01*
X88099496Y-39507309D01*
X88099498Y-39507311D01*
X88099500Y-39507314D01*
X88192686Y-39600500D01*
X88192688Y-39600501D01*
X88192690Y-39600503D01*
X88306810Y-39666390D01*
X88306808Y-39666390D01*
X88306812Y-39666391D01*
X88306814Y-39666392D01*
X88434108Y-39700500D01*
X88434110Y-39700500D01*
X88565890Y-39700500D01*
X88565892Y-39700500D01*
X88693186Y-39666392D01*
X88693188Y-39666390D01*
X88693190Y-39666390D01*
X88807309Y-39600503D01*
X88807309Y-39600502D01*
X88807314Y-39600500D01*
X88900500Y-39507314D01*
X88966392Y-39393186D01*
X89000500Y-39265892D01*
X89000500Y-39134108D01*
X88966392Y-39006814D01*
X88966390Y-39006811D01*
X88966390Y-39006809D01*
X88900503Y-38892690D01*
X88900501Y-38892688D01*
X88900500Y-38892686D01*
X88877815Y-38870001D01*
X88850040Y-38815487D01*
X88859611Y-38755055D01*
X88877816Y-38729998D01*
X88900500Y-38707314D01*
X88900503Y-38707309D01*
X88966390Y-38593190D01*
X88966390Y-38593188D01*
X88966392Y-38593186D01*
X89000500Y-38465892D01*
X89000500Y-38334108D01*
X88966392Y-38206814D01*
X88966390Y-38206811D01*
X88966390Y-38206809D01*
X88900503Y-38092690D01*
X88900501Y-38092688D01*
X88900500Y-38092686D01*
X88877815Y-38070001D01*
X88850040Y-38015487D01*
X88859611Y-37955055D01*
X88877816Y-37929998D01*
X88900500Y-37907314D01*
X88900503Y-37907309D01*
X88966390Y-37793190D01*
X88966390Y-37793188D01*
X88966392Y-37793186D01*
X89000500Y-37665892D01*
X89000500Y-37534108D01*
X88966392Y-37406814D01*
X88966390Y-37406811D01*
X88966390Y-37406809D01*
X88900503Y-37292690D01*
X88900501Y-37292688D01*
X88900500Y-37292686D01*
X88877815Y-37270001D01*
X88850040Y-37215487D01*
X88859611Y-37155055D01*
X88877816Y-37129998D01*
X88900500Y-37107314D01*
X88966392Y-36993186D01*
X89000500Y-36865892D01*
X89000500Y-36734108D01*
X88966392Y-36606814D01*
X88966390Y-36606811D01*
X88966390Y-36606809D01*
X88900503Y-36492690D01*
X88900501Y-36492688D01*
X88900500Y-36492686D01*
X88877815Y-36470001D01*
X88850040Y-36415487D01*
X88859611Y-36355055D01*
X88877816Y-36329998D01*
X88900500Y-36307314D01*
X88915095Y-36282035D01*
X88966390Y-36193190D01*
X88966390Y-36193188D01*
X88966392Y-36193186D01*
X89000500Y-36065892D01*
X89000500Y-35934108D01*
X88966392Y-35806814D01*
X88966390Y-35806811D01*
X88966390Y-35806809D01*
X88900503Y-35692690D01*
X88900501Y-35692688D01*
X88900500Y-35692686D01*
X88877815Y-35670001D01*
X88850040Y-35615487D01*
X88859611Y-35555055D01*
X88877816Y-35529998D01*
X88900500Y-35507314D01*
X88966392Y-35393186D01*
X89000500Y-35265892D01*
X89000500Y-35134108D01*
X91199500Y-35134108D01*
X91199500Y-35265892D01*
X91205868Y-35289657D01*
X91233609Y-35393190D01*
X91299496Y-35507309D01*
X91299501Y-35507315D01*
X91322183Y-35529998D01*
X91349959Y-35584515D01*
X91340387Y-35644947D01*
X91322183Y-35670002D01*
X91299501Y-35692684D01*
X91299496Y-35692690D01*
X91233609Y-35806809D01*
X91233608Y-35806814D01*
X91199500Y-35934108D01*
X91199500Y-36065892D01*
X91229579Y-36178151D01*
X91233609Y-36193190D01*
X91299496Y-36307309D01*
X91299501Y-36307315D01*
X91322183Y-36329998D01*
X91349959Y-36384515D01*
X91340387Y-36444947D01*
X91322183Y-36470002D01*
X91299501Y-36492684D01*
X91299496Y-36492690D01*
X91233609Y-36606809D01*
X91233608Y-36606814D01*
X91199500Y-36734108D01*
X91199500Y-36865892D01*
X91205187Y-36887115D01*
X91233609Y-36993190D01*
X91299496Y-37107309D01*
X91299501Y-37107315D01*
X91322183Y-37129998D01*
X91349959Y-37184515D01*
X91340387Y-37244947D01*
X91322183Y-37270002D01*
X91299501Y-37292684D01*
X91299496Y-37292690D01*
X91233609Y-37406809D01*
X91233608Y-37406814D01*
X91199500Y-37534108D01*
X91199500Y-37665892D01*
X91213472Y-37718035D01*
X91233609Y-37793190D01*
X91299496Y-37907309D01*
X91299498Y-37907311D01*
X91299500Y-37907314D01*
X91392686Y-38000500D01*
X91392688Y-38000501D01*
X91392690Y-38000503D01*
X91506810Y-38066390D01*
X91506808Y-38066390D01*
X91506812Y-38066391D01*
X91506814Y-38066392D01*
X91634108Y-38100500D01*
X91634110Y-38100500D01*
X91765890Y-38100500D01*
X91765892Y-38100500D01*
X91893186Y-38066392D01*
X91893188Y-38066390D01*
X91893190Y-38066390D01*
X92007309Y-38000503D01*
X92007309Y-38000502D01*
X92007314Y-38000500D01*
X92100500Y-37907314D01*
X92100503Y-37907309D01*
X92166390Y-37793190D01*
X92166390Y-37793188D01*
X92166392Y-37793186D01*
X92200500Y-37665892D01*
X92200500Y-37534108D01*
X92166392Y-37406814D01*
X92166390Y-37406811D01*
X92166390Y-37406809D01*
X92100503Y-37292690D01*
X92100501Y-37292688D01*
X92100500Y-37292686D01*
X92077815Y-37270001D01*
X92050040Y-37215487D01*
X92059611Y-37155055D01*
X92077816Y-37129998D01*
X92100500Y-37107314D01*
X92166392Y-36993186D01*
X92200500Y-36865892D01*
X92200500Y-36734108D01*
X92166392Y-36606814D01*
X92166390Y-36606811D01*
X92166390Y-36606809D01*
X92100503Y-36492690D01*
X92100501Y-36492688D01*
X92100500Y-36492686D01*
X92077815Y-36470001D01*
X92050040Y-36415487D01*
X92059611Y-36355055D01*
X92077816Y-36329998D01*
X92100500Y-36307314D01*
X92115095Y-36282035D01*
X92166390Y-36193190D01*
X92166390Y-36193188D01*
X92166392Y-36193186D01*
X92200500Y-36065892D01*
X92200500Y-35934108D01*
X92166392Y-35806814D01*
X92166390Y-35806811D01*
X92166390Y-35806809D01*
X92100503Y-35692690D01*
X92100501Y-35692688D01*
X92100500Y-35692686D01*
X92077815Y-35670001D01*
X92050040Y-35615487D01*
X92059611Y-35555055D01*
X92077816Y-35529998D01*
X92100500Y-35507314D01*
X92166392Y-35393186D01*
X92200500Y-35265892D01*
X92200500Y-35134108D01*
X92166392Y-35006814D01*
X92166390Y-35006811D01*
X92166390Y-35006809D01*
X92100503Y-34892690D01*
X92100501Y-34892688D01*
X92100500Y-34892686D01*
X92007314Y-34799500D01*
X92007311Y-34799498D01*
X92007309Y-34799496D01*
X91893189Y-34733609D01*
X91893191Y-34733609D01*
X91843799Y-34720375D01*
X91765892Y-34699500D01*
X91634108Y-34699500D01*
X91556200Y-34720375D01*
X91506809Y-34733609D01*
X91392690Y-34799496D01*
X91299496Y-34892690D01*
X91233609Y-35006809D01*
X91233608Y-35006814D01*
X91199500Y-35134108D01*
X89000500Y-35134108D01*
X88966392Y-35006814D01*
X88966390Y-35006811D01*
X88966390Y-35006809D01*
X88900503Y-34892690D01*
X88900501Y-34892688D01*
X88900500Y-34892686D01*
X88807314Y-34799500D01*
X88807311Y-34799498D01*
X88807309Y-34799496D01*
X88693189Y-34733609D01*
X88693191Y-34733609D01*
X88643799Y-34720375D01*
X88565892Y-34699500D01*
X88434108Y-34699500D01*
X88356200Y-34720375D01*
X88306809Y-34733609D01*
X88192690Y-34799496D01*
X88099496Y-34892690D01*
X88033609Y-35006809D01*
X88033608Y-35006814D01*
X87999500Y-35134108D01*
X72255021Y-35134108D01*
X72242126Y-35036160D01*
X72175950Y-34789187D01*
X72078104Y-34552965D01*
X71950261Y-34331535D01*
X71794610Y-34128687D01*
X71613813Y-33947890D01*
X71613808Y-33947886D01*
X71613806Y-33947884D01*
X71410968Y-33792241D01*
X71410965Y-33792239D01*
X71189535Y-33664396D01*
X71189531Y-33664394D01*
X71189527Y-33664392D01*
X70953314Y-33566550D01*
X70844413Y-33537370D01*
X70706340Y-33500374D01*
X70706337Y-33500373D01*
X70706335Y-33500373D01*
X70452843Y-33467000D01*
X70197157Y-33467000D01*
X70197156Y-33467000D01*
X69943667Y-33500373D01*
X69943662Y-33500373D01*
X69696685Y-33566550D01*
X69460472Y-33664392D01*
X69239031Y-33792241D01*
X69036193Y-33947884D01*
X68855384Y-34128693D01*
X68699741Y-34331531D01*
X68571892Y-34552972D01*
X68474050Y-34789185D01*
X68407873Y-35036162D01*
X68407873Y-35036167D01*
X68374500Y-35289656D01*
X39500500Y-35289656D01*
X39500500Y-31969691D01*
X39519407Y-31911500D01*
X39568907Y-31875536D01*
X39630093Y-31875536D01*
X39679593Y-31911500D01*
X39681796Y-31914662D01*
X39702476Y-31945611D01*
X39958066Y-32257048D01*
X40242952Y-32541934D01*
X40554389Y-32797524D01*
X40721884Y-32909441D01*
X40889381Y-33021360D01*
X41244677Y-33211268D01*
X41244696Y-33211278D01*
X41616917Y-33365457D01*
X41616919Y-33365457D01*
X41616925Y-33365460D01*
X42002453Y-33482409D01*
X42002457Y-33482409D01*
X42002458Y-33482410D01*
X42397606Y-33561010D01*
X42442155Y-33565397D01*
X42798547Y-33600500D01*
X42798555Y-33600500D01*
X43201453Y-33600500D01*
X43468744Y-33574173D01*
X43602394Y-33561010D01*
X43997542Y-33482410D01*
X43997543Y-33482409D01*
X43997546Y-33482409D01*
X44383074Y-33365460D01*
X44383076Y-33365458D01*
X44383083Y-33365457D01*
X44755304Y-33211278D01*
X44928930Y-33118473D01*
X45110618Y-33021360D01*
X45110621Y-33021358D01*
X45445611Y-32797524D01*
X45757048Y-32541934D01*
X46041934Y-32257048D01*
X46297524Y-31945611D01*
X46521358Y-31610621D01*
X46528396Y-31597455D01*
X46711268Y-31255322D01*
X46711278Y-31255304D01*
X46865457Y-30883083D01*
X46922632Y-30694605D01*
X46982409Y-30497546D01*
X46982410Y-30497542D01*
X47061010Y-30102394D01*
X47075370Y-29956594D01*
X47100500Y-29701452D01*
X47100500Y-29387395D01*
X68325000Y-29387395D01*
X68325000Y-31447604D01*
X68339757Y-31597444D01*
X68339760Y-31597460D01*
X68362608Y-31672783D01*
X69399774Y-30635616D01*
X69411508Y-30694605D01*
X69483121Y-30867494D01*
X69587087Y-31023090D01*
X69719410Y-31155413D01*
X69875006Y-31259379D01*
X70047895Y-31330992D01*
X70106880Y-31342724D01*
X69069715Y-32379890D01*
X69145044Y-32402741D01*
X69145050Y-32402742D01*
X69294895Y-32417500D01*
X71355105Y-32417500D01*
X71504949Y-32402742D01*
X71504955Y-32402741D01*
X71580283Y-32379890D01*
X70543118Y-31342725D01*
X70602105Y-31330992D01*
X70774994Y-31259379D01*
X70930590Y-31155413D01*
X71062913Y-31023090D01*
X71166879Y-30867494D01*
X71238492Y-30694605D01*
X71250225Y-30635618D01*
X72287390Y-31672783D01*
X72310241Y-31597455D01*
X72310242Y-31597449D01*
X72325000Y-31447604D01*
X72325000Y-29387395D01*
X72310242Y-29237550D01*
X72310241Y-29237544D01*
X72287390Y-29162215D01*
X71250224Y-30199380D01*
X71238492Y-30140395D01*
X71166879Y-29967506D01*
X71062913Y-29811910D01*
X70930590Y-29679587D01*
X70774994Y-29575621D01*
X70602105Y-29504008D01*
X70543116Y-29492274D01*
X71580283Y-28455108D01*
X71504960Y-28432260D01*
X71504944Y-28432257D01*
X71355105Y-28417500D01*
X69294895Y-28417500D01*
X69145055Y-28432257D01*
X69145039Y-28432260D01*
X69069715Y-28455108D01*
X70106881Y-29492274D01*
X70047895Y-29504008D01*
X69875006Y-29575621D01*
X69719410Y-29679587D01*
X69587087Y-29811910D01*
X69483121Y-29967506D01*
X69411508Y-30140395D01*
X69399774Y-30199381D01*
X68362608Y-29162215D01*
X68339760Y-29237539D01*
X68339757Y-29237555D01*
X68325000Y-29387395D01*
X47100500Y-29387395D01*
X47100500Y-29298547D01*
X47061010Y-28897609D01*
X47061010Y-28897606D01*
X46982870Y-28504770D01*
X46982870Y-28504768D01*
X46982410Y-28502456D01*
X46865460Y-28116925D01*
X46813522Y-27991534D01*
X46711278Y-27744696D01*
X46676786Y-27680165D01*
X46521360Y-27389381D01*
X46514388Y-27378947D01*
X46480885Y-27328806D01*
X59424500Y-27328806D01*
X59424500Y-27506193D01*
X59459106Y-27680165D01*
X59459106Y-27680167D01*
X59526985Y-27844044D01*
X59526985Y-27844045D01*
X59625535Y-27991534D01*
X59625536Y-27991535D01*
X59750965Y-28116964D01*
X59898453Y-28215513D01*
X60062334Y-28283394D01*
X60236309Y-28318000D01*
X60236310Y-28318000D01*
X60413690Y-28318000D01*
X60413691Y-28318000D01*
X60587666Y-28283394D01*
X60751547Y-28215513D01*
X60899035Y-28116964D01*
X61024464Y-27991535D01*
X61123013Y-27844047D01*
X61190894Y-27680166D01*
X61225500Y-27506191D01*
X61225500Y-27328809D01*
X61190894Y-27154834D01*
X61123014Y-26990955D01*
X61123014Y-26990954D01*
X61024464Y-26843465D01*
X60899034Y-26718035D01*
X60751544Y-26619485D01*
X60587666Y-26551606D01*
X60413693Y-26517000D01*
X60413691Y-26517000D01*
X60236309Y-26517000D01*
X60236306Y-26517000D01*
X60062334Y-26551606D01*
X60062332Y-26551606D01*
X59898455Y-26619485D01*
X59898454Y-26619485D01*
X59750965Y-26718035D01*
X59625535Y-26843465D01*
X59526985Y-26990954D01*
X59526985Y-26990955D01*
X59459106Y-27154832D01*
X59459106Y-27154834D01*
X59424500Y-27328806D01*
X46480885Y-27328806D01*
X46364638Y-27154832D01*
X46297524Y-27054389D01*
X46041934Y-26742952D01*
X45757048Y-26458066D01*
X45445611Y-26202476D01*
X45414688Y-26181814D01*
X45376810Y-26133766D01*
X45374408Y-26072628D01*
X45408400Y-26021754D01*
X45465804Y-26000576D01*
X45469691Y-26000500D01*
X112530309Y-26000500D01*
X112532240Y-26001127D01*
G37*
%TD.AperFunction*%
%TD*%
M02*
