M48
; DRILL file KiCad 10.0.0 date 2026-03-29T14:51:06
; FORMAT={-:-/ absolute / metric / decimal}
; #@! TF.CreationDate,2026-03-29T14:51:06+01:00
; #@! TF.GenerationSoftware,Kicad,Pcbnew,10.0.0
; #@! TF.FileFunction,Plated,1,4,PTH
FMAT,2
METRIC
; #@! TA.AperFunction,Plated,PTH,ViaDrill
T1C0.300
; #@! TA.AperFunction,Plated,PTH,ViaDrill
T2C0.400
; #@! TA.AperFunction,Plated,PTH,ComponentDrill
T3C1.000
%
G90
G05
T1
X24.94Y-29.94
X24.94Y-59.94
X29.94Y-24.94
X29.94Y-39.94
X29.94Y-54.94
X30.2Y-46.31
X30.2Y-50.71
X30.8Y-30.4
X31.14Y-33.485
X32.08Y-36.337
X34.94Y-39.94
X34.94Y-54.94
X34.94Y-64.94
X35.2Y-50.51
X39.94Y-34.94
X39.94Y-64.94
X40.2Y-46.31
X42.55Y-41.86
X42.6Y-48.81
X44.2Y-48.51
X44.94Y-24.94
X44.94Y-29.94
X44.94Y-54.94
X48.704Y-47.71
X49.94Y-39.94
X49.94Y-44.94
X49.94Y-54.94
X49.94Y-64.94
X54.94Y-29.94
X54.94Y-34.94
X57.0Y-64.51
X59.85Y-62.66
X59.94Y-24.94
X59.94Y-44.94
X59.94Y-49.94
X59.94Y-59.94
X62.5Y-53.61
X62.5Y-55.01
X64.94Y-34.94
X64.94Y-39.94
X64.94Y-59.94
T2
X35.4Y-32.81
X42.772Y-57.88
X42.772Y-59.58
X42.772Y-61.28
X44.472Y-57.88
X44.472Y-59.58
X44.472Y-61.28
X46.172Y-57.88
X46.172Y-59.58
X46.172Y-61.28
X50.8Y-46.582
X53.188Y-60.21
X53.188Y-62.75
X54.051Y-49.999
X54.102Y-67.525
X56.515Y-47.535
X64.0Y-37.51
T3
X23.73Y-36.11
X23.73Y-38.65
X23.73Y-41.19
X23.73Y-43.73
X23.73Y-46.27
X23.73Y-48.81
X23.73Y-51.35
X23.73Y-53.89
X26.27Y-36.11
X26.27Y-38.65
X26.27Y-41.19
X26.27Y-43.73
X26.27Y-46.27
X26.27Y-48.81
X26.27Y-51.35
X26.27Y-53.89
X35.0Y-23.46
X35.0Y-26.0
X37.54Y-23.46
X37.54Y-26.0
X40.08Y-23.46
X40.08Y-26.0
X51.42Y-23.46
X51.42Y-26.0
X53.96Y-23.46
X53.96Y-26.0
X56.5Y-23.46
X56.5Y-26.0
M30
