%TF.GenerationSoftware,KiCad,Pcbnew,10.0.0*%
%TF.CreationDate,2026-03-29T14:51:03+01:00*%
%TF.ProjectId,Comms,436f6d6d-732e-46b6-9963-61645f706362,rev?*%
%TF.SameCoordinates,Original*%
%TF.FileFunction,Copper,L1,Top*%
%TF.FilePolarity,Positive*%
%FSLAX46Y46*%
G04 Gerber Fmt 4.6, Leading zero omitted, Abs format (unit mm)*
G04 Created by KiCad (PCBNEW 10.0.0) date 2026-03-29 14:51:03*
%MOMM*%
%LPD*%
G01*
G04 APERTURE LIST*
G04 Aperture macros list*
%AMRoundRect*
0 Rectangle with rounded corners*
0 $1 Rounding radius*
0 $2 $3 $4 $5 $6 $7 $8 $9 X,Y pos of 4 corners*
0 Add a 4 corners polygon primitive as box body*
4,1,4,$2,$3,$4,$5,$6,$7,$8,$9,$2,$3,0*
0 Add four circle primitives for the rounded corners*
1,1,$1+$1,$2,$3*
1,1,$1+$1,$4,$5*
1,1,$1+$1,$6,$7*
1,1,$1+$1,$8,$9*
0 Add four rect primitives between the rounded corners*
20,1,$1+$1,$2,$3,$4,$5,0*
20,1,$1+$1,$4,$5,$6,$7,0*
20,1,$1+$1,$6,$7,$8,$9,0*
20,1,$1+$1,$8,$9,$2,$3,0*%
G04 Aperture macros list end*
%TA.AperFunction,SMDPad,CuDef*%
%ADD10RoundRect,0.087500X-0.087500X0.662500X-0.087500X-0.662500X0.087500X-0.662500X0.087500X0.662500X0*%
%TD*%
%TA.AperFunction,ComponentPad*%
%ADD11R,1.700000X1.700000*%
%TD*%
%TA.AperFunction,ComponentPad*%
%ADD12O,1.700000X1.700000*%
%TD*%
%TA.AperFunction,SMDPad,CuDef*%
%ADD13R,3.050000X3.400000*%
%TD*%
%TA.AperFunction,SMDPad,CuDef*%
%ADD14R,4.500000X2.400000*%
%TD*%
%TA.AperFunction,SMDPad,CuDef*%
%ADD15RoundRect,0.250000X-0.325000X-0.650000X0.325000X-0.650000X0.325000X0.650000X-0.325000X0.650000X0*%
%TD*%
%TA.AperFunction,SMDPad,CuDef*%
%ADD16RoundRect,0.150000X-0.150000X0.587500X-0.150000X-0.587500X0.150000X-0.587500X0.150000X0.587500X0*%
%TD*%
%TA.AperFunction,SMDPad,CuDef*%
%ADD17RoundRect,0.200000X0.200000X0.275000X-0.200000X0.275000X-0.200000X-0.275000X0.200000X-0.275000X0*%
%TD*%
%TA.AperFunction,SMDPad,CuDef*%
%ADD18RoundRect,0.200000X-0.275000X0.200000X-0.275000X-0.200000X0.275000X-0.200000X0.275000X0.200000X0*%
%TD*%
%TA.AperFunction,SMDPad,CuDef*%
%ADD19RoundRect,0.225000X-0.225000X-0.250000X0.225000X-0.250000X0.225000X0.250000X-0.225000X0.250000X0*%
%TD*%
%TA.AperFunction,SMDPad,CuDef*%
%ADD20RoundRect,0.225000X0.225000X0.250000X-0.225000X0.250000X-0.225000X-0.250000X0.225000X-0.250000X0*%
%TD*%
%TA.AperFunction,SMDPad,CuDef*%
%ADD21RoundRect,0.200000X0.275000X-0.200000X0.275000X0.200000X-0.275000X0.200000X-0.275000X-0.200000X0*%
%TD*%
%TA.AperFunction,SMDPad,CuDef*%
%ADD22RoundRect,0.150000X0.650000X0.350000X-0.650000X0.350000X-0.650000X-0.350000X0.650000X-0.350000X0*%
%TD*%
%TA.AperFunction,SMDPad,CuDef*%
%ADD23RoundRect,0.150000X-0.150000X-0.400000X0.150000X-0.400000X0.150000X0.400000X-0.150000X0.400000X0*%
%TD*%
%TA.AperFunction,SMDPad,CuDef*%
%ADD24RoundRect,0.225000X0.250000X-0.225000X0.250000X0.225000X-0.250000X0.225000X-0.250000X-0.225000X0*%
%TD*%
%TA.AperFunction,SMDPad,CuDef*%
%ADD25R,0.900000X1.500000*%
%TD*%
%TA.AperFunction,SMDPad,CuDef*%
%ADD26R,1.300000X1.300000*%
%TD*%
%TA.AperFunction,SMDPad,CuDef*%
%ADD27R,1.500000X0.900000*%
%TD*%
%TA.AperFunction,SMDPad,CuDef*%
%ADD28RoundRect,0.050000X-0.285000X-0.100000X0.285000X-0.100000X0.285000X0.100000X-0.285000X0.100000X0*%
%TD*%
%TA.AperFunction,ConnectorPad*%
%ADD29C,0.787400*%
%TD*%
%TA.AperFunction,ViaPad*%
%ADD30C,0.800000*%
%TD*%
%TA.AperFunction,ViaPad*%
%ADD31C,0.600000*%
%TD*%
%TA.AperFunction,Conductor*%
%ADD32C,0.400000*%
%TD*%
%TA.AperFunction,Conductor*%
%ADD33C,0.300000*%
%TD*%
%TA.AperFunction,Conductor*%
%ADD34C,1.000000*%
%TD*%
%TA.AperFunction,Conductor*%
%ADD35C,0.250000*%
%TD*%
G04 APERTURE END LIST*
D10*
%TO.P,U1,1,X1*%
%TO.N,Net-(U1-X1)*%
X44800000Y-43010000D03*
%TO.P,U1,2,X2*%
%TO.N,Net-(U1-X2)*%
X44300000Y-43010000D03*
%TO.P,U1,3,VBAT*%
%TO.N,+BATT*%
X43800000Y-43010000D03*
%TO.P,U1,4,~{CS}*%
%TO.N,~{RTC-CS}*%
X43300000Y-43010000D03*
%TO.P,U1,5,GND*%
%TO.N,GND*%
X42800000Y-43010000D03*
%TO.P,U1,6,MOSI*%
%TO.N,SPI-COPI*%
X42800000Y-47210000D03*
%TO.P,U1,7,MISO*%
%TO.N,SPI-CIPO*%
X43300000Y-47210000D03*
%TO.P,U1,8,SCLK*%
%TO.N,SPI-CLK*%
X43800000Y-47210000D03*
%TO.P,U1,9,~{INT}*%
%TO.N,~{RTC-INT}*%
X44300000Y-47210000D03*
%TO.P,U1,10,VCC*%
%TO.N,+3.3V*%
X44800000Y-47210000D03*
%TD*%
D11*
%TO.P,J1,1,SPI-CIPO*%
%TO.N,SPI-CIPO*%
X26270000Y-53890000D03*
D12*
%TO.P,J1,2,I7*%
%TO.N,ESP32-EN*%
X23730000Y-53890000D03*
%TO.P,J1,3,SPI-CLK*%
%TO.N,SPI-CLK*%
X26270000Y-51350000D03*
%TO.P,J1,4,I6*%
%TO.N,~{ESP32-INT}*%
X23730000Y-51350000D03*
%TO.P,J1,5,SPI-COPI*%
%TO.N,SPI-COPI*%
X26270000Y-48810000D03*
%TO.P,J1,6,I5*%
%TO.N,~{ESP32-CS}*%
X23730000Y-48810000D03*
%TO.P,J1,7,SDA*%
%TO.N,unconnected-(J1-SDA-Pad7)*%
X26270000Y-46270000D03*
%TO.P,J1,8,I4*%
%TO.N,~{RTC-INT}*%
X23730000Y-46270000D03*
%TO.P,J1,9,SCL*%
%TO.N,unconnected-(J1-SCL-Pad9)*%
X26270000Y-43730000D03*
%TO.P,J1,10,I3*%
%TO.N,~{RTC-CS}*%
X23730000Y-43730000D03*
%TO.P,J1,11,GND*%
%TO.N,GND*%
X26270000Y-41190000D03*
%TO.P,J1,12,I2*%
%TO.N,BUS-TX*%
X23730000Y-41190000D03*
%TO.P,J1,13,5V*%
%TO.N,+5V*%
X26270000Y-38650000D03*
%TO.P,J1,14,I1*%
%TO.N,BUS-DE*%
X23730000Y-38650000D03*
%TO.P,J1,15,3V3*%
%TO.N,+3.3V*%
X26270000Y-36110000D03*
%TO.P,J1,16,I0*%
%TO.N,BUS-RX*%
X23730000Y-36110000D03*
%TD*%
D13*
%TO.P,BT1,1,+*%
%TO.N,+BATT*%
X45800000Y-37510000D03*
D14*
%TO.P,BT1,2,-*%
%TO.N,GND*%
X66900000Y-37510000D03*
%TD*%
D15*
%TO.P,C3,1*%
%TO.N,+3.3V*%
X55040000Y-47535000D03*
%TO.P,C3,2*%
%TO.N,GND*%
X57990000Y-47535000D03*
%TD*%
D16*
%TO.P,D6,1,K*%
%TO.N,A*%
X36350000Y-32235000D03*
%TO.P,D6,2,K*%
%TO.N,B*%
X34450000Y-32235000D03*
%TO.P,D6,3,A*%
%TO.N,GND*%
X35400000Y-34110000D03*
%TD*%
D17*
%TO.P,R3,1*%
%TO.N,B*%
X33225000Y-30400000D03*
%TO.P,R3,2*%
%TO.N,GND*%
X31575000Y-30400000D03*
%TD*%
D11*
%TO.P,J3,1,Pin_1*%
%TO.N,+5V*%
X40080000Y-23460000D03*
D12*
%TO.P,J3,2,Pin_2*%
%TO.N,+3.3V*%
X40080000Y-26000000D03*
%TO.P,J3,3,Pin_3*%
%TO.N,GND*%
X37540000Y-23460000D03*
%TO.P,J3,4,Pin_4*%
X37540000Y-26000000D03*
%TO.P,J3,5,Pin_5*%
%TO.N,A*%
X35000000Y-23460000D03*
%TO.P,J3,6,Pin_6*%
%TO.N,B*%
X35000000Y-26000000D03*
%TD*%
D11*
%TO.P,J4,1,Pin_1*%
%TO.N,+5V*%
X56500000Y-23460000D03*
D12*
%TO.P,J4,2,Pin_2*%
%TO.N,+3.3V*%
X56500000Y-26000000D03*
%TO.P,J4,3,Pin_3*%
%TO.N,GND*%
X53960000Y-23460000D03*
%TO.P,J4,4,Pin_4*%
X53960000Y-26000000D03*
%TO.P,J4,5,Pin_5*%
%TO.N,A*%
X51420000Y-23460000D03*
%TO.P,J4,6,Pin_6*%
%TO.N,B*%
X51420000Y-26000000D03*
%TD*%
D18*
%TO.P,R5,1*%
%TO.N,Net-(SW1-C)*%
X61600000Y-51985000D03*
%TO.P,R5,2*%
%TO.N,GND*%
X61600000Y-53635000D03*
%TD*%
D19*
%TO.P,C1,1*%
%TO.N,+3.3V*%
X46146250Y-47710000D03*
%TO.P,C1,2*%
%TO.N,GND*%
X47696250Y-47710000D03*
%TD*%
D20*
%TO.P,C2,1*%
%TO.N,+3.3V*%
X32700000Y-34385000D03*
%TO.P,C2,2*%
%TO.N,GND*%
X31150000Y-34385000D03*
%TD*%
D21*
%TO.P,R4,1*%
%TO.N,+3.3V*%
X61600000Y-59635000D03*
%TO.P,R4,2*%
%TO.N,Net-(SW1-A)*%
X61600000Y-57985000D03*
%TD*%
D22*
%TO.P,SW1,1,A*%
%TO.N,Net-(SW1-A)*%
X59700000Y-57410000D03*
%TO.P,SW1,2,B*%
%TO.N,ESP32-EN*%
X57300000Y-54910000D03*
%TO.P,SW1,3,C*%
%TO.N,Net-(SW1-C)*%
X59700000Y-52410000D03*
%TD*%
D23*
%TO.P,Y1,1,1*%
%TO.N,Net-(U1-X2)*%
X43850000Y-40760000D03*
%TO.P,Y1,2,2*%
%TO.N,Net-(U1-X1)*%
X45250000Y-40760000D03*
%TD*%
D17*
%TO.P,R2,1*%
%TO.N,A*%
X36225000Y-30400000D03*
%TO.P,R2,2*%
%TO.N,B*%
X34575000Y-30400000D03*
%TD*%
D24*
%TO.P,C5,1*%
%TO.N,+3.3V*%
X51752500Y-48132500D03*
%TO.P,C5,2*%
%TO.N,GND*%
X51752500Y-46582500D03*
%TD*%
%TO.P,C4,1*%
%TO.N,+3.3V*%
X53340000Y-48132500D03*
%TO.P,C4,2*%
%TO.N,GND*%
X53340000Y-46582500D03*
%TD*%
D25*
%TO.P,U3,1,GND*%
%TO.N,GND*%
X53060000Y-50000000D03*
%TO.P,U3,2,3V3*%
%TO.N,+3.3V*%
X51790000Y-50000000D03*
%TO.P,U3,3,EN/CHIP_PU*%
%TO.N,ESP32-EN*%
X50520000Y-50000000D03*
%TO.P,U3,4,GPIO2*%
%TO.N,unconnected-(U3-GPIO2-Pad4)*%
X49250000Y-50000000D03*
%TO.P,U3,5,GPIO3*%
%TO.N,unconnected-(U3-GPIO3-Pad5)*%
X47980000Y-50000000D03*
%TO.P,U3,6,GPIO0*%
%TO.N,unconnected-(U3-GPIO0-Pad6)*%
X46710000Y-50000000D03*
%TO.P,U3,7,GPIO1*%
%TO.N,SPI-CLK*%
X45440000Y-50000000D03*
%TO.P,U3,8,GPIO6*%
%TO.N,SPI-CIPO*%
X44170000Y-50000000D03*
%TO.P,U3,9,GPIO7*%
%TO.N,SPI-COPI*%
X42900000Y-50000000D03*
%TO.P,U3,10,GPIO8*%
%TO.N,~{ESP32-CS}*%
X41630000Y-50000000D03*
%TO.P,U3,11,GPIO9*%
%TO.N,~{ESP32-INT}*%
X40360000Y-50000000D03*
%TO.P,U3,12,GPIO10*%
%TO.N,unconnected-(U3-GPIO10-Pad12)*%
X39090000Y-50000000D03*
%TO.P,U3,13,GPIO13/USB_D-*%
%TO.N,unconnected-(U3-GPIO13{slash}USB_D--Pad13)*%
X37820000Y-50000000D03*
%TO.P,U3,14,GPIO14/USB_D+*%
%TO.N,unconnected-(U3-GPIO14{slash}USB_D+-Pad14)*%
X36550000Y-50000000D03*
%TO.P,U3,15,GPIO28*%
%TO.N,BOOT0*%
X36550000Y-67500000D03*
%TO.P,U3,16,GPIO5*%
%TO.N,unconnected-(U3-GPIO5-Pad16)*%
X37820000Y-67500000D03*
%TO.P,U3,17,GPIO4*%
%TO.N,unconnected-(U3-GPIO4-Pad17)*%
X39090000Y-67500000D03*
%TO.P,U3,18,GPIO27*%
%TO.N,unconnected-(U3-GPIO27-Pad18)*%
X40360000Y-67500000D03*
%TO.P,U3,19,GPIO15*%
%TO.N,unconnected-(U3-GPIO15-Pad19)*%
X41630000Y-67500000D03*
%TO.P,U3,20,NC*%
%TO.N,unconnected-(U3-NC-Pad20)*%
X42900000Y-67500000D03*
%TO.P,U3,21,GPIO23*%
%TO.N,unconnected-(U3-GPIO23-Pad21)*%
X44170000Y-67500000D03*
%TO.P,U3,22,NC*%
%TO.N,unconnected-(U3-NC-Pad22)*%
X45440000Y-67500000D03*
%TO.P,U3,23,GPIO24*%
%TO.N,unconnected-(U3-GPIO24-Pad23)*%
X46710000Y-67500000D03*
%TO.P,U3,24,U0RXD/GPIO12*%
%TO.N,ESP32-PROG-RX*%
X47980000Y-67500000D03*
%TO.P,U3,25,U0TXD/GPIO11*%
%TO.N,ESP32-PROG-TX*%
X49250000Y-67500000D03*
%TO.P,U3,26,GPIO25*%
%TO.N,unconnected-(U3-GPIO25-Pad26)*%
X50520000Y-67500000D03*
%TO.P,U3,27,GPIO26*%
%TO.N,unconnected-(U3-GPIO26-Pad27)*%
X51790000Y-67500000D03*
%TO.P,U3,28,GND*%
%TO.N,GND*%
X53060000Y-67500000D03*
D26*
%TO.P,U3,29,GND*%
X46172000Y-57879800D03*
X44472000Y-57879800D03*
X42772000Y-57879800D03*
X46172000Y-59579800D03*
X44472000Y-59579800D03*
X42772000Y-59579800D03*
X46172000Y-61279800D03*
X44472000Y-61279800D03*
X42772000Y-61279800D03*
D27*
%TO.P,U3,30,GND*%
X54500000Y-62750000D03*
%TO.P,U3,31,ANT2*%
%TO.N,unconnected-(U3-ANT2-Pad31)*%
X54500000Y-61480000D03*
%TO.P,U3,32,GND*%
%TO.N,GND*%
X54500000Y-60210000D03*
%TD*%
D17*
%TO.P,R1,1*%
%TO.N,+3.3V*%
X39225000Y-30400000D03*
%TO.P,R1,2*%
%TO.N,A*%
X37575000Y-30400000D03*
%TD*%
D28*
%TO.P,U2,1,RO*%
%TO.N,BUS-RX*%
X31385000Y-35785000D03*
%TO.P,U2,2,~{RE}*%
%TO.N,GND*%
X31385000Y-36285000D03*
%TO.P,U2,3,DE*%
%TO.N,BUS-DE*%
X31385000Y-36785000D03*
%TO.P,U2,4,DI*%
%TO.N,BUS-TX*%
X31385000Y-37285000D03*
%TO.P,U2,5,GND*%
%TO.N,GND*%
X32865000Y-37285000D03*
%TO.P,U2,6,A*%
%TO.N,A*%
X32865000Y-36785000D03*
%TO.P,U2,7,B*%
%TO.N,B*%
X32865000Y-36285000D03*
%TO.P,U2,8,VCC*%
%TO.N,+3.3V*%
X32865000Y-35785000D03*
%TD*%
D24*
%TO.P,C6,1*%
%TO.N,Net-(SW1-A)*%
X61600000Y-56585000D03*
%TO.P,C6,2*%
%TO.N,GND*%
X61600000Y-55035000D03*
%TD*%
D29*
%TO.P,J2,1,Pin_1*%
%TO.N,ESP32-PROG-TX*%
X57865000Y-62640000D03*
%TO.P,J2,2,Pin_2*%
%TO.N,+3.3V*%
X59135000Y-62640000D03*
%TO.P,J2,3,Pin_3*%
%TO.N,GND*%
X57865000Y-63910000D03*
%TO.P,J2,4,Pin_4*%
%TO.N,ESP32-EN*%
X59135000Y-63910000D03*
%TO.P,J2,5,Pin_5*%
%TO.N,ESP32-PROG-RX*%
X57865000Y-65180000D03*
%TO.P,J2,6,Pin_6*%
%TO.N,BOOT0*%
X59135000Y-65180000D03*
%TD*%
D30*
%TO.N,GND*%
X44472000Y-59579800D03*
X54051200Y-49998800D03*
D31*
X29940000Y-39940000D03*
D30*
X54102000Y-67524800D03*
D31*
X42550000Y-41860000D03*
D30*
X56515000Y-47535000D03*
X46172000Y-59579800D03*
X46172000Y-61279800D03*
X53187600Y-60209600D03*
D31*
X59940000Y-44940000D03*
X39940000Y-34940000D03*
D30*
X64000000Y-37510000D03*
D31*
X49940000Y-54940000D03*
X31140000Y-33485000D03*
X39940000Y-64940000D03*
X24940000Y-29940000D03*
D30*
X53187600Y-62749600D03*
X50800000Y-46582500D03*
D31*
X49940000Y-39940000D03*
D30*
X35400000Y-32810000D03*
D31*
X62500000Y-53610000D03*
D30*
X44472000Y-61279800D03*
X44472000Y-57879800D03*
D31*
X44940000Y-24940000D03*
X54940000Y-29940000D03*
X48703750Y-47710000D03*
X32080000Y-36336717D03*
X24940000Y-59940000D03*
D30*
X46172000Y-57879800D03*
D31*
X57000000Y-64510000D03*
X64940000Y-34940000D03*
D30*
X42772000Y-57879800D03*
D31*
X59940000Y-59940000D03*
X30800000Y-30400000D03*
X62500000Y-55010000D03*
D30*
X42772000Y-59579800D03*
X42772000Y-61279800D03*
D31*
X34940000Y-54940000D03*
%TO.N,+3.3V*%
X29940000Y-54940000D03*
X44940000Y-29940000D03*
X40200000Y-46310000D03*
X34940000Y-39940000D03*
X35200000Y-50510000D03*
X54940000Y-34940000D03*
X64940000Y-39940000D03*
X30200000Y-46310000D03*
X49940000Y-44940000D03*
X64940000Y-59940000D03*
X59940000Y-24940000D03*
X30200000Y-50710000D03*
X29940000Y-24940000D03*
X44940000Y-54940000D03*
X34940000Y-64940000D03*
X59850000Y-62660000D03*
X59940000Y-49940000D03*
X49940000Y-64940000D03*
%TO.N,SPI-CLK*%
X44200000Y-48510000D03*
%TO.N,SPI-COPI*%
X42600000Y-48810000D03*
%TD*%
%TO.N,GND*%
D32*
X62475000Y-55035000D02*
X62500000Y-55010000D01*
D33*
X32275000Y-37285000D02*
X32125000Y-37135000D01*
X32028283Y-36285000D02*
X32080000Y-36336717D01*
D34*
X66900000Y-37510000D02*
X64000000Y-37510000D01*
D33*
X32125000Y-36381717D02*
X32080000Y-36336717D01*
D32*
X51752500Y-46582500D02*
X50800000Y-46582500D01*
X54077200Y-67500000D02*
X54102000Y-67524800D01*
X53188000Y-62750000D02*
X53187600Y-62749600D01*
X62475000Y-53635000D02*
X62500000Y-53610000D01*
X51752500Y-46582500D02*
X53340000Y-46582500D01*
D33*
X31150000Y-34385000D02*
X31150000Y-33495000D01*
X31575000Y-30400000D02*
X30800000Y-30400000D01*
D32*
X54050000Y-50000000D02*
X54051200Y-49998800D01*
D35*
X42800000Y-42997500D02*
X42800000Y-42110000D01*
D32*
X61600000Y-53635000D02*
X62475000Y-53635000D01*
X57865000Y-63910000D02*
X57600000Y-63910000D01*
X35400000Y-34110000D02*
X35400000Y-32810000D01*
X54500000Y-62750000D02*
X53188000Y-62750000D01*
D35*
X42800000Y-42110000D02*
X42550000Y-41860000D01*
D32*
X53060000Y-67500000D02*
X54077200Y-67500000D01*
X57600000Y-63910000D02*
X57000000Y-64510000D01*
D33*
X31385000Y-36285000D02*
X32028283Y-36285000D01*
D32*
X53188000Y-60210000D02*
X53187600Y-60209600D01*
D33*
X32125000Y-37135000D02*
X32125000Y-36381717D01*
D32*
X47696250Y-47710000D02*
X48703750Y-47710000D01*
D33*
X32865000Y-37285000D02*
X32275000Y-37285000D01*
D32*
X57990000Y-47535000D02*
X56515000Y-47535000D01*
X61600000Y-55035000D02*
X62475000Y-55035000D01*
X53060000Y-50000000D02*
X54050000Y-50000000D01*
X54500000Y-60210000D02*
X53188000Y-60210000D01*
%TO.N,+3.3V*%
X59830000Y-62640000D02*
X59850000Y-62660000D01*
X59135000Y-62640000D02*
X59830000Y-62640000D01*
%TO.N,ESP32-PROG-RX*%
X47980000Y-67500000D02*
X47980000Y-68232000D01*
X55200000Y-68782000D02*
X55736000Y-68246000D01*
X57410073Y-65180000D02*
X57865000Y-65180000D01*
X55736000Y-66854073D02*
X57410073Y-65180000D01*
X48530000Y-68782000D02*
X55200000Y-68782000D01*
X55736000Y-68246000D02*
X55736000Y-66854073D01*
X47980000Y-68232000D02*
X48530000Y-68782000D01*
%TO.N,ESP32-PROG-TX*%
X56720000Y-62640000D02*
X57865000Y-62640000D01*
X49639000Y-66349000D02*
X54161000Y-66349000D01*
X56350000Y-63010000D02*
X56720000Y-62640000D01*
X49250000Y-66738000D02*
X49639000Y-66349000D01*
X56350000Y-64160000D02*
X56350000Y-63010000D01*
X49250000Y-67500000D02*
X49250000Y-66738000D01*
X54161000Y-66349000D02*
X56350000Y-64160000D01*
%TO.N,ESP32-EN*%
D35*
X23730000Y-54236572D02*
X23730000Y-53890000D01*
D33*
X27432000Y-55155000D02*
X28194000Y-54393000D01*
D32*
X50520000Y-51630000D02*
X50870000Y-51980000D01*
D33*
X28702000Y-51980000D02*
X43434000Y-51980000D01*
D32*
X59135000Y-63910000D02*
X59900000Y-63910000D01*
X60600000Y-63210000D02*
X60600000Y-62126074D01*
X58200000Y-54910000D02*
X58500000Y-55210000D01*
D33*
X44196000Y-51472000D02*
X50362000Y-51472000D01*
D32*
X58500000Y-55210000D02*
X58500000Y-60026073D01*
D35*
X50520000Y-50000000D02*
X50520000Y-50582000D01*
D33*
X50362000Y-51472000D02*
X50520000Y-51630000D01*
D32*
X57300000Y-54910000D02*
X58200000Y-54910000D01*
X50520000Y-50000000D02*
X50520000Y-51630000D01*
D33*
X24995000Y-55155000D02*
X27432000Y-55155000D01*
X28194000Y-54393000D02*
X28194000Y-52488000D01*
D32*
X50870000Y-51980000D02*
X53800000Y-54910000D01*
D33*
X43434000Y-51980000D02*
X43688000Y-51980000D01*
X43688000Y-51980000D02*
X44196000Y-51472000D01*
X28194000Y-52488000D02*
X28702000Y-51980000D01*
D32*
X59900000Y-63910000D02*
X60600000Y-63210000D01*
X58500000Y-60026073D02*
X60441963Y-61968037D01*
D33*
X23730000Y-53890000D02*
X24995000Y-55155000D01*
D32*
X53800000Y-54910000D02*
X57300000Y-54910000D01*
X60600000Y-62126074D02*
X60441963Y-61968037D01*
%TO.N,A*%
X36550000Y-21910000D02*
X49870000Y-21910000D01*
X49870000Y-21910000D02*
X51420000Y-23460000D01*
X36350000Y-30525000D02*
X36225000Y-30400000D01*
X36350000Y-32235000D02*
X36350000Y-30525000D01*
X36289000Y-24749000D02*
X36289000Y-30336000D01*
X35000000Y-23460000D02*
X36289000Y-24749000D01*
X35000000Y-23460000D02*
X36550000Y-21910000D01*
D33*
X35475000Y-36785000D02*
X36350000Y-35910000D01*
D32*
X36289000Y-30336000D02*
X36225000Y-30400000D01*
D33*
X36350000Y-32235000D02*
X36350000Y-35910000D01*
D32*
X37575000Y-30400000D02*
X36225000Y-30400000D01*
D33*
X32865000Y-36785000D02*
X35475000Y-36785000D01*
%TO.N,SPI-CLK*%
D35*
X43800000Y-47222500D02*
X43800000Y-48122202D01*
D33*
X45440000Y-48950000D02*
X45000000Y-48510000D01*
D35*
X44200000Y-48510000D02*
X44187798Y-48510000D01*
X44187798Y-48510000D02*
X43800000Y-48122202D01*
D33*
X45440000Y-50000000D02*
X45440000Y-48950000D01*
X45000000Y-48510000D02*
X44200000Y-48510000D01*
%TO.N,SPI-COPI*%
D35*
X42800000Y-48610000D02*
X42600000Y-48810000D01*
X42800000Y-47222500D02*
X42800000Y-48610000D01*
D33*
X42900000Y-49110000D02*
X42600000Y-48810000D01*
X42900000Y-50000000D02*
X42900000Y-49110000D01*
%TO.N,B*%
D32*
X35000000Y-26000000D02*
X33400000Y-24400000D01*
D33*
X33875000Y-36285000D02*
X34450000Y-35710000D01*
D32*
X51300000Y-21210000D02*
X52671000Y-22581000D01*
X33400000Y-24400000D02*
X33400000Y-22510000D01*
X33225000Y-30400000D02*
X34575000Y-30400000D01*
X34575000Y-26425000D02*
X35000000Y-26000000D01*
X52671000Y-22581000D02*
X52671000Y-24749000D01*
X34450000Y-32235000D02*
X34450000Y-30525000D01*
X34700000Y-21210000D02*
X51300000Y-21210000D01*
X34575000Y-30400000D02*
X34575000Y-26425000D01*
D33*
X34450000Y-32235000D02*
X34450000Y-35710000D01*
D32*
X33400000Y-22510000D02*
X34700000Y-21210000D01*
X52671000Y-24749000D02*
X51420000Y-26000000D01*
D33*
X32865000Y-36285000D02*
X33875000Y-36285000D01*
D32*
X34450000Y-30525000D02*
X34575000Y-30400000D01*
%TO.N,BUS-DE*%
D33*
X28147500Y-36785000D02*
X27557500Y-37375000D01*
X25005000Y-37375000D02*
X23730000Y-38650000D01*
X31385000Y-36785000D02*
X28147500Y-36785000D01*
X27557500Y-37375000D02*
X25005000Y-37375000D01*
%TO.N,SPI-CIPO*%
X27686000Y-52234000D02*
X28448000Y-51472000D01*
X28448000Y-51472000D02*
X43434000Y-51472000D01*
X27178000Y-53890000D02*
X27686000Y-53382000D01*
X44170000Y-50736000D02*
X44170000Y-50000000D01*
X43434000Y-51472000D02*
X44170000Y-50736000D01*
D35*
X44170000Y-50000000D02*
X44170000Y-49480000D01*
X44170000Y-49480000D02*
X43300000Y-48610000D01*
X43300000Y-48610000D02*
X43300000Y-47222500D01*
D33*
X27686000Y-53382000D02*
X27686000Y-52234000D01*
X26270000Y-53890000D02*
X27178000Y-53890000D01*
%TO.N,+BATT*%
D35*
X46150000Y-44710000D02*
X45850000Y-45010000D01*
X43800000Y-44360000D02*
X43800000Y-42997500D01*
X46150000Y-37860000D02*
X46150000Y-44710000D01*
X45850000Y-45010000D02*
X44450000Y-45010000D01*
X44450000Y-45010000D02*
X43800000Y-44360000D01*
X45800000Y-37510000D02*
X46150000Y-37860000D01*
%TO.N,Net-(U1-X1)*%
X44800000Y-43147500D02*
X44800000Y-41210000D01*
X44800000Y-41210000D02*
X45250000Y-40760000D01*
%TO.N,Net-(U1-X2)*%
X44300000Y-43147500D02*
X44300000Y-41210000D01*
X44300000Y-41210000D02*
X43850000Y-40760000D01*
%TO.N,BOOT0*%
D32*
X60320000Y-65180000D02*
X59135000Y-65180000D01*
X55600000Y-69310000D02*
X57000000Y-67910000D01*
X60325000Y-67910000D02*
X60925000Y-67310000D01*
X37200000Y-68710000D02*
X47600000Y-68710000D01*
X48200000Y-69310000D02*
X55600000Y-69310000D01*
X60925000Y-67310000D02*
X60925000Y-65785000D01*
X57000000Y-67910000D02*
X60325000Y-67910000D01*
X47600000Y-68710000D02*
X48200000Y-69310000D01*
X60925000Y-65785000D02*
X60320000Y-65180000D01*
X36550000Y-67500000D02*
X36550000Y-68060000D01*
X36550000Y-68060000D02*
X37200000Y-68710000D01*
%TO.N,~{ESP32-INT}*%
D33*
X40360000Y-50000000D02*
X40360000Y-48906000D01*
X40360000Y-48906000D02*
X39624000Y-48170000D01*
X25005000Y-50075000D02*
X27559000Y-50075000D01*
X27559000Y-50075000D02*
X29464000Y-48170000D01*
X23730000Y-51350000D02*
X25005000Y-50075000D01*
X39624000Y-48170000D02*
X29464000Y-48170000D01*
%TO.N,~{RTC-CS}*%
X29462500Y-44360000D02*
X43000000Y-44360000D01*
D35*
X43300000Y-42997500D02*
X43300000Y-44060000D01*
X43300000Y-44060000D02*
X43000000Y-44360000D01*
D33*
X25005000Y-42455000D02*
X27557500Y-42455000D01*
X23730000Y-43730000D02*
X25005000Y-42455000D01*
X27557500Y-42455000D02*
X29462500Y-44360000D01*
%TO.N,~{ESP32-CS}*%
X41630000Y-48853000D02*
X40386000Y-47609000D01*
X41630000Y-50000000D02*
X41630000Y-48853000D01*
X23730000Y-48810000D02*
X25005000Y-47535000D01*
X25005000Y-47535000D02*
X40312000Y-47535000D01*
X40312000Y-47535000D02*
X40386000Y-47609000D01*
%TO.N,~{RTC-INT}*%
D35*
X44300000Y-47222500D02*
X44300000Y-45495000D01*
D33*
X23730000Y-46270000D02*
X25005000Y-44995000D01*
X25005000Y-44995000D02*
X43800000Y-44995000D01*
D35*
X44300000Y-45495000D02*
X43800000Y-44995000D01*
%TO.N,Net-(SW1-A)*%
D32*
X61025000Y-57410000D02*
X61600000Y-57985000D01*
X59700000Y-57410000D02*
X60775000Y-57410000D01*
X60775000Y-57410000D02*
X61600000Y-56585000D01*
X59700000Y-57410000D02*
X61025000Y-57410000D01*
%TO.N,Net-(SW1-C)*%
X59700000Y-52410000D02*
X61175000Y-52410000D01*
X61175000Y-52410000D02*
X61600000Y-51985000D01*
%TO.N,BUS-TX*%
D33*
X27600000Y-38350000D02*
X28665000Y-37285000D01*
X26800000Y-39915000D02*
X27600000Y-39115000D01*
X27600000Y-38510000D02*
X27600000Y-38350000D01*
X25005000Y-39915000D02*
X26800000Y-39915000D01*
X23730000Y-41190000D02*
X25005000Y-39915000D01*
X27600000Y-39115000D02*
X27600000Y-38510000D01*
X31385000Y-37285000D02*
X28665000Y-37285000D01*
%TO.N,BUS-RX*%
X24931000Y-34909000D02*
X27299000Y-34909000D01*
X28175000Y-35785000D02*
X31385000Y-35785000D01*
X23730000Y-36110000D02*
X24931000Y-34909000D01*
X27299000Y-34909000D02*
X28175000Y-35785000D01*
%TD*%
%TA.AperFunction,Conductor*%
%TO.N,+3.3V*%
G36*
X64149940Y-20505521D02*
G01*
X64160793Y-20508707D01*
X64219574Y-20546477D01*
X64248603Y-20610031D01*
X64238664Y-20679190D01*
X64238662Y-20679194D01*
X64236808Y-20683254D01*
X64204203Y-20720883D01*
X64205653Y-20722608D01*
X64194819Y-20731714D01*
X64191054Y-20736060D01*
X64188894Y-20736694D01*
X64079645Y-20828524D01*
X64079128Y-20828992D01*
X63828996Y-21079124D01*
X63604577Y-21352579D01*
X63604575Y-21352582D01*
X63604561Y-21352601D01*
X63408026Y-21646736D01*
X63408023Y-21646742D01*
X63408012Y-21646761D01*
X63241266Y-21958717D01*
X63241212Y-21958835D01*
X63240980Y-21959405D01*
X63105883Y-22285557D01*
X63003186Y-22624106D01*
X63003180Y-22624132D01*
X62934180Y-22971027D01*
X62934177Y-22971042D01*
X62934172Y-22971076D01*
X62917558Y-23139767D01*
X62911399Y-23202304D01*
X62899500Y-23323119D01*
X62899500Y-23676881D01*
X62903521Y-23717706D01*
X62909679Y-23780229D01*
X62934172Y-24028922D01*
X62934177Y-24028956D01*
X62934180Y-24028971D01*
X63003180Y-24375866D01*
X63003186Y-24375892D01*
X63058463Y-24558114D01*
X63098376Y-24689693D01*
X63105882Y-24714434D01*
X63105882Y-24714437D01*
X63193045Y-24924867D01*
X63234776Y-25025614D01*
X63236171Y-25028982D01*
X63240970Y-25040565D01*
X63241221Y-25041184D01*
X63241266Y-25041281D01*
X63333516Y-25213867D01*
X63408017Y-25353247D01*
X63408028Y-25353265D01*
X63604558Y-25647393D01*
X63604564Y-25647402D01*
X63604575Y-25647416D01*
X63604577Y-25647419D01*
X63828996Y-25920874D01*
X64079123Y-26171001D01*
X64079200Y-26171070D01*
X64079733Y-26171502D01*
X64352598Y-26395436D01*
X64458092Y-26465925D01*
X64646742Y-26591977D01*
X64647405Y-26592345D01*
X64648187Y-26592749D01*
X64953427Y-26755904D01*
X64953430Y-26755906D01*
X64956550Y-26757574D01*
X64957403Y-26758029D01*
X64958723Y-26758735D01*
X64962197Y-26760592D01*
X64967171Y-26762235D01*
X65285565Y-26894118D01*
X65624095Y-26996809D01*
X65624098Y-26996809D01*
X65624102Y-26996810D01*
X65624104Y-26996811D01*
X65624115Y-26996814D01*
X65624129Y-26996816D01*
X65624683Y-26996947D01*
X65625949Y-26997179D01*
X65841631Y-27040080D01*
X65841663Y-27040085D01*
X65841674Y-27040088D01*
X65971060Y-27065825D01*
X66323119Y-27100500D01*
X66323122Y-27100500D01*
X66676878Y-27100500D01*
X66676881Y-27100500D01*
X67028940Y-27065825D01*
X67200679Y-27031663D01*
X67370039Y-26997976D01*
X67370093Y-26997969D01*
X67373864Y-26997215D01*
X67375884Y-26996814D01*
X67375895Y-26996811D01*
X67375895Y-26996810D01*
X67375902Y-26996809D01*
X67375905Y-26996809D01*
X67375907Y-26996808D01*
X67376175Y-26996755D01*
X67377642Y-26996333D01*
X67406169Y-26988553D01*
X67407890Y-26987290D01*
X67414128Y-26985214D01*
X67714435Y-26894118D01*
X68041269Y-26758739D01*
X68353259Y-26591976D01*
X68647402Y-26395436D01*
X68920864Y-26171012D01*
X69171012Y-25920864D01*
X69268338Y-25802269D01*
X69294380Y-25778454D01*
X69303730Y-25772085D01*
X69370218Y-25750614D01*
X69437760Y-25768498D01*
X69484907Y-25820050D01*
X69486871Y-25824062D01*
X69499500Y-25878582D01*
X69499500Y-35992436D01*
X69494474Y-36027381D01*
X69490636Y-36040448D01*
X69452857Y-36099223D01*
X69389299Y-36128242D01*
X69327300Y-36121296D01*
X69319587Y-36118341D01*
X69295059Y-36105651D01*
X69247740Y-36074033D01*
X69247737Y-36074032D01*
X69247735Y-36074032D01*
X69247725Y-36074030D01*
X69247709Y-36074026D01*
X69174680Y-36059500D01*
X69174677Y-36059500D01*
X69174674Y-36059500D01*
X64625326Y-36059500D01*
X64625323Y-36059500D01*
X64625319Y-36059500D01*
X64552285Y-36074027D01*
X64552262Y-36074032D01*
X64552258Y-36074033D01*
X64469399Y-36129399D01*
X64414033Y-36212258D01*
X64414033Y-36212260D01*
X64414032Y-36212264D01*
X64414030Y-36212272D01*
X64414028Y-36212281D01*
X64399500Y-36285318D01*
X64399500Y-36617670D01*
X64394475Y-36652614D01*
X64390070Y-36667612D01*
X64352327Y-36726355D01*
X64350958Y-36727542D01*
X64296097Y-36755018D01*
X64288539Y-36756663D01*
X64262168Y-36759500D01*
X63926078Y-36759500D01*
X63781096Y-36788338D01*
X63781079Y-36788344D01*
X63644517Y-36844908D01*
X63644508Y-36844913D01*
X63644491Y-36844923D01*
X63521581Y-36927049D01*
X63521580Y-36927050D01*
X63521574Y-36927055D01*
X63417055Y-37031574D01*
X63417050Y-37031580D01*
X63417049Y-37031581D01*
X63334923Y-37154491D01*
X63334913Y-37154508D01*
X63334908Y-37154517D01*
X63278344Y-37291079D01*
X63278338Y-37291098D01*
X63249500Y-37436076D01*
X63249500Y-37539551D01*
X63244237Y-37557471D01*
X63278338Y-37728899D01*
X63278343Y-37728917D01*
X63334908Y-37865481D01*
X63334913Y-37865490D01*
X63334923Y-37865507D01*
X63417049Y-37988417D01*
X63417050Y-37988418D01*
X63417055Y-37988424D01*
X63521574Y-38092943D01*
X63521580Y-38092948D01*
X63521584Y-38092951D01*
X63644498Y-38175080D01*
X63644511Y-38175087D01*
X63644513Y-38175087D01*
X63644517Y-38175090D01*
X63703756Y-38199627D01*
X63771174Y-38227552D01*
X63775486Y-38229338D01*
X63779887Y-38231419D01*
X63781085Y-38231657D01*
X63781087Y-38231658D01*
X63781088Y-38231658D01*
X63781091Y-38231658D01*
X63781092Y-38231659D01*
X63828776Y-38241144D01*
X63926076Y-38260500D01*
X63926079Y-38260500D01*
X63926082Y-38260500D01*
X64257670Y-38260500D01*
X64292606Y-38265523D01*
X64307604Y-38269927D01*
X64366355Y-38307672D01*
X64367542Y-38309041D01*
X64395018Y-38363902D01*
X64396663Y-38371460D01*
X64399500Y-38397831D01*
X64399500Y-38734678D01*
X64399500Y-38734680D01*
X64399499Y-38734680D01*
X64414028Y-38807717D01*
X64414032Y-38807735D01*
X64414033Y-38807739D01*
X64414034Y-38807740D01*
X64469399Y-38890601D01*
X64552259Y-38945965D01*
X64552260Y-38945966D01*
X64552264Y-38945967D01*
X64552282Y-38945970D01*
X64552288Y-38945972D01*
X64597021Y-38954869D01*
X64617681Y-38958979D01*
X64620415Y-38959703D01*
X64625323Y-38960500D01*
X69174676Y-38960500D01*
X69175023Y-38960500D01*
X69175368Y-38960361D01*
X69247740Y-38945966D01*
X69302526Y-38909358D01*
X69314515Y-38904550D01*
X69317420Y-38904270D01*
X69323624Y-38901302D01*
X69336622Y-38897232D01*
X69406480Y-38895987D01*
X69465922Y-38932707D01*
X69494598Y-38988129D01*
X69496426Y-38996185D01*
X69499500Y-39023624D01*
X69499500Y-64115013D01*
X69494476Y-64149951D01*
X69491289Y-64160804D01*
X69453514Y-64219581D01*
X69389957Y-64248604D01*
X69320817Y-64238667D01*
X69316750Y-64236809D01*
X69272400Y-64202678D01*
X69171007Y-64079130D01*
X69171006Y-64079129D01*
X69171002Y-64079124D01*
X68920874Y-63828996D01*
X68835168Y-63758659D01*
X68648712Y-63605639D01*
X68647725Y-63604806D01*
X68647408Y-63604568D01*
X68647403Y-63604565D01*
X68647397Y-63604561D01*
X68470871Y-63486610D01*
X68353273Y-63408033D01*
X68353265Y-63408028D01*
X68353259Y-63408024D01*
X68353254Y-63408021D01*
X68353247Y-63408017D01*
X68353238Y-63408012D01*
X68353231Y-63408008D01*
X68167606Y-63308789D01*
X68041276Y-63241264D01*
X68041271Y-63241262D01*
X68041265Y-63241259D01*
X68041179Y-63241219D01*
X68040564Y-63240969D01*
X68003242Y-63225510D01*
X67922676Y-63192138D01*
X67714437Y-63105882D01*
X67375892Y-63003186D01*
X67375866Y-63003180D01*
X67028971Y-62934180D01*
X67028956Y-62934177D01*
X67028922Y-62934172D01*
X66762700Y-62907952D01*
X66762700Y-62907951D01*
X66696451Y-62901427D01*
X66676881Y-62899500D01*
X66676878Y-62899500D01*
X66323122Y-62899500D01*
X66323119Y-62899500D01*
X66306297Y-62901156D01*
X66243747Y-62907316D01*
X66243748Y-62907317D01*
X65971076Y-62934172D01*
X65971042Y-62934177D01*
X65971027Y-62934180D01*
X65624132Y-63003180D01*
X65624106Y-63003186D01*
X65285557Y-63105883D01*
X64959405Y-63240980D01*
X64958835Y-63241212D01*
X64958717Y-63241266D01*
X64646761Y-63408012D01*
X64646742Y-63408023D01*
X64646736Y-63408026D01*
X64352601Y-63604561D01*
X64352582Y-63604575D01*
X64352579Y-63604577D01*
X64079124Y-63828996D01*
X63828996Y-64079124D01*
X63604577Y-64352579D01*
X63604575Y-64352582D01*
X63604561Y-64352601D01*
X63408026Y-64646736D01*
X63408023Y-64646742D01*
X63408012Y-64646761D01*
X63241266Y-64958717D01*
X63241212Y-64958835D01*
X63240980Y-64959405D01*
X63105883Y-65285557D01*
X63003186Y-65624106D01*
X63003180Y-65624132D01*
X62934180Y-65971027D01*
X62934173Y-65971066D01*
X62934171Y-65971080D01*
X62921799Y-66096716D01*
X62921798Y-66096724D01*
X62899500Y-66323119D01*
X62899500Y-66676881D01*
X62899826Y-66680190D01*
X62904690Y-66729577D01*
X62934172Y-67028922D01*
X62934177Y-67028956D01*
X62934180Y-67028971D01*
X63003180Y-67375866D01*
X63003186Y-67375892D01*
X63105882Y-67714437D01*
X63154963Y-67832927D01*
X63184078Y-67903217D01*
X63236623Y-68030073D01*
X63236624Y-68030076D01*
X63236625Y-68030077D01*
X63240984Y-68040601D01*
X63241220Y-68041180D01*
X63241266Y-68041281D01*
X63351462Y-68247441D01*
X63408017Y-68353247D01*
X63408028Y-68353265D01*
X63604558Y-68647393D01*
X63604564Y-68647402D01*
X63604575Y-68647416D01*
X63604577Y-68647419D01*
X63828996Y-68920874D01*
X64079124Y-69171002D01*
X64079129Y-69171006D01*
X64079130Y-69171007D01*
X64090313Y-69180185D01*
X64197727Y-69268337D01*
X64221546Y-69294383D01*
X64227912Y-69303729D01*
X64249384Y-69370218D01*
X64231500Y-69437760D01*
X64179948Y-69484907D01*
X64175936Y-69486871D01*
X64121416Y-69499500D01*
X56364795Y-69499500D01*
X56329860Y-69494477D01*
X56319006Y-69491290D01*
X56260228Y-69453516D01*
X56231203Y-69389960D01*
X56241143Y-69320811D01*
X56244333Y-69313824D01*
X56269442Y-69277660D01*
X57137679Y-68409423D01*
X57165929Y-68388275D01*
X57189021Y-68375667D01*
X57248446Y-68360500D01*
X60384308Y-68360500D01*
X60384309Y-68360500D01*
X60474673Y-68336286D01*
X60498887Y-68329799D01*
X60601614Y-68270489D01*
X61285489Y-67586614D01*
X61344799Y-67483887D01*
X61367142Y-67400500D01*
X61375500Y-67369309D01*
X61375500Y-65725691D01*
X61359725Y-65666819D01*
X61351286Y-65635325D01*
X61351286Y-65635324D01*
X61348282Y-65624115D01*
X61348277Y-65624095D01*
X61344799Y-65611113D01*
X61285489Y-65508386D01*
X60596614Y-64819511D01*
X60557035Y-64796660D01*
X60549120Y-64792090D01*
X60549116Y-64792088D01*
X60545250Y-64789856D01*
X60493888Y-64760201D01*
X60481780Y-64756957D01*
X60470377Y-64753901D01*
X60470376Y-64753901D01*
X60469675Y-64753713D01*
X60469675Y-64753712D01*
X60469670Y-64753712D01*
X60441706Y-64746218D01*
X60431475Y-64743477D01*
X60431475Y-64743476D01*
X60379314Y-64729500D01*
X60379309Y-64729500D01*
X60379308Y-64729500D01*
X59664730Y-64729500D01*
X59629795Y-64724477D01*
X59604552Y-64717065D01*
X59551802Y-64685765D01*
X59545655Y-64679618D01*
X59545652Y-64679616D01*
X59535971Y-64673147D01*
X59510767Y-64656305D01*
X59479822Y-64626745D01*
X59473371Y-64617987D01*
X59449461Y-64552336D01*
X59461357Y-64490922D01*
X59461619Y-64490373D01*
X59461627Y-64490360D01*
X59463710Y-64486005D01*
X59506670Y-64436430D01*
X59545654Y-64410383D01*
X59545657Y-64410380D01*
X59546567Y-64409469D01*
X59548855Y-64407755D01*
X59550369Y-64406514D01*
X59550424Y-64406581D01*
X59574861Y-64388277D01*
X59597956Y-64375667D01*
X59657381Y-64360500D01*
X59959307Y-64360500D01*
X59959309Y-64360500D01*
X60034444Y-64340367D01*
X60050323Y-64336113D01*
X60050324Y-64336112D01*
X60073887Y-64329799D01*
X60176614Y-64270489D01*
X60960489Y-63486614D01*
X61005863Y-63408024D01*
X61019799Y-63383886D01*
X61050500Y-63269309D01*
X61050500Y-62066765D01*
X61019799Y-61952188D01*
X61019799Y-61952187D01*
X60960489Y-61849460D01*
X60718577Y-61607548D01*
X60407569Y-61296540D01*
X60127745Y-61016716D01*
X59825818Y-60714788D01*
X59804669Y-60686538D01*
X59799247Y-60676608D01*
X59784394Y-60608338D01*
X59808808Y-60542873D01*
X59864738Y-60501001D01*
X59868617Y-60499554D01*
X59871953Y-60498311D01*
X59915267Y-60490500D01*
X60012472Y-60490500D01*
X60012475Y-60490500D01*
X60152485Y-60452984D01*
X60278015Y-60380509D01*
X60380509Y-60278015D01*
X60452984Y-60152485D01*
X60490500Y-60012475D01*
X60490500Y-59885000D01*
X60927935Y-59885000D01*
X60939833Y-59960141D01*
X60939835Y-59960149D01*
X60939837Y-59960155D01*
X60963741Y-60007069D01*
X60997357Y-60073043D01*
X60997359Y-60073045D01*
X60997363Y-60073050D01*
X61086949Y-60162636D01*
X61086953Y-60162639D01*
X61199855Y-60220166D01*
X61293514Y-60234999D01*
X61850000Y-60234999D01*
X61906478Y-60234999D01*
X61906479Y-60234999D01*
X62000149Y-60220164D01*
X62000155Y-60220162D01*
X62113041Y-60162643D01*
X62113050Y-60162636D01*
X62202636Y-60073050D01*
X62202639Y-60073046D01*
X62260166Y-59960144D01*
X62260166Y-59960142D01*
X62260167Y-59960141D01*
X62272068Y-59885000D01*
X61850000Y-59885000D01*
X61850000Y-60234999D01*
X61293514Y-60234999D01*
X61349999Y-60234998D01*
X61350000Y-60234998D01*
X61350000Y-59885000D01*
X60927935Y-59885000D01*
X60490500Y-59885000D01*
X60490500Y-59867525D01*
X60452984Y-59727515D01*
X60398495Y-59633138D01*
X60380511Y-59601988D01*
X60380506Y-59601982D01*
X60278017Y-59499493D01*
X60278011Y-59499488D01*
X60220291Y-59466163D01*
X60216513Y-59463594D01*
X60197114Y-59439994D01*
X60195808Y-59438624D01*
X60141007Y-59423939D01*
X60141007Y-59423940D01*
X60076740Y-59406720D01*
X60012475Y-59389500D01*
X60012474Y-59389500D01*
X59867525Y-59389500D01*
X59738994Y-59423939D01*
X59738993Y-59423940D01*
X59731338Y-59425991D01*
X59727510Y-59427017D01*
X59601991Y-59499485D01*
X59601984Y-59499490D01*
X59601968Y-59499505D01*
X59499505Y-59601968D01*
X59499490Y-59601984D01*
X59499485Y-59601992D01*
X59427017Y-59727509D01*
X59423776Y-59735526D01*
X59422321Y-59734937D01*
X59391897Y-59786772D01*
X59377482Y-59796605D01*
X59389228Y-59819033D01*
X59390561Y-59859469D01*
X59389500Y-59867527D01*
X59389500Y-59961278D01*
X59384476Y-59996216D01*
X59381289Y-60007069D01*
X59343514Y-60065846D01*
X59279957Y-60094869D01*
X59210807Y-60084928D01*
X59203829Y-60081741D01*
X59167657Y-60056627D01*
X58999426Y-59888396D01*
X58978274Y-59860140D01*
X58965667Y-59837051D01*
X58950500Y-59777626D01*
X58950500Y-59385000D01*
X60927932Y-59385000D01*
X61350000Y-59385000D01*
X61850000Y-59385000D01*
X62272065Y-59385000D01*
X62260164Y-59309850D01*
X62260162Y-59309844D01*
X62202643Y-59196958D01*
X62202636Y-59196949D01*
X62113050Y-59107363D01*
X62113046Y-59107360D01*
X62113043Y-59107358D01*
X62113041Y-59107357D01*
X62059947Y-59080304D01*
X62000144Y-59049833D01*
X62000142Y-59049832D01*
X62000138Y-59049831D01*
X61906492Y-59035000D01*
X61906486Y-59035000D01*
X61850000Y-59035000D01*
X61850000Y-59385000D01*
X61350000Y-59385000D01*
X61350000Y-59034999D01*
X61293522Y-59034999D01*
X61199847Y-59049835D01*
X61199826Y-59049845D01*
X61086957Y-59107356D01*
X61086953Y-59107359D01*
X60997363Y-59196948D01*
X60997357Y-59196957D01*
X60939839Y-59309844D01*
X60939833Y-59309855D01*
X60927932Y-59385000D01*
X58950500Y-59385000D01*
X58950500Y-58302328D01*
X58955523Y-58267392D01*
X58959927Y-58252394D01*
X58997661Y-58193652D01*
X58997832Y-58193503D01*
X58999034Y-58192461D01*
X59053925Y-58164974D01*
X59061483Y-58163329D01*
X59087827Y-58160499D01*
X60381517Y-58160499D01*
X60381518Y-58160499D01*
X60475304Y-58145646D01*
X60588342Y-58088050D01*
X60588347Y-58088045D01*
X60650216Y-58026176D01*
X60650220Y-58026174D01*
X60678459Y-58005033D01*
X60688391Y-57999610D01*
X60705813Y-57995819D01*
X60711538Y-57992694D01*
X60718041Y-57993159D01*
X60756660Y-57984757D01*
X60822125Y-58009171D01*
X60863999Y-58065103D01*
X60864001Y-58065107D01*
X60866682Y-58072295D01*
X60874500Y-58115629D01*
X60874500Y-58239265D01*
X60876812Y-58263929D01*
X60876978Y-58267499D01*
X60877353Y-58269699D01*
X60877353Y-58269701D01*
X60922206Y-58397880D01*
X60922207Y-58397882D01*
X61002850Y-58507150D01*
X61112117Y-58587792D01*
X61112118Y-58587793D01*
X61240299Y-58632646D01*
X61240303Y-58632647D01*
X61258742Y-58634375D01*
X61270730Y-58635500D01*
X61270734Y-58635500D01*
X61270739Y-58635500D01*
X61929270Y-58635500D01*
X61929271Y-58635500D01*
X61930576Y-58635377D01*
X61959699Y-58632646D01*
X61959701Y-58632646D01*
X62023790Y-58610219D01*
X62087882Y-58587793D01*
X62197150Y-58507150D01*
X62277793Y-58397882D01*
X62300219Y-58333790D01*
X62322646Y-58269701D01*
X62322646Y-58269699D01*
X62325500Y-58239269D01*
X62325500Y-57730730D01*
X62323187Y-57706078D01*
X62323020Y-57702502D01*
X62322646Y-57700300D01*
X62322646Y-57700298D01*
X62277793Y-57572119D01*
X62277792Y-57572117D01*
X62277792Y-57572116D01*
X62197151Y-57462852D01*
X62197152Y-57462852D01*
X62197150Y-57462850D01*
X62131302Y-57414253D01*
X62106178Y-57389466D01*
X62097786Y-57378412D01*
X62072927Y-57313114D01*
X62087308Y-57244761D01*
X62090895Y-57238083D01*
X62125820Y-57197496D01*
X62189687Y-57149687D01*
X62271628Y-57040226D01*
X62319412Y-56912114D01*
X62321687Y-56890944D01*
X62325499Y-56855501D01*
X62325499Y-56855494D01*
X62325500Y-56855485D01*
X62325499Y-56314516D01*
X62319413Y-56257896D01*
X62319412Y-56257885D01*
X62301588Y-56210101D01*
X62271628Y-56129774D01*
X62189687Y-56020313D01*
X62189685Y-56020312D01*
X62189685Y-56020311D01*
X62128513Y-55974519D01*
X62123911Y-55971074D01*
X62080228Y-55938373D01*
X62080226Y-55938372D01*
X62052994Y-55928214D01*
X62042760Y-55921939D01*
X62040509Y-55919450D01*
X62033268Y-55915496D01*
X62024216Y-55908720D01*
X61982344Y-55852788D01*
X61977358Y-55783096D01*
X62010839Y-55721776D01*
X62014524Y-55718091D01*
X62058870Y-55689592D01*
X62080226Y-55681628D01*
X62189687Y-55599687D01*
X62192876Y-55595427D01*
X62217831Y-55570468D01*
X62230346Y-55561098D01*
X62295801Y-55536683D01*
X62306469Y-55535919D01*
X62308805Y-55535752D01*
X62349755Y-55539661D01*
X62427525Y-55560500D01*
X62427528Y-55560500D01*
X62572472Y-55560500D01*
X62572475Y-55560500D01*
X62712485Y-55522984D01*
X62838015Y-55450509D01*
X62940509Y-55348015D01*
X63012984Y-55222485D01*
X63050500Y-55082475D01*
X63050500Y-54937525D01*
X63012984Y-54797515D01*
X63012982Y-54797512D01*
X63012983Y-54797512D01*
X62998089Y-54771716D01*
X62998088Y-54771715D01*
X62940511Y-54671988D01*
X62940508Y-54671984D01*
X62940493Y-54671968D01*
X62838030Y-54569505D01*
X62838014Y-54569490D01*
X62838011Y-54569488D01*
X62788454Y-54540876D01*
X62788452Y-54540875D01*
X62712488Y-54497017D01*
X62712489Y-54497017D01*
X62687051Y-54490201D01*
X62676040Y-54487250D01*
X62676039Y-54487250D01*
X62600390Y-54466980D01*
X62572475Y-54459500D01*
X62572474Y-54459500D01*
X62427523Y-54459500D01*
X62317145Y-54489075D01*
X62282101Y-54493265D01*
X62258588Y-54492705D01*
X62204719Y-54478955D01*
X62202725Y-54477927D01*
X62185237Y-54466980D01*
X62130561Y-54426051D01*
X62105605Y-54401096D01*
X62097287Y-54389985D01*
X62072868Y-54324521D01*
X62087717Y-54256251D01*
X62091351Y-54249596D01*
X62126546Y-54209256D01*
X62173842Y-54174352D01*
X62179500Y-54170176D01*
X62193658Y-54161144D01*
X62206479Y-54154138D01*
X62206480Y-54154139D01*
X62224699Y-54144184D01*
X62287078Y-54129037D01*
X62297503Y-54129283D01*
X62326658Y-54133472D01*
X62427525Y-54160500D01*
X62427528Y-54160500D01*
X62572472Y-54160500D01*
X62572475Y-54160500D01*
X62712485Y-54122984D01*
X62838015Y-54050509D01*
X62940509Y-53948015D01*
X63012984Y-53822485D01*
X63050500Y-53682475D01*
X63050500Y-53537525D01*
X63012984Y-53397515D01*
X63003295Y-53380734D01*
X62985723Y-53350298D01*
X62940513Y-53271991D01*
X62940508Y-53271984D01*
X62940493Y-53271968D01*
X62838030Y-53169505D01*
X62838014Y-53169490D01*
X62838006Y-53169485D01*
X62784243Y-53138445D01*
X62755808Y-53108624D01*
X62701007Y-53093939D01*
X62701007Y-53093940D01*
X62636405Y-53076630D01*
X62572475Y-53059500D01*
X62572474Y-53059500D01*
X62427525Y-53059500D01*
X62320994Y-53088045D01*
X62320993Y-53088045D01*
X62283600Y-53098064D01*
X62264760Y-53101579D01*
X62250552Y-53103106D01*
X62243556Y-53103857D01*
X62181201Y-53094431D01*
X62172598Y-53090720D01*
X62148074Y-53076630D01*
X62087882Y-53032206D01*
X61959704Y-52987354D01*
X61959702Y-52987353D01*
X61959700Y-52987353D01*
X61929270Y-52984500D01*
X61929266Y-52984500D01*
X61929264Y-52984500D01*
X61554795Y-52984500D01*
X61519860Y-52979477D01*
X61509006Y-52976290D01*
X61450228Y-52938516D01*
X61421203Y-52874960D01*
X61431143Y-52805811D01*
X61434333Y-52798824D01*
X61459442Y-52762660D01*
X61537679Y-52684423D01*
X61565929Y-52663275D01*
X61589021Y-52650667D01*
X61648446Y-52635500D01*
X61929271Y-52635500D01*
X61930576Y-52635377D01*
X61959699Y-52632646D01*
X61959701Y-52632646D01*
X62023790Y-52610219D01*
X62087882Y-52587793D01*
X62197150Y-52507150D01*
X62277793Y-52397882D01*
X62300219Y-52333790D01*
X62322646Y-52269701D01*
X62322646Y-52269699D01*
X62325500Y-52239269D01*
X62325500Y-51730730D01*
X62324927Y-51724625D01*
X62323188Y-51706079D01*
X62323020Y-51702502D01*
X62322646Y-51700300D01*
X62322646Y-51700298D01*
X62277793Y-51572119D01*
X62277792Y-51572117D01*
X62277792Y-51572116D01*
X62197151Y-51462851D01*
X62197150Y-51462850D01*
X62087882Y-51382207D01*
X62087880Y-51382206D01*
X62086011Y-51381552D01*
X61959704Y-51337354D01*
X61959702Y-51337353D01*
X61959700Y-51337353D01*
X61929270Y-51334500D01*
X61929266Y-51334500D01*
X61929264Y-51334500D01*
X61270734Y-51334500D01*
X61270730Y-51334500D01*
X61252074Y-51336249D01*
X61246069Y-51336812D01*
X61242499Y-51336978D01*
X61240297Y-51337353D01*
X61112118Y-51382206D01*
X61002849Y-51462849D01*
X60922206Y-51572118D01*
X60877353Y-51700297D01*
X60876978Y-51702499D01*
X60876811Y-51706072D01*
X60876152Y-51713111D01*
X60867889Y-51747418D01*
X60863539Y-51758337D01*
X60820441Y-51813331D01*
X60754453Y-51836294D01*
X60687719Y-51820615D01*
X60678291Y-51815331D01*
X60651238Y-51794845D01*
X60588347Y-51731954D01*
X60588344Y-51731952D01*
X60588342Y-51731950D01*
X60588340Y-51731949D01*
X60588339Y-51731948D01*
X60511519Y-51692805D01*
X60511519Y-51692806D01*
X60510258Y-51692163D01*
X60475301Y-51674352D01*
X60475299Y-51674351D01*
X60475298Y-51674351D01*
X60475296Y-51674350D01*
X60381530Y-51659500D01*
X60381524Y-51659500D01*
X59018482Y-51659500D01*
X59018478Y-51659500D01*
X58953846Y-51669736D01*
X58953842Y-51669737D01*
X58937519Y-51672323D01*
X58924696Y-51674354D01*
X58811658Y-51731950D01*
X58811657Y-51731951D01*
X58811652Y-51731954D01*
X58808652Y-51734953D01*
X58808649Y-51734955D01*
X58721953Y-51821651D01*
X58702752Y-51859336D01*
X58702751Y-51859337D01*
X58664353Y-51934695D01*
X58664350Y-51934703D01*
X58649500Y-52028469D01*
X58649500Y-52028475D01*
X58649500Y-52791517D01*
X58656591Y-52836286D01*
X58664354Y-52885304D01*
X58721950Y-52998342D01*
X58721952Y-52998344D01*
X58721954Y-52998347D01*
X58811652Y-53088045D01*
X58811654Y-53088046D01*
X58811658Y-53088050D01*
X58910338Y-53138330D01*
X58924698Y-53145647D01*
X59018220Y-53160458D01*
X59018457Y-53160497D01*
X59018466Y-53160497D01*
X59018475Y-53160499D01*
X59018481Y-53160500D01*
X60381518Y-53160499D01*
X60475304Y-53145646D01*
X60588342Y-53088050D01*
X60678050Y-52998342D01*
X60705693Y-52944086D01*
X60726028Y-52915241D01*
X60737752Y-52902828D01*
X60795520Y-52868277D01*
X60808371Y-52864800D01*
X60840745Y-52860500D01*
X60950111Y-52860500D01*
X60985038Y-52865521D01*
X60995891Y-52868707D01*
X61054672Y-52906477D01*
X61083701Y-52970031D01*
X61073763Y-53039187D01*
X61072412Y-53042146D01*
X61033254Y-53090410D01*
X61024310Y-53097012D01*
X61024304Y-53097016D01*
X61002851Y-53112848D01*
X61002847Y-53112852D01*
X60922206Y-53222118D01*
X60877353Y-53350297D01*
X60876978Y-53352499D01*
X60876812Y-53356069D01*
X60874500Y-53380732D01*
X60874500Y-53889265D01*
X60876812Y-53913929D01*
X60876978Y-53917499D01*
X60877353Y-53919701D01*
X60922205Y-54047879D01*
X60922206Y-54047880D01*
X60922207Y-54047882D01*
X60995876Y-54147701D01*
X61002851Y-54157151D01*
X61068690Y-54205742D01*
X61093816Y-54230528D01*
X61102210Y-54241584D01*
X61127070Y-54306881D01*
X61112683Y-54375252D01*
X61109099Y-54381923D01*
X61074176Y-54422503D01*
X61010317Y-54470308D01*
X61010316Y-54470309D01*
X61010315Y-54470310D01*
X60977392Y-54514289D01*
X60928373Y-54579770D01*
X60928372Y-54579771D01*
X60918242Y-54606932D01*
X60893979Y-54671985D01*
X60893978Y-54671988D01*
X60880587Y-54707888D01*
X60880586Y-54707891D01*
X60874500Y-54764489D01*
X60874500Y-54764498D01*
X60874500Y-55305481D01*
X60874501Y-55305490D01*
X60880587Y-55362114D01*
X60922872Y-55475480D01*
X60924740Y-55480489D01*
X60924742Y-55480495D01*
X60928372Y-55490226D01*
X61010313Y-55599687D01*
X61119774Y-55681628D01*
X61135755Y-55687588D01*
X61166732Y-55704503D01*
X61172845Y-55709079D01*
X61175789Y-55711283D01*
X61217657Y-55767219D01*
X61222638Y-55836911D01*
X61189154Y-55898227D01*
X61185476Y-55901905D01*
X61141130Y-55930405D01*
X61119776Y-55938369D01*
X61119773Y-55938371D01*
X61010313Y-56020313D01*
X60928374Y-56129768D01*
X60928373Y-56129771D01*
X60880589Y-56257885D01*
X60880587Y-56257890D01*
X60880585Y-56257896D01*
X60874500Y-56314489D01*
X60874500Y-56604204D01*
X60869476Y-56639141D01*
X60862064Y-56664382D01*
X60830768Y-56717128D01*
X60802432Y-56745463D01*
X60774180Y-56766611D01*
X60760458Y-56774104D01*
X60692195Y-56788958D01*
X60691521Y-56788909D01*
X60690388Y-56788828D01*
X60632183Y-56769458D01*
X60625672Y-56765274D01*
X60605034Y-56748641D01*
X60588353Y-56731959D01*
X60588341Y-56731949D01*
X60504191Y-56689072D01*
X60504190Y-56689072D01*
X60475303Y-56674352D01*
X60475295Y-56674350D01*
X60381530Y-56659500D01*
X60381524Y-56659500D01*
X59092330Y-56659500D01*
X59057389Y-56654475D01*
X59042390Y-56650070D01*
X58983644Y-56612327D01*
X58982457Y-56610958D01*
X58954977Y-56556083D01*
X58953332Y-56548521D01*
X58950500Y-56522168D01*
X58950500Y-55150693D01*
X58950500Y-55150691D01*
X58919799Y-55036114D01*
X58919799Y-55036113D01*
X58860489Y-54933386D01*
X58476614Y-54549511D01*
X58405671Y-54508551D01*
X58377934Y-54486737D01*
X58356568Y-54464329D01*
X58335833Y-54435062D01*
X58287695Y-54340588D01*
X58287693Y-54340585D01*
X58278050Y-54321658D01*
X58278047Y-54321655D01*
X58278045Y-54321652D01*
X58278044Y-54321650D01*
X58188355Y-54231961D01*
X58188349Y-54231956D01*
X58188347Y-54231954D01*
X58188344Y-54231952D01*
X58188342Y-54231950D01*
X58188340Y-54231949D01*
X58188339Y-54231948D01*
X58111519Y-54192805D01*
X58111519Y-54192806D01*
X58110258Y-54192163D01*
X58075301Y-54174352D01*
X58075299Y-54174351D01*
X58075298Y-54174351D01*
X58075296Y-54174350D01*
X57981530Y-54159500D01*
X57981524Y-54159500D01*
X56618482Y-54159500D01*
X56618478Y-54159500D01*
X56553846Y-54169736D01*
X56553842Y-54169737D01*
X56537519Y-54172323D01*
X56524696Y-54174354D01*
X56411658Y-54231950D01*
X56411657Y-54231951D01*
X56411652Y-54231954D01*
X56408652Y-54234953D01*
X56408649Y-54234955D01*
X56321953Y-54321651D01*
X56294305Y-54375912D01*
X56273969Y-54404758D01*
X56262249Y-54417167D01*
X56204489Y-54451719D01*
X56191643Y-54455195D01*
X56159255Y-54459500D01*
X54055796Y-54459500D01*
X54020860Y-54454477D01*
X53995618Y-54447065D01*
X53942873Y-54415769D01*
X51241898Y-51714795D01*
X51241878Y-51714773D01*
X51019426Y-51492322D01*
X50998274Y-51464066D01*
X50985667Y-51440977D01*
X50970500Y-51381552D01*
X50970500Y-51124901D01*
X50975522Y-51089969D01*
X50975603Y-51089694D01*
X50980789Y-51072030D01*
X51014373Y-51017054D01*
X51015627Y-51015862D01*
X51057848Y-50993994D01*
X51056458Y-50990638D01*
X51067736Y-50985966D01*
X51067740Y-50985966D01*
X51119541Y-50951353D01*
X51159405Y-50933902D01*
X51168832Y-50931652D01*
X51169106Y-50931566D01*
X51171342Y-50931028D01*
X51204247Y-50932654D01*
X51233575Y-50933124D01*
X51233826Y-50932210D01*
X51275770Y-50943716D01*
X51281624Y-50942714D01*
X51291451Y-50944261D01*
X51304187Y-50946794D01*
X51317344Y-50949412D01*
X51319560Y-50949909D01*
X51320299Y-50950000D01*
X51320301Y-50950000D01*
X51540000Y-50950000D01*
X51540000Y-49050000D01*
X52040000Y-49050000D01*
X52040000Y-50950000D01*
X52259699Y-50950000D01*
X52259700Y-50950000D01*
X52264606Y-50949203D01*
X52267330Y-50948481D01*
X52289068Y-50944158D01*
X52303805Y-50945477D01*
X52330695Y-50937051D01*
X52330696Y-50937052D01*
X52342568Y-50933331D01*
X52412423Y-50932071D01*
X52425557Y-50935671D01*
X52461656Y-50952154D01*
X52497942Y-50976399D01*
X52497942Y-50976400D01*
X52512256Y-50985964D01*
X52512257Y-50985964D01*
X52512260Y-50985966D01*
X52512264Y-50985967D01*
X52512280Y-50985970D01*
X52512288Y-50985972D01*
X52552618Y-50993994D01*
X52577681Y-50998979D01*
X52580415Y-50999703D01*
X52585323Y-51000500D01*
X53534676Y-51000500D01*
X53538796Y-51000500D01*
X53546648Y-50998117D01*
X53607740Y-50985966D01*
X53690601Y-50930601D01*
X53745966Y-50847740D01*
X53760500Y-50774674D01*
X53760500Y-50773143D01*
X53760979Y-50769808D01*
X53761097Y-50768614D01*
X53761150Y-50768619D01*
X53765522Y-50738210D01*
X53769433Y-50724891D01*
X53807206Y-50666114D01*
X53870758Y-50637089D01*
X53881664Y-50635521D01*
X53923496Y-50636641D01*
X53953047Y-50642520D01*
X53970088Y-50645910D01*
X53987129Y-50649300D01*
X54115271Y-50649300D01*
X54115273Y-50649300D01*
X54199815Y-50632482D01*
X54240944Y-50624301D01*
X54359327Y-50575265D01*
X54465869Y-50504076D01*
X54556476Y-50413469D01*
X54627665Y-50306927D01*
X54676701Y-50188544D01*
X54701700Y-50062869D01*
X54701700Y-49934731D01*
X54701700Y-49934728D01*
X54701700Y-49934725D01*
X54676495Y-49808020D01*
X54674924Y-49804747D01*
X54674673Y-49804162D01*
X54627665Y-49690673D01*
X54627664Y-49690672D01*
X54627661Y-49690666D01*
X54556476Y-49584131D01*
X54556473Y-49584127D01*
X54556468Y-49584121D01*
X54465877Y-49493530D01*
X54465871Y-49493525D01*
X54465870Y-49493524D01*
X54359327Y-49422334D01*
X54359328Y-49422334D01*
X54359318Y-49422329D01*
X54240953Y-49373302D01*
X54240933Y-49373295D01*
X54240925Y-49373293D01*
X54115274Y-49348300D01*
X54115271Y-49348300D01*
X54115269Y-49348300D01*
X53987131Y-49348300D01*
X53987126Y-49348300D01*
X53987124Y-49348300D01*
X53926178Y-49360423D01*
X53890934Y-49362313D01*
X53877110Y-49361076D01*
X53812092Y-49335494D01*
X53771226Y-49278823D01*
X53767560Y-49268430D01*
X53760500Y-49227186D01*
X53760500Y-49225139D01*
X53760064Y-49223134D01*
X53745972Y-49152289D01*
X53745967Y-49152266D01*
X53745967Y-49152264D01*
X53745966Y-49152260D01*
X53745965Y-49152258D01*
X53745964Y-49152256D01*
X53690601Y-49069399D01*
X53629967Y-49028885D01*
X53615924Y-49017967D01*
X53587870Y-48992728D01*
X53589493Y-48990923D01*
X53558138Y-48957215D01*
X53545765Y-48888450D01*
X53572533Y-48823911D01*
X53584583Y-48810978D01*
X53585669Y-48809968D01*
X53632208Y-48782701D01*
X53632898Y-48782480D01*
X53651394Y-48778073D01*
X53722967Y-48766737D01*
X53842923Y-48705616D01*
X53842928Y-48705613D01*
X53938113Y-48610428D01*
X53938116Y-48610423D01*
X53955719Y-48575876D01*
X53999238Y-48490469D01*
X53999240Y-48490461D01*
X54015000Y-48390956D01*
X54015000Y-48382500D01*
X52674520Y-48382500D01*
X52678296Y-48436393D01*
X52682295Y-48493478D01*
X52682296Y-48493480D01*
X52741871Y-48610401D01*
X52741887Y-48610430D01*
X52837068Y-48705611D01*
X52837070Y-48705612D01*
X52837071Y-48705613D01*
X52837076Y-48705616D01*
X52937765Y-48756921D01*
X52966902Y-48784439D01*
X52990061Y-48802556D01*
X52995835Y-48819102D01*
X52997095Y-48821719D01*
X52996798Y-48821861D01*
X53013083Y-48868524D01*
X52996785Y-48936466D01*
X52946343Y-48984812D01*
X52913019Y-48996441D01*
X52909145Y-48997198D01*
X52885365Y-48999500D01*
X52585318Y-48999500D01*
X52512265Y-49014031D01*
X52512262Y-49014032D01*
X52512255Y-49014035D01*
X52463259Y-49046772D01*
X52431423Y-49062003D01*
X52416508Y-49066673D01*
X52346649Y-49067919D01*
X52304213Y-49056277D01*
X52298356Y-49057280D01*
X52288525Y-49055732D01*
X52259704Y-49050000D01*
X52259702Y-49050000D01*
X52040000Y-49050000D01*
X51540000Y-49050000D01*
X51320293Y-49050000D01*
X51291780Y-49055670D01*
X51291633Y-49055701D01*
X51261966Y-49061602D01*
X51259944Y-49062439D01*
X51249971Y-49064560D01*
X51249305Y-49062951D01*
X51231839Y-49068415D01*
X51226144Y-49069627D01*
X51196871Y-49067395D01*
X51167524Y-49067913D01*
X51167522Y-49067912D01*
X51154382Y-49064304D01*
X51118325Y-49047833D01*
X51067740Y-49014033D01*
X51067737Y-49014032D01*
X51067735Y-49014032D01*
X51067725Y-49014030D01*
X51067709Y-49014026D01*
X50994680Y-48999500D01*
X50994677Y-48999500D01*
X50994674Y-48999500D01*
X50045326Y-48999500D01*
X50045323Y-48999500D01*
X50016261Y-49005280D01*
X49972266Y-49014031D01*
X49972258Y-49014034D01*
X49968704Y-49016409D01*
X49936870Y-49031636D01*
X49921953Y-49036306D01*
X49852104Y-49037553D01*
X49847381Y-49036257D01*
X49841260Y-49034578D01*
X49820842Y-49022708D01*
X49820526Y-49023472D01*
X49793927Y-49012454D01*
X49785763Y-49011650D01*
X49724681Y-48999500D01*
X49724677Y-48999500D01*
X49724674Y-48999500D01*
X48775326Y-48999500D01*
X48775323Y-48999500D01*
X48746261Y-49005280D01*
X48702266Y-49014031D01*
X48702258Y-49014034D01*
X48698704Y-49016409D01*
X48666870Y-49031636D01*
X48651953Y-49036306D01*
X48582104Y-49037553D01*
X48577381Y-49036257D01*
X48571260Y-49034578D01*
X48550842Y-49022708D01*
X48550526Y-49023472D01*
X48523927Y-49012454D01*
X48515763Y-49011650D01*
X48454681Y-48999500D01*
X48454677Y-48999500D01*
X48454674Y-48999500D01*
X47505326Y-48999500D01*
X47505323Y-48999500D01*
X47476261Y-49005280D01*
X47432266Y-49014031D01*
X47432258Y-49014034D01*
X47428704Y-49016409D01*
X47396870Y-49031636D01*
X47381953Y-49036306D01*
X47312104Y-49037553D01*
X47307381Y-49036257D01*
X47301260Y-49034578D01*
X47280842Y-49022708D01*
X47280526Y-49023472D01*
X47253927Y-49012454D01*
X47245763Y-49011650D01*
X47184681Y-48999500D01*
X47184677Y-48999500D01*
X47184674Y-48999500D01*
X46235326Y-48999500D01*
X46235323Y-48999500D01*
X46206261Y-49005280D01*
X46162266Y-49014031D01*
X46162258Y-49014034D01*
X46158704Y-49016409D01*
X46126875Y-49031635D01*
X46106687Y-49037956D01*
X46036828Y-49039202D01*
X46000744Y-49022723D01*
X45987739Y-49014033D01*
X45951104Y-49006745D01*
X45937033Y-49000762D01*
X45936790Y-49000766D01*
X45929869Y-48997716D01*
X45904502Y-48986931D01*
X45903171Y-48986005D01*
X45900508Y-48984049D01*
X45899902Y-48983732D01*
X45896510Y-48981373D01*
X45876499Y-48956502D01*
X45859340Y-48937229D01*
X45858129Y-48937919D01*
X45855801Y-48933830D01*
X45853289Y-48929419D01*
X45841251Y-48900083D01*
X45840331Y-48896643D01*
X45840323Y-48896611D01*
X45813207Y-48795412D01*
X45760480Y-48704087D01*
X45615098Y-48558705D01*
X45595430Y-48522686D01*
X45578671Y-48493007D01*
X45582661Y-48423252D01*
X45623731Y-48366727D01*
X45688841Y-48341380D01*
X45724070Y-48343394D01*
X45729885Y-48344573D01*
X45761542Y-48355614D01*
X45788278Y-48369237D01*
X45788284Y-48369239D01*
X45887793Y-48384999D01*
X45887804Y-48385000D01*
X45896249Y-48384999D01*
X45896250Y-48384998D01*
X45896250Y-47960000D01*
X45496251Y-47960000D01*
X45496251Y-47993449D01*
X45502739Y-48034417D01*
X45512012Y-48092968D01*
X45515196Y-48099217D01*
X45522825Y-48114190D01*
X45525223Y-48118895D01*
X45538093Y-48162559D01*
X45538982Y-48171241D01*
X45535902Y-48171556D01*
X45540344Y-48189321D01*
X45517954Y-48255506D01*
X45463336Y-48299080D01*
X45393831Y-48306207D01*
X45360398Y-48294897D01*
X45359579Y-48294482D01*
X45327948Y-48271555D01*
X45245913Y-48189520D01*
X45205433Y-48166148D01*
X45194660Y-48156431D01*
X45193505Y-48156043D01*
X45174383Y-48138140D01*
X45166988Y-48131470D01*
X45165642Y-48129610D01*
X45164398Y-48127750D01*
X45163971Y-48127303D01*
X45161560Y-48123971D01*
X45150852Y-48093791D01*
X45141288Y-48070520D01*
X45139841Y-48070800D01*
X45139482Y-48068941D01*
X45139566Y-48066329D01*
X45138682Y-48064177D01*
X45138681Y-48064167D01*
X45138265Y-48060191D01*
X45138907Y-48060123D01*
X45138198Y-48058123D01*
X45140095Y-48050027D01*
X45141261Y-48014080D01*
X45141644Y-48012614D01*
X45148177Y-47993889D01*
X45172210Y-47939462D01*
X45174674Y-47918219D01*
X45175000Y-47915883D01*
X45175000Y-47426537D01*
X45496250Y-47426537D01*
X45496250Y-47426543D01*
X45496250Y-47460000D01*
X45896250Y-47460000D01*
X45896250Y-47035000D01*
X46396250Y-47035000D01*
X46396250Y-48384999D01*
X46404699Y-48384999D01*
X46404704Y-48384999D01*
X46504214Y-48369238D01*
X46504215Y-48369237D01*
X46504217Y-48369237D01*
X46624173Y-48308116D01*
X46624178Y-48308113D01*
X46719363Y-48212928D01*
X46719366Y-48212923D01*
X46772171Y-48109289D01*
X46792026Y-48080958D01*
X46808306Y-48063525D01*
X46819325Y-48047405D01*
X46883679Y-48020195D01*
X46952528Y-48032096D01*
X46981667Y-48052012D01*
X46984658Y-48054758D01*
X47017010Y-48102794D01*
X47049621Y-48190226D01*
X47054324Y-48196508D01*
X47059523Y-48203453D01*
X47059984Y-48204068D01*
X47059986Y-48204071D01*
X47131561Y-48299685D01*
X47131562Y-48299685D01*
X47131563Y-48299687D01*
X47241024Y-48381628D01*
X47369136Y-48429412D01*
X47425765Y-48435500D01*
X47966734Y-48435499D01*
X48023364Y-48429412D01*
X48126486Y-48390949D01*
X51077501Y-48390949D01*
X51093262Y-48490467D01*
X51151156Y-48604089D01*
X51154384Y-48610424D01*
X51154387Y-48610430D01*
X51249568Y-48705611D01*
X51249570Y-48705612D01*
X51249571Y-48705613D01*
X51249576Y-48705616D01*
X51295710Y-48729122D01*
X51328690Y-48760270D01*
X51369532Y-48766738D01*
X51369534Y-48766739D01*
X51369533Y-48766739D01*
X51469043Y-48782499D01*
X52002500Y-48782499D01*
X52035949Y-48782499D01*
X52035954Y-48782499D01*
X52135464Y-48766738D01*
X52135465Y-48766737D01*
X52135467Y-48766737D01*
X52255423Y-48705616D01*
X52255428Y-48705613D01*
X52350613Y-48610428D01*
X52350616Y-48610423D01*
X52411739Y-48490465D01*
X52411740Y-48490461D01*
X52422250Y-48424106D01*
X52422250Y-48382500D01*
X52002500Y-48382500D01*
X52002500Y-48782499D01*
X51469043Y-48782499D01*
X51502500Y-48782498D01*
X51502500Y-48382500D01*
X51077501Y-48382500D01*
X51077501Y-48390949D01*
X48126486Y-48390949D01*
X48151476Y-48381628D01*
X48260937Y-48299687D01*
X48293899Y-48255653D01*
X48318849Y-48230702D01*
X48331367Y-48221332D01*
X48396822Y-48196917D01*
X48402538Y-48196508D01*
X48456000Y-48204502D01*
X48456810Y-48204816D01*
X48474188Y-48213125D01*
X48476166Y-48214267D01*
X48477144Y-48214832D01*
X48483661Y-48219834D01*
X48489414Y-48222217D01*
X48489415Y-48222218D01*
X48498763Y-48226090D01*
X48498777Y-48226095D01*
X48498869Y-48226133D01*
X48507025Y-48227207D01*
X48631275Y-48260500D01*
X48631278Y-48260500D01*
X48776222Y-48260500D01*
X48776225Y-48260500D01*
X48855739Y-48239194D01*
X54265001Y-48239194D01*
X54267850Y-48269603D01*
X54312652Y-48397644D01*
X54312653Y-48397645D01*
X54393207Y-48506792D01*
X54502354Y-48587346D01*
X54630397Y-48632149D01*
X54660766Y-48634997D01*
X54660768Y-48634997D01*
X54660778Y-48634998D01*
X54660806Y-48634999D01*
X54789999Y-48634999D01*
X54790000Y-48634998D01*
X54790000Y-47785000D01*
X54265001Y-47785000D01*
X54265001Y-48239194D01*
X48855739Y-48239194D01*
X48916235Y-48222984D01*
X49041765Y-48150509D01*
X49144259Y-48048015D01*
X49216734Y-47922485D01*
X49254250Y-47782475D01*
X49254250Y-47637525D01*
X49216734Y-47497515D01*
X49216732Y-47497512D01*
X49216732Y-47497510D01*
X49213273Y-47491519D01*
X49213270Y-47491516D01*
X49203755Y-47475036D01*
X49165006Y-47407920D01*
X49144263Y-47371991D01*
X49144258Y-47371984D01*
X49144243Y-47371968D01*
X49041780Y-47269505D01*
X49041764Y-47269490D01*
X49041761Y-47269488D01*
X49027059Y-47261000D01*
X48987990Y-47238443D01*
X48959558Y-47208624D01*
X48891227Y-47190315D01*
X48891227Y-47190314D01*
X48797874Y-47165301D01*
X48776225Y-47159500D01*
X48776224Y-47159500D01*
X48631275Y-47159500D01*
X48502571Y-47193985D01*
X48502562Y-47193988D01*
X48491265Y-47197016D01*
X48491264Y-47197016D01*
X48491262Y-47197017D01*
X48475745Y-47205975D01*
X48469883Y-47208596D01*
X48465147Y-47209237D01*
X48448521Y-47215893D01*
X48433328Y-47219578D01*
X48363539Y-47216254D01*
X48363532Y-47216251D01*
X48358133Y-47214382D01*
X48312045Y-47185903D01*
X48311438Y-47185310D01*
X48298823Y-47170922D01*
X48260942Y-47120318D01*
X48260935Y-47120311D01*
X48181720Y-47061012D01*
X48181719Y-47061011D01*
X48170596Y-47052685D01*
X48151478Y-47038373D01*
X48151476Y-47038372D01*
X48025944Y-46991550D01*
X48024257Y-46990798D01*
X48021412Y-46990126D01*
X48016757Y-46989877D01*
X48007391Y-46988870D01*
X47966743Y-46984500D01*
X47966739Y-46984500D01*
X47425768Y-46984500D01*
X47425745Y-46984501D01*
X47425423Y-46984537D01*
X47369132Y-46990587D01*
X47241025Y-47038370D01*
X47241022Y-47038372D01*
X47131563Y-47120313D01*
X47049621Y-47229773D01*
X47019374Y-47310866D01*
X47002464Y-47341836D01*
X46995687Y-47350890D01*
X46939756Y-47392764D01*
X46870064Y-47397753D01*
X46808744Y-47364275D01*
X46803713Y-47359244D01*
X46780908Y-47327858D01*
X46719366Y-47207076D01*
X46719363Y-47207071D01*
X46719362Y-47207070D01*
X46719361Y-47207068D01*
X46624180Y-47111887D01*
X46624160Y-47111875D01*
X46578039Y-47088375D01*
X46545059Y-47057228D01*
X46404712Y-47035000D01*
X46404706Y-47035000D01*
X46396250Y-47035000D01*
X45896250Y-47035000D01*
X45896249Y-47035000D01*
X45887803Y-47035001D01*
X45887797Y-47035001D01*
X45863141Y-47038905D01*
X45863140Y-47038905D01*
X45788287Y-47050760D01*
X45788282Y-47050762D01*
X45668324Y-47111883D01*
X45668318Y-47111887D01*
X45573137Y-47207068D01*
X45573128Y-47207083D01*
X45512011Y-47327030D01*
X45512008Y-47327038D01*
X45496250Y-47426537D01*
X45175000Y-47426537D01*
X45175000Y-47385000D01*
X44941830Y-47385000D01*
X44906889Y-47379975D01*
X44891890Y-47375570D01*
X44833144Y-47337827D01*
X44831957Y-47336458D01*
X44804477Y-47281583D01*
X44802832Y-47274021D01*
X44800000Y-47247668D01*
X44800000Y-47187073D01*
X44769797Y-47173280D01*
X44732023Y-47114502D01*
X44729835Y-47105929D01*
X44728334Y-47099030D01*
X44725499Y-47072668D01*
X44725499Y-46507894D01*
X44724692Y-46501764D01*
X44721897Y-46480534D01*
X44719019Y-46458670D01*
X44719016Y-46458663D01*
X44690166Y-46396794D01*
X44688083Y-46390785D01*
X44687954Y-46388121D01*
X44684178Y-46376995D01*
X44678439Y-46351105D01*
X44675500Y-46324269D01*
X44675500Y-46271856D01*
X44975000Y-46271856D01*
X44975000Y-47035000D01*
X45175000Y-47035000D01*
X45175000Y-46646571D01*
X50149499Y-46646571D01*
X50174497Y-46772238D01*
X50174499Y-46772244D01*
X50175116Y-46773735D01*
X50175117Y-46773737D01*
X50223529Y-46890618D01*
X50223534Y-46890628D01*
X50294724Y-46997170D01*
X50294725Y-46997171D01*
X50294730Y-46997177D01*
X50385321Y-47087768D01*
X50385327Y-47087773D01*
X50385331Y-47087776D01*
X50491866Y-47158961D01*
X50491875Y-47158966D01*
X50498697Y-47161791D01*
X50498699Y-47161793D01*
X50559731Y-47187073D01*
X50603759Y-47205310D01*
X50604641Y-47205675D01*
X50609054Y-47207762D01*
X50735926Y-47233000D01*
X50864071Y-47233000D01*
X50864073Y-47233000D01*
X50893831Y-47227079D01*
X50948615Y-47216182D01*
X50989744Y-47208001D01*
X51075672Y-47172407D01*
X51079702Y-47171053D01*
X51084081Y-47170883D01*
X51105952Y-47165301D01*
X51128326Y-47162896D01*
X51197084Y-47175302D01*
X51215885Y-47186915D01*
X51244884Y-47208624D01*
X51270983Y-47228162D01*
X51272274Y-47229128D01*
X51358290Y-47261210D01*
X51401085Y-47288187D01*
X51405700Y-47292643D01*
X51440255Y-47353369D01*
X51436492Y-47423138D01*
X51407242Y-47469536D01*
X51401731Y-47475046D01*
X51370354Y-47497841D01*
X51249583Y-47559378D01*
X51249568Y-47559387D01*
X51154387Y-47654568D01*
X51154378Y-47654583D01*
X51093261Y-47774530D01*
X51093258Y-47774538D01*
X51077500Y-47874037D01*
X51077500Y-47874043D01*
X51077500Y-47882500D01*
X52417978Y-47882500D01*
X52417979Y-47882500D01*
X52410204Y-47771522D01*
X52392409Y-47736597D01*
X52350627Y-47654597D01*
X52350623Y-47654589D01*
X52350616Y-47654576D01*
X52350613Y-47654571D01*
X52350612Y-47654570D01*
X52350611Y-47654568D01*
X52255430Y-47559387D01*
X52255413Y-47559377D01*
X52151768Y-47506567D01*
X52123393Y-47486674D01*
X52105999Y-47470416D01*
X52089876Y-47459388D01*
X52062689Y-47395024D01*
X52074615Y-47326180D01*
X52094535Y-47297058D01*
X52097294Y-47294053D01*
X52145292Y-47261739D01*
X52232726Y-47229128D01*
X52342187Y-47147187D01*
X52379786Y-47096958D01*
X52404742Y-47072004D01*
X52422948Y-47058376D01*
X52475254Y-47035612D01*
X52478651Y-47035000D01*
X52478834Y-47034967D01*
X52500833Y-47033000D01*
X52584934Y-47033000D01*
X52619866Y-47038022D01*
X52621062Y-47038373D01*
X52641687Y-47044429D01*
X52691256Y-47072658D01*
X52693915Y-47075134D01*
X52708679Y-47091571D01*
X52750314Y-47147189D01*
X52859770Y-47229126D01*
X52859773Y-47229128D01*
X52940870Y-47259376D01*
X52971838Y-47276284D01*
X52980893Y-47283062D01*
X53022765Y-47338991D01*
X53027754Y-47408683D01*
X52994272Y-47470008D01*
X52994267Y-47470012D01*
X52989243Y-47475036D01*
X52957858Y-47497839D01*
X52837073Y-47559384D01*
X52837069Y-47559386D01*
X52741887Y-47654568D01*
X52741878Y-47654583D01*
X52680761Y-47774530D01*
X52680758Y-47774538D01*
X52670249Y-47840894D01*
X52670249Y-47840900D01*
X52670249Y-47882500D01*
X54014999Y-47882500D01*
X54014999Y-47874044D01*
X53999238Y-47774537D01*
X53999237Y-47774532D01*
X53938115Y-47654574D01*
X53938111Y-47654568D01*
X53842930Y-47559387D01*
X53842913Y-47559377D01*
X53739268Y-47506567D01*
X53710893Y-47486674D01*
X53693499Y-47470416D01*
X53677376Y-47459388D01*
X53650189Y-47395024D01*
X53662115Y-47326180D01*
X53682035Y-47297058D01*
X53684794Y-47294053D01*
X53732792Y-47261739D01*
X53820226Y-47229128D01*
X53929687Y-47147187D01*
X54011628Y-47037726D01*
X54018590Y-47019061D01*
X54043100Y-46986318D01*
X54061808Y-46959365D01*
X54126355Y-46932617D01*
X54195117Y-46945011D01*
X54246262Y-46992613D01*
X54259773Y-47025219D01*
X54261143Y-47030583D01*
X54265000Y-47061268D01*
X54265000Y-47285000D01*
X54790000Y-47285000D01*
X54790000Y-46435000D01*
X55290000Y-46435000D01*
X55290000Y-48634999D01*
X55419190Y-48634999D01*
X55419196Y-48634999D01*
X55449606Y-48632148D01*
X55577645Y-48587346D01*
X55686792Y-48506792D01*
X55767346Y-48397645D01*
X55812149Y-48269604D01*
X55812149Y-48269600D01*
X55812224Y-48269161D01*
X55812229Y-48268736D01*
X55814999Y-48239207D01*
X55814999Y-48071251D01*
X55815011Y-48070396D01*
X55815455Y-48068955D01*
X55820020Y-48037206D01*
X55823208Y-48026347D01*
X55833626Y-48010135D01*
X55835634Y-48003639D01*
X55840360Y-47999658D01*
X55860981Y-47967571D01*
X55924536Y-47938545D01*
X55993691Y-47948487D01*
X56000678Y-47951678D01*
X56036839Y-47976785D01*
X56100327Y-48040273D01*
X56100331Y-48040276D01*
X56206866Y-48111461D01*
X56206872Y-48111464D01*
X56206873Y-48111465D01*
X56320362Y-48158473D01*
X56320947Y-48158724D01*
X56321141Y-48158884D01*
X56324053Y-48160261D01*
X56325252Y-48160499D01*
X56325256Y-48160501D01*
X56325259Y-48160501D01*
X56325260Y-48160501D01*
X56325261Y-48160502D01*
X56422899Y-48179924D01*
X56450927Y-48185500D01*
X56579071Y-48185500D01*
X56579073Y-48185500D01*
X56663615Y-48168682D01*
X56704744Y-48160501D01*
X56823127Y-48111465D01*
X56929669Y-48040276D01*
X56930171Y-48039774D01*
X56935528Y-48034416D01*
X56935547Y-48034406D01*
X56963771Y-48013276D01*
X56978423Y-48005275D01*
X56995850Y-48001484D01*
X56996854Y-48000937D01*
X56997993Y-48001018D01*
X57046695Y-47990425D01*
X57112159Y-48014843D01*
X57131544Y-48032888D01*
X57132553Y-48034052D01*
X57160019Y-48088902D01*
X57161664Y-48096460D01*
X57164501Y-48122831D01*
X57164501Y-48232882D01*
X57170907Y-48292481D01*
X57176738Y-48308115D01*
X57221202Y-48427328D01*
X57221206Y-48427335D01*
X57254629Y-48471982D01*
X57307450Y-48542542D01*
X57307452Y-48542544D01*
X57307455Y-48542547D01*
X57422664Y-48628793D01*
X57422671Y-48628797D01*
X57439294Y-48634997D01*
X57439296Y-48634998D01*
X57439297Y-48634998D01*
X57557517Y-48679091D01*
X57617127Y-48685500D01*
X58362872Y-48685499D01*
X58422483Y-48679091D01*
X58557331Y-48628796D01*
X58672546Y-48542546D01*
X58758796Y-48427331D01*
X58809091Y-48292483D01*
X58815500Y-48232873D01*
X58815499Y-46837128D01*
X58809091Y-46777517D01*
X58807162Y-46772346D01*
X58798692Y-46749637D01*
X58758798Y-46642673D01*
X58758797Y-46642671D01*
X58758795Y-46642668D01*
X58758793Y-46642664D01*
X58672547Y-46527455D01*
X58672544Y-46527452D01*
X58672542Y-46527450D01*
X58609869Y-46480533D01*
X58557335Y-46441206D01*
X58557331Y-46441204D01*
X58557327Y-46441201D01*
X58557325Y-46441200D01*
X58432654Y-46394702D01*
X58432651Y-46394701D01*
X58422486Y-46390910D01*
X58422485Y-46390909D01*
X58422483Y-46390909D01*
X58409021Y-46389461D01*
X58409014Y-46389460D01*
X58362883Y-46384501D01*
X58362881Y-46384500D01*
X58362873Y-46384500D01*
X58362865Y-46384500D01*
X57617123Y-46384500D01*
X57615192Y-46384659D01*
X57613545Y-46384885D01*
X57558660Y-46390785D01*
X57557516Y-46390908D01*
X57422677Y-46441200D01*
X57422666Y-46441204D01*
X57422665Y-46441205D01*
X57307456Y-46527450D01*
X57307450Y-46527456D01*
X57221205Y-46642665D01*
X57221203Y-46642668D01*
X57170907Y-46777516D01*
X57168449Y-46800393D01*
X57164500Y-46837128D01*
X57164500Y-46942670D01*
X57159474Y-46977614D01*
X57155696Y-46990477D01*
X57117917Y-47049252D01*
X57054360Y-47078272D01*
X57001784Y-47074509D01*
X56993458Y-47072064D01*
X56940712Y-47040766D01*
X56929675Y-47029728D01*
X56929671Y-47029725D01*
X56929670Y-47029724D01*
X56823127Y-46958534D01*
X56823128Y-46958534D01*
X56823118Y-46958529D01*
X56704753Y-46909502D01*
X56704733Y-46909495D01*
X56704725Y-46909493D01*
X56579074Y-46884500D01*
X56579071Y-46884500D01*
X56579069Y-46884500D01*
X56450931Y-46884500D01*
X56450929Y-46884500D01*
X56450926Y-46884500D01*
X56325273Y-46909493D01*
X56325265Y-46909495D01*
X56325245Y-46909502D01*
X56206880Y-46958529D01*
X56206870Y-46958534D01*
X56100331Y-47029722D01*
X56100327Y-47029725D01*
X56039287Y-47090766D01*
X56011028Y-47111920D01*
X56001101Y-47117340D01*
X55932828Y-47132189D01*
X55867364Y-47107769D01*
X55825496Y-47051835D01*
X55822816Y-47044649D01*
X55814999Y-47001319D01*
X55814999Y-46830809D01*
X55814999Y-46830803D01*
X55812148Y-46800393D01*
X55804143Y-46777517D01*
X55767346Y-46672354D01*
X55745437Y-46642668D01*
X55686792Y-46563207D01*
X55584413Y-46487648D01*
X55577644Y-46482652D01*
X55449599Y-46437849D01*
X55449601Y-46437849D01*
X55419211Y-46435000D01*
X55419207Y-46435000D01*
X55290000Y-46435000D01*
X54790000Y-46435000D01*
X54660810Y-46435000D01*
X54660804Y-46435000D01*
X54634737Y-46437443D01*
X54630392Y-46437851D01*
X54630391Y-46437851D01*
X54502354Y-46482652D01*
X54393207Y-46563207D01*
X54304300Y-46683670D01*
X54277583Y-46722428D01*
X54269759Y-46733947D01*
X54205483Y-46761341D01*
X54136601Y-46749637D01*
X54084981Y-46702549D01*
X54071144Y-46670085D01*
X54069668Y-46664537D01*
X54065499Y-46632654D01*
X54065499Y-46312018D01*
X54065498Y-46312009D01*
X54061452Y-46274370D01*
X54059412Y-46255386D01*
X54052326Y-46236389D01*
X54044714Y-46215980D01*
X54026755Y-46167830D01*
X54011629Y-46127276D01*
X54011628Y-46127274D01*
X53983635Y-46089880D01*
X53929687Y-46017813D01*
X53848446Y-45956997D01*
X53820228Y-45935873D01*
X53820226Y-45935872D01*
X53693963Y-45888777D01*
X53692834Y-45888257D01*
X53690162Y-45887626D01*
X53685507Y-45887377D01*
X53676141Y-45886370D01*
X53635493Y-45882000D01*
X53635489Y-45882000D01*
X53044518Y-45882000D01*
X53044495Y-45882001D01*
X53044173Y-45882037D01*
X52987882Y-45888087D01*
X52859775Y-45935870D01*
X52859768Y-45935874D01*
X52777058Y-45997790D01*
X52777059Y-45997791D01*
X52750315Y-46017811D01*
X52750310Y-46017815D01*
X52712717Y-46068035D01*
X52687758Y-46092994D01*
X52669551Y-46106623D01*
X52617287Y-46129379D01*
X52613711Y-46130025D01*
X52591667Y-46132000D01*
X52507566Y-46132000D01*
X52472626Y-46126976D01*
X52450806Y-46120568D01*
X52401260Y-46092356D01*
X52398600Y-46089880D01*
X52383819Y-46073426D01*
X52342192Y-46017818D01*
X52342185Y-46017811D01*
X52271435Y-45964849D01*
X52260946Y-45956997D01*
X52232728Y-45935873D01*
X52232726Y-45935872D01*
X52106463Y-45888777D01*
X52105334Y-45888257D01*
X52102662Y-45887626D01*
X52098007Y-45887377D01*
X52088641Y-45886370D01*
X52047993Y-45882000D01*
X52047989Y-45882000D01*
X51457018Y-45882000D01*
X51456995Y-45882001D01*
X51456673Y-45882037D01*
X51400382Y-45888087D01*
X51272275Y-45935870D01*
X51272268Y-45935874D01*
X51224260Y-45971813D01*
X51193282Y-45988728D01*
X51175283Y-45995441D01*
X51112110Y-46001661D01*
X51102486Y-46000101D01*
X51074875Y-45992260D01*
X50989764Y-45957006D01*
X50989756Y-45957003D01*
X50989748Y-45957000D01*
X50989738Y-45956997D01*
X50989735Y-45956996D01*
X50989731Y-45956995D01*
X50864073Y-45932000D01*
X50864071Y-45932000D01*
X50864069Y-45932000D01*
X50735931Y-45932000D01*
X50735929Y-45932000D01*
X50735926Y-45932000D01*
X50610273Y-45956993D01*
X50610265Y-45956995D01*
X50610245Y-45957002D01*
X50491880Y-46006029D01*
X50491870Y-46006034D01*
X50385328Y-46077224D01*
X50385327Y-46077225D01*
X50385321Y-46077230D01*
X50294730Y-46167821D01*
X50294725Y-46167827D01*
X50294724Y-46167828D01*
X50223534Y-46274370D01*
X50223529Y-46274380D01*
X50174502Y-46392745D01*
X50174495Y-46392765D01*
X50174493Y-46392773D01*
X50149500Y-46518423D01*
X50149500Y-46518428D01*
X50149500Y-46518431D01*
X50149500Y-46646569D01*
X50149500Y-46646571D01*
X50149499Y-46646571D01*
X45175000Y-46646571D01*
X45175000Y-46504120D01*
X45174677Y-46501805D01*
X45173034Y-46487645D01*
X45172780Y-46483234D01*
X45172210Y-46480533D01*
X45128797Y-46382214D01*
X45128796Y-46382213D01*
X45128795Y-46382210D01*
X45052790Y-46306204D01*
X45052791Y-46306204D01*
X44975000Y-46271855D01*
X44975000Y-46271856D01*
X44675500Y-46271856D01*
X44675500Y-45527329D01*
X44680523Y-45492393D01*
X44684927Y-45477395D01*
X44722672Y-45418644D01*
X44724041Y-45417457D01*
X44778920Y-45389977D01*
X44786479Y-45388333D01*
X44812832Y-45385500D01*
X45899434Y-45385500D01*
X45899436Y-45385500D01*
X45963973Y-45368207D01*
X45994938Y-45359910D01*
X46080562Y-45310475D01*
X46150475Y-45240562D01*
X46450474Y-44940563D01*
X46481241Y-44887273D01*
X46492643Y-44867525D01*
X59389500Y-44867525D01*
X59389500Y-45012475D01*
X59390888Y-45017654D01*
X59427013Y-45152477D01*
X59427016Y-45152485D01*
X59427017Y-45152488D01*
X59456761Y-45204006D01*
X59497631Y-45274795D01*
X59499489Y-45278013D01*
X59601985Y-45380509D01*
X59602674Y-45381005D01*
X59605178Y-45382353D01*
X59724069Y-45450995D01*
X59727087Y-45452869D01*
X59727514Y-45452983D01*
X59727515Y-45452984D01*
X59867525Y-45490500D01*
X59867528Y-45490500D01*
X60012472Y-45490500D01*
X60012475Y-45490500D01*
X60152485Y-45452984D01*
X60278015Y-45380509D01*
X60380509Y-45278015D01*
X60452984Y-45152485D01*
X60490500Y-45012475D01*
X60490500Y-44867525D01*
X60452984Y-44727515D01*
X60422388Y-44674522D01*
X60380511Y-44601988D01*
X60380506Y-44601982D01*
X60380493Y-44601968D01*
X60278030Y-44499505D01*
X60278014Y-44499490D01*
X60278006Y-44499485D01*
X60224243Y-44468445D01*
X60195808Y-44438624D01*
X60141007Y-44423939D01*
X60141007Y-44423940D01*
X60076740Y-44406720D01*
X60012475Y-44389500D01*
X60012474Y-44389500D01*
X59867525Y-44389500D01*
X59738994Y-44423939D01*
X59738993Y-44423940D01*
X59731338Y-44425991D01*
X59727510Y-44427017D01*
X59601991Y-44499485D01*
X59601984Y-44499490D01*
X59601968Y-44499505D01*
X59499505Y-44601968D01*
X59499490Y-44601984D01*
X59499485Y-44601992D01*
X59428287Y-44725308D01*
X59428286Y-44725312D01*
X59427017Y-44727511D01*
X59427016Y-44727515D01*
X59389500Y-44867525D01*
X46492643Y-44867525D01*
X46499910Y-44854938D01*
X46520140Y-44779438D01*
X46525500Y-44759436D01*
X46525500Y-44660564D01*
X46525500Y-39867525D01*
X49389500Y-39867525D01*
X49389500Y-40012475D01*
X49395524Y-40034955D01*
X49418756Y-40121657D01*
X49418755Y-40121657D01*
X49427015Y-40152483D01*
X49427018Y-40152490D01*
X49497631Y-40274795D01*
X49499489Y-40278013D01*
X49601985Y-40380509D01*
X49602674Y-40381005D01*
X49605178Y-40382353D01*
X49724069Y-40450995D01*
X49727087Y-40452869D01*
X49727514Y-40452983D01*
X49727515Y-40452984D01*
X49867525Y-40490500D01*
X49867528Y-40490500D01*
X50012472Y-40490500D01*
X50012475Y-40490500D01*
X50152485Y-40452984D01*
X50278015Y-40380509D01*
X50380509Y-40278015D01*
X50452984Y-40152485D01*
X50490500Y-40012475D01*
X50490500Y-39867525D01*
X50452984Y-39727515D01*
X50450609Y-39723402D01*
X50380708Y-39602329D01*
X50380513Y-39601991D01*
X50380508Y-39601984D01*
X50380493Y-39601968D01*
X50278030Y-39499505D01*
X50278014Y-39499490D01*
X50278006Y-39499485D01*
X50224243Y-39468445D01*
X50195808Y-39438624D01*
X50141007Y-39423939D01*
X50141007Y-39423940D01*
X50076740Y-39406720D01*
X50012475Y-39389500D01*
X50012474Y-39389500D01*
X49867525Y-39389500D01*
X49738994Y-39423939D01*
X49738993Y-39423940D01*
X49731338Y-39425991D01*
X49727510Y-39427017D01*
X49601991Y-39499485D01*
X49601984Y-39499490D01*
X49601968Y-39499505D01*
X49499505Y-39601968D01*
X49499490Y-39601984D01*
X49499485Y-39601992D01*
X49428287Y-39725308D01*
X49428286Y-39725312D01*
X49427017Y-39727511D01*
X49427016Y-39727515D01*
X49389500Y-39867525D01*
X46525500Y-39867525D01*
X46525500Y-39602329D01*
X46530523Y-39567393D01*
X46534927Y-39552395D01*
X46572672Y-39493644D01*
X46574041Y-39492457D01*
X46628920Y-39464977D01*
X46636479Y-39463333D01*
X46662832Y-39460500D01*
X47353796Y-39460500D01*
X47361648Y-39458117D01*
X47422740Y-39445966D01*
X47505601Y-39390601D01*
X47560966Y-39307740D01*
X47575500Y-39234674D01*
X47575500Y-35785326D01*
X47575500Y-35785323D01*
X47575500Y-35785139D01*
X47575064Y-35783134D01*
X47560972Y-35712289D01*
X47560967Y-35712266D01*
X47560967Y-35712264D01*
X47560966Y-35712260D01*
X47559390Y-35709901D01*
X47559357Y-35709852D01*
X47505601Y-35629399D01*
X47505597Y-35629395D01*
X47442828Y-35587456D01*
X47422739Y-35574033D01*
X47422735Y-35574032D01*
X47422725Y-35574030D01*
X47422709Y-35574026D01*
X47349680Y-35559500D01*
X47349677Y-35559500D01*
X47349674Y-35559500D01*
X44250326Y-35559500D01*
X44250323Y-35559500D01*
X44250319Y-35559500D01*
X44177285Y-35574027D01*
X44177262Y-35574032D01*
X44177258Y-35574033D01*
X44094399Y-35629399D01*
X44039033Y-35712258D01*
X44039032Y-35712266D01*
X44039028Y-35712281D01*
X44024500Y-35785318D01*
X44024500Y-35785321D01*
X44024500Y-39234678D01*
X44024500Y-39234680D01*
X44024499Y-39234680D01*
X44039028Y-39307717D01*
X44039032Y-39307735D01*
X44039033Y-39307739D01*
X44042480Y-39313826D01*
X44045816Y-39317891D01*
X44094399Y-39390601D01*
X44177256Y-39445964D01*
X44177258Y-39445965D01*
X44177259Y-39445965D01*
X44177260Y-39445966D01*
X44177264Y-39445967D01*
X44177279Y-39445970D01*
X44177288Y-39445972D01*
X44204949Y-39451474D01*
X44242681Y-39458979D01*
X44245415Y-39459703D01*
X44250323Y-39460500D01*
X44250324Y-39460500D01*
X44250326Y-39460500D01*
X45632670Y-39460500D01*
X45667606Y-39465523D01*
X45682604Y-39469927D01*
X45741355Y-39507672D01*
X45742542Y-39509041D01*
X45770018Y-39563902D01*
X45771663Y-39571460D01*
X45774500Y-39597831D01*
X45774500Y-39881146D01*
X45769475Y-39916087D01*
X45765564Y-39929404D01*
X45727787Y-39988180D01*
X45664234Y-40017201D01*
X45660930Y-40017676D01*
X45605830Y-40013146D01*
X45603949Y-40012550D01*
X45585108Y-40004826D01*
X45525302Y-39974352D01*
X45525295Y-39974350D01*
X45431530Y-39959500D01*
X45431524Y-39959500D01*
X45068482Y-39959500D01*
X45068478Y-39959500D01*
X45003846Y-39969736D01*
X45003842Y-39969737D01*
X44987519Y-39972323D01*
X44974696Y-39974354D01*
X44861658Y-40031950D01*
X44861657Y-40031951D01*
X44861652Y-40031954D01*
X44858652Y-40034953D01*
X44858649Y-40034955D01*
X44771955Y-40121649D01*
X44771946Y-40121664D01*
X44714353Y-40234695D01*
X44714350Y-40234703D01*
X44699500Y-40328469D01*
X44699500Y-40710269D01*
X44694476Y-40745206D01*
X44687064Y-40770447D01*
X44655769Y-40823191D01*
X44650287Y-40828673D01*
X44622031Y-40849825D01*
X44608310Y-40857317D01*
X44540050Y-40872169D01*
X44538244Y-40872040D01*
X44480043Y-40852672D01*
X44473528Y-40848485D01*
X44452892Y-40831855D01*
X44449425Y-40828388D01*
X44428273Y-40800132D01*
X44415666Y-40777043D01*
X44400499Y-40717618D01*
X44400499Y-40328481D01*
X44398443Y-40315500D01*
X44397694Y-40310770D01*
X44385646Y-40234696D01*
X44328050Y-40121658D01*
X44328046Y-40121654D01*
X44328045Y-40121652D01*
X44238347Y-40031954D01*
X44238344Y-40031952D01*
X44238342Y-40031950D01*
X44238340Y-40031949D01*
X44238339Y-40031948D01*
X44161519Y-39992805D01*
X44161519Y-39992806D01*
X44152440Y-39988180D01*
X44125301Y-39974352D01*
X44125299Y-39974351D01*
X44125298Y-39974351D01*
X44125296Y-39974350D01*
X44031530Y-39959500D01*
X44031524Y-39959500D01*
X43668482Y-39959500D01*
X43668478Y-39959500D01*
X43603846Y-39969736D01*
X43603842Y-39969737D01*
X43587519Y-39972323D01*
X43574696Y-39974354D01*
X43461658Y-40031950D01*
X43461657Y-40031951D01*
X43461652Y-40031954D01*
X43458652Y-40034953D01*
X43458649Y-40034955D01*
X43371955Y-40121649D01*
X43371946Y-40121664D01*
X43314353Y-40234695D01*
X43314350Y-40234703D01*
X43299500Y-40328469D01*
X43299500Y-41191520D01*
X43307838Y-41244167D01*
X43307839Y-41244169D01*
X43310292Y-41259657D01*
X43314354Y-41285304D01*
X43371950Y-41398342D01*
X43371952Y-41398344D01*
X43371954Y-41398347D01*
X43461652Y-41488045D01*
X43461654Y-41488046D01*
X43461658Y-41488050D01*
X43574694Y-41545645D01*
X43574698Y-41545647D01*
X43595125Y-41548882D01*
X43659127Y-41559019D01*
X43659130Y-41559019D01*
X43668475Y-41560499D01*
X43668481Y-41560500D01*
X43783404Y-41560499D01*
X43784149Y-41560508D01*
X43785397Y-41560890D01*
X43817606Y-41565521D01*
X43832603Y-41569925D01*
X43848797Y-41580329D01*
X43850950Y-41580989D01*
X43852289Y-41582572D01*
X43891355Y-41607670D01*
X43892542Y-41609039D01*
X43920019Y-41663903D01*
X43921664Y-41671462D01*
X43924500Y-41697830D01*
X43924500Y-41867670D01*
X43919475Y-41902614D01*
X43915070Y-41917612D01*
X43877327Y-41976355D01*
X43875958Y-41977542D01*
X43821097Y-42005018D01*
X43813539Y-42006663D01*
X43787168Y-42009500D01*
X43672895Y-42009500D01*
X43672889Y-42009500D01*
X43672884Y-42009501D01*
X43623684Y-42015978D01*
X43623669Y-42015980D01*
X43623666Y-42015981D01*
X43618560Y-42018363D01*
X43584774Y-42028575D01*
X43560504Y-42032261D01*
X43506723Y-42028577D01*
X43506351Y-42028467D01*
X43489116Y-42021943D01*
X43477837Y-42016683D01*
X43476467Y-42016021D01*
X43476330Y-42015979D01*
X43431203Y-42010039D01*
X43429187Y-42009705D01*
X43427113Y-42009500D01*
X43427108Y-42009500D01*
X43427103Y-42009500D01*
X43427096Y-42009500D01*
X43264988Y-42009500D01*
X43230050Y-42004476D01*
X43211995Y-41999174D01*
X43157193Y-41965771D01*
X43150004Y-41958232D01*
X43132359Y-41934662D01*
X43125273Y-41922389D01*
X43112888Y-41892486D01*
X43104725Y-41862020D01*
X43100500Y-41829928D01*
X43100500Y-41787527D01*
X43100500Y-41787525D01*
X43062984Y-41647515D01*
X43054596Y-41632987D01*
X43040770Y-41609039D01*
X42990516Y-41521996D01*
X42990508Y-41521984D01*
X42990493Y-41521968D01*
X42888030Y-41419505D01*
X42888014Y-41419490D01*
X42888006Y-41419485D01*
X42834243Y-41388445D01*
X42805808Y-41358624D01*
X42751007Y-41343939D01*
X42751007Y-41343940D01*
X42686740Y-41326720D01*
X42622475Y-41309500D01*
X42622474Y-41309500D01*
X42477525Y-41309500D01*
X42348994Y-41343939D01*
X42348993Y-41343940D01*
X42341338Y-41345991D01*
X42337510Y-41347017D01*
X42211991Y-41419485D01*
X42211984Y-41419490D01*
X42211968Y-41419505D01*
X42109505Y-41521968D01*
X42109490Y-41521984D01*
X42109485Y-41521992D01*
X42037017Y-41647509D01*
X42036989Y-41647578D01*
X42036748Y-41648511D01*
X41999500Y-41787525D01*
X41999500Y-41932474D01*
X42027343Y-42036388D01*
X42037015Y-42072484D01*
X42037018Y-42072491D01*
X42107631Y-42194795D01*
X42109489Y-42198013D01*
X42109491Y-42198015D01*
X42211985Y-42300509D01*
X42297062Y-42349628D01*
X42324802Y-42371443D01*
X42337789Y-42385064D01*
X42368546Y-42441388D01*
X42371003Y-42451513D01*
X42374500Y-42480755D01*
X42374500Y-43712111D01*
X42380980Y-43761325D01*
X42380982Y-43761333D01*
X42383597Y-43766942D01*
X42393807Y-43800722D01*
X42395891Y-43814442D01*
X42386497Y-43883677D01*
X42341171Y-43936837D01*
X42337445Y-43939274D01*
X42270565Y-43959496D01*
X42269571Y-43959500D01*
X29697585Y-43959500D01*
X29662649Y-43954477D01*
X29637407Y-43947065D01*
X29584662Y-43915769D01*
X27803415Y-42134522D01*
X27803413Y-42134520D01*
X27785658Y-42124269D01*
X27757750Y-42108155D01*
X27757750Y-42108156D01*
X27712089Y-42081793D01*
X27661157Y-42068146D01*
X27661156Y-42068145D01*
X27610230Y-42054500D01*
X27610227Y-42054500D01*
X27610226Y-42054500D01*
X27263390Y-42054500D01*
X27228454Y-42049477D01*
X27216027Y-42045828D01*
X27157249Y-42008053D01*
X27128225Y-41944497D01*
X27136064Y-41880224D01*
X27139554Y-41871625D01*
X27154124Y-41845388D01*
X27211232Y-41766788D01*
X27289873Y-41612445D01*
X27343402Y-41447701D01*
X27370500Y-41276611D01*
X27370500Y-41103389D01*
X27343402Y-40932299D01*
X27289873Y-40767555D01*
X27211232Y-40613212D01*
X27109414Y-40473072D01*
X27059155Y-40422813D01*
X27038003Y-40394557D01*
X27030511Y-40380836D01*
X27015659Y-40312576D01*
X27015788Y-40310767D01*
X27035154Y-40252571D01*
X27039344Y-40246051D01*
X27055968Y-40225423D01*
X27413867Y-39867525D01*
X29389500Y-39867525D01*
X29389500Y-40012475D01*
X29395524Y-40034955D01*
X29418756Y-40121657D01*
X29418755Y-40121657D01*
X29427015Y-40152483D01*
X29427018Y-40152490D01*
X29497631Y-40274795D01*
X29499489Y-40278013D01*
X29601985Y-40380509D01*
X29602674Y-40381005D01*
X29605178Y-40382353D01*
X29724069Y-40450995D01*
X29727087Y-40452869D01*
X29727514Y-40452983D01*
X29727515Y-40452984D01*
X29867525Y-40490500D01*
X29867528Y-40490500D01*
X30012472Y-40490500D01*
X30012475Y-40490500D01*
X30152485Y-40452984D01*
X30278015Y-40380509D01*
X30380509Y-40278015D01*
X30452984Y-40152485D01*
X30490500Y-40012475D01*
X30490500Y-39867525D01*
X30452984Y-39727515D01*
X30450609Y-39723402D01*
X30380708Y-39602329D01*
X30380513Y-39601991D01*
X30380508Y-39601984D01*
X30380493Y-39601968D01*
X30278030Y-39499505D01*
X30278014Y-39499490D01*
X30278006Y-39499485D01*
X30224243Y-39468445D01*
X30195808Y-39438624D01*
X30141007Y-39423939D01*
X30141007Y-39423940D01*
X30076740Y-39406720D01*
X30012475Y-39389500D01*
X30012474Y-39389500D01*
X29867525Y-39389500D01*
X29738994Y-39423939D01*
X29738993Y-39423940D01*
X29731338Y-39425991D01*
X29727510Y-39427017D01*
X29601991Y-39499485D01*
X29601984Y-39499490D01*
X29601968Y-39499505D01*
X29499505Y-39601968D01*
X29499490Y-39601984D01*
X29499485Y-39601992D01*
X29428287Y-39725308D01*
X29428286Y-39725312D01*
X29427017Y-39727511D01*
X29427016Y-39727515D01*
X29389500Y-39867525D01*
X27413867Y-39867525D01*
X27920480Y-39360913D01*
X27973207Y-39269588D01*
X28000500Y-39167727D01*
X28000500Y-39062273D01*
X28000500Y-38585084D01*
X28005522Y-38550151D01*
X28012934Y-38524906D01*
X28044228Y-38472164D01*
X28781969Y-37734423D01*
X28810219Y-37713275D01*
X28833311Y-37700667D01*
X28892736Y-37685500D01*
X31456001Y-37685500D01*
X31456033Y-37685499D01*
X31714850Y-37685499D01*
X31714856Y-37685499D01*
X31714864Y-37685499D01*
X31714879Y-37685497D01*
X31714882Y-37685497D01*
X31714888Y-37685496D01*
X31715019Y-37685487D01*
X31715736Y-37685397D01*
X31739987Y-37682586D01*
X31739987Y-37682585D01*
X31740103Y-37682572D01*
X31741888Y-37681747D01*
X31842765Y-37637206D01*
X31852111Y-37627859D01*
X31880365Y-37606706D01*
X31894084Y-37599215D01*
X31962355Y-37584364D01*
X31968438Y-37584799D01*
X32019679Y-37600014D01*
X32019818Y-37600091D01*
X32021991Y-37601515D01*
X32022049Y-37601416D01*
X32029085Y-37605478D01*
X32029087Y-37605480D01*
X32120412Y-37658207D01*
X32222273Y-37685500D01*
X32222275Y-37685500D01*
X32932161Y-37685500D01*
X32936001Y-37685500D01*
X32936033Y-37685499D01*
X33194850Y-37685499D01*
X33194856Y-37685499D01*
X33194864Y-37685499D01*
X33194879Y-37685497D01*
X33194882Y-37685497D01*
X33194888Y-37685496D01*
X33195019Y-37685487D01*
X33195736Y-37685397D01*
X33219987Y-37682586D01*
X33219987Y-37682585D01*
X33219990Y-37682585D01*
X33219991Y-37682585D01*
X33219991Y-37682584D01*
X33220102Y-37682572D01*
X33221862Y-37681758D01*
X33322765Y-37637206D01*
X33402206Y-37557765D01*
X33447585Y-37454991D01*
X33450500Y-37429865D01*
X33450500Y-37327329D01*
X33455523Y-37292393D01*
X33459927Y-37277395D01*
X33497672Y-37218644D01*
X33499041Y-37217457D01*
X33553920Y-37189977D01*
X33561479Y-37188333D01*
X33587832Y-37185500D01*
X35527725Y-37185500D01*
X35527727Y-37185500D01*
X35629588Y-37158207D01*
X35720913Y-37105480D01*
X36670480Y-36155913D01*
X36723207Y-36064588D01*
X36750500Y-35962727D01*
X36750500Y-35857273D01*
X36750500Y-34867525D01*
X39389500Y-34867525D01*
X39389500Y-35012475D01*
X39410308Y-35090129D01*
X39415766Y-35110499D01*
X39415765Y-35110499D01*
X39427016Y-35152486D01*
X39427018Y-35152491D01*
X39497631Y-35274795D01*
X39499489Y-35278013D01*
X39601985Y-35380509D01*
X39602674Y-35381005D01*
X39605178Y-35382353D01*
X39724069Y-35450995D01*
X39727087Y-35452869D01*
X39727514Y-35452983D01*
X39727515Y-35452984D01*
X39867525Y-35490500D01*
X39867528Y-35490500D01*
X40012472Y-35490500D01*
X40012475Y-35490500D01*
X40152485Y-35452984D01*
X40278015Y-35380509D01*
X40380509Y-35278015D01*
X40452984Y-35152485D01*
X40490500Y-35012475D01*
X40490500Y-35012472D01*
X64389499Y-35012472D01*
X64415766Y-35110499D01*
X64415765Y-35110499D01*
X64427016Y-35152486D01*
X64427018Y-35152491D01*
X64497631Y-35274795D01*
X64499489Y-35278013D01*
X64601985Y-35380509D01*
X64602674Y-35381005D01*
X64605178Y-35382353D01*
X64724069Y-35450995D01*
X64727087Y-35452869D01*
X64727514Y-35452983D01*
X64727515Y-35452984D01*
X64867525Y-35490500D01*
X64867528Y-35490500D01*
X65012472Y-35490500D01*
X65012475Y-35490500D01*
X65152485Y-35452984D01*
X65278015Y-35380509D01*
X65380509Y-35278015D01*
X65452984Y-35152485D01*
X65490500Y-35012475D01*
X65490500Y-34867525D01*
X65452984Y-34727515D01*
X65443735Y-34711496D01*
X65436560Y-34699068D01*
X65380513Y-34601991D01*
X65380508Y-34601984D01*
X65380493Y-34601968D01*
X65278030Y-34499505D01*
X65278014Y-34499490D01*
X65278006Y-34499485D01*
X65224243Y-34468445D01*
X65195808Y-34438624D01*
X65141007Y-34423939D01*
X65141007Y-34423940D01*
X65076740Y-34406720D01*
X65012475Y-34389500D01*
X65012474Y-34389500D01*
X64867525Y-34389500D01*
X64738994Y-34423939D01*
X64738993Y-34423940D01*
X64731338Y-34425991D01*
X64727510Y-34427017D01*
X64601991Y-34499485D01*
X64601984Y-34499490D01*
X64601968Y-34499505D01*
X64499505Y-34601968D01*
X64499490Y-34601984D01*
X64499485Y-34601992D01*
X64427017Y-34727509D01*
X64426989Y-34727578D01*
X64426748Y-34728511D01*
X64389500Y-34867525D01*
X64389500Y-35012472D01*
X64389499Y-35012472D01*
X40490500Y-35012472D01*
X40490500Y-34867525D01*
X40452984Y-34727515D01*
X40443735Y-34711496D01*
X40436560Y-34699068D01*
X40380513Y-34601991D01*
X40380508Y-34601984D01*
X40380493Y-34601968D01*
X40278030Y-34499505D01*
X40278014Y-34499490D01*
X40278006Y-34499485D01*
X40224243Y-34468445D01*
X40195808Y-34438624D01*
X40141007Y-34423939D01*
X40141007Y-34423940D01*
X40076740Y-34406720D01*
X40012475Y-34389500D01*
X40012474Y-34389500D01*
X39867525Y-34389500D01*
X39738994Y-34423939D01*
X39738993Y-34423940D01*
X39731338Y-34425991D01*
X39727510Y-34427017D01*
X39601991Y-34499485D01*
X39601984Y-34499490D01*
X39601968Y-34499505D01*
X39499505Y-34601968D01*
X39499490Y-34601984D01*
X39499485Y-34601992D01*
X39428287Y-34725308D01*
X39428286Y-34725312D01*
X39427017Y-34727511D01*
X39427016Y-34727515D01*
X39389500Y-34867525D01*
X36750500Y-34867525D01*
X36750500Y-33207583D01*
X36755522Y-33172650D01*
X36762934Y-33147405D01*
X36794228Y-33094663D01*
X36828046Y-33060846D01*
X36828050Y-33060842D01*
X36885646Y-32947804D01*
X36885646Y-32947802D01*
X36885647Y-32947801D01*
X36885648Y-32947794D01*
X36886785Y-32943060D01*
X36886785Y-32943058D01*
X36886789Y-32943039D01*
X36887173Y-32938168D01*
X36900111Y-32856479D01*
X36900437Y-32854654D01*
X36900499Y-32854023D01*
X36900500Y-32854019D01*
X36900499Y-31615982D01*
X36885646Y-31522196D01*
X36828050Y-31409158D01*
X36828048Y-31409156D01*
X36825948Y-31405034D01*
X36825947Y-31405032D01*
X36825123Y-31403415D01*
X36818803Y-31388762D01*
X36807707Y-31357659D01*
X36800500Y-31315999D01*
X36800500Y-31049887D01*
X36805521Y-31014960D01*
X36807181Y-31009304D01*
X36808707Y-31004105D01*
X36846477Y-30945326D01*
X36910031Y-30916297D01*
X36979186Y-30926235D01*
X36982161Y-30927593D01*
X37030414Y-30966751D01*
X37052846Y-30997146D01*
X37052848Y-30997147D01*
X37052850Y-30997150D01*
X37154357Y-31072065D01*
X37162118Y-31077793D01*
X37290299Y-31122646D01*
X37290303Y-31122647D01*
X37308742Y-31124375D01*
X37320730Y-31125500D01*
X37320734Y-31125500D01*
X37320739Y-31125500D01*
X37829270Y-31125500D01*
X37829271Y-31125500D01*
X37830576Y-31125377D01*
X37859699Y-31122646D01*
X37859701Y-31122646D01*
X37923790Y-31100219D01*
X37987882Y-31077793D01*
X38097150Y-30997150D01*
X38177793Y-30887882D01*
X38208494Y-30800144D01*
X38222646Y-30759701D01*
X38222646Y-30759699D01*
X38225500Y-30729269D01*
X38225500Y-30706479D01*
X38625001Y-30706479D01*
X38639834Y-30800144D01*
X38639834Y-30800149D01*
X38697357Y-30913043D01*
X38697360Y-30913046D01*
X38697363Y-30913050D01*
X38786949Y-31002636D01*
X38786958Y-31002643D01*
X38899844Y-31060162D01*
X38899847Y-31060163D01*
X38899849Y-31060164D01*
X38911750Y-31062048D01*
X38975000Y-31072065D01*
X38975000Y-31072064D01*
X39475000Y-31072064D01*
X39550149Y-31060164D01*
X39550155Y-31060162D01*
X39663041Y-31002643D01*
X39663050Y-31002636D01*
X39752636Y-30913050D01*
X39752639Y-30913046D01*
X39810166Y-30800144D01*
X39810166Y-30800142D01*
X39810167Y-30800141D01*
X39810167Y-30800140D01*
X39825000Y-30706486D01*
X39825000Y-30650000D01*
X39475000Y-30650000D01*
X39475000Y-31072064D01*
X38975000Y-31072064D01*
X38975000Y-30650000D01*
X38625001Y-30650000D01*
X38625001Y-30706479D01*
X38225500Y-30706479D01*
X38225500Y-30093507D01*
X38625000Y-30093507D01*
X38625000Y-30093513D01*
X38625000Y-30150000D01*
X38975000Y-30150000D01*
X38975000Y-29727932D01*
X39475000Y-29727932D01*
X39475000Y-30150000D01*
X39824999Y-30150000D01*
X39824999Y-30093520D01*
X39810164Y-29999850D01*
X39810163Y-29999847D01*
X39767284Y-29915694D01*
X39767283Y-29915693D01*
X39752639Y-29886953D01*
X39752636Y-29886949D01*
X39752635Y-29886948D01*
X39752634Y-29886946D01*
X39733213Y-29867525D01*
X54389500Y-29867525D01*
X54389500Y-30012475D01*
X54402766Y-30061984D01*
X54426352Y-30150008D01*
X54427016Y-30152486D01*
X54427016Y-30152488D01*
X54497631Y-30274795D01*
X54499489Y-30278013D01*
X54601985Y-30380509D01*
X54602674Y-30381005D01*
X54605178Y-30382353D01*
X54724069Y-30450995D01*
X54727087Y-30452869D01*
X54727514Y-30452983D01*
X54727515Y-30452984D01*
X54867525Y-30490500D01*
X54867528Y-30490500D01*
X55012472Y-30490500D01*
X55012475Y-30490500D01*
X55152485Y-30452984D01*
X55278015Y-30380509D01*
X55380509Y-30278015D01*
X55452984Y-30152485D01*
X55490500Y-30012475D01*
X55490500Y-29867525D01*
X55452984Y-29727515D01*
X55449923Y-29722215D01*
X55449921Y-29722205D01*
X55449919Y-29722207D01*
X55380513Y-29601991D01*
X55380508Y-29601984D01*
X55380493Y-29601968D01*
X55278030Y-29499505D01*
X55278014Y-29499490D01*
X55278006Y-29499485D01*
X55224243Y-29468445D01*
X55195808Y-29438624D01*
X55141007Y-29423939D01*
X55141007Y-29423940D01*
X55076740Y-29406720D01*
X55012475Y-29389500D01*
X55012474Y-29389500D01*
X54867525Y-29389500D01*
X54738994Y-29423939D01*
X54738993Y-29423940D01*
X54731338Y-29425991D01*
X54727510Y-29427017D01*
X54601991Y-29499485D01*
X54601984Y-29499490D01*
X54601968Y-29499505D01*
X54499505Y-29601968D01*
X54499490Y-29601984D01*
X54499485Y-29601992D01*
X54427017Y-29727509D01*
X54426989Y-29727578D01*
X54426748Y-29728511D01*
X54391402Y-29860426D01*
X54389500Y-29867525D01*
X39733213Y-29867525D01*
X39663052Y-29797364D01*
X39663041Y-29797357D01*
X39579922Y-29755006D01*
X39550144Y-29739833D01*
X39550142Y-29739832D01*
X39550138Y-29739831D01*
X39475000Y-29727931D01*
X39475000Y-29727932D01*
X38975000Y-29727932D01*
X38899855Y-29739833D01*
X38786957Y-29797357D01*
X38786946Y-29797364D01*
X38697364Y-29886946D01*
X38697357Y-29886957D01*
X38639833Y-29999855D01*
X38639831Y-29999860D01*
X38625000Y-30093507D01*
X38225500Y-30093507D01*
X38225500Y-30070730D01*
X38224680Y-30061992D01*
X38223188Y-30046079D01*
X38223020Y-30042502D01*
X38222646Y-30040300D01*
X38222646Y-30040298D01*
X38177793Y-29912119D01*
X38177792Y-29912117D01*
X38161035Y-29889412D01*
X38097150Y-29802850D01*
X37987882Y-29722207D01*
X37987880Y-29722206D01*
X37987877Y-29722205D01*
X37859704Y-29677354D01*
X37859702Y-29677353D01*
X37859700Y-29677353D01*
X37829270Y-29674500D01*
X37829266Y-29674500D01*
X37829264Y-29674500D01*
X37320734Y-29674500D01*
X37320730Y-29674500D01*
X37302074Y-29676249D01*
X37296069Y-29676812D01*
X37292499Y-29676978D01*
X37290297Y-29677353D01*
X37162118Y-29722206D01*
X37052852Y-29802847D01*
X37052851Y-29802849D01*
X37010356Y-29860426D01*
X36985577Y-29885544D01*
X36974523Y-29893938D01*
X36909228Y-29918804D01*
X36840855Y-29904422D01*
X36840846Y-29904417D01*
X36834339Y-29900921D01*
X36793259Y-29865324D01*
X36774314Y-29839655D01*
X36757613Y-29808568D01*
X36755525Y-29802852D01*
X36747025Y-29779578D01*
X36739500Y-29737038D01*
X36739500Y-27039888D01*
X36744523Y-27004953D01*
X36748171Y-26992529D01*
X36785945Y-26933751D01*
X36849501Y-26904726D01*
X36913779Y-26912566D01*
X36922366Y-26916051D01*
X36948622Y-26930632D01*
X36963210Y-26941231D01*
X36963224Y-26941240D01*
X36963544Y-26941401D01*
X37117555Y-27019873D01*
X37282299Y-27073402D01*
X37453389Y-27100500D01*
X37453390Y-27100500D01*
X37626610Y-27100500D01*
X37626611Y-27100500D01*
X37797701Y-27073402D01*
X37962445Y-27019873D01*
X38116788Y-26941232D01*
X38256928Y-26839414D01*
X38379414Y-26716928D01*
X38481232Y-26576788D01*
X38559873Y-26422445D01*
X38613402Y-26257701D01*
X38640500Y-26086611D01*
X38640500Y-25913389D01*
X38640500Y-25913383D01*
X38614929Y-25751937D01*
X38614622Y-25750000D01*
X39059157Y-25750000D01*
X39467750Y-25750000D01*
X39534789Y-25769685D01*
X39580544Y-25822489D01*
X39590488Y-25891647D01*
X39587524Y-25906095D01*
X39580000Y-25934171D01*
X39580000Y-26065828D01*
X39587524Y-26093905D01*
X39585863Y-26163755D01*
X39546701Y-26221618D01*
X39482473Y-26249123D01*
X39467750Y-26250000D01*
X39059157Y-26250000D01*
X39070350Y-26306274D01*
X39070351Y-26306276D01*
X39149500Y-26497358D01*
X39149505Y-26497368D01*
X39150505Y-26498865D01*
X39150506Y-26498867D01*
X39173513Y-26533299D01*
X39264410Y-26669335D01*
X39264413Y-26669339D01*
X39264415Y-26669341D01*
X39264417Y-26669344D01*
X39410654Y-26815581D01*
X39410657Y-26815583D01*
X39410660Y-26815586D01*
X39410664Y-26815589D01*
X39582631Y-26930494D01*
X39582641Y-26930499D01*
X39745547Y-26997977D01*
X39769660Y-27007965D01*
X39772222Y-27009134D01*
X39773722Y-27009648D01*
X39773723Y-27009648D01*
X39773725Y-27009649D01*
X39830000Y-27020842D01*
X39830000Y-27020841D01*
X39830000Y-26612250D01*
X39849685Y-26545211D01*
X39902489Y-26499456D01*
X39971647Y-26489512D01*
X39986093Y-26492475D01*
X40014174Y-26500000D01*
X40145825Y-26500000D01*
X40145826Y-26500000D01*
X40173905Y-26492476D01*
X40243755Y-26494137D01*
X40301618Y-26533299D01*
X40329123Y-26597527D01*
X40330000Y-26612250D01*
X40330000Y-27020841D01*
X40330000Y-27020842D01*
X40386274Y-27009649D01*
X40386275Y-27009648D01*
X40386277Y-27009648D01*
X40387772Y-27009135D01*
X40390326Y-27007970D01*
X40577358Y-26930499D01*
X40577368Y-26930494D01*
X40749335Y-26815589D01*
X40749339Y-26815586D01*
X40895586Y-26669339D01*
X40895589Y-26669335D01*
X41010494Y-26497368D01*
X41010499Y-26497358D01*
X41087969Y-26310327D01*
X41089135Y-26307773D01*
X41089648Y-26306275D01*
X41089649Y-26306274D01*
X41100843Y-26250000D01*
X40692250Y-26250000D01*
X40625211Y-26230315D01*
X40579456Y-26177511D01*
X40569512Y-26108353D01*
X40572476Y-26093905D01*
X40580000Y-26065826D01*
X40580000Y-25934174D01*
X40572476Y-25906094D01*
X40574137Y-25836245D01*
X40613299Y-25778382D01*
X40677527Y-25750877D01*
X40692250Y-25750000D01*
X41100843Y-25750000D01*
X41100843Y-25749999D01*
X41090245Y-25696722D01*
X41089649Y-25693725D01*
X41089648Y-25693723D01*
X41089648Y-25693722D01*
X41089134Y-25692221D01*
X41087965Y-25689660D01*
X41083866Y-25679764D01*
X41010499Y-25502641D01*
X41010494Y-25502631D01*
X40895589Y-25330664D01*
X40895586Y-25330660D01*
X40895583Y-25330657D01*
X40895581Y-25330654D01*
X40749344Y-25184417D01*
X40749341Y-25184415D01*
X40749339Y-25184413D01*
X40749335Y-25184410D01*
X40577368Y-25069505D01*
X40577366Y-25069504D01*
X40577363Y-25069502D01*
X40462105Y-25021760D01*
X40462105Y-25021761D01*
X40394507Y-25425944D01*
X40364034Y-25488819D01*
X40304406Y-25525236D01*
X40240114Y-25525264D01*
X40145826Y-25500000D01*
X40145824Y-25500000D01*
X40014171Y-25500000D01*
X39986092Y-25507524D01*
X39916242Y-25505861D01*
X39858380Y-25466698D01*
X39830877Y-25402469D01*
X39830000Y-25387749D01*
X39830000Y-24979156D01*
X39829998Y-24979154D01*
X39773736Y-24990345D01*
X39773735Y-24990345D01*
X39582635Y-25069502D01*
X39582632Y-25069504D01*
X39519697Y-25111556D01*
X39423525Y-25175817D01*
X39410657Y-25184415D01*
X39410654Y-25184417D01*
X39264417Y-25330654D01*
X39264415Y-25330657D01*
X39264413Y-25330660D01*
X39264410Y-25330664D01*
X39236377Y-25372617D01*
X39149504Y-25502631D01*
X39072033Y-25689661D01*
X39071526Y-25690289D01*
X39070350Y-25693722D01*
X39059157Y-25750000D01*
X38614622Y-25750000D01*
X38614488Y-25749157D01*
X38612890Y-25739065D01*
X38610389Y-25733026D01*
X38598593Y-25696722D01*
X38559873Y-25577555D01*
X38559871Y-25577552D01*
X38559871Y-25577550D01*
X38503389Y-25466698D01*
X38481232Y-25423212D01*
X38379414Y-25283072D01*
X38256928Y-25160586D01*
X38116788Y-25058768D01*
X38082444Y-25041269D01*
X37962449Y-24980128D01*
X37811215Y-24930988D01*
X37811203Y-24930985D01*
X37797701Y-24926598D01*
X37797699Y-24926597D01*
X37797698Y-24926597D01*
X37783312Y-24924318D01*
X37783306Y-24924317D01*
X37683640Y-24908532D01*
X37666271Y-24905781D01*
X37650407Y-24903268D01*
X37626614Y-24899500D01*
X37626611Y-24899500D01*
X37453389Y-24899500D01*
X37453388Y-24899500D01*
X37413726Y-24905781D01*
X37413725Y-24905780D01*
X37282298Y-24926597D01*
X37282275Y-24926603D01*
X37281824Y-24926752D01*
X37120553Y-24979153D01*
X37120550Y-24979154D01*
X37117553Y-24980127D01*
X36963214Y-25058765D01*
X36963205Y-25058770D01*
X36950809Y-25067778D01*
X36919587Y-25084252D01*
X36907394Y-25088602D01*
X36837638Y-25092589D01*
X36776801Y-25058229D01*
X36745364Y-25001619D01*
X36743136Y-24992622D01*
X36739500Y-24962815D01*
X36739500Y-24867525D01*
X44389500Y-24867525D01*
X44389500Y-25012475D01*
X44414525Y-25105867D01*
X44417868Y-25118343D01*
X44427018Y-25152492D01*
X44497631Y-25274795D01*
X44499489Y-25278013D01*
X44601985Y-25380509D01*
X44602674Y-25381005D01*
X44605178Y-25382353D01*
X44724069Y-25450995D01*
X44727087Y-25452869D01*
X44727514Y-25452983D01*
X44727515Y-25452984D01*
X44867525Y-25490500D01*
X44867528Y-25490500D01*
X45012472Y-25490500D01*
X45012475Y-25490500D01*
X45152485Y-25452984D01*
X45278015Y-25380509D01*
X45380509Y-25278015D01*
X45452984Y-25152485D01*
X45490500Y-25012475D01*
X45490500Y-24867525D01*
X45452984Y-24727515D01*
X45452982Y-24727512D01*
X45452983Y-24727512D01*
X45445432Y-24714434D01*
X45445431Y-24714433D01*
X45380513Y-24601991D01*
X45380508Y-24601984D01*
X45380493Y-24601968D01*
X45278030Y-24499505D01*
X45278014Y-24499490D01*
X45278006Y-24499485D01*
X45239270Y-24477121D01*
X45224242Y-24468444D01*
X45195808Y-24438624D01*
X45141007Y-24423939D01*
X45141007Y-24423940D01*
X45058263Y-24401769D01*
X45012475Y-24389500D01*
X45012474Y-24389500D01*
X44867525Y-24389500D01*
X44738994Y-24423939D01*
X44738993Y-24423940D01*
X44731338Y-24425991D01*
X44727510Y-24427017D01*
X44601991Y-24499485D01*
X44601984Y-24499490D01*
X44601968Y-24499505D01*
X44499505Y-24601968D01*
X44499490Y-24601984D01*
X44499485Y-24601992D01*
X44428287Y-24725308D01*
X44428286Y-24725312D01*
X44427017Y-24727511D01*
X44427016Y-24727515D01*
X44389500Y-24867525D01*
X36739500Y-24867525D01*
X36739500Y-24689693D01*
X36739500Y-24689691D01*
X36708799Y-24575114D01*
X36660005Y-24490601D01*
X36651372Y-24475647D01*
X36638826Y-24445144D01*
X36637179Y-24438868D01*
X36639191Y-24369031D01*
X36678643Y-24311365D01*
X36743008Y-24284183D01*
X36798923Y-24290639D01*
X36806027Y-24293184D01*
X36837090Y-24309599D01*
X36963212Y-24401232D01*
X37117555Y-24479873D01*
X37282299Y-24533402D01*
X37453389Y-24560500D01*
X37453390Y-24560500D01*
X37626610Y-24560500D01*
X37626611Y-24560500D01*
X37797701Y-24533402D01*
X37962445Y-24479873D01*
X38116788Y-24401232D01*
X38256928Y-24299414D01*
X38379414Y-24176928D01*
X38481232Y-24036788D01*
X38559873Y-23882445D01*
X38613402Y-23717701D01*
X38640500Y-23546611D01*
X38640500Y-23373389D01*
X38613402Y-23202299D01*
X38559873Y-23037555D01*
X38481232Y-22883212D01*
X38379414Y-22743072D01*
X38256928Y-22620586D01*
X38256927Y-22620585D01*
X38256922Y-22620581D01*
X38222119Y-22595295D01*
X38179934Y-22541183D01*
X38179425Y-22539917D01*
X38172535Y-22530976D01*
X38166577Y-22461360D01*
X38199202Y-22399575D01*
X38227149Y-22378036D01*
X38229855Y-22376508D01*
X38290797Y-22360500D01*
X38855296Y-22360500D01*
X38890228Y-22365521D01*
X38903547Y-22369432D01*
X38962325Y-22407206D01*
X38991350Y-22470760D01*
X38992917Y-22481657D01*
X38991797Y-22523499D01*
X38979500Y-22585318D01*
X38979500Y-22585321D01*
X38979500Y-24334678D01*
X38979500Y-24334680D01*
X38979499Y-24334680D01*
X38994028Y-24407717D01*
X38994032Y-24407733D01*
X38994033Y-24407740D01*
X39006913Y-24427016D01*
X39049399Y-24490601D01*
X39128317Y-24543332D01*
X39128318Y-24543332D01*
X39128319Y-24543333D01*
X39132260Y-24545966D01*
X39132264Y-24545967D01*
X39132282Y-24545970D01*
X39132288Y-24545972D01*
X39177021Y-24554869D01*
X39197681Y-24558979D01*
X39200415Y-24559703D01*
X39205323Y-24560500D01*
X40954676Y-24560500D01*
X40958796Y-24560500D01*
X40966648Y-24558117D01*
X41027740Y-24545966D01*
X41110601Y-24490601D01*
X41165966Y-24407740D01*
X41180500Y-24334674D01*
X41180500Y-22585326D01*
X41180500Y-22585323D01*
X41180500Y-22585139D01*
X41180069Y-22583156D01*
X41168735Y-22526176D01*
X41166846Y-22490933D01*
X41168083Y-22477110D01*
X41193664Y-22412091D01*
X41250332Y-22371227D01*
X41260729Y-22367559D01*
X41301972Y-22360500D01*
X49614205Y-22360500D01*
X49649137Y-22365521D01*
X49674381Y-22372934D01*
X49727127Y-22404230D01*
X50324057Y-23001160D01*
X50345209Y-23029416D01*
X50353390Y-23044399D01*
X50368403Y-23110011D01*
X50367739Y-23123303D01*
X50361824Y-23155434D01*
X50346598Y-23202293D01*
X50345071Y-23211936D01*
X50345071Y-23211937D01*
X50319500Y-23373383D01*
X50319500Y-23546615D01*
X50344315Y-23703293D01*
X50344316Y-23703301D01*
X50346597Y-23717697D01*
X50346597Y-23717699D01*
X50346598Y-23717701D01*
X50350989Y-23731216D01*
X50350992Y-23731227D01*
X50400128Y-23882449D01*
X50418669Y-23918837D01*
X50478768Y-24036788D01*
X50580586Y-24176928D01*
X50703072Y-24299414D01*
X50843212Y-24401232D01*
X50997555Y-24479873D01*
X51162299Y-24533402D01*
X51333389Y-24560500D01*
X51333390Y-24560500D01*
X51506610Y-24560500D01*
X51506611Y-24560500D01*
X51677701Y-24533402D01*
X51842445Y-24479873D01*
X51996788Y-24401232D01*
X52009190Y-24392220D01*
X52040404Y-24375749D01*
X52052607Y-24371395D01*
X52122361Y-24367409D01*
X52183198Y-24401769D01*
X52214634Y-24458373D01*
X52216328Y-24465212D01*
X52214942Y-24529961D01*
X52208065Y-24553381D01*
X52176769Y-24606126D01*
X51878837Y-24904057D01*
X51850581Y-24925209D01*
X51835598Y-24933390D01*
X51769986Y-24948403D01*
X51765719Y-24948189D01*
X51756689Y-24947738D01*
X51724563Y-24941824D01*
X51677703Y-24926598D01*
X51677682Y-24926594D01*
X51546271Y-24905781D01*
X51530407Y-24903268D01*
X51506614Y-24899500D01*
X51506611Y-24899500D01*
X51333389Y-24899500D01*
X51333388Y-24899500D01*
X51293726Y-24905781D01*
X51293725Y-24905780D01*
X51162298Y-24926597D01*
X51162275Y-24926603D01*
X51161824Y-24926752D01*
X51000553Y-24979153D01*
X51000550Y-24979154D01*
X50997553Y-24980127D01*
X50843222Y-25058761D01*
X50843205Y-25058772D01*
X50784068Y-25101738D01*
X50722837Y-25146224D01*
X50722830Y-25146230D01*
X50703072Y-25160586D01*
X50703070Y-25160588D01*
X50703069Y-25160588D01*
X50580588Y-25283069D01*
X50580588Y-25283070D01*
X50580586Y-25283072D01*
X50566230Y-25302830D01*
X50566227Y-25302834D01*
X50546011Y-25330660D01*
X50478768Y-25423210D01*
X50400129Y-25577549D01*
X50346596Y-25742305D01*
X50319500Y-25913383D01*
X50319500Y-25913389D01*
X50319500Y-26086611D01*
X50346598Y-26257701D01*
X50400127Y-26422445D01*
X50478768Y-26576788D01*
X50580586Y-26716928D01*
X50703072Y-26839414D01*
X50843212Y-26941232D01*
X50997555Y-27019873D01*
X51162299Y-27073402D01*
X51333389Y-27100500D01*
X51333390Y-27100500D01*
X51506610Y-27100500D01*
X51506611Y-27100500D01*
X51677701Y-27073402D01*
X51842445Y-27019873D01*
X51996788Y-26941232D01*
X52136928Y-26839414D01*
X52259414Y-26716928D01*
X52361232Y-26576788D01*
X52439873Y-26422445D01*
X52493402Y-26257701D01*
X52520500Y-26086611D01*
X52520500Y-25913389D01*
X52520499Y-25913383D01*
X52859500Y-25913383D01*
X52859500Y-25913389D01*
X52859500Y-26086611D01*
X52886598Y-26257701D01*
X52940127Y-26422445D01*
X53018768Y-26576788D01*
X53120586Y-26716928D01*
X53243072Y-26839414D01*
X53383212Y-26941232D01*
X53537555Y-27019873D01*
X53702299Y-27073402D01*
X53873389Y-27100500D01*
X53873390Y-27100500D01*
X54046610Y-27100500D01*
X54046611Y-27100500D01*
X54217701Y-27073402D01*
X54382445Y-27019873D01*
X54536788Y-26941232D01*
X54676928Y-26839414D01*
X54799414Y-26716928D01*
X54901232Y-26576788D01*
X54979873Y-26422445D01*
X55033402Y-26257701D01*
X55060500Y-26086611D01*
X55060500Y-25913389D01*
X55060500Y-25913383D01*
X55034929Y-25751937D01*
X55034622Y-25750000D01*
X55479157Y-25750000D01*
X55887750Y-25750000D01*
X55954789Y-25769685D01*
X56000544Y-25822489D01*
X56010488Y-25891647D01*
X56007524Y-25906095D01*
X56000000Y-25934171D01*
X56000000Y-26065828D01*
X56007524Y-26093905D01*
X56005863Y-26163755D01*
X55966701Y-26221618D01*
X55902473Y-26249123D01*
X55887750Y-26250000D01*
X55479157Y-26250000D01*
X55490350Y-26306274D01*
X55490351Y-26306276D01*
X55569500Y-26497358D01*
X55569505Y-26497368D01*
X55570505Y-26498865D01*
X55570506Y-26498867D01*
X55593513Y-26533299D01*
X55684410Y-26669335D01*
X55684413Y-26669339D01*
X55684415Y-26669341D01*
X55684417Y-26669344D01*
X55830654Y-26815581D01*
X55830657Y-26815583D01*
X55830660Y-26815586D01*
X55830664Y-26815589D01*
X56002631Y-26930494D01*
X56002641Y-26930499D01*
X56165547Y-26997977D01*
X56189660Y-27007965D01*
X56192222Y-27009134D01*
X56193722Y-27009648D01*
X56193723Y-27009648D01*
X56193725Y-27009649D01*
X56250000Y-27020842D01*
X56250000Y-27020841D01*
X56250000Y-26612250D01*
X56269685Y-26545211D01*
X56322489Y-26499456D01*
X56391647Y-26489512D01*
X56406093Y-26492475D01*
X56434174Y-26500000D01*
X56565825Y-26500000D01*
X56565826Y-26500000D01*
X56593905Y-26492476D01*
X56663755Y-26494137D01*
X56721618Y-26533299D01*
X56749123Y-26597527D01*
X56750000Y-26612250D01*
X56750000Y-27020841D01*
X56750000Y-27020842D01*
X56806274Y-27009649D01*
X56806275Y-27009648D01*
X56806277Y-27009648D01*
X56807772Y-27009135D01*
X56810326Y-27007970D01*
X56997358Y-26930499D01*
X56997368Y-26930494D01*
X57169335Y-26815589D01*
X57169339Y-26815586D01*
X57315586Y-26669339D01*
X57315589Y-26669335D01*
X57430494Y-26497368D01*
X57430499Y-26497358D01*
X57507969Y-26310327D01*
X57509135Y-26307773D01*
X57509648Y-26306275D01*
X57509649Y-26306274D01*
X57520843Y-26250000D01*
X57112250Y-26250000D01*
X57045211Y-26230315D01*
X56999456Y-26177511D01*
X56989512Y-26108353D01*
X56992476Y-26093905D01*
X57000000Y-26065826D01*
X57000000Y-25934174D01*
X56992476Y-25906094D01*
X56994137Y-25836245D01*
X57033299Y-25778382D01*
X57097527Y-25750877D01*
X57112250Y-25750000D01*
X57520843Y-25750000D01*
X57520843Y-25749999D01*
X57510245Y-25696722D01*
X57509649Y-25693725D01*
X57509648Y-25693723D01*
X57509648Y-25693722D01*
X57509134Y-25692221D01*
X57507965Y-25689660D01*
X57503866Y-25679764D01*
X57430499Y-25502641D01*
X57430494Y-25502631D01*
X57315589Y-25330664D01*
X57315586Y-25330660D01*
X57315583Y-25330657D01*
X57315581Y-25330654D01*
X57169344Y-25184417D01*
X57169341Y-25184415D01*
X57169339Y-25184413D01*
X57169335Y-25184410D01*
X56997368Y-25069505D01*
X56997366Y-25069504D01*
X56997363Y-25069502D01*
X56806263Y-24990345D01*
X56806261Y-24990345D01*
X56750000Y-24979154D01*
X56750000Y-25387749D01*
X56730315Y-25454788D01*
X56677511Y-25500543D01*
X56608353Y-25510487D01*
X56593908Y-25507524D01*
X56565828Y-25500000D01*
X56565826Y-25500000D01*
X56434174Y-25500000D01*
X56434171Y-25500000D01*
X56406092Y-25507524D01*
X56336242Y-25505861D01*
X56278380Y-25466698D01*
X56250877Y-25402469D01*
X56250000Y-25387749D01*
X56250000Y-24979156D01*
X56249998Y-24979154D01*
X56193736Y-24990345D01*
X56193735Y-24990345D01*
X56002635Y-25069502D01*
X56002632Y-25069504D01*
X55939697Y-25111556D01*
X55843525Y-25175817D01*
X55830657Y-25184415D01*
X55830654Y-25184417D01*
X55684417Y-25330654D01*
X55684415Y-25330657D01*
X55684413Y-25330660D01*
X55684410Y-25330664D01*
X55656377Y-25372617D01*
X55569504Y-25502631D01*
X55492033Y-25689661D01*
X55491526Y-25690289D01*
X55490350Y-25693722D01*
X55479157Y-25750000D01*
X55034622Y-25750000D01*
X55034488Y-25749157D01*
X55032890Y-25739065D01*
X55030389Y-25733026D01*
X55018593Y-25696722D01*
X54979873Y-25577555D01*
X54979871Y-25577552D01*
X54979871Y-25577550D01*
X54923389Y-25466698D01*
X54901232Y-25423212D01*
X54799414Y-25283072D01*
X54676928Y-25160586D01*
X54536788Y-25058768D01*
X54502444Y-25041269D01*
X54382449Y-24980128D01*
X54231215Y-24930988D01*
X54231203Y-24930985D01*
X54217701Y-24926598D01*
X54217699Y-24926597D01*
X54217698Y-24926597D01*
X54203312Y-24924318D01*
X54203306Y-24924317D01*
X54103640Y-24908532D01*
X54086271Y-24905781D01*
X54070407Y-24903268D01*
X54046614Y-24899500D01*
X54046611Y-24899500D01*
X53873389Y-24899500D01*
X53873388Y-24899500D01*
X53833726Y-24905781D01*
X53833725Y-24905780D01*
X53702298Y-24926597D01*
X53702275Y-24926603D01*
X53701824Y-24926752D01*
X53540553Y-24979153D01*
X53540550Y-24979154D01*
X53537553Y-24980127D01*
X53383222Y-25058761D01*
X53383205Y-25058772D01*
X53324068Y-25101738D01*
X53249465Y-25155939D01*
X53249454Y-25155948D01*
X53243072Y-25160586D01*
X53243070Y-25160588D01*
X53243068Y-25160589D01*
X53227851Y-25175805D01*
X53227840Y-25175817D01*
X53222642Y-25181014D01*
X53221091Y-25182465D01*
X53191666Y-25197268D01*
X53162769Y-25213048D01*
X53160609Y-25212893D01*
X53158675Y-25213867D01*
X53137959Y-25211682D01*
X53123758Y-25276966D01*
X53115244Y-25290425D01*
X53018768Y-25423210D01*
X53018766Y-25423214D01*
X53010791Y-25438858D01*
X53010782Y-25438882D01*
X52940130Y-25577546D01*
X52886596Y-25742305D01*
X52859500Y-25913383D01*
X52520499Y-25913383D01*
X52493402Y-25742299D01*
X52478589Y-25696713D01*
X52472572Y-25661944D01*
X52472085Y-25644880D01*
X52488499Y-25579600D01*
X52495130Y-25568051D01*
X52514975Y-25542125D01*
X52927246Y-25129856D01*
X52988568Y-25096373D01*
X53013022Y-25098121D01*
X53012499Y-25096559D01*
X53020584Y-25064612D01*
X53027579Y-25032455D01*
X53029025Y-25029881D01*
X53031491Y-25025611D01*
X53090799Y-24922887D01*
X53090800Y-24922880D01*
X53093889Y-24915425D01*
X53098049Y-24909198D01*
X53101512Y-24882900D01*
X53121500Y-24808309D01*
X53121500Y-24472279D01*
X53126522Y-24437347D01*
X53129555Y-24427017D01*
X53130170Y-24424920D01*
X53167943Y-24366143D01*
X53231498Y-24337117D01*
X53295785Y-24344959D01*
X53304374Y-24348445D01*
X53330619Y-24363021D01*
X53383211Y-24401232D01*
X53383215Y-24401234D01*
X53383341Y-24401297D01*
X53537555Y-24479873D01*
X53702299Y-24533402D01*
X53873389Y-24560500D01*
X53873390Y-24560500D01*
X54046610Y-24560500D01*
X54046611Y-24560500D01*
X54217701Y-24533402D01*
X54382445Y-24479873D01*
X54536788Y-24401232D01*
X54628389Y-24334680D01*
X55399499Y-24334680D01*
X55414028Y-24407717D01*
X55414032Y-24407733D01*
X55414033Y-24407740D01*
X55426913Y-24427016D01*
X55469399Y-24490601D01*
X55548317Y-24543332D01*
X55548318Y-24543332D01*
X55548319Y-24543333D01*
X55552260Y-24545966D01*
X55552264Y-24545967D01*
X55552282Y-24545970D01*
X55552288Y-24545972D01*
X55597021Y-24554869D01*
X55617681Y-24558979D01*
X55620415Y-24559703D01*
X55625323Y-24560500D01*
X57374676Y-24560500D01*
X57378796Y-24560500D01*
X57386648Y-24558117D01*
X57447740Y-24545966D01*
X57530601Y-24490601D01*
X57585966Y-24407740D01*
X57600500Y-24334674D01*
X57600500Y-22585326D01*
X57600500Y-22585323D01*
X57600499Y-22585321D01*
X57585967Y-22512264D01*
X57585966Y-22512260D01*
X57550963Y-22459874D01*
X57530601Y-22429399D01*
X57488706Y-22401406D01*
X57457891Y-22380816D01*
X57453826Y-22377480D01*
X57447739Y-22374033D01*
X57447735Y-22374032D01*
X57447709Y-22374026D01*
X57374680Y-22359500D01*
X57374677Y-22359500D01*
X57374674Y-22359500D01*
X55625326Y-22359500D01*
X55625323Y-22359500D01*
X55625319Y-22359500D01*
X55552285Y-22374027D01*
X55552262Y-22374032D01*
X55552258Y-22374033D01*
X55469399Y-22429399D01*
X55414033Y-22512258D01*
X55414032Y-22512266D01*
X55414028Y-22512281D01*
X55399500Y-22585318D01*
X55399500Y-22585321D01*
X55399500Y-24334678D01*
X55399500Y-24334680D01*
X55399499Y-24334680D01*
X54628389Y-24334680D01*
X54676928Y-24299414D01*
X54799414Y-24176928D01*
X54901232Y-24036788D01*
X54979873Y-23882445D01*
X55033402Y-23717701D01*
X55060500Y-23546611D01*
X55060500Y-23373389D01*
X55033402Y-23202299D01*
X54979873Y-23037555D01*
X54901232Y-22883212D01*
X54799414Y-22743072D01*
X54676928Y-22620586D01*
X54536788Y-22518768D01*
X54536780Y-22518764D01*
X54382449Y-22440128D01*
X54231215Y-22390988D01*
X54231203Y-22390985D01*
X54217701Y-22386598D01*
X54217699Y-22386597D01*
X54217698Y-22386597D01*
X54203312Y-22384318D01*
X54203306Y-22384317D01*
X54097503Y-22367560D01*
X54086271Y-22365781D01*
X54070407Y-22363268D01*
X54046614Y-22359500D01*
X54046611Y-22359500D01*
X53873389Y-22359500D01*
X53873388Y-22359500D01*
X53833726Y-22365781D01*
X53833725Y-22365780D01*
X53702304Y-22386596D01*
X53537549Y-22440129D01*
X53383207Y-22518769D01*
X53323876Y-22561876D01*
X53292663Y-22578345D01*
X53279592Y-22583009D01*
X53209837Y-22586999D01*
X53149000Y-22552645D01*
X53144971Y-22548499D01*
X53114127Y-22494178D01*
X53107852Y-22470760D01*
X53099645Y-22440127D01*
X53096770Y-22429398D01*
X53096769Y-22429395D01*
X53091280Y-22408910D01*
X53090799Y-22407112D01*
X53031493Y-22304390D01*
X53031490Y-22304387D01*
X53031488Y-22304384D01*
X51576616Y-20849513D01*
X51576614Y-20849511D01*
X51525250Y-20819856D01*
X51522774Y-20818426D01*
X51522764Y-20818420D01*
X51473889Y-20790201D01*
X51461777Y-20786956D01*
X51461777Y-20786955D01*
X51451380Y-20784170D01*
X51449675Y-20783713D01*
X51449674Y-20783712D01*
X51449670Y-20783712D01*
X51421706Y-20776218D01*
X51411475Y-20773477D01*
X51411475Y-20773476D01*
X51359314Y-20759500D01*
X51359309Y-20759500D01*
X34640691Y-20759500D01*
X34640689Y-20759500D01*
X34554759Y-20782523D01*
X34554760Y-20782524D01*
X34526118Y-20790199D01*
X34526112Y-20790201D01*
X34423386Y-20849508D01*
X33039517Y-22233377D01*
X33039509Y-22233387D01*
X33039505Y-22233393D01*
X32980200Y-22336112D01*
X32979852Y-22337037D01*
X32979167Y-22339967D01*
X32949500Y-22450689D01*
X32949500Y-22450691D01*
X32949500Y-24459311D01*
X32957884Y-24490598D01*
X32957884Y-24490601D01*
X32957885Y-24490601D01*
X32966483Y-24522693D01*
X32966484Y-24522694D01*
X32980201Y-24573888D01*
X32998814Y-24606126D01*
X33039511Y-24676614D01*
X33039513Y-24676616D01*
X33904057Y-25541160D01*
X33925209Y-25569416D01*
X33933390Y-25584399D01*
X33948403Y-25650011D01*
X33947739Y-25663303D01*
X33941824Y-25695434D01*
X33926598Y-25742293D01*
X33925071Y-25751936D01*
X33925071Y-25751937D01*
X33917099Y-25802272D01*
X33917027Y-25802728D01*
X33899500Y-25913389D01*
X33899500Y-26086611D01*
X33926598Y-26257701D01*
X33972866Y-26400099D01*
X33972867Y-26400101D01*
X33980126Y-26422443D01*
X34058761Y-26576776D01*
X34058765Y-26576783D01*
X34058768Y-26576788D01*
X34084533Y-26612250D01*
X34090340Y-26620242D01*
X34106808Y-26651452D01*
X34117288Y-26680825D01*
X34124500Y-26722494D01*
X34124500Y-29669542D01*
X34119476Y-29704481D01*
X34112792Y-29727242D01*
X34075016Y-29786018D01*
X34067454Y-29792070D01*
X34052851Y-29802848D01*
X34007944Y-29863693D01*
X33974219Y-29895006D01*
X33965843Y-29900277D01*
X33898619Y-29919322D01*
X33841098Y-29904554D01*
X33839097Y-29903478D01*
X33839090Y-29903474D01*
X33834324Y-29900913D01*
X33793256Y-29865322D01*
X33781579Y-29849500D01*
X33747150Y-29802850D01*
X33637882Y-29722207D01*
X33637880Y-29722206D01*
X33637877Y-29722205D01*
X33509704Y-29677354D01*
X33509702Y-29677353D01*
X33509700Y-29677353D01*
X33479270Y-29674500D01*
X33479266Y-29674500D01*
X33479264Y-29674500D01*
X32970734Y-29674500D01*
X32970730Y-29674500D01*
X32952074Y-29676249D01*
X32946069Y-29676812D01*
X32942499Y-29676978D01*
X32940297Y-29677353D01*
X32812118Y-29722206D01*
X32702849Y-29802849D01*
X32622206Y-29912118D01*
X32577353Y-30040297D01*
X32575601Y-30050609D01*
X32573552Y-30050260D01*
X32574635Y-30067837D01*
X32574500Y-30070721D01*
X32574500Y-30729265D01*
X32576812Y-30753929D01*
X32576577Y-30755135D01*
X32577353Y-30759699D01*
X32577353Y-30759701D01*
X32622206Y-30887880D01*
X32622207Y-30887882D01*
X32702850Y-30997150D01*
X32804357Y-31072065D01*
X32812118Y-31077793D01*
X32940299Y-31122646D01*
X32940303Y-31122647D01*
X32958742Y-31124375D01*
X32970730Y-31125500D01*
X32970734Y-31125500D01*
X32970739Y-31125500D01*
X33479270Y-31125500D01*
X33479271Y-31125500D01*
X33480576Y-31125377D01*
X33509699Y-31122646D01*
X33509701Y-31122646D01*
X33573790Y-31100219D01*
X33637882Y-31077793D01*
X33637885Y-31077791D01*
X33747149Y-30997151D01*
X33747150Y-30997150D01*
X33765143Y-30972768D01*
X33789932Y-30947639D01*
X33798938Y-30940801D01*
X33864235Y-30915942D01*
X33932607Y-30930331D01*
X33982325Y-30979363D01*
X33983906Y-30982210D01*
X33999500Y-31042410D01*
X33999500Y-31313118D01*
X33994477Y-31348055D01*
X33985394Y-31378987D01*
X33973974Y-31404716D01*
X33974164Y-31404813D01*
X33972366Y-31408340D01*
X33972148Y-31408833D01*
X33971955Y-31409146D01*
X33914353Y-31522195D01*
X33914350Y-31522203D01*
X33899500Y-31615969D01*
X33899500Y-32854020D01*
X33907953Y-32907390D01*
X33910292Y-32922157D01*
X33914354Y-32947804D01*
X33971950Y-33060842D01*
X33971952Y-33060844D01*
X33971953Y-33060846D01*
X34000576Y-33089469D01*
X34021722Y-33117715D01*
X34034331Y-33140807D01*
X34049500Y-33200233D01*
X34049500Y-35474915D01*
X34044476Y-35509852D01*
X34037064Y-35535093D01*
X34005769Y-35587837D01*
X33758033Y-35835573D01*
X33729782Y-35856722D01*
X33706694Y-35869330D01*
X33647264Y-35884500D01*
X33541830Y-35884500D01*
X33506889Y-35879475D01*
X33491890Y-35875070D01*
X33433144Y-35837327D01*
X33431957Y-35835958D01*
X33404477Y-35781083D01*
X33402832Y-35773521D01*
X33400000Y-35747168D01*
X33400000Y-35660189D01*
X33399564Y-35658184D01*
X33395974Y-35640135D01*
X33385496Y-35587459D01*
X33385494Y-35587455D01*
X33341107Y-35521024D01*
X33341106Y-35521024D01*
X33341106Y-35521023D01*
X33126057Y-35736073D01*
X33097808Y-35757221D01*
X33074721Y-35769829D01*
X33015289Y-35785000D01*
X32970060Y-35785000D01*
X32935126Y-35779977D01*
X32921343Y-35775930D01*
X32862564Y-35738156D01*
X32862276Y-35737525D01*
X32848176Y-35756362D01*
X32817205Y-35773274D01*
X32806737Y-35777179D01*
X32763397Y-35785000D01*
X32722060Y-35785000D01*
X32687124Y-35779977D01*
X32661882Y-35772565D01*
X32609138Y-35741270D01*
X32388892Y-35521023D01*
X32388892Y-35521024D01*
X32388891Y-35521023D01*
X32382119Y-35523828D01*
X32376904Y-35538965D01*
X32344504Y-35587456D01*
X32330000Y-35660373D01*
X32330000Y-35672185D01*
X32324177Y-35692014D01*
X32324171Y-35692033D01*
X32320758Y-35703658D01*
X32282981Y-35762434D01*
X32222715Y-35790938D01*
X32217396Y-35791849D01*
X32164373Y-35789405D01*
X32158521Y-35787837D01*
X32152475Y-35786217D01*
X32152474Y-35786217D01*
X32108222Y-35786217D01*
X32063416Y-35777839D01*
X32063132Y-35777729D01*
X32055884Y-35774878D01*
X32055434Y-35774746D01*
X32052645Y-35773665D01*
X32026967Y-35753928D01*
X32003746Y-35737491D01*
X32002919Y-35738209D01*
X32002438Y-35737654D01*
X32001594Y-35735968D01*
X32000216Y-35734993D01*
X31999389Y-35733948D01*
X32000168Y-35733330D01*
X31997248Y-35731086D01*
X31992445Y-35717693D01*
X31974976Y-35682796D01*
X31973332Y-35675237D01*
X31970499Y-35648884D01*
X31970499Y-35640135D01*
X31969254Y-35629398D01*
X31968410Y-35622120D01*
X31968283Y-35621022D01*
X31967586Y-35615012D01*
X31967585Y-35615010D01*
X31967585Y-35615009D01*
X31922206Y-35512235D01*
X31844971Y-35435000D01*
X32727131Y-35435000D01*
X32861547Y-35569415D01*
X32864606Y-35575017D01*
X32868596Y-35569272D01*
X33002868Y-35435000D01*
X32727131Y-35435000D01*
X31844971Y-35435000D01*
X31842765Y-35432794D01*
X31813085Y-35419689D01*
X31739994Y-35387415D01*
X31714869Y-35384500D01*
X31714868Y-35384500D01*
X31714865Y-35384500D01*
X31437728Y-35384500D01*
X31437727Y-35384500D01*
X28410085Y-35384500D01*
X28375149Y-35379477D01*
X28349907Y-35372065D01*
X28297162Y-35340769D01*
X27544915Y-34588522D01*
X27544913Y-34588520D01*
X27534119Y-34582288D01*
X27499250Y-34562155D01*
X27499250Y-34562156D01*
X27453589Y-34535793D01*
X27402657Y-34522146D01*
X27402656Y-34522145D01*
X27351730Y-34508500D01*
X27351727Y-34508500D01*
X24878273Y-34508500D01*
X24776415Y-34535792D01*
X24776413Y-34535793D01*
X24776410Y-34535794D01*
X24776408Y-34535794D01*
X24776397Y-34535800D01*
X24685099Y-34588510D01*
X24685089Y-34588517D01*
X24685083Y-34588522D01*
X24685076Y-34588528D01*
X24242206Y-35031398D01*
X24213950Y-35052550D01*
X24198967Y-35060731D01*
X24133355Y-35075744D01*
X24128612Y-35075507D01*
X24120058Y-35075079D01*
X24087932Y-35069165D01*
X24059719Y-35059998D01*
X23987698Y-35036596D01*
X23845016Y-35013999D01*
X23835375Y-35012472D01*
X23816611Y-35009500D01*
X23643389Y-35009500D01*
X23624625Y-35012472D01*
X23614984Y-35013999D01*
X23614983Y-35013999D01*
X23472302Y-35036596D01*
X23472301Y-35036596D01*
X23307547Y-35090129D01*
X23153210Y-35168768D01*
X23073256Y-35226859D01*
X23073255Y-35226859D01*
X23024941Y-35261961D01*
X23017564Y-35266092D01*
X22886095Y-35397561D01*
X22881962Y-35404940D01*
X22848392Y-35451147D01*
X22848391Y-35451146D01*
X22788772Y-35533205D01*
X22788764Y-35533218D01*
X22710101Y-35687604D01*
X22709630Y-35688546D01*
X22708547Y-35692416D01*
X22693340Y-35739221D01*
X22693339Y-35739223D01*
X22656597Y-35852300D01*
X22656596Y-35852306D01*
X22651035Y-35887417D01*
X22629500Y-36023383D01*
X22629500Y-36196613D01*
X22631978Y-36212259D01*
X22643550Y-36285321D01*
X22647777Y-36312011D01*
X22656598Y-36367701D01*
X22710127Y-36532445D01*
X22788768Y-36686788D01*
X22890586Y-36826928D01*
X23013072Y-36949414D01*
X23153212Y-37051232D01*
X23307555Y-37129873D01*
X23472299Y-37183402D01*
X23643389Y-37210500D01*
X23643390Y-37210500D01*
X23816610Y-37210500D01*
X23816611Y-37210500D01*
X23987701Y-37183402D01*
X24152445Y-37129873D01*
X24306788Y-37051232D01*
X24446928Y-36949414D01*
X24569414Y-36826928D01*
X24671232Y-36686788D01*
X24749873Y-36532445D01*
X24803402Y-36367701D01*
X24830500Y-36196611D01*
X24830500Y-36023389D01*
X24803402Y-35852299D01*
X24774297Y-35762725D01*
X24771250Y-35753347D01*
X24765232Y-35718568D01*
X24765053Y-35712289D01*
X24764745Y-35701512D01*
X24781154Y-35636239D01*
X24787787Y-35624688D01*
X24807632Y-35598759D01*
X25047969Y-35358421D01*
X25076225Y-35337271D01*
X25099314Y-35324665D01*
X25158735Y-35309500D01*
X25292234Y-35309500D01*
X25327168Y-35314523D01*
X25340236Y-35318360D01*
X25399014Y-35356134D01*
X25428040Y-35419689D01*
X25421093Y-35481704D01*
X25418138Y-35489416D01*
X25405449Y-35513940D01*
X25340994Y-35610403D01*
X25339505Y-35612631D01*
X25339500Y-35612641D01*
X25333194Y-35627866D01*
X25262033Y-35799661D01*
X25260864Y-35802220D01*
X25260350Y-35803722D01*
X25249157Y-35860000D01*
X25657750Y-35860000D01*
X25724789Y-35879685D01*
X25770544Y-35932489D01*
X25780488Y-36001647D01*
X25777524Y-36016095D01*
X25770000Y-36044171D01*
X25770000Y-36175828D01*
X25777524Y-36203905D01*
X25775863Y-36273755D01*
X25736701Y-36331618D01*
X25672473Y-36359123D01*
X25657750Y-36360000D01*
X25249157Y-36360000D01*
X25260350Y-36416277D01*
X25260865Y-36417779D01*
X25262033Y-36420338D01*
X25339502Y-36607363D01*
X25339507Y-36607373D01*
X25446022Y-36766784D01*
X25461254Y-36798621D01*
X25465324Y-36811619D01*
X25466572Y-36881477D01*
X25429853Y-36940920D01*
X25374436Y-36969596D01*
X25366382Y-36971424D01*
X25338936Y-36974500D01*
X24952271Y-36974500D01*
X24850411Y-37001792D01*
X24850408Y-37001793D01*
X24759097Y-37054513D01*
X24759083Y-37054522D01*
X24759078Y-37054526D01*
X24242206Y-37571398D01*
X24213950Y-37592550D01*
X24198967Y-37600731D01*
X24133355Y-37615744D01*
X24128612Y-37615507D01*
X24120058Y-37615079D01*
X24087932Y-37609165D01*
X23987698Y-37576597D01*
X23856271Y-37555781D01*
X23840407Y-37553268D01*
X23816614Y-37549500D01*
X23816611Y-37549500D01*
X23643389Y-37549500D01*
X23643388Y-37549500D01*
X23603726Y-37555781D01*
X23603725Y-37555780D01*
X23472304Y-37576596D01*
X23307549Y-37630129D01*
X23153211Y-37708767D01*
X23125479Y-37728917D01*
X23024943Y-37801961D01*
X23017562Y-37806094D01*
X22886094Y-37937562D01*
X22881965Y-37944936D01*
X22872203Y-37958374D01*
X22862023Y-37972386D01*
X22804497Y-38051561D01*
X22788767Y-38073212D01*
X22788764Y-38073218D01*
X22710128Y-38227552D01*
X22709629Y-38228547D01*
X22708548Y-38232411D01*
X22693027Y-38280182D01*
X22693026Y-38280184D01*
X22656597Y-38392300D01*
X22629500Y-38563383D01*
X22629500Y-38736615D01*
X22656422Y-38906599D01*
X22656423Y-38906599D01*
X22656428Y-38906631D01*
X22656598Y-38907701D01*
X22669033Y-38945972D01*
X22710128Y-39072449D01*
X22758675Y-39167727D01*
X22788768Y-39226788D01*
X22890586Y-39366928D01*
X23013072Y-39489414D01*
X23153212Y-39591232D01*
X23307555Y-39669873D01*
X23472299Y-39723402D01*
X23643389Y-39750500D01*
X23643390Y-39750500D01*
X23816610Y-39750500D01*
X23816611Y-39750500D01*
X23987701Y-39723402D01*
X24152445Y-39669873D01*
X24306788Y-39591232D01*
X24446928Y-39489414D01*
X24569414Y-39366928D01*
X24671232Y-39226788D01*
X24749873Y-39072445D01*
X24803402Y-38907701D01*
X24830500Y-38736611D01*
X24830500Y-38563389D01*
X24803402Y-38392299D01*
X24771250Y-38293347D01*
X24765232Y-38258568D01*
X24764745Y-38241512D01*
X24781155Y-38176237D01*
X24787789Y-38164683D01*
X24807632Y-38138758D01*
X25121973Y-37824419D01*
X25150219Y-37803275D01*
X25173311Y-37790667D01*
X25232736Y-37775500D01*
X25283875Y-37775500D01*
X25318807Y-37780522D01*
X25326385Y-37782746D01*
X25331232Y-37784170D01*
X25390011Y-37821943D01*
X25419037Y-37885498D01*
X25411196Y-37949783D01*
X25407709Y-37958374D01*
X25393132Y-37984623D01*
X25328768Y-38073211D01*
X25328765Y-38073215D01*
X25328764Y-38073218D01*
X25250128Y-38227552D01*
X25249629Y-38228547D01*
X25248548Y-38232411D01*
X25233027Y-38280182D01*
X25233026Y-38280184D01*
X25196597Y-38392300D01*
X25169500Y-38563383D01*
X25169500Y-38736615D01*
X25196422Y-38906599D01*
X25196423Y-38906599D01*
X25196428Y-38906631D01*
X25196598Y-38907701D01*
X25209033Y-38945972D01*
X25250128Y-39072449D01*
X25328769Y-39226789D01*
X25328775Y-39226798D01*
X25384278Y-39303192D01*
X25400748Y-39334405D01*
X25405099Y-39346599D01*
X25409089Y-39416355D01*
X25374732Y-39477194D01*
X25318130Y-39508632D01*
X25309133Y-39510861D01*
X25279314Y-39514500D01*
X24952271Y-39514500D01*
X24850411Y-39541792D01*
X24850408Y-39541793D01*
X24759097Y-39594513D01*
X24759083Y-39594522D01*
X24759078Y-39594526D01*
X24242206Y-40111398D01*
X24213950Y-40132550D01*
X24198967Y-40140731D01*
X24133355Y-40155744D01*
X24128612Y-40155507D01*
X24120058Y-40155079D01*
X24087932Y-40149165D01*
X23987698Y-40116597D01*
X23856271Y-40095781D01*
X23840407Y-40093268D01*
X23816614Y-40089500D01*
X23816611Y-40089500D01*
X23643389Y-40089500D01*
X23643388Y-40089500D01*
X23603726Y-40095781D01*
X23603725Y-40095780D01*
X23472304Y-40116596D01*
X23307549Y-40170129D01*
X23153211Y-40248767D01*
X23112957Y-40278015D01*
X23112956Y-40278015D01*
X23024942Y-40341961D01*
X23017563Y-40346093D01*
X22886095Y-40477561D01*
X22881969Y-40484930D01*
X22877931Y-40490489D01*
X22877924Y-40490500D01*
X22788768Y-40613210D01*
X22710101Y-40767604D01*
X22709629Y-40768548D01*
X22708546Y-40772416D01*
X22686172Y-40841279D01*
X22686172Y-40841280D01*
X22656596Y-40932304D01*
X22656596Y-40932305D01*
X22629500Y-41103383D01*
X22629500Y-41103389D01*
X22629500Y-41276608D01*
X22629499Y-41276608D01*
X22634341Y-41307179D01*
X22635219Y-41312726D01*
X22635220Y-41312731D01*
X22652130Y-41419493D01*
X22656598Y-41447701D01*
X22710127Y-41612445D01*
X22788768Y-41766788D01*
X22890586Y-41906928D01*
X23013072Y-42029414D01*
X23153212Y-42131232D01*
X23307555Y-42209873D01*
X23472299Y-42263402D01*
X23643389Y-42290500D01*
X23643390Y-42290500D01*
X23816610Y-42290500D01*
X23816611Y-42290500D01*
X23987701Y-42263402D01*
X24152445Y-42209873D01*
X24306788Y-42131232D01*
X24446928Y-42029414D01*
X24569414Y-41906928D01*
X24671232Y-41766788D01*
X24749873Y-41612445D01*
X24803402Y-41447701D01*
X24830500Y-41276611D01*
X24830500Y-41103389D01*
X24803402Y-40932299D01*
X24773828Y-40841281D01*
X24771250Y-40833347D01*
X24765232Y-40798568D01*
X24764745Y-40781512D01*
X24781155Y-40716237D01*
X24787789Y-40704683D01*
X24807632Y-40678758D01*
X25121973Y-40364419D01*
X25150219Y-40343275D01*
X25173311Y-40330667D01*
X25232736Y-40315500D01*
X25283875Y-40315500D01*
X25318807Y-40320522D01*
X25326385Y-40322746D01*
X25331232Y-40324170D01*
X25390011Y-40361943D01*
X25419037Y-40425498D01*
X25411196Y-40489783D01*
X25407709Y-40498374D01*
X25393132Y-40524623D01*
X25328768Y-40613211D01*
X25328765Y-40613215D01*
X25328764Y-40613218D01*
X25250101Y-40767604D01*
X25249629Y-40768548D01*
X25248546Y-40772416D01*
X25226172Y-40841279D01*
X25226172Y-40841280D01*
X25196596Y-40932304D01*
X25196596Y-40932305D01*
X25169500Y-41103383D01*
X25169500Y-41103389D01*
X25169500Y-41276608D01*
X25169499Y-41276608D01*
X25174341Y-41307179D01*
X25175219Y-41312726D01*
X25175220Y-41312731D01*
X25192130Y-41419493D01*
X25196598Y-41447701D01*
X25250127Y-41612445D01*
X25295924Y-41702328D01*
X25328769Y-41766789D01*
X25328775Y-41766798D01*
X25384278Y-41843192D01*
X25400748Y-41874405D01*
X25405099Y-41886599D01*
X25409089Y-41956355D01*
X25374732Y-42017194D01*
X25318130Y-42048632D01*
X25309133Y-42050861D01*
X25279314Y-42054500D01*
X24952271Y-42054500D01*
X24850411Y-42081792D01*
X24850408Y-42081793D01*
X24759097Y-42134513D01*
X24759083Y-42134522D01*
X24759078Y-42134526D01*
X24242206Y-42651398D01*
X24213950Y-42672550D01*
X24198967Y-42680731D01*
X24133355Y-42695744D01*
X24128612Y-42695507D01*
X24120058Y-42695079D01*
X24087932Y-42689165D01*
X23987698Y-42656597D01*
X23856271Y-42635781D01*
X23840407Y-42633268D01*
X23816614Y-42629500D01*
X23816611Y-42629500D01*
X23643389Y-42629500D01*
X23643388Y-42629500D01*
X23603726Y-42635781D01*
X23603725Y-42635780D01*
X23472304Y-42656596D01*
X23307549Y-42710129D01*
X23153210Y-42788768D01*
X23073256Y-42846859D01*
X23073255Y-42846859D01*
X23024941Y-42881961D01*
X23017564Y-42886092D01*
X22886094Y-43017562D01*
X22881965Y-43024936D01*
X22874224Y-43035592D01*
X22862023Y-43052386D01*
X22804497Y-43131561D01*
X22788767Y-43153212D01*
X22788764Y-43153218D01*
X22710101Y-43307604D01*
X22709629Y-43308547D01*
X22708547Y-43312413D01*
X22683362Y-43389926D01*
X22683362Y-43389927D01*
X22656597Y-43472298D01*
X22655071Y-43481940D01*
X22655070Y-43481939D01*
X22655070Y-43481944D01*
X22629500Y-43643383D01*
X22629500Y-43816616D01*
X22637676Y-43868237D01*
X22637676Y-43868238D01*
X22651203Y-43953643D01*
X22656596Y-43987692D01*
X22656597Y-43987697D01*
X22656598Y-43987701D01*
X22710127Y-44152445D01*
X22788768Y-44306788D01*
X22890586Y-44446928D01*
X23013072Y-44569414D01*
X23153212Y-44671232D01*
X23307555Y-44749873D01*
X23472299Y-44803402D01*
X23643389Y-44830500D01*
X23643390Y-44830500D01*
X23816610Y-44830500D01*
X23816611Y-44830500D01*
X23987701Y-44803402D01*
X24152445Y-44749873D01*
X24306788Y-44671232D01*
X24446928Y-44569414D01*
X24569414Y-44446928D01*
X24671232Y-44306788D01*
X24749873Y-44152445D01*
X24803402Y-43987701D01*
X24830500Y-43816611D01*
X24830500Y-43643389D01*
X24803402Y-43472299D01*
X24771250Y-43373347D01*
X24765232Y-43338568D01*
X24764745Y-43321512D01*
X24781155Y-43256237D01*
X24787789Y-43244683D01*
X24807632Y-43218758D01*
X25121973Y-42904419D01*
X25150219Y-42883275D01*
X25173311Y-42870667D01*
X25232736Y-42855500D01*
X25283875Y-42855500D01*
X25318807Y-42860522D01*
X25326385Y-42862746D01*
X25331232Y-42864170D01*
X25390011Y-42901943D01*
X25419037Y-42965498D01*
X25411196Y-43029783D01*
X25407709Y-43038374D01*
X25393132Y-43064623D01*
X25328768Y-43153211D01*
X25328765Y-43153215D01*
X25328764Y-43153218D01*
X25250101Y-43307604D01*
X25249629Y-43308547D01*
X25248547Y-43312413D01*
X25223362Y-43389926D01*
X25223362Y-43389927D01*
X25196597Y-43472298D01*
X25195071Y-43481940D01*
X25195070Y-43481939D01*
X25195070Y-43481944D01*
X25169500Y-43643383D01*
X25169500Y-43816616D01*
X25177676Y-43868237D01*
X25177676Y-43868238D01*
X25191203Y-43953643D01*
X25196596Y-43987692D01*
X25196597Y-43987697D01*
X25196598Y-43987701D01*
X25222513Y-44067460D01*
X25250128Y-44152447D01*
X25328769Y-44306789D01*
X25328775Y-44306798D01*
X25384278Y-44383192D01*
X25400748Y-44414405D01*
X25405099Y-44426599D01*
X25409089Y-44496355D01*
X25374732Y-44557194D01*
X25318130Y-44588632D01*
X25309133Y-44590861D01*
X25279314Y-44594500D01*
X24952271Y-44594500D01*
X24850411Y-44621792D01*
X24850408Y-44621793D01*
X24759097Y-44674513D01*
X24759083Y-44674522D01*
X24759078Y-44674526D01*
X24242206Y-45191398D01*
X24213950Y-45212550D01*
X24198967Y-45220731D01*
X24133355Y-45235744D01*
X24128612Y-45235507D01*
X24120058Y-45235079D01*
X24087932Y-45229165D01*
X23987698Y-45196597D01*
X23856271Y-45175781D01*
X23840407Y-45173268D01*
X23816614Y-45169500D01*
X23816611Y-45169500D01*
X23643389Y-45169500D01*
X23643388Y-45169500D01*
X23603726Y-45175781D01*
X23603725Y-45175780D01*
X23472304Y-45196596D01*
X23307549Y-45250129D01*
X23153210Y-45328768D01*
X23098930Y-45368206D01*
X23024943Y-45421961D01*
X23017562Y-45426094D01*
X22886094Y-45557562D01*
X22881965Y-45564936D01*
X22874224Y-45575592D01*
X22862023Y-45592386D01*
X22834795Y-45629862D01*
X22788767Y-45693212D01*
X22788764Y-45693218D01*
X22710101Y-45847604D01*
X22709629Y-45848547D01*
X22708547Y-45852413D01*
X22683362Y-45929926D01*
X22683362Y-45929927D01*
X22656597Y-46012298D01*
X22656596Y-46012303D01*
X22645509Y-46082310D01*
X22645509Y-46082312D01*
X22629500Y-46183384D01*
X22629500Y-46183389D01*
X22629500Y-46356611D01*
X22633554Y-46382210D01*
X22633917Y-46384497D01*
X22633917Y-46384500D01*
X22656534Y-46527305D01*
X22656595Y-46527687D01*
X22656597Y-46527695D01*
X22656598Y-46527701D01*
X22710127Y-46692445D01*
X22788768Y-46846788D01*
X22890586Y-46986928D01*
X23013072Y-47109414D01*
X23153212Y-47211232D01*
X23307555Y-47289873D01*
X23472299Y-47343402D01*
X23643389Y-47370500D01*
X23643390Y-47370500D01*
X23816610Y-47370500D01*
X23816611Y-47370500D01*
X23987701Y-47343402D01*
X24152445Y-47289873D01*
X24306788Y-47211232D01*
X24446928Y-47109414D01*
X24569414Y-46986928D01*
X24671232Y-46846788D01*
X24749873Y-46692445D01*
X24803402Y-46527701D01*
X24830500Y-46356611D01*
X24830500Y-46183389D01*
X24803402Y-46012299D01*
X24771250Y-45913347D01*
X24765232Y-45878568D01*
X24764745Y-45861512D01*
X24781155Y-45796237D01*
X24787789Y-45784683D01*
X24807632Y-45758758D01*
X25121973Y-45444419D01*
X25150219Y-45423275D01*
X25173311Y-45410667D01*
X25232736Y-45395500D01*
X25283875Y-45395500D01*
X25318807Y-45400522D01*
X25326385Y-45402746D01*
X25331232Y-45404170D01*
X25390011Y-45441943D01*
X25419037Y-45505498D01*
X25411196Y-45569783D01*
X25407709Y-45578374D01*
X25393132Y-45604623D01*
X25328768Y-45693211D01*
X25328765Y-45693215D01*
X25328764Y-45693218D01*
X25250101Y-45847604D01*
X25249629Y-45848547D01*
X25248547Y-45852413D01*
X25223362Y-45929926D01*
X25223362Y-45929927D01*
X25196597Y-46012298D01*
X25196596Y-46012303D01*
X25185509Y-46082310D01*
X25185509Y-46082312D01*
X25169500Y-46183384D01*
X25169500Y-46183389D01*
X25169500Y-46356611D01*
X25173554Y-46382210D01*
X25173917Y-46384497D01*
X25173917Y-46384500D01*
X25196534Y-46527305D01*
X25196595Y-46527687D01*
X25196597Y-46527695D01*
X25196598Y-46527701D01*
X25250127Y-46692445D01*
X25323843Y-46837123D01*
X25328769Y-46846789D01*
X25328775Y-46846798D01*
X25384278Y-46923192D01*
X25400748Y-46954405D01*
X25405099Y-46966599D01*
X25409089Y-47036355D01*
X25374732Y-47097194D01*
X25318130Y-47128632D01*
X25309133Y-47130861D01*
X25279314Y-47134500D01*
X24952271Y-47134500D01*
X24850411Y-47161792D01*
X24850408Y-47161793D01*
X24759097Y-47214513D01*
X24759083Y-47214522D01*
X24759078Y-47214526D01*
X24242206Y-47731398D01*
X24213950Y-47752550D01*
X24198967Y-47760731D01*
X24133355Y-47775744D01*
X24128612Y-47775507D01*
X24120058Y-47775079D01*
X24087932Y-47769165D01*
X23987698Y-47736597D01*
X23856271Y-47715781D01*
X23840407Y-47713268D01*
X23816614Y-47709500D01*
X23816611Y-47709500D01*
X23643389Y-47709500D01*
X23643388Y-47709500D01*
X23603726Y-47715781D01*
X23603725Y-47715780D01*
X23472298Y-47736597D01*
X23472273Y-47736603D01*
X23471863Y-47736739D01*
X23331115Y-47782472D01*
X23331114Y-47782472D01*
X23307552Y-47790127D01*
X23153222Y-47868761D01*
X23153205Y-47868772D01*
X23093564Y-47912103D01*
X23093565Y-47912104D01*
X23032834Y-47956227D01*
X23032830Y-47956230D01*
X23013072Y-47970586D01*
X23013070Y-47970588D01*
X23013069Y-47970588D01*
X22890588Y-48093069D01*
X22890588Y-48093070D01*
X22890586Y-48093072D01*
X22877226Y-48111461D01*
X22876229Y-48112832D01*
X22876227Y-48112835D01*
X22837491Y-48166150D01*
X22788768Y-48233211D01*
X22788765Y-48233215D01*
X22788764Y-48233218D01*
X22710101Y-48387604D01*
X22709629Y-48388547D01*
X22708547Y-48392413D01*
X22683362Y-48469926D01*
X22683362Y-48469927D01*
X22656597Y-48552300D01*
X22629500Y-48723383D01*
X22629500Y-48896615D01*
X22655926Y-49063469D01*
X22655927Y-49063469D01*
X22656598Y-49067701D01*
X22710128Y-49232449D01*
X22773934Y-49357675D01*
X22788768Y-49386788D01*
X22890586Y-49526928D01*
X23013072Y-49649414D01*
X23153212Y-49751232D01*
X23307555Y-49829873D01*
X23472299Y-49883402D01*
X23643389Y-49910500D01*
X23643390Y-49910500D01*
X23816610Y-49910500D01*
X23816611Y-49910500D01*
X23987701Y-49883402D01*
X24152445Y-49829873D01*
X24306788Y-49751232D01*
X24446928Y-49649414D01*
X24569414Y-49526928D01*
X24671232Y-49386788D01*
X24749873Y-49232445D01*
X24803402Y-49067701D01*
X24830500Y-48896611D01*
X24830500Y-48723389D01*
X24803402Y-48552299D01*
X24771250Y-48453347D01*
X24765232Y-48418568D01*
X24765132Y-48415083D01*
X24764745Y-48401511D01*
X24781155Y-48336237D01*
X24787789Y-48324683D01*
X24807632Y-48298758D01*
X25121973Y-47984419D01*
X25150219Y-47963275D01*
X25173311Y-47950667D01*
X25232736Y-47935500D01*
X25283875Y-47935500D01*
X25318807Y-47940522D01*
X25326385Y-47942746D01*
X25331232Y-47944170D01*
X25390011Y-47981943D01*
X25419037Y-48045498D01*
X25411196Y-48109784D01*
X25407711Y-48118370D01*
X25393138Y-48144612D01*
X25381603Y-48160491D01*
X25381597Y-48160500D01*
X25328768Y-48233210D01*
X25250101Y-48387604D01*
X25249629Y-48388547D01*
X25248547Y-48392413D01*
X25223362Y-48469926D01*
X25223362Y-48469927D01*
X25196597Y-48552300D01*
X25169500Y-48723383D01*
X25169500Y-48896615D01*
X25195926Y-49063469D01*
X25195927Y-49063469D01*
X25196598Y-49067701D01*
X25250128Y-49232449D01*
X25302633Y-49335494D01*
X25316297Y-49362313D01*
X25328769Y-49386789D01*
X25328775Y-49386798D01*
X25384278Y-49463192D01*
X25400748Y-49494405D01*
X25405099Y-49506599D01*
X25409089Y-49576355D01*
X25374732Y-49637194D01*
X25318130Y-49668632D01*
X25309133Y-49670861D01*
X25279314Y-49674500D01*
X24952271Y-49674500D01*
X24850411Y-49701792D01*
X24850408Y-49701793D01*
X24759097Y-49754513D01*
X24759083Y-49754522D01*
X24759078Y-49754526D01*
X24242206Y-50271398D01*
X24213950Y-50292550D01*
X24198967Y-50300731D01*
X24133355Y-50315744D01*
X24128612Y-50315507D01*
X24120058Y-50315079D01*
X24087932Y-50309165D01*
X23987698Y-50276597D01*
X23856271Y-50255781D01*
X23840407Y-50253268D01*
X23816614Y-50249500D01*
X23816611Y-50249500D01*
X23643389Y-50249500D01*
X23643388Y-50249500D01*
X23603726Y-50255781D01*
X23603725Y-50255780D01*
X23472304Y-50276596D01*
X23307549Y-50330129D01*
X23153210Y-50408768D01*
X23098930Y-50448206D01*
X23024943Y-50501961D01*
X23017562Y-50506094D01*
X22886094Y-50637562D01*
X22881962Y-50644941D01*
X22788768Y-50773210D01*
X22710101Y-50927604D01*
X22709630Y-50928546D01*
X22708547Y-50932415D01*
X22702134Y-50952154D01*
X22691148Y-50985966D01*
X22689630Y-50990638D01*
X22656597Y-51092300D01*
X22655071Y-51101939D01*
X22655070Y-51101938D01*
X22655070Y-51101944D01*
X22629500Y-51263383D01*
X22629500Y-51263389D01*
X22629500Y-51436611D01*
X22656598Y-51607701D01*
X22706044Y-51759880D01*
X22710128Y-51772447D01*
X22727711Y-51806956D01*
X22788766Y-51926786D01*
X22819357Y-51968890D01*
X22890586Y-52066928D01*
X23013072Y-52189414D01*
X23153212Y-52291232D01*
X23307555Y-52369873D01*
X23472299Y-52423402D01*
X23643389Y-52450500D01*
X23643390Y-52450500D01*
X23816610Y-52450500D01*
X23816611Y-52450500D01*
X23987701Y-52423402D01*
X24152445Y-52369873D01*
X24306788Y-52291232D01*
X24446928Y-52189414D01*
X24569414Y-52066928D01*
X24671232Y-51926788D01*
X24749873Y-51772445D01*
X24803402Y-51607701D01*
X24830500Y-51436611D01*
X24830500Y-51263389D01*
X24803402Y-51092299D01*
X24773315Y-50999703D01*
X24771250Y-50993347D01*
X24765232Y-50958568D01*
X24764745Y-50941512D01*
X24781155Y-50876237D01*
X24787789Y-50864683D01*
X24807632Y-50838758D01*
X25121973Y-50524419D01*
X25150219Y-50503275D01*
X25173311Y-50490667D01*
X25232736Y-50475500D01*
X25283875Y-50475500D01*
X25318807Y-50480522D01*
X25326385Y-50482746D01*
X25331232Y-50484170D01*
X25390011Y-50521943D01*
X25419037Y-50585498D01*
X25411196Y-50649783D01*
X25407709Y-50658374D01*
X25393132Y-50684623D01*
X25328768Y-50773211D01*
X25328765Y-50773215D01*
X25328764Y-50773218D01*
X25250101Y-50927604D01*
X25249630Y-50928546D01*
X25248547Y-50932415D01*
X25242134Y-50952154D01*
X25231148Y-50985966D01*
X25229630Y-50990638D01*
X25196597Y-51092300D01*
X25195071Y-51101939D01*
X25195070Y-51101938D01*
X25195070Y-51101944D01*
X25169500Y-51263383D01*
X25169500Y-51263389D01*
X25169500Y-51436611D01*
X25196598Y-51607701D01*
X25246044Y-51759880D01*
X25250128Y-51772447D01*
X25267711Y-51806956D01*
X25328766Y-51926786D01*
X25359357Y-51968890D01*
X25430586Y-52066928D01*
X25553072Y-52189414D01*
X25693212Y-52291232D01*
X25847555Y-52369873D01*
X26012299Y-52423402D01*
X26183389Y-52450500D01*
X26183390Y-52450500D01*
X26356610Y-52450500D01*
X26356611Y-52450500D01*
X26527701Y-52423402D01*
X26692445Y-52369873D01*
X26846788Y-52291232D01*
X26986928Y-52189414D01*
X27061217Y-52115124D01*
X27089457Y-52093983D01*
X27099391Y-52088559D01*
X27167661Y-52073706D01*
X27233126Y-52098120D01*
X27274999Y-52154052D01*
X27275001Y-52154056D01*
X27277682Y-52161244D01*
X27285500Y-52204578D01*
X27285500Y-52648727D01*
X27280475Y-52683668D01*
X27276307Y-52697860D01*
X27238530Y-52756636D01*
X27177721Y-52785231D01*
X27162238Y-52787812D01*
X27141849Y-52789500D01*
X25395319Y-52789500D01*
X25322285Y-52804027D01*
X25322262Y-52804032D01*
X25322258Y-52804033D01*
X25239399Y-52859399D01*
X25184033Y-52942258D01*
X25184032Y-52942266D01*
X25184028Y-52942281D01*
X25169500Y-53015318D01*
X25169500Y-54445915D01*
X25164476Y-54480853D01*
X25161289Y-54491706D01*
X25123514Y-54550483D01*
X25059957Y-54579506D01*
X24990807Y-54569565D01*
X24983829Y-54566378D01*
X24947657Y-54541264D01*
X24808600Y-54402207D01*
X24787451Y-54373957D01*
X24779266Y-54358967D01*
X24764254Y-54293347D01*
X24764919Y-54280053D01*
X24770833Y-54247934D01*
X24803402Y-54147701D01*
X24830500Y-53976611D01*
X24830500Y-53803389D01*
X24803402Y-53632299D01*
X24749873Y-53467555D01*
X24671232Y-53313212D01*
X24569414Y-53173072D01*
X24446928Y-53050586D01*
X24306788Y-52948768D01*
X24297609Y-52944091D01*
X24152449Y-52870128D01*
X24001215Y-52820988D01*
X24001203Y-52820985D01*
X23987701Y-52816598D01*
X23987699Y-52816597D01*
X23987698Y-52816597D01*
X23973312Y-52814318D01*
X23973306Y-52814317D01*
X23875534Y-52798832D01*
X23856271Y-52795781D01*
X23840407Y-52793268D01*
X23816614Y-52789500D01*
X23816611Y-52789500D01*
X23643389Y-52789500D01*
X23643388Y-52789500D01*
X23603726Y-52795781D01*
X23603725Y-52795780D01*
X23472304Y-52816596D01*
X23307549Y-52870129D01*
X23153210Y-52948768D01*
X23079742Y-53002147D01*
X23024943Y-53041961D01*
X23017562Y-53046094D01*
X22886093Y-53177563D01*
X22881964Y-53184937D01*
X22859898Y-53215310D01*
X22854953Y-53222117D01*
X22854952Y-53222119D01*
X22788768Y-53313210D01*
X22710129Y-53467549D01*
X22656596Y-53632305D01*
X22629500Y-53803383D01*
X22629500Y-53976615D01*
X22653641Y-54129037D01*
X22653736Y-54129636D01*
X22656598Y-54147701D01*
X22710127Y-54312445D01*
X22710128Y-54312448D01*
X22710129Y-54312449D01*
X22749388Y-54389500D01*
X22788768Y-54466788D01*
X22890586Y-54606928D01*
X23013072Y-54729414D01*
X23153212Y-54831232D01*
X23307555Y-54909873D01*
X23472299Y-54963402D01*
X23643389Y-54990500D01*
X23643390Y-54990500D01*
X23816610Y-54990500D01*
X23816611Y-54990500D01*
X23987701Y-54963402D01*
X24086648Y-54931250D01*
X24121426Y-54925233D01*
X24138485Y-54924746D01*
X24203764Y-54941158D01*
X24215314Y-54947790D01*
X24241249Y-54967642D01*
X24749087Y-55475480D01*
X24840412Y-55528207D01*
X24942273Y-55555500D01*
X24942275Y-55555500D01*
X27484725Y-55555500D01*
X27484727Y-55555500D01*
X27586588Y-55528207D01*
X27677913Y-55475480D01*
X28285865Y-54867525D01*
X34389500Y-54867525D01*
X34389500Y-55012475D01*
X34408256Y-55082472D01*
X34408255Y-55082472D01*
X34427016Y-55152486D01*
X34427018Y-55152491D01*
X34497631Y-55274795D01*
X34499489Y-55278013D01*
X34601985Y-55380509D01*
X34602674Y-55381005D01*
X34605178Y-55382353D01*
X34724069Y-55450995D01*
X34727087Y-55452869D01*
X34727514Y-55452983D01*
X34727515Y-55452984D01*
X34867525Y-55490500D01*
X34867528Y-55490500D01*
X35012472Y-55490500D01*
X35012475Y-55490500D01*
X35152485Y-55452984D01*
X35278015Y-55380509D01*
X35380509Y-55278015D01*
X35452984Y-55152485D01*
X35490500Y-55012475D01*
X35490500Y-54867525D01*
X49389500Y-54867525D01*
X49389500Y-55012475D01*
X49408256Y-55082472D01*
X49408255Y-55082472D01*
X49427016Y-55152486D01*
X49427018Y-55152491D01*
X49497631Y-55274795D01*
X49499489Y-55278013D01*
X49601985Y-55380509D01*
X49602674Y-55381005D01*
X49605178Y-55382353D01*
X49724069Y-55450995D01*
X49727087Y-55452869D01*
X49727514Y-55452983D01*
X49727515Y-55452984D01*
X49867525Y-55490500D01*
X49867528Y-55490500D01*
X50012472Y-55490500D01*
X50012475Y-55490500D01*
X50152485Y-55452984D01*
X50278015Y-55380509D01*
X50380509Y-55278015D01*
X50452984Y-55152485D01*
X50490500Y-55012475D01*
X50490500Y-54867525D01*
X50452984Y-54727515D01*
X50452983Y-54727514D01*
X50452983Y-54727512D01*
X50444881Y-54713480D01*
X50444881Y-54713479D01*
X50444879Y-54713477D01*
X50380516Y-54601996D01*
X50380508Y-54601984D01*
X50380493Y-54601968D01*
X50278030Y-54499505D01*
X50278014Y-54499490D01*
X50278011Y-54499488D01*
X50267232Y-54493265D01*
X50224240Y-54468443D01*
X50195808Y-54438624D01*
X50138173Y-54423181D01*
X50138173Y-54423180D01*
X50039037Y-54396617D01*
X50012475Y-54389500D01*
X50012474Y-54389500D01*
X49867525Y-54389500D01*
X49741829Y-54423179D01*
X49741830Y-54423180D01*
X49727509Y-54427017D01*
X49727507Y-54427018D01*
X49601992Y-54499485D01*
X49601984Y-54499490D01*
X49601968Y-54499505D01*
X49499505Y-54601968D01*
X49499490Y-54601984D01*
X49499485Y-54601992D01*
X49427017Y-54727509D01*
X49426989Y-54727578D01*
X49426748Y-54728511D01*
X49408260Y-54797512D01*
X49389500Y-54867525D01*
X35490500Y-54867525D01*
X35452984Y-54727515D01*
X35444881Y-54713481D01*
X35420925Y-54671988D01*
X35380516Y-54601996D01*
X35380508Y-54601984D01*
X35380493Y-54601968D01*
X35278030Y-54499505D01*
X35278014Y-54499490D01*
X35278011Y-54499488D01*
X35267232Y-54493265D01*
X35224240Y-54468443D01*
X35195808Y-54438624D01*
X35138173Y-54423181D01*
X35138173Y-54423180D01*
X35039037Y-54396617D01*
X35012475Y-54389500D01*
X35012474Y-54389500D01*
X34867525Y-54389500D01*
X34741829Y-54423179D01*
X34741830Y-54423180D01*
X34727509Y-54427017D01*
X34727507Y-54427018D01*
X34601992Y-54499485D01*
X34601984Y-54499490D01*
X34601968Y-54499505D01*
X34499505Y-54601968D01*
X34499490Y-54601984D01*
X34499485Y-54601992D01*
X34427017Y-54727509D01*
X34426989Y-54727578D01*
X34426748Y-54728511D01*
X34408260Y-54797512D01*
X34389500Y-54867525D01*
X28285865Y-54867525D01*
X28422469Y-54730920D01*
X28422476Y-54730916D01*
X28439912Y-54713480D01*
X28439913Y-54713480D01*
X28514480Y-54638913D01*
X28567207Y-54547587D01*
X28572326Y-54528482D01*
X28594501Y-54445727D01*
X28594501Y-54340273D01*
X28594500Y-54340269D01*
X28594500Y-52723084D01*
X28599522Y-52688151D01*
X28600616Y-52684426D01*
X28606934Y-52662906D01*
X28638228Y-52610164D01*
X28818969Y-52429423D01*
X28847219Y-52408275D01*
X28870311Y-52395667D01*
X28929736Y-52380500D01*
X43740725Y-52380500D01*
X43740727Y-52380500D01*
X43842588Y-52353207D01*
X43933913Y-52300480D01*
X44312969Y-51921423D01*
X44341219Y-51900275D01*
X44364311Y-51887667D01*
X44423736Y-51872500D01*
X50056205Y-51872500D01*
X50091137Y-51877521D01*
X50116381Y-51884934D01*
X50169127Y-51916230D01*
X50602868Y-52349972D01*
X50602885Y-52349988D01*
X53523386Y-55270490D01*
X53523387Y-55270491D01*
X53523389Y-55270492D01*
X53536423Y-55278017D01*
X53626113Y-55329799D01*
X53650321Y-55336284D01*
X53650324Y-55336286D01*
X53650325Y-55336286D01*
X53680447Y-55344357D01*
X53740691Y-55360500D01*
X56157898Y-55360500D01*
X56192829Y-55365522D01*
X56204903Y-55369067D01*
X56209209Y-55370331D01*
X56266226Y-55406114D01*
X56275161Y-55415990D01*
X56293691Y-55442882D01*
X56321949Y-55498341D01*
X56321951Y-55498344D01*
X56411653Y-55588046D01*
X56411656Y-55588048D01*
X56411658Y-55588050D01*
X56524696Y-55645646D01*
X56524698Y-55645647D01*
X56618220Y-55660458D01*
X56618457Y-55660497D01*
X56618466Y-55660497D01*
X56618475Y-55660499D01*
X56618481Y-55660500D01*
X57907670Y-55660499D01*
X57942604Y-55665522D01*
X57957603Y-55669926D01*
X58016381Y-55707700D01*
X58016390Y-55707710D01*
X58017576Y-55709079D01*
X58045018Y-55763901D01*
X58046663Y-55771459D01*
X58049500Y-55797830D01*
X58049500Y-60085382D01*
X58068493Y-60156265D01*
X58080201Y-60199960D01*
X58139511Y-60302687D01*
X58139513Y-60302689D01*
X58285156Y-60448332D01*
X58306306Y-60476584D01*
X58309088Y-60481679D01*
X58312959Y-60488767D01*
X58327811Y-60557040D01*
X58303395Y-60622505D01*
X58303392Y-60622508D01*
X58300253Y-60626701D01*
X58248442Y-60666948D01*
X58146734Y-60709078D01*
X58146730Y-60709079D01*
X58146725Y-60709082D01*
X58024577Y-60790699D01*
X58024576Y-60790700D01*
X58024570Y-60790705D01*
X57920702Y-60894573D01*
X57839087Y-61016716D01*
X57839072Y-61016743D01*
X57782869Y-61152432D01*
X57782856Y-61152471D01*
X57754200Y-61296535D01*
X57754200Y-61443463D01*
X57782856Y-61587527D01*
X57782857Y-61587531D01*
X57782858Y-61587534D01*
X57782861Y-61587544D01*
X57782864Y-61587552D01*
X57782869Y-61587566D01*
X57839074Y-61723260D01*
X57839079Y-61723270D01*
X57882773Y-61788662D01*
X57898005Y-61820499D01*
X57902153Y-61833746D01*
X57903401Y-61903605D01*
X57866682Y-61963048D01*
X57866679Y-61963051D01*
X57864675Y-61964851D01*
X57815146Y-61992036D01*
X57806485Y-61994453D01*
X57797347Y-61996634D01*
X57677111Y-62020552D01*
X57677087Y-62020557D01*
X57559861Y-62069113D01*
X57559853Y-62069118D01*
X57514982Y-62099100D01*
X57454350Y-62139613D01*
X57454340Y-62139620D01*
X57454327Y-62139631D01*
X57453373Y-62140586D01*
X57452306Y-62141384D01*
X57451012Y-62142507D01*
X57450931Y-62142413D01*
X57425134Y-62161724D01*
X57402050Y-62174330D01*
X57342619Y-62189500D01*
X56660691Y-62189500D01*
X56626311Y-62198712D01*
X56602416Y-62205114D01*
X56602403Y-62205115D01*
X56546144Y-62220191D01*
X56546124Y-62220196D01*
X56546116Y-62220199D01*
X56546113Y-62220200D01*
X56546110Y-62220201D01*
X56546108Y-62220202D01*
X56443396Y-62279504D01*
X56443382Y-62279513D01*
X56443377Y-62279517D01*
X55989517Y-62733377D01*
X55989509Y-62733387D01*
X55989505Y-62733393D01*
X55930200Y-62836112D01*
X55929852Y-62837037D01*
X55929167Y-62839967D01*
X55899500Y-62950689D01*
X55899500Y-63904205D01*
X55894476Y-63939142D01*
X55887064Y-63964383D01*
X55855769Y-64017127D01*
X54023323Y-65849573D01*
X53995072Y-65870722D01*
X53971984Y-65883330D01*
X53912554Y-65898500D01*
X49579691Y-65898500D01*
X49541380Y-65908765D01*
X49521416Y-65914114D01*
X49521403Y-65914115D01*
X49465144Y-65929191D01*
X49465124Y-65929196D01*
X49465116Y-65929199D01*
X49465113Y-65929200D01*
X49465110Y-65929201D01*
X49465108Y-65929202D01*
X49362396Y-65988504D01*
X49362381Y-65988514D01*
X49362379Y-65988515D01*
X48899471Y-66451425D01*
X48873284Y-66471422D01*
X48852699Y-66483178D01*
X48791205Y-66499500D01*
X48775324Y-66499500D01*
X48702264Y-66514032D01*
X48702260Y-66514034D01*
X48690176Y-66522108D01*
X48637992Y-66541872D01*
X48634836Y-66542301D01*
X48599557Y-66542032D01*
X48597038Y-66541650D01*
X48597037Y-66541650D01*
X48597035Y-66541649D01*
X48594548Y-66541273D01*
X48574150Y-66535113D01*
X48574085Y-66535352D01*
X48571233Y-66534569D01*
X48570027Y-66533868D01*
X48560739Y-66531063D01*
X48554528Y-66528168D01*
X48555742Y-66525562D01*
X48550840Y-66522711D01*
X48550526Y-66523472D01*
X48523927Y-66512454D01*
X48515763Y-66511650D01*
X48454681Y-66499500D01*
X48454677Y-66499500D01*
X48454674Y-66499500D01*
X47505326Y-66499500D01*
X47505323Y-66499500D01*
X47476261Y-66505280D01*
X47432266Y-66514031D01*
X47432258Y-66514034D01*
X47428704Y-66516409D01*
X47396870Y-66531636D01*
X47381953Y-66536306D01*
X47312104Y-66537553D01*
X47307381Y-66536257D01*
X47301260Y-66534578D01*
X47280842Y-66522708D01*
X47280526Y-66523472D01*
X47253927Y-66512454D01*
X47245763Y-66511650D01*
X47184681Y-66499500D01*
X47184677Y-66499500D01*
X47184674Y-66499500D01*
X46235326Y-66499500D01*
X46235323Y-66499500D01*
X46206261Y-66505280D01*
X46162266Y-66514031D01*
X46162258Y-66514034D01*
X46158704Y-66516409D01*
X46126870Y-66531636D01*
X46111953Y-66536306D01*
X46042104Y-66537553D01*
X46037381Y-66536257D01*
X46031260Y-66534578D01*
X46010842Y-66522708D01*
X46010526Y-66523472D01*
X45983927Y-66512454D01*
X45975763Y-66511650D01*
X45914681Y-66499500D01*
X45914677Y-66499500D01*
X45914674Y-66499500D01*
X44965326Y-66499500D01*
X44965323Y-66499500D01*
X44936261Y-66505280D01*
X44892266Y-66514031D01*
X44892258Y-66514034D01*
X44888704Y-66516409D01*
X44856870Y-66531636D01*
X44841953Y-66536306D01*
X44772104Y-66537553D01*
X44767381Y-66536257D01*
X44761260Y-66534578D01*
X44740842Y-66522708D01*
X44740526Y-66523472D01*
X44713927Y-66512454D01*
X44705763Y-66511650D01*
X44644681Y-66499500D01*
X44644677Y-66499500D01*
X44644674Y-66499500D01*
X43695326Y-66499500D01*
X43695323Y-66499500D01*
X43666261Y-66505280D01*
X43622266Y-66514031D01*
X43622258Y-66514034D01*
X43618704Y-66516409D01*
X43586870Y-66531636D01*
X43571953Y-66536306D01*
X43502104Y-66537553D01*
X43497381Y-66536257D01*
X43491260Y-66534578D01*
X43470842Y-66522708D01*
X43470526Y-66523472D01*
X43443927Y-66512454D01*
X43435763Y-66511650D01*
X43374681Y-66499500D01*
X43374677Y-66499500D01*
X43374674Y-66499500D01*
X42425326Y-66499500D01*
X42425323Y-66499500D01*
X42396261Y-66505280D01*
X42352266Y-66514031D01*
X42352258Y-66514034D01*
X42348704Y-66516409D01*
X42316870Y-66531636D01*
X42301953Y-66536306D01*
X42232104Y-66537553D01*
X42227381Y-66536257D01*
X42221260Y-66534578D01*
X42200842Y-66522708D01*
X42200526Y-66523472D01*
X42173927Y-66512454D01*
X42165763Y-66511650D01*
X42104681Y-66499500D01*
X42104677Y-66499500D01*
X42104674Y-66499500D01*
X41155326Y-66499500D01*
X41155323Y-66499500D01*
X41126261Y-66505280D01*
X41082266Y-66514031D01*
X41082258Y-66514034D01*
X41078704Y-66516409D01*
X41046870Y-66531636D01*
X41031953Y-66536306D01*
X40962104Y-66537553D01*
X40957381Y-66536257D01*
X40951260Y-66534578D01*
X40930842Y-66522708D01*
X40930526Y-66523472D01*
X40903927Y-66512454D01*
X40895763Y-66511650D01*
X40834681Y-66499500D01*
X40834677Y-66499500D01*
X40834674Y-66499500D01*
X39885326Y-66499500D01*
X39885323Y-66499500D01*
X39856261Y-66505280D01*
X39812266Y-66514031D01*
X39812258Y-66514034D01*
X39808704Y-66516409D01*
X39776870Y-66531636D01*
X39761953Y-66536306D01*
X39692104Y-66537553D01*
X39687381Y-66536257D01*
X39681260Y-66534578D01*
X39660842Y-66522708D01*
X39660526Y-66523472D01*
X39633927Y-66512454D01*
X39625763Y-66511650D01*
X39564681Y-66499500D01*
X39564677Y-66499500D01*
X39564674Y-66499500D01*
X38615326Y-66499500D01*
X38615323Y-66499500D01*
X38586261Y-66505280D01*
X38542266Y-66514031D01*
X38542258Y-66514034D01*
X38538704Y-66516409D01*
X38506870Y-66531636D01*
X38491953Y-66536306D01*
X38422104Y-66537553D01*
X38417381Y-66536257D01*
X38411260Y-66534578D01*
X38390842Y-66522708D01*
X38390526Y-66523472D01*
X38363927Y-66512454D01*
X38355763Y-66511650D01*
X38294681Y-66499500D01*
X38294677Y-66499500D01*
X38294674Y-66499500D01*
X37345326Y-66499500D01*
X37345323Y-66499500D01*
X37316261Y-66505280D01*
X37272266Y-66514031D01*
X37272258Y-66514034D01*
X37268704Y-66516409D01*
X37236870Y-66531636D01*
X37221953Y-66536306D01*
X37152104Y-66537553D01*
X37147381Y-66536257D01*
X37141260Y-66534578D01*
X37120842Y-66522708D01*
X37120526Y-66523472D01*
X37093927Y-66512454D01*
X37085763Y-66511650D01*
X37024681Y-66499500D01*
X37024677Y-66499500D01*
X37024674Y-66499500D01*
X36075326Y-66499500D01*
X36075323Y-66499500D01*
X36075319Y-66499500D01*
X36002285Y-66514027D01*
X36002262Y-66514032D01*
X36002258Y-66514033D01*
X35919399Y-66569399D01*
X35864033Y-66652258D01*
X35864032Y-66652266D01*
X35864028Y-66652281D01*
X35849500Y-66725318D01*
X35849500Y-66725321D01*
X35849500Y-68274678D01*
X35849500Y-68274680D01*
X35849499Y-68274680D01*
X35864028Y-68347717D01*
X35864032Y-68347735D01*
X35864033Y-68347739D01*
X35872557Y-68360497D01*
X35872558Y-68360498D01*
X35919399Y-68430601D01*
X36002256Y-68485964D01*
X36002258Y-68485965D01*
X36002259Y-68485965D01*
X36002260Y-68485966D01*
X36002264Y-68485967D01*
X36002279Y-68485970D01*
X36002288Y-68485972D01*
X36020577Y-68489609D01*
X36075321Y-68500499D01*
X36075324Y-68500500D01*
X36075326Y-68500500D01*
X36285230Y-68500500D01*
X36286216Y-68500516D01*
X36287845Y-68501023D01*
X36319137Y-68505521D01*
X36344381Y-68512934D01*
X36397127Y-68544230D01*
X36923389Y-69070493D01*
X36924069Y-69070983D01*
X36926563Y-69072325D01*
X37026111Y-69129798D01*
X37026113Y-69129799D01*
X37049674Y-69136112D01*
X37049676Y-69136113D01*
X37049677Y-69136113D01*
X37068910Y-69141266D01*
X37140691Y-69160500D01*
X47344205Y-69160500D01*
X47379137Y-69165521D01*
X47404381Y-69172934D01*
X47457127Y-69204230D01*
X47528108Y-69275211D01*
X47549257Y-69303461D01*
X47554678Y-69313388D01*
X47569532Y-69381661D01*
X47545118Y-69447126D01*
X47489186Y-69488999D01*
X47489182Y-69489001D01*
X47481994Y-69491682D01*
X47438660Y-69499500D01*
X25884987Y-69499500D01*
X25850052Y-69494477D01*
X25839198Y-69491290D01*
X25780420Y-69453516D01*
X25751395Y-69389960D01*
X25761331Y-69320820D01*
X25763191Y-69316746D01*
X25797319Y-69272401D01*
X25824220Y-69250324D01*
X25920864Y-69171012D01*
X26171012Y-68920864D01*
X26395436Y-68647402D01*
X26591976Y-68353259D01*
X26758739Y-68041269D01*
X26894118Y-67714435D01*
X26996809Y-67375905D01*
X26996811Y-67375895D01*
X26996814Y-67375884D01*
X27032634Y-67195800D01*
X27065825Y-67028940D01*
X27100500Y-66676881D01*
X27100500Y-66323119D01*
X27066172Y-65974580D01*
X27065826Y-65971070D01*
X27065825Y-65971069D01*
X27065825Y-65971060D01*
X27065823Y-65971051D01*
X27065227Y-65965008D01*
X27065227Y-65965004D01*
X27065225Y-65964991D01*
X27064984Y-65962551D01*
X27062844Y-65956072D01*
X27035881Y-65820520D01*
X26997178Y-65625943D01*
X26997178Y-65625942D01*
X26996813Y-65624109D01*
X26996604Y-65623420D01*
X26996601Y-65623409D01*
X26996339Y-65622546D01*
X26894118Y-65285565D01*
X26758739Y-64958731D01*
X26709988Y-64867525D01*
X39389500Y-64867525D01*
X39389500Y-65012475D01*
X39390888Y-65017654D01*
X39427013Y-65152477D01*
X39427017Y-65152488D01*
X39427018Y-65152489D01*
X39497631Y-65274795D01*
X39499489Y-65278013D01*
X39601985Y-65380509D01*
X39602674Y-65381005D01*
X39605178Y-65382353D01*
X39724069Y-65450995D01*
X39727087Y-65452869D01*
X39727514Y-65452983D01*
X39727515Y-65452984D01*
X39867525Y-65490500D01*
X39867528Y-65490500D01*
X40012472Y-65490500D01*
X40012475Y-65490500D01*
X40152485Y-65452984D01*
X40278015Y-65380509D01*
X40380509Y-65278015D01*
X40452984Y-65152485D01*
X40490500Y-65012475D01*
X40490500Y-64867525D01*
X40452984Y-64727515D01*
X40425329Y-64679616D01*
X40380511Y-64601988D01*
X40380506Y-64601982D01*
X40380493Y-64601968D01*
X40278030Y-64499505D01*
X40278014Y-64499490D01*
X40278006Y-64499485D01*
X40224243Y-64468445D01*
X40195808Y-64438624D01*
X40141007Y-64423939D01*
X40141007Y-64423940D01*
X40075972Y-64406514D01*
X40012475Y-64389500D01*
X40012474Y-64389500D01*
X39867525Y-64389500D01*
X39738994Y-64423939D01*
X39738993Y-64423940D01*
X39731338Y-64425991D01*
X39727510Y-64427017D01*
X39601991Y-64499485D01*
X39601984Y-64499490D01*
X39601968Y-64499505D01*
X39499505Y-64601968D01*
X39499490Y-64601984D01*
X39499485Y-64601992D01*
X39428287Y-64725308D01*
X39428286Y-64725312D01*
X39427017Y-64727511D01*
X39427016Y-64727515D01*
X39389500Y-64867525D01*
X26709988Y-64867525D01*
X26592781Y-64648247D01*
X26592351Y-64647417D01*
X26591977Y-64646742D01*
X26443105Y-64423940D01*
X26395436Y-64352598D01*
X26171502Y-64079733D01*
X26171502Y-64079732D01*
X26171002Y-64079124D01*
X25920874Y-63828996D01*
X25835168Y-63758659D01*
X25648712Y-63605639D01*
X25647725Y-63604806D01*
X25647408Y-63604568D01*
X25647403Y-63604565D01*
X25647397Y-63604561D01*
X25470871Y-63486610D01*
X25353273Y-63408033D01*
X25353265Y-63408028D01*
X25353259Y-63408024D01*
X25353254Y-63408021D01*
X25353247Y-63408017D01*
X25353238Y-63408012D01*
X25353231Y-63408008D01*
X25167606Y-63308789D01*
X25041276Y-63241264D01*
X25041271Y-63241262D01*
X25041265Y-63241259D01*
X25041179Y-63241219D01*
X25040564Y-63240969D01*
X25003242Y-63225510D01*
X24922676Y-63192138D01*
X24714437Y-63105882D01*
X24375892Y-63003186D01*
X24375866Y-63003180D01*
X24028971Y-62934180D01*
X24028956Y-62934177D01*
X24028922Y-62934172D01*
X23762700Y-62907952D01*
X23762700Y-62907951D01*
X23696451Y-62901427D01*
X23676881Y-62899500D01*
X23676878Y-62899500D01*
X23323122Y-62899500D01*
X23323119Y-62899500D01*
X23306297Y-62901156D01*
X23243747Y-62907316D01*
X23243748Y-62907317D01*
X22971076Y-62934172D01*
X22971042Y-62934177D01*
X22971027Y-62934180D01*
X22624132Y-63003180D01*
X22624106Y-63003186D01*
X22285557Y-63105883D01*
X21959405Y-63240980D01*
X21958835Y-63241212D01*
X21958717Y-63241266D01*
X21646761Y-63408012D01*
X21646742Y-63408023D01*
X21646736Y-63408026D01*
X21352601Y-63604561D01*
X21352582Y-63604575D01*
X21352579Y-63604577D01*
X21079124Y-63828996D01*
X20828996Y-64079124D01*
X20731661Y-64197727D01*
X20705620Y-64221543D01*
X20696275Y-64227909D01*
X20629787Y-64249383D01*
X20562244Y-64231503D01*
X20515091Y-64179946D01*
X20515081Y-64179925D01*
X20513118Y-64175913D01*
X20500500Y-64121416D01*
X20500500Y-62787222D01*
X52531837Y-62787222D01*
X52562094Y-62939326D01*
X52562095Y-62939332D01*
X52562102Y-62939353D01*
X52611129Y-63057718D01*
X52611134Y-63057728D01*
X52682324Y-63164270D01*
X52682325Y-63164271D01*
X52682330Y-63164277D01*
X52772921Y-63254868D01*
X52772927Y-63254873D01*
X52772931Y-63254876D01*
X52879466Y-63326061D01*
X52879472Y-63326064D01*
X52879473Y-63326065D01*
X52992962Y-63373073D01*
X52993547Y-63373324D01*
X52993741Y-63373484D01*
X52996655Y-63374862D01*
X52997860Y-63375101D01*
X52997861Y-63375102D01*
X53012942Y-63378102D01*
X53123526Y-63400100D01*
X53251671Y-63400100D01*
X53251672Y-63400100D01*
X53266760Y-63397098D01*
X53349704Y-63380599D01*
X53377344Y-63375101D01*
X53421039Y-63357000D01*
X53425982Y-63355423D01*
X53430639Y-63355313D01*
X53450435Y-63350261D01*
X53465976Y-63348590D01*
X53494909Y-63353809D01*
X53495833Y-63353788D01*
X53496270Y-63354055D01*
X53534733Y-63360993D01*
X53534735Y-63360994D01*
X53534736Y-63360995D01*
X53549943Y-63368607D01*
X53563961Y-63377701D01*
X53564296Y-63377199D01*
X53569287Y-63380526D01*
X53569375Y-63380631D01*
X53569397Y-63380600D01*
X53573844Y-63383571D01*
X53652260Y-63435966D01*
X53652261Y-63435966D01*
X53652263Y-63435966D01*
X53652264Y-63435967D01*
X53717696Y-63448982D01*
X53720420Y-63449704D01*
X53725323Y-63450500D01*
X55274676Y-63450500D01*
X55278796Y-63450500D01*
X55286648Y-63448117D01*
X55347740Y-63435966D01*
X55430601Y-63380601D01*
X55485966Y-63297740D01*
X55500500Y-63224674D01*
X55500500Y-62275326D01*
X55500500Y-62275323D01*
X55500500Y-62275139D01*
X55500064Y-62273134D01*
X55488349Y-62214239D01*
X55487747Y-62208130D01*
X55487734Y-62208087D01*
X55487117Y-62205627D01*
X55486686Y-62204367D01*
X55486043Y-62202376D01*
X55485966Y-62202260D01*
X55483594Y-62198710D01*
X55468365Y-62166879D01*
X55464136Y-62153373D01*
X55463693Y-62151961D01*
X55462444Y-62082109D01*
X55466049Y-62068964D01*
X55482526Y-62032887D01*
X55485966Y-62027740D01*
X55487396Y-62020554D01*
X55496232Y-61976131D01*
X55500500Y-61954674D01*
X55500500Y-61005326D01*
X55500500Y-61005323D01*
X55500500Y-61005139D01*
X55500064Y-61003134D01*
X55488349Y-60944239D01*
X55487747Y-60938130D01*
X55487734Y-60938087D01*
X55487117Y-60935627D01*
X55486686Y-60934367D01*
X55486043Y-60932376D01*
X55485966Y-60932260D01*
X55483594Y-60928710D01*
X55468365Y-60896879D01*
X55463694Y-60881963D01*
X55462444Y-60812109D01*
X55466049Y-60798964D01*
X55482526Y-60762887D01*
X55485966Y-60757740D01*
X55500500Y-60684674D01*
X55500500Y-59735326D01*
X55500500Y-59735323D01*
X55500499Y-59735321D01*
X55485967Y-59662264D01*
X55485966Y-59662260D01*
X55478162Y-59650581D01*
X55460663Y-59624392D01*
X55430603Y-59579401D01*
X55430600Y-59579398D01*
X55357891Y-59530816D01*
X55353826Y-59527480D01*
X55347739Y-59524033D01*
X55347735Y-59524032D01*
X55347709Y-59524026D01*
X55274680Y-59509500D01*
X55274677Y-59509500D01*
X55274674Y-59509500D01*
X53725326Y-59509500D01*
X53725323Y-59509500D01*
X53710792Y-59512390D01*
X53652265Y-59524031D01*
X53652263Y-59524032D01*
X53570325Y-59578778D01*
X53560868Y-59584504D01*
X53539045Y-59596421D01*
X53470772Y-59611274D01*
X53470771Y-59611274D01*
X53457192Y-59610303D01*
X53418584Y-59601180D01*
X53377358Y-59584104D01*
X53377333Y-59584095D01*
X53377325Y-59584093D01*
X53251674Y-59559100D01*
X53251671Y-59559100D01*
X53251669Y-59559100D01*
X53123531Y-59559100D01*
X53123529Y-59559100D01*
X53123526Y-59559100D01*
X52997873Y-59584093D01*
X52997865Y-59584095D01*
X52997845Y-59584102D01*
X52879480Y-59633129D01*
X52879470Y-59633134D01*
X52772928Y-59704324D01*
X52772927Y-59704325D01*
X52772921Y-59704330D01*
X52682330Y-59794921D01*
X52682325Y-59794927D01*
X52682324Y-59794928D01*
X52611134Y-59901470D01*
X52611129Y-59901480D01*
X52562102Y-60019845D01*
X52562095Y-60019865D01*
X52562093Y-60019873D01*
X52537100Y-60145523D01*
X52537100Y-60145528D01*
X52537100Y-60145531D01*
X52537100Y-60273669D01*
X52537100Y-60273671D01*
X52537099Y-60273671D01*
X52562097Y-60399338D01*
X52562099Y-60399344D01*
X52562716Y-60400835D01*
X52562717Y-60400837D01*
X52611129Y-60517718D01*
X52611134Y-60517728D01*
X52682324Y-60624270D01*
X52682325Y-60624271D01*
X52682330Y-60624277D01*
X52772921Y-60714868D01*
X52772927Y-60714873D01*
X52772931Y-60714876D01*
X52879466Y-60786061D01*
X52879472Y-60786064D01*
X52879473Y-60786065D01*
X52992962Y-60833073D01*
X52993547Y-60833324D01*
X52993741Y-60833484D01*
X52996653Y-60834861D01*
X52997852Y-60835099D01*
X52997856Y-60835101D01*
X52997859Y-60835101D01*
X52997860Y-60835101D01*
X52997861Y-60835102D01*
X53095499Y-60854524D01*
X53123527Y-60860100D01*
X53251670Y-60860100D01*
X53251671Y-60860100D01*
X53265118Y-60857424D01*
X53305465Y-60849399D01*
X53340290Y-60842471D01*
X53375521Y-60840582D01*
X53389354Y-60841820D01*
X53454370Y-60867400D01*
X53495237Y-60924072D01*
X53495243Y-60924089D01*
X53496985Y-60929029D01*
X53501662Y-60994448D01*
X53499500Y-61005318D01*
X53499500Y-61005321D01*
X53499500Y-61005323D01*
X53499500Y-61005326D01*
X53499500Y-61954674D01*
X53499500Y-61954676D01*
X53499499Y-61954676D01*
X53501834Y-61966415D01*
X53502222Y-61976131D01*
X53501189Y-61980247D01*
X53501826Y-61992121D01*
X53500589Y-62005944D01*
X53475008Y-62070963D01*
X53418336Y-62111829D01*
X53418335Y-62111829D01*
X53413397Y-62113571D01*
X53347954Y-62118251D01*
X53251676Y-62099100D01*
X53251672Y-62099100D01*
X53251669Y-62099100D01*
X53123531Y-62099100D01*
X53123529Y-62099100D01*
X53123526Y-62099100D01*
X52997873Y-62124093D01*
X52997865Y-62124095D01*
X52997845Y-62124102D01*
X52879480Y-62173129D01*
X52879470Y-62173134D01*
X52772928Y-62244324D01*
X52772927Y-62244325D01*
X52772921Y-62244330D01*
X52682330Y-62334921D01*
X52682325Y-62334927D01*
X52682324Y-62334928D01*
X52611134Y-62441470D01*
X52611129Y-62441480D01*
X52562102Y-62559845D01*
X52562095Y-62559865D01*
X52562093Y-62559873D01*
X52537100Y-62685523D01*
X52537100Y-62769302D01*
X52531837Y-62787222D01*
X20500500Y-62787222D01*
X20500500Y-59867525D01*
X24389500Y-59867525D01*
X24389500Y-60012475D01*
X24398523Y-60046147D01*
X24425151Y-60145525D01*
X24427016Y-60152487D01*
X24427018Y-60152491D01*
X24497631Y-60274795D01*
X24499489Y-60278013D01*
X24601985Y-60380509D01*
X24602674Y-60381005D01*
X24605178Y-60382353D01*
X24724069Y-60450995D01*
X24727087Y-60452869D01*
X24727514Y-60452983D01*
X24727515Y-60452984D01*
X24867525Y-60490500D01*
X24867528Y-60490500D01*
X25012472Y-60490500D01*
X25012475Y-60490500D01*
X25152485Y-60452984D01*
X25278015Y-60380509D01*
X25380509Y-60278015D01*
X25452984Y-60152485D01*
X25490500Y-60012475D01*
X25490500Y-59867525D01*
X25452984Y-59727515D01*
X25398495Y-59633138D01*
X25380511Y-59601988D01*
X25380506Y-59601982D01*
X25380502Y-59601978D01*
X25380493Y-59601968D01*
X25278030Y-59499505D01*
X25278014Y-59499490D01*
X25278006Y-59499485D01*
X25224243Y-59468445D01*
X25195808Y-59438624D01*
X25141007Y-59423939D01*
X25141007Y-59423940D01*
X25076740Y-59406720D01*
X25012475Y-59389500D01*
X25012474Y-59389500D01*
X24867525Y-59389500D01*
X24738994Y-59423939D01*
X24738993Y-59423940D01*
X24731338Y-59425991D01*
X24727510Y-59427017D01*
X24601991Y-59499485D01*
X24601984Y-59499490D01*
X24601968Y-59499505D01*
X24499505Y-59601968D01*
X24499490Y-59601984D01*
X24499485Y-59601992D01*
X24428287Y-59725308D01*
X24428286Y-59725312D01*
X24427017Y-59727511D01*
X24427016Y-59727515D01*
X24389500Y-59867525D01*
X20500500Y-59867525D01*
X20500500Y-58554480D01*
X41871499Y-58554480D01*
X41886028Y-58627517D01*
X41886033Y-58627540D01*
X41886034Y-58627542D01*
X41898426Y-58646088D01*
X41913658Y-58677926D01*
X41915487Y-58683764D01*
X41918330Y-58692845D01*
X41919575Y-58762695D01*
X41915973Y-58775826D01*
X41899496Y-58811910D01*
X41886033Y-58832059D01*
X41886028Y-58832081D01*
X41871500Y-58905118D01*
X41871500Y-58905121D01*
X41871500Y-60254478D01*
X41871500Y-60254480D01*
X41871499Y-60254480D01*
X41886028Y-60327517D01*
X41886032Y-60327535D01*
X41886033Y-60327539D01*
X41889481Y-60333628D01*
X41892821Y-60337698D01*
X41898429Y-60346092D01*
X41913658Y-60377925D01*
X41918328Y-60392840D01*
X41919575Y-60462695D01*
X41915973Y-60475826D01*
X41899496Y-60511910D01*
X41886033Y-60532059D01*
X41886028Y-60532081D01*
X41871500Y-60605118D01*
X41871500Y-60605121D01*
X41871500Y-61954478D01*
X41871500Y-61954480D01*
X41871499Y-61954480D01*
X41885720Y-62025970D01*
X41886032Y-62027535D01*
X41886033Y-62027539D01*
X41888292Y-62030920D01*
X41941399Y-62110401D01*
X41985119Y-62139613D01*
X42014113Y-62158986D01*
X42024258Y-62165765D01*
X42024260Y-62165766D01*
X42024264Y-62165767D01*
X42024280Y-62165770D01*
X42024288Y-62165772D01*
X42061275Y-62173129D01*
X42089681Y-62178779D01*
X42092415Y-62179503D01*
X42097323Y-62180300D01*
X43446676Y-62180300D01*
X43450796Y-62180300D01*
X43458648Y-62177917D01*
X43507762Y-62168148D01*
X43520214Y-62166922D01*
X43529877Y-62158992D01*
X43538291Y-62153369D01*
X43570121Y-62138141D01*
X43585040Y-62133469D01*
X43654894Y-62132222D01*
X43668030Y-62135825D01*
X43704114Y-62152305D01*
X43714111Y-62158985D01*
X43718848Y-62162873D01*
X43718880Y-62162890D01*
X43723081Y-62165407D01*
X43724256Y-62165763D01*
X43724260Y-62165766D01*
X43724262Y-62165766D01*
X43724263Y-62165767D01*
X43724276Y-62165769D01*
X43730092Y-62167534D01*
X43730097Y-62167536D01*
X43730133Y-62167547D01*
X43736230Y-62168147D01*
X43789697Y-62178782D01*
X43792420Y-62179504D01*
X43797323Y-62180300D01*
X45146676Y-62180300D01*
X45150796Y-62180300D01*
X45158648Y-62177917D01*
X45207762Y-62168148D01*
X45220214Y-62166922D01*
X45229877Y-62158992D01*
X45238291Y-62153369D01*
X45270121Y-62138141D01*
X45285040Y-62133469D01*
X45354894Y-62132222D01*
X45368030Y-62135825D01*
X45404114Y-62152305D01*
X45414111Y-62158985D01*
X45418848Y-62162873D01*
X45418880Y-62162890D01*
X45423081Y-62165407D01*
X45424256Y-62165763D01*
X45424260Y-62165766D01*
X45424262Y-62165766D01*
X45424263Y-62165767D01*
X45424276Y-62165769D01*
X45430092Y-62167534D01*
X45430097Y-62167536D01*
X45430133Y-62167547D01*
X45436230Y-62168147D01*
X45489697Y-62178782D01*
X45492420Y-62179504D01*
X45497323Y-62180300D01*
X46846676Y-62180300D01*
X46850796Y-62180300D01*
X46858648Y-62177917D01*
X46919740Y-62165766D01*
X47002601Y-62110401D01*
X47057966Y-62027540D01*
X47072500Y-61954474D01*
X47072500Y-60605126D01*
X47072500Y-60605123D01*
X47072500Y-60604939D01*
X47072064Y-60602934D01*
X47060350Y-60544044D01*
X47060030Y-60540802D01*
X47057967Y-60532061D01*
X47057966Y-60532059D01*
X47045574Y-60513514D01*
X47030342Y-60481679D01*
X47025671Y-60466763D01*
X47024421Y-60396909D01*
X47028027Y-60383763D01*
X47044505Y-60347684D01*
X47057966Y-60327540D01*
X47072500Y-60254474D01*
X47072500Y-58905126D01*
X47072500Y-58905123D01*
X47072500Y-58904939D01*
X47072064Y-58902934D01*
X47060350Y-58844044D01*
X47060030Y-58840802D01*
X47057967Y-58832061D01*
X47057966Y-58832059D01*
X47045574Y-58813514D01*
X47030342Y-58781679D01*
X47025671Y-58766763D01*
X47024421Y-58696909D01*
X47028027Y-58683763D01*
X47044505Y-58647684D01*
X47057966Y-58627540D01*
X47061412Y-58610219D01*
X47072499Y-58554478D01*
X47072500Y-58554476D01*
X47072500Y-57204939D01*
X47072064Y-57202934D01*
X47057972Y-57132089D01*
X47057967Y-57132066D01*
X47057967Y-57132064D01*
X47057966Y-57132060D01*
X47057965Y-57132058D01*
X47057964Y-57132056D01*
X47002601Y-57049199D01*
X46929891Y-57000616D01*
X46925826Y-56997280D01*
X46919739Y-56993833D01*
X46919735Y-56993832D01*
X46919709Y-56993826D01*
X46846680Y-56979300D01*
X46846677Y-56979300D01*
X46846674Y-56979300D01*
X45497326Y-56979300D01*
X45497323Y-56979300D01*
X45497319Y-56979300D01*
X45424285Y-56993827D01*
X45424262Y-56993832D01*
X45424257Y-56993834D01*
X45405712Y-57006226D01*
X45373870Y-57021459D01*
X45366489Y-57023771D01*
X45358954Y-57026130D01*
X45289100Y-57027374D01*
X45275967Y-57023771D01*
X45239883Y-57007292D01*
X45219742Y-56993834D01*
X45219739Y-56993833D01*
X45219735Y-56993832D01*
X45219725Y-56993830D01*
X45219709Y-56993826D01*
X45146680Y-56979300D01*
X45146677Y-56979300D01*
X45146674Y-56979300D01*
X43797326Y-56979300D01*
X43797323Y-56979300D01*
X43797319Y-56979300D01*
X43724285Y-56993827D01*
X43724262Y-56993832D01*
X43724257Y-56993834D01*
X43705712Y-57006226D01*
X43673870Y-57021459D01*
X43666489Y-57023771D01*
X43658954Y-57026130D01*
X43589100Y-57027374D01*
X43575967Y-57023771D01*
X43539883Y-57007292D01*
X43519742Y-56993834D01*
X43519739Y-56993833D01*
X43519735Y-56993832D01*
X43519725Y-56993830D01*
X43519709Y-56993826D01*
X43446680Y-56979300D01*
X43446677Y-56979300D01*
X43446674Y-56979300D01*
X42097326Y-56979300D01*
X42097323Y-56979300D01*
X42097319Y-56979300D01*
X42024285Y-56993827D01*
X42024262Y-56993832D01*
X42024258Y-56993833D01*
X41941399Y-57049199D01*
X41886033Y-57132058D01*
X41886032Y-57132066D01*
X41886028Y-57132081D01*
X41871500Y-57205118D01*
X41871500Y-57205121D01*
X41871500Y-58554478D01*
X41871500Y-58554480D01*
X41871499Y-58554480D01*
X20500500Y-58554480D01*
X20500500Y-34089489D01*
X30449500Y-34089489D01*
X30449500Y-34089498D01*
X30449500Y-34680481D01*
X30449501Y-34680490D01*
X30455587Y-34737114D01*
X30464838Y-34761915D01*
X30468267Y-34771110D01*
X30468269Y-34771116D01*
X30499205Y-34854056D01*
X30503372Y-34865226D01*
X30585313Y-34974687D01*
X30666283Y-35035300D01*
X30684156Y-35048680D01*
X30694774Y-35056628D01*
X30822886Y-35104412D01*
X30879515Y-35110500D01*
X31420484Y-35110499D01*
X31477114Y-35104412D01*
X31605226Y-35056628D01*
X31714687Y-34974687D01*
X31796628Y-34865226D01*
X31826877Y-34784124D01*
X31843791Y-34753151D01*
X31850566Y-34744101D01*
X31906501Y-34702230D01*
X31976192Y-34697247D01*
X32037511Y-34730731D01*
X32042547Y-34735766D01*
X32065341Y-34767143D01*
X32126877Y-34887912D01*
X32126887Y-34887930D01*
X32222068Y-34983111D01*
X32222070Y-34983112D01*
X32222071Y-34983113D01*
X32222076Y-34983116D01*
X32342034Y-35044239D01*
X32342038Y-35044239D01*
X32342039Y-35044240D01*
X32441506Y-35059994D01*
X32441524Y-35059996D01*
X32441543Y-35059999D01*
X32441554Y-35060000D01*
X32449999Y-35059999D01*
X32950000Y-35059999D01*
X32958449Y-35059999D01*
X32958454Y-35059999D01*
X33057964Y-35044238D01*
X33057965Y-35044237D01*
X33057967Y-35044237D01*
X33177923Y-34983116D01*
X33177928Y-34983113D01*
X33273113Y-34887928D01*
X33273116Y-34887923D01*
X33284683Y-34865223D01*
X33334238Y-34767969D01*
X33334240Y-34767961D01*
X33350000Y-34668456D01*
X33350000Y-34635000D01*
X32950000Y-34635000D01*
X32950000Y-35059999D01*
X32449999Y-35059999D01*
X32450000Y-35059998D01*
X32450000Y-34135000D01*
X32950000Y-34135000D01*
X33349999Y-34135000D01*
X33349999Y-34101544D01*
X33334238Y-34002034D01*
X33273114Y-33882072D01*
X33273111Y-33882068D01*
X33177930Y-33786887D01*
X33177910Y-33786875D01*
X33131789Y-33763375D01*
X33098809Y-33732228D01*
X32958462Y-33710000D01*
X32958456Y-33710000D01*
X32950000Y-33710000D01*
X32950000Y-34135000D01*
X32450000Y-34135000D01*
X32450000Y-33710000D01*
X32449999Y-33710000D01*
X32441553Y-33710001D01*
X32441547Y-33710001D01*
X32416891Y-33713905D01*
X32416890Y-33713905D01*
X32342037Y-33725760D01*
X32342032Y-33725762D01*
X32222074Y-33786883D01*
X32222068Y-33786887D01*
X32126888Y-33882068D01*
X32126887Y-33882068D01*
X32126885Y-33882072D01*
X32074064Y-33985736D01*
X32054159Y-34014125D01*
X32037930Y-34031483D01*
X32026903Y-34047609D01*
X31962544Y-34074806D01*
X31893698Y-34062890D01*
X31864564Y-34042968D01*
X31864103Y-34042545D01*
X31861568Y-34040217D01*
X31829237Y-33992202D01*
X31796628Y-33904774D01*
X31796627Y-33904772D01*
X31796626Y-33904770D01*
X31796518Y-33904580D01*
X31795438Y-33903185D01*
X31779633Y-33882071D01*
X31779631Y-33882068D01*
X31779631Y-33882067D01*
X31714685Y-33795310D01*
X31710346Y-33790968D01*
X31698795Y-33777632D01*
X31688590Y-33763999D01*
X31664175Y-33698539D01*
X31663245Y-33685529D01*
X31667154Y-33644598D01*
X31690500Y-33557475D01*
X31690500Y-33412525D01*
X31652984Y-33272515D01*
X31650392Y-33268026D01*
X31580754Y-33147409D01*
X31580513Y-33146991D01*
X31580508Y-33146984D01*
X31580493Y-33146968D01*
X31478030Y-33044505D01*
X31478014Y-33044490D01*
X31478006Y-33044485D01*
X31424243Y-33013445D01*
X31395808Y-32983624D01*
X31341007Y-32968939D01*
X31341007Y-32968940D01*
X31262118Y-32947802D01*
X31212475Y-32934500D01*
X31212474Y-32934500D01*
X31067525Y-32934500D01*
X30938994Y-32968939D01*
X30938993Y-32968940D01*
X30931338Y-32970991D01*
X30927510Y-32972017D01*
X30801991Y-33044485D01*
X30801984Y-33044490D01*
X30801968Y-33044505D01*
X30699505Y-33146968D01*
X30699490Y-33146984D01*
X30699485Y-33146992D01*
X30627017Y-33272509D01*
X30626989Y-33272578D01*
X30626748Y-33273511D01*
X30589500Y-33412525D01*
X30589500Y-33412527D01*
X30589500Y-33557474D01*
X30600083Y-33596971D01*
X30615732Y-33655375D01*
X30619922Y-33690420D01*
X30619474Y-33709233D01*
X30601392Y-33770817D01*
X30594579Y-33781995D01*
X30587964Y-33791769D01*
X30503373Y-33904769D01*
X30455587Y-34032885D01*
X30455586Y-34032891D01*
X30449500Y-34089489D01*
X20500500Y-34089489D01*
X20500500Y-29867525D01*
X24389500Y-29867525D01*
X24389500Y-30012475D01*
X24402766Y-30061984D01*
X24426352Y-30150008D01*
X24427016Y-30152486D01*
X24427016Y-30152488D01*
X24497631Y-30274795D01*
X24499489Y-30278013D01*
X24601985Y-30380509D01*
X24602674Y-30381005D01*
X24605178Y-30382353D01*
X24724069Y-30450995D01*
X24727087Y-30452869D01*
X24727514Y-30452983D01*
X24727515Y-30452984D01*
X24867525Y-30490500D01*
X24867528Y-30490500D01*
X25012472Y-30490500D01*
X25012475Y-30490500D01*
X25152485Y-30452984D01*
X25278015Y-30380509D01*
X25330999Y-30327525D01*
X30249500Y-30327525D01*
X30249500Y-30472475D01*
X30250888Y-30477654D01*
X30287013Y-30612477D01*
X30287017Y-30612488D01*
X30287018Y-30612489D01*
X30357631Y-30734795D01*
X30359489Y-30738013D01*
X30461985Y-30840509D01*
X30462674Y-30841005D01*
X30465178Y-30842353D01*
X30584069Y-30910995D01*
X30587087Y-30912869D01*
X30587514Y-30912983D01*
X30587515Y-30912984D01*
X30727525Y-30950500D01*
X30727528Y-30950500D01*
X30872473Y-30950500D01*
X30872474Y-30950500D01*
X30872475Y-30950500D01*
X30895442Y-30944345D01*
X30930477Y-30940156D01*
X30932110Y-30940194D01*
X30946107Y-30940527D01*
X31012657Y-30961796D01*
X31023205Y-30968935D01*
X31046021Y-30990838D01*
X31046280Y-30990580D01*
X31052848Y-30997148D01*
X31052849Y-30997148D01*
X31052850Y-30997150D01*
X31151712Y-31070113D01*
X31162118Y-31077793D01*
X31290299Y-31122646D01*
X31290303Y-31122647D01*
X31308742Y-31124375D01*
X31320730Y-31125500D01*
X31320734Y-31125500D01*
X31320739Y-31125500D01*
X31829270Y-31125500D01*
X31829271Y-31125500D01*
X31830576Y-31125377D01*
X31859699Y-31122646D01*
X31859701Y-31122646D01*
X31923790Y-31100219D01*
X31987882Y-31077793D01*
X32097150Y-30997150D01*
X32177793Y-30887882D01*
X32207175Y-30803913D01*
X32208494Y-30800145D01*
X32208494Y-30800144D01*
X32222646Y-30759701D01*
X32223020Y-30757497D01*
X32223188Y-30753919D01*
X32225500Y-30729270D01*
X32225500Y-30070728D01*
X32223188Y-30046079D01*
X32223020Y-30042502D01*
X32222646Y-30040300D01*
X32222646Y-30040298D01*
X32177793Y-29912119D01*
X32177792Y-29912117D01*
X32161035Y-29889412D01*
X32097150Y-29802850D01*
X31987882Y-29722207D01*
X31987880Y-29722206D01*
X31987877Y-29722205D01*
X31859704Y-29677354D01*
X31859702Y-29677353D01*
X31859700Y-29677353D01*
X31829270Y-29674500D01*
X31829266Y-29674500D01*
X31829264Y-29674500D01*
X31320734Y-29674500D01*
X31320730Y-29674500D01*
X31302074Y-29676249D01*
X31296069Y-29676812D01*
X31292499Y-29676978D01*
X31290297Y-29677353D01*
X31162118Y-29722206D01*
X31052881Y-29802827D01*
X31052842Y-29802856D01*
X31046472Y-29809277D01*
X31046105Y-29808913D01*
X31030320Y-29824913D01*
X31017871Y-29834364D01*
X30952574Y-29859222D01*
X30947573Y-29859614D01*
X30939884Y-29860216D01*
X30898118Y-29856370D01*
X30872477Y-29849500D01*
X30872476Y-29849500D01*
X30872475Y-29849500D01*
X30727525Y-29849500D01*
X30605678Y-29882149D01*
X30605677Y-29882148D01*
X30587513Y-29887016D01*
X30587508Y-29887018D01*
X30461992Y-29959485D01*
X30461984Y-29959490D01*
X30461968Y-29959505D01*
X30359505Y-30061968D01*
X30359490Y-30061984D01*
X30359485Y-30061992D01*
X30288287Y-30185308D01*
X30288286Y-30185312D01*
X30287017Y-30187511D01*
X30287016Y-30187515D01*
X30249500Y-30327525D01*
X25330999Y-30327525D01*
X25380509Y-30278015D01*
X25452984Y-30152485D01*
X25490500Y-30012475D01*
X25490500Y-29867525D01*
X25452984Y-29727515D01*
X25449923Y-29722215D01*
X25449921Y-29722205D01*
X25449919Y-29722207D01*
X25380513Y-29601991D01*
X25380508Y-29601984D01*
X25380493Y-29601968D01*
X25278030Y-29499505D01*
X25278014Y-29499490D01*
X25278006Y-29499485D01*
X25224243Y-29468445D01*
X25195808Y-29438624D01*
X25141007Y-29423939D01*
X25141007Y-29423940D01*
X25076740Y-29406720D01*
X25012475Y-29389500D01*
X25012474Y-29389500D01*
X24867525Y-29389500D01*
X24738994Y-29423939D01*
X24738993Y-29423940D01*
X24731338Y-29425991D01*
X24727510Y-29427017D01*
X24601991Y-29499485D01*
X24601984Y-29499490D01*
X24601968Y-29499505D01*
X24499505Y-29601968D01*
X24499490Y-29601984D01*
X24499485Y-29601992D01*
X24428287Y-29725308D01*
X24428286Y-29725312D01*
X24427017Y-29727511D01*
X24427016Y-29727515D01*
X24389500Y-29867525D01*
X20500500Y-29867525D01*
X20500500Y-25884985D01*
X20505521Y-25850058D01*
X20508707Y-25839205D01*
X20546477Y-25780424D01*
X20610031Y-25751395D01*
X20679186Y-25761333D01*
X20683256Y-25763192D01*
X20727596Y-25797318D01*
X20828988Y-25920864D01*
X20828993Y-25920870D01*
X20828996Y-25920873D01*
X20829005Y-25920883D01*
X21079123Y-26171001D01*
X21079200Y-26171070D01*
X21079733Y-26171502D01*
X21352598Y-26395436D01*
X21458092Y-26465925D01*
X21646742Y-26591977D01*
X21647405Y-26592345D01*
X21648187Y-26592749D01*
X21953427Y-26755904D01*
X21953430Y-26755906D01*
X21956550Y-26757574D01*
X21957403Y-26758029D01*
X21958723Y-26758735D01*
X21962197Y-26760592D01*
X21967171Y-26762235D01*
X22285565Y-26894118D01*
X22624095Y-26996809D01*
X22624098Y-26996809D01*
X22624102Y-26996810D01*
X22624104Y-26996811D01*
X22624115Y-26996814D01*
X22624129Y-26996816D01*
X22624683Y-26996947D01*
X22625949Y-26997179D01*
X22841631Y-27040080D01*
X22841663Y-27040085D01*
X22841674Y-27040088D01*
X22971060Y-27065825D01*
X23323119Y-27100500D01*
X23323122Y-27100500D01*
X23676878Y-27100500D01*
X23676881Y-27100500D01*
X24028940Y-27065825D01*
X24200679Y-27031663D01*
X24370039Y-26997976D01*
X24370093Y-26997969D01*
X24373864Y-26997215D01*
X24375884Y-26996814D01*
X24375895Y-26996811D01*
X24375895Y-26996810D01*
X24375902Y-26996809D01*
X24375905Y-26996809D01*
X24375907Y-26996808D01*
X24376175Y-26996755D01*
X24377642Y-26996333D01*
X24406169Y-26988553D01*
X24407890Y-26987290D01*
X24414128Y-26985214D01*
X24714435Y-26894118D01*
X25041269Y-26758739D01*
X25353259Y-26591976D01*
X25647402Y-26395436D01*
X25920864Y-26171012D01*
X26171012Y-25920864D01*
X26395436Y-25647402D01*
X26591976Y-25353259D01*
X26758739Y-25041269D01*
X26894118Y-24714435D01*
X26996809Y-24375905D01*
X26996811Y-24375895D01*
X26996814Y-24375884D01*
X27037851Y-24169573D01*
X27065825Y-24028940D01*
X27100500Y-23676881D01*
X27100500Y-23323119D01*
X27065825Y-22971060D01*
X27029459Y-22788235D01*
X26997179Y-22625950D01*
X26996946Y-22624678D01*
X26996816Y-22624129D01*
X26996814Y-22624115D01*
X26996811Y-22624104D01*
X26996810Y-22624101D01*
X26996809Y-22624095D01*
X26894118Y-22285565D01*
X26758739Y-21958731D01*
X26642447Y-21741166D01*
X26592764Y-21648215D01*
X26592350Y-21647415D01*
X26591977Y-21646742D01*
X26395441Y-21352606D01*
X26395436Y-21352598D01*
X26171502Y-21079733D01*
X26171502Y-21079732D01*
X26171002Y-21079124D01*
X25920874Y-20828996D01*
X25802272Y-20731662D01*
X25778455Y-20705618D01*
X25772086Y-20696268D01*
X25750615Y-20629781D01*
X25768499Y-20562239D01*
X25820057Y-20515089D01*
X25823116Y-20513592D01*
X25824098Y-20513112D01*
X25878584Y-20500500D01*
X64115013Y-20500500D01*
X64149940Y-20505521D01*
G37*
%TD.AperFunction*%
%TA.AperFunction,Conductor*%
G36*
X59359005Y-61546728D02*
G01*
X59416019Y-61579195D01*
X59774369Y-61937546D01*
X60100573Y-62263750D01*
X60121723Y-62292002D01*
X60134331Y-62315091D01*
X60149500Y-62374520D01*
X60149500Y-62954205D01*
X60144476Y-62989142D01*
X60137064Y-63014383D01*
X60105769Y-63067127D01*
X59762323Y-63410573D01*
X59734072Y-63431723D01*
X59726304Y-63435965D01*
X59715590Y-63441815D01*
X59647318Y-63456668D01*
X59621224Y-63451960D01*
X59604551Y-63447064D01*
X59551804Y-63415766D01*
X59545657Y-63409619D01*
X59545656Y-63409618D01*
X59545655Y-63409617D01*
X59545650Y-63409614D01*
X59543276Y-63408028D01*
X59499904Y-63379047D01*
X59440145Y-63339117D01*
X59440136Y-63339113D01*
X59434077Y-63336603D01*
X59403731Y-63318597D01*
X59391560Y-63308789D01*
X59351712Y-63251396D01*
X59351711Y-63251394D01*
X59349783Y-63245601D01*
X59346060Y-63209979D01*
X59343177Y-63201732D01*
X59343178Y-63201731D01*
X59171319Y-63029872D01*
X59137834Y-62968549D01*
X59135000Y-62942191D01*
X59135000Y-62640000D01*
X59488554Y-62640000D01*
X59488554Y-62640001D01*
X59694466Y-62845914D01*
X59694466Y-62845913D01*
X59694467Y-62845914D01*
X59728700Y-62718160D01*
X59728700Y-62561839D01*
X59694467Y-62434085D01*
X59694466Y-62434085D01*
X59488554Y-62640000D01*
X59135000Y-62640000D01*
X59080808Y-62640000D01*
X59013769Y-62620315D01*
X58968014Y-62567511D01*
X58958070Y-62498353D01*
X58987095Y-62434797D01*
X58993127Y-62428319D01*
X59157695Y-62263750D01*
X59340914Y-62080530D01*
X59226351Y-62049834D01*
X59213162Y-62046300D01*
X59213161Y-62046300D01*
X59194449Y-62046300D01*
X59159507Y-62041275D01*
X59148138Y-62037936D01*
X59089362Y-62000158D01*
X59060341Y-61936600D01*
X59069606Y-61868965D01*
X59076942Y-61852316D01*
X59087307Y-61833438D01*
X59157976Y-61727674D01*
X59159993Y-61724919D01*
X59161505Y-61722515D01*
X59163236Y-61717675D01*
X59199995Y-61628932D01*
X59218004Y-61598581D01*
X59226713Y-61587774D01*
X59284106Y-61547926D01*
X59353926Y-61545432D01*
X59359005Y-61546728D01*
G37*
%TD.AperFunction*%
%TA.AperFunction,Conductor*%
G36*
X39423847Y-48575521D02*
G01*
X39449091Y-48582934D01*
X39501837Y-48614230D01*
X39665513Y-48777906D01*
X39686662Y-48806156D01*
X39692083Y-48816083D01*
X39706937Y-48884356D01*
X39682523Y-48949821D01*
X39626591Y-48991694D01*
X39626574Y-48991700D01*
X39624002Y-48992659D01*
X39572022Y-49000170D01*
X39571922Y-49000163D01*
X39568420Y-48999868D01*
X39564489Y-48999480D01*
X39557370Y-48999258D01*
X39538060Y-48998050D01*
X39522263Y-48999500D01*
X38615325Y-48999500D01*
X38615323Y-48999500D01*
X38586261Y-49005280D01*
X38542266Y-49014031D01*
X38542258Y-49014034D01*
X38538704Y-49016409D01*
X38506870Y-49031636D01*
X38491953Y-49036306D01*
X38422104Y-49037553D01*
X38417381Y-49036257D01*
X38411260Y-49034578D01*
X38390842Y-49022708D01*
X38390526Y-49023472D01*
X38363927Y-49012454D01*
X38355763Y-49011650D01*
X38294681Y-48999500D01*
X38294677Y-48999500D01*
X38294674Y-48999500D01*
X37345326Y-48999500D01*
X37345323Y-48999500D01*
X37316261Y-49005280D01*
X37272266Y-49014031D01*
X37272258Y-49014034D01*
X37268704Y-49016409D01*
X37236870Y-49031636D01*
X37221953Y-49036306D01*
X37152104Y-49037553D01*
X37147381Y-49036257D01*
X37141260Y-49034578D01*
X37120842Y-49022708D01*
X37120526Y-49023472D01*
X37093927Y-49012454D01*
X37085763Y-49011650D01*
X37024681Y-48999500D01*
X37024677Y-48999500D01*
X37024674Y-48999500D01*
X36075326Y-48999500D01*
X36075323Y-48999500D01*
X36075319Y-48999500D01*
X36002285Y-49014027D01*
X36002262Y-49014032D01*
X36002258Y-49014033D01*
X35919399Y-49069399D01*
X35864033Y-49152258D01*
X35864032Y-49152266D01*
X35864028Y-49152281D01*
X35849500Y-49225318D01*
X35849500Y-49225321D01*
X35849500Y-50774678D01*
X35849500Y-50774680D01*
X35849499Y-50774680D01*
X35864031Y-50847731D01*
X35864033Y-50847739D01*
X35864034Y-50847742D01*
X35874754Y-50863785D01*
X35889985Y-50895621D01*
X35894055Y-50908619D01*
X35895303Y-50978477D01*
X35858584Y-51037920D01*
X35803167Y-51066596D01*
X35795113Y-51068424D01*
X35767667Y-51071500D01*
X28510290Y-51071500D01*
X28510227Y-51071499D01*
X28508323Y-51071499D01*
X28500727Y-51071499D01*
X28395273Y-51071499D01*
X28327366Y-51089695D01*
X28327365Y-51089694D01*
X28293413Y-51098792D01*
X28293412Y-51098792D01*
X28202082Y-51151523D01*
X28127518Y-51226089D01*
X28127517Y-51226089D01*
X27527498Y-51826107D01*
X27492309Y-51845321D01*
X27467914Y-51861749D01*
X27450436Y-51862123D01*
X27447627Y-51862506D01*
X27447583Y-51862184D01*
X27398060Y-51863247D01*
X27338486Y-51826741D01*
X27308106Y-51763822D01*
X27307349Y-51728536D01*
X27307826Y-51724625D01*
X27312983Y-51701319D01*
X27315749Y-51692806D01*
X27343402Y-51607701D01*
X27370500Y-51436611D01*
X27370500Y-51263389D01*
X27343402Y-51092299D01*
X27289873Y-50927555D01*
X27211232Y-50773212D01*
X27148454Y-50686806D01*
X27131985Y-50655592D01*
X27127634Y-50643397D01*
X27123646Y-50573641D01*
X27158004Y-50512803D01*
X27214619Y-50481363D01*
X27223621Y-50479133D01*
X27253422Y-50475500D01*
X27611725Y-50475500D01*
X27611727Y-50475500D01*
X27713588Y-50448207D01*
X27804913Y-50395480D01*
X29580969Y-48619423D01*
X29609219Y-48598275D01*
X29632311Y-48585667D01*
X29691736Y-48570500D01*
X39388915Y-48570500D01*
X39423847Y-48575521D01*
G37*
%TD.AperFunction*%
%TA.AperFunction,Conductor*%
G36*
X43635203Y-45400521D02*
G01*
X43660446Y-45407934D01*
X43719224Y-45445707D01*
X43730280Y-45469916D01*
X43871096Y-45597350D01*
X43896723Y-45629862D01*
X43909331Y-45652951D01*
X43924500Y-45712380D01*
X43924500Y-46067670D01*
X43919475Y-46102614D01*
X43915070Y-46117612D01*
X43877327Y-46176355D01*
X43875958Y-46177542D01*
X43821097Y-46205018D01*
X43813539Y-46206663D01*
X43787168Y-46209500D01*
X43672895Y-46209500D01*
X43672889Y-46209500D01*
X43672884Y-46209501D01*
X43623684Y-46215978D01*
X43623669Y-46215980D01*
X43623666Y-46215981D01*
X43618560Y-46218363D01*
X43584774Y-46228575D01*
X43560504Y-46232261D01*
X43506723Y-46228577D01*
X43506351Y-46228467D01*
X43489116Y-46221943D01*
X43477837Y-46216683D01*
X43476467Y-46216021D01*
X43476330Y-46215979D01*
X43431203Y-46210039D01*
X43429187Y-46209705D01*
X43427113Y-46209500D01*
X43427108Y-46209500D01*
X43427103Y-46209500D01*
X43427096Y-46209500D01*
X43172895Y-46209500D01*
X43172889Y-46209500D01*
X43172884Y-46209501D01*
X43123684Y-46215978D01*
X43123669Y-46215980D01*
X43123666Y-46215981D01*
X43118560Y-46218363D01*
X43084774Y-46228575D01*
X43060504Y-46232261D01*
X43006723Y-46228577D01*
X43006351Y-46228467D01*
X42989116Y-46221943D01*
X42977837Y-46216683D01*
X42976467Y-46216021D01*
X42976330Y-46215979D01*
X42931203Y-46210039D01*
X42929187Y-46209705D01*
X42927113Y-46209500D01*
X42927108Y-46209500D01*
X42927103Y-46209500D01*
X42927096Y-46209500D01*
X42672895Y-46209500D01*
X42672887Y-46209500D01*
X42623673Y-46215980D01*
X42623667Y-46215981D01*
X42515638Y-46266357D01*
X42431356Y-46350639D01*
X42380979Y-46458673D01*
X42374502Y-46507874D01*
X42374501Y-46507884D01*
X42374501Y-46507886D01*
X42374500Y-46507903D01*
X42374500Y-47912104D01*
X42380980Y-47961325D01*
X42380982Y-47961333D01*
X42402739Y-48007989D01*
X42406346Y-48015726D01*
X42407144Y-48017436D01*
X42415821Y-48042998D01*
X42421561Y-48068889D01*
X42424500Y-48095728D01*
X42424500Y-48186241D01*
X42419476Y-48221180D01*
X42418764Y-48223604D01*
X42414174Y-48239235D01*
X42380771Y-48294035D01*
X42373234Y-48301222D01*
X42349663Y-48318868D01*
X42279897Y-48359149D01*
X42261983Y-48369491D01*
X42261976Y-48369497D01*
X42159497Y-48471976D01*
X42159489Y-48471985D01*
X42159481Y-48471999D01*
X42123248Y-48534756D01*
X42101436Y-48562494D01*
X42096867Y-48566851D01*
X42091392Y-48572070D01*
X42029293Y-48604089D01*
X41959740Y-48597451D01*
X41959730Y-48597447D01*
X41951835Y-48594286D01*
X41910244Y-48566851D01*
X41895690Y-48552297D01*
X41871594Y-48528200D01*
X41871571Y-48528179D01*
X40631913Y-47288520D01*
X40557915Y-47214522D01*
X40557913Y-47214520D01*
X40547701Y-47208624D01*
X40484114Y-47171911D01*
X40484111Y-47171910D01*
X40482332Y-47170883D01*
X40472665Y-47165301D01*
X40466590Y-47161793D01*
X40441123Y-47154969D01*
X40415657Y-47148146D01*
X40415656Y-47148145D01*
X40364730Y-47134500D01*
X40364727Y-47134500D01*
X40364726Y-47134500D01*
X27263390Y-47134500D01*
X27228454Y-47129477D01*
X27216027Y-47125828D01*
X27157249Y-47088053D01*
X27128225Y-47024497D01*
X27136064Y-46960224D01*
X27139554Y-46951625D01*
X27154124Y-46925388D01*
X27211232Y-46846788D01*
X27289873Y-46692445D01*
X27343402Y-46527701D01*
X27370500Y-46356611D01*
X27370500Y-46183389D01*
X27343402Y-46012299D01*
X27289873Y-45847555D01*
X27211232Y-45693212D01*
X27148454Y-45606806D01*
X27131985Y-45575592D01*
X27127634Y-45563397D01*
X27123646Y-45493641D01*
X27158004Y-45432803D01*
X27214619Y-45401363D01*
X27223621Y-45399133D01*
X27253422Y-45395500D01*
X43600271Y-45395500D01*
X43635203Y-45400521D01*
G37*
%TD.AperFunction*%
%TA.AperFunction,Conductor*%
G36*
X27457949Y-35640708D02*
G01*
X27462318Y-35643407D01*
X27484822Y-35661215D01*
X27929087Y-36105480D01*
X28020412Y-36158207D01*
X28020416Y-36158208D01*
X28027925Y-36161319D01*
X28027006Y-36163537D01*
X28047705Y-36175553D01*
X28065138Y-36181589D01*
X28071043Y-36189100D01*
X28071658Y-36189457D01*
X28078877Y-36196748D01*
X28077853Y-36197761D01*
X28108322Y-36236516D01*
X28114954Y-36306070D01*
X28088789Y-36361571D01*
X28088399Y-36362043D01*
X28044302Y-36395861D01*
X28042256Y-36396795D01*
X28022859Y-36403767D01*
X27992916Y-36411791D01*
X27992911Y-36411792D01*
X27901597Y-36464513D01*
X27901582Y-36464523D01*
X27901580Y-36464524D01*
X27440533Y-36925573D01*
X27412282Y-36946722D01*
X27389194Y-36959330D01*
X27329764Y-36974500D01*
X27205003Y-36974500D01*
X27170063Y-36969476D01*
X27156994Y-36965638D01*
X27098218Y-36927861D01*
X27069195Y-36864304D01*
X27076144Y-36802295D01*
X27079105Y-36794567D01*
X27091784Y-36770064D01*
X27200494Y-36607368D01*
X27200499Y-36607358D01*
X27277969Y-36420327D01*
X27279135Y-36417773D01*
X27279646Y-36416280D01*
X27279648Y-36416276D01*
X27279649Y-36416274D01*
X27290843Y-36360000D01*
X26882250Y-36360000D01*
X26815211Y-36340315D01*
X26769456Y-36287511D01*
X26759512Y-36218353D01*
X26762476Y-36203905D01*
X26763835Y-36198832D01*
X26770000Y-36175826D01*
X26770000Y-36044174D01*
X26762476Y-36016094D01*
X26764137Y-35946245D01*
X26803299Y-35888382D01*
X26867527Y-35860877D01*
X26882250Y-35860000D01*
X27290843Y-35860000D01*
X27290843Y-35859999D01*
X27279650Y-35803731D01*
X27279649Y-35803730D01*
X27279649Y-35803726D01*
X27279182Y-35802598D01*
X27279113Y-35801962D01*
X27277881Y-35797899D01*
X27278651Y-35797665D01*
X27274828Y-35762092D01*
X27269750Y-35730742D01*
X27284332Y-35697246D01*
X27284789Y-35695947D01*
X27285336Y-35694939D01*
X27297639Y-35666680D01*
X27355736Y-35627866D01*
X27425595Y-35626623D01*
X27457949Y-35640708D01*
G37*
%TD.AperFunction*%
%TD*%
M02*
