M48
; DRILL file {KiCad 9.0.6} date 2026-02-24T20:44:27+0000
; FORMAT={-:-/ absolute / metric / decimal}
; #@! TF.CreationDate,2026-02-24T20:44:27+00:00
; #@! TF.GenerationSoftware,Kicad,Pcbnew,9.0.6
; #@! TF.FileFunction,Plated,1,2,PTH
FMAT,2
METRIC
; #@! TA.AperFunction,Plated,PTH,ViaDrill
T1C0.300
; #@! TA.AperFunction,Plated,PTH,ViaDrill
T2C0.400
; #@! TA.AperFunction,Plated,PTH,ComponentDrill
T3C0.500
%
G90
G05
T1
X31.0Y-45.5
X31.0Y-46.5
X32.0Y-41.75
X32.0Y-49.75
X32.309Y-40.358
X32.5Y-44.5
X35.222Y-39.727
X35.5Y-38.5
X35.5Y-47.5
X36.25Y-43.0
X36.5Y-47.0
X36.83Y-40.68
X36.982Y-38.318
X41.0Y-48.25
X52.971Y-45.5
X52.971Y-46.5
X53.971Y-41.75
X53.971Y-49.75
X56.578Y-40.64
X57.194Y-39.727
X57.471Y-38.5
X57.471Y-47.5
X58.221Y-43.0
X58.471Y-47.0
X58.971Y-37.5
X62.971Y-48.25
T2
X26.0Y-23.5
X26.0Y-27.5
X26.0Y-31.5
X26.0Y-35.5
X26.0Y-39.5
X26.0Y-43.5
X26.0Y-47.5
T3
X28.38Y-27.34
X28.38Y-29.88
X28.38Y-32.42
X28.38Y-34.96
X28.38Y-37.5
X28.38Y-40.04
X28.38Y-42.58
X28.38Y-45.12
X28.38Y-47.66
X43.62Y-27.34
X43.62Y-29.88
X43.62Y-32.42
X43.62Y-34.96
X43.62Y-37.5
X43.62Y-40.04
X43.62Y-42.58
X43.62Y-45.12
X43.62Y-47.66
X50.38Y-27.34
X50.38Y-29.88
X50.38Y-32.42
X50.38Y-34.96
X50.38Y-37.5
X50.38Y-40.04
X50.38Y-42.58
X50.38Y-45.12
X50.38Y-47.66
X65.62Y-27.34
X65.62Y-29.88
X65.62Y-32.42
X65.62Y-34.96
X65.62Y-37.5
X65.62Y-40.04
X65.62Y-42.58
X65.62Y-45.12
X65.62Y-47.66
M30
