%TF.GenerationSoftware,KiCad,Pcbnew,9.0.6*%
%TF.CreationDate,2026-02-24T20:44:23+00:00*%
%TF.ProjectId,Strikes,53747269-6b65-4732-9e6b-696361645f70,rev?*%
%TF.SameCoordinates,Original*%
%TF.FileFunction,Paste,Bot*%
%TF.FilePolarity,Positive*%
%FSLAX46Y46*%
G04 Gerber Fmt 4.6, Leading zero omitted, Abs format (unit mm)*
G04 Created by KiCad (PCBNEW 9.0.6) date 2026-02-24 20:44:23*
%MOMM*%
%LPD*%
G01*
G04 APERTURE LIST*
G04 Aperture macros list*
%AMRoundRect*
0 Rectangle with rounded corners*
0 $1 Rounding radius*
0 $2 $3 $4 $5 $6 $7 $8 $9 X,Y pos of 4 corners*
0 Add a 4 corners polygon primitive as box body*
4,1,4,$2,$3,$4,$5,$6,$7,$8,$9,$2,$3,0*
0 Add four circle primitives for the rounded corners*
1,1,$1+$1,$2,$3*
1,1,$1+$1,$4,$5*
1,1,$1+$1,$6,$7*
1,1,$1+$1,$8,$9*
0 Add four rect primitives between the rounded corners*
20,1,$1+$1,$2,$3,$4,$5,0*
20,1,$1+$1,$4,$5,$6,$7,0*
20,1,$1+$1,$6,$7,$8,$9,0*
20,1,$1+$1,$8,$9,$2,$3,0*%
G04 Aperture macros list end*
%ADD10RoundRect,0.225000X-0.250000X0.225000X-0.250000X-0.225000X0.250000X-0.225000X0.250000X0.225000X0*%
%ADD11RoundRect,0.200000X-0.275000X0.200000X-0.275000X-0.200000X0.275000X-0.200000X0.275000X0.200000X0*%
%ADD12RoundRect,0.225000X0.225000X0.250000X-0.225000X0.250000X-0.225000X-0.250000X0.225000X-0.250000X0*%
%ADD13RoundRect,0.225000X-0.225000X-0.250000X0.225000X-0.250000X0.225000X0.250000X-0.225000X0.250000X0*%
%ADD14R,1.200000X0.400000*%
%ADD15RoundRect,0.087500X0.725000X0.087500X-0.725000X0.087500X-0.725000X-0.087500X0.725000X-0.087500X0*%
G04 APERTURE END LIST*
D10*
%TO.C,C4*%
X32000000Y-47225000D03*
X32000000Y-48775000D03*
%TD*%
D11*
%TO.C,R4*%
X40250000Y-43425000D03*
X40250000Y-45075000D03*
%TD*%
D12*
%TO.C,C2*%
X60775000Y-43032500D03*
X59225000Y-43032500D03*
%TD*%
D11*
%TO.C,R2*%
X62250000Y-40457500D03*
X62250000Y-42107500D03*
%TD*%
D13*
%TO.C,C6*%
X38475000Y-48250000D03*
X40025000Y-48250000D03*
%TD*%
D14*
%TO.C,U4*%
X33400000Y-40992500D03*
X33400000Y-40357500D03*
X33400000Y-39722500D03*
X33400000Y-39087500D03*
X33400000Y-38452500D03*
X33400000Y-37817500D03*
X33400000Y-37182500D03*
X33400000Y-36547500D03*
X33400000Y-35912500D03*
X33400000Y-35277500D03*
X33400000Y-34642500D03*
X33400000Y-34007500D03*
X38600000Y-34007500D03*
X38600000Y-34642500D03*
X38600000Y-35277500D03*
X38600000Y-35912500D03*
X38600000Y-36547500D03*
X38600000Y-37182500D03*
X38600000Y-37817500D03*
X38600000Y-38452500D03*
X38600000Y-39087500D03*
X38600000Y-39722500D03*
X38600000Y-40357500D03*
X38600000Y-40992500D03*
%TD*%
D15*
%TO.C,U3*%
X38112500Y-45000000D03*
X38112500Y-45500000D03*
X38112500Y-46000000D03*
X38112500Y-46500000D03*
X38112500Y-47000000D03*
X33887500Y-47000000D03*
X33887500Y-46500000D03*
X33887500Y-46000000D03*
X33887500Y-45500000D03*
X33887500Y-45000000D03*
%TD*%
D11*
%TO.C,R1*%
X62250000Y-43457500D03*
X62250000Y-45107500D03*
%TD*%
D10*
%TO.C,C1*%
X54000000Y-47225000D03*
X54000000Y-48775000D03*
%TD*%
D13*
%TO.C,C3*%
X60475000Y-48250000D03*
X62025000Y-48250000D03*
%TD*%
D11*
%TO.C,R3*%
X40250000Y-40425000D03*
X40250000Y-42075000D03*
%TD*%
D14*
%TO.C,U2*%
X55400000Y-40992500D03*
X55400000Y-40357500D03*
X55400000Y-39722500D03*
X55400000Y-39087500D03*
X55400000Y-38452500D03*
X55400000Y-37817500D03*
X55400000Y-37182500D03*
X55400000Y-36547500D03*
X55400000Y-35912500D03*
X55400000Y-35277500D03*
X55400000Y-34642500D03*
X55400000Y-34007500D03*
X60600000Y-34007500D03*
X60600000Y-34642500D03*
X60600000Y-35277500D03*
X60600000Y-35912500D03*
X60600000Y-36547500D03*
X60600000Y-37182500D03*
X60600000Y-37817500D03*
X60600000Y-38452500D03*
X60600000Y-39087500D03*
X60600000Y-39722500D03*
X60600000Y-40357500D03*
X60600000Y-40992500D03*
%TD*%
D12*
%TO.C,C5*%
X38775000Y-43000000D03*
X37225000Y-43000000D03*
%TD*%
D15*
%TO.C,U1*%
X60112500Y-45000000D03*
X60112500Y-45500000D03*
X60112500Y-46000000D03*
X60112500Y-46500000D03*
X60112500Y-47000000D03*
X55887500Y-47000000D03*
X55887500Y-46500000D03*
X55887500Y-46000000D03*
X55887500Y-45500000D03*
X55887500Y-45000000D03*
%TD*%
M02*
