%TF.GenerationSoftware,KiCad,Pcbnew,9.0.6*%
%TF.CreationDate,2026-02-24T20:42:42+00:00*%
%TF.ProjectId,Timer,54696d65-722e-46b6-9963-61645f706362,rev?*%
%TF.SameCoordinates,Original*%
%TF.FileFunction,Legend,Top*%
%TF.FilePolarity,Positive*%
%FSLAX46Y46*%
G04 Gerber Fmt 4.6, Leading zero omitted, Abs format (unit mm)*
G04 Created by KiCad (PCBNEW 9.0.6) date 2026-02-24 20:42:42*
%MOMM*%
%LPD*%
G01*
G04 APERTURE LIST*
%ADD10C,0.423333*%
%ADD11C,0.150000*%
%ADD12C,0.000000*%
G04 APERTURE END LIST*
D10*
X110962236Y-82414816D02*
X112462190Y-82414816D01*
X64503343Y-63979910D02*
X64667423Y-63688490D01*
X67602998Y-58474631D01*
X127962205Y-86914847D02*
X113962228Y-86914847D01*
X110919145Y-31431769D02*
X111918575Y-31430074D01*
X112419183Y-31429228D01*
X63991968Y-36857459D02*
X63991968Y-50120581D01*
X52000635Y-56995017D02*
X52575510Y-56994498D01*
X26100244Y-26989050D02*
X40100717Y-26989050D01*
X25600702Y-26489012D02*
X25600702Y-29370558D01*
X51651803Y-87501593D02*
X52151330Y-87001212D01*
X113415620Y-29309088D02*
X113410715Y-26427542D01*
X40100717Y-29238982D02*
X40100717Y-26989050D01*
X112753953Y-82915213D02*
X110462198Y-82915213D01*
X80542856Y-84615317D02*
X77046800Y-89285513D01*
X125517198Y-61411307D02*
X127039217Y-58718496D01*
X128062028Y-56908896D01*
X126353540Y-76914877D02*
X129462244Y-82414816D01*
X77046037Y-74451926D02*
X80042734Y-70449393D01*
X103170534Y-82958365D02*
X99853548Y-77090293D01*
X29387842Y-78995139D02*
X26147653Y-84750769D01*
X48644434Y-83006644D02*
X48602188Y-58054970D01*
X48602106Y-58006766D01*
X37363458Y-52992636D02*
X28837503Y-52992636D01*
X43143655Y-82472388D02*
X41733725Y-82474782D01*
X41643350Y-82474936D01*
X69103288Y-58472098D02*
X69123169Y-70462296D01*
X69143083Y-82472388D01*
X131462244Y-57914816D02*
X130962198Y-58414862D01*
X64525362Y-76979895D02*
X64838677Y-77532019D01*
X67643640Y-82474936D01*
X54553323Y-61493094D02*
X52000635Y-56995017D01*
X73523736Y-47621558D02*
X73521555Y-45384931D01*
X73519510Y-43288230D01*
X67310045Y-57975180D02*
X68456240Y-57973242D01*
X69601976Y-57971304D01*
X131418298Y-30897177D02*
X130271931Y-30899127D01*
X129126543Y-30901076D01*
X112459650Y-55429175D02*
X110959703Y-55431723D01*
X55058786Y-35488989D02*
X51600152Y-29370558D01*
X84962205Y-58458731D02*
X84962205Y-82458853D01*
X27742776Y-76998099D02*
X24643137Y-82503714D01*
X63991968Y-36857459D02*
X67308351Y-30989050D01*
X90070909Y-63827262D02*
X87036584Y-58458731D01*
X110962236Y-58414862D02*
X110962236Y-82414816D01*
X49143121Y-82506247D02*
X50643426Y-82503714D01*
X130962198Y-82414816D02*
X129462244Y-82414816D01*
X125225442Y-60911261D02*
X126422296Y-58793742D01*
X127487398Y-56909323D01*
X74042741Y-84454428D02*
X74041609Y-83119850D01*
X74039354Y-80454794D01*
X90884218Y-35465628D02*
X98967683Y-35451994D01*
X87962198Y-84708426D02*
X87962198Y-86958884D01*
X74039354Y-80454794D02*
X75602930Y-78366165D01*
X77035966Y-76451911D01*
X98712244Y-78958731D02*
X91212213Y-78958731D01*
X116884164Y-35421683D02*
X113415620Y-29309088D01*
X24892053Y-55989005D02*
X25053839Y-55702794D01*
X28209283Y-50120581D01*
X90920534Y-78458335D02*
X99003999Y-78458335D01*
X63662614Y-61477774D02*
X65285362Y-58595638D01*
X66193300Y-56983069D01*
X98712244Y-78958731D02*
X101962259Y-84708426D01*
X49100793Y-55489035D02*
X49100793Y-31489005D01*
X105460512Y-55940985D02*
X105419195Y-31441087D01*
X52147104Y-84750769D02*
X52151330Y-87001212D01*
X54836969Y-52992636D02*
X52575510Y-56994498D01*
X90059305Y-50098563D02*
X90039388Y-38277962D01*
X90036958Y-36835532D01*
X115570901Y-63914893D02*
X115570901Y-76914877D01*
X103170534Y-82958365D02*
X105462205Y-82958365D01*
X43100473Y-31489005D02*
X41600183Y-31489005D01*
X104962251Y-82458853D02*
X103462213Y-82458853D01*
X38492059Y-49989005D02*
X41600183Y-55489035D01*
X100341737Y-49949637D02*
X100811934Y-50778273D01*
X103459672Y-55444419D01*
X38492059Y-36989035D02*
X41600183Y-31489005D01*
X99509637Y-52454672D02*
X100319243Y-53881414D01*
X102062082Y-56952750D01*
X64491502Y-49989005D02*
X67600458Y-55489035D01*
X26147653Y-84750769D02*
X26151041Y-87001212D01*
X66193300Y-56983069D02*
X63810188Y-52767157D01*
X63654993Y-52492606D01*
X87036584Y-58458731D02*
X84962205Y-58458731D01*
X84959749Y-55475669D02*
X84919199Y-31475707D01*
X74039354Y-66454474D02*
X75477627Y-64533393D01*
X77035966Y-62451941D01*
X25651498Y-87501593D02*
X30423963Y-87493513D01*
X40651910Y-87476187D01*
X99853548Y-77090293D02*
X99853548Y-63827262D01*
X24936075Y-83003256D02*
X22644159Y-83006644D01*
X63363733Y-52992636D02*
X54836969Y-52992636D01*
X77046037Y-88451544D02*
X78604225Y-86370536D01*
X80042734Y-84449362D01*
X55387292Y-78995139D02*
X55393217Y-78995129D01*
X62887910Y-78982428D01*
X101915346Y-29196990D02*
X101914928Y-28949623D01*
X101911539Y-26946974D01*
X28209283Y-36857459D02*
X24892053Y-30989050D01*
X54243448Y-77128745D02*
X53198044Y-78985734D01*
X50936365Y-83003256D01*
X80442781Y-70582388D02*
X80042734Y-70449393D01*
X40147302Y-84727072D02*
X38867363Y-82471385D01*
X36887628Y-78982428D01*
X43600000Y-55989005D02*
X43600000Y-30989050D01*
X77027330Y-52285254D02*
X80523386Y-47615622D01*
X37363458Y-52992636D02*
X39016935Y-55918257D01*
X39618982Y-56983496D01*
X54208734Y-36857459D02*
X52755809Y-34286482D01*
X50892343Y-30989050D01*
X27720758Y-63998129D02*
X25062350Y-59312397D01*
X24603342Y-58503348D01*
X67308351Y-55989005D02*
X69600282Y-55989005D01*
X110460504Y-55932608D02*
X110439402Y-43422088D01*
X110418336Y-30932654D01*
X100319810Y-36949668D02*
X103419199Y-31444464D01*
X73638879Y-66321463D02*
X77035371Y-61785269D01*
X74019884Y-43454428D02*
X74023271Y-47454505D01*
X84919199Y-31475707D02*
X85419524Y-31474861D01*
X86419229Y-31473166D01*
X124712190Y-78914694D02*
X117212160Y-78914694D01*
X110418336Y-30932654D02*
X112710016Y-30928763D01*
X99841951Y-50082053D02*
X99830752Y-43462546D01*
X99819513Y-36819022D01*
X125853502Y-77046347D02*
X125853502Y-63783316D01*
X89570947Y-63958762D02*
X89570947Y-76958731D01*
X48600412Y-55989005D02*
X48600412Y-30989050D01*
X54843729Y-60992636D02*
X52575510Y-56994498D01*
X130919103Y-31397986D02*
X130918786Y-31397987D01*
X129419145Y-31400519D01*
X77035371Y-61785269D02*
X78044324Y-63128158D01*
X80439226Y-66315695D01*
X125819543Y-36775076D02*
X125819618Y-36819650D01*
X125841897Y-50038107D01*
X77046037Y-74451926D02*
X74042741Y-70454459D01*
X38503915Y-63979910D02*
X38505102Y-64709261D01*
X38525079Y-76979895D01*
X90036958Y-36835532D02*
X88173933Y-33552366D01*
X86710062Y-30972617D01*
X116407236Y-61411307D02*
X115181508Y-59242676D01*
X113869180Y-56920828D01*
X86459703Y-55473120D02*
X84959749Y-55475669D01*
X124675020Y-34908515D02*
X127915384Y-29153052D01*
X29350595Y-34989035D02*
X26100244Y-29238982D01*
X24600793Y-55489035D02*
X23100503Y-55489035D01*
X80042734Y-84449362D02*
X80039346Y-80449698D01*
X126341684Y-49905783D02*
X126319757Y-36905814D01*
X50892343Y-30989050D02*
X48600412Y-30989050D01*
X66147577Y-84727072D02*
X64593195Y-81987721D01*
X62887910Y-78982428D01*
X29094903Y-78495596D02*
X25647272Y-84620383D01*
X66100168Y-29238982D02*
X66100168Y-26989050D01*
X102462213Y-84577200D02*
X99003999Y-78458335D01*
X48644434Y-83006644D02*
X50936365Y-83003256D01*
X54208734Y-50120581D02*
X54208734Y-36857459D01*
X98967683Y-35451994D02*
X102415559Y-29327628D01*
X87915376Y-29220618D02*
X87913345Y-28019911D01*
X87911569Y-26970595D01*
X41600183Y-55489035D02*
X43100473Y-55489035D01*
X113962228Y-84665259D02*
X117494476Y-78415152D01*
X129168787Y-55901023D02*
X131460466Y-55897132D01*
X69143083Y-82472388D02*
X67732905Y-82474783D01*
X67643640Y-82474936D01*
X115570901Y-76914877D02*
X112462190Y-82414816D01*
X112752267Y-55928717D02*
X112459650Y-55429175D01*
X113410715Y-26427542D02*
X113911607Y-26926734D01*
X125853502Y-63783316D02*
X128183360Y-59661273D01*
X129170488Y-57914816D01*
X64491502Y-49989005D02*
X64491502Y-36989035D01*
X29094903Y-78495596D02*
X37178033Y-78482047D01*
X69644311Y-82971076D02*
X67488828Y-82975051D01*
X67352380Y-82975302D01*
X125853502Y-77046347D02*
X127968854Y-80789121D01*
X129170488Y-82915213D01*
X126353540Y-63914893D02*
X129462244Y-58414862D01*
X102415559Y-29327628D02*
X102410738Y-26446173D01*
X43103006Y-58472098D02*
X43143655Y-82472388D01*
X125509584Y-52410819D02*
X128062028Y-56908896D01*
X129459619Y-55400473D02*
X130209798Y-55399206D01*
X130959657Y-55397940D01*
X99841951Y-50082053D02*
X103168840Y-55944876D01*
X125509584Y-52410819D02*
X116941058Y-52425227D01*
X116399614Y-52426138D01*
X29058496Y-35488989D02*
X37142480Y-35488989D01*
X41310617Y-57975180D02*
X42455631Y-57973243D01*
X43601694Y-57971304D01*
X116399614Y-52426138D02*
X113869180Y-56920828D01*
X126319757Y-36905814D02*
X129419145Y-31400519D01*
X66600542Y-26489012D02*
X66600542Y-29370558D01*
X55058786Y-35488989D02*
X63141908Y-35488989D01*
X25600702Y-29370558D02*
X27304205Y-32384841D01*
X29058496Y-35488989D01*
X104962251Y-58458731D02*
X104962251Y-82458853D01*
X115570901Y-63914893D02*
X114128615Y-61363154D01*
X112462190Y-58414862D01*
X27708902Y-36989035D02*
X26203215Y-34324610D01*
X24600793Y-31489005D01*
X77035203Y-75618628D02*
X75887140Y-77151914D01*
X73538980Y-80287985D01*
X22600122Y-55989005D02*
X24892053Y-55989005D01*
X116920488Y-78415152D02*
X113462190Y-84533179D01*
X22600122Y-55989005D02*
X22600122Y-30989050D01*
X84962205Y-82458853D02*
X86462244Y-82458853D01*
X63370508Y-60978232D02*
X55338863Y-60991799D01*
X54843729Y-60992636D01*
X48602106Y-58006766D02*
X49103342Y-58505881D01*
X66100168Y-29238982D02*
X62850664Y-34989035D01*
X74023271Y-47454505D02*
X74831217Y-48529872D01*
X77026651Y-51451956D01*
X24603342Y-58503348D02*
X23103036Y-58505881D01*
X69100748Y-55489035D02*
X69100748Y-31489005D01*
X26000345Y-56995017D02*
X28553033Y-61493094D01*
X40147302Y-84727072D02*
X40150674Y-86977500D01*
X110959703Y-55431723D02*
X110919145Y-31431769D01*
X41308923Y-55989005D02*
X41600183Y-55489035D01*
X84462244Y-82958365D02*
X86753999Y-82958365D01*
X23103036Y-58505881D02*
X23143671Y-82506247D01*
X99509637Y-52454672D02*
X90942795Y-52469164D01*
X90399667Y-52470084D01*
X23143671Y-82506247D02*
X23146336Y-82506243D01*
X24643137Y-82503714D01*
X86753999Y-57958762D02*
X84462244Y-57958762D01*
X52100534Y-29238982D02*
X52100534Y-26989050D01*
X66652185Y-87476187D02*
X56427193Y-87493508D01*
X51651803Y-87501593D01*
X38492059Y-49989005D02*
X38492059Y-36989035D01*
X113462190Y-84533179D02*
X113462190Y-87415228D01*
X69600282Y-31489005D02*
X67600458Y-31489005D01*
X116070940Y-63783316D02*
X113848421Y-59851184D01*
X112753953Y-57914816D01*
X103459672Y-55444419D02*
X104957359Y-55441890D01*
X104959711Y-55441886D01*
X63370508Y-60978232D02*
X64116333Y-59653325D01*
X65619256Y-56983496D01*
X116692224Y-52925681D02*
X114443223Y-56920325D01*
X126353540Y-63914893D02*
X126353540Y-76914877D01*
X87410760Y-26471488D02*
X87415590Y-29352942D01*
X37655557Y-52492606D02*
X38424653Y-53853655D01*
X40193002Y-56983069D01*
X28243158Y-77128745D02*
X28231719Y-70491512D01*
X28220300Y-63865714D01*
X131460466Y-55897132D02*
X130959657Y-55397940D01*
X116884164Y-35421683D02*
X124967630Y-35408057D01*
X103168840Y-55944876D02*
X104696431Y-55942286D01*
X105460512Y-55940985D01*
X125218668Y-52911276D02*
X127377739Y-56716078D01*
X127487398Y-56909323D01*
X27708902Y-49989005D02*
X26203215Y-52653430D01*
X24600793Y-55489035D01*
X50894022Y-58002875D02*
X50130924Y-58004174D01*
X48602106Y-58006766D01*
X80019868Y-43449439D02*
X80023256Y-47449423D01*
X37370218Y-60978232D02*
X29346568Y-60991787D01*
X28844293Y-60992636D01*
X87410760Y-26471488D02*
X102410738Y-26446173D01*
X116036905Y-36791586D02*
X116048146Y-43435906D01*
X116059343Y-50054617D01*
X100341737Y-49949637D02*
X100334418Y-45611081D01*
X100319810Y-36949668D01*
X80523386Y-47615622D02*
X80522925Y-47067599D01*
X80519739Y-43282309D01*
X128410684Y-26402228D02*
X113410715Y-26427542D01*
X51600152Y-29370558D02*
X52100534Y-29238982D01*
X129462244Y-58414862D02*
X130962198Y-58414862D01*
X50892343Y-55989005D02*
X52174877Y-53719531D01*
X54208734Y-50120581D01*
X27720758Y-63998129D02*
X27742776Y-76998099D01*
X90692277Y-52969534D02*
X89939149Y-54307258D01*
X88443277Y-56964270D01*
X129168787Y-55901023D02*
X125841897Y-50038107D01*
X37991678Y-36857459D02*
X37991678Y-50120581D01*
X80039346Y-66449393D02*
X79189427Y-65318161D01*
X77035966Y-62451941D01*
X128462160Y-84533179D02*
X127357479Y-82578855D01*
X125003953Y-78415152D01*
X23100503Y-31489005D02*
X24600793Y-31489005D01*
X101962259Y-86958884D02*
X87462236Y-86958884D01*
X73519510Y-43288230D02*
X74019884Y-43454428D01*
X37991678Y-36857459D02*
X41308923Y-30989050D01*
X50600244Y-55489035D02*
X49100793Y-55489035D01*
X73638879Y-66321463D02*
X73643121Y-70588156D01*
X124712190Y-78914694D02*
X127962205Y-84665259D01*
X127962205Y-84665259D02*
X127962205Y-86914847D01*
X73643121Y-70588156D02*
X75032012Y-72436916D01*
X77046632Y-75118582D01*
X84462244Y-82958365D02*
X84462244Y-57958762D01*
X22600122Y-30989050D02*
X24892053Y-30989050D01*
X77046037Y-88451544D02*
X75511803Y-86409617D01*
X74042741Y-84454428D01*
X37142480Y-35488989D02*
X36850366Y-34989035D01*
X127911577Y-26903113D02*
X113911607Y-26926734D01*
X22644159Y-83006644D02*
X22601816Y-58006766D01*
X103462213Y-58458731D02*
X104962251Y-58458731D01*
X28243158Y-77128745D02*
X27197754Y-78985734D01*
X24936075Y-83003256D01*
X43100473Y-55489035D02*
X43100473Y-31489005D01*
X73543207Y-84621237D02*
X73541093Y-82453618D01*
X73538980Y-80287985D01*
X66147577Y-84727072D02*
X66149834Y-86228020D01*
X66150964Y-86977500D01*
X113915330Y-29176756D02*
X117175081Y-34921218D01*
X100353509Y-63958762D02*
X103287481Y-58767871D01*
X103462213Y-58458731D01*
X89537164Y-36967871D02*
X86642384Y-31866428D01*
X86419229Y-31473166D01*
X63654993Y-52492606D02*
X54545709Y-52492606D01*
X38003534Y-63849204D02*
X41310617Y-57975180D01*
X28220300Y-63865714D02*
X24893747Y-58002875D01*
X64025835Y-77112235D02*
X64010554Y-68248003D01*
X64002969Y-63849204D01*
X77015810Y-38618613D02*
X73519510Y-43288230D01*
X87915376Y-29220618D02*
X90433988Y-33659014D01*
X91175127Y-34965079D01*
X28844293Y-60992636D02*
X27960535Y-59435438D01*
X26575220Y-56994498D01*
X43600000Y-55989005D02*
X41308923Y-55989005D01*
X102415559Y-29327628D02*
X101915346Y-29196990D01*
X69600282Y-55989005D02*
X69600282Y-31489005D01*
X64503343Y-63979910D02*
X64525362Y-76979895D01*
X77016489Y-39451895D02*
X74019884Y-43454428D01*
X99218721Y-52955130D02*
X100290144Y-54843284D01*
X101487443Y-56953269D01*
X29387842Y-78995139D02*
X29401390Y-78995116D01*
X36887628Y-78982428D01*
X105419195Y-31441087D02*
X103419199Y-31444464D01*
X100353509Y-76958731D02*
X103462213Y-82458853D01*
X124967630Y-35408057D02*
X128415597Y-29283774D01*
X116698999Y-60911261D02*
X114443223Y-56920325D01*
X50602777Y-58503348D02*
X49103342Y-58505881D01*
X66647111Y-84594992D02*
X64885580Y-81490697D01*
X63178323Y-78482047D01*
X55350030Y-34989035D02*
X62850664Y-34989035D01*
X63662614Y-61477774D02*
X54553323Y-61493094D01*
X131462244Y-82915213D02*
X129170488Y-82915213D01*
X55095193Y-78495596D02*
X63178323Y-78482047D01*
X116692224Y-52925681D02*
X125218668Y-52911276D01*
X105462205Y-57958762D02*
X105462205Y-82958365D01*
X99225496Y-60955130D02*
X101487443Y-56953269D01*
X37178033Y-78482047D02*
X38858082Y-81442742D01*
X40646829Y-84594992D01*
X40651910Y-87476187D02*
X40646829Y-84594992D01*
X104959711Y-55441886D02*
X104919153Y-31441931D01*
X89570947Y-63958762D02*
X86462244Y-58458731D01*
X77016489Y-39451895D02*
X80019868Y-43449439D01*
X105418352Y-30941039D02*
X105413922Y-30941047D01*
X103126596Y-30944937D01*
X40193002Y-56983069D02*
X37663171Y-61477774D01*
X41352945Y-82975302D02*
X38025537Y-77112235D01*
X112753953Y-57914816D02*
X110462198Y-57914816D01*
X86710062Y-30972617D02*
X86419229Y-31473166D01*
X80539217Y-80282065D02*
X77035203Y-75618628D01*
X84460550Y-55976462D02*
X84418390Y-30976508D01*
X43601694Y-57971304D02*
X43103006Y-58472098D01*
X89559099Y-49967841D02*
X88551023Y-51758425D01*
X86459703Y-55473120D01*
X100353509Y-63958762D02*
X100353509Y-76958731D01*
X41308923Y-55989005D02*
X39177963Y-52219200D01*
X37991678Y-50120581D01*
X87962198Y-84708426D02*
X91212213Y-78958731D01*
X48600412Y-30989050D02*
X49100793Y-31489005D01*
X128415597Y-29283774D02*
X128413138Y-27841603D01*
X128410684Y-26402228D01*
X53709192Y-36989035D02*
X50600244Y-31489005D01*
X26000345Y-56995017D02*
X26706729Y-55745367D01*
X28545419Y-52492606D01*
X41602716Y-58474631D02*
X43103006Y-58472098D01*
X50894022Y-58002875D02*
X54220590Y-63865714D01*
X52000635Y-56995017D02*
X52707019Y-55745367D01*
X54545709Y-52492606D01*
X69644311Y-82971076D02*
X69606199Y-60464523D01*
X69601976Y-57971304D01*
X64002969Y-63849204D02*
X67310045Y-57975180D01*
X87462236Y-87458411D02*
X102462213Y-87458411D01*
X51600152Y-29370558D02*
X51600152Y-26489012D01*
X66652185Y-87476187D02*
X66649644Y-86033064D01*
X66647111Y-84594992D01*
X128062028Y-56908896D02*
X127487398Y-56909323D01*
X86752313Y-55972571D02*
X90059305Y-50098563D01*
X112462190Y-58414862D02*
X110962236Y-58414862D01*
X131460466Y-55897132D02*
X131423080Y-33732899D01*
X131418298Y-30897177D01*
X64025835Y-77112235D02*
X67352380Y-82975302D01*
X130962198Y-58414862D02*
X130962198Y-82414816D01*
X52100534Y-26989050D02*
X66100168Y-26989050D01*
X67308351Y-30989050D02*
X69600282Y-30989050D01*
X80439226Y-66315695D02*
X80441123Y-68593167D01*
X80442781Y-70582388D01*
X55387292Y-78995139D02*
X53670551Y-82044631D01*
X52147104Y-84750769D01*
X113462190Y-87415228D02*
X128462160Y-87415228D01*
X24893747Y-58002875D02*
X24603342Y-58503348D01*
X80042734Y-70449393D02*
X80039346Y-66449393D01*
X89570947Y-76958731D02*
X86462244Y-82458853D01*
X124675020Y-34908515D02*
X119876195Y-34916645D01*
X117175081Y-34921218D01*
X63991968Y-50120581D02*
X67308351Y-55989005D01*
X116070940Y-77046347D02*
X116070940Y-63783316D01*
X99853548Y-63827262D02*
X100353509Y-63958762D01*
X90884218Y-35465628D02*
X87415590Y-29352942D01*
X23100503Y-55489035D02*
X23100503Y-31489005D01*
X77046800Y-89285513D02*
X77046037Y-88451544D01*
X98675073Y-34952460D02*
X100260718Y-32135989D01*
X101915346Y-29196990D01*
X41308923Y-30989050D02*
X43600000Y-30989050D01*
X37663171Y-61477774D02*
X37370218Y-60978232D01*
X80542856Y-84615317D02*
X80539217Y-80282065D01*
X53709192Y-49989005D02*
X50600244Y-55489035D01*
X53721048Y-63998129D02*
X53743066Y-76998099D01*
X84418390Y-30976508D02*
X86710062Y-30972617D01*
X74042741Y-70454459D02*
X74041612Y-69123310D01*
X74039354Y-66454474D01*
X112710016Y-30928763D02*
X116036905Y-36791586D01*
X129126543Y-30901076D02*
X128119967Y-32688990D01*
X125819543Y-36775076D01*
X80442781Y-70582388D02*
X80199831Y-70906894D01*
X77046632Y-75118582D01*
X127915384Y-29153052D02*
X127913607Y-28102810D01*
X127911577Y-26903113D01*
X86752313Y-55972571D02*
X84460550Y-55976462D01*
X51651803Y-87501593D02*
X51646722Y-84620383D01*
X112752267Y-55928717D02*
X115706726Y-50680942D01*
X116059343Y-50054617D01*
X50892343Y-55989005D02*
X48600412Y-55989005D01*
X53709192Y-49989005D02*
X53709192Y-36989035D01*
X63363733Y-52992636D02*
X64475873Y-54960425D01*
X65619256Y-56983496D01*
X24893747Y-58002875D02*
X22601816Y-58006766D01*
X40100717Y-29238982D02*
X38040575Y-32883494D01*
X36850366Y-34989035D01*
X115537118Y-36924002D02*
X113490943Y-33318006D01*
X112419183Y-31429228D01*
X52151330Y-87001212D02*
X66150964Y-86977500D01*
X90407281Y-61455161D02*
X99517168Y-61455161D01*
X80023256Y-47449423D02*
X77026651Y-51451956D01*
X25650765Y-87002059D02*
X40150674Y-86977500D01*
X73523736Y-47621558D02*
X73800722Y-47990260D01*
X77027330Y-52285254D01*
X116070940Y-77046347D02*
X112753953Y-82915213D01*
X129170488Y-57914816D02*
X131462244Y-57914816D01*
X125003953Y-78415152D02*
X117494476Y-78415152D01*
X77015810Y-38618613D02*
X78197299Y-40191161D01*
X80519739Y-43282309D01*
X38503915Y-63979910D02*
X39474586Y-62255439D01*
X41602716Y-58474631D01*
X27708902Y-49989005D02*
X27708902Y-36989035D01*
X112753953Y-57914816D02*
X112462190Y-58414862D01*
X115559129Y-49923987D02*
X112771627Y-54875054D01*
X112459650Y-55429175D01*
X54220590Y-63865714D02*
X54232009Y-70491512D01*
X54243448Y-77128745D01*
X99819513Y-36819022D02*
X101006430Y-34710801D01*
X103126596Y-30944937D01*
X37370218Y-60978232D02*
X39618982Y-56983496D01*
X116698999Y-60911261D02*
X125225442Y-60911261D01*
X67602998Y-58474631D02*
X69103288Y-58472098D01*
X43644022Y-82971076D02*
X43601694Y-57971304D01*
X25647272Y-84620383D02*
X25650765Y-87002059D01*
X53721048Y-63998129D02*
X50602777Y-58503348D01*
X110460504Y-55932608D02*
X112752267Y-55928717D01*
X99517168Y-61455161D02*
X100856289Y-59086014D01*
X102062082Y-56952750D01*
X64491502Y-36989035D02*
X67600458Y-31489005D01*
X49100793Y-31489005D02*
X50600244Y-31489005D01*
X38003534Y-63849204D02*
X38014556Y-70492863D01*
X38025537Y-77112235D01*
X28553033Y-61493094D02*
X37663171Y-61477774D01*
X26100244Y-29238982D02*
X26100244Y-26989050D01*
X49103342Y-58505881D02*
X49143121Y-82506247D01*
X66600542Y-26489012D02*
X51600152Y-26489012D01*
X130959657Y-55397940D02*
X130925870Y-35402482D01*
X130919103Y-31397986D01*
X110462198Y-57914816D02*
X110462198Y-82915213D01*
X87869234Y-56964774D02*
X90399667Y-52470084D01*
X131462244Y-57914816D02*
X131462244Y-82915213D01*
X102462213Y-84577200D02*
X102462213Y-87458411D01*
X115559129Y-49923987D02*
X115548857Y-43857230D01*
X115537118Y-36924002D01*
X90070909Y-77090293D02*
X86753999Y-82958365D01*
X25600702Y-26489012D02*
X40600259Y-26489012D01*
X63141908Y-35488989D02*
X64475370Y-33130051D01*
X66600542Y-29370558D01*
X28545419Y-52492606D02*
X37655557Y-52492606D01*
X87462236Y-84577200D02*
X87462236Y-86958884D01*
X29350595Y-34989035D02*
X36850366Y-34989035D01*
X101962259Y-84708426D02*
X101962259Y-86958884D01*
X87462236Y-84577200D02*
X90728864Y-78797464D01*
X90920534Y-78458335D01*
X28209283Y-50120581D02*
X28209283Y-36857459D01*
X90124655Y-60955130D02*
X99225496Y-60955130D01*
X43644022Y-82971076D02*
X41484227Y-82975061D01*
X41352945Y-82975302D01*
X69601976Y-57971304D02*
X69103288Y-58472098D01*
X101911539Y-26946974D02*
X87911569Y-26970595D01*
X103170534Y-57958762D02*
X99853548Y-63827262D01*
X89559099Y-49967841D02*
X89537164Y-36967871D01*
X55350030Y-34989035D02*
X52100534Y-29238982D01*
X128462160Y-84533179D02*
X128462160Y-87415228D01*
X55095193Y-78495596D02*
X51646722Y-84620383D01*
X80039346Y-80449698D02*
X78685806Y-78648006D01*
X77035966Y-76451911D01*
X126341684Y-49905783D02*
X129459619Y-55400473D01*
X67600458Y-55489035D02*
X69100748Y-55489035D01*
X40600259Y-29370558D02*
X38825973Y-32510102D01*
X37142480Y-35488989D01*
X87869234Y-56964774D02*
X90124655Y-60955130D01*
X40600259Y-29370558D02*
X40600259Y-26489012D01*
X38525079Y-76979895D02*
X40354669Y-80204016D01*
X41643350Y-82474936D01*
X53743066Y-76998099D02*
X50643426Y-82503714D01*
X90070909Y-63827262D02*
X90070909Y-77090293D01*
X98675073Y-34952460D02*
X95046369Y-34958565D01*
X91175127Y-34965079D01*
X90692277Y-52969534D02*
X91188594Y-52968695D01*
X99218721Y-52955130D01*
X113915330Y-29176756D02*
X113914916Y-28927076D01*
X113911607Y-26926734D01*
X113962228Y-84665259D02*
X113962228Y-86914847D01*
X90699052Y-60955130D02*
X88673404Y-57371404D01*
X88443277Y-56964270D01*
X77046800Y-89285513D02*
X75502251Y-87229278D01*
X73543207Y-84621237D01*
X103170534Y-57958762D02*
X105462205Y-57958762D01*
X116407236Y-61411307D02*
X125517198Y-61411307D01*
X28837503Y-52992636D02*
X26575220Y-56994498D01*
X22600122Y-30989050D02*
X23100503Y-31489005D01*
D11*
X79626779Y-2154819D02*
X79626779Y-1154819D01*
X80198207Y-2154819D02*
X79769636Y-1583390D01*
X80198207Y-1154819D02*
X79626779Y-1726247D01*
X80483922Y-1154819D02*
X81055350Y-1154819D01*
X80769636Y-2154819D02*
X80769636Y-1154819D01*
X81341065Y-1869104D02*
X81817255Y-1869104D01*
X81245827Y-2154819D02*
X81579160Y-1154819D01*
X81579160Y-1154819D02*
X81912493Y-2154819D01*
X82245827Y-2154819D02*
X82245827Y-1154819D01*
X82245827Y-1154819D02*
X82817255Y-2154819D01*
X82817255Y-2154819D02*
X82817255Y-1154819D01*
X83293446Y-1631009D02*
X83626779Y-1631009D01*
X83769636Y-2154819D02*
X83293446Y-2154819D01*
X83293446Y-2154819D02*
X83293446Y-1154819D01*
X83293446Y-1154819D02*
X83769636Y-1154819D01*
X84960113Y-2154819D02*
X84960113Y-1154819D01*
X86007731Y-2154819D02*
X85674398Y-1678628D01*
X85436303Y-2154819D02*
X85436303Y-1154819D01*
X85436303Y-1154819D02*
X85817255Y-1154819D01*
X85817255Y-1154819D02*
X85912493Y-1202438D01*
X85912493Y-1202438D02*
X85960112Y-1250057D01*
X85960112Y-1250057D02*
X86007731Y-1345295D01*
X86007731Y-1345295D02*
X86007731Y-1488152D01*
X86007731Y-1488152D02*
X85960112Y-1583390D01*
X85960112Y-1583390D02*
X85912493Y-1631009D01*
X85912493Y-1631009D02*
X85817255Y-1678628D01*
X85817255Y-1678628D02*
X85436303Y-1678628D01*
X86912493Y-2154819D02*
X86436303Y-2154819D01*
X86436303Y-2154819D02*
X86436303Y-1154819D01*
X88007732Y-2154819D02*
X88007732Y-1154819D01*
X88007732Y-1535771D02*
X88102970Y-1488152D01*
X88102970Y-1488152D02*
X88293446Y-1488152D01*
X88293446Y-1488152D02*
X88388684Y-1535771D01*
X88388684Y-1535771D02*
X88436303Y-1583390D01*
X88436303Y-1583390D02*
X88483922Y-1678628D01*
X88483922Y-1678628D02*
X88483922Y-1964342D01*
X88483922Y-1964342D02*
X88436303Y-2059580D01*
X88436303Y-2059580D02*
X88388684Y-2107200D01*
X88388684Y-2107200D02*
X88293446Y-2154819D01*
X88293446Y-2154819D02*
X88102970Y-2154819D01*
X88102970Y-2154819D02*
X88007732Y-2107200D01*
X88817256Y-1488152D02*
X89055351Y-2154819D01*
X89293446Y-1488152D02*
X89055351Y-2154819D01*
X89055351Y-2154819D02*
X88960113Y-2392914D01*
X88960113Y-2392914D02*
X88912494Y-2440533D01*
X88912494Y-2440533D02*
X88817256Y-2488152D01*
X90436304Y-2154819D02*
X90436304Y-1154819D01*
X90436304Y-1154819D02*
X90769637Y-1869104D01*
X90769637Y-1869104D02*
X91102970Y-1154819D01*
X91102970Y-1154819D02*
X91102970Y-2154819D01*
X91960113Y-2107200D02*
X91864875Y-2154819D01*
X91864875Y-2154819D02*
X91674399Y-2154819D01*
X91674399Y-2154819D02*
X91579161Y-2107200D01*
X91579161Y-2107200D02*
X91531542Y-2011961D01*
X91531542Y-2011961D02*
X91531542Y-1631009D01*
X91531542Y-1631009D02*
X91579161Y-1535771D01*
X91579161Y-1535771D02*
X91674399Y-1488152D01*
X91674399Y-1488152D02*
X91864875Y-1488152D01*
X91864875Y-1488152D02*
X91960113Y-1535771D01*
X91960113Y-1535771D02*
X92007732Y-1631009D01*
X92007732Y-1631009D02*
X92007732Y-1726247D01*
X92007732Y-1726247D02*
X91531542Y-1821485D01*
X92579161Y-2154819D02*
X92483923Y-2107200D01*
X92483923Y-2107200D02*
X92436304Y-2011961D01*
X92436304Y-2011961D02*
X92436304Y-1154819D01*
X93388685Y-2154819D02*
X93388685Y-1631009D01*
X93388685Y-1631009D02*
X93341066Y-1535771D01*
X93341066Y-1535771D02*
X93245828Y-1488152D01*
X93245828Y-1488152D02*
X93055352Y-1488152D01*
X93055352Y-1488152D02*
X92960114Y-1535771D01*
X93388685Y-2107200D02*
X93293447Y-2154819D01*
X93293447Y-2154819D02*
X93055352Y-2154819D01*
X93055352Y-2154819D02*
X92960114Y-2107200D01*
X92960114Y-2107200D02*
X92912495Y-2011961D01*
X92912495Y-2011961D02*
X92912495Y-1916723D01*
X92912495Y-1916723D02*
X92960114Y-1821485D01*
X92960114Y-1821485D02*
X93055352Y-1773866D01*
X93055352Y-1773866D02*
X93293447Y-1773866D01*
X93293447Y-1773866D02*
X93388685Y-1726247D01*
X93864876Y-2154819D02*
X93864876Y-1488152D01*
X93864876Y-1154819D02*
X93817257Y-1202438D01*
X93817257Y-1202438D02*
X93864876Y-1250057D01*
X93864876Y-1250057D02*
X93912495Y-1202438D01*
X93912495Y-1202438D02*
X93864876Y-1154819D01*
X93864876Y-1154819D02*
X93864876Y-1250057D01*
X94341066Y-2154819D02*
X94341066Y-1488152D01*
X94341066Y-1678628D02*
X94388685Y-1583390D01*
X94388685Y-1583390D02*
X94436304Y-1535771D01*
X94436304Y-1535771D02*
X94531542Y-1488152D01*
X94531542Y-1488152D02*
X94626780Y-1488152D01*
X80198207Y-3669524D02*
X80150588Y-3717144D01*
X80150588Y-3717144D02*
X80007731Y-3764763D01*
X80007731Y-3764763D02*
X79912493Y-3764763D01*
X79912493Y-3764763D02*
X79769636Y-3717144D01*
X79769636Y-3717144D02*
X79674398Y-3621905D01*
X79674398Y-3621905D02*
X79626779Y-3526667D01*
X79626779Y-3526667D02*
X79579160Y-3336191D01*
X79579160Y-3336191D02*
X79579160Y-3193334D01*
X79579160Y-3193334D02*
X79626779Y-3002858D01*
X79626779Y-3002858D02*
X79674398Y-2907620D01*
X79674398Y-2907620D02*
X79769636Y-2812382D01*
X79769636Y-2812382D02*
X79912493Y-2764763D01*
X79912493Y-2764763D02*
X80007731Y-2764763D01*
X80007731Y-2764763D02*
X80150588Y-2812382D01*
X80150588Y-2812382D02*
X80198207Y-2860001D01*
X80769636Y-3764763D02*
X80674398Y-3717144D01*
X80674398Y-3717144D02*
X80626779Y-3669524D01*
X80626779Y-3669524D02*
X80579160Y-3574286D01*
X80579160Y-3574286D02*
X80579160Y-3288572D01*
X80579160Y-3288572D02*
X80626779Y-3193334D01*
X80626779Y-3193334D02*
X80674398Y-3145715D01*
X80674398Y-3145715D02*
X80769636Y-3098096D01*
X80769636Y-3098096D02*
X80912493Y-3098096D01*
X80912493Y-3098096D02*
X81007731Y-3145715D01*
X81007731Y-3145715D02*
X81055350Y-3193334D01*
X81055350Y-3193334D02*
X81102969Y-3288572D01*
X81102969Y-3288572D02*
X81102969Y-3574286D01*
X81102969Y-3574286D02*
X81055350Y-3669524D01*
X81055350Y-3669524D02*
X81007731Y-3717144D01*
X81007731Y-3717144D02*
X80912493Y-3764763D01*
X80912493Y-3764763D02*
X80769636Y-3764763D01*
X81531541Y-3098096D02*
X81531541Y-3764763D01*
X81531541Y-3193334D02*
X81579160Y-3145715D01*
X81579160Y-3145715D02*
X81674398Y-3098096D01*
X81674398Y-3098096D02*
X81817255Y-3098096D01*
X81817255Y-3098096D02*
X81912493Y-3145715D01*
X81912493Y-3145715D02*
X81960112Y-3240953D01*
X81960112Y-3240953D02*
X81960112Y-3764763D01*
X82293446Y-3098096D02*
X82674398Y-3098096D01*
X82436303Y-2764763D02*
X82436303Y-3621905D01*
X82436303Y-3621905D02*
X82483922Y-3717144D01*
X82483922Y-3717144D02*
X82579160Y-3764763D01*
X82579160Y-3764763D02*
X82674398Y-3764763D01*
X83007732Y-3764763D02*
X83007732Y-3098096D01*
X83007732Y-3288572D02*
X83055351Y-3193334D01*
X83055351Y-3193334D02*
X83102970Y-3145715D01*
X83102970Y-3145715D02*
X83198208Y-3098096D01*
X83198208Y-3098096D02*
X83293446Y-3098096D01*
X83769637Y-3764763D02*
X83674399Y-3717144D01*
X83674399Y-3717144D02*
X83626780Y-3669524D01*
X83626780Y-3669524D02*
X83579161Y-3574286D01*
X83579161Y-3574286D02*
X83579161Y-3288572D01*
X83579161Y-3288572D02*
X83626780Y-3193334D01*
X83626780Y-3193334D02*
X83674399Y-3145715D01*
X83674399Y-3145715D02*
X83769637Y-3098096D01*
X83769637Y-3098096D02*
X83912494Y-3098096D01*
X83912494Y-3098096D02*
X84007732Y-3145715D01*
X84007732Y-3145715D02*
X84055351Y-3193334D01*
X84055351Y-3193334D02*
X84102970Y-3288572D01*
X84102970Y-3288572D02*
X84102970Y-3574286D01*
X84102970Y-3574286D02*
X84055351Y-3669524D01*
X84055351Y-3669524D02*
X84007732Y-3717144D01*
X84007732Y-3717144D02*
X83912494Y-3764763D01*
X83912494Y-3764763D02*
X83769637Y-3764763D01*
X84674399Y-3764763D02*
X84579161Y-3717144D01*
X84579161Y-3717144D02*
X84531542Y-3621905D01*
X84531542Y-3621905D02*
X84531542Y-2764763D01*
X86150590Y-3240953D02*
X86293447Y-3288572D01*
X86293447Y-3288572D02*
X86341066Y-3336191D01*
X86341066Y-3336191D02*
X86388685Y-3431429D01*
X86388685Y-3431429D02*
X86388685Y-3574286D01*
X86388685Y-3574286D02*
X86341066Y-3669524D01*
X86341066Y-3669524D02*
X86293447Y-3717144D01*
X86293447Y-3717144D02*
X86198209Y-3764763D01*
X86198209Y-3764763D02*
X85817257Y-3764763D01*
X85817257Y-3764763D02*
X85817257Y-2764763D01*
X85817257Y-2764763D02*
X86150590Y-2764763D01*
X86150590Y-2764763D02*
X86245828Y-2812382D01*
X86245828Y-2812382D02*
X86293447Y-2860001D01*
X86293447Y-2860001D02*
X86341066Y-2955239D01*
X86341066Y-2955239D02*
X86341066Y-3050477D01*
X86341066Y-3050477D02*
X86293447Y-3145715D01*
X86293447Y-3145715D02*
X86245828Y-3193334D01*
X86245828Y-3193334D02*
X86150590Y-3240953D01*
X86150590Y-3240953D02*
X85817257Y-3240953D01*
X86960114Y-3764763D02*
X86864876Y-3717144D01*
X86864876Y-3717144D02*
X86817257Y-3669524D01*
X86817257Y-3669524D02*
X86769638Y-3574286D01*
X86769638Y-3574286D02*
X86769638Y-3288572D01*
X86769638Y-3288572D02*
X86817257Y-3193334D01*
X86817257Y-3193334D02*
X86864876Y-3145715D01*
X86864876Y-3145715D02*
X86960114Y-3098096D01*
X86960114Y-3098096D02*
X87102971Y-3098096D01*
X87102971Y-3098096D02*
X87198209Y-3145715D01*
X87198209Y-3145715D02*
X87245828Y-3193334D01*
X87245828Y-3193334D02*
X87293447Y-3288572D01*
X87293447Y-3288572D02*
X87293447Y-3574286D01*
X87293447Y-3574286D02*
X87245828Y-3669524D01*
X87245828Y-3669524D02*
X87198209Y-3717144D01*
X87198209Y-3717144D02*
X87102971Y-3764763D01*
X87102971Y-3764763D02*
X86960114Y-3764763D01*
X88150590Y-3764763D02*
X88150590Y-3240953D01*
X88150590Y-3240953D02*
X88102971Y-3145715D01*
X88102971Y-3145715D02*
X88007733Y-3098096D01*
X88007733Y-3098096D02*
X87817257Y-3098096D01*
X87817257Y-3098096D02*
X87722019Y-3145715D01*
X88150590Y-3717144D02*
X88055352Y-3764763D01*
X88055352Y-3764763D02*
X87817257Y-3764763D01*
X87817257Y-3764763D02*
X87722019Y-3717144D01*
X87722019Y-3717144D02*
X87674400Y-3621905D01*
X87674400Y-3621905D02*
X87674400Y-3526667D01*
X87674400Y-3526667D02*
X87722019Y-3431429D01*
X87722019Y-3431429D02*
X87817257Y-3383810D01*
X87817257Y-3383810D02*
X88055352Y-3383810D01*
X88055352Y-3383810D02*
X88150590Y-3336191D01*
X88626781Y-3764763D02*
X88626781Y-3098096D01*
X88626781Y-3288572D02*
X88674400Y-3193334D01*
X88674400Y-3193334D02*
X88722019Y-3145715D01*
X88722019Y-3145715D02*
X88817257Y-3098096D01*
X88817257Y-3098096D02*
X88912495Y-3098096D01*
X89674400Y-3764763D02*
X89674400Y-2764763D01*
X89674400Y-3717144D02*
X89579162Y-3764763D01*
X89579162Y-3764763D02*
X89388686Y-3764763D01*
X89388686Y-3764763D02*
X89293448Y-3717144D01*
X89293448Y-3717144D02*
X89245829Y-3669524D01*
X89245829Y-3669524D02*
X89198210Y-3574286D01*
X89198210Y-3574286D02*
X89198210Y-3288572D01*
X89198210Y-3288572D02*
X89245829Y-3193334D01*
X89245829Y-3193334D02*
X89293448Y-3145715D01*
X89293448Y-3145715D02*
X89388686Y-3098096D01*
X89388686Y-3098096D02*
X89579162Y-3098096D01*
X89579162Y-3098096D02*
X89674400Y-3145715D01*
X91198210Y-4145715D02*
X91150591Y-4098096D01*
X91150591Y-4098096D02*
X91055353Y-3955239D01*
X91055353Y-3955239D02*
X91007734Y-3860001D01*
X91007734Y-3860001D02*
X90960115Y-3717144D01*
X90960115Y-3717144D02*
X90912496Y-3479048D01*
X90912496Y-3479048D02*
X90912496Y-3288572D01*
X90912496Y-3288572D02*
X90960115Y-3050477D01*
X90960115Y-3050477D02*
X91007734Y-2907620D01*
X91007734Y-2907620D02*
X91055353Y-2812382D01*
X91055353Y-2812382D02*
X91150591Y-2669524D01*
X91150591Y-2669524D02*
X91198210Y-2621905D01*
X91912496Y-3240953D02*
X92055353Y-3288572D01*
X92055353Y-3288572D02*
X92102972Y-3336191D01*
X92102972Y-3336191D02*
X92150591Y-3431429D01*
X92150591Y-3431429D02*
X92150591Y-3574286D01*
X92150591Y-3574286D02*
X92102972Y-3669524D01*
X92102972Y-3669524D02*
X92055353Y-3717144D01*
X92055353Y-3717144D02*
X91960115Y-3764763D01*
X91960115Y-3764763D02*
X91579163Y-3764763D01*
X91579163Y-3764763D02*
X91579163Y-2764763D01*
X91579163Y-2764763D02*
X91912496Y-2764763D01*
X91912496Y-2764763D02*
X92007734Y-2812382D01*
X92007734Y-2812382D02*
X92055353Y-2860001D01*
X92055353Y-2860001D02*
X92102972Y-2955239D01*
X92102972Y-2955239D02*
X92102972Y-3050477D01*
X92102972Y-3050477D02*
X92055353Y-3145715D01*
X92055353Y-3145715D02*
X92007734Y-3193334D01*
X92007734Y-3193334D02*
X91912496Y-3240953D01*
X91912496Y-3240953D02*
X91579163Y-3240953D01*
X92769639Y-2764763D02*
X92864877Y-2764763D01*
X92864877Y-2764763D02*
X92960115Y-2812382D01*
X92960115Y-2812382D02*
X93007734Y-2860001D01*
X93007734Y-2860001D02*
X93055353Y-2955239D01*
X93055353Y-2955239D02*
X93102972Y-3145715D01*
X93102972Y-3145715D02*
X93102972Y-3383810D01*
X93102972Y-3383810D02*
X93055353Y-3574286D01*
X93055353Y-3574286D02*
X93007734Y-3669524D01*
X93007734Y-3669524D02*
X92960115Y-3717144D01*
X92960115Y-3717144D02*
X92864877Y-3764763D01*
X92864877Y-3764763D02*
X92769639Y-3764763D01*
X92769639Y-3764763D02*
X92674401Y-3717144D01*
X92674401Y-3717144D02*
X92626782Y-3669524D01*
X92626782Y-3669524D02*
X92579163Y-3574286D01*
X92579163Y-3574286D02*
X92531544Y-3383810D01*
X92531544Y-3383810D02*
X92531544Y-3145715D01*
X92531544Y-3145715D02*
X92579163Y-2955239D01*
X92579163Y-2955239D02*
X92626782Y-2860001D01*
X92626782Y-2860001D02*
X92674401Y-2812382D01*
X92674401Y-2812382D02*
X92769639Y-2764763D01*
X94055353Y-3764763D02*
X93483925Y-3764763D01*
X93769639Y-3764763D02*
X93769639Y-2764763D01*
X93769639Y-2764763D02*
X93674401Y-2907620D01*
X93674401Y-2907620D02*
X93579163Y-3002858D01*
X93579163Y-3002858D02*
X93483925Y-3050477D01*
X94388687Y-4145715D02*
X94436306Y-4098096D01*
X94436306Y-4098096D02*
X94531544Y-3955239D01*
X94531544Y-3955239D02*
X94579163Y-3860001D01*
X94579163Y-3860001D02*
X94626782Y-3717144D01*
X94626782Y-3717144D02*
X94674401Y-3479048D01*
X94674401Y-3479048D02*
X94674401Y-3288572D01*
X94674401Y-3288572D02*
X94626782Y-3050477D01*
X94626782Y-3050477D02*
X94579163Y-2907620D01*
X94579163Y-2907620D02*
X94531544Y-2812382D01*
X94531544Y-2812382D02*
X94436306Y-2669524D01*
X94436306Y-2669524D02*
X94388687Y-2621905D01*
D12*
%TO.C,G\u002A\u002A\u002A*%
G36*
X75538398Y-1773494D02*
G01*
X75538398Y-1840618D01*
X75410861Y-1840618D01*
X75283324Y-1840618D01*
X75283324Y-1773494D01*
X75283324Y-1706369D01*
X75410861Y-1706369D01*
X75538398Y-1706369D01*
X75538398Y-1773494D01*
G37*
G36*
X75538398Y-2058774D02*
G01*
X75538398Y-2122542D01*
X75410861Y-2122542D01*
X75283324Y-2122542D01*
X75283324Y-2058774D01*
X75283324Y-1995005D01*
X75410861Y-1995005D01*
X75538398Y-1995005D01*
X75538398Y-2058774D01*
G37*
G36*
X75538398Y-2340698D02*
G01*
X75538398Y-2404466D01*
X75410861Y-2404466D01*
X75283324Y-2404466D01*
X75283324Y-2340698D01*
X75283324Y-2276929D01*
X75410861Y-2276929D01*
X75538398Y-2276929D01*
X75538398Y-2340698D01*
G37*
G36*
X76202933Y-1333827D02*
G01*
X76202933Y-1464720D01*
X76135809Y-1464720D01*
X76068684Y-1464720D01*
X76068684Y-1333827D01*
X76068684Y-1202933D01*
X76135809Y-1202933D01*
X76202933Y-1202933D01*
X76202933Y-1333827D01*
G37*
G36*
X76202933Y-3065645D02*
G01*
X76202933Y-3196538D01*
X76135809Y-3196538D01*
X76068684Y-3196538D01*
X76068684Y-3065645D01*
X76068684Y-2934751D01*
X76135809Y-2934751D01*
X76202933Y-2934751D01*
X76202933Y-3065645D01*
G37*
G36*
X76422767Y-2936187D02*
G01*
X76488213Y-2938108D01*
X76490036Y-3067323D01*
X76491860Y-3196538D01*
X76424590Y-3196538D01*
X76357320Y-3196538D01*
X76357320Y-3065402D01*
X76357320Y-2934265D01*
X76422767Y-2936187D01*
G37*
G36*
X76491570Y-1333827D02*
G01*
X76491570Y-1464720D01*
X76424445Y-1464720D01*
X76357320Y-1464720D01*
X76357320Y-1333827D01*
X76357320Y-1202933D01*
X76424445Y-1202933D01*
X76491570Y-1202933D01*
X76491570Y-1333827D01*
G37*
G36*
X77142680Y-1706962D02*
G01*
X77270217Y-1708428D01*
X77270217Y-1774523D01*
X77270217Y-1840618D01*
X77142680Y-1840618D01*
X77015143Y-1840618D01*
X77015143Y-1773057D01*
X77015143Y-1705495D01*
X77142680Y-1706962D01*
G37*
G36*
X77270217Y-2058774D02*
G01*
X77270217Y-2122542D01*
X77142680Y-2122542D01*
X77015143Y-2122542D01*
X77015143Y-2058774D01*
X77015143Y-1995005D01*
X77142680Y-1995005D01*
X77270217Y-1995005D01*
X77270217Y-2058774D01*
G37*
G36*
X77270217Y-2340698D02*
G01*
X77270217Y-2404466D01*
X77142680Y-2404466D01*
X77015143Y-2404466D01*
X77015143Y-2340698D01*
X77015143Y-2276929D01*
X77142680Y-2276929D01*
X77270217Y-2276929D01*
X77270217Y-2340698D01*
G37*
G36*
X77270217Y-2625509D02*
G01*
X77270217Y-2692166D01*
X77142680Y-2692166D01*
X77015143Y-2692166D01*
X77015143Y-2625509D01*
X77015143Y-2558853D01*
X77142680Y-2558853D01*
X77270217Y-2558853D01*
X77270217Y-2625509D01*
G37*
G36*
X75919635Y-3045507D02*
G01*
X75920074Y-3083903D01*
X75919981Y-3119135D01*
X75919401Y-3148309D01*
X75918377Y-3168528D01*
X75917652Y-3174722D01*
X75913689Y-3196538D01*
X75846723Y-3196538D01*
X75779758Y-3196538D01*
X75781581Y-3067323D01*
X75783404Y-2938108D01*
X75850528Y-2938108D01*
X75917653Y-2938108D01*
X75919635Y-3045507D01*
G37*
G36*
X75538398Y-2621782D02*
G01*
X75538398Y-2684712D01*
X75517422Y-2688907D01*
X75502379Y-2690419D01*
X75477232Y-2691407D01*
X75445292Y-2691882D01*
X75409870Y-2691855D01*
X75374276Y-2691337D01*
X75341821Y-2690339D01*
X75315815Y-2688872D01*
X75308496Y-2688213D01*
X75283324Y-2685580D01*
X75283324Y-2622216D01*
X75283324Y-2558853D01*
X75410861Y-2558853D01*
X75538398Y-2558853D01*
X75538398Y-2621782D01*
G37*
G36*
X76775964Y-2955496D02*
G01*
X76777945Y-2973129D01*
X76779282Y-3000635D01*
X76779974Y-3034478D01*
X76780022Y-3071121D01*
X76779426Y-3107026D01*
X76778188Y-3138659D01*
X76776307Y-3162481D01*
X76775937Y-3165395D01*
X76771669Y-3196538D01*
X76705312Y-3196538D01*
X76638954Y-3196538D01*
X76640777Y-3067323D01*
X76642600Y-2938108D01*
X76707161Y-2936197D01*
X76771722Y-2934287D01*
X76775964Y-2955496D01*
G37*
G36*
X75848850Y-1202938D02*
G01*
X75917653Y-1202943D01*
X75919534Y-1288522D01*
X75919930Y-1326306D01*
X75919582Y-1364122D01*
X75918574Y-1397330D01*
X75917175Y-1419411D01*
X75912934Y-1464720D01*
X75850966Y-1464720D01*
X75823334Y-1464264D01*
X75800998Y-1463041D01*
X75787204Y-1461271D01*
X75784522Y-1460245D01*
X75783118Y-1452424D01*
X75781894Y-1433348D01*
X75780925Y-1405187D01*
X75780285Y-1370110D01*
X75780048Y-1330287D01*
X75780047Y-1329352D01*
X75780047Y-1202933D01*
X75848850Y-1202938D01*
G37*
G36*
X76775830Y-1238174D02*
G01*
X76777080Y-1258082D01*
X76777532Y-1287698D01*
X76777190Y-1323329D01*
X76776055Y-1361282D01*
X76775723Y-1369067D01*
X76771409Y-1464720D01*
X76709801Y-1464720D01*
X76682253Y-1464261D01*
X76660005Y-1463032D01*
X76646317Y-1461254D01*
X76643719Y-1460245D01*
X76642315Y-1452424D01*
X76641091Y-1433348D01*
X76640121Y-1405187D01*
X76639481Y-1370110D01*
X76639244Y-1330287D01*
X76639244Y-1329352D01*
X76639244Y-1202933D01*
X76705434Y-1202933D01*
X76771624Y-1202933D01*
X76775830Y-1238174D01*
G37*
G36*
X76042075Y-1559303D02*
G01*
X76124208Y-1559499D01*
X76218296Y-1559812D01*
X76293608Y-1560080D01*
X76394881Y-1560427D01*
X76483594Y-1560744D01*
X76560613Y-1561091D01*
X76626801Y-1561526D01*
X76683025Y-1562108D01*
X76730148Y-1562897D01*
X76769036Y-1563950D01*
X76800554Y-1565328D01*
X76825566Y-1567090D01*
X76844938Y-1569293D01*
X76859534Y-1571998D01*
X76870220Y-1575263D01*
X76877859Y-1579148D01*
X76883318Y-1583710D01*
X76887460Y-1589010D01*
X76891151Y-1595106D01*
X76894652Y-1601076D01*
X76896942Y-1605187D01*
X76898947Y-1610100D01*
X76900686Y-1616683D01*
X76902178Y-1625802D01*
X76903442Y-1638325D01*
X76904496Y-1655118D01*
X76905361Y-1677048D01*
X76906054Y-1704982D01*
X76906594Y-1739788D01*
X76907001Y-1782333D01*
X76907293Y-1833482D01*
X76907489Y-1894104D01*
X76907608Y-1965065D01*
X76907669Y-2047233D01*
X76907691Y-2141474D01*
X76907693Y-2199736D01*
X76907687Y-2301041D01*
X76907655Y-2389790D01*
X76907579Y-2466850D01*
X76907438Y-2533091D01*
X76907213Y-2589381D01*
X76906884Y-2636589D01*
X76906431Y-2675582D01*
X76905836Y-2707229D01*
X76905077Y-2732399D01*
X76904137Y-2751960D01*
X76902994Y-2766781D01*
X76901630Y-2777730D01*
X76900025Y-2785675D01*
X76898159Y-2791486D01*
X76896012Y-2796030D01*
X76894146Y-2799228D01*
X76889828Y-2806468D01*
X76885694Y-2812816D01*
X76880883Y-2818329D01*
X76874534Y-2823064D01*
X76865786Y-2827079D01*
X76853777Y-2830432D01*
X76837647Y-2833179D01*
X76816533Y-2835377D01*
X76789575Y-2837085D01*
X76755910Y-2838360D01*
X76714679Y-2839259D01*
X76665020Y-2839839D01*
X76606070Y-2840158D01*
X76536970Y-2840273D01*
X76456858Y-2840241D01*
X76364872Y-2840121D01*
X76282020Y-2839998D01*
X76196825Y-2839838D01*
X76115324Y-2839608D01*
X76038540Y-2839315D01*
X75967497Y-2838966D01*
X75903218Y-2838569D01*
X75846726Y-2838132D01*
X75799043Y-2837662D01*
X75761194Y-2837166D01*
X75734200Y-2836652D01*
X75719086Y-2836128D01*
X75716279Y-2835858D01*
X75688954Y-2822700D01*
X75668133Y-2800386D01*
X75659243Y-2780441D01*
X75657797Y-2768129D01*
X75656568Y-2742717D01*
X75655555Y-2704165D01*
X75654759Y-2652433D01*
X75654179Y-2587480D01*
X75653814Y-2509267D01*
X75653665Y-2417754D01*
X75653731Y-2312901D01*
X75654011Y-2194667D01*
X75654041Y-2185046D01*
X75654376Y-2084273D01*
X75654706Y-1996058D01*
X75655051Y-1919535D01*
X75655433Y-1853837D01*
X75655873Y-1798099D01*
X75656391Y-1751454D01*
X75657008Y-1713035D01*
X75657745Y-1681976D01*
X75658622Y-1657410D01*
X75659661Y-1638471D01*
X75660883Y-1624294D01*
X75662307Y-1614010D01*
X75663956Y-1606754D01*
X75665850Y-1601659D01*
X75668009Y-1597860D01*
X75668158Y-1597638D01*
X75672796Y-1590798D01*
X75677406Y-1584794D01*
X75682843Y-1579576D01*
X75689963Y-1575092D01*
X75699623Y-1571290D01*
X75712679Y-1568119D01*
X75729986Y-1565528D01*
X75752400Y-1563465D01*
X75780778Y-1561879D01*
X75815975Y-1560718D01*
X75858847Y-1559932D01*
X75910251Y-1559468D01*
X75971041Y-1559276D01*
X76042075Y-1559303D01*
G37*
G36*
X78664956Y636284D02*
G01*
X78662003Y626388D01*
X78655500Y603739D01*
X78645498Y568515D01*
X78632046Y520897D01*
X78615197Y461065D01*
X78594999Y389198D01*
X78571505Y305475D01*
X78544764Y210077D01*
X78536302Y179871D01*
X78525287Y140225D01*
X78515744Y105259D01*
X78508192Y76922D01*
X78503148Y57166D01*
X78501130Y47940D01*
X78501146Y47515D01*
X78507908Y48109D01*
X78525755Y50678D01*
X78552547Y54888D01*
X78586146Y60404D01*
X78619768Y66094D01*
X78662009Y73208D01*
X78707351Y80627D01*
X78753879Y88061D01*
X78799682Y95219D01*
X78842846Y101810D01*
X78881458Y107546D01*
X78913606Y112135D01*
X78937375Y115289D01*
X78950854Y116715D01*
X78953184Y116662D01*
X78948103Y113056D01*
X78933048Y103716D01*
X78909665Y89630D01*
X78879599Y71785D01*
X78844498Y51171D01*
X78829003Y42130D01*
X78786715Y17483D01*
X78743506Y-7735D01*
X78702447Y-31730D01*
X78666605Y-52708D01*
X78639049Y-68877D01*
X78637259Y-69930D01*
X78610472Y-85391D01*
X78587775Y-97937D01*
X78571729Y-106188D01*
X78565100Y-108800D01*
X78558104Y-111842D01*
X78562670Y-120741D01*
X78578453Y-135159D01*
X78605103Y-154760D01*
X78628066Y-170103D01*
X78656204Y-188599D01*
X78689587Y-210898D01*
X78726443Y-235780D01*
X78765004Y-262026D01*
X78803497Y-288417D01*
X78840154Y-313733D01*
X78873203Y-336756D01*
X78900874Y-356265D01*
X78921397Y-371042D01*
X78933001Y-379868D01*
X78934329Y-381028D01*
X78939867Y-387588D01*
X78933905Y-387710D01*
X78930972Y-387063D01*
X78916055Y-383858D01*
X78891001Y-378760D01*
X78857735Y-372138D01*
X78818179Y-364363D01*
X78774257Y-355805D01*
X78727892Y-346832D01*
X78681006Y-337814D01*
X78635523Y-329122D01*
X78593365Y-321125D01*
X78556456Y-314193D01*
X78526719Y-308695D01*
X78506077Y-305001D01*
X78496452Y-303481D01*
X78496127Y-303462D01*
X78492736Y-306508D01*
X78494133Y-316707D01*
X78500758Y-335649D01*
X78513051Y-364923D01*
X78513325Y-365552D01*
X78525721Y-394289D01*
X78541488Y-431417D01*
X78558926Y-472897D01*
X78576331Y-514690D01*
X78583169Y-531238D01*
X78625866Y-634833D01*
X78600829Y-611662D01*
X78585520Y-597431D01*
X78563640Y-577012D01*
X78538406Y-553410D01*
X78518671Y-534917D01*
X78461426Y-481641D01*
X78410177Y-434791D01*
X78365469Y-394832D01*
X78327845Y-362231D01*
X78297848Y-337454D01*
X78276021Y-320967D01*
X78262909Y-313236D01*
X78259785Y-312802D01*
X78249128Y-322670D01*
X78238568Y-341716D01*
X78229773Y-365786D01*
X78224413Y-390724D01*
X78223535Y-403004D01*
X78226072Y-424761D01*
X78232843Y-452319D01*
X78241061Y-476241D01*
X78264860Y-548684D01*
X78276473Y-616444D01*
X78275874Y-679243D01*
X78266466Y-726116D01*
X78247733Y-766442D01*
X78217576Y-802755D01*
X78177695Y-833860D01*
X78129792Y-858563D01*
X78075567Y-875671D01*
X78045581Y-881149D01*
X77986814Y-885470D01*
X77928749Y-881330D01*
X77867496Y-868284D01*
X77828358Y-856253D01*
X77800082Y-847005D01*
X77776890Y-839940D01*
X77761465Y-835841D01*
X77756483Y-835254D01*
X77759763Y-840914D01*
X77770370Y-855032D01*
X77786918Y-875854D01*
X77808020Y-901626D01*
X77824435Y-921285D01*
X77867309Y-972679D01*
X77907827Y-1022075D01*
X77945143Y-1068379D01*
X77978408Y-1110498D01*
X78006775Y-1147338D01*
X78029396Y-1177807D01*
X78045424Y-1200810D01*
X78054009Y-1215255D01*
X78055249Y-1218965D01*
X78051694Y-1226261D01*
X78041677Y-1242453D01*
X78026523Y-1265501D01*
X78007560Y-1293367D01*
X77996284Y-1309583D01*
X77975447Y-1339418D01*
X77957226Y-1365664D01*
X77943073Y-1386218D01*
X77934439Y-1398977D01*
X77932618Y-1401822D01*
X77932969Y-1411731D01*
X77938756Y-1428470D01*
X77943672Y-1438741D01*
X77982174Y-1518973D01*
X78018966Y-1609351D01*
X78052843Y-1706607D01*
X78082598Y-1807470D01*
X78089516Y-1833906D01*
X78112616Y-1945140D01*
X78127781Y-2064825D01*
X78134950Y-2190537D01*
X78134060Y-2319852D01*
X78125048Y-2450348D01*
X78108511Y-2575634D01*
X78077269Y-2726134D01*
X78034107Y-2870479D01*
X77979075Y-3008595D01*
X77912222Y-3140406D01*
X77833597Y-3265839D01*
X77743251Y-3384818D01*
X77641233Y-3497269D01*
X77527592Y-3603117D01*
X77402378Y-3702287D01*
X77327273Y-3754843D01*
X77192851Y-3837049D01*
X77052918Y-3907273D01*
X76907103Y-3965657D01*
X76755038Y-4012340D01*
X76596352Y-4047462D01*
X76522188Y-4059605D01*
X76493548Y-4062800D01*
X76454460Y-4065746D01*
X76407901Y-4068350D01*
X76356847Y-4070515D01*
X76304274Y-4072147D01*
X76253158Y-4073151D01*
X76206477Y-4073430D01*
X76167205Y-4072889D01*
X76142521Y-4071761D01*
X76013823Y-4057245D01*
X75881402Y-4032103D01*
X75748193Y-3997252D01*
X75617132Y-3953605D01*
X75491157Y-3902079D01*
X75373202Y-3843590D01*
X75327554Y-3817639D01*
X75221089Y-3750119D01*
X75123618Y-3678483D01*
X75030929Y-3599452D01*
X74961126Y-3532461D01*
X74880992Y-3448312D01*
X74810176Y-3365588D01*
X74746687Y-3281428D01*
X74688533Y-3192972D01*
X74633721Y-3097359D01*
X74580262Y-2991727D01*
X74570743Y-2971670D01*
X74526492Y-2866353D01*
X74487926Y-2751298D01*
X74455882Y-2629284D01*
X74433014Y-2514063D01*
X74428606Y-2478953D01*
X74425091Y-2432908D01*
X74422471Y-2378388D01*
X74420747Y-2317853D01*
X74420451Y-2294923D01*
X74734184Y-2294923D01*
X74744679Y-2424540D01*
X74765724Y-2548468D01*
X74767284Y-2555497D01*
X74790414Y-2642013D01*
X74821531Y-2733662D01*
X74858933Y-2826283D01*
X74900915Y-2915720D01*
X74945773Y-2997814D01*
X74954300Y-3011945D01*
X75008297Y-3092376D01*
X75071992Y-3174276D01*
X75142571Y-3254244D01*
X75212843Y-3324764D01*
X75310189Y-3407907D01*
X75417434Y-3483749D01*
X75532681Y-3551396D01*
X75654030Y-3609953D01*
X75779584Y-3658526D01*
X75907445Y-3696221D01*
X76035714Y-3722143D01*
X76065328Y-3726380D01*
X76093659Y-3730124D01*
X76119293Y-3733540D01*
X76137317Y-3735971D01*
X76139165Y-3736225D01*
X76151622Y-3736954D01*
X76175256Y-3737444D01*
X76207822Y-3737684D01*
X76247073Y-3737662D01*
X76290764Y-3737365D01*
X76310333Y-3737150D01*
X76363609Y-3736303D01*
X76406461Y-3735061D01*
X76441888Y-3733184D01*
X76472890Y-3730432D01*
X76502466Y-3726566D01*
X76533615Y-3721346D01*
X76552530Y-3717807D01*
X76699011Y-3683877D01*
X76836920Y-3639820D01*
X76966820Y-3585344D01*
X77089276Y-3520158D01*
X77204854Y-3443968D01*
X77314119Y-3356483D01*
X77391503Y-3284040D01*
X77486380Y-3180669D01*
X77570580Y-3070209D01*
X77644989Y-2951401D01*
X77699910Y-2845626D01*
X77726346Y-2785211D01*
X77750087Y-2720200D01*
X77771718Y-2648586D01*
X77791823Y-2568361D01*
X77810986Y-2477518D01*
X77818469Y-2438028D01*
X77823823Y-2398786D01*
X77827699Y-2349254D01*
X77830099Y-2292486D01*
X77831024Y-2231536D01*
X77830475Y-2169458D01*
X77828454Y-2109306D01*
X77824962Y-2054132D01*
X77820002Y-2006992D01*
X77818248Y-1995005D01*
X77789293Y-1854685D01*
X77747719Y-1718531D01*
X77693881Y-1587261D01*
X77628137Y-1461597D01*
X77550842Y-1342260D01*
X77462353Y-1229969D01*
X77413191Y-1175818D01*
X77316085Y-1082976D01*
X77209412Y-997918D01*
X77094906Y-921626D01*
X76974299Y-855078D01*
X76849326Y-799257D01*
X76721719Y-755142D01*
X76625819Y-730436D01*
X76541757Y-713743D01*
X76464229Y-702415D01*
X76388023Y-695968D01*
X76307931Y-693920D01*
X76243208Y-694948D01*
X76112405Y-703202D01*
X75989631Y-720264D01*
X75872266Y-746770D01*
X75757689Y-783353D01*
X75643281Y-830647D01*
X75602167Y-850155D01*
X75480791Y-915566D01*
X75368853Y-988664D01*
X75263678Y-1071348D01*
X75173681Y-1154450D01*
X75085789Y-1249934D01*
X75005748Y-1354106D01*
X74934539Y-1465182D01*
X74873143Y-1581375D01*
X74822540Y-1700901D01*
X74783709Y-1821976D01*
X74766049Y-1896680D01*
X74744864Y-2028519D01*
X74734244Y-2162091D01*
X74734184Y-2294923D01*
X74420451Y-2294923D01*
X74419920Y-2253763D01*
X74419989Y-2188578D01*
X74420957Y-2124759D01*
X74422825Y-2064765D01*
X74425592Y-2011056D01*
X74429260Y-1966093D01*
X74432806Y-1938312D01*
X74455739Y-1815368D01*
X74483886Y-1701909D01*
X74518261Y-1594668D01*
X74559875Y-1490380D01*
X74595169Y-1414717D01*
X74667278Y-1281495D01*
X74747164Y-1158594D01*
X74835680Y-1044838D01*
X74933677Y-939049D01*
X74952132Y-921009D01*
X75053309Y-829106D01*
X75155190Y-748214D01*
X75260948Y-676149D01*
X75373760Y-610727D01*
X75481342Y-556938D01*
X75625330Y-496788D01*
X75772988Y-449489D01*
X75924610Y-414965D01*
X76080491Y-393139D01*
X76123128Y-389429D01*
X76231737Y-385378D01*
X76346557Y-388800D01*
X76464234Y-399249D01*
X76581410Y-416279D01*
X76694730Y-439444D01*
X76800839Y-468298D01*
X76856332Y-486945D01*
X76901291Y-503264D01*
X76949820Y-483516D01*
X76973165Y-473972D01*
X77005426Y-460722D01*
X77043116Y-445203D01*
X77082749Y-428849D01*
X77102866Y-420533D01*
X77137775Y-406220D01*
X77168389Y-393907D01*
X77192549Y-384445D01*
X77208094Y-378682D01*
X77212794Y-377299D01*
X77219733Y-381412D01*
X77235536Y-392981D01*
X77258770Y-410850D01*
X77288000Y-433862D01*
X77321792Y-460861D01*
X77358712Y-490691D01*
X77397326Y-522195D01*
X77436199Y-554219D01*
X77473897Y-585605D01*
X77508987Y-615197D01*
X77527220Y-630776D01*
X77558753Y-657767D01*
X77582256Y-677300D01*
X77599866Y-690684D01*
X77613717Y-699231D01*
X77625947Y-704250D01*
X77638691Y-707053D01*
X77654085Y-708949D01*
X77654757Y-709021D01*
X77675525Y-711519D01*
X77706331Y-715561D01*
X77743938Y-720706D01*
X77785107Y-726514D01*
X77813927Y-730682D01*
X77875879Y-738885D01*
X77926772Y-743549D01*
X77968510Y-744628D01*
X78002995Y-742075D01*
X78032132Y-735846D01*
X78057823Y-725895D01*
X78060131Y-724765D01*
X78091211Y-704265D01*
X78111878Y-678414D01*
X78122268Y-646414D01*
X78122522Y-607464D01*
X78112776Y-560763D01*
X78096559Y-513935D01*
X78075131Y-447737D01*
X78065477Y-386026D01*
X78067619Y-326800D01*
X78081577Y-268060D01*
X78099583Y-223607D01*
X78110142Y-200621D01*
X78117745Y-182956D01*
X78121155Y-173531D01*
X78121159Y-172732D01*
X78114848Y-169217D01*
X78099462Y-160830D01*
X78077746Y-149064D01*
X78065645Y-142528D01*
X78035451Y-126061D01*
X77998704Y-105736D01*
X77956679Y-82283D01*
X77910651Y-56429D01*
X77861893Y-28905D01*
X77811682Y-438D01*
X77761292Y28243D01*
X77711999Y56407D01*
X77665076Y83327D01*
X77621799Y108274D01*
X77583444Y130518D01*
X77551283Y149332D01*
X77526594Y163985D01*
X77510650Y173749D01*
X77504727Y177896D01*
X77505153Y177918D01*
X77514339Y175610D01*
X77534652Y170795D01*
X77564130Y163928D01*
X77600805Y155467D01*
X77642713Y145868D01*
X77669609Y139738D01*
X77720950Y128049D01*
X77774970Y115728D01*
X77827936Y103629D01*
X77876115Y92604D01*
X77915774Y83508D01*
X77923130Y81817D01*
X77958068Y73869D01*
X77988449Y67127D01*
X78011836Y62119D01*
X78025789Y59372D01*
X78028451Y59012D01*
X78029687Y65005D01*
X78025678Y82465D01*
X78016682Y110614D01*
X78002957Y148674D01*
X77984761Y195865D01*
X77975087Y220111D01*
X77963332Y249336D01*
X77953208Y274569D01*
X77945905Y292839D01*
X77942810Y300661D01*
X77944639Y302253D01*
X77953512Y295556D01*
X77962262Y287236D01*
X77975181Y274390D01*
X77995436Y254435D01*
X78020734Y229619D01*
X78048786Y202192D01*
X78064224Y187135D01*
X78093592Y158777D01*
X78114802Y139058D01*
X78129093Y127027D01*
X78137702Y121734D01*
X78141867Y122226D01*
X78142838Y126732D01*
X78141924Y137296D01*
X78139395Y158791D01*
X78135576Y188866D01*
X78130789Y225167D01*
X78125355Y265341D01*
X78119599Y307036D01*
X78113843Y347900D01*
X78108410Y385579D01*
X78103621Y417720D01*
X78099801Y441972D01*
X78098730Y448291D01*
X78099041Y453127D01*
X78103119Y451496D01*
X78111579Y442623D01*
X78125038Y425733D01*
X78144112Y400051D01*
X78169417Y364802D01*
X78201571Y319211D01*
X78202842Y317398D01*
X78231159Y277389D01*
X78257259Y241236D01*
X78280089Y210337D01*
X78298599Y186093D01*
X78311736Y169902D01*
X78318450Y163164D01*
X78318819Y163055D01*
X78325680Y168241D01*
X78338066Y182242D01*
X78354027Y202726D01*
X78366586Y220111D01*
X78382238Y242362D01*
X78403940Y273110D01*
X78429962Y309909D01*
X78458575Y350314D01*
X78488049Y391882D01*
X78501915Y411417D01*
X78530826Y452144D01*
X78559371Y492379D01*
X78585908Y529802D01*
X78608793Y562098D01*
X78626384Y586949D01*
X78632787Y596010D01*
X78647720Y616643D01*
X78658816Y630974D01*
X78664610Y637167D01*
X78664956Y636284D01*
G37*
%TD*%
M02*
