M48
; DRILL file {KiCad (5.1.9)-1} date 08/13/21 19:59:23
; FORMAT={-:-/ absolute / metric / decimal}
; #@! TF.CreationDate,2021-08-13T19:59:23+01:00
; #@! TF.GenerationSoftware,Kicad,Pcbnew,(5.1.9)-1
; #@! TF.FileFunction,Plated,1,2,PTH
FMAT,2
METRIC
T1C0.400
T2C1.000
%
G90
G05
T1
X22.46Y-56.924
X22.46Y-60.924
X22.749Y-28.329
X23.765Y-72.525
X24.0Y-37.6
X24.0Y-47.1
X24.456Y-56.924
X24.456Y-60.924
X24.9Y-29.2
X24.9Y-38.6
X24.9Y-48.1
X26.656Y-60.924
X28.654Y-38.172
X28.654Y-47.633
X28.856Y-56.924
X28.856Y-60.924
X30.813Y-32.584
X31.056Y-56.924
X31.056Y-60.924
X33.2Y-37.6
X33.2Y-47.1
X33.256Y-60.924
X34.0Y-29.2
X34.1Y-38.6
X34.1Y-48.1
X35.456Y-56.924
X35.456Y-60.924
X37.656Y-56.924
X37.656Y-60.924
X37.862Y-38.172
X37.862Y-47.633
X40.021Y-32.647
X42.4Y-37.6
X42.4Y-47.1
X43.3Y-29.2
X43.3Y-38.6
X43.356Y-61.424
X45.99Y-72.525
X47.069Y-38.172
T2
X26.11Y-24.23
X26.11Y-26.77
X26.11Y-65.23
X26.11Y-67.77
X28.65Y-24.23
X28.65Y-26.77
X28.65Y-65.23
X28.65Y-67.77
X31.19Y-24.23
X31.19Y-26.77
X31.19Y-65.23
X31.19Y-67.77
X33.73Y-24.23
X33.73Y-26.77
X33.73Y-65.23
X33.73Y-67.77
X36.27Y-24.23
X36.27Y-26.77
X36.27Y-65.23
X36.27Y-67.77
X38.81Y-24.23
X38.81Y-26.77
X38.81Y-65.23
X38.81Y-67.77
X41.35Y-24.23
X41.35Y-26.77
X41.35Y-65.23
X41.35Y-67.77
X43.89Y-24.23
X43.89Y-26.77
X43.89Y-65.23
X43.89Y-67.77
T0
M30
