%TF.GenerationSoftware,KiCad,Pcbnew,(5.1.9)-1*%
%TF.CreationDate,2021-08-11T21:42:47+01:00*%
%TF.ProjectId,Keymatrix,4b65796d-6174-4726-9978-2e6b69636164,rev?*%
%TF.SameCoordinates,Original*%
%TF.FileFunction,Copper,L1,Top*%
%TF.FilePolarity,Positive*%
%FSLAX46Y46*%
G04 Gerber Fmt 4.6, Leading zero omitted, Abs format (unit mm)*
G04 Created by KiCad (PCBNEW (5.1.9)-1) date 2021-08-11 21:42:47*
%MOMM*%
%LPD*%
G01*
G04 APERTURE LIST*
%TA.AperFunction,ComponentPad*%
%ADD10O,1.700000X1.700000*%
%TD*%
%TA.AperFunction,ComponentPad*%
%ADD11R,1.700000X1.700000*%
%TD*%
%TA.AperFunction,SMDPad,CuDef*%
%ADD12R,1.100000X1.100000*%
%TD*%
%TA.AperFunction,ViaPad*%
%ADD13C,0.800000*%
%TD*%
%TA.AperFunction,Conductor*%
%ADD14C,0.400000*%
%TD*%
%TA.AperFunction,Conductor*%
%ADD15C,0.254000*%
%TD*%
%TA.AperFunction,Conductor*%
%ADD16C,0.100000*%
%TD*%
G04 APERTURE END LIST*
D10*
%TO.P,J1,16*%
%TO.N,COL0*%
X22890000Y-45720000D03*
%TO.P,J1,15*%
%TO.N,Net-(D1-Pad2)*%
X25430000Y-45720000D03*
%TO.P,J1,14*%
%TO.N,COL0*%
X22890000Y-48260000D03*
%TO.P,J1,13*%
%TO.N,Net-(D3-Pad2)*%
X25430000Y-48260000D03*
%TO.P,J1,12*%
%TO.N,COL0*%
X22890000Y-50800000D03*
%TO.P,J1,11*%
%TO.N,Net-(D5-Pad2)*%
X25430000Y-50800000D03*
%TO.P,J1,10*%
%TO.N,COL0*%
X22890000Y-53340000D03*
%TO.P,J1,9*%
%TO.N,Net-(D7-Pad2)*%
X25430000Y-53340000D03*
%TO.P,J1,8*%
%TO.N,COL1*%
X22890000Y-55880000D03*
%TO.P,J1,7*%
%TO.N,Net-(D9-Pad2)*%
X25430000Y-55880000D03*
%TO.P,J1,6*%
%TO.N,COL1*%
X22890000Y-58420000D03*
%TO.P,J1,5*%
%TO.N,Net-(D11-Pad2)*%
X25430000Y-58420000D03*
%TO.P,J1,4*%
%TO.N,COL1*%
X22890000Y-60960000D03*
%TO.P,J1,3*%
%TO.N,Net-(D13-Pad2)*%
X25430000Y-60960000D03*
%TO.P,J1,2*%
%TO.N,COL1*%
X22890000Y-63500000D03*
D11*
%TO.P,J1,1*%
%TO.N,Net-(D15-Pad2)*%
X25430000Y-63500000D03*
%TD*%
D12*
%TO.P,D16,2*%
%TO.N,Net-(D16-Pad2)*%
X40540000Y-63500000D03*
%TO.P,D16,1*%
%TO.N,ROW3*%
X43340000Y-63500000D03*
%TD*%
%TO.P,D15,2*%
%TO.N,Net-(D15-Pad2)*%
X28475000Y-63500000D03*
%TO.P,D15,1*%
%TO.N,ROW3*%
X31275000Y-63500000D03*
%TD*%
%TO.P,D14,2*%
%TO.N,Net-(D14-Pad2)*%
X40540000Y-60960000D03*
%TO.P,D14,1*%
%TO.N,ROW2*%
X43340000Y-60960000D03*
%TD*%
%TO.P,D13,2*%
%TO.N,Net-(D13-Pad2)*%
X28475000Y-60960000D03*
%TO.P,D13,1*%
%TO.N,ROW2*%
X31275000Y-60960000D03*
%TD*%
%TO.P,D12,2*%
%TO.N,Net-(D12-Pad2)*%
X40540000Y-58420000D03*
%TO.P,D12,1*%
%TO.N,ROW1*%
X43340000Y-58420000D03*
%TD*%
%TO.P,D11,2*%
%TO.N,Net-(D11-Pad2)*%
X28475000Y-58420000D03*
%TO.P,D11,1*%
%TO.N,ROW1*%
X31275000Y-58420000D03*
%TD*%
%TO.P,D10,2*%
%TO.N,Net-(D10-Pad2)*%
X40540000Y-55880000D03*
%TO.P,D10,1*%
%TO.N,ROW0*%
X43340000Y-55880000D03*
%TD*%
%TO.P,D9,2*%
%TO.N,Net-(D9-Pad2)*%
X28475000Y-55880000D03*
%TO.P,D9,1*%
%TO.N,ROW0*%
X31275000Y-55880000D03*
%TD*%
%TO.P,D8,2*%
%TO.N,Net-(D8-Pad2)*%
X40540000Y-53340000D03*
%TO.P,D8,1*%
%TO.N,ROW3*%
X43340000Y-53340000D03*
%TD*%
%TO.P,D7,2*%
%TO.N,Net-(D7-Pad2)*%
X28475000Y-53340000D03*
%TO.P,D7,1*%
%TO.N,ROW3*%
X31275000Y-53340000D03*
%TD*%
%TO.P,D6,2*%
%TO.N,Net-(D6-Pad2)*%
X40540000Y-50800000D03*
%TO.P,D6,1*%
%TO.N,ROW2*%
X43340000Y-50800000D03*
%TD*%
%TO.P,D5,2*%
%TO.N,Net-(D5-Pad2)*%
X28475000Y-50800000D03*
%TO.P,D5,1*%
%TO.N,ROW2*%
X31275000Y-50800000D03*
%TD*%
%TO.P,D4,2*%
%TO.N,Net-(D4-Pad2)*%
X40540000Y-48260000D03*
%TO.P,D4,1*%
%TO.N,ROW1*%
X43340000Y-48260000D03*
%TD*%
%TO.P,D3,2*%
%TO.N,Net-(D3-Pad2)*%
X28475000Y-48260000D03*
%TO.P,D3,1*%
%TO.N,ROW1*%
X31275000Y-48260000D03*
%TD*%
%TO.P,D2,2*%
%TO.N,Net-(D2-Pad2)*%
X40540000Y-45720000D03*
%TO.P,D2,1*%
%TO.N,ROW0*%
X43340000Y-45720000D03*
%TD*%
%TO.P,D1,2*%
%TO.N,Net-(D1-Pad2)*%
X28475000Y-45720000D03*
%TO.P,D1,1*%
%TO.N,ROW0*%
X31275000Y-45720000D03*
%TD*%
D10*
%TO.P,J2,16*%
%TO.N,COL2*%
X34955000Y-45720000D03*
%TO.P,J2,15*%
%TO.N,Net-(D2-Pad2)*%
X37495000Y-45720000D03*
%TO.P,J2,14*%
%TO.N,COL2*%
X34955000Y-48260000D03*
%TO.P,J2,13*%
%TO.N,Net-(D4-Pad2)*%
X37495000Y-48260000D03*
%TO.P,J2,12*%
%TO.N,COL2*%
X34955000Y-50800000D03*
%TO.P,J2,11*%
%TO.N,Net-(D6-Pad2)*%
X37495000Y-50800000D03*
%TO.P,J2,10*%
%TO.N,COL2*%
X34955000Y-53340000D03*
%TO.P,J2,9*%
%TO.N,Net-(D8-Pad2)*%
X37495000Y-53340000D03*
%TO.P,J2,8*%
%TO.N,COL3*%
X34955000Y-55880000D03*
%TO.P,J2,7*%
%TO.N,Net-(D10-Pad2)*%
X37495000Y-55880000D03*
%TO.P,J2,6*%
%TO.N,COL3*%
X34955000Y-58420000D03*
%TO.P,J2,5*%
%TO.N,Net-(D12-Pad2)*%
X37495000Y-58420000D03*
%TO.P,J2,4*%
%TO.N,COL3*%
X34955000Y-60960000D03*
%TO.P,J2,3*%
%TO.N,Net-(D14-Pad2)*%
X37495000Y-60960000D03*
%TO.P,J2,2*%
%TO.N,COL3*%
X34955000Y-63500000D03*
D11*
%TO.P,J2,1*%
%TO.N,Net-(D16-Pad2)*%
X37495000Y-63500000D03*
%TD*%
%TO.P,U1,1*%
%TO.N,GND*%
%TA.AperFunction,SMDPad,CuDef*%
G36*
G01*
X25705000Y-37825000D02*
X25405000Y-37825000D01*
G75*
G02*
X25255000Y-37675000I0J150000D01*
G01*
X25255000Y-36025000D01*
G75*
G02*
X25405000Y-35875000I150000J0D01*
G01*
X25705000Y-35875000D01*
G75*
G02*
X25855000Y-36025000I0J-150000D01*
G01*
X25855000Y-37675000D01*
G75*
G02*
X25705000Y-37825000I-150000J0D01*
G01*
G37*
%TD.AperFunction*%
%TO.P,U1,2*%
%TA.AperFunction,SMDPad,CuDef*%
G36*
G01*
X26975000Y-37825000D02*
X26675000Y-37825000D01*
G75*
G02*
X26525000Y-37675000I0J150000D01*
G01*
X26525000Y-36025000D01*
G75*
G02*
X26675000Y-35875000I150000J0D01*
G01*
X26975000Y-35875000D01*
G75*
G02*
X27125000Y-36025000I0J-150000D01*
G01*
X27125000Y-37675000D01*
G75*
G02*
X26975000Y-37825000I-150000J0D01*
G01*
G37*
%TD.AperFunction*%
%TO.P,U1,3*%
%TA.AperFunction,SMDPad,CuDef*%
G36*
G01*
X28245000Y-37825000D02*
X27945000Y-37825000D01*
G75*
G02*
X27795000Y-37675000I0J150000D01*
G01*
X27795000Y-36025000D01*
G75*
G02*
X27945000Y-35875000I150000J0D01*
G01*
X28245000Y-35875000D01*
G75*
G02*
X28395000Y-36025000I0J-150000D01*
G01*
X28395000Y-37675000D01*
G75*
G02*
X28245000Y-37825000I-150000J0D01*
G01*
G37*
%TD.AperFunction*%
%TO.P,U1,4*%
%TO.N,ROW0*%
%TA.AperFunction,SMDPad,CuDef*%
G36*
G01*
X29515000Y-37825000D02*
X29215000Y-37825000D01*
G75*
G02*
X29065000Y-37675000I0J150000D01*
G01*
X29065000Y-36025000D01*
G75*
G02*
X29215000Y-35875000I150000J0D01*
G01*
X29515000Y-35875000D01*
G75*
G02*
X29665000Y-36025000I0J-150000D01*
G01*
X29665000Y-37675000D01*
G75*
G02*
X29515000Y-37825000I-150000J0D01*
G01*
G37*
%TD.AperFunction*%
%TO.P,U1,5*%
%TO.N,ROW1*%
%TA.AperFunction,SMDPad,CuDef*%
G36*
G01*
X30785000Y-37825000D02*
X30485000Y-37825000D01*
G75*
G02*
X30335000Y-37675000I0J150000D01*
G01*
X30335000Y-36025000D01*
G75*
G02*
X30485000Y-35875000I150000J0D01*
G01*
X30785000Y-35875000D01*
G75*
G02*
X30935000Y-36025000I0J-150000D01*
G01*
X30935000Y-37675000D01*
G75*
G02*
X30785000Y-37825000I-150000J0D01*
G01*
G37*
%TD.AperFunction*%
%TO.P,U1,6*%
%TO.N,ROW2*%
%TA.AperFunction,SMDPad,CuDef*%
G36*
G01*
X32055000Y-37825000D02*
X31755000Y-37825000D01*
G75*
G02*
X31605000Y-37675000I0J150000D01*
G01*
X31605000Y-36025000D01*
G75*
G02*
X31755000Y-35875000I150000J0D01*
G01*
X32055000Y-35875000D01*
G75*
G02*
X32205000Y-36025000I0J-150000D01*
G01*
X32205000Y-37675000D01*
G75*
G02*
X32055000Y-37825000I-150000J0D01*
G01*
G37*
%TD.AperFunction*%
%TO.P,U1,7*%
%TO.N,ROW3*%
%TA.AperFunction,SMDPad,CuDef*%
G36*
G01*
X33325000Y-37825000D02*
X33025000Y-37825000D01*
G75*
G02*
X32875000Y-37675000I0J150000D01*
G01*
X32875000Y-36025000D01*
G75*
G02*
X33025000Y-35875000I150000J0D01*
G01*
X33325000Y-35875000D01*
G75*
G02*
X33475000Y-36025000I0J-150000D01*
G01*
X33475000Y-37675000D01*
G75*
G02*
X33325000Y-37825000I-150000J0D01*
G01*
G37*
%TD.AperFunction*%
%TO.P,U1,8*%
%TO.N,GND*%
%TA.AperFunction,SMDPad,CuDef*%
G36*
G01*
X34595000Y-37825000D02*
X34295000Y-37825000D01*
G75*
G02*
X34145000Y-37675000I0J150000D01*
G01*
X34145000Y-36025000D01*
G75*
G02*
X34295000Y-35875000I150000J0D01*
G01*
X34595000Y-35875000D01*
G75*
G02*
X34745000Y-36025000I0J-150000D01*
G01*
X34745000Y-37675000D01*
G75*
G02*
X34595000Y-37825000I-150000J0D01*
G01*
G37*
%TD.AperFunction*%
%TO.P,U1,9*%
%TA.AperFunction,SMDPad,CuDef*%
G36*
G01*
X34595000Y-32875000D02*
X34295000Y-32875000D01*
G75*
G02*
X34145000Y-32725000I0J150000D01*
G01*
X34145000Y-31075000D01*
G75*
G02*
X34295000Y-30925000I150000J0D01*
G01*
X34595000Y-30925000D01*
G75*
G02*
X34745000Y-31075000I0J-150000D01*
G01*
X34745000Y-32725000D01*
G75*
G02*
X34595000Y-32875000I-150000J0D01*
G01*
G37*
%TD.AperFunction*%
%TO.P,U1,10*%
%TA.AperFunction,SMDPad,CuDef*%
G36*
G01*
X33325000Y-32875000D02*
X33025000Y-32875000D01*
G75*
G02*
X32875000Y-32725000I0J150000D01*
G01*
X32875000Y-31075000D01*
G75*
G02*
X33025000Y-30925000I150000J0D01*
G01*
X33325000Y-30925000D01*
G75*
G02*
X33475000Y-31075000I0J-150000D01*
G01*
X33475000Y-32725000D01*
G75*
G02*
X33325000Y-32875000I-150000J0D01*
G01*
G37*
%TD.AperFunction*%
%TO.P,U1,11*%
%TA.AperFunction,SMDPad,CuDef*%
G36*
G01*
X32055000Y-32875000D02*
X31755000Y-32875000D01*
G75*
G02*
X31605000Y-32725000I0J150000D01*
G01*
X31605000Y-31075000D01*
G75*
G02*
X31755000Y-30925000I150000J0D01*
G01*
X32055000Y-30925000D01*
G75*
G02*
X32205000Y-31075000I0J-150000D01*
G01*
X32205000Y-32725000D01*
G75*
G02*
X32055000Y-32875000I-150000J0D01*
G01*
G37*
%TD.AperFunction*%
%TO.P,U1,12*%
%TO.N,COL3*%
%TA.AperFunction,SMDPad,CuDef*%
G36*
G01*
X30785000Y-32875000D02*
X30485000Y-32875000D01*
G75*
G02*
X30335000Y-32725000I0J150000D01*
G01*
X30335000Y-31075000D01*
G75*
G02*
X30485000Y-30925000I150000J0D01*
G01*
X30785000Y-30925000D01*
G75*
G02*
X30935000Y-31075000I0J-150000D01*
G01*
X30935000Y-32725000D01*
G75*
G02*
X30785000Y-32875000I-150000J0D01*
G01*
G37*
%TD.AperFunction*%
%TO.P,U1,13*%
%TO.N,COL2*%
%TA.AperFunction,SMDPad,CuDef*%
G36*
G01*
X29515000Y-32875000D02*
X29215000Y-32875000D01*
G75*
G02*
X29065000Y-32725000I0J150000D01*
G01*
X29065000Y-31075000D01*
G75*
G02*
X29215000Y-30925000I150000J0D01*
G01*
X29515000Y-30925000D01*
G75*
G02*
X29665000Y-31075000I0J-150000D01*
G01*
X29665000Y-32725000D01*
G75*
G02*
X29515000Y-32875000I-150000J0D01*
G01*
G37*
%TD.AperFunction*%
%TO.P,U1,14*%
%TO.N,COL1*%
%TA.AperFunction,SMDPad,CuDef*%
G36*
G01*
X28245000Y-32875000D02*
X27945000Y-32875000D01*
G75*
G02*
X27795000Y-32725000I0J150000D01*
G01*
X27795000Y-31075000D01*
G75*
G02*
X27945000Y-30925000I150000J0D01*
G01*
X28245000Y-30925000D01*
G75*
G02*
X28395000Y-31075000I0J-150000D01*
G01*
X28395000Y-32725000D01*
G75*
G02*
X28245000Y-32875000I-150000J0D01*
G01*
G37*
%TD.AperFunction*%
%TO.P,U1,15*%
%TO.N,COL0*%
%TA.AperFunction,SMDPad,CuDef*%
G36*
G01*
X26975000Y-32875000D02*
X26675000Y-32875000D01*
G75*
G02*
X26525000Y-32725000I0J150000D01*
G01*
X26525000Y-31075000D01*
G75*
G02*
X26675000Y-30925000I150000J0D01*
G01*
X26975000Y-30925000D01*
G75*
G02*
X27125000Y-31075000I0J-150000D01*
G01*
X27125000Y-32725000D01*
G75*
G02*
X26975000Y-32875000I-150000J0D01*
G01*
G37*
%TD.AperFunction*%
%TO.P,U1,16*%
%TO.N,+5V*%
%TA.AperFunction,SMDPad,CuDef*%
G36*
G01*
X25705000Y-32875000D02*
X25405000Y-32875000D01*
G75*
G02*
X25255000Y-32725000I0J150000D01*
G01*
X25255000Y-31075000D01*
G75*
G02*
X25405000Y-30925000I150000J0D01*
G01*
X25705000Y-30925000D01*
G75*
G02*
X25855000Y-31075000I0J-150000D01*
G01*
X25855000Y-32725000D01*
G75*
G02*
X25705000Y-32875000I-150000J0D01*
G01*
G37*
%TD.AperFunction*%
%TD*%
D10*
%TO.P,J3,16*%
%TO.N,COL0*%
X25610000Y-23730000D03*
%TO.P,J3,15*%
%TO.N,+5V*%
X25610000Y-26270000D03*
%TO.P,J3,14*%
%TO.N,COL1*%
X28150000Y-23730000D03*
%TO.P,J3,13*%
%TO.N,+5V*%
X28150000Y-26270000D03*
%TO.P,J3,12*%
%TO.N,COL2*%
X30690000Y-23730000D03*
%TO.P,J3,11*%
%TO.N,+5V*%
X30690000Y-26270000D03*
%TO.P,J3,10*%
%TO.N,COL3*%
X33230000Y-23730000D03*
%TO.P,J3,9*%
%TO.N,+5V*%
X33230000Y-26270000D03*
%TO.P,J3,8*%
%TO.N,ROW0*%
X35770000Y-23730000D03*
%TO.P,J3,7*%
%TO.N,GND*%
X35770000Y-26270000D03*
%TO.P,J3,6*%
%TO.N,ROW1*%
X38310000Y-23730000D03*
%TO.P,J3,5*%
%TO.N,GND*%
X38310000Y-26270000D03*
%TO.P,J3,4*%
%TO.N,ROW2*%
X40850000Y-23730000D03*
%TO.P,J3,3*%
%TO.N,GND*%
X40850000Y-26270000D03*
%TO.P,J3,2*%
%TO.N,ROW3*%
X43390000Y-23730000D03*
D11*
%TO.P,J3,1*%
%TO.N,GND*%
X43390000Y-26270000D03*
%TD*%
D13*
%TO.N,GND*%
X23265000Y-72025000D03*
X45490000Y-72025000D03*
X25937500Y-40625000D03*
X27500000Y-40625000D03*
X25937500Y-41875000D03*
X27500000Y-41875000D03*
X25937500Y-39375000D03*
X27500000Y-39375000D03*
%TO.N,ROW0*%
X32415000Y-45720000D03*
X32415000Y-55880000D03*
X44480000Y-55880000D03*
X44480000Y-45720000D03*
%TO.N,ROW1*%
X32415000Y-48260000D03*
X32415000Y-58420000D03*
X44480000Y-48260000D03*
X44480000Y-58420000D03*
X46080001Y-48125000D03*
%TO.N,ROW2*%
X32415000Y-50800000D03*
X32415000Y-60960000D03*
X44480000Y-50800000D03*
X44480000Y-60960000D03*
X46880001Y-50625000D03*
%TO.N,ROW3*%
X32415000Y-53340000D03*
X32415000Y-63500000D03*
X44480000Y-53340000D03*
X44480000Y-63500000D03*
X47812500Y-53125000D03*
%TD*%
D14*
%TO.N,+5V*%
X25555000Y-26325000D02*
X25610000Y-26270000D01*
X25555000Y-31900000D02*
X25555000Y-26325000D01*
%TO.N,COL0*%
X22890000Y-53340000D02*
X22890000Y-50800000D01*
X22890000Y-50800000D02*
X22890000Y-48260000D01*
X22890000Y-48260000D02*
X22890000Y-45720000D01*
X26860001Y-31864999D02*
X26825000Y-31900000D01*
X26860001Y-24980001D02*
X26860001Y-31864999D01*
X25610000Y-23730000D02*
X26860001Y-24980001D01*
X26825000Y-32862500D02*
X26825000Y-31900000D01*
X22890000Y-33985000D02*
X23437500Y-33437500D01*
X26250000Y-33437500D02*
X26825000Y-32862500D01*
X23437500Y-33437500D02*
X26250000Y-33437500D01*
X22890000Y-45720000D02*
X22890000Y-33985000D01*
%TO.N,COL1*%
X22890000Y-63500000D02*
X22890000Y-60960000D01*
X22890000Y-60960000D02*
X22890000Y-58420000D01*
X22890000Y-58420000D02*
X22890000Y-55880000D01*
X28095000Y-31900000D02*
X28095000Y-28780000D01*
X29400001Y-27474999D02*
X29400001Y-24980001D01*
X29400001Y-24980001D02*
X28150000Y-23730000D01*
X28095000Y-28780000D02*
X29400001Y-27474999D01*
X24140001Y-54629999D02*
X22890000Y-55880000D01*
X23490010Y-43960008D02*
X24140001Y-44609999D01*
X23490010Y-34634990D02*
X23490010Y-43960008D01*
X24062500Y-34062500D02*
X23490010Y-34634990D01*
X26875000Y-34062500D02*
X24062500Y-34062500D01*
X24140001Y-44609999D02*
X24140001Y-54629999D01*
X28095000Y-32842500D02*
X26875000Y-34062500D01*
X28095000Y-31900000D02*
X28095000Y-32842500D01*
%TO.N,COL2*%
X34955000Y-53340000D02*
X34955000Y-50800000D01*
X34955000Y-50800000D02*
X34955000Y-48260000D01*
X34955000Y-48260000D02*
X34955000Y-45720000D01*
X31940001Y-24980001D02*
X31940001Y-26809999D01*
X30690000Y-23730000D02*
X31940001Y-24980001D01*
X29365000Y-29385000D02*
X29365000Y-31900000D01*
X31940001Y-26809999D02*
X29365000Y-29385000D01*
X27552500Y-34687500D02*
X29365000Y-32875000D01*
X24090020Y-34972480D02*
X24375000Y-34687500D01*
X24090020Y-43465020D02*
X24090020Y-34972480D01*
X24375000Y-43750000D02*
X24090020Y-43465020D01*
X34375000Y-43750000D02*
X24375000Y-43750000D01*
X34955000Y-44330000D02*
X34375000Y-43750000D01*
X29365000Y-32875000D02*
X29365000Y-31900000D01*
X24375000Y-34687500D02*
X27552500Y-34687500D01*
X34955000Y-45720000D02*
X34955000Y-44330000D01*
%TO.N,COL3*%
X34955000Y-63500000D02*
X34955000Y-60960000D01*
X34955000Y-60960000D02*
X34955000Y-58420000D01*
X34955000Y-55880000D02*
X34955000Y-58420000D01*
X34480001Y-26870001D02*
X30725002Y-30625000D01*
X34480001Y-24980001D02*
X34480001Y-26870001D01*
X33230000Y-23730000D02*
X34480001Y-24980001D01*
X30725002Y-31809998D02*
X30635000Y-31900000D01*
X30725002Y-30625000D02*
X30725002Y-31809998D01*
X30635000Y-32875000D02*
X30635000Y-31900000D01*
X24690030Y-35622470D02*
X25000000Y-35312500D01*
X24690030Y-42815030D02*
X24690030Y-35622470D01*
X25000000Y-35312500D02*
X28197500Y-35312500D01*
X25000000Y-43125000D02*
X24690030Y-42815030D01*
X35312500Y-43125000D02*
X25000000Y-43125000D01*
X28197500Y-35312500D02*
X30635000Y-32875000D01*
X36244999Y-44057499D02*
X35312500Y-43125000D01*
X36244999Y-54590001D02*
X36244999Y-44057499D01*
X34955000Y-55880000D02*
X36244999Y-54590001D01*
%TO.N,Net-(D1-Pad2)*%
X25430000Y-45720000D02*
X28475000Y-45720000D01*
%TO.N,Net-(D2-Pad2)*%
X37495000Y-45720000D02*
X40540000Y-45720000D01*
%TO.N,Net-(D3-Pad2)*%
X25430000Y-48260000D02*
X28475000Y-48260000D01*
%TO.N,Net-(D4-Pad2)*%
X37495000Y-48260000D02*
X40540000Y-48260000D01*
%TO.N,Net-(D5-Pad2)*%
X28475000Y-50800000D02*
X25430000Y-50800000D01*
%TO.N,Net-(D6-Pad2)*%
X37495000Y-50800000D02*
X40540000Y-50800000D01*
%TO.N,Net-(D7-Pad2)*%
X25430000Y-53340000D02*
X28475000Y-53340000D01*
%TO.N,Net-(D8-Pad2)*%
X37495000Y-53340000D02*
X40540000Y-53340000D01*
%TO.N,Net-(D9-Pad2)*%
X28475000Y-55880000D02*
X25430000Y-55880000D01*
%TO.N,Net-(D10-Pad2)*%
X37495000Y-55880000D02*
X40540000Y-55880000D01*
%TO.N,Net-(D11-Pad2)*%
X25430000Y-58420000D02*
X28475000Y-58420000D01*
%TO.N,Net-(D12-Pad2)*%
X37495000Y-58420000D02*
X40540000Y-58420000D01*
%TO.N,Net-(D13-Pad2)*%
X28475000Y-60960000D02*
X25430000Y-60960000D01*
%TO.N,Net-(D14-Pad2)*%
X37495000Y-60960000D02*
X40540000Y-60960000D01*
%TO.N,Net-(D15-Pad2)*%
X25430000Y-63500000D02*
X28475000Y-63500000D01*
%TO.N,Net-(D16-Pad2)*%
X37495000Y-63500000D02*
X40540000Y-63500000D01*
%TO.N,ROW0*%
X31275000Y-45720000D02*
X32415000Y-45720000D01*
X31275000Y-55880000D02*
X32415000Y-55880000D01*
X43340000Y-55880000D02*
X44480000Y-55880000D01*
X45280001Y-46520001D02*
X44480000Y-45720000D01*
X44480000Y-55880000D02*
X45280001Y-55079999D01*
X29365000Y-36850000D02*
X29365000Y-35322500D01*
X29365000Y-35322500D02*
X31250000Y-33437500D01*
X31250000Y-33437500D02*
X35000000Y-33437500D01*
X29365000Y-36850000D02*
X29365000Y-42177500D01*
X29365000Y-42177500D02*
X29687500Y-42500000D01*
X37020001Y-24980001D02*
X35770000Y-23730000D01*
X37020001Y-31417499D02*
X37020001Y-24980001D01*
X35000000Y-33437500D02*
X37020001Y-31417499D01*
X41260000Y-42500000D02*
X34375000Y-42500000D01*
X44480000Y-45720000D02*
X41260000Y-42500000D01*
X34375000Y-42500000D02*
X35625000Y-42500000D01*
X29687500Y-42500000D02*
X34375000Y-42500000D01*
X43340000Y-45720000D02*
X44480000Y-45720000D01*
X45280001Y-55079999D02*
X45280001Y-46520001D01*
%TO.N,ROW1*%
X31275000Y-48260000D02*
X32415000Y-48260000D01*
X31275000Y-58420000D02*
X32415000Y-58420000D01*
X43340000Y-48260000D02*
X44480000Y-48260000D01*
X43340000Y-58420000D02*
X44480000Y-58420000D01*
X46080001Y-56819999D02*
X46080001Y-48125000D01*
X44480000Y-58420000D02*
X46080001Y-56819999D01*
X30635000Y-36850000D02*
X30635000Y-41572500D01*
X30635000Y-41572500D02*
X30937500Y-41875000D01*
X39560001Y-24980001D02*
X38310000Y-23730000D01*
X39560001Y-29726041D02*
X39560001Y-24980001D01*
X35223542Y-34062500D02*
X39560001Y-29726041D01*
X31875000Y-34062500D02*
X35223542Y-34062500D01*
X30635000Y-35302500D02*
X31875000Y-34062500D01*
X30635000Y-36850000D02*
X30635000Y-35302500D01*
X41819002Y-41875000D02*
X35000000Y-41875000D01*
X46080001Y-46135999D02*
X41819002Y-41875000D01*
X46080001Y-48125000D02*
X46080001Y-46135999D01*
X35000000Y-41875000D02*
X35625000Y-41875000D01*
X30937500Y-41875000D02*
X35000000Y-41875000D01*
%TO.N,ROW2*%
X31275000Y-50800000D02*
X32415000Y-50800000D01*
X31275000Y-60960000D02*
X32415000Y-60960000D01*
X43340000Y-50800000D02*
X44480000Y-50800000D01*
X43340000Y-60960000D02*
X44480000Y-60960000D01*
X46880001Y-58559999D02*
X46880001Y-50625000D01*
X44480000Y-60960000D02*
X46880001Y-58559999D01*
X31905000Y-36850000D02*
X31905000Y-40967500D01*
X31905000Y-40967500D02*
X32187500Y-41250000D01*
X42100001Y-24980001D02*
X40850000Y-23730000D01*
X42100001Y-28034583D02*
X42100001Y-24980001D01*
X32500000Y-34687500D02*
X35447084Y-34687500D01*
X35447084Y-34687500D02*
X42100001Y-28034583D01*
X31905000Y-35282500D02*
X32500000Y-34687500D01*
X31905000Y-36850000D02*
X31905000Y-35282500D01*
X42042544Y-41250000D02*
X35312500Y-41250000D01*
X46880001Y-46087457D02*
X42042544Y-41250000D01*
X46880001Y-50625000D02*
X46880001Y-46087457D01*
X35312500Y-41250000D02*
X35625000Y-41250000D01*
X32187500Y-41250000D02*
X35312500Y-41250000D01*
%TO.N,ROW3*%
X31275000Y-53340000D02*
X32415000Y-53340000D01*
X31275000Y-63500000D02*
X32415000Y-63500000D01*
X43340000Y-53340000D02*
X44480000Y-53340000D01*
X43340000Y-63500000D02*
X44480000Y-63500000D01*
X47812500Y-60167500D02*
X47812500Y-53125000D01*
X44480000Y-63500000D02*
X47812500Y-60167500D01*
X33175000Y-35875000D02*
X33737500Y-35312500D01*
X33175000Y-36850000D02*
X33175000Y-35875000D01*
X33175000Y-36850000D02*
X33175000Y-40362500D01*
X33175000Y-40362500D02*
X33437500Y-40625000D01*
X35670626Y-35312500D02*
X42858126Y-28125000D01*
X34687500Y-35312500D02*
X35670626Y-35312500D01*
X33737500Y-35312500D02*
X34687500Y-35312500D01*
X34687500Y-35312500D02*
X35000000Y-35312500D01*
X44640001Y-24980001D02*
X43390000Y-23730000D01*
X44640001Y-27440001D02*
X44640001Y-24980001D01*
X43955002Y-28125000D02*
X44640001Y-27440001D01*
X42858126Y-28125000D02*
X43955002Y-28125000D01*
X42266086Y-40625000D02*
X35312500Y-40625000D01*
X47812500Y-46171414D02*
X42266086Y-40625000D01*
X47812500Y-53125000D02*
X47812500Y-46171414D01*
X35312500Y-40625000D02*
X35625000Y-40625000D01*
X33437500Y-40625000D02*
X35312500Y-40625000D01*
%TD*%
D15*
%TO.N,GND*%
X48065424Y-20669580D02*
X48128356Y-20688580D01*
X48186405Y-20719445D01*
X48237343Y-20760989D01*
X48279248Y-20811644D01*
X48310515Y-20869471D01*
X48329956Y-20932272D01*
X48340000Y-21027835D01*
X48340000Y-45518046D01*
X42885532Y-40063579D01*
X42859377Y-40031709D01*
X42732232Y-39927364D01*
X42587173Y-39849828D01*
X42429775Y-39802082D01*
X42307105Y-39790000D01*
X42307104Y-39790000D01*
X42266086Y-39785960D01*
X42225068Y-39790000D01*
X34010000Y-39790000D01*
X34010000Y-38447621D01*
X34020518Y-38450812D01*
X34145000Y-38463072D01*
X34159250Y-38460000D01*
X34318000Y-38301250D01*
X34318000Y-36977000D01*
X34572000Y-36977000D01*
X34572000Y-38301250D01*
X34730750Y-38460000D01*
X34745000Y-38463072D01*
X34869482Y-38450812D01*
X34989180Y-38414502D01*
X35099494Y-38355537D01*
X35196185Y-38276185D01*
X35275537Y-38179494D01*
X35334502Y-38069180D01*
X35370812Y-37949482D01*
X35383072Y-37825000D01*
X35380000Y-37135750D01*
X35221250Y-36977000D01*
X34572000Y-36977000D01*
X34318000Y-36977000D01*
X34298000Y-36977000D01*
X34298000Y-36723000D01*
X34318000Y-36723000D01*
X34318000Y-36703000D01*
X34572000Y-36703000D01*
X34572000Y-36723000D01*
X35221250Y-36723000D01*
X35380000Y-36564250D01*
X35381857Y-36147500D01*
X35629608Y-36147500D01*
X35670626Y-36151540D01*
X35711644Y-36147500D01*
X35711645Y-36147500D01*
X35834315Y-36135418D01*
X35991713Y-36087672D01*
X36136772Y-36010136D01*
X36263917Y-35905791D01*
X36290072Y-35873921D01*
X43203994Y-28960000D01*
X43913984Y-28960000D01*
X43955002Y-28964040D01*
X43996020Y-28960000D01*
X43996021Y-28960000D01*
X44118691Y-28947918D01*
X44276089Y-28900172D01*
X44421148Y-28822636D01*
X44548293Y-28718291D01*
X44574447Y-28686422D01*
X45201434Y-28059437D01*
X45233292Y-28033292D01*
X45292365Y-27961312D01*
X45337637Y-27906147D01*
X45415173Y-27761088D01*
X45462919Y-27603690D01*
X45479041Y-27440001D01*
X45475001Y-27398983D01*
X45475001Y-25021008D01*
X45479040Y-24980000D01*
X45475001Y-24938992D01*
X45475001Y-24938982D01*
X45462919Y-24816312D01*
X45415173Y-24658914D01*
X45337637Y-24513855D01*
X45233292Y-24386710D01*
X45201427Y-24360559D01*
X44848807Y-24007939D01*
X44875000Y-23876260D01*
X44875000Y-23583740D01*
X44817932Y-23296842D01*
X44705990Y-23026589D01*
X44543475Y-22783368D01*
X44336632Y-22576525D01*
X44093411Y-22414010D01*
X43823158Y-22302068D01*
X43536260Y-22245000D01*
X43243740Y-22245000D01*
X42956842Y-22302068D01*
X42686589Y-22414010D01*
X42443368Y-22576525D01*
X42236525Y-22783368D01*
X42120000Y-22957760D01*
X42003475Y-22783368D01*
X41796632Y-22576525D01*
X41553411Y-22414010D01*
X41283158Y-22302068D01*
X40996260Y-22245000D01*
X40703740Y-22245000D01*
X40416842Y-22302068D01*
X40146589Y-22414010D01*
X39903368Y-22576525D01*
X39696525Y-22783368D01*
X39580000Y-22957760D01*
X39463475Y-22783368D01*
X39256632Y-22576525D01*
X39013411Y-22414010D01*
X38743158Y-22302068D01*
X38456260Y-22245000D01*
X38163740Y-22245000D01*
X37876842Y-22302068D01*
X37606589Y-22414010D01*
X37363368Y-22576525D01*
X37156525Y-22783368D01*
X37040000Y-22957760D01*
X36923475Y-22783368D01*
X36716632Y-22576525D01*
X36473411Y-22414010D01*
X36203158Y-22302068D01*
X35916260Y-22245000D01*
X35623740Y-22245000D01*
X35336842Y-22302068D01*
X35066589Y-22414010D01*
X34823368Y-22576525D01*
X34616525Y-22783368D01*
X34500000Y-22957760D01*
X34383475Y-22783368D01*
X34176632Y-22576525D01*
X33933411Y-22414010D01*
X33663158Y-22302068D01*
X33376260Y-22245000D01*
X33083740Y-22245000D01*
X32796842Y-22302068D01*
X32526589Y-22414010D01*
X32283368Y-22576525D01*
X32076525Y-22783368D01*
X31960000Y-22957760D01*
X31843475Y-22783368D01*
X31636632Y-22576525D01*
X31393411Y-22414010D01*
X31123158Y-22302068D01*
X30836260Y-22245000D01*
X30543740Y-22245000D01*
X30256842Y-22302068D01*
X29986589Y-22414010D01*
X29743368Y-22576525D01*
X29536525Y-22783368D01*
X29420000Y-22957760D01*
X29303475Y-22783368D01*
X29096632Y-22576525D01*
X28853411Y-22414010D01*
X28583158Y-22302068D01*
X28296260Y-22245000D01*
X28003740Y-22245000D01*
X27716842Y-22302068D01*
X27446589Y-22414010D01*
X27203368Y-22576525D01*
X26996525Y-22783368D01*
X26880000Y-22957760D01*
X26763475Y-22783368D01*
X26556632Y-22576525D01*
X26313411Y-22414010D01*
X26043158Y-22302068D01*
X25756260Y-22245000D01*
X25463740Y-22245000D01*
X25176842Y-22302068D01*
X24906589Y-22414010D01*
X24663368Y-22576525D01*
X24456525Y-22783368D01*
X24294010Y-23026589D01*
X24182068Y-23296842D01*
X24125000Y-23583740D01*
X24125000Y-23876260D01*
X24182068Y-24163158D01*
X24294010Y-24433411D01*
X24456525Y-24676632D01*
X24663368Y-24883475D01*
X24837760Y-25000000D01*
X24663368Y-25116525D01*
X24456525Y-25323368D01*
X24294010Y-25566589D01*
X24182068Y-25836842D01*
X24125000Y-26123740D01*
X24125000Y-26416260D01*
X24182068Y-26703158D01*
X24294010Y-26973411D01*
X24456525Y-27216632D01*
X24663368Y-27423475D01*
X24720001Y-27461316D01*
X24720000Y-30692814D01*
X24676916Y-30773418D01*
X24632071Y-30921255D01*
X24616928Y-31075000D01*
X24616928Y-32602500D01*
X23478518Y-32602500D01*
X23437500Y-32598460D01*
X23396481Y-32602500D01*
X23273811Y-32614582D01*
X23116413Y-32662328D01*
X22971354Y-32739864D01*
X22844209Y-32844209D01*
X22818061Y-32876071D01*
X22328574Y-33365559D01*
X22296710Y-33391709D01*
X22233861Y-33468291D01*
X22192364Y-33518855D01*
X22114828Y-33663914D01*
X22067082Y-33821312D01*
X22050960Y-33985000D01*
X22055001Y-34026029D01*
X22055000Y-44491935D01*
X21943368Y-44566525D01*
X21736525Y-44773368D01*
X21574010Y-45016589D01*
X21462068Y-45286842D01*
X21405000Y-45573740D01*
X21405000Y-45866260D01*
X21462068Y-46153158D01*
X21574010Y-46423411D01*
X21736525Y-46666632D01*
X21943368Y-46873475D01*
X22055001Y-46948065D01*
X22055000Y-47031935D01*
X21943368Y-47106525D01*
X21736525Y-47313368D01*
X21574010Y-47556589D01*
X21462068Y-47826842D01*
X21405000Y-48113740D01*
X21405000Y-48406260D01*
X21462068Y-48693158D01*
X21574010Y-48963411D01*
X21736525Y-49206632D01*
X21943368Y-49413475D01*
X22055001Y-49488065D01*
X22055000Y-49571935D01*
X21943368Y-49646525D01*
X21736525Y-49853368D01*
X21574010Y-50096589D01*
X21462068Y-50366842D01*
X21405000Y-50653740D01*
X21405000Y-50946260D01*
X21462068Y-51233158D01*
X21574010Y-51503411D01*
X21736525Y-51746632D01*
X21943368Y-51953475D01*
X22055001Y-52028065D01*
X22055000Y-52111935D01*
X21943368Y-52186525D01*
X21736525Y-52393368D01*
X21574010Y-52636589D01*
X21462068Y-52906842D01*
X21405000Y-53193740D01*
X21405000Y-53486260D01*
X21462068Y-53773158D01*
X21574010Y-54043411D01*
X21736525Y-54286632D01*
X21943368Y-54493475D01*
X22117760Y-54610000D01*
X21943368Y-54726525D01*
X21736525Y-54933368D01*
X21574010Y-55176589D01*
X21462068Y-55446842D01*
X21405000Y-55733740D01*
X21405000Y-56026260D01*
X21462068Y-56313158D01*
X21574010Y-56583411D01*
X21736525Y-56826632D01*
X21943368Y-57033475D01*
X22055001Y-57108065D01*
X22055000Y-57191935D01*
X21943368Y-57266525D01*
X21736525Y-57473368D01*
X21574010Y-57716589D01*
X21462068Y-57986842D01*
X21405000Y-58273740D01*
X21405000Y-58566260D01*
X21462068Y-58853158D01*
X21574010Y-59123411D01*
X21736525Y-59366632D01*
X21943368Y-59573475D01*
X22055001Y-59648065D01*
X22055000Y-59731935D01*
X21943368Y-59806525D01*
X21736525Y-60013368D01*
X21574010Y-60256589D01*
X21462068Y-60526842D01*
X21405000Y-60813740D01*
X21405000Y-61106260D01*
X21462068Y-61393158D01*
X21574010Y-61663411D01*
X21736525Y-61906632D01*
X21943368Y-62113475D01*
X22055001Y-62188065D01*
X22055000Y-62271935D01*
X21943368Y-62346525D01*
X21736525Y-62553368D01*
X21574010Y-62796589D01*
X21462068Y-63066842D01*
X21405000Y-63353740D01*
X21405000Y-63646260D01*
X21462068Y-63933158D01*
X21574010Y-64203411D01*
X21736525Y-64446632D01*
X21943368Y-64653475D01*
X22186589Y-64815990D01*
X22456842Y-64927932D01*
X22743740Y-64985000D01*
X23036260Y-64985000D01*
X23323158Y-64927932D01*
X23593411Y-64815990D01*
X23836632Y-64653475D01*
X23968487Y-64521620D01*
X23990498Y-64594180D01*
X24049463Y-64704494D01*
X24128815Y-64801185D01*
X24225506Y-64880537D01*
X24335820Y-64939502D01*
X24455518Y-64975812D01*
X24580000Y-64988072D01*
X26280000Y-64988072D01*
X26404482Y-64975812D01*
X26524180Y-64939502D01*
X26634494Y-64880537D01*
X26731185Y-64801185D01*
X26810537Y-64704494D01*
X26869502Y-64594180D01*
X26905812Y-64474482D01*
X26918072Y-64350000D01*
X26918072Y-64335000D01*
X27357317Y-64335000D01*
X27394463Y-64404494D01*
X27473815Y-64501185D01*
X27570506Y-64580537D01*
X27680820Y-64639502D01*
X27800518Y-64675812D01*
X27925000Y-64688072D01*
X29025000Y-64688072D01*
X29149482Y-64675812D01*
X29269180Y-64639502D01*
X29379494Y-64580537D01*
X29476185Y-64501185D01*
X29555537Y-64404494D01*
X29614502Y-64294180D01*
X29650812Y-64174482D01*
X29663072Y-64050000D01*
X29663072Y-62950000D01*
X30086928Y-62950000D01*
X30086928Y-64050000D01*
X30099188Y-64174482D01*
X30135498Y-64294180D01*
X30194463Y-64404494D01*
X30273815Y-64501185D01*
X30370506Y-64580537D01*
X30480820Y-64639502D01*
X30600518Y-64675812D01*
X30725000Y-64688072D01*
X31825000Y-64688072D01*
X31949482Y-64675812D01*
X32069180Y-64639502D01*
X32179494Y-64580537D01*
X32250214Y-64522499D01*
X32313061Y-64535000D01*
X32516939Y-64535000D01*
X32716898Y-64495226D01*
X32905256Y-64417205D01*
X33074774Y-64303937D01*
X33218937Y-64159774D01*
X33332205Y-63990256D01*
X33410226Y-63801898D01*
X33450000Y-63601939D01*
X33450000Y-63398061D01*
X33410226Y-63198102D01*
X33332205Y-63009744D01*
X33218937Y-62840226D01*
X33074774Y-62696063D01*
X32905256Y-62582795D01*
X32716898Y-62504774D01*
X32516939Y-62465000D01*
X32313061Y-62465000D01*
X32250214Y-62477501D01*
X32179494Y-62419463D01*
X32069180Y-62360498D01*
X31949482Y-62324188D01*
X31825000Y-62311928D01*
X30725000Y-62311928D01*
X30600518Y-62324188D01*
X30480820Y-62360498D01*
X30370506Y-62419463D01*
X30273815Y-62498815D01*
X30194463Y-62595506D01*
X30135498Y-62705820D01*
X30099188Y-62825518D01*
X30086928Y-62950000D01*
X29663072Y-62950000D01*
X29650812Y-62825518D01*
X29614502Y-62705820D01*
X29555537Y-62595506D01*
X29476185Y-62498815D01*
X29379494Y-62419463D01*
X29269180Y-62360498D01*
X29149482Y-62324188D01*
X29025000Y-62311928D01*
X27925000Y-62311928D01*
X27800518Y-62324188D01*
X27680820Y-62360498D01*
X27570506Y-62419463D01*
X27473815Y-62498815D01*
X27394463Y-62595506D01*
X27357317Y-62665000D01*
X26918072Y-62665000D01*
X26918072Y-62650000D01*
X26905812Y-62525518D01*
X26869502Y-62405820D01*
X26810537Y-62295506D01*
X26731185Y-62198815D01*
X26634494Y-62119463D01*
X26524180Y-62060498D01*
X26451620Y-62038487D01*
X26583475Y-61906632D01*
X26658065Y-61795000D01*
X27357317Y-61795000D01*
X27394463Y-61864494D01*
X27473815Y-61961185D01*
X27570506Y-62040537D01*
X27680820Y-62099502D01*
X27800518Y-62135812D01*
X27925000Y-62148072D01*
X29025000Y-62148072D01*
X29149482Y-62135812D01*
X29269180Y-62099502D01*
X29379494Y-62040537D01*
X29476185Y-61961185D01*
X29555537Y-61864494D01*
X29614502Y-61754180D01*
X29650812Y-61634482D01*
X29663072Y-61510000D01*
X29663072Y-60410000D01*
X30086928Y-60410000D01*
X30086928Y-61510000D01*
X30099188Y-61634482D01*
X30135498Y-61754180D01*
X30194463Y-61864494D01*
X30273815Y-61961185D01*
X30370506Y-62040537D01*
X30480820Y-62099502D01*
X30600518Y-62135812D01*
X30725000Y-62148072D01*
X31825000Y-62148072D01*
X31949482Y-62135812D01*
X32069180Y-62099502D01*
X32179494Y-62040537D01*
X32250214Y-61982499D01*
X32313061Y-61995000D01*
X32516939Y-61995000D01*
X32716898Y-61955226D01*
X32905256Y-61877205D01*
X33074774Y-61763937D01*
X33218937Y-61619774D01*
X33332205Y-61450256D01*
X33410226Y-61261898D01*
X33450000Y-61061939D01*
X33450000Y-60858061D01*
X33410226Y-60658102D01*
X33332205Y-60469744D01*
X33218937Y-60300226D01*
X33074774Y-60156063D01*
X32905256Y-60042795D01*
X32716898Y-59964774D01*
X32516939Y-59925000D01*
X32313061Y-59925000D01*
X32250214Y-59937501D01*
X32179494Y-59879463D01*
X32069180Y-59820498D01*
X31949482Y-59784188D01*
X31825000Y-59771928D01*
X30725000Y-59771928D01*
X30600518Y-59784188D01*
X30480820Y-59820498D01*
X30370506Y-59879463D01*
X30273815Y-59958815D01*
X30194463Y-60055506D01*
X30135498Y-60165820D01*
X30099188Y-60285518D01*
X30086928Y-60410000D01*
X29663072Y-60410000D01*
X29650812Y-60285518D01*
X29614502Y-60165820D01*
X29555537Y-60055506D01*
X29476185Y-59958815D01*
X29379494Y-59879463D01*
X29269180Y-59820498D01*
X29149482Y-59784188D01*
X29025000Y-59771928D01*
X27925000Y-59771928D01*
X27800518Y-59784188D01*
X27680820Y-59820498D01*
X27570506Y-59879463D01*
X27473815Y-59958815D01*
X27394463Y-60055506D01*
X27357317Y-60125000D01*
X26658065Y-60125000D01*
X26583475Y-60013368D01*
X26376632Y-59806525D01*
X26202240Y-59690000D01*
X26376632Y-59573475D01*
X26583475Y-59366632D01*
X26658065Y-59255000D01*
X27357317Y-59255000D01*
X27394463Y-59324494D01*
X27473815Y-59421185D01*
X27570506Y-59500537D01*
X27680820Y-59559502D01*
X27800518Y-59595812D01*
X27925000Y-59608072D01*
X29025000Y-59608072D01*
X29149482Y-59595812D01*
X29269180Y-59559502D01*
X29379494Y-59500537D01*
X29476185Y-59421185D01*
X29555537Y-59324494D01*
X29614502Y-59214180D01*
X29650812Y-59094482D01*
X29663072Y-58970000D01*
X29663072Y-57870000D01*
X30086928Y-57870000D01*
X30086928Y-58970000D01*
X30099188Y-59094482D01*
X30135498Y-59214180D01*
X30194463Y-59324494D01*
X30273815Y-59421185D01*
X30370506Y-59500537D01*
X30480820Y-59559502D01*
X30600518Y-59595812D01*
X30725000Y-59608072D01*
X31825000Y-59608072D01*
X31949482Y-59595812D01*
X32069180Y-59559502D01*
X32179494Y-59500537D01*
X32250214Y-59442499D01*
X32313061Y-59455000D01*
X32516939Y-59455000D01*
X32716898Y-59415226D01*
X32905256Y-59337205D01*
X33074774Y-59223937D01*
X33218937Y-59079774D01*
X33332205Y-58910256D01*
X33410226Y-58721898D01*
X33450000Y-58521939D01*
X33450000Y-58318061D01*
X33410226Y-58118102D01*
X33332205Y-57929744D01*
X33218937Y-57760226D01*
X33074774Y-57616063D01*
X32905256Y-57502795D01*
X32716898Y-57424774D01*
X32516939Y-57385000D01*
X32313061Y-57385000D01*
X32250214Y-57397501D01*
X32179494Y-57339463D01*
X32069180Y-57280498D01*
X31949482Y-57244188D01*
X31825000Y-57231928D01*
X30725000Y-57231928D01*
X30600518Y-57244188D01*
X30480820Y-57280498D01*
X30370506Y-57339463D01*
X30273815Y-57418815D01*
X30194463Y-57515506D01*
X30135498Y-57625820D01*
X30099188Y-57745518D01*
X30086928Y-57870000D01*
X29663072Y-57870000D01*
X29650812Y-57745518D01*
X29614502Y-57625820D01*
X29555537Y-57515506D01*
X29476185Y-57418815D01*
X29379494Y-57339463D01*
X29269180Y-57280498D01*
X29149482Y-57244188D01*
X29025000Y-57231928D01*
X27925000Y-57231928D01*
X27800518Y-57244188D01*
X27680820Y-57280498D01*
X27570506Y-57339463D01*
X27473815Y-57418815D01*
X27394463Y-57515506D01*
X27357317Y-57585000D01*
X26658065Y-57585000D01*
X26583475Y-57473368D01*
X26376632Y-57266525D01*
X26202240Y-57150000D01*
X26376632Y-57033475D01*
X26583475Y-56826632D01*
X26658065Y-56715000D01*
X27357317Y-56715000D01*
X27394463Y-56784494D01*
X27473815Y-56881185D01*
X27570506Y-56960537D01*
X27680820Y-57019502D01*
X27800518Y-57055812D01*
X27925000Y-57068072D01*
X29025000Y-57068072D01*
X29149482Y-57055812D01*
X29269180Y-57019502D01*
X29379494Y-56960537D01*
X29476185Y-56881185D01*
X29555537Y-56784494D01*
X29614502Y-56674180D01*
X29650812Y-56554482D01*
X29663072Y-56430000D01*
X29663072Y-55330000D01*
X30086928Y-55330000D01*
X30086928Y-56430000D01*
X30099188Y-56554482D01*
X30135498Y-56674180D01*
X30194463Y-56784494D01*
X30273815Y-56881185D01*
X30370506Y-56960537D01*
X30480820Y-57019502D01*
X30600518Y-57055812D01*
X30725000Y-57068072D01*
X31825000Y-57068072D01*
X31949482Y-57055812D01*
X32069180Y-57019502D01*
X32179494Y-56960537D01*
X32250214Y-56902499D01*
X32313061Y-56915000D01*
X32516939Y-56915000D01*
X32716898Y-56875226D01*
X32905256Y-56797205D01*
X33074774Y-56683937D01*
X33218937Y-56539774D01*
X33332205Y-56370256D01*
X33410226Y-56181898D01*
X33450000Y-55981939D01*
X33450000Y-55778061D01*
X33410226Y-55578102D01*
X33332205Y-55389744D01*
X33218937Y-55220226D01*
X33074774Y-55076063D01*
X32905256Y-54962795D01*
X32716898Y-54884774D01*
X32516939Y-54845000D01*
X32313061Y-54845000D01*
X32250214Y-54857501D01*
X32179494Y-54799463D01*
X32069180Y-54740498D01*
X31949482Y-54704188D01*
X31825000Y-54691928D01*
X30725000Y-54691928D01*
X30600518Y-54704188D01*
X30480820Y-54740498D01*
X30370506Y-54799463D01*
X30273815Y-54878815D01*
X30194463Y-54975506D01*
X30135498Y-55085820D01*
X30099188Y-55205518D01*
X30086928Y-55330000D01*
X29663072Y-55330000D01*
X29650812Y-55205518D01*
X29614502Y-55085820D01*
X29555537Y-54975506D01*
X29476185Y-54878815D01*
X29379494Y-54799463D01*
X29269180Y-54740498D01*
X29149482Y-54704188D01*
X29025000Y-54691928D01*
X27925000Y-54691928D01*
X27800518Y-54704188D01*
X27680820Y-54740498D01*
X27570506Y-54799463D01*
X27473815Y-54878815D01*
X27394463Y-54975506D01*
X27357317Y-55045000D01*
X26658065Y-55045000D01*
X26583475Y-54933368D01*
X26376632Y-54726525D01*
X26202240Y-54610000D01*
X26376632Y-54493475D01*
X26583475Y-54286632D01*
X26658065Y-54175000D01*
X27357317Y-54175000D01*
X27394463Y-54244494D01*
X27473815Y-54341185D01*
X27570506Y-54420537D01*
X27680820Y-54479502D01*
X27800518Y-54515812D01*
X27925000Y-54528072D01*
X29025000Y-54528072D01*
X29149482Y-54515812D01*
X29269180Y-54479502D01*
X29379494Y-54420537D01*
X29476185Y-54341185D01*
X29555537Y-54244494D01*
X29614502Y-54134180D01*
X29650812Y-54014482D01*
X29663072Y-53890000D01*
X29663072Y-52790000D01*
X30086928Y-52790000D01*
X30086928Y-53890000D01*
X30099188Y-54014482D01*
X30135498Y-54134180D01*
X30194463Y-54244494D01*
X30273815Y-54341185D01*
X30370506Y-54420537D01*
X30480820Y-54479502D01*
X30600518Y-54515812D01*
X30725000Y-54528072D01*
X31825000Y-54528072D01*
X31949482Y-54515812D01*
X32069180Y-54479502D01*
X32179494Y-54420537D01*
X32250214Y-54362499D01*
X32313061Y-54375000D01*
X32516939Y-54375000D01*
X32716898Y-54335226D01*
X32905256Y-54257205D01*
X33074774Y-54143937D01*
X33218937Y-53999774D01*
X33332205Y-53830256D01*
X33410226Y-53641898D01*
X33450000Y-53441939D01*
X33450000Y-53238061D01*
X33410226Y-53038102D01*
X33332205Y-52849744D01*
X33218937Y-52680226D01*
X33074774Y-52536063D01*
X32905256Y-52422795D01*
X32716898Y-52344774D01*
X32516939Y-52305000D01*
X32313061Y-52305000D01*
X32250214Y-52317501D01*
X32179494Y-52259463D01*
X32069180Y-52200498D01*
X31949482Y-52164188D01*
X31825000Y-52151928D01*
X30725000Y-52151928D01*
X30600518Y-52164188D01*
X30480820Y-52200498D01*
X30370506Y-52259463D01*
X30273815Y-52338815D01*
X30194463Y-52435506D01*
X30135498Y-52545820D01*
X30099188Y-52665518D01*
X30086928Y-52790000D01*
X29663072Y-52790000D01*
X29650812Y-52665518D01*
X29614502Y-52545820D01*
X29555537Y-52435506D01*
X29476185Y-52338815D01*
X29379494Y-52259463D01*
X29269180Y-52200498D01*
X29149482Y-52164188D01*
X29025000Y-52151928D01*
X27925000Y-52151928D01*
X27800518Y-52164188D01*
X27680820Y-52200498D01*
X27570506Y-52259463D01*
X27473815Y-52338815D01*
X27394463Y-52435506D01*
X27357317Y-52505000D01*
X26658065Y-52505000D01*
X26583475Y-52393368D01*
X26376632Y-52186525D01*
X26202240Y-52070000D01*
X26376632Y-51953475D01*
X26583475Y-51746632D01*
X26658065Y-51635000D01*
X27357317Y-51635000D01*
X27394463Y-51704494D01*
X27473815Y-51801185D01*
X27570506Y-51880537D01*
X27680820Y-51939502D01*
X27800518Y-51975812D01*
X27925000Y-51988072D01*
X29025000Y-51988072D01*
X29149482Y-51975812D01*
X29269180Y-51939502D01*
X29379494Y-51880537D01*
X29476185Y-51801185D01*
X29555537Y-51704494D01*
X29614502Y-51594180D01*
X29650812Y-51474482D01*
X29663072Y-51350000D01*
X29663072Y-50250000D01*
X30086928Y-50250000D01*
X30086928Y-51350000D01*
X30099188Y-51474482D01*
X30135498Y-51594180D01*
X30194463Y-51704494D01*
X30273815Y-51801185D01*
X30370506Y-51880537D01*
X30480820Y-51939502D01*
X30600518Y-51975812D01*
X30725000Y-51988072D01*
X31825000Y-51988072D01*
X31949482Y-51975812D01*
X32069180Y-51939502D01*
X32179494Y-51880537D01*
X32250214Y-51822499D01*
X32313061Y-51835000D01*
X32516939Y-51835000D01*
X32716898Y-51795226D01*
X32905256Y-51717205D01*
X33074774Y-51603937D01*
X33218937Y-51459774D01*
X33332205Y-51290256D01*
X33410226Y-51101898D01*
X33450000Y-50901939D01*
X33450000Y-50698061D01*
X33410226Y-50498102D01*
X33332205Y-50309744D01*
X33218937Y-50140226D01*
X33074774Y-49996063D01*
X32905256Y-49882795D01*
X32716898Y-49804774D01*
X32516939Y-49765000D01*
X32313061Y-49765000D01*
X32250214Y-49777501D01*
X32179494Y-49719463D01*
X32069180Y-49660498D01*
X31949482Y-49624188D01*
X31825000Y-49611928D01*
X30725000Y-49611928D01*
X30600518Y-49624188D01*
X30480820Y-49660498D01*
X30370506Y-49719463D01*
X30273815Y-49798815D01*
X30194463Y-49895506D01*
X30135498Y-50005820D01*
X30099188Y-50125518D01*
X30086928Y-50250000D01*
X29663072Y-50250000D01*
X29650812Y-50125518D01*
X29614502Y-50005820D01*
X29555537Y-49895506D01*
X29476185Y-49798815D01*
X29379494Y-49719463D01*
X29269180Y-49660498D01*
X29149482Y-49624188D01*
X29025000Y-49611928D01*
X27925000Y-49611928D01*
X27800518Y-49624188D01*
X27680820Y-49660498D01*
X27570506Y-49719463D01*
X27473815Y-49798815D01*
X27394463Y-49895506D01*
X27357317Y-49965000D01*
X26658065Y-49965000D01*
X26583475Y-49853368D01*
X26376632Y-49646525D01*
X26202240Y-49530000D01*
X26376632Y-49413475D01*
X26583475Y-49206632D01*
X26658065Y-49095000D01*
X27357317Y-49095000D01*
X27394463Y-49164494D01*
X27473815Y-49261185D01*
X27570506Y-49340537D01*
X27680820Y-49399502D01*
X27800518Y-49435812D01*
X27925000Y-49448072D01*
X29025000Y-49448072D01*
X29149482Y-49435812D01*
X29269180Y-49399502D01*
X29379494Y-49340537D01*
X29476185Y-49261185D01*
X29555537Y-49164494D01*
X29614502Y-49054180D01*
X29650812Y-48934482D01*
X29663072Y-48810000D01*
X29663072Y-47710000D01*
X30086928Y-47710000D01*
X30086928Y-48810000D01*
X30099188Y-48934482D01*
X30135498Y-49054180D01*
X30194463Y-49164494D01*
X30273815Y-49261185D01*
X30370506Y-49340537D01*
X30480820Y-49399502D01*
X30600518Y-49435812D01*
X30725000Y-49448072D01*
X31825000Y-49448072D01*
X31949482Y-49435812D01*
X32069180Y-49399502D01*
X32179494Y-49340537D01*
X32250214Y-49282499D01*
X32313061Y-49295000D01*
X32516939Y-49295000D01*
X32716898Y-49255226D01*
X32905256Y-49177205D01*
X33074774Y-49063937D01*
X33218937Y-48919774D01*
X33332205Y-48750256D01*
X33410226Y-48561898D01*
X33450000Y-48361939D01*
X33450000Y-48158061D01*
X33410226Y-47958102D01*
X33332205Y-47769744D01*
X33218937Y-47600226D01*
X33074774Y-47456063D01*
X32905256Y-47342795D01*
X32716898Y-47264774D01*
X32516939Y-47225000D01*
X32313061Y-47225000D01*
X32250214Y-47237501D01*
X32179494Y-47179463D01*
X32069180Y-47120498D01*
X31949482Y-47084188D01*
X31825000Y-47071928D01*
X30725000Y-47071928D01*
X30600518Y-47084188D01*
X30480820Y-47120498D01*
X30370506Y-47179463D01*
X30273815Y-47258815D01*
X30194463Y-47355506D01*
X30135498Y-47465820D01*
X30099188Y-47585518D01*
X30086928Y-47710000D01*
X29663072Y-47710000D01*
X29650812Y-47585518D01*
X29614502Y-47465820D01*
X29555537Y-47355506D01*
X29476185Y-47258815D01*
X29379494Y-47179463D01*
X29269180Y-47120498D01*
X29149482Y-47084188D01*
X29025000Y-47071928D01*
X27925000Y-47071928D01*
X27800518Y-47084188D01*
X27680820Y-47120498D01*
X27570506Y-47179463D01*
X27473815Y-47258815D01*
X27394463Y-47355506D01*
X27357317Y-47425000D01*
X26658065Y-47425000D01*
X26583475Y-47313368D01*
X26376632Y-47106525D01*
X26202240Y-46990000D01*
X26376632Y-46873475D01*
X26583475Y-46666632D01*
X26658065Y-46555000D01*
X27357317Y-46555000D01*
X27394463Y-46624494D01*
X27473815Y-46721185D01*
X27570506Y-46800537D01*
X27680820Y-46859502D01*
X27800518Y-46895812D01*
X27925000Y-46908072D01*
X29025000Y-46908072D01*
X29149482Y-46895812D01*
X29269180Y-46859502D01*
X29379494Y-46800537D01*
X29476185Y-46721185D01*
X29555537Y-46624494D01*
X29614502Y-46514180D01*
X29650812Y-46394482D01*
X29663072Y-46270000D01*
X29663072Y-45170000D01*
X29650812Y-45045518D01*
X29614502Y-44925820D01*
X29555537Y-44815506D01*
X29476185Y-44718815D01*
X29379494Y-44639463D01*
X29277603Y-44585000D01*
X30472397Y-44585000D01*
X30370506Y-44639463D01*
X30273815Y-44718815D01*
X30194463Y-44815506D01*
X30135498Y-44925820D01*
X30099188Y-45045518D01*
X30086928Y-45170000D01*
X30086928Y-46270000D01*
X30099188Y-46394482D01*
X30135498Y-46514180D01*
X30194463Y-46624494D01*
X30273815Y-46721185D01*
X30370506Y-46800537D01*
X30480820Y-46859502D01*
X30600518Y-46895812D01*
X30725000Y-46908072D01*
X31825000Y-46908072D01*
X31949482Y-46895812D01*
X32069180Y-46859502D01*
X32179494Y-46800537D01*
X32250214Y-46742499D01*
X32313061Y-46755000D01*
X32516939Y-46755000D01*
X32716898Y-46715226D01*
X32905256Y-46637205D01*
X33074774Y-46523937D01*
X33218937Y-46379774D01*
X33332205Y-46210256D01*
X33410226Y-46021898D01*
X33450000Y-45821939D01*
X33450000Y-45618061D01*
X33410226Y-45418102D01*
X33332205Y-45229744D01*
X33218937Y-45060226D01*
X33074774Y-44916063D01*
X32905256Y-44802795D01*
X32716898Y-44724774D01*
X32516939Y-44685000D01*
X32313061Y-44685000D01*
X32250214Y-44697501D01*
X32179494Y-44639463D01*
X32077603Y-44585000D01*
X33989893Y-44585000D01*
X33801525Y-44773368D01*
X33639010Y-45016589D01*
X33527068Y-45286842D01*
X33470000Y-45573740D01*
X33470000Y-45866260D01*
X33527068Y-46153158D01*
X33639010Y-46423411D01*
X33801525Y-46666632D01*
X34008368Y-46873475D01*
X34120001Y-46948065D01*
X34120000Y-47031935D01*
X34008368Y-47106525D01*
X33801525Y-47313368D01*
X33639010Y-47556589D01*
X33527068Y-47826842D01*
X33470000Y-48113740D01*
X33470000Y-48406260D01*
X33527068Y-48693158D01*
X33639010Y-48963411D01*
X33801525Y-49206632D01*
X34008368Y-49413475D01*
X34120001Y-49488065D01*
X34120000Y-49571935D01*
X34008368Y-49646525D01*
X33801525Y-49853368D01*
X33639010Y-50096589D01*
X33527068Y-50366842D01*
X33470000Y-50653740D01*
X33470000Y-50946260D01*
X33527068Y-51233158D01*
X33639010Y-51503411D01*
X33801525Y-51746632D01*
X34008368Y-51953475D01*
X34120001Y-52028065D01*
X34120000Y-52111935D01*
X34008368Y-52186525D01*
X33801525Y-52393368D01*
X33639010Y-52636589D01*
X33527068Y-52906842D01*
X33470000Y-53193740D01*
X33470000Y-53486260D01*
X33527068Y-53773158D01*
X33639010Y-54043411D01*
X33801525Y-54286632D01*
X34008368Y-54493475D01*
X34182760Y-54610000D01*
X34008368Y-54726525D01*
X33801525Y-54933368D01*
X33639010Y-55176589D01*
X33527068Y-55446842D01*
X33470000Y-55733740D01*
X33470000Y-56026260D01*
X33527068Y-56313158D01*
X33639010Y-56583411D01*
X33801525Y-56826632D01*
X34008368Y-57033475D01*
X34120000Y-57108065D01*
X34120001Y-57191935D01*
X34008368Y-57266525D01*
X33801525Y-57473368D01*
X33639010Y-57716589D01*
X33527068Y-57986842D01*
X33470000Y-58273740D01*
X33470000Y-58566260D01*
X33527068Y-58853158D01*
X33639010Y-59123411D01*
X33801525Y-59366632D01*
X34008368Y-59573475D01*
X34120001Y-59648065D01*
X34120000Y-59731935D01*
X34008368Y-59806525D01*
X33801525Y-60013368D01*
X33639010Y-60256589D01*
X33527068Y-60526842D01*
X33470000Y-60813740D01*
X33470000Y-61106260D01*
X33527068Y-61393158D01*
X33639010Y-61663411D01*
X33801525Y-61906632D01*
X34008368Y-62113475D01*
X34120001Y-62188065D01*
X34120000Y-62271935D01*
X34008368Y-62346525D01*
X33801525Y-62553368D01*
X33639010Y-62796589D01*
X33527068Y-63066842D01*
X33470000Y-63353740D01*
X33470000Y-63646260D01*
X33527068Y-63933158D01*
X33639010Y-64203411D01*
X33801525Y-64446632D01*
X34008368Y-64653475D01*
X34251589Y-64815990D01*
X34521842Y-64927932D01*
X34808740Y-64985000D01*
X35101260Y-64985000D01*
X35388158Y-64927932D01*
X35658411Y-64815990D01*
X35901632Y-64653475D01*
X36033487Y-64521620D01*
X36055498Y-64594180D01*
X36114463Y-64704494D01*
X36193815Y-64801185D01*
X36290506Y-64880537D01*
X36400820Y-64939502D01*
X36520518Y-64975812D01*
X36645000Y-64988072D01*
X38345000Y-64988072D01*
X38469482Y-64975812D01*
X38589180Y-64939502D01*
X38699494Y-64880537D01*
X38796185Y-64801185D01*
X38875537Y-64704494D01*
X38934502Y-64594180D01*
X38970812Y-64474482D01*
X38983072Y-64350000D01*
X38983072Y-64335000D01*
X39422317Y-64335000D01*
X39459463Y-64404494D01*
X39538815Y-64501185D01*
X39635506Y-64580537D01*
X39745820Y-64639502D01*
X39865518Y-64675812D01*
X39990000Y-64688072D01*
X41090000Y-64688072D01*
X41214482Y-64675812D01*
X41334180Y-64639502D01*
X41444494Y-64580537D01*
X41541185Y-64501185D01*
X41620537Y-64404494D01*
X41679502Y-64294180D01*
X41715812Y-64174482D01*
X41728072Y-64050000D01*
X41728072Y-62950000D01*
X41715812Y-62825518D01*
X41679502Y-62705820D01*
X41620537Y-62595506D01*
X41541185Y-62498815D01*
X41444494Y-62419463D01*
X41334180Y-62360498D01*
X41214482Y-62324188D01*
X41090000Y-62311928D01*
X39990000Y-62311928D01*
X39865518Y-62324188D01*
X39745820Y-62360498D01*
X39635506Y-62419463D01*
X39538815Y-62498815D01*
X39459463Y-62595506D01*
X39422317Y-62665000D01*
X38983072Y-62665000D01*
X38983072Y-62650000D01*
X38970812Y-62525518D01*
X38934502Y-62405820D01*
X38875537Y-62295506D01*
X38796185Y-62198815D01*
X38699494Y-62119463D01*
X38589180Y-62060498D01*
X38516620Y-62038487D01*
X38648475Y-61906632D01*
X38723065Y-61795000D01*
X39422317Y-61795000D01*
X39459463Y-61864494D01*
X39538815Y-61961185D01*
X39635506Y-62040537D01*
X39745820Y-62099502D01*
X39865518Y-62135812D01*
X39990000Y-62148072D01*
X41090000Y-62148072D01*
X41214482Y-62135812D01*
X41334180Y-62099502D01*
X41444494Y-62040537D01*
X41541185Y-61961185D01*
X41620537Y-61864494D01*
X41679502Y-61754180D01*
X41715812Y-61634482D01*
X41728072Y-61510000D01*
X41728072Y-60410000D01*
X41715812Y-60285518D01*
X41679502Y-60165820D01*
X41620537Y-60055506D01*
X41541185Y-59958815D01*
X41444494Y-59879463D01*
X41334180Y-59820498D01*
X41214482Y-59784188D01*
X41090000Y-59771928D01*
X39990000Y-59771928D01*
X39865518Y-59784188D01*
X39745820Y-59820498D01*
X39635506Y-59879463D01*
X39538815Y-59958815D01*
X39459463Y-60055506D01*
X39422317Y-60125000D01*
X38723065Y-60125000D01*
X38648475Y-60013368D01*
X38441632Y-59806525D01*
X38267240Y-59690000D01*
X38441632Y-59573475D01*
X38648475Y-59366632D01*
X38723065Y-59255000D01*
X39422317Y-59255000D01*
X39459463Y-59324494D01*
X39538815Y-59421185D01*
X39635506Y-59500537D01*
X39745820Y-59559502D01*
X39865518Y-59595812D01*
X39990000Y-59608072D01*
X41090000Y-59608072D01*
X41214482Y-59595812D01*
X41334180Y-59559502D01*
X41444494Y-59500537D01*
X41541185Y-59421185D01*
X41620537Y-59324494D01*
X41679502Y-59214180D01*
X41715812Y-59094482D01*
X41728072Y-58970000D01*
X41728072Y-57870000D01*
X41715812Y-57745518D01*
X41679502Y-57625820D01*
X41620537Y-57515506D01*
X41541185Y-57418815D01*
X41444494Y-57339463D01*
X41334180Y-57280498D01*
X41214482Y-57244188D01*
X41090000Y-57231928D01*
X39990000Y-57231928D01*
X39865518Y-57244188D01*
X39745820Y-57280498D01*
X39635506Y-57339463D01*
X39538815Y-57418815D01*
X39459463Y-57515506D01*
X39422317Y-57585000D01*
X38723065Y-57585000D01*
X38648475Y-57473368D01*
X38441632Y-57266525D01*
X38267240Y-57150000D01*
X38441632Y-57033475D01*
X38648475Y-56826632D01*
X38723065Y-56715000D01*
X39422317Y-56715000D01*
X39459463Y-56784494D01*
X39538815Y-56881185D01*
X39635506Y-56960537D01*
X39745820Y-57019502D01*
X39865518Y-57055812D01*
X39990000Y-57068072D01*
X41090000Y-57068072D01*
X41214482Y-57055812D01*
X41334180Y-57019502D01*
X41444494Y-56960537D01*
X41541185Y-56881185D01*
X41620537Y-56784494D01*
X41679502Y-56674180D01*
X41715812Y-56554482D01*
X41728072Y-56430000D01*
X41728072Y-55330000D01*
X41715812Y-55205518D01*
X41679502Y-55085820D01*
X41620537Y-54975506D01*
X41541185Y-54878815D01*
X41444494Y-54799463D01*
X41334180Y-54740498D01*
X41214482Y-54704188D01*
X41090000Y-54691928D01*
X39990000Y-54691928D01*
X39865518Y-54704188D01*
X39745820Y-54740498D01*
X39635506Y-54799463D01*
X39538815Y-54878815D01*
X39459463Y-54975506D01*
X39422317Y-55045000D01*
X38723065Y-55045000D01*
X38648475Y-54933368D01*
X38441632Y-54726525D01*
X38267240Y-54610000D01*
X38441632Y-54493475D01*
X38648475Y-54286632D01*
X38723065Y-54175000D01*
X39422317Y-54175000D01*
X39459463Y-54244494D01*
X39538815Y-54341185D01*
X39635506Y-54420537D01*
X39745820Y-54479502D01*
X39865518Y-54515812D01*
X39990000Y-54528072D01*
X41090000Y-54528072D01*
X41214482Y-54515812D01*
X41334180Y-54479502D01*
X41444494Y-54420537D01*
X41541185Y-54341185D01*
X41620537Y-54244494D01*
X41679502Y-54134180D01*
X41715812Y-54014482D01*
X41728072Y-53890000D01*
X41728072Y-52790000D01*
X41715812Y-52665518D01*
X41679502Y-52545820D01*
X41620537Y-52435506D01*
X41541185Y-52338815D01*
X41444494Y-52259463D01*
X41334180Y-52200498D01*
X41214482Y-52164188D01*
X41090000Y-52151928D01*
X39990000Y-52151928D01*
X39865518Y-52164188D01*
X39745820Y-52200498D01*
X39635506Y-52259463D01*
X39538815Y-52338815D01*
X39459463Y-52435506D01*
X39422317Y-52505000D01*
X38723065Y-52505000D01*
X38648475Y-52393368D01*
X38441632Y-52186525D01*
X38267240Y-52070000D01*
X38441632Y-51953475D01*
X38648475Y-51746632D01*
X38723065Y-51635000D01*
X39422317Y-51635000D01*
X39459463Y-51704494D01*
X39538815Y-51801185D01*
X39635506Y-51880537D01*
X39745820Y-51939502D01*
X39865518Y-51975812D01*
X39990000Y-51988072D01*
X41090000Y-51988072D01*
X41214482Y-51975812D01*
X41334180Y-51939502D01*
X41444494Y-51880537D01*
X41541185Y-51801185D01*
X41620537Y-51704494D01*
X41679502Y-51594180D01*
X41715812Y-51474482D01*
X41728072Y-51350000D01*
X41728072Y-50250000D01*
X41715812Y-50125518D01*
X41679502Y-50005820D01*
X41620537Y-49895506D01*
X41541185Y-49798815D01*
X41444494Y-49719463D01*
X41334180Y-49660498D01*
X41214482Y-49624188D01*
X41090000Y-49611928D01*
X39990000Y-49611928D01*
X39865518Y-49624188D01*
X39745820Y-49660498D01*
X39635506Y-49719463D01*
X39538815Y-49798815D01*
X39459463Y-49895506D01*
X39422317Y-49965000D01*
X38723065Y-49965000D01*
X38648475Y-49853368D01*
X38441632Y-49646525D01*
X38267240Y-49530000D01*
X38441632Y-49413475D01*
X38648475Y-49206632D01*
X38723065Y-49095000D01*
X39422317Y-49095000D01*
X39459463Y-49164494D01*
X39538815Y-49261185D01*
X39635506Y-49340537D01*
X39745820Y-49399502D01*
X39865518Y-49435812D01*
X39990000Y-49448072D01*
X41090000Y-49448072D01*
X41214482Y-49435812D01*
X41334180Y-49399502D01*
X41444494Y-49340537D01*
X41541185Y-49261185D01*
X41620537Y-49164494D01*
X41679502Y-49054180D01*
X41715812Y-48934482D01*
X41728072Y-48810000D01*
X41728072Y-47710000D01*
X41715812Y-47585518D01*
X41679502Y-47465820D01*
X41620537Y-47355506D01*
X41541185Y-47258815D01*
X41444494Y-47179463D01*
X41334180Y-47120498D01*
X41214482Y-47084188D01*
X41090000Y-47071928D01*
X39990000Y-47071928D01*
X39865518Y-47084188D01*
X39745820Y-47120498D01*
X39635506Y-47179463D01*
X39538815Y-47258815D01*
X39459463Y-47355506D01*
X39422317Y-47425000D01*
X38723065Y-47425000D01*
X38648475Y-47313368D01*
X38441632Y-47106525D01*
X38267240Y-46990000D01*
X38441632Y-46873475D01*
X38648475Y-46666632D01*
X38723065Y-46555000D01*
X39422317Y-46555000D01*
X39459463Y-46624494D01*
X39538815Y-46721185D01*
X39635506Y-46800537D01*
X39745820Y-46859502D01*
X39865518Y-46895812D01*
X39990000Y-46908072D01*
X41090000Y-46908072D01*
X41214482Y-46895812D01*
X41334180Y-46859502D01*
X41444494Y-46800537D01*
X41541185Y-46721185D01*
X41620537Y-46624494D01*
X41679502Y-46514180D01*
X41715812Y-46394482D01*
X41728072Y-46270000D01*
X41728072Y-45170000D01*
X41715812Y-45045518D01*
X41679502Y-44925820D01*
X41620537Y-44815506D01*
X41541185Y-44718815D01*
X41444494Y-44639463D01*
X41334180Y-44580498D01*
X41214482Y-44544188D01*
X41090000Y-44531928D01*
X39990000Y-44531928D01*
X39865518Y-44544188D01*
X39745820Y-44580498D01*
X39635506Y-44639463D01*
X39538815Y-44718815D01*
X39459463Y-44815506D01*
X39422317Y-44885000D01*
X38723065Y-44885000D01*
X38648475Y-44773368D01*
X38441632Y-44566525D01*
X38198411Y-44404010D01*
X37928158Y-44292068D01*
X37641260Y-44235000D01*
X37348740Y-44235000D01*
X37079999Y-44288456D01*
X37079999Y-44098517D01*
X37084039Y-44057499D01*
X37067917Y-43893811D01*
X37020171Y-43736412D01*
X36942635Y-43591353D01*
X36864438Y-43496069D01*
X36864436Y-43496067D01*
X36838290Y-43464208D01*
X36806431Y-43438062D01*
X36703369Y-43335000D01*
X40914133Y-43335000D01*
X42320394Y-44741262D01*
X42259463Y-44815506D01*
X42200498Y-44925820D01*
X42164188Y-45045518D01*
X42151928Y-45170000D01*
X42151928Y-46270000D01*
X42164188Y-46394482D01*
X42200498Y-46514180D01*
X42259463Y-46624494D01*
X42338815Y-46721185D01*
X42435506Y-46800537D01*
X42545820Y-46859502D01*
X42665518Y-46895812D01*
X42790000Y-46908072D01*
X43890000Y-46908072D01*
X44014482Y-46895812D01*
X44134180Y-46859502D01*
X44244494Y-46800537D01*
X44315214Y-46742499D01*
X44323225Y-46744093D01*
X44445002Y-46865870D01*
X44445002Y-47225000D01*
X44378061Y-47225000D01*
X44315214Y-47237501D01*
X44244494Y-47179463D01*
X44134180Y-47120498D01*
X44014482Y-47084188D01*
X43890000Y-47071928D01*
X42790000Y-47071928D01*
X42665518Y-47084188D01*
X42545820Y-47120498D01*
X42435506Y-47179463D01*
X42338815Y-47258815D01*
X42259463Y-47355506D01*
X42200498Y-47465820D01*
X42164188Y-47585518D01*
X42151928Y-47710000D01*
X42151928Y-48810000D01*
X42164188Y-48934482D01*
X42200498Y-49054180D01*
X42259463Y-49164494D01*
X42338815Y-49261185D01*
X42435506Y-49340537D01*
X42545820Y-49399502D01*
X42665518Y-49435812D01*
X42790000Y-49448072D01*
X43890000Y-49448072D01*
X44014482Y-49435812D01*
X44134180Y-49399502D01*
X44244494Y-49340537D01*
X44315214Y-49282499D01*
X44378061Y-49295000D01*
X44445002Y-49295000D01*
X44445002Y-49765000D01*
X44378061Y-49765000D01*
X44315214Y-49777501D01*
X44244494Y-49719463D01*
X44134180Y-49660498D01*
X44014482Y-49624188D01*
X43890000Y-49611928D01*
X42790000Y-49611928D01*
X42665518Y-49624188D01*
X42545820Y-49660498D01*
X42435506Y-49719463D01*
X42338815Y-49798815D01*
X42259463Y-49895506D01*
X42200498Y-50005820D01*
X42164188Y-50125518D01*
X42151928Y-50250000D01*
X42151928Y-51350000D01*
X42164188Y-51474482D01*
X42200498Y-51594180D01*
X42259463Y-51704494D01*
X42338815Y-51801185D01*
X42435506Y-51880537D01*
X42545820Y-51939502D01*
X42665518Y-51975812D01*
X42790000Y-51988072D01*
X43890000Y-51988072D01*
X44014482Y-51975812D01*
X44134180Y-51939502D01*
X44244494Y-51880537D01*
X44315214Y-51822499D01*
X44378061Y-51835000D01*
X44445001Y-51835000D01*
X44445001Y-52305000D01*
X44378061Y-52305000D01*
X44315214Y-52317501D01*
X44244494Y-52259463D01*
X44134180Y-52200498D01*
X44014482Y-52164188D01*
X43890000Y-52151928D01*
X42790000Y-52151928D01*
X42665518Y-52164188D01*
X42545820Y-52200498D01*
X42435506Y-52259463D01*
X42338815Y-52338815D01*
X42259463Y-52435506D01*
X42200498Y-52545820D01*
X42164188Y-52665518D01*
X42151928Y-52790000D01*
X42151928Y-53890000D01*
X42164188Y-54014482D01*
X42200498Y-54134180D01*
X42259463Y-54244494D01*
X42338815Y-54341185D01*
X42435506Y-54420537D01*
X42545820Y-54479502D01*
X42665518Y-54515812D01*
X42790000Y-54528072D01*
X43890000Y-54528072D01*
X44014482Y-54515812D01*
X44134180Y-54479502D01*
X44244494Y-54420537D01*
X44315214Y-54362499D01*
X44378061Y-54375000D01*
X44445001Y-54375000D01*
X44445001Y-54734131D01*
X44323225Y-54855907D01*
X44315214Y-54857501D01*
X44244494Y-54799463D01*
X44134180Y-54740498D01*
X44014482Y-54704188D01*
X43890000Y-54691928D01*
X42790000Y-54691928D01*
X42665518Y-54704188D01*
X42545820Y-54740498D01*
X42435506Y-54799463D01*
X42338815Y-54878815D01*
X42259463Y-54975506D01*
X42200498Y-55085820D01*
X42164188Y-55205518D01*
X42151928Y-55330000D01*
X42151928Y-56430000D01*
X42164188Y-56554482D01*
X42200498Y-56674180D01*
X42259463Y-56784494D01*
X42338815Y-56881185D01*
X42435506Y-56960537D01*
X42545820Y-57019502D01*
X42665518Y-57055812D01*
X42790000Y-57068072D01*
X43890000Y-57068072D01*
X44014482Y-57055812D01*
X44134180Y-57019502D01*
X44244494Y-56960537D01*
X44315214Y-56902499D01*
X44378061Y-56915000D01*
X44581939Y-56915000D01*
X44781898Y-56875226D01*
X44887753Y-56831379D01*
X44323225Y-57395907D01*
X44315214Y-57397501D01*
X44244494Y-57339463D01*
X44134180Y-57280498D01*
X44014482Y-57244188D01*
X43890000Y-57231928D01*
X42790000Y-57231928D01*
X42665518Y-57244188D01*
X42545820Y-57280498D01*
X42435506Y-57339463D01*
X42338815Y-57418815D01*
X42259463Y-57515506D01*
X42200498Y-57625820D01*
X42164188Y-57745518D01*
X42151928Y-57870000D01*
X42151928Y-58970000D01*
X42164188Y-59094482D01*
X42200498Y-59214180D01*
X42259463Y-59324494D01*
X42338815Y-59421185D01*
X42435506Y-59500537D01*
X42545820Y-59559502D01*
X42665518Y-59595812D01*
X42790000Y-59608072D01*
X43890000Y-59608072D01*
X44014482Y-59595812D01*
X44134180Y-59559502D01*
X44244494Y-59500537D01*
X44315214Y-59442499D01*
X44378061Y-59455000D01*
X44581939Y-59455000D01*
X44781898Y-59415226D01*
X44887753Y-59371379D01*
X44323225Y-59935907D01*
X44315214Y-59937501D01*
X44244494Y-59879463D01*
X44134180Y-59820498D01*
X44014482Y-59784188D01*
X43890000Y-59771928D01*
X42790000Y-59771928D01*
X42665518Y-59784188D01*
X42545820Y-59820498D01*
X42435506Y-59879463D01*
X42338815Y-59958815D01*
X42259463Y-60055506D01*
X42200498Y-60165820D01*
X42164188Y-60285518D01*
X42151928Y-60410000D01*
X42151928Y-61510000D01*
X42164188Y-61634482D01*
X42200498Y-61754180D01*
X42259463Y-61864494D01*
X42338815Y-61961185D01*
X42435506Y-62040537D01*
X42545820Y-62099502D01*
X42665518Y-62135812D01*
X42790000Y-62148072D01*
X43890000Y-62148072D01*
X44014482Y-62135812D01*
X44134180Y-62099502D01*
X44244494Y-62040537D01*
X44315214Y-61982499D01*
X44378061Y-61995000D01*
X44581939Y-61995000D01*
X44781898Y-61955226D01*
X44887753Y-61911379D01*
X44323225Y-62475907D01*
X44315214Y-62477501D01*
X44244494Y-62419463D01*
X44134180Y-62360498D01*
X44014482Y-62324188D01*
X43890000Y-62311928D01*
X42790000Y-62311928D01*
X42665518Y-62324188D01*
X42545820Y-62360498D01*
X42435506Y-62419463D01*
X42338815Y-62498815D01*
X42259463Y-62595506D01*
X42200498Y-62705820D01*
X42164188Y-62825518D01*
X42151928Y-62950000D01*
X42151928Y-64050000D01*
X42164188Y-64174482D01*
X42200498Y-64294180D01*
X42259463Y-64404494D01*
X42338815Y-64501185D01*
X42435506Y-64580537D01*
X42545820Y-64639502D01*
X42665518Y-64675812D01*
X42790000Y-64688072D01*
X43890000Y-64688072D01*
X44014482Y-64675812D01*
X44134180Y-64639502D01*
X44244494Y-64580537D01*
X44315214Y-64522499D01*
X44378061Y-64535000D01*
X44581939Y-64535000D01*
X44781898Y-64495226D01*
X44970256Y-64417205D01*
X45139774Y-64303937D01*
X45283937Y-64159774D01*
X45397205Y-63990256D01*
X45475226Y-63801898D01*
X45504093Y-63656775D01*
X48340001Y-60820868D01*
X48340001Y-72967711D01*
X48330420Y-73065424D01*
X48311420Y-73128357D01*
X48280554Y-73186406D01*
X48239011Y-73237343D01*
X48188356Y-73279248D01*
X48130529Y-73310515D01*
X48067728Y-73329956D01*
X47971252Y-73340096D01*
X47969782Y-73340101D01*
X47941095Y-73343014D01*
X47912257Y-73342813D01*
X47903086Y-73343713D01*
X47126699Y-73425315D01*
X47068106Y-73437342D01*
X47009342Y-73448552D01*
X47000520Y-73451215D01*
X46254771Y-73682063D01*
X46199608Y-73705251D01*
X46144162Y-73727653D01*
X46136026Y-73731979D01*
X45449316Y-74103282D01*
X45399741Y-74136721D01*
X45349670Y-74169486D01*
X45342529Y-74175311D01*
X44741017Y-74672924D01*
X44698863Y-74715374D01*
X44656127Y-74757224D01*
X44650253Y-74764324D01*
X44156852Y-75369295D01*
X44123764Y-75419096D01*
X44089953Y-75468476D01*
X44085570Y-75476582D01*
X43719071Y-76165867D01*
X43696280Y-76221161D01*
X43672710Y-76276154D01*
X43669985Y-76284957D01*
X43444348Y-77032302D01*
X43432725Y-77091005D01*
X43420292Y-77149494D01*
X43419329Y-77158658D01*
X43343151Y-77935581D01*
X43343150Y-77935595D01*
X43330420Y-78065424D01*
X43311420Y-78128357D01*
X43280554Y-78186406D01*
X43239011Y-78237343D01*
X43188356Y-78279248D01*
X43130529Y-78310515D01*
X43067728Y-78329956D01*
X42972165Y-78340000D01*
X36175645Y-78340000D01*
X36265396Y-78302824D01*
X36875824Y-77894950D01*
X37394950Y-77375824D01*
X37802824Y-76765396D01*
X38083773Y-76087126D01*
X38227000Y-75367077D01*
X38227000Y-74632923D01*
X38083773Y-73912874D01*
X37802824Y-73234604D01*
X37394950Y-72624176D01*
X36875824Y-72105050D01*
X36265396Y-71697176D01*
X35587126Y-71416227D01*
X34867077Y-71273000D01*
X34132923Y-71273000D01*
X33412874Y-71416227D01*
X32734604Y-71697176D01*
X32124176Y-72105050D01*
X31605050Y-72624176D01*
X31197176Y-73234604D01*
X30916227Y-73912874D01*
X30773000Y-74632923D01*
X30773000Y-75367077D01*
X30916227Y-76087126D01*
X31197176Y-76765396D01*
X31605050Y-77375824D01*
X32124176Y-77894950D01*
X32734604Y-78302824D01*
X32824355Y-78340000D01*
X26032279Y-78340000D01*
X25934576Y-78330420D01*
X25871643Y-78311420D01*
X25813594Y-78280554D01*
X25762657Y-78239011D01*
X25720752Y-78188356D01*
X25689485Y-78130529D01*
X25670044Y-78067728D01*
X25659904Y-77971252D01*
X25659899Y-77969782D01*
X25656986Y-77941095D01*
X25657187Y-77912257D01*
X25656287Y-77903086D01*
X25574685Y-77126699D01*
X25562658Y-77068106D01*
X25551448Y-77009342D01*
X25548785Y-77000520D01*
X25317937Y-76254771D01*
X25294749Y-76199608D01*
X25272347Y-76144162D01*
X25268021Y-76136026D01*
X24896718Y-75449316D01*
X24863279Y-75399741D01*
X24830514Y-75349670D01*
X24824689Y-75342529D01*
X24327076Y-74741017D01*
X24284621Y-74698858D01*
X24242776Y-74656127D01*
X24235676Y-74650253D01*
X23630705Y-74156852D01*
X23580904Y-74123764D01*
X23531524Y-74089953D01*
X23523418Y-74085570D01*
X22834133Y-73719071D01*
X22778839Y-73696280D01*
X22723846Y-73672710D01*
X22715043Y-73669985D01*
X21967698Y-73444348D01*
X21908995Y-73432725D01*
X21850506Y-73420292D01*
X21841342Y-73419329D01*
X21064419Y-73343151D01*
X21064405Y-73343150D01*
X20934576Y-73330420D01*
X20871643Y-73311420D01*
X20813594Y-73280554D01*
X20762657Y-73239011D01*
X20720752Y-73188356D01*
X20689485Y-73130529D01*
X20670044Y-73067728D01*
X20660000Y-72972165D01*
X20660000Y-21032279D01*
X20669580Y-20934576D01*
X20688580Y-20871644D01*
X20719445Y-20813595D01*
X20760989Y-20762657D01*
X20811644Y-20720752D01*
X20869471Y-20689485D01*
X20932272Y-20670044D01*
X21027835Y-20660000D01*
X47967721Y-20660000D01*
X48065424Y-20669580D01*
%TA.AperFunction,Conductor*%
D16*
G36*
X48065424Y-20669580D02*
G01*
X48128356Y-20688580D01*
X48186405Y-20719445D01*
X48237343Y-20760989D01*
X48279248Y-20811644D01*
X48310515Y-20869471D01*
X48329956Y-20932272D01*
X48340000Y-21027835D01*
X48340000Y-45518046D01*
X42885532Y-40063579D01*
X42859377Y-40031709D01*
X42732232Y-39927364D01*
X42587173Y-39849828D01*
X42429775Y-39802082D01*
X42307105Y-39790000D01*
X42307104Y-39790000D01*
X42266086Y-39785960D01*
X42225068Y-39790000D01*
X34010000Y-39790000D01*
X34010000Y-38447621D01*
X34020518Y-38450812D01*
X34145000Y-38463072D01*
X34159250Y-38460000D01*
X34318000Y-38301250D01*
X34318000Y-36977000D01*
X34572000Y-36977000D01*
X34572000Y-38301250D01*
X34730750Y-38460000D01*
X34745000Y-38463072D01*
X34869482Y-38450812D01*
X34989180Y-38414502D01*
X35099494Y-38355537D01*
X35196185Y-38276185D01*
X35275537Y-38179494D01*
X35334502Y-38069180D01*
X35370812Y-37949482D01*
X35383072Y-37825000D01*
X35380000Y-37135750D01*
X35221250Y-36977000D01*
X34572000Y-36977000D01*
X34318000Y-36977000D01*
X34298000Y-36977000D01*
X34298000Y-36723000D01*
X34318000Y-36723000D01*
X34318000Y-36703000D01*
X34572000Y-36703000D01*
X34572000Y-36723000D01*
X35221250Y-36723000D01*
X35380000Y-36564250D01*
X35381857Y-36147500D01*
X35629608Y-36147500D01*
X35670626Y-36151540D01*
X35711644Y-36147500D01*
X35711645Y-36147500D01*
X35834315Y-36135418D01*
X35991713Y-36087672D01*
X36136772Y-36010136D01*
X36263917Y-35905791D01*
X36290072Y-35873921D01*
X43203994Y-28960000D01*
X43913984Y-28960000D01*
X43955002Y-28964040D01*
X43996020Y-28960000D01*
X43996021Y-28960000D01*
X44118691Y-28947918D01*
X44276089Y-28900172D01*
X44421148Y-28822636D01*
X44548293Y-28718291D01*
X44574447Y-28686422D01*
X45201434Y-28059437D01*
X45233292Y-28033292D01*
X45292365Y-27961312D01*
X45337637Y-27906147D01*
X45415173Y-27761088D01*
X45462919Y-27603690D01*
X45479041Y-27440001D01*
X45475001Y-27398983D01*
X45475001Y-25021008D01*
X45479040Y-24980000D01*
X45475001Y-24938992D01*
X45475001Y-24938982D01*
X45462919Y-24816312D01*
X45415173Y-24658914D01*
X45337637Y-24513855D01*
X45233292Y-24386710D01*
X45201427Y-24360559D01*
X44848807Y-24007939D01*
X44875000Y-23876260D01*
X44875000Y-23583740D01*
X44817932Y-23296842D01*
X44705990Y-23026589D01*
X44543475Y-22783368D01*
X44336632Y-22576525D01*
X44093411Y-22414010D01*
X43823158Y-22302068D01*
X43536260Y-22245000D01*
X43243740Y-22245000D01*
X42956842Y-22302068D01*
X42686589Y-22414010D01*
X42443368Y-22576525D01*
X42236525Y-22783368D01*
X42120000Y-22957760D01*
X42003475Y-22783368D01*
X41796632Y-22576525D01*
X41553411Y-22414010D01*
X41283158Y-22302068D01*
X40996260Y-22245000D01*
X40703740Y-22245000D01*
X40416842Y-22302068D01*
X40146589Y-22414010D01*
X39903368Y-22576525D01*
X39696525Y-22783368D01*
X39580000Y-22957760D01*
X39463475Y-22783368D01*
X39256632Y-22576525D01*
X39013411Y-22414010D01*
X38743158Y-22302068D01*
X38456260Y-22245000D01*
X38163740Y-22245000D01*
X37876842Y-22302068D01*
X37606589Y-22414010D01*
X37363368Y-22576525D01*
X37156525Y-22783368D01*
X37040000Y-22957760D01*
X36923475Y-22783368D01*
X36716632Y-22576525D01*
X36473411Y-22414010D01*
X36203158Y-22302068D01*
X35916260Y-22245000D01*
X35623740Y-22245000D01*
X35336842Y-22302068D01*
X35066589Y-22414010D01*
X34823368Y-22576525D01*
X34616525Y-22783368D01*
X34500000Y-22957760D01*
X34383475Y-22783368D01*
X34176632Y-22576525D01*
X33933411Y-22414010D01*
X33663158Y-22302068D01*
X33376260Y-22245000D01*
X33083740Y-22245000D01*
X32796842Y-22302068D01*
X32526589Y-22414010D01*
X32283368Y-22576525D01*
X32076525Y-22783368D01*
X31960000Y-22957760D01*
X31843475Y-22783368D01*
X31636632Y-22576525D01*
X31393411Y-22414010D01*
X31123158Y-22302068D01*
X30836260Y-22245000D01*
X30543740Y-22245000D01*
X30256842Y-22302068D01*
X29986589Y-22414010D01*
X29743368Y-22576525D01*
X29536525Y-22783368D01*
X29420000Y-22957760D01*
X29303475Y-22783368D01*
X29096632Y-22576525D01*
X28853411Y-22414010D01*
X28583158Y-22302068D01*
X28296260Y-22245000D01*
X28003740Y-22245000D01*
X27716842Y-22302068D01*
X27446589Y-22414010D01*
X27203368Y-22576525D01*
X26996525Y-22783368D01*
X26880000Y-22957760D01*
X26763475Y-22783368D01*
X26556632Y-22576525D01*
X26313411Y-22414010D01*
X26043158Y-22302068D01*
X25756260Y-22245000D01*
X25463740Y-22245000D01*
X25176842Y-22302068D01*
X24906589Y-22414010D01*
X24663368Y-22576525D01*
X24456525Y-22783368D01*
X24294010Y-23026589D01*
X24182068Y-23296842D01*
X24125000Y-23583740D01*
X24125000Y-23876260D01*
X24182068Y-24163158D01*
X24294010Y-24433411D01*
X24456525Y-24676632D01*
X24663368Y-24883475D01*
X24837760Y-25000000D01*
X24663368Y-25116525D01*
X24456525Y-25323368D01*
X24294010Y-25566589D01*
X24182068Y-25836842D01*
X24125000Y-26123740D01*
X24125000Y-26416260D01*
X24182068Y-26703158D01*
X24294010Y-26973411D01*
X24456525Y-27216632D01*
X24663368Y-27423475D01*
X24720001Y-27461316D01*
X24720000Y-30692814D01*
X24676916Y-30773418D01*
X24632071Y-30921255D01*
X24616928Y-31075000D01*
X24616928Y-32602500D01*
X23478518Y-32602500D01*
X23437500Y-32598460D01*
X23396481Y-32602500D01*
X23273811Y-32614582D01*
X23116413Y-32662328D01*
X22971354Y-32739864D01*
X22844209Y-32844209D01*
X22818061Y-32876071D01*
X22328574Y-33365559D01*
X22296710Y-33391709D01*
X22233861Y-33468291D01*
X22192364Y-33518855D01*
X22114828Y-33663914D01*
X22067082Y-33821312D01*
X22050960Y-33985000D01*
X22055001Y-34026029D01*
X22055000Y-44491935D01*
X21943368Y-44566525D01*
X21736525Y-44773368D01*
X21574010Y-45016589D01*
X21462068Y-45286842D01*
X21405000Y-45573740D01*
X21405000Y-45866260D01*
X21462068Y-46153158D01*
X21574010Y-46423411D01*
X21736525Y-46666632D01*
X21943368Y-46873475D01*
X22055001Y-46948065D01*
X22055000Y-47031935D01*
X21943368Y-47106525D01*
X21736525Y-47313368D01*
X21574010Y-47556589D01*
X21462068Y-47826842D01*
X21405000Y-48113740D01*
X21405000Y-48406260D01*
X21462068Y-48693158D01*
X21574010Y-48963411D01*
X21736525Y-49206632D01*
X21943368Y-49413475D01*
X22055001Y-49488065D01*
X22055000Y-49571935D01*
X21943368Y-49646525D01*
X21736525Y-49853368D01*
X21574010Y-50096589D01*
X21462068Y-50366842D01*
X21405000Y-50653740D01*
X21405000Y-50946260D01*
X21462068Y-51233158D01*
X21574010Y-51503411D01*
X21736525Y-51746632D01*
X21943368Y-51953475D01*
X22055001Y-52028065D01*
X22055000Y-52111935D01*
X21943368Y-52186525D01*
X21736525Y-52393368D01*
X21574010Y-52636589D01*
X21462068Y-52906842D01*
X21405000Y-53193740D01*
X21405000Y-53486260D01*
X21462068Y-53773158D01*
X21574010Y-54043411D01*
X21736525Y-54286632D01*
X21943368Y-54493475D01*
X22117760Y-54610000D01*
X21943368Y-54726525D01*
X21736525Y-54933368D01*
X21574010Y-55176589D01*
X21462068Y-55446842D01*
X21405000Y-55733740D01*
X21405000Y-56026260D01*
X21462068Y-56313158D01*
X21574010Y-56583411D01*
X21736525Y-56826632D01*
X21943368Y-57033475D01*
X22055001Y-57108065D01*
X22055000Y-57191935D01*
X21943368Y-57266525D01*
X21736525Y-57473368D01*
X21574010Y-57716589D01*
X21462068Y-57986842D01*
X21405000Y-58273740D01*
X21405000Y-58566260D01*
X21462068Y-58853158D01*
X21574010Y-59123411D01*
X21736525Y-59366632D01*
X21943368Y-59573475D01*
X22055001Y-59648065D01*
X22055000Y-59731935D01*
X21943368Y-59806525D01*
X21736525Y-60013368D01*
X21574010Y-60256589D01*
X21462068Y-60526842D01*
X21405000Y-60813740D01*
X21405000Y-61106260D01*
X21462068Y-61393158D01*
X21574010Y-61663411D01*
X21736525Y-61906632D01*
X21943368Y-62113475D01*
X22055001Y-62188065D01*
X22055000Y-62271935D01*
X21943368Y-62346525D01*
X21736525Y-62553368D01*
X21574010Y-62796589D01*
X21462068Y-63066842D01*
X21405000Y-63353740D01*
X21405000Y-63646260D01*
X21462068Y-63933158D01*
X21574010Y-64203411D01*
X21736525Y-64446632D01*
X21943368Y-64653475D01*
X22186589Y-64815990D01*
X22456842Y-64927932D01*
X22743740Y-64985000D01*
X23036260Y-64985000D01*
X23323158Y-64927932D01*
X23593411Y-64815990D01*
X23836632Y-64653475D01*
X23968487Y-64521620D01*
X23990498Y-64594180D01*
X24049463Y-64704494D01*
X24128815Y-64801185D01*
X24225506Y-64880537D01*
X24335820Y-64939502D01*
X24455518Y-64975812D01*
X24580000Y-64988072D01*
X26280000Y-64988072D01*
X26404482Y-64975812D01*
X26524180Y-64939502D01*
X26634494Y-64880537D01*
X26731185Y-64801185D01*
X26810537Y-64704494D01*
X26869502Y-64594180D01*
X26905812Y-64474482D01*
X26918072Y-64350000D01*
X26918072Y-64335000D01*
X27357317Y-64335000D01*
X27394463Y-64404494D01*
X27473815Y-64501185D01*
X27570506Y-64580537D01*
X27680820Y-64639502D01*
X27800518Y-64675812D01*
X27925000Y-64688072D01*
X29025000Y-64688072D01*
X29149482Y-64675812D01*
X29269180Y-64639502D01*
X29379494Y-64580537D01*
X29476185Y-64501185D01*
X29555537Y-64404494D01*
X29614502Y-64294180D01*
X29650812Y-64174482D01*
X29663072Y-64050000D01*
X29663072Y-62950000D01*
X30086928Y-62950000D01*
X30086928Y-64050000D01*
X30099188Y-64174482D01*
X30135498Y-64294180D01*
X30194463Y-64404494D01*
X30273815Y-64501185D01*
X30370506Y-64580537D01*
X30480820Y-64639502D01*
X30600518Y-64675812D01*
X30725000Y-64688072D01*
X31825000Y-64688072D01*
X31949482Y-64675812D01*
X32069180Y-64639502D01*
X32179494Y-64580537D01*
X32250214Y-64522499D01*
X32313061Y-64535000D01*
X32516939Y-64535000D01*
X32716898Y-64495226D01*
X32905256Y-64417205D01*
X33074774Y-64303937D01*
X33218937Y-64159774D01*
X33332205Y-63990256D01*
X33410226Y-63801898D01*
X33450000Y-63601939D01*
X33450000Y-63398061D01*
X33410226Y-63198102D01*
X33332205Y-63009744D01*
X33218937Y-62840226D01*
X33074774Y-62696063D01*
X32905256Y-62582795D01*
X32716898Y-62504774D01*
X32516939Y-62465000D01*
X32313061Y-62465000D01*
X32250214Y-62477501D01*
X32179494Y-62419463D01*
X32069180Y-62360498D01*
X31949482Y-62324188D01*
X31825000Y-62311928D01*
X30725000Y-62311928D01*
X30600518Y-62324188D01*
X30480820Y-62360498D01*
X30370506Y-62419463D01*
X30273815Y-62498815D01*
X30194463Y-62595506D01*
X30135498Y-62705820D01*
X30099188Y-62825518D01*
X30086928Y-62950000D01*
X29663072Y-62950000D01*
X29650812Y-62825518D01*
X29614502Y-62705820D01*
X29555537Y-62595506D01*
X29476185Y-62498815D01*
X29379494Y-62419463D01*
X29269180Y-62360498D01*
X29149482Y-62324188D01*
X29025000Y-62311928D01*
X27925000Y-62311928D01*
X27800518Y-62324188D01*
X27680820Y-62360498D01*
X27570506Y-62419463D01*
X27473815Y-62498815D01*
X27394463Y-62595506D01*
X27357317Y-62665000D01*
X26918072Y-62665000D01*
X26918072Y-62650000D01*
X26905812Y-62525518D01*
X26869502Y-62405820D01*
X26810537Y-62295506D01*
X26731185Y-62198815D01*
X26634494Y-62119463D01*
X26524180Y-62060498D01*
X26451620Y-62038487D01*
X26583475Y-61906632D01*
X26658065Y-61795000D01*
X27357317Y-61795000D01*
X27394463Y-61864494D01*
X27473815Y-61961185D01*
X27570506Y-62040537D01*
X27680820Y-62099502D01*
X27800518Y-62135812D01*
X27925000Y-62148072D01*
X29025000Y-62148072D01*
X29149482Y-62135812D01*
X29269180Y-62099502D01*
X29379494Y-62040537D01*
X29476185Y-61961185D01*
X29555537Y-61864494D01*
X29614502Y-61754180D01*
X29650812Y-61634482D01*
X29663072Y-61510000D01*
X29663072Y-60410000D01*
X30086928Y-60410000D01*
X30086928Y-61510000D01*
X30099188Y-61634482D01*
X30135498Y-61754180D01*
X30194463Y-61864494D01*
X30273815Y-61961185D01*
X30370506Y-62040537D01*
X30480820Y-62099502D01*
X30600518Y-62135812D01*
X30725000Y-62148072D01*
X31825000Y-62148072D01*
X31949482Y-62135812D01*
X32069180Y-62099502D01*
X32179494Y-62040537D01*
X32250214Y-61982499D01*
X32313061Y-61995000D01*
X32516939Y-61995000D01*
X32716898Y-61955226D01*
X32905256Y-61877205D01*
X33074774Y-61763937D01*
X33218937Y-61619774D01*
X33332205Y-61450256D01*
X33410226Y-61261898D01*
X33450000Y-61061939D01*
X33450000Y-60858061D01*
X33410226Y-60658102D01*
X33332205Y-60469744D01*
X33218937Y-60300226D01*
X33074774Y-60156063D01*
X32905256Y-60042795D01*
X32716898Y-59964774D01*
X32516939Y-59925000D01*
X32313061Y-59925000D01*
X32250214Y-59937501D01*
X32179494Y-59879463D01*
X32069180Y-59820498D01*
X31949482Y-59784188D01*
X31825000Y-59771928D01*
X30725000Y-59771928D01*
X30600518Y-59784188D01*
X30480820Y-59820498D01*
X30370506Y-59879463D01*
X30273815Y-59958815D01*
X30194463Y-60055506D01*
X30135498Y-60165820D01*
X30099188Y-60285518D01*
X30086928Y-60410000D01*
X29663072Y-60410000D01*
X29650812Y-60285518D01*
X29614502Y-60165820D01*
X29555537Y-60055506D01*
X29476185Y-59958815D01*
X29379494Y-59879463D01*
X29269180Y-59820498D01*
X29149482Y-59784188D01*
X29025000Y-59771928D01*
X27925000Y-59771928D01*
X27800518Y-59784188D01*
X27680820Y-59820498D01*
X27570506Y-59879463D01*
X27473815Y-59958815D01*
X27394463Y-60055506D01*
X27357317Y-60125000D01*
X26658065Y-60125000D01*
X26583475Y-60013368D01*
X26376632Y-59806525D01*
X26202240Y-59690000D01*
X26376632Y-59573475D01*
X26583475Y-59366632D01*
X26658065Y-59255000D01*
X27357317Y-59255000D01*
X27394463Y-59324494D01*
X27473815Y-59421185D01*
X27570506Y-59500537D01*
X27680820Y-59559502D01*
X27800518Y-59595812D01*
X27925000Y-59608072D01*
X29025000Y-59608072D01*
X29149482Y-59595812D01*
X29269180Y-59559502D01*
X29379494Y-59500537D01*
X29476185Y-59421185D01*
X29555537Y-59324494D01*
X29614502Y-59214180D01*
X29650812Y-59094482D01*
X29663072Y-58970000D01*
X29663072Y-57870000D01*
X30086928Y-57870000D01*
X30086928Y-58970000D01*
X30099188Y-59094482D01*
X30135498Y-59214180D01*
X30194463Y-59324494D01*
X30273815Y-59421185D01*
X30370506Y-59500537D01*
X30480820Y-59559502D01*
X30600518Y-59595812D01*
X30725000Y-59608072D01*
X31825000Y-59608072D01*
X31949482Y-59595812D01*
X32069180Y-59559502D01*
X32179494Y-59500537D01*
X32250214Y-59442499D01*
X32313061Y-59455000D01*
X32516939Y-59455000D01*
X32716898Y-59415226D01*
X32905256Y-59337205D01*
X33074774Y-59223937D01*
X33218937Y-59079774D01*
X33332205Y-58910256D01*
X33410226Y-58721898D01*
X33450000Y-58521939D01*
X33450000Y-58318061D01*
X33410226Y-58118102D01*
X33332205Y-57929744D01*
X33218937Y-57760226D01*
X33074774Y-57616063D01*
X32905256Y-57502795D01*
X32716898Y-57424774D01*
X32516939Y-57385000D01*
X32313061Y-57385000D01*
X32250214Y-57397501D01*
X32179494Y-57339463D01*
X32069180Y-57280498D01*
X31949482Y-57244188D01*
X31825000Y-57231928D01*
X30725000Y-57231928D01*
X30600518Y-57244188D01*
X30480820Y-57280498D01*
X30370506Y-57339463D01*
X30273815Y-57418815D01*
X30194463Y-57515506D01*
X30135498Y-57625820D01*
X30099188Y-57745518D01*
X30086928Y-57870000D01*
X29663072Y-57870000D01*
X29650812Y-57745518D01*
X29614502Y-57625820D01*
X29555537Y-57515506D01*
X29476185Y-57418815D01*
X29379494Y-57339463D01*
X29269180Y-57280498D01*
X29149482Y-57244188D01*
X29025000Y-57231928D01*
X27925000Y-57231928D01*
X27800518Y-57244188D01*
X27680820Y-57280498D01*
X27570506Y-57339463D01*
X27473815Y-57418815D01*
X27394463Y-57515506D01*
X27357317Y-57585000D01*
X26658065Y-57585000D01*
X26583475Y-57473368D01*
X26376632Y-57266525D01*
X26202240Y-57150000D01*
X26376632Y-57033475D01*
X26583475Y-56826632D01*
X26658065Y-56715000D01*
X27357317Y-56715000D01*
X27394463Y-56784494D01*
X27473815Y-56881185D01*
X27570506Y-56960537D01*
X27680820Y-57019502D01*
X27800518Y-57055812D01*
X27925000Y-57068072D01*
X29025000Y-57068072D01*
X29149482Y-57055812D01*
X29269180Y-57019502D01*
X29379494Y-56960537D01*
X29476185Y-56881185D01*
X29555537Y-56784494D01*
X29614502Y-56674180D01*
X29650812Y-56554482D01*
X29663072Y-56430000D01*
X29663072Y-55330000D01*
X30086928Y-55330000D01*
X30086928Y-56430000D01*
X30099188Y-56554482D01*
X30135498Y-56674180D01*
X30194463Y-56784494D01*
X30273815Y-56881185D01*
X30370506Y-56960537D01*
X30480820Y-57019502D01*
X30600518Y-57055812D01*
X30725000Y-57068072D01*
X31825000Y-57068072D01*
X31949482Y-57055812D01*
X32069180Y-57019502D01*
X32179494Y-56960537D01*
X32250214Y-56902499D01*
X32313061Y-56915000D01*
X32516939Y-56915000D01*
X32716898Y-56875226D01*
X32905256Y-56797205D01*
X33074774Y-56683937D01*
X33218937Y-56539774D01*
X33332205Y-56370256D01*
X33410226Y-56181898D01*
X33450000Y-55981939D01*
X33450000Y-55778061D01*
X33410226Y-55578102D01*
X33332205Y-55389744D01*
X33218937Y-55220226D01*
X33074774Y-55076063D01*
X32905256Y-54962795D01*
X32716898Y-54884774D01*
X32516939Y-54845000D01*
X32313061Y-54845000D01*
X32250214Y-54857501D01*
X32179494Y-54799463D01*
X32069180Y-54740498D01*
X31949482Y-54704188D01*
X31825000Y-54691928D01*
X30725000Y-54691928D01*
X30600518Y-54704188D01*
X30480820Y-54740498D01*
X30370506Y-54799463D01*
X30273815Y-54878815D01*
X30194463Y-54975506D01*
X30135498Y-55085820D01*
X30099188Y-55205518D01*
X30086928Y-55330000D01*
X29663072Y-55330000D01*
X29650812Y-55205518D01*
X29614502Y-55085820D01*
X29555537Y-54975506D01*
X29476185Y-54878815D01*
X29379494Y-54799463D01*
X29269180Y-54740498D01*
X29149482Y-54704188D01*
X29025000Y-54691928D01*
X27925000Y-54691928D01*
X27800518Y-54704188D01*
X27680820Y-54740498D01*
X27570506Y-54799463D01*
X27473815Y-54878815D01*
X27394463Y-54975506D01*
X27357317Y-55045000D01*
X26658065Y-55045000D01*
X26583475Y-54933368D01*
X26376632Y-54726525D01*
X26202240Y-54610000D01*
X26376632Y-54493475D01*
X26583475Y-54286632D01*
X26658065Y-54175000D01*
X27357317Y-54175000D01*
X27394463Y-54244494D01*
X27473815Y-54341185D01*
X27570506Y-54420537D01*
X27680820Y-54479502D01*
X27800518Y-54515812D01*
X27925000Y-54528072D01*
X29025000Y-54528072D01*
X29149482Y-54515812D01*
X29269180Y-54479502D01*
X29379494Y-54420537D01*
X29476185Y-54341185D01*
X29555537Y-54244494D01*
X29614502Y-54134180D01*
X29650812Y-54014482D01*
X29663072Y-53890000D01*
X29663072Y-52790000D01*
X30086928Y-52790000D01*
X30086928Y-53890000D01*
X30099188Y-54014482D01*
X30135498Y-54134180D01*
X30194463Y-54244494D01*
X30273815Y-54341185D01*
X30370506Y-54420537D01*
X30480820Y-54479502D01*
X30600518Y-54515812D01*
X30725000Y-54528072D01*
X31825000Y-54528072D01*
X31949482Y-54515812D01*
X32069180Y-54479502D01*
X32179494Y-54420537D01*
X32250214Y-54362499D01*
X32313061Y-54375000D01*
X32516939Y-54375000D01*
X32716898Y-54335226D01*
X32905256Y-54257205D01*
X33074774Y-54143937D01*
X33218937Y-53999774D01*
X33332205Y-53830256D01*
X33410226Y-53641898D01*
X33450000Y-53441939D01*
X33450000Y-53238061D01*
X33410226Y-53038102D01*
X33332205Y-52849744D01*
X33218937Y-52680226D01*
X33074774Y-52536063D01*
X32905256Y-52422795D01*
X32716898Y-52344774D01*
X32516939Y-52305000D01*
X32313061Y-52305000D01*
X32250214Y-52317501D01*
X32179494Y-52259463D01*
X32069180Y-52200498D01*
X31949482Y-52164188D01*
X31825000Y-52151928D01*
X30725000Y-52151928D01*
X30600518Y-52164188D01*
X30480820Y-52200498D01*
X30370506Y-52259463D01*
X30273815Y-52338815D01*
X30194463Y-52435506D01*
X30135498Y-52545820D01*
X30099188Y-52665518D01*
X30086928Y-52790000D01*
X29663072Y-52790000D01*
X29650812Y-52665518D01*
X29614502Y-52545820D01*
X29555537Y-52435506D01*
X29476185Y-52338815D01*
X29379494Y-52259463D01*
X29269180Y-52200498D01*
X29149482Y-52164188D01*
X29025000Y-52151928D01*
X27925000Y-52151928D01*
X27800518Y-52164188D01*
X27680820Y-52200498D01*
X27570506Y-52259463D01*
X27473815Y-52338815D01*
X27394463Y-52435506D01*
X27357317Y-52505000D01*
X26658065Y-52505000D01*
X26583475Y-52393368D01*
X26376632Y-52186525D01*
X26202240Y-52070000D01*
X26376632Y-51953475D01*
X26583475Y-51746632D01*
X26658065Y-51635000D01*
X27357317Y-51635000D01*
X27394463Y-51704494D01*
X27473815Y-51801185D01*
X27570506Y-51880537D01*
X27680820Y-51939502D01*
X27800518Y-51975812D01*
X27925000Y-51988072D01*
X29025000Y-51988072D01*
X29149482Y-51975812D01*
X29269180Y-51939502D01*
X29379494Y-51880537D01*
X29476185Y-51801185D01*
X29555537Y-51704494D01*
X29614502Y-51594180D01*
X29650812Y-51474482D01*
X29663072Y-51350000D01*
X29663072Y-50250000D01*
X30086928Y-50250000D01*
X30086928Y-51350000D01*
X30099188Y-51474482D01*
X30135498Y-51594180D01*
X30194463Y-51704494D01*
X30273815Y-51801185D01*
X30370506Y-51880537D01*
X30480820Y-51939502D01*
X30600518Y-51975812D01*
X30725000Y-51988072D01*
X31825000Y-51988072D01*
X31949482Y-51975812D01*
X32069180Y-51939502D01*
X32179494Y-51880537D01*
X32250214Y-51822499D01*
X32313061Y-51835000D01*
X32516939Y-51835000D01*
X32716898Y-51795226D01*
X32905256Y-51717205D01*
X33074774Y-51603937D01*
X33218937Y-51459774D01*
X33332205Y-51290256D01*
X33410226Y-51101898D01*
X33450000Y-50901939D01*
X33450000Y-50698061D01*
X33410226Y-50498102D01*
X33332205Y-50309744D01*
X33218937Y-50140226D01*
X33074774Y-49996063D01*
X32905256Y-49882795D01*
X32716898Y-49804774D01*
X32516939Y-49765000D01*
X32313061Y-49765000D01*
X32250214Y-49777501D01*
X32179494Y-49719463D01*
X32069180Y-49660498D01*
X31949482Y-49624188D01*
X31825000Y-49611928D01*
X30725000Y-49611928D01*
X30600518Y-49624188D01*
X30480820Y-49660498D01*
X30370506Y-49719463D01*
X30273815Y-49798815D01*
X30194463Y-49895506D01*
X30135498Y-50005820D01*
X30099188Y-50125518D01*
X30086928Y-50250000D01*
X29663072Y-50250000D01*
X29650812Y-50125518D01*
X29614502Y-50005820D01*
X29555537Y-49895506D01*
X29476185Y-49798815D01*
X29379494Y-49719463D01*
X29269180Y-49660498D01*
X29149482Y-49624188D01*
X29025000Y-49611928D01*
X27925000Y-49611928D01*
X27800518Y-49624188D01*
X27680820Y-49660498D01*
X27570506Y-49719463D01*
X27473815Y-49798815D01*
X27394463Y-49895506D01*
X27357317Y-49965000D01*
X26658065Y-49965000D01*
X26583475Y-49853368D01*
X26376632Y-49646525D01*
X26202240Y-49530000D01*
X26376632Y-49413475D01*
X26583475Y-49206632D01*
X26658065Y-49095000D01*
X27357317Y-49095000D01*
X27394463Y-49164494D01*
X27473815Y-49261185D01*
X27570506Y-49340537D01*
X27680820Y-49399502D01*
X27800518Y-49435812D01*
X27925000Y-49448072D01*
X29025000Y-49448072D01*
X29149482Y-49435812D01*
X29269180Y-49399502D01*
X29379494Y-49340537D01*
X29476185Y-49261185D01*
X29555537Y-49164494D01*
X29614502Y-49054180D01*
X29650812Y-48934482D01*
X29663072Y-48810000D01*
X29663072Y-47710000D01*
X30086928Y-47710000D01*
X30086928Y-48810000D01*
X30099188Y-48934482D01*
X30135498Y-49054180D01*
X30194463Y-49164494D01*
X30273815Y-49261185D01*
X30370506Y-49340537D01*
X30480820Y-49399502D01*
X30600518Y-49435812D01*
X30725000Y-49448072D01*
X31825000Y-49448072D01*
X31949482Y-49435812D01*
X32069180Y-49399502D01*
X32179494Y-49340537D01*
X32250214Y-49282499D01*
X32313061Y-49295000D01*
X32516939Y-49295000D01*
X32716898Y-49255226D01*
X32905256Y-49177205D01*
X33074774Y-49063937D01*
X33218937Y-48919774D01*
X33332205Y-48750256D01*
X33410226Y-48561898D01*
X33450000Y-48361939D01*
X33450000Y-48158061D01*
X33410226Y-47958102D01*
X33332205Y-47769744D01*
X33218937Y-47600226D01*
X33074774Y-47456063D01*
X32905256Y-47342795D01*
X32716898Y-47264774D01*
X32516939Y-47225000D01*
X32313061Y-47225000D01*
X32250214Y-47237501D01*
X32179494Y-47179463D01*
X32069180Y-47120498D01*
X31949482Y-47084188D01*
X31825000Y-47071928D01*
X30725000Y-47071928D01*
X30600518Y-47084188D01*
X30480820Y-47120498D01*
X30370506Y-47179463D01*
X30273815Y-47258815D01*
X30194463Y-47355506D01*
X30135498Y-47465820D01*
X30099188Y-47585518D01*
X30086928Y-47710000D01*
X29663072Y-47710000D01*
X29650812Y-47585518D01*
X29614502Y-47465820D01*
X29555537Y-47355506D01*
X29476185Y-47258815D01*
X29379494Y-47179463D01*
X29269180Y-47120498D01*
X29149482Y-47084188D01*
X29025000Y-47071928D01*
X27925000Y-47071928D01*
X27800518Y-47084188D01*
X27680820Y-47120498D01*
X27570506Y-47179463D01*
X27473815Y-47258815D01*
X27394463Y-47355506D01*
X27357317Y-47425000D01*
X26658065Y-47425000D01*
X26583475Y-47313368D01*
X26376632Y-47106525D01*
X26202240Y-46990000D01*
X26376632Y-46873475D01*
X26583475Y-46666632D01*
X26658065Y-46555000D01*
X27357317Y-46555000D01*
X27394463Y-46624494D01*
X27473815Y-46721185D01*
X27570506Y-46800537D01*
X27680820Y-46859502D01*
X27800518Y-46895812D01*
X27925000Y-46908072D01*
X29025000Y-46908072D01*
X29149482Y-46895812D01*
X29269180Y-46859502D01*
X29379494Y-46800537D01*
X29476185Y-46721185D01*
X29555537Y-46624494D01*
X29614502Y-46514180D01*
X29650812Y-46394482D01*
X29663072Y-46270000D01*
X29663072Y-45170000D01*
X29650812Y-45045518D01*
X29614502Y-44925820D01*
X29555537Y-44815506D01*
X29476185Y-44718815D01*
X29379494Y-44639463D01*
X29277603Y-44585000D01*
X30472397Y-44585000D01*
X30370506Y-44639463D01*
X30273815Y-44718815D01*
X30194463Y-44815506D01*
X30135498Y-44925820D01*
X30099188Y-45045518D01*
X30086928Y-45170000D01*
X30086928Y-46270000D01*
X30099188Y-46394482D01*
X30135498Y-46514180D01*
X30194463Y-46624494D01*
X30273815Y-46721185D01*
X30370506Y-46800537D01*
X30480820Y-46859502D01*
X30600518Y-46895812D01*
X30725000Y-46908072D01*
X31825000Y-46908072D01*
X31949482Y-46895812D01*
X32069180Y-46859502D01*
X32179494Y-46800537D01*
X32250214Y-46742499D01*
X32313061Y-46755000D01*
X32516939Y-46755000D01*
X32716898Y-46715226D01*
X32905256Y-46637205D01*
X33074774Y-46523937D01*
X33218937Y-46379774D01*
X33332205Y-46210256D01*
X33410226Y-46021898D01*
X33450000Y-45821939D01*
X33450000Y-45618061D01*
X33410226Y-45418102D01*
X33332205Y-45229744D01*
X33218937Y-45060226D01*
X33074774Y-44916063D01*
X32905256Y-44802795D01*
X32716898Y-44724774D01*
X32516939Y-44685000D01*
X32313061Y-44685000D01*
X32250214Y-44697501D01*
X32179494Y-44639463D01*
X32077603Y-44585000D01*
X33989893Y-44585000D01*
X33801525Y-44773368D01*
X33639010Y-45016589D01*
X33527068Y-45286842D01*
X33470000Y-45573740D01*
X33470000Y-45866260D01*
X33527068Y-46153158D01*
X33639010Y-46423411D01*
X33801525Y-46666632D01*
X34008368Y-46873475D01*
X34120001Y-46948065D01*
X34120000Y-47031935D01*
X34008368Y-47106525D01*
X33801525Y-47313368D01*
X33639010Y-47556589D01*
X33527068Y-47826842D01*
X33470000Y-48113740D01*
X33470000Y-48406260D01*
X33527068Y-48693158D01*
X33639010Y-48963411D01*
X33801525Y-49206632D01*
X34008368Y-49413475D01*
X34120001Y-49488065D01*
X34120000Y-49571935D01*
X34008368Y-49646525D01*
X33801525Y-49853368D01*
X33639010Y-50096589D01*
X33527068Y-50366842D01*
X33470000Y-50653740D01*
X33470000Y-50946260D01*
X33527068Y-51233158D01*
X33639010Y-51503411D01*
X33801525Y-51746632D01*
X34008368Y-51953475D01*
X34120001Y-52028065D01*
X34120000Y-52111935D01*
X34008368Y-52186525D01*
X33801525Y-52393368D01*
X33639010Y-52636589D01*
X33527068Y-52906842D01*
X33470000Y-53193740D01*
X33470000Y-53486260D01*
X33527068Y-53773158D01*
X33639010Y-54043411D01*
X33801525Y-54286632D01*
X34008368Y-54493475D01*
X34182760Y-54610000D01*
X34008368Y-54726525D01*
X33801525Y-54933368D01*
X33639010Y-55176589D01*
X33527068Y-55446842D01*
X33470000Y-55733740D01*
X33470000Y-56026260D01*
X33527068Y-56313158D01*
X33639010Y-56583411D01*
X33801525Y-56826632D01*
X34008368Y-57033475D01*
X34120000Y-57108065D01*
X34120001Y-57191935D01*
X34008368Y-57266525D01*
X33801525Y-57473368D01*
X33639010Y-57716589D01*
X33527068Y-57986842D01*
X33470000Y-58273740D01*
X33470000Y-58566260D01*
X33527068Y-58853158D01*
X33639010Y-59123411D01*
X33801525Y-59366632D01*
X34008368Y-59573475D01*
X34120001Y-59648065D01*
X34120000Y-59731935D01*
X34008368Y-59806525D01*
X33801525Y-60013368D01*
X33639010Y-60256589D01*
X33527068Y-60526842D01*
X33470000Y-60813740D01*
X33470000Y-61106260D01*
X33527068Y-61393158D01*
X33639010Y-61663411D01*
X33801525Y-61906632D01*
X34008368Y-62113475D01*
X34120001Y-62188065D01*
X34120000Y-62271935D01*
X34008368Y-62346525D01*
X33801525Y-62553368D01*
X33639010Y-62796589D01*
X33527068Y-63066842D01*
X33470000Y-63353740D01*
X33470000Y-63646260D01*
X33527068Y-63933158D01*
X33639010Y-64203411D01*
X33801525Y-64446632D01*
X34008368Y-64653475D01*
X34251589Y-64815990D01*
X34521842Y-64927932D01*
X34808740Y-64985000D01*
X35101260Y-64985000D01*
X35388158Y-64927932D01*
X35658411Y-64815990D01*
X35901632Y-64653475D01*
X36033487Y-64521620D01*
X36055498Y-64594180D01*
X36114463Y-64704494D01*
X36193815Y-64801185D01*
X36290506Y-64880537D01*
X36400820Y-64939502D01*
X36520518Y-64975812D01*
X36645000Y-64988072D01*
X38345000Y-64988072D01*
X38469482Y-64975812D01*
X38589180Y-64939502D01*
X38699494Y-64880537D01*
X38796185Y-64801185D01*
X38875537Y-64704494D01*
X38934502Y-64594180D01*
X38970812Y-64474482D01*
X38983072Y-64350000D01*
X38983072Y-64335000D01*
X39422317Y-64335000D01*
X39459463Y-64404494D01*
X39538815Y-64501185D01*
X39635506Y-64580537D01*
X39745820Y-64639502D01*
X39865518Y-64675812D01*
X39990000Y-64688072D01*
X41090000Y-64688072D01*
X41214482Y-64675812D01*
X41334180Y-64639502D01*
X41444494Y-64580537D01*
X41541185Y-64501185D01*
X41620537Y-64404494D01*
X41679502Y-64294180D01*
X41715812Y-64174482D01*
X41728072Y-64050000D01*
X41728072Y-62950000D01*
X41715812Y-62825518D01*
X41679502Y-62705820D01*
X41620537Y-62595506D01*
X41541185Y-62498815D01*
X41444494Y-62419463D01*
X41334180Y-62360498D01*
X41214482Y-62324188D01*
X41090000Y-62311928D01*
X39990000Y-62311928D01*
X39865518Y-62324188D01*
X39745820Y-62360498D01*
X39635506Y-62419463D01*
X39538815Y-62498815D01*
X39459463Y-62595506D01*
X39422317Y-62665000D01*
X38983072Y-62665000D01*
X38983072Y-62650000D01*
X38970812Y-62525518D01*
X38934502Y-62405820D01*
X38875537Y-62295506D01*
X38796185Y-62198815D01*
X38699494Y-62119463D01*
X38589180Y-62060498D01*
X38516620Y-62038487D01*
X38648475Y-61906632D01*
X38723065Y-61795000D01*
X39422317Y-61795000D01*
X39459463Y-61864494D01*
X39538815Y-61961185D01*
X39635506Y-62040537D01*
X39745820Y-62099502D01*
X39865518Y-62135812D01*
X39990000Y-62148072D01*
X41090000Y-62148072D01*
X41214482Y-62135812D01*
X41334180Y-62099502D01*
X41444494Y-62040537D01*
X41541185Y-61961185D01*
X41620537Y-61864494D01*
X41679502Y-61754180D01*
X41715812Y-61634482D01*
X41728072Y-61510000D01*
X41728072Y-60410000D01*
X41715812Y-60285518D01*
X41679502Y-60165820D01*
X41620537Y-60055506D01*
X41541185Y-59958815D01*
X41444494Y-59879463D01*
X41334180Y-59820498D01*
X41214482Y-59784188D01*
X41090000Y-59771928D01*
X39990000Y-59771928D01*
X39865518Y-59784188D01*
X39745820Y-59820498D01*
X39635506Y-59879463D01*
X39538815Y-59958815D01*
X39459463Y-60055506D01*
X39422317Y-60125000D01*
X38723065Y-60125000D01*
X38648475Y-60013368D01*
X38441632Y-59806525D01*
X38267240Y-59690000D01*
X38441632Y-59573475D01*
X38648475Y-59366632D01*
X38723065Y-59255000D01*
X39422317Y-59255000D01*
X39459463Y-59324494D01*
X39538815Y-59421185D01*
X39635506Y-59500537D01*
X39745820Y-59559502D01*
X39865518Y-59595812D01*
X39990000Y-59608072D01*
X41090000Y-59608072D01*
X41214482Y-59595812D01*
X41334180Y-59559502D01*
X41444494Y-59500537D01*
X41541185Y-59421185D01*
X41620537Y-59324494D01*
X41679502Y-59214180D01*
X41715812Y-59094482D01*
X41728072Y-58970000D01*
X41728072Y-57870000D01*
X41715812Y-57745518D01*
X41679502Y-57625820D01*
X41620537Y-57515506D01*
X41541185Y-57418815D01*
X41444494Y-57339463D01*
X41334180Y-57280498D01*
X41214482Y-57244188D01*
X41090000Y-57231928D01*
X39990000Y-57231928D01*
X39865518Y-57244188D01*
X39745820Y-57280498D01*
X39635506Y-57339463D01*
X39538815Y-57418815D01*
X39459463Y-57515506D01*
X39422317Y-57585000D01*
X38723065Y-57585000D01*
X38648475Y-57473368D01*
X38441632Y-57266525D01*
X38267240Y-57150000D01*
X38441632Y-57033475D01*
X38648475Y-56826632D01*
X38723065Y-56715000D01*
X39422317Y-56715000D01*
X39459463Y-56784494D01*
X39538815Y-56881185D01*
X39635506Y-56960537D01*
X39745820Y-57019502D01*
X39865518Y-57055812D01*
X39990000Y-57068072D01*
X41090000Y-57068072D01*
X41214482Y-57055812D01*
X41334180Y-57019502D01*
X41444494Y-56960537D01*
X41541185Y-56881185D01*
X41620537Y-56784494D01*
X41679502Y-56674180D01*
X41715812Y-56554482D01*
X41728072Y-56430000D01*
X41728072Y-55330000D01*
X41715812Y-55205518D01*
X41679502Y-55085820D01*
X41620537Y-54975506D01*
X41541185Y-54878815D01*
X41444494Y-54799463D01*
X41334180Y-54740498D01*
X41214482Y-54704188D01*
X41090000Y-54691928D01*
X39990000Y-54691928D01*
X39865518Y-54704188D01*
X39745820Y-54740498D01*
X39635506Y-54799463D01*
X39538815Y-54878815D01*
X39459463Y-54975506D01*
X39422317Y-55045000D01*
X38723065Y-55045000D01*
X38648475Y-54933368D01*
X38441632Y-54726525D01*
X38267240Y-54610000D01*
X38441632Y-54493475D01*
X38648475Y-54286632D01*
X38723065Y-54175000D01*
X39422317Y-54175000D01*
X39459463Y-54244494D01*
X39538815Y-54341185D01*
X39635506Y-54420537D01*
X39745820Y-54479502D01*
X39865518Y-54515812D01*
X39990000Y-54528072D01*
X41090000Y-54528072D01*
X41214482Y-54515812D01*
X41334180Y-54479502D01*
X41444494Y-54420537D01*
X41541185Y-54341185D01*
X41620537Y-54244494D01*
X41679502Y-54134180D01*
X41715812Y-54014482D01*
X41728072Y-53890000D01*
X41728072Y-52790000D01*
X41715812Y-52665518D01*
X41679502Y-52545820D01*
X41620537Y-52435506D01*
X41541185Y-52338815D01*
X41444494Y-52259463D01*
X41334180Y-52200498D01*
X41214482Y-52164188D01*
X41090000Y-52151928D01*
X39990000Y-52151928D01*
X39865518Y-52164188D01*
X39745820Y-52200498D01*
X39635506Y-52259463D01*
X39538815Y-52338815D01*
X39459463Y-52435506D01*
X39422317Y-52505000D01*
X38723065Y-52505000D01*
X38648475Y-52393368D01*
X38441632Y-52186525D01*
X38267240Y-52070000D01*
X38441632Y-51953475D01*
X38648475Y-51746632D01*
X38723065Y-51635000D01*
X39422317Y-51635000D01*
X39459463Y-51704494D01*
X39538815Y-51801185D01*
X39635506Y-51880537D01*
X39745820Y-51939502D01*
X39865518Y-51975812D01*
X39990000Y-51988072D01*
X41090000Y-51988072D01*
X41214482Y-51975812D01*
X41334180Y-51939502D01*
X41444494Y-51880537D01*
X41541185Y-51801185D01*
X41620537Y-51704494D01*
X41679502Y-51594180D01*
X41715812Y-51474482D01*
X41728072Y-51350000D01*
X41728072Y-50250000D01*
X41715812Y-50125518D01*
X41679502Y-50005820D01*
X41620537Y-49895506D01*
X41541185Y-49798815D01*
X41444494Y-49719463D01*
X41334180Y-49660498D01*
X41214482Y-49624188D01*
X41090000Y-49611928D01*
X39990000Y-49611928D01*
X39865518Y-49624188D01*
X39745820Y-49660498D01*
X39635506Y-49719463D01*
X39538815Y-49798815D01*
X39459463Y-49895506D01*
X39422317Y-49965000D01*
X38723065Y-49965000D01*
X38648475Y-49853368D01*
X38441632Y-49646525D01*
X38267240Y-49530000D01*
X38441632Y-49413475D01*
X38648475Y-49206632D01*
X38723065Y-49095000D01*
X39422317Y-49095000D01*
X39459463Y-49164494D01*
X39538815Y-49261185D01*
X39635506Y-49340537D01*
X39745820Y-49399502D01*
X39865518Y-49435812D01*
X39990000Y-49448072D01*
X41090000Y-49448072D01*
X41214482Y-49435812D01*
X41334180Y-49399502D01*
X41444494Y-49340537D01*
X41541185Y-49261185D01*
X41620537Y-49164494D01*
X41679502Y-49054180D01*
X41715812Y-48934482D01*
X41728072Y-48810000D01*
X41728072Y-47710000D01*
X41715812Y-47585518D01*
X41679502Y-47465820D01*
X41620537Y-47355506D01*
X41541185Y-47258815D01*
X41444494Y-47179463D01*
X41334180Y-47120498D01*
X41214482Y-47084188D01*
X41090000Y-47071928D01*
X39990000Y-47071928D01*
X39865518Y-47084188D01*
X39745820Y-47120498D01*
X39635506Y-47179463D01*
X39538815Y-47258815D01*
X39459463Y-47355506D01*
X39422317Y-47425000D01*
X38723065Y-47425000D01*
X38648475Y-47313368D01*
X38441632Y-47106525D01*
X38267240Y-46990000D01*
X38441632Y-46873475D01*
X38648475Y-46666632D01*
X38723065Y-46555000D01*
X39422317Y-46555000D01*
X39459463Y-46624494D01*
X39538815Y-46721185D01*
X39635506Y-46800537D01*
X39745820Y-46859502D01*
X39865518Y-46895812D01*
X39990000Y-46908072D01*
X41090000Y-46908072D01*
X41214482Y-46895812D01*
X41334180Y-46859502D01*
X41444494Y-46800537D01*
X41541185Y-46721185D01*
X41620537Y-46624494D01*
X41679502Y-46514180D01*
X41715812Y-46394482D01*
X41728072Y-46270000D01*
X41728072Y-45170000D01*
X41715812Y-45045518D01*
X41679502Y-44925820D01*
X41620537Y-44815506D01*
X41541185Y-44718815D01*
X41444494Y-44639463D01*
X41334180Y-44580498D01*
X41214482Y-44544188D01*
X41090000Y-44531928D01*
X39990000Y-44531928D01*
X39865518Y-44544188D01*
X39745820Y-44580498D01*
X39635506Y-44639463D01*
X39538815Y-44718815D01*
X39459463Y-44815506D01*
X39422317Y-44885000D01*
X38723065Y-44885000D01*
X38648475Y-44773368D01*
X38441632Y-44566525D01*
X38198411Y-44404010D01*
X37928158Y-44292068D01*
X37641260Y-44235000D01*
X37348740Y-44235000D01*
X37079999Y-44288456D01*
X37079999Y-44098517D01*
X37084039Y-44057499D01*
X37067917Y-43893811D01*
X37020171Y-43736412D01*
X36942635Y-43591353D01*
X36864438Y-43496069D01*
X36864436Y-43496067D01*
X36838290Y-43464208D01*
X36806431Y-43438062D01*
X36703369Y-43335000D01*
X40914133Y-43335000D01*
X42320394Y-44741262D01*
X42259463Y-44815506D01*
X42200498Y-44925820D01*
X42164188Y-45045518D01*
X42151928Y-45170000D01*
X42151928Y-46270000D01*
X42164188Y-46394482D01*
X42200498Y-46514180D01*
X42259463Y-46624494D01*
X42338815Y-46721185D01*
X42435506Y-46800537D01*
X42545820Y-46859502D01*
X42665518Y-46895812D01*
X42790000Y-46908072D01*
X43890000Y-46908072D01*
X44014482Y-46895812D01*
X44134180Y-46859502D01*
X44244494Y-46800537D01*
X44315214Y-46742499D01*
X44323225Y-46744093D01*
X44445002Y-46865870D01*
X44445002Y-47225000D01*
X44378061Y-47225000D01*
X44315214Y-47237501D01*
X44244494Y-47179463D01*
X44134180Y-47120498D01*
X44014482Y-47084188D01*
X43890000Y-47071928D01*
X42790000Y-47071928D01*
X42665518Y-47084188D01*
X42545820Y-47120498D01*
X42435506Y-47179463D01*
X42338815Y-47258815D01*
X42259463Y-47355506D01*
X42200498Y-47465820D01*
X42164188Y-47585518D01*
X42151928Y-47710000D01*
X42151928Y-48810000D01*
X42164188Y-48934482D01*
X42200498Y-49054180D01*
X42259463Y-49164494D01*
X42338815Y-49261185D01*
X42435506Y-49340537D01*
X42545820Y-49399502D01*
X42665518Y-49435812D01*
X42790000Y-49448072D01*
X43890000Y-49448072D01*
X44014482Y-49435812D01*
X44134180Y-49399502D01*
X44244494Y-49340537D01*
X44315214Y-49282499D01*
X44378061Y-49295000D01*
X44445002Y-49295000D01*
X44445002Y-49765000D01*
X44378061Y-49765000D01*
X44315214Y-49777501D01*
X44244494Y-49719463D01*
X44134180Y-49660498D01*
X44014482Y-49624188D01*
X43890000Y-49611928D01*
X42790000Y-49611928D01*
X42665518Y-49624188D01*
X42545820Y-49660498D01*
X42435506Y-49719463D01*
X42338815Y-49798815D01*
X42259463Y-49895506D01*
X42200498Y-50005820D01*
X42164188Y-50125518D01*
X42151928Y-50250000D01*
X42151928Y-51350000D01*
X42164188Y-51474482D01*
X42200498Y-51594180D01*
X42259463Y-51704494D01*
X42338815Y-51801185D01*
X42435506Y-51880537D01*
X42545820Y-51939502D01*
X42665518Y-51975812D01*
X42790000Y-51988072D01*
X43890000Y-51988072D01*
X44014482Y-51975812D01*
X44134180Y-51939502D01*
X44244494Y-51880537D01*
X44315214Y-51822499D01*
X44378061Y-51835000D01*
X44445001Y-51835000D01*
X44445001Y-52305000D01*
X44378061Y-52305000D01*
X44315214Y-52317501D01*
X44244494Y-52259463D01*
X44134180Y-52200498D01*
X44014482Y-52164188D01*
X43890000Y-52151928D01*
X42790000Y-52151928D01*
X42665518Y-52164188D01*
X42545820Y-52200498D01*
X42435506Y-52259463D01*
X42338815Y-52338815D01*
X42259463Y-52435506D01*
X42200498Y-52545820D01*
X42164188Y-52665518D01*
X42151928Y-52790000D01*
X42151928Y-53890000D01*
X42164188Y-54014482D01*
X42200498Y-54134180D01*
X42259463Y-54244494D01*
X42338815Y-54341185D01*
X42435506Y-54420537D01*
X42545820Y-54479502D01*
X42665518Y-54515812D01*
X42790000Y-54528072D01*
X43890000Y-54528072D01*
X44014482Y-54515812D01*
X44134180Y-54479502D01*
X44244494Y-54420537D01*
X44315214Y-54362499D01*
X44378061Y-54375000D01*
X44445001Y-54375000D01*
X44445001Y-54734131D01*
X44323225Y-54855907D01*
X44315214Y-54857501D01*
X44244494Y-54799463D01*
X44134180Y-54740498D01*
X44014482Y-54704188D01*
X43890000Y-54691928D01*
X42790000Y-54691928D01*
X42665518Y-54704188D01*
X42545820Y-54740498D01*
X42435506Y-54799463D01*
X42338815Y-54878815D01*
X42259463Y-54975506D01*
X42200498Y-55085820D01*
X42164188Y-55205518D01*
X42151928Y-55330000D01*
X42151928Y-56430000D01*
X42164188Y-56554482D01*
X42200498Y-56674180D01*
X42259463Y-56784494D01*
X42338815Y-56881185D01*
X42435506Y-56960537D01*
X42545820Y-57019502D01*
X42665518Y-57055812D01*
X42790000Y-57068072D01*
X43890000Y-57068072D01*
X44014482Y-57055812D01*
X44134180Y-57019502D01*
X44244494Y-56960537D01*
X44315214Y-56902499D01*
X44378061Y-56915000D01*
X44581939Y-56915000D01*
X44781898Y-56875226D01*
X44887753Y-56831379D01*
X44323225Y-57395907D01*
X44315214Y-57397501D01*
X44244494Y-57339463D01*
X44134180Y-57280498D01*
X44014482Y-57244188D01*
X43890000Y-57231928D01*
X42790000Y-57231928D01*
X42665518Y-57244188D01*
X42545820Y-57280498D01*
X42435506Y-57339463D01*
X42338815Y-57418815D01*
X42259463Y-57515506D01*
X42200498Y-57625820D01*
X42164188Y-57745518D01*
X42151928Y-57870000D01*
X42151928Y-58970000D01*
X42164188Y-59094482D01*
X42200498Y-59214180D01*
X42259463Y-59324494D01*
X42338815Y-59421185D01*
X42435506Y-59500537D01*
X42545820Y-59559502D01*
X42665518Y-59595812D01*
X42790000Y-59608072D01*
X43890000Y-59608072D01*
X44014482Y-59595812D01*
X44134180Y-59559502D01*
X44244494Y-59500537D01*
X44315214Y-59442499D01*
X44378061Y-59455000D01*
X44581939Y-59455000D01*
X44781898Y-59415226D01*
X44887753Y-59371379D01*
X44323225Y-59935907D01*
X44315214Y-59937501D01*
X44244494Y-59879463D01*
X44134180Y-59820498D01*
X44014482Y-59784188D01*
X43890000Y-59771928D01*
X42790000Y-59771928D01*
X42665518Y-59784188D01*
X42545820Y-59820498D01*
X42435506Y-59879463D01*
X42338815Y-59958815D01*
X42259463Y-60055506D01*
X42200498Y-60165820D01*
X42164188Y-60285518D01*
X42151928Y-60410000D01*
X42151928Y-61510000D01*
X42164188Y-61634482D01*
X42200498Y-61754180D01*
X42259463Y-61864494D01*
X42338815Y-61961185D01*
X42435506Y-62040537D01*
X42545820Y-62099502D01*
X42665518Y-62135812D01*
X42790000Y-62148072D01*
X43890000Y-62148072D01*
X44014482Y-62135812D01*
X44134180Y-62099502D01*
X44244494Y-62040537D01*
X44315214Y-61982499D01*
X44378061Y-61995000D01*
X44581939Y-61995000D01*
X44781898Y-61955226D01*
X44887753Y-61911379D01*
X44323225Y-62475907D01*
X44315214Y-62477501D01*
X44244494Y-62419463D01*
X44134180Y-62360498D01*
X44014482Y-62324188D01*
X43890000Y-62311928D01*
X42790000Y-62311928D01*
X42665518Y-62324188D01*
X42545820Y-62360498D01*
X42435506Y-62419463D01*
X42338815Y-62498815D01*
X42259463Y-62595506D01*
X42200498Y-62705820D01*
X42164188Y-62825518D01*
X42151928Y-62950000D01*
X42151928Y-64050000D01*
X42164188Y-64174482D01*
X42200498Y-64294180D01*
X42259463Y-64404494D01*
X42338815Y-64501185D01*
X42435506Y-64580537D01*
X42545820Y-64639502D01*
X42665518Y-64675812D01*
X42790000Y-64688072D01*
X43890000Y-64688072D01*
X44014482Y-64675812D01*
X44134180Y-64639502D01*
X44244494Y-64580537D01*
X44315214Y-64522499D01*
X44378061Y-64535000D01*
X44581939Y-64535000D01*
X44781898Y-64495226D01*
X44970256Y-64417205D01*
X45139774Y-64303937D01*
X45283937Y-64159774D01*
X45397205Y-63990256D01*
X45475226Y-63801898D01*
X45504093Y-63656775D01*
X48340001Y-60820868D01*
X48340001Y-72967711D01*
X48330420Y-73065424D01*
X48311420Y-73128357D01*
X48280554Y-73186406D01*
X48239011Y-73237343D01*
X48188356Y-73279248D01*
X48130529Y-73310515D01*
X48067728Y-73329956D01*
X47971252Y-73340096D01*
X47969782Y-73340101D01*
X47941095Y-73343014D01*
X47912257Y-73342813D01*
X47903086Y-73343713D01*
X47126699Y-73425315D01*
X47068106Y-73437342D01*
X47009342Y-73448552D01*
X47000520Y-73451215D01*
X46254771Y-73682063D01*
X46199608Y-73705251D01*
X46144162Y-73727653D01*
X46136026Y-73731979D01*
X45449316Y-74103282D01*
X45399741Y-74136721D01*
X45349670Y-74169486D01*
X45342529Y-74175311D01*
X44741017Y-74672924D01*
X44698863Y-74715374D01*
X44656127Y-74757224D01*
X44650253Y-74764324D01*
X44156852Y-75369295D01*
X44123764Y-75419096D01*
X44089953Y-75468476D01*
X44085570Y-75476582D01*
X43719071Y-76165867D01*
X43696280Y-76221161D01*
X43672710Y-76276154D01*
X43669985Y-76284957D01*
X43444348Y-77032302D01*
X43432725Y-77091005D01*
X43420292Y-77149494D01*
X43419329Y-77158658D01*
X43343151Y-77935581D01*
X43343150Y-77935595D01*
X43330420Y-78065424D01*
X43311420Y-78128357D01*
X43280554Y-78186406D01*
X43239011Y-78237343D01*
X43188356Y-78279248D01*
X43130529Y-78310515D01*
X43067728Y-78329956D01*
X42972165Y-78340000D01*
X36175645Y-78340000D01*
X36265396Y-78302824D01*
X36875824Y-77894950D01*
X37394950Y-77375824D01*
X37802824Y-76765396D01*
X38083773Y-76087126D01*
X38227000Y-75367077D01*
X38227000Y-74632923D01*
X38083773Y-73912874D01*
X37802824Y-73234604D01*
X37394950Y-72624176D01*
X36875824Y-72105050D01*
X36265396Y-71697176D01*
X35587126Y-71416227D01*
X34867077Y-71273000D01*
X34132923Y-71273000D01*
X33412874Y-71416227D01*
X32734604Y-71697176D01*
X32124176Y-72105050D01*
X31605050Y-72624176D01*
X31197176Y-73234604D01*
X30916227Y-73912874D01*
X30773000Y-74632923D01*
X30773000Y-75367077D01*
X30916227Y-76087126D01*
X31197176Y-76765396D01*
X31605050Y-77375824D01*
X32124176Y-77894950D01*
X32734604Y-78302824D01*
X32824355Y-78340000D01*
X26032279Y-78340000D01*
X25934576Y-78330420D01*
X25871643Y-78311420D01*
X25813594Y-78280554D01*
X25762657Y-78239011D01*
X25720752Y-78188356D01*
X25689485Y-78130529D01*
X25670044Y-78067728D01*
X25659904Y-77971252D01*
X25659899Y-77969782D01*
X25656986Y-77941095D01*
X25657187Y-77912257D01*
X25656287Y-77903086D01*
X25574685Y-77126699D01*
X25562658Y-77068106D01*
X25551448Y-77009342D01*
X25548785Y-77000520D01*
X25317937Y-76254771D01*
X25294749Y-76199608D01*
X25272347Y-76144162D01*
X25268021Y-76136026D01*
X24896718Y-75449316D01*
X24863279Y-75399741D01*
X24830514Y-75349670D01*
X24824689Y-75342529D01*
X24327076Y-74741017D01*
X24284621Y-74698858D01*
X24242776Y-74656127D01*
X24235676Y-74650253D01*
X23630705Y-74156852D01*
X23580904Y-74123764D01*
X23531524Y-74089953D01*
X23523418Y-74085570D01*
X22834133Y-73719071D01*
X22778839Y-73696280D01*
X22723846Y-73672710D01*
X22715043Y-73669985D01*
X21967698Y-73444348D01*
X21908995Y-73432725D01*
X21850506Y-73420292D01*
X21841342Y-73419329D01*
X21064419Y-73343151D01*
X21064405Y-73343150D01*
X20934576Y-73330420D01*
X20871643Y-73311420D01*
X20813594Y-73280554D01*
X20762657Y-73239011D01*
X20720752Y-73188356D01*
X20689485Y-73130529D01*
X20670044Y-73067728D01*
X20660000Y-72972165D01*
X20660000Y-21032279D01*
X20669580Y-20934576D01*
X20688580Y-20871644D01*
X20719445Y-20813595D01*
X20760989Y-20762657D01*
X20811644Y-20720752D01*
X20869471Y-20689485D01*
X20932272Y-20670044D01*
X21027835Y-20660000D01*
X47967721Y-20660000D01*
X48065424Y-20669580D01*
G37*
%TD.AperFunction*%
D15*
X25682000Y-36723000D02*
X26698000Y-36723000D01*
X26698000Y-36703000D01*
X26952000Y-36703000D01*
X26952000Y-36723000D01*
X27968000Y-36723000D01*
X27968000Y-36703000D01*
X28222000Y-36703000D01*
X28222000Y-36723000D01*
X28242000Y-36723000D01*
X28242000Y-36977000D01*
X28222000Y-36977000D01*
X28222000Y-38301250D01*
X28380750Y-38460000D01*
X28395000Y-38463072D01*
X28519482Y-38450812D01*
X28530000Y-38447621D01*
X28530001Y-42136472D01*
X28525960Y-42177500D01*
X28537040Y-42290000D01*
X25525030Y-42290000D01*
X25525030Y-36977000D01*
X25682000Y-36977000D01*
X25682000Y-38301250D01*
X25840750Y-38460000D01*
X25855000Y-38463072D01*
X25979482Y-38450812D01*
X26099180Y-38414502D01*
X26190000Y-38365957D01*
X26280820Y-38414502D01*
X26400518Y-38450812D01*
X26525000Y-38463072D01*
X26539250Y-38460000D01*
X26698000Y-38301250D01*
X26698000Y-36977000D01*
X26952000Y-36977000D01*
X26952000Y-38301250D01*
X27110750Y-38460000D01*
X27125000Y-38463072D01*
X27249482Y-38450812D01*
X27369180Y-38414502D01*
X27460000Y-38365957D01*
X27550820Y-38414502D01*
X27670518Y-38450812D01*
X27795000Y-38463072D01*
X27809250Y-38460000D01*
X27968000Y-38301250D01*
X27968000Y-36977000D01*
X26952000Y-36977000D01*
X26698000Y-36977000D01*
X25682000Y-36977000D01*
X25525030Y-36977000D01*
X25525030Y-36703000D01*
X25682000Y-36703000D01*
X25682000Y-36723000D01*
%TA.AperFunction,Conductor*%
D16*
G36*
X25682000Y-36723000D02*
G01*
X26698000Y-36723000D01*
X26698000Y-36703000D01*
X26952000Y-36703000D01*
X26952000Y-36723000D01*
X27968000Y-36723000D01*
X27968000Y-36703000D01*
X28222000Y-36703000D01*
X28222000Y-36723000D01*
X28242000Y-36723000D01*
X28242000Y-36977000D01*
X28222000Y-36977000D01*
X28222000Y-38301250D01*
X28380750Y-38460000D01*
X28395000Y-38463072D01*
X28519482Y-38450812D01*
X28530000Y-38447621D01*
X28530001Y-42136472D01*
X28525960Y-42177500D01*
X28537040Y-42290000D01*
X25525030Y-42290000D01*
X25525030Y-36977000D01*
X25682000Y-36977000D01*
X25682000Y-38301250D01*
X25840750Y-38460000D01*
X25855000Y-38463072D01*
X25979482Y-38450812D01*
X26099180Y-38414502D01*
X26190000Y-38365957D01*
X26280820Y-38414502D01*
X26400518Y-38450812D01*
X26525000Y-38463072D01*
X26539250Y-38460000D01*
X26698000Y-38301250D01*
X26698000Y-36977000D01*
X26952000Y-36977000D01*
X26952000Y-38301250D01*
X27110750Y-38460000D01*
X27125000Y-38463072D01*
X27249482Y-38450812D01*
X27369180Y-38414502D01*
X27460000Y-38365957D01*
X27550820Y-38414502D01*
X27670518Y-38450812D01*
X27795000Y-38463072D01*
X27809250Y-38460000D01*
X27968000Y-38301250D01*
X27968000Y-36977000D01*
X26952000Y-36977000D01*
X26698000Y-36977000D01*
X25682000Y-36977000D01*
X25525030Y-36977000D01*
X25525030Y-36703000D01*
X25682000Y-36703000D01*
X25682000Y-36723000D01*
G37*
%TD.AperFunction*%
D15*
X35897000Y-26143000D02*
X35917000Y-26143000D01*
X35917000Y-26397000D01*
X35897000Y-26397000D01*
X35897000Y-27590155D01*
X36126890Y-27711476D01*
X36185002Y-27693850D01*
X36185001Y-31071630D01*
X35380000Y-31876632D01*
X35380000Y-31772998D01*
X35221252Y-31772998D01*
X35380000Y-31614250D01*
X35383072Y-30925000D01*
X35370812Y-30800518D01*
X35334502Y-30680820D01*
X35275537Y-30570506D01*
X35196185Y-30473815D01*
X35099494Y-30394463D01*
X34989180Y-30335498D01*
X34869482Y-30299188D01*
X34745000Y-30286928D01*
X34730750Y-30290000D01*
X34572000Y-30448750D01*
X34572000Y-31773000D01*
X34592000Y-31773000D01*
X34592000Y-32027000D01*
X34572000Y-32027000D01*
X34572000Y-32047000D01*
X34318000Y-32047000D01*
X34318000Y-32027000D01*
X33302000Y-32027000D01*
X33302000Y-32047000D01*
X33048000Y-32047000D01*
X33048000Y-32027000D01*
X32032000Y-32027000D01*
X32032000Y-32047000D01*
X31778000Y-32047000D01*
X31778000Y-32027000D01*
X31758000Y-32027000D01*
X31758000Y-31773000D01*
X31778000Y-31773000D01*
X31778000Y-31753000D01*
X32032000Y-31753000D01*
X32032000Y-31773000D01*
X33048000Y-31773000D01*
X33048000Y-30448750D01*
X33302000Y-30448750D01*
X33302000Y-31773000D01*
X34318000Y-31773000D01*
X34318000Y-30448750D01*
X34159250Y-30290000D01*
X34145000Y-30286928D01*
X34020518Y-30299188D01*
X33900820Y-30335498D01*
X33810000Y-30384043D01*
X33719180Y-30335498D01*
X33599482Y-30299188D01*
X33475000Y-30286928D01*
X33460750Y-30290000D01*
X33302000Y-30448750D01*
X33048000Y-30448750D01*
X32889250Y-30290000D01*
X32875000Y-30286928D01*
X32750518Y-30299188D01*
X32630820Y-30335498D01*
X32540000Y-30384043D01*
X32449180Y-30335498D01*
X32329482Y-30299188D01*
X32240450Y-30290419D01*
X34995147Y-27535724D01*
X35003080Y-27541641D01*
X35265901Y-27666825D01*
X35413110Y-27711476D01*
X35643000Y-27590155D01*
X35643000Y-26397000D01*
X35623000Y-26397000D01*
X35623000Y-26143000D01*
X35643000Y-26143000D01*
X35643000Y-26123000D01*
X35897000Y-26123000D01*
X35897000Y-26143000D01*
%TA.AperFunction,Conductor*%
D16*
G36*
X35897000Y-26143000D02*
G01*
X35917000Y-26143000D01*
X35917000Y-26397000D01*
X35897000Y-26397000D01*
X35897000Y-27590155D01*
X36126890Y-27711476D01*
X36185002Y-27693850D01*
X36185001Y-31071630D01*
X35380000Y-31876632D01*
X35380000Y-31772998D01*
X35221252Y-31772998D01*
X35380000Y-31614250D01*
X35383072Y-30925000D01*
X35370812Y-30800518D01*
X35334502Y-30680820D01*
X35275537Y-30570506D01*
X35196185Y-30473815D01*
X35099494Y-30394463D01*
X34989180Y-30335498D01*
X34869482Y-30299188D01*
X34745000Y-30286928D01*
X34730750Y-30290000D01*
X34572000Y-30448750D01*
X34572000Y-31773000D01*
X34592000Y-31773000D01*
X34592000Y-32027000D01*
X34572000Y-32027000D01*
X34572000Y-32047000D01*
X34318000Y-32047000D01*
X34318000Y-32027000D01*
X33302000Y-32027000D01*
X33302000Y-32047000D01*
X33048000Y-32047000D01*
X33048000Y-32027000D01*
X32032000Y-32027000D01*
X32032000Y-32047000D01*
X31778000Y-32047000D01*
X31778000Y-32027000D01*
X31758000Y-32027000D01*
X31758000Y-31773000D01*
X31778000Y-31773000D01*
X31778000Y-31753000D01*
X32032000Y-31753000D01*
X32032000Y-31773000D01*
X33048000Y-31773000D01*
X33048000Y-30448750D01*
X33302000Y-30448750D01*
X33302000Y-31773000D01*
X34318000Y-31773000D01*
X34318000Y-30448750D01*
X34159250Y-30290000D01*
X34145000Y-30286928D01*
X34020518Y-30299188D01*
X33900820Y-30335498D01*
X33810000Y-30384043D01*
X33719180Y-30335498D01*
X33599482Y-30299188D01*
X33475000Y-30286928D01*
X33460750Y-30290000D01*
X33302000Y-30448750D01*
X33048000Y-30448750D01*
X32889250Y-30290000D01*
X32875000Y-30286928D01*
X32750518Y-30299188D01*
X32630820Y-30335498D01*
X32540000Y-30384043D01*
X32449180Y-30335498D01*
X32329482Y-30299188D01*
X32240450Y-30290419D01*
X34995147Y-27535724D01*
X35003080Y-27541641D01*
X35265901Y-27666825D01*
X35413110Y-27711476D01*
X35643000Y-27590155D01*
X35643000Y-26397000D01*
X35623000Y-26397000D01*
X35623000Y-26143000D01*
X35643000Y-26143000D01*
X35643000Y-26123000D01*
X35897000Y-26123000D01*
X35897000Y-26143000D01*
G37*
%TD.AperFunction*%
D15*
X38437000Y-26143000D02*
X38457000Y-26143000D01*
X38457000Y-26397000D01*
X38437000Y-26397000D01*
X38437000Y-27590155D01*
X38666890Y-27711476D01*
X38725001Y-27693850D01*
X38725001Y-29380173D01*
X37855001Y-30250173D01*
X37855001Y-27681718D01*
X37953110Y-27711476D01*
X38183000Y-27590155D01*
X38183000Y-26397000D01*
X38163000Y-26397000D01*
X38163000Y-26143000D01*
X38183000Y-26143000D01*
X38183000Y-26123000D01*
X38437000Y-26123000D01*
X38437000Y-26143000D01*
%TA.AperFunction,Conductor*%
D16*
G36*
X38437000Y-26143000D02*
G01*
X38457000Y-26143000D01*
X38457000Y-26397000D01*
X38437000Y-26397000D01*
X38437000Y-27590155D01*
X38666890Y-27711476D01*
X38725001Y-27693850D01*
X38725001Y-29380173D01*
X37855001Y-30250173D01*
X37855001Y-27681718D01*
X37953110Y-27711476D01*
X38183000Y-27590155D01*
X38183000Y-26397000D01*
X38163000Y-26397000D01*
X38163000Y-26143000D01*
X38183000Y-26143000D01*
X38183000Y-26123000D01*
X38437000Y-26123000D01*
X38437000Y-26143000D01*
G37*
%TD.AperFunction*%
D15*
X40977000Y-26143000D02*
X40997000Y-26143000D01*
X40997000Y-26397000D01*
X40977000Y-26397000D01*
X40977000Y-27590155D01*
X41206890Y-27711476D01*
X41257631Y-27696086D01*
X40395001Y-28558715D01*
X40395001Y-27681718D01*
X40493110Y-27711476D01*
X40723000Y-27590155D01*
X40723000Y-26397000D01*
X40703000Y-26397000D01*
X40703000Y-26143000D01*
X40723000Y-26143000D01*
X40723000Y-26123000D01*
X40977000Y-26123000D01*
X40977000Y-26143000D01*
%TA.AperFunction,Conductor*%
D16*
G36*
X40977000Y-26143000D02*
G01*
X40997000Y-26143000D01*
X40997000Y-26397000D01*
X40977000Y-26397000D01*
X40977000Y-27590155D01*
X41206890Y-27711476D01*
X41257631Y-27696086D01*
X40395001Y-28558715D01*
X40395001Y-27681718D01*
X40493110Y-27711476D01*
X40723000Y-27590155D01*
X40723000Y-26397000D01*
X40703000Y-26397000D01*
X40703000Y-26143000D01*
X40723000Y-26143000D01*
X40723000Y-26123000D01*
X40977000Y-26123000D01*
X40977000Y-26143000D01*
G37*
%TD.AperFunction*%
D15*
X43517000Y-26143000D02*
X43537000Y-26143000D01*
X43537000Y-26397000D01*
X43517000Y-26397000D01*
X43517000Y-26417000D01*
X43263000Y-26417000D01*
X43263000Y-26397000D01*
X43243000Y-26397000D01*
X43243000Y-26143000D01*
X43263000Y-26143000D01*
X43263000Y-26123000D01*
X43517000Y-26123000D01*
X43517000Y-26143000D01*
%TA.AperFunction,Conductor*%
D16*
G36*
X43517000Y-26143000D02*
G01*
X43537000Y-26143000D01*
X43537000Y-26397000D01*
X43517000Y-26397000D01*
X43517000Y-26417000D01*
X43263000Y-26417000D01*
X43263000Y-26397000D01*
X43243000Y-26397000D01*
X43243000Y-26143000D01*
X43263000Y-26143000D01*
X43263000Y-26123000D01*
X43517000Y-26123000D01*
X43517000Y-26143000D01*
G37*
%TD.AperFunction*%
%TD*%
M02*
