%TF.GenerationSoftware,KiCad,Pcbnew,(5.1.9)-1*%
%TF.CreationDate,2021-08-11T21:42:47+01:00*%
%TF.ProjectId,Keymatrix,4b65796d-6174-4726-9978-2e6b69636164,rev?*%
%TF.SameCoordinates,Original*%
%TF.FileFunction,Copper,L2,Bot*%
%TF.FilePolarity,Positive*%
%FSLAX46Y46*%
G04 Gerber Fmt 4.6, Leading zero omitted, Abs format (unit mm)*
G04 Created by KiCad (PCBNEW (5.1.9)-1) date 2021-08-11 21:42:47*
%MOMM*%
%LPD*%
G01*
G04 APERTURE LIST*
%TA.AperFunction,ComponentPad*%
%ADD10O,1.700000X1.700000*%
%TD*%
%TA.AperFunction,ComponentPad*%
%ADD11R,1.700000X1.700000*%
%TD*%
%TA.AperFunction,ViaPad*%
%ADD12C,0.800000*%
%TD*%
%TA.AperFunction,Conductor*%
%ADD13C,1.000000*%
%TD*%
%TA.AperFunction,Conductor*%
%ADD14C,0.400000*%
%TD*%
%TA.AperFunction,Conductor*%
%ADD15C,0.254000*%
%TD*%
%TA.AperFunction,Conductor*%
%ADD16C,0.100000*%
%TD*%
G04 APERTURE END LIST*
D10*
%TO.P,J1,16*%
%TO.N,COL0*%
X22890000Y-45720000D03*
%TO.P,J1,15*%
%TO.N,Net-(D1-Pad2)*%
X25430000Y-45720000D03*
%TO.P,J1,14*%
%TO.N,COL0*%
X22890000Y-48260000D03*
%TO.P,J1,13*%
%TO.N,Net-(D3-Pad2)*%
X25430000Y-48260000D03*
%TO.P,J1,12*%
%TO.N,COL0*%
X22890000Y-50800000D03*
%TO.P,J1,11*%
%TO.N,Net-(D5-Pad2)*%
X25430000Y-50800000D03*
%TO.P,J1,10*%
%TO.N,COL0*%
X22890000Y-53340000D03*
%TO.P,J1,9*%
%TO.N,Net-(D7-Pad2)*%
X25430000Y-53340000D03*
%TO.P,J1,8*%
%TO.N,COL1*%
X22890000Y-55880000D03*
%TO.P,J1,7*%
%TO.N,Net-(D9-Pad2)*%
X25430000Y-55880000D03*
%TO.P,J1,6*%
%TO.N,COL1*%
X22890000Y-58420000D03*
%TO.P,J1,5*%
%TO.N,Net-(D11-Pad2)*%
X25430000Y-58420000D03*
%TO.P,J1,4*%
%TO.N,COL1*%
X22890000Y-60960000D03*
%TO.P,J1,3*%
%TO.N,Net-(D13-Pad2)*%
X25430000Y-60960000D03*
%TO.P,J1,2*%
%TO.N,COL1*%
X22890000Y-63500000D03*
D11*
%TO.P,J1,1*%
%TO.N,Net-(D15-Pad2)*%
X25430000Y-63500000D03*
%TD*%
D10*
%TO.P,J2,16*%
%TO.N,COL2*%
X34955000Y-45720000D03*
%TO.P,J2,15*%
%TO.N,Net-(D2-Pad2)*%
X37495000Y-45720000D03*
%TO.P,J2,14*%
%TO.N,COL2*%
X34955000Y-48260000D03*
%TO.P,J2,13*%
%TO.N,Net-(D4-Pad2)*%
X37495000Y-48260000D03*
%TO.P,J2,12*%
%TO.N,COL2*%
X34955000Y-50800000D03*
%TO.P,J2,11*%
%TO.N,Net-(D6-Pad2)*%
X37495000Y-50800000D03*
%TO.P,J2,10*%
%TO.N,COL2*%
X34955000Y-53340000D03*
%TO.P,J2,9*%
%TO.N,Net-(D8-Pad2)*%
X37495000Y-53340000D03*
%TO.P,J2,8*%
%TO.N,COL3*%
X34955000Y-55880000D03*
%TO.P,J2,7*%
%TO.N,Net-(D10-Pad2)*%
X37495000Y-55880000D03*
%TO.P,J2,6*%
%TO.N,COL3*%
X34955000Y-58420000D03*
%TO.P,J2,5*%
%TO.N,Net-(D12-Pad2)*%
X37495000Y-58420000D03*
%TO.P,J2,4*%
%TO.N,COL3*%
X34955000Y-60960000D03*
%TO.P,J2,3*%
%TO.N,Net-(D14-Pad2)*%
X37495000Y-60960000D03*
%TO.P,J2,2*%
%TO.N,COL3*%
X34955000Y-63500000D03*
D11*
%TO.P,J2,1*%
%TO.N,Net-(D16-Pad2)*%
X37495000Y-63500000D03*
%TD*%
D10*
%TO.P,J3,16*%
%TO.N,COL0*%
X25610000Y-23730000D03*
%TO.P,J3,15*%
%TO.N,+5V*%
X25610000Y-26270000D03*
%TO.P,J3,14*%
%TO.N,COL1*%
X28150000Y-23730000D03*
%TO.P,J3,13*%
%TO.N,+5V*%
X28150000Y-26270000D03*
%TO.P,J3,12*%
%TO.N,COL2*%
X30690000Y-23730000D03*
%TO.P,J3,11*%
%TO.N,+5V*%
X30690000Y-26270000D03*
%TO.P,J3,10*%
%TO.N,COL3*%
X33230000Y-23730000D03*
%TO.P,J3,9*%
%TO.N,+5V*%
X33230000Y-26270000D03*
%TO.P,J3,8*%
%TO.N,ROW0*%
X35770000Y-23730000D03*
%TO.P,J3,7*%
%TO.N,GND*%
X35770000Y-26270000D03*
%TO.P,J3,6*%
%TO.N,ROW1*%
X38310000Y-23730000D03*
%TO.P,J3,5*%
%TO.N,GND*%
X38310000Y-26270000D03*
%TO.P,J3,4*%
%TO.N,ROW2*%
X40850000Y-23730000D03*
%TO.P,J3,3*%
%TO.N,GND*%
X40850000Y-26270000D03*
%TO.P,J3,2*%
%TO.N,ROW3*%
X43390000Y-23730000D03*
D11*
%TO.P,J3,1*%
%TO.N,GND*%
X43390000Y-26270000D03*
%TD*%
D12*
%TO.N,GND*%
X23265000Y-72025000D03*
X45490000Y-72025000D03*
X25937500Y-40625000D03*
X27500000Y-40625000D03*
X25937500Y-41875000D03*
X27500000Y-41875000D03*
X25937500Y-39375000D03*
X27500000Y-39375000D03*
%TO.N,ROW0*%
X32415000Y-45720000D03*
X32415000Y-55880000D03*
X44480000Y-55880000D03*
X44480000Y-45720000D03*
%TO.N,ROW1*%
X32415000Y-48260000D03*
X32415000Y-58420000D03*
X44480000Y-48260000D03*
X44480000Y-58420000D03*
X46080001Y-48125000D03*
%TO.N,ROW2*%
X32415000Y-50800000D03*
X32415000Y-60960000D03*
X44480000Y-50800000D03*
X44480000Y-60960000D03*
X46880001Y-50625000D03*
%TO.N,ROW3*%
X32415000Y-53340000D03*
X32415000Y-63500000D03*
X44480000Y-53340000D03*
X44480000Y-63500000D03*
X47812500Y-53125000D03*
%TD*%
D13*
%TO.N,+5V*%
X33230000Y-26270000D02*
X30690000Y-26270000D01*
X30690000Y-26270000D02*
X28150000Y-26270000D01*
X28150000Y-26270000D02*
X25610000Y-26270000D01*
D14*
%TO.N,ROW0*%
X33665001Y-46970001D02*
X43229999Y-46970001D01*
X32415000Y-45720000D02*
X33665001Y-46970001D01*
X43229999Y-57130001D02*
X44480000Y-55880000D01*
X33665001Y-57130001D02*
X43229999Y-57130001D01*
X32415000Y-55880000D02*
X33665001Y-57130001D01*
X43229999Y-46970001D02*
X44480000Y-45720000D01*
%TO.N,ROW1*%
X43229999Y-49510001D02*
X44480000Y-48260000D01*
X33665001Y-49510001D02*
X43229999Y-49510001D01*
X32415000Y-48260000D02*
X33665001Y-49510001D01*
X43229999Y-59670001D02*
X44480000Y-58420000D01*
X33665001Y-59670001D02*
X43229999Y-59670001D01*
X32415000Y-58420000D02*
X33665001Y-59670001D01*
X45945001Y-48260000D02*
X46080001Y-48125000D01*
X44480000Y-48260000D02*
X45945001Y-48260000D01*
%TO.N,ROW2*%
X43229999Y-52050001D02*
X44480000Y-50800000D01*
X33665001Y-52050001D02*
X43229999Y-52050001D01*
X32415000Y-50800000D02*
X33665001Y-52050001D01*
X43229999Y-62210001D02*
X44480000Y-60960000D01*
X33665001Y-62210001D02*
X43229999Y-62210001D01*
X32415000Y-60960000D02*
X33665001Y-62210001D01*
X46705001Y-50800000D02*
X46880001Y-50625000D01*
X44480000Y-50800000D02*
X46705001Y-50800000D01*
%TO.N,ROW3*%
X43190001Y-54629999D02*
X44480000Y-53340000D01*
X33704999Y-54629999D02*
X43190001Y-54629999D01*
X32415000Y-53340000D02*
X33704999Y-54629999D01*
X43229999Y-64750001D02*
X44480000Y-63500000D01*
X33665001Y-64750001D02*
X43229999Y-64750001D01*
X32415000Y-63500000D02*
X33665001Y-64750001D01*
X47597500Y-53340000D02*
X47812500Y-53125000D01*
X44480000Y-53340000D02*
X47597500Y-53340000D01*
%TD*%
D15*
%TO.N,GND*%
X48065424Y-20669580D02*
X48128356Y-20688580D01*
X48186405Y-20719445D01*
X48237343Y-20760989D01*
X48279248Y-20811644D01*
X48310515Y-20869471D01*
X48329956Y-20932272D01*
X48340000Y-21027835D01*
X48340001Y-52232681D01*
X48302756Y-52207795D01*
X48114398Y-52129774D01*
X47914439Y-52090000D01*
X47710561Y-52090000D01*
X47510602Y-52129774D01*
X47322244Y-52207795D01*
X47152726Y-52321063D01*
X47008563Y-52465226D01*
X46981987Y-52505000D01*
X45093285Y-52505000D01*
X44970256Y-52422795D01*
X44781898Y-52344774D01*
X44581939Y-52305000D01*
X44378061Y-52305000D01*
X44178102Y-52344774D01*
X44072246Y-52388621D01*
X44636775Y-51824092D01*
X44781898Y-51795226D01*
X44970256Y-51717205D01*
X45093285Y-51635000D01*
X46652378Y-51635000D01*
X46778062Y-51660000D01*
X46981940Y-51660000D01*
X47181899Y-51620226D01*
X47370257Y-51542205D01*
X47539775Y-51428937D01*
X47683938Y-51284774D01*
X47797206Y-51115256D01*
X47875227Y-50926898D01*
X47915001Y-50726939D01*
X47915001Y-50523061D01*
X47875227Y-50323102D01*
X47797206Y-50134744D01*
X47683938Y-49965226D01*
X47539775Y-49821063D01*
X47370257Y-49707795D01*
X47181899Y-49629774D01*
X46981940Y-49590000D01*
X46778062Y-49590000D01*
X46578103Y-49629774D01*
X46389745Y-49707795D01*
X46220227Y-49821063D01*
X46076290Y-49965000D01*
X45093285Y-49965000D01*
X44970256Y-49882795D01*
X44781898Y-49804774D01*
X44581939Y-49765000D01*
X44378061Y-49765000D01*
X44178102Y-49804774D01*
X44072246Y-49848621D01*
X44636775Y-49284092D01*
X44781898Y-49255226D01*
X44970256Y-49177205D01*
X45093285Y-49095000D01*
X45717202Y-49095000D01*
X45778103Y-49120226D01*
X45978062Y-49160000D01*
X46181940Y-49160000D01*
X46381899Y-49120226D01*
X46570257Y-49042205D01*
X46739775Y-48928937D01*
X46883938Y-48784774D01*
X46997206Y-48615256D01*
X47075227Y-48426898D01*
X47115001Y-48226939D01*
X47115001Y-48023061D01*
X47075227Y-47823102D01*
X46997206Y-47634744D01*
X46883938Y-47465226D01*
X46739775Y-47321063D01*
X46570257Y-47207795D01*
X46381899Y-47129774D01*
X46181940Y-47090000D01*
X45978062Y-47090000D01*
X45778103Y-47129774D01*
X45589745Y-47207795D01*
X45420227Y-47321063D01*
X45316290Y-47425000D01*
X45093285Y-47425000D01*
X44970256Y-47342795D01*
X44781898Y-47264774D01*
X44581939Y-47225000D01*
X44378061Y-47225000D01*
X44178102Y-47264774D01*
X44072246Y-47308621D01*
X44636775Y-46744092D01*
X44781898Y-46715226D01*
X44970256Y-46637205D01*
X45139774Y-46523937D01*
X45283937Y-46379774D01*
X45397205Y-46210256D01*
X45475226Y-46021898D01*
X45515000Y-45821939D01*
X45515000Y-45618061D01*
X45475226Y-45418102D01*
X45397205Y-45229744D01*
X45283937Y-45060226D01*
X45139774Y-44916063D01*
X44970256Y-44802795D01*
X44781898Y-44724774D01*
X44581939Y-44685000D01*
X44378061Y-44685000D01*
X44178102Y-44724774D01*
X43989744Y-44802795D01*
X43820226Y-44916063D01*
X43676063Y-45060226D01*
X43562795Y-45229744D01*
X43484774Y-45418102D01*
X43455908Y-45563225D01*
X42884132Y-46135001D01*
X38926544Y-46135001D01*
X38980000Y-45866260D01*
X38980000Y-45573740D01*
X38922932Y-45286842D01*
X38810990Y-45016589D01*
X38648475Y-44773368D01*
X38441632Y-44566525D01*
X38198411Y-44404010D01*
X37928158Y-44292068D01*
X37641260Y-44235000D01*
X37348740Y-44235000D01*
X37061842Y-44292068D01*
X36791589Y-44404010D01*
X36548368Y-44566525D01*
X36341525Y-44773368D01*
X36225000Y-44947760D01*
X36108475Y-44773368D01*
X35901632Y-44566525D01*
X35658411Y-44404010D01*
X35388158Y-44292068D01*
X35101260Y-44235000D01*
X34808740Y-44235000D01*
X34521842Y-44292068D01*
X34251589Y-44404010D01*
X34008368Y-44566525D01*
X33801525Y-44773368D01*
X33639010Y-45016589D01*
X33527068Y-45286842D01*
X33470000Y-45573740D01*
X33470000Y-45594133D01*
X33439093Y-45563225D01*
X33410226Y-45418102D01*
X33332205Y-45229744D01*
X33218937Y-45060226D01*
X33074774Y-44916063D01*
X32905256Y-44802795D01*
X32716898Y-44724774D01*
X32516939Y-44685000D01*
X32313061Y-44685000D01*
X32113102Y-44724774D01*
X31924744Y-44802795D01*
X31755226Y-44916063D01*
X31611063Y-45060226D01*
X31497795Y-45229744D01*
X31419774Y-45418102D01*
X31380000Y-45618061D01*
X31380000Y-45821939D01*
X31419774Y-46021898D01*
X31497795Y-46210256D01*
X31611063Y-46379774D01*
X31755226Y-46523937D01*
X31924744Y-46637205D01*
X32113102Y-46715226D01*
X32258225Y-46744093D01*
X32822753Y-47308621D01*
X32716898Y-47264774D01*
X32516939Y-47225000D01*
X32313061Y-47225000D01*
X32113102Y-47264774D01*
X31924744Y-47342795D01*
X31755226Y-47456063D01*
X31611063Y-47600226D01*
X31497795Y-47769744D01*
X31419774Y-47958102D01*
X31380000Y-48158061D01*
X31380000Y-48361939D01*
X31419774Y-48561898D01*
X31497795Y-48750256D01*
X31611063Y-48919774D01*
X31755226Y-49063937D01*
X31924744Y-49177205D01*
X32113102Y-49255226D01*
X32258225Y-49284093D01*
X32822753Y-49848621D01*
X32716898Y-49804774D01*
X32516939Y-49765000D01*
X32313061Y-49765000D01*
X32113102Y-49804774D01*
X31924744Y-49882795D01*
X31755226Y-49996063D01*
X31611063Y-50140226D01*
X31497795Y-50309744D01*
X31419774Y-50498102D01*
X31380000Y-50698061D01*
X31380000Y-50901939D01*
X31419774Y-51101898D01*
X31497795Y-51290256D01*
X31611063Y-51459774D01*
X31755226Y-51603937D01*
X31924744Y-51717205D01*
X32113102Y-51795226D01*
X32258225Y-51824093D01*
X32822753Y-52388621D01*
X32716898Y-52344774D01*
X32516939Y-52305000D01*
X32313061Y-52305000D01*
X32113102Y-52344774D01*
X31924744Y-52422795D01*
X31755226Y-52536063D01*
X31611063Y-52680226D01*
X31497795Y-52849744D01*
X31419774Y-53038102D01*
X31380000Y-53238061D01*
X31380000Y-53441939D01*
X31419774Y-53641898D01*
X31497795Y-53830256D01*
X31611063Y-53999774D01*
X31755226Y-54143937D01*
X31924744Y-54257205D01*
X32113102Y-54335226D01*
X32258225Y-54364093D01*
X32822753Y-54928621D01*
X32716898Y-54884774D01*
X32516939Y-54845000D01*
X32313061Y-54845000D01*
X32113102Y-54884774D01*
X31924744Y-54962795D01*
X31755226Y-55076063D01*
X31611063Y-55220226D01*
X31497795Y-55389744D01*
X31419774Y-55578102D01*
X31380000Y-55778061D01*
X31380000Y-55981939D01*
X31419774Y-56181898D01*
X31497795Y-56370256D01*
X31611063Y-56539774D01*
X31755226Y-56683937D01*
X31924744Y-56797205D01*
X32113102Y-56875226D01*
X32258225Y-56904093D01*
X32822753Y-57468621D01*
X32716898Y-57424774D01*
X32516939Y-57385000D01*
X32313061Y-57385000D01*
X32113102Y-57424774D01*
X31924744Y-57502795D01*
X31755226Y-57616063D01*
X31611063Y-57760226D01*
X31497795Y-57929744D01*
X31419774Y-58118102D01*
X31380000Y-58318061D01*
X31380000Y-58521939D01*
X31419774Y-58721898D01*
X31497795Y-58910256D01*
X31611063Y-59079774D01*
X31755226Y-59223937D01*
X31924744Y-59337205D01*
X32113102Y-59415226D01*
X32258225Y-59444093D01*
X32822753Y-60008621D01*
X32716898Y-59964774D01*
X32516939Y-59925000D01*
X32313061Y-59925000D01*
X32113102Y-59964774D01*
X31924744Y-60042795D01*
X31755226Y-60156063D01*
X31611063Y-60300226D01*
X31497795Y-60469744D01*
X31419774Y-60658102D01*
X31380000Y-60858061D01*
X31380000Y-61061939D01*
X31419774Y-61261898D01*
X31497795Y-61450256D01*
X31611063Y-61619774D01*
X31755226Y-61763937D01*
X31924744Y-61877205D01*
X32113102Y-61955226D01*
X32258225Y-61984093D01*
X32822753Y-62548621D01*
X32716898Y-62504774D01*
X32516939Y-62465000D01*
X32313061Y-62465000D01*
X32113102Y-62504774D01*
X31924744Y-62582795D01*
X31755226Y-62696063D01*
X31611063Y-62840226D01*
X31497795Y-63009744D01*
X31419774Y-63198102D01*
X31380000Y-63398061D01*
X31380000Y-63601939D01*
X31419774Y-63801898D01*
X31497795Y-63990256D01*
X31611063Y-64159774D01*
X31755226Y-64303937D01*
X31924744Y-64417205D01*
X32113102Y-64495226D01*
X32258225Y-64524093D01*
X33045559Y-65311427D01*
X33071710Y-65343292D01*
X33198855Y-65447637D01*
X33343914Y-65525173D01*
X33501312Y-65572919D01*
X33623982Y-65585001D01*
X33623992Y-65585001D01*
X33665000Y-65589040D01*
X33706008Y-65585001D01*
X43188981Y-65585001D01*
X43229999Y-65589041D01*
X43271017Y-65585001D01*
X43271018Y-65585001D01*
X43393688Y-65572919D01*
X43551086Y-65525173D01*
X43696145Y-65447637D01*
X43823290Y-65343292D01*
X43849445Y-65311422D01*
X44636775Y-64524092D01*
X44781898Y-64495226D01*
X44970256Y-64417205D01*
X45139774Y-64303937D01*
X45283937Y-64159774D01*
X45397205Y-63990256D01*
X45475226Y-63801898D01*
X45515000Y-63601939D01*
X45515000Y-63398061D01*
X45475226Y-63198102D01*
X45397205Y-63009744D01*
X45283937Y-62840226D01*
X45139774Y-62696063D01*
X44970256Y-62582795D01*
X44781898Y-62504774D01*
X44581939Y-62465000D01*
X44378061Y-62465000D01*
X44178102Y-62504774D01*
X44072246Y-62548621D01*
X44636775Y-61984092D01*
X44781898Y-61955226D01*
X44970256Y-61877205D01*
X45139774Y-61763937D01*
X45283937Y-61619774D01*
X45397205Y-61450256D01*
X45475226Y-61261898D01*
X45515000Y-61061939D01*
X45515000Y-60858061D01*
X45475226Y-60658102D01*
X45397205Y-60469744D01*
X45283937Y-60300226D01*
X45139774Y-60156063D01*
X44970256Y-60042795D01*
X44781898Y-59964774D01*
X44581939Y-59925000D01*
X44378061Y-59925000D01*
X44178102Y-59964774D01*
X44072246Y-60008621D01*
X44636775Y-59444092D01*
X44781898Y-59415226D01*
X44970256Y-59337205D01*
X45139774Y-59223937D01*
X45283937Y-59079774D01*
X45397205Y-58910256D01*
X45475226Y-58721898D01*
X45515000Y-58521939D01*
X45515000Y-58318061D01*
X45475226Y-58118102D01*
X45397205Y-57929744D01*
X45283937Y-57760226D01*
X45139774Y-57616063D01*
X44970256Y-57502795D01*
X44781898Y-57424774D01*
X44581939Y-57385000D01*
X44378061Y-57385000D01*
X44178102Y-57424774D01*
X44072246Y-57468621D01*
X44636775Y-56904092D01*
X44781898Y-56875226D01*
X44970256Y-56797205D01*
X45139774Y-56683937D01*
X45283937Y-56539774D01*
X45397205Y-56370256D01*
X45475226Y-56181898D01*
X45515000Y-55981939D01*
X45515000Y-55778061D01*
X45475226Y-55578102D01*
X45397205Y-55389744D01*
X45283937Y-55220226D01*
X45139774Y-55076063D01*
X44970256Y-54962795D01*
X44781898Y-54884774D01*
X44581939Y-54845000D01*
X44378061Y-54845000D01*
X44178102Y-54884774D01*
X44072246Y-54928621D01*
X44636775Y-54364092D01*
X44781898Y-54335226D01*
X44970256Y-54257205D01*
X45093285Y-54175000D01*
X47556482Y-54175000D01*
X47597500Y-54179040D01*
X47638518Y-54175000D01*
X47638519Y-54175000D01*
X47761189Y-54162918D01*
X47770808Y-54160000D01*
X47914439Y-54160000D01*
X48114398Y-54120226D01*
X48302756Y-54042205D01*
X48340001Y-54017319D01*
X48340001Y-72967711D01*
X48330420Y-73065424D01*
X48311420Y-73128357D01*
X48280554Y-73186406D01*
X48239011Y-73237343D01*
X48188356Y-73279248D01*
X48130529Y-73310515D01*
X48067728Y-73329956D01*
X47971252Y-73340096D01*
X47969782Y-73340101D01*
X47941095Y-73343014D01*
X47912257Y-73342813D01*
X47903086Y-73343713D01*
X47126699Y-73425315D01*
X47068106Y-73437342D01*
X47009342Y-73448552D01*
X47000520Y-73451215D01*
X46254771Y-73682063D01*
X46199608Y-73705251D01*
X46144162Y-73727653D01*
X46136026Y-73731979D01*
X45449316Y-74103282D01*
X45399741Y-74136721D01*
X45349670Y-74169486D01*
X45342529Y-74175311D01*
X44741017Y-74672924D01*
X44698863Y-74715374D01*
X44656127Y-74757224D01*
X44650253Y-74764324D01*
X44156852Y-75369295D01*
X44123764Y-75419096D01*
X44089953Y-75468476D01*
X44085570Y-75476582D01*
X43719071Y-76165867D01*
X43696280Y-76221161D01*
X43672710Y-76276154D01*
X43669985Y-76284957D01*
X43444348Y-77032302D01*
X43432725Y-77091005D01*
X43420292Y-77149494D01*
X43419329Y-77158658D01*
X43343151Y-77935581D01*
X43343150Y-77935595D01*
X43330420Y-78065424D01*
X43311420Y-78128357D01*
X43280554Y-78186406D01*
X43239011Y-78237343D01*
X43188356Y-78279248D01*
X43130529Y-78310515D01*
X43067728Y-78329956D01*
X42972165Y-78340000D01*
X36175645Y-78340000D01*
X36265396Y-78302824D01*
X36875824Y-77894950D01*
X37394950Y-77375824D01*
X37802824Y-76765396D01*
X38083773Y-76087126D01*
X38227000Y-75367077D01*
X38227000Y-74632923D01*
X38083773Y-73912874D01*
X37802824Y-73234604D01*
X37394950Y-72624176D01*
X36875824Y-72105050D01*
X36265396Y-71697176D01*
X35587126Y-71416227D01*
X34867077Y-71273000D01*
X34132923Y-71273000D01*
X33412874Y-71416227D01*
X32734604Y-71697176D01*
X32124176Y-72105050D01*
X31605050Y-72624176D01*
X31197176Y-73234604D01*
X30916227Y-73912874D01*
X30773000Y-74632923D01*
X30773000Y-75367077D01*
X30916227Y-76087126D01*
X31197176Y-76765396D01*
X31605050Y-77375824D01*
X32124176Y-77894950D01*
X32734604Y-78302824D01*
X32824355Y-78340000D01*
X26032279Y-78340000D01*
X25934576Y-78330420D01*
X25871643Y-78311420D01*
X25813594Y-78280554D01*
X25762657Y-78239011D01*
X25720752Y-78188356D01*
X25689485Y-78130529D01*
X25670044Y-78067728D01*
X25659904Y-77971252D01*
X25659899Y-77969782D01*
X25656986Y-77941095D01*
X25657187Y-77912257D01*
X25656287Y-77903086D01*
X25574685Y-77126699D01*
X25562658Y-77068106D01*
X25551448Y-77009342D01*
X25548785Y-77000520D01*
X25317937Y-76254771D01*
X25294749Y-76199608D01*
X25272347Y-76144162D01*
X25268021Y-76136026D01*
X24896718Y-75449316D01*
X24863279Y-75399741D01*
X24830514Y-75349670D01*
X24824689Y-75342529D01*
X24327076Y-74741017D01*
X24284621Y-74698858D01*
X24242776Y-74656127D01*
X24235676Y-74650253D01*
X23630705Y-74156852D01*
X23580904Y-74123764D01*
X23531524Y-74089953D01*
X23523418Y-74085570D01*
X22834133Y-73719071D01*
X22778839Y-73696280D01*
X22723846Y-73672710D01*
X22715043Y-73669985D01*
X21967698Y-73444348D01*
X21908995Y-73432725D01*
X21850506Y-73420292D01*
X21841342Y-73419329D01*
X21064419Y-73343151D01*
X21064405Y-73343150D01*
X20934576Y-73330420D01*
X20871643Y-73311420D01*
X20813594Y-73280554D01*
X20762657Y-73239011D01*
X20720752Y-73188356D01*
X20689485Y-73130529D01*
X20670044Y-73067728D01*
X20660000Y-72972165D01*
X20660000Y-45573740D01*
X21405000Y-45573740D01*
X21405000Y-45866260D01*
X21462068Y-46153158D01*
X21574010Y-46423411D01*
X21736525Y-46666632D01*
X21943368Y-46873475D01*
X22117760Y-46990000D01*
X21943368Y-47106525D01*
X21736525Y-47313368D01*
X21574010Y-47556589D01*
X21462068Y-47826842D01*
X21405000Y-48113740D01*
X21405000Y-48406260D01*
X21462068Y-48693158D01*
X21574010Y-48963411D01*
X21736525Y-49206632D01*
X21943368Y-49413475D01*
X22117760Y-49530000D01*
X21943368Y-49646525D01*
X21736525Y-49853368D01*
X21574010Y-50096589D01*
X21462068Y-50366842D01*
X21405000Y-50653740D01*
X21405000Y-50946260D01*
X21462068Y-51233158D01*
X21574010Y-51503411D01*
X21736525Y-51746632D01*
X21943368Y-51953475D01*
X22117760Y-52070000D01*
X21943368Y-52186525D01*
X21736525Y-52393368D01*
X21574010Y-52636589D01*
X21462068Y-52906842D01*
X21405000Y-53193740D01*
X21405000Y-53486260D01*
X21462068Y-53773158D01*
X21574010Y-54043411D01*
X21736525Y-54286632D01*
X21943368Y-54493475D01*
X22117760Y-54610000D01*
X21943368Y-54726525D01*
X21736525Y-54933368D01*
X21574010Y-55176589D01*
X21462068Y-55446842D01*
X21405000Y-55733740D01*
X21405000Y-56026260D01*
X21462068Y-56313158D01*
X21574010Y-56583411D01*
X21736525Y-56826632D01*
X21943368Y-57033475D01*
X22117760Y-57150000D01*
X21943368Y-57266525D01*
X21736525Y-57473368D01*
X21574010Y-57716589D01*
X21462068Y-57986842D01*
X21405000Y-58273740D01*
X21405000Y-58566260D01*
X21462068Y-58853158D01*
X21574010Y-59123411D01*
X21736525Y-59366632D01*
X21943368Y-59573475D01*
X22117760Y-59690000D01*
X21943368Y-59806525D01*
X21736525Y-60013368D01*
X21574010Y-60256589D01*
X21462068Y-60526842D01*
X21405000Y-60813740D01*
X21405000Y-61106260D01*
X21462068Y-61393158D01*
X21574010Y-61663411D01*
X21736525Y-61906632D01*
X21943368Y-62113475D01*
X22117760Y-62230000D01*
X21943368Y-62346525D01*
X21736525Y-62553368D01*
X21574010Y-62796589D01*
X21462068Y-63066842D01*
X21405000Y-63353740D01*
X21405000Y-63646260D01*
X21462068Y-63933158D01*
X21574010Y-64203411D01*
X21736525Y-64446632D01*
X21943368Y-64653475D01*
X22186589Y-64815990D01*
X22456842Y-64927932D01*
X22743740Y-64985000D01*
X23036260Y-64985000D01*
X23323158Y-64927932D01*
X23593411Y-64815990D01*
X23836632Y-64653475D01*
X23968487Y-64521620D01*
X23990498Y-64594180D01*
X24049463Y-64704494D01*
X24128815Y-64801185D01*
X24225506Y-64880537D01*
X24335820Y-64939502D01*
X24455518Y-64975812D01*
X24580000Y-64988072D01*
X26280000Y-64988072D01*
X26404482Y-64975812D01*
X26524180Y-64939502D01*
X26634494Y-64880537D01*
X26731185Y-64801185D01*
X26810537Y-64704494D01*
X26869502Y-64594180D01*
X26905812Y-64474482D01*
X26918072Y-64350000D01*
X26918072Y-62650000D01*
X26905812Y-62525518D01*
X26869502Y-62405820D01*
X26810537Y-62295506D01*
X26731185Y-62198815D01*
X26634494Y-62119463D01*
X26524180Y-62060498D01*
X26451620Y-62038487D01*
X26583475Y-61906632D01*
X26745990Y-61663411D01*
X26857932Y-61393158D01*
X26915000Y-61106260D01*
X26915000Y-60813740D01*
X26857932Y-60526842D01*
X26745990Y-60256589D01*
X26583475Y-60013368D01*
X26376632Y-59806525D01*
X26202240Y-59690000D01*
X26376632Y-59573475D01*
X26583475Y-59366632D01*
X26745990Y-59123411D01*
X26857932Y-58853158D01*
X26915000Y-58566260D01*
X26915000Y-58273740D01*
X26857932Y-57986842D01*
X26745990Y-57716589D01*
X26583475Y-57473368D01*
X26376632Y-57266525D01*
X26202240Y-57150000D01*
X26376632Y-57033475D01*
X26583475Y-56826632D01*
X26745990Y-56583411D01*
X26857932Y-56313158D01*
X26915000Y-56026260D01*
X26915000Y-55733740D01*
X26857932Y-55446842D01*
X26745990Y-55176589D01*
X26583475Y-54933368D01*
X26376632Y-54726525D01*
X26202240Y-54610000D01*
X26376632Y-54493475D01*
X26583475Y-54286632D01*
X26745990Y-54043411D01*
X26857932Y-53773158D01*
X26915000Y-53486260D01*
X26915000Y-53193740D01*
X26857932Y-52906842D01*
X26745990Y-52636589D01*
X26583475Y-52393368D01*
X26376632Y-52186525D01*
X26202240Y-52070000D01*
X26376632Y-51953475D01*
X26583475Y-51746632D01*
X26745990Y-51503411D01*
X26857932Y-51233158D01*
X26915000Y-50946260D01*
X26915000Y-50653740D01*
X26857932Y-50366842D01*
X26745990Y-50096589D01*
X26583475Y-49853368D01*
X26376632Y-49646525D01*
X26202240Y-49530000D01*
X26376632Y-49413475D01*
X26583475Y-49206632D01*
X26745990Y-48963411D01*
X26857932Y-48693158D01*
X26915000Y-48406260D01*
X26915000Y-48113740D01*
X26857932Y-47826842D01*
X26745990Y-47556589D01*
X26583475Y-47313368D01*
X26376632Y-47106525D01*
X26202240Y-46990000D01*
X26376632Y-46873475D01*
X26583475Y-46666632D01*
X26745990Y-46423411D01*
X26857932Y-46153158D01*
X26915000Y-45866260D01*
X26915000Y-45573740D01*
X26857932Y-45286842D01*
X26745990Y-45016589D01*
X26583475Y-44773368D01*
X26376632Y-44566525D01*
X26133411Y-44404010D01*
X25863158Y-44292068D01*
X25576260Y-44235000D01*
X25283740Y-44235000D01*
X24996842Y-44292068D01*
X24726589Y-44404010D01*
X24483368Y-44566525D01*
X24276525Y-44773368D01*
X24160000Y-44947760D01*
X24043475Y-44773368D01*
X23836632Y-44566525D01*
X23593411Y-44404010D01*
X23323158Y-44292068D01*
X23036260Y-44235000D01*
X22743740Y-44235000D01*
X22456842Y-44292068D01*
X22186589Y-44404010D01*
X21943368Y-44566525D01*
X21736525Y-44773368D01*
X21574010Y-45016589D01*
X21462068Y-45286842D01*
X21405000Y-45573740D01*
X20660000Y-45573740D01*
X20660000Y-23583740D01*
X24125000Y-23583740D01*
X24125000Y-23876260D01*
X24182068Y-24163158D01*
X24294010Y-24433411D01*
X24456525Y-24676632D01*
X24663368Y-24883475D01*
X24837760Y-25000000D01*
X24663368Y-25116525D01*
X24456525Y-25323368D01*
X24294010Y-25566589D01*
X24182068Y-25836842D01*
X24125000Y-26123740D01*
X24125000Y-26416260D01*
X24182068Y-26703158D01*
X24294010Y-26973411D01*
X24456525Y-27216632D01*
X24663368Y-27423475D01*
X24906589Y-27585990D01*
X25176842Y-27697932D01*
X25463740Y-27755000D01*
X25756260Y-27755000D01*
X26043158Y-27697932D01*
X26313411Y-27585990D01*
X26556632Y-27423475D01*
X26575107Y-27405000D01*
X27184893Y-27405000D01*
X27203368Y-27423475D01*
X27446589Y-27585990D01*
X27716842Y-27697932D01*
X28003740Y-27755000D01*
X28296260Y-27755000D01*
X28583158Y-27697932D01*
X28853411Y-27585990D01*
X29096632Y-27423475D01*
X29115107Y-27405000D01*
X29724893Y-27405000D01*
X29743368Y-27423475D01*
X29986589Y-27585990D01*
X30256842Y-27697932D01*
X30543740Y-27755000D01*
X30836260Y-27755000D01*
X31123158Y-27697932D01*
X31393411Y-27585990D01*
X31636632Y-27423475D01*
X31655107Y-27405000D01*
X32264893Y-27405000D01*
X32283368Y-27423475D01*
X32526589Y-27585990D01*
X32796842Y-27697932D01*
X33083740Y-27755000D01*
X33376260Y-27755000D01*
X33663158Y-27697932D01*
X33933411Y-27585990D01*
X34176632Y-27423475D01*
X34383475Y-27216632D01*
X34505195Y-27034466D01*
X34574822Y-27151355D01*
X34769731Y-27367588D01*
X35003080Y-27541641D01*
X35265901Y-27666825D01*
X35413110Y-27711476D01*
X35643000Y-27590155D01*
X35643000Y-26397000D01*
X35897000Y-26397000D01*
X35897000Y-27590155D01*
X36126890Y-27711476D01*
X36274099Y-27666825D01*
X36536920Y-27541641D01*
X36770269Y-27367588D01*
X36965178Y-27151355D01*
X37040000Y-27025745D01*
X37114822Y-27151355D01*
X37309731Y-27367588D01*
X37543080Y-27541641D01*
X37805901Y-27666825D01*
X37953110Y-27711476D01*
X38183000Y-27590155D01*
X38183000Y-26397000D01*
X38437000Y-26397000D01*
X38437000Y-27590155D01*
X38666890Y-27711476D01*
X38814099Y-27666825D01*
X39076920Y-27541641D01*
X39310269Y-27367588D01*
X39505178Y-27151355D01*
X39580000Y-27025745D01*
X39654822Y-27151355D01*
X39849731Y-27367588D01*
X40083080Y-27541641D01*
X40345901Y-27666825D01*
X40493110Y-27711476D01*
X40723000Y-27590155D01*
X40723000Y-26397000D01*
X40977000Y-26397000D01*
X40977000Y-27590155D01*
X41206890Y-27711476D01*
X41354099Y-27666825D01*
X41616920Y-27541641D01*
X41850269Y-27367588D01*
X41926034Y-27283534D01*
X41950498Y-27364180D01*
X42009463Y-27474494D01*
X42088815Y-27571185D01*
X42185506Y-27650537D01*
X42295820Y-27709502D01*
X42415518Y-27745812D01*
X42540000Y-27758072D01*
X43104250Y-27755000D01*
X43263000Y-27596250D01*
X43263000Y-26397000D01*
X43517000Y-26397000D01*
X43517000Y-27596250D01*
X43675750Y-27755000D01*
X44240000Y-27758072D01*
X44364482Y-27745812D01*
X44484180Y-27709502D01*
X44594494Y-27650537D01*
X44691185Y-27571185D01*
X44770537Y-27474494D01*
X44829502Y-27364180D01*
X44865812Y-27244482D01*
X44878072Y-27120000D01*
X44875000Y-26555750D01*
X44716250Y-26397000D01*
X43517000Y-26397000D01*
X43263000Y-26397000D01*
X40977000Y-26397000D01*
X40723000Y-26397000D01*
X38437000Y-26397000D01*
X38183000Y-26397000D01*
X35897000Y-26397000D01*
X35643000Y-26397000D01*
X35623000Y-26397000D01*
X35623000Y-26143000D01*
X35643000Y-26143000D01*
X35643000Y-26123000D01*
X35897000Y-26123000D01*
X35897000Y-26143000D01*
X38183000Y-26143000D01*
X38183000Y-26123000D01*
X38437000Y-26123000D01*
X38437000Y-26143000D01*
X40723000Y-26143000D01*
X40723000Y-26123000D01*
X40977000Y-26123000D01*
X40977000Y-26143000D01*
X43263000Y-26143000D01*
X43263000Y-26123000D01*
X43517000Y-26123000D01*
X43517000Y-26143000D01*
X44716250Y-26143000D01*
X44875000Y-25984250D01*
X44878072Y-25420000D01*
X44865812Y-25295518D01*
X44829502Y-25175820D01*
X44770537Y-25065506D01*
X44691185Y-24968815D01*
X44594494Y-24889463D01*
X44484180Y-24830498D01*
X44411620Y-24808487D01*
X44543475Y-24676632D01*
X44705990Y-24433411D01*
X44817932Y-24163158D01*
X44875000Y-23876260D01*
X44875000Y-23583740D01*
X44817932Y-23296842D01*
X44705990Y-23026589D01*
X44543475Y-22783368D01*
X44336632Y-22576525D01*
X44093411Y-22414010D01*
X43823158Y-22302068D01*
X43536260Y-22245000D01*
X43243740Y-22245000D01*
X42956842Y-22302068D01*
X42686589Y-22414010D01*
X42443368Y-22576525D01*
X42236525Y-22783368D01*
X42120000Y-22957760D01*
X42003475Y-22783368D01*
X41796632Y-22576525D01*
X41553411Y-22414010D01*
X41283158Y-22302068D01*
X40996260Y-22245000D01*
X40703740Y-22245000D01*
X40416842Y-22302068D01*
X40146589Y-22414010D01*
X39903368Y-22576525D01*
X39696525Y-22783368D01*
X39580000Y-22957760D01*
X39463475Y-22783368D01*
X39256632Y-22576525D01*
X39013411Y-22414010D01*
X38743158Y-22302068D01*
X38456260Y-22245000D01*
X38163740Y-22245000D01*
X37876842Y-22302068D01*
X37606589Y-22414010D01*
X37363368Y-22576525D01*
X37156525Y-22783368D01*
X37040000Y-22957760D01*
X36923475Y-22783368D01*
X36716632Y-22576525D01*
X36473411Y-22414010D01*
X36203158Y-22302068D01*
X35916260Y-22245000D01*
X35623740Y-22245000D01*
X35336842Y-22302068D01*
X35066589Y-22414010D01*
X34823368Y-22576525D01*
X34616525Y-22783368D01*
X34500000Y-22957760D01*
X34383475Y-22783368D01*
X34176632Y-22576525D01*
X33933411Y-22414010D01*
X33663158Y-22302068D01*
X33376260Y-22245000D01*
X33083740Y-22245000D01*
X32796842Y-22302068D01*
X32526589Y-22414010D01*
X32283368Y-22576525D01*
X32076525Y-22783368D01*
X31960000Y-22957760D01*
X31843475Y-22783368D01*
X31636632Y-22576525D01*
X31393411Y-22414010D01*
X31123158Y-22302068D01*
X30836260Y-22245000D01*
X30543740Y-22245000D01*
X30256842Y-22302068D01*
X29986589Y-22414010D01*
X29743368Y-22576525D01*
X29536525Y-22783368D01*
X29420000Y-22957760D01*
X29303475Y-22783368D01*
X29096632Y-22576525D01*
X28853411Y-22414010D01*
X28583158Y-22302068D01*
X28296260Y-22245000D01*
X28003740Y-22245000D01*
X27716842Y-22302068D01*
X27446589Y-22414010D01*
X27203368Y-22576525D01*
X26996525Y-22783368D01*
X26880000Y-22957760D01*
X26763475Y-22783368D01*
X26556632Y-22576525D01*
X26313411Y-22414010D01*
X26043158Y-22302068D01*
X25756260Y-22245000D01*
X25463740Y-22245000D01*
X25176842Y-22302068D01*
X24906589Y-22414010D01*
X24663368Y-22576525D01*
X24456525Y-22783368D01*
X24294010Y-23026589D01*
X24182068Y-23296842D01*
X24125000Y-23583740D01*
X20660000Y-23583740D01*
X20660000Y-21032279D01*
X20669580Y-20934576D01*
X20688580Y-20871644D01*
X20719445Y-20813595D01*
X20760989Y-20762657D01*
X20811644Y-20720752D01*
X20869471Y-20689485D01*
X20932272Y-20670044D01*
X21027835Y-20660000D01*
X47967721Y-20660000D01*
X48065424Y-20669580D01*
%TA.AperFunction,Conductor*%
D16*
G36*
X48065424Y-20669580D02*
G01*
X48128356Y-20688580D01*
X48186405Y-20719445D01*
X48237343Y-20760989D01*
X48279248Y-20811644D01*
X48310515Y-20869471D01*
X48329956Y-20932272D01*
X48340000Y-21027835D01*
X48340001Y-52232681D01*
X48302756Y-52207795D01*
X48114398Y-52129774D01*
X47914439Y-52090000D01*
X47710561Y-52090000D01*
X47510602Y-52129774D01*
X47322244Y-52207795D01*
X47152726Y-52321063D01*
X47008563Y-52465226D01*
X46981987Y-52505000D01*
X45093285Y-52505000D01*
X44970256Y-52422795D01*
X44781898Y-52344774D01*
X44581939Y-52305000D01*
X44378061Y-52305000D01*
X44178102Y-52344774D01*
X44072246Y-52388621D01*
X44636775Y-51824092D01*
X44781898Y-51795226D01*
X44970256Y-51717205D01*
X45093285Y-51635000D01*
X46652378Y-51635000D01*
X46778062Y-51660000D01*
X46981940Y-51660000D01*
X47181899Y-51620226D01*
X47370257Y-51542205D01*
X47539775Y-51428937D01*
X47683938Y-51284774D01*
X47797206Y-51115256D01*
X47875227Y-50926898D01*
X47915001Y-50726939D01*
X47915001Y-50523061D01*
X47875227Y-50323102D01*
X47797206Y-50134744D01*
X47683938Y-49965226D01*
X47539775Y-49821063D01*
X47370257Y-49707795D01*
X47181899Y-49629774D01*
X46981940Y-49590000D01*
X46778062Y-49590000D01*
X46578103Y-49629774D01*
X46389745Y-49707795D01*
X46220227Y-49821063D01*
X46076290Y-49965000D01*
X45093285Y-49965000D01*
X44970256Y-49882795D01*
X44781898Y-49804774D01*
X44581939Y-49765000D01*
X44378061Y-49765000D01*
X44178102Y-49804774D01*
X44072246Y-49848621D01*
X44636775Y-49284092D01*
X44781898Y-49255226D01*
X44970256Y-49177205D01*
X45093285Y-49095000D01*
X45717202Y-49095000D01*
X45778103Y-49120226D01*
X45978062Y-49160000D01*
X46181940Y-49160000D01*
X46381899Y-49120226D01*
X46570257Y-49042205D01*
X46739775Y-48928937D01*
X46883938Y-48784774D01*
X46997206Y-48615256D01*
X47075227Y-48426898D01*
X47115001Y-48226939D01*
X47115001Y-48023061D01*
X47075227Y-47823102D01*
X46997206Y-47634744D01*
X46883938Y-47465226D01*
X46739775Y-47321063D01*
X46570257Y-47207795D01*
X46381899Y-47129774D01*
X46181940Y-47090000D01*
X45978062Y-47090000D01*
X45778103Y-47129774D01*
X45589745Y-47207795D01*
X45420227Y-47321063D01*
X45316290Y-47425000D01*
X45093285Y-47425000D01*
X44970256Y-47342795D01*
X44781898Y-47264774D01*
X44581939Y-47225000D01*
X44378061Y-47225000D01*
X44178102Y-47264774D01*
X44072246Y-47308621D01*
X44636775Y-46744092D01*
X44781898Y-46715226D01*
X44970256Y-46637205D01*
X45139774Y-46523937D01*
X45283937Y-46379774D01*
X45397205Y-46210256D01*
X45475226Y-46021898D01*
X45515000Y-45821939D01*
X45515000Y-45618061D01*
X45475226Y-45418102D01*
X45397205Y-45229744D01*
X45283937Y-45060226D01*
X45139774Y-44916063D01*
X44970256Y-44802795D01*
X44781898Y-44724774D01*
X44581939Y-44685000D01*
X44378061Y-44685000D01*
X44178102Y-44724774D01*
X43989744Y-44802795D01*
X43820226Y-44916063D01*
X43676063Y-45060226D01*
X43562795Y-45229744D01*
X43484774Y-45418102D01*
X43455908Y-45563225D01*
X42884132Y-46135001D01*
X38926544Y-46135001D01*
X38980000Y-45866260D01*
X38980000Y-45573740D01*
X38922932Y-45286842D01*
X38810990Y-45016589D01*
X38648475Y-44773368D01*
X38441632Y-44566525D01*
X38198411Y-44404010D01*
X37928158Y-44292068D01*
X37641260Y-44235000D01*
X37348740Y-44235000D01*
X37061842Y-44292068D01*
X36791589Y-44404010D01*
X36548368Y-44566525D01*
X36341525Y-44773368D01*
X36225000Y-44947760D01*
X36108475Y-44773368D01*
X35901632Y-44566525D01*
X35658411Y-44404010D01*
X35388158Y-44292068D01*
X35101260Y-44235000D01*
X34808740Y-44235000D01*
X34521842Y-44292068D01*
X34251589Y-44404010D01*
X34008368Y-44566525D01*
X33801525Y-44773368D01*
X33639010Y-45016589D01*
X33527068Y-45286842D01*
X33470000Y-45573740D01*
X33470000Y-45594133D01*
X33439093Y-45563225D01*
X33410226Y-45418102D01*
X33332205Y-45229744D01*
X33218937Y-45060226D01*
X33074774Y-44916063D01*
X32905256Y-44802795D01*
X32716898Y-44724774D01*
X32516939Y-44685000D01*
X32313061Y-44685000D01*
X32113102Y-44724774D01*
X31924744Y-44802795D01*
X31755226Y-44916063D01*
X31611063Y-45060226D01*
X31497795Y-45229744D01*
X31419774Y-45418102D01*
X31380000Y-45618061D01*
X31380000Y-45821939D01*
X31419774Y-46021898D01*
X31497795Y-46210256D01*
X31611063Y-46379774D01*
X31755226Y-46523937D01*
X31924744Y-46637205D01*
X32113102Y-46715226D01*
X32258225Y-46744093D01*
X32822753Y-47308621D01*
X32716898Y-47264774D01*
X32516939Y-47225000D01*
X32313061Y-47225000D01*
X32113102Y-47264774D01*
X31924744Y-47342795D01*
X31755226Y-47456063D01*
X31611063Y-47600226D01*
X31497795Y-47769744D01*
X31419774Y-47958102D01*
X31380000Y-48158061D01*
X31380000Y-48361939D01*
X31419774Y-48561898D01*
X31497795Y-48750256D01*
X31611063Y-48919774D01*
X31755226Y-49063937D01*
X31924744Y-49177205D01*
X32113102Y-49255226D01*
X32258225Y-49284093D01*
X32822753Y-49848621D01*
X32716898Y-49804774D01*
X32516939Y-49765000D01*
X32313061Y-49765000D01*
X32113102Y-49804774D01*
X31924744Y-49882795D01*
X31755226Y-49996063D01*
X31611063Y-50140226D01*
X31497795Y-50309744D01*
X31419774Y-50498102D01*
X31380000Y-50698061D01*
X31380000Y-50901939D01*
X31419774Y-51101898D01*
X31497795Y-51290256D01*
X31611063Y-51459774D01*
X31755226Y-51603937D01*
X31924744Y-51717205D01*
X32113102Y-51795226D01*
X32258225Y-51824093D01*
X32822753Y-52388621D01*
X32716898Y-52344774D01*
X32516939Y-52305000D01*
X32313061Y-52305000D01*
X32113102Y-52344774D01*
X31924744Y-52422795D01*
X31755226Y-52536063D01*
X31611063Y-52680226D01*
X31497795Y-52849744D01*
X31419774Y-53038102D01*
X31380000Y-53238061D01*
X31380000Y-53441939D01*
X31419774Y-53641898D01*
X31497795Y-53830256D01*
X31611063Y-53999774D01*
X31755226Y-54143937D01*
X31924744Y-54257205D01*
X32113102Y-54335226D01*
X32258225Y-54364093D01*
X32822753Y-54928621D01*
X32716898Y-54884774D01*
X32516939Y-54845000D01*
X32313061Y-54845000D01*
X32113102Y-54884774D01*
X31924744Y-54962795D01*
X31755226Y-55076063D01*
X31611063Y-55220226D01*
X31497795Y-55389744D01*
X31419774Y-55578102D01*
X31380000Y-55778061D01*
X31380000Y-55981939D01*
X31419774Y-56181898D01*
X31497795Y-56370256D01*
X31611063Y-56539774D01*
X31755226Y-56683937D01*
X31924744Y-56797205D01*
X32113102Y-56875226D01*
X32258225Y-56904093D01*
X32822753Y-57468621D01*
X32716898Y-57424774D01*
X32516939Y-57385000D01*
X32313061Y-57385000D01*
X32113102Y-57424774D01*
X31924744Y-57502795D01*
X31755226Y-57616063D01*
X31611063Y-57760226D01*
X31497795Y-57929744D01*
X31419774Y-58118102D01*
X31380000Y-58318061D01*
X31380000Y-58521939D01*
X31419774Y-58721898D01*
X31497795Y-58910256D01*
X31611063Y-59079774D01*
X31755226Y-59223937D01*
X31924744Y-59337205D01*
X32113102Y-59415226D01*
X32258225Y-59444093D01*
X32822753Y-60008621D01*
X32716898Y-59964774D01*
X32516939Y-59925000D01*
X32313061Y-59925000D01*
X32113102Y-59964774D01*
X31924744Y-60042795D01*
X31755226Y-60156063D01*
X31611063Y-60300226D01*
X31497795Y-60469744D01*
X31419774Y-60658102D01*
X31380000Y-60858061D01*
X31380000Y-61061939D01*
X31419774Y-61261898D01*
X31497795Y-61450256D01*
X31611063Y-61619774D01*
X31755226Y-61763937D01*
X31924744Y-61877205D01*
X32113102Y-61955226D01*
X32258225Y-61984093D01*
X32822753Y-62548621D01*
X32716898Y-62504774D01*
X32516939Y-62465000D01*
X32313061Y-62465000D01*
X32113102Y-62504774D01*
X31924744Y-62582795D01*
X31755226Y-62696063D01*
X31611063Y-62840226D01*
X31497795Y-63009744D01*
X31419774Y-63198102D01*
X31380000Y-63398061D01*
X31380000Y-63601939D01*
X31419774Y-63801898D01*
X31497795Y-63990256D01*
X31611063Y-64159774D01*
X31755226Y-64303937D01*
X31924744Y-64417205D01*
X32113102Y-64495226D01*
X32258225Y-64524093D01*
X33045559Y-65311427D01*
X33071710Y-65343292D01*
X33198855Y-65447637D01*
X33343914Y-65525173D01*
X33501312Y-65572919D01*
X33623982Y-65585001D01*
X33623992Y-65585001D01*
X33665000Y-65589040D01*
X33706008Y-65585001D01*
X43188981Y-65585001D01*
X43229999Y-65589041D01*
X43271017Y-65585001D01*
X43271018Y-65585001D01*
X43393688Y-65572919D01*
X43551086Y-65525173D01*
X43696145Y-65447637D01*
X43823290Y-65343292D01*
X43849445Y-65311422D01*
X44636775Y-64524092D01*
X44781898Y-64495226D01*
X44970256Y-64417205D01*
X45139774Y-64303937D01*
X45283937Y-64159774D01*
X45397205Y-63990256D01*
X45475226Y-63801898D01*
X45515000Y-63601939D01*
X45515000Y-63398061D01*
X45475226Y-63198102D01*
X45397205Y-63009744D01*
X45283937Y-62840226D01*
X45139774Y-62696063D01*
X44970256Y-62582795D01*
X44781898Y-62504774D01*
X44581939Y-62465000D01*
X44378061Y-62465000D01*
X44178102Y-62504774D01*
X44072246Y-62548621D01*
X44636775Y-61984092D01*
X44781898Y-61955226D01*
X44970256Y-61877205D01*
X45139774Y-61763937D01*
X45283937Y-61619774D01*
X45397205Y-61450256D01*
X45475226Y-61261898D01*
X45515000Y-61061939D01*
X45515000Y-60858061D01*
X45475226Y-60658102D01*
X45397205Y-60469744D01*
X45283937Y-60300226D01*
X45139774Y-60156063D01*
X44970256Y-60042795D01*
X44781898Y-59964774D01*
X44581939Y-59925000D01*
X44378061Y-59925000D01*
X44178102Y-59964774D01*
X44072246Y-60008621D01*
X44636775Y-59444092D01*
X44781898Y-59415226D01*
X44970256Y-59337205D01*
X45139774Y-59223937D01*
X45283937Y-59079774D01*
X45397205Y-58910256D01*
X45475226Y-58721898D01*
X45515000Y-58521939D01*
X45515000Y-58318061D01*
X45475226Y-58118102D01*
X45397205Y-57929744D01*
X45283937Y-57760226D01*
X45139774Y-57616063D01*
X44970256Y-57502795D01*
X44781898Y-57424774D01*
X44581939Y-57385000D01*
X44378061Y-57385000D01*
X44178102Y-57424774D01*
X44072246Y-57468621D01*
X44636775Y-56904092D01*
X44781898Y-56875226D01*
X44970256Y-56797205D01*
X45139774Y-56683937D01*
X45283937Y-56539774D01*
X45397205Y-56370256D01*
X45475226Y-56181898D01*
X45515000Y-55981939D01*
X45515000Y-55778061D01*
X45475226Y-55578102D01*
X45397205Y-55389744D01*
X45283937Y-55220226D01*
X45139774Y-55076063D01*
X44970256Y-54962795D01*
X44781898Y-54884774D01*
X44581939Y-54845000D01*
X44378061Y-54845000D01*
X44178102Y-54884774D01*
X44072246Y-54928621D01*
X44636775Y-54364092D01*
X44781898Y-54335226D01*
X44970256Y-54257205D01*
X45093285Y-54175000D01*
X47556482Y-54175000D01*
X47597500Y-54179040D01*
X47638518Y-54175000D01*
X47638519Y-54175000D01*
X47761189Y-54162918D01*
X47770808Y-54160000D01*
X47914439Y-54160000D01*
X48114398Y-54120226D01*
X48302756Y-54042205D01*
X48340001Y-54017319D01*
X48340001Y-72967711D01*
X48330420Y-73065424D01*
X48311420Y-73128357D01*
X48280554Y-73186406D01*
X48239011Y-73237343D01*
X48188356Y-73279248D01*
X48130529Y-73310515D01*
X48067728Y-73329956D01*
X47971252Y-73340096D01*
X47969782Y-73340101D01*
X47941095Y-73343014D01*
X47912257Y-73342813D01*
X47903086Y-73343713D01*
X47126699Y-73425315D01*
X47068106Y-73437342D01*
X47009342Y-73448552D01*
X47000520Y-73451215D01*
X46254771Y-73682063D01*
X46199608Y-73705251D01*
X46144162Y-73727653D01*
X46136026Y-73731979D01*
X45449316Y-74103282D01*
X45399741Y-74136721D01*
X45349670Y-74169486D01*
X45342529Y-74175311D01*
X44741017Y-74672924D01*
X44698863Y-74715374D01*
X44656127Y-74757224D01*
X44650253Y-74764324D01*
X44156852Y-75369295D01*
X44123764Y-75419096D01*
X44089953Y-75468476D01*
X44085570Y-75476582D01*
X43719071Y-76165867D01*
X43696280Y-76221161D01*
X43672710Y-76276154D01*
X43669985Y-76284957D01*
X43444348Y-77032302D01*
X43432725Y-77091005D01*
X43420292Y-77149494D01*
X43419329Y-77158658D01*
X43343151Y-77935581D01*
X43343150Y-77935595D01*
X43330420Y-78065424D01*
X43311420Y-78128357D01*
X43280554Y-78186406D01*
X43239011Y-78237343D01*
X43188356Y-78279248D01*
X43130529Y-78310515D01*
X43067728Y-78329956D01*
X42972165Y-78340000D01*
X36175645Y-78340000D01*
X36265396Y-78302824D01*
X36875824Y-77894950D01*
X37394950Y-77375824D01*
X37802824Y-76765396D01*
X38083773Y-76087126D01*
X38227000Y-75367077D01*
X38227000Y-74632923D01*
X38083773Y-73912874D01*
X37802824Y-73234604D01*
X37394950Y-72624176D01*
X36875824Y-72105050D01*
X36265396Y-71697176D01*
X35587126Y-71416227D01*
X34867077Y-71273000D01*
X34132923Y-71273000D01*
X33412874Y-71416227D01*
X32734604Y-71697176D01*
X32124176Y-72105050D01*
X31605050Y-72624176D01*
X31197176Y-73234604D01*
X30916227Y-73912874D01*
X30773000Y-74632923D01*
X30773000Y-75367077D01*
X30916227Y-76087126D01*
X31197176Y-76765396D01*
X31605050Y-77375824D01*
X32124176Y-77894950D01*
X32734604Y-78302824D01*
X32824355Y-78340000D01*
X26032279Y-78340000D01*
X25934576Y-78330420D01*
X25871643Y-78311420D01*
X25813594Y-78280554D01*
X25762657Y-78239011D01*
X25720752Y-78188356D01*
X25689485Y-78130529D01*
X25670044Y-78067728D01*
X25659904Y-77971252D01*
X25659899Y-77969782D01*
X25656986Y-77941095D01*
X25657187Y-77912257D01*
X25656287Y-77903086D01*
X25574685Y-77126699D01*
X25562658Y-77068106D01*
X25551448Y-77009342D01*
X25548785Y-77000520D01*
X25317937Y-76254771D01*
X25294749Y-76199608D01*
X25272347Y-76144162D01*
X25268021Y-76136026D01*
X24896718Y-75449316D01*
X24863279Y-75399741D01*
X24830514Y-75349670D01*
X24824689Y-75342529D01*
X24327076Y-74741017D01*
X24284621Y-74698858D01*
X24242776Y-74656127D01*
X24235676Y-74650253D01*
X23630705Y-74156852D01*
X23580904Y-74123764D01*
X23531524Y-74089953D01*
X23523418Y-74085570D01*
X22834133Y-73719071D01*
X22778839Y-73696280D01*
X22723846Y-73672710D01*
X22715043Y-73669985D01*
X21967698Y-73444348D01*
X21908995Y-73432725D01*
X21850506Y-73420292D01*
X21841342Y-73419329D01*
X21064419Y-73343151D01*
X21064405Y-73343150D01*
X20934576Y-73330420D01*
X20871643Y-73311420D01*
X20813594Y-73280554D01*
X20762657Y-73239011D01*
X20720752Y-73188356D01*
X20689485Y-73130529D01*
X20670044Y-73067728D01*
X20660000Y-72972165D01*
X20660000Y-45573740D01*
X21405000Y-45573740D01*
X21405000Y-45866260D01*
X21462068Y-46153158D01*
X21574010Y-46423411D01*
X21736525Y-46666632D01*
X21943368Y-46873475D01*
X22117760Y-46990000D01*
X21943368Y-47106525D01*
X21736525Y-47313368D01*
X21574010Y-47556589D01*
X21462068Y-47826842D01*
X21405000Y-48113740D01*
X21405000Y-48406260D01*
X21462068Y-48693158D01*
X21574010Y-48963411D01*
X21736525Y-49206632D01*
X21943368Y-49413475D01*
X22117760Y-49530000D01*
X21943368Y-49646525D01*
X21736525Y-49853368D01*
X21574010Y-50096589D01*
X21462068Y-50366842D01*
X21405000Y-50653740D01*
X21405000Y-50946260D01*
X21462068Y-51233158D01*
X21574010Y-51503411D01*
X21736525Y-51746632D01*
X21943368Y-51953475D01*
X22117760Y-52070000D01*
X21943368Y-52186525D01*
X21736525Y-52393368D01*
X21574010Y-52636589D01*
X21462068Y-52906842D01*
X21405000Y-53193740D01*
X21405000Y-53486260D01*
X21462068Y-53773158D01*
X21574010Y-54043411D01*
X21736525Y-54286632D01*
X21943368Y-54493475D01*
X22117760Y-54610000D01*
X21943368Y-54726525D01*
X21736525Y-54933368D01*
X21574010Y-55176589D01*
X21462068Y-55446842D01*
X21405000Y-55733740D01*
X21405000Y-56026260D01*
X21462068Y-56313158D01*
X21574010Y-56583411D01*
X21736525Y-56826632D01*
X21943368Y-57033475D01*
X22117760Y-57150000D01*
X21943368Y-57266525D01*
X21736525Y-57473368D01*
X21574010Y-57716589D01*
X21462068Y-57986842D01*
X21405000Y-58273740D01*
X21405000Y-58566260D01*
X21462068Y-58853158D01*
X21574010Y-59123411D01*
X21736525Y-59366632D01*
X21943368Y-59573475D01*
X22117760Y-59690000D01*
X21943368Y-59806525D01*
X21736525Y-60013368D01*
X21574010Y-60256589D01*
X21462068Y-60526842D01*
X21405000Y-60813740D01*
X21405000Y-61106260D01*
X21462068Y-61393158D01*
X21574010Y-61663411D01*
X21736525Y-61906632D01*
X21943368Y-62113475D01*
X22117760Y-62230000D01*
X21943368Y-62346525D01*
X21736525Y-62553368D01*
X21574010Y-62796589D01*
X21462068Y-63066842D01*
X21405000Y-63353740D01*
X21405000Y-63646260D01*
X21462068Y-63933158D01*
X21574010Y-64203411D01*
X21736525Y-64446632D01*
X21943368Y-64653475D01*
X22186589Y-64815990D01*
X22456842Y-64927932D01*
X22743740Y-64985000D01*
X23036260Y-64985000D01*
X23323158Y-64927932D01*
X23593411Y-64815990D01*
X23836632Y-64653475D01*
X23968487Y-64521620D01*
X23990498Y-64594180D01*
X24049463Y-64704494D01*
X24128815Y-64801185D01*
X24225506Y-64880537D01*
X24335820Y-64939502D01*
X24455518Y-64975812D01*
X24580000Y-64988072D01*
X26280000Y-64988072D01*
X26404482Y-64975812D01*
X26524180Y-64939502D01*
X26634494Y-64880537D01*
X26731185Y-64801185D01*
X26810537Y-64704494D01*
X26869502Y-64594180D01*
X26905812Y-64474482D01*
X26918072Y-64350000D01*
X26918072Y-62650000D01*
X26905812Y-62525518D01*
X26869502Y-62405820D01*
X26810537Y-62295506D01*
X26731185Y-62198815D01*
X26634494Y-62119463D01*
X26524180Y-62060498D01*
X26451620Y-62038487D01*
X26583475Y-61906632D01*
X26745990Y-61663411D01*
X26857932Y-61393158D01*
X26915000Y-61106260D01*
X26915000Y-60813740D01*
X26857932Y-60526842D01*
X26745990Y-60256589D01*
X26583475Y-60013368D01*
X26376632Y-59806525D01*
X26202240Y-59690000D01*
X26376632Y-59573475D01*
X26583475Y-59366632D01*
X26745990Y-59123411D01*
X26857932Y-58853158D01*
X26915000Y-58566260D01*
X26915000Y-58273740D01*
X26857932Y-57986842D01*
X26745990Y-57716589D01*
X26583475Y-57473368D01*
X26376632Y-57266525D01*
X26202240Y-57150000D01*
X26376632Y-57033475D01*
X26583475Y-56826632D01*
X26745990Y-56583411D01*
X26857932Y-56313158D01*
X26915000Y-56026260D01*
X26915000Y-55733740D01*
X26857932Y-55446842D01*
X26745990Y-55176589D01*
X26583475Y-54933368D01*
X26376632Y-54726525D01*
X26202240Y-54610000D01*
X26376632Y-54493475D01*
X26583475Y-54286632D01*
X26745990Y-54043411D01*
X26857932Y-53773158D01*
X26915000Y-53486260D01*
X26915000Y-53193740D01*
X26857932Y-52906842D01*
X26745990Y-52636589D01*
X26583475Y-52393368D01*
X26376632Y-52186525D01*
X26202240Y-52070000D01*
X26376632Y-51953475D01*
X26583475Y-51746632D01*
X26745990Y-51503411D01*
X26857932Y-51233158D01*
X26915000Y-50946260D01*
X26915000Y-50653740D01*
X26857932Y-50366842D01*
X26745990Y-50096589D01*
X26583475Y-49853368D01*
X26376632Y-49646525D01*
X26202240Y-49530000D01*
X26376632Y-49413475D01*
X26583475Y-49206632D01*
X26745990Y-48963411D01*
X26857932Y-48693158D01*
X26915000Y-48406260D01*
X26915000Y-48113740D01*
X26857932Y-47826842D01*
X26745990Y-47556589D01*
X26583475Y-47313368D01*
X26376632Y-47106525D01*
X26202240Y-46990000D01*
X26376632Y-46873475D01*
X26583475Y-46666632D01*
X26745990Y-46423411D01*
X26857932Y-46153158D01*
X26915000Y-45866260D01*
X26915000Y-45573740D01*
X26857932Y-45286842D01*
X26745990Y-45016589D01*
X26583475Y-44773368D01*
X26376632Y-44566525D01*
X26133411Y-44404010D01*
X25863158Y-44292068D01*
X25576260Y-44235000D01*
X25283740Y-44235000D01*
X24996842Y-44292068D01*
X24726589Y-44404010D01*
X24483368Y-44566525D01*
X24276525Y-44773368D01*
X24160000Y-44947760D01*
X24043475Y-44773368D01*
X23836632Y-44566525D01*
X23593411Y-44404010D01*
X23323158Y-44292068D01*
X23036260Y-44235000D01*
X22743740Y-44235000D01*
X22456842Y-44292068D01*
X22186589Y-44404010D01*
X21943368Y-44566525D01*
X21736525Y-44773368D01*
X21574010Y-45016589D01*
X21462068Y-45286842D01*
X21405000Y-45573740D01*
X20660000Y-45573740D01*
X20660000Y-23583740D01*
X24125000Y-23583740D01*
X24125000Y-23876260D01*
X24182068Y-24163158D01*
X24294010Y-24433411D01*
X24456525Y-24676632D01*
X24663368Y-24883475D01*
X24837760Y-25000000D01*
X24663368Y-25116525D01*
X24456525Y-25323368D01*
X24294010Y-25566589D01*
X24182068Y-25836842D01*
X24125000Y-26123740D01*
X24125000Y-26416260D01*
X24182068Y-26703158D01*
X24294010Y-26973411D01*
X24456525Y-27216632D01*
X24663368Y-27423475D01*
X24906589Y-27585990D01*
X25176842Y-27697932D01*
X25463740Y-27755000D01*
X25756260Y-27755000D01*
X26043158Y-27697932D01*
X26313411Y-27585990D01*
X26556632Y-27423475D01*
X26575107Y-27405000D01*
X27184893Y-27405000D01*
X27203368Y-27423475D01*
X27446589Y-27585990D01*
X27716842Y-27697932D01*
X28003740Y-27755000D01*
X28296260Y-27755000D01*
X28583158Y-27697932D01*
X28853411Y-27585990D01*
X29096632Y-27423475D01*
X29115107Y-27405000D01*
X29724893Y-27405000D01*
X29743368Y-27423475D01*
X29986589Y-27585990D01*
X30256842Y-27697932D01*
X30543740Y-27755000D01*
X30836260Y-27755000D01*
X31123158Y-27697932D01*
X31393411Y-27585990D01*
X31636632Y-27423475D01*
X31655107Y-27405000D01*
X32264893Y-27405000D01*
X32283368Y-27423475D01*
X32526589Y-27585990D01*
X32796842Y-27697932D01*
X33083740Y-27755000D01*
X33376260Y-27755000D01*
X33663158Y-27697932D01*
X33933411Y-27585990D01*
X34176632Y-27423475D01*
X34383475Y-27216632D01*
X34505195Y-27034466D01*
X34574822Y-27151355D01*
X34769731Y-27367588D01*
X35003080Y-27541641D01*
X35265901Y-27666825D01*
X35413110Y-27711476D01*
X35643000Y-27590155D01*
X35643000Y-26397000D01*
X35897000Y-26397000D01*
X35897000Y-27590155D01*
X36126890Y-27711476D01*
X36274099Y-27666825D01*
X36536920Y-27541641D01*
X36770269Y-27367588D01*
X36965178Y-27151355D01*
X37040000Y-27025745D01*
X37114822Y-27151355D01*
X37309731Y-27367588D01*
X37543080Y-27541641D01*
X37805901Y-27666825D01*
X37953110Y-27711476D01*
X38183000Y-27590155D01*
X38183000Y-26397000D01*
X38437000Y-26397000D01*
X38437000Y-27590155D01*
X38666890Y-27711476D01*
X38814099Y-27666825D01*
X39076920Y-27541641D01*
X39310269Y-27367588D01*
X39505178Y-27151355D01*
X39580000Y-27025745D01*
X39654822Y-27151355D01*
X39849731Y-27367588D01*
X40083080Y-27541641D01*
X40345901Y-27666825D01*
X40493110Y-27711476D01*
X40723000Y-27590155D01*
X40723000Y-26397000D01*
X40977000Y-26397000D01*
X40977000Y-27590155D01*
X41206890Y-27711476D01*
X41354099Y-27666825D01*
X41616920Y-27541641D01*
X41850269Y-27367588D01*
X41926034Y-27283534D01*
X41950498Y-27364180D01*
X42009463Y-27474494D01*
X42088815Y-27571185D01*
X42185506Y-27650537D01*
X42295820Y-27709502D01*
X42415518Y-27745812D01*
X42540000Y-27758072D01*
X43104250Y-27755000D01*
X43263000Y-27596250D01*
X43263000Y-26397000D01*
X43517000Y-26397000D01*
X43517000Y-27596250D01*
X43675750Y-27755000D01*
X44240000Y-27758072D01*
X44364482Y-27745812D01*
X44484180Y-27709502D01*
X44594494Y-27650537D01*
X44691185Y-27571185D01*
X44770537Y-27474494D01*
X44829502Y-27364180D01*
X44865812Y-27244482D01*
X44878072Y-27120000D01*
X44875000Y-26555750D01*
X44716250Y-26397000D01*
X43517000Y-26397000D01*
X43263000Y-26397000D01*
X40977000Y-26397000D01*
X40723000Y-26397000D01*
X38437000Y-26397000D01*
X38183000Y-26397000D01*
X35897000Y-26397000D01*
X35643000Y-26397000D01*
X35623000Y-26397000D01*
X35623000Y-26143000D01*
X35643000Y-26143000D01*
X35643000Y-26123000D01*
X35897000Y-26123000D01*
X35897000Y-26143000D01*
X38183000Y-26143000D01*
X38183000Y-26123000D01*
X38437000Y-26123000D01*
X38437000Y-26143000D01*
X40723000Y-26143000D01*
X40723000Y-26123000D01*
X40977000Y-26123000D01*
X40977000Y-26143000D01*
X43263000Y-26143000D01*
X43263000Y-26123000D01*
X43517000Y-26123000D01*
X43517000Y-26143000D01*
X44716250Y-26143000D01*
X44875000Y-25984250D01*
X44878072Y-25420000D01*
X44865812Y-25295518D01*
X44829502Y-25175820D01*
X44770537Y-25065506D01*
X44691185Y-24968815D01*
X44594494Y-24889463D01*
X44484180Y-24830498D01*
X44411620Y-24808487D01*
X44543475Y-24676632D01*
X44705990Y-24433411D01*
X44817932Y-24163158D01*
X44875000Y-23876260D01*
X44875000Y-23583740D01*
X44817932Y-23296842D01*
X44705990Y-23026589D01*
X44543475Y-22783368D01*
X44336632Y-22576525D01*
X44093411Y-22414010D01*
X43823158Y-22302068D01*
X43536260Y-22245000D01*
X43243740Y-22245000D01*
X42956842Y-22302068D01*
X42686589Y-22414010D01*
X42443368Y-22576525D01*
X42236525Y-22783368D01*
X42120000Y-22957760D01*
X42003475Y-22783368D01*
X41796632Y-22576525D01*
X41553411Y-22414010D01*
X41283158Y-22302068D01*
X40996260Y-22245000D01*
X40703740Y-22245000D01*
X40416842Y-22302068D01*
X40146589Y-22414010D01*
X39903368Y-22576525D01*
X39696525Y-22783368D01*
X39580000Y-22957760D01*
X39463475Y-22783368D01*
X39256632Y-22576525D01*
X39013411Y-22414010D01*
X38743158Y-22302068D01*
X38456260Y-22245000D01*
X38163740Y-22245000D01*
X37876842Y-22302068D01*
X37606589Y-22414010D01*
X37363368Y-22576525D01*
X37156525Y-22783368D01*
X37040000Y-22957760D01*
X36923475Y-22783368D01*
X36716632Y-22576525D01*
X36473411Y-22414010D01*
X36203158Y-22302068D01*
X35916260Y-22245000D01*
X35623740Y-22245000D01*
X35336842Y-22302068D01*
X35066589Y-22414010D01*
X34823368Y-22576525D01*
X34616525Y-22783368D01*
X34500000Y-22957760D01*
X34383475Y-22783368D01*
X34176632Y-22576525D01*
X33933411Y-22414010D01*
X33663158Y-22302068D01*
X33376260Y-22245000D01*
X33083740Y-22245000D01*
X32796842Y-22302068D01*
X32526589Y-22414010D01*
X32283368Y-22576525D01*
X32076525Y-22783368D01*
X31960000Y-22957760D01*
X31843475Y-22783368D01*
X31636632Y-22576525D01*
X31393411Y-22414010D01*
X31123158Y-22302068D01*
X30836260Y-22245000D01*
X30543740Y-22245000D01*
X30256842Y-22302068D01*
X29986589Y-22414010D01*
X29743368Y-22576525D01*
X29536525Y-22783368D01*
X29420000Y-22957760D01*
X29303475Y-22783368D01*
X29096632Y-22576525D01*
X28853411Y-22414010D01*
X28583158Y-22302068D01*
X28296260Y-22245000D01*
X28003740Y-22245000D01*
X27716842Y-22302068D01*
X27446589Y-22414010D01*
X27203368Y-22576525D01*
X26996525Y-22783368D01*
X26880000Y-22957760D01*
X26763475Y-22783368D01*
X26556632Y-22576525D01*
X26313411Y-22414010D01*
X26043158Y-22302068D01*
X25756260Y-22245000D01*
X25463740Y-22245000D01*
X25176842Y-22302068D01*
X24906589Y-22414010D01*
X24663368Y-22576525D01*
X24456525Y-22783368D01*
X24294010Y-23026589D01*
X24182068Y-23296842D01*
X24125000Y-23583740D01*
X20660000Y-23583740D01*
X20660000Y-21032279D01*
X20669580Y-20934576D01*
X20688580Y-20871644D01*
X20719445Y-20813595D01*
X20760989Y-20762657D01*
X20811644Y-20720752D01*
X20869471Y-20689485D01*
X20932272Y-20670044D01*
X21027835Y-20660000D01*
X47967721Y-20660000D01*
X48065424Y-20669580D01*
G37*
%TD.AperFunction*%
%TD*%
M02*
