M48
; DRILL file {KiCad (5.1.9)-1} date 08/11/21 21:43:03
; FORMAT={-:-/ absolute / metric / decimal}
; #@! TF.CreationDate,2021-08-11T21:43:03+01:00
; #@! TF.GenerationSoftware,Kicad,Pcbnew,(5.1.9)-1
; #@! TF.FileFunction,Plated,1,2,PTH
FMAT,2
METRIC
T1C0.400
T2C1.000
%
G90
G05
T1
X23.265Y-72.025
X25.938Y-39.375
X25.938Y-40.625
X25.938Y-41.875
X27.5Y-39.375
X27.5Y-40.625
X27.5Y-41.875
X32.415Y-45.72
X32.415Y-48.26
X32.415Y-50.8
X32.415Y-53.34
X32.415Y-55.88
X32.415Y-58.42
X32.415Y-60.96
X32.415Y-63.5
X44.48Y-45.72
X44.48Y-48.26
X44.48Y-50.8
X44.48Y-53.34
X44.48Y-55.88
X44.48Y-58.42
X44.48Y-60.96
X44.48Y-63.5
X45.49Y-72.025
X46.08Y-48.125
X46.88Y-50.625
X47.812Y-53.125
T2
X22.89Y-45.72
X22.89Y-48.26
X22.89Y-50.8
X22.89Y-53.34
X22.89Y-55.88
X22.89Y-58.42
X22.89Y-60.96
X22.89Y-63.5
X25.43Y-45.72
X25.43Y-48.26
X25.43Y-50.8
X25.43Y-53.34
X25.43Y-55.88
X25.43Y-58.42
X25.43Y-60.96
X25.43Y-63.5
X25.61Y-23.73
X25.61Y-26.27
X28.15Y-23.73
X28.15Y-26.27
X30.69Y-23.73
X30.69Y-26.27
X33.23Y-23.73
X33.23Y-26.27
X34.955Y-45.72
X34.955Y-48.26
X34.955Y-50.8
X34.955Y-53.34
X34.955Y-55.88
X34.955Y-58.42
X34.955Y-60.96
X34.955Y-63.5
X35.77Y-23.73
X35.77Y-26.27
X37.495Y-45.72
X37.495Y-48.26
X37.495Y-50.8
X37.495Y-53.34
X37.495Y-55.88
X37.495Y-58.42
X37.495Y-60.96
X37.495Y-63.5
X38.31Y-23.73
X38.31Y-26.27
X40.85Y-23.73
X40.85Y-26.27
X43.39Y-23.73
X43.39Y-26.27
T0
M30
