%TF.GenerationSoftware,KiCad,Pcbnew,(5.1.9)-1*%
%TF.CreationDate,2021-05-23T18:33:47+01:00*%
%TF.ProjectId,LEDStrike,4c454453-7472-4696-9b65-2e6b69636164,rev?*%
%TF.SameCoordinates,Original*%
%TF.FileFunction,Legend,Top*%
%TF.FilePolarity,Positive*%
%FSLAX46Y46*%
G04 Gerber Fmt 4.6, Leading zero omitted, Abs format (unit mm)*
G04 Created by KiCad (PCBNEW (5.1.9)-1) date 2021-05-23 18:33:47*
%MOMM*%
%LPD*%
G01*
G04 APERTURE LIST*
%ADD10C,0.120000*%
%ADD11C,0.150000*%
G04 APERTURE END LIST*
D10*
%TO.C,D6*%
X82500000Y-52700000D02*
X77500000Y-52700000D01*
X76400000Y-48400000D02*
X76400000Y-47300000D01*
X76400000Y-47300000D02*
X82500000Y-47300000D01*
%TO.C,D5*%
X72500000Y-52700000D02*
X67500000Y-52700000D01*
X66400000Y-48400000D02*
X66400000Y-47300000D01*
X66400000Y-47300000D02*
X72500000Y-47300000D01*
%TO.C,D4*%
X62500000Y-52700000D02*
X57500000Y-52700000D01*
X56400000Y-48400000D02*
X56400000Y-47300000D01*
X56400000Y-47300000D02*
X62500000Y-47300000D01*
%TO.C,D3*%
X52500000Y-52700000D02*
X47500000Y-52700000D01*
X46400000Y-48400000D02*
X46400000Y-47300000D01*
X46400000Y-47300000D02*
X52500000Y-47300000D01*
%TO.C,D2*%
X42500000Y-52700000D02*
X37500000Y-52700000D01*
X36400000Y-48400000D02*
X36400000Y-47300000D01*
X36400000Y-47300000D02*
X42500000Y-47300000D01*
%TO.C,D1*%
X32500000Y-52700000D02*
X27500000Y-52700000D01*
X26400000Y-48400000D02*
X26400000Y-47300000D01*
X26400000Y-47300000D02*
X32500000Y-47300000D01*
%TO.C,C6*%
X80261252Y-53265000D02*
X79738748Y-53265000D01*
X80261252Y-54735000D02*
X79738748Y-54735000D01*
%TO.C,C5*%
X70261252Y-53265000D02*
X69738748Y-53265000D01*
X70261252Y-54735000D02*
X69738748Y-54735000D01*
%TO.C,C4*%
X60261252Y-53265000D02*
X59738748Y-53265000D01*
X60261252Y-54735000D02*
X59738748Y-54735000D01*
%TO.C,C3*%
X50261252Y-53265000D02*
X49738748Y-53265000D01*
X50261252Y-54735000D02*
X49738748Y-54735000D01*
%TO.C,C2*%
X40261252Y-53265000D02*
X39738748Y-53265000D01*
X40261252Y-54735000D02*
X39738748Y-54735000D01*
%TO.C,C1*%
X30261252Y-53265000D02*
X29738748Y-53265000D01*
X30261252Y-54735000D02*
X29738748Y-54735000D01*
%TO.C,D6*%
D11*
X79261904Y-46952380D02*
X79261904Y-45952380D01*
X79500000Y-45952380D01*
X79642857Y-46000000D01*
X79738095Y-46095238D01*
X79785714Y-46190476D01*
X79833333Y-46380952D01*
X79833333Y-46523809D01*
X79785714Y-46714285D01*
X79738095Y-46809523D01*
X79642857Y-46904761D01*
X79500000Y-46952380D01*
X79261904Y-46952380D01*
X80690476Y-45952380D02*
X80500000Y-45952380D01*
X80404761Y-46000000D01*
X80357142Y-46047619D01*
X80261904Y-46190476D01*
X80214285Y-46380952D01*
X80214285Y-46761904D01*
X80261904Y-46857142D01*
X80309523Y-46904761D01*
X80404761Y-46952380D01*
X80595238Y-46952380D01*
X80690476Y-46904761D01*
X80738095Y-46857142D01*
X80785714Y-46761904D01*
X80785714Y-46523809D01*
X80738095Y-46428571D01*
X80690476Y-46380952D01*
X80595238Y-46333333D01*
X80404761Y-46333333D01*
X80309523Y-46380952D01*
X80261904Y-46428571D01*
X80214285Y-46523809D01*
%TO.C,D5*%
X69261904Y-46952380D02*
X69261904Y-45952380D01*
X69500000Y-45952380D01*
X69642857Y-46000000D01*
X69738095Y-46095238D01*
X69785714Y-46190476D01*
X69833333Y-46380952D01*
X69833333Y-46523809D01*
X69785714Y-46714285D01*
X69738095Y-46809523D01*
X69642857Y-46904761D01*
X69500000Y-46952380D01*
X69261904Y-46952380D01*
X70738095Y-45952380D02*
X70261904Y-45952380D01*
X70214285Y-46428571D01*
X70261904Y-46380952D01*
X70357142Y-46333333D01*
X70595238Y-46333333D01*
X70690476Y-46380952D01*
X70738095Y-46428571D01*
X70785714Y-46523809D01*
X70785714Y-46761904D01*
X70738095Y-46857142D01*
X70690476Y-46904761D01*
X70595238Y-46952380D01*
X70357142Y-46952380D01*
X70261904Y-46904761D01*
X70214285Y-46857142D01*
%TO.C,D4*%
X59261904Y-46952380D02*
X59261904Y-45952380D01*
X59500000Y-45952380D01*
X59642857Y-46000000D01*
X59738095Y-46095238D01*
X59785714Y-46190476D01*
X59833333Y-46380952D01*
X59833333Y-46523809D01*
X59785714Y-46714285D01*
X59738095Y-46809523D01*
X59642857Y-46904761D01*
X59500000Y-46952380D01*
X59261904Y-46952380D01*
X60690476Y-46285714D02*
X60690476Y-46952380D01*
X60452380Y-45904761D02*
X60214285Y-46619047D01*
X60833333Y-46619047D01*
%TO.C,D3*%
X49261904Y-46952380D02*
X49261904Y-45952380D01*
X49500000Y-45952380D01*
X49642857Y-46000000D01*
X49738095Y-46095238D01*
X49785714Y-46190476D01*
X49833333Y-46380952D01*
X49833333Y-46523809D01*
X49785714Y-46714285D01*
X49738095Y-46809523D01*
X49642857Y-46904761D01*
X49500000Y-46952380D01*
X49261904Y-46952380D01*
X50166666Y-45952380D02*
X50785714Y-45952380D01*
X50452380Y-46333333D01*
X50595238Y-46333333D01*
X50690476Y-46380952D01*
X50738095Y-46428571D01*
X50785714Y-46523809D01*
X50785714Y-46761904D01*
X50738095Y-46857142D01*
X50690476Y-46904761D01*
X50595238Y-46952380D01*
X50309523Y-46952380D01*
X50214285Y-46904761D01*
X50166666Y-46857142D01*
%TO.C,D2*%
X39261904Y-46952380D02*
X39261904Y-45952380D01*
X39500000Y-45952380D01*
X39642857Y-46000000D01*
X39738095Y-46095238D01*
X39785714Y-46190476D01*
X39833333Y-46380952D01*
X39833333Y-46523809D01*
X39785714Y-46714285D01*
X39738095Y-46809523D01*
X39642857Y-46904761D01*
X39500000Y-46952380D01*
X39261904Y-46952380D01*
X40214285Y-46047619D02*
X40261904Y-46000000D01*
X40357142Y-45952380D01*
X40595238Y-45952380D01*
X40690476Y-46000000D01*
X40738095Y-46047619D01*
X40785714Y-46142857D01*
X40785714Y-46238095D01*
X40738095Y-46380952D01*
X40166666Y-46952380D01*
X40785714Y-46952380D01*
%TO.C,D1*%
X29261904Y-46952380D02*
X29261904Y-45952380D01*
X29500000Y-45952380D01*
X29642857Y-46000000D01*
X29738095Y-46095238D01*
X29785714Y-46190476D01*
X29833333Y-46380952D01*
X29833333Y-46523809D01*
X29785714Y-46714285D01*
X29738095Y-46809523D01*
X29642857Y-46904761D01*
X29500000Y-46952380D01*
X29261904Y-46952380D01*
X30785714Y-46952380D02*
X30214285Y-46952380D01*
X30500000Y-46952380D02*
X30500000Y-45952380D01*
X30404761Y-46095238D01*
X30309523Y-46190476D01*
X30214285Y-46238095D01*
%TO.C,C6*%
X82583333Y-54357142D02*
X82535714Y-54404761D01*
X82392857Y-54452380D01*
X82297619Y-54452380D01*
X82154761Y-54404761D01*
X82059523Y-54309523D01*
X82011904Y-54214285D01*
X81964285Y-54023809D01*
X81964285Y-53880952D01*
X82011904Y-53690476D01*
X82059523Y-53595238D01*
X82154761Y-53500000D01*
X82297619Y-53452380D01*
X82392857Y-53452380D01*
X82535714Y-53500000D01*
X82583333Y-53547619D01*
X83440476Y-53452380D02*
X83250000Y-53452380D01*
X83154761Y-53500000D01*
X83107142Y-53547619D01*
X83011904Y-53690476D01*
X82964285Y-53880952D01*
X82964285Y-54261904D01*
X83011904Y-54357142D01*
X83059523Y-54404761D01*
X83154761Y-54452380D01*
X83345238Y-54452380D01*
X83440476Y-54404761D01*
X83488095Y-54357142D01*
X83535714Y-54261904D01*
X83535714Y-54023809D01*
X83488095Y-53928571D01*
X83440476Y-53880952D01*
X83345238Y-53833333D01*
X83154761Y-53833333D01*
X83059523Y-53880952D01*
X83011904Y-53928571D01*
X82964285Y-54023809D01*
%TO.C,C5*%
X72583333Y-54357142D02*
X72535714Y-54404761D01*
X72392857Y-54452380D01*
X72297619Y-54452380D01*
X72154761Y-54404761D01*
X72059523Y-54309523D01*
X72011904Y-54214285D01*
X71964285Y-54023809D01*
X71964285Y-53880952D01*
X72011904Y-53690476D01*
X72059523Y-53595238D01*
X72154761Y-53500000D01*
X72297619Y-53452380D01*
X72392857Y-53452380D01*
X72535714Y-53500000D01*
X72583333Y-53547619D01*
X73488095Y-53452380D02*
X73011904Y-53452380D01*
X72964285Y-53928571D01*
X73011904Y-53880952D01*
X73107142Y-53833333D01*
X73345238Y-53833333D01*
X73440476Y-53880952D01*
X73488095Y-53928571D01*
X73535714Y-54023809D01*
X73535714Y-54261904D01*
X73488095Y-54357142D01*
X73440476Y-54404761D01*
X73345238Y-54452380D01*
X73107142Y-54452380D01*
X73011904Y-54404761D01*
X72964285Y-54357142D01*
%TO.C,C4*%
X62583333Y-54357142D02*
X62535714Y-54404761D01*
X62392857Y-54452380D01*
X62297619Y-54452380D01*
X62154761Y-54404761D01*
X62059523Y-54309523D01*
X62011904Y-54214285D01*
X61964285Y-54023809D01*
X61964285Y-53880952D01*
X62011904Y-53690476D01*
X62059523Y-53595238D01*
X62154761Y-53500000D01*
X62297619Y-53452380D01*
X62392857Y-53452380D01*
X62535714Y-53500000D01*
X62583333Y-53547619D01*
X63440476Y-53785714D02*
X63440476Y-54452380D01*
X63202380Y-53404761D02*
X62964285Y-54119047D01*
X63583333Y-54119047D01*
%TO.C,C3*%
X52583333Y-54357142D02*
X52535714Y-54404761D01*
X52392857Y-54452380D01*
X52297619Y-54452380D01*
X52154761Y-54404761D01*
X52059523Y-54309523D01*
X52011904Y-54214285D01*
X51964285Y-54023809D01*
X51964285Y-53880952D01*
X52011904Y-53690476D01*
X52059523Y-53595238D01*
X52154761Y-53500000D01*
X52297619Y-53452380D01*
X52392857Y-53452380D01*
X52535714Y-53500000D01*
X52583333Y-53547619D01*
X52916666Y-53452380D02*
X53535714Y-53452380D01*
X53202380Y-53833333D01*
X53345238Y-53833333D01*
X53440476Y-53880952D01*
X53488095Y-53928571D01*
X53535714Y-54023809D01*
X53535714Y-54261904D01*
X53488095Y-54357142D01*
X53440476Y-54404761D01*
X53345238Y-54452380D01*
X53059523Y-54452380D01*
X52964285Y-54404761D01*
X52916666Y-54357142D01*
%TO.C,C2*%
X42583333Y-54357142D02*
X42535714Y-54404761D01*
X42392857Y-54452380D01*
X42297619Y-54452380D01*
X42154761Y-54404761D01*
X42059523Y-54309523D01*
X42011904Y-54214285D01*
X41964285Y-54023809D01*
X41964285Y-53880952D01*
X42011904Y-53690476D01*
X42059523Y-53595238D01*
X42154761Y-53500000D01*
X42297619Y-53452380D01*
X42392857Y-53452380D01*
X42535714Y-53500000D01*
X42583333Y-53547619D01*
X42964285Y-53547619D02*
X43011904Y-53500000D01*
X43107142Y-53452380D01*
X43345238Y-53452380D01*
X43440476Y-53500000D01*
X43488095Y-53547619D01*
X43535714Y-53642857D01*
X43535714Y-53738095D01*
X43488095Y-53880952D01*
X42916666Y-54452380D01*
X43535714Y-54452380D01*
%TO.C,C1*%
X32583333Y-54357142D02*
X32535714Y-54404761D01*
X32392857Y-54452380D01*
X32297619Y-54452380D01*
X32154761Y-54404761D01*
X32059523Y-54309523D01*
X32011904Y-54214285D01*
X31964285Y-54023809D01*
X31964285Y-53880952D01*
X32011904Y-53690476D01*
X32059523Y-53595238D01*
X32154761Y-53500000D01*
X32297619Y-53452380D01*
X32392857Y-53452380D01*
X32535714Y-53500000D01*
X32583333Y-53547619D01*
X33535714Y-54452380D02*
X32964285Y-54452380D01*
X33250000Y-54452380D02*
X33250000Y-53452380D01*
X33154761Y-53595238D01*
X33059523Y-53690476D01*
X32964285Y-53738095D01*
%TD*%
M02*
