%TF.GenerationSoftware,KiCad,Pcbnew,(5.1.9)-1*%
%TF.CreationDate,2021-05-23T18:39:07+01:00*%
%TF.ProjectId,LEDMaze,4c45444d-617a-4652-9e6b-696361645f70,rev?*%
%TF.SameCoordinates,Original*%
%TF.FileFunction,Soldermask,Top*%
%TF.FilePolarity,Negative*%
%FSLAX46Y46*%
G04 Gerber Fmt 4.6, Leading zero omitted, Abs format (unit mm)*
G04 Created by KiCad (PCBNEW (5.1.9)-1) date 2021-05-23 18:39:07*
%MOMM*%
%LPD*%
G01*
G04 APERTURE LIST*
%ADD10C,3.200000*%
%ADD11R,2.000000X1.100000*%
G04 APERTURE END LIST*
D10*
%TO.C,REF\u002A\u002A*%
X90000000Y-50000000D03*
%TD*%
%TO.C,REF\u002A\u002A*%
X90000000Y-100000000D03*
%TD*%
%TO.C,REF\u002A\u002A*%
X20000000Y-100000000D03*
%TD*%
%TO.C,REF\u002A\u002A*%
X20000000Y-50000000D03*
%TD*%
D11*
%TO.C,D36*%
X27600000Y-101700000D03*
X27600000Y-100000000D03*
X27600000Y-98300000D03*
X32400000Y-98300000D03*
X32400000Y-100000000D03*
X32400000Y-101700000D03*
%TD*%
%TO.C,D35*%
X37600000Y-101700000D03*
X37600000Y-100000000D03*
X37600000Y-98300000D03*
X42400000Y-98300000D03*
X42400000Y-100000000D03*
X42400000Y-101700000D03*
%TD*%
%TO.C,D34*%
X47600000Y-101700000D03*
X47600000Y-100000000D03*
X47600000Y-98300000D03*
X52400000Y-98300000D03*
X52400000Y-100000000D03*
X52400000Y-101700000D03*
%TD*%
%TO.C,D33*%
X57600000Y-101700000D03*
X57600000Y-100000000D03*
X57600000Y-98300000D03*
X62400000Y-98300000D03*
X62400000Y-100000000D03*
X62400000Y-101700000D03*
%TD*%
%TO.C,D32*%
X67600000Y-101700000D03*
X67600000Y-100000000D03*
X67600000Y-98300000D03*
X72400000Y-98300000D03*
X72400000Y-100000000D03*
X72400000Y-101700000D03*
%TD*%
%TO.C,D31*%
X77600000Y-101700000D03*
X77600000Y-100000000D03*
X77600000Y-98300000D03*
X82400000Y-98300000D03*
X82400000Y-100000000D03*
X82400000Y-101700000D03*
%TD*%
%TO.C,D30*%
X82400000Y-88300000D03*
X82400000Y-90000000D03*
X82400000Y-91700000D03*
X77600000Y-91700000D03*
X77600000Y-90000000D03*
X77600000Y-88300000D03*
%TD*%
%TO.C,D29*%
X72400000Y-88300000D03*
X72400000Y-90000000D03*
X72400000Y-91700000D03*
X67600000Y-91700000D03*
X67600000Y-90000000D03*
X67600000Y-88300000D03*
%TD*%
%TO.C,D28*%
X62400000Y-88300000D03*
X62400000Y-90000000D03*
X62400000Y-91700000D03*
X57600000Y-91700000D03*
X57600000Y-90000000D03*
X57600000Y-88300000D03*
%TD*%
%TO.C,D27*%
X52400000Y-88300000D03*
X52400000Y-90000000D03*
X52400000Y-91700000D03*
X47600000Y-91700000D03*
X47600000Y-90000000D03*
X47600000Y-88300000D03*
%TD*%
%TO.C,D26*%
X42400000Y-88300000D03*
X42400000Y-90000000D03*
X42400000Y-91700000D03*
X37600000Y-91700000D03*
X37600000Y-90000000D03*
X37600000Y-88300000D03*
%TD*%
%TO.C,D25*%
X32400000Y-88300000D03*
X32400000Y-90000000D03*
X32400000Y-91700000D03*
X27600000Y-91700000D03*
X27600000Y-90000000D03*
X27600000Y-88300000D03*
%TD*%
%TO.C,D24*%
X27600000Y-81700000D03*
X27600000Y-80000000D03*
X27600000Y-78300000D03*
X32400000Y-78300000D03*
X32400000Y-80000000D03*
X32400000Y-81700000D03*
%TD*%
%TO.C,D23*%
X37600000Y-81700000D03*
X37600000Y-80000000D03*
X37600000Y-78300000D03*
X42400000Y-78300000D03*
X42400000Y-80000000D03*
X42400000Y-81700000D03*
%TD*%
%TO.C,D22*%
X47600000Y-81700000D03*
X47600000Y-80000000D03*
X47600000Y-78300000D03*
X52400000Y-78300000D03*
X52400000Y-80000000D03*
X52400000Y-81700000D03*
%TD*%
%TO.C,D21*%
X57600000Y-81700000D03*
X57600000Y-80000000D03*
X57600000Y-78300000D03*
X62400000Y-78300000D03*
X62400000Y-80000000D03*
X62400000Y-81700000D03*
%TD*%
%TO.C,D20*%
X67600000Y-81700000D03*
X67600000Y-80000000D03*
X67600000Y-78300000D03*
X72400000Y-78300000D03*
X72400000Y-80000000D03*
X72400000Y-81700000D03*
%TD*%
%TO.C,D19*%
X77600000Y-81700000D03*
X77600000Y-80000000D03*
X77600000Y-78300000D03*
X82400000Y-78300000D03*
X82400000Y-80000000D03*
X82400000Y-81700000D03*
%TD*%
%TO.C,D18*%
X82400000Y-68300000D03*
X82400000Y-70000000D03*
X82400000Y-71700000D03*
X77600000Y-71700000D03*
X77600000Y-70000000D03*
X77600000Y-68300000D03*
%TD*%
%TO.C,D17*%
X72400000Y-68300000D03*
X72400000Y-70000000D03*
X72400000Y-71700000D03*
X67600000Y-71700000D03*
X67600000Y-70000000D03*
X67600000Y-68300000D03*
%TD*%
%TO.C,D16*%
X62400000Y-68300000D03*
X62400000Y-70000000D03*
X62400000Y-71700000D03*
X57600000Y-71700000D03*
X57600000Y-70000000D03*
X57600000Y-68300000D03*
%TD*%
%TO.C,D15*%
X52400000Y-68300000D03*
X52400000Y-70000000D03*
X52400000Y-71700000D03*
X47600000Y-71700000D03*
X47600000Y-70000000D03*
X47600000Y-68300000D03*
%TD*%
%TO.C,D14*%
X42400000Y-68300000D03*
X42400000Y-70000000D03*
X42400000Y-71700000D03*
X37600000Y-71700000D03*
X37600000Y-70000000D03*
X37600000Y-68300000D03*
%TD*%
%TO.C,D13*%
X32400000Y-68300000D03*
X32400000Y-70000000D03*
X32400000Y-71700000D03*
X27600000Y-71700000D03*
X27600000Y-70000000D03*
X27600000Y-68300000D03*
%TD*%
%TO.C,D12*%
X27600000Y-61700000D03*
X27600000Y-60000000D03*
X27600000Y-58300000D03*
X32400000Y-58300000D03*
X32400000Y-60000000D03*
X32400000Y-61700000D03*
%TD*%
%TO.C,D11*%
X37600000Y-61700000D03*
X37600000Y-60000000D03*
X37600000Y-58300000D03*
X42400000Y-58300000D03*
X42400000Y-60000000D03*
X42400000Y-61700000D03*
%TD*%
%TO.C,D10*%
X47600000Y-61700000D03*
X47600000Y-60000000D03*
X47600000Y-58300000D03*
X52400000Y-58300000D03*
X52400000Y-60000000D03*
X52400000Y-61700000D03*
%TD*%
%TO.C,D9*%
X57600000Y-61700000D03*
X57600000Y-60000000D03*
X57600000Y-58300000D03*
X62400000Y-58300000D03*
X62400000Y-60000000D03*
X62400000Y-61700000D03*
%TD*%
%TO.C,D8*%
X67600000Y-61700000D03*
X67600000Y-60000000D03*
X67600000Y-58300000D03*
X72400000Y-58300000D03*
X72400000Y-60000000D03*
X72400000Y-61700000D03*
%TD*%
%TO.C,D7*%
X77600000Y-61700000D03*
X77600000Y-60000000D03*
X77600000Y-58300000D03*
X82400000Y-58300000D03*
X82400000Y-60000000D03*
X82400000Y-61700000D03*
%TD*%
%TO.C,C36*%
G36*
G01*
X30450000Y-96475000D02*
X30450000Y-95525000D01*
G75*
G02*
X30700000Y-95275000I250000J0D01*
G01*
X31200000Y-95275000D01*
G75*
G02*
X31450000Y-95525000I0J-250000D01*
G01*
X31450000Y-96475000D01*
G75*
G02*
X31200000Y-96725000I-250000J0D01*
G01*
X30700000Y-96725000D01*
G75*
G02*
X30450000Y-96475000I0J250000D01*
G01*
G37*
G36*
G01*
X28550000Y-96475000D02*
X28550000Y-95525000D01*
G75*
G02*
X28800000Y-95275000I250000J0D01*
G01*
X29300000Y-95275000D01*
G75*
G02*
X29550000Y-95525000I0J-250000D01*
G01*
X29550000Y-96475000D01*
G75*
G02*
X29300000Y-96725000I-250000J0D01*
G01*
X28800000Y-96725000D01*
G75*
G02*
X28550000Y-96475000I0J250000D01*
G01*
G37*
%TD*%
%TO.C,C35*%
G36*
G01*
X40450000Y-96475000D02*
X40450000Y-95525000D01*
G75*
G02*
X40700000Y-95275000I250000J0D01*
G01*
X41200000Y-95275000D01*
G75*
G02*
X41450000Y-95525000I0J-250000D01*
G01*
X41450000Y-96475000D01*
G75*
G02*
X41200000Y-96725000I-250000J0D01*
G01*
X40700000Y-96725000D01*
G75*
G02*
X40450000Y-96475000I0J250000D01*
G01*
G37*
G36*
G01*
X38550000Y-96475000D02*
X38550000Y-95525000D01*
G75*
G02*
X38800000Y-95275000I250000J0D01*
G01*
X39300000Y-95275000D01*
G75*
G02*
X39550000Y-95525000I0J-250000D01*
G01*
X39550000Y-96475000D01*
G75*
G02*
X39300000Y-96725000I-250000J0D01*
G01*
X38800000Y-96725000D01*
G75*
G02*
X38550000Y-96475000I0J250000D01*
G01*
G37*
%TD*%
%TO.C,C34*%
G36*
G01*
X50450000Y-96475000D02*
X50450000Y-95525000D01*
G75*
G02*
X50700000Y-95275000I250000J0D01*
G01*
X51200000Y-95275000D01*
G75*
G02*
X51450000Y-95525000I0J-250000D01*
G01*
X51450000Y-96475000D01*
G75*
G02*
X51200000Y-96725000I-250000J0D01*
G01*
X50700000Y-96725000D01*
G75*
G02*
X50450000Y-96475000I0J250000D01*
G01*
G37*
G36*
G01*
X48550000Y-96475000D02*
X48550000Y-95525000D01*
G75*
G02*
X48800000Y-95275000I250000J0D01*
G01*
X49300000Y-95275000D01*
G75*
G02*
X49550000Y-95525000I0J-250000D01*
G01*
X49550000Y-96475000D01*
G75*
G02*
X49300000Y-96725000I-250000J0D01*
G01*
X48800000Y-96725000D01*
G75*
G02*
X48550000Y-96475000I0J250000D01*
G01*
G37*
%TD*%
%TO.C,C33*%
G36*
G01*
X60450000Y-96475000D02*
X60450000Y-95525000D01*
G75*
G02*
X60700000Y-95275000I250000J0D01*
G01*
X61200000Y-95275000D01*
G75*
G02*
X61450000Y-95525000I0J-250000D01*
G01*
X61450000Y-96475000D01*
G75*
G02*
X61200000Y-96725000I-250000J0D01*
G01*
X60700000Y-96725000D01*
G75*
G02*
X60450000Y-96475000I0J250000D01*
G01*
G37*
G36*
G01*
X58550000Y-96475000D02*
X58550000Y-95525000D01*
G75*
G02*
X58800000Y-95275000I250000J0D01*
G01*
X59300000Y-95275000D01*
G75*
G02*
X59550000Y-95525000I0J-250000D01*
G01*
X59550000Y-96475000D01*
G75*
G02*
X59300000Y-96725000I-250000J0D01*
G01*
X58800000Y-96725000D01*
G75*
G02*
X58550000Y-96475000I0J250000D01*
G01*
G37*
%TD*%
%TO.C,C32*%
G36*
G01*
X70450000Y-96475000D02*
X70450000Y-95525000D01*
G75*
G02*
X70700000Y-95275000I250000J0D01*
G01*
X71200000Y-95275000D01*
G75*
G02*
X71450000Y-95525000I0J-250000D01*
G01*
X71450000Y-96475000D01*
G75*
G02*
X71200000Y-96725000I-250000J0D01*
G01*
X70700000Y-96725000D01*
G75*
G02*
X70450000Y-96475000I0J250000D01*
G01*
G37*
G36*
G01*
X68550000Y-96475000D02*
X68550000Y-95525000D01*
G75*
G02*
X68800000Y-95275000I250000J0D01*
G01*
X69300000Y-95275000D01*
G75*
G02*
X69550000Y-95525000I0J-250000D01*
G01*
X69550000Y-96475000D01*
G75*
G02*
X69300000Y-96725000I-250000J0D01*
G01*
X68800000Y-96725000D01*
G75*
G02*
X68550000Y-96475000I0J250000D01*
G01*
G37*
%TD*%
%TO.C,C31*%
G36*
G01*
X80450000Y-96475000D02*
X80450000Y-95525000D01*
G75*
G02*
X80700000Y-95275000I250000J0D01*
G01*
X81200000Y-95275000D01*
G75*
G02*
X81450000Y-95525000I0J-250000D01*
G01*
X81450000Y-96475000D01*
G75*
G02*
X81200000Y-96725000I-250000J0D01*
G01*
X80700000Y-96725000D01*
G75*
G02*
X80450000Y-96475000I0J250000D01*
G01*
G37*
G36*
G01*
X78550000Y-96475000D02*
X78550000Y-95525000D01*
G75*
G02*
X78800000Y-95275000I250000J0D01*
G01*
X79300000Y-95275000D01*
G75*
G02*
X79550000Y-95525000I0J-250000D01*
G01*
X79550000Y-96475000D01*
G75*
G02*
X79300000Y-96725000I-250000J0D01*
G01*
X78800000Y-96725000D01*
G75*
G02*
X78550000Y-96475000I0J250000D01*
G01*
G37*
%TD*%
%TO.C,C30*%
G36*
G01*
X79550000Y-93525000D02*
X79550000Y-94475000D01*
G75*
G02*
X79300000Y-94725000I-250000J0D01*
G01*
X78800000Y-94725000D01*
G75*
G02*
X78550000Y-94475000I0J250000D01*
G01*
X78550000Y-93525000D01*
G75*
G02*
X78800000Y-93275000I250000J0D01*
G01*
X79300000Y-93275000D01*
G75*
G02*
X79550000Y-93525000I0J-250000D01*
G01*
G37*
G36*
G01*
X81450000Y-93525000D02*
X81450000Y-94475000D01*
G75*
G02*
X81200000Y-94725000I-250000J0D01*
G01*
X80700000Y-94725000D01*
G75*
G02*
X80450000Y-94475000I0J250000D01*
G01*
X80450000Y-93525000D01*
G75*
G02*
X80700000Y-93275000I250000J0D01*
G01*
X81200000Y-93275000D01*
G75*
G02*
X81450000Y-93525000I0J-250000D01*
G01*
G37*
%TD*%
%TO.C,C29*%
G36*
G01*
X69550000Y-93525000D02*
X69550000Y-94475000D01*
G75*
G02*
X69300000Y-94725000I-250000J0D01*
G01*
X68800000Y-94725000D01*
G75*
G02*
X68550000Y-94475000I0J250000D01*
G01*
X68550000Y-93525000D01*
G75*
G02*
X68800000Y-93275000I250000J0D01*
G01*
X69300000Y-93275000D01*
G75*
G02*
X69550000Y-93525000I0J-250000D01*
G01*
G37*
G36*
G01*
X71450000Y-93525000D02*
X71450000Y-94475000D01*
G75*
G02*
X71200000Y-94725000I-250000J0D01*
G01*
X70700000Y-94725000D01*
G75*
G02*
X70450000Y-94475000I0J250000D01*
G01*
X70450000Y-93525000D01*
G75*
G02*
X70700000Y-93275000I250000J0D01*
G01*
X71200000Y-93275000D01*
G75*
G02*
X71450000Y-93525000I0J-250000D01*
G01*
G37*
%TD*%
%TO.C,C28*%
G36*
G01*
X59550000Y-93525000D02*
X59550000Y-94475000D01*
G75*
G02*
X59300000Y-94725000I-250000J0D01*
G01*
X58800000Y-94725000D01*
G75*
G02*
X58550000Y-94475000I0J250000D01*
G01*
X58550000Y-93525000D01*
G75*
G02*
X58800000Y-93275000I250000J0D01*
G01*
X59300000Y-93275000D01*
G75*
G02*
X59550000Y-93525000I0J-250000D01*
G01*
G37*
G36*
G01*
X61450000Y-93525000D02*
X61450000Y-94475000D01*
G75*
G02*
X61200000Y-94725000I-250000J0D01*
G01*
X60700000Y-94725000D01*
G75*
G02*
X60450000Y-94475000I0J250000D01*
G01*
X60450000Y-93525000D01*
G75*
G02*
X60700000Y-93275000I250000J0D01*
G01*
X61200000Y-93275000D01*
G75*
G02*
X61450000Y-93525000I0J-250000D01*
G01*
G37*
%TD*%
%TO.C,C27*%
G36*
G01*
X49550000Y-93525000D02*
X49550000Y-94475000D01*
G75*
G02*
X49300000Y-94725000I-250000J0D01*
G01*
X48800000Y-94725000D01*
G75*
G02*
X48550000Y-94475000I0J250000D01*
G01*
X48550000Y-93525000D01*
G75*
G02*
X48800000Y-93275000I250000J0D01*
G01*
X49300000Y-93275000D01*
G75*
G02*
X49550000Y-93525000I0J-250000D01*
G01*
G37*
G36*
G01*
X51450000Y-93525000D02*
X51450000Y-94475000D01*
G75*
G02*
X51200000Y-94725000I-250000J0D01*
G01*
X50700000Y-94725000D01*
G75*
G02*
X50450000Y-94475000I0J250000D01*
G01*
X50450000Y-93525000D01*
G75*
G02*
X50700000Y-93275000I250000J0D01*
G01*
X51200000Y-93275000D01*
G75*
G02*
X51450000Y-93525000I0J-250000D01*
G01*
G37*
%TD*%
%TO.C,C26*%
G36*
G01*
X39550000Y-93525000D02*
X39550000Y-94475000D01*
G75*
G02*
X39300000Y-94725000I-250000J0D01*
G01*
X38800000Y-94725000D01*
G75*
G02*
X38550000Y-94475000I0J250000D01*
G01*
X38550000Y-93525000D01*
G75*
G02*
X38800000Y-93275000I250000J0D01*
G01*
X39300000Y-93275000D01*
G75*
G02*
X39550000Y-93525000I0J-250000D01*
G01*
G37*
G36*
G01*
X41450000Y-93525000D02*
X41450000Y-94475000D01*
G75*
G02*
X41200000Y-94725000I-250000J0D01*
G01*
X40700000Y-94725000D01*
G75*
G02*
X40450000Y-94475000I0J250000D01*
G01*
X40450000Y-93525000D01*
G75*
G02*
X40700000Y-93275000I250000J0D01*
G01*
X41200000Y-93275000D01*
G75*
G02*
X41450000Y-93525000I0J-250000D01*
G01*
G37*
%TD*%
%TO.C,C25*%
G36*
G01*
X29550000Y-93525000D02*
X29550000Y-94475000D01*
G75*
G02*
X29300000Y-94725000I-250000J0D01*
G01*
X28800000Y-94725000D01*
G75*
G02*
X28550000Y-94475000I0J250000D01*
G01*
X28550000Y-93525000D01*
G75*
G02*
X28800000Y-93275000I250000J0D01*
G01*
X29300000Y-93275000D01*
G75*
G02*
X29550000Y-93525000I0J-250000D01*
G01*
G37*
G36*
G01*
X31450000Y-93525000D02*
X31450000Y-94475000D01*
G75*
G02*
X31200000Y-94725000I-250000J0D01*
G01*
X30700000Y-94725000D01*
G75*
G02*
X30450000Y-94475000I0J250000D01*
G01*
X30450000Y-93525000D01*
G75*
G02*
X30700000Y-93275000I250000J0D01*
G01*
X31200000Y-93275000D01*
G75*
G02*
X31450000Y-93525000I0J-250000D01*
G01*
G37*
%TD*%
%TO.C,C24*%
G36*
G01*
X30450000Y-76475000D02*
X30450000Y-75525000D01*
G75*
G02*
X30700000Y-75275000I250000J0D01*
G01*
X31200000Y-75275000D01*
G75*
G02*
X31450000Y-75525000I0J-250000D01*
G01*
X31450000Y-76475000D01*
G75*
G02*
X31200000Y-76725000I-250000J0D01*
G01*
X30700000Y-76725000D01*
G75*
G02*
X30450000Y-76475000I0J250000D01*
G01*
G37*
G36*
G01*
X28550000Y-76475000D02*
X28550000Y-75525000D01*
G75*
G02*
X28800000Y-75275000I250000J0D01*
G01*
X29300000Y-75275000D01*
G75*
G02*
X29550000Y-75525000I0J-250000D01*
G01*
X29550000Y-76475000D01*
G75*
G02*
X29300000Y-76725000I-250000J0D01*
G01*
X28800000Y-76725000D01*
G75*
G02*
X28550000Y-76475000I0J250000D01*
G01*
G37*
%TD*%
%TO.C,C23*%
G36*
G01*
X40450000Y-76475000D02*
X40450000Y-75525000D01*
G75*
G02*
X40700000Y-75275000I250000J0D01*
G01*
X41200000Y-75275000D01*
G75*
G02*
X41450000Y-75525000I0J-250000D01*
G01*
X41450000Y-76475000D01*
G75*
G02*
X41200000Y-76725000I-250000J0D01*
G01*
X40700000Y-76725000D01*
G75*
G02*
X40450000Y-76475000I0J250000D01*
G01*
G37*
G36*
G01*
X38550000Y-76475000D02*
X38550000Y-75525000D01*
G75*
G02*
X38800000Y-75275000I250000J0D01*
G01*
X39300000Y-75275000D01*
G75*
G02*
X39550000Y-75525000I0J-250000D01*
G01*
X39550000Y-76475000D01*
G75*
G02*
X39300000Y-76725000I-250000J0D01*
G01*
X38800000Y-76725000D01*
G75*
G02*
X38550000Y-76475000I0J250000D01*
G01*
G37*
%TD*%
%TO.C,C22*%
G36*
G01*
X50450000Y-76475000D02*
X50450000Y-75525000D01*
G75*
G02*
X50700000Y-75275000I250000J0D01*
G01*
X51200000Y-75275000D01*
G75*
G02*
X51450000Y-75525000I0J-250000D01*
G01*
X51450000Y-76475000D01*
G75*
G02*
X51200000Y-76725000I-250000J0D01*
G01*
X50700000Y-76725000D01*
G75*
G02*
X50450000Y-76475000I0J250000D01*
G01*
G37*
G36*
G01*
X48550000Y-76475000D02*
X48550000Y-75525000D01*
G75*
G02*
X48800000Y-75275000I250000J0D01*
G01*
X49300000Y-75275000D01*
G75*
G02*
X49550000Y-75525000I0J-250000D01*
G01*
X49550000Y-76475000D01*
G75*
G02*
X49300000Y-76725000I-250000J0D01*
G01*
X48800000Y-76725000D01*
G75*
G02*
X48550000Y-76475000I0J250000D01*
G01*
G37*
%TD*%
%TO.C,C21*%
G36*
G01*
X60450000Y-76475000D02*
X60450000Y-75525000D01*
G75*
G02*
X60700000Y-75275000I250000J0D01*
G01*
X61200000Y-75275000D01*
G75*
G02*
X61450000Y-75525000I0J-250000D01*
G01*
X61450000Y-76475000D01*
G75*
G02*
X61200000Y-76725000I-250000J0D01*
G01*
X60700000Y-76725000D01*
G75*
G02*
X60450000Y-76475000I0J250000D01*
G01*
G37*
G36*
G01*
X58550000Y-76475000D02*
X58550000Y-75525000D01*
G75*
G02*
X58800000Y-75275000I250000J0D01*
G01*
X59300000Y-75275000D01*
G75*
G02*
X59550000Y-75525000I0J-250000D01*
G01*
X59550000Y-76475000D01*
G75*
G02*
X59300000Y-76725000I-250000J0D01*
G01*
X58800000Y-76725000D01*
G75*
G02*
X58550000Y-76475000I0J250000D01*
G01*
G37*
%TD*%
%TO.C,C20*%
G36*
G01*
X70450000Y-76475000D02*
X70450000Y-75525000D01*
G75*
G02*
X70700000Y-75275000I250000J0D01*
G01*
X71200000Y-75275000D01*
G75*
G02*
X71450000Y-75525000I0J-250000D01*
G01*
X71450000Y-76475000D01*
G75*
G02*
X71200000Y-76725000I-250000J0D01*
G01*
X70700000Y-76725000D01*
G75*
G02*
X70450000Y-76475000I0J250000D01*
G01*
G37*
G36*
G01*
X68550000Y-76475000D02*
X68550000Y-75525000D01*
G75*
G02*
X68800000Y-75275000I250000J0D01*
G01*
X69300000Y-75275000D01*
G75*
G02*
X69550000Y-75525000I0J-250000D01*
G01*
X69550000Y-76475000D01*
G75*
G02*
X69300000Y-76725000I-250000J0D01*
G01*
X68800000Y-76725000D01*
G75*
G02*
X68550000Y-76475000I0J250000D01*
G01*
G37*
%TD*%
%TO.C,C19*%
G36*
G01*
X80450000Y-76475000D02*
X80450000Y-75525000D01*
G75*
G02*
X80700000Y-75275000I250000J0D01*
G01*
X81200000Y-75275000D01*
G75*
G02*
X81450000Y-75525000I0J-250000D01*
G01*
X81450000Y-76475000D01*
G75*
G02*
X81200000Y-76725000I-250000J0D01*
G01*
X80700000Y-76725000D01*
G75*
G02*
X80450000Y-76475000I0J250000D01*
G01*
G37*
G36*
G01*
X78550000Y-76475000D02*
X78550000Y-75525000D01*
G75*
G02*
X78800000Y-75275000I250000J0D01*
G01*
X79300000Y-75275000D01*
G75*
G02*
X79550000Y-75525000I0J-250000D01*
G01*
X79550000Y-76475000D01*
G75*
G02*
X79300000Y-76725000I-250000J0D01*
G01*
X78800000Y-76725000D01*
G75*
G02*
X78550000Y-76475000I0J250000D01*
G01*
G37*
%TD*%
%TO.C,C18*%
G36*
G01*
X79550000Y-73525000D02*
X79550000Y-74475000D01*
G75*
G02*
X79300000Y-74725000I-250000J0D01*
G01*
X78800000Y-74725000D01*
G75*
G02*
X78550000Y-74475000I0J250000D01*
G01*
X78550000Y-73525000D01*
G75*
G02*
X78800000Y-73275000I250000J0D01*
G01*
X79300000Y-73275000D01*
G75*
G02*
X79550000Y-73525000I0J-250000D01*
G01*
G37*
G36*
G01*
X81450000Y-73525000D02*
X81450000Y-74475000D01*
G75*
G02*
X81200000Y-74725000I-250000J0D01*
G01*
X80700000Y-74725000D01*
G75*
G02*
X80450000Y-74475000I0J250000D01*
G01*
X80450000Y-73525000D01*
G75*
G02*
X80700000Y-73275000I250000J0D01*
G01*
X81200000Y-73275000D01*
G75*
G02*
X81450000Y-73525000I0J-250000D01*
G01*
G37*
%TD*%
%TO.C,C17*%
G36*
G01*
X69550000Y-73525000D02*
X69550000Y-74475000D01*
G75*
G02*
X69300000Y-74725000I-250000J0D01*
G01*
X68800000Y-74725000D01*
G75*
G02*
X68550000Y-74475000I0J250000D01*
G01*
X68550000Y-73525000D01*
G75*
G02*
X68800000Y-73275000I250000J0D01*
G01*
X69300000Y-73275000D01*
G75*
G02*
X69550000Y-73525000I0J-250000D01*
G01*
G37*
G36*
G01*
X71450000Y-73525000D02*
X71450000Y-74475000D01*
G75*
G02*
X71200000Y-74725000I-250000J0D01*
G01*
X70700000Y-74725000D01*
G75*
G02*
X70450000Y-74475000I0J250000D01*
G01*
X70450000Y-73525000D01*
G75*
G02*
X70700000Y-73275000I250000J0D01*
G01*
X71200000Y-73275000D01*
G75*
G02*
X71450000Y-73525000I0J-250000D01*
G01*
G37*
%TD*%
%TO.C,C16*%
G36*
G01*
X59550000Y-73525000D02*
X59550000Y-74475000D01*
G75*
G02*
X59300000Y-74725000I-250000J0D01*
G01*
X58800000Y-74725000D01*
G75*
G02*
X58550000Y-74475000I0J250000D01*
G01*
X58550000Y-73525000D01*
G75*
G02*
X58800000Y-73275000I250000J0D01*
G01*
X59300000Y-73275000D01*
G75*
G02*
X59550000Y-73525000I0J-250000D01*
G01*
G37*
G36*
G01*
X61450000Y-73525000D02*
X61450000Y-74475000D01*
G75*
G02*
X61200000Y-74725000I-250000J0D01*
G01*
X60700000Y-74725000D01*
G75*
G02*
X60450000Y-74475000I0J250000D01*
G01*
X60450000Y-73525000D01*
G75*
G02*
X60700000Y-73275000I250000J0D01*
G01*
X61200000Y-73275000D01*
G75*
G02*
X61450000Y-73525000I0J-250000D01*
G01*
G37*
%TD*%
%TO.C,C15*%
G36*
G01*
X49550000Y-73525000D02*
X49550000Y-74475000D01*
G75*
G02*
X49300000Y-74725000I-250000J0D01*
G01*
X48800000Y-74725000D01*
G75*
G02*
X48550000Y-74475000I0J250000D01*
G01*
X48550000Y-73525000D01*
G75*
G02*
X48800000Y-73275000I250000J0D01*
G01*
X49300000Y-73275000D01*
G75*
G02*
X49550000Y-73525000I0J-250000D01*
G01*
G37*
G36*
G01*
X51450000Y-73525000D02*
X51450000Y-74475000D01*
G75*
G02*
X51200000Y-74725000I-250000J0D01*
G01*
X50700000Y-74725000D01*
G75*
G02*
X50450000Y-74475000I0J250000D01*
G01*
X50450000Y-73525000D01*
G75*
G02*
X50700000Y-73275000I250000J0D01*
G01*
X51200000Y-73275000D01*
G75*
G02*
X51450000Y-73525000I0J-250000D01*
G01*
G37*
%TD*%
%TO.C,C14*%
G36*
G01*
X39550000Y-73525000D02*
X39550000Y-74475000D01*
G75*
G02*
X39300000Y-74725000I-250000J0D01*
G01*
X38800000Y-74725000D01*
G75*
G02*
X38550000Y-74475000I0J250000D01*
G01*
X38550000Y-73525000D01*
G75*
G02*
X38800000Y-73275000I250000J0D01*
G01*
X39300000Y-73275000D01*
G75*
G02*
X39550000Y-73525000I0J-250000D01*
G01*
G37*
G36*
G01*
X41450000Y-73525000D02*
X41450000Y-74475000D01*
G75*
G02*
X41200000Y-74725000I-250000J0D01*
G01*
X40700000Y-74725000D01*
G75*
G02*
X40450000Y-74475000I0J250000D01*
G01*
X40450000Y-73525000D01*
G75*
G02*
X40700000Y-73275000I250000J0D01*
G01*
X41200000Y-73275000D01*
G75*
G02*
X41450000Y-73525000I0J-250000D01*
G01*
G37*
%TD*%
%TO.C,C13*%
G36*
G01*
X29550000Y-73525000D02*
X29550000Y-74475000D01*
G75*
G02*
X29300000Y-74725000I-250000J0D01*
G01*
X28800000Y-74725000D01*
G75*
G02*
X28550000Y-74475000I0J250000D01*
G01*
X28550000Y-73525000D01*
G75*
G02*
X28800000Y-73275000I250000J0D01*
G01*
X29300000Y-73275000D01*
G75*
G02*
X29550000Y-73525000I0J-250000D01*
G01*
G37*
G36*
G01*
X31450000Y-73525000D02*
X31450000Y-74475000D01*
G75*
G02*
X31200000Y-74725000I-250000J0D01*
G01*
X30700000Y-74725000D01*
G75*
G02*
X30450000Y-74475000I0J250000D01*
G01*
X30450000Y-73525000D01*
G75*
G02*
X30700000Y-73275000I250000J0D01*
G01*
X31200000Y-73275000D01*
G75*
G02*
X31450000Y-73525000I0J-250000D01*
G01*
G37*
%TD*%
%TO.C,C12*%
G36*
G01*
X30450000Y-56475000D02*
X30450000Y-55525000D01*
G75*
G02*
X30700000Y-55275000I250000J0D01*
G01*
X31200000Y-55275000D01*
G75*
G02*
X31450000Y-55525000I0J-250000D01*
G01*
X31450000Y-56475000D01*
G75*
G02*
X31200000Y-56725000I-250000J0D01*
G01*
X30700000Y-56725000D01*
G75*
G02*
X30450000Y-56475000I0J250000D01*
G01*
G37*
G36*
G01*
X28550000Y-56475000D02*
X28550000Y-55525000D01*
G75*
G02*
X28800000Y-55275000I250000J0D01*
G01*
X29300000Y-55275000D01*
G75*
G02*
X29550000Y-55525000I0J-250000D01*
G01*
X29550000Y-56475000D01*
G75*
G02*
X29300000Y-56725000I-250000J0D01*
G01*
X28800000Y-56725000D01*
G75*
G02*
X28550000Y-56475000I0J250000D01*
G01*
G37*
%TD*%
%TO.C,C11*%
G36*
G01*
X40450000Y-56475000D02*
X40450000Y-55525000D01*
G75*
G02*
X40700000Y-55275000I250000J0D01*
G01*
X41200000Y-55275000D01*
G75*
G02*
X41450000Y-55525000I0J-250000D01*
G01*
X41450000Y-56475000D01*
G75*
G02*
X41200000Y-56725000I-250000J0D01*
G01*
X40700000Y-56725000D01*
G75*
G02*
X40450000Y-56475000I0J250000D01*
G01*
G37*
G36*
G01*
X38550000Y-56475000D02*
X38550000Y-55525000D01*
G75*
G02*
X38800000Y-55275000I250000J0D01*
G01*
X39300000Y-55275000D01*
G75*
G02*
X39550000Y-55525000I0J-250000D01*
G01*
X39550000Y-56475000D01*
G75*
G02*
X39300000Y-56725000I-250000J0D01*
G01*
X38800000Y-56725000D01*
G75*
G02*
X38550000Y-56475000I0J250000D01*
G01*
G37*
%TD*%
%TO.C,C10*%
G36*
G01*
X50450000Y-56475000D02*
X50450000Y-55525000D01*
G75*
G02*
X50700000Y-55275000I250000J0D01*
G01*
X51200000Y-55275000D01*
G75*
G02*
X51450000Y-55525000I0J-250000D01*
G01*
X51450000Y-56475000D01*
G75*
G02*
X51200000Y-56725000I-250000J0D01*
G01*
X50700000Y-56725000D01*
G75*
G02*
X50450000Y-56475000I0J250000D01*
G01*
G37*
G36*
G01*
X48550000Y-56475000D02*
X48550000Y-55525000D01*
G75*
G02*
X48800000Y-55275000I250000J0D01*
G01*
X49300000Y-55275000D01*
G75*
G02*
X49550000Y-55525000I0J-250000D01*
G01*
X49550000Y-56475000D01*
G75*
G02*
X49300000Y-56725000I-250000J0D01*
G01*
X48800000Y-56725000D01*
G75*
G02*
X48550000Y-56475000I0J250000D01*
G01*
G37*
%TD*%
%TO.C,C9*%
G36*
G01*
X60450000Y-56475000D02*
X60450000Y-55525000D01*
G75*
G02*
X60700000Y-55275000I250000J0D01*
G01*
X61200000Y-55275000D01*
G75*
G02*
X61450000Y-55525000I0J-250000D01*
G01*
X61450000Y-56475000D01*
G75*
G02*
X61200000Y-56725000I-250000J0D01*
G01*
X60700000Y-56725000D01*
G75*
G02*
X60450000Y-56475000I0J250000D01*
G01*
G37*
G36*
G01*
X58550000Y-56475000D02*
X58550000Y-55525000D01*
G75*
G02*
X58800000Y-55275000I250000J0D01*
G01*
X59300000Y-55275000D01*
G75*
G02*
X59550000Y-55525000I0J-250000D01*
G01*
X59550000Y-56475000D01*
G75*
G02*
X59300000Y-56725000I-250000J0D01*
G01*
X58800000Y-56725000D01*
G75*
G02*
X58550000Y-56475000I0J250000D01*
G01*
G37*
%TD*%
%TO.C,C8*%
G36*
G01*
X70450000Y-56475000D02*
X70450000Y-55525000D01*
G75*
G02*
X70700000Y-55275000I250000J0D01*
G01*
X71200000Y-55275000D01*
G75*
G02*
X71450000Y-55525000I0J-250000D01*
G01*
X71450000Y-56475000D01*
G75*
G02*
X71200000Y-56725000I-250000J0D01*
G01*
X70700000Y-56725000D01*
G75*
G02*
X70450000Y-56475000I0J250000D01*
G01*
G37*
G36*
G01*
X68550000Y-56475000D02*
X68550000Y-55525000D01*
G75*
G02*
X68800000Y-55275000I250000J0D01*
G01*
X69300000Y-55275000D01*
G75*
G02*
X69550000Y-55525000I0J-250000D01*
G01*
X69550000Y-56475000D01*
G75*
G02*
X69300000Y-56725000I-250000J0D01*
G01*
X68800000Y-56725000D01*
G75*
G02*
X68550000Y-56475000I0J250000D01*
G01*
G37*
%TD*%
%TO.C,C7*%
G36*
G01*
X80450000Y-56475000D02*
X80450000Y-55525000D01*
G75*
G02*
X80700000Y-55275000I250000J0D01*
G01*
X81200000Y-55275000D01*
G75*
G02*
X81450000Y-55525000I0J-250000D01*
G01*
X81450000Y-56475000D01*
G75*
G02*
X81200000Y-56725000I-250000J0D01*
G01*
X80700000Y-56725000D01*
G75*
G02*
X80450000Y-56475000I0J250000D01*
G01*
G37*
G36*
G01*
X78550000Y-56475000D02*
X78550000Y-55525000D01*
G75*
G02*
X78800000Y-55275000I250000J0D01*
G01*
X79300000Y-55275000D01*
G75*
G02*
X79550000Y-55525000I0J-250000D01*
G01*
X79550000Y-56475000D01*
G75*
G02*
X79300000Y-56725000I-250000J0D01*
G01*
X78800000Y-56725000D01*
G75*
G02*
X78550000Y-56475000I0J250000D01*
G01*
G37*
%TD*%
%TO.C,D1*%
X32400000Y-48300000D03*
X32400000Y-50000000D03*
X32400000Y-51700000D03*
X27600000Y-51700000D03*
X27600000Y-50000000D03*
X27600000Y-48300000D03*
%TD*%
%TO.C,D6*%
X82400000Y-48300000D03*
X82400000Y-50000000D03*
X82400000Y-51700000D03*
X77600000Y-51700000D03*
X77600000Y-50000000D03*
X77600000Y-48300000D03*
%TD*%
%TO.C,D5*%
X72400000Y-48300000D03*
X72400000Y-50000000D03*
X72400000Y-51700000D03*
X67600000Y-51700000D03*
X67600000Y-50000000D03*
X67600000Y-48300000D03*
%TD*%
%TO.C,D4*%
X62400000Y-48300000D03*
X62400000Y-50000000D03*
X62400000Y-51700000D03*
X57600000Y-51700000D03*
X57600000Y-50000000D03*
X57600000Y-48300000D03*
%TD*%
%TO.C,D3*%
X52400000Y-48300000D03*
X52400000Y-50000000D03*
X52400000Y-51700000D03*
X47600000Y-51700000D03*
X47600000Y-50000000D03*
X47600000Y-48300000D03*
%TD*%
%TO.C,D2*%
X42400000Y-48300000D03*
X42400000Y-50000000D03*
X42400000Y-51700000D03*
X37600000Y-51700000D03*
X37600000Y-50000000D03*
X37600000Y-48300000D03*
%TD*%
%TO.C,C6*%
G36*
G01*
X79550000Y-53525000D02*
X79550000Y-54475000D01*
G75*
G02*
X79300000Y-54725000I-250000J0D01*
G01*
X78800000Y-54725000D01*
G75*
G02*
X78550000Y-54475000I0J250000D01*
G01*
X78550000Y-53525000D01*
G75*
G02*
X78800000Y-53275000I250000J0D01*
G01*
X79300000Y-53275000D01*
G75*
G02*
X79550000Y-53525000I0J-250000D01*
G01*
G37*
G36*
G01*
X81450000Y-53525000D02*
X81450000Y-54475000D01*
G75*
G02*
X81200000Y-54725000I-250000J0D01*
G01*
X80700000Y-54725000D01*
G75*
G02*
X80450000Y-54475000I0J250000D01*
G01*
X80450000Y-53525000D01*
G75*
G02*
X80700000Y-53275000I250000J0D01*
G01*
X81200000Y-53275000D01*
G75*
G02*
X81450000Y-53525000I0J-250000D01*
G01*
G37*
%TD*%
%TO.C,C5*%
G36*
G01*
X69550000Y-53525000D02*
X69550000Y-54475000D01*
G75*
G02*
X69300000Y-54725000I-250000J0D01*
G01*
X68800000Y-54725000D01*
G75*
G02*
X68550000Y-54475000I0J250000D01*
G01*
X68550000Y-53525000D01*
G75*
G02*
X68800000Y-53275000I250000J0D01*
G01*
X69300000Y-53275000D01*
G75*
G02*
X69550000Y-53525000I0J-250000D01*
G01*
G37*
G36*
G01*
X71450000Y-53525000D02*
X71450000Y-54475000D01*
G75*
G02*
X71200000Y-54725000I-250000J0D01*
G01*
X70700000Y-54725000D01*
G75*
G02*
X70450000Y-54475000I0J250000D01*
G01*
X70450000Y-53525000D01*
G75*
G02*
X70700000Y-53275000I250000J0D01*
G01*
X71200000Y-53275000D01*
G75*
G02*
X71450000Y-53525000I0J-250000D01*
G01*
G37*
%TD*%
%TO.C,C4*%
G36*
G01*
X59550000Y-53525000D02*
X59550000Y-54475000D01*
G75*
G02*
X59300000Y-54725000I-250000J0D01*
G01*
X58800000Y-54725000D01*
G75*
G02*
X58550000Y-54475000I0J250000D01*
G01*
X58550000Y-53525000D01*
G75*
G02*
X58800000Y-53275000I250000J0D01*
G01*
X59300000Y-53275000D01*
G75*
G02*
X59550000Y-53525000I0J-250000D01*
G01*
G37*
G36*
G01*
X61450000Y-53525000D02*
X61450000Y-54475000D01*
G75*
G02*
X61200000Y-54725000I-250000J0D01*
G01*
X60700000Y-54725000D01*
G75*
G02*
X60450000Y-54475000I0J250000D01*
G01*
X60450000Y-53525000D01*
G75*
G02*
X60700000Y-53275000I250000J0D01*
G01*
X61200000Y-53275000D01*
G75*
G02*
X61450000Y-53525000I0J-250000D01*
G01*
G37*
%TD*%
%TO.C,C3*%
G36*
G01*
X49550000Y-53525000D02*
X49550000Y-54475000D01*
G75*
G02*
X49300000Y-54725000I-250000J0D01*
G01*
X48800000Y-54725000D01*
G75*
G02*
X48550000Y-54475000I0J250000D01*
G01*
X48550000Y-53525000D01*
G75*
G02*
X48800000Y-53275000I250000J0D01*
G01*
X49300000Y-53275000D01*
G75*
G02*
X49550000Y-53525000I0J-250000D01*
G01*
G37*
G36*
G01*
X51450000Y-53525000D02*
X51450000Y-54475000D01*
G75*
G02*
X51200000Y-54725000I-250000J0D01*
G01*
X50700000Y-54725000D01*
G75*
G02*
X50450000Y-54475000I0J250000D01*
G01*
X50450000Y-53525000D01*
G75*
G02*
X50700000Y-53275000I250000J0D01*
G01*
X51200000Y-53275000D01*
G75*
G02*
X51450000Y-53525000I0J-250000D01*
G01*
G37*
%TD*%
%TO.C,C2*%
G36*
G01*
X39550000Y-53525000D02*
X39550000Y-54475000D01*
G75*
G02*
X39300000Y-54725000I-250000J0D01*
G01*
X38800000Y-54725000D01*
G75*
G02*
X38550000Y-54475000I0J250000D01*
G01*
X38550000Y-53525000D01*
G75*
G02*
X38800000Y-53275000I250000J0D01*
G01*
X39300000Y-53275000D01*
G75*
G02*
X39550000Y-53525000I0J-250000D01*
G01*
G37*
G36*
G01*
X41450000Y-53525000D02*
X41450000Y-54475000D01*
G75*
G02*
X41200000Y-54725000I-250000J0D01*
G01*
X40700000Y-54725000D01*
G75*
G02*
X40450000Y-54475000I0J250000D01*
G01*
X40450000Y-53525000D01*
G75*
G02*
X40700000Y-53275000I250000J0D01*
G01*
X41200000Y-53275000D01*
G75*
G02*
X41450000Y-53525000I0J-250000D01*
G01*
G37*
%TD*%
%TO.C,C1*%
G36*
G01*
X29550000Y-53525000D02*
X29550000Y-54475000D01*
G75*
G02*
X29300000Y-54725000I-250000J0D01*
G01*
X28800000Y-54725000D01*
G75*
G02*
X28550000Y-54475000I0J250000D01*
G01*
X28550000Y-53525000D01*
G75*
G02*
X28800000Y-53275000I250000J0D01*
G01*
X29300000Y-53275000D01*
G75*
G02*
X29550000Y-53525000I0J-250000D01*
G01*
G37*
G36*
G01*
X31450000Y-53525000D02*
X31450000Y-54475000D01*
G75*
G02*
X31200000Y-54725000I-250000J0D01*
G01*
X30700000Y-54725000D01*
G75*
G02*
X30450000Y-54475000I0J250000D01*
G01*
X30450000Y-53525000D01*
G75*
G02*
X30700000Y-53275000I250000J0D01*
G01*
X31200000Y-53275000D01*
G75*
G02*
X31450000Y-53525000I0J-250000D01*
G01*
G37*
%TD*%
M02*
