%TF.GenerationSoftware,KiCad,Pcbnew,(5.1.9)-1*%
%TF.CreationDate,2021-05-23T18:39:07+01:00*%
%TF.ProjectId,LEDMaze,4c45444d-617a-4652-9e6b-696361645f70,rev?*%
%TF.SameCoordinates,Original*%
%TF.FileFunction,Copper,L2,Bot*%
%TF.FilePolarity,Positive*%
%FSLAX46Y46*%
G04 Gerber Fmt 4.6, Leading zero omitted, Abs format (unit mm)*
G04 Created by KiCad (PCBNEW (5.1.9)-1) date 2021-05-23 18:39:07*
%MOMM*%
%LPD*%
G01*
G04 APERTURE LIST*
%TA.AperFunction,ViaPad*%
%ADD10C,0.800000*%
%TD*%
%TA.AperFunction,Conductor*%
%ADD11C,0.500000*%
%TD*%
%TA.AperFunction,Conductor*%
%ADD12C,0.254000*%
%TD*%
%TA.AperFunction,Conductor*%
%ADD13C,0.100000*%
%TD*%
G04 APERTURE END LIST*
%TO.P,J2,MP*%
%TO.N,N/C*%
%TA.AperFunction,SMDPad,CuDef*%
G36*
G01*
X24500000Y-89600000D02*
X27000000Y-89600000D01*
G75*
G02*
X27250000Y-89850000I0J-250000D01*
G01*
X27250000Y-90950000D01*
G75*
G02*
X27000000Y-91200000I-250000J0D01*
G01*
X24500000Y-91200000D01*
G75*
G02*
X24250000Y-90950000I0J250000D01*
G01*
X24250000Y-89850000D01*
G75*
G02*
X24500000Y-89600000I250000J0D01*
G01*
G37*
%TD.AperFunction*%
%TA.AperFunction,SMDPad,CuDef*%
G36*
G01*
X24500000Y-78800000D02*
X27000000Y-78800000D01*
G75*
G02*
X27250000Y-79050000I0J-250000D01*
G01*
X27250000Y-80150000D01*
G75*
G02*
X27000000Y-80400000I-250000J0D01*
G01*
X24500000Y-80400000D01*
G75*
G02*
X24250000Y-80150000I0J250000D01*
G01*
X24250000Y-79050000D01*
G75*
G02*
X24500000Y-78800000I250000J0D01*
G01*
G37*
%TD.AperFunction*%
%TO.P,J2,4*%
%TO.N,DO*%
%TA.AperFunction,SMDPad,CuDef*%
G36*
G01*
X25500000Y-87500000D02*
X30500000Y-87500000D01*
G75*
G02*
X30750000Y-87750000I0J-250000D01*
G01*
X30750000Y-88250000D01*
G75*
G02*
X30500000Y-88500000I-250000J0D01*
G01*
X25500000Y-88500000D01*
G75*
G02*
X25250000Y-88250000I0J250000D01*
G01*
X25250000Y-87750000D01*
G75*
G02*
X25500000Y-87500000I250000J0D01*
G01*
G37*
%TD.AperFunction*%
%TO.P,J2,3*%
%TO.N,CO*%
%TA.AperFunction,SMDPad,CuDef*%
G36*
G01*
X25500000Y-85500000D02*
X30500000Y-85500000D01*
G75*
G02*
X30750000Y-85750000I0J-250000D01*
G01*
X30750000Y-86250000D01*
G75*
G02*
X30500000Y-86500000I-250000J0D01*
G01*
X25500000Y-86500000D01*
G75*
G02*
X25250000Y-86250000I0J250000D01*
G01*
X25250000Y-85750000D01*
G75*
G02*
X25500000Y-85500000I250000J0D01*
G01*
G37*
%TD.AperFunction*%
%TO.P,J2,2*%
%TO.N,GND*%
%TA.AperFunction,SMDPad,CuDef*%
G36*
G01*
X25500000Y-83500000D02*
X30500000Y-83500000D01*
G75*
G02*
X30750000Y-83750000I0J-250000D01*
G01*
X30750000Y-84250000D01*
G75*
G02*
X30500000Y-84500000I-250000J0D01*
G01*
X25500000Y-84500000D01*
G75*
G02*
X25250000Y-84250000I0J250000D01*
G01*
X25250000Y-83750000D01*
G75*
G02*
X25500000Y-83500000I250000J0D01*
G01*
G37*
%TD.AperFunction*%
%TO.P,J2,1*%
%TO.N,+5V*%
%TA.AperFunction,SMDPad,CuDef*%
G36*
G01*
X25500000Y-81500000D02*
X30500000Y-81500000D01*
G75*
G02*
X30750000Y-81750000I0J-250000D01*
G01*
X30750000Y-82250000D01*
G75*
G02*
X30500000Y-82500000I-250000J0D01*
G01*
X25500000Y-82500000D01*
G75*
G02*
X25250000Y-82250000I0J250000D01*
G01*
X25250000Y-81750000D01*
G75*
G02*
X25500000Y-81500000I250000J0D01*
G01*
G37*
%TD.AperFunction*%
%TD*%
%TO.P,J1,MP*%
%TO.N,N/C*%
%TA.AperFunction,SMDPad,CuDef*%
G36*
G01*
X24500000Y-69600000D02*
X27000000Y-69600000D01*
G75*
G02*
X27250000Y-69850000I0J-250000D01*
G01*
X27250000Y-70950000D01*
G75*
G02*
X27000000Y-71200000I-250000J0D01*
G01*
X24500000Y-71200000D01*
G75*
G02*
X24250000Y-70950000I0J250000D01*
G01*
X24250000Y-69850000D01*
G75*
G02*
X24500000Y-69600000I250000J0D01*
G01*
G37*
%TD.AperFunction*%
%TA.AperFunction,SMDPad,CuDef*%
G36*
G01*
X24500000Y-58800000D02*
X27000000Y-58800000D01*
G75*
G02*
X27250000Y-59050000I0J-250000D01*
G01*
X27250000Y-60150000D01*
G75*
G02*
X27000000Y-60400000I-250000J0D01*
G01*
X24500000Y-60400000D01*
G75*
G02*
X24250000Y-60150000I0J250000D01*
G01*
X24250000Y-59050000D01*
G75*
G02*
X24500000Y-58800000I250000J0D01*
G01*
G37*
%TD.AperFunction*%
%TO.P,J1,4*%
%TO.N,DI*%
%TA.AperFunction,SMDPad,CuDef*%
G36*
G01*
X25500000Y-67500000D02*
X30500000Y-67500000D01*
G75*
G02*
X30750000Y-67750000I0J-250000D01*
G01*
X30750000Y-68250000D01*
G75*
G02*
X30500000Y-68500000I-250000J0D01*
G01*
X25500000Y-68500000D01*
G75*
G02*
X25250000Y-68250000I0J250000D01*
G01*
X25250000Y-67750000D01*
G75*
G02*
X25500000Y-67500000I250000J0D01*
G01*
G37*
%TD.AperFunction*%
%TO.P,J1,3*%
%TO.N,CI*%
%TA.AperFunction,SMDPad,CuDef*%
G36*
G01*
X25500000Y-65500000D02*
X30500000Y-65500000D01*
G75*
G02*
X30750000Y-65750000I0J-250000D01*
G01*
X30750000Y-66250000D01*
G75*
G02*
X30500000Y-66500000I-250000J0D01*
G01*
X25500000Y-66500000D01*
G75*
G02*
X25250000Y-66250000I0J250000D01*
G01*
X25250000Y-65750000D01*
G75*
G02*
X25500000Y-65500000I250000J0D01*
G01*
G37*
%TD.AperFunction*%
%TO.P,J1,2*%
%TO.N,GND*%
%TA.AperFunction,SMDPad,CuDef*%
G36*
G01*
X25500000Y-63500000D02*
X30500000Y-63500000D01*
G75*
G02*
X30750000Y-63750000I0J-250000D01*
G01*
X30750000Y-64250000D01*
G75*
G02*
X30500000Y-64500000I-250000J0D01*
G01*
X25500000Y-64500000D01*
G75*
G02*
X25250000Y-64250000I0J250000D01*
G01*
X25250000Y-63750000D01*
G75*
G02*
X25500000Y-63500000I250000J0D01*
G01*
G37*
%TD.AperFunction*%
%TO.P,J1,1*%
%TO.N,+5V*%
%TA.AperFunction,SMDPad,CuDef*%
G36*
G01*
X25500000Y-61500000D02*
X30500000Y-61500000D01*
G75*
G02*
X30750000Y-61750000I0J-250000D01*
G01*
X30750000Y-62250000D01*
G75*
G02*
X30500000Y-62500000I-250000J0D01*
G01*
X25500000Y-62500000D01*
G75*
G02*
X25250000Y-62250000I0J250000D01*
G01*
X25250000Y-61750000D01*
G75*
G02*
X25500000Y-61500000I250000J0D01*
G01*
G37*
%TD.AperFunction*%
%TD*%
D10*
%TO.N,GND*%
X31500000Y-64000000D03*
X31500000Y-84000000D03*
%TO.N,+5V*%
X34000000Y-52000000D03*
X44000000Y-52000000D03*
X54000000Y-52000000D03*
X64000000Y-52000000D03*
X74000000Y-52000000D03*
X76000000Y-58000000D03*
X66000000Y-58000000D03*
X56000000Y-58000000D03*
X46000000Y-58000000D03*
X36000000Y-58000000D03*
X26000000Y-58000000D03*
X74000000Y-72000000D03*
X76000000Y-78000000D03*
X66000000Y-78000000D03*
X64000000Y-72000000D03*
X56000000Y-78000000D03*
X54000000Y-72000000D03*
X46000000Y-78000000D03*
X44000000Y-72000000D03*
X36000000Y-78000000D03*
X34000000Y-72000000D03*
X26000000Y-78000000D03*
X74000000Y-92000000D03*
X76000000Y-98000000D03*
X64000000Y-92000000D03*
X66000000Y-98000000D03*
X56000000Y-98000000D03*
X54000000Y-92000000D03*
X44000000Y-92000000D03*
X46000000Y-98000000D03*
X34000000Y-92000000D03*
X36000000Y-98000000D03*
X26000000Y-98000000D03*
%TO.N,CI*%
X29000000Y-50000000D03*
%TO.N,DI*%
X29000000Y-48500000D03*
%TO.N,DO*%
X26000000Y-101500000D03*
%TO.N,CO*%
X29500000Y-100000000D03*
%TD*%
D11*
%TO.N,GND*%
X28000000Y-64000000D02*
X31500000Y-64000000D01*
X28000000Y-84000000D02*
X31500000Y-84000000D01*
%TO.N,CI*%
X28000000Y-66000000D02*
X32000000Y-66000000D01*
X32350001Y-65649999D02*
X32350001Y-50350001D01*
X32000000Y-66000000D02*
X32350001Y-65649999D01*
X32350001Y-50350001D02*
X32000000Y-50000000D01*
X32000000Y-50000000D02*
X29000000Y-50000000D01*
%TO.N,DI*%
X33050011Y-50060048D02*
X33050011Y-66449989D01*
X31489963Y-48500000D02*
X33050011Y-50060048D01*
X29000000Y-48500000D02*
X31489963Y-48500000D01*
X31500000Y-68000000D02*
X28000000Y-68000000D01*
X33050011Y-66449989D02*
X31500000Y-68000000D01*
%TO.N,DO*%
X26000000Y-101500000D02*
X26000000Y-99500000D01*
X26000000Y-99500000D02*
X26500000Y-99000000D01*
X26500000Y-99000000D02*
X31000000Y-99000000D01*
X31000000Y-99000000D02*
X31500000Y-98500000D01*
X31500000Y-98500000D02*
X31500000Y-88500000D01*
X31500000Y-88500000D02*
X31000000Y-88000000D01*
X28000000Y-88000000D02*
X31000000Y-88000000D01*
%TO.N,CO*%
X29500000Y-100000000D02*
X31000000Y-100000000D01*
X32200010Y-98799990D02*
X32200010Y-86700010D01*
X31000000Y-100000000D02*
X32200010Y-98799990D01*
X32200010Y-86700010D02*
X31500000Y-86000000D01*
X31500000Y-86000000D02*
X28000000Y-86000000D01*
%TD*%
D12*
%TO.N,+5V*%
X93565424Y-46169580D02*
X93628356Y-46188580D01*
X93686405Y-46219445D01*
X93737343Y-46260989D01*
X93779248Y-46311644D01*
X93810515Y-46369471D01*
X93829956Y-46432272D01*
X93840000Y-46527835D01*
X93840001Y-53467711D01*
X93830420Y-53565424D01*
X93811420Y-53628357D01*
X93780554Y-53686406D01*
X93739011Y-53737343D01*
X93688356Y-53779248D01*
X93630529Y-53810515D01*
X93567728Y-53829956D01*
X93472165Y-53840000D01*
X88467581Y-53840000D01*
X88439326Y-53842783D01*
X88433199Y-53842740D01*
X88424028Y-53843640D01*
X88229931Y-53864041D01*
X88171348Y-53876066D01*
X88112577Y-53887277D01*
X88103755Y-53889941D01*
X87917317Y-53947653D01*
X87862162Y-53970838D01*
X87806709Y-53993242D01*
X87798573Y-53997568D01*
X87626896Y-54090393D01*
X87577278Y-54123861D01*
X87527247Y-54156600D01*
X87520106Y-54162424D01*
X87369728Y-54286828D01*
X87327589Y-54329263D01*
X87284839Y-54371126D01*
X87278966Y-54378227D01*
X87155616Y-54529469D01*
X87122534Y-54579262D01*
X87088716Y-54628651D01*
X87084333Y-54636757D01*
X86992708Y-54809079D01*
X86969909Y-54864394D01*
X86946348Y-54919366D01*
X86943623Y-54928169D01*
X86887214Y-55115005D01*
X86875594Y-55173693D01*
X86863158Y-55232196D01*
X86862195Y-55241361D01*
X86843150Y-55435595D01*
X86840000Y-55467582D01*
X86840001Y-94532419D01*
X86842783Y-94560664D01*
X86842740Y-94566801D01*
X86843640Y-94575972D01*
X86864041Y-94770069D01*
X86876068Y-94828658D01*
X86887277Y-94887423D01*
X86889941Y-94896245D01*
X86947653Y-95082683D01*
X86970838Y-95137838D01*
X86993242Y-95193291D01*
X86997568Y-95201427D01*
X87090393Y-95373104D01*
X87123846Y-95422699D01*
X87156600Y-95472753D01*
X87162424Y-95479894D01*
X87286828Y-95630272D01*
X87329263Y-95672411D01*
X87371126Y-95715161D01*
X87378227Y-95721034D01*
X87529469Y-95844384D01*
X87579277Y-95877477D01*
X87628651Y-95911284D01*
X87636757Y-95915667D01*
X87809080Y-96007292D01*
X87864392Y-96030090D01*
X87919366Y-96053652D01*
X87928169Y-96056377D01*
X88115006Y-96112786D01*
X88173686Y-96124405D01*
X88232196Y-96136842D01*
X88241361Y-96137805D01*
X88435594Y-96156850D01*
X88435598Y-96156850D01*
X88467581Y-96160000D01*
X93467721Y-96160000D01*
X93565424Y-96169580D01*
X93628356Y-96188580D01*
X93686405Y-96219445D01*
X93737343Y-96260989D01*
X93779248Y-96311644D01*
X93810515Y-96369471D01*
X93829956Y-96432272D01*
X93840001Y-96527845D01*
X93840000Y-103467721D01*
X93830420Y-103565424D01*
X93811420Y-103628357D01*
X93780554Y-103686406D01*
X93739011Y-103737343D01*
X93688356Y-103779248D01*
X93630529Y-103810515D01*
X93567728Y-103829956D01*
X93472165Y-103840000D01*
X16532279Y-103840000D01*
X16434576Y-103830420D01*
X16371643Y-103811420D01*
X16313594Y-103780554D01*
X16262657Y-103739011D01*
X16220752Y-103688356D01*
X16189485Y-103630529D01*
X16170044Y-103567728D01*
X16160000Y-103472165D01*
X16160000Y-99779872D01*
X17765000Y-99779872D01*
X17765000Y-100220128D01*
X17850890Y-100651925D01*
X18019369Y-101058669D01*
X18263962Y-101424729D01*
X18575271Y-101736038D01*
X18941331Y-101980631D01*
X19348075Y-102149110D01*
X19779872Y-102235000D01*
X20220128Y-102235000D01*
X20651925Y-102149110D01*
X21058669Y-101980631D01*
X21424729Y-101736038D01*
X21736038Y-101424729D01*
X21980631Y-101058669D01*
X22149110Y-100651925D01*
X22235000Y-100220128D01*
X22235000Y-99779872D01*
X22149110Y-99348075D01*
X21980631Y-98941331D01*
X21736038Y-98575271D01*
X21424729Y-98263962D01*
X21058669Y-98019369D01*
X20651925Y-97850890D01*
X20220128Y-97765000D01*
X19779872Y-97765000D01*
X19348075Y-97850890D01*
X18941331Y-98019369D01*
X18575271Y-98263962D01*
X18263962Y-98575271D01*
X18019369Y-98941331D01*
X17850890Y-99348075D01*
X17765000Y-99779872D01*
X16160000Y-99779872D01*
X16160000Y-96532279D01*
X16169580Y-96434576D01*
X16188580Y-96371644D01*
X16219445Y-96313595D01*
X16260989Y-96262657D01*
X16311644Y-96220752D01*
X16369471Y-96189485D01*
X16432272Y-96170044D01*
X16527835Y-96160000D01*
X21532419Y-96160000D01*
X21560674Y-96157217D01*
X21566801Y-96157260D01*
X21575972Y-96156360D01*
X21770069Y-96135959D01*
X21828658Y-96123932D01*
X21887423Y-96112723D01*
X21896245Y-96110059D01*
X22082683Y-96052347D01*
X22137838Y-96029162D01*
X22193291Y-96006758D01*
X22201427Y-96002432D01*
X22373104Y-95909607D01*
X22422699Y-95876154D01*
X22472753Y-95843400D01*
X22479894Y-95837576D01*
X22630272Y-95713172D01*
X22672411Y-95670737D01*
X22715161Y-95628874D01*
X22721034Y-95621773D01*
X22844384Y-95470531D01*
X22877477Y-95420723D01*
X22911284Y-95371349D01*
X22915667Y-95363243D01*
X23007292Y-95190920D01*
X23030090Y-95135608D01*
X23053652Y-95080634D01*
X23056377Y-95071831D01*
X23112786Y-94884994D01*
X23124405Y-94826314D01*
X23136842Y-94767804D01*
X23137805Y-94758639D01*
X23156850Y-94564406D01*
X23156850Y-94564402D01*
X23160000Y-94532419D01*
X23160000Y-89850000D01*
X23611928Y-89850000D01*
X23611928Y-90950000D01*
X23628992Y-91123254D01*
X23679528Y-91289850D01*
X23761595Y-91443386D01*
X23872038Y-91577962D01*
X24006614Y-91688405D01*
X24160150Y-91770472D01*
X24326746Y-91821008D01*
X24500000Y-91838072D01*
X27000000Y-91838072D01*
X27173254Y-91821008D01*
X27339850Y-91770472D01*
X27493386Y-91688405D01*
X27627962Y-91577962D01*
X27738405Y-91443386D01*
X27820472Y-91289850D01*
X27871008Y-91123254D01*
X27888072Y-90950000D01*
X27888072Y-89850000D01*
X27871008Y-89676746D01*
X27820472Y-89510150D01*
X27738405Y-89356614D01*
X27627962Y-89222038D01*
X27525649Y-89138072D01*
X30500000Y-89138072D01*
X30615001Y-89126745D01*
X30615000Y-98115000D01*
X26543469Y-98115000D01*
X26500000Y-98110719D01*
X26456531Y-98115000D01*
X26456523Y-98115000D01*
X26326510Y-98127805D01*
X26159687Y-98178411D01*
X26005941Y-98260589D01*
X25871183Y-98371183D01*
X25843468Y-98404954D01*
X25404952Y-98843470D01*
X25371184Y-98871183D01*
X25343471Y-98904951D01*
X25343468Y-98904954D01*
X25260590Y-99005941D01*
X25178412Y-99159687D01*
X25127805Y-99326510D01*
X25110719Y-99500000D01*
X25115001Y-99543479D01*
X25115000Y-100961545D01*
X25082795Y-101009744D01*
X25004774Y-101198102D01*
X24965000Y-101398061D01*
X24965000Y-101601939D01*
X25004774Y-101801898D01*
X25082795Y-101990256D01*
X25196063Y-102159774D01*
X25340226Y-102303937D01*
X25509744Y-102417205D01*
X25698102Y-102495226D01*
X25898061Y-102535000D01*
X26101939Y-102535000D01*
X26301898Y-102495226D01*
X26490256Y-102417205D01*
X26659774Y-102303937D01*
X26803937Y-102159774D01*
X26917205Y-101990256D01*
X26995226Y-101801898D01*
X27035000Y-101601939D01*
X27035000Y-101398061D01*
X26995226Y-101198102D01*
X26917205Y-101009744D01*
X26885000Y-100961546D01*
X26885000Y-99885000D01*
X28467598Y-99885000D01*
X28465000Y-99898061D01*
X28465000Y-100101939D01*
X28504774Y-100301898D01*
X28582795Y-100490256D01*
X28696063Y-100659774D01*
X28840226Y-100803937D01*
X29009744Y-100917205D01*
X29198102Y-100995226D01*
X29398061Y-101035000D01*
X29601939Y-101035000D01*
X29801898Y-100995226D01*
X29990256Y-100917205D01*
X30038454Y-100885000D01*
X30956531Y-100885000D01*
X31000000Y-100889281D01*
X31043469Y-100885000D01*
X31043477Y-100885000D01*
X31173490Y-100872195D01*
X31340313Y-100821589D01*
X31494059Y-100739411D01*
X31628817Y-100628817D01*
X31656534Y-100595044D01*
X32471706Y-99779872D01*
X87765000Y-99779872D01*
X87765000Y-100220128D01*
X87850890Y-100651925D01*
X88019369Y-101058669D01*
X88263962Y-101424729D01*
X88575271Y-101736038D01*
X88941331Y-101980631D01*
X89348075Y-102149110D01*
X89779872Y-102235000D01*
X90220128Y-102235000D01*
X90651925Y-102149110D01*
X91058669Y-101980631D01*
X91424729Y-101736038D01*
X91736038Y-101424729D01*
X91980631Y-101058669D01*
X92149110Y-100651925D01*
X92235000Y-100220128D01*
X92235000Y-99779872D01*
X92149110Y-99348075D01*
X91980631Y-98941331D01*
X91736038Y-98575271D01*
X91424729Y-98263962D01*
X91058669Y-98019369D01*
X90651925Y-97850890D01*
X90220128Y-97765000D01*
X89779872Y-97765000D01*
X89348075Y-97850890D01*
X88941331Y-98019369D01*
X88575271Y-98263962D01*
X88263962Y-98575271D01*
X88019369Y-98941331D01*
X87850890Y-99348075D01*
X87765000Y-99779872D01*
X32471706Y-99779872D01*
X32795060Y-99456519D01*
X32828827Y-99428807D01*
X32939421Y-99294049D01*
X33021599Y-99140303D01*
X33072205Y-98973480D01*
X33085010Y-98843467D01*
X33085010Y-98843457D01*
X33089291Y-98799991D01*
X33085010Y-98756525D01*
X33085010Y-86743479D01*
X33089291Y-86700010D01*
X33085010Y-86656541D01*
X33085010Y-86656533D01*
X33072205Y-86526520D01*
X33021599Y-86359697D01*
X33021599Y-86359696D01*
X32939421Y-86205951D01*
X32856542Y-86104963D01*
X32856540Y-86104961D01*
X32828827Y-86071193D01*
X32795059Y-86043480D01*
X32156534Y-85404956D01*
X32128817Y-85371183D01*
X31994059Y-85260589D01*
X31840313Y-85178411D01*
X31673490Y-85127805D01*
X31543477Y-85115000D01*
X31543469Y-85115000D01*
X31500000Y-85110719D01*
X31456531Y-85115000D01*
X31119386Y-85115000D01*
X30993386Y-85011595D01*
X30971693Y-85000000D01*
X30993386Y-84988405D01*
X31056530Y-84936584D01*
X31198102Y-84995226D01*
X31398061Y-85035000D01*
X31601939Y-85035000D01*
X31801898Y-84995226D01*
X31990256Y-84917205D01*
X32159774Y-84803937D01*
X32303937Y-84659774D01*
X32417205Y-84490256D01*
X32495226Y-84301898D01*
X32535000Y-84101939D01*
X32535000Y-83898061D01*
X32495226Y-83698102D01*
X32417205Y-83509744D01*
X32303937Y-83340226D01*
X32159774Y-83196063D01*
X31990256Y-83082795D01*
X31801898Y-83004774D01*
X31601939Y-82965000D01*
X31398061Y-82965000D01*
X31198102Y-83004774D01*
X31056530Y-83063416D01*
X31051187Y-83059031D01*
X31104494Y-83030537D01*
X31201185Y-82951185D01*
X31280537Y-82854494D01*
X31339502Y-82744180D01*
X31375812Y-82624482D01*
X31388072Y-82500000D01*
X31385000Y-82285750D01*
X31226250Y-82127000D01*
X28127000Y-82127000D01*
X28127000Y-82147000D01*
X27873000Y-82147000D01*
X27873000Y-82127000D01*
X24773750Y-82127000D01*
X24615000Y-82285750D01*
X24611928Y-82500000D01*
X24624188Y-82624482D01*
X24660498Y-82744180D01*
X24719463Y-82854494D01*
X24798815Y-82951185D01*
X24895506Y-83030537D01*
X24948813Y-83059031D01*
X24872038Y-83122038D01*
X24761595Y-83256614D01*
X24679528Y-83410150D01*
X24628992Y-83576746D01*
X24611928Y-83750000D01*
X24611928Y-84250000D01*
X24628992Y-84423254D01*
X24679528Y-84589850D01*
X24761595Y-84743386D01*
X24872038Y-84877962D01*
X25006614Y-84988405D01*
X25028307Y-85000000D01*
X25006614Y-85011595D01*
X24872038Y-85122038D01*
X24761595Y-85256614D01*
X24679528Y-85410150D01*
X24628992Y-85576746D01*
X24611928Y-85750000D01*
X24611928Y-86250000D01*
X24628992Y-86423254D01*
X24679528Y-86589850D01*
X24761595Y-86743386D01*
X24872038Y-86877962D01*
X25006614Y-86988405D01*
X25028307Y-87000000D01*
X25006614Y-87011595D01*
X24872038Y-87122038D01*
X24761595Y-87256614D01*
X24679528Y-87410150D01*
X24628992Y-87576746D01*
X24611928Y-87750000D01*
X24611928Y-88250000D01*
X24628992Y-88423254D01*
X24679528Y-88589850D01*
X24761595Y-88743386D01*
X24872038Y-88877962D01*
X24974351Y-88961928D01*
X24500000Y-88961928D01*
X24326746Y-88978992D01*
X24160150Y-89029528D01*
X24006614Y-89111595D01*
X23872038Y-89222038D01*
X23761595Y-89356614D01*
X23679528Y-89510150D01*
X23628992Y-89676746D01*
X23611928Y-89850000D01*
X23160000Y-89850000D01*
X23160000Y-79050000D01*
X23611928Y-79050000D01*
X23611928Y-80150000D01*
X23628992Y-80323254D01*
X23679528Y-80489850D01*
X23761595Y-80643386D01*
X23872038Y-80777962D01*
X24006614Y-80888405D01*
X24160150Y-80970472D01*
X24326746Y-81021008D01*
X24500000Y-81038072D01*
X24811905Y-81038072D01*
X24798815Y-81048815D01*
X24719463Y-81145506D01*
X24660498Y-81255820D01*
X24624188Y-81375518D01*
X24611928Y-81500000D01*
X24615000Y-81714250D01*
X24773750Y-81873000D01*
X27873000Y-81873000D01*
X27873000Y-81023750D01*
X28127000Y-81023750D01*
X28127000Y-81873000D01*
X31226250Y-81873000D01*
X31385000Y-81714250D01*
X31388072Y-81500000D01*
X31375812Y-81375518D01*
X31339502Y-81255820D01*
X31280537Y-81145506D01*
X31201185Y-81048815D01*
X31104494Y-80969463D01*
X30994180Y-80910498D01*
X30874482Y-80874188D01*
X30750000Y-80861928D01*
X28285750Y-80865000D01*
X28127000Y-81023750D01*
X27873000Y-81023750D01*
X27714250Y-80865000D01*
X27522197Y-80864761D01*
X27627962Y-80777962D01*
X27738405Y-80643386D01*
X27820472Y-80489850D01*
X27871008Y-80323254D01*
X27888072Y-80150000D01*
X27888072Y-79050000D01*
X27871008Y-78876746D01*
X27820472Y-78710150D01*
X27738405Y-78556614D01*
X27627962Y-78422038D01*
X27493386Y-78311595D01*
X27339850Y-78229528D01*
X27173254Y-78178992D01*
X27000000Y-78161928D01*
X24500000Y-78161928D01*
X24326746Y-78178992D01*
X24160150Y-78229528D01*
X24006614Y-78311595D01*
X23872038Y-78422038D01*
X23761595Y-78556614D01*
X23679528Y-78710150D01*
X23628992Y-78876746D01*
X23611928Y-79050000D01*
X23160000Y-79050000D01*
X23160000Y-69850000D01*
X23611928Y-69850000D01*
X23611928Y-70950000D01*
X23628992Y-71123254D01*
X23679528Y-71289850D01*
X23761595Y-71443386D01*
X23872038Y-71577962D01*
X24006614Y-71688405D01*
X24160150Y-71770472D01*
X24326746Y-71821008D01*
X24500000Y-71838072D01*
X27000000Y-71838072D01*
X27173254Y-71821008D01*
X27339850Y-71770472D01*
X27493386Y-71688405D01*
X27627962Y-71577962D01*
X27738405Y-71443386D01*
X27820472Y-71289850D01*
X27871008Y-71123254D01*
X27888072Y-70950000D01*
X27888072Y-69850000D01*
X27871008Y-69676746D01*
X27820472Y-69510150D01*
X27738405Y-69356614D01*
X27627962Y-69222038D01*
X27525649Y-69138072D01*
X30500000Y-69138072D01*
X30673254Y-69121008D01*
X30839850Y-69070472D01*
X30993386Y-68988405D01*
X31119386Y-68885000D01*
X31456531Y-68885000D01*
X31500000Y-68889281D01*
X31543469Y-68885000D01*
X31543477Y-68885000D01*
X31673490Y-68872195D01*
X31840313Y-68821589D01*
X31994059Y-68739411D01*
X32128817Y-68628817D01*
X32156534Y-68595044D01*
X33645060Y-67106519D01*
X33678828Y-67078806D01*
X33789422Y-66944048D01*
X33818695Y-66889281D01*
X33871600Y-66790303D01*
X33922206Y-66623479D01*
X33925518Y-66589850D01*
X33935011Y-66493466D01*
X33935011Y-66493458D01*
X33939292Y-66449989D01*
X33935011Y-66406520D01*
X33935011Y-50103514D01*
X33939292Y-50060047D01*
X33935011Y-50016581D01*
X33935011Y-50016571D01*
X33922206Y-49886558D01*
X33889843Y-49779872D01*
X87765000Y-49779872D01*
X87765000Y-50220128D01*
X87850890Y-50651925D01*
X88019369Y-51058669D01*
X88263962Y-51424729D01*
X88575271Y-51736038D01*
X88941331Y-51980631D01*
X89348075Y-52149110D01*
X89779872Y-52235000D01*
X90220128Y-52235000D01*
X90651925Y-52149110D01*
X91058669Y-51980631D01*
X91424729Y-51736038D01*
X91736038Y-51424729D01*
X91980631Y-51058669D01*
X92149110Y-50651925D01*
X92235000Y-50220128D01*
X92235000Y-49779872D01*
X92149110Y-49348075D01*
X91980631Y-48941331D01*
X91736038Y-48575271D01*
X91424729Y-48263962D01*
X91058669Y-48019369D01*
X90651925Y-47850890D01*
X90220128Y-47765000D01*
X89779872Y-47765000D01*
X89348075Y-47850890D01*
X88941331Y-48019369D01*
X88575271Y-48263962D01*
X88263962Y-48575271D01*
X88019369Y-48941331D01*
X87850890Y-49348075D01*
X87765000Y-49779872D01*
X33889843Y-49779872D01*
X33871600Y-49719735D01*
X33789422Y-49565989D01*
X33743263Y-49509744D01*
X33706543Y-49465001D01*
X33706541Y-49464999D01*
X33678828Y-49431231D01*
X33645061Y-49403519D01*
X32146497Y-47904956D01*
X32118780Y-47871183D01*
X31984022Y-47760589D01*
X31830276Y-47678411D01*
X31663453Y-47627805D01*
X31533440Y-47615000D01*
X31533432Y-47615000D01*
X31489963Y-47610719D01*
X31446494Y-47615000D01*
X29538454Y-47615000D01*
X29490256Y-47582795D01*
X29301898Y-47504774D01*
X29101939Y-47465000D01*
X28898061Y-47465000D01*
X28698102Y-47504774D01*
X28509744Y-47582795D01*
X28340226Y-47696063D01*
X28196063Y-47840226D01*
X28082795Y-48009744D01*
X28004774Y-48198102D01*
X27965000Y-48398061D01*
X27965000Y-48601939D01*
X28004774Y-48801898D01*
X28082795Y-48990256D01*
X28196063Y-49159774D01*
X28286289Y-49250000D01*
X28196063Y-49340226D01*
X28082795Y-49509744D01*
X28004774Y-49698102D01*
X27965000Y-49898061D01*
X27965000Y-50101939D01*
X28004774Y-50301898D01*
X28082795Y-50490256D01*
X28196063Y-50659774D01*
X28340226Y-50803937D01*
X28509744Y-50917205D01*
X28698102Y-50995226D01*
X28898061Y-51035000D01*
X29101939Y-51035000D01*
X29301898Y-50995226D01*
X29490256Y-50917205D01*
X29538454Y-50885000D01*
X31465002Y-50885000D01*
X31465001Y-62965000D01*
X31398061Y-62965000D01*
X31198102Y-63004774D01*
X31056530Y-63063416D01*
X31051187Y-63059031D01*
X31104494Y-63030537D01*
X31201185Y-62951185D01*
X31280537Y-62854494D01*
X31339502Y-62744180D01*
X31375812Y-62624482D01*
X31388072Y-62500000D01*
X31385000Y-62285750D01*
X31226250Y-62127000D01*
X28127000Y-62127000D01*
X28127000Y-62147000D01*
X27873000Y-62147000D01*
X27873000Y-62127000D01*
X24773750Y-62127000D01*
X24615000Y-62285750D01*
X24611928Y-62500000D01*
X24624188Y-62624482D01*
X24660498Y-62744180D01*
X24719463Y-62854494D01*
X24798815Y-62951185D01*
X24895506Y-63030537D01*
X24948813Y-63059031D01*
X24872038Y-63122038D01*
X24761595Y-63256614D01*
X24679528Y-63410150D01*
X24628992Y-63576746D01*
X24611928Y-63750000D01*
X24611928Y-64250000D01*
X24628992Y-64423254D01*
X24679528Y-64589850D01*
X24761595Y-64743386D01*
X24872038Y-64877962D01*
X25006614Y-64988405D01*
X25028307Y-65000000D01*
X25006614Y-65011595D01*
X24872038Y-65122038D01*
X24761595Y-65256614D01*
X24679528Y-65410150D01*
X24628992Y-65576746D01*
X24611928Y-65750000D01*
X24611928Y-66250000D01*
X24628992Y-66423254D01*
X24679528Y-66589850D01*
X24761595Y-66743386D01*
X24872038Y-66877962D01*
X25006614Y-66988405D01*
X25028307Y-67000000D01*
X25006614Y-67011595D01*
X24872038Y-67122038D01*
X24761595Y-67256614D01*
X24679528Y-67410150D01*
X24628992Y-67576746D01*
X24611928Y-67750000D01*
X24611928Y-68250000D01*
X24628992Y-68423254D01*
X24679528Y-68589850D01*
X24761595Y-68743386D01*
X24872038Y-68877962D01*
X24974351Y-68961928D01*
X24500000Y-68961928D01*
X24326746Y-68978992D01*
X24160150Y-69029528D01*
X24006614Y-69111595D01*
X23872038Y-69222038D01*
X23761595Y-69356614D01*
X23679528Y-69510150D01*
X23628992Y-69676746D01*
X23611928Y-69850000D01*
X23160000Y-69850000D01*
X23160000Y-59050000D01*
X23611928Y-59050000D01*
X23611928Y-60150000D01*
X23628992Y-60323254D01*
X23679528Y-60489850D01*
X23761595Y-60643386D01*
X23872038Y-60777962D01*
X24006614Y-60888405D01*
X24160150Y-60970472D01*
X24326746Y-61021008D01*
X24500000Y-61038072D01*
X24811905Y-61038072D01*
X24798815Y-61048815D01*
X24719463Y-61145506D01*
X24660498Y-61255820D01*
X24624188Y-61375518D01*
X24611928Y-61500000D01*
X24615000Y-61714250D01*
X24773750Y-61873000D01*
X27873000Y-61873000D01*
X27873000Y-61023750D01*
X28127000Y-61023750D01*
X28127000Y-61873000D01*
X31226250Y-61873000D01*
X31385000Y-61714250D01*
X31388072Y-61500000D01*
X31375812Y-61375518D01*
X31339502Y-61255820D01*
X31280537Y-61145506D01*
X31201185Y-61048815D01*
X31104494Y-60969463D01*
X30994180Y-60910498D01*
X30874482Y-60874188D01*
X30750000Y-60861928D01*
X28285750Y-60865000D01*
X28127000Y-61023750D01*
X27873000Y-61023750D01*
X27714250Y-60865000D01*
X27522197Y-60864761D01*
X27627962Y-60777962D01*
X27738405Y-60643386D01*
X27820472Y-60489850D01*
X27871008Y-60323254D01*
X27888072Y-60150000D01*
X27888072Y-59050000D01*
X27871008Y-58876746D01*
X27820472Y-58710150D01*
X27738405Y-58556614D01*
X27627962Y-58422038D01*
X27493386Y-58311595D01*
X27339850Y-58229528D01*
X27173254Y-58178992D01*
X27000000Y-58161928D01*
X24500000Y-58161928D01*
X24326746Y-58178992D01*
X24160150Y-58229528D01*
X24006614Y-58311595D01*
X23872038Y-58422038D01*
X23761595Y-58556614D01*
X23679528Y-58710150D01*
X23628992Y-58876746D01*
X23611928Y-59050000D01*
X23160000Y-59050000D01*
X23160000Y-55467581D01*
X23157217Y-55439326D01*
X23157260Y-55433199D01*
X23156360Y-55424028D01*
X23135959Y-55229931D01*
X23123934Y-55171348D01*
X23112723Y-55112577D01*
X23110059Y-55103755D01*
X23052347Y-54917317D01*
X23029162Y-54862162D01*
X23006758Y-54806709D01*
X23002432Y-54798573D01*
X22909607Y-54626896D01*
X22876139Y-54577278D01*
X22843400Y-54527247D01*
X22837576Y-54520106D01*
X22713172Y-54369728D01*
X22670737Y-54327589D01*
X22628874Y-54284839D01*
X22621773Y-54278966D01*
X22470531Y-54155616D01*
X22420738Y-54122534D01*
X22371349Y-54088716D01*
X22363243Y-54084333D01*
X22190921Y-53992708D01*
X22135606Y-53969909D01*
X22080634Y-53946348D01*
X22071831Y-53943623D01*
X21884995Y-53887214D01*
X21826307Y-53875594D01*
X21767804Y-53863158D01*
X21758639Y-53862195D01*
X21564405Y-53843150D01*
X21564402Y-53843150D01*
X21532419Y-53840000D01*
X16532279Y-53840000D01*
X16434576Y-53830420D01*
X16371643Y-53811420D01*
X16313594Y-53780554D01*
X16262657Y-53739011D01*
X16220752Y-53688356D01*
X16189485Y-53630529D01*
X16170044Y-53567728D01*
X16160000Y-53472165D01*
X16160000Y-49779872D01*
X17765000Y-49779872D01*
X17765000Y-50220128D01*
X17850890Y-50651925D01*
X18019369Y-51058669D01*
X18263962Y-51424729D01*
X18575271Y-51736038D01*
X18941331Y-51980631D01*
X19348075Y-52149110D01*
X19779872Y-52235000D01*
X20220128Y-52235000D01*
X20651925Y-52149110D01*
X21058669Y-51980631D01*
X21424729Y-51736038D01*
X21736038Y-51424729D01*
X21980631Y-51058669D01*
X22149110Y-50651925D01*
X22235000Y-50220128D01*
X22235000Y-49779872D01*
X22149110Y-49348075D01*
X21980631Y-48941331D01*
X21736038Y-48575271D01*
X21424729Y-48263962D01*
X21058669Y-48019369D01*
X20651925Y-47850890D01*
X20220128Y-47765000D01*
X19779872Y-47765000D01*
X19348075Y-47850890D01*
X18941331Y-48019369D01*
X18575271Y-48263962D01*
X18263962Y-48575271D01*
X18019369Y-48941331D01*
X17850890Y-49348075D01*
X17765000Y-49779872D01*
X16160000Y-49779872D01*
X16160000Y-46532279D01*
X16169580Y-46434576D01*
X16188580Y-46371644D01*
X16219445Y-46313595D01*
X16260989Y-46262657D01*
X16311644Y-46220752D01*
X16369471Y-46189485D01*
X16432272Y-46170044D01*
X16527835Y-46160000D01*
X93467721Y-46160000D01*
X93565424Y-46169580D01*
%TA.AperFunction,Conductor*%
D13*
G36*
X93565424Y-46169580D02*
G01*
X93628356Y-46188580D01*
X93686405Y-46219445D01*
X93737343Y-46260989D01*
X93779248Y-46311644D01*
X93810515Y-46369471D01*
X93829956Y-46432272D01*
X93840000Y-46527835D01*
X93840001Y-53467711D01*
X93830420Y-53565424D01*
X93811420Y-53628357D01*
X93780554Y-53686406D01*
X93739011Y-53737343D01*
X93688356Y-53779248D01*
X93630529Y-53810515D01*
X93567728Y-53829956D01*
X93472165Y-53840000D01*
X88467581Y-53840000D01*
X88439326Y-53842783D01*
X88433199Y-53842740D01*
X88424028Y-53843640D01*
X88229931Y-53864041D01*
X88171348Y-53876066D01*
X88112577Y-53887277D01*
X88103755Y-53889941D01*
X87917317Y-53947653D01*
X87862162Y-53970838D01*
X87806709Y-53993242D01*
X87798573Y-53997568D01*
X87626896Y-54090393D01*
X87577278Y-54123861D01*
X87527247Y-54156600D01*
X87520106Y-54162424D01*
X87369728Y-54286828D01*
X87327589Y-54329263D01*
X87284839Y-54371126D01*
X87278966Y-54378227D01*
X87155616Y-54529469D01*
X87122534Y-54579262D01*
X87088716Y-54628651D01*
X87084333Y-54636757D01*
X86992708Y-54809079D01*
X86969909Y-54864394D01*
X86946348Y-54919366D01*
X86943623Y-54928169D01*
X86887214Y-55115005D01*
X86875594Y-55173693D01*
X86863158Y-55232196D01*
X86862195Y-55241361D01*
X86843150Y-55435595D01*
X86840000Y-55467582D01*
X86840001Y-94532419D01*
X86842783Y-94560664D01*
X86842740Y-94566801D01*
X86843640Y-94575972D01*
X86864041Y-94770069D01*
X86876068Y-94828658D01*
X86887277Y-94887423D01*
X86889941Y-94896245D01*
X86947653Y-95082683D01*
X86970838Y-95137838D01*
X86993242Y-95193291D01*
X86997568Y-95201427D01*
X87090393Y-95373104D01*
X87123846Y-95422699D01*
X87156600Y-95472753D01*
X87162424Y-95479894D01*
X87286828Y-95630272D01*
X87329263Y-95672411D01*
X87371126Y-95715161D01*
X87378227Y-95721034D01*
X87529469Y-95844384D01*
X87579277Y-95877477D01*
X87628651Y-95911284D01*
X87636757Y-95915667D01*
X87809080Y-96007292D01*
X87864392Y-96030090D01*
X87919366Y-96053652D01*
X87928169Y-96056377D01*
X88115006Y-96112786D01*
X88173686Y-96124405D01*
X88232196Y-96136842D01*
X88241361Y-96137805D01*
X88435594Y-96156850D01*
X88435598Y-96156850D01*
X88467581Y-96160000D01*
X93467721Y-96160000D01*
X93565424Y-96169580D01*
X93628356Y-96188580D01*
X93686405Y-96219445D01*
X93737343Y-96260989D01*
X93779248Y-96311644D01*
X93810515Y-96369471D01*
X93829956Y-96432272D01*
X93840001Y-96527845D01*
X93840000Y-103467721D01*
X93830420Y-103565424D01*
X93811420Y-103628357D01*
X93780554Y-103686406D01*
X93739011Y-103737343D01*
X93688356Y-103779248D01*
X93630529Y-103810515D01*
X93567728Y-103829956D01*
X93472165Y-103840000D01*
X16532279Y-103840000D01*
X16434576Y-103830420D01*
X16371643Y-103811420D01*
X16313594Y-103780554D01*
X16262657Y-103739011D01*
X16220752Y-103688356D01*
X16189485Y-103630529D01*
X16170044Y-103567728D01*
X16160000Y-103472165D01*
X16160000Y-99779872D01*
X17765000Y-99779872D01*
X17765000Y-100220128D01*
X17850890Y-100651925D01*
X18019369Y-101058669D01*
X18263962Y-101424729D01*
X18575271Y-101736038D01*
X18941331Y-101980631D01*
X19348075Y-102149110D01*
X19779872Y-102235000D01*
X20220128Y-102235000D01*
X20651925Y-102149110D01*
X21058669Y-101980631D01*
X21424729Y-101736038D01*
X21736038Y-101424729D01*
X21980631Y-101058669D01*
X22149110Y-100651925D01*
X22235000Y-100220128D01*
X22235000Y-99779872D01*
X22149110Y-99348075D01*
X21980631Y-98941331D01*
X21736038Y-98575271D01*
X21424729Y-98263962D01*
X21058669Y-98019369D01*
X20651925Y-97850890D01*
X20220128Y-97765000D01*
X19779872Y-97765000D01*
X19348075Y-97850890D01*
X18941331Y-98019369D01*
X18575271Y-98263962D01*
X18263962Y-98575271D01*
X18019369Y-98941331D01*
X17850890Y-99348075D01*
X17765000Y-99779872D01*
X16160000Y-99779872D01*
X16160000Y-96532279D01*
X16169580Y-96434576D01*
X16188580Y-96371644D01*
X16219445Y-96313595D01*
X16260989Y-96262657D01*
X16311644Y-96220752D01*
X16369471Y-96189485D01*
X16432272Y-96170044D01*
X16527835Y-96160000D01*
X21532419Y-96160000D01*
X21560674Y-96157217D01*
X21566801Y-96157260D01*
X21575972Y-96156360D01*
X21770069Y-96135959D01*
X21828658Y-96123932D01*
X21887423Y-96112723D01*
X21896245Y-96110059D01*
X22082683Y-96052347D01*
X22137838Y-96029162D01*
X22193291Y-96006758D01*
X22201427Y-96002432D01*
X22373104Y-95909607D01*
X22422699Y-95876154D01*
X22472753Y-95843400D01*
X22479894Y-95837576D01*
X22630272Y-95713172D01*
X22672411Y-95670737D01*
X22715161Y-95628874D01*
X22721034Y-95621773D01*
X22844384Y-95470531D01*
X22877477Y-95420723D01*
X22911284Y-95371349D01*
X22915667Y-95363243D01*
X23007292Y-95190920D01*
X23030090Y-95135608D01*
X23053652Y-95080634D01*
X23056377Y-95071831D01*
X23112786Y-94884994D01*
X23124405Y-94826314D01*
X23136842Y-94767804D01*
X23137805Y-94758639D01*
X23156850Y-94564406D01*
X23156850Y-94564402D01*
X23160000Y-94532419D01*
X23160000Y-89850000D01*
X23611928Y-89850000D01*
X23611928Y-90950000D01*
X23628992Y-91123254D01*
X23679528Y-91289850D01*
X23761595Y-91443386D01*
X23872038Y-91577962D01*
X24006614Y-91688405D01*
X24160150Y-91770472D01*
X24326746Y-91821008D01*
X24500000Y-91838072D01*
X27000000Y-91838072D01*
X27173254Y-91821008D01*
X27339850Y-91770472D01*
X27493386Y-91688405D01*
X27627962Y-91577962D01*
X27738405Y-91443386D01*
X27820472Y-91289850D01*
X27871008Y-91123254D01*
X27888072Y-90950000D01*
X27888072Y-89850000D01*
X27871008Y-89676746D01*
X27820472Y-89510150D01*
X27738405Y-89356614D01*
X27627962Y-89222038D01*
X27525649Y-89138072D01*
X30500000Y-89138072D01*
X30615001Y-89126745D01*
X30615000Y-98115000D01*
X26543469Y-98115000D01*
X26500000Y-98110719D01*
X26456531Y-98115000D01*
X26456523Y-98115000D01*
X26326510Y-98127805D01*
X26159687Y-98178411D01*
X26005941Y-98260589D01*
X25871183Y-98371183D01*
X25843468Y-98404954D01*
X25404952Y-98843470D01*
X25371184Y-98871183D01*
X25343471Y-98904951D01*
X25343468Y-98904954D01*
X25260590Y-99005941D01*
X25178412Y-99159687D01*
X25127805Y-99326510D01*
X25110719Y-99500000D01*
X25115001Y-99543479D01*
X25115000Y-100961545D01*
X25082795Y-101009744D01*
X25004774Y-101198102D01*
X24965000Y-101398061D01*
X24965000Y-101601939D01*
X25004774Y-101801898D01*
X25082795Y-101990256D01*
X25196063Y-102159774D01*
X25340226Y-102303937D01*
X25509744Y-102417205D01*
X25698102Y-102495226D01*
X25898061Y-102535000D01*
X26101939Y-102535000D01*
X26301898Y-102495226D01*
X26490256Y-102417205D01*
X26659774Y-102303937D01*
X26803937Y-102159774D01*
X26917205Y-101990256D01*
X26995226Y-101801898D01*
X27035000Y-101601939D01*
X27035000Y-101398061D01*
X26995226Y-101198102D01*
X26917205Y-101009744D01*
X26885000Y-100961546D01*
X26885000Y-99885000D01*
X28467598Y-99885000D01*
X28465000Y-99898061D01*
X28465000Y-100101939D01*
X28504774Y-100301898D01*
X28582795Y-100490256D01*
X28696063Y-100659774D01*
X28840226Y-100803937D01*
X29009744Y-100917205D01*
X29198102Y-100995226D01*
X29398061Y-101035000D01*
X29601939Y-101035000D01*
X29801898Y-100995226D01*
X29990256Y-100917205D01*
X30038454Y-100885000D01*
X30956531Y-100885000D01*
X31000000Y-100889281D01*
X31043469Y-100885000D01*
X31043477Y-100885000D01*
X31173490Y-100872195D01*
X31340313Y-100821589D01*
X31494059Y-100739411D01*
X31628817Y-100628817D01*
X31656534Y-100595044D01*
X32471706Y-99779872D01*
X87765000Y-99779872D01*
X87765000Y-100220128D01*
X87850890Y-100651925D01*
X88019369Y-101058669D01*
X88263962Y-101424729D01*
X88575271Y-101736038D01*
X88941331Y-101980631D01*
X89348075Y-102149110D01*
X89779872Y-102235000D01*
X90220128Y-102235000D01*
X90651925Y-102149110D01*
X91058669Y-101980631D01*
X91424729Y-101736038D01*
X91736038Y-101424729D01*
X91980631Y-101058669D01*
X92149110Y-100651925D01*
X92235000Y-100220128D01*
X92235000Y-99779872D01*
X92149110Y-99348075D01*
X91980631Y-98941331D01*
X91736038Y-98575271D01*
X91424729Y-98263962D01*
X91058669Y-98019369D01*
X90651925Y-97850890D01*
X90220128Y-97765000D01*
X89779872Y-97765000D01*
X89348075Y-97850890D01*
X88941331Y-98019369D01*
X88575271Y-98263962D01*
X88263962Y-98575271D01*
X88019369Y-98941331D01*
X87850890Y-99348075D01*
X87765000Y-99779872D01*
X32471706Y-99779872D01*
X32795060Y-99456519D01*
X32828827Y-99428807D01*
X32939421Y-99294049D01*
X33021599Y-99140303D01*
X33072205Y-98973480D01*
X33085010Y-98843467D01*
X33085010Y-98843457D01*
X33089291Y-98799991D01*
X33085010Y-98756525D01*
X33085010Y-86743479D01*
X33089291Y-86700010D01*
X33085010Y-86656541D01*
X33085010Y-86656533D01*
X33072205Y-86526520D01*
X33021599Y-86359697D01*
X33021599Y-86359696D01*
X32939421Y-86205951D01*
X32856542Y-86104963D01*
X32856540Y-86104961D01*
X32828827Y-86071193D01*
X32795059Y-86043480D01*
X32156534Y-85404956D01*
X32128817Y-85371183D01*
X31994059Y-85260589D01*
X31840313Y-85178411D01*
X31673490Y-85127805D01*
X31543477Y-85115000D01*
X31543469Y-85115000D01*
X31500000Y-85110719D01*
X31456531Y-85115000D01*
X31119386Y-85115000D01*
X30993386Y-85011595D01*
X30971693Y-85000000D01*
X30993386Y-84988405D01*
X31056530Y-84936584D01*
X31198102Y-84995226D01*
X31398061Y-85035000D01*
X31601939Y-85035000D01*
X31801898Y-84995226D01*
X31990256Y-84917205D01*
X32159774Y-84803937D01*
X32303937Y-84659774D01*
X32417205Y-84490256D01*
X32495226Y-84301898D01*
X32535000Y-84101939D01*
X32535000Y-83898061D01*
X32495226Y-83698102D01*
X32417205Y-83509744D01*
X32303937Y-83340226D01*
X32159774Y-83196063D01*
X31990256Y-83082795D01*
X31801898Y-83004774D01*
X31601939Y-82965000D01*
X31398061Y-82965000D01*
X31198102Y-83004774D01*
X31056530Y-83063416D01*
X31051187Y-83059031D01*
X31104494Y-83030537D01*
X31201185Y-82951185D01*
X31280537Y-82854494D01*
X31339502Y-82744180D01*
X31375812Y-82624482D01*
X31388072Y-82500000D01*
X31385000Y-82285750D01*
X31226250Y-82127000D01*
X28127000Y-82127000D01*
X28127000Y-82147000D01*
X27873000Y-82147000D01*
X27873000Y-82127000D01*
X24773750Y-82127000D01*
X24615000Y-82285750D01*
X24611928Y-82500000D01*
X24624188Y-82624482D01*
X24660498Y-82744180D01*
X24719463Y-82854494D01*
X24798815Y-82951185D01*
X24895506Y-83030537D01*
X24948813Y-83059031D01*
X24872038Y-83122038D01*
X24761595Y-83256614D01*
X24679528Y-83410150D01*
X24628992Y-83576746D01*
X24611928Y-83750000D01*
X24611928Y-84250000D01*
X24628992Y-84423254D01*
X24679528Y-84589850D01*
X24761595Y-84743386D01*
X24872038Y-84877962D01*
X25006614Y-84988405D01*
X25028307Y-85000000D01*
X25006614Y-85011595D01*
X24872038Y-85122038D01*
X24761595Y-85256614D01*
X24679528Y-85410150D01*
X24628992Y-85576746D01*
X24611928Y-85750000D01*
X24611928Y-86250000D01*
X24628992Y-86423254D01*
X24679528Y-86589850D01*
X24761595Y-86743386D01*
X24872038Y-86877962D01*
X25006614Y-86988405D01*
X25028307Y-87000000D01*
X25006614Y-87011595D01*
X24872038Y-87122038D01*
X24761595Y-87256614D01*
X24679528Y-87410150D01*
X24628992Y-87576746D01*
X24611928Y-87750000D01*
X24611928Y-88250000D01*
X24628992Y-88423254D01*
X24679528Y-88589850D01*
X24761595Y-88743386D01*
X24872038Y-88877962D01*
X24974351Y-88961928D01*
X24500000Y-88961928D01*
X24326746Y-88978992D01*
X24160150Y-89029528D01*
X24006614Y-89111595D01*
X23872038Y-89222038D01*
X23761595Y-89356614D01*
X23679528Y-89510150D01*
X23628992Y-89676746D01*
X23611928Y-89850000D01*
X23160000Y-89850000D01*
X23160000Y-79050000D01*
X23611928Y-79050000D01*
X23611928Y-80150000D01*
X23628992Y-80323254D01*
X23679528Y-80489850D01*
X23761595Y-80643386D01*
X23872038Y-80777962D01*
X24006614Y-80888405D01*
X24160150Y-80970472D01*
X24326746Y-81021008D01*
X24500000Y-81038072D01*
X24811905Y-81038072D01*
X24798815Y-81048815D01*
X24719463Y-81145506D01*
X24660498Y-81255820D01*
X24624188Y-81375518D01*
X24611928Y-81500000D01*
X24615000Y-81714250D01*
X24773750Y-81873000D01*
X27873000Y-81873000D01*
X27873000Y-81023750D01*
X28127000Y-81023750D01*
X28127000Y-81873000D01*
X31226250Y-81873000D01*
X31385000Y-81714250D01*
X31388072Y-81500000D01*
X31375812Y-81375518D01*
X31339502Y-81255820D01*
X31280537Y-81145506D01*
X31201185Y-81048815D01*
X31104494Y-80969463D01*
X30994180Y-80910498D01*
X30874482Y-80874188D01*
X30750000Y-80861928D01*
X28285750Y-80865000D01*
X28127000Y-81023750D01*
X27873000Y-81023750D01*
X27714250Y-80865000D01*
X27522197Y-80864761D01*
X27627962Y-80777962D01*
X27738405Y-80643386D01*
X27820472Y-80489850D01*
X27871008Y-80323254D01*
X27888072Y-80150000D01*
X27888072Y-79050000D01*
X27871008Y-78876746D01*
X27820472Y-78710150D01*
X27738405Y-78556614D01*
X27627962Y-78422038D01*
X27493386Y-78311595D01*
X27339850Y-78229528D01*
X27173254Y-78178992D01*
X27000000Y-78161928D01*
X24500000Y-78161928D01*
X24326746Y-78178992D01*
X24160150Y-78229528D01*
X24006614Y-78311595D01*
X23872038Y-78422038D01*
X23761595Y-78556614D01*
X23679528Y-78710150D01*
X23628992Y-78876746D01*
X23611928Y-79050000D01*
X23160000Y-79050000D01*
X23160000Y-69850000D01*
X23611928Y-69850000D01*
X23611928Y-70950000D01*
X23628992Y-71123254D01*
X23679528Y-71289850D01*
X23761595Y-71443386D01*
X23872038Y-71577962D01*
X24006614Y-71688405D01*
X24160150Y-71770472D01*
X24326746Y-71821008D01*
X24500000Y-71838072D01*
X27000000Y-71838072D01*
X27173254Y-71821008D01*
X27339850Y-71770472D01*
X27493386Y-71688405D01*
X27627962Y-71577962D01*
X27738405Y-71443386D01*
X27820472Y-71289850D01*
X27871008Y-71123254D01*
X27888072Y-70950000D01*
X27888072Y-69850000D01*
X27871008Y-69676746D01*
X27820472Y-69510150D01*
X27738405Y-69356614D01*
X27627962Y-69222038D01*
X27525649Y-69138072D01*
X30500000Y-69138072D01*
X30673254Y-69121008D01*
X30839850Y-69070472D01*
X30993386Y-68988405D01*
X31119386Y-68885000D01*
X31456531Y-68885000D01*
X31500000Y-68889281D01*
X31543469Y-68885000D01*
X31543477Y-68885000D01*
X31673490Y-68872195D01*
X31840313Y-68821589D01*
X31994059Y-68739411D01*
X32128817Y-68628817D01*
X32156534Y-68595044D01*
X33645060Y-67106519D01*
X33678828Y-67078806D01*
X33789422Y-66944048D01*
X33818695Y-66889281D01*
X33871600Y-66790303D01*
X33922206Y-66623479D01*
X33925518Y-66589850D01*
X33935011Y-66493466D01*
X33935011Y-66493458D01*
X33939292Y-66449989D01*
X33935011Y-66406520D01*
X33935011Y-50103514D01*
X33939292Y-50060047D01*
X33935011Y-50016581D01*
X33935011Y-50016571D01*
X33922206Y-49886558D01*
X33889843Y-49779872D01*
X87765000Y-49779872D01*
X87765000Y-50220128D01*
X87850890Y-50651925D01*
X88019369Y-51058669D01*
X88263962Y-51424729D01*
X88575271Y-51736038D01*
X88941331Y-51980631D01*
X89348075Y-52149110D01*
X89779872Y-52235000D01*
X90220128Y-52235000D01*
X90651925Y-52149110D01*
X91058669Y-51980631D01*
X91424729Y-51736038D01*
X91736038Y-51424729D01*
X91980631Y-51058669D01*
X92149110Y-50651925D01*
X92235000Y-50220128D01*
X92235000Y-49779872D01*
X92149110Y-49348075D01*
X91980631Y-48941331D01*
X91736038Y-48575271D01*
X91424729Y-48263962D01*
X91058669Y-48019369D01*
X90651925Y-47850890D01*
X90220128Y-47765000D01*
X89779872Y-47765000D01*
X89348075Y-47850890D01*
X88941331Y-48019369D01*
X88575271Y-48263962D01*
X88263962Y-48575271D01*
X88019369Y-48941331D01*
X87850890Y-49348075D01*
X87765000Y-49779872D01*
X33889843Y-49779872D01*
X33871600Y-49719735D01*
X33789422Y-49565989D01*
X33743263Y-49509744D01*
X33706543Y-49465001D01*
X33706541Y-49464999D01*
X33678828Y-49431231D01*
X33645061Y-49403519D01*
X32146497Y-47904956D01*
X32118780Y-47871183D01*
X31984022Y-47760589D01*
X31830276Y-47678411D01*
X31663453Y-47627805D01*
X31533440Y-47615000D01*
X31533432Y-47615000D01*
X31489963Y-47610719D01*
X31446494Y-47615000D01*
X29538454Y-47615000D01*
X29490256Y-47582795D01*
X29301898Y-47504774D01*
X29101939Y-47465000D01*
X28898061Y-47465000D01*
X28698102Y-47504774D01*
X28509744Y-47582795D01*
X28340226Y-47696063D01*
X28196063Y-47840226D01*
X28082795Y-48009744D01*
X28004774Y-48198102D01*
X27965000Y-48398061D01*
X27965000Y-48601939D01*
X28004774Y-48801898D01*
X28082795Y-48990256D01*
X28196063Y-49159774D01*
X28286289Y-49250000D01*
X28196063Y-49340226D01*
X28082795Y-49509744D01*
X28004774Y-49698102D01*
X27965000Y-49898061D01*
X27965000Y-50101939D01*
X28004774Y-50301898D01*
X28082795Y-50490256D01*
X28196063Y-50659774D01*
X28340226Y-50803937D01*
X28509744Y-50917205D01*
X28698102Y-50995226D01*
X28898061Y-51035000D01*
X29101939Y-51035000D01*
X29301898Y-50995226D01*
X29490256Y-50917205D01*
X29538454Y-50885000D01*
X31465002Y-50885000D01*
X31465001Y-62965000D01*
X31398061Y-62965000D01*
X31198102Y-63004774D01*
X31056530Y-63063416D01*
X31051187Y-63059031D01*
X31104494Y-63030537D01*
X31201185Y-62951185D01*
X31280537Y-62854494D01*
X31339502Y-62744180D01*
X31375812Y-62624482D01*
X31388072Y-62500000D01*
X31385000Y-62285750D01*
X31226250Y-62127000D01*
X28127000Y-62127000D01*
X28127000Y-62147000D01*
X27873000Y-62147000D01*
X27873000Y-62127000D01*
X24773750Y-62127000D01*
X24615000Y-62285750D01*
X24611928Y-62500000D01*
X24624188Y-62624482D01*
X24660498Y-62744180D01*
X24719463Y-62854494D01*
X24798815Y-62951185D01*
X24895506Y-63030537D01*
X24948813Y-63059031D01*
X24872038Y-63122038D01*
X24761595Y-63256614D01*
X24679528Y-63410150D01*
X24628992Y-63576746D01*
X24611928Y-63750000D01*
X24611928Y-64250000D01*
X24628992Y-64423254D01*
X24679528Y-64589850D01*
X24761595Y-64743386D01*
X24872038Y-64877962D01*
X25006614Y-64988405D01*
X25028307Y-65000000D01*
X25006614Y-65011595D01*
X24872038Y-65122038D01*
X24761595Y-65256614D01*
X24679528Y-65410150D01*
X24628992Y-65576746D01*
X24611928Y-65750000D01*
X24611928Y-66250000D01*
X24628992Y-66423254D01*
X24679528Y-66589850D01*
X24761595Y-66743386D01*
X24872038Y-66877962D01*
X25006614Y-66988405D01*
X25028307Y-67000000D01*
X25006614Y-67011595D01*
X24872038Y-67122038D01*
X24761595Y-67256614D01*
X24679528Y-67410150D01*
X24628992Y-67576746D01*
X24611928Y-67750000D01*
X24611928Y-68250000D01*
X24628992Y-68423254D01*
X24679528Y-68589850D01*
X24761595Y-68743386D01*
X24872038Y-68877962D01*
X24974351Y-68961928D01*
X24500000Y-68961928D01*
X24326746Y-68978992D01*
X24160150Y-69029528D01*
X24006614Y-69111595D01*
X23872038Y-69222038D01*
X23761595Y-69356614D01*
X23679528Y-69510150D01*
X23628992Y-69676746D01*
X23611928Y-69850000D01*
X23160000Y-69850000D01*
X23160000Y-59050000D01*
X23611928Y-59050000D01*
X23611928Y-60150000D01*
X23628992Y-60323254D01*
X23679528Y-60489850D01*
X23761595Y-60643386D01*
X23872038Y-60777962D01*
X24006614Y-60888405D01*
X24160150Y-60970472D01*
X24326746Y-61021008D01*
X24500000Y-61038072D01*
X24811905Y-61038072D01*
X24798815Y-61048815D01*
X24719463Y-61145506D01*
X24660498Y-61255820D01*
X24624188Y-61375518D01*
X24611928Y-61500000D01*
X24615000Y-61714250D01*
X24773750Y-61873000D01*
X27873000Y-61873000D01*
X27873000Y-61023750D01*
X28127000Y-61023750D01*
X28127000Y-61873000D01*
X31226250Y-61873000D01*
X31385000Y-61714250D01*
X31388072Y-61500000D01*
X31375812Y-61375518D01*
X31339502Y-61255820D01*
X31280537Y-61145506D01*
X31201185Y-61048815D01*
X31104494Y-60969463D01*
X30994180Y-60910498D01*
X30874482Y-60874188D01*
X30750000Y-60861928D01*
X28285750Y-60865000D01*
X28127000Y-61023750D01*
X27873000Y-61023750D01*
X27714250Y-60865000D01*
X27522197Y-60864761D01*
X27627962Y-60777962D01*
X27738405Y-60643386D01*
X27820472Y-60489850D01*
X27871008Y-60323254D01*
X27888072Y-60150000D01*
X27888072Y-59050000D01*
X27871008Y-58876746D01*
X27820472Y-58710150D01*
X27738405Y-58556614D01*
X27627962Y-58422038D01*
X27493386Y-58311595D01*
X27339850Y-58229528D01*
X27173254Y-58178992D01*
X27000000Y-58161928D01*
X24500000Y-58161928D01*
X24326746Y-58178992D01*
X24160150Y-58229528D01*
X24006614Y-58311595D01*
X23872038Y-58422038D01*
X23761595Y-58556614D01*
X23679528Y-58710150D01*
X23628992Y-58876746D01*
X23611928Y-59050000D01*
X23160000Y-59050000D01*
X23160000Y-55467581D01*
X23157217Y-55439326D01*
X23157260Y-55433199D01*
X23156360Y-55424028D01*
X23135959Y-55229931D01*
X23123934Y-55171348D01*
X23112723Y-55112577D01*
X23110059Y-55103755D01*
X23052347Y-54917317D01*
X23029162Y-54862162D01*
X23006758Y-54806709D01*
X23002432Y-54798573D01*
X22909607Y-54626896D01*
X22876139Y-54577278D01*
X22843400Y-54527247D01*
X22837576Y-54520106D01*
X22713172Y-54369728D01*
X22670737Y-54327589D01*
X22628874Y-54284839D01*
X22621773Y-54278966D01*
X22470531Y-54155616D01*
X22420738Y-54122534D01*
X22371349Y-54088716D01*
X22363243Y-54084333D01*
X22190921Y-53992708D01*
X22135606Y-53969909D01*
X22080634Y-53946348D01*
X22071831Y-53943623D01*
X21884995Y-53887214D01*
X21826307Y-53875594D01*
X21767804Y-53863158D01*
X21758639Y-53862195D01*
X21564405Y-53843150D01*
X21564402Y-53843150D01*
X21532419Y-53840000D01*
X16532279Y-53840000D01*
X16434576Y-53830420D01*
X16371643Y-53811420D01*
X16313594Y-53780554D01*
X16262657Y-53739011D01*
X16220752Y-53688356D01*
X16189485Y-53630529D01*
X16170044Y-53567728D01*
X16160000Y-53472165D01*
X16160000Y-49779872D01*
X17765000Y-49779872D01*
X17765000Y-50220128D01*
X17850890Y-50651925D01*
X18019369Y-51058669D01*
X18263962Y-51424729D01*
X18575271Y-51736038D01*
X18941331Y-51980631D01*
X19348075Y-52149110D01*
X19779872Y-52235000D01*
X20220128Y-52235000D01*
X20651925Y-52149110D01*
X21058669Y-51980631D01*
X21424729Y-51736038D01*
X21736038Y-51424729D01*
X21980631Y-51058669D01*
X22149110Y-50651925D01*
X22235000Y-50220128D01*
X22235000Y-49779872D01*
X22149110Y-49348075D01*
X21980631Y-48941331D01*
X21736038Y-48575271D01*
X21424729Y-48263962D01*
X21058669Y-48019369D01*
X20651925Y-47850890D01*
X20220128Y-47765000D01*
X19779872Y-47765000D01*
X19348075Y-47850890D01*
X18941331Y-48019369D01*
X18575271Y-48263962D01*
X18263962Y-48575271D01*
X18019369Y-48941331D01*
X17850890Y-49348075D01*
X17765000Y-49779872D01*
X16160000Y-49779872D01*
X16160000Y-46532279D01*
X16169580Y-46434576D01*
X16188580Y-46371644D01*
X16219445Y-46313595D01*
X16260989Y-46262657D01*
X16311644Y-46220752D01*
X16369471Y-46189485D01*
X16432272Y-46170044D01*
X16527835Y-46160000D01*
X93467721Y-46160000D01*
X93565424Y-46169580D01*
G37*
%TD.AperFunction*%
%TD*%
M02*
