%TF.GenerationSoftware,KiCad,Pcbnew,(5.1.9)-1*%
%TF.CreationDate,2021-05-23T18:39:07+01:00*%
%TF.ProjectId,LEDMaze,4c45444d-617a-4652-9e6b-696361645f70,rev?*%
%TF.SameCoordinates,Original*%
%TF.FileFunction,Legend,Top*%
%TF.FilePolarity,Positive*%
%FSLAX46Y46*%
G04 Gerber Fmt 4.6, Leading zero omitted, Abs format (unit mm)*
G04 Created by KiCad (PCBNEW (5.1.9)-1) date 2021-05-23 18:39:07*
%MOMM*%
%LPD*%
G01*
G04 APERTURE LIST*
%ADD10C,0.120000*%
%ADD11C,0.150000*%
G04 APERTURE END LIST*
D10*
%TO.C,D36*%
X33600000Y-102700000D02*
X27500000Y-102700000D01*
X33600000Y-101600000D02*
X33600000Y-102700000D01*
X27500000Y-97300000D02*
X32500000Y-97300000D01*
%TO.C,D35*%
X43600000Y-102700000D02*
X37500000Y-102700000D01*
X43600000Y-101600000D02*
X43600000Y-102700000D01*
X37500000Y-97300000D02*
X42500000Y-97300000D01*
%TO.C,D34*%
X53600000Y-102700000D02*
X47500000Y-102700000D01*
X53600000Y-101600000D02*
X53600000Y-102700000D01*
X47500000Y-97300000D02*
X52500000Y-97300000D01*
%TO.C,D33*%
X63600000Y-102700000D02*
X57500000Y-102700000D01*
X63600000Y-101600000D02*
X63600000Y-102700000D01*
X57500000Y-97300000D02*
X62500000Y-97300000D01*
%TO.C,D32*%
X73600000Y-102700000D02*
X67500000Y-102700000D01*
X73600000Y-101600000D02*
X73600000Y-102700000D01*
X67500000Y-97300000D02*
X72500000Y-97300000D01*
%TO.C,D31*%
X83600000Y-102700000D02*
X77500000Y-102700000D01*
X83600000Y-101600000D02*
X83600000Y-102700000D01*
X77500000Y-97300000D02*
X82500000Y-97300000D01*
%TO.C,D30*%
X76400000Y-87300000D02*
X82500000Y-87300000D01*
X76400000Y-88400000D02*
X76400000Y-87300000D01*
X82500000Y-92700000D02*
X77500000Y-92700000D01*
%TO.C,D29*%
X66400000Y-87300000D02*
X72500000Y-87300000D01*
X66400000Y-88400000D02*
X66400000Y-87300000D01*
X72500000Y-92700000D02*
X67500000Y-92700000D01*
%TO.C,D28*%
X56400000Y-87300000D02*
X62500000Y-87300000D01*
X56400000Y-88400000D02*
X56400000Y-87300000D01*
X62500000Y-92700000D02*
X57500000Y-92700000D01*
%TO.C,D27*%
X46400000Y-87300000D02*
X52500000Y-87300000D01*
X46400000Y-88400000D02*
X46400000Y-87300000D01*
X52500000Y-92700000D02*
X47500000Y-92700000D01*
%TO.C,D26*%
X36400000Y-87300000D02*
X42500000Y-87300000D01*
X36400000Y-88400000D02*
X36400000Y-87300000D01*
X42500000Y-92700000D02*
X37500000Y-92700000D01*
%TO.C,D25*%
X26400000Y-87300000D02*
X32500000Y-87300000D01*
X26400000Y-88400000D02*
X26400000Y-87300000D01*
X32500000Y-92700000D02*
X27500000Y-92700000D01*
%TO.C,D24*%
X33600000Y-82700000D02*
X27500000Y-82700000D01*
X33600000Y-81600000D02*
X33600000Y-82700000D01*
X27500000Y-77300000D02*
X32500000Y-77300000D01*
%TO.C,D23*%
X43600000Y-82700000D02*
X37500000Y-82700000D01*
X43600000Y-81600000D02*
X43600000Y-82700000D01*
X37500000Y-77300000D02*
X42500000Y-77300000D01*
%TO.C,D22*%
X53600000Y-82700000D02*
X47500000Y-82700000D01*
X53600000Y-81600000D02*
X53600000Y-82700000D01*
X47500000Y-77300000D02*
X52500000Y-77300000D01*
%TO.C,D21*%
X63600000Y-82700000D02*
X57500000Y-82700000D01*
X63600000Y-81600000D02*
X63600000Y-82700000D01*
X57500000Y-77300000D02*
X62500000Y-77300000D01*
%TO.C,D20*%
X73600000Y-82700000D02*
X67500000Y-82700000D01*
X73600000Y-81600000D02*
X73600000Y-82700000D01*
X67500000Y-77300000D02*
X72500000Y-77300000D01*
%TO.C,D19*%
X83600000Y-82700000D02*
X77500000Y-82700000D01*
X83600000Y-81600000D02*
X83600000Y-82700000D01*
X77500000Y-77300000D02*
X82500000Y-77300000D01*
%TO.C,D18*%
X76400000Y-67300000D02*
X82500000Y-67300000D01*
X76400000Y-68400000D02*
X76400000Y-67300000D01*
X82500000Y-72700000D02*
X77500000Y-72700000D01*
%TO.C,D17*%
X66400000Y-67300000D02*
X72500000Y-67300000D01*
X66400000Y-68400000D02*
X66400000Y-67300000D01*
X72500000Y-72700000D02*
X67500000Y-72700000D01*
%TO.C,D16*%
X56400000Y-67300000D02*
X62500000Y-67300000D01*
X56400000Y-68400000D02*
X56400000Y-67300000D01*
X62500000Y-72700000D02*
X57500000Y-72700000D01*
%TO.C,D15*%
X46400000Y-67300000D02*
X52500000Y-67300000D01*
X46400000Y-68400000D02*
X46400000Y-67300000D01*
X52500000Y-72700000D02*
X47500000Y-72700000D01*
%TO.C,D14*%
X36400000Y-67300000D02*
X42500000Y-67300000D01*
X36400000Y-68400000D02*
X36400000Y-67300000D01*
X42500000Y-72700000D02*
X37500000Y-72700000D01*
%TO.C,D13*%
X26400000Y-67300000D02*
X32500000Y-67300000D01*
X26400000Y-68400000D02*
X26400000Y-67300000D01*
X32500000Y-72700000D02*
X27500000Y-72700000D01*
%TO.C,D12*%
X33600000Y-62700000D02*
X27500000Y-62700000D01*
X33600000Y-61600000D02*
X33600000Y-62700000D01*
X27500000Y-57300000D02*
X32500000Y-57300000D01*
%TO.C,D11*%
X43600000Y-62700000D02*
X37500000Y-62700000D01*
X43600000Y-61600000D02*
X43600000Y-62700000D01*
X37500000Y-57300000D02*
X42500000Y-57300000D01*
%TO.C,D10*%
X53600000Y-62700000D02*
X47500000Y-62700000D01*
X53600000Y-61600000D02*
X53600000Y-62700000D01*
X47500000Y-57300000D02*
X52500000Y-57300000D01*
%TO.C,D9*%
X63600000Y-62700000D02*
X57500000Y-62700000D01*
X63600000Y-61600000D02*
X63600000Y-62700000D01*
X57500000Y-57300000D02*
X62500000Y-57300000D01*
%TO.C,D8*%
X73600000Y-62700000D02*
X67500000Y-62700000D01*
X73600000Y-61600000D02*
X73600000Y-62700000D01*
X67500000Y-57300000D02*
X72500000Y-57300000D01*
%TO.C,D7*%
X83600000Y-62700000D02*
X77500000Y-62700000D01*
X83600000Y-61600000D02*
X83600000Y-62700000D01*
X77500000Y-57300000D02*
X82500000Y-57300000D01*
%TO.C,C36*%
X29738748Y-95265000D02*
X30261252Y-95265000D01*
X29738748Y-96735000D02*
X30261252Y-96735000D01*
%TO.C,C35*%
X39738748Y-95265000D02*
X40261252Y-95265000D01*
X39738748Y-96735000D02*
X40261252Y-96735000D01*
%TO.C,C34*%
X49738748Y-95265000D02*
X50261252Y-95265000D01*
X49738748Y-96735000D02*
X50261252Y-96735000D01*
%TO.C,C33*%
X59738748Y-95265000D02*
X60261252Y-95265000D01*
X59738748Y-96735000D02*
X60261252Y-96735000D01*
%TO.C,C32*%
X69738748Y-95265000D02*
X70261252Y-95265000D01*
X69738748Y-96735000D02*
X70261252Y-96735000D01*
%TO.C,C31*%
X79738748Y-95265000D02*
X80261252Y-95265000D01*
X79738748Y-96735000D02*
X80261252Y-96735000D01*
%TO.C,C30*%
X80261252Y-94735000D02*
X79738748Y-94735000D01*
X80261252Y-93265000D02*
X79738748Y-93265000D01*
%TO.C,C29*%
X70261252Y-94735000D02*
X69738748Y-94735000D01*
X70261252Y-93265000D02*
X69738748Y-93265000D01*
%TO.C,C28*%
X60261252Y-94735000D02*
X59738748Y-94735000D01*
X60261252Y-93265000D02*
X59738748Y-93265000D01*
%TO.C,C27*%
X50261252Y-94735000D02*
X49738748Y-94735000D01*
X50261252Y-93265000D02*
X49738748Y-93265000D01*
%TO.C,C26*%
X40261252Y-94735000D02*
X39738748Y-94735000D01*
X40261252Y-93265000D02*
X39738748Y-93265000D01*
%TO.C,C25*%
X30261252Y-94735000D02*
X29738748Y-94735000D01*
X30261252Y-93265000D02*
X29738748Y-93265000D01*
%TO.C,C24*%
X29738748Y-75265000D02*
X30261252Y-75265000D01*
X29738748Y-76735000D02*
X30261252Y-76735000D01*
%TO.C,C23*%
X39738748Y-75265000D02*
X40261252Y-75265000D01*
X39738748Y-76735000D02*
X40261252Y-76735000D01*
%TO.C,C22*%
X49738748Y-75265000D02*
X50261252Y-75265000D01*
X49738748Y-76735000D02*
X50261252Y-76735000D01*
%TO.C,C21*%
X59738748Y-75265000D02*
X60261252Y-75265000D01*
X59738748Y-76735000D02*
X60261252Y-76735000D01*
%TO.C,C20*%
X69738748Y-75265000D02*
X70261252Y-75265000D01*
X69738748Y-76735000D02*
X70261252Y-76735000D01*
%TO.C,C19*%
X79738748Y-75265000D02*
X80261252Y-75265000D01*
X79738748Y-76735000D02*
X80261252Y-76735000D01*
%TO.C,C18*%
X80261252Y-74735000D02*
X79738748Y-74735000D01*
X80261252Y-73265000D02*
X79738748Y-73265000D01*
%TO.C,C17*%
X70261252Y-74735000D02*
X69738748Y-74735000D01*
X70261252Y-73265000D02*
X69738748Y-73265000D01*
%TO.C,C16*%
X60261252Y-74735000D02*
X59738748Y-74735000D01*
X60261252Y-73265000D02*
X59738748Y-73265000D01*
%TO.C,C15*%
X50261252Y-74735000D02*
X49738748Y-74735000D01*
X50261252Y-73265000D02*
X49738748Y-73265000D01*
%TO.C,C14*%
X40261252Y-74735000D02*
X39738748Y-74735000D01*
X40261252Y-73265000D02*
X39738748Y-73265000D01*
%TO.C,C13*%
X30261252Y-74735000D02*
X29738748Y-74735000D01*
X30261252Y-73265000D02*
X29738748Y-73265000D01*
%TO.C,C12*%
X29738748Y-55265000D02*
X30261252Y-55265000D01*
X29738748Y-56735000D02*
X30261252Y-56735000D01*
%TO.C,C11*%
X39738748Y-55265000D02*
X40261252Y-55265000D01*
X39738748Y-56735000D02*
X40261252Y-56735000D01*
%TO.C,C10*%
X49738748Y-55265000D02*
X50261252Y-55265000D01*
X49738748Y-56735000D02*
X50261252Y-56735000D01*
%TO.C,C9*%
X59738748Y-55265000D02*
X60261252Y-55265000D01*
X59738748Y-56735000D02*
X60261252Y-56735000D01*
%TO.C,C8*%
X69738748Y-55265000D02*
X70261252Y-55265000D01*
X69738748Y-56735000D02*
X70261252Y-56735000D01*
%TO.C,C7*%
X79738748Y-55265000D02*
X80261252Y-55265000D01*
X79738748Y-56735000D02*
X80261252Y-56735000D01*
%TO.C,D1*%
X26400000Y-47300000D02*
X32500000Y-47300000D01*
X26400000Y-48400000D02*
X26400000Y-47300000D01*
X32500000Y-52700000D02*
X27500000Y-52700000D01*
%TO.C,D6*%
X76400000Y-47300000D02*
X82500000Y-47300000D01*
X76400000Y-48400000D02*
X76400000Y-47300000D01*
X82500000Y-52700000D02*
X77500000Y-52700000D01*
%TO.C,D5*%
X66400000Y-47300000D02*
X72500000Y-47300000D01*
X66400000Y-48400000D02*
X66400000Y-47300000D01*
X72500000Y-52700000D02*
X67500000Y-52700000D01*
%TO.C,D4*%
X56400000Y-47300000D02*
X62500000Y-47300000D01*
X56400000Y-48400000D02*
X56400000Y-47300000D01*
X62500000Y-52700000D02*
X57500000Y-52700000D01*
%TO.C,D3*%
X46400000Y-47300000D02*
X52500000Y-47300000D01*
X46400000Y-48400000D02*
X46400000Y-47300000D01*
X52500000Y-52700000D02*
X47500000Y-52700000D01*
%TO.C,D2*%
X36400000Y-47300000D02*
X42500000Y-47300000D01*
X36400000Y-48400000D02*
X36400000Y-47300000D01*
X42500000Y-52700000D02*
X37500000Y-52700000D01*
%TO.C,C6*%
X80261252Y-54735000D02*
X79738748Y-54735000D01*
X80261252Y-53265000D02*
X79738748Y-53265000D01*
%TO.C,C5*%
X70261252Y-54735000D02*
X69738748Y-54735000D01*
X70261252Y-53265000D02*
X69738748Y-53265000D01*
%TO.C,C4*%
X60261252Y-54735000D02*
X59738748Y-54735000D01*
X60261252Y-53265000D02*
X59738748Y-53265000D01*
%TO.C,C3*%
X50261252Y-54735000D02*
X49738748Y-54735000D01*
X50261252Y-53265000D02*
X49738748Y-53265000D01*
%TO.C,C2*%
X40261252Y-54735000D02*
X39738748Y-54735000D01*
X40261252Y-53265000D02*
X39738748Y-53265000D01*
%TO.C,C1*%
X30261252Y-54735000D02*
X29738748Y-54735000D01*
X30261252Y-53265000D02*
X29738748Y-53265000D01*
%TO.C,D36*%
D11*
X28785714Y-103952380D02*
X28785714Y-102952380D01*
X29023809Y-102952380D01*
X29166666Y-103000000D01*
X29261904Y-103095238D01*
X29309523Y-103190476D01*
X29357142Y-103380952D01*
X29357142Y-103523809D01*
X29309523Y-103714285D01*
X29261904Y-103809523D01*
X29166666Y-103904761D01*
X29023809Y-103952380D01*
X28785714Y-103952380D01*
X29690476Y-102952380D02*
X30309523Y-102952380D01*
X29976190Y-103333333D01*
X30119047Y-103333333D01*
X30214285Y-103380952D01*
X30261904Y-103428571D01*
X30309523Y-103523809D01*
X30309523Y-103761904D01*
X30261904Y-103857142D01*
X30214285Y-103904761D01*
X30119047Y-103952380D01*
X29833333Y-103952380D01*
X29738095Y-103904761D01*
X29690476Y-103857142D01*
X31166666Y-102952380D02*
X30976190Y-102952380D01*
X30880952Y-103000000D01*
X30833333Y-103047619D01*
X30738095Y-103190476D01*
X30690476Y-103380952D01*
X30690476Y-103761904D01*
X30738095Y-103857142D01*
X30785714Y-103904761D01*
X30880952Y-103952380D01*
X31071428Y-103952380D01*
X31166666Y-103904761D01*
X31214285Y-103857142D01*
X31261904Y-103761904D01*
X31261904Y-103523809D01*
X31214285Y-103428571D01*
X31166666Y-103380952D01*
X31071428Y-103333333D01*
X30880952Y-103333333D01*
X30785714Y-103380952D01*
X30738095Y-103428571D01*
X30690476Y-103523809D01*
%TO.C,D35*%
X38785714Y-103952380D02*
X38785714Y-102952380D01*
X39023809Y-102952380D01*
X39166666Y-103000000D01*
X39261904Y-103095238D01*
X39309523Y-103190476D01*
X39357142Y-103380952D01*
X39357142Y-103523809D01*
X39309523Y-103714285D01*
X39261904Y-103809523D01*
X39166666Y-103904761D01*
X39023809Y-103952380D01*
X38785714Y-103952380D01*
X39690476Y-102952380D02*
X40309523Y-102952380D01*
X39976190Y-103333333D01*
X40119047Y-103333333D01*
X40214285Y-103380952D01*
X40261904Y-103428571D01*
X40309523Y-103523809D01*
X40309523Y-103761904D01*
X40261904Y-103857142D01*
X40214285Y-103904761D01*
X40119047Y-103952380D01*
X39833333Y-103952380D01*
X39738095Y-103904761D01*
X39690476Y-103857142D01*
X41214285Y-102952380D02*
X40738095Y-102952380D01*
X40690476Y-103428571D01*
X40738095Y-103380952D01*
X40833333Y-103333333D01*
X41071428Y-103333333D01*
X41166666Y-103380952D01*
X41214285Y-103428571D01*
X41261904Y-103523809D01*
X41261904Y-103761904D01*
X41214285Y-103857142D01*
X41166666Y-103904761D01*
X41071428Y-103952380D01*
X40833333Y-103952380D01*
X40738095Y-103904761D01*
X40690476Y-103857142D01*
%TO.C,D34*%
X48785714Y-103952380D02*
X48785714Y-102952380D01*
X49023809Y-102952380D01*
X49166666Y-103000000D01*
X49261904Y-103095238D01*
X49309523Y-103190476D01*
X49357142Y-103380952D01*
X49357142Y-103523809D01*
X49309523Y-103714285D01*
X49261904Y-103809523D01*
X49166666Y-103904761D01*
X49023809Y-103952380D01*
X48785714Y-103952380D01*
X49690476Y-102952380D02*
X50309523Y-102952380D01*
X49976190Y-103333333D01*
X50119047Y-103333333D01*
X50214285Y-103380952D01*
X50261904Y-103428571D01*
X50309523Y-103523809D01*
X50309523Y-103761904D01*
X50261904Y-103857142D01*
X50214285Y-103904761D01*
X50119047Y-103952380D01*
X49833333Y-103952380D01*
X49738095Y-103904761D01*
X49690476Y-103857142D01*
X51166666Y-103285714D02*
X51166666Y-103952380D01*
X50928571Y-102904761D02*
X50690476Y-103619047D01*
X51309523Y-103619047D01*
%TO.C,D33*%
X58785714Y-103952380D02*
X58785714Y-102952380D01*
X59023809Y-102952380D01*
X59166666Y-103000000D01*
X59261904Y-103095238D01*
X59309523Y-103190476D01*
X59357142Y-103380952D01*
X59357142Y-103523809D01*
X59309523Y-103714285D01*
X59261904Y-103809523D01*
X59166666Y-103904761D01*
X59023809Y-103952380D01*
X58785714Y-103952380D01*
X59690476Y-102952380D02*
X60309523Y-102952380D01*
X59976190Y-103333333D01*
X60119047Y-103333333D01*
X60214285Y-103380952D01*
X60261904Y-103428571D01*
X60309523Y-103523809D01*
X60309523Y-103761904D01*
X60261904Y-103857142D01*
X60214285Y-103904761D01*
X60119047Y-103952380D01*
X59833333Y-103952380D01*
X59738095Y-103904761D01*
X59690476Y-103857142D01*
X60642857Y-102952380D02*
X61261904Y-102952380D01*
X60928571Y-103333333D01*
X61071428Y-103333333D01*
X61166666Y-103380952D01*
X61214285Y-103428571D01*
X61261904Y-103523809D01*
X61261904Y-103761904D01*
X61214285Y-103857142D01*
X61166666Y-103904761D01*
X61071428Y-103952380D01*
X60785714Y-103952380D01*
X60690476Y-103904761D01*
X60642857Y-103857142D01*
%TO.C,D32*%
X68785714Y-103952380D02*
X68785714Y-102952380D01*
X69023809Y-102952380D01*
X69166666Y-103000000D01*
X69261904Y-103095238D01*
X69309523Y-103190476D01*
X69357142Y-103380952D01*
X69357142Y-103523809D01*
X69309523Y-103714285D01*
X69261904Y-103809523D01*
X69166666Y-103904761D01*
X69023809Y-103952380D01*
X68785714Y-103952380D01*
X69690476Y-102952380D02*
X70309523Y-102952380D01*
X69976190Y-103333333D01*
X70119047Y-103333333D01*
X70214285Y-103380952D01*
X70261904Y-103428571D01*
X70309523Y-103523809D01*
X70309523Y-103761904D01*
X70261904Y-103857142D01*
X70214285Y-103904761D01*
X70119047Y-103952380D01*
X69833333Y-103952380D01*
X69738095Y-103904761D01*
X69690476Y-103857142D01*
X70690476Y-103047619D02*
X70738095Y-103000000D01*
X70833333Y-102952380D01*
X71071428Y-102952380D01*
X71166666Y-103000000D01*
X71214285Y-103047619D01*
X71261904Y-103142857D01*
X71261904Y-103238095D01*
X71214285Y-103380952D01*
X70642857Y-103952380D01*
X71261904Y-103952380D01*
%TO.C,D31*%
X78785714Y-103952380D02*
X78785714Y-102952380D01*
X79023809Y-102952380D01*
X79166666Y-103000000D01*
X79261904Y-103095238D01*
X79309523Y-103190476D01*
X79357142Y-103380952D01*
X79357142Y-103523809D01*
X79309523Y-103714285D01*
X79261904Y-103809523D01*
X79166666Y-103904761D01*
X79023809Y-103952380D01*
X78785714Y-103952380D01*
X79690476Y-102952380D02*
X80309523Y-102952380D01*
X79976190Y-103333333D01*
X80119047Y-103333333D01*
X80214285Y-103380952D01*
X80261904Y-103428571D01*
X80309523Y-103523809D01*
X80309523Y-103761904D01*
X80261904Y-103857142D01*
X80214285Y-103904761D01*
X80119047Y-103952380D01*
X79833333Y-103952380D01*
X79738095Y-103904761D01*
X79690476Y-103857142D01*
X81261904Y-103952380D02*
X80690476Y-103952380D01*
X80976190Y-103952380D02*
X80976190Y-102952380D01*
X80880952Y-103095238D01*
X80785714Y-103190476D01*
X80690476Y-103238095D01*
%TO.C,D30*%
X78785714Y-86952380D02*
X78785714Y-85952380D01*
X79023809Y-85952380D01*
X79166666Y-86000000D01*
X79261904Y-86095238D01*
X79309523Y-86190476D01*
X79357142Y-86380952D01*
X79357142Y-86523809D01*
X79309523Y-86714285D01*
X79261904Y-86809523D01*
X79166666Y-86904761D01*
X79023809Y-86952380D01*
X78785714Y-86952380D01*
X79690476Y-85952380D02*
X80309523Y-85952380D01*
X79976190Y-86333333D01*
X80119047Y-86333333D01*
X80214285Y-86380952D01*
X80261904Y-86428571D01*
X80309523Y-86523809D01*
X80309523Y-86761904D01*
X80261904Y-86857142D01*
X80214285Y-86904761D01*
X80119047Y-86952380D01*
X79833333Y-86952380D01*
X79738095Y-86904761D01*
X79690476Y-86857142D01*
X80928571Y-85952380D02*
X81023809Y-85952380D01*
X81119047Y-86000000D01*
X81166666Y-86047619D01*
X81214285Y-86142857D01*
X81261904Y-86333333D01*
X81261904Y-86571428D01*
X81214285Y-86761904D01*
X81166666Y-86857142D01*
X81119047Y-86904761D01*
X81023809Y-86952380D01*
X80928571Y-86952380D01*
X80833333Y-86904761D01*
X80785714Y-86857142D01*
X80738095Y-86761904D01*
X80690476Y-86571428D01*
X80690476Y-86333333D01*
X80738095Y-86142857D01*
X80785714Y-86047619D01*
X80833333Y-86000000D01*
X80928571Y-85952380D01*
%TO.C,D29*%
X68785714Y-86952380D02*
X68785714Y-85952380D01*
X69023809Y-85952380D01*
X69166666Y-86000000D01*
X69261904Y-86095238D01*
X69309523Y-86190476D01*
X69357142Y-86380952D01*
X69357142Y-86523809D01*
X69309523Y-86714285D01*
X69261904Y-86809523D01*
X69166666Y-86904761D01*
X69023809Y-86952380D01*
X68785714Y-86952380D01*
X69738095Y-86047619D02*
X69785714Y-86000000D01*
X69880952Y-85952380D01*
X70119047Y-85952380D01*
X70214285Y-86000000D01*
X70261904Y-86047619D01*
X70309523Y-86142857D01*
X70309523Y-86238095D01*
X70261904Y-86380952D01*
X69690476Y-86952380D01*
X70309523Y-86952380D01*
X70785714Y-86952380D02*
X70976190Y-86952380D01*
X71071428Y-86904761D01*
X71119047Y-86857142D01*
X71214285Y-86714285D01*
X71261904Y-86523809D01*
X71261904Y-86142857D01*
X71214285Y-86047619D01*
X71166666Y-86000000D01*
X71071428Y-85952380D01*
X70880952Y-85952380D01*
X70785714Y-86000000D01*
X70738095Y-86047619D01*
X70690476Y-86142857D01*
X70690476Y-86380952D01*
X70738095Y-86476190D01*
X70785714Y-86523809D01*
X70880952Y-86571428D01*
X71071428Y-86571428D01*
X71166666Y-86523809D01*
X71214285Y-86476190D01*
X71261904Y-86380952D01*
%TO.C,D28*%
X58785714Y-86952380D02*
X58785714Y-85952380D01*
X59023809Y-85952380D01*
X59166666Y-86000000D01*
X59261904Y-86095238D01*
X59309523Y-86190476D01*
X59357142Y-86380952D01*
X59357142Y-86523809D01*
X59309523Y-86714285D01*
X59261904Y-86809523D01*
X59166666Y-86904761D01*
X59023809Y-86952380D01*
X58785714Y-86952380D01*
X59738095Y-86047619D02*
X59785714Y-86000000D01*
X59880952Y-85952380D01*
X60119047Y-85952380D01*
X60214285Y-86000000D01*
X60261904Y-86047619D01*
X60309523Y-86142857D01*
X60309523Y-86238095D01*
X60261904Y-86380952D01*
X59690476Y-86952380D01*
X60309523Y-86952380D01*
X60880952Y-86380952D02*
X60785714Y-86333333D01*
X60738095Y-86285714D01*
X60690476Y-86190476D01*
X60690476Y-86142857D01*
X60738095Y-86047619D01*
X60785714Y-86000000D01*
X60880952Y-85952380D01*
X61071428Y-85952380D01*
X61166666Y-86000000D01*
X61214285Y-86047619D01*
X61261904Y-86142857D01*
X61261904Y-86190476D01*
X61214285Y-86285714D01*
X61166666Y-86333333D01*
X61071428Y-86380952D01*
X60880952Y-86380952D01*
X60785714Y-86428571D01*
X60738095Y-86476190D01*
X60690476Y-86571428D01*
X60690476Y-86761904D01*
X60738095Y-86857142D01*
X60785714Y-86904761D01*
X60880952Y-86952380D01*
X61071428Y-86952380D01*
X61166666Y-86904761D01*
X61214285Y-86857142D01*
X61261904Y-86761904D01*
X61261904Y-86571428D01*
X61214285Y-86476190D01*
X61166666Y-86428571D01*
X61071428Y-86380952D01*
%TO.C,D27*%
X48785714Y-86952380D02*
X48785714Y-85952380D01*
X49023809Y-85952380D01*
X49166666Y-86000000D01*
X49261904Y-86095238D01*
X49309523Y-86190476D01*
X49357142Y-86380952D01*
X49357142Y-86523809D01*
X49309523Y-86714285D01*
X49261904Y-86809523D01*
X49166666Y-86904761D01*
X49023809Y-86952380D01*
X48785714Y-86952380D01*
X49738095Y-86047619D02*
X49785714Y-86000000D01*
X49880952Y-85952380D01*
X50119047Y-85952380D01*
X50214285Y-86000000D01*
X50261904Y-86047619D01*
X50309523Y-86142857D01*
X50309523Y-86238095D01*
X50261904Y-86380952D01*
X49690476Y-86952380D01*
X50309523Y-86952380D01*
X50642857Y-85952380D02*
X51309523Y-85952380D01*
X50880952Y-86952380D01*
%TO.C,D26*%
X38785714Y-86952380D02*
X38785714Y-85952380D01*
X39023809Y-85952380D01*
X39166666Y-86000000D01*
X39261904Y-86095238D01*
X39309523Y-86190476D01*
X39357142Y-86380952D01*
X39357142Y-86523809D01*
X39309523Y-86714285D01*
X39261904Y-86809523D01*
X39166666Y-86904761D01*
X39023809Y-86952380D01*
X38785714Y-86952380D01*
X39738095Y-86047619D02*
X39785714Y-86000000D01*
X39880952Y-85952380D01*
X40119047Y-85952380D01*
X40214285Y-86000000D01*
X40261904Y-86047619D01*
X40309523Y-86142857D01*
X40309523Y-86238095D01*
X40261904Y-86380952D01*
X39690476Y-86952380D01*
X40309523Y-86952380D01*
X41166666Y-85952380D02*
X40976190Y-85952380D01*
X40880952Y-86000000D01*
X40833333Y-86047619D01*
X40738095Y-86190476D01*
X40690476Y-86380952D01*
X40690476Y-86761904D01*
X40738095Y-86857142D01*
X40785714Y-86904761D01*
X40880952Y-86952380D01*
X41071428Y-86952380D01*
X41166666Y-86904761D01*
X41214285Y-86857142D01*
X41261904Y-86761904D01*
X41261904Y-86523809D01*
X41214285Y-86428571D01*
X41166666Y-86380952D01*
X41071428Y-86333333D01*
X40880952Y-86333333D01*
X40785714Y-86380952D01*
X40738095Y-86428571D01*
X40690476Y-86523809D01*
%TO.C,D25*%
X28785714Y-86952380D02*
X28785714Y-85952380D01*
X29023809Y-85952380D01*
X29166666Y-86000000D01*
X29261904Y-86095238D01*
X29309523Y-86190476D01*
X29357142Y-86380952D01*
X29357142Y-86523809D01*
X29309523Y-86714285D01*
X29261904Y-86809523D01*
X29166666Y-86904761D01*
X29023809Y-86952380D01*
X28785714Y-86952380D01*
X29738095Y-86047619D02*
X29785714Y-86000000D01*
X29880952Y-85952380D01*
X30119047Y-85952380D01*
X30214285Y-86000000D01*
X30261904Y-86047619D01*
X30309523Y-86142857D01*
X30309523Y-86238095D01*
X30261904Y-86380952D01*
X29690476Y-86952380D01*
X30309523Y-86952380D01*
X31214285Y-85952380D02*
X30738095Y-85952380D01*
X30690476Y-86428571D01*
X30738095Y-86380952D01*
X30833333Y-86333333D01*
X31071428Y-86333333D01*
X31166666Y-86380952D01*
X31214285Y-86428571D01*
X31261904Y-86523809D01*
X31261904Y-86761904D01*
X31214285Y-86857142D01*
X31166666Y-86904761D01*
X31071428Y-86952380D01*
X30833333Y-86952380D01*
X30738095Y-86904761D01*
X30690476Y-86857142D01*
%TO.C,D24*%
X28785714Y-83952380D02*
X28785714Y-82952380D01*
X29023809Y-82952380D01*
X29166666Y-83000000D01*
X29261904Y-83095238D01*
X29309523Y-83190476D01*
X29357142Y-83380952D01*
X29357142Y-83523809D01*
X29309523Y-83714285D01*
X29261904Y-83809523D01*
X29166666Y-83904761D01*
X29023809Y-83952380D01*
X28785714Y-83952380D01*
X29738095Y-83047619D02*
X29785714Y-83000000D01*
X29880952Y-82952380D01*
X30119047Y-82952380D01*
X30214285Y-83000000D01*
X30261904Y-83047619D01*
X30309523Y-83142857D01*
X30309523Y-83238095D01*
X30261904Y-83380952D01*
X29690476Y-83952380D01*
X30309523Y-83952380D01*
X31166666Y-83285714D02*
X31166666Y-83952380D01*
X30928571Y-82904761D02*
X30690476Y-83619047D01*
X31309523Y-83619047D01*
%TO.C,D23*%
X38785714Y-83952380D02*
X38785714Y-82952380D01*
X39023809Y-82952380D01*
X39166666Y-83000000D01*
X39261904Y-83095238D01*
X39309523Y-83190476D01*
X39357142Y-83380952D01*
X39357142Y-83523809D01*
X39309523Y-83714285D01*
X39261904Y-83809523D01*
X39166666Y-83904761D01*
X39023809Y-83952380D01*
X38785714Y-83952380D01*
X39738095Y-83047619D02*
X39785714Y-83000000D01*
X39880952Y-82952380D01*
X40119047Y-82952380D01*
X40214285Y-83000000D01*
X40261904Y-83047619D01*
X40309523Y-83142857D01*
X40309523Y-83238095D01*
X40261904Y-83380952D01*
X39690476Y-83952380D01*
X40309523Y-83952380D01*
X40642857Y-82952380D02*
X41261904Y-82952380D01*
X40928571Y-83333333D01*
X41071428Y-83333333D01*
X41166666Y-83380952D01*
X41214285Y-83428571D01*
X41261904Y-83523809D01*
X41261904Y-83761904D01*
X41214285Y-83857142D01*
X41166666Y-83904761D01*
X41071428Y-83952380D01*
X40785714Y-83952380D01*
X40690476Y-83904761D01*
X40642857Y-83857142D01*
%TO.C,D22*%
X48785714Y-83952380D02*
X48785714Y-82952380D01*
X49023809Y-82952380D01*
X49166666Y-83000000D01*
X49261904Y-83095238D01*
X49309523Y-83190476D01*
X49357142Y-83380952D01*
X49357142Y-83523809D01*
X49309523Y-83714285D01*
X49261904Y-83809523D01*
X49166666Y-83904761D01*
X49023809Y-83952380D01*
X48785714Y-83952380D01*
X49738095Y-83047619D02*
X49785714Y-83000000D01*
X49880952Y-82952380D01*
X50119047Y-82952380D01*
X50214285Y-83000000D01*
X50261904Y-83047619D01*
X50309523Y-83142857D01*
X50309523Y-83238095D01*
X50261904Y-83380952D01*
X49690476Y-83952380D01*
X50309523Y-83952380D01*
X50690476Y-83047619D02*
X50738095Y-83000000D01*
X50833333Y-82952380D01*
X51071428Y-82952380D01*
X51166666Y-83000000D01*
X51214285Y-83047619D01*
X51261904Y-83142857D01*
X51261904Y-83238095D01*
X51214285Y-83380952D01*
X50642857Y-83952380D01*
X51261904Y-83952380D01*
%TO.C,D21*%
X58785714Y-83952380D02*
X58785714Y-82952380D01*
X59023809Y-82952380D01*
X59166666Y-83000000D01*
X59261904Y-83095238D01*
X59309523Y-83190476D01*
X59357142Y-83380952D01*
X59357142Y-83523809D01*
X59309523Y-83714285D01*
X59261904Y-83809523D01*
X59166666Y-83904761D01*
X59023809Y-83952380D01*
X58785714Y-83952380D01*
X59738095Y-83047619D02*
X59785714Y-83000000D01*
X59880952Y-82952380D01*
X60119047Y-82952380D01*
X60214285Y-83000000D01*
X60261904Y-83047619D01*
X60309523Y-83142857D01*
X60309523Y-83238095D01*
X60261904Y-83380952D01*
X59690476Y-83952380D01*
X60309523Y-83952380D01*
X61261904Y-83952380D02*
X60690476Y-83952380D01*
X60976190Y-83952380D02*
X60976190Y-82952380D01*
X60880952Y-83095238D01*
X60785714Y-83190476D01*
X60690476Y-83238095D01*
%TO.C,D20*%
X68785714Y-83952380D02*
X68785714Y-82952380D01*
X69023809Y-82952380D01*
X69166666Y-83000000D01*
X69261904Y-83095238D01*
X69309523Y-83190476D01*
X69357142Y-83380952D01*
X69357142Y-83523809D01*
X69309523Y-83714285D01*
X69261904Y-83809523D01*
X69166666Y-83904761D01*
X69023809Y-83952380D01*
X68785714Y-83952380D01*
X69738095Y-83047619D02*
X69785714Y-83000000D01*
X69880952Y-82952380D01*
X70119047Y-82952380D01*
X70214285Y-83000000D01*
X70261904Y-83047619D01*
X70309523Y-83142857D01*
X70309523Y-83238095D01*
X70261904Y-83380952D01*
X69690476Y-83952380D01*
X70309523Y-83952380D01*
X70928571Y-82952380D02*
X71023809Y-82952380D01*
X71119047Y-83000000D01*
X71166666Y-83047619D01*
X71214285Y-83142857D01*
X71261904Y-83333333D01*
X71261904Y-83571428D01*
X71214285Y-83761904D01*
X71166666Y-83857142D01*
X71119047Y-83904761D01*
X71023809Y-83952380D01*
X70928571Y-83952380D01*
X70833333Y-83904761D01*
X70785714Y-83857142D01*
X70738095Y-83761904D01*
X70690476Y-83571428D01*
X70690476Y-83333333D01*
X70738095Y-83142857D01*
X70785714Y-83047619D01*
X70833333Y-83000000D01*
X70928571Y-82952380D01*
%TO.C,D19*%
X78785714Y-83952380D02*
X78785714Y-82952380D01*
X79023809Y-82952380D01*
X79166666Y-83000000D01*
X79261904Y-83095238D01*
X79309523Y-83190476D01*
X79357142Y-83380952D01*
X79357142Y-83523809D01*
X79309523Y-83714285D01*
X79261904Y-83809523D01*
X79166666Y-83904761D01*
X79023809Y-83952380D01*
X78785714Y-83952380D01*
X80309523Y-83952380D02*
X79738095Y-83952380D01*
X80023809Y-83952380D02*
X80023809Y-82952380D01*
X79928571Y-83095238D01*
X79833333Y-83190476D01*
X79738095Y-83238095D01*
X80785714Y-83952380D02*
X80976190Y-83952380D01*
X81071428Y-83904761D01*
X81119047Y-83857142D01*
X81214285Y-83714285D01*
X81261904Y-83523809D01*
X81261904Y-83142857D01*
X81214285Y-83047619D01*
X81166666Y-83000000D01*
X81071428Y-82952380D01*
X80880952Y-82952380D01*
X80785714Y-83000000D01*
X80738095Y-83047619D01*
X80690476Y-83142857D01*
X80690476Y-83380952D01*
X80738095Y-83476190D01*
X80785714Y-83523809D01*
X80880952Y-83571428D01*
X81071428Y-83571428D01*
X81166666Y-83523809D01*
X81214285Y-83476190D01*
X81261904Y-83380952D01*
%TO.C,D18*%
X78785714Y-66952380D02*
X78785714Y-65952380D01*
X79023809Y-65952380D01*
X79166666Y-66000000D01*
X79261904Y-66095238D01*
X79309523Y-66190476D01*
X79357142Y-66380952D01*
X79357142Y-66523809D01*
X79309523Y-66714285D01*
X79261904Y-66809523D01*
X79166666Y-66904761D01*
X79023809Y-66952380D01*
X78785714Y-66952380D01*
X80309523Y-66952380D02*
X79738095Y-66952380D01*
X80023809Y-66952380D02*
X80023809Y-65952380D01*
X79928571Y-66095238D01*
X79833333Y-66190476D01*
X79738095Y-66238095D01*
X80880952Y-66380952D02*
X80785714Y-66333333D01*
X80738095Y-66285714D01*
X80690476Y-66190476D01*
X80690476Y-66142857D01*
X80738095Y-66047619D01*
X80785714Y-66000000D01*
X80880952Y-65952380D01*
X81071428Y-65952380D01*
X81166666Y-66000000D01*
X81214285Y-66047619D01*
X81261904Y-66142857D01*
X81261904Y-66190476D01*
X81214285Y-66285714D01*
X81166666Y-66333333D01*
X81071428Y-66380952D01*
X80880952Y-66380952D01*
X80785714Y-66428571D01*
X80738095Y-66476190D01*
X80690476Y-66571428D01*
X80690476Y-66761904D01*
X80738095Y-66857142D01*
X80785714Y-66904761D01*
X80880952Y-66952380D01*
X81071428Y-66952380D01*
X81166666Y-66904761D01*
X81214285Y-66857142D01*
X81261904Y-66761904D01*
X81261904Y-66571428D01*
X81214285Y-66476190D01*
X81166666Y-66428571D01*
X81071428Y-66380952D01*
%TO.C,D17*%
X68785714Y-66952380D02*
X68785714Y-65952380D01*
X69023809Y-65952380D01*
X69166666Y-66000000D01*
X69261904Y-66095238D01*
X69309523Y-66190476D01*
X69357142Y-66380952D01*
X69357142Y-66523809D01*
X69309523Y-66714285D01*
X69261904Y-66809523D01*
X69166666Y-66904761D01*
X69023809Y-66952380D01*
X68785714Y-66952380D01*
X70309523Y-66952380D02*
X69738095Y-66952380D01*
X70023809Y-66952380D02*
X70023809Y-65952380D01*
X69928571Y-66095238D01*
X69833333Y-66190476D01*
X69738095Y-66238095D01*
X70642857Y-65952380D02*
X71309523Y-65952380D01*
X70880952Y-66952380D01*
%TO.C,D16*%
X58785714Y-66952380D02*
X58785714Y-65952380D01*
X59023809Y-65952380D01*
X59166666Y-66000000D01*
X59261904Y-66095238D01*
X59309523Y-66190476D01*
X59357142Y-66380952D01*
X59357142Y-66523809D01*
X59309523Y-66714285D01*
X59261904Y-66809523D01*
X59166666Y-66904761D01*
X59023809Y-66952380D01*
X58785714Y-66952380D01*
X60309523Y-66952380D02*
X59738095Y-66952380D01*
X60023809Y-66952380D02*
X60023809Y-65952380D01*
X59928571Y-66095238D01*
X59833333Y-66190476D01*
X59738095Y-66238095D01*
X61166666Y-65952380D02*
X60976190Y-65952380D01*
X60880952Y-66000000D01*
X60833333Y-66047619D01*
X60738095Y-66190476D01*
X60690476Y-66380952D01*
X60690476Y-66761904D01*
X60738095Y-66857142D01*
X60785714Y-66904761D01*
X60880952Y-66952380D01*
X61071428Y-66952380D01*
X61166666Y-66904761D01*
X61214285Y-66857142D01*
X61261904Y-66761904D01*
X61261904Y-66523809D01*
X61214285Y-66428571D01*
X61166666Y-66380952D01*
X61071428Y-66333333D01*
X60880952Y-66333333D01*
X60785714Y-66380952D01*
X60738095Y-66428571D01*
X60690476Y-66523809D01*
%TO.C,D15*%
X48785714Y-66952380D02*
X48785714Y-65952380D01*
X49023809Y-65952380D01*
X49166666Y-66000000D01*
X49261904Y-66095238D01*
X49309523Y-66190476D01*
X49357142Y-66380952D01*
X49357142Y-66523809D01*
X49309523Y-66714285D01*
X49261904Y-66809523D01*
X49166666Y-66904761D01*
X49023809Y-66952380D01*
X48785714Y-66952380D01*
X50309523Y-66952380D02*
X49738095Y-66952380D01*
X50023809Y-66952380D02*
X50023809Y-65952380D01*
X49928571Y-66095238D01*
X49833333Y-66190476D01*
X49738095Y-66238095D01*
X51214285Y-65952380D02*
X50738095Y-65952380D01*
X50690476Y-66428571D01*
X50738095Y-66380952D01*
X50833333Y-66333333D01*
X51071428Y-66333333D01*
X51166666Y-66380952D01*
X51214285Y-66428571D01*
X51261904Y-66523809D01*
X51261904Y-66761904D01*
X51214285Y-66857142D01*
X51166666Y-66904761D01*
X51071428Y-66952380D01*
X50833333Y-66952380D01*
X50738095Y-66904761D01*
X50690476Y-66857142D01*
%TO.C,D14*%
X38785714Y-66952380D02*
X38785714Y-65952380D01*
X39023809Y-65952380D01*
X39166666Y-66000000D01*
X39261904Y-66095238D01*
X39309523Y-66190476D01*
X39357142Y-66380952D01*
X39357142Y-66523809D01*
X39309523Y-66714285D01*
X39261904Y-66809523D01*
X39166666Y-66904761D01*
X39023809Y-66952380D01*
X38785714Y-66952380D01*
X40309523Y-66952380D02*
X39738095Y-66952380D01*
X40023809Y-66952380D02*
X40023809Y-65952380D01*
X39928571Y-66095238D01*
X39833333Y-66190476D01*
X39738095Y-66238095D01*
X41166666Y-66285714D02*
X41166666Y-66952380D01*
X40928571Y-65904761D02*
X40690476Y-66619047D01*
X41309523Y-66619047D01*
%TO.C,D13*%
X28785714Y-66952380D02*
X28785714Y-65952380D01*
X29023809Y-65952380D01*
X29166666Y-66000000D01*
X29261904Y-66095238D01*
X29309523Y-66190476D01*
X29357142Y-66380952D01*
X29357142Y-66523809D01*
X29309523Y-66714285D01*
X29261904Y-66809523D01*
X29166666Y-66904761D01*
X29023809Y-66952380D01*
X28785714Y-66952380D01*
X30309523Y-66952380D02*
X29738095Y-66952380D01*
X30023809Y-66952380D02*
X30023809Y-65952380D01*
X29928571Y-66095238D01*
X29833333Y-66190476D01*
X29738095Y-66238095D01*
X30642857Y-65952380D02*
X31261904Y-65952380D01*
X30928571Y-66333333D01*
X31071428Y-66333333D01*
X31166666Y-66380952D01*
X31214285Y-66428571D01*
X31261904Y-66523809D01*
X31261904Y-66761904D01*
X31214285Y-66857142D01*
X31166666Y-66904761D01*
X31071428Y-66952380D01*
X30785714Y-66952380D01*
X30690476Y-66904761D01*
X30642857Y-66857142D01*
%TO.C,D12*%
X28785714Y-63952380D02*
X28785714Y-62952380D01*
X29023809Y-62952380D01*
X29166666Y-63000000D01*
X29261904Y-63095238D01*
X29309523Y-63190476D01*
X29357142Y-63380952D01*
X29357142Y-63523809D01*
X29309523Y-63714285D01*
X29261904Y-63809523D01*
X29166666Y-63904761D01*
X29023809Y-63952380D01*
X28785714Y-63952380D01*
X30309523Y-63952380D02*
X29738095Y-63952380D01*
X30023809Y-63952380D02*
X30023809Y-62952380D01*
X29928571Y-63095238D01*
X29833333Y-63190476D01*
X29738095Y-63238095D01*
X30690476Y-63047619D02*
X30738095Y-63000000D01*
X30833333Y-62952380D01*
X31071428Y-62952380D01*
X31166666Y-63000000D01*
X31214285Y-63047619D01*
X31261904Y-63142857D01*
X31261904Y-63238095D01*
X31214285Y-63380952D01*
X30642857Y-63952380D01*
X31261904Y-63952380D01*
%TO.C,D11*%
X38785714Y-63952380D02*
X38785714Y-62952380D01*
X39023809Y-62952380D01*
X39166666Y-63000000D01*
X39261904Y-63095238D01*
X39309523Y-63190476D01*
X39357142Y-63380952D01*
X39357142Y-63523809D01*
X39309523Y-63714285D01*
X39261904Y-63809523D01*
X39166666Y-63904761D01*
X39023809Y-63952380D01*
X38785714Y-63952380D01*
X40309523Y-63952380D02*
X39738095Y-63952380D01*
X40023809Y-63952380D02*
X40023809Y-62952380D01*
X39928571Y-63095238D01*
X39833333Y-63190476D01*
X39738095Y-63238095D01*
X41261904Y-63952380D02*
X40690476Y-63952380D01*
X40976190Y-63952380D02*
X40976190Y-62952380D01*
X40880952Y-63095238D01*
X40785714Y-63190476D01*
X40690476Y-63238095D01*
%TO.C,D10*%
X48785714Y-63952380D02*
X48785714Y-62952380D01*
X49023809Y-62952380D01*
X49166666Y-63000000D01*
X49261904Y-63095238D01*
X49309523Y-63190476D01*
X49357142Y-63380952D01*
X49357142Y-63523809D01*
X49309523Y-63714285D01*
X49261904Y-63809523D01*
X49166666Y-63904761D01*
X49023809Y-63952380D01*
X48785714Y-63952380D01*
X50309523Y-63952380D02*
X49738095Y-63952380D01*
X50023809Y-63952380D02*
X50023809Y-62952380D01*
X49928571Y-63095238D01*
X49833333Y-63190476D01*
X49738095Y-63238095D01*
X50928571Y-62952380D02*
X51023809Y-62952380D01*
X51119047Y-63000000D01*
X51166666Y-63047619D01*
X51214285Y-63142857D01*
X51261904Y-63333333D01*
X51261904Y-63571428D01*
X51214285Y-63761904D01*
X51166666Y-63857142D01*
X51119047Y-63904761D01*
X51023809Y-63952380D01*
X50928571Y-63952380D01*
X50833333Y-63904761D01*
X50785714Y-63857142D01*
X50738095Y-63761904D01*
X50690476Y-63571428D01*
X50690476Y-63333333D01*
X50738095Y-63142857D01*
X50785714Y-63047619D01*
X50833333Y-63000000D01*
X50928571Y-62952380D01*
%TO.C,D9*%
X59261904Y-63952380D02*
X59261904Y-62952380D01*
X59500000Y-62952380D01*
X59642857Y-63000000D01*
X59738095Y-63095238D01*
X59785714Y-63190476D01*
X59833333Y-63380952D01*
X59833333Y-63523809D01*
X59785714Y-63714285D01*
X59738095Y-63809523D01*
X59642857Y-63904761D01*
X59500000Y-63952380D01*
X59261904Y-63952380D01*
X60309523Y-63952380D02*
X60500000Y-63952380D01*
X60595238Y-63904761D01*
X60642857Y-63857142D01*
X60738095Y-63714285D01*
X60785714Y-63523809D01*
X60785714Y-63142857D01*
X60738095Y-63047619D01*
X60690476Y-63000000D01*
X60595238Y-62952380D01*
X60404761Y-62952380D01*
X60309523Y-63000000D01*
X60261904Y-63047619D01*
X60214285Y-63142857D01*
X60214285Y-63380952D01*
X60261904Y-63476190D01*
X60309523Y-63523809D01*
X60404761Y-63571428D01*
X60595238Y-63571428D01*
X60690476Y-63523809D01*
X60738095Y-63476190D01*
X60785714Y-63380952D01*
%TO.C,D8*%
X69261904Y-63952380D02*
X69261904Y-62952380D01*
X69500000Y-62952380D01*
X69642857Y-63000000D01*
X69738095Y-63095238D01*
X69785714Y-63190476D01*
X69833333Y-63380952D01*
X69833333Y-63523809D01*
X69785714Y-63714285D01*
X69738095Y-63809523D01*
X69642857Y-63904761D01*
X69500000Y-63952380D01*
X69261904Y-63952380D01*
X70404761Y-63380952D02*
X70309523Y-63333333D01*
X70261904Y-63285714D01*
X70214285Y-63190476D01*
X70214285Y-63142857D01*
X70261904Y-63047619D01*
X70309523Y-63000000D01*
X70404761Y-62952380D01*
X70595238Y-62952380D01*
X70690476Y-63000000D01*
X70738095Y-63047619D01*
X70785714Y-63142857D01*
X70785714Y-63190476D01*
X70738095Y-63285714D01*
X70690476Y-63333333D01*
X70595238Y-63380952D01*
X70404761Y-63380952D01*
X70309523Y-63428571D01*
X70261904Y-63476190D01*
X70214285Y-63571428D01*
X70214285Y-63761904D01*
X70261904Y-63857142D01*
X70309523Y-63904761D01*
X70404761Y-63952380D01*
X70595238Y-63952380D01*
X70690476Y-63904761D01*
X70738095Y-63857142D01*
X70785714Y-63761904D01*
X70785714Y-63571428D01*
X70738095Y-63476190D01*
X70690476Y-63428571D01*
X70595238Y-63380952D01*
%TO.C,D7*%
X79261904Y-63952380D02*
X79261904Y-62952380D01*
X79500000Y-62952380D01*
X79642857Y-63000000D01*
X79738095Y-63095238D01*
X79785714Y-63190476D01*
X79833333Y-63380952D01*
X79833333Y-63523809D01*
X79785714Y-63714285D01*
X79738095Y-63809523D01*
X79642857Y-63904761D01*
X79500000Y-63952380D01*
X79261904Y-63952380D01*
X80166666Y-62952380D02*
X80833333Y-62952380D01*
X80404761Y-63952380D01*
%TO.C,C36*%
X32857142Y-96357142D02*
X32809523Y-96404761D01*
X32666666Y-96452380D01*
X32571428Y-96452380D01*
X32428571Y-96404761D01*
X32333333Y-96309523D01*
X32285714Y-96214285D01*
X32238095Y-96023809D01*
X32238095Y-95880952D01*
X32285714Y-95690476D01*
X32333333Y-95595238D01*
X32428571Y-95500000D01*
X32571428Y-95452380D01*
X32666666Y-95452380D01*
X32809523Y-95500000D01*
X32857142Y-95547619D01*
X33190476Y-95452380D02*
X33809523Y-95452380D01*
X33476190Y-95833333D01*
X33619047Y-95833333D01*
X33714285Y-95880952D01*
X33761904Y-95928571D01*
X33809523Y-96023809D01*
X33809523Y-96261904D01*
X33761904Y-96357142D01*
X33714285Y-96404761D01*
X33619047Y-96452380D01*
X33333333Y-96452380D01*
X33238095Y-96404761D01*
X33190476Y-96357142D01*
X34666666Y-95452380D02*
X34476190Y-95452380D01*
X34380952Y-95500000D01*
X34333333Y-95547619D01*
X34238095Y-95690476D01*
X34190476Y-95880952D01*
X34190476Y-96261904D01*
X34238095Y-96357142D01*
X34285714Y-96404761D01*
X34380952Y-96452380D01*
X34571428Y-96452380D01*
X34666666Y-96404761D01*
X34714285Y-96357142D01*
X34761904Y-96261904D01*
X34761904Y-96023809D01*
X34714285Y-95928571D01*
X34666666Y-95880952D01*
X34571428Y-95833333D01*
X34380952Y-95833333D01*
X34285714Y-95880952D01*
X34238095Y-95928571D01*
X34190476Y-96023809D01*
%TO.C,C35*%
X42857142Y-96357142D02*
X42809523Y-96404761D01*
X42666666Y-96452380D01*
X42571428Y-96452380D01*
X42428571Y-96404761D01*
X42333333Y-96309523D01*
X42285714Y-96214285D01*
X42238095Y-96023809D01*
X42238095Y-95880952D01*
X42285714Y-95690476D01*
X42333333Y-95595238D01*
X42428571Y-95500000D01*
X42571428Y-95452380D01*
X42666666Y-95452380D01*
X42809523Y-95500000D01*
X42857142Y-95547619D01*
X43190476Y-95452380D02*
X43809523Y-95452380D01*
X43476190Y-95833333D01*
X43619047Y-95833333D01*
X43714285Y-95880952D01*
X43761904Y-95928571D01*
X43809523Y-96023809D01*
X43809523Y-96261904D01*
X43761904Y-96357142D01*
X43714285Y-96404761D01*
X43619047Y-96452380D01*
X43333333Y-96452380D01*
X43238095Y-96404761D01*
X43190476Y-96357142D01*
X44714285Y-95452380D02*
X44238095Y-95452380D01*
X44190476Y-95928571D01*
X44238095Y-95880952D01*
X44333333Y-95833333D01*
X44571428Y-95833333D01*
X44666666Y-95880952D01*
X44714285Y-95928571D01*
X44761904Y-96023809D01*
X44761904Y-96261904D01*
X44714285Y-96357142D01*
X44666666Y-96404761D01*
X44571428Y-96452380D01*
X44333333Y-96452380D01*
X44238095Y-96404761D01*
X44190476Y-96357142D01*
%TO.C,C34*%
X52857142Y-96357142D02*
X52809523Y-96404761D01*
X52666666Y-96452380D01*
X52571428Y-96452380D01*
X52428571Y-96404761D01*
X52333333Y-96309523D01*
X52285714Y-96214285D01*
X52238095Y-96023809D01*
X52238095Y-95880952D01*
X52285714Y-95690476D01*
X52333333Y-95595238D01*
X52428571Y-95500000D01*
X52571428Y-95452380D01*
X52666666Y-95452380D01*
X52809523Y-95500000D01*
X52857142Y-95547619D01*
X53190476Y-95452380D02*
X53809523Y-95452380D01*
X53476190Y-95833333D01*
X53619047Y-95833333D01*
X53714285Y-95880952D01*
X53761904Y-95928571D01*
X53809523Y-96023809D01*
X53809523Y-96261904D01*
X53761904Y-96357142D01*
X53714285Y-96404761D01*
X53619047Y-96452380D01*
X53333333Y-96452380D01*
X53238095Y-96404761D01*
X53190476Y-96357142D01*
X54666666Y-95785714D02*
X54666666Y-96452380D01*
X54428571Y-95404761D02*
X54190476Y-96119047D01*
X54809523Y-96119047D01*
%TO.C,C33*%
X62857142Y-96357142D02*
X62809523Y-96404761D01*
X62666666Y-96452380D01*
X62571428Y-96452380D01*
X62428571Y-96404761D01*
X62333333Y-96309523D01*
X62285714Y-96214285D01*
X62238095Y-96023809D01*
X62238095Y-95880952D01*
X62285714Y-95690476D01*
X62333333Y-95595238D01*
X62428571Y-95500000D01*
X62571428Y-95452380D01*
X62666666Y-95452380D01*
X62809523Y-95500000D01*
X62857142Y-95547619D01*
X63190476Y-95452380D02*
X63809523Y-95452380D01*
X63476190Y-95833333D01*
X63619047Y-95833333D01*
X63714285Y-95880952D01*
X63761904Y-95928571D01*
X63809523Y-96023809D01*
X63809523Y-96261904D01*
X63761904Y-96357142D01*
X63714285Y-96404761D01*
X63619047Y-96452380D01*
X63333333Y-96452380D01*
X63238095Y-96404761D01*
X63190476Y-96357142D01*
X64142857Y-95452380D02*
X64761904Y-95452380D01*
X64428571Y-95833333D01*
X64571428Y-95833333D01*
X64666666Y-95880952D01*
X64714285Y-95928571D01*
X64761904Y-96023809D01*
X64761904Y-96261904D01*
X64714285Y-96357142D01*
X64666666Y-96404761D01*
X64571428Y-96452380D01*
X64285714Y-96452380D01*
X64190476Y-96404761D01*
X64142857Y-96357142D01*
%TO.C,C32*%
X72857142Y-96357142D02*
X72809523Y-96404761D01*
X72666666Y-96452380D01*
X72571428Y-96452380D01*
X72428571Y-96404761D01*
X72333333Y-96309523D01*
X72285714Y-96214285D01*
X72238095Y-96023809D01*
X72238095Y-95880952D01*
X72285714Y-95690476D01*
X72333333Y-95595238D01*
X72428571Y-95500000D01*
X72571428Y-95452380D01*
X72666666Y-95452380D01*
X72809523Y-95500000D01*
X72857142Y-95547619D01*
X73190476Y-95452380D02*
X73809523Y-95452380D01*
X73476190Y-95833333D01*
X73619047Y-95833333D01*
X73714285Y-95880952D01*
X73761904Y-95928571D01*
X73809523Y-96023809D01*
X73809523Y-96261904D01*
X73761904Y-96357142D01*
X73714285Y-96404761D01*
X73619047Y-96452380D01*
X73333333Y-96452380D01*
X73238095Y-96404761D01*
X73190476Y-96357142D01*
X74190476Y-95547619D02*
X74238095Y-95500000D01*
X74333333Y-95452380D01*
X74571428Y-95452380D01*
X74666666Y-95500000D01*
X74714285Y-95547619D01*
X74761904Y-95642857D01*
X74761904Y-95738095D01*
X74714285Y-95880952D01*
X74142857Y-96452380D01*
X74761904Y-96452380D01*
%TO.C,C31*%
X82857142Y-96357142D02*
X82809523Y-96404761D01*
X82666666Y-96452380D01*
X82571428Y-96452380D01*
X82428571Y-96404761D01*
X82333333Y-96309523D01*
X82285714Y-96214285D01*
X82238095Y-96023809D01*
X82238095Y-95880952D01*
X82285714Y-95690476D01*
X82333333Y-95595238D01*
X82428571Y-95500000D01*
X82571428Y-95452380D01*
X82666666Y-95452380D01*
X82809523Y-95500000D01*
X82857142Y-95547619D01*
X83190476Y-95452380D02*
X83809523Y-95452380D01*
X83476190Y-95833333D01*
X83619047Y-95833333D01*
X83714285Y-95880952D01*
X83761904Y-95928571D01*
X83809523Y-96023809D01*
X83809523Y-96261904D01*
X83761904Y-96357142D01*
X83714285Y-96404761D01*
X83619047Y-96452380D01*
X83333333Y-96452380D01*
X83238095Y-96404761D01*
X83190476Y-96357142D01*
X84761904Y-96452380D02*
X84190476Y-96452380D01*
X84476190Y-96452380D02*
X84476190Y-95452380D01*
X84380952Y-95595238D01*
X84285714Y-95690476D01*
X84190476Y-95738095D01*
%TO.C,C30*%
X82857142Y-94357142D02*
X82809523Y-94404761D01*
X82666666Y-94452380D01*
X82571428Y-94452380D01*
X82428571Y-94404761D01*
X82333333Y-94309523D01*
X82285714Y-94214285D01*
X82238095Y-94023809D01*
X82238095Y-93880952D01*
X82285714Y-93690476D01*
X82333333Y-93595238D01*
X82428571Y-93500000D01*
X82571428Y-93452380D01*
X82666666Y-93452380D01*
X82809523Y-93500000D01*
X82857142Y-93547619D01*
X83190476Y-93452380D02*
X83809523Y-93452380D01*
X83476190Y-93833333D01*
X83619047Y-93833333D01*
X83714285Y-93880952D01*
X83761904Y-93928571D01*
X83809523Y-94023809D01*
X83809523Y-94261904D01*
X83761904Y-94357142D01*
X83714285Y-94404761D01*
X83619047Y-94452380D01*
X83333333Y-94452380D01*
X83238095Y-94404761D01*
X83190476Y-94357142D01*
X84428571Y-93452380D02*
X84523809Y-93452380D01*
X84619047Y-93500000D01*
X84666666Y-93547619D01*
X84714285Y-93642857D01*
X84761904Y-93833333D01*
X84761904Y-94071428D01*
X84714285Y-94261904D01*
X84666666Y-94357142D01*
X84619047Y-94404761D01*
X84523809Y-94452380D01*
X84428571Y-94452380D01*
X84333333Y-94404761D01*
X84285714Y-94357142D01*
X84238095Y-94261904D01*
X84190476Y-94071428D01*
X84190476Y-93833333D01*
X84238095Y-93642857D01*
X84285714Y-93547619D01*
X84333333Y-93500000D01*
X84428571Y-93452380D01*
%TO.C,C29*%
X72857142Y-94357142D02*
X72809523Y-94404761D01*
X72666666Y-94452380D01*
X72571428Y-94452380D01*
X72428571Y-94404761D01*
X72333333Y-94309523D01*
X72285714Y-94214285D01*
X72238095Y-94023809D01*
X72238095Y-93880952D01*
X72285714Y-93690476D01*
X72333333Y-93595238D01*
X72428571Y-93500000D01*
X72571428Y-93452380D01*
X72666666Y-93452380D01*
X72809523Y-93500000D01*
X72857142Y-93547619D01*
X73238095Y-93547619D02*
X73285714Y-93500000D01*
X73380952Y-93452380D01*
X73619047Y-93452380D01*
X73714285Y-93500000D01*
X73761904Y-93547619D01*
X73809523Y-93642857D01*
X73809523Y-93738095D01*
X73761904Y-93880952D01*
X73190476Y-94452380D01*
X73809523Y-94452380D01*
X74285714Y-94452380D02*
X74476190Y-94452380D01*
X74571428Y-94404761D01*
X74619047Y-94357142D01*
X74714285Y-94214285D01*
X74761904Y-94023809D01*
X74761904Y-93642857D01*
X74714285Y-93547619D01*
X74666666Y-93500000D01*
X74571428Y-93452380D01*
X74380952Y-93452380D01*
X74285714Y-93500000D01*
X74238095Y-93547619D01*
X74190476Y-93642857D01*
X74190476Y-93880952D01*
X74238095Y-93976190D01*
X74285714Y-94023809D01*
X74380952Y-94071428D01*
X74571428Y-94071428D01*
X74666666Y-94023809D01*
X74714285Y-93976190D01*
X74761904Y-93880952D01*
%TO.C,C28*%
X62857142Y-94357142D02*
X62809523Y-94404761D01*
X62666666Y-94452380D01*
X62571428Y-94452380D01*
X62428571Y-94404761D01*
X62333333Y-94309523D01*
X62285714Y-94214285D01*
X62238095Y-94023809D01*
X62238095Y-93880952D01*
X62285714Y-93690476D01*
X62333333Y-93595238D01*
X62428571Y-93500000D01*
X62571428Y-93452380D01*
X62666666Y-93452380D01*
X62809523Y-93500000D01*
X62857142Y-93547619D01*
X63238095Y-93547619D02*
X63285714Y-93500000D01*
X63380952Y-93452380D01*
X63619047Y-93452380D01*
X63714285Y-93500000D01*
X63761904Y-93547619D01*
X63809523Y-93642857D01*
X63809523Y-93738095D01*
X63761904Y-93880952D01*
X63190476Y-94452380D01*
X63809523Y-94452380D01*
X64380952Y-93880952D02*
X64285714Y-93833333D01*
X64238095Y-93785714D01*
X64190476Y-93690476D01*
X64190476Y-93642857D01*
X64238095Y-93547619D01*
X64285714Y-93500000D01*
X64380952Y-93452380D01*
X64571428Y-93452380D01*
X64666666Y-93500000D01*
X64714285Y-93547619D01*
X64761904Y-93642857D01*
X64761904Y-93690476D01*
X64714285Y-93785714D01*
X64666666Y-93833333D01*
X64571428Y-93880952D01*
X64380952Y-93880952D01*
X64285714Y-93928571D01*
X64238095Y-93976190D01*
X64190476Y-94071428D01*
X64190476Y-94261904D01*
X64238095Y-94357142D01*
X64285714Y-94404761D01*
X64380952Y-94452380D01*
X64571428Y-94452380D01*
X64666666Y-94404761D01*
X64714285Y-94357142D01*
X64761904Y-94261904D01*
X64761904Y-94071428D01*
X64714285Y-93976190D01*
X64666666Y-93928571D01*
X64571428Y-93880952D01*
%TO.C,C27*%
X52857142Y-94357142D02*
X52809523Y-94404761D01*
X52666666Y-94452380D01*
X52571428Y-94452380D01*
X52428571Y-94404761D01*
X52333333Y-94309523D01*
X52285714Y-94214285D01*
X52238095Y-94023809D01*
X52238095Y-93880952D01*
X52285714Y-93690476D01*
X52333333Y-93595238D01*
X52428571Y-93500000D01*
X52571428Y-93452380D01*
X52666666Y-93452380D01*
X52809523Y-93500000D01*
X52857142Y-93547619D01*
X53238095Y-93547619D02*
X53285714Y-93500000D01*
X53380952Y-93452380D01*
X53619047Y-93452380D01*
X53714285Y-93500000D01*
X53761904Y-93547619D01*
X53809523Y-93642857D01*
X53809523Y-93738095D01*
X53761904Y-93880952D01*
X53190476Y-94452380D01*
X53809523Y-94452380D01*
X54142857Y-93452380D02*
X54809523Y-93452380D01*
X54380952Y-94452380D01*
%TO.C,C26*%
X42857142Y-94357142D02*
X42809523Y-94404761D01*
X42666666Y-94452380D01*
X42571428Y-94452380D01*
X42428571Y-94404761D01*
X42333333Y-94309523D01*
X42285714Y-94214285D01*
X42238095Y-94023809D01*
X42238095Y-93880952D01*
X42285714Y-93690476D01*
X42333333Y-93595238D01*
X42428571Y-93500000D01*
X42571428Y-93452380D01*
X42666666Y-93452380D01*
X42809523Y-93500000D01*
X42857142Y-93547619D01*
X43238095Y-93547619D02*
X43285714Y-93500000D01*
X43380952Y-93452380D01*
X43619047Y-93452380D01*
X43714285Y-93500000D01*
X43761904Y-93547619D01*
X43809523Y-93642857D01*
X43809523Y-93738095D01*
X43761904Y-93880952D01*
X43190476Y-94452380D01*
X43809523Y-94452380D01*
X44666666Y-93452380D02*
X44476190Y-93452380D01*
X44380952Y-93500000D01*
X44333333Y-93547619D01*
X44238095Y-93690476D01*
X44190476Y-93880952D01*
X44190476Y-94261904D01*
X44238095Y-94357142D01*
X44285714Y-94404761D01*
X44380952Y-94452380D01*
X44571428Y-94452380D01*
X44666666Y-94404761D01*
X44714285Y-94357142D01*
X44761904Y-94261904D01*
X44761904Y-94023809D01*
X44714285Y-93928571D01*
X44666666Y-93880952D01*
X44571428Y-93833333D01*
X44380952Y-93833333D01*
X44285714Y-93880952D01*
X44238095Y-93928571D01*
X44190476Y-94023809D01*
%TO.C,C25*%
X32857142Y-94357142D02*
X32809523Y-94404761D01*
X32666666Y-94452380D01*
X32571428Y-94452380D01*
X32428571Y-94404761D01*
X32333333Y-94309523D01*
X32285714Y-94214285D01*
X32238095Y-94023809D01*
X32238095Y-93880952D01*
X32285714Y-93690476D01*
X32333333Y-93595238D01*
X32428571Y-93500000D01*
X32571428Y-93452380D01*
X32666666Y-93452380D01*
X32809523Y-93500000D01*
X32857142Y-93547619D01*
X33238095Y-93547619D02*
X33285714Y-93500000D01*
X33380952Y-93452380D01*
X33619047Y-93452380D01*
X33714285Y-93500000D01*
X33761904Y-93547619D01*
X33809523Y-93642857D01*
X33809523Y-93738095D01*
X33761904Y-93880952D01*
X33190476Y-94452380D01*
X33809523Y-94452380D01*
X34714285Y-93452380D02*
X34238095Y-93452380D01*
X34190476Y-93928571D01*
X34238095Y-93880952D01*
X34333333Y-93833333D01*
X34571428Y-93833333D01*
X34666666Y-93880952D01*
X34714285Y-93928571D01*
X34761904Y-94023809D01*
X34761904Y-94261904D01*
X34714285Y-94357142D01*
X34666666Y-94404761D01*
X34571428Y-94452380D01*
X34333333Y-94452380D01*
X34238095Y-94404761D01*
X34190476Y-94357142D01*
%TO.C,C24*%
X32907142Y-76357142D02*
X32859523Y-76404761D01*
X32716666Y-76452380D01*
X32621428Y-76452380D01*
X32478571Y-76404761D01*
X32383333Y-76309523D01*
X32335714Y-76214285D01*
X32288095Y-76023809D01*
X32288095Y-75880952D01*
X32335714Y-75690476D01*
X32383333Y-75595238D01*
X32478571Y-75500000D01*
X32621428Y-75452380D01*
X32716666Y-75452380D01*
X32859523Y-75500000D01*
X32907142Y-75547619D01*
X33288095Y-75547619D02*
X33335714Y-75500000D01*
X33430952Y-75452380D01*
X33669047Y-75452380D01*
X33764285Y-75500000D01*
X33811904Y-75547619D01*
X33859523Y-75642857D01*
X33859523Y-75738095D01*
X33811904Y-75880952D01*
X33240476Y-76452380D01*
X33859523Y-76452380D01*
X34716666Y-75785714D02*
X34716666Y-76452380D01*
X34478571Y-75404761D02*
X34240476Y-76119047D01*
X34859523Y-76119047D01*
%TO.C,C23*%
X42907142Y-76357142D02*
X42859523Y-76404761D01*
X42716666Y-76452380D01*
X42621428Y-76452380D01*
X42478571Y-76404761D01*
X42383333Y-76309523D01*
X42335714Y-76214285D01*
X42288095Y-76023809D01*
X42288095Y-75880952D01*
X42335714Y-75690476D01*
X42383333Y-75595238D01*
X42478571Y-75500000D01*
X42621428Y-75452380D01*
X42716666Y-75452380D01*
X42859523Y-75500000D01*
X42907142Y-75547619D01*
X43288095Y-75547619D02*
X43335714Y-75500000D01*
X43430952Y-75452380D01*
X43669047Y-75452380D01*
X43764285Y-75500000D01*
X43811904Y-75547619D01*
X43859523Y-75642857D01*
X43859523Y-75738095D01*
X43811904Y-75880952D01*
X43240476Y-76452380D01*
X43859523Y-76452380D01*
X44192857Y-75452380D02*
X44811904Y-75452380D01*
X44478571Y-75833333D01*
X44621428Y-75833333D01*
X44716666Y-75880952D01*
X44764285Y-75928571D01*
X44811904Y-76023809D01*
X44811904Y-76261904D01*
X44764285Y-76357142D01*
X44716666Y-76404761D01*
X44621428Y-76452380D01*
X44335714Y-76452380D01*
X44240476Y-76404761D01*
X44192857Y-76357142D01*
%TO.C,C22*%
X52857142Y-76357142D02*
X52809523Y-76404761D01*
X52666666Y-76452380D01*
X52571428Y-76452380D01*
X52428571Y-76404761D01*
X52333333Y-76309523D01*
X52285714Y-76214285D01*
X52238095Y-76023809D01*
X52238095Y-75880952D01*
X52285714Y-75690476D01*
X52333333Y-75595238D01*
X52428571Y-75500000D01*
X52571428Y-75452380D01*
X52666666Y-75452380D01*
X52809523Y-75500000D01*
X52857142Y-75547619D01*
X53238095Y-75547619D02*
X53285714Y-75500000D01*
X53380952Y-75452380D01*
X53619047Y-75452380D01*
X53714285Y-75500000D01*
X53761904Y-75547619D01*
X53809523Y-75642857D01*
X53809523Y-75738095D01*
X53761904Y-75880952D01*
X53190476Y-76452380D01*
X53809523Y-76452380D01*
X54190476Y-75547619D02*
X54238095Y-75500000D01*
X54333333Y-75452380D01*
X54571428Y-75452380D01*
X54666666Y-75500000D01*
X54714285Y-75547619D01*
X54761904Y-75642857D01*
X54761904Y-75738095D01*
X54714285Y-75880952D01*
X54142857Y-76452380D01*
X54761904Y-76452380D01*
%TO.C,C21*%
X62857142Y-76357142D02*
X62809523Y-76404761D01*
X62666666Y-76452380D01*
X62571428Y-76452380D01*
X62428571Y-76404761D01*
X62333333Y-76309523D01*
X62285714Y-76214285D01*
X62238095Y-76023809D01*
X62238095Y-75880952D01*
X62285714Y-75690476D01*
X62333333Y-75595238D01*
X62428571Y-75500000D01*
X62571428Y-75452380D01*
X62666666Y-75452380D01*
X62809523Y-75500000D01*
X62857142Y-75547619D01*
X63238095Y-75547619D02*
X63285714Y-75500000D01*
X63380952Y-75452380D01*
X63619047Y-75452380D01*
X63714285Y-75500000D01*
X63761904Y-75547619D01*
X63809523Y-75642857D01*
X63809523Y-75738095D01*
X63761904Y-75880952D01*
X63190476Y-76452380D01*
X63809523Y-76452380D01*
X64761904Y-76452380D02*
X64190476Y-76452380D01*
X64476190Y-76452380D02*
X64476190Y-75452380D01*
X64380952Y-75595238D01*
X64285714Y-75690476D01*
X64190476Y-75738095D01*
%TO.C,C20*%
X72857142Y-76357142D02*
X72809523Y-76404761D01*
X72666666Y-76452380D01*
X72571428Y-76452380D01*
X72428571Y-76404761D01*
X72333333Y-76309523D01*
X72285714Y-76214285D01*
X72238095Y-76023809D01*
X72238095Y-75880952D01*
X72285714Y-75690476D01*
X72333333Y-75595238D01*
X72428571Y-75500000D01*
X72571428Y-75452380D01*
X72666666Y-75452380D01*
X72809523Y-75500000D01*
X72857142Y-75547619D01*
X73238095Y-75547619D02*
X73285714Y-75500000D01*
X73380952Y-75452380D01*
X73619047Y-75452380D01*
X73714285Y-75500000D01*
X73761904Y-75547619D01*
X73809523Y-75642857D01*
X73809523Y-75738095D01*
X73761904Y-75880952D01*
X73190476Y-76452380D01*
X73809523Y-76452380D01*
X74428571Y-75452380D02*
X74523809Y-75452380D01*
X74619047Y-75500000D01*
X74666666Y-75547619D01*
X74714285Y-75642857D01*
X74761904Y-75833333D01*
X74761904Y-76071428D01*
X74714285Y-76261904D01*
X74666666Y-76357142D01*
X74619047Y-76404761D01*
X74523809Y-76452380D01*
X74428571Y-76452380D01*
X74333333Y-76404761D01*
X74285714Y-76357142D01*
X74238095Y-76261904D01*
X74190476Y-76071428D01*
X74190476Y-75833333D01*
X74238095Y-75642857D01*
X74285714Y-75547619D01*
X74333333Y-75500000D01*
X74428571Y-75452380D01*
%TO.C,C19*%
X82857142Y-76357142D02*
X82809523Y-76404761D01*
X82666666Y-76452380D01*
X82571428Y-76452380D01*
X82428571Y-76404761D01*
X82333333Y-76309523D01*
X82285714Y-76214285D01*
X82238095Y-76023809D01*
X82238095Y-75880952D01*
X82285714Y-75690476D01*
X82333333Y-75595238D01*
X82428571Y-75500000D01*
X82571428Y-75452380D01*
X82666666Y-75452380D01*
X82809523Y-75500000D01*
X82857142Y-75547619D01*
X83809523Y-76452380D02*
X83238095Y-76452380D01*
X83523809Y-76452380D02*
X83523809Y-75452380D01*
X83428571Y-75595238D01*
X83333333Y-75690476D01*
X83238095Y-75738095D01*
X84285714Y-76452380D02*
X84476190Y-76452380D01*
X84571428Y-76404761D01*
X84619047Y-76357142D01*
X84714285Y-76214285D01*
X84761904Y-76023809D01*
X84761904Y-75642857D01*
X84714285Y-75547619D01*
X84666666Y-75500000D01*
X84571428Y-75452380D01*
X84380952Y-75452380D01*
X84285714Y-75500000D01*
X84238095Y-75547619D01*
X84190476Y-75642857D01*
X84190476Y-75880952D01*
X84238095Y-75976190D01*
X84285714Y-76023809D01*
X84380952Y-76071428D01*
X84571428Y-76071428D01*
X84666666Y-76023809D01*
X84714285Y-75976190D01*
X84761904Y-75880952D01*
%TO.C,C18*%
X82857142Y-74357142D02*
X82809523Y-74404761D01*
X82666666Y-74452380D01*
X82571428Y-74452380D01*
X82428571Y-74404761D01*
X82333333Y-74309523D01*
X82285714Y-74214285D01*
X82238095Y-74023809D01*
X82238095Y-73880952D01*
X82285714Y-73690476D01*
X82333333Y-73595238D01*
X82428571Y-73500000D01*
X82571428Y-73452380D01*
X82666666Y-73452380D01*
X82809523Y-73500000D01*
X82857142Y-73547619D01*
X83809523Y-74452380D02*
X83238095Y-74452380D01*
X83523809Y-74452380D02*
X83523809Y-73452380D01*
X83428571Y-73595238D01*
X83333333Y-73690476D01*
X83238095Y-73738095D01*
X84380952Y-73880952D02*
X84285714Y-73833333D01*
X84238095Y-73785714D01*
X84190476Y-73690476D01*
X84190476Y-73642857D01*
X84238095Y-73547619D01*
X84285714Y-73500000D01*
X84380952Y-73452380D01*
X84571428Y-73452380D01*
X84666666Y-73500000D01*
X84714285Y-73547619D01*
X84761904Y-73642857D01*
X84761904Y-73690476D01*
X84714285Y-73785714D01*
X84666666Y-73833333D01*
X84571428Y-73880952D01*
X84380952Y-73880952D01*
X84285714Y-73928571D01*
X84238095Y-73976190D01*
X84190476Y-74071428D01*
X84190476Y-74261904D01*
X84238095Y-74357142D01*
X84285714Y-74404761D01*
X84380952Y-74452380D01*
X84571428Y-74452380D01*
X84666666Y-74404761D01*
X84714285Y-74357142D01*
X84761904Y-74261904D01*
X84761904Y-74071428D01*
X84714285Y-73976190D01*
X84666666Y-73928571D01*
X84571428Y-73880952D01*
%TO.C,C17*%
X72857142Y-74357142D02*
X72809523Y-74404761D01*
X72666666Y-74452380D01*
X72571428Y-74452380D01*
X72428571Y-74404761D01*
X72333333Y-74309523D01*
X72285714Y-74214285D01*
X72238095Y-74023809D01*
X72238095Y-73880952D01*
X72285714Y-73690476D01*
X72333333Y-73595238D01*
X72428571Y-73500000D01*
X72571428Y-73452380D01*
X72666666Y-73452380D01*
X72809523Y-73500000D01*
X72857142Y-73547619D01*
X73809523Y-74452380D02*
X73238095Y-74452380D01*
X73523809Y-74452380D02*
X73523809Y-73452380D01*
X73428571Y-73595238D01*
X73333333Y-73690476D01*
X73238095Y-73738095D01*
X74142857Y-73452380D02*
X74809523Y-73452380D01*
X74380952Y-74452380D01*
%TO.C,C16*%
X62857142Y-74357142D02*
X62809523Y-74404761D01*
X62666666Y-74452380D01*
X62571428Y-74452380D01*
X62428571Y-74404761D01*
X62333333Y-74309523D01*
X62285714Y-74214285D01*
X62238095Y-74023809D01*
X62238095Y-73880952D01*
X62285714Y-73690476D01*
X62333333Y-73595238D01*
X62428571Y-73500000D01*
X62571428Y-73452380D01*
X62666666Y-73452380D01*
X62809523Y-73500000D01*
X62857142Y-73547619D01*
X63809523Y-74452380D02*
X63238095Y-74452380D01*
X63523809Y-74452380D02*
X63523809Y-73452380D01*
X63428571Y-73595238D01*
X63333333Y-73690476D01*
X63238095Y-73738095D01*
X64666666Y-73452380D02*
X64476190Y-73452380D01*
X64380952Y-73500000D01*
X64333333Y-73547619D01*
X64238095Y-73690476D01*
X64190476Y-73880952D01*
X64190476Y-74261904D01*
X64238095Y-74357142D01*
X64285714Y-74404761D01*
X64380952Y-74452380D01*
X64571428Y-74452380D01*
X64666666Y-74404761D01*
X64714285Y-74357142D01*
X64761904Y-74261904D01*
X64761904Y-74023809D01*
X64714285Y-73928571D01*
X64666666Y-73880952D01*
X64571428Y-73833333D01*
X64380952Y-73833333D01*
X64285714Y-73880952D01*
X64238095Y-73928571D01*
X64190476Y-74023809D01*
%TO.C,C15*%
X52907142Y-74357142D02*
X52859523Y-74404761D01*
X52716666Y-74452380D01*
X52621428Y-74452380D01*
X52478571Y-74404761D01*
X52383333Y-74309523D01*
X52335714Y-74214285D01*
X52288095Y-74023809D01*
X52288095Y-73880952D01*
X52335714Y-73690476D01*
X52383333Y-73595238D01*
X52478571Y-73500000D01*
X52621428Y-73452380D01*
X52716666Y-73452380D01*
X52859523Y-73500000D01*
X52907142Y-73547619D01*
X53859523Y-74452380D02*
X53288095Y-74452380D01*
X53573809Y-74452380D02*
X53573809Y-73452380D01*
X53478571Y-73595238D01*
X53383333Y-73690476D01*
X53288095Y-73738095D01*
X54764285Y-73452380D02*
X54288095Y-73452380D01*
X54240476Y-73928571D01*
X54288095Y-73880952D01*
X54383333Y-73833333D01*
X54621428Y-73833333D01*
X54716666Y-73880952D01*
X54764285Y-73928571D01*
X54811904Y-74023809D01*
X54811904Y-74261904D01*
X54764285Y-74357142D01*
X54716666Y-74404761D01*
X54621428Y-74452380D01*
X54383333Y-74452380D01*
X54288095Y-74404761D01*
X54240476Y-74357142D01*
%TO.C,C14*%
X42857142Y-74357142D02*
X42809523Y-74404761D01*
X42666666Y-74452380D01*
X42571428Y-74452380D01*
X42428571Y-74404761D01*
X42333333Y-74309523D01*
X42285714Y-74214285D01*
X42238095Y-74023809D01*
X42238095Y-73880952D01*
X42285714Y-73690476D01*
X42333333Y-73595238D01*
X42428571Y-73500000D01*
X42571428Y-73452380D01*
X42666666Y-73452380D01*
X42809523Y-73500000D01*
X42857142Y-73547619D01*
X43809523Y-74452380D02*
X43238095Y-74452380D01*
X43523809Y-74452380D02*
X43523809Y-73452380D01*
X43428571Y-73595238D01*
X43333333Y-73690476D01*
X43238095Y-73738095D01*
X44666666Y-73785714D02*
X44666666Y-74452380D01*
X44428571Y-73404761D02*
X44190476Y-74119047D01*
X44809523Y-74119047D01*
%TO.C,C13*%
X32857142Y-74357142D02*
X32809523Y-74404761D01*
X32666666Y-74452380D01*
X32571428Y-74452380D01*
X32428571Y-74404761D01*
X32333333Y-74309523D01*
X32285714Y-74214285D01*
X32238095Y-74023809D01*
X32238095Y-73880952D01*
X32285714Y-73690476D01*
X32333333Y-73595238D01*
X32428571Y-73500000D01*
X32571428Y-73452380D01*
X32666666Y-73452380D01*
X32809523Y-73500000D01*
X32857142Y-73547619D01*
X33809523Y-74452380D02*
X33238095Y-74452380D01*
X33523809Y-74452380D02*
X33523809Y-73452380D01*
X33428571Y-73595238D01*
X33333333Y-73690476D01*
X33238095Y-73738095D01*
X34142857Y-73452380D02*
X34761904Y-73452380D01*
X34428571Y-73833333D01*
X34571428Y-73833333D01*
X34666666Y-73880952D01*
X34714285Y-73928571D01*
X34761904Y-74023809D01*
X34761904Y-74261904D01*
X34714285Y-74357142D01*
X34666666Y-74404761D01*
X34571428Y-74452380D01*
X34285714Y-74452380D01*
X34190476Y-74404761D01*
X34142857Y-74357142D01*
%TO.C,C12*%
X32857142Y-56357142D02*
X32809523Y-56404761D01*
X32666666Y-56452380D01*
X32571428Y-56452380D01*
X32428571Y-56404761D01*
X32333333Y-56309523D01*
X32285714Y-56214285D01*
X32238095Y-56023809D01*
X32238095Y-55880952D01*
X32285714Y-55690476D01*
X32333333Y-55595238D01*
X32428571Y-55500000D01*
X32571428Y-55452380D01*
X32666666Y-55452380D01*
X32809523Y-55500000D01*
X32857142Y-55547619D01*
X33809523Y-56452380D02*
X33238095Y-56452380D01*
X33523809Y-56452380D02*
X33523809Y-55452380D01*
X33428571Y-55595238D01*
X33333333Y-55690476D01*
X33238095Y-55738095D01*
X34190476Y-55547619D02*
X34238095Y-55500000D01*
X34333333Y-55452380D01*
X34571428Y-55452380D01*
X34666666Y-55500000D01*
X34714285Y-55547619D01*
X34761904Y-55642857D01*
X34761904Y-55738095D01*
X34714285Y-55880952D01*
X34142857Y-56452380D01*
X34761904Y-56452380D01*
%TO.C,C11*%
X42857142Y-56357142D02*
X42809523Y-56404761D01*
X42666666Y-56452380D01*
X42571428Y-56452380D01*
X42428571Y-56404761D01*
X42333333Y-56309523D01*
X42285714Y-56214285D01*
X42238095Y-56023809D01*
X42238095Y-55880952D01*
X42285714Y-55690476D01*
X42333333Y-55595238D01*
X42428571Y-55500000D01*
X42571428Y-55452380D01*
X42666666Y-55452380D01*
X42809523Y-55500000D01*
X42857142Y-55547619D01*
X43809523Y-56452380D02*
X43238095Y-56452380D01*
X43523809Y-56452380D02*
X43523809Y-55452380D01*
X43428571Y-55595238D01*
X43333333Y-55690476D01*
X43238095Y-55738095D01*
X44761904Y-56452380D02*
X44190476Y-56452380D01*
X44476190Y-56452380D02*
X44476190Y-55452380D01*
X44380952Y-55595238D01*
X44285714Y-55690476D01*
X44190476Y-55738095D01*
%TO.C,C10*%
X52857142Y-56357142D02*
X52809523Y-56404761D01*
X52666666Y-56452380D01*
X52571428Y-56452380D01*
X52428571Y-56404761D01*
X52333333Y-56309523D01*
X52285714Y-56214285D01*
X52238095Y-56023809D01*
X52238095Y-55880952D01*
X52285714Y-55690476D01*
X52333333Y-55595238D01*
X52428571Y-55500000D01*
X52571428Y-55452380D01*
X52666666Y-55452380D01*
X52809523Y-55500000D01*
X52857142Y-55547619D01*
X53809523Y-56452380D02*
X53238095Y-56452380D01*
X53523809Y-56452380D02*
X53523809Y-55452380D01*
X53428571Y-55595238D01*
X53333333Y-55690476D01*
X53238095Y-55738095D01*
X54428571Y-55452380D02*
X54523809Y-55452380D01*
X54619047Y-55500000D01*
X54666666Y-55547619D01*
X54714285Y-55642857D01*
X54761904Y-55833333D01*
X54761904Y-56071428D01*
X54714285Y-56261904D01*
X54666666Y-56357142D01*
X54619047Y-56404761D01*
X54523809Y-56452380D01*
X54428571Y-56452380D01*
X54333333Y-56404761D01*
X54285714Y-56357142D01*
X54238095Y-56261904D01*
X54190476Y-56071428D01*
X54190476Y-55833333D01*
X54238095Y-55642857D01*
X54285714Y-55547619D01*
X54333333Y-55500000D01*
X54428571Y-55452380D01*
%TO.C,C9*%
X62833333Y-56357142D02*
X62785714Y-56404761D01*
X62642857Y-56452380D01*
X62547619Y-56452380D01*
X62404761Y-56404761D01*
X62309523Y-56309523D01*
X62261904Y-56214285D01*
X62214285Y-56023809D01*
X62214285Y-55880952D01*
X62261904Y-55690476D01*
X62309523Y-55595238D01*
X62404761Y-55500000D01*
X62547619Y-55452380D01*
X62642857Y-55452380D01*
X62785714Y-55500000D01*
X62833333Y-55547619D01*
X63309523Y-56452380D02*
X63500000Y-56452380D01*
X63595238Y-56404761D01*
X63642857Y-56357142D01*
X63738095Y-56214285D01*
X63785714Y-56023809D01*
X63785714Y-55642857D01*
X63738095Y-55547619D01*
X63690476Y-55500000D01*
X63595238Y-55452380D01*
X63404761Y-55452380D01*
X63309523Y-55500000D01*
X63261904Y-55547619D01*
X63214285Y-55642857D01*
X63214285Y-55880952D01*
X63261904Y-55976190D01*
X63309523Y-56023809D01*
X63404761Y-56071428D01*
X63595238Y-56071428D01*
X63690476Y-56023809D01*
X63738095Y-55976190D01*
X63785714Y-55880952D01*
%TO.C,C8*%
X72833333Y-56357142D02*
X72785714Y-56404761D01*
X72642857Y-56452380D01*
X72547619Y-56452380D01*
X72404761Y-56404761D01*
X72309523Y-56309523D01*
X72261904Y-56214285D01*
X72214285Y-56023809D01*
X72214285Y-55880952D01*
X72261904Y-55690476D01*
X72309523Y-55595238D01*
X72404761Y-55500000D01*
X72547619Y-55452380D01*
X72642857Y-55452380D01*
X72785714Y-55500000D01*
X72833333Y-55547619D01*
X73404761Y-55880952D02*
X73309523Y-55833333D01*
X73261904Y-55785714D01*
X73214285Y-55690476D01*
X73214285Y-55642857D01*
X73261904Y-55547619D01*
X73309523Y-55500000D01*
X73404761Y-55452380D01*
X73595238Y-55452380D01*
X73690476Y-55500000D01*
X73738095Y-55547619D01*
X73785714Y-55642857D01*
X73785714Y-55690476D01*
X73738095Y-55785714D01*
X73690476Y-55833333D01*
X73595238Y-55880952D01*
X73404761Y-55880952D01*
X73309523Y-55928571D01*
X73261904Y-55976190D01*
X73214285Y-56071428D01*
X73214285Y-56261904D01*
X73261904Y-56357142D01*
X73309523Y-56404761D01*
X73404761Y-56452380D01*
X73595238Y-56452380D01*
X73690476Y-56404761D01*
X73738095Y-56357142D01*
X73785714Y-56261904D01*
X73785714Y-56071428D01*
X73738095Y-55976190D01*
X73690476Y-55928571D01*
X73595238Y-55880952D01*
%TO.C,C7*%
X82833333Y-56357142D02*
X82785714Y-56404761D01*
X82642857Y-56452380D01*
X82547619Y-56452380D01*
X82404761Y-56404761D01*
X82309523Y-56309523D01*
X82261904Y-56214285D01*
X82214285Y-56023809D01*
X82214285Y-55880952D01*
X82261904Y-55690476D01*
X82309523Y-55595238D01*
X82404761Y-55500000D01*
X82547619Y-55452380D01*
X82642857Y-55452380D01*
X82785714Y-55500000D01*
X82833333Y-55547619D01*
X83166666Y-55452380D02*
X83833333Y-55452380D01*
X83404761Y-56452380D01*
%TO.C,D1*%
X29261904Y-46952380D02*
X29261904Y-45952380D01*
X29500000Y-45952380D01*
X29642857Y-46000000D01*
X29738095Y-46095238D01*
X29785714Y-46190476D01*
X29833333Y-46380952D01*
X29833333Y-46523809D01*
X29785714Y-46714285D01*
X29738095Y-46809523D01*
X29642857Y-46904761D01*
X29500000Y-46952380D01*
X29261904Y-46952380D01*
X30785714Y-46952380D02*
X30214285Y-46952380D01*
X30500000Y-46952380D02*
X30500000Y-45952380D01*
X30404761Y-46095238D01*
X30309523Y-46190476D01*
X30214285Y-46238095D01*
%TO.C,D6*%
X79261904Y-46952380D02*
X79261904Y-45952380D01*
X79500000Y-45952380D01*
X79642857Y-46000000D01*
X79738095Y-46095238D01*
X79785714Y-46190476D01*
X79833333Y-46380952D01*
X79833333Y-46523809D01*
X79785714Y-46714285D01*
X79738095Y-46809523D01*
X79642857Y-46904761D01*
X79500000Y-46952380D01*
X79261904Y-46952380D01*
X80690476Y-45952380D02*
X80500000Y-45952380D01*
X80404761Y-46000000D01*
X80357142Y-46047619D01*
X80261904Y-46190476D01*
X80214285Y-46380952D01*
X80214285Y-46761904D01*
X80261904Y-46857142D01*
X80309523Y-46904761D01*
X80404761Y-46952380D01*
X80595238Y-46952380D01*
X80690476Y-46904761D01*
X80738095Y-46857142D01*
X80785714Y-46761904D01*
X80785714Y-46523809D01*
X80738095Y-46428571D01*
X80690476Y-46380952D01*
X80595238Y-46333333D01*
X80404761Y-46333333D01*
X80309523Y-46380952D01*
X80261904Y-46428571D01*
X80214285Y-46523809D01*
%TO.C,D5*%
X69261904Y-46952380D02*
X69261904Y-45952380D01*
X69500000Y-45952380D01*
X69642857Y-46000000D01*
X69738095Y-46095238D01*
X69785714Y-46190476D01*
X69833333Y-46380952D01*
X69833333Y-46523809D01*
X69785714Y-46714285D01*
X69738095Y-46809523D01*
X69642857Y-46904761D01*
X69500000Y-46952380D01*
X69261904Y-46952380D01*
X70738095Y-45952380D02*
X70261904Y-45952380D01*
X70214285Y-46428571D01*
X70261904Y-46380952D01*
X70357142Y-46333333D01*
X70595238Y-46333333D01*
X70690476Y-46380952D01*
X70738095Y-46428571D01*
X70785714Y-46523809D01*
X70785714Y-46761904D01*
X70738095Y-46857142D01*
X70690476Y-46904761D01*
X70595238Y-46952380D01*
X70357142Y-46952380D01*
X70261904Y-46904761D01*
X70214285Y-46857142D01*
%TO.C,D4*%
X59261904Y-46952380D02*
X59261904Y-45952380D01*
X59500000Y-45952380D01*
X59642857Y-46000000D01*
X59738095Y-46095238D01*
X59785714Y-46190476D01*
X59833333Y-46380952D01*
X59833333Y-46523809D01*
X59785714Y-46714285D01*
X59738095Y-46809523D01*
X59642857Y-46904761D01*
X59500000Y-46952380D01*
X59261904Y-46952380D01*
X60690476Y-46285714D02*
X60690476Y-46952380D01*
X60452380Y-45904761D02*
X60214285Y-46619047D01*
X60833333Y-46619047D01*
%TO.C,D3*%
X49261904Y-46952380D02*
X49261904Y-45952380D01*
X49500000Y-45952380D01*
X49642857Y-46000000D01*
X49738095Y-46095238D01*
X49785714Y-46190476D01*
X49833333Y-46380952D01*
X49833333Y-46523809D01*
X49785714Y-46714285D01*
X49738095Y-46809523D01*
X49642857Y-46904761D01*
X49500000Y-46952380D01*
X49261904Y-46952380D01*
X50166666Y-45952380D02*
X50785714Y-45952380D01*
X50452380Y-46333333D01*
X50595238Y-46333333D01*
X50690476Y-46380952D01*
X50738095Y-46428571D01*
X50785714Y-46523809D01*
X50785714Y-46761904D01*
X50738095Y-46857142D01*
X50690476Y-46904761D01*
X50595238Y-46952380D01*
X50309523Y-46952380D01*
X50214285Y-46904761D01*
X50166666Y-46857142D01*
%TO.C,D2*%
X39261904Y-46952380D02*
X39261904Y-45952380D01*
X39500000Y-45952380D01*
X39642857Y-46000000D01*
X39738095Y-46095238D01*
X39785714Y-46190476D01*
X39833333Y-46380952D01*
X39833333Y-46523809D01*
X39785714Y-46714285D01*
X39738095Y-46809523D01*
X39642857Y-46904761D01*
X39500000Y-46952380D01*
X39261904Y-46952380D01*
X40214285Y-46047619D02*
X40261904Y-46000000D01*
X40357142Y-45952380D01*
X40595238Y-45952380D01*
X40690476Y-46000000D01*
X40738095Y-46047619D01*
X40785714Y-46142857D01*
X40785714Y-46238095D01*
X40738095Y-46380952D01*
X40166666Y-46952380D01*
X40785714Y-46952380D01*
%TO.C,C6*%
X82833333Y-54357142D02*
X82785714Y-54404761D01*
X82642857Y-54452380D01*
X82547619Y-54452380D01*
X82404761Y-54404761D01*
X82309523Y-54309523D01*
X82261904Y-54214285D01*
X82214285Y-54023809D01*
X82214285Y-53880952D01*
X82261904Y-53690476D01*
X82309523Y-53595238D01*
X82404761Y-53500000D01*
X82547619Y-53452380D01*
X82642857Y-53452380D01*
X82785714Y-53500000D01*
X82833333Y-53547619D01*
X83690476Y-53452380D02*
X83500000Y-53452380D01*
X83404761Y-53500000D01*
X83357142Y-53547619D01*
X83261904Y-53690476D01*
X83214285Y-53880952D01*
X83214285Y-54261904D01*
X83261904Y-54357142D01*
X83309523Y-54404761D01*
X83404761Y-54452380D01*
X83595238Y-54452380D01*
X83690476Y-54404761D01*
X83738095Y-54357142D01*
X83785714Y-54261904D01*
X83785714Y-54023809D01*
X83738095Y-53928571D01*
X83690476Y-53880952D01*
X83595238Y-53833333D01*
X83404761Y-53833333D01*
X83309523Y-53880952D01*
X83261904Y-53928571D01*
X83214285Y-54023809D01*
%TO.C,C5*%
X72833333Y-54357142D02*
X72785714Y-54404761D01*
X72642857Y-54452380D01*
X72547619Y-54452380D01*
X72404761Y-54404761D01*
X72309523Y-54309523D01*
X72261904Y-54214285D01*
X72214285Y-54023809D01*
X72214285Y-53880952D01*
X72261904Y-53690476D01*
X72309523Y-53595238D01*
X72404761Y-53500000D01*
X72547619Y-53452380D01*
X72642857Y-53452380D01*
X72785714Y-53500000D01*
X72833333Y-53547619D01*
X73738095Y-53452380D02*
X73261904Y-53452380D01*
X73214285Y-53928571D01*
X73261904Y-53880952D01*
X73357142Y-53833333D01*
X73595238Y-53833333D01*
X73690476Y-53880952D01*
X73738095Y-53928571D01*
X73785714Y-54023809D01*
X73785714Y-54261904D01*
X73738095Y-54357142D01*
X73690476Y-54404761D01*
X73595238Y-54452380D01*
X73357142Y-54452380D01*
X73261904Y-54404761D01*
X73214285Y-54357142D01*
%TO.C,C4*%
X62833333Y-54357142D02*
X62785714Y-54404761D01*
X62642857Y-54452380D01*
X62547619Y-54452380D01*
X62404761Y-54404761D01*
X62309523Y-54309523D01*
X62261904Y-54214285D01*
X62214285Y-54023809D01*
X62214285Y-53880952D01*
X62261904Y-53690476D01*
X62309523Y-53595238D01*
X62404761Y-53500000D01*
X62547619Y-53452380D01*
X62642857Y-53452380D01*
X62785714Y-53500000D01*
X62833333Y-53547619D01*
X63690476Y-53785714D02*
X63690476Y-54452380D01*
X63452380Y-53404761D02*
X63214285Y-54119047D01*
X63833333Y-54119047D01*
%TO.C,C3*%
X52833333Y-54357142D02*
X52785714Y-54404761D01*
X52642857Y-54452380D01*
X52547619Y-54452380D01*
X52404761Y-54404761D01*
X52309523Y-54309523D01*
X52261904Y-54214285D01*
X52214285Y-54023809D01*
X52214285Y-53880952D01*
X52261904Y-53690476D01*
X52309523Y-53595238D01*
X52404761Y-53500000D01*
X52547619Y-53452380D01*
X52642857Y-53452380D01*
X52785714Y-53500000D01*
X52833333Y-53547619D01*
X53166666Y-53452380D02*
X53785714Y-53452380D01*
X53452380Y-53833333D01*
X53595238Y-53833333D01*
X53690476Y-53880952D01*
X53738095Y-53928571D01*
X53785714Y-54023809D01*
X53785714Y-54261904D01*
X53738095Y-54357142D01*
X53690476Y-54404761D01*
X53595238Y-54452380D01*
X53309523Y-54452380D01*
X53214285Y-54404761D01*
X53166666Y-54357142D01*
%TO.C,C2*%
X42833333Y-54357142D02*
X42785714Y-54404761D01*
X42642857Y-54452380D01*
X42547619Y-54452380D01*
X42404761Y-54404761D01*
X42309523Y-54309523D01*
X42261904Y-54214285D01*
X42214285Y-54023809D01*
X42214285Y-53880952D01*
X42261904Y-53690476D01*
X42309523Y-53595238D01*
X42404761Y-53500000D01*
X42547619Y-53452380D01*
X42642857Y-53452380D01*
X42785714Y-53500000D01*
X42833333Y-53547619D01*
X43214285Y-53547619D02*
X43261904Y-53500000D01*
X43357142Y-53452380D01*
X43595238Y-53452380D01*
X43690476Y-53500000D01*
X43738095Y-53547619D01*
X43785714Y-53642857D01*
X43785714Y-53738095D01*
X43738095Y-53880952D01*
X43166666Y-54452380D01*
X43785714Y-54452380D01*
%TO.C,C1*%
X32833333Y-54357142D02*
X32785714Y-54404761D01*
X32642857Y-54452380D01*
X32547619Y-54452380D01*
X32404761Y-54404761D01*
X32309523Y-54309523D01*
X32261904Y-54214285D01*
X32214285Y-54023809D01*
X32214285Y-53880952D01*
X32261904Y-53690476D01*
X32309523Y-53595238D01*
X32404761Y-53500000D01*
X32547619Y-53452380D01*
X32642857Y-53452380D01*
X32785714Y-53500000D01*
X32833333Y-53547619D01*
X33785714Y-54452380D02*
X33214285Y-54452380D01*
X33500000Y-54452380D02*
X33500000Y-53452380D01*
X33404761Y-53595238D01*
X33309523Y-53690476D01*
X33214285Y-53738095D01*
%TD*%
M02*
