%TF.GenerationSoftware,KiCad,Pcbnew,10.0.3*%
%TF.CreationDate,2026-06-27T21:15:45+01:00*%
%TF.ProjectId,ControlBoard,436f6e74-726f-46c4-926f-6172642e6b69,rev?*%
%TF.SameCoordinates,Original*%
%TF.FileFunction,Paste,Top*%
%TF.FilePolarity,Positive*%
%FSLAX46Y46*%
G04 Gerber Fmt 4.6, Leading zero omitted, Abs format (unit mm)*
G04 Created by KiCad (PCBNEW 10.0.3) date 2026-06-27 21:15:45*
%MOMM*%
%LPD*%
G01*
G04 APERTURE LIST*
G04 Aperture macros list*
%AMRoundRect*
0 Rectangle with rounded corners*
0 $1 Rounding radius*
0 $2 $3 $4 $5 $6 $7 $8 $9 X,Y pos of 4 corners*
0 Add a 4 corners polygon primitive as box body*
4,1,4,$2,$3,$4,$5,$6,$7,$8,$9,$2,$3,0*
0 Add four circle primitives for the rounded corners*
1,1,$1+$1,$2,$3*
1,1,$1+$1,$4,$5*
1,1,$1+$1,$6,$7*
1,1,$1+$1,$8,$9*
0 Add four rect primitives between the rounded corners*
20,1,$1+$1,$2,$3,$4,$5,0*
20,1,$1+$1,$4,$5,$6,$7,0*
20,1,$1+$1,$6,$7,$8,$9,0*
20,1,$1+$1,$8,$9,$2,$3,0*%
G04 Aperture macros list end*
%ADD10RoundRect,0.200000X-0.200000X-0.275000X0.200000X-0.275000X0.200000X0.275000X-0.200000X0.275000X0*%
%ADD11RoundRect,0.218750X-0.218750X-0.256250X0.218750X-0.256250X0.218750X0.256250X-0.218750X0.256250X0*%
%ADD12RoundRect,0.225000X-0.225000X-0.250000X0.225000X-0.250000X0.225000X0.250000X-0.225000X0.250000X0*%
%ADD13RoundRect,0.225000X0.250000X-0.225000X0.250000X0.225000X-0.250000X0.225000X-0.250000X-0.225000X0*%
%ADD14RoundRect,0.250000X0.375000X0.850000X-0.375000X0.850000X-0.375000X-0.850000X0.375000X-0.850000X0*%
%ADD15RoundRect,0.250000X0.650000X-0.325000X0.650000X0.325000X-0.650000X0.325000X-0.650000X-0.325000X0*%
%ADD16RoundRect,0.200000X0.200000X0.275000X-0.200000X0.275000X-0.200000X-0.275000X0.200000X-0.275000X0*%
%ADD17RoundRect,0.250000X0.550000X-1.412500X0.550000X1.412500X-0.550000X1.412500X-0.550000X-1.412500X0*%
%ADD18RoundRect,0.150000X0.512500X0.150000X-0.512500X0.150000X-0.512500X-0.150000X0.512500X-0.150000X0*%
%ADD19RoundRect,0.225000X0.225000X0.250000X-0.225000X0.250000X-0.225000X-0.250000X0.225000X-0.250000X0*%
%ADD20RoundRect,0.225000X-0.250000X0.225000X-0.250000X-0.225000X0.250000X-0.225000X0.250000X0.225000X0*%
%ADD21RoundRect,0.112500X-0.350000X-0.112500X0.350000X-0.112500X0.350000X0.112500X-0.350000X0.112500X0*%
%ADD22R,0.800000X0.900000*%
%ADD23RoundRect,0.150000X0.150000X-0.512500X0.150000X0.512500X-0.150000X0.512500X-0.150000X-0.512500X0*%
%ADD24RoundRect,0.200000X0.275000X-0.200000X0.275000X0.200000X-0.275000X0.200000X-0.275000X-0.200000X0*%
%ADD25RoundRect,0.050000X-0.285000X-0.100000X0.285000X-0.100000X0.285000X0.100000X-0.285000X0.100000X0*%
%ADD26RoundRect,0.218750X0.218750X0.256250X-0.218750X0.256250X-0.218750X-0.256250X0.218750X-0.256250X0*%
%ADD27RoundRect,0.250000X-0.250000X-2.500000X0.250000X-2.500000X0.250000X2.500000X-0.250000X2.500000X0*%
%ADD28RoundRect,0.250000X-0.550000X-1.250000X0.550000X-1.250000X0.550000X1.250000X-0.550000X1.250000X0*%
%ADD29RoundRect,0.150000X-0.150000X0.650000X-0.150000X-0.650000X0.150000X-0.650000X0.150000X0.650000X0*%
%ADD30R,0.700000X1.000000*%
%ADD31R,0.600000X1.000000*%
%ADD32R,0.650000X0.350000*%
%ADD33RoundRect,0.200000X-0.275000X0.200000X-0.275000X-0.200000X0.275000X-0.200000X0.275000X0.200000X0*%
%ADD34R,1.500000X0.600000*%
%ADD35R,2.340000X1.500000*%
%ADD36R,1.150000X0.600000*%
%ADD37R,1.150000X0.300000*%
%ADD38R,0.700000X0.700000*%
%ADD39RoundRect,0.075000X0.725000X0.075000X-0.725000X0.075000X-0.725000X-0.075000X0.725000X-0.075000X0*%
%ADD40RoundRect,0.075000X0.075000X0.725000X-0.075000X0.725000X-0.075000X-0.725000X0.075000X-0.725000X0*%
%ADD41RoundRect,0.150000X-0.587500X-0.150000X0.587500X-0.150000X0.587500X0.150000X-0.587500X0.150000X0*%
%ADD42RoundRect,0.218750X-0.256250X0.218750X-0.256250X-0.218750X0.256250X-0.218750X0.256250X0.218750X0*%
G04 APERTURE END LIST*
D10*
%TO.C,R20*%
X106675000Y-46750000D03*
X108325000Y-46750000D03*
%TD*%
D11*
%TO.C,D9*%
X108462500Y-67500000D03*
X110037500Y-67500000D03*
%TD*%
D12*
%TO.C,C20*%
X63975000Y-41500000D03*
X65525000Y-41500000D03*
%TD*%
D13*
%TO.C,C35*%
X86000000Y-53275000D03*
X86000000Y-51725000D03*
%TD*%
D14*
%TO.C,L2*%
X106832500Y-51750000D03*
X104682500Y-51750000D03*
%TD*%
D13*
%TO.C,C39*%
X82250000Y-45275000D03*
X82250000Y-43725000D03*
%TD*%
D15*
%TO.C,C14*%
X104750000Y-61975000D03*
X104750000Y-59025000D03*
%TD*%
D12*
%TO.C,C24*%
X79725000Y-53000000D03*
X81275000Y-53000000D03*
%TD*%
D13*
%TO.C,C42*%
X49500000Y-47025000D03*
X49500000Y-45475000D03*
%TD*%
D12*
%TO.C,C25*%
X77225000Y-59000000D03*
X78775000Y-59000000D03*
%TD*%
D16*
%TO.C,R18*%
X106825000Y-43250000D03*
X105175000Y-43250000D03*
%TD*%
D13*
%TO.C,C7*%
X43500000Y-48650000D03*
X43500000Y-47100000D03*
%TD*%
D17*
%TO.C,C12*%
X99100000Y-75637500D03*
X99100000Y-70562500D03*
%TD*%
D12*
%TO.C,C10*%
X94725000Y-26250000D03*
X96275000Y-26250000D03*
%TD*%
D11*
%TO.C,D8*%
X108212500Y-57250000D03*
X109787500Y-57250000D03*
%TD*%
D13*
%TO.C,C28*%
X62500000Y-43025000D03*
X62500000Y-41475000D03*
%TD*%
D18*
%TO.C,U8*%
X47637500Y-47200000D03*
X47637500Y-46250000D03*
X47637500Y-45300000D03*
X45362500Y-45300000D03*
X45362500Y-46250000D03*
X45362500Y-47200000D03*
%TD*%
D19*
%TO.C,C34*%
X60525000Y-57500000D03*
X58975000Y-57500000D03*
%TD*%
%TO.C,C23*%
X60525000Y-56000000D03*
X58975000Y-56000000D03*
%TD*%
D11*
%TO.C,D10*%
X108212500Y-55750000D03*
X109787500Y-55750000D03*
%TD*%
%TO.C,D12*%
X108212500Y-43250000D03*
X109787500Y-43250000D03*
%TD*%
D20*
%TO.C,C26*%
X79750000Y-54500000D03*
X79750000Y-56050000D03*
%TD*%
D12*
%TO.C,C3*%
X60225000Y-61000000D03*
X61775000Y-61000000D03*
%TD*%
D16*
%TO.C,R16*%
X107075000Y-67500000D03*
X105425000Y-67500000D03*
%TD*%
D10*
%TO.C,R17*%
X106675000Y-59250000D03*
X108325000Y-59250000D03*
%TD*%
D21*
%TO.C,U3*%
X30612500Y-63100000D03*
X30612500Y-64400000D03*
X32387500Y-63750000D03*
%TD*%
D15*
%TO.C,C13*%
X110250000Y-61975000D03*
X110250000Y-59025000D03*
%TD*%
D16*
%TO.C,R14*%
X106825000Y-55750000D03*
X105175000Y-55750000D03*
%TD*%
D22*
%TO.C,Y1*%
X84375000Y-53325000D03*
X84375000Y-51675000D03*
X83125000Y-51675000D03*
X83125000Y-53325000D03*
%TD*%
D10*
%TO.C,R21*%
X30425000Y-68000000D03*
X32075000Y-68000000D03*
%TD*%
D23*
%TO.C,U4*%
X77550000Y-26387500D03*
X78500000Y-26387500D03*
X79450000Y-26387500D03*
X79450000Y-24112500D03*
X77550000Y-24112500D03*
%TD*%
D16*
%TO.C,R10*%
X32075000Y-61750000D03*
X30425000Y-61750000D03*
%TD*%
D13*
%TO.C,C38*%
X83750000Y-45275000D03*
X83750000Y-43725000D03*
%TD*%
D19*
%TO.C,C40*%
X83025000Y-48250000D03*
X81475000Y-48250000D03*
%TD*%
D15*
%TO.C,C17*%
X104750000Y-49475000D03*
X104750000Y-46525000D03*
%TD*%
D16*
%TO.C,R2*%
X73325000Y-70500000D03*
X71675000Y-70500000D03*
%TD*%
D24*
%TO.C,R22*%
X112250000Y-60575000D03*
X112250000Y-58925000D03*
%TD*%
D12*
%TO.C,C22*%
X77225000Y-43000000D03*
X78775000Y-43000000D03*
%TD*%
D13*
%TO.C,C8*%
X42000000Y-48650000D03*
X42000000Y-47100000D03*
%TD*%
D20*
%TO.C,C32*%
X75000000Y-62000000D03*
X75000000Y-63550000D03*
%TD*%
D24*
%TO.C,R4*%
X52750000Y-35825000D03*
X52750000Y-34175000D03*
%TD*%
D20*
%TO.C,C11*%
X76000000Y-24475000D03*
X76000000Y-26025000D03*
%TD*%
D25*
%TO.C,U6*%
X106760000Y-48250000D03*
X106760000Y-48750000D03*
X106760000Y-49250000D03*
X106760000Y-49750000D03*
X108240000Y-49750000D03*
X108240000Y-49250000D03*
X108240000Y-48750000D03*
X108240000Y-48250000D03*
%TD*%
D13*
%TO.C,C19*%
X43500000Y-45275000D03*
X43500000Y-43725000D03*
%TD*%
D24*
%TO.C,R23*%
X112250000Y-48075000D03*
X112250000Y-46425000D03*
%TD*%
D13*
%TO.C,C27*%
X61000000Y-43025000D03*
X61000000Y-41475000D03*
%TD*%
D26*
%TO.C,FB1*%
X86037501Y-46750000D03*
X84462499Y-46750000D03*
%TD*%
D27*
%TO.C,J8*%
X102250000Y-26750000D03*
X104250000Y-26750000D03*
X106250000Y-26750000D03*
D28*
X99850000Y-24500000D03*
X108650000Y-24500000D03*
%TD*%
D25*
%TO.C,U5*%
X106760000Y-60750000D03*
X106760000Y-61250000D03*
X106760000Y-61750000D03*
X106760000Y-62250000D03*
X108240000Y-62250000D03*
X108240000Y-61750000D03*
X108240000Y-61250000D03*
X108240000Y-60750000D03*
%TD*%
D16*
%TO.C,R12*%
X32075000Y-65750000D03*
X30425000Y-65750000D03*
%TD*%
%TO.C,R25*%
X83075000Y-46750000D03*
X81425000Y-46750000D03*
%TD*%
%TO.C,R15*%
X106825000Y-57250000D03*
X105175000Y-57250000D03*
%TD*%
D29*
%TO.C,U7*%
X71950000Y-62600000D03*
X71000000Y-62600000D03*
X70050000Y-62600000D03*
X70050000Y-64900000D03*
X71000000Y-64900000D03*
X71950000Y-64900000D03*
%TD*%
D12*
%TO.C,C21*%
X77225000Y-60500000D03*
X78775000Y-60500000D03*
%TD*%
D26*
%TO.C,D4*%
X37537500Y-58000000D03*
X35962500Y-58000000D03*
%TD*%
D15*
%TO.C,C18*%
X102250000Y-49475000D03*
X102250000Y-46525000D03*
%TD*%
D30*
%TO.C,SW1*%
X75850000Y-72000000D03*
X75850000Y-78000000D03*
X72150000Y-72000000D03*
X72150000Y-78000000D03*
%TD*%
D31*
%TO.C,U2*%
X57137500Y-61600000D03*
X57137500Y-60400000D03*
X56362500Y-61600000D03*
X56362500Y-60400000D03*
D32*
X58300000Y-61975000D03*
X58300000Y-61325000D03*
X58300000Y-60675000D03*
X58300000Y-60025000D03*
X55200000Y-60025000D03*
X55200000Y-60675000D03*
X55200000Y-61325000D03*
X55200000Y-61975000D03*
%TD*%
D33*
%TO.C,R9*%
X42000000Y-54250000D03*
X42000000Y-55900000D03*
%TD*%
D14*
%TO.C,L1*%
X106825000Y-64250000D03*
X104675000Y-64250000D03*
%TD*%
D27*
%TO.C,J9*%
X85250000Y-26750000D03*
X87250000Y-26750000D03*
X89250000Y-26750000D03*
D28*
X82850000Y-24500000D03*
X91650000Y-24500000D03*
%TD*%
D24*
%TO.C,R3*%
X54250000Y-35825000D03*
X54250000Y-34175000D03*
%TD*%
D20*
%TO.C,C31*%
X76500000Y-62000000D03*
X76500000Y-63550000D03*
%TD*%
D13*
%TO.C,C37*%
X85250000Y-45275000D03*
X85250000Y-43725000D03*
%TD*%
D34*
%TO.C,J7*%
X40180000Y-54250000D03*
D35*
X32380000Y-41830000D03*
X32380000Y-56170000D03*
D34*
X40180000Y-51900000D03*
X40180000Y-50800000D03*
X40180000Y-49700000D03*
X40180000Y-48600000D03*
X40180000Y-47500000D03*
X40180000Y-46400000D03*
X40180000Y-45300000D03*
X40180000Y-44200000D03*
X40180000Y-53000000D03*
%TD*%
D26*
%TO.C,D3*%
X45537500Y-62000000D03*
X43962500Y-62000000D03*
%TD*%
D10*
%TO.C,R7*%
X46175000Y-43750000D03*
X47825000Y-43750000D03*
%TD*%
D13*
%TO.C,C9*%
X85000000Y-49775000D03*
X85000000Y-48225000D03*
%TD*%
D36*
%TO.C,J2*%
X28655000Y-60550000D03*
X28655000Y-61350000D03*
D37*
X28655000Y-62500000D03*
X28655000Y-63500000D03*
X28655000Y-64000000D03*
X28655000Y-65000000D03*
D36*
X28655000Y-66950000D03*
X28655000Y-66150000D03*
D37*
X28655000Y-65500000D03*
X28655000Y-64500000D03*
X28655000Y-63000000D03*
X28655000Y-62000000D03*
%TD*%
D15*
%TO.C,C15*%
X102250000Y-61975000D03*
X102250000Y-59025000D03*
%TD*%
D12*
%TO.C,C6*%
X74725000Y-70500000D03*
X76275000Y-70500000D03*
%TD*%
D10*
%TO.C,R11*%
X38925000Y-58000000D03*
X40575000Y-58000000D03*
%TD*%
D15*
%TO.C,C16*%
X110250000Y-49475000D03*
X110250000Y-46525000D03*
%TD*%
D16*
%TO.C,R19*%
X106825000Y-44750000D03*
X105175000Y-44750000D03*
%TD*%
D38*
%TO.C,D7*%
X96415000Y-24550000D03*
X96415000Y-23450000D03*
X94585000Y-23450000D03*
X94585000Y-24550000D03*
%TD*%
D39*
%TO.C,U1*%
X77675000Y-57000000D03*
X77675000Y-56500000D03*
X77675000Y-56000000D03*
X77675000Y-55500000D03*
X77675000Y-55000000D03*
X77675000Y-54500000D03*
X77675000Y-54000000D03*
X77675000Y-53500000D03*
X77675000Y-53000000D03*
X77675000Y-52500000D03*
X77675000Y-52000000D03*
X77675000Y-51500000D03*
X77675000Y-51000000D03*
X77675000Y-50500000D03*
X77675000Y-50000000D03*
X77675000Y-49500000D03*
X77675000Y-49000000D03*
X77675000Y-48500000D03*
X77675000Y-48000000D03*
X77675000Y-47500000D03*
X77675000Y-47000000D03*
X77675000Y-46500000D03*
X77675000Y-46000000D03*
X77675000Y-45500000D03*
X77675000Y-45000000D03*
D40*
X76000000Y-43325000D03*
X75500000Y-43325000D03*
X75000000Y-43325000D03*
X74500000Y-43325000D03*
X74000000Y-43325000D03*
X73500000Y-43325000D03*
X73000000Y-43325000D03*
X72500000Y-43325000D03*
X72000000Y-43325000D03*
X71500000Y-43325000D03*
X71000000Y-43325000D03*
X70500000Y-43325000D03*
X70000000Y-43325000D03*
X69500000Y-43325000D03*
X69000000Y-43325000D03*
X68500000Y-43325000D03*
X68000000Y-43325000D03*
X67500000Y-43325000D03*
X67000000Y-43325000D03*
X66500000Y-43325000D03*
X66000000Y-43325000D03*
X65500000Y-43325000D03*
X65000000Y-43325000D03*
X64500000Y-43325000D03*
X64000000Y-43325000D03*
D39*
X62325000Y-45000000D03*
X62325000Y-45500000D03*
X62325000Y-46000000D03*
X62325000Y-46500000D03*
X62325000Y-47000000D03*
X62325000Y-47500000D03*
X62325000Y-48000000D03*
X62325000Y-48500000D03*
X62325000Y-49000000D03*
X62325000Y-49500000D03*
X62325000Y-50000000D03*
X62325000Y-50500000D03*
X62325000Y-51000000D03*
X62325000Y-51500000D03*
X62325000Y-52000000D03*
X62325000Y-52500000D03*
X62325000Y-53000000D03*
X62325000Y-53500000D03*
X62325000Y-54000000D03*
X62325000Y-54500000D03*
X62325000Y-55000000D03*
X62325000Y-55500000D03*
X62325000Y-56000000D03*
X62325000Y-56500000D03*
X62325000Y-57000000D03*
D40*
X64000000Y-58675000D03*
X64500000Y-58675000D03*
X65000000Y-58675000D03*
X65500000Y-58675000D03*
X66000000Y-58675000D03*
X66500000Y-58675000D03*
X67000000Y-58675000D03*
X67500000Y-58675000D03*
X68000000Y-58675000D03*
X68500000Y-58675000D03*
X69000000Y-58675000D03*
X69500000Y-58675000D03*
X70000000Y-58675000D03*
X70500000Y-58675000D03*
X71000000Y-58675000D03*
X71500000Y-58675000D03*
X72000000Y-58675000D03*
X72500000Y-58675000D03*
X73000000Y-58675000D03*
X73500000Y-58675000D03*
X74000000Y-58675000D03*
X74500000Y-58675000D03*
X75000000Y-58675000D03*
X75500000Y-58675000D03*
X76000000Y-58675000D03*
%TD*%
D41*
%TO.C,D1*%
X51572500Y-60050000D03*
X51572500Y-61950000D03*
X53447500Y-61000000D03*
%TD*%
D11*
%TO.C,D11*%
X108212500Y-44750000D03*
X109787500Y-44750000D03*
%TD*%
D19*
%TO.C,C5*%
X55275000Y-58500000D03*
X53725000Y-58500000D03*
%TD*%
D24*
%TO.C,R24*%
X86500000Y-49825000D03*
X86500000Y-48175000D03*
%TD*%
D10*
%TO.C,R6*%
X46925000Y-62000000D03*
X48575000Y-62000000D03*
%TD*%
D24*
%TO.C,R5*%
X78000000Y-70056250D03*
X78000000Y-68406250D03*
%TD*%
D42*
%TO.C,D2*%
X78000000Y-71443750D03*
X78000000Y-73018750D03*
%TD*%
M02*
