M48
; DRILL file KiCad 10.0.3 date 2026-06-27T21:15:57
; FORMAT={-:-/ absolute / metric / decimal}
; #@! TF.CreationDate,2026-06-27T21:15:57+01:00
; #@! TF.GenerationSoftware,Kicad,Pcbnew,10.0.3
; #@! TF.FileFunction,Plated,1,4,PTH
FMAT,2
METRIC
; #@! TA.AperFunction,Plated,PTH,ViaDrill
T1C0.300
; #@! TA.AperFunction,Plated,PTH,ViaDrill
T2C0.400
; #@! TA.AperFunction,Plated,PTH,ComponentDrill
T3C0.600
; #@! TA.AperFunction,Plated,PTH,ComponentDrill
T4C1.000
; #@! TA.AperFunction,Plated,PTH,ComponentDrill
T5C1.900
%
G90
G05
T1
X24.891Y-64.295
X24.931Y-69.735
X25.0Y-54.75
X28.482Y-28.595
X29.75Y-60.5
X29.75Y-67.0
X29.931Y-44.135
X29.931Y-74.375
X30.011Y-49.415
X30.75Y-41.75
X30.75Y-56.25
X31.022Y-23.515
X31.5Y-63.75
X33.0Y-61.75
X33.0Y-65.75
X33.0Y-68.0
X34.25Y-73.5
X34.25Y-74.75
X34.25Y-76.0
X34.971Y-23.975
X34.971Y-59.255
X35.091Y-64.655
X35.73Y-33.25
X36.102Y-26.055
X38.0Y-73.5
X38.27Y-32.5
X38.75Y-44.5
X38.75Y-45.5
X38.75Y-46.5
X38.75Y-47.5
X38.75Y-50.0
X38.75Y-51.0
X38.75Y-52.0
X38.75Y-54.0
X40.011Y-69.335
X40.81Y-31.75
X41.182Y-23.515
X42.0Y-46.0
X43.35Y-31.0
X43.5Y-42.75
X43.722Y-28.595
X45.051Y-29.015
X45.25Y-43.75
X45.251Y-49.415
X45.251Y-74.815
X45.89Y-30.25
X47.5Y-42.5
X48.42Y-69.5
X48.802Y-23.515
X49.5Y-44.5
X49.5Y-62.0
X50.091Y-49.175
X50.091Y-74.375
X50.331Y-34.175
X51.342Y-28.595
X52.25Y-61.0
X52.75Y-32.5
X52.75Y-58.5
X54.0Y-62.75
X54.25Y-33.25
X55.131Y-23.975
X55.131Y-39.095
X55.411Y-44.335
X56.422Y-23.515
X56.75Y-59.25
X56.75Y-62.75
X57.75Y-56.0
X57.75Y-57.5
X58.75Y-62.75
X58.962Y-28.595
X58.962Y-71.775
X59.25Y-61.0
X60.171Y-59.255
X60.75Y-63.25
X61.502Y-76.855
X61.75Y-62.75
X62.5Y-40.5
X62.75Y-61.0
X63.5Y-56.5
X63.5Y-57.5
X63.512Y-55.5
X63.75Y-45.75
X64.0Y-53.75
X64.0Y-54.75
X64.042Y-23.515
X64.25Y-51.5
X64.5Y-60.25
X64.75Y-40.75
X64.9Y-36.0
X65.211Y-49.175
X65.211Y-69.335
X65.25Y-29.5
X65.25Y-51.5
X65.75Y-44.75
X65.75Y-56.0
X66.25Y-57.25
X66.582Y-28.595
X66.582Y-74.315
X66.75Y-44.75
X66.75Y-71.75
X67.5Y-40.75
X67.75Y-45.0
X68.25Y-45.75
X68.25Y-64.5
X68.5Y-57.25
X68.75Y-33.25
X68.75Y-46.5
X68.75Y-61.5
X69.25Y-42.0
X69.25Y-47.25
X69.75Y-60.0
X70.0Y-66.25
X70.25Y-42.0
X70.25Y-68.5
X70.251Y-23.975
X70.651Y-49.415
X70.75Y-70.5
X71.0Y-61.25
X71.29Y-32.5
X71.662Y-23.515
X71.662Y-76.855
X71.95Y-66.25
X73.83Y-31.75
X74.202Y-28.595
X75.0Y-64.5
X75.25Y-44.75
X75.291Y-74.375
X75.495Y-48.764
X75.5Y-49.75
X75.5Y-57.4
X75.741Y-48.003
X75.75Y-51.5
X75.753Y-50.509
X76.0Y-27.0
X76.0Y-60.5
X76.37Y-31.0
X76.5Y-47.75
X76.5Y-52.5
X76.75Y-72.0
X77.5Y-27.5
X78.5Y-27.5
X78.75Y-42.0
X78.75Y-58.0
X78.91Y-30.25
X79.5Y-27.5
X79.75Y-57.0
X80.331Y-29.015
X80.331Y-59.255
X80.811Y-34.175
X80.811Y-64.655
X81.25Y-54.0
X81.822Y-28.595
X81.822Y-74.315
X84.0Y-48.25
X85.371Y-39.095
X85.891Y-54.495
X86.5Y-43.75
X86.902Y-69.235
X86.902Y-76.855
X87.0Y-51.75
X89.25Y-23.25
X90.411Y-54.215
X90.411Y-74.375
X90.971Y-39.255
X91.25Y-49.75
X91.982Y-28.595
X91.982Y-74.315
X95.451Y-44.135
X95.451Y-64.295
X96.051Y-49.415
X96.051Y-69.735
X97.062Y-76.855
X97.5Y-70.5
X99.602Y-28.595
X99.602Y-41.295
X99.602Y-48.915
X100.75Y-70.5
X101.73Y-33.25
X102.142Y-74.315
X102.25Y-47.5
X102.25Y-60.0
X104.25Y-43.25
X104.25Y-55.75
X104.27Y-32.5
X104.5Y-67.5
X104.75Y-47.5
X104.75Y-60.0
X105.531Y-54.215
X105.531Y-69.335
X106.25Y-23.25
X106.81Y-31.75
X107.222Y-41.295
X107.222Y-69.235
X107.222Y-76.855
X108.25Y-50.25
X108.25Y-62.75
X108.5Y-45.75
X108.5Y-58.25
X109.35Y-31.0
X109.762Y-28.595
X109.762Y-51.455
X110.25Y-47.5
X110.25Y-60.0
X110.571Y-23.975
X111.291Y-54.495
X111.89Y-30.25
X112.302Y-43.835
X112.302Y-66.695
X114.842Y-31.135
X114.842Y-38.755
X114.842Y-46.375
X114.842Y-53.995
X114.842Y-61.615
X115.611Y-34.055
X115.611Y-49.175
X115.611Y-64.295
X117.382Y-69.235
T2
X97.25Y-23.5
X97.5Y-26.25
T4
X28.11Y-34.73
X28.11Y-37.27
X30.65Y-34.73
X30.65Y-37.27
X33.19Y-34.73
X33.19Y-37.27
X35.73Y-34.73
X35.73Y-37.27
X38.27Y-34.73
X38.27Y-37.27
X40.81Y-34.73
X40.81Y-37.27
X43.35Y-34.73
X43.35Y-37.27
X44.61Y-66.275
X44.61Y-68.815
X45.89Y-34.73
X45.89Y-37.27
X47.15Y-66.275
X47.15Y-68.815
X49.69Y-66.275
X49.69Y-68.815
X52.23Y-66.275
X52.23Y-68.815
X54.77Y-66.275
X54.77Y-68.815
X57.31Y-66.275
X57.31Y-68.815
X59.85Y-66.275
X59.85Y-68.815
X61.11Y-34.73
X61.11Y-37.27
X62.39Y-66.275
X62.39Y-68.815
X63.65Y-34.73
X63.65Y-37.27
X66.19Y-34.73
X66.19Y-37.27
X68.73Y-34.73
X68.73Y-37.27
X71.27Y-34.73
X71.27Y-37.27
X73.81Y-34.73
X73.81Y-37.27
X76.35Y-34.73
X76.35Y-37.27
X78.89Y-34.73
X78.89Y-37.27
X81.5Y-75.75
X92.5Y-75.75
X94.11Y-34.73
X94.11Y-37.27
X96.65Y-34.73
X96.65Y-37.27
X99.19Y-34.73
X99.19Y-37.27
X101.73Y-34.73
X101.73Y-37.27
X104.27Y-34.73
X104.27Y-37.27
X106.81Y-34.73
X106.81Y-37.27
X109.35Y-34.73
X109.35Y-37.27
X111.89Y-34.73
X111.89Y-37.27
T5
X84.5Y-70.75
X89.5Y-70.75
T3
X24.15Y-59.43G85X23.35Y-59.43
G05
X24.15Y-68.07G85X23.35Y-68.07
G05
X28.48Y-59.43G85X27.38Y-59.43
G05
X28.48Y-68.07G85X27.38Y-68.07
G05
M30
