M48
; DRILL file {KiCad 9.0.6} date 2026-02-24T20:41:21+0000
; FORMAT={-:-/ absolute / metric / decimal}
; #@! TF.CreationDate,2026-02-24T20:41:21+00:00
; #@! TF.GenerationSoftware,Kicad,Pcbnew,9.0.6
; #@! TF.FileFunction,Plated,1,4,PTH
FMAT,2
METRIC
; #@! TA.AperFunction,Plated,PTH,ViaDrill
T1C0.300
; #@! TA.AperFunction,Plated,PTH,ComponentDrill
T2C1.000
%
G90
G05
T1
X20.9Y-27.5
X20.9Y-38.7
X20.9Y-49.9
X21.3Y-71.9
X21.3Y-73.4
X21.9Y-34.8
X21.9Y-46.0
X21.9Y-57.2
X24.9Y-71.9
X24.9Y-73.4
X25.4Y-27.5
X25.4Y-38.7
X25.4Y-49.9
X25.75Y-33.35
X25.75Y-44.55
X25.75Y-55.75
X26.0Y-35.7
X26.0Y-46.9
X26.0Y-58.1
X27.4Y-28.6
X27.4Y-39.7
X27.4Y-50.9
X28.5Y-71.9
X28.5Y-73.4
X30.7Y-27.5
X30.7Y-38.7
X30.7Y-49.9
X31.7Y-34.8
X31.7Y-46.0
X31.7Y-57.2
X32.1Y-73.4
X32.125Y-71.9
X35.2Y-27.5
X35.2Y-38.7
X35.2Y-49.9
X35.55Y-33.35
X35.55Y-44.55
X35.55Y-55.75
X35.8Y-35.7
X35.8Y-46.9
X35.8Y-58.1
X35.9Y-71.9
X35.9Y-73.4
X37.2Y-28.6
X37.2Y-39.7
X37.2Y-50.9
X39.5Y-71.9
X39.5Y-73.4
X40.5Y-27.5
X40.5Y-38.7
X41.5Y-34.8
X41.5Y-46.0
X43.1Y-71.9
X43.1Y-73.4
X45.0Y-27.5
X45.0Y-38.7
X45.35Y-33.35
X45.35Y-44.55
X45.6Y-35.7
X45.6Y-46.9
X46.7Y-71.9
X46.7Y-73.4
X47.0Y-28.5
X47.0Y-39.7
T2
X25.11Y-21.73
X25.11Y-24.27
X25.11Y-63.33
X25.11Y-65.87
X27.65Y-21.73
X27.65Y-24.27
X27.65Y-63.33
X27.65Y-65.87
X30.19Y-21.73
X30.19Y-24.27
X30.19Y-63.33
X30.19Y-65.87
X32.73Y-21.73
X32.73Y-24.27
X32.73Y-63.33
X32.73Y-65.87
X35.27Y-21.73
X35.27Y-24.27
X35.27Y-63.33
X35.27Y-65.87
X37.81Y-21.73
X37.81Y-24.27
X37.81Y-63.33
X37.81Y-65.87
X40.35Y-21.73
X40.35Y-24.27
X40.35Y-63.33
X40.35Y-65.87
X42.89Y-21.73
X42.89Y-24.27
X42.89Y-63.33
X42.89Y-65.87
M30
