%TF.GenerationSoftware,KiCad,Pcbnew,9.0.6*%
%TF.CreationDate,2026-02-24T20:41:16+00:00*%
%TF.ProjectId,PullUpDown,50756c6c-5570-4446-9f77-6e2e6b696361,rev?*%
%TF.SameCoordinates,Original*%
%TF.FileFunction,Paste,Top*%
%TF.FilePolarity,Positive*%
%FSLAX46Y46*%
G04 Gerber Fmt 4.6, Leading zero omitted, Abs format (unit mm)*
G04 Created by KiCad (PCBNEW 9.0.6) date 2026-02-24 20:41:16*
%MOMM*%
%LPD*%
G01*
G04 APERTURE LIST*
G04 Aperture macros list*
%AMRoundRect*
0 Rectangle with rounded corners*
0 $1 Rounding radius*
0 $2 $3 $4 $5 $6 $7 $8 $9 X,Y pos of 4 corners*
0 Add a 4 corners polygon primitive as box body*
4,1,4,$2,$3,$4,$5,$6,$7,$8,$9,$2,$3,0*
0 Add four circle primitives for the rounded corners*
1,1,$1+$1,$2,$3*
1,1,$1+$1,$4,$5*
1,1,$1+$1,$6,$7*
1,1,$1+$1,$8,$9*
0 Add four rect primitives between the rounded corners*
20,1,$1+$1,$2,$3,$4,$5,0*
20,1,$1+$1,$4,$5,$6,$7,0*
20,1,$1+$1,$6,$7,$8,$9,0*
20,1,$1+$1,$8,$9,$2,$3,0*%
G04 Aperture macros list end*
%ADD10RoundRect,0.150000X-0.150000X0.587500X-0.150000X-0.587500X0.150000X-0.587500X0.150000X0.587500X0*%
%ADD11RoundRect,0.150000X-0.587500X-0.150000X0.587500X-0.150000X0.587500X0.150000X-0.587500X0.150000X0*%
%ADD12RoundRect,0.200000X0.275000X-0.200000X0.275000X0.200000X-0.275000X0.200000X-0.275000X-0.200000X0*%
%ADD13RoundRect,0.200000X-0.275000X0.200000X-0.275000X-0.200000X0.275000X-0.200000X0.275000X0.200000X0*%
%ADD14RoundRect,0.200000X0.200000X0.275000X-0.200000X0.275000X-0.200000X-0.275000X0.200000X-0.275000X0*%
%ADD15RoundRect,0.200000X-0.200000X-0.275000X0.200000X-0.275000X0.200000X0.275000X-0.200000X0.275000X0*%
G04 APERTURE END LIST*
D10*
%TO.C,Q7*%
X32650000Y-30162500D03*
X30750000Y-30162500D03*
X31700000Y-32037500D03*
%TD*%
%TO.C,Q9*%
X32650000Y-41362500D03*
X30750000Y-41362500D03*
X31700000Y-43237500D03*
%TD*%
D11*
%TO.C,Q12*%
X34462500Y-53850000D03*
X34462500Y-55750000D03*
X36337500Y-54800000D03*
%TD*%
D10*
%TO.C,Q1*%
X22850000Y-30162500D03*
X20950000Y-30162500D03*
X21900000Y-32037500D03*
%TD*%
D11*
%TO.C,Q2*%
X24662500Y-31450000D03*
X24662500Y-33350000D03*
X26537500Y-32400000D03*
%TD*%
D12*
%TO.C,R3*%
X23900000Y-28425000D03*
X23900000Y-26775000D03*
%TD*%
D13*
%TO.C,R6*%
X25400000Y-26775000D03*
X25400000Y-28425000D03*
%TD*%
D11*
%TO.C,Q6*%
X24662500Y-53850000D03*
X24662500Y-55750000D03*
X26537500Y-54800000D03*
%TD*%
D10*
%TO.C,Q3*%
X22850000Y-41362500D03*
X20950000Y-41362500D03*
X21900000Y-43237500D03*
%TD*%
D11*
%TO.C,Q10*%
X34462500Y-42650000D03*
X34462500Y-44550000D03*
X36337500Y-43600000D03*
%TD*%
%TO.C,Q8*%
X34462500Y-31450000D03*
X34462500Y-33350000D03*
X36337500Y-32400000D03*
%TD*%
D10*
%TO.C,Q11*%
X32650000Y-52562500D03*
X30750000Y-52562500D03*
X31700000Y-54437500D03*
%TD*%
D14*
%TO.C,R4*%
X25925000Y-29900000D03*
X24275000Y-29900000D03*
%TD*%
D11*
%TO.C,Q4*%
X24662500Y-42650000D03*
X24662500Y-44550000D03*
X26537500Y-43600000D03*
%TD*%
D10*
%TO.C,Q5*%
X22850000Y-52562500D03*
X20950000Y-52562500D03*
X21900000Y-54437500D03*
%TD*%
D14*
%TO.C,R53*%
X45525000Y-41100000D03*
X43875000Y-41100000D03*
%TD*%
D12*
%TO.C,R52*%
X43500000Y-39625000D03*
X43500000Y-37975000D03*
%TD*%
%TO.C,R45*%
X43500000Y-28425000D03*
X43500000Y-26775000D03*
%TD*%
D14*
%TO.C,R46*%
X45525000Y-29900000D03*
X43875000Y-29900000D03*
%TD*%
D13*
%TO.C,R48*%
X45000000Y-26775000D03*
X45000000Y-28425000D03*
%TD*%
D14*
%TO.C,R32*%
X35725000Y-41100000D03*
X34075000Y-41100000D03*
%TD*%
D10*
%TO.C,Q13*%
X42450000Y-30162500D03*
X40550000Y-30162500D03*
X41500000Y-32037500D03*
%TD*%
D12*
%TO.C,R10*%
X23900000Y-39625000D03*
X23900000Y-37975000D03*
%TD*%
D14*
%TO.C,R18*%
X25925000Y-52300000D03*
X24275000Y-52300000D03*
%TD*%
D12*
%TO.C,R24*%
X33700000Y-28425000D03*
X33700000Y-26775000D03*
%TD*%
%TO.C,R31*%
X33700000Y-39625000D03*
X33700000Y-37975000D03*
%TD*%
D11*
%TO.C,Q14*%
X44262500Y-31450000D03*
X44262500Y-33350000D03*
X46137500Y-32400000D03*
%TD*%
D10*
%TO.C,Q15*%
X42450000Y-41362500D03*
X40550000Y-41362500D03*
X41500000Y-43237500D03*
%TD*%
D11*
%TO.C,Q16*%
X44262500Y-42650000D03*
X44262500Y-44550000D03*
X46137500Y-43600000D03*
%TD*%
D13*
%TO.C,R13*%
X25400000Y-37975000D03*
X25400000Y-39625000D03*
%TD*%
%TO.C,R20*%
X25400000Y-49175000D03*
X25400000Y-50825000D03*
%TD*%
%TO.C,R27*%
X35200000Y-26775000D03*
X35200000Y-28425000D03*
%TD*%
D14*
%TO.C,R11*%
X25925000Y-41100000D03*
X24275000Y-41100000D03*
%TD*%
%TO.C,R25*%
X35725000Y-29900000D03*
X34075000Y-29900000D03*
%TD*%
D12*
%TO.C,R17*%
X23900000Y-50825000D03*
X23900000Y-49175000D03*
%TD*%
%TO.C,R38*%
X33700000Y-50825000D03*
X33700000Y-49175000D03*
%TD*%
D14*
%TO.C,R39*%
X35725000Y-52300000D03*
X34075000Y-52300000D03*
%TD*%
D13*
%TO.C,R41*%
X35200000Y-49175000D03*
X35200000Y-50825000D03*
%TD*%
D14*
%TO.C,R26*%
X35825000Y-34900000D03*
X34175000Y-34900000D03*
%TD*%
%TO.C,R5*%
X26025000Y-34900000D03*
X24375000Y-34900000D03*
%TD*%
%TO.C,R33*%
X35825000Y-46100000D03*
X34175000Y-46100000D03*
%TD*%
%TO.C,R12*%
X26025000Y-46100000D03*
X24375000Y-46100000D03*
%TD*%
%TO.C,R19*%
X26025000Y-57300000D03*
X24375000Y-57300000D03*
%TD*%
%TO.C,R40*%
X35825000Y-57300000D03*
X34175000Y-57300000D03*
%TD*%
%TO.C,R47*%
X45625000Y-34900000D03*
X43975000Y-34900000D03*
%TD*%
%TO.C,R54*%
X45625000Y-46100000D03*
X43975000Y-46100000D03*
%TD*%
D13*
%TO.C,R55*%
X45000000Y-37975000D03*
X45000000Y-39625000D03*
%TD*%
%TO.C,R34*%
X35200000Y-37975000D03*
X35200000Y-39625000D03*
%TD*%
D10*
%TO.C,D7*%
X42450000Y-34062500D03*
X40550000Y-34062500D03*
X41500000Y-35937500D03*
%TD*%
D15*
%TO.C,R81*%
X42175000Y-71900000D03*
X43825000Y-71900000D03*
%TD*%
D12*
%TO.C,R21*%
X27400000Y-53525000D03*
X27400000Y-51875000D03*
%TD*%
D15*
%TO.C,R72*%
X31375000Y-73400000D03*
X33025000Y-73400000D03*
%TD*%
%TO.C,R85*%
X45775000Y-71900000D03*
X47425000Y-71900000D03*
%TD*%
%TO.C,R73*%
X34975000Y-71900000D03*
X36625000Y-71900000D03*
%TD*%
D14*
%TO.C,R69*%
X33025000Y-71900000D03*
X31375000Y-71900000D03*
%TD*%
D13*
%TO.C,R1*%
X20900000Y-26775000D03*
X20900000Y-28425000D03*
%TD*%
%TO.C,R36*%
X30700000Y-49175000D03*
X30700000Y-50825000D03*
%TD*%
%TO.C,R44*%
X42000000Y-26775000D03*
X42000000Y-28425000D03*
%TD*%
%TO.C,R9*%
X22400000Y-37975000D03*
X22400000Y-39625000D03*
%TD*%
D14*
%TO.C,R66*%
X29425000Y-70400000D03*
X27775000Y-70400000D03*
%TD*%
D13*
%TO.C,R23*%
X32200000Y-26775000D03*
X32200000Y-28425000D03*
%TD*%
%TO.C,R37*%
X32200000Y-49175000D03*
X32200000Y-50825000D03*
%TD*%
D12*
%TO.C,R42*%
X37200000Y-53525000D03*
X37200000Y-51875000D03*
%TD*%
D15*
%TO.C,R78*%
X38575000Y-70400000D03*
X40225000Y-70400000D03*
%TD*%
D12*
%TO.C,R28*%
X37200000Y-31125000D03*
X37200000Y-29475000D03*
%TD*%
D13*
%TO.C,R50*%
X40500000Y-37975000D03*
X40500000Y-39625000D03*
%TD*%
D10*
%TO.C,D1*%
X22850000Y-34062500D03*
X20950000Y-34062500D03*
X21900000Y-35937500D03*
%TD*%
D15*
%TO.C,R77*%
X38575000Y-71900000D03*
X40225000Y-71900000D03*
%TD*%
D10*
%TO.C,D8*%
X42450000Y-45262500D03*
X40550000Y-45262500D03*
X41500000Y-47137500D03*
%TD*%
D15*
%TO.C,R60*%
X20575000Y-73400000D03*
X22225000Y-73400000D03*
%TD*%
D13*
%TO.C,R22*%
X30700000Y-26775000D03*
X30700000Y-28425000D03*
%TD*%
D14*
%TO.C,R65*%
X29425000Y-71900000D03*
X27775000Y-71900000D03*
%TD*%
D13*
%TO.C,R43*%
X40500000Y-26775000D03*
X40500000Y-28425000D03*
%TD*%
D10*
%TO.C,D4*%
X32650000Y-34062500D03*
X30750000Y-34062500D03*
X31700000Y-35937500D03*
%TD*%
D14*
%TO.C,R88*%
X47425000Y-73400000D03*
X45775000Y-73400000D03*
%TD*%
D13*
%TO.C,R30*%
X32200000Y-37975000D03*
X32200000Y-39625000D03*
%TD*%
D15*
%TO.C,R86*%
X45775000Y-70400000D03*
X47425000Y-70400000D03*
%TD*%
D14*
%TO.C,R76*%
X36625000Y-73400000D03*
X34975000Y-73400000D03*
%TD*%
D12*
%TO.C,R7*%
X27400000Y-31125000D03*
X27400000Y-29475000D03*
%TD*%
D15*
%TO.C,R64*%
X24175000Y-73400000D03*
X25825000Y-73400000D03*
%TD*%
D13*
%TO.C,R29*%
X30700000Y-37975000D03*
X30700000Y-39625000D03*
%TD*%
D15*
%TO.C,R68*%
X27775000Y-73400000D03*
X29425000Y-73400000D03*
%TD*%
D13*
%TO.C,R2*%
X22400000Y-26775000D03*
X22400000Y-28425000D03*
%TD*%
D14*
%TO.C,R70*%
X33025000Y-70400000D03*
X31375000Y-70400000D03*
%TD*%
%TO.C,R58*%
X22225000Y-70400000D03*
X20575000Y-70400000D03*
%TD*%
D12*
%TO.C,R14*%
X27400000Y-42325000D03*
X27400000Y-40675000D03*
%TD*%
D14*
%TO.C,R84*%
X43825000Y-73400000D03*
X42175000Y-73400000D03*
%TD*%
%TO.C,R61*%
X25825000Y-71900000D03*
X24175000Y-71900000D03*
%TD*%
D10*
%TO.C,D2*%
X22850000Y-45262500D03*
X20950000Y-45262500D03*
X21900000Y-47137500D03*
%TD*%
D12*
%TO.C,R49*%
X47000000Y-31125000D03*
X47000000Y-29475000D03*
%TD*%
D10*
%TO.C,D3*%
X22850000Y-56462500D03*
X20950000Y-56462500D03*
X21900000Y-58337500D03*
%TD*%
%TO.C,D6*%
X32650000Y-56462500D03*
X30750000Y-56462500D03*
X31700000Y-58337500D03*
%TD*%
%TO.C,D5*%
X32650000Y-45262500D03*
X30750000Y-45262500D03*
X31700000Y-47137500D03*
%TD*%
D15*
%TO.C,R82*%
X42175000Y-70400000D03*
X43825000Y-70400000D03*
%TD*%
D12*
%TO.C,R56*%
X47000000Y-42325000D03*
X47000000Y-40675000D03*
%TD*%
D13*
%TO.C,R15*%
X20900000Y-49175000D03*
X20900000Y-50825000D03*
%TD*%
D14*
%TO.C,R57*%
X22225000Y-71900000D03*
X20575000Y-71900000D03*
%TD*%
D15*
%TO.C,R74*%
X34975000Y-70400000D03*
X36625000Y-70400000D03*
%TD*%
D12*
%TO.C,R35*%
X37200000Y-42325000D03*
X37200000Y-40675000D03*
%TD*%
D13*
%TO.C,R51*%
X42000000Y-37975000D03*
X42000000Y-39625000D03*
%TD*%
%TO.C,R8*%
X20900000Y-37975000D03*
X20900000Y-39625000D03*
%TD*%
D14*
%TO.C,R62*%
X25825000Y-70400000D03*
X24175000Y-70400000D03*
%TD*%
D13*
%TO.C,R16*%
X22400000Y-49175000D03*
X22400000Y-50825000D03*
%TD*%
D14*
%TO.C,R80*%
X40225000Y-73400000D03*
X38575000Y-73400000D03*
%TD*%
M02*
