%TF.GenerationSoftware,KiCad,Pcbnew,9.0.6*%
%TF.CreationDate,2026-02-24T16:13:11+00:00*%
%TF.ProjectId,ControlBoard,436f6e74-726f-46c4-926f-6172642e6b69,rev?*%
%TF.SameCoordinates,Original*%
%TF.FileFunction,Soldermask,Bot*%
%TF.FilePolarity,Negative*%
%FSLAX46Y46*%
G04 Gerber Fmt 4.6, Leading zero omitted, Abs format (unit mm)*
G04 Created by KiCad (PCBNEW 9.0.6) date 2026-02-24 16:13:11*
%MOMM*%
%LPD*%
G01*
G04 APERTURE LIST*
G04 Aperture macros list*
%AMRoundRect*
0 Rectangle with rounded corners*
0 $1 Rounding radius*
0 $2 $3 $4 $5 $6 $7 $8 $9 X,Y pos of 4 corners*
0 Add a 4 corners polygon primitive as box body*
4,1,4,$2,$3,$4,$5,$6,$7,$8,$9,$2,$3,0*
0 Add four circle primitives for the rounded corners*
1,1,$1+$1,$2,$3*
1,1,$1+$1,$4,$5*
1,1,$1+$1,$6,$7*
1,1,$1+$1,$8,$9*
0 Add four rect primitives between the rounded corners*
20,1,$1+$1,$2,$3,$4,$5,0*
20,1,$1+$1,$4,$5,$6,$7,0*
20,1,$1+$1,$6,$7,$8,$9,0*
20,1,$1+$1,$8,$9,$2,$3,0*%
G04 Aperture macros list end*
%ADD10R,1.700000X1.700000*%
%ADD11O,1.700000X1.700000*%
%ADD12C,3.200000*%
%ADD13C,1.400000*%
%ADD14RoundRect,0.770000X0.980000X0.980000X-0.980000X0.980000X-0.980000X-0.980000X0.980000X-0.980000X0*%
%ADD15C,3.500000*%
%ADD16C,0.990600*%
G04 APERTURE END LIST*
D10*
%TO.C,J4*%
X45890000Y-34730000D03*
D11*
X45890000Y-37270000D03*
X43350000Y-34730000D03*
X43350000Y-37270000D03*
X40810000Y-34730000D03*
X40810000Y-37270000D03*
X38270000Y-34730000D03*
X38270000Y-37270000D03*
X35730000Y-34730000D03*
X35730000Y-37270000D03*
X33190000Y-34730000D03*
X33190000Y-37270000D03*
X30650000Y-34730000D03*
X30650000Y-37270000D03*
X28110000Y-34730000D03*
X28110000Y-37270000D03*
%TD*%
D10*
%TO.C,J5*%
X78890000Y-34730000D03*
D11*
X78890000Y-37270000D03*
X76350000Y-34730000D03*
X76350000Y-37270000D03*
X73810000Y-34730000D03*
X73810000Y-37270000D03*
X71270000Y-34730000D03*
X71270000Y-37270000D03*
X68730000Y-34730000D03*
X68730000Y-37270000D03*
X66190000Y-34730000D03*
X66190000Y-37270000D03*
X63650000Y-34730000D03*
X63650000Y-37270000D03*
X61110000Y-34730000D03*
X61110000Y-37270000D03*
%TD*%
D12*
%TO.C,H4*%
X115000000Y-75000000D03*
%TD*%
%TO.C,H1*%
X25000000Y-25000000D03*
%TD*%
D13*
%TO.C,J10*%
X92500000Y-75750000D03*
X81500000Y-75750000D03*
D14*
X89500000Y-70750000D03*
D15*
X84500000Y-70750000D03*
%TD*%
D10*
%TO.C,J6*%
X111890000Y-34730000D03*
D11*
X111890000Y-37270000D03*
X109350000Y-34730000D03*
X109350000Y-37270000D03*
X106810000Y-34730000D03*
X106810000Y-37270000D03*
X104270000Y-34730000D03*
X104270000Y-37270000D03*
X101730000Y-34730000D03*
X101730000Y-37270000D03*
X99190000Y-34730000D03*
X99190000Y-37270000D03*
X96650000Y-34730000D03*
X96650000Y-37270000D03*
X94110000Y-34730000D03*
X94110000Y-37270000D03*
%TD*%
D10*
%TO.C,J3*%
X62390000Y-66275000D03*
D11*
X62390000Y-68815000D03*
X59850000Y-66275000D03*
X59850000Y-68815000D03*
X57310000Y-66275000D03*
X57310000Y-68815000D03*
X54770000Y-66275000D03*
X54770000Y-68815000D03*
X52230000Y-66275000D03*
X52230000Y-68815000D03*
X49690000Y-66275000D03*
X49690000Y-68815000D03*
X47150000Y-66275000D03*
X47150000Y-68815000D03*
X44610000Y-66275000D03*
X44610000Y-68815000D03*
%TD*%
D13*
%TO.C,J7*%
X102770000Y-61000000D03*
X102770000Y-51000000D03*
%TD*%
D12*
%TO.C,H3*%
X25000000Y-75000000D03*
%TD*%
%TO.C,H2*%
X115000000Y-25000000D03*
%TD*%
D16*
%TO.C,J1*%
X57750000Y-48290000D03*
X56734000Y-43210000D03*
X58766000Y-43210000D03*
%TD*%
M02*
