%TF.GenerationSoftware,KiCad,Pcbnew,9.0.6*%
%TF.CreationDate,2026-02-24T20:39:39+00:00*%
%TF.ProjectId,Comms,436f6d6d-732e-46b6-9963-61645f706362,rev?*%
%TF.SameCoordinates,Original*%
%TF.FileFunction,Copper,L3,Inr*%
%TF.FilePolarity,Positive*%
%FSLAX46Y46*%
G04 Gerber Fmt 4.6, Leading zero omitted, Abs format (unit mm)*
G04 Created by KiCad (PCBNEW 9.0.6) date 2026-02-24 20:39:39*
%MOMM*%
%LPD*%
G01*
G04 APERTURE LIST*
%TA.AperFunction,ComponentPad*%
%ADD10R,1.700000X1.700000*%
%TD*%
%TA.AperFunction,ComponentPad*%
%ADD11O,1.700000X1.700000*%
%TD*%
%TA.AperFunction,ViaPad*%
%ADD12C,0.800000*%
%TD*%
%TA.AperFunction,ViaPad*%
%ADD13C,0.600000*%
%TD*%
G04 APERTURE END LIST*
D10*
%TO.N,SPI-CIPO*%
%TO.C,J1*%
X26270000Y-53890000D03*
D11*
%TO.N,ESP32-EN*%
X23730000Y-53890000D03*
%TO.N,SPI-CLK*%
X26270000Y-51350000D03*
%TO.N,~{ESP32-INT}*%
X23730000Y-51350000D03*
%TO.N,SPI-COPI*%
X26270000Y-48810000D03*
%TO.N,~{ESP32-CS}*%
X23730000Y-48810000D03*
%TO.N,unconnected-(J1-SDA-Pad7)*%
X26270000Y-46270000D03*
%TO.N,~{RTC-INT}*%
X23730000Y-46270000D03*
%TO.N,unconnected-(J1-SCL-Pad9)*%
X26270000Y-43730000D03*
%TO.N,~{RTC-CS}*%
X23730000Y-43730000D03*
%TO.N,GND*%
X26270000Y-41190000D03*
%TO.N,BUS-TX*%
X23730000Y-41190000D03*
%TO.N,+5V*%
X26270000Y-38650000D03*
%TO.N,BUS-DE*%
X23730000Y-38650000D03*
%TO.N,+3.3V*%
X26270000Y-36110000D03*
%TO.N,BUS-RX*%
X23730000Y-36110000D03*
%TD*%
D10*
%TO.N,+5V*%
%TO.C,J3*%
X40080000Y-23460000D03*
D11*
%TO.N,+3.3V*%
X40080000Y-26000000D03*
%TO.N,GND*%
X37540000Y-23460000D03*
X37540000Y-26000000D03*
%TO.N,A*%
X35000000Y-23460000D03*
%TO.N,B*%
X35000000Y-26000000D03*
%TD*%
D10*
%TO.N,+5V*%
%TO.C,J4*%
X56500000Y-23460000D03*
D11*
%TO.N,+3.3V*%
X56500000Y-26000000D03*
%TO.N,GND*%
X53960000Y-23460000D03*
X53960000Y-26000000D03*
%TO.N,A*%
X51420000Y-23460000D03*
%TO.N,B*%
X51420000Y-26000000D03*
%TD*%
D12*
%TO.N,GND*%
X44472000Y-59579800D03*
X54051200Y-49998800D03*
D13*
X29940000Y-39940000D03*
D12*
X54102000Y-67524800D03*
D13*
X42550000Y-41860000D03*
D12*
X56515000Y-47535000D03*
X46172000Y-59579800D03*
X46172000Y-61279800D03*
X53187600Y-60209600D03*
D13*
X59940000Y-44940000D03*
X39940000Y-34940000D03*
D12*
X64000000Y-37510000D03*
D13*
X49940000Y-54940000D03*
X32350000Y-33585000D03*
X39940000Y-64940000D03*
X24940000Y-29940000D03*
D12*
X53187600Y-62749600D03*
X50800000Y-46582500D03*
D13*
X49940000Y-39940000D03*
X62500000Y-53610000D03*
D12*
X44472000Y-61279800D03*
X44472000Y-57879800D03*
D13*
X44940000Y-24940000D03*
X54940000Y-29940000D03*
X48703750Y-47710000D03*
X35201717Y-32645000D03*
X24940000Y-59940000D03*
D12*
X46172000Y-57879800D03*
D13*
X57000000Y-64510000D03*
X64940000Y-34940000D03*
D12*
X42772000Y-57879800D03*
D13*
X59940000Y-59940000D03*
X30800000Y-30400000D03*
X62500000Y-55010000D03*
D12*
X42772000Y-59579800D03*
X42772000Y-61279800D03*
D13*
X34940000Y-54940000D03*
%TO.N,+3.3V*%
X29940000Y-54940000D03*
X44940000Y-29940000D03*
X40200000Y-46310000D03*
X34940000Y-39940000D03*
X35200000Y-50510000D03*
X54940000Y-34940000D03*
X64940000Y-39940000D03*
X30200000Y-46310000D03*
X49940000Y-44940000D03*
X64940000Y-59940000D03*
X59940000Y-24940000D03*
X30200000Y-50710000D03*
X29940000Y-24940000D03*
X44940000Y-54940000D03*
X34940000Y-64940000D03*
X59850000Y-62660000D03*
X59940000Y-49940000D03*
X49940000Y-64940000D03*
%TO.N,SPI-CLK*%
X44200000Y-48510000D03*
%TO.N,SPI-COPI*%
X42600000Y-48810000D03*
%TD*%
%TA.AperFunction,Conductor*%
%TO.N,GND*%
G36*
X64199882Y-20520185D02*
G01*
X64245637Y-20572989D01*
X64255581Y-20642147D01*
X64226556Y-20705703D01*
X64211508Y-20720353D01*
X64079130Y-20828992D01*
X63828992Y-21079130D01*
X63604568Y-21352592D01*
X63604558Y-21352606D01*
X63408028Y-21646734D01*
X63408017Y-21646752D01*
X63241264Y-21958723D01*
X63241262Y-21958728D01*
X63105882Y-22285563D01*
X63003188Y-22624104D01*
X63003185Y-22624115D01*
X62934176Y-22971053D01*
X62934173Y-22971070D01*
X62911399Y-23202303D01*
X62899500Y-23323119D01*
X62899500Y-23676881D01*
X62908305Y-23766276D01*
X62934173Y-24028929D01*
X62934176Y-24028946D01*
X63003185Y-24375884D01*
X63003188Y-24375895D01*
X63003190Y-24375904D01*
X63003191Y-24375905D01*
X63007618Y-24390499D01*
X63018695Y-24427017D01*
X63105882Y-24714435D01*
X63220168Y-24990347D01*
X63241262Y-25041271D01*
X63241264Y-25041276D01*
X63408017Y-25353247D01*
X63408028Y-25353265D01*
X63604558Y-25647393D01*
X63604568Y-25647407D01*
X63828992Y-25920869D01*
X64079130Y-26171007D01*
X64079135Y-26171011D01*
X64079136Y-26171012D01*
X64352598Y-26395436D01*
X64646741Y-26591976D01*
X64646750Y-26591981D01*
X64646752Y-26591982D01*
X64958723Y-26758735D01*
X64958725Y-26758735D01*
X64958731Y-26758739D01*
X65285565Y-26894118D01*
X65624095Y-26996809D01*
X65624101Y-26996810D01*
X65624104Y-26996811D01*
X65624115Y-26996814D01*
X65841674Y-27040088D01*
X65971060Y-27065825D01*
X66323119Y-27100500D01*
X66323122Y-27100500D01*
X66676878Y-27100500D01*
X66676881Y-27100500D01*
X67028940Y-27065825D01*
X67200679Y-27031663D01*
X67375884Y-26996814D01*
X67375895Y-26996811D01*
X67375895Y-26996810D01*
X67375905Y-26996809D01*
X67714435Y-26894118D01*
X68041269Y-26758739D01*
X68353259Y-26591976D01*
X68647402Y-26395436D01*
X68920864Y-26171012D01*
X69171012Y-25920864D01*
X69279647Y-25788490D01*
X69337392Y-25749157D01*
X69407237Y-25747286D01*
X69467005Y-25783473D01*
X69497721Y-25846229D01*
X69499500Y-25867156D01*
X69499500Y-64132843D01*
X69479815Y-64199882D01*
X69427011Y-64245637D01*
X69357853Y-64255581D01*
X69294297Y-64226556D01*
X69279647Y-64211508D01*
X69171007Y-64079130D01*
X68920869Y-63828992D01*
X68647407Y-63604568D01*
X68647406Y-63604567D01*
X68647402Y-63604564D01*
X68353259Y-63408024D01*
X68353254Y-63408021D01*
X68353247Y-63408017D01*
X68041276Y-63241264D01*
X68041271Y-63241262D01*
X67714436Y-63105882D01*
X67375895Y-63003188D01*
X67375884Y-63003185D01*
X67028946Y-62934176D01*
X67028929Y-62934173D01*
X66762700Y-62907952D01*
X66676881Y-62899500D01*
X66323119Y-62899500D01*
X66243748Y-62907317D01*
X65971070Y-62934173D01*
X65971053Y-62934176D01*
X65624115Y-63003185D01*
X65624104Y-63003188D01*
X65285563Y-63105882D01*
X64958728Y-63241262D01*
X64958723Y-63241264D01*
X64646752Y-63408017D01*
X64646734Y-63408028D01*
X64352606Y-63604558D01*
X64352592Y-63604568D01*
X64079130Y-63828992D01*
X63828992Y-64079130D01*
X63604568Y-64352592D01*
X63604558Y-64352606D01*
X63408028Y-64646734D01*
X63408017Y-64646752D01*
X63241264Y-64958723D01*
X63241262Y-64958728D01*
X63105882Y-65285563D01*
X63003188Y-65624104D01*
X63003185Y-65624115D01*
X62934176Y-65971053D01*
X62934173Y-65971070D01*
X62899500Y-66323122D01*
X62899500Y-66676877D01*
X62934173Y-67028929D01*
X62934176Y-67028946D01*
X63003185Y-67375884D01*
X63003188Y-67375895D01*
X63105882Y-67714436D01*
X63241262Y-68041271D01*
X63241264Y-68041276D01*
X63408017Y-68353247D01*
X63408028Y-68353265D01*
X63604558Y-68647393D01*
X63604568Y-68647407D01*
X63828992Y-68920869D01*
X64079130Y-69171007D01*
X64211508Y-69279647D01*
X64250842Y-69337392D01*
X64252713Y-69407237D01*
X64216525Y-69467005D01*
X64153770Y-69497721D01*
X64132843Y-69499500D01*
X25867157Y-69499500D01*
X25800118Y-69479815D01*
X25754363Y-69427011D01*
X25744419Y-69357853D01*
X25773444Y-69294297D01*
X25788492Y-69279647D01*
X25824220Y-69250324D01*
X25920864Y-69171012D01*
X26171012Y-68920864D01*
X26395436Y-68647402D01*
X26591976Y-68353259D01*
X26758739Y-68041269D01*
X26894118Y-67714435D01*
X26996809Y-67375905D01*
X26996811Y-67375895D01*
X26996814Y-67375884D01*
X27032634Y-67195800D01*
X27065825Y-67028940D01*
X27100500Y-66676881D01*
X27100500Y-66376540D01*
X56738200Y-66376540D01*
X56738200Y-66523459D01*
X56766858Y-66667534D01*
X56766861Y-66667544D01*
X56823078Y-66803266D01*
X56823083Y-66803275D01*
X56904698Y-66925419D01*
X56904701Y-66925423D01*
X57008576Y-67029298D01*
X57008580Y-67029301D01*
X57130724Y-67110916D01*
X57130730Y-67110919D01*
X57130731Y-67110920D01*
X57266458Y-67167140D01*
X57410540Y-67195799D01*
X57410544Y-67195800D01*
X57410545Y-67195800D01*
X57557456Y-67195800D01*
X57557457Y-67195799D01*
X57701542Y-67167140D01*
X57837269Y-67110920D01*
X57959420Y-67029301D01*
X58063301Y-66925420D01*
X58144920Y-66803269D01*
X58201140Y-66667542D01*
X58229800Y-66523455D01*
X58229800Y-66376545D01*
X58229799Y-66376540D01*
X58770200Y-66376540D01*
X58770200Y-66523459D01*
X58798858Y-66667534D01*
X58798861Y-66667544D01*
X58855078Y-66803266D01*
X58855083Y-66803275D01*
X58936698Y-66925419D01*
X58936701Y-66925423D01*
X59040576Y-67029298D01*
X59040580Y-67029301D01*
X59162724Y-67110916D01*
X59162730Y-67110919D01*
X59162731Y-67110920D01*
X59298458Y-67167140D01*
X59442540Y-67195799D01*
X59442544Y-67195800D01*
X59442545Y-67195800D01*
X59589456Y-67195800D01*
X59589457Y-67195799D01*
X59733542Y-67167140D01*
X59869269Y-67110920D01*
X59991420Y-67029301D01*
X60095301Y-66925420D01*
X60176920Y-66803269D01*
X60233140Y-66667542D01*
X60261800Y-66523455D01*
X60261800Y-66376545D01*
X60233140Y-66232458D01*
X60176920Y-66096731D01*
X60176919Y-66096730D01*
X60176916Y-66096724D01*
X60095301Y-65974580D01*
X60095298Y-65974576D01*
X59991423Y-65870701D01*
X59991419Y-65870698D01*
X59869275Y-65789083D01*
X59869266Y-65789078D01*
X59733544Y-65732861D01*
X59733545Y-65732861D01*
X59733542Y-65732860D01*
X59733538Y-65732859D01*
X59733534Y-65732858D01*
X59589459Y-65704200D01*
X59589455Y-65704200D01*
X59442545Y-65704200D01*
X59442540Y-65704200D01*
X59298465Y-65732858D01*
X59298455Y-65732861D01*
X59162733Y-65789078D01*
X59162724Y-65789083D01*
X59040580Y-65870698D01*
X59040576Y-65870701D01*
X58936701Y-65974576D01*
X58936698Y-65974580D01*
X58855083Y-66096724D01*
X58855078Y-66096733D01*
X58798861Y-66232455D01*
X58798858Y-66232465D01*
X58770200Y-66376540D01*
X58229799Y-66376540D01*
X58201140Y-66232458D01*
X58144920Y-66096731D01*
X58144919Y-66096730D01*
X58144916Y-66096724D01*
X58063301Y-65974580D01*
X58063298Y-65974576D01*
X57959423Y-65870701D01*
X57959419Y-65870698D01*
X57837275Y-65789083D01*
X57837266Y-65789078D01*
X57701544Y-65732861D01*
X57701545Y-65732861D01*
X57701542Y-65732860D01*
X57701538Y-65732859D01*
X57701534Y-65732858D01*
X57557459Y-65704200D01*
X57557455Y-65704200D01*
X57410545Y-65704200D01*
X57410540Y-65704200D01*
X57266465Y-65732858D01*
X57266455Y-65732861D01*
X57130733Y-65789078D01*
X57130724Y-65789083D01*
X57008580Y-65870698D01*
X57008576Y-65870701D01*
X56904701Y-65974576D01*
X56904698Y-65974580D01*
X56823083Y-66096724D01*
X56823078Y-66096733D01*
X56766861Y-66232455D01*
X56766858Y-66232465D01*
X56738200Y-66376540D01*
X27100500Y-66376540D01*
X27100500Y-66323119D01*
X27065825Y-65971060D01*
X27040088Y-65841674D01*
X26996814Y-65624115D01*
X26996811Y-65624104D01*
X26996810Y-65624101D01*
X26996809Y-65624095D01*
X26894118Y-65285565D01*
X26758739Y-64958731D01*
X26709988Y-64867525D01*
X34389500Y-64867525D01*
X34389500Y-65012475D01*
X34427016Y-65152485D01*
X34427017Y-65152488D01*
X34499488Y-65278011D01*
X34499490Y-65278013D01*
X34499491Y-65278015D01*
X34601985Y-65380509D01*
X34601986Y-65380510D01*
X34601988Y-65380511D01*
X34727511Y-65452982D01*
X34727512Y-65452982D01*
X34727515Y-65452984D01*
X34867525Y-65490500D01*
X34867528Y-65490500D01*
X35012472Y-65490500D01*
X35012475Y-65490500D01*
X35152485Y-65452984D01*
X35278015Y-65380509D01*
X35380509Y-65278015D01*
X35452984Y-65152485D01*
X35490500Y-65012475D01*
X35490500Y-64867525D01*
X49389500Y-64867525D01*
X49389500Y-65012475D01*
X49427016Y-65152485D01*
X49427017Y-65152488D01*
X49499488Y-65278011D01*
X49499490Y-65278013D01*
X49499491Y-65278015D01*
X49601985Y-65380509D01*
X49601986Y-65380510D01*
X49601988Y-65380511D01*
X49727511Y-65452982D01*
X49727512Y-65452982D01*
X49727515Y-65452984D01*
X49867525Y-65490500D01*
X49867528Y-65490500D01*
X50012472Y-65490500D01*
X50012475Y-65490500D01*
X50152485Y-65452984D01*
X50278015Y-65380509D01*
X50380509Y-65278015D01*
X50452984Y-65152485D01*
X50490500Y-65012475D01*
X50490500Y-64867525D01*
X50452984Y-64727515D01*
X50406355Y-64646752D01*
X50380511Y-64601988D01*
X50380506Y-64601982D01*
X50278017Y-64499493D01*
X50278011Y-64499488D01*
X50152488Y-64427017D01*
X50152489Y-64427017D01*
X50141006Y-64423940D01*
X50012475Y-64389500D01*
X49867525Y-64389500D01*
X49738993Y-64423940D01*
X49727511Y-64427017D01*
X49601988Y-64499488D01*
X49601982Y-64499493D01*
X49499493Y-64601982D01*
X49499488Y-64601988D01*
X49427017Y-64727511D01*
X49427016Y-64727515D01*
X49389500Y-64867525D01*
X35490500Y-64867525D01*
X35452984Y-64727515D01*
X35406355Y-64646752D01*
X35380511Y-64601988D01*
X35380506Y-64601982D01*
X35278017Y-64499493D01*
X35278011Y-64499488D01*
X35152488Y-64427017D01*
X35152489Y-64427017D01*
X35141006Y-64423940D01*
X35012475Y-64389500D01*
X34867525Y-64389500D01*
X34738993Y-64423940D01*
X34727511Y-64427017D01*
X34601988Y-64499488D01*
X34601982Y-64499493D01*
X34499493Y-64601982D01*
X34499488Y-64601988D01*
X34427017Y-64727511D01*
X34427016Y-64727515D01*
X34389500Y-64867525D01*
X26709988Y-64867525D01*
X26591976Y-64646741D01*
X26395436Y-64352598D01*
X26171012Y-64079136D01*
X26171011Y-64079135D01*
X26171007Y-64079130D01*
X25920869Y-63828992D01*
X25647407Y-63604568D01*
X25647406Y-63604567D01*
X25647402Y-63604564D01*
X25353259Y-63408024D01*
X25353254Y-63408021D01*
X25353247Y-63408017D01*
X25041276Y-63241264D01*
X25041271Y-63241262D01*
X24714436Y-63105882D01*
X24375895Y-63003188D01*
X24375884Y-63003185D01*
X24028946Y-62934176D01*
X24028929Y-62934173D01*
X23762700Y-62907952D01*
X23676881Y-62899500D01*
X23323119Y-62899500D01*
X23243748Y-62907317D01*
X22971070Y-62934173D01*
X22971053Y-62934176D01*
X22624115Y-63003185D01*
X22624104Y-63003188D01*
X22285563Y-63105882D01*
X21958728Y-63241262D01*
X21958723Y-63241264D01*
X21646752Y-63408017D01*
X21646734Y-63408028D01*
X21352606Y-63604558D01*
X21352592Y-63604568D01*
X21079130Y-63828992D01*
X20828992Y-64079130D01*
X20720353Y-64211508D01*
X20662608Y-64250842D01*
X20592763Y-64252713D01*
X20532995Y-64216525D01*
X20502279Y-64153770D01*
X20500500Y-64132843D01*
X20500500Y-62587525D01*
X59299500Y-62587525D01*
X59299500Y-62732475D01*
X59337016Y-62872485D01*
X59337017Y-62872488D01*
X59409488Y-62998011D01*
X59409490Y-62998013D01*
X59409491Y-62998015D01*
X59511985Y-63100509D01*
X59511986Y-63100510D01*
X59511988Y-63100511D01*
X59637511Y-63172982D01*
X59637512Y-63172982D01*
X59637515Y-63172984D01*
X59777525Y-63210500D01*
X59777528Y-63210500D01*
X59922472Y-63210500D01*
X59922475Y-63210500D01*
X60062485Y-63172984D01*
X60188015Y-63100509D01*
X60290509Y-62998015D01*
X60362984Y-62872485D01*
X60400500Y-62732475D01*
X60400500Y-62587525D01*
X60362984Y-62447515D01*
X60290509Y-62321985D01*
X60188015Y-62219491D01*
X60188013Y-62219490D01*
X60188011Y-62219488D01*
X60062488Y-62147017D01*
X60062489Y-62147017D01*
X60051006Y-62143940D01*
X59922475Y-62109500D01*
X59777525Y-62109500D01*
X59648993Y-62143940D01*
X59637511Y-62147017D01*
X59511988Y-62219488D01*
X59511982Y-62219493D01*
X59409493Y-62321982D01*
X59409488Y-62321988D01*
X59337017Y-62447511D01*
X59337016Y-62447515D01*
X59299500Y-62587525D01*
X20500500Y-62587525D01*
X20500500Y-61296540D01*
X57754200Y-61296540D01*
X57754200Y-61443459D01*
X57782858Y-61587534D01*
X57782861Y-61587544D01*
X57839078Y-61723266D01*
X57839083Y-61723275D01*
X57920698Y-61845419D01*
X57920701Y-61845423D01*
X58024576Y-61949298D01*
X58024580Y-61949301D01*
X58146724Y-62030916D01*
X58146730Y-62030919D01*
X58146731Y-62030920D01*
X58282458Y-62087140D01*
X58394872Y-62109500D01*
X58426540Y-62115799D01*
X58426544Y-62115800D01*
X58426545Y-62115800D01*
X58573456Y-62115800D01*
X58573457Y-62115799D01*
X58717542Y-62087140D01*
X58853269Y-62030920D01*
X58975420Y-61949301D01*
X59079301Y-61845420D01*
X59160920Y-61723269D01*
X59217140Y-61587542D01*
X59245800Y-61443455D01*
X59245800Y-61296545D01*
X59217140Y-61152458D01*
X59160920Y-61016731D01*
X59160919Y-61016730D01*
X59160916Y-61016724D01*
X59079301Y-60894580D01*
X59079298Y-60894576D01*
X58975423Y-60790701D01*
X58975419Y-60790698D01*
X58853275Y-60709083D01*
X58853266Y-60709078D01*
X58717544Y-60652861D01*
X58717545Y-60652861D01*
X58717542Y-60652860D01*
X58717538Y-60652859D01*
X58717534Y-60652858D01*
X58573459Y-60624200D01*
X58573455Y-60624200D01*
X58426545Y-60624200D01*
X58426540Y-60624200D01*
X58282465Y-60652858D01*
X58282455Y-60652861D01*
X58146733Y-60709078D01*
X58146724Y-60709083D01*
X58024580Y-60790698D01*
X58024576Y-60790701D01*
X57920701Y-60894576D01*
X57920698Y-60894580D01*
X57839083Y-61016724D01*
X57839078Y-61016733D01*
X57782861Y-61152455D01*
X57782858Y-61152465D01*
X57754200Y-61296540D01*
X20500500Y-61296540D01*
X20500500Y-59867525D01*
X64389500Y-59867525D01*
X64389500Y-60012475D01*
X64427016Y-60152485D01*
X64427017Y-60152488D01*
X64499488Y-60278011D01*
X64499490Y-60278013D01*
X64499491Y-60278015D01*
X64601985Y-60380509D01*
X64601986Y-60380510D01*
X64601988Y-60380511D01*
X64727511Y-60452982D01*
X64727512Y-60452982D01*
X64727515Y-60452984D01*
X64867525Y-60490500D01*
X64867528Y-60490500D01*
X65012472Y-60490500D01*
X65012475Y-60490500D01*
X65152485Y-60452984D01*
X65278015Y-60380509D01*
X65380509Y-60278015D01*
X65452984Y-60152485D01*
X65490500Y-60012475D01*
X65490500Y-59867525D01*
X65452984Y-59727515D01*
X65380509Y-59601985D01*
X65278015Y-59499491D01*
X65278013Y-59499490D01*
X65278011Y-59499488D01*
X65152488Y-59427017D01*
X65152489Y-59427017D01*
X65141006Y-59423940D01*
X65012475Y-59389500D01*
X64867525Y-59389500D01*
X64738993Y-59423940D01*
X64727511Y-59427017D01*
X64601988Y-59499488D01*
X64601982Y-59499493D01*
X64499493Y-59601982D01*
X64499488Y-59601988D01*
X64427017Y-59727511D01*
X64427016Y-59727515D01*
X64389500Y-59867525D01*
X20500500Y-59867525D01*
X20500500Y-53803389D01*
X22629500Y-53803389D01*
X22629500Y-53976611D01*
X22656598Y-54147701D01*
X22710127Y-54312445D01*
X22788768Y-54466788D01*
X22890586Y-54606928D01*
X23013072Y-54729414D01*
X23153212Y-54831232D01*
X23307555Y-54909873D01*
X23472299Y-54963402D01*
X23643389Y-54990500D01*
X23643390Y-54990500D01*
X23816610Y-54990500D01*
X23816611Y-54990500D01*
X23987701Y-54963402D01*
X24152445Y-54909873D01*
X24306788Y-54831232D01*
X24446928Y-54729414D01*
X24569414Y-54606928D01*
X24671232Y-54466788D01*
X24749873Y-54312445D01*
X24803402Y-54147701D01*
X24830500Y-53976611D01*
X24830500Y-53803389D01*
X24803402Y-53632299D01*
X24749873Y-53467555D01*
X24671232Y-53313212D01*
X24569414Y-53173072D01*
X24446928Y-53050586D01*
X24398390Y-53015321D01*
X25169500Y-53015321D01*
X25169500Y-54764678D01*
X25184032Y-54837735D01*
X25184033Y-54837739D01*
X25184034Y-54837740D01*
X25239399Y-54920601D01*
X25322260Y-54975966D01*
X25322264Y-54975967D01*
X25395321Y-54990499D01*
X25395324Y-54990500D01*
X25395326Y-54990500D01*
X27144676Y-54990500D01*
X27144677Y-54990499D01*
X27217740Y-54975966D01*
X27300601Y-54920601D01*
X27336065Y-54867525D01*
X29389500Y-54867525D01*
X29389500Y-55012475D01*
X29427016Y-55152485D01*
X29427017Y-55152488D01*
X29499488Y-55278011D01*
X29499490Y-55278013D01*
X29499491Y-55278015D01*
X29601985Y-55380509D01*
X29601986Y-55380510D01*
X29601988Y-55380511D01*
X29727511Y-55452982D01*
X29727512Y-55452982D01*
X29727515Y-55452984D01*
X29867525Y-55490500D01*
X29867528Y-55490500D01*
X30012472Y-55490500D01*
X30012475Y-55490500D01*
X30152485Y-55452984D01*
X30278015Y-55380509D01*
X30380509Y-55278015D01*
X30452984Y-55152485D01*
X30490500Y-55012475D01*
X30490500Y-54867525D01*
X44389500Y-54867525D01*
X44389500Y-55012475D01*
X44427016Y-55152485D01*
X44427017Y-55152488D01*
X44499488Y-55278011D01*
X44499490Y-55278013D01*
X44499491Y-55278015D01*
X44601985Y-55380509D01*
X44601986Y-55380510D01*
X44601988Y-55380511D01*
X44727511Y-55452982D01*
X44727512Y-55452982D01*
X44727515Y-55452984D01*
X44867525Y-55490500D01*
X44867528Y-55490500D01*
X45012472Y-55490500D01*
X45012475Y-55490500D01*
X45152485Y-55452984D01*
X45278015Y-55380509D01*
X45380509Y-55278015D01*
X45452984Y-55152485D01*
X45490500Y-55012475D01*
X45490500Y-54867525D01*
X45452984Y-54727515D01*
X45383363Y-54606929D01*
X45380511Y-54601988D01*
X45380506Y-54601982D01*
X45278017Y-54499493D01*
X45278011Y-54499488D01*
X45152488Y-54427017D01*
X45152489Y-54427017D01*
X45141006Y-54423940D01*
X45012475Y-54389500D01*
X44867525Y-54389500D01*
X44738993Y-54423940D01*
X44727511Y-54427017D01*
X44601988Y-54499488D01*
X44601982Y-54499493D01*
X44499493Y-54601982D01*
X44499488Y-54601988D01*
X44427017Y-54727511D01*
X44427016Y-54727515D01*
X44389500Y-54867525D01*
X30490500Y-54867525D01*
X30452984Y-54727515D01*
X30383363Y-54606929D01*
X30380511Y-54601988D01*
X30380506Y-54601982D01*
X30278017Y-54499493D01*
X30278011Y-54499488D01*
X30152488Y-54427017D01*
X30152489Y-54427017D01*
X30141006Y-54423940D01*
X30012475Y-54389500D01*
X29867525Y-54389500D01*
X29738993Y-54423940D01*
X29727511Y-54427017D01*
X29601988Y-54499488D01*
X29601982Y-54499493D01*
X29499493Y-54601982D01*
X29499488Y-54601988D01*
X29427017Y-54727511D01*
X29427016Y-54727515D01*
X29389500Y-54867525D01*
X27336065Y-54867525D01*
X27355966Y-54837740D01*
X27355967Y-54837735D01*
X27356471Y-54835204D01*
X27356471Y-54835202D01*
X27370499Y-54764678D01*
X27370500Y-54764676D01*
X27370500Y-53015323D01*
X27370499Y-53015321D01*
X27355967Y-52942264D01*
X27355966Y-52942260D01*
X27300601Y-52859399D01*
X27217740Y-52804034D01*
X27217739Y-52804033D01*
X27217735Y-52804032D01*
X27144677Y-52789500D01*
X27144674Y-52789500D01*
X25395326Y-52789500D01*
X25395323Y-52789500D01*
X25322264Y-52804032D01*
X25322260Y-52804033D01*
X25239399Y-52859399D01*
X25184033Y-52942260D01*
X25184032Y-52942264D01*
X25169500Y-53015321D01*
X24398390Y-53015321D01*
X24306788Y-52948768D01*
X24152445Y-52870127D01*
X23987701Y-52816598D01*
X23987699Y-52816597D01*
X23987698Y-52816597D01*
X23856271Y-52795781D01*
X23816611Y-52789500D01*
X23643389Y-52789500D01*
X23603728Y-52795781D01*
X23472302Y-52816597D01*
X23307552Y-52870128D01*
X23153211Y-52948768D01*
X23073256Y-53006859D01*
X23013072Y-53050586D01*
X23013070Y-53050588D01*
X23013069Y-53050588D01*
X22890588Y-53173069D01*
X22890588Y-53173070D01*
X22890586Y-53173072D01*
X22846859Y-53233256D01*
X22788768Y-53313211D01*
X22710128Y-53467552D01*
X22656597Y-53632302D01*
X22629500Y-53803389D01*
X20500500Y-53803389D01*
X20500500Y-51263389D01*
X22629500Y-51263389D01*
X22629500Y-51436611D01*
X22656598Y-51607701D01*
X22710127Y-51772445D01*
X22788768Y-51926788D01*
X22890586Y-52066928D01*
X23013072Y-52189414D01*
X23153212Y-52291232D01*
X23307555Y-52369873D01*
X23472299Y-52423402D01*
X23643389Y-52450500D01*
X23643390Y-52450500D01*
X23816610Y-52450500D01*
X23816611Y-52450500D01*
X23987701Y-52423402D01*
X24152445Y-52369873D01*
X24306788Y-52291232D01*
X24446928Y-52189414D01*
X24569414Y-52066928D01*
X24671232Y-51926788D01*
X24749873Y-51772445D01*
X24803402Y-51607701D01*
X24830500Y-51436611D01*
X24830500Y-51263389D01*
X25169500Y-51263389D01*
X25169500Y-51436611D01*
X25196598Y-51607701D01*
X25250127Y-51772445D01*
X25328768Y-51926788D01*
X25430586Y-52066928D01*
X25553072Y-52189414D01*
X25693212Y-52291232D01*
X25847555Y-52369873D01*
X26012299Y-52423402D01*
X26183389Y-52450500D01*
X26183390Y-52450500D01*
X26356610Y-52450500D01*
X26356611Y-52450500D01*
X26527701Y-52423402D01*
X26692445Y-52369873D01*
X26846788Y-52291232D01*
X26986928Y-52189414D01*
X27109414Y-52066928D01*
X27211232Y-51926788D01*
X27289873Y-51772445D01*
X27343402Y-51607701D01*
X27370500Y-51436611D01*
X27370500Y-51263389D01*
X27343402Y-51092299D01*
X27289873Y-50927555D01*
X27211232Y-50773212D01*
X27112649Y-50637525D01*
X29649500Y-50637525D01*
X29649500Y-50782475D01*
X29687016Y-50922485D01*
X29687017Y-50922488D01*
X29759488Y-51048011D01*
X29759490Y-51048013D01*
X29759491Y-51048015D01*
X29861985Y-51150509D01*
X29861986Y-51150510D01*
X29861988Y-51150511D01*
X29987511Y-51222982D01*
X29987512Y-51222982D01*
X29987515Y-51222984D01*
X30127525Y-51260500D01*
X30127528Y-51260500D01*
X30272472Y-51260500D01*
X30272475Y-51260500D01*
X30412485Y-51222984D01*
X30538015Y-51150509D01*
X30640509Y-51048015D01*
X30712984Y-50922485D01*
X30750500Y-50782475D01*
X30750500Y-50637525D01*
X30712984Y-50497515D01*
X30712982Y-50497511D01*
X30709454Y-50491400D01*
X30709453Y-50491399D01*
X30687273Y-50452982D01*
X30678349Y-50437525D01*
X34649500Y-50437525D01*
X34649500Y-50582475D01*
X34681603Y-50702284D01*
X34687017Y-50722488D01*
X34759488Y-50848011D01*
X34759490Y-50848013D01*
X34759491Y-50848015D01*
X34861985Y-50950509D01*
X34861986Y-50950510D01*
X34861988Y-50950511D01*
X34987511Y-51022982D01*
X34987512Y-51022982D01*
X34987515Y-51022984D01*
X35127525Y-51060500D01*
X35127528Y-51060500D01*
X35272472Y-51060500D01*
X35272475Y-51060500D01*
X35412485Y-51022984D01*
X35538015Y-50950509D01*
X35640509Y-50848015D01*
X35712984Y-50722485D01*
X35750500Y-50582475D01*
X35750500Y-50437525D01*
X35712984Y-50297515D01*
X35701723Y-50278011D01*
X35640511Y-50171988D01*
X35640506Y-50171982D01*
X35538017Y-50069493D01*
X35538011Y-50069488D01*
X35412488Y-49997017D01*
X35412489Y-49997017D01*
X35406646Y-49995451D01*
X35272475Y-49959500D01*
X35127525Y-49959500D01*
X34998993Y-49993940D01*
X34987511Y-49997017D01*
X34861988Y-50069488D01*
X34861982Y-50069493D01*
X34759493Y-50171982D01*
X34759488Y-50171988D01*
X34687017Y-50297511D01*
X34687016Y-50297515D01*
X34649500Y-50437525D01*
X30678349Y-50437525D01*
X30640509Y-50371985D01*
X30538015Y-50269491D01*
X30538013Y-50269490D01*
X30538011Y-50269488D01*
X30412488Y-50197017D01*
X30412489Y-50197017D01*
X30401006Y-50193940D01*
X30272475Y-50159500D01*
X30127525Y-50159500D01*
X29998993Y-50193940D01*
X29987511Y-50197017D01*
X29861988Y-50269488D01*
X29861982Y-50269493D01*
X29759493Y-50371982D01*
X29759488Y-50371988D01*
X29687017Y-50497511D01*
X29687016Y-50497515D01*
X29649500Y-50637525D01*
X27112649Y-50637525D01*
X27109414Y-50633072D01*
X26986928Y-50510586D01*
X26846788Y-50408768D01*
X26692445Y-50330127D01*
X26527701Y-50276598D01*
X26527699Y-50276597D01*
X26527698Y-50276597D01*
X26396271Y-50255781D01*
X26356611Y-50249500D01*
X26183389Y-50249500D01*
X26143728Y-50255781D01*
X26012302Y-50276597D01*
X25847552Y-50330128D01*
X25693211Y-50408768D01*
X25632357Y-50452982D01*
X25553072Y-50510586D01*
X25553070Y-50510588D01*
X25553069Y-50510588D01*
X25430588Y-50633069D01*
X25430588Y-50633070D01*
X25430586Y-50633072D01*
X25386859Y-50693256D01*
X25328768Y-50773211D01*
X25250128Y-50927552D01*
X25196597Y-51092302D01*
X25169958Y-51260500D01*
X25169500Y-51263389D01*
X24830500Y-51263389D01*
X24803402Y-51092299D01*
X24749873Y-50927555D01*
X24671232Y-50773212D01*
X24569414Y-50633072D01*
X24446928Y-50510586D01*
X24306788Y-50408768D01*
X24152445Y-50330127D01*
X23987701Y-50276598D01*
X23987699Y-50276597D01*
X23987698Y-50276597D01*
X23856271Y-50255781D01*
X23816611Y-50249500D01*
X23643389Y-50249500D01*
X23603728Y-50255781D01*
X23472302Y-50276597D01*
X23307552Y-50330128D01*
X23153211Y-50408768D01*
X23092357Y-50452982D01*
X23013072Y-50510586D01*
X23013070Y-50510588D01*
X23013069Y-50510588D01*
X22890588Y-50633069D01*
X22890588Y-50633070D01*
X22890586Y-50633072D01*
X22846859Y-50693256D01*
X22788768Y-50773211D01*
X22710128Y-50927552D01*
X22656597Y-51092302D01*
X22629958Y-51260500D01*
X22629500Y-51263389D01*
X20500500Y-51263389D01*
X20500500Y-48723389D01*
X22629500Y-48723389D01*
X22629500Y-48896610D01*
X22649515Y-49022984D01*
X22656598Y-49067701D01*
X22682694Y-49148017D01*
X22710128Y-49232447D01*
X22756259Y-49322984D01*
X22788768Y-49386788D01*
X22890586Y-49526928D01*
X23013072Y-49649414D01*
X23153212Y-49751232D01*
X23307555Y-49829873D01*
X23472299Y-49883402D01*
X23643389Y-49910500D01*
X23643390Y-49910500D01*
X23816610Y-49910500D01*
X23816611Y-49910500D01*
X23987701Y-49883402D01*
X24152445Y-49829873D01*
X24306788Y-49751232D01*
X24446928Y-49649414D01*
X24569414Y-49526928D01*
X24671232Y-49386788D01*
X24749873Y-49232445D01*
X24803402Y-49067701D01*
X24830500Y-48896611D01*
X24830500Y-48723389D01*
X25169500Y-48723389D01*
X25169500Y-48896610D01*
X25189515Y-49022984D01*
X25196598Y-49067701D01*
X25222694Y-49148017D01*
X25250128Y-49232447D01*
X25296259Y-49322984D01*
X25328768Y-49386788D01*
X25430586Y-49526928D01*
X25553072Y-49649414D01*
X25693212Y-49751232D01*
X25847555Y-49829873D01*
X26012299Y-49883402D01*
X26183389Y-49910500D01*
X26183390Y-49910500D01*
X26356610Y-49910500D01*
X26356611Y-49910500D01*
X26527701Y-49883402D01*
X26576565Y-49867525D01*
X59389500Y-49867525D01*
X59389500Y-50012475D01*
X59427016Y-50152485D01*
X59427017Y-50152488D01*
X59499488Y-50278011D01*
X59499490Y-50278013D01*
X59499491Y-50278015D01*
X59601985Y-50380509D01*
X59601986Y-50380510D01*
X59601988Y-50380511D01*
X59727511Y-50452982D01*
X59727512Y-50452982D01*
X59727515Y-50452984D01*
X59867525Y-50490500D01*
X59867528Y-50490500D01*
X60012472Y-50490500D01*
X60012475Y-50490500D01*
X60152485Y-50452984D01*
X60278015Y-50380509D01*
X60380509Y-50278015D01*
X60452984Y-50152485D01*
X60490500Y-50012475D01*
X60490500Y-49867525D01*
X60452984Y-49727515D01*
X60407892Y-49649414D01*
X60380511Y-49601988D01*
X60380506Y-49601982D01*
X60278017Y-49499493D01*
X60278011Y-49499488D01*
X60152488Y-49427017D01*
X60152489Y-49427017D01*
X60141006Y-49423940D01*
X60012475Y-49389500D01*
X59867525Y-49389500D01*
X59738993Y-49423940D01*
X59727511Y-49427017D01*
X59601988Y-49499488D01*
X59601982Y-49499493D01*
X59499493Y-49601982D01*
X59499488Y-49601988D01*
X59427017Y-49727511D01*
X59427016Y-49727515D01*
X59389500Y-49867525D01*
X26576565Y-49867525D01*
X26692445Y-49829873D01*
X26846788Y-49751232D01*
X26986928Y-49649414D01*
X27109414Y-49526928D01*
X27211232Y-49386788D01*
X27289873Y-49232445D01*
X27343402Y-49067701D01*
X27370500Y-48896611D01*
X27370500Y-48737525D01*
X42049500Y-48737525D01*
X42049500Y-48882475D01*
X42087016Y-49022485D01*
X42087017Y-49022488D01*
X42159488Y-49148011D01*
X42159490Y-49148013D01*
X42159491Y-49148015D01*
X42261985Y-49250509D01*
X42261986Y-49250510D01*
X42261988Y-49250511D01*
X42387511Y-49322982D01*
X42387512Y-49322982D01*
X42387515Y-49322984D01*
X42527525Y-49360500D01*
X42527528Y-49360500D01*
X42672472Y-49360500D01*
X42672475Y-49360500D01*
X42812485Y-49322984D01*
X42938015Y-49250509D01*
X43040509Y-49148015D01*
X43112984Y-49022485D01*
X43150500Y-48882475D01*
X43150500Y-48737525D01*
X43112984Y-48597515D01*
X43040509Y-48471985D01*
X43006049Y-48437525D01*
X43649500Y-48437525D01*
X43649500Y-48582475D01*
X43687016Y-48722485D01*
X43687017Y-48722488D01*
X43759488Y-48848011D01*
X43759490Y-48848013D01*
X43759491Y-48848015D01*
X43861985Y-48950509D01*
X43861986Y-48950510D01*
X43861988Y-48950511D01*
X43987511Y-49022982D01*
X43987512Y-49022982D01*
X43987515Y-49022984D01*
X44127525Y-49060500D01*
X44127528Y-49060500D01*
X44272472Y-49060500D01*
X44272475Y-49060500D01*
X44412485Y-49022984D01*
X44538015Y-48950509D01*
X44640509Y-48848015D01*
X44712984Y-48722485D01*
X44750500Y-48582475D01*
X44750500Y-48437525D01*
X44712984Y-48297515D01*
X44712696Y-48297017D01*
X44640511Y-48171988D01*
X44640506Y-48171982D01*
X44538017Y-48069493D01*
X44538011Y-48069488D01*
X44412488Y-47997017D01*
X44412489Y-47997017D01*
X44401006Y-47993940D01*
X44272475Y-47959500D01*
X44127525Y-47959500D01*
X43998993Y-47993940D01*
X43987511Y-47997017D01*
X43861988Y-48069488D01*
X43861982Y-48069493D01*
X43759493Y-48171982D01*
X43759488Y-48171988D01*
X43687017Y-48297511D01*
X43687016Y-48297515D01*
X43649500Y-48437525D01*
X43006049Y-48437525D01*
X42938015Y-48369491D01*
X42938013Y-48369490D01*
X42938011Y-48369488D01*
X42812488Y-48297017D01*
X42812489Y-48297017D01*
X42801006Y-48293940D01*
X42672475Y-48259500D01*
X42527525Y-48259500D01*
X42398993Y-48293940D01*
X42387511Y-48297017D01*
X42261988Y-48369488D01*
X42261982Y-48369493D01*
X42159493Y-48471982D01*
X42159488Y-48471988D01*
X42087017Y-48597511D01*
X42087016Y-48597515D01*
X42049500Y-48737525D01*
X27370500Y-48737525D01*
X27370500Y-48723389D01*
X27343402Y-48552299D01*
X27289873Y-48387555D01*
X27211232Y-48233212D01*
X27109414Y-48093072D01*
X26986928Y-47970586D01*
X26846788Y-47868768D01*
X26692445Y-47790127D01*
X26527701Y-47736598D01*
X26527699Y-47736597D01*
X26527698Y-47736597D01*
X26396271Y-47715781D01*
X26356611Y-47709500D01*
X26183389Y-47709500D01*
X26143728Y-47715781D01*
X26012302Y-47736597D01*
X25847552Y-47790128D01*
X25693211Y-47868768D01*
X25613256Y-47926859D01*
X25553072Y-47970586D01*
X25553070Y-47970588D01*
X25553069Y-47970588D01*
X25430588Y-48093069D01*
X25430588Y-48093070D01*
X25430586Y-48093072D01*
X25386859Y-48153256D01*
X25328768Y-48233211D01*
X25250128Y-48387552D01*
X25196597Y-48552302D01*
X25169500Y-48723389D01*
X24830500Y-48723389D01*
X24803402Y-48552299D01*
X24749873Y-48387555D01*
X24671232Y-48233212D01*
X24569414Y-48093072D01*
X24446928Y-47970586D01*
X24306788Y-47868768D01*
X24152445Y-47790127D01*
X23987701Y-47736598D01*
X23987699Y-47736597D01*
X23987698Y-47736597D01*
X23856271Y-47715781D01*
X23816611Y-47709500D01*
X23643389Y-47709500D01*
X23603728Y-47715781D01*
X23472302Y-47736597D01*
X23307552Y-47790128D01*
X23153211Y-47868768D01*
X23073256Y-47926859D01*
X23013072Y-47970586D01*
X23013070Y-47970588D01*
X23013069Y-47970588D01*
X22890588Y-48093069D01*
X22890588Y-48093070D01*
X22890586Y-48093072D01*
X22846859Y-48153256D01*
X22788768Y-48233211D01*
X22710128Y-48387552D01*
X22656597Y-48552302D01*
X22629500Y-48723389D01*
X20500500Y-48723389D01*
X20500500Y-46183389D01*
X22629500Y-46183389D01*
X22629500Y-46356611D01*
X22656598Y-46527701D01*
X22710127Y-46692445D01*
X22788768Y-46846788D01*
X22890586Y-46986928D01*
X23013072Y-47109414D01*
X23153212Y-47211232D01*
X23307555Y-47289873D01*
X23472299Y-47343402D01*
X23643389Y-47370500D01*
X23643390Y-47370500D01*
X23816610Y-47370500D01*
X23816611Y-47370500D01*
X23987701Y-47343402D01*
X24152445Y-47289873D01*
X24306788Y-47211232D01*
X24446928Y-47109414D01*
X24569414Y-46986928D01*
X24671232Y-46846788D01*
X24749873Y-46692445D01*
X24803402Y-46527701D01*
X24830500Y-46356611D01*
X24830500Y-46183389D01*
X25169500Y-46183389D01*
X25169500Y-46356611D01*
X25196598Y-46527701D01*
X25250127Y-46692445D01*
X25328768Y-46846788D01*
X25430586Y-46986928D01*
X25553072Y-47109414D01*
X25693212Y-47211232D01*
X25847555Y-47289873D01*
X26012299Y-47343402D01*
X26183389Y-47370500D01*
X26183390Y-47370500D01*
X26356610Y-47370500D01*
X26356611Y-47370500D01*
X26527701Y-47343402D01*
X26692445Y-47289873D01*
X26846788Y-47211232D01*
X26986928Y-47109414D01*
X27109414Y-46986928D01*
X27211232Y-46846788D01*
X27289873Y-46692445D01*
X27343402Y-46527701D01*
X27370500Y-46356611D01*
X27370500Y-46237525D01*
X29649500Y-46237525D01*
X29649500Y-46382475D01*
X29687016Y-46522485D01*
X29687017Y-46522488D01*
X29759488Y-46648011D01*
X29759490Y-46648013D01*
X29759491Y-46648015D01*
X29861985Y-46750509D01*
X29861986Y-46750510D01*
X29861988Y-46750511D01*
X29987511Y-46822982D01*
X29987512Y-46822982D01*
X29987515Y-46822984D01*
X30127525Y-46860500D01*
X30127528Y-46860500D01*
X30272472Y-46860500D01*
X30272475Y-46860500D01*
X30412485Y-46822984D01*
X30538015Y-46750509D01*
X30640509Y-46648015D01*
X30712984Y-46522485D01*
X30750500Y-46382475D01*
X30750500Y-46237525D01*
X39649500Y-46237525D01*
X39649500Y-46382475D01*
X39687016Y-46522485D01*
X39687017Y-46522488D01*
X39759488Y-46648011D01*
X39759490Y-46648013D01*
X39759491Y-46648015D01*
X39861985Y-46750509D01*
X39861986Y-46750510D01*
X39861988Y-46750511D01*
X39987511Y-46822982D01*
X39987512Y-46822982D01*
X39987515Y-46822984D01*
X40127525Y-46860500D01*
X40127528Y-46860500D01*
X40272472Y-46860500D01*
X40272475Y-46860500D01*
X40412485Y-46822984D01*
X40538015Y-46750509D01*
X40640509Y-46648015D01*
X40712984Y-46522485D01*
X40750500Y-46382475D01*
X40750500Y-46237525D01*
X40712984Y-46097515D01*
X40663784Y-46012299D01*
X40640511Y-45971988D01*
X40640506Y-45971982D01*
X40538017Y-45869493D01*
X40538011Y-45869488D01*
X40412488Y-45797017D01*
X40412489Y-45797017D01*
X40401006Y-45793940D01*
X40272475Y-45759500D01*
X40127525Y-45759500D01*
X39998993Y-45793940D01*
X39987511Y-45797017D01*
X39861988Y-45869488D01*
X39861982Y-45869493D01*
X39759493Y-45971982D01*
X39759488Y-45971988D01*
X39687017Y-46097511D01*
X39687016Y-46097515D01*
X39649500Y-46237525D01*
X30750500Y-46237525D01*
X30712984Y-46097515D01*
X30663784Y-46012299D01*
X30640511Y-45971988D01*
X30640506Y-45971982D01*
X30538017Y-45869493D01*
X30538011Y-45869488D01*
X30412488Y-45797017D01*
X30412489Y-45797017D01*
X30401006Y-45793940D01*
X30272475Y-45759500D01*
X30127525Y-45759500D01*
X29998993Y-45793940D01*
X29987511Y-45797017D01*
X29861988Y-45869488D01*
X29861982Y-45869493D01*
X29759493Y-45971982D01*
X29759488Y-45971988D01*
X29687017Y-46097511D01*
X29687016Y-46097515D01*
X29649500Y-46237525D01*
X27370500Y-46237525D01*
X27370500Y-46183389D01*
X27343402Y-46012299D01*
X27289873Y-45847555D01*
X27211232Y-45693212D01*
X27109414Y-45553072D01*
X26986928Y-45430586D01*
X26846788Y-45328768D01*
X26692445Y-45250127D01*
X26527701Y-45196598D01*
X26527699Y-45196597D01*
X26527698Y-45196597D01*
X26396271Y-45175781D01*
X26356611Y-45169500D01*
X26183389Y-45169500D01*
X26143728Y-45175781D01*
X26012302Y-45196597D01*
X25847552Y-45250128D01*
X25693211Y-45328768D01*
X25622001Y-45380506D01*
X25553072Y-45430586D01*
X25553070Y-45430588D01*
X25553069Y-45430588D01*
X25430588Y-45553069D01*
X25430588Y-45553070D01*
X25430586Y-45553072D01*
X25386859Y-45613256D01*
X25328768Y-45693211D01*
X25250128Y-45847552D01*
X25196597Y-46012302D01*
X25183101Y-46097515D01*
X25169500Y-46183389D01*
X24830500Y-46183389D01*
X24803402Y-46012299D01*
X24749873Y-45847555D01*
X24671232Y-45693212D01*
X24569414Y-45553072D01*
X24446928Y-45430586D01*
X24306788Y-45328768D01*
X24152445Y-45250127D01*
X23987701Y-45196598D01*
X23987699Y-45196597D01*
X23987698Y-45196597D01*
X23856271Y-45175781D01*
X23816611Y-45169500D01*
X23643389Y-45169500D01*
X23603728Y-45175781D01*
X23472302Y-45196597D01*
X23307552Y-45250128D01*
X23153211Y-45328768D01*
X23082001Y-45380506D01*
X23013072Y-45430586D01*
X23013070Y-45430588D01*
X23013069Y-45430588D01*
X22890588Y-45553069D01*
X22890588Y-45553070D01*
X22890586Y-45553072D01*
X22846859Y-45613256D01*
X22788768Y-45693211D01*
X22710128Y-45847552D01*
X22656597Y-46012302D01*
X22643101Y-46097515D01*
X22629500Y-46183389D01*
X20500500Y-46183389D01*
X20500500Y-44867525D01*
X49389500Y-44867525D01*
X49389500Y-45012475D01*
X49427016Y-45152485D01*
X49427017Y-45152488D01*
X49499488Y-45278011D01*
X49499490Y-45278013D01*
X49499491Y-45278015D01*
X49601985Y-45380509D01*
X49601986Y-45380510D01*
X49601988Y-45380511D01*
X49727511Y-45452982D01*
X49727512Y-45452982D01*
X49727515Y-45452984D01*
X49867525Y-45490500D01*
X49867528Y-45490500D01*
X50012472Y-45490500D01*
X50012475Y-45490500D01*
X50152485Y-45452984D01*
X50278015Y-45380509D01*
X50380509Y-45278015D01*
X50452984Y-45152485D01*
X50490500Y-45012475D01*
X50490500Y-44867525D01*
X50452984Y-44727515D01*
X50420489Y-44671233D01*
X50380511Y-44601988D01*
X50380506Y-44601982D01*
X50278017Y-44499493D01*
X50278011Y-44499488D01*
X50152488Y-44427017D01*
X50152489Y-44427017D01*
X50141006Y-44423940D01*
X50012475Y-44389500D01*
X49867525Y-44389500D01*
X49738993Y-44423940D01*
X49727511Y-44427017D01*
X49601988Y-44499488D01*
X49601982Y-44499493D01*
X49499493Y-44601982D01*
X49499488Y-44601988D01*
X49427017Y-44727511D01*
X49427016Y-44727515D01*
X49389500Y-44867525D01*
X20500500Y-44867525D01*
X20500500Y-43643389D01*
X22629500Y-43643389D01*
X22629500Y-43816611D01*
X22656598Y-43987701D01*
X22710127Y-44152445D01*
X22788768Y-44306788D01*
X22890586Y-44446928D01*
X23013072Y-44569414D01*
X23153212Y-44671232D01*
X23307555Y-44749873D01*
X23472299Y-44803402D01*
X23643389Y-44830500D01*
X23643390Y-44830500D01*
X23816610Y-44830500D01*
X23816611Y-44830500D01*
X23987701Y-44803402D01*
X24152445Y-44749873D01*
X24306788Y-44671232D01*
X24446928Y-44569414D01*
X24569414Y-44446928D01*
X24671232Y-44306788D01*
X24749873Y-44152445D01*
X24803402Y-43987701D01*
X24830500Y-43816611D01*
X24830500Y-43643389D01*
X25169500Y-43643389D01*
X25169500Y-43816611D01*
X25196598Y-43987701D01*
X25250127Y-44152445D01*
X25328768Y-44306788D01*
X25430586Y-44446928D01*
X25553072Y-44569414D01*
X25693212Y-44671232D01*
X25847555Y-44749873D01*
X26012299Y-44803402D01*
X26183389Y-44830500D01*
X26183390Y-44830500D01*
X26356610Y-44830500D01*
X26356611Y-44830500D01*
X26527701Y-44803402D01*
X26692445Y-44749873D01*
X26692449Y-44749871D01*
X26694326Y-44748915D01*
X26694330Y-44748913D01*
X26846786Y-44671233D01*
X26846785Y-44671233D01*
X26846788Y-44671232D01*
X26986928Y-44569414D01*
X27109414Y-44446928D01*
X27211232Y-44306788D01*
X27289873Y-44152445D01*
X27343402Y-43987701D01*
X27370500Y-43816611D01*
X27370500Y-43643389D01*
X27343402Y-43472299D01*
X27289873Y-43307555D01*
X27211232Y-43153212D01*
X27109414Y-43013072D01*
X26986928Y-42890586D01*
X26846788Y-42788768D01*
X26692445Y-42710127D01*
X26527701Y-42656598D01*
X26527699Y-42656597D01*
X26527698Y-42656597D01*
X26396271Y-42635781D01*
X26356611Y-42629500D01*
X26183389Y-42629500D01*
X26143728Y-42635781D01*
X26012302Y-42656597D01*
X25847552Y-42710128D01*
X25693211Y-42788768D01*
X25613256Y-42846859D01*
X25553072Y-42890586D01*
X25553070Y-42890588D01*
X25553069Y-42890588D01*
X25430588Y-43013069D01*
X25430588Y-43013070D01*
X25430586Y-43013072D01*
X25386859Y-43073256D01*
X25328768Y-43153211D01*
X25250128Y-43307552D01*
X25196597Y-43472302D01*
X25169500Y-43643389D01*
X24830500Y-43643389D01*
X24803402Y-43472299D01*
X24749873Y-43307555D01*
X24671232Y-43153212D01*
X24569414Y-43013072D01*
X24446928Y-42890586D01*
X24306788Y-42788768D01*
X24152445Y-42710127D01*
X23987701Y-42656598D01*
X23987699Y-42656597D01*
X23987698Y-42656597D01*
X23856271Y-42635781D01*
X23816611Y-42629500D01*
X23643389Y-42629500D01*
X23603728Y-42635781D01*
X23472302Y-42656597D01*
X23307552Y-42710128D01*
X23153211Y-42788768D01*
X23073256Y-42846859D01*
X23013072Y-42890586D01*
X23013070Y-42890588D01*
X23013069Y-42890588D01*
X22890588Y-43013069D01*
X22890588Y-43013070D01*
X22890586Y-43013072D01*
X22846859Y-43073256D01*
X22788768Y-43153211D01*
X22710128Y-43307552D01*
X22656597Y-43472302D01*
X22629500Y-43643389D01*
X20500500Y-43643389D01*
X20500500Y-41103389D01*
X22629500Y-41103389D01*
X22629500Y-41276611D01*
X22656598Y-41447701D01*
X22710127Y-41612445D01*
X22788768Y-41766788D01*
X22890586Y-41906928D01*
X23013072Y-42029414D01*
X23153212Y-42131232D01*
X23307555Y-42209873D01*
X23472299Y-42263402D01*
X23643389Y-42290500D01*
X23643390Y-42290500D01*
X23816610Y-42290500D01*
X23816611Y-42290500D01*
X23987701Y-42263402D01*
X24152445Y-42209873D01*
X24306788Y-42131232D01*
X24446928Y-42029414D01*
X24569414Y-41906928D01*
X24671232Y-41766788D01*
X24749873Y-41612445D01*
X24803402Y-41447701D01*
X24830500Y-41276611D01*
X24830500Y-41103389D01*
X24804622Y-40940000D01*
X25249157Y-40940000D01*
X25836988Y-40940000D01*
X25804075Y-40997007D01*
X25770000Y-41124174D01*
X25770000Y-41255826D01*
X25804075Y-41382993D01*
X25836988Y-41440000D01*
X25249157Y-41440000D01*
X25260350Y-41496274D01*
X25260351Y-41496276D01*
X25339500Y-41687358D01*
X25339505Y-41687368D01*
X25454410Y-41859335D01*
X25454413Y-41859339D01*
X25600660Y-42005586D01*
X25600664Y-42005589D01*
X25772631Y-42120494D01*
X25772641Y-42120499D01*
X25963723Y-42199648D01*
X25963725Y-42199649D01*
X26020000Y-42210842D01*
X26020000Y-41623012D01*
X26077007Y-41655925D01*
X26204174Y-41690000D01*
X26335826Y-41690000D01*
X26462993Y-41655925D01*
X26520000Y-41623012D01*
X26520000Y-42210842D01*
X26576274Y-42199649D01*
X26576276Y-42199648D01*
X26767358Y-42120499D01*
X26767368Y-42120494D01*
X26939335Y-42005589D01*
X26939339Y-42005586D01*
X27085586Y-41859339D01*
X27085589Y-41859335D01*
X27200494Y-41687368D01*
X27200499Y-41687358D01*
X27279648Y-41496276D01*
X27279649Y-41496274D01*
X27290843Y-41440000D01*
X26703012Y-41440000D01*
X26735925Y-41382993D01*
X26770000Y-41255826D01*
X26770000Y-41124174D01*
X26735925Y-40997007D01*
X26703012Y-40940000D01*
X27290843Y-40940000D01*
X27279649Y-40883725D01*
X27279648Y-40883723D01*
X27200499Y-40692641D01*
X27200494Y-40692631D01*
X27085589Y-40520664D01*
X27085586Y-40520660D01*
X26939339Y-40374413D01*
X26939335Y-40374410D01*
X26767368Y-40259505D01*
X26767358Y-40259500D01*
X26576272Y-40180349D01*
X26576267Y-40180347D01*
X26520000Y-40169155D01*
X26520000Y-40756988D01*
X26462993Y-40724075D01*
X26335826Y-40690000D01*
X26204174Y-40690000D01*
X26077007Y-40724075D01*
X26020000Y-40756988D01*
X26020000Y-40169156D01*
X26019999Y-40169155D01*
X25963732Y-40180347D01*
X25963727Y-40180349D01*
X25772641Y-40259500D01*
X25772631Y-40259505D01*
X25600664Y-40374410D01*
X25600660Y-40374413D01*
X25454413Y-40520660D01*
X25454410Y-40520664D01*
X25339505Y-40692631D01*
X25339500Y-40692641D01*
X25260351Y-40883723D01*
X25260350Y-40883725D01*
X25249157Y-40940000D01*
X24804622Y-40940000D01*
X24803402Y-40932299D01*
X24749873Y-40767555D01*
X24671232Y-40613212D01*
X24569414Y-40473072D01*
X24446928Y-40350586D01*
X24306788Y-40248768D01*
X24152445Y-40170127D01*
X23987701Y-40116598D01*
X23987699Y-40116597D01*
X23987698Y-40116597D01*
X23856271Y-40095781D01*
X23816611Y-40089500D01*
X23643389Y-40089500D01*
X23603728Y-40095781D01*
X23472302Y-40116597D01*
X23472299Y-40116598D01*
X23310547Y-40169155D01*
X23307552Y-40170128D01*
X23153211Y-40248768D01*
X23112957Y-40278015D01*
X23013072Y-40350586D01*
X23013070Y-40350588D01*
X23013069Y-40350588D01*
X22890588Y-40473069D01*
X22890588Y-40473070D01*
X22890586Y-40473072D01*
X22877924Y-40490500D01*
X22788768Y-40613211D01*
X22710128Y-40767552D01*
X22656597Y-40932302D01*
X22646349Y-40997007D01*
X22629500Y-41103389D01*
X20500500Y-41103389D01*
X20500500Y-39867525D01*
X34389500Y-39867525D01*
X34389500Y-40012475D01*
X34410139Y-40089500D01*
X34427017Y-40152488D01*
X34499488Y-40278011D01*
X34499490Y-40278013D01*
X34499491Y-40278015D01*
X34601985Y-40380509D01*
X34601986Y-40380510D01*
X34601988Y-40380511D01*
X34727511Y-40452982D01*
X34727512Y-40452982D01*
X34727515Y-40452984D01*
X34867525Y-40490500D01*
X34867528Y-40490500D01*
X35012472Y-40490500D01*
X35012475Y-40490500D01*
X35152485Y-40452984D01*
X35278015Y-40380509D01*
X35380509Y-40278015D01*
X35452984Y-40152485D01*
X35490500Y-40012475D01*
X35490500Y-39867525D01*
X64389500Y-39867525D01*
X64389500Y-40012475D01*
X64410139Y-40089500D01*
X64427017Y-40152488D01*
X64499488Y-40278011D01*
X64499490Y-40278013D01*
X64499491Y-40278015D01*
X64601985Y-40380509D01*
X64601986Y-40380510D01*
X64601988Y-40380511D01*
X64727511Y-40452982D01*
X64727512Y-40452982D01*
X64727515Y-40452984D01*
X64867525Y-40490500D01*
X64867528Y-40490500D01*
X65012472Y-40490500D01*
X65012475Y-40490500D01*
X65152485Y-40452984D01*
X65278015Y-40380509D01*
X65380509Y-40278015D01*
X65452984Y-40152485D01*
X65490500Y-40012475D01*
X65490500Y-39867525D01*
X65452984Y-39727515D01*
X65450609Y-39723402D01*
X65380511Y-39601988D01*
X65380506Y-39601982D01*
X65278017Y-39499493D01*
X65278011Y-39499488D01*
X65152488Y-39427017D01*
X65152489Y-39427017D01*
X65141006Y-39423940D01*
X65012475Y-39389500D01*
X64867525Y-39389500D01*
X64738993Y-39423940D01*
X64727511Y-39427017D01*
X64601988Y-39499488D01*
X64601982Y-39499493D01*
X64499493Y-39601982D01*
X64499488Y-39601988D01*
X64427017Y-39727511D01*
X64427016Y-39727515D01*
X64389500Y-39867525D01*
X35490500Y-39867525D01*
X35452984Y-39727515D01*
X35450609Y-39723402D01*
X35380511Y-39601988D01*
X35380506Y-39601982D01*
X35278017Y-39499493D01*
X35278011Y-39499488D01*
X35152488Y-39427017D01*
X35152489Y-39427017D01*
X35141006Y-39423940D01*
X35012475Y-39389500D01*
X34867525Y-39389500D01*
X34738993Y-39423940D01*
X34727511Y-39427017D01*
X34601988Y-39499488D01*
X34601982Y-39499493D01*
X34499493Y-39601982D01*
X34499488Y-39601988D01*
X34427017Y-39727511D01*
X34427016Y-39727515D01*
X34389500Y-39867525D01*
X20500500Y-39867525D01*
X20500500Y-38563389D01*
X22629500Y-38563389D01*
X22629500Y-38736611D01*
X22656598Y-38907701D01*
X22710127Y-39072445D01*
X22788768Y-39226788D01*
X22890586Y-39366928D01*
X23013072Y-39489414D01*
X23153212Y-39591232D01*
X23307555Y-39669873D01*
X23472299Y-39723402D01*
X23643389Y-39750500D01*
X23643390Y-39750500D01*
X23816610Y-39750500D01*
X23816611Y-39750500D01*
X23987701Y-39723402D01*
X24152445Y-39669873D01*
X24306788Y-39591232D01*
X24446928Y-39489414D01*
X24569414Y-39366928D01*
X24671232Y-39226788D01*
X24749873Y-39072445D01*
X24803402Y-38907701D01*
X24830500Y-38736611D01*
X24830500Y-38563389D01*
X25169500Y-38563389D01*
X25169500Y-38736611D01*
X25196598Y-38907701D01*
X25250127Y-39072445D01*
X25328768Y-39226788D01*
X25430586Y-39366928D01*
X25553072Y-39489414D01*
X25693212Y-39591232D01*
X25847555Y-39669873D01*
X26012299Y-39723402D01*
X26183389Y-39750500D01*
X26183390Y-39750500D01*
X26356610Y-39750500D01*
X26356611Y-39750500D01*
X26527701Y-39723402D01*
X26692445Y-39669873D01*
X26846788Y-39591232D01*
X26986928Y-39489414D01*
X27109414Y-39366928D01*
X27211232Y-39226788D01*
X27289873Y-39072445D01*
X27343402Y-38907701D01*
X27370500Y-38736611D01*
X27370500Y-38563389D01*
X27343402Y-38392299D01*
X27289873Y-38227555D01*
X27211232Y-38073212D01*
X27109414Y-37933072D01*
X26986928Y-37810586D01*
X26846788Y-37708768D01*
X26692445Y-37630127D01*
X26527701Y-37576598D01*
X26527699Y-37576597D01*
X26527698Y-37576597D01*
X26396271Y-37555781D01*
X26356611Y-37549500D01*
X26183389Y-37549500D01*
X26143728Y-37555781D01*
X26012302Y-37576597D01*
X25847552Y-37630128D01*
X25693211Y-37708768D01*
X25613256Y-37766859D01*
X25553072Y-37810586D01*
X25553070Y-37810588D01*
X25553069Y-37810588D01*
X25430588Y-37933069D01*
X25430588Y-37933070D01*
X25430586Y-37933072D01*
X25386859Y-37993256D01*
X25328768Y-38073211D01*
X25250128Y-38227552D01*
X25196597Y-38392302D01*
X25169500Y-38563389D01*
X24830500Y-38563389D01*
X24803402Y-38392299D01*
X24749873Y-38227555D01*
X24671232Y-38073212D01*
X24569414Y-37933072D01*
X24446928Y-37810586D01*
X24306788Y-37708768D01*
X24152445Y-37630127D01*
X23987701Y-37576598D01*
X23987699Y-37576597D01*
X23987698Y-37576597D01*
X23856271Y-37555781D01*
X23816611Y-37549500D01*
X23643389Y-37549500D01*
X23603728Y-37555781D01*
X23472302Y-37576597D01*
X23307552Y-37630128D01*
X23153211Y-37708768D01*
X23073256Y-37766859D01*
X23013072Y-37810586D01*
X23013070Y-37810588D01*
X23013069Y-37810588D01*
X22890588Y-37933069D01*
X22890588Y-37933070D01*
X22890586Y-37933072D01*
X22846859Y-37993256D01*
X22788768Y-38073211D01*
X22710128Y-38227552D01*
X22656597Y-38392302D01*
X22629500Y-38563389D01*
X20500500Y-38563389D01*
X20500500Y-36023389D01*
X22629500Y-36023389D01*
X22629500Y-36196611D01*
X22656598Y-36367701D01*
X22710127Y-36532445D01*
X22788768Y-36686788D01*
X22890586Y-36826928D01*
X23013072Y-36949414D01*
X23153212Y-37051232D01*
X23307555Y-37129873D01*
X23472299Y-37183402D01*
X23643389Y-37210500D01*
X23643390Y-37210500D01*
X23816610Y-37210500D01*
X23816611Y-37210500D01*
X23987701Y-37183402D01*
X24152445Y-37129873D01*
X24306788Y-37051232D01*
X24446928Y-36949414D01*
X24569414Y-36826928D01*
X24671232Y-36686788D01*
X24749873Y-36532445D01*
X24803402Y-36367701D01*
X24830500Y-36196611D01*
X24830500Y-36023389D01*
X25169500Y-36023389D01*
X25169500Y-36196611D01*
X25196598Y-36367701D01*
X25250127Y-36532445D01*
X25328768Y-36686788D01*
X25430586Y-36826928D01*
X25553072Y-36949414D01*
X25693212Y-37051232D01*
X25847555Y-37129873D01*
X26012299Y-37183402D01*
X26183389Y-37210500D01*
X26183390Y-37210500D01*
X26356610Y-37210500D01*
X26356611Y-37210500D01*
X26527701Y-37183402D01*
X26692445Y-37129873D01*
X26846788Y-37051232D01*
X26986928Y-36949414D01*
X27109414Y-36826928D01*
X27211232Y-36686788D01*
X27289873Y-36532445D01*
X27343402Y-36367701D01*
X27370500Y-36196611D01*
X27370500Y-36023389D01*
X27343402Y-35852299D01*
X27289873Y-35687555D01*
X27211232Y-35533212D01*
X27109414Y-35393072D01*
X26986928Y-35270586D01*
X26846788Y-35168768D01*
X26692445Y-35090127D01*
X26527701Y-35036598D01*
X26527699Y-35036597D01*
X26527698Y-35036597D01*
X26375375Y-35012472D01*
X26356611Y-35009500D01*
X26183389Y-35009500D01*
X26164625Y-35012472D01*
X26012302Y-35036597D01*
X25847552Y-35090128D01*
X25693211Y-35168768D01*
X25613256Y-35226859D01*
X25553072Y-35270586D01*
X25553070Y-35270588D01*
X25553069Y-35270588D01*
X25430588Y-35393069D01*
X25430588Y-35393070D01*
X25430586Y-35393072D01*
X25387059Y-35452982D01*
X25328768Y-35533211D01*
X25250128Y-35687552D01*
X25196597Y-35852302D01*
X25169500Y-36023389D01*
X24830500Y-36023389D01*
X24803402Y-35852299D01*
X24749873Y-35687555D01*
X24671232Y-35533212D01*
X24569414Y-35393072D01*
X24446928Y-35270586D01*
X24306788Y-35168768D01*
X24152445Y-35090127D01*
X23987701Y-35036598D01*
X23987699Y-35036597D01*
X23987698Y-35036597D01*
X23835375Y-35012472D01*
X23816611Y-35009500D01*
X23643389Y-35009500D01*
X23624625Y-35012472D01*
X23472302Y-35036597D01*
X23307552Y-35090128D01*
X23153211Y-35168768D01*
X23073256Y-35226859D01*
X23013072Y-35270586D01*
X23013070Y-35270588D01*
X23013069Y-35270588D01*
X22890588Y-35393069D01*
X22890588Y-35393070D01*
X22890586Y-35393072D01*
X22847059Y-35452982D01*
X22788768Y-35533211D01*
X22710128Y-35687552D01*
X22656597Y-35852302D01*
X22629500Y-36023389D01*
X20500500Y-36023389D01*
X20500500Y-34867525D01*
X54389500Y-34867525D01*
X54389500Y-35012475D01*
X54427016Y-35152485D01*
X54427017Y-35152488D01*
X54499488Y-35278011D01*
X54499490Y-35278013D01*
X54499491Y-35278015D01*
X54601985Y-35380509D01*
X54601986Y-35380510D01*
X54601988Y-35380511D01*
X54727511Y-35452982D01*
X54727512Y-35452982D01*
X54727515Y-35452984D01*
X54867525Y-35490500D01*
X54867528Y-35490500D01*
X55012472Y-35490500D01*
X55012475Y-35490500D01*
X55152485Y-35452984D01*
X55278015Y-35380509D01*
X55380509Y-35278015D01*
X55452984Y-35152485D01*
X55490500Y-35012475D01*
X55490500Y-34867525D01*
X55452984Y-34727515D01*
X55380509Y-34601985D01*
X55278015Y-34499491D01*
X55278013Y-34499490D01*
X55278011Y-34499488D01*
X55152488Y-34427017D01*
X55152489Y-34427017D01*
X55141006Y-34423940D01*
X55012475Y-34389500D01*
X54867525Y-34389500D01*
X54738993Y-34423940D01*
X54727511Y-34427017D01*
X54601988Y-34499488D01*
X54601982Y-34499493D01*
X54499493Y-34601982D01*
X54499488Y-34601988D01*
X54427017Y-34727511D01*
X54427016Y-34727515D01*
X54389500Y-34867525D01*
X20500500Y-34867525D01*
X20500500Y-29867525D01*
X44389500Y-29867525D01*
X44389500Y-30012475D01*
X44427016Y-30152485D01*
X44427017Y-30152488D01*
X44499488Y-30278011D01*
X44499490Y-30278013D01*
X44499491Y-30278015D01*
X44601985Y-30380509D01*
X44601986Y-30380510D01*
X44601988Y-30380511D01*
X44727511Y-30452982D01*
X44727512Y-30452982D01*
X44727515Y-30452984D01*
X44867525Y-30490500D01*
X44867528Y-30490500D01*
X45012472Y-30490500D01*
X45012475Y-30490500D01*
X45152485Y-30452984D01*
X45278015Y-30380509D01*
X45380509Y-30278015D01*
X45452984Y-30152485D01*
X45490500Y-30012475D01*
X45490500Y-29867525D01*
X45452984Y-29727515D01*
X45380509Y-29601985D01*
X45278015Y-29499491D01*
X45278013Y-29499490D01*
X45278011Y-29499488D01*
X45152488Y-29427017D01*
X45152489Y-29427017D01*
X45141006Y-29423940D01*
X45012475Y-29389500D01*
X44867525Y-29389500D01*
X44738993Y-29423940D01*
X44727511Y-29427017D01*
X44601988Y-29499488D01*
X44601982Y-29499493D01*
X44499493Y-29601982D01*
X44499488Y-29601988D01*
X44427017Y-29727511D01*
X44427016Y-29727515D01*
X44389500Y-29867525D01*
X20500500Y-29867525D01*
X20500500Y-25867156D01*
X20520185Y-25800117D01*
X20572989Y-25754362D01*
X20642147Y-25744418D01*
X20705703Y-25773443D01*
X20720349Y-25788487D01*
X20826555Y-25917899D01*
X20828993Y-25920870D01*
X21079130Y-26171007D01*
X21079135Y-26171011D01*
X21079136Y-26171012D01*
X21352598Y-26395436D01*
X21646741Y-26591976D01*
X21646750Y-26591981D01*
X21646752Y-26591982D01*
X21958723Y-26758735D01*
X21958725Y-26758735D01*
X21958731Y-26758739D01*
X22285565Y-26894118D01*
X22624095Y-26996809D01*
X22624101Y-26996810D01*
X22624104Y-26996811D01*
X22624115Y-26996814D01*
X22841674Y-27040088D01*
X22971060Y-27065825D01*
X23323119Y-27100500D01*
X23323122Y-27100500D01*
X23676878Y-27100500D01*
X23676881Y-27100500D01*
X24028940Y-27065825D01*
X24200679Y-27031663D01*
X24375884Y-26996814D01*
X24375895Y-26996811D01*
X24375895Y-26996810D01*
X24375905Y-26996809D01*
X24714435Y-26894118D01*
X25041269Y-26758739D01*
X25353259Y-26591976D01*
X25647402Y-26395436D01*
X25920864Y-26171012D01*
X26171012Y-25920864D01*
X26177147Y-25913389D01*
X33899500Y-25913389D01*
X33899500Y-26086611D01*
X33926598Y-26257701D01*
X33980127Y-26422445D01*
X34058768Y-26576788D01*
X34160586Y-26716928D01*
X34283072Y-26839414D01*
X34423212Y-26941232D01*
X34577555Y-27019873D01*
X34742299Y-27073402D01*
X34913389Y-27100500D01*
X34913390Y-27100500D01*
X35086610Y-27100500D01*
X35086611Y-27100500D01*
X35257701Y-27073402D01*
X35422445Y-27019873D01*
X35576788Y-26941232D01*
X35716928Y-26839414D01*
X35839414Y-26716928D01*
X35941232Y-26576788D01*
X36019873Y-26422445D01*
X36073402Y-26257701D01*
X36100500Y-26086611D01*
X36100500Y-25913389D01*
X36074622Y-25750000D01*
X36519157Y-25750000D01*
X37106988Y-25750000D01*
X37074075Y-25807007D01*
X37040000Y-25934174D01*
X37040000Y-26065826D01*
X37074075Y-26192993D01*
X37106988Y-26250000D01*
X36519157Y-26250000D01*
X36530350Y-26306274D01*
X36530351Y-26306276D01*
X36609500Y-26497358D01*
X36609505Y-26497368D01*
X36724410Y-26669335D01*
X36724413Y-26669339D01*
X36870660Y-26815586D01*
X36870664Y-26815589D01*
X37042631Y-26930494D01*
X37042641Y-26930499D01*
X37233723Y-27009648D01*
X37233725Y-27009649D01*
X37290000Y-27020842D01*
X37290000Y-26433012D01*
X37347007Y-26465925D01*
X37474174Y-26500000D01*
X37605826Y-26500000D01*
X37732993Y-26465925D01*
X37790000Y-26433012D01*
X37790000Y-27020842D01*
X37846274Y-27009649D01*
X37846276Y-27009648D01*
X38037358Y-26930499D01*
X38037368Y-26930494D01*
X38209335Y-26815589D01*
X38209339Y-26815586D01*
X38355586Y-26669339D01*
X38355589Y-26669335D01*
X38470494Y-26497368D01*
X38470499Y-26497358D01*
X38549648Y-26306276D01*
X38549649Y-26306274D01*
X38560843Y-26250000D01*
X37973012Y-26250000D01*
X38005925Y-26192993D01*
X38040000Y-26065826D01*
X38040000Y-25934174D01*
X38034431Y-25913389D01*
X38979500Y-25913389D01*
X38979500Y-26086611D01*
X39006598Y-26257701D01*
X39060127Y-26422445D01*
X39138768Y-26576788D01*
X39240586Y-26716928D01*
X39363072Y-26839414D01*
X39503212Y-26941232D01*
X39657555Y-27019873D01*
X39822299Y-27073402D01*
X39993389Y-27100500D01*
X39993390Y-27100500D01*
X40166610Y-27100500D01*
X40166611Y-27100500D01*
X40337701Y-27073402D01*
X40502445Y-27019873D01*
X40656788Y-26941232D01*
X40796928Y-26839414D01*
X40919414Y-26716928D01*
X41021232Y-26576788D01*
X41099873Y-26422445D01*
X41153402Y-26257701D01*
X41180500Y-26086611D01*
X41180500Y-25913389D01*
X50319500Y-25913389D01*
X50319500Y-26086611D01*
X50346598Y-26257701D01*
X50400127Y-26422445D01*
X50478768Y-26576788D01*
X50580586Y-26716928D01*
X50703072Y-26839414D01*
X50843212Y-26941232D01*
X50997555Y-27019873D01*
X51162299Y-27073402D01*
X51333389Y-27100500D01*
X51333390Y-27100500D01*
X51506610Y-27100500D01*
X51506611Y-27100500D01*
X51677701Y-27073402D01*
X51842445Y-27019873D01*
X51996788Y-26941232D01*
X52136928Y-26839414D01*
X52259414Y-26716928D01*
X52361232Y-26576788D01*
X52439873Y-26422445D01*
X52493402Y-26257701D01*
X52520500Y-26086611D01*
X52520500Y-25913389D01*
X52494622Y-25750000D01*
X52939157Y-25750000D01*
X53526988Y-25750000D01*
X53494075Y-25807007D01*
X53460000Y-25934174D01*
X53460000Y-26065826D01*
X53494075Y-26192993D01*
X53526988Y-26250000D01*
X52939157Y-26250000D01*
X52950350Y-26306274D01*
X52950351Y-26306276D01*
X53029500Y-26497358D01*
X53029505Y-26497368D01*
X53144410Y-26669335D01*
X53144413Y-26669339D01*
X53290660Y-26815586D01*
X53290664Y-26815589D01*
X53462631Y-26930494D01*
X53462641Y-26930499D01*
X53653723Y-27009648D01*
X53653725Y-27009649D01*
X53710000Y-27020842D01*
X53710000Y-26433012D01*
X53767007Y-26465925D01*
X53894174Y-26500000D01*
X54025826Y-26500000D01*
X54152993Y-26465925D01*
X54210000Y-26433012D01*
X54210000Y-27020842D01*
X54266274Y-27009649D01*
X54266276Y-27009648D01*
X54457358Y-26930499D01*
X54457368Y-26930494D01*
X54629335Y-26815589D01*
X54629339Y-26815586D01*
X54775586Y-26669339D01*
X54775589Y-26669335D01*
X54890494Y-26497368D01*
X54890499Y-26497358D01*
X54969648Y-26306276D01*
X54969649Y-26306274D01*
X54980843Y-26250000D01*
X54393012Y-26250000D01*
X54425925Y-26192993D01*
X54460000Y-26065826D01*
X54460000Y-25934174D01*
X54454431Y-25913389D01*
X55399500Y-25913389D01*
X55399500Y-26086611D01*
X55426598Y-26257701D01*
X55480127Y-26422445D01*
X55558768Y-26576788D01*
X55660586Y-26716928D01*
X55783072Y-26839414D01*
X55923212Y-26941232D01*
X56077555Y-27019873D01*
X56242299Y-27073402D01*
X56413389Y-27100500D01*
X56413390Y-27100500D01*
X56586610Y-27100500D01*
X56586611Y-27100500D01*
X56757701Y-27073402D01*
X56922445Y-27019873D01*
X57076788Y-26941232D01*
X57216928Y-26839414D01*
X57339414Y-26716928D01*
X57441232Y-26576788D01*
X57519873Y-26422445D01*
X57573402Y-26257701D01*
X57600500Y-26086611D01*
X57600500Y-25913389D01*
X57573402Y-25742299D01*
X57519873Y-25577555D01*
X57441232Y-25423212D01*
X57339414Y-25283072D01*
X57216928Y-25160586D01*
X57076788Y-25058768D01*
X57042444Y-25041269D01*
X56922449Y-24980128D01*
X56919430Y-24979147D01*
X56757701Y-24926598D01*
X56757699Y-24926597D01*
X56757698Y-24926597D01*
X56626271Y-24905781D01*
X56586611Y-24899500D01*
X56413389Y-24899500D01*
X56373728Y-24905781D01*
X56242302Y-24926597D01*
X56242299Y-24926598D01*
X56080547Y-24979155D01*
X56077552Y-24980128D01*
X55923211Y-25058768D01*
X55843256Y-25116859D01*
X55783072Y-25160586D01*
X55783070Y-25160588D01*
X55783069Y-25160588D01*
X55660588Y-25283069D01*
X55660588Y-25283070D01*
X55660586Y-25283072D01*
X55626011Y-25330660D01*
X55558768Y-25423211D01*
X55480128Y-25577552D01*
X55426597Y-25742302D01*
X55399500Y-25913389D01*
X54454431Y-25913389D01*
X54425925Y-25807007D01*
X54393012Y-25750000D01*
X54980843Y-25750000D01*
X54969649Y-25693725D01*
X54969648Y-25693723D01*
X54890499Y-25502641D01*
X54890494Y-25502631D01*
X54775589Y-25330664D01*
X54775586Y-25330660D01*
X54629339Y-25184413D01*
X54629335Y-25184410D01*
X54457368Y-25069505D01*
X54457358Y-25069500D01*
X54266272Y-24990349D01*
X54266267Y-24990347D01*
X54210000Y-24979155D01*
X54210000Y-25566988D01*
X54152993Y-25534075D01*
X54025826Y-25500000D01*
X53894174Y-25500000D01*
X53767007Y-25534075D01*
X53710000Y-25566988D01*
X53710000Y-24979156D01*
X53709999Y-24979155D01*
X53653732Y-24990347D01*
X53653727Y-24990349D01*
X53462641Y-25069500D01*
X53462631Y-25069505D01*
X53290664Y-25184410D01*
X53290660Y-25184413D01*
X53144413Y-25330660D01*
X53144410Y-25330664D01*
X53029505Y-25502631D01*
X53029500Y-25502641D01*
X52950351Y-25693723D01*
X52950350Y-25693725D01*
X52939157Y-25750000D01*
X52494622Y-25750000D01*
X52493402Y-25742299D01*
X52439873Y-25577555D01*
X52361232Y-25423212D01*
X52259414Y-25283072D01*
X52136928Y-25160586D01*
X51996788Y-25058768D01*
X51842445Y-24980127D01*
X51677701Y-24926598D01*
X51677699Y-24926597D01*
X51677698Y-24926597D01*
X51546271Y-24905781D01*
X51506611Y-24899500D01*
X51333389Y-24899500D01*
X51293728Y-24905781D01*
X51162302Y-24926597D01*
X51162299Y-24926598D01*
X51000547Y-24979155D01*
X50997552Y-24980128D01*
X50843211Y-25058768D01*
X50763256Y-25116859D01*
X50703072Y-25160586D01*
X50703070Y-25160588D01*
X50703069Y-25160588D01*
X50580588Y-25283069D01*
X50580588Y-25283070D01*
X50580586Y-25283072D01*
X50546011Y-25330660D01*
X50478768Y-25423211D01*
X50400128Y-25577552D01*
X50346597Y-25742302D01*
X50319500Y-25913389D01*
X41180500Y-25913389D01*
X41153402Y-25742299D01*
X41099873Y-25577555D01*
X41021232Y-25423212D01*
X40919414Y-25283072D01*
X40796928Y-25160586D01*
X40656788Y-25058768D01*
X40502445Y-24980127D01*
X40337701Y-24926598D01*
X40337699Y-24926597D01*
X40337698Y-24926597D01*
X40206271Y-24905781D01*
X40166611Y-24899500D01*
X39993389Y-24899500D01*
X39953728Y-24905781D01*
X39822302Y-24926597D01*
X39822299Y-24926598D01*
X39660547Y-24979155D01*
X39657552Y-24980128D01*
X39503211Y-25058768D01*
X39423256Y-25116859D01*
X39363072Y-25160586D01*
X39363070Y-25160588D01*
X39363069Y-25160588D01*
X39240588Y-25283069D01*
X39240588Y-25283070D01*
X39240586Y-25283072D01*
X39206011Y-25330660D01*
X39138768Y-25423211D01*
X39060128Y-25577552D01*
X39006597Y-25742302D01*
X38979500Y-25913389D01*
X38034431Y-25913389D01*
X38005925Y-25807007D01*
X37973012Y-25750000D01*
X38560843Y-25750000D01*
X38549649Y-25693725D01*
X38549648Y-25693723D01*
X38470499Y-25502641D01*
X38470494Y-25502631D01*
X38355589Y-25330664D01*
X38355586Y-25330660D01*
X38209339Y-25184413D01*
X38209335Y-25184410D01*
X38037368Y-25069505D01*
X38037358Y-25069500D01*
X37846272Y-24990349D01*
X37846267Y-24990347D01*
X37790000Y-24979155D01*
X37790000Y-25566988D01*
X37732993Y-25534075D01*
X37605826Y-25500000D01*
X37474174Y-25500000D01*
X37347007Y-25534075D01*
X37290000Y-25566988D01*
X37290000Y-24979156D01*
X37289999Y-24979155D01*
X37233732Y-24990347D01*
X37233727Y-24990349D01*
X37042641Y-25069500D01*
X37042631Y-25069505D01*
X36870664Y-25184410D01*
X36870660Y-25184413D01*
X36724413Y-25330660D01*
X36724410Y-25330664D01*
X36609505Y-25502631D01*
X36609500Y-25502641D01*
X36530351Y-25693723D01*
X36530350Y-25693725D01*
X36519157Y-25750000D01*
X36074622Y-25750000D01*
X36073402Y-25742299D01*
X36019873Y-25577555D01*
X35941232Y-25423212D01*
X35839414Y-25283072D01*
X35716928Y-25160586D01*
X35576788Y-25058768D01*
X35422445Y-24980127D01*
X35257701Y-24926598D01*
X35257699Y-24926597D01*
X35257698Y-24926597D01*
X35126271Y-24905781D01*
X35086611Y-24899500D01*
X34913389Y-24899500D01*
X34873728Y-24905781D01*
X34742302Y-24926597D01*
X34742299Y-24926598D01*
X34580547Y-24979155D01*
X34577552Y-24980128D01*
X34423211Y-25058768D01*
X34343256Y-25116859D01*
X34283072Y-25160586D01*
X34283070Y-25160588D01*
X34283069Y-25160588D01*
X34160588Y-25283069D01*
X34160588Y-25283070D01*
X34160586Y-25283072D01*
X34126011Y-25330660D01*
X34058768Y-25423211D01*
X33980128Y-25577552D01*
X33926597Y-25742302D01*
X33899500Y-25913389D01*
X26177147Y-25913389D01*
X26395436Y-25647402D01*
X26591976Y-25353259D01*
X26758739Y-25041269D01*
X26830706Y-24867525D01*
X29389500Y-24867525D01*
X29389500Y-25012475D01*
X29427016Y-25152485D01*
X29427017Y-25152488D01*
X29499488Y-25278011D01*
X29499490Y-25278013D01*
X29499491Y-25278015D01*
X29601985Y-25380509D01*
X29601986Y-25380510D01*
X29601988Y-25380511D01*
X29727511Y-25452982D01*
X29727512Y-25452982D01*
X29727515Y-25452984D01*
X29867525Y-25490500D01*
X29867528Y-25490500D01*
X30012472Y-25490500D01*
X30012475Y-25490500D01*
X30152485Y-25452984D01*
X30278015Y-25380509D01*
X30380509Y-25278015D01*
X30452984Y-25152485D01*
X30490500Y-25012475D01*
X30490500Y-24867525D01*
X59389500Y-24867525D01*
X59389500Y-25012475D01*
X59427016Y-25152485D01*
X59427017Y-25152488D01*
X59499488Y-25278011D01*
X59499490Y-25278013D01*
X59499491Y-25278015D01*
X59601985Y-25380509D01*
X59601986Y-25380510D01*
X59601988Y-25380511D01*
X59727511Y-25452982D01*
X59727512Y-25452982D01*
X59727515Y-25452984D01*
X59867525Y-25490500D01*
X59867528Y-25490500D01*
X60012472Y-25490500D01*
X60012475Y-25490500D01*
X60152485Y-25452984D01*
X60278015Y-25380509D01*
X60380509Y-25278015D01*
X60452984Y-25152485D01*
X60490500Y-25012475D01*
X60490500Y-24867525D01*
X60452984Y-24727515D01*
X60445432Y-24714435D01*
X60380511Y-24601988D01*
X60380506Y-24601982D01*
X60278017Y-24499493D01*
X60278011Y-24499488D01*
X60152488Y-24427017D01*
X60152489Y-24427017D01*
X60141006Y-24423940D01*
X60012475Y-24389500D01*
X59867525Y-24389500D01*
X59738993Y-24423940D01*
X59727511Y-24427017D01*
X59601988Y-24499488D01*
X59601982Y-24499493D01*
X59499493Y-24601982D01*
X59499488Y-24601988D01*
X59427017Y-24727511D01*
X59427016Y-24727515D01*
X59389500Y-24867525D01*
X30490500Y-24867525D01*
X30452984Y-24727515D01*
X30445432Y-24714435D01*
X30380511Y-24601988D01*
X30380506Y-24601982D01*
X30278017Y-24499493D01*
X30278011Y-24499488D01*
X30152488Y-24427017D01*
X30152489Y-24427017D01*
X30141006Y-24423940D01*
X30012475Y-24389500D01*
X29867525Y-24389500D01*
X29738993Y-24423940D01*
X29727511Y-24427017D01*
X29601988Y-24499488D01*
X29601982Y-24499493D01*
X29499493Y-24601982D01*
X29499488Y-24601988D01*
X29427017Y-24727511D01*
X29427016Y-24727515D01*
X29389500Y-24867525D01*
X26830706Y-24867525D01*
X26894118Y-24714435D01*
X26996809Y-24375905D01*
X26996811Y-24375895D01*
X26996814Y-24375884D01*
X27045855Y-24129335D01*
X27065825Y-24028940D01*
X27100500Y-23676881D01*
X27100500Y-23373389D01*
X33899500Y-23373389D01*
X33899500Y-23546611D01*
X33926598Y-23717701D01*
X33980127Y-23882445D01*
X34058768Y-24036788D01*
X34160586Y-24176928D01*
X34283072Y-24299414D01*
X34423212Y-24401232D01*
X34577555Y-24479873D01*
X34742299Y-24533402D01*
X34913389Y-24560500D01*
X34913390Y-24560500D01*
X35086610Y-24560500D01*
X35086611Y-24560500D01*
X35257701Y-24533402D01*
X35422445Y-24479873D01*
X35576788Y-24401232D01*
X35716928Y-24299414D01*
X35839414Y-24176928D01*
X35941232Y-24036788D01*
X36019873Y-23882445D01*
X36073402Y-23717701D01*
X36100500Y-23546611D01*
X36100500Y-23373389D01*
X36074622Y-23210000D01*
X36519157Y-23210000D01*
X37106988Y-23210000D01*
X37074075Y-23267007D01*
X37040000Y-23394174D01*
X37040000Y-23525826D01*
X37074075Y-23652993D01*
X37106988Y-23710000D01*
X36519157Y-23710000D01*
X36530350Y-23766274D01*
X36530351Y-23766276D01*
X36609500Y-23957358D01*
X36609505Y-23957368D01*
X36724410Y-24129335D01*
X36724413Y-24129339D01*
X36870660Y-24275586D01*
X36870664Y-24275589D01*
X37042631Y-24390494D01*
X37042641Y-24390499D01*
X37233723Y-24469648D01*
X37233725Y-24469649D01*
X37290000Y-24480842D01*
X37290000Y-23893012D01*
X37347007Y-23925925D01*
X37474174Y-23960000D01*
X37605826Y-23960000D01*
X37732993Y-23925925D01*
X37790000Y-23893012D01*
X37790000Y-24480842D01*
X37846274Y-24469649D01*
X37846276Y-24469648D01*
X38037358Y-24390499D01*
X38037368Y-24390494D01*
X38209335Y-24275589D01*
X38209339Y-24275586D01*
X38355586Y-24129339D01*
X38355589Y-24129335D01*
X38470494Y-23957368D01*
X38470499Y-23957358D01*
X38549648Y-23766276D01*
X38549649Y-23766274D01*
X38560843Y-23710000D01*
X37973012Y-23710000D01*
X38005925Y-23652993D01*
X38040000Y-23525826D01*
X38040000Y-23394174D01*
X38005925Y-23267007D01*
X37973012Y-23210000D01*
X38560843Y-23210000D01*
X38549649Y-23153725D01*
X38549648Y-23153723D01*
X38470499Y-22962641D01*
X38470494Y-22962631D01*
X38355589Y-22790664D01*
X38355586Y-22790660D01*
X38209339Y-22644413D01*
X38209335Y-22644410D01*
X38120902Y-22585321D01*
X38979500Y-22585321D01*
X38979500Y-24334678D01*
X38994032Y-24407735D01*
X38994033Y-24407739D01*
X39006914Y-24427017D01*
X39049399Y-24490601D01*
X39132260Y-24545966D01*
X39132264Y-24545967D01*
X39205321Y-24560499D01*
X39205324Y-24560500D01*
X39205326Y-24560500D01*
X40954676Y-24560500D01*
X40954677Y-24560499D01*
X41027740Y-24545966D01*
X41110601Y-24490601D01*
X41165966Y-24407740D01*
X41180500Y-24334674D01*
X41180500Y-23373389D01*
X50319500Y-23373389D01*
X50319500Y-23546611D01*
X50346598Y-23717701D01*
X50400127Y-23882445D01*
X50478768Y-24036788D01*
X50580586Y-24176928D01*
X50703072Y-24299414D01*
X50843212Y-24401232D01*
X50997555Y-24479873D01*
X51162299Y-24533402D01*
X51333389Y-24560500D01*
X51333390Y-24560500D01*
X51506610Y-24560500D01*
X51506611Y-24560500D01*
X51677701Y-24533402D01*
X51842445Y-24479873D01*
X51996788Y-24401232D01*
X52136928Y-24299414D01*
X52259414Y-24176928D01*
X52361232Y-24036788D01*
X52439873Y-23882445D01*
X52493402Y-23717701D01*
X52520500Y-23546611D01*
X52520500Y-23373389D01*
X52494622Y-23210000D01*
X52939157Y-23210000D01*
X53526988Y-23210000D01*
X53494075Y-23267007D01*
X53460000Y-23394174D01*
X53460000Y-23525826D01*
X53494075Y-23652993D01*
X53526988Y-23710000D01*
X52939157Y-23710000D01*
X52950350Y-23766274D01*
X52950351Y-23766276D01*
X53029500Y-23957358D01*
X53029505Y-23957368D01*
X53144410Y-24129335D01*
X53144413Y-24129339D01*
X53290660Y-24275586D01*
X53290664Y-24275589D01*
X53462631Y-24390494D01*
X53462641Y-24390499D01*
X53653723Y-24469648D01*
X53653725Y-24469649D01*
X53710000Y-24480842D01*
X53710000Y-23893012D01*
X53767007Y-23925925D01*
X53894174Y-23960000D01*
X54025826Y-23960000D01*
X54152993Y-23925925D01*
X54210000Y-23893012D01*
X54210000Y-24480842D01*
X54266274Y-24469649D01*
X54266276Y-24469648D01*
X54457358Y-24390499D01*
X54457368Y-24390494D01*
X54629335Y-24275589D01*
X54629339Y-24275586D01*
X54775586Y-24129339D01*
X54775589Y-24129335D01*
X54890494Y-23957368D01*
X54890499Y-23957358D01*
X54969648Y-23766276D01*
X54969649Y-23766274D01*
X54980843Y-23710000D01*
X54393012Y-23710000D01*
X54425925Y-23652993D01*
X54460000Y-23525826D01*
X54460000Y-23394174D01*
X54425925Y-23267007D01*
X54393012Y-23210000D01*
X54980843Y-23210000D01*
X54969649Y-23153725D01*
X54969648Y-23153723D01*
X54890499Y-22962641D01*
X54890494Y-22962631D01*
X54775589Y-22790664D01*
X54775586Y-22790660D01*
X54629339Y-22644413D01*
X54629335Y-22644410D01*
X54540902Y-22585321D01*
X55399500Y-22585321D01*
X55399500Y-24334678D01*
X55414032Y-24407735D01*
X55414033Y-24407739D01*
X55426914Y-24427017D01*
X55469399Y-24490601D01*
X55552260Y-24545966D01*
X55552264Y-24545967D01*
X55625321Y-24560499D01*
X55625324Y-24560500D01*
X55625326Y-24560500D01*
X57374676Y-24560500D01*
X57374677Y-24560499D01*
X57447740Y-24545966D01*
X57530601Y-24490601D01*
X57585966Y-24407740D01*
X57600500Y-24334674D01*
X57600500Y-22585326D01*
X57600500Y-22585323D01*
X57600499Y-22585321D01*
X57585967Y-22512264D01*
X57585966Y-22512260D01*
X57568253Y-22485750D01*
X57530601Y-22429399D01*
X57447740Y-22374034D01*
X57447739Y-22374033D01*
X57447735Y-22374032D01*
X57374677Y-22359500D01*
X57374674Y-22359500D01*
X55625326Y-22359500D01*
X55625323Y-22359500D01*
X55552264Y-22374032D01*
X55552260Y-22374033D01*
X55469399Y-22429399D01*
X55414033Y-22512260D01*
X55414032Y-22512264D01*
X55399500Y-22585321D01*
X54540902Y-22585321D01*
X54457368Y-22529505D01*
X54457358Y-22529500D01*
X54266272Y-22450349D01*
X54266267Y-22450347D01*
X54210000Y-22439155D01*
X54210000Y-23026988D01*
X54152993Y-22994075D01*
X54025826Y-22960000D01*
X53894174Y-22960000D01*
X53767007Y-22994075D01*
X53710000Y-23026988D01*
X53710000Y-22439156D01*
X53709999Y-22439155D01*
X53653732Y-22450347D01*
X53653727Y-22450349D01*
X53462641Y-22529500D01*
X53462631Y-22529505D01*
X53290664Y-22644410D01*
X53290660Y-22644413D01*
X53144413Y-22790660D01*
X53144410Y-22790664D01*
X53029505Y-22962631D01*
X53029500Y-22962641D01*
X52950351Y-23153723D01*
X52950350Y-23153725D01*
X52939157Y-23210000D01*
X52494622Y-23210000D01*
X52493402Y-23202299D01*
X52439873Y-23037555D01*
X52361232Y-22883212D01*
X52259414Y-22743072D01*
X52136928Y-22620586D01*
X51996788Y-22518768D01*
X51842445Y-22440127D01*
X51677701Y-22386598D01*
X51677699Y-22386597D01*
X51677698Y-22386597D01*
X51546271Y-22365781D01*
X51506611Y-22359500D01*
X51333389Y-22359500D01*
X51293728Y-22365781D01*
X51162302Y-22386597D01*
X51162299Y-22386598D01*
X51000547Y-22439155D01*
X50997552Y-22440128D01*
X50843211Y-22518768D01*
X50763256Y-22576859D01*
X50703072Y-22620586D01*
X50703070Y-22620588D01*
X50703069Y-22620588D01*
X50580588Y-22743069D01*
X50580588Y-22743070D01*
X50580586Y-22743072D01*
X50546011Y-22790660D01*
X50478768Y-22883211D01*
X50400128Y-23037552D01*
X50346597Y-23202302D01*
X50319500Y-23373389D01*
X41180500Y-23373389D01*
X41180500Y-22585326D01*
X41180500Y-22585323D01*
X41180499Y-22585321D01*
X41165967Y-22512264D01*
X41165966Y-22512260D01*
X41148253Y-22485750D01*
X41110601Y-22429399D01*
X41027740Y-22374034D01*
X41027739Y-22374033D01*
X41027735Y-22374032D01*
X40954677Y-22359500D01*
X40954674Y-22359500D01*
X39205326Y-22359500D01*
X39205323Y-22359500D01*
X39132264Y-22374032D01*
X39132260Y-22374033D01*
X39049399Y-22429399D01*
X38994033Y-22512260D01*
X38994032Y-22512264D01*
X38979500Y-22585321D01*
X38120902Y-22585321D01*
X38037368Y-22529505D01*
X38037358Y-22529500D01*
X37846272Y-22450349D01*
X37846267Y-22450347D01*
X37790000Y-22439155D01*
X37790000Y-23026988D01*
X37732993Y-22994075D01*
X37605826Y-22960000D01*
X37474174Y-22960000D01*
X37347007Y-22994075D01*
X37290000Y-23026988D01*
X37290000Y-22439156D01*
X37289999Y-22439155D01*
X37233732Y-22450347D01*
X37233727Y-22450349D01*
X37042641Y-22529500D01*
X37042631Y-22529505D01*
X36870664Y-22644410D01*
X36870660Y-22644413D01*
X36724413Y-22790660D01*
X36724410Y-22790664D01*
X36609505Y-22962631D01*
X36609500Y-22962641D01*
X36530351Y-23153723D01*
X36530350Y-23153725D01*
X36519157Y-23210000D01*
X36074622Y-23210000D01*
X36073402Y-23202299D01*
X36019873Y-23037555D01*
X35941232Y-22883212D01*
X35839414Y-22743072D01*
X35716928Y-22620586D01*
X35576788Y-22518768D01*
X35422445Y-22440127D01*
X35257701Y-22386598D01*
X35257699Y-22386597D01*
X35257698Y-22386597D01*
X35126271Y-22365781D01*
X35086611Y-22359500D01*
X34913389Y-22359500D01*
X34873728Y-22365781D01*
X34742302Y-22386597D01*
X34742299Y-22386598D01*
X34580547Y-22439155D01*
X34577552Y-22440128D01*
X34423211Y-22518768D01*
X34343256Y-22576859D01*
X34283072Y-22620586D01*
X34283070Y-22620588D01*
X34283069Y-22620588D01*
X34160588Y-22743069D01*
X34160588Y-22743070D01*
X34160586Y-22743072D01*
X34126011Y-22790660D01*
X34058768Y-22883211D01*
X33980128Y-23037552D01*
X33926597Y-23202302D01*
X33899500Y-23373389D01*
X27100500Y-23373389D01*
X27100500Y-23323119D01*
X27065825Y-22971060D01*
X27029941Y-22790660D01*
X26996814Y-22624115D01*
X26996811Y-22624104D01*
X26996810Y-22624101D01*
X26996809Y-22624095D01*
X26894118Y-22285565D01*
X26758739Y-21958731D01*
X26591976Y-21646741D01*
X26395436Y-21352598D01*
X26171012Y-21079136D01*
X26171011Y-21079135D01*
X26171007Y-21079130D01*
X25920869Y-20828992D01*
X25788492Y-20720353D01*
X25749158Y-20662608D01*
X25747287Y-20592763D01*
X25783475Y-20532995D01*
X25846230Y-20502279D01*
X25867157Y-20500500D01*
X64132843Y-20500500D01*
X64199882Y-20520185D01*
G37*
%TD.AperFunction*%
%TD*%
M02*
